<?xml version="1.0" encoding="utf-8"?>
<svg xmlns="http://www.w3.org/2000/svg" width="3000" height="2000" viewBox="463.485 592.812 2029.921 779.844">
  <path fill-rule="nonzero" fill="rgb(9.397888%, 15.281677%, 23.925781%)" fill-opacity="1" d="M 1887.089844 873.359375 C 1887.089844 877.898438 1886.089844 882.808594 1884.070312 888.109375 C 1881.300781 894.671875 1877.640625 897.941406 1873.101562 897.941406 C 1866.039062 897.941406 1861.128906 893.148438 1858.351562 883.570312 C 1855.070312 895.921875 1849.019531 902.101562 1840.199219 902.101562 C 1836.921875 902.101562 1834.019531 900.460938 1831.5 897.179688 C 1828.71875 893.148438 1827.339844 887.980469 1827.339844 881.679688 L 1827.339844 866.550781 C 1827.339844 865.289062 1826.449219 864.410156 1824.691406 863.898438 C 1822.921875 863.398438 1822.039062 862.140625 1822.039062 860.121094 C 1822.039062 856.839844 1823.550781 853.558594 1826.578125 850.289062 C 1829.101562 847.511719 1830.988281 846.128906 1832.261719 846.128906 C 1834.019531 846.128906 1834.898438 849.398438 1834.898438 855.960938 C 1834.898438 859.488281 1834.648438 862.449219 1834.140625 864.851562 C 1833.640625 867.25 1833.390625 869.199219 1833.390625 870.710938 C 1833.390625 874.488281 1834.140625 877.898438 1835.660156 880.921875 C 1837.171875 884.699219 1839.308594 886.601562 1842.089844 886.601562 C 1845.371094 886.601562 1848.449219 885.078125 1851.351562 882.058594 C 1854.25 879.03125 1855.699219 875.628906 1855.699219 871.851562 C 1855.699219 869.578125 1855.011719 865.609375 1853.621094 859.929688 C 1852.238281 854.261719 1851.539062 850.660156 1851.539062 849.148438 C 1851.539062 847.890625 1852.171875 845.941406 1853.429688 843.289062 C 1854.691406 840.640625 1855.578125 839.320312 1856.078125 839.320312 C 1857.339844 839.320312 1858.789062 843.101562 1860.429688 850.660156 C 1862.070312 858.230469 1862.890625 863.78125 1862.890625 867.308594 C 1862.890625 877.648438 1866.921875 882.808594 1874.988281 882.808594 C 1878.519531 882.808594 1880.671875 881.050781 1881.421875 877.519531 C 1874.609375 865.671875 1871.210938 856.46875 1871.210938 849.910156 C 1871.210938 846.378906 1872.089844 843.101562 1873.859375 840.078125 C 1875.121094 838.058594 1876 837.050781 1876.511719 837.050781 C 1877.011719 837.050781 1877.390625 838.308594 1877.640625 840.828125 C 1877.890625 844.109375 1878.398438 846.890625 1879.148438 849.148438 C 1879.410156 849.398438 1881.171875 853.691406 1884.449219 862.011719 C 1886.210938 866.800781 1887.089844 870.578125 1887.089844 873.359375 "/>
  <path fill-rule="nonzero" fill="rgb(9.397888%, 15.281677%, 23.925781%)" fill-opacity="1" d="M 2245.339844 885.441406 C 2245.339844 888.210938 2242.058594 894.128906 2235.511719 903.210938 C 2227.941406 913.800781 2220.761719 921.488281 2213.949219 926.28125 C 2209.660156 929.308594 2195.410156 934.101562 2171.210938 940.648438 C 2166.671875 941.410156 2164.398438 941.789062 2164.398438 941.789062 C 2164.898438 941.28125 2166.539062 940.019531 2169.320312 938.011719 C 2172.339844 935.488281 2181.039062 930.570312 2195.410156 923.261719 C 2208.78125 915.941406 2216.589844 911.28125 2218.859375 909.261719 C 2219.371094 908.761719 2219.621094 908.25 2219.621094 907.75 C 2219.621094 904.71875 2207.519531 903.210938 2183.308594 903.210938 C 2183.308594 903.210938 2178.769531 903.339844 2169.699219 903.589844 C 2164.898438 903.839844 2162.511719 903.589844 2162.511719 902.828125 C 2162.511719 902.328125 2163.140625 901.070312 2164.398438 899.050781 L 2173.101562 884.679688 C 2175.621094 880.390625 2180.28125 877.738281 2187.089844 876.730469 C 2189.359375 876.230469 2194.910156 875.980469 2203.738281 875.980469 C 2231.46875 875.980469 2245.339844 879.128906 2245.339844 885.441406 "/>
  <path fill-rule="nonzero" fill="rgb(9.397888%, 15.281677%, 23.925781%)" fill-opacity="1" d="M 2305.429688 1226.558594 C 2339.46875 1214.207031 2375.78125 1200.96875 2414.359375 1186.847656 C 2416.378906 1186.089844 2417.511719 1185.839844 2417.761719 1186.089844 C 2418.269531 1186.597656 2418.140625 1187.730469 2417.390625 1189.496094 C 2415.121094 1194.789062 2413.351562 1197.941406 2412.089844 1198.953125 C 2379.808594 1210.546875 2342.121094 1225.300781 2299 1243.203125 C 2300.519531 1238.160156 2302.660156 1232.613281 2305.429688 1226.558594 "/>
  <path fill-rule="nonzero" fill="rgb(9.397888%, 15.281677%, 23.925781%)" fill-opacity="1" d="M 2369.96875 1028.566406 C 2369.96875 1025.035156 2367.070312 1017.597656 2361.269531 1006.25 C 2353.960938 991.878906 2348.789062 980.03125 2345.761719 970.699219 C 2339.460938 951.789062 2335.300781 934.140625 2333.28125 917.75 C 2332.269531 911.191406 2331.640625 907.28125 2331.390625 906.019531 C 2330.378906 902.488281 2328.621094 899.089844 2326.101562 895.808594 C 2327.859375 890.011719 2330.628906 882.070312 2334.421875 871.980469 C 2335.679688 868.960938 2336.808594 867.441406 2337.820312 867.441406 C 2338.578125 867.441406 2339.96875 868.960938 2341.980469 871.980469 C 2351.820312 885.351562 2360.011719 897.449219 2366.570312 908.289062 C 2369.339844 912.578125 2370.730469 915.730469 2370.730469 917.75 C 2370.730469 919.011719 2370.101562 919.640625 2368.839844 919.640625 C 2366.570312 919.640625 2362.148438 917.621094 2355.601562 913.589844 C 2355.089844 913.589844 2354.589844 913.96875 2354.089844 914.71875 C 2356.359375 922.789062 2360.011719 933.890625 2365.050781 948.011719 C 2375.890625 979.519531 2381.320312 1002.46875 2381.320312 1016.839844 C 2381.320312 1029.445312 2378.289062 1042.183594 2372.238281 1055.039062 C 2364.359375 1070.574219 2354.019531 1078.96875 2341.230469 1080.214844 L 2341.230469 1080.757812 C 2322.820312 1080.757812 2309.578125 1069.03125 2301.519531 1045.582031 C 2300.511719 1042.304688 2299.371094 1042.304688 2298.109375 1045.582031 C 2287.519531 1072.5625 2272.519531 1086.050781 2253.101562 1086.050781 C 2233.429688 1086.050781 2221.839844 1073.699219 2218.308594 1048.984375 C 2218.050781 1046.96875 2217.679688 1045.960938 2217.171875 1045.960938 C 2216.921875 1045.960938 2216.160156 1046.96875 2214.898438 1048.984375 C 2210.109375 1056.804688 2203.300781 1064.746094 2194.480469 1072.8125 C 2179.609375 1085.925781 2164.980469 1092.484375 2150.601562 1092.484375 C 2140.769531 1092.484375 2132.328125 1088.070312 2125.269531 1079.242188 C 2121.480469 1074.453125 2116.941406 1066.257812 2111.648438 1054.660156 C 2107.621094 1046.085938 2104.339844 1041.800781 2101.808594 1041.800781 C 2097.28125 1041.800781 2090.46875 1046.59375 2081.390625 1056.175781 C 2071.558594 1066.257812 2066.640625 1074.957031 2066.640625 1082.269531 C 2066.640625 1088.574219 2069.539062 1094.878906 2075.339844 1101.179688 L 2075.320312 1101.453125 C 2091.808594 1095.976562 2105.199219 1093.238281 2115.46875 1093.238281 C 2126.058594 1093.238281 2134.378906 1097.652344 2140.429688 1106.476562 C 2146.488281 1115.300781 2149.511719 1126.902344 2149.511719 1141.273438 C 2149.511719 1153.125 2146.921875 1162.894531 2141.761719 1170.585938 C 2136.589844 1178.273438 2129.71875 1182.121094 2121.140625 1182.121094 C 2101.980469 1182.121094 2084.578125 1167.496094 2068.949219 1138.246094 C 2049.03125 1146.0625 2026.078125 1160.183594 2000.109375 1180.605469 C 1981.199219 1196.242188 1962.289062 1211.746094 1943.378906 1227.125 C 1929.261719 1237.71875 1916.53125 1243.011719 1905.179688 1243.011719 C 1892.828125 1243.011719 1882.109375 1237.59375 1873.03125 1226.75 C 1863.449219 1215.148438 1858.660156 1201.160156 1858.660156 1184.769531 C 1858.660156 1162.074219 1867.988281 1132.445312 1886.648438 1095.886719 C 1888.671875 1092.101562 1890.179688 1090.214844 1891.191406 1090.214844 C 1891.691406 1090.214844 1891.949219 1090.71875 1891.949219 1091.726562 C 1891.949219 1095.257812 1887.910156 1107.988281 1879.839844 1129.925781 C 1871.769531 1151.863281 1867.738281 1169.007812 1867.738281 1181.363281 C 1867.738281 1191.195312 1870.011719 1199.015625 1874.550781 1204.8125 C 1879.589844 1211.117188 1886.269531 1214.269531 1894.589844 1214.269531 C 1908.460938 1214.269531 1921.570312 1209.730469 1933.929688 1200.652344 C 1949.050781 1187.542969 1964.179688 1174.558594 1979.308594 1161.695312 C 2009.019531 1136.734375 2035.261719 1118.9375 2058.050781 1108.304688 C 2055.21875 1099.597656 2054.050781 1092.433594 2054.539062 1086.808594 C 2056.808594 1064.367188 2064.371094 1044.574219 2077.230469 1027.429688 C 2088.828125 1012.296875 2099.550781 1004.734375 2109.378906 1004.734375 C 2113.160156 1004.734375 2117.070312 1009.148438 2121.101562 1017.972656 C 2127.160156 1030.832031 2131.320312 1038.898438 2133.578125 1042.179688 C 2140.140625 1050.75 2148.089844 1055.039062 2157.410156 1055.039062 C 2172.539062 1055.039062 2187.039062 1049.617188 2200.910156 1038.773438 C 2202.171875 1037.765625 2207.839844 1031.96875 2217.929688 1021.375 C 2227.261719 1011.289062 2232.300781 1006.25 2233.058594 1006.25 C 2235.070312 1006.25 2235.449219 1008.519531 2234.191406 1013.058594 C 2232.171875 1018.855469 2231.160156 1022.511719 2231.160156 1024.023438 C 2231.160156 1028.308594 2232.929688 1033.101562 2236.460938 1038.394531 C 2241 1045.707031 2247.179688 1049.367188 2255 1049.367188 C 2275.171875 1049.367188 2292.441406 1034.867188 2306.808594 1005.871094 C 2308.328125 1002.847656 2310.089844 1001.332031 2312.101562 1001.332031 C 2313.621094 1001.332031 2314.371094 1002.714844 2314.371094 1005.488281 C 2314.371094 1006.25 2314.25 1007.757812 2314 1010.027344 C 2313.738281 1012.296875 2313.621094 1013.9375 2313.621094 1014.945312 C 2313.621094 1023.519531 2316.199219 1030.453125 2321.371094 1035.75 C 2325.800781 1040.28125 2331.28125 1042.871094 2337.820312 1043.527344 L 2337.820312 1043.316406 C 2355.21875 1043.316406 2365.941406 1038.398438 2369.96875 1028.566406 Z M 2125.300781 1146.191406 C 2130.601562 1146.191406 2133.25 1144.550781 2133.25 1141.273438 C 2133.25 1137.238281 2130.21875 1134.085938 2124.171875 1131.816406 C 2117.109375 1128.789062 2107.398438 1128.285156 2095.050781 1130.304688 C 2104.371094 1140.894531 2114.460938 1146.191406 2125.300781 1146.191406 "/>
  <path fill-rule="nonzero" fill="rgb(9.397888%, 15.281677%, 23.925781%)" fill-opacity="1" d="M 2327.488281 1164.390625 C 2326.988281 1163.886719 2326.988281 1163.128906 2327.488281 1162.121094 L 2339.589844 1137.917969 C 2340.351562 1136.402344 2341.109375 1135.648438 2341.859375 1135.648438 C 2343.128906 1135.648438 2348.421875 1138.859375 2357.75 1145.292969 C 2367.078125 1151.722656 2371.738281 1155.566406 2371.738281 1156.828125 C 2371.738281 1160.859375 2367.589844 1169.433594 2359.261719 1182.542969 C 2358.25 1184.308594 2357.238281 1184.8125 2356.238281 1184.058594 C 2347.160156 1177 2337.578125 1170.441406 2327.488281 1164.390625 "/>
  <path fill-rule="nonzero" fill="rgb(9.397888%, 15.281677%, 23.925781%)" fill-opacity="1" d="M 1986.789062 788.78125 C 1986.789062 776.929688 1984.890625 767.21875 1981.109375 759.660156 C 1981.109375 755.371094 1984.519531 745.160156 1991.328125 729.019531 C 1992.328125 727 1993.089844 725.988281 1993.589844 725.988281 C 1994.351562 725.988281 1995.230469 727 1996.238281 729.019531 C 1998.261719 733.300781 2002.800781 744.910156 2009.851562 763.808594 C 2017.421875 783.480469 2021.839844 795.578125 2023.101562 800.121094 C 2024.109375 803.648438 2024.609375 806.300781 2024.609375 808.070312 C 2024.609375 813.359375 2019.308594 810.078125 2008.71875 798.230469 C 2007.460938 796.46875 2006.828125 797.21875 2006.828125 800.5 C 2006.828125 801.511719 2009.539062 831.949219 2014.960938 906.578125 C 2020.378906 981.210938 2023.101562 1023.191406 2023.101562 1032.523438 C 2023.101562 1061.269531 2019.03125 1086.578125 2010.230469 1108.167969 C 2008.449219 1112.554688 2006.710938 1115.605469 2005.699219 1117.625 C 2003.929688 1120.648438 2003.019531 1121.136719 2002.671875 1119.136719 C 2002.269531 1116.851562 2002.210938 1112.1875 2003.050781 1105.144531 C 2004.21875 1095.300781 2004.941406 1083.835938 2004.941406 1070.722656 C 2004.941406 1058.871094 2001.910156 1010.269531 1995.859375 924.921875 C 1989.820312 839.570312 1986.789062 799.109375 1986.789062 788.78125 "/>
  <path fill-rule="nonzero" fill="rgb(9.397888%, 15.281677%, 23.925781%)" fill-opacity="1" d="M 1944.5 1012.089844 C 1938.191406 993.179688 1933.898438 975.53125 1931.640625 959.140625 C 1930.878906 952.578125 1930.25 948.550781 1929.75 947.039062 C 1928.988281 943.761719 1927.351562 940.480469 1924.828125 937.199219 C 1926.589844 931.398438 1929.371094 923.460938 1933.148438 913.371094 C 1934.160156 910.351562 1935.160156 908.839844 1936.171875 908.839844 C 1937.179688 908.839844 1938.820312 910.351562 1941.089844 913.371094 C 1950.671875 926.738281 1958.738281 938.839844 1965.300781 949.679688 C 1968.070312 953.96875 1969.460938 957.121094 1969.460938 959.140625 C 1969.460938 960.398438 1968.828125 961.03125 1967.570312 961.03125 C 1965.300781 961.03125 1960.890625 959.011719 1954.328125 954.980469 C 1953.820312 954.980469 1953.320312 955.359375 1952.820312 956.121094 C 1955.089844 964.179688 1958.738281 975.269531 1963.789062 989.398438 C 1974.878906 1020.914062 1980.429688 1043.859375 1980.429688 1058.234375 C 1980.429688 1072.605469 1978.160156 1085.210938 1973.621094 1096.050781 C 1966.558594 1113.957031 1954.199219 1122.90625 1936.550781 1122.90625 C 1917.890625 1122.90625 1903.140625 1114.835938 1892.300781 1098.699219 C 1885.738281 1089.117188 1879.949219 1074.621094 1874.898438 1055.203125 C 1872.628906 1074.621094 1866.460938 1091.386719 1856.371094 1105.507812 C 1843.761719 1122.652344 1827.628906 1131.226562 1807.960938 1131.226562 C 1786.53125 1131.226562 1771.53125 1121.015625 1762.949219 1100.589844 C 1758.160156 1088.992188 1755.761719 1075.378906 1755.761719 1059.742188 C 1755.761719 1039.070312 1758.160156 1019.78125 1762.949219 1001.875 C 1764.460938 997.089844 1765.21875 993.929688 1765.21875 992.421875 C 1765.21875 991.410156 1764.96875 990.910156 1764.460938 990.910156 C 1763.460938 990.910156 1761.441406 993.300781 1758.410156 998.101562 C 1753.621094 1005.660156 1748.578125 1020.914062 1743.28125 1043.859375 C 1736.480469 1073.613281 1731.941406 1091.511719 1729.671875 1097.566406 C 1726.890625 1106.140625 1722.988281 1113.070312 1717.941406 1118.371094 C 1713.660156 1122.402344 1710 1124.417969 1706.980469 1124.417969 C 1693.109375 1124.417969 1682.390625 1115.722656 1674.828125 1098.320312 C 1668.78125 1083.949219 1665.75 1066.425781 1665.75 1045.753906 C 1665.75 1031.378906 1668.019531 1015.746094 1672.558594 998.851562 C 1673.320312 995.070312 1674.199219 992.289062 1675.210938 990.53125 C 1676.71875 988.011719 1677.71875 987.628906 1678.230469 989.398438 C 1678.730469 991.410156 1678.480469 994.941406 1677.46875 999.988281 C 1674.949219 1012.847656 1673.691406 1024.570312 1673.691406 1035.160156 C 1673.691406 1076.761719 1682.390625 1097.566406 1699.789062 1097.566406 C 1707.351562 1097.566406 1713.660156 1092.019531 1718.699219 1080.925781 C 1721.730469 1073.863281 1725.378906 1060.503906 1729.671875 1040.835938 C 1734.710938 1019.148438 1739.128906 1003.265625 1742.898438 993.179688 C 1746.941406 981.578125 1751.980469 971.238281 1758.03125 962.160156 C 1764.589844 952.078125 1770.269531 947.039062 1775.050781 947.039062 C 1778.839844 947.039062 1780.730469 951.199219 1780.730469 959.519531 C 1780.730469 966.578125 1778.78125 980.640625 1774.871094 1001.6875 C 1770.960938 1022.742188 1769 1036.925781 1769 1044.238281 C 1769 1059.871094 1772.28125 1072.160156 1778.839844 1081.113281 C 1785.390625 1090.066406 1794.601562 1094.542969 1806.441406 1094.542969 C 1827.628906 1094.542969 1843.511719 1087.859375 1854.101562 1074.492188 C 1862.421875 1063.90625 1866.589844 1050.921875 1866.589844 1035.539062 C 1866.589844 1020.914062 1865.320312 1006.671875 1862.800781 992.800781 C 1861.039062 983.21875 1858.640625 974.011719 1855.609375 965.191406 C 1853.339844 957.621094 1852.210938 954.101562 1852.210938 954.601562 C 1852.210938 946.03125 1854.980469 934.429688 1860.53125 919.800781 C 1861.789062 916.53125 1862.679688 914.890625 1863.179688 914.890625 C 1864.191406 914.890625 1865.699219 917.03125 1867.71875 921.320312 C 1875.53125 937.710938 1881.710938 962.789062 1886.25 996.578125 C 1890.539062 1028.097656 1896.71875 1050.664062 1904.78125 1064.28125 C 1912.851562 1077.898438 1925.078125 1084.703125 1941.46875 1084.703125 C 1955.339844 1084.703125 1964.421875 1079.792969 1968.699219 1069.953125 C 1968.699219 1066.425781 1965.800781 1058.988281 1960 1047.640625 C 1952.691406 1033.269531 1947.519531 1021.421875 1944.5 1012.089844 "/>
  <path fill-rule="nonzero" fill="rgb(9.397888%, 15.281677%, 23.925781%)" fill-opacity="1" d="M 1680.238281 788.78125 C 1680.238281 776.929688 1678.351562 767.21875 1674.570312 759.660156 C 1674.570312 755.371094 1677.96875 745.160156 1684.78125 729.019531 C 1685.789062 727 1686.550781 725.988281 1687.050781 725.988281 C 1687.808594 725.988281 1688.691406 727 1689.699219 729.019531 C 1691.71875 733.300781 1696.25 744.910156 1703.308594 763.808594 C 1710.878906 783.480469 1715.289062 795.578125 1716.550781 800.121094 C 1717.558594 803.648438 1718.058594 806.300781 1718.058594 808.070312 C 1718.058594 813.359375 1712.769531 810.078125 1702.179688 798.230469 C 1700.921875 796.46875 1700.289062 797.21875 1700.289062 800.5 C 1700.289062 877.328125 1710.640625 912.449219 1710.640625 990.269531 C 1710.640625 1019.019531 1706.578125 1044.328125 1697.78125 1065.917969 C 1695.988281 1070.304688 1694.25 1073.355469 1693.238281 1075.375 C 1691.480469 1078.398438 1690.570312 1078.886719 1690.21875 1076.886719 C 1689.820312 1074.601562 1689.75 1069.9375 1690.589844 1062.894531 C 1691.769531 1053.050781 1692.488281 1041.585938 1692.488281 1028.472656 C 1692.488281 934.050781 1680.238281 883.050781 1680.238281 788.78125 "/>
  <path fill-rule="nonzero" fill="rgb(9.397888%, 15.281677%, 23.925781%)" fill-opacity="1" d="M 1617.738281 788.769531 C 1617.738281 776.921875 1615.839844 767.210938 1612.058594 759.648438 C 1612.058594 755.109375 1615.46875 744.78125 1622.269531 728.640625 C 1623.28125 726.871094 1624.039062 725.988281 1624.539062 725.988281 C 1625.300781 725.988281 1626.179688 727 1627.191406 729.019531 C 1629.210938 733.300781 1633.75 744.898438 1640.800781 763.808594 C 1648.371094 783.480469 1652.78125 795.578125 1654.039062 800.121094 C 1655.050781 803.648438 1655.550781 806.171875 1655.550781 807.691406 C 1655.550781 813.230469 1650.261719 810.078125 1639.671875 798.230469 C 1638.410156 796.460938 1637.78125 797.089844 1637.78125 800.121094 C 1637.78125 800.878906 1640.109375 833.28125 1644.78125 897.320312 C 1649.441406 961.371094 1651.78125 999.570312 1651.78125 1011.921875 C 1651.78125 1032.09375 1648.238281 1051.511719 1641.179688 1070.171875 C 1631.601562 1096.390625 1616.851562 1113.660156 1596.929688 1121.984375 L 1596.929688 1121.957031 C 1578.441406 1129.859375 1564.601562 1136.046875 1555.410156 1140.519531 C 1537 1149.089844 1524.269531 1156.023438 1517.210938 1161.316406 C 1504.601562 1171.152344 1486.191406 1190.0625 1461.988281 1218.050781 C 1447.609375 1234.691406 1433.238281 1243.011719 1418.871094 1243.011719 C 1406.519531 1243.011719 1395.800781 1237.46875 1386.71875 1226.371094 C 1377.140625 1215.023438 1372.351562 1201.027344 1372.351562 1184.390625 C 1372.351562 1161.695312 1381.679688 1132.070312 1400.339844 1095.507812 C 1402.351562 1091.726562 1403.871094 1089.835938 1404.878906 1089.835938 C 1405.378906 1090.089844 1405.628906 1090.59375 1405.628906 1091.347656 C 1405.628906 1095.132812 1401.601562 1107.925781 1393.53125 1129.738281 C 1385.460938 1151.546875 1381.429688 1168.753906 1381.429688 1181.363281 C 1381.429688 1191.195312 1383.691406 1198.890625 1388.230469 1204.433594 C 1393.03125 1210.734375 1399.710938 1213.890625 1408.28125 1213.890625 C 1423.410156 1213.890625 1438.789062 1206.199219 1454.421875 1190.816406 C 1464.25 1179.222656 1474.089844 1167.621094 1483.921875 1156.023438 C 1496.78125 1141.652344 1513.550781 1128.789062 1534.230469 1117.445312 C 1546.578125 1110.886719 1567.761719 1101.179688 1597.769531 1088.324219 L 1597.769531 1088.335938 C 1621.421875 1078 1633.238281 1062.492188 1633.238281 1041.804688 C 1633.238281 1031.460938 1630.648438 989.859375 1625.488281 916.988281 C 1620.320312 844.121094 1617.738281 801.378906 1617.738281 788.769531 "/>
  <path fill-rule="nonzero" fill="rgb(9.397888%, 15.281677%, 23.925781%)" fill-opacity="1" d="M 1378.191406 936.28125 C 1385.25 933.25 1394.578125 929.089844 1406.179688 923.800781 C 1404.671875 922.289062 1396.089844 915.101562 1380.460938 902.238281 C 1366.589844 890.890625 1357.828125 882.191406 1354.179688 876.140625 C 1350.519531 870.089844 1348.691406 863.78125 1348.691406 857.230469 C 1348.691406 846.128906 1353.289062 836.429688 1362.488281 828.109375 C 1371.699219 819.789062 1383.109375 815.621094 1396.730469 815.621094 C 1421.941406 815.621094 1462.03125 822.429688 1517 836.050781 C 1519.269531 836.550781 1548.140625 844.371094 1603.609375 859.5 C 1606.628906 860.261719 1607.511719 862.398438 1606.25 865.929688 L 1597.558594 890.890625 C 1596.550781 893.410156 1595.730469 895.121094 1595.101562 896 C 1594.46875 896.878906 1593.398438 897.570312 1591.878906 898.078125 C 1541.960938 909.929688 1492.289062 925.558594 1442.871094 944.980469 C 1443.621094 952.539062 1444 958.339844 1444 962.371094 C 1444 968.429688 1443.121094 971.449219 1441.351562 971.449219 C 1438.828125 971.449219 1433.539062 964.519531 1425.46875 950.648438 C 1416.390625 953.429688 1400.628906 959.730469 1378.191406 969.558594 C 1369.359375 973.339844 1361.488281 977.441406 1354.550781 981.851562 C 1347.621094 986.261719 1344.148438 989.230469 1344.148438 990.738281 C 1344.148438 994.269531 1346.171875 1000.195312 1350.199219 1008.519531 L 1350.070312 1008.675781 C 1350.199219 1008.863281 1350.300781 1009.058594 1350.390625 1009.277344 C 1367.03125 1003.730469 1380.519531 1000.960938 1390.859375 1000.960938 C 1401.449219 1000.960938 1409.769531 1005.371094 1415.820312 1014.195312 C 1421.871094 1023.023438 1424.898438 1034.621094 1424.898438 1048.992188 C 1424.898438 1060.84375 1422.308594 1070.613281 1417.140625 1078.304688 C 1411.980469 1085.996094 1405.109375 1089.839844 1396.53125 1089.839844 C 1377.371094 1089.839844 1359.96875 1075.21875 1344.339844 1045.96875 C 1315.339844 1063.367188 1292.148438 1072.0625 1274.75 1072.0625 L 1274.75 1072.054688 C 1270.761719 1072.050781 1267.769531 1071.675781 1265.769531 1070.921875 C 1265.769531 1096.136719 1264.378906 1115.300781 1261.609375 1128.410156 C 1258.578125 1143.03125 1253.289062 1154.003906 1245.71875 1161.316406 C 1225.550781 1181.234375 1200.96875 1198.886719 1171.96875 1214.265625 C 1135.160156 1233.429688 1100.488281 1243.011719 1067.960938 1243.011719 C 1021.820312 1243.011719 990.046875 1220.316406 972.648438 1174.933594 C 969.117188 1166.105469 967.355469 1155.015625 967.355469 1141.648438 C 967.355469 1132.066406 968.109375 1122.738281 969.621094 1113.660156 C 971.644531 1099.789062 974.667969 1087.8125 978.699219 1077.726562 C 980.214844 1074.199219 981.476562 1072.433594 982.484375 1072.433594 C 983.488281 1072.433594 983.742188 1074.578125 983.238281 1078.863281 C 981.726562 1085.164062 980.214844 1091.472656 978.699219 1097.777344 C 976.183594 1109.371094 974.917969 1117.820312 974.917969 1123.113281 C 974.917969 1141.773438 981.21875 1158.917969 993.832031 1174.554688 C 1010.980469 1195.480469 1035.558594 1205.941406 1067.578125 1205.941406 C 1095.820312 1205.941406 1125.449219 1199.265625 1156.46875 1185.898438 C 1180.421875 1175.5625 1202.859375 1162.195312 1223.78125 1145.808594 C 1241.429688 1132.445312 1251.78125 1122.484375 1254.800781 1115.929688 C 1254.800781 1095.253906 1248.871094 1073.3125 1237.03125 1050.121094 C 1235.011719 1045.582031 1234 1042.179688 1234 1039.910156 C 1234 1037.890625 1236.390625 1029.191406 1241.179688 1013.8125 C 1241.941406 1010.785156 1242.820312 1009.273438 1243.828125 1009.273438 C 1245.089844 1009.273438 1246.730469 1011.289062 1248.75 1015.320312 C 1252.03125 1022.636719 1254.421875 1027.046875 1255.929688 1028.5625 C 1259.96875 1032.847656 1266.269531 1034.992188 1274.839844 1034.992188 L 1274.839844 1035 C 1290.710938 1034.972656 1310.46875 1028.539062 1334.128906 1015.710938 C 1334.070312 1015.460938 1334.050781 1015.210938 1334.058594 1014.960938 L 1333.941406 1014.945312 C 1333.429688 1010.40625 1333.179688 1005.996094 1333.179688 1001.710938 C 1333.179688 970.449219 1348.191406 948.628906 1378.191406 936.28125 Z M 1096.789062 1089.828125 C 1096.289062 1089.324219 1096.289062 1088.570312 1096.789062 1087.558594 L 1108.890625 1063.355469 C 1109.648438 1061.84375 1110.410156 1061.089844 1111.160156 1061.089844 C 1112.429688 1061.089844 1117.71875 1064.300781 1127.050781 1070.730469 C 1136.378906 1077.160156 1141.039062 1081.007812 1141.039062 1082.265625 C 1141.039062 1086.300781 1136.890625 1094.871094 1128.558594 1107.984375 C 1127.550781 1109.746094 1126.539062 1110.253906 1125.539062 1109.496094 C 1116.460938 1102.441406 1106.878906 1095.882812 1096.789062 1089.828125 Z M 1400.691406 1053.910156 C 1405.988281 1053.910156 1408.628906 1052.269531 1408.628906 1048.992188 C 1408.628906 1044.957031 1405.609375 1041.808594 1399.558594 1039.539062 C 1392.5 1036.511719 1382.789062 1036.003906 1370.441406 1038.023438 C 1379.761719 1048.617188 1389.851562 1053.910156 1400.691406 1053.910156 Z M 1544.230469 881.058594 C 1530.859375 875.761719 1509.941406 869.589844 1481.441406 862.519531 C 1444.878906 853.699219 1415.511719 849.289062 1393.320312 849.289062 C 1375.671875 849.289062 1366.839844 850.671875 1366.839844 853.449219 C 1366.839844 854.960938 1369.488281 857.988281 1374.789062 862.519531 C 1384.621094 870.851562 1394.578125 879.171875 1404.671875 887.488281 C 1419.539062 899.839844 1429 908.789062 1433.03125 914.339844 C 1472.621094 899.96875 1509.679688 888.878906 1544.230469 881.058594 "/>
  <path fill-rule="nonzero" fill="rgb(9.397888%, 15.281677%, 23.925781%)" fill-opacity="1" d="M 1141.191406 789.050781 C 1141.191406 777.199219 1139.300781 767.5 1135.519531 759.929688 C 1135.519531 755.640625 1138.820312 745.378906 1145.730469 729.300781 C 1146.621094 727.230469 1147.5 726.269531 1148 726.269531 C 1148.761719 726.269531 1149.671875 727.269531 1150.640625 729.300781 C 1152.691406 733.558594 1157.109375 745.230469 1164.261719 764.089844 C 1171.730469 783.800781 1176.230469 795.871094 1177.5 800.398438 C 1178.488281 803.929688 1179.011719 806.578125 1179.011719 808.339844 C 1179.011719 813.640625 1173.558594 810.5 1163.128906 798.511719 C 1161.710938 796.878906 1161.238281 797.5 1161.238281 800.78125 C 1161.238281 801.789062 1163.949219 839.609375 1169.371094 914.238281 C 1174.789062 988.878906 1180.089844 1058.1875 1180.089844 1067.519531 C 1180.089844 1096.265625 1175.800781 1121.480469 1167.230469 1143.160156 C 1165.210938 1147.449219 1163.699219 1150.601562 1162.691406 1152.617188 C 1160.921875 1155.644531 1159.910156 1156.148438 1159.660156 1154.132812 C 1159.160156 1151.863281 1159.28125 1147.195312 1160.039062 1140.136719 C 1161.300781 1130.304688 1161.929688 1118.828125 1161.929688 1105.71875 C 1161.929688 1093.867188 1156.320312 1017.9375 1150.269531 932.589844 C 1144.21875 847.238281 1141.191406 799.390625 1141.191406 789.050781 "/>
  <path fill-rule="nonzero" fill="rgb(9.397888%, 15.281677%, 23.925781%)" fill-opacity="1" d="M 1050.550781 788.769531 C 1050.550781 776.921875 1048.648438 767.210938 1044.871094 759.648438 C 1044.871094 755.109375 1048.28125 744.78125 1055.078125 728.640625 C 1056.089844 726.871094 1056.851562 725.988281 1057.351562 725.988281 C 1058.109375 725.988281 1058.988281 727 1060 729.019531 C 1062.019531 733.300781 1066.558594 744.898438 1073.609375 763.808594 C 1081.179688 783.480469 1085.589844 795.578125 1086.851562 800.121094 C 1087.859375 803.648438 1088.359375 806.171875 1088.359375 807.691406 C 1088.359375 813.230469 1083.070312 810.078125 1072.480469 798.230469 C 1071.21875 796.460938 1070.589844 797.089844 1070.589844 800.121094 C 1070.589844 800.878906 1072.921875 833.28125 1077.578125 897.320312 C 1082.25 961.371094 1084.578125 999.570312 1084.578125 1011.921875 C 1084.578125 1032.09375 1081.050781 1051.511719 1073.988281 1070.171875 C 1064.410156 1096.390625 1049.660156 1113.660156 1029.738281 1121.984375 L 1029.738281 1121.976562 C 1011.269531 1129.867188 997.441406 1136.050781 988.25 1140.519531 C 969.847656 1149.089844 957.109375 1156.023438 950.054688 1161.316406 C 937.445312 1171.152344 919.039062 1190.0625 894.828125 1218.050781 C 880.460938 1234.691406 866.089844 1243.011719 851.714844 1243.011719 C 839.363281 1243.011719 828.644531 1237.46875 819.570312 1226.371094 C 809.988281 1215.023438 805.191406 1201.027344 805.191406 1184.390625 C 805.191406 1161.695312 814.523438 1132.070312 833.183594 1095.507812 C 835.199219 1091.726562 836.714844 1089.835938 837.722656 1089.835938 C 838.226562 1090.089844 838.476562 1090.59375 838.476562 1091.347656 C 838.476562 1095.132812 834.445312 1107.925781 826.378906 1129.738281 C 818.304688 1151.546875 814.269531 1168.753906 814.269531 1181.363281 C 814.269531 1191.195312 816.539062 1198.890625 821.078125 1204.433594 C 825.871094 1210.734375 832.554688 1213.890625 841.128906 1213.890625 C 856.253906 1213.890625 871.636719 1206.199219 887.269531 1190.816406 C 897.101562 1179.222656 906.9375 1167.621094 916.769531 1156.023438 C 929.628906 1141.652344 946.394531 1128.789062 967.074219 1117.445312 C 979.308594 1110.949219 1000.199219 1101.367188 1029.738281 1088.699219 L 1030.609375 1088.324219 C 1054.238281 1077.980469 1066.050781 1062.476562 1066.050781 1041.804688 C 1066.050781 1031.460938 1063.460938 989.859375 1058.300781 916.988281 C 1053.128906 844.121094 1050.550781 801.378906 1050.550781 788.769531 "/>
  <path fill-rule="nonzero" fill="rgb(9.397888%, 15.281677%, 23.925781%)" fill-opacity="1" d="M 832.085938 917.269531 C 835.613281 917.269531 839.269531 921.808594 843.050781 930.890625 C 848.097656 942.988281 852.632812 951.441406 856.667969 956.230469 C 863.992188 964.5 873.648438 968.898438 885.617188 969.410156 C 898.949219 968.898438 916.652344 964.890625 938.738281 957.371094 C 948.574219 953.839844 970.007812 945.390625 1003.039062 932.03125 L 933.824219 911.21875 C 931.300781 910.71875 928.78125 911.730469 926.257812 914.25 C 924.492188 916.011719 921.71875 916.769531 917.9375 916.519531 C 906.59375 915.761719 891.082031 914.75 871.417969 913.488281 C 867.128906 912.988281 864.984375 911.859375 864.984375 910.089844 C 864.984375 908.828125 865.746094 906.808594 867.253906 904.039062 L 879.359375 882.101562 C 880.871094 878.820312 883.015625 876.929688 885.789062 876.429688 C 900.160156 874.160156 917.054688 873.03125 936.46875 873.03125 C 936.972656 873.03125 951.09375 877.691406 978.828125 887.019531 C 1008.839844 896.851562 1029.890625 903.160156 1041.988281 905.929688 C 1054.101562 908.699219 1072.128906 911.980469 1096.078125 915.761719 C 1118.519531 919.550781 1131.25 921.441406 1134.28125 921.441406 C 1135.789062 921.441406 1136.800781 921.558594 1137.308594 921.820312 C 1138.570312 922.320312 1138.441406 923.828125 1136.929688 926.359375 L 1124.070312 950.179688 C 1122.808594 952.199219 1120.789062 953.210938 1118.019531 953.210938 C 1115.238281 953.210938 1109.441406 952.699219 1100.621094 951.691406 C 1091.789062 950.691406 1083.980469 950.179688 1077.171875 950.179688 C 1055.738281 950.179688 1031.648438 954.96875 1004.929688 964.550781 C 983.492188 973.628906 961.9375 982.710938 940.253906 991.789062 C 919.128906 1000.457031 901.726562 1005.300781 888.058594 1006.324219 L 888.058594 1006.53125 C 887.148438 1006.53125 886.25 1006.511719 885.359375 1006.480469 C 884.476562 1006.519531 883.613281 1006.535156 882.765625 1006.535156 L 882.765625 1006.347656 C 869.613281 1005.417969 859.023438 1000.941406 850.996094 992.921875 C 845.699219 987.871094 840.53125 979.429688 835.488281 967.578125 C 831.457031 958.75 827.796875 954.339844 824.519531 954.339844 C 819.980469 954.339844 813.171875 959.128906 804.09375 968.710938 C 794.261719 978.789062 789.34375 987.5 789.34375 994.808594 C 789.34375 1000.984375 792.132812 1007.15625 797.699219 1013.335938 L 797.710938 1013.347656 L 797.777344 1013.425781 L 797.789062 1013.433594 L 797.933594 1013.597656 L 798.046875 1013.71875 L 798.046875 1013.734375 C 798.132812 1013.847656 798.210938 1013.96875 798.277344 1014.097656 C 814.917969 1008.550781 828.410156 1005.777344 838.746094 1005.777344 C 849.339844 1005.777344 857.65625 1010.1875 863.707031 1019.015625 C 869.761719 1027.839844 872.785156 1039.441406 872.785156 1053.8125 C 872.785156 1065.660156 870.199219 1075.433594 865.03125 1083.125 C 859.863281 1090.8125 852.992188 1094.65625 844.417969 1094.65625 C 825.253906 1094.65625 807.855469 1080.03125 792.226562 1050.785156 C 772.308594 1058.601562 749.359375 1072.71875 723.386719 1093.144531 C 704.476562 1108.777344 685.566406 1124.285156 666.65625 1139.664062 C 652.539062 1150.257812 639.804688 1155.550781 628.457031 1155.550781 C 616.101562 1155.550781 605.382812 1150.132812 596.308594 1139.289062 C 586.726562 1127.6875 581.9375 1113.695312 581.9375 1097.308594 C 581.9375 1074.613281 591.261719 1044.984375 609.921875 1008.425781 C 611.941406 1004.640625 613.457031 1002.753906 614.460938 1002.753906 C 614.964844 1002.753906 615.21875 1003.257812 615.21875 1004.265625 C 615.21875 1007.796875 611.1875 1020.527344 603.113281 1042.464844 C 595.046875 1064.402344 591.011719 1081.546875 591.011719 1093.902344 C 591.011719 1103.734375 593.28125 1111.554688 597.820312 1117.351562 C 602.863281 1123.652344 609.546875 1126.808594 617.863281 1126.808594 C 631.734375 1126.808594 644.847656 1122.269531 657.203125 1113.191406 C 672.328125 1100.082031 687.457031 1087.097656 702.589844 1074.234375 C 732.078125 1049.453125 758.160156 1031.734375 780.835938 1021.074219 C 777.945312 1012.261719 776.746094 1005.019531 777.242188 999.351562 C 779.511719 976.910156 787.074219 957.109375 799.9375 939.96875 C 811.53125 924.839844 822.25 917.269531 832.085938 917.269531 Z M 848.578125 1058.730469 C 853.875 1058.730469 856.519531 1057.089844 856.519531 1053.8125 C 856.519531 1049.777344 853.496094 1046.621094 847.441406 1044.355469 C 840.386719 1041.328125 830.679688 1040.824219 818.320312 1042.84375 C 827.648438 1053.429688 837.734375 1058.730469 848.578125 1058.730469 "/>
  <path fill-rule="nonzero" fill="rgb(9.397888%, 15.281677%, 23.925781%)" fill-opacity="1" d="M 754.234375 1194.492188 L 763.6875 1175.203125 C 764.445312 1173.695312 765.199219 1172.9375 765.960938 1172.9375 C 767.21875 1172.9375 772.574219 1176.152344 782.03125 1182.578125 C 791.488281 1189.011719 796.214844 1192.730469 796.214844 1193.738281 C 796.214844 1197.773438 792.054688 1206.46875 783.734375 1219.835938 C 782.722656 1221.351562 781.714844 1221.726562 780.710938 1220.96875 C 772.386719 1214.917969 763.183594 1208.613281 753.097656 1202.0625 C 749.820312 1209.875 746.414062 1216.433594 742.886719 1221.726562 C 742.132812 1223.488281 741.121094 1223.996094 739.863281 1223.238281 C 730.785156 1216.183594 721.203125 1209.5 711.117188 1203.195312 C 710.609375 1202.941406 710.609375 1202.1875 711.117188 1200.925781 L 723.21875 1177.097656 C 723.976562 1175.585938 724.730469 1174.828125 725.484375 1174.828125 C 726.496094 1174.828125 730.972656 1177.472656 738.914062 1182.773438 C 746.855469 1188.066406 751.964844 1191.972656 754.234375 1194.492188 "/>
  <path fill-rule="nonzero" fill="rgb(9.397888%, 15.281677%, 23.925781%)" fill-opacity="1" d="M 2025.820312 1232.28125 C 2059.859375 1219.929688 2096.160156 1206.6875 2134.738281 1192.566406 C 2136.761719 1191.8125 2137.898438 1191.5625 2138.148438 1191.8125 C 2138.648438 1192.316406 2138.53125 1193.453125 2137.769531 1195.21875 C 2135.5 1200.511719 2133.738281 1203.664062 2132.46875 1204.675781 C 2100.199219 1216.269531 2062.5 1231.019531 2019.390625 1248.925781 C 2020.898438 1243.882812 2023.039062 1238.335938 2025.820312 1232.28125 "/>
  <path fill-rule="nonzero" fill="rgb(9.397888%, 15.281677%, 23.925781%)" fill-opacity="1" d="M 1554.21875 1048.839844 C 1554.21875 1053.378906 1553.21875 1058.296875 1551.199219 1063.589844 C 1548.421875 1070.148438 1544.769531 1073.425781 1540.230469 1073.425781 C 1533.171875 1073.425781 1528.25 1068.632812 1525.480469 1059.050781 C 1522.199219 1071.40625 1516.148438 1077.585938 1507.328125 1077.585938 C 1504.050781 1077.585938 1501.148438 1075.945312 1498.621094 1072.664062 C 1495.851562 1068.632812 1494.46875 1063.464844 1494.46875 1057.160156 L 1494.46875 1042.03125 C 1494.46875 1040.769531 1493.578125 1039.890625 1491.820312 1039.386719 C 1490.050781 1038.882812 1489.171875 1037.621094 1489.171875 1035.601562 C 1489.171875 1032.324219 1490.679688 1029.046875 1493.710938 1025.769531 C 1496.230469 1022.996094 1498.121094 1021.605469 1499.378906 1021.605469 C 1501.148438 1021.605469 1502.03125 1024.886719 1502.03125 1031.445312 C 1502.03125 1034.972656 1501.78125 1037.933594 1501.269531 1040.328125 C 1500.769531 1042.726562 1500.519531 1044.679688 1500.519531 1046.195312 C 1500.519531 1049.972656 1501.269531 1053.378906 1502.789062 1056.40625 C 1504.300781 1060.1875 1506.441406 1062.078125 1509.21875 1062.078125 C 1512.488281 1062.078125 1515.578125 1060.566406 1518.480469 1057.539062 C 1521.378906 1054.511719 1522.828125 1051.109375 1522.828125 1047.328125 C 1522.828125 1045.058594 1522.140625 1041.089844 1520.75 1035.414062 C 1519.371094 1029.742188 1518.671875 1026.144531 1518.671875 1024.636719 C 1518.671875 1023.371094 1519.300781 1021.421875 1520.558594 1018.769531 C 1521.820312 1016.125 1522.710938 1014.800781 1523.210938 1014.800781 C 1524.46875 1014.800781 1525.921875 1018.582031 1527.558594 1026.144531 C 1529.199219 1033.714844 1530.019531 1039.257812 1530.019531 1042.789062 C 1530.019531 1053.128906 1534.050781 1058.296875 1542.121094 1058.296875 C 1545.648438 1058.296875 1547.789062 1056.53125 1548.550781 1053.003906 C 1541.738281 1041.152344 1538.339844 1031.949219 1538.339844 1025.390625 C 1538.339844 1021.863281 1539.21875 1018.582031 1540.988281 1015.558594 C 1542.25 1013.539062 1543.128906 1012.53125 1543.628906 1012.53125 C 1544.140625 1012.53125 1544.511719 1013.789062 1544.769531 1016.3125 C 1545.019531 1019.59375 1545.519531 1022.367188 1546.28125 1024.636719 C 1546.53125 1024.886719 1548.300781 1029.175781 1551.578125 1037.492188 C 1553.339844 1042.285156 1554.21875 1046.066406 1554.21875 1048.839844 "/>
  <path fill-rule="nonzero" fill="rgb(9.397888%, 15.281677%, 23.925781%)" fill-opacity="1" d="M 1625.328125 1225.597656 C 1659.371094 1213.246094 1778.910156 1171.945312 1817.480469 1157.8125 C 1819.511719 1157.074219 1820.640625 1156.808594 1820.890625 1157.058594 C 1821.390625 1157.5625 1821.269531 1158.703125 1820.511719 1160.464844 C 1818.25 1165.757812 1816.480469 1168.910156 1815.210938 1169.921875 C 1782.941406 1181.515625 1662.019531 1224.339844 1618.898438 1242.242188 C 1620.421875 1237.199219 1622.558594 1231.652344 1625.328125 1225.597656 "/>
  <path fill-rule="nonzero" fill="rgb(9.397888%, 15.281677%, 23.925781%)" fill-opacity="1" d="M 1190.429688 852.238281 C 1224.46875 839.890625 1383.410156 780.859375 1421.980469 766.730469 C 1424 765.988281 1425.128906 765.71875 1425.378906 765.96875 C 1425.890625 766.480469 1425.761719 767.621094 1425.011719 769.378906 C 1422.738281 774.671875 1420.96875 777.820312 1419.710938 778.828125 C 1387.429688 790.429688 1227.121094 850.980469 1184 868.890625 C 1185.511719 863.839844 1187.648438 858.289062 1190.429688 852.238281 "/>
  <path fill-rule="nonzero" fill="rgb(9.397888%, 15.281677%, 23.925781%)" fill-opacity="1" d="M 1444.609375 995.199219 C 1478.648438 982.851562 1534.378906 964.410156 1572.949219 950.28125 C 1574.96875 949.539062 1576.101562 949.269531 1576.351562 949.519531 C 1576.859375 950.03125 1576.730469 951.171875 1575.980469 952.929688 C 1573.710938 958.210938 1571.941406 961.371094 1570.679688 962.378906 C 1538.398438 973.980469 1481.300781 993.941406 1438.179688 1011.847656 C 1439.691406 1006.804688 1441.828125 1001.253906 1444.609375 995.199219 "/>
  <path fill-rule="nonzero" fill="rgb(9.397888%, 15.281677%, 23.925781%)" fill-opacity="1" d="M 1131.160156 1257.363281 C 1165.199219 1245.011719 1220.941406 1226.566406 1259.5 1212.4375 C 1261.53125 1211.699219 1262.660156 1211.433594 1262.910156 1211.683594 C 1263.410156 1212.1875 1263.28125 1213.328125 1262.53125 1215.085938 C 1260.269531 1220.375 1258.5 1223.535156 1257.230469 1224.542969 C 1224.960938 1236.140625 1167.851562 1256.105469 1124.738281 1274.007812 C 1126.25 1268.964844 1128.390625 1263.417969 1131.160156 1257.363281 "/>
  <path fill-rule="nonzero" fill="rgb(9.397888%, 15.281677%, 23.925781%)" fill-opacity="1" d="M 1009.640625 1047.9375 C 1009.640625 1052.476562 1008.640625 1057.394531 1006.621094 1062.6875 C 1003.839844 1069.246094 1000.191406 1072.523438 995.648438 1072.523438 C 988.585938 1072.523438 983.671875 1067.730469 980.898438 1058.148438 C 977.621094 1070.503906 971.566406 1076.683594 962.746094 1076.683594 C 959.464844 1076.683594 956.566406 1075.042969 954.042969 1071.765625 C 951.269531 1067.730469 949.882812 1062.5625 949.882812 1056.257812 L 949.882812 1041.128906 C 949.882812 1039.867188 949 1038.988281 947.234375 1038.484375 C 945.46875 1037.980469 944.589844 1036.71875 944.589844 1034.699219 C 944.589844 1031.421875 946.101562 1028.144531 949.128906 1024.867188 C 951.648438 1022.09375 953.539062 1020.703125 954.800781 1020.703125 C 956.566406 1020.703125 957.445312 1023.984375 957.445312 1030.542969 C 957.445312 1034.070312 957.195312 1037.03125 956.691406 1039.425781 C 956.1875 1041.824219 955.9375 1043.777344 955.9375 1045.292969 C 955.9375 1049.070312 956.691406 1052.476562 958.203125 1055.503906 C 959.714844 1059.28125 961.859375 1061.175781 964.632812 1061.175781 C 967.914062 1061.175781 971 1059.664062 973.898438 1056.640625 C 976.796875 1053.609375 978.25 1050.207031 978.25 1046.425781 C 978.25 1044.15625 977.558594 1040.1875 976.167969 1034.511719 C 974.78125 1028.839844 974.089844 1025.242188 974.089844 1023.734375 C 974.089844 1022.46875 974.71875 1020.515625 975.980469 1017.867188 C 977.238281 1015.222656 978.125 1013.898438 978.628906 1013.898438 C 979.890625 1013.898438 981.335938 1017.679688 982.976562 1025.242188 C 984.613281 1032.8125 985.4375 1038.355469 985.4375 1041.886719 C 985.4375 1052.226562 989.472656 1057.394531 997.539062 1057.394531 C 1001.070312 1057.394531 1003.210938 1055.628906 1003.96875 1052.101562 C 997.160156 1040.25 993.753906 1031.046875 993.753906 1024.488281 C 993.753906 1020.960938 994.640625 1017.679688 996.402344 1014.65625 C 997.664062 1012.636719 998.546875 1011.628906 999.054688 1011.628906 C 999.558594 1011.628906 999.933594 1012.886719 1000.191406 1015.410156 C 1000.441406 1018.691406 1000.941406 1021.464844 1001.699219 1023.734375 C 1001.949219 1023.984375 1003.71875 1028.273438 1007 1036.589844 C 1008.761719 1041.382812 1009.640625 1045.160156 1009.640625 1047.9375 "/>
  <path fill-rule="nonzero" fill="rgb(9.397888%, 15.281677%, 23.925781%)" fill-opacity="1" d="M 897.769531 1021.445312 C 931.808594 1009.09375 987.546875 990.648438 1026.109375 976.519531 C 1028.128906 975.78125 1029.261719 975.519531 1029.511719 975.769531 C 1030.019531 976.269531 1029.890625 977.410156 1029.140625 979.171875 C 1026.871094 984.460938 1025.109375 987.621094 1023.839844 988.628906 C 991.566406 1000.222656 934.460938 1020.1875 891.34375 1038.089844 C 892.855469 1033.046875 894.996094 1027.5 897.769531 1021.445312 "/>
  <path fill-rule="nonzero" fill="rgb(9.397888%, 15.281677%, 23.925781%)" fill-opacity="1" d="M 801.921875 1131.273438 C 835.964844 1118.925781 907.402344 1094.660156 945.964844 1080.535156 C 947.984375 1079.800781 949.121094 1079.53125 949.371094 1079.78125 C 949.875 1080.285156 949.746094 1081.429688 948.996094 1083.1875 C 946.734375 1088.476562 944.960938 1091.632812 943.695312 1092.644531 C 911.421875 1104.238281 838.613281 1130.015625 795.496094 1147.921875 C 797.011719 1142.875 799.148438 1137.328125 801.921875 1131.273438 "/>
  <path fill-rule="nonzero" fill="rgb(9.397888%, 15.281677%, 23.925781%)" fill-opacity="1" d="M 810.230469 823.199219 C 810.230469 825.96875 806.953125 831.890625 800.398438 840.96875 C 792.832031 851.558594 785.648438 859.25 778.84375 864.039062 C 774.554688 867.070312 760.308594 871.859375 736.101562 878.410156 C 731.5625 879.171875 729.292969 879.550781 729.292969 879.550781 C 729.796875 879.039062 731.4375 877.78125 734.210938 875.761719 C 737.234375 873.25 745.9375 868.328125 760.308594 861.011719 C 773.671875 853.699219 781.484375 849.039062 783.757812 847.019531 C 784.261719 846.519531 784.515625 846.011719 784.515625 845.511719 C 784.515625 842.480469 772.410156 840.96875 748.207031 840.96875 C 748.207031 840.96875 743.667969 841.101562 734.589844 841.351562 C 729.796875 841.601562 727.402344 841.351562 727.402344 840.589844 C 727.402344 840.089844 728.03125 838.828125 729.292969 836.808594 L 737.996094 822.441406 C 740.515625 818.148438 745.179688 815.5 751.984375 814.488281 C 754.253906 813.988281 759.804688 813.738281 768.628906 813.738281 C 796.367188 813.738281 810.230469 816.890625 810.230469 823.199219 "/>
  <path fill-rule="evenodd" fill="rgb(9.397888%, 15.281677%, 23.925781%)" fill-opacity="1" d="M 649.425781 916.289062 C 631.207031 935.121094 622.117188 951.128906 622.117188 964.308594 C 620.378906 987.53125 633.347656 978.648438 640.007812 974.671875 C 633.09375 994.128906 626.195312 1003.859375 619.292969 1003.859375 C 610.496094 1003.859375 606.113281 997.898438 606.113281 985.96875 C 606.113281 974.050781 610.96875 960.230469 620.707031 944.539062 C 630.433594 928.851562 639.683594 918.800781 648.484375 914.398438 C 651.398438 913.050781 652 913.449219 649.425781 916.289062 "/>
  <path fill-rule="evenodd" fill="rgb(9.397888%, 15.281677%, 23.925781%)" fill-opacity="1" d="M 1853.25 787.550781 C 1853.25 803.371094 1850.019531 820.628906 1843.539062 839.320312 C 1844.980469 828.539062 1845.699219 817.398438 1845.699219 805.890625 C 1845.699219 782.160156 1838.511719 763.820312 1824.128906 750.878906 L 1826.289062 726.070312 C 1834.921875 732.550781 1841.738281 742.621094 1846.78125 756.269531 C 1851.101562 767.78125 1853.25 778.210938 1853.25 787.550781 "/>
  <path fill-rule="evenodd" fill="rgb(9.397888%, 15.281677%, 23.925781%)" fill-opacity="1" d="M 1689.46875 1149.816406 C 1686.621094 1147.679688 1682.691406 1144.472656 1677.71875 1140.195312 L 1676.648438 1149.816406 C 1678.789062 1151.234375 1681.628906 1151.582031 1685.199219 1150.882812 C 1686.621094 1150.882812 1688.03125 1150.519531 1689.46875 1149.816406 Z M 1673.449219 1139.132812 C 1672.730469 1136.277344 1670.941406 1135.207031 1668.101562 1135.925781 C 1663.828125 1136.628906 1660.980469 1138.765625 1659.558594 1142.335938 C 1663.121094 1145.890625 1666.671875 1147.679688 1670.238281 1147.679688 C 1672.378906 1144.105469 1673.449219 1141.265625 1673.449219 1139.132812 Z M 1574.960938 1209.566406 C 1565.820312 1210.136719 1589.269531 1203.925781 1596 1201.375 C 1617.320312 1193.304688 1641.261719 1181.671875 1655.328125 1171.847656 C 1662.570312 1166.800781 1666.46875 1162.289062 1667.039062 1158.363281 C 1659.191406 1156.925781 1654.921875 1154.4375 1654.21875 1150.882812 C 1653.5 1147.308594 1654.390625 1142.6875 1656.890625 1136.996094 C 1659.378906 1131.285156 1661.699219 1128.078125 1663.828125 1127.382812 L 1660.628906 1122.042969 L 1661.699219 1118.832031 C 1664.53125 1118.832031 1669.179688 1120.25 1675.578125 1123.105469 L 1675.578125 1125.242188 C 1681.28125 1128.804688 1687.328125 1135.207031 1693.738281 1144.472656 C 1695.878906 1155.15625 1693.738281 1160.847656 1687.339844 1161.5625 C 1683.058594 1162.265625 1678.070312 1161.914062 1672.378906 1160.496094 C 1670.320312 1184.921875 1642.179688 1195.582031 1621.839844 1204.671875 L 1574.960938 1209.566406 "/>
  <path fill-rule="evenodd" fill="rgb(9.397888%, 15.281677%, 23.925781%)" fill-opacity="1" d="M 1283.121094 902.351562 C 1278.578125 892.121094 1270.640625 884.679688 1259.300781 880.019531 C 1254 887.46875 1251.359375 894.910156 1251.359375 902.351562 C 1251.359375 912.609375 1255.140625 917.710938 1262.710938 917.710938 C 1269.511719 917.710938 1276.308594 912.601562 1283.121094 902.351562 Z M 1287.660156 898.160156 C 1287.660156 908.421875 1285.191406 918.191406 1280.28125 927.480469 C 1275.359375 936.789062 1269.121094 941.441406 1261.570312 941.441406 C 1249.46875 941.441406 1243.429688 933.058594 1243.429688 916.308594 C 1243.429688 912.601562 1245.871094 901.199219 1250.800781 882.109375 C 1255.710938 863.039062 1258.171875 846.988281 1258.171875 833.941406 C 1258.171875 810.691406 1250.609375 792.058594 1235.480469 778.101562 C 1235.480469 777.191406 1234.351562 763.230469 1232.078125 736.230469 C 1242.660156 744.601562 1251.359375 756.710938 1258.171875 772.519531 C 1264.96875 788.359375 1268.378906 803.230469 1268.378906 817.191406 C 1268.378906 833.03125 1266.851562 846.050781 1263.839844 856.28125 C 1279.71875 862.800781 1287.660156 876.769531 1287.660156 898.160156 "/>
  <path fill-rule="evenodd" fill="rgb(9.397888%, 15.281677%, 23.925781%)" fill-opacity="1" d="M 741.09375 941.039062 C 741.09375 945.71875 739.34375 950.378906 735.847656 955.039062 C 733.507812 951.539062 731.171875 949.789062 728.847656 949.789062 C 724.171875 949.789062 720.675781 956.210938 718.351562 969.03125 C 716.601562 978.371094 714.851562 987.398438 713.101562 996.148438 C 711.351562 989.738281 706.976562 980.121094 699.980469 967.289062 C 698.804688 972.53125 696.179688 975.148438 692.105469 975.148438 C 689.183594 975.148438 686.421875 973.851562 683.792969 971.21875 C 681.171875 968.589844 679.859375 965.53125 679.859375 962.03125 C 679.859375 952.710938 683.355469 948.039062 690.355469 948.039062 C 698.515625 948.039062 705.804688 957.371094 712.222656 976.03125 C 717.476562 943.378906 724.757812 927.039062 734.09375 927.039062 C 738.753906 927.039062 741.09375 931.71875 741.09375 941.039062 "/>
  <path fill-rule="nonzero" fill="rgb(9.397888%, 15.281677%, 23.925781%)" fill-opacity="1" d="M 1537.648438 756.519531 C 1537.648438 758.921875 1534.808594 764.050781 1529.140625 771.910156 C 1522.589844 781.078125 1516.378906 787.730469 1510.480469 791.878906 C 1506.769531 794.5 1494.441406 798.640625 1473.480469 804.320312 C 1469.558594 804.96875 1467.589844 805.300781 1467.589844 805.300781 C 1468.03125 804.859375 1469.449219 803.769531 1471.851562 802.03125 C 1474.46875 799.839844 1482 795.589844 1494.441406 789.261719 C 1506.011719 782.929688 1512.769531 778.890625 1514.738281 777.148438 C 1515.171875 776.710938 1515.390625 776.269531 1515.390625 775.839844 C 1515.390625 773.21875 1504.910156 771.910156 1483.960938 771.910156 C 1483.960938 771.910156 1480.039062 772.019531 1472.179688 772.238281 C 1468.03125 772.449219 1465.960938 772.238281 1465.960938 771.578125 C 1465.960938 771.140625 1466.5 770.050781 1467.589844 768.308594 L 1475.121094 755.859375 C 1477.308594 752.160156 1481.339844 749.859375 1487.230469 748.988281 C 1489.199219 748.550781 1494 748.339844 1501.640625 748.339844 C 1525.648438 748.339844 1537.648438 751.070312 1537.648438 756.519531 "/>
  <path fill-rule="evenodd" fill="rgb(9.397888%, 15.281677%, 23.925781%)" fill-opacity="1" d="M 1794.878906 840.109375 C 1794.878906 844.78125 1793.128906 849.441406 1789.640625 854.101562 C 1787.300781 850.601562 1784.960938 848.851562 1782.628906 848.851562 C 1777.960938 848.851562 1774.46875 855.28125 1772.140625 868.101562 C 1770.390625 877.429688 1768.640625 886.46875 1766.890625 895.21875 C 1765.140625 888.808594 1760.769531 879.179688 1753.769531 866.351562 C 1752.589844 871.601562 1749.96875 874.21875 1745.890625 874.21875 C 1742.96875 874.21875 1740.210938 872.910156 1737.578125 870.289062 C 1734.960938 867.660156 1733.648438 864.601562 1733.648438 861.101562 C 1733.648438 851.78125 1737.148438 847.101562 1744.140625 847.101562 C 1752.308594 847.101562 1759.589844 856.441406 1766.011719 875.101562 C 1771.261719 842.441406 1778.550781 826.109375 1787.878906 826.109375 C 1792.539062 826.109375 1794.878906 830.78125 1794.878906 840.109375 "/>
  <path fill-rule="evenodd" fill="rgb(9.397888%, 15.281677%, 23.925781%)" fill-opacity="1" d="M 963.769531 792.960938 C 964.253906 791.738281 964.683594 790.480469 965.039062 789.21875 C 967.351562 779.320312 969.253906 769.308594 972.039062 759.539062 C 973.585938 754.46875 975.886719 749.621094 978.835938 745.21875 C 983.328125 738.289062 988.699219 738.140625 994.367188 744.101562 C 999.308594 749.320312 999.96875 754.148438 996.84375 760.460938 C 995.40625 763.371094 993.929688 763.621094 991.863281 761.148438 C 991.453125 760.648438 991.175781 760.050781 990.757812 759.550781 C 986.253906 754.148438 980.894531 754.339844 978.339844 760.878906 C 975.136719 769.109375 973.089844 777.800781 970.796875 786.351562 C 968.964844 793.191406 967.710938 800.199219 965.796875 807.03125 C 965.011719 809.828125 963.167969 812.351562 961.808594 814.988281 L 960.390625 814.691406 C 959.953125 812.101562 959.894531 809.359375 959.003906 806.929688 C 955.121094 796.351562 951.089844 785.78125 946.78125 775.359375 C 945.394531 771.988281 943.246094 769.089844 938.644531 772.449219 C 937.382812 773.359375 934.210938 772.589844 932.453125 771.628906 C 929.675781 770.109375 927.355469 767.75 924.550781 765.53125 C 923.84375 766.339844 923.210938 767.21875 922.667969 768.148438 C 916.5625 781.421875 906.777344 791.449219 895.351562 800.28125 C 875.789062 815.351562 852.898438 823.058594 829.589844 830.148438 C 835.871094 826.359375 842.269531 822.761719 848.40625 818.761719 C 868.65625 805.550781 888.953125 792.378906 908.953125 778.789062 C 917.796875 772.78125 923.628906 763.949219 928.433594 754.46875 C 932.882812 745.730469 934.09375 745.160156 943.589844 751.371094 C 951.054688 756.21875 954.023438 764.421875 957.015625 772.210938 C 959.527344 778.78125 961.015625 785.738281 962.953125 792.539062 L 963.769531 792.960938 "/>
  <path fill-rule="evenodd" fill="rgb(9.397888%, 15.281677%, 23.925781%)" fill-opacity="1" d="M 748.878906 1128.558594 C 747.226562 1132.320312 745.847656 1136.234375 743.871094 1139.820312 C 739.15625 1148.378906 732.097656 1154.929688 724 1160.050781 C 715.734375 1165.269531 707.304688 1170.550781 698.296875 1174.167969 C 689.988281 1177.519531 680.816406 1178.746094 671.996094 1180.792969 C 666.316406 1182.132812 660.601562 1183.335938 654.90625 1184.59375 L 654.597656 1183.675781 C 655.507812 1183.214844 656.414062 1182.730469 657.351562 1182.3125 C 673.542969 1175.089844 689.882812 1168.066406 705.988281 1160.589844 C 717.125 1155.4375 727.636719 1148.996094 736.566406 1140.507812 C 740.101562 1137.144531 742.507812 1132.546875 745.269531 1128.410156 C 746.746094 1126.199219 747.78125 1123.628906 749.3125 1121.425781 C 751.011719 1119.007812 752.144531 1117.390625 753.257812 1116.027344 C 759.152344 1108.820312 765.257812 1104.765625 771.695312 1113.644531 C 777.292969 1121.367188 775.507812 1131.839844 771.03125 1138.15625 C 770.203125 1139.335938 769.355469 1140.972656 768.714844 1140.617188 C 762.175781 1138.671875 754.316406 1134.179688 748.878906 1128.558594 Z M 755.757812 1121.28125 C 759.347656 1124.230469 763.089844 1126.828125 767.503906 1127.984375 C 770.707031 1128.816406 765.121094 1116.199219 760.5 1117.339844 C 757.382812 1118.566406 755.757812 1121.28125 755.757812 1121.28125 "/>
  <path fill-rule="evenodd" fill="rgb(9.397888%, 15.281677%, 23.925781%)" fill-opacity="1" d="M 2158.75 1223.496094 C 2165.351562 1219.046875 2171.660156 1215.699219 2176.820312 1211.082031 C 2184.910156 1203.851562 2192.449219 1195.976562 2199.789062 1187.96875 C 2206.878906 1180.226562 2213.878906 1172.484375 2222.960938 1167.050781 C 2231.269531 1162.085938 2240.070312 1160.167969 2249.640625 1163.46875 C 2258.238281 1166.441406 2263.171875 1164.503906 2268.289062 1156.851562 C 2270.28125 1153.894531 2272.371094 1150.992188 2274.410156 1148.066406 C 2275.300781 1146.96875 2275.730469 1147.210938 2275.71875 1148.765625 C 2275.371094 1150.640625 2274.890625 1152.511719 2274.320312 1154.335938 C 2273.460938 1156.550781 2274.320312 1157.78125 2276.378906 1158.03125 C 2279.199219 1158.433594 2282.078125 1158.703125 2284.921875 1158.722656 C 2288.910156 1158.742188 2284.96875 1153.566406 2284.070312 1151.390625 C 2285.339844 1149.785156 2288.820312 1145.992188 2290.589844 1142.785156 C 2294.28125 1146.71875 2293.171875 1151.386719 2292.640625 1155.691406 C 2292.261719 1159.023438 2290.859375 1162.320312 2289.488281 1165.441406 C 2285.839844 1173.714844 2274.921875 1172.097656 2268.46875 1169.152344 C 2266.5 1170.894531 2265.25 1171.929688 2262.058594 1174.273438 C 2257.269531 1177.84375 2251.730469 1179.4375 2245.859375 1177.242188 C 2234.589844 1173.003906 2224.441406 1176.234375 2215.429688 1182.648438 C 2207.789062 1188.085938 2201.058594 1194.832031 2194.089844 1201.171875 C 2189.789062 1205.128906 2185.890625 1209.617188 2181.480469 1213.5 C 2175.390625 1218.953125 2167.789062 1221.554688 2158.75 1223.496094 "/>
  <path fill-rule="evenodd" fill="rgb(9.397888%, 15.281677%, 23.925781%)" fill-opacity="1" d="M 2081 858.308594 C 2082.839844 850.640625 2084.488281 842.910156 2086.609375 835.300781 C 2087.761719 831.320312 2089.339844 827.460938 2091.308594 823.808594 C 2093.03125 820.578125 2095.730469 817.441406 2099.871094 818.878906 C 2103.921875 820.160156 2106.691406 823.929688 2106.691406 828.179688 C 2106.691406 828.238281 2106.679688 828.300781 2106.679688 828.351562 C 2106.679688 830.679688 2105.761719 833.019531 2105.128906 835.910156 C 2104.128906 835.390625 2103.171875 834.800781 2102.261719 834.140625 C 2095.941406 828.320312 2093.171875 828.710938 2090.308594 836.949219 C 2088.03125 843.511719 2086.738281 850.429688 2085.011719 857.191406 L 2081.261719 872.261719 C 2086.691406 876.5 2092.460938 880.140625 2097.101562 884.871094 C 2101.75 889.589844 2098.421875 898.378906 2091.921875 900.421875 C 2085.808594 902.351562 2079.761719 904.46875 2073.738281 906.738281 C 2070.199219 908.078125 2069.269531 910.488281 2070.601562 914.390625 C 2075.898438 929.859375 2078.320312 945.929688 2079 962.199219 C 2079.261719 968.289062 2078.28125 974.429688 2077.46875 980.390625 C 2075.929688 967.890625 2074.589844 955.378906 2072.789062 942.878906 C 2071.710938 935.429688 2069.808594 928.109375 2068.511719 920.671875 C 2067.738281 917.21875 2067.359375 913.679688 2067.359375 910.140625 C 2067.359375 909.730469 2067.371094 909.289062 2067.371094 908.878906 C 2067.949219 901.191406 2071.359375 895.171875 2079.320312 892.679688 C 2080.898438 892.199219 2082.410156 891.46875 2084.039062 890.808594 C 2079.929688 884.738281 2077.648438 884.871094 2070.820312 891.640625 C 2070.820312 885.378906 2072.238281 880.269531 2076 875.730469 C 2077.140625 874.398438 2078.050781 871.898438 2077.558594 870.460938 C 2074.730469 862.25 2071.640625 854.121094 2068.179688 846.171875 C 2067.050781 843.570312 2065.730469 840.488281 2060.910156 842.621094 C 2059 843.460938 2054.679688 840.289062 2052.320312 838.078125 C 2051.179688 837.03125 2051.359375 833.421875 2052.320312 831.710938 C 2057.238281 822.75 2062.398438 822.050781 2068.230469 830.789062 C 2072.769531 837.511719 2074.980469 845.75 2078.140625 853.351562 C 2078.710938 855.011719 2079.191406 856.71875 2079.558594 858.429688 L 2081 858.308594 "/>
  <path fill-rule="evenodd" fill="rgb(9.397888%, 15.281677%, 23.925781%)" fill-opacity="1" d="M 1332.171875 1140.804688 C 1330.519531 1144.566406 1329.140625 1148.476562 1327.160156 1152.066406 C 1322.449219 1160.625 1315.390625 1167.171875 1307.289062 1172.296875 C 1299.019531 1177.515625 1290.589844 1182.796875 1281.578125 1186.414062 C 1273.28125 1189.761719 1264.109375 1190.992188 1255.289062 1193.035156 C 1249.601562 1194.378906 1243.890625 1195.578125 1238.199219 1196.839844 L 1237.890625 1195.917969 C 1238.800781 1195.460938 1239.710938 1194.976562 1240.640625 1194.554688 C 1256.828125 1187.332031 1273.171875 1180.3125 1289.28125 1172.832031 C 1300.410156 1167.683594 1310.921875 1161.242188 1319.851562 1152.753906 C 1323.390625 1149.390625 1325.800781 1144.792969 1328.558594 1140.65625 C 1330.039062 1138.445312 1331.070312 1135.871094 1332.601562 1133.671875 C 1334.300781 1131.253906 1335.441406 1129.636719 1336.550781 1128.273438 C 1342.441406 1121.0625 1348.550781 1117.011719 1354.980469 1125.886719 C 1360.578125 1133.609375 1358.800781 1144.082031 1354.320312 1150.398438 C 1353.488281 1151.578125 1352.640625 1153.21875 1352 1152.859375 C 1345.460938 1150.917969 1337.609375 1146.421875 1332.171875 1140.804688 Z M 1339.050781 1133.527344 C 1342.640625 1136.476562 1346.378906 1139.074219 1350.789062 1140.226562 C 1354 1141.0625 1348.410156 1128.441406 1343.789062 1129.582031 C 1340.671875 1130.8125 1339.050781 1133.527344 1339.050781 1133.527344 "/>
</svg>