<svg xmlns="http://www.w3.org/2000/svg" xmlns:xlink="http://www.w3.org/1999/xlink" width="500" zoomAndPan="magnify" viewBox="0 0 375 149.999998" height="200" preserveAspectRatio="xMidYMid meet" version="1.0"><path fill="#000000" d="M 306.398438 23.914062 C 307.121094 23.640625 308.605469 24.125 309.304688 24.265625 C 312.34375 24.886719 315.273438 26 318.082031 27.296875 C 328.523438 32.125 336.089844 41.1875 340.769531 51.53125 C 341.941406 54.113281 342.90625 56.835938 343.507812 59.605469 C 343.667969 60.355469 344.148438 61.71875 343.816406 62.492188 C 343.519531 63.15625 342.757812 63.671875 342.242188 64.152344 C 341.136719 65.175781 340.113281 66.082031 338.847656 66.855469 C 337.214844 65.347656 334.925781 64.273438 333.074219 63.015625 C 332.511719 58.53125 330.59375 54.054688 328.613281 50.054688 C 325.246094 43.253906 320.78125 37.023438 315.367188 31.714844 C 312.90625 29.316406 309.421875 25.574219 306.398438 23.914062 Z M 306.398438 23.914062 " fill-opacity="1" fill-rule="evenodd"/><path fill="#000000" d="M 306.398438 119.144531 C 307.121094 119.421875 308.605469 118.933594 309.304688 118.792969 C 312.34375 118.175781 315.273438 117.058594 318.082031 115.761719 C 328.523438 110.933594 336.089844 101.875 340.769531 91.527344 C 341.941406 88.945312 342.90625 86.226562 343.507812 83.453125 C 343.667969 82.707031 344.148438 81.339844 343.816406 80.570312 C 343.519531 79.90625 342.757812 79.386719 342.242188 78.910156 C 341.136719 77.882812 340.113281 76.980469 338.847656 76.207031 C 337.214844 77.714844 334.925781 78.785156 333.074219 80.042969 C 332.511719 84.527344 330.59375 89.007812 328.613281 93.007812 C 325.246094 99.804688 320.78125 106.039062 315.367188 111.347656 C 312.90625 113.746094 309.421875 117.488281 306.398438 119.144531 Z M 306.398438 119.144531 " fill-opacity="1" fill-rule="evenodd"/><path fill="#000000" d="M 352.109375 65.566406 C 351.820312 65.71875 351.554688 65.863281 351.488281 65.910156 C 349.832031 67.207031 348.199219 68.421875 346.347656 69.445312 C 345.714844 69.796875 345.058594 70.089844 344.414062 70.417969 C 344.3125 70.46875 344.023438 70.605469 343.875 70.757812 C 343.667969 70.964844 343.609375 71.210938 343.667969 71.449219 C 343.726562 71.6875 343.898438 71.890625 344.195312 71.984375 C 344.425781 72.050781 344.792969 72.039062 344.910156 72.039062 C 345.09375 72.042969 345.65625 72.257812 346.390625 72.546875 C 348.335938 73.3125 351.382812 74.699219 352.785156 75.488281 C 352.949219 75.578125 353.429688 75.90625 353.84375 76.195312 C 353.589844 76.359375 353.328125 76.519531 353.1875 76.574219 C 351.796875 77.109375 350.152344 77.652344 349.257812 78.929688 C 348.921875 79.402344 348.820312 79.957031 348.820312 80.535156 C 348.832031 81.226562 349.027344 81.964844 349.050781 82.589844 C 349.105469 84.277344 348.808594 85.746094 347.820312 87.148438 C 347.046875 88.25 346.09375 89.292969 344.910156 89.957031 C 344.714844 90.066406 343.058594 90.875 343.058594 90.875 C 342.828125 90.988281 342.703125 91.246094 342.746094 91.5 C 342.792969 91.753906 343.011719 91.945312 343.265625 91.964844 C 343.265625 91.964844 345.804688 92.140625 346.566406 92.042969 C 350.476562 91.539062 352.855469 89.039062 354.570312 85.699219 C 354.820312 85.214844 355.003906 84.601562 355.203125 84.007812 C 355.375 83.511719 355.546875 83.023438 355.832031 82.679688 C 356.109375 82.355469 356.511719 82.136719 356.925781 81.925781 C 357.445312 81.660156 357.972656 81.414062 358.386719 81.101562 C 359.664062 80.144531 360.558594 78.9375 361.386719 77.585938 C 361.710938 77.058594 362.007812 76.515625 362.296875 75.972656 C 362.445312 75.710938 363.320312 74.089844 363.320312 74.089844 C 363.46875 73.8125 363.367188 73.464844 363.089844 73.3125 C 363.089844 73.3125 362.203125 72.832031 362.042969 72.75 C 361.46875 72.464844 359.882812 71.746094 358.695312 71.214844 C 358.6875 71.214844 363.25 69.808594 363.25 69.808594 C 363.539062 69.71875 363.710938 69.421875 363.640625 69.128906 C 363.640625 69.128906 363.171875 67.132812 362.203125 65.246094 C 361.527344 63.914062 360.59375 62.65625 359.445312 62.089844 C 359.019531 61.878906 358.445312 61.722656 357.902344 61.546875 C 357.464844 61.40625 357.050781 61.269531 356.800781 61.035156 C 356.707031 60.953125 356.695312 60.800781 356.671875 60.65625 C 356.617188 60.371094 356.582031 60.074219 356.523438 59.855469 C 356.234375 58.796875 355.789062 57.734375 355.222656 56.800781 C 352.878906 52.984375 346.992188 50.164062 342.78125 50.402344 C 342.503906 50.417969 342.277344 50.625 342.242188 50.898438 C 342.207031 51.171875 342.367188 51.433594 342.632812 51.519531 C 343.988281 51.976562 345.117188 53.289062 346.082031 54.851562 C 347.621094 57.351562 348.691406 60.515625 349.394531 62.335938 C 349.875 63.585938 350.347656 64.382812 351.476562 65.164062 C 351.683594 65.308594 351.890625 65.445312 352.109375 65.566406 Z M 345.53125 90.925781 C 346.839844 90.175781 347.910156 89.03125 348.761719 87.804688 C 349.898438 86.1875 350.269531 84.496094 350.199219 82.546875 C 350.175781 82.023438 350.039062 81.417969 349.992188 80.828125 C 349.945312 80.382812 349.945312 79.945312 350.199219 79.589844 C 350.96875 78.5 352.417969 78.105469 353.601562 77.644531 C 353.992188 77.492188 355.179688 76.679688 355.179688 76.679688 C 355.339844 76.570312 355.417969 76.394531 355.417969 76.207031 C 355.429688 76.023438 355.339844 75.847656 355.191406 75.738281 C 355.191406 75.738281 353.671875 74.660156 353.351562 74.484375 C 351.707031 73.558594 347.875 71.839844 346.035156 71.183594 C 345.910156 71.140625 345.804688 71.101562 345.691406 71.066406 C 346.105469 70.871094 346.507812 70.671875 346.910156 70.453125 C 348.820312 69.394531 350.488281 68.152344 352.199219 66.816406 C 352.335938 66.707031 353.429688 66.21875 353.683594 66.050781 C 353.855469 65.929688 353.914062 65.792969 353.9375 65.726562 C 353.992188 65.578125 354.027344 65.308594 353.753906 65.078125 C 353.660156 65 353.144531 64.789062 353.085938 64.769531 C 352.75 64.621094 352.429688 64.429688 352.128906 64.21875 C 351.222656 63.589844 350.855469 62.9375 350.464844 61.925781 C 349.75 60.054688 348.644531 56.816406 347.058594 54.25 C 346.460938 53.261719 345.773438 52.378906 345.023438 51.691406 L 345.023438 51.6875 C 348.519531 52.277344 352.476562 54.53125 354.246094 57.402344 C 354.753906 58.246094 355.15625 59.203125 355.40625 60.160156 C 355.476562 60.40625 355.5 60.761719 355.582031 61.074219 C 355.660156 61.398438 355.8125 61.679688 356.019531 61.875 C 356.304688 62.148438 356.742188 62.359375 357.226562 62.53125 C 357.800781 62.738281 358.46875 62.890625 358.9375 63.121094 C 359.882812 63.589844 360.617188 64.667969 361.179688 65.765625 C 361.789062 66.957031 362.179688 68.199219 362.375 68.875 C 362.375 68.875 356.878906 70.570312 356.878906 70.570312 C 356.660156 70.640625 356.5 70.84375 356.476562 71.085938 C 356.464844 71.324219 356.605469 71.546875 356.824219 71.644531 C 356.824219 71.644531 360.59375 73.308594 361.527344 73.777344 C 361.59375 73.8125 361.8125 73.933594 362.03125 74.050781 C 361.765625 74.546875 361.386719 75.253906 361.296875 75.417969 C 361.007812 75.949219 360.722656 76.472656 360.398438 76.984375 C 359.652344 78.210938 358.859375 79.316406 357.695312 80.179688 C 357.328125 80.457031 356.855469 80.667969 356.398438 80.902344 C 355.84375 81.1875 355.328125 81.503906 354.960938 81.941406 C 354.582031 82.382812 354.328125 82.996094 354.121094 83.636719 C 353.9375 84.179688 353.773438 84.734375 353.558594 85.171875 C 352.015625 88.164062 349.921875 90.449219 346.425781 90.902344 C 346.21875 90.929688 345.898438 90.933594 345.53125 90.925781 Z M 345.53125 90.925781 " fill-opacity="1" fill-rule="evenodd"/><path fill="#000000" d="M 339.195312 76.402344 C 339.332031 76.300781 340.160156 75.691406 340.25 75.617188 C 341.527344 74.582031 343.964844 72.183594 345.128906 71.027344 C 345.242188 70.921875 345.300781 70.78125 345.300781 70.632812 C 345.300781 70.507812 345.265625 70.335938 345.128906 70.175781 C 345.023438 70.0625 344.769531 69.902344 344.714844 69.859375 C 344.3125 69.5625 343.921875 69.269531 343.519531 68.976562 C 341.988281 67.839844 340.480469 66.582031 338.824219 65.609375 C 338.585938 65.464844 338.261719 65.527344 338.089844 65.753906 C 337.628906 66.339844 336.433594 66.917969 335.800781 67.355469 C 334.066406 68.550781 332.257812 69.652344 330.5 70.8125 C 330.246094 70.875 330.144531 71.117188 330.132812 71.164062 C 330.085938 71.285156 330.015625 71.546875 330.269531 71.792969 C 330.304688 71.820312 330.535156 71.949219 330.613281 72.003906 C 330.789062 72.121094 330.960938 72.234375 331.132812 72.351562 C 331.730469 72.757812 332.351562 73.136719 332.972656 73.511719 C 334.765625 74.59375 336.550781 75.71875 338.421875 76.648438 C 338.605469 76.738281 338.824219 76.722656 339 76.609375 C 339.078125 76.558594 339.148438 76.484375 339.195312 76.402344 Z M 343.863281 70.664062 C 342.621094 71.890625 340.632812 73.828125 339.527344 74.726562 C 339.433594 74.796875 338.894531 75.152344 338.5625 75.425781 C 336.847656 74.550781 335.214844 73.519531 333.558594 72.523438 C 332.960938 72.164062 332.363281 71.796875 331.777344 71.402344 L 331.742188 71.375 C 333.316406 70.355469 334.90625 69.367188 336.457031 68.300781 C 337.03125 67.90625 338.007812 67.371094 338.628906 66.832031 C 340.101562 67.746094 341.449219 68.878906 342.839844 69.902344 C 343.183594 70.15625 343.527344 70.410156 343.863281 70.664062 Z M 330.582031 71.9375 L 330.582031 71.941406 Z M 330.582031 71.9375 " fill-opacity="1" fill-rule="evenodd"/><path fill="#000000" d="M 363.203125 69.203125 L 374.921875 71.78125 L 363.203125 73.746094 L 358.292969 71.230469 Z M 363.203125 69.203125 " fill-opacity="1" fill-rule="evenodd"/><path fill="#000000" d="M 68.480469 19.015625 C 67.753906 18.742188 66.273438 19.226562 65.570312 19.367188 C 62.535156 19.988281 59.601562 21.101562 56.796875 22.402344 C 46.355469 27.230469 38.789062 36.289062 34.109375 46.632812 C 32.933594 49.214844 31.96875 51.9375 31.371094 54.710938 C 31.210938 55.457031 30.726562 56.820312 31.058594 57.59375 C 31.359375 58.257812 32.117188 58.773438 32.636719 59.253906 C 33.738281 60.28125 34.761719 61.183594 36.027344 61.957031 C 37.660156 60.449219 39.949219 59.375 41.800781 58.117188 C 42.363281 53.632812 44.285156 49.15625 46.261719 45.15625 C 49.632812 38.359375 54.09375 32.125 59.511719 26.816406 C 61.972656 24.417969 65.457031 20.675781 68.480469 19.015625 Z M 68.480469 19.015625 " fill-opacity="1" fill-rule="evenodd"/><path fill="#000000" d="M 68.480469 114.246094 C 67.753906 114.523438 66.273438 114.039062 65.570312 113.894531 C 62.535156 113.277344 59.601562 112.160156 56.796875 110.863281 C 46.355469 106.035156 38.789062 96.976562 34.109375 86.628906 C 32.933594 84.050781 31.96875 81.328125 31.371094 78.554688 C 31.210938 77.808594 30.726562 76.441406 31.058594 75.671875 C 31.359375 75.007812 32.117188 74.488281 32.636719 74.011719 C 33.738281 72.984375 34.761719 72.082031 36.027344 71.308594 C 37.660156 72.816406 39.949219 73.890625 41.800781 75.148438 C 42.363281 79.628906 44.285156 84.109375 46.261719 88.109375 C 49.632812 94.90625 54.09375 101.140625 59.511719 106.449219 C 61.972656 108.847656 65.457031 112.589844 68.480469 114.246094 Z M 68.480469 114.246094 " fill-opacity="1" fill-rule="evenodd"/><path fill="#000000" d="M 22.769531 60.667969 C 23.054688 60.820312 23.320312 60.964844 23.390625 61.011719 C 25.046875 62.308594 26.679688 63.523438 28.53125 64.550781 C 29.164062 64.898438 29.816406 65.191406 30.460938 65.519531 C 30.566406 65.574219 30.851562 65.707031 31.003906 65.859375 C 31.210938 66.066406 31.265625 66.3125 31.210938 66.550781 C 31.152344 66.789062 30.980469 66.992188 30.679688 67.085938 C 30.449219 67.15625 30.082031 67.140625 29.96875 67.140625 C 29.785156 67.144531 29.21875 67.359375 28.484375 67.652344 C 26.539062 68.414062 23.492188 69.800781 22.089844 70.589844 C 21.929688 70.679688 21.445312 71.007812 21.03125 71.300781 C 21.285156 71.460938 21.550781 71.621094 21.6875 71.675781 C 23.078125 72.210938 24.722656 72.753906 25.621094 74.03125 C 25.953125 74.503906 26.058594 75.058594 26.058594 75.640625 C 26.046875 76.332031 25.851562 77.066406 25.828125 77.691406 C 25.769531 79.378906 26.070312 80.851562 27.058594 82.25 C 27.828125 83.351562 28.78125 84.394531 29.96875 85.058594 C 30.164062 85.167969 31.820312 85.976562 31.820312 85.976562 C 32.050781 86.089844 32.175781 86.347656 32.128906 86.601562 C 32.082031 86.855469 31.863281 87.046875 31.613281 87.066406 C 31.613281 87.066406 29.070312 87.246094 28.3125 87.144531 C 24.402344 86.640625 22.019531 84.144531 20.308594 80.800781 C 20.054688 80.316406 19.871094 79.703125 19.675781 79.109375 C 19.503906 78.613281 19.332031 78.125 19.042969 77.78125 C 18.765625 77.457031 18.363281 77.238281 17.949219 77.027344 C 17.433594 76.761719 16.902344 76.519531 16.488281 76.203125 C 15.214844 75.25 14.316406 74.039062 13.488281 72.6875 C 13.167969 72.160156 12.867188 71.617188 12.582031 71.074219 C 12.429688 70.8125 11.558594 69.191406 11.558594 69.191406 C 11.40625 68.914062 11.511719 68.566406 11.785156 68.414062 C 11.785156 68.414062 12.671875 67.933594 12.832031 67.851562 C 13.410156 67.566406 14.996094 66.847656 16.179688 66.320312 C 16.191406 66.316406 11.625 64.914062 11.625 64.914062 C 11.339844 64.824219 11.164062 64.523438 11.234375 64.230469 C 11.234375 64.230469 11.707031 62.234375 12.671875 60.347656 C 13.351562 59.015625 14.28125 57.757812 15.433594 57.191406 C 15.859375 56.984375 16.433594 56.824219 16.972656 56.648438 C 17.410156 56.511719 17.824219 56.371094 18.078125 56.136719 C 18.167969 56.054688 18.179688 55.90625 18.203125 55.761719 C 18.261719 55.476562 18.296875 55.175781 18.351562 54.957031 C 18.640625 53.898438 19.089844 52.835938 19.652344 51.902344 C 22 48.085938 27.886719 45.265625 32.09375 45.503906 C 32.371094 45.519531 32.601562 45.730469 32.636719 46 C 32.671875 46.273438 32.507812 46.535156 32.246094 46.625 C 30.886719 47.082031 29.761719 48.390625 28.792969 49.953125 C 27.253906 52.457031 26.183594 55.617188 25.484375 57.4375 C 25 58.691406 24.527344 59.484375 23.402344 60.265625 C 23.195312 60.410156 22.988281 60.546875 22.769531 60.667969 Z M 29.347656 86.027344 C 28.035156 85.28125 26.964844 84.132812 26.117188 82.910156 C 24.976562 81.292969 24.609375 79.601562 24.679688 77.652344 C 24.699219 77.125 24.839844 76.519531 24.886719 75.929688 C 24.929688 75.488281 24.929688 75.046875 24.679688 74.691406 C 23.90625 73.601562 22.457031 73.207031 21.273438 72.75 C 20.882812 72.59375 19.699219 71.78125 19.699219 71.78125 C 19.539062 71.671875 19.457031 71.5 19.457031 71.3125 C 19.445312 71.125 19.539062 70.949219 19.6875 70.839844 C 19.6875 70.839844 21.203125 69.765625 21.527344 69.585938 C 23.171875 68.664062 27 66.941406 28.839844 66.285156 C 28.96875 66.242188 29.070312 66.203125 29.1875 66.171875 C 28.773438 65.972656 28.371094 65.773438 27.964844 65.554688 C 26.058594 64.5 24.390625 63.253906 22.675781 61.917969 C 22.539062 61.808594 21.445312 61.320312 21.195312 61.152344 C 21.019531 61.03125 20.964844 60.894531 20.941406 60.828125 C 20.882812 60.679688 20.847656 60.410156 21.125 60.179688 C 21.214844 60.101562 21.734375 59.890625 21.792969 59.871094 C 22.125 59.726562 22.445312 59.53125 22.746094 59.324219 C 23.65625 58.691406 24.023438 58.039062 24.414062 57.027344 C 25.125 55.160156 26.230469 51.917969 27.816406 49.351562 C 28.414062 48.363281 29.105469 47.480469 29.851562 46.792969 L 29.851562 46.789062 C 26.355469 47.382812 22.402344 49.632812 20.628906 52.503906 C 20.125 53.347656 19.722656 54.304688 19.46875 55.261719 C 19.398438 55.507812 19.375 55.863281 19.296875 56.175781 C 19.214844 56.5 19.066406 56.785156 18.859375 56.980469 C 18.570312 57.25 18.132812 57.460938 17.652344 57.632812 C 17.078125 57.839844 16.410156 57.992188 15.9375 58.222656 C 14.996094 58.691406 14.257812 59.769531 13.695312 60.871094 C 13.085938 62.0625 12.695312 63.300781 12.5 63.976562 C 12.5 63.976562 17.996094 65.671875 17.996094 65.671875 C 18.214844 65.742188 18.375 65.949219 18.398438 66.1875 C 18.410156 66.425781 18.273438 66.648438 18.054688 66.746094 C 18.054688 66.746094 14.28125 68.410156 13.351562 68.878906 C 13.28125 68.914062 13.0625 69.035156 12.84375 69.152344 C 13.109375 69.648438 13.488281 70.359375 13.582031 70.523438 C 13.867188 71.050781 14.15625 71.574219 14.476562 72.089844 C 15.226562 73.3125 16.019531 74.417969 17.179688 75.28125 C 17.546875 75.5625 18.019531 75.769531 18.480469 76.003906 C 19.03125 76.289062 19.550781 76.605469 19.917969 77.042969 C 20.296875 77.484375 20.550781 78.101562 20.757812 78.738281 C 20.941406 79.28125 21.101562 79.835938 21.320312 80.273438 C 22.859375 83.269531 24.953125 85.550781 28.449219 86.003906 C 28.65625 86.03125 28.980469 86.035156 29.347656 86.027344 Z M 29.347656 86.027344 " fill-opacity="1" fill-rule="evenodd"/><path fill="#000000" d="M 35.683594 71.503906 C 35.542969 71.402344 34.71875 70.792969 34.625 70.71875 C 33.347656 69.6875 30.910156 67.285156 29.75 66.128906 C 29.632812 66.023438 29.578125 65.882812 29.578125 65.734375 C 29.578125 65.609375 29.609375 65.4375 29.75 65.28125 C 29.851562 65.164062 30.105469 65.003906 30.164062 64.960938 C 30.566406 64.664062 30.957031 64.371094 31.359375 64.078125 C 32.886719 62.941406 34.394531 61.683594 36.050781 60.714844 C 36.292969 60.566406 36.613281 60.628906 36.785156 60.855469 C 37.246094 61.441406 38.441406 62.023438 39.074219 62.457031 C 40.8125 63.65625 42.617188 64.753906 44.375 65.914062 C 44.628906 65.976562 44.734375 66.21875 44.746094 66.265625 C 44.789062 66.386719 44.859375 66.648438 44.605469 66.894531 C 44.570312 66.921875 44.34375 67.050781 44.261719 67.105469 C 44.089844 67.222656 43.917969 67.335938 43.742188 67.453125 C 43.144531 67.859375 42.523438 68.238281 41.902344 68.613281 C 40.109375 69.695312 38.328125 70.820312 36.453125 71.75 C 36.269531 71.839844 36.050781 71.824219 35.878906 71.714844 C 35.796875 71.660156 35.730469 71.589844 35.683594 71.503906 Z M 31.015625 65.765625 C 32.257812 66.992188 34.246094 68.933594 35.347656 69.828125 C 35.441406 69.898438 35.980469 70.253906 36.316406 70.527344 C 38.027344 69.652344 39.660156 68.621094 41.316406 67.628906 C 41.914062 67.265625 42.515625 66.898438 43.101562 66.503906 L 43.132812 66.476562 C 41.558594 65.457031 39.972656 64.46875 38.417969 63.402344 C 37.84375 63.007812 36.867188 62.476562 36.246094 61.933594 C 34.773438 62.847656 33.429688 63.980469 32.039062 65.003906 C 31.691406 65.257812 31.347656 65.511719 31.015625 65.765625 Z M 44.296875 67.042969 Z M 44.296875 67.042969 " fill-opacity="1" fill-rule="evenodd"/><path fill="#000000" d="M 11.671875 64.304688 L -0.046875 66.886719 L 11.671875 68.847656 L 16.582031 66.332031 Z M 11.671875 64.304688 " fill-opacity="1" fill-rule="evenodd"/><path fill="#000000" d="M 146.238281 39.652344 C 146.332031 39.683594 146.140625 39.703125 146.171875 39.617188 C 146.246094 39.441406 146.425781 39.019531 146.5 38.84375 C 146.703125 38.328125 146.945312 37.824219 147.191406 37.320312 C 147.953125 35.746094 148.914062 33.910156 150.714844 33.214844 C 151.878906 32.769531 153.171875 32.769531 154.410156 32.710938 C 157.417969 32.558594 160.667969 32.847656 163.632812 33.378906 C 165.128906 33.644531 167.246094 34.125 167.605469 35.78125 C 167.996094 37.585938 166.554688 39.523438 165.382812 40.796875 C 162.394531 44.027344 157.957031 46.609375 153.449219 47.28125 C 151.953125 47.503906 150.472656 47.5625 148.980469 47.359375 C 148.554688 47.300781 147.855469 47.261719 147.539062 46.960938 C 147.328125 46.769531 148.003906 46.460938 148.109375 46.414062 C 148.875 46.070312 149.679688 45.824219 150.449219 45.523438 C 153.078125 44.511719 155.796875 43.539062 158.179688 42.074219 C 158.613281 41.808594 160.128906 41.023438 160.078125 40.339844 C 160.066406 40.152344 159.417969 40.109375 159.304688 40.089844 C 158.414062 39.941406 157.515625 39.875 156.625 39.785156 C 153.925781 39.511719 148.957031 39.613281 146.238281 39.652344 Z M 146.238281 39.652344 " fill-opacity="1" fill-rule="evenodd"/><path fill="#000000" d="M 86.390625 119.328125 C 86.359375 119.316406 85.785156 120.40625 85.722656 120.511719 C 85.59375 120.753906 84.484375 122.566406 85.035156 122.65625 C 85.660156 122.753906 86.515625 122.285156 87.066406 122.070312 C 88.570312 121.472656 90.054688 120.792969 91.523438 120.121094 C 96.734375 117.746094 101.996094 115.480469 107.34375 113.390625 C 108.574219 112.90625 109.800781 112.4375 111.039062 111.972656 C 112.363281 111.472656 114.035156 110.21875 113.582031 108.578125 C 113.453125 108.132812 91.917969 117.109375 86.390625 119.328125 Z M 86.390625 119.328125 " fill-opacity="1" fill-rule="evenodd"/><path fill="#000000" d="M 87.394531 76.109375 C 86.621094 76.632812 85.140625 76.503906 84.355469 75.628906 C 83.613281 74.804688 84.261719 72.320312 85.582031 72.152344 C 87.277344 71.941406 89.246094 74.953125 90.105469 76.050781 C 90.433594 76.464844 91.472656 78.265625 91.472656 78.265625 C 91.472656 78.265625 91.546875 76.234375 91.640625 75.730469 C 91.726562 75.3125 91.808594 74.894531 91.914062 74.480469 C 92.011719 74.132812 92.117188 73.789062 92.242188 73.453125 C 92.710938 72.210938 94.234375 69.660156 96.046875 70.714844 C 96.382812 70.910156 96.617188 71.246094 96.820312 71.558594 C 96.964844 71.796875 97.074219 72.0625 97.1875 72.320312 C 97.664062 73.378906 96.585938 72.785156 95.644531 73.347656 C 95.0625 73.691406 93.96875 74.636719 93.609375 75.304688 C 92.65625 77.085938 92.699219 79.589844 92.605469 81.5625 C 92.539062 81.597656 92.507812 82.386719 92.488281 82.5 C 92.351562 82.492188 92.277344 82.21875 92.222656 82.128906 C 91.988281 81.664062 91.40625 81.21875 91.183594 80.753906 C 90.445312 79.1875 88.601562 77.410156 87.394531 76.109375 Z M 87.394531 76.109375 " fill-opacity="1" fill-rule="evenodd"/><path fill="#000000" d="M 242.339844 65.050781 C 241.566406 65.574219 240.082031 65.445312 239.300781 64.570312 C 238.558594 63.75 239.203125 61.261719 240.527344 61.097656 C 242.222656 60.882812 244.191406 63.898438 245.046875 64.992188 C 245.378906 65.40625 246.414062 67.207031 246.414062 67.207031 C 246.414062 67.207031 246.488281 65.179688 246.585938 64.675781 C 246.667969 64.253906 246.753906 63.835938 246.859375 63.421875 C 246.953125 63.074219 247.0625 62.730469 247.1875 62.394531 C 247.652344 61.15625 249.179688 58.605469 250.988281 59.660156 C 251.328125 59.851562 251.5625 60.191406 251.761719 60.5 C 251.910156 60.742188 252.015625 61.007812 252.132812 61.265625 C 252.609375 62.320312 251.527344 61.726562 250.585938 62.289062 C 250.003906 62.632812 248.914062 63.578125 248.554688 64.246094 C 247.601562 66.03125 247.644531 68.535156 247.546875 70.503906 C 247.484375 70.539062 247.453125 71.332031 247.429688 71.441406 C 247.292969 71.4375 247.21875 71.164062 247.167969 71.070312 C 246.933594 70.609375 246.351562 70.164062 246.128906 69.695312 C 245.386719 68.128906 243.546875 66.351562 242.339844 65.050781 Z M 242.339844 65.050781 " fill-opacity="1" fill-rule="evenodd"/><path fill="#000000" d="M 238.414062 34.589844 C 237.640625 35.113281 236.15625 34.984375 235.375 34.105469 C 234.632812 33.285156 235.277344 30.800781 236.601562 30.632812 C 238.296875 30.421875 240.265625 33.433594 241.125 34.527344 C 241.453125 34.941406 242.488281 36.746094 242.488281 36.746094 C 242.488281 36.746094 242.5625 34.714844 242.660156 34.210938 C 242.742188 33.792969 242.828125 33.375 242.933594 32.960938 C 243.03125 32.613281 243.136719 32.269531 243.261719 31.929688 C 243.730469 30.691406 245.253906 28.140625 247.0625 29.195312 C 247.402344 29.390625 247.636719 29.726562 247.835938 30.039062 C 247.984375 30.277344 248.089844 30.542969 248.207031 30.800781 C 248.683594 31.859375 247.605469 31.265625 246.660156 31.828125 C 246.078125 32.167969 244.988281 33.117188 244.628906 33.785156 C 243.675781 35.566406 243.71875 38.070312 243.621094 40.039062 C 243.558594 40.074219 243.527344 40.867188 243.507812 40.980469 C 243.367188 40.972656 243.292969 40.699219 243.242188 40.609375 C 243.007812 40.144531 242.425781 39.699219 242.203125 39.234375 C 241.460938 37.664062 239.621094 35.886719 238.414062 34.589844 Z M 238.414062 34.589844 " fill-opacity="1" fill-rule="evenodd"/><path fill="#000000" d="M 264.363281 87.820312 C 264.363281 87.804688 264.375 87.800781 264.40625 87.808594 L 264.363281 87.820312 C 264.382812 87.875 265.632812 91.074219 265.515625 92.058594 C 265.515625 92.058594 265.285156 92.257812 265.253906 92.292969 C 265.082031 92.445312 264.902344 92.597656 264.734375 92.75 C 264.128906 93.28125 263.515625 93.820312 262.902344 94.339844 C 261.207031 95.765625 259.460938 97.128906 257.714844 98.488281 C 252.472656 102.5625 246.414062 108.117188 239.363281 109.175781 C 237.457031 109.460938 235.464844 108.835938 233.738281 108.144531 C 232.054688 107.46875 230.414062 106.671875 229.082031 105.460938 C 223.902344 100.765625 224.867188 92.664062 226.964844 86.859375 C 226.464844 87.34375 226.179688 88.210938 225.882812 88.804688 C 225.027344 90.539062 224.335938 92.355469 223.933594 94.230469 C 222.429688 101.152344 223.003906 110.320312 230.625 113.789062 C 231.738281 114.296875 232.925781 114.644531 234.152344 114.792969 C 244.976562 116.09375 254.472656 108.726562 261.207031 101.648438 C 263.515625 99.214844 265.78125 96.542969 267.445312 93.667969 C 267.878906 92.914062 268.121094 91.65625 268.109375 91.226562 C 268.035156 89.484375 267.878906 87.964844 267.613281 86.234375 C 269.382812 84.945312 270.832031 84.53125 272.421875 82.933594 C 272.441406 82.90625 272.496094 83.246094 272.496094 83.265625 C 272.527344 83.441406 272.578125 83.609375 272.632812 83.777344 C 272.824219 84.347656 273.054688 84.898438 273.332031 85.433594 C 274.136719 86.980469 275.269531 88.507812 276.835938 89.4375 C 280.003906 91.308594 284.460938 90.105469 287.035156 87.84375 C 288.800781 86.289062 289.976562 84.222656 291.078125 82.21875 C 291.132812 82.125 291.257812 82.523438 291.28125 82.554688 C 291.386719 82.765625 291.492188 82.980469 291.617188 83.183594 C 292.011719 83.851562 292.453125 84.503906 292.941406 85.109375 C 294.488281 87.007812 296.742188 87.972656 299.261719 87.273438 C 300.175781 87.019531 301.042969 86.550781 301.867188 86.105469 C 308.613281 82.460938 306.019531 75.179688 305.414062 70.652344 C 305.203125 70.617188 304.695312 71.148438 304.546875 71.261719 C 303.742188 71.890625 302.546875 72.769531 302.152344 73.722656 C 301.878906 74.414062 302.515625 75.414062 302.714844 76.066406 C 303.402344 78.316406 303.445312 80.703125 300.542969 81.25 C 299.929688 81.363281 299.296875 81.371094 298.691406 81.246094 C 297.855469 81.070312 297.199219 80.578125 296.636719 79.992188 C 295.929688 79.257812 295.324219 78.4375 294.835938 77.554688 C 294.117188 76.234375 293.546875 74.644531 293.292969 73.164062 C 293.015625 73.230469 292.65625 74.679688 292.5625 74.898438 C 291.851562 76.523438 291.140625 78.140625 290.019531 79.558594 C 288.25 81.789062 285.414062 84.128906 282.269531 84.082031 C 277.894531 84.015625 275.609375 78.425781 275.882812 74.925781 C 272.824219 77.082031 269.976562 79.90625 266.394531 81.347656 C 266.3125 81.382812 266.375 81.171875 266.332031 81.09375 C 266.226562 80.921875 266.097656 80.757812 265.984375 80.597656 C 265.613281 80.082031 265.261719 79.554688 264.871094 79.046875 C 263.726562 77.570312 262.542969 75.957031 260.941406 74.878906 C 258.625 73.3125 255.976562 73.570312 253.910156 75.398438 C 251.761719 77.316406 250.015625 80.28125 249.359375 83.015625 C 249.199219 83.664062 249.179688 84.328125 249.15625 84.984375 C 249.105469 87.640625 250.871094 88.777344 253.519531 89.152344 C 257.097656 89.664062 260.953125 88.84375 264.363281 87.820312 Z M 254.347656 83.121094 C 254.347656 83.121094 254.714844 82.039062 254.78125 81.898438 C 255.097656 81.179688 256.175781 79.542969 257.4375 79.953125 C 258.335938 80.246094 258.960938 81.164062 259.386719 81.832031 C 259.503906 82.019531 259.851562 82.667969 259.851562 82.667969 C 259.851562 82.667969 258.878906 83.089844 258.484375 83.179688 C 258.082031 83.269531 257.375 83.367188 256.78125 83.371094 C 255.5625 83.378906 254.347656 83.121094 254.347656 83.121094 Z M 254.347656 83.121094 " fill-opacity="1" fill-rule="evenodd"/><path fill="#000000" d="M 298.183594 92.648438 C 298.160156 92.542969 299.359375 91.78125 299.464844 91.890625 C 299.8125 92.273438 299.878906 93.164062 299.960938 93.632812 C 300.257812 95.421875 300.078125 97.546875 298.089844 98.40625 C 297.421875 98.691406 296.722656 98.707031 296.035156 98.53125 C 295.652344 98.4375 295.144531 98.074219 294.761719 98.226562 C 293.609375 98.671875 293.472656 100.589844 291.882812 100.40625 C 290.125 100.203125 289.003906 97.910156 287.117188 98.582031 C 285.476562 99.171875 284.070312 100.585938 282.765625 101.640625 C 279.992188 103.875 277.28125 106.34375 274.019531 107.949219 C 272.050781 108.917969 270.027344 108.824219 267.960938 108.132812 C 267.59375 108.011719 266.425781 107.746094 266.257812 107.34375 C 266.171875 107.152344 266.796875 107.207031 266.871094 107.207031 C 267.71875 107.222656 268.566406 107.207031 269.402344 107.105469 C 271.5 106.859375 273.417969 106.183594 275.152344 105.066406 C 277.238281 103.734375 278.953125 101.980469 280.648438 100.25 C 281.929688 98.933594 283.253906 97.507812 284.949219 96.652344 C 285.898438 96.171875 287 95.882812 288.082031 96.101562 C 289.234375 96.339844 290.167969 97.058594 291.40625 96.75 C 292.972656 96.359375 293.429688 94.441406 294.878906 94.050781 C 295.886719 93.78125 296.308594 95.785156 297.21875 95.214844 C 298.183594 94.617188 297.316406 93.15625 298.183594 92.648438 Z M 298.183594 92.648438 " fill-opacity="1" fill-rule="evenodd"/><path fill="#000000" d="M 269.742188 51.203125 C 269.835938 51.230469 269.648438 51.253906 269.679688 51.164062 C 269.753906 50.988281 269.933594 50.570312 270.007812 50.394531 C 270.207031 49.875 270.453125 49.371094 270.695312 48.871094 C 271.457031 47.296875 272.421875 45.460938 274.222656 44.765625 C 275.386719 44.320312 276.675781 44.320312 277.917969 44.257812 C 280.921875 44.105469 284.175781 44.394531 287.140625 44.925781 C 288.632812 45.195312 290.75 45.675781 291.109375 47.328125 C 291.5 49.132812 290.0625 51.074219 288.886719 52.34375 C 285.898438 55.574219 281.464844 58.15625 276.953125 58.832031 C 275.460938 59.054688 273.976562 59.109375 272.484375 58.90625 C 272.0625 58.851562 271.363281 58.808594 271.042969 58.511719 C 270.832031 58.316406 271.511719 58.007812 271.617188 57.960938 C 272.378906 57.621094 273.183594 57.371094 273.957031 57.074219 C 276.582031 56.0625 279.304688 55.085938 281.6875 53.625 C 282.121094 53.359375 283.632812 52.574219 283.582031 51.890625 C 283.570312 51.699219 282.925781 51.660156 282.808594 51.636719 C 281.917969 51.488281 281.019531 51.421875 280.128906 51.332031 C 277.429688 51.058594 272.464844 51.164062 269.742188 51.203125 Z M 269.742188 51.203125 " fill-opacity="1" fill-rule="evenodd"/><path fill="#000000" d="M 298.976562 54.492188 C 298.902344 54.488281 298.746094 54.359375 298.648438 54.332031 C 298.382812 54.242188 298.109375 54.140625 297.84375 54.035156 C 296.921875 53.660156 296.085938 53.121094 296.023438 52.089844 C 295.90625 50.007812 297.824219 47.554688 299.550781 46.40625 C 300.746094 45.601562 302.015625 45.738281 303.234375 46.644531 C 304.855469 47.84375 304.929688 49.597656 304.632812 51.136719 C 304.230469 53.199219 302.621094 55.199219 301.273438 56.722656 C 295.640625 63.136719 279.132812 71.480469 277.695312 70.605469 C 278.054688 70.660156 278.933594 69.992188 279.207031 69.832031 C 280.679688 68.996094 282.183594 68.203125 283.632812 67.335938 C 287.074219 65.289062 290.292969 62.90625 293.429688 60.453125 C 295.863281 58.539062 297.167969 56.960938 298.976562 54.492188 Z M 298.976562 54.492188 L 299 54.457031 C 299 54.484375 298.988281 54.496094 298.976562 54.492188 Z M 300.765625 51.792969 C 300.765625 51.792969 300.765625 51.796875 300.765625 51.792969 C 300.746094 51.765625 300.34375 51.511719 300.320312 51.496094 C 300.140625 51.359375 300.003906 51.195312 299.910156 51.019531 C 299.558594 50.441406 299.558594 49.742188 300.355469 49.402344 C 301 49.125 301.6875 49.363281 301.804688 49.9375 C 301.890625 50.335938 301.464844 51.453125 300.765625 51.792969 Z M 300.765625 51.792969 " fill-opacity="1" fill-rule="evenodd"/><path fill="#000000" d="M 232.523438 57.757812 C 232.492188 57.746094 231.917969 58.832031 231.855469 58.9375 C 231.726562 59.183594 230.617188 60.996094 231.167969 61.082031 C 231.792969 61.183594 232.648438 60.710938 233.199219 60.496094 C 234.703125 59.902344 236.1875 59.222656 237.65625 58.550781 C 242.867188 56.175781 248.128906 53.910156 253.476562 51.816406 C 254.707031 51.335938 255.933594 50.863281 257.171875 50.398438 C 258.496094 49.898438 260.167969 48.644531 259.714844 47.007812 C 259.585938 46.558594 238.050781 55.535156 232.523438 57.757812 Z M 232.523438 57.757812 " fill-opacity="1" fill-rule="evenodd"/><path fill="#000000" d="M 205.054688 51.9375 C 204.894531 52.035156 204.9375 52.679688 204.929688 52.828125 C 204.84375 53.699219 204.78125 54.574219 204.714844 55.445312 C 204.640625 56.539062 204.3125 58.015625 204.640625 59.089844 C 204.875 59.878906 205.988281 60.601562 206.570312 61.140625 C 207.734375 62.21875 208.78125 63.4375 209.882812 64.585938 C 210.75 65.492188 211.640625 66.394531 212.476562 67.324219 C 212.617188 67.476562 213.324219 67.984375 213.304688 68.203125 C 213.28125 68.507812 212.542969 69.0625 212.339844 69.28125 C 211.417969 70.285156 210.539062 71.339844 209.734375 72.429688 C 206.898438 76.257812 205.277344 81.058594 206.652344 85.703125 C 207.164062 87.410156 208.050781 89.53125 210.074219 89.988281 C 212.984375 90.640625 215.738281 88.703125 217.6875 86.953125 C 221.511719 83.515625 226.359375 78.878906 224.328125 73.476562 C 223.597656 71.527344 221.945312 69.992188 220.300781 68.6875 C 219.53125 68.074219 218.21875 67.460938 218.554688 66.34375 C 218.96875 64.964844 220.132812 63.714844 221.011719 62.585938 C 222.757812 60.335938 224.664062 58.113281 225.976562 55.597656 C 226.601562 54.410156 226.699219 53.121094 226.699219 51.8125 C 226.699219 51.488281 226.804688 50.839844 226.644531 50.539062 C 226.636719 50.519531 225.691406 51.765625 225.628906 51.859375 C 224.960938 52.785156 224.285156 53.699219 223.605469 54.621094 C 221.839844 57.03125 219.996094 59.375 218.109375 61.699219 C 217.75 62.144531 216.894531 63.78125 216.269531 63.933594 C 216.046875 63.992188 215.316406 63.265625 215.144531 63.144531 C 214.214844 62.457031 212.328125 61.402344 211.800781 60.410156 C 211.238281 59.378906 214.289062 59.484375 214.035156 58.789062 C 213.738281 57.957031 212.382812 57.128906 211.695312 56.621094 C 209.882812 55.285156 206.824219 53.324219 205.054688 51.9375 Z M 214.363281 70.371094 C 214.375 70.320312 214.152344 70.628906 214.128906 70.664062 C 213.972656 70.886719 213.8125 71.105469 213.652344 71.328125 C 213.132812 72.0625 212.636719 72.808594 212.148438 73.566406 C 210.933594 75.488281 209.566406 77.527344 208.984375 79.726562 C 208.738281 80.667969 208.644531 81.820312 209.703125 82.335938 C 210.582031 82.765625 211.84375 82.605469 212.785156 82.503906 C 215.800781 82.183594 220.324219 80.390625 220.398438 77.015625 C 220.449219 74.730469 216.003906 71.667969 214.363281 70.371094 Z M 214.363281 70.371094 " fill-opacity="1" fill-rule="evenodd"/><path fill="#000000" d="M 208.785156 95.398438 C 208.773438 95.332031 208.453125 95.742188 208.429688 95.769531 C 208.25 96.027344 208.085938 96.296875 207.929688 96.570312 C 207.445312 97.429688 207.003906 98.308594 206.660156 99.21875 C 205.734375 101.675781 205.117188 104.570312 205.742188 107.144531 C 205.96875 108.070312 206.390625 109.488281 207.640625 109.617188 C 209.566406 109.816406 210.621094 107.75 211.023438 106.382812 C 211.128906 106.023438 211.496094 105.105469 211.234375 104.742188 C 211.191406 104.671875 211.066406 104.917969 211.054688 104.9375 C 210.890625 105.257812 210.722656 105.570312 210.535156 105.882812 C 210.160156 106.511719 209.226562 107.472656 208.074219 107.078125 C 207.03125 106.722656 206.816406 105.066406 206.875 104.164062 C 207.042969 101.539062 207.96875 98.105469 208.785156 95.398438 Z M 208.785156 95.398438 " fill-opacity="1" fill-rule="evenodd"/><path fill="#000000" d="M 202.980469 38.597656 C 202.886719 38.5625 203.117188 38.449219 203.171875 38.371094 C 203.289062 38.230469 203.394531 38.09375 203.511719 37.953125 C 203.902344 37.457031 204.292969 36.960938 204.6875 36.464844 C 205.394531 35.566406 206.105469 34.664062 206.835938 33.777344 C 207.003906 33.582031 207.375 32.902344 207.660156 32.820312 C 207.746094 32.792969 207.980469 33.078125 208.023438 33.121094 C 208.402344 33.457031 208.816406 33.761719 209.207031 34.078125 C 210.363281 35.011719 211.496094 35.960938 212.636719 36.90625 C 213.007812 37.210938 213.804688 37.597656 213.992188 38.054688 C 214.046875 38.175781 213.558594 38.59375 213.496094 38.660156 C 212.945312 39.269531 212.394531 39.878906 211.84375 40.488281 C 211.175781 41.222656 210.511719 41.957031 209.851562 42.691406 C 209.671875 42.882812 209.410156 43.347656 209.144531 43.441406 C 208.921875 43.519531 208.234375 42.761719 208.085938 42.644531 C 207.003906 41.808594 204.09375 39.390625 202.980469 38.597656 Z M 202.980469 38.597656 " fill-opacity="1" fill-rule="evenodd"/><path fill="#000000" d="M 214.023438 38.042969 C 213.929688 38.007812 214.160156 37.894531 214.214844 37.816406 C 214.332031 37.675781 214.4375 37.539062 214.550781 37.398438 C 214.945312 36.902344 215.335938 36.40625 215.726562 35.910156 C 216.4375 35.011719 217.148438 34.109375 217.878906 33.226562 C 218.046875 33.027344 218.417969 32.351562 218.703125 32.265625 C 218.789062 32.238281 219.019531 32.523438 219.0625 32.566406 C 219.445312 32.902344 219.859375 33.207031 220.25 33.523438 C 221.402344 34.457031 222.535156 35.40625 223.679688 36.351562 C 224.050781 36.65625 224.84375 37.042969 225.035156 37.5 C 225.089844 37.621094 224.601562 38.039062 224.539062 38.105469 C 223.988281 38.714844 223.4375 39.328125 222.886719 39.9375 C 222.21875 40.667969 221.550781 41.402344 220.894531 42.136719 C 220.714844 42.328125 220.449219 42.792969 220.1875 42.886719 C 219.964844 42.964844 219.273438 42.207031 219.125 42.089844 C 218.046875 41.253906 215.136719 38.835938 214.023438 38.042969 Z M 214.023438 38.042969 " fill-opacity="1" fill-rule="evenodd"/><path fill="#000000" d="M 184.796875 16.300781 C 184.832031 16.632812 184.808594 17.152344 184.671875 17.542969 C 184.121094 19.082031 182.746094 21.511719 182.933594 23.152344 C 183.019531 23.902344 183.960938 24.308594 184.164062 25.054688 C 184.777344 27.292969 185.019531 29.765625 185.414062 32.046875 C 187.625 44.925781 189.710938 57.808594 191.703125 70.71875 C 192.667969 76.890625 193.800781 83.042969 194.328125 89.265625 C 194.496094 91.300781 194.65625 93.339844 194.730469 95.378906 C 194.753906 96.054688 194.742188 96.726562 194.730469 97.402344 C 194.730469 97.757812 194.402344 98.660156 194.710938 98.464844 C 195.28125 98.113281 195.535156 95.835938 195.695312 95.277344 C 196.667969 91.703125 197.316406 88.125 197.347656 84.421875 C 197.484375 69.839844 193.703125 55.421875 191.3125 41.101562 C 190.84375 38.261719 190.25 35.429688 189.882812 32.578125 C 189.753906 31.609375 189.234375 30.148438 189.480469 29.175781 C 189.753906 28.128906 193.523438 31.730469 192.625 29.417969 C 192.539062 29.1875 192.433594 28.960938 192.335938 28.734375 C 192.167969 28.355469 192.007812 27.972656 191.839844 27.597656 C 190.421875 24.507812 188.609375 21.652344 186.808594 18.753906 C 186.480469 18.234375 185.414062 15.484375 184.796875 16.300781 Z M 184.796875 16.300781 " fill-opacity="1" fill-rule="evenodd"/><path fill="#000000" d="M 139.839844 52 C 139.753906 52.042969 139.933594 51.640625 139.945312 51.613281 C 140.050781 51.351562 140.175781 51.097656 140.316406 50.847656 C 140.695312 50.179688 141.203125 49.441406 141.859375 49 C 142.960938 48.265625 144.242188 49.664062 144.816406 50.425781 C 147.527344 54.066406 148.753906 58.714844 148.234375 63.136719 C 148.121094 64.085938 147.863281 66.851562 146.730469 67.394531 C 146.519531 67.488281 146.46875 65.804688 146.457031 65.675781 C 146.394531 64.566406 146.308594 63.449219 146.085938 62.355469 C 145.410156 59.089844 142.125 54.535156 139.839844 52 Z M 139.839844 52 " fill-opacity="1" fill-rule="evenodd"/><path fill="#000000" d="M 147.125 75.863281 C 147.125 75.863281 147.410156 75.507812 147.546875 75.328125 C 147.832031 74.953125 148.109375 74.570312 148.375 74.183594 C 148.996094 73.292969 149.644531 72.410156 150.246094 71.511719 C 150.460938 71.214844 151.082031 70.300781 151.082031 70.300781 C 151.082031 70.300781 152.621094 71.269531 152.863281 71.445312 C 154.1875 72.410156 155.5625 73.292969 157.023438 74.066406 C 157.382812 74.261719 159.140625 75.226562 159.140625 75.226562 C 159.140625 75.226562 157.511719 77.265625 157.109375 77.832031 C 156.546875 78.625 155.996094 79.4375 155.382812 80.199219 C 155.257812 80.367188 154.671875 80.996094 154.671875 80.996094 C 154.671875 80.996094 153.53125 80.203125 153.339844 80.0625 C 151.984375 79.078125 147.125 75.863281 147.125 75.863281 Z M 147.125 75.863281 " fill-opacity="1" fill-rule="evenodd"/><path fill="#000000" d="M 83.113281 46.757812 C 83.019531 46.722656 83.253906 46.613281 83.304688 46.53125 C 83.421875 46.390625 83.527344 46.253906 83.644531 46.113281 C 84.035156 45.617188 84.425781 45.121094 84.820312 44.625 C 85.527344 43.726562 86.238281 42.824219 86.96875 41.941406 C 87.136719 41.742188 87.507812 41.066406 87.792969 40.980469 C 87.878906 40.957031 88.113281 41.238281 88.15625 41.28125 C 88.535156 41.617188 88.949219 41.921875 89.339844 42.242188 C 90.496094 43.171875 91.628906 44.121094 92.773438 45.066406 C 93.140625 45.371094 93.9375 45.757812 94.128906 46.21875 C 94.179688 46.339844 93.691406 46.753906 93.628906 46.824219 C 93.078125 47.429688 92.527344 48.042969 91.976562 48.652344 C 91.308594 49.382812 90.644531 50.117188 89.988281 50.851562 C 89.808594 51.042969 89.542969 51.511719 89.277344 51.601562 C 89.054688 51.679688 88.367188 50.921875 88.21875 50.808594 C 87.136719 49.972656 84.226562 47.554688 83.113281 46.757812 Z M 83.113281 46.757812 " fill-opacity="1" fill-rule="evenodd"/><path fill="#000000" d="M 58.925781 57.386719 C 58.832031 57.351562 59.0625 57.242188 59.117188 57.160156 C 59.234375 57.019531 59.339844 56.882812 59.457031 56.742188 C 59.847656 56.246094 60.238281 55.75 60.632812 55.253906 C 61.339844 54.355469 62.050781 53.453125 62.78125 52.570312 C 62.949219 52.371094 63.320312 51.695312 63.605469 51.609375 C 63.691406 51.585938 63.925781 51.867188 63.964844 51.910156 C 64.347656 52.246094 64.761719 52.550781 65.152344 52.871094 C 66.308594 53.800781 67.441406 54.75 68.582031 55.695312 C 68.953125 56 69.75 56.386719 69.9375 56.847656 C 69.992188 56.96875 69.503906 57.382812 69.441406 57.453125 C 68.890625 58.058594 68.339844 58.671875 67.789062 59.28125 C 67.121094 60.011719 66.453125 60.746094 65.796875 61.480469 C 65.617188 61.671875 65.355469 62.140625 65.089844 62.230469 C 64.867188 62.308594 64.179688 61.550781 64.03125 61.4375 C 62.949219 60.601562 60.039062 58.183594 58.925781 57.386719 Z M 58.925781 57.386719 " fill-opacity="1" fill-rule="evenodd"/><path fill="#000000" d="M 93.632812 46.164062 C 93.539062 46.128906 93.773438 46.015625 93.824219 45.9375 C 93.941406 45.796875 94.046875 45.660156 94.164062 45.519531 C 94.554688 45.023438 94.949219 44.527344 95.339844 44.03125 C 96.046875 43.132812 96.757812 42.230469 97.488281 41.34375 C 97.660156 41.148438 98.027344 40.472656 98.316406 40.386719 C 98.398438 40.359375 98.632812 40.644531 98.675781 40.6875 C 99.054688 41.023438 99.46875 41.328125 99.859375 41.644531 C 101.015625 42.578125 102.148438 43.527344 103.292969 44.472656 C 103.660156 44.777344 104.457031 45.164062 104.648438 45.621094 C 104.699219 45.742188 104.210938 46.160156 104.148438 46.226562 C 103.597656 46.835938 103.046875 47.449219 102.496094 48.058594 C 101.832031 48.789062 101.164062 49.523438 100.507812 50.257812 C 100.328125 50.449219 100.0625 50.914062 99.796875 51.007812 C 99.574219 51.085938 98.886719 50.328125 98.738281 50.210938 C 97.660156 49.375 94.746094 46.957031 93.632812 46.164062 Z M 93.632812 46.164062 " fill-opacity="1" fill-rule="evenodd"/><path fill="#000000" d="M 69.445312 56.792969 C 69.351562 56.757812 69.585938 56.644531 69.636719 56.566406 C 69.753906 56.425781 69.859375 56.289062 69.976562 56.148438 C 70.367188 55.652344 70.757812 55.15625 71.152344 54.660156 C 71.859375 53.761719 72.570312 52.859375 73.300781 51.976562 C 73.46875 51.777344 73.839844 51.101562 74.125 51.015625 C 74.210938 50.988281 74.445312 51.273438 74.488281 51.316406 C 74.867188 51.652344 75.28125 51.957031 75.671875 52.273438 C 76.828125 53.207031 77.960938 54.15625 79.101562 55.101562 C 79.472656 55.40625 80.269531 55.792969 80.457031 56.25 C 80.511719 56.371094 80.023438 56.789062 79.960938 56.855469 C 79.410156 57.464844 78.859375 58.078125 78.308594 58.6875 C 77.640625 59.417969 76.976562 60.152344 76.320312 60.886719 C 76.136719 61.078125 75.875 61.542969 75.609375 61.636719 C 75.386719 61.714844 74.699219 60.957031 74.550781 60.839844 C 73.46875 60.003906 70.558594 57.585938 69.445312 56.792969 Z M 69.445312 56.792969 " fill-opacity="1" fill-rule="evenodd"/><path fill="#000000" d="M 120.429688 54.203125 C 120.410156 54.070312 119.792969 54.875 119.75 54.929688 C 119.414062 55.4375 119.09375 55.964844 118.796875 56.503906 C 117.878906 58.1875 117.042969 59.914062 116.382812 61.707031 C 114.625 66.523438 113.453125 72.210938 114.636719 77.261719 C 115.070312 79.082031 115.875 81.867188 118.25 82.121094 C 121.910156 82.511719 123.921875 78.453125 124.6875 75.765625 C 124.886719 75.0625 125.585938 73.261719 125.089844 72.550781 C 125.003906 72.414062 124.769531 72.894531 124.75 72.933594 C 124.433594 73.558594 124.113281 74.175781 123.753906 74.785156 C 123.042969 76.019531 121.265625 77.90625 119.074219 77.132812 C 117.09375 76.433594 116.679688 73.183594 116.796875 71.414062 C 117.113281 66.261719 118.871094 59.515625 120.429688 54.203125 Z M 120.429688 54.203125 " fill-opacity="1" fill-rule="evenodd"/><path fill="#000000" d="M 186.277344 112.675781 C 186.269531 112.605469 185.945312 113.015625 185.921875 113.046875 C 185.746094 113.304688 185.578125 113.574219 185.421875 113.847656 C 184.9375 114.707031 184.496094 115.582031 184.152344 116.496094 C 183.230469 118.953125 182.609375 121.847656 183.234375 124.417969 C 183.460938 125.347656 183.886719 126.765625 185.132812 126.894531 C 187.058594 127.09375 188.117188 125.027344 188.515625 123.660156 C 188.621094 123.300781 188.988281 122.382812 188.726562 122.019531 C 188.683594 121.949219 188.5625 122.195312 188.550781 122.214844 C 188.382812 122.535156 188.214844 122.847656 188.027344 123.160156 C 187.652344 123.789062 186.71875 124.75 185.566406 124.355469 C 184.527344 124 184.308594 122.34375 184.371094 121.441406 C 184.535156 118.816406 185.460938 115.382812 186.277344 112.675781 Z M 186.277344 112.675781 " fill-opacity="1" fill-rule="evenodd"/><path fill="#000000" d="M 119.476562 111.710938 C 119.582031 111.746094 119.414062 111.65625 119.421875 111.554688 C 119.445312 111.367188 119.488281 111.171875 119.5625 110.992188 C 119.785156 110.425781 120.175781 109.957031 120.703125 109.621094 C 122.039062 108.78125 123.722656 108.613281 125.289062 108.5625 C 125.902344 108.542969 126.6875 108.484375 127.269531 108.746094 C 128.296875 109.226562 128.464844 111.148438 127.746094 111.769531 C 126.285156 113.035156 124.539062 114.253906 123.257812 115.828125 C 122.84375 116.34375 121.835938 117.78125 122.070312 118.5 C 122.28125 119.167969 123.796875 118.917969 124.367188 118.875 C 126.199219 118.730469 128.042969 118.359375 129.757812 117.789062 C 130.257812 117.617188 131.621094 116.910156 131.695312 117.066406 C 131.832031 117.304688 131.570312 117.691406 131.441406 117.886719 C 131.007812 118.621094 130.394531 119.285156 129.652344 119.765625 C 127.417969 121.21875 123.554688 121.796875 121.148438 120.386719 C 120.832031 120.203125 120.546875 119.988281 120.324219 119.71875 C 118.554688 117.617188 120.546875 115.140625 122.125 113.582031 C 122.601562 113.101562 123.140625 112.683594 123.636719 112.21875 C 123.742188 112.121094 124.070312 111.875 124.007812 111.703125 C 123.921875 111.445312 123.035156 111.570312 122.84375 111.582031 C 122.019531 111.617188 119.675781 112.355469 119.59375 112.335938 C 119.402344 112.292969 119.476562 111.832031 119.476562 111.710938 Z M 119.476562 111.710938 " fill-opacity="1" fill-rule="evenodd"/><path fill="#000000" d="M 89.859375 90.90625 C 89.859375 90.90625 89.859375 90.910156 89.859375 90.914062 L 89.859375 90.90625 C 89.890625 90.824219 90.949219 91.007812 91.089844 91.027344 C 91.945312 91.144531 92.8125 91.269531 93.671875 91.382812 C 96.042969 91.695312 98.414062 91.972656 100.796875 92.226562 C 104.269531 92.597656 107.765625 92.921875 111.25 93.203125 C 112.605469 93.3125 113.96875 93.390625 115.316406 93.5625 C 115.398438 93.574219 116.363281 93.660156 116.300781 93.824219 C 116.121094 94.257812 114.945312 94.6875 114.550781 94.90625 C 112.6875 95.960938 110.699219 96.855469 108.730469 97.734375 C 105.414062 99.210938 101.582031 100.945312 97.886719 101.285156 C 92.625 101.769531 86.621094 98.808594 83.453125 94.992188 C 80.035156 90.871094 79.046875 85.714844 78.136719 80.683594 C 77.882812 79.316406 77.035156 76.796875 77.671875 75.433594 C 78.019531 74.683594 78.878906 74.066406 79.449219 73.476562 C 80.5 72.386719 81.460938 71.25 82.351562 70.042969 C 82.691406 69.589844 83.613281 68.664062 83.632812 68.070312 C 83.632812 68.011719 83.039062 68.425781 83 68.457031 C 82.5625 68.78125 82.140625 69.109375 81.71875 69.441406 C 80.582031 70.328125 79.449219 71.210938 78.296875 72.066406 C 78.011719 72.277344 77.355469 72.941406 76.941406 72.898438 C 76.65625 72.867188 76.65625 71.796875 76.632812 71.609375 C 76.476562 70.078125 76.265625 68.644531 75.714844 67.179688 C 75.605469 66.875 74.664062 64.773438 74.019531 65.15625 C 73.53125 65.453125 73.617188 66.78125 73.585938 67.230469 C 73.542969 67.800781 73.480469 68.367188 73.4375 68.933594 C 73.371094 69.828125 73.296875 70.722656 73.257812 71.613281 C 73.191406 72.914062 73.109375 74.234375 73.183594 75.535156 C 73.078125 75.476562 72.175781 76.441406 72.058594 76.546875 C 70.746094 77.746094 69.445312 78.953125 68.109375 80.140625 C 64.59375 83.269531 60.507812 87.480469 60.558594 92.378906 C 60.59375 94.628906 62.519531 96.011719 64.691406 96.472656 C 67.570312 97.082031 70.480469 96.066406 72.652344 94.265625 C 74.464844 92.765625 75.53125 90.769531 76.773438 88.867188 C 76.835938 88.941406 76.792969 89.355469 76.804688 89.445312 C 76.855469 89.953125 76.941406 90.460938 77.046875 90.964844 C 77.363281 92.539062 77.882812 94.105469 78.53125 95.585938 C 81.144531 101.503906 86.449219 105.859375 93.164062 106.957031 C 96.171875 107.449219 99.949219 106.585938 102.640625 105.613281 C 109.164062 103.265625 115.039062 99.6875 121.691406 97.5625 C 124.875 96.546875 128.253906 95.785156 131.621094 95.621094 C 133.675781 95.519531 136.238281 96.03125 138.238281 95.519531 C 140.019531 95.0625 141.382812 92.128906 142.296875 90.808594 C 142.613281 90.339844 143.269531 89.660156 143.324219 89.070312 C 143.363281 88.621094 140.761719 88.726562 140.527344 88.726562 C 137.5625 88.703125 134.597656 88.859375 131.632812 88.882812 C 125.128906 88.929688 118.734375 88.691406 112.265625 87.996094 C 110.742188 87.832031 109.214844 87.65625 107.691406 87.507812 C 107.066406 87.445312 106.0625 87.542969 105.488281 87.265625 C 105.253906 87.160156 106.390625 86.164062 106.472656 86.070312 C 107.195312 85.324219 107.882812 84.546875 108.441406 83.6875 C 110.019531 81.3125 109.902344 78.9375 109.789062 76.253906 C 109.734375 75.121094 108.8125 74.199219 108.082031 73.242188 C 105.585938 69.984375 101.316406 66.347656 98.488281 63.367188 C 98.488281 63.371094 98.859375 63.511719 98.902344 63.523438 C 99.1875 63.621094 99.453125 63.730469 99.726562 63.839844 C 100.277344 64.054688 100.828125 64.269531 101.390625 64.464844 C 101.453125 64.488281 102.3125 64.8125 102.300781 64.71875 C 102.226562 64.121094 101.0625 63.238281 100.679688 62.820312 C 99.25 61.265625 97.832031 59.683594 96.328125 58.199219 C 95.875 57.753906 95.40625 57.324219 94.941406 56.902344 C 94.824219 56.796875 94.582031 56.449219 94.390625 56.589844 C 93.96875 56.917969 93.863281 57.722656 93.777344 58.183594 C 93.511719 59.484375 92.558594 61.679688 93.417969 62.917969 C 93.734375 63.378906 94.539062 63.441406 94.816406 63.839844 C 95.367188 64.675781 95.621094 65.742188 96.179688 66.605469 C 97.1875 68.175781 98.53125 69.589844 99.792969 70.980469 C 101.074219 72.402344 102.386719 73.820312 103.792969 75.144531 C 104.757812 76.058594 105.847656 76.875 106.652344 77.9375 C 106.570312 77.9375 106.726562 78.078125 106.757812 78.148438 C 106.824219 78.289062 106.863281 78.433594 106.90625 78.582031 C 107.023438 79.058594 107.109375 79.597656 106.980469 80.078125 C 106.644531 81.253906 105.171875 81.90625 104.089844 82.328125 C 100.957031 83.550781 97.472656 83.996094 94.167969 84.664062 C 93.363281 84.828125 92.558594 84.953125 91.734375 84.996094 C 91.382812 85.019531 90.867188 84.9375 90.613281 85.226562 C 90.21875 85.671875 90.21875 86.441406 90.15625 86.984375 C 89.988281 88.285156 89.871094 89.59375 89.859375 90.90625 Z M 74.464844 79.488281 C 74.472656 79.601562 73.289062 80.378906 73.214844 80.453125 C 72.683594 80.941406 72.144531 81.421875 71.605469 81.890625 C 69.742188 83.484375 67.65625 84.863281 66.015625 86.683594 C 65.464844 87.296875 64.550781 88.320312 64.773438 89.203125 C 64.945312 89.910156 65.8125 90.058594 66.46875 90.082031 C 68.027344 90.132812 69.636719 89.496094 71 88.871094 C 72.25 88.300781 74.75 86.46875 74.75 86.46875 C 74.75 86.46875 74.792969 81.09375 74.464844 79.488281 Z M 74.464844 79.488281 " fill-opacity="1" fill-rule="evenodd"/><path fill="#000000" d="M 163.683594 111.453125 C 163.789062 111.417969 163.960938 111.660156 164.109375 111.714844 C 164.425781 111.832031 164.753906 111.941406 165.082031 112.039062 C 166.152344 112.351562 167.242188 112.628906 168.375 112.605469 C 171.320312 112.542969 175.554688 111.308594 177.195312 108.792969 C 177.9375 107.65625 178.097656 106.386719 178.171875 105.082031 C 178.316406 105.097656 178.128906 104.785156 178.105469 104.632812 C 178.0625 104.242188 178.023438 103.855469 177.980469 103.464844 C 177.832031 102.347656 177.683594 101.234375 177.523438 100.121094 C 177.015625 96.675781 176.527344 93.226562 175.988281 89.789062 C 173.808594 75.785156 169.953125 61.917969 169.042969 47.761719 C 168.9375 46.046875 168.746094 44.585938 168.503906 42.894531 C 168.460938 42.59375 168.035156 42.230469 168.035156 41.804688 C 168.015625 40.839844 168.957031 39.429688 169.402344 38.621094 C 169.636719 38.207031 170.695312 36.0625 171.296875 36.09375 C 171.5625 36.101562 171.796875 36.617188 171.902344 36.789062 C 172.378906 37.585938 172.695312 38.464844 173.078125 39.304688 C 174.390625 42.152344 175.945312 44.882812 177.4375 47.648438 C 177.746094 48.222656 179.132812 50 178.890625 50.691406 C 178.742188 51.121094 177.777344 50.496094 177.621094 50.398438 C 176.644531 49.851562 174.886719 48.511719 173.914062 47.964844 C 173.734375 47.855469 174.390625 52 174.632812 53.003906 C 175.648438 57.136719 176.675781 61.253906 177.609375 65.40625 C 179.683594 74.703125 181.644531 83.898438 182.605469 93.367188 C 183.222656 99.449219 183.484375 105.710938 180.4375 111.3125 C 179.746094 112.582031 178.105469 113.960938 176.941406 114.84375 C 173.171875 117.695312 167.898438 119.328125 163.113281 118.175781 C 161.324219 117.746094 159.152344 116.839844 158.136719 115.292969 C 157.5625 115.410156 156.84375 116.089844 156.355469 116.378906 C 154.925781 117.21875 153.476562 118.058594 151.941406 118.71875 C 145.820312 121.347656 138.640625 120.933594 134.671875 115.304688 C 134.96875 115.34375 134.320312 114.839844 134.183594 114.589844 C 133.878906 114.0625 133.613281 113.523438 133.367188 112.976562 C 132.691406 111.4375 132.046875 109.863281 131.515625 108.273438 C 129.84375 103.289062 129.292969 97.878906 128.53125 92.722656 C 126.730469 80.464844 126.527344 67.984375 123.988281 55.824219 C 123.375 52.882812 122.972656 49.804688 122.3125 46.957031 C 122.09375 45.960938 121.53125 44.382812 120.992188 44.003906 C 120.3125 43.519531 118.726562 45.167969 118.066406 45.945312 C 118.078125 45.96875 118.089844 45.976562 118.066406 45.949219 L 118.066406 45.945312 C 118.046875 45.886719 117.984375 45.730469 117.960938 45.660156 C 117.921875 45.445312 117.910156 45.21875 117.898438 45 C 117.878906 44.320312 117.910156 43.632812 118.003906 42.957031 C 118.269531 41.027344 119.117188 38.730469 120.597656 37.328125 C 122.980469 35.097656 125.003906 39.457031 125.492188 41.1875 C 125.871094 42.574219 126.445312 44.667969 126.75 46.027344 C 127.695312 50.269531 128.339844 54.546875 128.878906 58.855469 C 130.53125 72.011719 131.71875 85.144531 134.332031 98.164062 C 134.882812 100.910156 135.390625 103.859375 136.746094 106.375 C 138.863281 110.320312 143.839844 113.699219 148.691406 113.308594 C 150.289062 113.179688 151.644531 112.515625 153.097656 111.917969 C 153.0625 111.953125 153.539062 111.683594 153.644531 111.613281 C 153.625 111.621094 153.5 111.3125 153.5 111.296875 C 153.316406 110.914062 153.179688 110.519531 153.03125 110.128906 C 152.429688 108.511719 151.707031 106.734375 152.003906 104.992188 C 152.578125 101.65625 154.84375 98.296875 157.035156 95.707031 C 158.0625 94.5 159.332031 93.203125 160.792969 92.460938 C 163.492188 91.09375 165.71875 94.253906 166.851562 96.164062 C 167.117188 96.605469 167.335938 97.066406 167.527344 97.535156 C 168.140625 99.007812 168.671875 100.734375 168.609375 102.335938 C 168.480469 105.640625 166.394531 109.375 163.683594 111.453125 C 163.675781 111.457031 163.652344 111.46875 163.640625 111.484375 C 163.664062 111.472656 163.675781 111.464844 163.683594 111.453125 Z M 161.046875 97.859375 C 160.761719 98.121094 160.234375 98.378906 159.894531 98.648438 C 158.601562 99.714844 157.277344 100.851562 156.261719 102.171875 C 155.953125 102.570312 155.648438 102.984375 155.550781 103.476562 C 155.265625 105.019531 156.769531 106.675781 157.679688 107.796875 C 158.167969 108.394531 158.917969 109.488281 159.832031 109.519531 C 160.339844 109.539062 160.824219 109.109375 161.164062 108.796875 C 162.03125 108.019531 162.742188 107.101562 163.429688 106.1875 C 164.152344 105.234375 165.007812 104.183594 164.734375 102.953125 C 164.425781 101.601562 162.382812 98.574219 161.046875 97.859375 Z M 161.046875 97.859375 " fill-opacity="1" fill-rule="evenodd"/><path fill="#000000" d="M 233.261719 82.972656 C 233.25 82.957031 233.203125 82.863281 233.148438 82.917969 C 233.09375 82.96875 233.027344 83.167969 233.019531 83.203125 C 232.96875 83.421875 232.914062 83.640625 232.859375 83.859375 C 232.691406 84.539062 232.507812 85.210938 232.320312 85.886719 C 232.019531 86.949219 231.695312 88.003906 231.40625 89.066406 C 231.324219 89.359375 231.25 89.652344 231.183594 89.949219 C 231.15625 90.066406 231.097656 90.226562 231.152344 90.34375 C 231.246094 90.542969 231.488281 90.71875 231.648438 90.867188 C 232.023438 91.214844 232.417969 91.550781 232.796875 91.898438 C 232.816406 91.875 232.816406 91.953125 232.824219 91.980469 C 232.839844 92.03125 232.859375 92.082031 232.875 92.128906 C 232.925781 92.273438 232.972656 92.414062 233.023438 92.554688 C 233.167969 92.976562 233.320312 93.398438 233.464844 93.820312 C 233.898438 95.089844 234.390625 96.339844 234.914062 97.578125 C 236.503906 101.316406 238.597656 104.898438 240.855469 108.332031 C 240.777344 108.203125 240.65625 108.566406 240.554688 108.683594 C 240.355469 108.90625 240.140625 109.117188 239.925781 109.324219 C 239.28125 109.941406 238.65625 110.574219 237.972656 111.160156 C 235.917969 112.914062 233.839844 114.632812 231.640625 116.242188 C 227.554688 119.230469 223.011719 121.757812 218.214844 123.683594 C 214.957031 124.992188 211.515625 126.046875 207.957031 126.355469 C 207.925781 126.328125 207.628906 126.386719 207.582031 126.386719 C 207.222656 126.40625 206.867188 126.425781 206.511719 126.433594 C 205.191406 126.460938 203.871094 126.367188 202.570312 126.136719 C 198.667969 125.445312 195.453125 123.328125 193.394531 120.226562 C 193.207031 119.945312 193.039062 119.59375 192.910156 119.277344 C 192.503906 118.300781 192.191406 117.292969 191.984375 116.265625 C 191.105469 111.820312 191.910156 107.0625 193.160156 102.742188 C 193.789062 100.566406 194.648438 98.460938 195.382812 96.3125 C 195.558594 95.800781 195.804688 95.230469 195.800781 94.6875 C 195.792969 94.171875 195.269531 94.398438 195.046875 94.648438 C 195.027344 94.632812 194.921875 94.820312 194.914062 94.832031 C 194.777344 95.050781 194.652344 95.273438 194.53125 95.5 C 194.25 96.023438 193.96875 96.546875 193.699219 97.078125 C 192.300781 99.824219 191.132812 102.671875 190.1875 105.574219 C 187.613281 113.5 186.816406 123.828125 193.710938 130.195312 C 193.707031 130.203125 194.152344 130.476562 194.171875 130.488281 C 194.753906 130.835938 195.308594 131.210938 195.898438 131.546875 C 198.3125 132.914062 201.105469 133.621094 203.925781 133.855469 C 212.230469 134.539062 220.441406 130.617188 226.945312 126.242188 C 226.980469 126.265625 227.226562 126.066406 227.273438 126.03125 C 227.605469 125.796875 227.9375 125.558594 228.273438 125.328125 C 229.828125 124.265625 231.382812 123.195312 232.878906 122.066406 C 236.289062 119.5 240.011719 116.335938 241.875 112.59375 C 243.109375 110.117188 243.492188 107.105469 243.300781 104.410156 C 243.3125 104.40625 243.304688 104.296875 243.304688 104.28125 C 243.304688 104.105469 243.289062 103.933594 243.273438 103.761719 C 243.214844 103.035156 243.085938 102.324219 242.878906 101.621094 C 242.03125 98.714844 240.125 96.195312 238.714844 93.511719 C 238.40625 92.925781 238.105469 92.339844 237.824219 91.742188 C 237.789062 91.664062 237.519531 91.222656 237.617188 91.136719 C 237.734375 91.035156 238.179688 91.316406 238.269531 91.363281 C 238.800781 91.644531 239.40625 92.195312 240.046875 92.21875 C 240.898438 92.253906 240.496094 91.335938 240.179688 90.996094 C 240.164062 91.003906 239.882812 90.601562 239.867188 90.582031 C 239.496094 90.078125 239.097656 89.582031 238.707031 89.085938 C 237.078125 87.035156 234.203125 83.988281 233.261719 82.972656 Z M 233.261719 82.972656 " fill-opacity="1" fill-rule="evenodd"/></svg>