<svg xmlns="http://www.w3.org/2000/svg" xmlns:xlink="http://www.w3.org/1999/xlink" width="500" zoomAndPan="magnify" viewBox="0 0 375 149.999998" height="200" preserveAspectRatio="xMidYMid meet" version="1.0"><path fill="#000000" d="M 306.40625 19.347656 C 307.132812 19.0625 308.617188 19.570312 309.316406 19.71875 C 312.351562 20.367188 315.285156 21.535156 318.089844 22.898438 C 328.535156 27.957031 336.101562 37.457031 340.78125 48.300781 C 341.953125 51.007812 342.917969 53.859375 343.519531 56.769531 C 343.679688 57.550781 344.160156 58.980469 343.828125 59.792969 C 343.53125 60.488281 342.769531 61.03125 342.253906 61.53125 C 341.148438 62.609375 340.125 63.554688 338.859375 64.363281 C 337.226562 62.785156 334.9375 61.660156 333.085938 60.339844 C 332.523438 55.640625 330.601562 50.945312 328.625 46.75 C 325.253906 39.625 320.792969 33.089844 315.378906 27.527344 C 312.917969 25.011719 309.433594 21.085938 306.40625 19.347656 Z M 306.40625 19.347656 " fill-opacity="1" fill-rule="evenodd"/><path fill="#000000" d="M 306.40625 119.183594 C 307.132812 119.472656 308.617188 118.964844 309.316406 118.816406 C 312.351562 118.167969 315.285156 117 318.089844 115.636719 C 328.535156 110.574219 336.101562 101.078125 340.78125 90.230469 C 341.953125 87.527344 342.917969 84.671875 343.519531 81.765625 C 343.679688 80.984375 344.160156 79.550781 343.828125 78.742188 C 343.53125 78.046875 342.769531 77.503906 342.253906 77.003906 C 341.148438 75.925781 340.125 74.980469 338.859375 74.167969 C 337.226562 75.75 334.9375 76.875 333.085938 78.195312 C 332.523438 82.894531 330.601562 87.589844 328.625 91.78125 C 325.253906 98.910156 320.792969 105.445312 315.378906 111.007812 C 312.917969 113.523438 309.433594 117.445312 306.40625 119.183594 Z M 306.40625 119.183594 " fill-opacity="1" fill-rule="evenodd"/><path fill="#000000" d="M 352.121094 63.015625 C 351.832031 63.175781 351.566406 63.324219 351.5 63.375 C 349.84375 64.734375 348.210938 66.007812 346.359375 67.082031 C 345.726562 67.453125 345.070312 67.757812 344.425781 68.101562 C 344.324219 68.15625 344.035156 68.296875 343.886719 68.457031 C 343.679688 68.675781 343.621094 68.933594 343.679688 69.179688 C 343.738281 69.433594 343.910156 69.644531 344.207031 69.742188 C 344.4375 69.816406 344.804688 69.800781 344.921875 69.800781 C 345.105469 69.804688 345.667969 70.027344 346.40625 70.335938 C 348.347656 71.136719 351.394531 72.589844 352.796875 73.414062 C 352.960938 73.511719 353.441406 73.855469 353.855469 74.160156 C 353.601562 74.332031 353.339844 74.496094 353.199219 74.554688 C 351.808594 75.117188 350.164062 75.6875 349.269531 77.023438 C 348.933594 77.523438 348.832031 78.101562 348.832031 78.710938 C 348.84375 79.433594 349.039062 80.207031 349.0625 80.863281 C 349.117188 82.632812 348.820312 84.171875 347.832031 85.640625 C 347.058594 86.796875 346.105469 87.886719 344.921875 88.585938 C 344.726562 88.699219 343.070312 89.546875 343.070312 89.546875 C 342.839844 89.667969 342.714844 89.933594 342.757812 90.203125 C 342.804688 90.46875 343.023438 90.667969 343.277344 90.691406 C 343.277344 90.691406 345.816406 90.875 346.578125 90.773438 C 350.488281 90.242188 352.867188 87.625 354.582031 84.121094 C 354.832031 83.613281 355.019531 82.972656 355.214844 82.347656 C 355.386719 81.828125 355.558594 81.316406 355.847656 80.957031 C 356.121094 80.617188 356.523438 80.386719 356.9375 80.164062 C 357.457031 79.886719 357.984375 79.632812 358.398438 79.300781 C 359.675781 78.300781 360.574219 77.035156 361.402344 75.617188 C 361.722656 75.0625 362.019531 74.496094 362.308594 73.925781 C 362.457031 73.652344 363.332031 71.953125 363.332031 71.953125 C 363.480469 71.660156 363.378906 71.296875 363.101562 71.136719 C 363.101562 71.136719 362.21875 70.632812 362.054688 70.546875 C 361.480469 70.25 359.894531 69.496094 358.710938 68.9375 C 358.699219 68.9375 363.261719 67.464844 363.261719 67.464844 C 363.550781 67.371094 363.722656 67.058594 363.65625 66.75 C 363.65625 66.75 363.183594 64.65625 362.21875 62.679688 C 361.539062 61.285156 360.605469 59.964844 359.457031 59.371094 C 359.03125 59.152344 358.457031 58.984375 357.914062 58.800781 C 357.480469 58.65625 357.066406 58.511719 356.8125 58.265625 C 356.71875 58.179688 356.707031 58.023438 356.683594 57.871094 C 356.628906 57.570312 356.59375 57.257812 356.535156 57.027344 C 356.25 55.917969 355.800781 54.804688 355.238281 53.824219 C 352.890625 49.824219 347.003906 46.867188 342.792969 47.117188 C 342.515625 47.132812 342.289062 47.351562 342.253906 47.640625 C 342.21875 47.925781 342.378906 48.199219 342.644531 48.292969 C 344 48.769531 345.128906 50.144531 346.09375 51.78125 C 347.636719 54.40625 348.703125 57.71875 349.40625 59.628906 C 349.890625 60.941406 350.359375 61.773438 351.488281 62.59375 C 351.695312 62.746094 351.902344 62.886719 352.121094 63.015625 Z M 345.542969 89.601562 C 346.851562 88.816406 347.921875 87.613281 348.773438 86.332031 C 349.910156 84.636719 350.28125 82.863281 350.210938 80.820312 C 350.1875 80.265625 350.050781 79.632812 350.003906 79.015625 C 349.957031 78.550781 349.957031 78.089844 350.210938 77.71875 C 350.980469 76.574219 352.429688 76.160156 353.613281 75.679688 C 354.003906 75.519531 355.191406 74.664062 355.191406 74.664062 C 355.351562 74.550781 355.433594 74.367188 355.433594 74.171875 C 355.441406 73.976562 355.351562 73.792969 355.203125 73.679688 C 355.203125 73.679688 353.683594 72.550781 353.363281 72.363281 C 351.71875 71.394531 347.886719 69.589844 346.046875 68.902344 C 345.921875 68.859375 345.816406 68.820312 345.703125 68.785156 C 346.117188 68.578125 346.519531 68.367188 346.921875 68.136719 C 348.832031 67.03125 350.5 65.726562 352.210938 64.324219 C 352.351562 64.210938 353.441406 63.699219 353.695312 63.523438 C 353.867188 63.394531 353.925781 63.25 353.949219 63.183594 C 354.003906 63.027344 354.039062 62.746094 353.765625 62.503906 C 353.671875 62.421875 353.15625 62.203125 353.097656 62.179688 C 352.765625 62.027344 352.441406 61.824219 352.144531 61.605469 C 351.234375 60.941406 350.867188 60.257812 350.476562 59.195312 C 349.761719 57.238281 348.660156 53.839844 347.070312 51.152344 C 346.472656 50.117188 345.785156 49.191406 345.035156 48.46875 L 345.035156 48.464844 C 348.53125 49.085938 352.488281 51.445312 354.257812 54.457031 C 354.765625 55.339844 355.167969 56.347656 355.421875 57.347656 C 355.488281 57.605469 355.511719 57.976562 355.59375 58.304688 C 355.671875 58.644531 355.824219 58.941406 356.03125 59.148438 C 356.316406 59.433594 356.753906 59.652344 357.238281 59.835938 C 357.8125 60.050781 358.480469 60.210938 358.949219 60.453125 C 359.894531 60.941406 360.628906 62.070312 361.191406 63.226562 C 361.804688 64.476562 362.195312 65.773438 362.390625 66.484375 C 362.390625 66.484375 356.890625 68.261719 356.890625 68.261719 C 356.675781 68.335938 356.511719 68.550781 356.488281 68.800781 C 356.476562 69.050781 356.617188 69.285156 356.835938 69.386719 C 356.835938 69.386719 360.605469 71.132812 361.539062 71.621094 C 361.605469 71.660156 361.824219 71.785156 362.042969 71.910156 C 361.78125 72.429688 361.402344 73.171875 361.308594 73.34375 C 361.019531 73.898438 360.734375 74.449219 360.410156 74.988281 C 359.664062 76.269531 358.871094 77.429688 357.707031 78.335938 C 357.339844 78.628906 356.871094 78.847656 356.410156 79.09375 C 355.855469 79.390625 355.339844 79.722656 354.972656 80.179688 C 354.59375 80.644531 354.339844 81.289062 354.132812 81.960938 C 353.949219 82.527344 353.789062 83.109375 353.570312 83.570312 C 352.027344 86.707031 349.933594 89.101562 346.4375 89.574219 C 346.230469 89.605469 345.910156 89.609375 345.542969 89.601562 Z M 345.542969 89.601562 " fill-opacity="1" fill-rule="evenodd"/><path fill="#000000" d="M 339.207031 74.375 C 339.34375 74.269531 340.171875 73.632812 340.261719 73.554688 C 341.539062 72.46875 343.976562 69.953125 345.140625 68.742188 C 345.253906 68.628906 345.3125 68.484375 345.3125 68.328125 C 345.3125 68.195312 345.277344 68.015625 345.140625 67.847656 C 345.035156 67.730469 344.78125 67.5625 344.726562 67.515625 C 344.324219 67.207031 343.933594 66.898438 343.53125 66.589844 C 342 65.398438 340.492188 64.078125 338.835938 63.0625 C 338.597656 62.90625 338.273438 62.972656 338.101562 63.210938 C 337.640625 63.828125 336.445312 64.433594 335.8125 64.890625 C 334.078125 66.144531 332.269531 67.300781 330.511719 68.511719 C 330.257812 68.582031 330.15625 68.832031 330.144531 68.886719 C 330.097656 69.011719 330.027344 69.285156 330.28125 69.542969 C 330.316406 69.570312 330.546875 69.707031 330.625 69.765625 C 330.800781 69.886719 330.972656 70.003906 331.144531 70.128906 C 331.742188 70.554688 332.363281 70.953125 332.984375 71.34375 C 334.777344 72.480469 336.558594 73.65625 338.433594 74.632812 C 338.617188 74.726562 338.835938 74.710938 339.011719 74.59375 C 339.089844 74.539062 339.160156 74.464844 339.207031 74.375 Z M 343.875 68.359375 C 342.632812 69.644531 340.644531 71.679688 339.539062 72.617188 C 339.445312 72.691406 338.90625 73.066406 338.574219 73.351562 C 336.859375 72.433594 335.226562 71.351562 333.570312 70.3125 C 332.972656 69.929688 332.375 69.546875 331.789062 69.132812 L 331.753906 69.105469 C 333.328125 68.035156 334.914062 67 336.46875 65.882812 C 337.042969 65.46875 338.019531 64.910156 338.640625 64.34375 C 340.113281 65.300781 341.460938 66.488281 342.851562 67.5625 C 343.195312 67.828125 343.539062 68.09375 343.875 68.359375 Z M 330.59375 69.695312 L 330.59375 69.699219 Z M 330.59375 69.695312 " fill-opacity="1" fill-rule="evenodd"/><path fill="#000000" d="M 363.21875 66.828125 L 374.9375 69.53125 L 363.21875 71.589844 L 358.308594 68.953125 Z M 363.21875 66.828125 " fill-opacity="1" fill-rule="evenodd"/><path fill="#000000" d="M 68.480469 14.214844 C 67.753906 13.925781 66.273438 14.433594 65.570312 14.582031 C 62.535156 15.230469 59.601562 16.402344 56.796875 17.761719 C 46.355469 22.824219 38.789062 32.320312 34.105469 43.167969 C 32.933594 45.875 31.96875 48.726562 31.371094 51.632812 C 31.207031 52.417969 30.726562 53.847656 31.058594 54.65625 C 31.359375 55.351562 32.117188 55.894531 32.632812 56.398438 C 33.738281 57.472656 34.761719 58.421875 36.027344 59.230469 C 37.660156 57.648438 39.949219 56.523438 41.800781 55.207031 C 42.363281 50.503906 44.285156 45.8125 46.261719 41.617188 C 49.632812 34.492188 54.09375 27.957031 59.511719 22.390625 C 61.972656 19.875 65.457031 15.953125 68.480469 14.214844 Z M 68.480469 14.214844 " fill-opacity="1" fill-rule="evenodd"/><path fill="#000000" d="M 68.480469 114.050781 C 67.753906 114.339844 66.273438 113.828125 65.570312 113.679688 C 62.535156 113.03125 59.601562 111.863281 56.796875 110.503906 C 46.355469 105.441406 38.789062 95.945312 34.105469 85.097656 C 32.933594 82.390625 31.96875 79.539062 31.371094 76.632812 C 31.207031 75.847656 30.726562 74.417969 31.058594 73.609375 C 31.359375 72.914062 32.117188 72.367188 32.632812 71.867188 C 33.738281 70.792969 34.761719 69.84375 36.027344 69.035156 C 37.660156 70.613281 39.949219 71.738281 41.800781 73.058594 C 42.363281 77.757812 44.285156 82.453125 46.261719 86.648438 C 49.632812 93.773438 54.09375 100.308594 59.511719 105.875 C 61.972656 108.386719 65.457031 112.3125 68.480469 114.050781 Z M 68.480469 114.050781 " fill-opacity="1" fill-rule="evenodd"/><path fill="#000000" d="M 22.769531 57.882812 C 23.054688 58.042969 23.320312 58.191406 23.390625 58.242188 C 25.042969 59.601562 26.679688 60.871094 28.527344 61.949219 C 29.160156 62.316406 29.816406 62.625 30.460938 62.964844 C 30.566406 63.023438 30.851562 63.164062 31 63.324219 C 31.207031 63.539062 31.265625 63.796875 31.207031 64.046875 C 31.152344 64.296875 30.980469 64.507812 30.679688 64.605469 C 30.449219 64.679688 30.082031 64.664062 29.964844 64.667969 C 29.78125 64.667969 29.21875 64.894531 28.484375 65.199219 C 26.539062 66 23.492188 67.453125 22.089844 68.28125 C 21.929688 68.375 21.445312 68.722656 21.03125 69.023438 C 21.285156 69.195312 21.546875 69.363281 21.6875 69.417969 C 23.078125 69.980469 24.722656 70.550781 25.621094 71.890625 C 25.953125 72.386719 26.058594 72.964844 26.058594 73.574219 C 26.046875 74.300781 25.851562 75.070312 25.828125 75.726562 C 25.769531 77.496094 26.066406 79.039062 27.058594 80.503906 C 27.828125 81.660156 28.78125 82.753906 29.964844 83.449219 C 30.164062 83.566406 31.816406 84.410156 31.816406 84.410156 C 32.046875 84.53125 32.175781 84.800781 32.128906 85.066406 C 32.082031 85.335938 31.863281 85.535156 31.609375 85.554688 C 31.609375 85.554688 29.070312 85.742188 28.3125 85.636719 C 24.402344 85.109375 22.019531 82.492188 20.308594 78.984375 C 20.054688 78.476562 19.871094 77.835938 19.675781 77.210938 C 19.5 76.691406 19.328125 76.179688 19.042969 75.824219 C 18.765625 75.480469 18.363281 75.25 17.949219 75.027344 C 17.433594 74.753906 16.902344 74.496094 16.488281 74.167969 C 15.210938 73.164062 14.316406 71.898438 13.488281 70.480469 C 13.164062 69.925781 12.867188 69.359375 12.578125 68.789062 C 12.429688 68.515625 11.554688 66.816406 11.554688 66.816406 C 11.40625 66.523438 11.507812 66.160156 11.785156 66 C 11.785156 66 12.671875 65.496094 12.832031 65.410156 C 13.40625 65.113281 14.992188 64.359375 16.179688 63.804688 C 16.191406 63.804688 11.625 62.328125 11.625 62.328125 C 11.335938 62.234375 11.164062 61.921875 11.234375 61.613281 C 11.234375 61.613281 11.703125 59.519531 12.671875 57.542969 C 13.347656 56.148438 14.28125 54.828125 15.429688 54.234375 C 15.855469 54.015625 16.429688 53.851562 16.972656 53.664062 C 17.410156 53.519531 17.824219 53.375 18.074219 53.132812 C 18.167969 53.042969 18.179688 52.886719 18.203125 52.734375 C 18.257812 52.4375 18.292969 52.125 18.351562 51.890625 C 18.640625 50.785156 19.085938 49.671875 19.652344 48.691406 C 21.996094 44.691406 27.886719 41.734375 32.09375 41.980469 C 32.371094 42 32.601562 42.21875 32.632812 42.503906 C 32.667969 42.792969 32.507812 43.066406 32.242188 43.15625 C 30.886719 43.636719 29.757812 45.011719 28.792969 46.648438 C 27.253906 49.269531 26.183594 52.585938 25.480469 54.492188 C 25 55.804688 24.527344 56.640625 23.398438 57.460938 C 23.191406 57.609375 22.984375 57.753906 22.769531 57.882812 Z M 29.347656 84.464844 C 28.035156 83.679688 26.964844 82.476562 26.113281 81.195312 C 24.976562 79.5 24.609375 77.726562 24.675781 75.683594 C 24.699219 75.132812 24.835938 74.496094 24.882812 73.878906 C 24.929688 73.414062 24.929688 72.957031 24.675781 72.582031 C 23.90625 71.4375 22.457031 71.023438 21.273438 70.542969 C 20.882812 70.382812 19.695312 69.527344 19.695312 69.527344 C 19.535156 69.417969 19.457031 69.234375 19.457031 69.039062 C 19.445312 68.84375 19.535156 68.65625 19.6875 68.542969 C 19.6875 68.542969 21.203125 67.414062 21.527344 67.230469 C 23.171875 66.261719 27 64.457031 28.839844 63.769531 C 28.964844 63.722656 29.070312 63.683594 29.183594 63.648438 C 28.769531 63.441406 28.367188 63.234375 27.964844 63.003906 C 26.058594 61.894531 24.390625 60.589844 22.675781 59.191406 C 22.539062 59.074219 21.445312 58.566406 21.191406 58.386719 C 21.019531 58.261719 20.960938 58.117188 20.9375 58.046875 C 20.882812 57.890625 20.847656 57.609375 21.125 57.367188 C 21.214844 57.285156 21.734375 57.066406 21.789062 57.042969 C 22.125 56.890625 22.445312 56.691406 22.746094 56.46875 C 23.652344 55.808594 24.019531 55.121094 24.414062 54.0625 C 25.125 52.105469 26.230469 48.707031 27.816406 46.015625 C 28.414062 44.980469 29.105469 44.054688 29.851562 43.332031 C 26.355469 43.949219 22.398438 46.3125 20.628906 49.320312 C 20.121094 50.207031 19.71875 51.210938 19.46875 52.210938 C 19.398438 52.472656 19.375 52.84375 19.292969 53.167969 C 19.214844 53.507812 19.066406 53.808594 18.859375 54.011719 C 18.570312 54.296875 18.132812 54.519531 17.648438 54.699219 C 17.074219 54.914062 16.410156 55.074219 15.9375 55.316406 C 14.992188 55.808594 14.257812 56.9375 13.695312 58.089844 C 13.085938 59.339844 12.695312 60.640625 12.5 61.347656 C 12.5 61.347656 17.996094 63.125 17.996094 63.125 C 18.214844 63.199219 18.375 63.414062 18.398438 63.667969 C 18.410156 63.917969 18.269531 64.152344 18.054688 64.253906 C 18.054688 64.253906 14.28125 66 13.347656 66.488281 C 13.28125 66.527344 13.0625 66.648438 12.84375 66.773438 C 13.109375 67.292969 13.488281 68.039062 13.578125 68.210938 C 13.867188 68.765625 14.152344 69.316406 14.476562 69.851562 C 15.222656 71.136719 16.015625 72.292969 17.179688 73.203125 C 17.546875 73.492188 18.019531 73.710938 18.476562 73.957031 C 19.03125 74.253906 19.546875 74.589844 19.914062 75.046875 C 20.296875 75.511719 20.546875 76.15625 20.753906 76.824219 C 20.9375 77.390625 21.101562 77.976562 21.320312 78.433594 C 22.859375 81.574219 24.953125 83.96875 28.449219 84.441406 C 28.65625 84.46875 28.976562 84.472656 29.347656 84.464844 Z M 29.347656 84.464844 " fill-opacity="1" fill-rule="evenodd"/><path fill="#000000" d="M 35.683594 69.242188 C 35.542969 69.132812 34.714844 68.496094 34.625 68.417969 C 33.347656 67.332031 30.910156 64.816406 29.75 63.605469 C 29.632812 63.496094 29.574219 63.347656 29.574219 63.191406 C 29.574219 63.058594 29.609375 62.882812 29.75 62.714844 C 29.851562 62.59375 30.105469 62.425781 30.164062 62.382812 C 30.566406 62.070312 30.957031 61.761719 31.359375 61.457031 C 32.886719 60.265625 34.394531 58.945312 36.050781 57.925781 C 36.292969 57.773438 36.613281 57.835938 36.785156 58.078125 C 37.246094 58.691406 38.441406 59.300781 39.074219 59.753906 C 40.8125 61.011719 42.617188 62.164062 44.375 63.378906 C 44.628906 63.445312 44.734375 63.699219 44.746094 63.75 C 44.789062 63.875 44.859375 64.148438 44.605469 64.410156 C 44.570312 64.4375 44.339844 64.570312 44.261719 64.628906 C 44.089844 64.75 43.917969 64.871094 43.742188 64.992188 C 43.144531 65.421875 42.523438 65.816406 41.902344 66.210938 C 40.109375 67.34375 38.328125 68.523438 36.453125 69.496094 C 36.269531 69.59375 36.050781 69.578125 35.878906 69.460938 C 35.796875 69.402344 35.726562 69.328125 35.683594 69.242188 Z M 31.011719 63.226562 C 32.253906 64.511719 34.246094 66.542969 35.347656 67.480469 C 35.441406 67.554688 35.980469 67.929688 36.316406 68.21875 C 38.027344 67.300781 39.660156 66.21875 41.316406 65.175781 C 41.914062 64.796875 42.511719 64.414062 43.101562 63.996094 L 43.132812 63.96875 C 41.558594 62.898438 39.972656 61.863281 38.417969 60.746094 C 37.84375 60.332031 36.867188 59.773438 36.246094 59.207031 C 34.773438 60.167969 33.429688 61.351562 32.035156 62.425781 C 31.691406 62.691406 31.347656 62.957031 31.011719 63.226562 Z M 44.296875 64.5625 Z M 44.296875 64.5625 " fill-opacity="1" fill-rule="evenodd"/><path fill="#000000" d="M 11.671875 61.691406 L -0.046875 64.398438 L 11.671875 66.453125 L 16.582031 63.820312 Z M 11.671875 61.691406 " fill-opacity="1" fill-rule="evenodd"/><path fill="#000000" d="M 194.300781 33.210938 C 194.332031 33.511719 194.308594 33.984375 194.179688 34.335938 C 193.65625 35.726562 192.347656 37.929688 192.53125 39.414062 C 192.609375 40.097656 193.503906 40.464844 193.695312 41.140625 C 194.28125 43.167969 194.511719 45.40625 194.882812 47.472656 C 196.984375 59.140625 198.96875 70.808594 200.859375 82.503906 C 201.773438 88.097656 202.851562 93.667969 203.351562 99.308594 C 203.511719 101.148438 203.664062 102.996094 203.734375 104.84375 C 203.753906 105.453125 203.746094 106.066406 203.734375 106.675781 C 203.734375 107 203.421875 107.816406 203.714844 107.640625 C 204.257812 107.324219 204.5 105.257812 204.648438 104.753906 C 205.574219 101.511719 206.1875 98.273438 206.21875 94.917969 C 206.351562 81.710938 202.757812 68.648438 200.484375 55.675781 C 200.042969 53.101562 199.480469 50.539062 199.128906 47.957031 C 199.007812 47.078125 198.515625 45.753906 198.746094 44.875 C 199.007812 43.925781 202.589844 47.1875 201.734375 45.09375 C 201.652344 44.886719 201.550781 44.679688 201.460938 44.472656 C 201.300781 44.128906 201.148438 43.785156 200.988281 43.445312 C 199.640625 40.644531 197.921875 38.058594 196.210938 35.433594 C 195.898438 34.960938 194.882812 32.472656 194.300781 33.210938 Z M 194.300781 33.210938 " fill-opacity="1" fill-rule="evenodd"/><path fill="#000000" d="M 115.703125 36.609375 C 115.730469 36.902344 115.710938 37.355469 115.597656 37.695312 C 115.144531 39.039062 114.007812 41.164062 114.164062 42.601562 C 114.234375 43.257812 115.011719 43.613281 115.179688 44.265625 C 115.683594 46.222656 115.886719 48.386719 116.210938 50.382812 C 118.035156 61.644531 119.757812 72.914062 121.398438 84.207031 C 122.195312 89.605469 123.128906 94.988281 123.566406 100.433594 C 123.707031 102.210938 123.835938 103.996094 123.898438 105.78125 C 123.914062 106.367188 123.90625 106.960938 123.898438 107.550781 C 123.898438 107.859375 123.625 108.648438 123.878906 108.476562 C 124.351562 108.171875 124.5625 106.179688 124.691406 105.691406 C 125.496094 102.5625 126.03125 99.433594 126.054688 96.195312 C 126.167969 83.441406 123.050781 70.828125 121.074219 58.300781 C 120.691406 55.816406 120.203125 53.34375 119.894531 50.847656 C 119.792969 50 119.363281 48.722656 119.5625 47.871094 C 119.792969 46.953125 122.902344 50.105469 122.160156 48.082031 C 122.089844 47.882812 122 47.683594 121.921875 47.484375 C 121.785156 47.152344 121.652344 46.820312 121.511719 46.492188 C 120.339844 43.789062 118.847656 41.289062 117.363281 38.753906 C 117.089844 38.300781 116.210938 35.894531 115.703125 36.609375 Z M 115.703125 36.609375 " fill-opacity="1" fill-rule="evenodd"/><path fill="#000000" d="M 185.96875 63.238281 C 183.695312 62.859375 181.582031 62.101562 179.214844 62.019531 C 174.078125 61.839844 168.449219 63.710938 164.195312 66.632812 C 163.851562 66.554688 163.980469 67.816406 164.011719 68.007812 C 164.195312 69.355469 164.71875 70.65625 165.480469 71.773438 C 167.644531 74.949219 170.699219 76.894531 174.527344 77.242188 C 176.242188 77.398438 178.085938 77.480469 179.769531 77.105469 C 182.632812 76.476562 185.324219 74.769531 187.929688 73.503906 C 189.28125 72.851562 190.640625 72.21875 191.9375 71.472656 C 192.28125 71.277344 193.074219 70.542969 193.515625 70.640625 C 194.179688 70.789062 194.191406 72.730469 194.253906 73.25 C 194.371094 74.144531 193.363281 74.378906 192.667969 74.796875 C 190.714844 75.945312 188.722656 77.023438 186.71875 78.085938 C 181.550781 80.839844 176.113281 83.070312 170.605469 85.058594 C 167.472656 86.195312 163.445312 87.53125 160.046875 87.09375 C 160.066406 87.007812 160.121094 87.257812 160.140625 87.34375 C 160.214844 87.550781 160.269531 87.753906 160.3125 87.964844 C 160.464844 88.589844 160.582031 89.222656 160.6875 89.855469 C 161.011719 91.652344 161.246094 93.597656 160.902344 95.414062 C 160.828125 95.804688 160.667969 96.851562 160.164062 96.957031 C 159.199219 97.152344 157.730469 95.722656 157.097656 95.195312 C 155.265625 93.679688 153.527344 91.867188 152.476562 89.710938 C 152.015625 88.746094 151.628906 87.625 151.972656 86.5625 C 151.640625 87.3125 150.773438 88.023438 150.226562 88.621094 C 148.15625 90.921875 145.367188 92.875 142.121094 92.386719 C 141.765625 92.332031 141.390625 92.253906 141.058594 92.15625 C 140.984375 92.132812 140.75 92.019531 140.671875 92.085938 C 140.5 92.238281 140.597656 92.902344 140.683594 93.058594 C 141.242188 94.011719 141.433594 95.054688 141.722656 95.957031 C 142.679688 98.992188 143.351562 101.617188 142.261719 104.796875 C 142.066406 105.347656 140.332031 106.980469 139.921875 107.464844 C 138.9375 108.621094 137.777344 109.671875 136.632812 110.65625 C 133.234375 113.558594 129.222656 115.785156 125.363281 117.996094 C 118.835938 121.726562 112.339844 125.300781 104.910156 126.785156 C 100.566406 127.652344 96.085938 128.316406 91.671875 128.484375 C 90.628906 128.523438 89.558594 128.570312 88.527344 128.398438 C 88.445312 128.386719 87.648438 128.269531 87.726562 128.105469 C 87.929688 127.609375 88.980469 127.238281 89.417969 127.042969 C 91.132812 126.277344 92.96875 125.753906 94.734375 125.105469 C 101.746094 122.515625 108.492188 120.09375 115.203125 116.699219 C 121.121094 113.703125 127.113281 110.746094 132.664062 107.09375 C 134.519531 105.878906 137.660156 104.234375 138.777344 102.15625 C 140.179688 99.53125 138.21875 95.445312 136.824219 93.234375 C 136.308594 92.417969 135.472656 91.488281 135.171875 90.558594 C 134.839844 89.519531 137.007812 87.671875 137.640625 87.019531 C 137.683594 86.972656 138.59375 86.011719 138.605469 86.023438 C 139.117188 86.5 138.691406 87.988281 139.28125 88.523438 C 139.933594 89.113281 142.097656 88.464844 142.871094 88.386719 C 146.226562 88.050781 148.960938 86.027344 150.859375 83.257812 C 151.53125 82.273438 152.402344 80.785156 152.199219 79.527344 C 152.636719 79.628906 153.097656 80.085938 153.429688 80.355469 C 154.339844 81.066406 155.144531 81.902344 156.132812 82.503906 C 158.84375 84.136719 161.761719 83.613281 164.621094 82.675781 C 165.585938 82.359375 167.59375 81.835938 168.042969 80.726562 C 167.925781 80.757812 167.386719 80.25 167.292969 80.183594 C 166.5 79.582031 165.757812 78.925781 165.0625 78.214844 C 162.027344 75.140625 160.238281 70.328125 161.277344 66.027344 C 161.246094 66.03125 161.394531 65.746094 161.394531 65.742188 C 161.515625 65.539062 161.632812 65.339844 161.761719 65.148438 C 162.15625 64.5625 162.605469 64.007812 163.078125 63.476562 C 164.355469 62.003906 165.824219 60.613281 167.515625 59.621094 C 170.003906 58.167969 173.125 57.277344 176.007812 57.714844 C 178.558594 58.101562 183.996094 60.847656 185.96875 63.238281 Z M 185.96875 63.238281 " fill-opacity="1" fill-rule="evenodd"/><path fill="#000000" d="M 112.746094 75.804688 C 112.5625 75.6875 112.5625 76.1875 112.480469 76.375 C 112.265625 76.796875 112.058594 77.222656 111.855469 77.652344 C 111.480469 78.453125 110.171875 80.222656 110.355469 81.132812 C 110.484375 81.832031 111.738281 81.550781 111.964844 82.113281 C 112.136719 82.527344 111.996094 83.148438 112.039062 83.585938 C 112.136719 84.652344 112.328125 85.6875 112.683594 86.699219 C 113.957031 90.367188 117.28125 94.644531 115.40625 98.722656 C 114.300781 101.132812 105.296875 105.496094 103.429688 106.472656 C 94.683594 111.058594 82.578125 115.960938 74.742188 107.054688 C 71.589844 103.480469 71.203125 99.328125 71.257812 94.761719 C 71.269531 92.953125 71.152344 91.167969 70.957031 89.371094 C 70.949219 89.265625 70.808594 87.832031 70.710938 87.84375 C 70.453125 87.871094 70.28125 89.074219 70.238281 89.246094 C 69.863281 90.808594 69.585938 92.382812 69.382812 93.976562 C 68.933594 97.609375 69.15625 101.203125 69.695312 104.816406 C 70.101562 107.621094 70.734375 110.613281 72.375 112.984375 C 77.691406 120.660156 89.601562 117.886719 96.558594 115.292969 C 102.59375 113.035156 108.542969 109.808594 113.667969 105.902344 C 115.953125 104.15625 118.632812 100.636719 119.027344 97.640625 C 119.4375 94.570312 119.039062 91.355469 118.246094 88.378906 C 117.753906 86.523438 116.875 84.578125 116.671875 82.664062 C 116.5625 81.765625 117.226562 81.480469 117.988281 81.699219 C 118.097656 81.730469 118.632812 81.964844 118.71875 81.832031 C 118.855469 81.617188 118.234375 80.984375 118.128906 80.847656 C 117.300781 79.796875 113.613281 76.8125 112.746094 75.804688 Z M 112.746094 75.804688 " fill-opacity="1" fill-rule="evenodd"/><path fill="#000000" d="M 181.808594 87.683594 C 181.347656 87.625 181.078125 87.441406 180.585938 87.800781 C 179.824219 88.351562 179.738281 89.855469 180.628906 90.34375 C 181.625 90.882812 182.921875 89.816406 183.640625 89.242188 C 183.832031 89.09375 184.5625 88.566406 184.476562 89.238281 C 184.414062 89.71875 183.351562 90.226562 183.019531 90.480469 C 181.550781 91.59375 180.027344 92.753906 178.804688 94.136719 C 178.257812 94.75 177.648438 95.554688 178.335938 96.292969 C 180.070312 98.160156 183.234375 96.964844 185.089844 95.949219 C 185.710938 95.601562 186.300781 95.21875 186.878906 94.789062 C 186.976562 94.71875 187.863281 94.039062 187.769531 94.300781 C 187.519531 94.929688 186.878906 95.523438 186.460938 96.035156 C 184.585938 98.269531 181.679688 100.195312 178.65625 99.042969 C 178.25 98.886719 177.839844 98.65625 177.519531 98.355469 C 175.246094 96.257812 177.328125 93.332031 179.308594 92.011719 C 179.257812 91.601562 178.398438 91.140625 178.183594 90.515625 C 177.894531 89.691406 178.25 87.804688 179.074219 86.921875 C 180.15625 85.777344 181.839844 85.886719 181.808594 87.683594 Z M 181.808594 87.683594 " fill-opacity="1" fill-rule="evenodd"/><path fill="#000000" d="M 157.464844 48.960938 C 157.453125 48.886719 157.117188 49.316406 157.09375 49.347656 C 156.910156 49.621094 156.734375 49.902344 156.574219 50.191406 C 156.070312 51.09375 155.613281 52.015625 155.253906 52.976562 C 154.296875 55.558594 153.652344 58.601562 154.300781 61.308594 C 154.539062 62.28125 154.976562 63.773438 156.273438 63.910156 C 158.273438 64.117188 159.371094 61.945312 159.789062 60.507812 C 159.898438 60.128906 160.28125 59.164062 160.007812 58.785156 C 159.960938 58.710938 159.835938 58.96875 159.824219 58.988281 C 159.648438 59.324219 159.476562 59.65625 159.277344 59.980469 C 158.890625 60.640625 157.921875 61.652344 156.722656 61.238281 C 155.640625 60.863281 155.417969 59.125 155.480469 58.175781 C 155.652344 55.414062 156.613281 51.804688 157.464844 48.960938 Z M 157.464844 48.960938 " fill-opacity="1" fill-rule="evenodd"/><path fill="#000000" d="M 217.085938 103.027344 C 217.074219 102.957031 216.742188 103.386719 216.71875 103.417969 C 216.53125 103.691406 216.359375 103.972656 216.195312 104.257812 C 215.695312 105.160156 215.238281 106.085938 214.878906 107.046875 C 213.917969 109.625 213.277344 112.667969 213.925781 115.375 C 214.160156 116.347656 214.601562 117.839844 215.894531 117.976562 C 217.898438 118.1875 218.996094 116.011719 219.410156 114.574219 C 219.519531 114.199219 219.902344 113.234375 219.632812 112.851562 C 219.585938 112.777344 219.457031 113.035156 219.445312 113.058594 C 219.273438 113.390625 219.097656 113.722656 218.902344 114.046875 C 218.515625 114.710938 217.542969 115.71875 216.347656 115.304688 C 215.265625 114.933594 215.039062 113.191406 215.105469 112.242188 C 215.277344 109.484375 216.238281 105.871094 217.085938 103.027344 Z M 217.085938 103.027344 " fill-opacity="1" fill-rule="evenodd"/><path fill="#000000" d="M 188.367188 39.796875 C 188.378906 39.980469 187.960938 40.40625 187.855469 40.542969 C 187.242188 41.375 186.492188 42.132812 185.699219 42.789062 C 182.65625 45.316406 178.398438 45.246094 174.753906 44.28125 C 173.679688 43.996094 172.714844 43.414062 171.664062 43.128906 C 170.59375 42.835938 169.8125 44.207031 169.308594 44.925781 C 169.253906 44.992188 168.429688 46.152344 168.351562 45.929688 C 168.246094 45.621094 168.644531 44.972656 168.761719 44.707031 C 169.285156 43.484375 169.984375 42.359375 170.636719 41.199219 C 170.839844 40.824219 171.097656 40.09375 171.589844 40.007812 C 172 39.9375 172.597656 40.402344 172.929688 40.578125 C 173.980469 41.128906 175.03125 41.660156 176.148438 42.042969 C 179.972656 43.351562 185.128906 42.320312 188.367188 39.796875 Z M 188.367188 39.796875 " fill-opacity="1" fill-rule="evenodd"/><path fill="#000000" d="M 72.988281 68.332031 C 72.976562 68.261719 72.640625 68.691406 72.617188 68.722656 C 72.433594 68.996094 72.257812 69.277344 72.097656 69.566406 C 71.59375 70.46875 71.136719 71.390625 70.78125 72.351562 C 69.820312 74.929688 69.179688 77.976562 69.824219 80.679688 C 70.0625 81.65625 70.5 83.148438 71.796875 83.28125 C 73.796875 83.492188 74.894531 81.320312 75.3125 79.878906 C 75.421875 79.503906 75.804688 78.539062 75.53125 78.15625 C 75.484375 78.085938 75.359375 78.34375 75.347656 78.363281 C 75.171875 78.699219 75 79.027344 74.804688 79.355469 C 74.414062 80.015625 73.445312 81.027344 72.246094 80.613281 C 71.167969 80.238281 70.941406 78.496094 71.003906 77.550781 C 71.179688 74.789062 72.136719 71.179688 72.988281 68.332031 Z M 72.988281 68.332031 " fill-opacity="1" fill-rule="evenodd"/><path fill="#000000" d="M 189.890625 55.085938 C 189.871094 55.105469 190.148438 55.339844 190.191406 55.371094 C 190.800781 55.929688 191.457031 56.609375 192.238281 56.9375 C 192.507812 57.050781 193.019531 57.203125 193.097656 56.78125 C 193.234375 56.003906 192.550781 54.894531 192.238281 54.210938 C 191.261719 52.046875 189.953125 50.0625 188.679688 48.070312 C 188.25 47.398438 187.8125 46.730469 187.328125 46.089844 C 187.285156 46.023438 186.996094 45.523438 186.855469 45.605469 C 186.652344 45.738281 186.578125 46.296875 186.535156 46.519531 C 186.320312 47.636719 186.707031 48.746094 186.890625 49.847656 C 187.597656 54.144531 187.90625 58.511719 188.445312 62.832031 C 188.625 64.234375 188.871094 65.996094 189.054688 67.382812 C 189.484375 70.660156 189.902344 73.941406 190.332031 77.222656 C 191.550781 86.683594 193.535156 96.210938 193.878906 105.765625 C 193.898438 106.175781 192.441406 107.3125 192.195312 107.550781 C 190.308594 109.382812 188.359375 111.125 186.300781 112.757812 C 180.199219 117.609375 172.769531 121.386719 164.996094 122.515625 C 161.640625 123.003906 157.953125 123.128906 154.972656 121.296875 C 149.988281 118.238281 148.636719 112.453125 149.324219 106.957031 C 149.550781 105.105469 150 103.292969 150.300781 101.453125 C 150.386719 100.910156 150.707031 99.875 150.375 99.34375 C 150.03125 98.789062 149.367188 99.742188 149.195312 99.976562 C 148.339844 101.132812 147.792969 102.5625 147.363281 103.925781 C 146.011719 108.195312 145.839844 113.273438 146.847656 117.628906 C 147.855469 121.988281 150.890625 126.070312 155.253906 127.5 C 158.277344 128.492188 161.597656 128.386719 164.699219 127.832031 C 172.972656 126.351562 180.605469 122.101562 187.179688 116.988281 C 190.640625 114.296875 194.136719 111.199219 196.28125 107.300781 C 196.3125 107.332031 196.332031 106.765625 196.332031 106.730469 C 196.324219 106.3125 196.28125 105.890625 196.246094 105.472656 C 196.171875 104.417969 196.472656 103.28125 196.398438 102.226562 C 196.171875 98.769531 195.96875 95.128906 195.5625 91.691406 C 194.308594 81.363281 191.980469 65.085938 189.890625 55.085938 Z M 189.890625 55.085938 " fill-opacity="1" fill-rule="evenodd"/><path fill="#000000" d="M 272.308594 95.8125 C 272.308594 95.796875 272.320312 95.792969 272.351562 95.800781 L 272.308594 95.8125 C 272.332031 95.871094 273.628906 99.234375 273.507812 100.269531 C 273.507812 100.269531 273.265625 100.480469 273.234375 100.511719 C 273.058594 100.675781 272.871094 100.835938 272.695312 100.992188 C 272.066406 101.554688 271.429688 102.117188 270.789062 102.667969 C 269.03125 104.164062 267.214844 105.601562 265.402344 107.027344 C 259.957031 111.3125 253.664062 117.152344 246.339844 118.261719 C 244.359375 118.5625 242.292969 117.90625 240.5 117.179688 C 238.75 116.46875 237.046875 115.628906 235.660156 114.359375 C 230.28125 109.421875 231.28125 100.90625 233.460938 94.800781 C 232.941406 95.308594 232.644531 96.222656 232.335938 96.847656 C 231.445312 98.671875 230.730469 100.582031 230.3125 102.550781 C 228.75 109.828125 229.347656 119.46875 237.265625 123.113281 C 238.421875 123.648438 239.652344 124.011719 240.929688 124.167969 C 252.167969 125.535156 262.035156 117.789062 269.03125 110.347656 C 271.429688 107.789062 273.78125 104.984375 275.507812 101.960938 C 275.960938 101.164062 276.214844 99.847656 276.203125 99.394531 C 276.125 97.558594 275.960938 95.964844 275.6875 94.144531 C 277.523438 92.789062 279.03125 92.351562 280.679688 90.675781 C 280.703125 90.644531 280.757812 91.003906 280.757812 91.023438 C 280.789062 91.207031 280.84375 91.386719 280.898438 91.5625 C 281.097656 92.164062 281.339844 92.738281 281.625 93.304688 C 282.460938 94.929688 283.636719 96.535156 285.265625 97.511719 C 288.554688 99.480469 293.183594 98.210938 295.859375 95.835938 C 297.695312 94.203125 298.917969 92.027344 300.058594 89.921875 C 300.113281 89.820312 300.246094 90.242188 300.269531 90.277344 C 300.378906 90.5 300.488281 90.722656 300.621094 90.9375 C 301.027344 91.636719 301.488281 92.324219 301.996094 92.960938 C 303.601562 94.957031 305.945312 95.972656 308.5625 95.238281 C 309.507812 94.972656 310.410156 94.476562 311.269531 94.007812 C 318.273438 90.175781 315.578125 82.523438 314.953125 77.761719 C 314.734375 77.726562 314.203125 78.28125 314.050781 78.402344 C 313.214844 79.0625 311.972656 79.988281 311.566406 80.988281 C 311.277344 81.71875 311.9375 82.765625 312.148438 83.453125 C 312.863281 85.820312 312.90625 88.328125 309.894531 88.902344 C 309.253906 89.023438 308.59375 89.03125 307.96875 88.898438 C 307.097656 88.714844 306.417969 88.195312 305.835938 87.582031 C 305.097656 86.808594 304.46875 85.945312 303.964844 85.019531 C 303.214844 83.628906 302.621094 81.957031 302.359375 80.402344 C 302.074219 80.472656 301.699219 81.996094 301.601562 82.226562 C 300.863281 83.933594 300.125 85.636719 298.960938 87.125 C 297.125 89.46875 294.175781 91.929688 290.910156 91.878906 C 286.367188 91.8125 283.988281 85.933594 284.277344 82.253906 C 281.097656 84.523438 278.136719 87.492188 274.421875 89.007812 C 274.332031 89.042969 274.398438 88.820312 274.355469 88.738281 C 274.246094 88.558594 274.113281 88.386719 273.992188 88.21875 C 273.605469 87.675781 273.242188 87.121094 272.835938 86.589844 C 271.648438 85.035156 270.417969 83.339844 268.757812 82.207031 C 266.347656 80.558594 263.597656 80.828125 261.453125 82.753906 C 259.21875 84.769531 257.40625 87.886719 256.722656 90.761719 C 256.558594 91.441406 256.535156 92.140625 256.515625 92.832031 C 256.457031 95.621094 258.296875 96.816406 261.046875 97.210938 C 264.761719 97.75 268.765625 96.886719 272.308594 95.8125 Z M 261.902344 90.871094 C 261.902344 90.871094 262.289062 89.734375 262.355469 89.585938 C 262.683594 88.832031 263.804688 87.109375 265.117188 87.539062 C 266.050781 87.847656 266.699219 88.8125 267.140625 89.515625 C 267.261719 89.714844 267.625 90.394531 267.625 90.394531 C 267.625 90.394531 266.609375 90.839844 266.203125 90.929688 C 265.785156 91.027344 265.050781 91.128906 264.433594 91.136719 C 263.167969 91.144531 261.902344 90.871094 261.902344 90.871094 Z M 261.902344 90.871094 " fill-opacity="1" fill-rule="evenodd"/><path fill="#000000" d="M 307.441406 100.886719 C 307.417969 100.777344 308.660156 99.972656 308.769531 100.089844 C 309.132812 100.492188 309.199219 101.429688 309.289062 101.921875 C 309.597656 103.804688 309.410156 106.035156 307.339844 106.941406 C 306.648438 107.238281 305.921875 107.257812 305.207031 107.070312 C 304.8125 106.972656 304.285156 106.59375 303.886719 106.75 C 302.6875 107.21875 302.546875 109.238281 300.894531 109.042969 C 299.070312 108.828125 297.902344 106.417969 295.945312 107.128906 C 294.242188 107.746094 292.777344 109.234375 291.425781 110.339844 C 288.542969 112.691406 285.726562 115.285156 282.339844 116.976562 C 280.292969 117.992188 278.195312 117.894531 276.046875 117.167969 C 275.664062 117.039062 274.453125 116.757812 274.277344 116.339844 C 274.191406 116.136719 274.839844 116.191406 274.914062 116.195312 C 275.796875 116.210938 276.675781 116.191406 277.542969 116.085938 C 279.722656 115.828125 281.714844 115.117188 283.515625 113.941406 C 285.683594 112.542969 287.464844 110.699219 289.226562 108.878906 C 290.554688 107.496094 291.929688 106 293.691406 105.09375 C 294.679688 104.589844 295.824219 104.289062 296.945312 104.519531 C 298.144531 104.765625 299.113281 105.523438 300.402344 105.199219 C 302.027344 104.789062 302.5 102.773438 304.007812 102.363281 C 305.054688 102.078125 305.492188 104.183594 306.441406 103.585938 C 307.441406 102.957031 306.539062 101.421875 307.441406 100.886719 Z M 307.441406 100.886719 " fill-opacity="1" fill-rule="evenodd"/><path fill="#000000" d="M 277.894531 57.3125 C 277.996094 57.34375 277.796875 57.367188 277.832031 57.273438 C 277.90625 57.089844 278.09375 56.648438 278.171875 56.460938 C 278.378906 55.917969 278.632812 55.390625 278.886719 54.863281 C 279.679688 53.207031 280.679688 51.273438 282.550781 50.546875 C 283.757812 50.078125 285.101562 50.078125 286.386719 50.011719 C 289.511719 49.851562 292.886719 50.15625 295.96875 50.714844 C 297.519531 50.996094 299.71875 51.5 300.09375 53.242188 C 300.5 55.136719 299.003906 57.179688 297.78125 58.511719 C 294.679688 61.910156 290.074219 64.625 285.386719 65.332031 C 283.835938 65.566406 282.296875 65.625 280.746094 65.414062 C 280.304688 65.355469 279.578125 65.3125 279.25 64.996094 C 279.03125 64.792969 279.734375 64.46875 279.84375 64.417969 C 280.636719 64.058594 281.472656 63.800781 282.273438 63.484375 C 285.003906 62.421875 287.828125 61.398438 290.304688 59.859375 C 290.753906 59.578125 292.328125 58.753906 292.273438 58.035156 C 292.261719 57.835938 291.589844 57.792969 291.46875 57.769531 C 290.546875 57.613281 289.609375 57.542969 288.6875 57.449219 C 285.882812 57.164062 280.722656 57.273438 277.894531 57.3125 Z M 277.894531 57.3125 " fill-opacity="1" fill-rule="evenodd"/><path fill="#000000" d="M 128.921875 70.886719 C 129.019531 70.917969 128.824219 70.941406 128.855469 70.847656 C 128.933594 70.664062 129.121094 70.222656 129.199219 70.035156 C 129.40625 69.492188 129.660156 68.964844 129.914062 68.4375 C 130.703125 66.78125 131.707031 64.847656 133.574219 64.121094 C 134.785156 63.652344 136.128906 63.652344 137.414062 63.585938 C 140.539062 63.425781 143.914062 63.730469 146.992188 64.289062 C 148.546875 64.570312 150.746094 65.074219 151.117188 66.816406 C 151.527344 68.710938 150.03125 70.753906 148.808594 72.085938 C 145.707031 75.484375 141.097656 78.199219 136.414062 78.90625 C 134.863281 79.140625 133.320312 79.199219 131.769531 78.988281 C 131.332031 78.929688 130.605469 78.886719 130.273438 78.570312 C 130.054688 78.367188 130.757812 78.042969 130.871094 77.992188 C 131.660156 77.632812 132.496094 77.375 133.300781 77.058594 C 136.027344 75.996094 138.855469 74.972656 141.328125 73.433594 C 141.78125 73.152344 143.351562 72.328125 143.296875 71.609375 C 143.289062 71.410156 142.617188 71.367188 142.496094 71.34375 C 141.570312 71.1875 140.636719 71.117188 139.710938 71.023438 C 136.90625 70.738281 131.75 70.847656 128.921875 70.886719 Z M 128.921875 70.886719 " fill-opacity="1" fill-rule="evenodd"/><path fill="#000000" d="M 308.265625 60.773438 C 308.1875 60.769531 308.023438 60.632812 307.925781 60.601562 C 307.648438 60.507812 307.363281 60.40625 307.089844 60.292969 C 306.132812 59.898438 305.261719 59.332031 305.195312 58.25 C 305.074219 56.054688 307.066406 53.476562 308.859375 52.269531 C 310.101562 51.425781 311.421875 51.570312 312.6875 52.519531 C 314.371094 53.78125 314.445312 55.625 314.140625 57.242188 C 313.722656 59.410156 312.050781 61.515625 310.652344 63.117188 C 304.800781 69.859375 287.652344 78.632812 286.15625 77.714844 C 286.53125 77.769531 287.445312 77.070312 287.730469 76.902344 C 289.257812 76.019531 290.820312 75.1875 292.328125 74.277344 C 295.902344 72.121094 299.246094 69.617188 302.5 67.039062 C 305.03125 65.023438 306.382812 63.367188 308.265625 60.773438 Z M 308.265625 60.773438 L 308.289062 60.738281 C 308.289062 60.765625 308.277344 60.777344 308.265625 60.773438 Z M 310.125 57.933594 C 310.125 57.9375 310.125 57.9375 310.125 57.933594 C 310.101562 57.902344 309.683594 57.636719 309.664062 57.621094 C 309.476562 57.476562 309.332031 57.308594 309.234375 57.121094 C 308.871094 56.511719 308.871094 55.78125 309.695312 55.421875 C 310.367188 55.128906 311.082031 55.378906 311.203125 55.984375 C 311.289062 56.402344 310.851562 57.574219 310.125 57.933594 Z M 310.125 57.933594 " fill-opacity="1" fill-rule="evenodd"/><path fill="#000000" d="M 239.234375 64.203125 C 239.199219 64.191406 238.605469 65.335938 238.542969 65.449219 C 238.410156 65.703125 237.253906 67.609375 237.828125 67.703125 C 238.476562 67.804688 239.367188 67.3125 239.9375 67.085938 C 241.5 66.457031 243.039062 65.746094 244.570312 65.039062 C 249.980469 62.539062 255.445312 60.160156 261 57.960938 C 262.277344 57.453125 263.554688 56.957031 264.839844 56.46875 C 266.214844 55.941406 267.953125 54.625 267.480469 52.902344 C 267.347656 52.433594 244.976562 61.871094 239.234375 64.203125 Z M 239.234375 64.203125 " fill-opacity="1" fill-rule="evenodd"/><path fill="#000000" d="M 130.417969 53.875 C 130.382812 53.859375 129.789062 55.003906 129.726562 55.117188 C 129.59375 55.375 128.4375 57.277344 129.011719 57.371094 C 129.660156 57.476562 130.550781 56.980469 131.121094 56.753906 C 132.683594 56.128906 134.222656 55.414062 135.753906 54.707031 C 141.164062 52.210938 146.628906 49.828125 152.183594 47.628906 C 153.460938 47.125 154.738281 46.628906 156.023438 46.136719 C 157.398438 45.613281 159.136719 44.292969 158.664062 42.574219 C 158.53125 42.101562 136.160156 51.539062 130.417969 53.875 Z M 130.417969 53.875 " fill-opacity="1" fill-rule="evenodd"/><path fill="#000000" d="M 156.742188 114.367188 C 156.707031 114.355469 156.113281 115.5 156.046875 115.613281 C 155.917969 115.867188 154.761719 117.773438 155.332031 117.867188 C 155.984375 117.96875 156.875 117.476562 157.445312 117.25 C 159.007812 116.621094 160.546875 115.910156 162.078125 115.203125 C 167.488281 112.703125 172.953125 110.324219 178.507812 108.125 C 179.785156 107.617188 181.0625 107.121094 182.347656 106.632812 C 183.722656 106.105469 185.460938 104.789062 184.988281 103.066406 C 184.855469 102.597656 162.484375 112.035156 156.742188 114.367188 Z M 156.742188 114.367188 " fill-opacity="1" fill-rule="evenodd"/><path fill="#000000" d="M 210.703125 58.085938 C 210.535156 58.1875 210.582031 58.863281 210.570312 59.023438 C 210.480469 59.941406 210.417969 60.859375 210.351562 61.777344 C 210.273438 62.925781 209.933594 64.472656 210.273438 65.605469 C 210.515625 66.433594 211.671875 67.195312 212.273438 67.761719 C 213.484375 68.894531 214.574219 70.175781 215.71875 71.382812 C 216.621094 72.335938 217.542969 73.285156 218.414062 74.261719 C 218.554688 74.421875 219.292969 74.957031 219.269531 75.1875 C 219.25 75.507812 218.480469 76.089844 218.269531 76.320312 C 217.3125 77.378906 216.398438 78.484375 215.5625 79.628906 C 212.617188 83.652344 210.933594 88.703125 212.363281 93.585938 C 212.890625 95.378906 213.816406 97.609375 215.914062 98.089844 C 218.941406 98.777344 221.800781 96.738281 223.824219 94.902344 C 227.792969 91.285156 232.832031 86.410156 230.71875 80.730469 C 229.960938 78.679688 228.246094 77.070312 226.539062 75.699219 C 225.738281 75.050781 224.375 74.40625 224.726562 73.230469 C 225.15625 71.78125 226.363281 70.46875 227.277344 69.28125 C 229.09375 66.917969 231.074219 64.578125 232.4375 61.933594 C 233.085938 60.683594 233.183594 59.332031 233.183594 57.957031 C 233.183594 57.613281 233.292969 56.933594 233.128906 56.617188 C 233.117188 56.59375 232.140625 57.90625 232.074219 58.007812 C 231.378906 58.976562 230.675781 59.941406 229.972656 60.90625 C 228.136719 63.441406 226.222656 65.902344 224.265625 68.351562 C 223.890625 68.816406 223 70.539062 222.351562 70.699219 C 222.121094 70.757812 221.359375 69.996094 221.183594 69.871094 C 220.214844 69.144531 218.257812 68.039062 217.707031 66.996094 C 217.125 65.910156 220.292969 66.019531 220.03125 65.289062 C 219.722656 64.417969 218.3125 63.542969 217.597656 63.007812 C 215.71875 61.605469 212.539062 59.542969 210.703125 58.085938 Z M 220.371094 77.46875 C 220.382812 77.410156 220.152344 77.734375 220.128906 77.773438 C 219.964844 78.007812 219.796875 78.238281 219.632812 78.472656 C 219.09375 79.246094 218.578125 80.03125 218.070312 80.824219 C 216.808594 82.84375 215.386719 84.988281 214.78125 87.300781 C 214.53125 88.292969 214.429688 89.503906 215.53125 90.046875 C 216.445312 90.5 217.753906 90.328125 218.730469 90.222656 C 221.867188 89.886719 226.5625 88.003906 226.640625 84.449219 C 226.695312 82.050781 222.074219 78.832031 220.371094 77.46875 Z M 220.371094 77.46875 " fill-opacity="1" fill-rule="evenodd"/><path fill="#000000" d="M 208.550781 44.0625 C 208.453125 44.027344 208.691406 43.90625 208.75 43.824219 C 208.871094 43.675781 208.980469 43.53125 209.101562 43.382812 C 209.507812 42.863281 209.914062 42.339844 210.320312 41.820312 C 211.058594 40.875 211.796875 39.925781 212.554688 38.996094 C 212.730469 38.789062 213.113281 38.074219 213.410156 37.988281 C 213.5 37.960938 213.742188 38.257812 213.785156 38.304688 C 214.183594 38.65625 214.609375 38.976562 215.019531 39.3125 C 216.214844 40.292969 217.394531 41.289062 218.582031 42.28125 C 218.964844 42.601562 219.792969 43.011719 219.988281 43.492188 C 220.042969 43.621094 219.539062 44.058594 219.472656 44.128906 C 218.902344 44.769531 218.328125 45.410156 217.757812 46.050781 C 217.0625 46.820312 216.371094 47.59375 215.6875 48.367188 C 215.5 48.566406 215.226562 49.058594 214.953125 49.15625 C 214.722656 49.238281 214.007812 48.4375 213.851562 48.316406 C 212.730469 47.4375 209.707031 44.898438 208.550781 44.0625 Z M 208.550781 44.0625 " fill-opacity="1" fill-rule="evenodd"/><path fill="#000000" d="M 87.738281 85.195312 C 87.640625 85.160156 87.882812 85.042969 87.9375 84.957031 C 88.058594 84.808594 88.167969 84.664062 88.289062 84.519531 C 88.695312 83.996094 89.105469 83.476562 89.511719 82.953125 C 90.246094 82.007812 90.984375 81.058594 91.742188 80.128906 C 91.917969 79.921875 92.304688 79.210938 92.601562 79.121094 C 92.6875 79.09375 92.929688 79.390625 92.976562 79.4375 C 93.371094 79.792969 93.800781 80.109375 94.207031 80.445312 C 95.40625 81.425781 96.582031 82.425781 97.769531 83.417969 C 98.15625 83.738281 98.980469 84.144531 99.179688 84.628906 C 99.234375 84.753906 98.726562 85.191406 98.660156 85.261719 C 98.089844 85.902344 97.519531 86.546875 96.945312 87.1875 C 96.253906 87.957031 95.558594 88.726562 94.878906 89.5 C 94.691406 89.699219 94.417969 90.191406 94.140625 90.289062 C 93.910156 90.371094 93.195312 89.574219 93.042969 89.453125 C 91.917969 88.574219 88.894531 86.03125 87.738281 85.195312 Z M 87.738281 85.195312 " fill-opacity="1" fill-rule="evenodd"/><path fill="#000000" d="M 220.019531 43.480469 C 219.921875 43.441406 220.164062 43.324219 220.21875 43.242188 C 220.339844 43.09375 220.449219 42.949219 220.570312 42.800781 C 220.976562 42.277344 221.382812 41.757812 221.789062 41.238281 C 222.527344 40.289062 223.265625 39.34375 224.023438 38.414062 C 224.199219 38.203125 224.585938 37.492188 224.882812 37.402344 C 224.96875 37.378906 225.210938 37.675781 225.253906 37.722656 C 225.652344 38.074219 226.082031 38.394531 226.488281 38.726562 C 227.6875 39.707031 228.863281 40.707031 230.050781 41.699219 C 230.4375 42.019531 231.261719 42.425781 231.460938 42.910156 C 231.515625 43.035156 231.007812 43.472656 230.941406 43.546875 C 230.371094 44.183594 229.796875 44.828125 229.226562 45.46875 C 228.535156 46.238281 227.839844 47.007812 227.160156 47.78125 C 226.972656 47.984375 226.695312 48.472656 226.421875 48.570312 C 226.191406 48.652344 225.476562 47.855469 225.320312 47.734375 C 224.199219 46.855469 221.175781 44.3125 220.019531 43.480469 Z M 220.019531 43.480469 " fill-opacity="1" fill-rule="evenodd"/><path fill="#000000" d="M 249.742188 44.457031 C 249.777344 44.460938 249.703125 44.511719 249.683594 44.535156 C 249.648438 44.582031 249.613281 44.628906 249.574219 44.675781 C 249.503906 44.757812 249.269531 45.144531 249.121094 45.070312 C 248.726562 44.878906 248.40625 44.476562 248.050781 44.226562 C 247.792969 44.050781 247.523438 43.875 247.246094 43.714844 C 247.105469 43.636719 246.910156 43.554688 246.800781 43.4375 C 246.621094 43.246094 246.714844 42.75 246.714844 42.523438 C 246.722656 41.753906 246.6875 40.367188 247.769531 40.132812 C 248.550781 39.964844 249.253906 40.5625 249.78125 40.992188 C 251.382812 42.292969 252.003906 43.984375 252.539062 45.808594 C 252.691406 46.332031 252.800781 46.863281 252.972656 47.382812 C 253.027344 47.550781 253.097656 47.882812 253.308594 47.960938 C 253.257812 47.925781 253.355469 47.855469 253.371094 47.800781 C 253.402344 47.683594 253.425781 47.5625 253.445312 47.441406 C 253.542969 46.851562 253.613281 46.261719 253.738281 45.675781 C 254.128906 43.859375 254.664062 42.011719 255.707031 40.398438 C 256.015625 39.925781 256.558594 39.167969 257.265625 39.171875 C 257.546875 39.171875 257.84375 39.304688 258.078125 39.441406 C 258.546875 39.710938 258.957031 40.089844 259.296875 40.480469 C 259.441406 40.644531 259.621094 40.832031 259.65625 41.046875 C 259.726562 41.527344 259.417969 42.140625 259.230469 42.570312 C 259.097656 42.871094 258.949219 43.371094 258.625 43.5625 C 258.363281 43.71875 258.171875 43.238281 258.074219 43.089844 C 257.835938 42.726562 257.5625 42.359375 257.226562 42.0625 C 257.058594 41.914062 256.855469 41.773438 256.613281 41.800781 C 256.359375 41.828125 256.167969 42.007812 256.015625 42.175781 C 255.671875 42.566406 255.445312 43.050781 255.273438 43.519531 C 254.492188 45.652344 254.390625 47.929688 253.621094 50.066406 C 253.433594 50.589844 253.234375 51.109375 252.984375 51.609375 C 252.929688 51.71875 252.816406 52.011719 252.644531 52.023438 C 252.433594 52.03125 252.359375 51.597656 252.335938 51.480469 C 252.191406 50.835938 252.148438 50.179688 252.003906 49.535156 C 251.785156 48.585938 251.453125 47.664062 251.066406 46.765625 C 250.765625 46.070312 250.210938 45.074219 249.742188 44.457031 Z M 249.742188 44.457031 " fill-opacity="1" fill-rule="evenodd"/><path fill="#000000" d="M 249.742188 71.886719 C 249.777344 71.890625 249.703125 71.941406 249.683594 71.964844 C 249.648438 72.011719 249.613281 72.058594 249.574219 72.105469 C 249.503906 72.1875 249.269531 72.574219 249.121094 72.5 C 248.726562 72.308594 248.40625 71.90625 248.050781 71.660156 C 247.792969 71.480469 247.523438 71.308594 247.246094 71.148438 C 247.105469 71.066406 246.910156 70.988281 246.800781 70.871094 C 246.621094 70.675781 246.714844 70.179688 246.714844 69.953125 C 246.722656 69.1875 246.6875 67.796875 247.769531 67.566406 C 248.550781 67.394531 249.253906 67.992188 249.78125 68.421875 C 251.382812 69.726562 252.003906 71.414062 252.539062 73.238281 C 252.691406 73.761719 252.800781 74.296875 252.972656 74.8125 C 253.027344 74.980469 253.097656 75.3125 253.308594 75.390625 C 253.257812 75.355469 253.355469 75.285156 253.371094 75.230469 C 253.402344 75.113281 253.425781 74.992188 253.445312 74.871094 C 253.542969 74.28125 253.613281 73.691406 253.738281 73.105469 C 254.128906 71.289062 254.664062 69.441406 255.707031 67.828125 C 256.015625 67.355469 256.558594 66.597656 257.265625 66.601562 C 257.546875 66.601562 257.84375 66.738281 258.078125 66.871094 C 258.546875 67.140625 258.957031 67.519531 259.296875 67.910156 C 259.441406 68.074219 259.621094 68.265625 259.65625 68.476562 C 259.726562 68.957031 259.417969 69.570312 259.230469 70 C 259.097656 70.300781 258.949219 70.800781 258.625 70.992188 C 258.363281 71.148438 258.171875 70.667969 258.074219 70.519531 C 257.835938 70.15625 257.5625 69.792969 257.226562 69.492188 C 257.058594 69.34375 256.855469 69.203125 256.613281 69.230469 C 256.359375 69.257812 256.167969 69.4375 256.015625 69.605469 C 255.671875 69.996094 255.445312 70.480469 255.273438 70.953125 C 254.492188 73.082031 254.390625 75.363281 253.621094 77.496094 C 253.433594 78.019531 253.234375 78.539062 252.984375 79.039062 C 252.929688 79.148438 252.816406 79.445312 252.644531 79.453125 C 252.433594 79.460938 252.359375 79.027344 252.335938 78.910156 C 252.191406 78.265625 252.148438 77.609375 252.003906 76.964844 C 251.785156 76.019531 251.453125 75.09375 251.066406 74.195312 C 250.765625 73.5 250.210938 72.503906 249.742188 71.886719 Z M 249.742188 71.886719 " fill-opacity="1" fill-rule="evenodd"/><path fill="#000000" d="M 69.84375 57.3125 C 69.875 57.3125 69.804688 57.363281 69.785156 57.390625 C 69.75 57.433594 69.714844 57.484375 69.675781 57.527344 C 69.605469 57.613281 69.371094 57.996094 69.21875 57.921875 C 68.828125 57.734375 68.503906 57.328125 68.152344 57.082031 C 67.894531 56.902344 67.621094 56.730469 67.347656 56.570312 C 67.207031 56.488281 67.011719 56.410156 66.902344 56.292969 C 66.722656 56.097656 66.816406 55.601562 66.816406 55.375 C 66.824219 54.609375 66.789062 53.21875 67.867188 52.988281 C 68.652344 52.820312 69.355469 53.414062 69.882812 53.84375 C 71.484375 55.148438 72.105469 56.839844 72.640625 58.660156 C 72.792969 59.183594 72.898438 59.71875 73.074219 60.234375 C 73.128906 60.402344 73.199219 60.734375 73.410156 60.8125 C 73.359375 60.777344 73.457031 60.710938 73.472656 60.65625 C 73.5 60.535156 73.527344 60.414062 73.546875 60.292969 C 73.640625 59.703125 73.710938 59.117188 73.839844 58.527344 C 74.230469 56.710938 74.765625 54.863281 75.808594 53.253906 C 76.117188 52.777344 76.660156 52.019531 77.367188 52.023438 C 77.648438 52.023438 77.945312 52.160156 78.179688 52.292969 C 78.648438 52.5625 79.054688 52.941406 79.398438 53.335938 C 79.542969 53.496094 79.722656 53.6875 79.753906 53.902344 C 79.828125 54.378906 79.519531 54.992188 79.332031 55.421875 C 79.199219 55.722656 79.046875 56.222656 78.726562 56.417969 C 78.464844 56.570312 78.273438 56.089844 78.175781 55.941406 C 77.9375 55.578125 77.664062 55.214844 77.324219 54.914062 C 77.160156 54.769531 76.957031 54.625 76.710938 54.652344 C 76.460938 54.679688 76.269531 54.859375 76.117188 55.027344 C 75.769531 55.417969 75.546875 55.902344 75.371094 56.375 C 74.59375 58.503906 74.492188 60.785156 73.722656 62.917969 C 73.535156 63.441406 73.335938 63.960938 73.082031 64.464844 C 73.027344 64.570312 72.917969 64.867188 72.746094 64.875 C 72.53125 64.886719 72.460938 64.449219 72.433594 64.332031 C 72.292969 63.6875 72.25 63.03125 72.101562 62.386719 C 71.886719 61.441406 71.554688 60.515625 71.164062 59.617188 C 70.867188 58.921875 70.3125 57.929688 69.84375 57.3125 Z M 69.84375 57.3125 " fill-opacity="1" fill-rule="evenodd"/><path fill="#000000" d="M 93.277344 58.699219 C 93.285156 58.652344 93.234375 58.808594 93.207031 58.847656 C 93.136719 58.949219 93.070312 59.050781 93.003906 59.152344 C 92.804688 59.453125 92.609375 59.75 92.402344 60.046875 C 91.730469 61.019531 91.066406 62.003906 90.445312 63.007812 C 90.097656 63.574219 89.757812 64.148438 89.4375 64.726562 C 88.21875 66.941406 86.730469 69.550781 88.589844 71.878906 C 88.867188 72.230469 89.21875 72.539062 89.617188 72.789062 C 90.097656 73.09375 90.65625 73.292969 91.238281 73.386719 C 95.785156 74.105469 99.324219 69.1875 97.234375 65.753906 C 96.585938 64.691406 95.535156 63.84375 94.464844 63.105469 C 94.007812 62.789062 93.023438 62.390625 92.785156 61.898438 C 92.636719 61.585938 93.058594 61.15625 93.21875 60.914062 C 93.585938 60.359375 94.484375 59.0625 93.277344 58.699219 Z M 91.054688 65.15625 C 90.914062 65.488281 90.621094 65.800781 90.4375 66.121094 C 89.933594 67.015625 89.667969 68.085938 90.433594 68.9375 C 91.363281 69.976562 92.914062 69.890625 94.234375 69.625 C 94.597656 69.550781 94.941406 69.472656 95.253906 69.28125 C 95.367188 69.214844 95.515625 69.136719 95.558594 69.011719 C 95.601562 68.894531 95.507812 68.769531 95.445312 68.667969 C 95.265625 68.386719 95.046875 68.132812 94.8125 67.890625 C 94.144531 67.195312 93.378906 66.539062 92.578125 65.964844 C 92.242188 65.722656 91.4375 65.183594 91.054688 65.15625 Z M 91.054688 65.15625 " fill-opacity="1" fill-rule="evenodd"/><path fill="#000000" d="M 113.503906 128.171875 C 113.484375 128.171875 118.277344 126.984375 119.144531 126.804688 C 122.824219 126.054688 125.121094 124.914062 128.355469 123.367188 C 130.316406 122.429688 132.214844 121.371094 133.917969 120.128906 C 135.675781 118.847656 136.78125 117.328125 138.25 115.867188 C 138.890625 115.226562 139.734375 114.453125 140.855469 114.472656 C 141.5625 114.488281 142.039062 114.875 142.421875 115.308594 C 143.277344 116.253906 143.613281 117.269531 143.210938 118.40625 C 143.074219 118.792969 142.867188 119.316406 142.410156 119.546875 C 141.355469 120.074219 139.390625 119.257812 138.476562 118.832031 C 138.152344 118.683594 137.851562 118.511719 137.566406 118.320312 C 137.492188 118.269531 137.378906 118.140625 137.261719 118.1875 C 136.832031 118.359375 136.570312 119.199219 136.382812 119.515625 C 135.859375 120.421875 135.273438 121.148438 134.292969 121.78125 C 132.136719 123.171875 130.230469 124.285156 127.863281 125.429688 C 126.128906 126.265625 123.867188 127.234375 121.902344 127.699219 C 120.574219 128.015625 119.0625 128.328125 117.59375 128.242188 C 116.773438 128.195312 113.960938 128.34375 113.503906 128.171875 Z M 138.957031 117.054688 C 138.976562 117.035156 139.023438 116.964844 139.050781 116.941406 C 139.113281 116.875 139.183594 116.8125 139.257812 116.753906 C 139.496094 116.558594 139.820312 116.316406 140.179688 116.292969 C 140.988281 116.230469 141.5625 117.03125 141.625 117.585938 C 141.65625 117.871094 141.441406 117.957031 141.117188 117.890625 C 140.644531 117.792969 139.398438 117.238281 138.957031 117.054688 Z M 138.957031 117.054688 C 138.949219 117.0625 138.945312 117.0625 138.945312 117.050781 Z M 138.957031 117.054688 " fill-opacity="1" fill-rule="evenodd"/><path fill="#000000" d="M 239.21875 88.085938 C 239.207031 88.070312 239.167969 87.984375 239.117188 88.035156 C 239.066406 88.082031 239.003906 88.265625 238.996094 88.300781 C 238.949219 88.503906 238.894531 88.710938 238.84375 88.914062 C 238.6875 89.546875 238.515625 90.175781 238.339844 90.804688 C 238.0625 91.792969 237.761719 92.777344 237.488281 93.765625 C 237.414062 94.039062 237.34375 94.3125 237.28125 94.589844 C 237.257812 94.699219 237.203125 94.847656 237.253906 94.957031 C 237.339844 95.144531 237.566406 95.304688 237.71875 95.445312 C 238.066406 95.773438 238.433594 96.082031 238.785156 96.40625 C 238.804688 96.382812 238.804688 96.457031 238.8125 96.484375 C 238.828125 96.53125 238.84375 96.578125 238.859375 96.625 C 238.90625 96.753906 238.949219 96.886719 238.996094 97.019531 C 239.132812 97.414062 239.273438 97.804688 239.410156 98.199219 C 239.8125 99.382812 240.273438 100.550781 240.761719 101.703125 C 242.242188 105.1875 244.191406 108.527344 246.296875 111.726562 C 246.226562 111.605469 246.113281 111.949219 246.019531 112.054688 C 245.832031 112.261719 245.632812 112.460938 245.433594 112.652344 C 244.832031 113.230469 244.246094 113.820312 243.613281 114.363281 C 241.699219 116 239.757812 117.601562 237.710938 119.101562 C 233.898438 121.890625 229.664062 124.242188 225.191406 126.039062 C 222.15625 127.257812 218.949219 128.242188 215.628906 128.527344 C 215.597656 128.503906 215.324219 128.558594 215.28125 128.558594 C 214.945312 128.578125 214.613281 128.59375 214.28125 128.601562 C 213.050781 128.628906 211.820312 128.539062 210.609375 128.328125 C 206.96875 127.683594 203.972656 125.710938 202.054688 122.816406 C 201.878906 122.554688 201.722656 122.226562 201.601562 121.929688 C 201.222656 121.019531 200.929688 120.082031 200.742188 119.125 C 199.917969 114.980469 200.667969 110.542969 201.835938 106.515625 C 202.421875 104.488281 203.222656 102.523438 203.90625 100.523438 C 204.070312 100.046875 204.300781 99.515625 204.296875 99.007812 C 204.292969 98.527344 203.800781 98.738281 203.59375 98.96875 C 203.578125 98.957031 203.476562 99.132812 203.472656 99.140625 C 203.34375 99.34375 203.226562 99.554688 203.113281 99.765625 C 202.851562 100.253906 202.589844 100.742188 202.339844 101.234375 C 201.035156 103.796875 199.945312 106.449219 199.066406 109.160156 C 196.664062 116.546875 195.921875 126.171875 202.347656 132.109375 C 202.34375 132.117188 202.761719 132.371094 202.78125 132.382812 C 203.320312 132.707031 203.839844 133.058594 204.386719 133.367188 C 206.640625 134.644531 209.242188 135.304688 211.871094 135.519531 C 219.613281 136.160156 227.269531 132.503906 233.332031 128.421875 C 233.363281 128.445312 233.59375 128.257812 233.640625 128.226562 C 233.949219 128.007812 234.257812 127.789062 234.570312 127.574219 C 236.019531 126.582031 237.46875 125.582031 238.863281 124.53125 C 242.042969 122.140625 245.515625 119.1875 247.25 115.699219 C 248.398438 113.394531 248.757812 110.585938 248.578125 108.070312 C 248.589844 108.070312 248.582031 107.964844 248.582031 107.949219 C 248.582031 107.789062 248.566406 107.628906 248.554688 107.464844 C 248.5 106.789062 248.378906 106.125 248.1875 105.46875 C 247.398438 102.761719 245.621094 100.414062 244.304688 97.910156 C 244.015625 97.367188 243.734375 96.816406 243.472656 96.261719 C 243.441406 96.1875 243.1875 95.777344 243.277344 95.699219 C 243.386719 95.605469 243.804688 95.867188 243.890625 95.910156 C 244.382812 96.167969 244.949219 96.683594 245.542969 96.707031 C 246.339844 96.738281 245.964844 95.882812 245.671875 95.566406 C 245.65625 95.574219 245.394531 95.199219 245.378906 95.183594 C 245.03125 94.710938 244.660156 94.25 244.296875 93.789062 C 242.777344 91.875 240.097656 89.035156 239.21875 88.085938 Z M 239.21875 88.085938 " fill-opacity="1" fill-rule="evenodd"/></svg>