<svg xmlns="http://www.w3.org/2000/svg" xmlns:xlink="http://www.w3.org/1999/xlink" width="500" zoomAndPan="magnify" viewBox="0 0 375 149.999998" height="200" preserveAspectRatio="xMidYMid meet" version="1.0"><defs><clipPath id="495afe390c"><path d="M 30 17.109375 L 69 17.109375 L 69 61 L 30 61 Z M 30 17.109375 " clip-rule="nonzero"/></clipPath><clipPath id="99cffba218"><path d="M 188 81 L 244 81 L 244 132.609375 L 188 132.609375 Z M 188 81 " clip-rule="nonzero"/></clipPath></defs><path fill="#000000" d="M 242.753906 35.886719 C 242.789062 35.890625 242.710938 35.945312 242.691406 35.972656 C 242.652344 36.019531 242.613281 36.070312 242.574219 36.121094 C 242.5 36.207031 242.25 36.617188 242.089844 36.539062 C 241.671875 36.335938 241.332031 35.90625 240.957031 35.644531 C 240.679688 35.453125 240.394531 35.269531 240.101562 35.101562 C 239.953125 35.011719 239.746094 34.929688 239.628906 34.804688 C 239.4375 34.601562 239.535156 34.070312 239.539062 33.832031 C 239.546875 33.015625 239.507812 31.542969 240.65625 31.296875 C 241.488281 31.117188 242.234375 31.75 242.796875 32.207031 C 244.496094 33.589844 245.15625 35.386719 245.722656 37.320312 C 245.886719 37.878906 246 38.445312 246.183594 38.996094 C 246.242188 39.171875 246.316406 39.523438 246.539062 39.609375 C 246.488281 39.570312 246.59375 39.496094 246.605469 39.441406 C 246.640625 39.3125 246.667969 39.183594 246.6875 39.058594 C 246.789062 38.429688 246.863281 37.804688 246.996094 37.179688 C 247.414062 35.25 247.980469 33.289062 249.089844 31.578125 C 249.414062 31.074219 249.992188 30.269531 250.746094 30.269531 C 251.046875 30.269531 251.359375 30.414062 251.609375 30.558594 C 252.105469 30.84375 252.539062 31.25 252.902344 31.664062 C 253.054688 31.835938 253.246094 32.039062 253.28125 32.265625 C 253.359375 32.773438 253.03125 33.425781 252.832031 33.882812 C 252.691406 34.199219 252.53125 34.730469 252.191406 34.9375 C 251.914062 35.101562 251.707031 34.589844 251.605469 34.433594 C 251.351562 34.046875 251.058594 33.660156 250.703125 33.34375 C 250.527344 33.1875 250.308594 33.035156 250.050781 33.0625 C 249.78125 33.09375 249.578125 33.285156 249.417969 33.464844 C 249.050781 33.878906 248.808594 34.394531 248.628906 34.890625 C 247.800781 37.15625 247.691406 39.578125 246.875 41.84375 C 246.675781 42.398438 246.460938 42.953125 246.195312 43.484375 C 246.136719 43.601562 246.019531 43.914062 245.835938 43.921875 C 245.609375 43.933594 245.535156 43.472656 245.507812 43.347656 C 245.355469 42.660156 245.308594 41.964844 245.152344 41.28125 C 244.921875 40.273438 244.570312 39.292969 244.15625 38.339844 C 243.839844 37.601562 243.253906 36.542969 242.753906 35.886719 Z M 242.753906 35.886719 " fill-opacity="1" fill-rule="evenodd"/><path fill="#000000" d="M 249.640625 66.148438 C 249.679688 66.148438 249.601562 66.203125 249.582031 66.230469 C 249.542969 66.277344 249.503906 66.328125 249.464844 66.378906 C 249.390625 66.464844 249.140625 66.875 248.980469 66.796875 C 248.5625 66.59375 248.222656 66.164062 247.84375 65.902344 C 247.570312 65.714844 247.285156 65.527344 246.992188 65.359375 C 246.839844 65.273438 246.636719 65.1875 246.515625 65.0625 C 246.324219 64.859375 246.425781 64.332031 246.429688 64.089844 C 246.4375 63.277344 246.398438 61.800781 247.546875 61.554688 C 248.375 61.375 249.125 62.007812 249.6875 62.464844 C 251.386719 63.847656 252.046875 65.644531 252.613281 67.578125 C 252.777344 68.136719 252.890625 68.703125 253.074219 69.253906 C 253.132812 69.429688 253.207031 69.785156 253.429688 69.867188 C 253.378906 69.832031 253.480469 69.757812 253.496094 69.699219 C 253.53125 69.570312 253.554688 69.445312 253.578125 69.316406 C 253.679688 68.6875 253.753906 68.0625 253.886719 67.4375 C 254.304688 65.507812 254.871094 63.546875 255.980469 61.835938 C 256.304688 61.332031 256.882812 60.527344 257.632812 60.527344 C 257.933594 60.527344 258.25 60.671875 258.5 60.816406 C 258.996094 61.101562 259.429688 61.507812 259.792969 61.921875 C 259.945312 62.097656 260.136719 62.296875 260.171875 62.523438 C 260.25 63.03125 259.917969 63.6875 259.722656 64.140625 C 259.582031 64.460938 259.421875 64.988281 259.078125 65.195312 C 258.800781 65.359375 258.597656 64.847656 258.496094 64.695312 C 258.242188 64.304688 257.949219 63.917969 257.589844 63.601562 C 257.414062 63.445312 257.199219 63.296875 256.941406 63.324219 C 256.671875 63.351562 256.46875 63.542969 256.308594 63.722656 C 255.941406 64.136719 255.699219 64.652344 255.515625 65.152344 C 254.6875 67.414062 254.578125 69.835938 253.761719 72.101562 C 253.5625 72.65625 253.351562 73.210938 253.085938 73.742188 C 253.027344 73.859375 252.910156 74.171875 252.726562 74.179688 C 252.5 74.191406 252.425781 73.730469 252.398438 73.605469 C 252.246094 72.921875 252.199219 72.222656 252.042969 71.539062 C 251.8125 70.535156 251.460938 69.550781 251.046875 68.597656 C 250.730469 67.859375 250.140625 66.800781 249.640625 66.148438 Z M 249.640625 66.148438 " fill-opacity="1" fill-rule="evenodd"/><path fill="#000000" d="M 175.28125 59.320312 C 175.316406 59.324219 175.238281 59.375 175.21875 59.402344 C 175.179688 59.453125 175.140625 59.503906 175.101562 59.550781 C 175.027344 59.640625 174.777344 60.050781 174.617188 59.972656 C 174.199219 59.769531 173.859375 59.339844 173.484375 59.078125 C 173.207031 58.886719 172.921875 58.703125 172.628906 58.53125 C 172.480469 58.445312 172.273438 58.363281 172.15625 58.238281 C 171.964844 58.03125 172.0625 57.503906 172.066406 57.265625 C 172.074219 56.449219 172.035156 54.976562 173.183594 54.726562 C 174.015625 54.550781 174.761719 55.183594 175.324219 55.636719 C 177.023438 57.023438 177.683594 58.820312 178.25 60.753906 C 178.414062 61.308594 178.527344 61.878906 178.710938 62.429688 C 178.769531 62.605469 178.84375 62.957031 179.066406 63.039062 C 179.015625 63.003906 179.121094 62.929688 179.132812 62.871094 C 179.167969 62.746094 179.195312 62.617188 179.214844 62.488281 C 179.316406 61.863281 179.390625 61.238281 179.523438 60.613281 C 179.941406 58.683594 180.507812 56.722656 181.617188 55.007812 C 181.941406 54.503906 182.519531 53.703125 183.273438 53.703125 C 183.574219 53.703125 183.886719 53.847656 184.136719 53.992188 C 184.632812 54.277344 185.066406 54.679688 185.429688 55.097656 C 185.582031 55.269531 185.773438 55.46875 185.808594 55.699219 C 185.886719 56.207031 185.558594 56.859375 185.359375 57.316406 C 185.21875 57.632812 185.058594 58.164062 184.71875 58.371094 C 184.441406 58.535156 184.234375 58.023438 184.132812 57.867188 C 183.878906 57.480469 183.585938 57.09375 183.230469 56.773438 C 183.054688 56.621094 182.835938 56.46875 182.578125 56.496094 C 182.308594 56.527344 182.105469 56.71875 181.945312 56.894531 C 181.578125 57.3125 181.335938 57.828125 181.15625 58.324219 C 180.328125 60.585938 180.21875 63.011719 179.402344 65.277344 C 179.203125 65.832031 178.988281 66.386719 178.722656 66.917969 C 178.664062 67.035156 178.546875 67.347656 178.363281 67.355469 C 178.136719 67.367188 178.0625 66.902344 178.035156 66.777344 C 177.882812 66.09375 177.835938 65.398438 177.679688 64.714844 C 177.449219 63.707031 177.097656 62.726562 176.683594 61.769531 C 176.367188 61.035156 175.78125 59.976562 175.28125 59.320312 Z M 175.28125 59.320312 " fill-opacity="1" fill-rule="evenodd"/><path fill="#000000" d="M 267.722656 92.316406 C 267.722656 92.300781 267.734375 92.292969 267.769531 92.304688 L 267.722656 92.316406 C 267.746094 92.378906 269.125 95.953125 268.996094 97.050781 C 268.996094 97.050781 268.742188 97.273438 268.707031 97.308594 C 268.519531 97.484375 268.320312 97.652344 268.132812 97.820312 C 267.46875 98.417969 266.789062 99.015625 266.113281 99.597656 C 264.242188 101.191406 262.316406 102.714844 260.386719 104.230469 C 254.601562 108.78125 247.921875 114.984375 240.136719 116.164062 C 238.035156 116.484375 235.839844 115.785156 233.933594 115.011719 C 232.078125 114.261719 230.265625 113.367188 228.792969 112.019531 C 223.078125 106.773438 224.144531 97.726562 226.457031 91.242188 C 225.90625 91.78125 225.59375 92.753906 225.265625 93.417969 C 224.320312 95.355469 223.558594 97.382812 223.113281 99.476562 C 221.457031 107.207031 222.085938 117.445312 230.5 121.320312 C 231.726562 121.886719 233.035156 122.273438 234.390625 122.4375 C 246.332031 123.890625 256.8125 115.664062 264.242188 107.757812 C 266.789062 105.039062 269.289062 102.058594 271.125 98.847656 C 271.605469 98.003906 271.871094 96.601562 271.859375 96.121094 C 271.777344 94.175781 271.605469 92.476562 271.3125 90.546875 C 273.261719 89.105469 274.863281 88.640625 276.617188 86.859375 C 276.640625 86.828125 276.699219 87.207031 276.699219 87.230469 C 276.734375 87.425781 276.792969 87.613281 276.851562 87.804688 C 277.058594 88.441406 277.316406 89.054688 277.621094 89.652344 C 278.507812 91.378906 279.757812 93.085938 281.488281 94.121094 C 284.980469 96.214844 289.902344 94.867188 292.738281 92.34375 C 294.691406 90.605469 295.988281 88.296875 297.203125 86.0625 C 297.261719 85.953125 297.402344 86.398438 297.425781 86.4375 C 297.542969 86.671875 297.660156 86.910156 297.800781 87.140625 C 298.230469 87.882812 298.722656 88.609375 299.257812 89.285156 C 300.964844 91.40625 303.453125 92.484375 306.234375 91.707031 C 307.238281 91.421875 308.199219 90.898438 309.109375 90.402344 C 316.550781 86.328125 313.6875 78.199219 313.023438 73.144531 C 312.789062 73.105469 312.230469 73.695312 312.066406 73.820312 C 311.175781 74.523438 309.855469 75.507812 309.425781 76.570312 C 309.121094 77.34375 309.820312 78.460938 310.042969 79.1875 C 310.804688 81.703125 310.851562 84.367188 307.648438 84.980469 C 306.972656 85.105469 306.269531 85.113281 305.605469 84.972656 C 304.679688 84.777344 303.957031 84.226562 303.335938 83.574219 C 302.554688 82.753906 301.886719 81.835938 301.351562 80.851562 C 300.554688 79.375 299.925781 77.601562 299.644531 75.949219 C 299.339844 76.019531 298.945312 77.640625 298.839844 77.886719 C 298.054688 79.699219 297.273438 81.507812 296.035156 83.089844 C 294.082031 85.582031 290.953125 88.191406 287.480469 88.140625 C 282.65625 88.070312 280.132812 81.824219 280.4375 77.914062 C 277.058594 80.324219 273.917969 83.476562 269.96875 85.089844 C 269.875 85.128906 269.945312 84.890625 269.898438 84.804688 C 269.78125 84.609375 269.640625 84.429688 269.511719 84.25 C 269.101562 83.671875 268.71875 83.085938 268.285156 82.519531 C 267.023438 80.867188 265.714844 79.070312 263.949219 77.863281 C 261.390625 76.113281 258.472656 76.402344 256.191406 78.445312 C 253.820312 80.585938 251.894531 83.894531 251.167969 86.953125 C 250.992188 87.671875 250.96875 88.414062 250.945312 89.152344 C 250.886719 92.113281 252.839844 93.382812 255.761719 93.804688 C 259.710938 94.375 263.960938 93.457031 267.722656 92.316406 Z M 256.671875 87.070312 C 256.671875 87.070312 257.082031 85.859375 257.152344 85.703125 C 257.5 84.902344 258.691406 83.074219 260.082031 83.53125 C 261.078125 83.859375 261.765625 84.882812 262.234375 85.628906 C 262.363281 85.839844 262.746094 86.5625 262.746094 86.5625 C 262.746094 86.5625 261.671875 87.035156 261.238281 87.132812 C 260.796875 87.234375 260.011719 87.34375 259.359375 87.347656 C 258.015625 87.355469 256.671875 87.070312 256.671875 87.070312 Z M 256.671875 87.070312 " fill-opacity="1" fill-rule="evenodd"/><path fill="#000000" d="M 305.042969 97.707031 C 305.019531 97.589844 306.339844 96.738281 306.457031 96.859375 C 306.84375 97.289062 306.914062 98.28125 307.007812 98.808594 C 307.332031 100.804688 307.132812 103.179688 304.9375 104.136719 C 304.203125 104.453125 303.429688 104.472656 302.671875 104.277344 C 302.25 104.171875 301.691406 103.769531 301.269531 103.9375 C 299.996094 104.433594 299.84375 106.578125 298.089844 106.371094 C 296.152344 106.144531 294.914062 103.585938 292.832031 104.335938 C 291.023438 104.992188 289.46875 106.574219 288.03125 107.75 C 284.96875 110.246094 281.980469 113.003906 278.378906 114.796875 C 276.207031 115.878906 273.976562 115.773438 271.695312 115.003906 C 271.289062 114.863281 270.003906 114.566406 269.816406 114.121094 C 269.722656 113.90625 270.410156 113.964844 270.492188 113.96875 C 271.429688 113.984375 272.363281 113.964844 273.285156 113.855469 C 275.597656 113.578125 277.714844 112.824219 279.628906 111.574219 C 281.933594 110.089844 283.824219 108.132812 285.695312 106.195312 C 287.109375 104.730469 288.570312 103.136719 290.4375 102.179688 C 291.488281 101.640625 292.703125 101.320312 293.898438 101.566406 C 295.171875 101.828125 296.199219 102.632812 297.566406 102.289062 C 299.292969 101.851562 299.796875 99.710938 301.398438 99.273438 C 302.507812 98.972656 302.976562 101.210938 303.980469 100.574219 C 305.042969 99.90625 304.085938 98.273438 305.042969 97.707031 Z M 305.042969 97.707031 " fill-opacity="1" fill-rule="evenodd"/><path fill="#000000" d="M 273.660156 51.421875 C 273.765625 51.453125 273.554688 51.476562 273.589844 51.378906 C 273.671875 51.183594 273.871094 50.714844 273.953125 50.515625 C 274.175781 49.941406 274.441406 49.378906 274.710938 48.816406 C 275.550781 47.058594 276.617188 45.007812 278.601562 44.230469 C 279.886719 43.734375 281.3125 43.734375 282.679688 43.667969 C 286 43.496094 289.585938 43.820312 292.855469 44.414062 C 294.503906 44.710938 296.839844 45.25 297.238281 47.097656 C 297.671875 49.109375 296.082031 51.277344 294.785156 52.695312 C 291.488281 56.304688 286.59375 59.1875 281.617188 59.941406 C 279.96875 60.191406 278.332031 60.253906 276.6875 60.027344 C 276.21875 59.964844 275.449219 59.917969 275.097656 59.585938 C 274.863281 59.367188 275.609375 59.023438 275.726562 58.96875 C 276.570312 58.589844 277.457031 58.3125 278.308594 57.976562 C 281.207031 56.847656 284.210938 55.761719 286.839844 54.125 C 287.320312 53.828125 288.988281 52.953125 288.929688 52.1875 C 288.917969 51.976562 288.207031 51.929688 288.078125 51.90625 C 287.097656 51.742188 286.101562 51.667969 285.121094 51.566406 C 282.140625 51.261719 276.664062 51.378906 273.660156 51.421875 Z M 273.660156 51.421875 " fill-opacity="1" fill-rule="evenodd"/><path fill="#000000" d="M 305.917969 55.097656 C 305.835938 55.089844 305.664062 54.949219 305.558594 54.914062 C 305.265625 54.816406 304.960938 54.703125 304.667969 54.585938 C 303.652344 54.167969 302.730469 53.566406 302.660156 52.414062 C 302.53125 50.085938 304.644531 47.347656 306.550781 46.066406 C 307.871094 45.167969 309.273438 45.320312 310.617188 46.328125 C 312.402344 47.671875 312.484375 49.628906 312.160156 51.347656 C 311.714844 53.648438 309.9375 55.882812 308.453125 57.585938 C 302.238281 64.75 284.023438 74.070312 282.433594 73.089844 C 282.832031 73.152344 283.800781 72.40625 284.105469 72.226562 C 285.730469 71.292969 287.386719 70.40625 288.988281 69.441406 C 292.785156 67.152344 296.339844 64.492188 299.796875 61.753906 C 302.484375 59.613281 303.921875 57.851562 305.917969 55.097656 Z M 305.917969 55.097656 L 305.941406 55.058594 C 305.941406 55.089844 305.929688 55.097656 305.917969 55.097656 Z M 307.894531 52.078125 C 307.894531 52.082031 307.894531 52.082031 307.894531 52.082031 L 307.894531 52.078125 C 307.871094 52.050781 307.425781 51.765625 307.402344 51.75 C 307.203125 51.59375 307.054688 51.414062 306.949219 51.214844 C 306.5625 50.570312 306.5625 49.792969 307.4375 49.410156 C 308.152344 49.101562 308.910156 49.367188 309.039062 50.007812 C 309.132812 50.453125 308.664062 51.699219 307.894531 52.078125 Z M 307.894531 52.078125 " fill-opacity="1" fill-rule="evenodd"/><path fill="#000000" d="M 232.589844 58.742188 C 232.554688 58.726562 231.925781 59.941406 231.855469 60.0625 C 231.714844 60.335938 230.488281 62.359375 231.09375 62.457031 C 231.785156 62.566406 232.730469 62.042969 233.339844 61.800781 C 234.996094 61.136719 236.632812 60.378906 238.257812 59.625 C 244.007812 56.972656 249.8125 54.445312 255.714844 52.109375 C 257.070312 51.570312 258.425781 51.042969 259.792969 50.523438 C 261.25 49.964844 263.097656 48.566406 262.59375 46.738281 C 262.453125 46.234375 238.691406 56.261719 232.589844 58.742188 Z M 232.589844 58.742188 " fill-opacity="1" fill-rule="evenodd"/><path fill="#000000" d="M 206.425781 100.78125 C 206.414062 100.703125 206.058594 101.164062 206.03125 101.195312 C 205.835938 101.484375 205.652344 101.785156 205.480469 102.089844 C 204.945312 103.046875 204.460938 104.027344 204.078125 105.046875 C 203.058594 107.789062 202.378906 111.023438 203.066406 113.898438 C 203.316406 114.933594 203.785156 116.515625 205.160156 116.660156 C 207.285156 116.882812 208.453125 114.574219 208.894531 113.046875 C 209.011719 112.644531 209.417969 111.621094 209.128906 111.21875 C 209.078125 111.140625 208.945312 111.414062 208.929688 111.4375 C 208.746094 111.789062 208.5625 112.140625 208.355469 112.488281 C 207.941406 113.191406 206.910156 114.265625 205.640625 113.824219 C 204.492188 113.425781 204.25 111.578125 204.320312 110.570312 C 204.503906 107.640625 205.523438 103.804688 206.425781 100.78125 Z M 206.425781 100.78125 " fill-opacity="1" fill-rule="evenodd"/><path fill="#000000" d="M 179.34375 66.238281 C 179.332031 66.164062 178.976562 66.621094 178.949219 66.652344 C 178.753906 66.941406 178.570312 67.242188 178.398438 67.546875 C 177.863281 68.507812 177.378906 69.488281 176.996094 70.507812 C 175.976562 73.25 175.296875 76.480469 175.984375 79.355469 C 176.234375 80.390625 176.703125 81.976562 178.078125 82.121094 C 180.203125 82.34375 181.371094 80.035156 181.8125 78.503906 C 181.929688 78.105469 182.335938 77.078125 182.046875 76.675781 C 181.996094 76.597656 181.859375 76.871094 181.847656 76.894531 C 181.664062 77.25 181.480469 77.601562 181.273438 77.945312 C 180.859375 78.648438 179.828125 79.722656 178.558594 79.28125 C 177.410156 78.886719 177.167969 77.035156 177.238281 76.027344 C 177.421875 73.097656 178.441406 69.261719 179.34375 66.238281 Z M 179.34375 66.238281 " fill-opacity="1" fill-rule="evenodd"/><path fill="#000000" d="M 128.632812 42.195312 C 128.617188 42.117188 128.261719 42.574219 128.238281 42.605469 C 128.042969 42.898438 127.855469 43.195312 127.683594 43.503906 C 127.152344 44.460938 126.664062 45.441406 126.285156 46.460938 C 125.265625 49.203125 124.582031 52.4375 125.273438 55.308594 C 125.523438 56.34375 125.988281 57.929688 127.367188 58.074219 C 129.492188 58.296875 130.65625 55.988281 131.101562 54.460938 C 131.214844 54.058594 131.621094 53.035156 131.332031 52.628906 C 131.285156 52.554688 131.148438 52.828125 131.136719 52.847656 C 130.953125 53.203125 130.769531 53.554688 130.558594 53.902344 C 130.148438 54.605469 129.117188 55.675781 127.84375 55.238281 C 126.695312 54.839844 126.457031 52.992188 126.523438 51.984375 C 126.707031 49.050781 127.726562 45.214844 128.632812 42.195312 Z M 128.632812 42.195312 " fill-opacity="1" fill-rule="evenodd"/><path fill="#000000" d="M 202.28125 52.242188 C 202.105469 52.351562 202.152344 53.070312 202.140625 53.238281 C 202.046875 54.210938 201.980469 55.1875 201.910156 56.160156 C 201.828125 57.382812 201.464844 59.027344 201.828125 60.226562 C 202.082031 61.113281 203.3125 61.917969 203.953125 62.519531 C 205.238281 63.722656 206.394531 65.085938 207.609375 66.367188 C 208.570312 67.382812 209.550781 68.386719 210.472656 69.425781 C 210.625 69.59375 211.40625 70.164062 211.382812 70.40625 C 211.359375 70.746094 210.542969 71.367188 210.320312 71.609375 C 209.304688 72.734375 208.335938 73.910156 207.445312 75.128906 C 204.316406 79.402344 202.527344 84.765625 204.046875 89.949219 C 204.609375 91.859375 205.589844 94.226562 207.820312 94.734375 C 211.035156 95.46875 214.070312 93.300781 216.222656 91.347656 C 220.4375 87.511719 225.789062 82.328125 223.546875 76.296875 C 222.742188 74.117188 220.917969 72.40625 219.105469 70.949219 C 218.253906 70.261719 216.804688 69.582031 217.179688 68.332031 C 217.636719 66.789062 218.921875 65.394531 219.890625 64.132812 C 221.816406 61.621094 223.921875 59.136719 225.371094 56.332031 C 226.058594 55.003906 226.164062 53.5625 226.164062 52.105469 C 226.164062 51.742188 226.28125 51.015625 226.105469 50.683594 C 226.09375 50.660156 225.054688 52.050781 224.984375 52.15625 C 224.25 53.1875 223.5 54.210938 222.753906 55.238281 C 220.800781 57.929688 218.769531 60.546875 216.6875 63.144531 C 216.292969 63.640625 215.34375 65.46875 214.65625 65.640625 C 214.410156 65.703125 213.605469 64.894531 213.417969 64.761719 C 212.390625 63.988281 210.308594 62.8125 209.726562 61.707031 C 209.105469 60.554688 212.472656 60.671875 212.191406 59.894531 C 211.863281 58.96875 210.367188 58.039062 209.609375 57.472656 C 207.609375 55.980469 204.234375 53.792969 202.28125 52.242188 Z M 212.550781 72.832031 C 212.5625 72.769531 212.320312 73.113281 212.296875 73.15625 C 212.121094 73.402344 211.945312 73.652344 211.769531 73.898438 C 211.199219 74.71875 210.648438 75.550781 210.109375 76.398438 C 208.765625 78.542969 207.261719 80.820312 206.617188 83.277344 C 206.347656 84.328125 206.242188 85.617188 207.410156 86.191406 C 208.382812 86.671875 209.773438 86.492188 210.8125 86.378906 C 214.140625 86.023438 219.128906 84.019531 219.210938 80.246094 C 219.269531 77.699219 214.363281 74.277344 212.550781 72.832031 Z M 212.550781 72.832031 " fill-opacity="1" fill-rule="evenodd"/><path fill="#000000" d="M 75.757812 64.03125 C 75.582031 64.140625 75.628906 64.859375 75.617188 65.027344 C 75.523438 66 75.453125 66.976562 75.382812 67.953125 C 75.300781 69.171875 74.941406 70.816406 75.300781 72.019531 C 75.558594 72.902344 76.785156 73.707031 77.429688 74.308594 C 78.714844 75.511719 79.871094 76.875 81.085938 78.15625 C 82.042969 79.171875 83.027344 80.175781 83.949219 81.214844 C 84.101562 81.382812 84.882812 81.953125 84.859375 82.195312 C 84.835938 82.539062 84.019531 83.15625 83.796875 83.398438 C 82.78125 84.523438 81.8125 85.699219 80.921875 86.917969 C 77.792969 91.191406 75.3125 97.550781 76.832031 102.738281 C 77.394531 104.644531 79.066406 106.015625 81.296875 106.523438 C 84.507812 107.257812 87.546875 105.089844 89.699219 103.136719 C 93.914062 99.300781 99.265625 94.121094 97.023438 88.085938 C 96.21875 85.910156 94.394531 84.195312 92.582031 82.738281 C 91.730469 82.054688 90.28125 81.371094 90.65625 80.121094 C 91.109375 78.578125 92.394531 77.1875 93.367188 75.921875 C 95.292969 73.414062 97.398438 70.925781 98.847656 68.121094 C 99.535156 66.792969 99.640625 65.355469 99.640625 63.894531 C 99.640625 63.53125 99.757812 62.808594 99.582031 62.472656 C 99.570312 62.449219 98.53125 63.84375 98.460938 63.945312 C 97.722656 64.976562 96.976562 66 96.230469 67.027344 C 94.277344 69.71875 92.246094 72.335938 90.164062 74.933594 C 89.765625 75.429688 88.820312 77.261719 88.132812 77.429688 C 87.886719 77.492188 87.082031 76.683594 86.894531 76.550781 C 85.863281 75.777344 83.785156 74.601562 83.199219 73.496094 C 82.582031 72.34375 85.945312 72.460938 85.667969 71.683594 C 85.339844 70.757812 83.84375 69.828125 83.085938 69.261719 C 81.085938 67.769531 77.710938 65.582031 75.757812 64.03125 Z M 86.425781 84.261719 C 86.4375 84.203125 85.796875 84.90625 85.773438 84.945312 C 85.597656 85.191406 85.421875 85.441406 85.246094 85.6875 C 84.671875 86.507812 84.125 87.34375 83.585938 88.1875 C 82.242188 90.332031 81.039062 92.394531 80.398438 94.851562 C 80.128906 95.902344 79.230469 98.539062 80.398438 99.113281 C 81.367188 99.59375 82.792969 99.472656 83.832031 99.359375 C 87.160156 99.003906 92.605469 95.8125 92.6875 92.039062 C 92.746094 89.488281 88.226562 85.710938 86.425781 84.261719 Z M 86.425781 84.261719 " fill-opacity="1" fill-rule="evenodd"/><path fill="#000000" d="M 199.996094 37.34375 C 199.890625 37.304688 200.148438 37.179688 200.207031 37.09375 C 200.335938 36.933594 200.449219 36.78125 200.578125 36.625 C 201.011719 36.070312 201.445312 35.515625 201.875 34.964844 C 202.660156 33.957031 203.441406 32.953125 204.25 31.964844 C 204.433594 31.742188 204.84375 30.988281 205.160156 30.890625 C 205.253906 30.863281 205.511719 31.179688 205.558594 31.230469 C 205.976562 31.605469 206.433594 31.941406 206.867188 32.300781 C 208.140625 33.339844 209.390625 34.402344 210.652344 35.453125 C 211.058594 35.792969 211.9375 36.226562 212.148438 36.742188 C 212.203125 36.875 211.667969 37.339844 211.597656 37.417969 C 210.988281 38.09375 210.382812 38.777344 209.773438 39.457031 C 209.039062 40.277344 208.300781 41.09375 207.578125 41.917969 C 207.378906 42.128906 207.085938 42.652344 206.796875 42.753906 C 206.550781 42.84375 205.789062 41.992188 205.625 41.867188 C 204.433594 40.933594 201.222656 38.230469 199.996094 37.34375 Z M 199.996094 37.34375 " fill-opacity="1" fill-rule="evenodd"/><path fill="#000000" d="M 212.179688 36.726562 C 212.074219 36.6875 212.332031 36.5625 212.390625 36.472656 C 212.519531 36.316406 212.636719 36.160156 212.761719 36.003906 C 213.195312 35.453125 213.628906 34.898438 214.058594 34.34375 C 214.84375 33.339844 215.625 32.332031 216.433594 31.34375 C 216.621094 31.125 217.027344 30.367188 217.34375 30.273438 C 217.4375 30.246094 217.695312 30.558594 217.742188 30.609375 C 218.160156 30.984375 218.617188 31.324219 219.050781 31.679688 C 220.324219 32.71875 221.574219 33.78125 222.835938 34.835938 C 223.242188 35.175781 224.121094 35.609375 224.332031 36.121094 C 224.390625 36.253906 223.851562 36.71875 223.78125 36.796875 C 223.175781 37.476562 222.566406 38.160156 221.957031 38.839844 C 221.222656 39.65625 220.488281 40.476562 219.761719 41.296875 C 219.5625 41.511719 219.273438 42.03125 218.980469 42.136719 C 218.734375 42.222656 217.976562 41.375 217.8125 41.246094 C 216.621094 40.3125 213.40625 37.613281 212.179688 36.726562 Z M 212.179688 36.726562 " fill-opacity="1" fill-rule="evenodd"/><path fill="#000000" d="M 144.207031 124.199219 C 144.1875 124.199219 149.277344 122.9375 150.199219 122.746094 C 154.109375 121.949219 156.546875 120.738281 159.984375 119.09375 C 162.066406 118.097656 164.082031 116.972656 165.894531 115.652344 C 167.761719 114.292969 168.9375 112.679688 170.492188 111.125 C 171.175781 110.449219 172.070312 109.628906 173.261719 109.648438 C 174.011719 109.660156 174.519531 110.074219 174.929688 110.53125 C 175.832031 111.539062 176.195312 112.617188 175.765625 113.824219 C 175.621094 114.238281 175.402344 114.792969 174.914062 115.035156 C 173.792969 115.59375 171.707031 114.726562 170.738281 114.277344 C 170.390625 114.117188 170.070312 113.9375 169.769531 113.730469 C 169.691406 113.679688 169.570312 113.542969 169.445312 113.589844 C 168.988281 113.773438 168.710938 114.664062 168.511719 115.003906 C 167.957031 115.964844 167.335938 116.738281 166.292969 117.410156 C 164 118.886719 161.976562 120.070312 159.464844 121.285156 C 157.617188 122.175781 155.21875 123.203125 153.128906 123.699219 C 151.71875 124.03125 150.113281 124.363281 148.554688 124.273438 C 147.683594 124.222656 144.695312 124.382812 144.207031 124.199219 Z M 171.25 112.390625 C 171.269531 112.367188 171.316406 112.292969 171.34375 112.265625 C 171.414062 112.199219 171.488281 112.132812 171.566406 112.070312 C 171.816406 111.859375 172.164062 111.605469 172.542969 111.578125 C 173.40625 111.515625 174.011719 112.363281 174.082031 112.957031 C 174.117188 113.257812 173.886719 113.347656 173.542969 113.277344 C 173.039062 113.175781 171.714844 112.585938 171.25 112.390625 Z M 171.25 112.390625 C 171.238281 112.398438 171.234375 112.398438 171.234375 112.382812 Z M 171.25 112.390625 " fill-opacity="1" fill-rule="evenodd"/><path fill="#000000" d="M 75.167969 55.113281 C 75.0625 55.074219 75.320312 54.949219 75.378906 54.863281 C 75.507812 54.703125 75.621094 54.550781 75.75 54.394531 C 76.183594 53.839844 76.617188 53.285156 77.046875 52.734375 C 77.832031 51.726562 78.613281 50.722656 79.421875 49.734375 C 79.605469 49.511719 80.015625 48.757812 80.332031 48.660156 C 80.425781 48.632812 80.683594 48.949219 80.730469 49 C 81.148438 49.375 81.605469 49.710938 82.039062 50.070312 C 83.3125 51.109375 84.5625 52.171875 85.824219 53.222656 C 86.230469 53.5625 87.109375 53.996094 87.320312 54.511719 C 87.375 54.644531 86.839844 55.109375 86.769531 55.1875 C 86.160156 55.863281 85.554688 56.546875 84.945312 57.226562 C 84.210938 58.046875 83.472656 58.863281 82.75 59.6875 C 82.550781 59.898438 82.257812 60.421875 81.96875 60.523438 C 81.722656 60.613281 80.960938 59.761719 80.796875 59.636719 C 79.605469 58.703125 76.394531 56 75.167969 55.113281 Z M 75.167969 55.113281 " fill-opacity="1" fill-rule="evenodd"/><path fill="#000000" d="M 85.871094 54.75 C 85.769531 54.710938 86.023438 54.585938 86.082031 54.496094 C 86.210938 54.339844 86.328125 54.1875 86.457031 54.03125 C 86.890625 53.476562 87.320312 52.921875 87.753906 52.367188 C 88.535156 51.363281 89.320312 50.355469 90.125 49.367188 C 90.3125 49.148438 90.722656 48.390625 91.035156 48.296875 C 91.128906 48.269531 91.386719 48.585938 91.433594 48.632812 C 91.855469 49.007812 92.3125 49.347656 92.742188 49.703125 C 94.015625 50.746094 95.265625 51.804688 96.527344 52.859375 C 96.9375 53.199219 97.8125 53.632812 98.023438 54.144531 C 98.082031 54.28125 97.546875 54.746094 97.476562 54.820312 C 96.867188 55.5 96.261719 56.183594 95.652344 56.863281 C 94.917969 57.679688 94.179688 58.5 93.457031 59.324219 C 93.257812 59.535156 92.964844 60.054688 92.671875 60.160156 C 92.425781 60.246094 91.667969 59.398438 91.503906 59.269531 C 90.3125 58.335938 87.097656 55.636719 85.871094 54.75 Z M 85.871094 54.75 " fill-opacity="1" fill-rule="evenodd"/><path fill="#000000" d="M 306.386719 22.410156 C 307.113281 22.132812 308.597656 22.621094 309.296875 22.761719 C 312.332031 23.378906 315.265625 24.496094 318.070312 25.792969 C 328.511719 30.621094 336.078125 39.679688 340.757812 50.027344 C 341.933594 52.609375 342.898438 55.328125 343.496094 58.101562 C 343.65625 58.847656 344.140625 60.214844 343.808594 60.984375 C 343.507812 61.648438 342.75 62.167969 342.230469 62.644531 C 341.128906 63.671875 340.105469 64.574219 338.839844 65.347656 C 337.207031 63.839844 334.917969 62.769531 333.066406 61.507812 C 332.503906 57.027344 330.582031 52.546875 328.605469 48.546875 C 325.234375 41.75 320.773438 35.515625 315.355469 30.207031 C 312.898438 27.808594 309.414062 24.066406 306.386719 22.410156 Z M 306.386719 22.410156 " fill-opacity="1" fill-rule="evenodd"/><path fill="#000000" d="M 306.386719 117.640625 C 307.113281 117.914062 308.597656 117.429688 309.296875 117.289062 C 312.332031 116.667969 315.265625 115.554688 318.070312 114.253906 C 328.511719 109.429688 336.078125 100.367188 340.757812 90.023438 C 341.933594 87.441406 342.898438 84.71875 343.496094 81.949219 C 343.65625 81.199219 344.140625 79.835938 343.808594 79.0625 C 343.507812 78.402344 342.75 77.882812 342.230469 77.402344 C 341.128906 76.378906 340.105469 75.472656 338.839844 74.703125 C 337.207031 76.207031 334.917969 77.28125 333.066406 78.539062 C 332.503906 83.023438 330.582031 87.5 328.605469 91.5 C 325.234375 98.300781 320.773438 104.53125 315.355469 109.839844 C 312.898438 112.238281 309.414062 115.980469 306.386719 117.640625 Z M 306.386719 117.640625 " fill-opacity="1" fill-rule="evenodd"/><path fill="#000000" d="M 352.097656 64.0625 C 351.808594 64.214844 351.546875 64.355469 351.476562 64.402344 C 349.820312 65.699219 348.1875 66.914062 346.335938 67.941406 C 345.703125 68.292969 345.046875 68.585938 344.40625 68.910156 C 344.300781 68.964844 344.015625 69.097656 343.863281 69.253906 C 343.65625 69.460938 343.601562 69.703125 343.65625 69.941406 C 343.714844 70.179688 343.886719 70.382812 344.1875 70.476562 C 344.417969 70.546875 344.785156 70.53125 344.898438 70.535156 C 345.082031 70.535156 345.648438 70.75 346.382812 71.042969 C 348.324219 71.804688 351.375 73.191406 352.777344 73.980469 C 352.9375 74.070312 353.421875 74.402344 353.835938 74.691406 C 353.582031 74.855469 353.316406 75.011719 353.179688 75.066406 C 351.789062 75.601562 350.144531 76.148438 349.246094 77.421875 C 348.914062 77.898438 348.808594 78.449219 348.808594 79.03125 C 348.820312 79.722656 349.015625 80.457031 349.039062 81.085938 C 349.097656 82.773438 348.796875 84.242188 347.808594 85.640625 C 347.039062 86.742188 346.082031 87.785156 344.898438 88.449219 C 344.703125 88.5625 343.046875 89.367188 343.046875 89.367188 C 342.816406 89.480469 342.691406 89.738281 342.738281 89.992188 C 342.785156 90.25 343 90.4375 343.253906 90.457031 C 343.253906 90.457031 345.796875 90.636719 346.554688 90.535156 C 350.464844 90.03125 352.84375 87.535156 354.558594 84.191406 C 354.8125 83.707031 354.996094 83.097656 355.191406 82.5 C 355.363281 82.003906 355.535156 81.515625 355.824219 81.175781 C 356.101562 80.847656 356.503906 80.628906 356.917969 80.417969 C 357.433594 80.15625 357.960938 79.910156 358.375 79.597656 C 359.652344 78.640625 360.550781 77.433594 361.378906 76.078125 C 361.699219 75.550781 362 75.011719 362.285156 74.46875 C 362.4375 74.207031 363.308594 72.585938 363.308594 72.585938 C 363.460938 72.304688 363.355469 71.960938 363.078125 71.808594 C 363.078125 71.808594 362.195312 71.328125 362.035156 71.242188 C 361.457031 70.960938 359.871094 70.242188 358.6875 69.710938 C 358.675781 69.710938 363.242188 68.304688 363.242188 68.304688 C 363.527344 68.214844 363.699219 67.917969 363.632812 67.621094 C 363.632812 67.621094 363.160156 65.625 362.195312 63.738281 C 361.515625 62.410156 360.585938 61.148438 359.433594 60.582031 C 359.007812 60.375 358.433594 60.214844 357.894531 60.039062 C 357.457031 59.902344 357.042969 59.765625 356.789062 59.53125 C 356.699219 59.445312 356.6875 59.296875 356.664062 59.152344 C 356.605469 58.867188 356.570312 58.570312 356.515625 58.347656 C 356.226562 57.292969 355.777344 56.230469 355.214844 55.296875 C 352.867188 51.480469 346.980469 48.65625 342.773438 48.894531 C 342.496094 48.910156 342.265625 49.121094 342.230469 49.394531 C 342.195312 49.667969 342.359375 49.929688 342.621094 50.015625 C 343.980469 50.472656 345.105469 51.785156 346.074219 53.347656 C 347.613281 55.847656 348.683594 59.007812 349.382812 60.828125 C 349.867188 62.082031 350.339844 62.875 351.464844 63.660156 C 351.671875 63.800781 351.878906 63.9375 352.097656 64.0625 Z M 345.519531 89.417969 C 346.832031 88.671875 347.902344 87.523438 348.75 86.300781 C 349.890625 84.683594 350.257812 82.992188 350.1875 81.042969 C 350.167969 80.515625 350.027344 79.910156 349.980469 79.320312 C 349.9375 78.878906 349.9375 78.441406 350.1875 78.085938 C 350.960938 76.992188 352.410156 76.597656 353.59375 76.140625 C 353.984375 75.984375 355.167969 75.171875 355.167969 75.171875 C 355.328125 75.066406 355.410156 74.890625 355.410156 74.703125 C 355.421875 74.515625 355.328125 74.339844 355.179688 74.234375 C 355.179688 74.234375 353.660156 73.15625 353.339844 72.976562 C 351.695312 72.054688 347.867188 70.332031 346.027344 69.675781 C 345.898438 69.632812 345.796875 69.597656 345.679688 69.5625 C 346.09375 69.367188 346.496094 69.167969 346.898438 68.949219 C 348.808594 67.890625 350.476562 66.644531 352.191406 65.308594 C 352.328125 65.199219 353.421875 64.714844 353.671875 64.546875 C 353.847656 64.421875 353.902344 64.285156 353.925781 64.222656 C 353.984375 64.070312 354.019531 63.804688 353.742188 63.574219 C 353.648438 63.496094 353.132812 63.285156 353.074219 63.261719 C 352.742188 63.117188 352.421875 62.925781 352.121094 62.714844 C 351.210938 62.082031 350.84375 61.429688 350.453125 60.417969 C 349.742188 58.550781 348.636719 55.308594 347.050781 52.742188 C 346.453125 51.757812 345.761719 50.871094 345.015625 50.183594 C 348.511719 50.773438 352.464844 53.023438 354.238281 55.894531 C 354.742188 56.738281 355.144531 57.699219 355.398438 58.652344 C 355.46875 58.902344 355.488281 59.253906 355.570312 59.566406 C 355.652344 59.890625 355.800781 60.175781 356.007812 60.371094 C 356.296875 60.644531 356.730469 60.855469 357.214844 61.027344 C 357.789062 61.234375 358.457031 61.386719 358.929688 61.617188 C 359.871094 62.082031 360.609375 63.160156 361.171875 64.261719 C 361.78125 65.453125 362.171875 66.691406 362.367188 67.367188 C 362.367188 67.367188 356.871094 69.0625 356.871094 69.0625 C 356.652344 69.136719 356.492188 69.339844 356.46875 69.578125 C 356.457031 69.820312 356.59375 70.042969 356.8125 70.140625 C 356.8125 70.140625 360.585938 71.804688 361.515625 72.269531 C 361.585938 72.308594 361.804688 72.425781 362.023438 72.542969 C 361.757812 73.039062 361.378906 73.75 361.285156 73.914062 C 361 74.441406 360.710938 74.96875 360.390625 75.480469 C 359.640625 76.703125 358.847656 77.808594 357.6875 78.675781 C 357.320312 78.953125 356.847656 79.164062 356.386719 79.394531 C 355.835938 79.679688 355.316406 80 354.949219 80.433594 C 354.570312 80.875 354.316406 81.492188 354.109375 82.132812 C 353.925781 82.671875 353.765625 83.230469 353.546875 83.667969 C 352.007812 86.660156 349.914062 88.945312 346.417969 89.394531 C 346.210938 89.421875 345.886719 89.425781 345.519531 89.417969 Z M 345.519531 89.417969 " fill-opacity="1" fill-rule="evenodd"/><path fill="#000000" d="M 339.183594 74.898438 C 339.320312 74.792969 340.148438 74.1875 340.242188 74.113281 C 341.519531 73.078125 343.957031 70.679688 345.117188 69.523438 C 345.234375 69.417969 345.289062 69.277344 345.289062 69.128906 C 345.289062 69 345.253906 68.832031 345.117188 68.671875 C 345.015625 68.554688 344.761719 68.398438 344.703125 68.355469 C 344.300781 68.058594 343.910156 67.765625 343.507812 67.472656 C 341.976562 66.335938 340.472656 65.074219 338.816406 64.105469 C 338.574219 63.957031 338.253906 64.019531 338.082031 64.25 C 337.621094 64.835938 336.425781 65.414062 335.792969 65.847656 C 334.054688 67.046875 332.25 68.148438 330.492188 69.304688 C 330.238281 69.371094 330.132812 69.609375 330.121094 69.660156 C 330.078125 69.78125 330.007812 70.042969 330.261719 70.289062 C 330.296875 70.316406 330.523438 70.441406 330.605469 70.5 C 330.777344 70.613281 330.949219 70.726562 331.125 70.84375 C 331.722656 71.253906 332.34375 71.632812 332.964844 72.003906 C 334.757812 73.085938 336.539062 74.210938 338.414062 75.140625 C 338.597656 75.230469 338.816406 75.21875 338.988281 75.105469 C 339.070312 75.050781 339.136719 74.980469 339.183594 74.898438 Z M 343.851562 69.160156 C 342.609375 70.386719 340.621094 72.324219 339.519531 73.21875 C 339.425781 73.289062 338.886719 73.648438 338.550781 73.921875 C 336.839844 73.042969 335.207031 72.011719 333.550781 71.019531 C 332.953125 70.65625 332.351562 70.292969 331.765625 69.894531 L 331.734375 69.867188 C 333.308594 68.847656 334.894531 67.859375 336.449219 66.796875 C 337.023438 66.398438 338 65.867188 338.621094 65.328125 C 340.09375 66.242188 341.4375 67.371094 342.828125 68.398438 C 343.175781 68.648438 343.519531 68.902344 343.851562 69.160156 Z M 330.570312 70.433594 Z M 330.570312 70.433594 " fill-opacity="1" fill-rule="evenodd"/><path fill="#000000" d="M 363.195312 67.695312 L 374.914062 70.277344 L 363.195312 72.238281 L 358.285156 69.726562 Z M 363.195312 67.695312 " fill-opacity="1" fill-rule="evenodd"/><g clip-path="url(#495afe390c)"><path fill="#000000" d="M 68.472656 17.511719 C 67.75 17.238281 66.265625 17.722656 65.566406 17.863281 C 62.53125 18.484375 59.597656 19.597656 56.792969 20.898438 C 46.351562 25.722656 38.78125 34.785156 34.101562 45.128906 C 32.929688 47.710938 31.964844 50.433594 31.367188 53.203125 C 31.203125 53.953125 30.722656 55.316406 31.054688 56.089844 C 31.355469 56.753906 32.113281 57.269531 32.632812 57.75 C 33.734375 58.773438 34.757812 59.679688 36.023438 60.453125 C 37.65625 58.945312 39.945312 57.871094 41.796875 56.613281 C 42.359375 52.128906 44.28125 47.652344 46.257812 43.652344 C 49.628906 36.851562 54.089844 30.621094 59.503906 25.3125 C 61.964844 22.914062 65.449219 19.171875 68.472656 17.511719 Z M 68.472656 17.511719 " fill-opacity="1" fill-rule="evenodd"/></g><path fill="#000000" d="M 68.472656 112.742188 C 67.746094 113.015625 66.265625 112.53125 65.5625 112.390625 C 62.527344 111.769531 59.59375 110.65625 56.789062 109.355469 C 46.347656 104.527344 38.78125 95.46875 34.101562 85.125 C 32.925781 82.542969 31.960938 79.820312 31.363281 77.050781 C 31.203125 76.300781 30.71875 74.9375 31.054688 74.164062 C 31.351562 73.5 32.109375 72.984375 32.628906 72.503906 C 33.734375 71.480469 34.757812 70.574219 36.019531 69.800781 C 37.652344 71.308594 39.941406 72.382812 41.792969 73.640625 C 42.355469 78.125 44.277344 82.601562 46.253906 86.601562 C 49.625 93.398438 54.085938 99.632812 59.503906 104.941406 C 61.964844 107.339844 65.449219 111.082031 68.472656 112.742188 Z M 68.472656 112.742188 " fill-opacity="1" fill-rule="evenodd"/><path fill="#000000" d="M 22.765625 59.164062 C 23.050781 59.316406 23.316406 59.460938 23.386719 59.507812 C 25.042969 60.804688 26.675781 62.019531 28.527344 63.042969 C 29.15625 63.394531 29.8125 63.6875 30.457031 64.015625 C 30.5625 64.066406 30.847656 64.203125 30.996094 64.355469 C 31.203125 64.5625 31.261719 64.808594 31.203125 65.046875 C 31.148438 65.285156 30.976562 65.488281 30.675781 65.582031 C 30.445312 65.648438 30.078125 65.636719 29.964844 65.636719 C 29.777344 65.640625 29.214844 65.855469 28.480469 66.144531 C 26.535156 66.910156 23.488281 68.296875 22.085938 69.082031 C 21.925781 69.175781 21.441406 69.503906 21.027344 69.792969 C 21.28125 69.957031 21.546875 70.117188 21.683594 70.171875 C 23.074219 70.707031 24.71875 71.25 25.617188 72.527344 C 25.949219 73 26.054688 73.550781 26.054688 74.132812 C 26.042969 74.824219 25.847656 75.5625 25.824219 76.1875 C 25.765625 77.875 26.066406 79.34375 27.054688 80.746094 C 27.824219 81.847656 28.777344 82.890625 29.964844 83.554688 C 30.160156 83.664062 31.816406 84.472656 31.816406 84.472656 C 32.042969 84.585938 32.171875 84.839844 32.125 85.097656 C 32.078125 85.351562 31.859375 85.542969 31.609375 85.5625 C 31.609375 85.5625 29.066406 85.738281 28.308594 85.640625 C 24.398438 85.136719 22.015625 82.636719 20.304688 79.296875 C 20.050781 78.8125 19.867188 78.199219 19.671875 77.605469 C 19.5 77.109375 19.324219 76.621094 19.039062 76.277344 C 18.761719 75.953125 18.359375 75.734375 17.945312 75.519531 C 17.429688 75.257812 16.898438 75.011719 16.484375 74.699219 C 15.210938 73.742188 14.3125 72.535156 13.484375 71.183594 C 13.164062 70.65625 12.863281 70.113281 12.574219 69.570312 C 12.425781 69.308594 11.550781 67.6875 11.550781 67.6875 C 11.402344 67.410156 11.507812 67.0625 11.78125 66.910156 C 11.78125 66.910156 12.667969 66.429688 12.828125 66.347656 C 13.402344 66.0625 14.992188 65.34375 16.175781 64.8125 C 16.1875 64.8125 11.621094 63.40625 11.621094 63.40625 C 11.332031 63.316406 11.160156 63.019531 11.230469 62.726562 C 11.230469 62.726562 11.703125 60.726562 12.667969 58.84375 C 13.347656 57.511719 14.277344 56.253906 15.429688 55.6875 C 15.851562 55.476562 16.429688 55.320312 16.96875 55.144531 C 17.40625 55.003906 17.820312 54.867188 18.074219 54.632812 C 18.164062 54.550781 18.175781 54.402344 18.199219 54.253906 C 18.257812 53.96875 18.292969 53.671875 18.347656 53.453125 C 18.636719 52.394531 19.085938 51.332031 19.648438 50.398438 C 21.992188 46.582031 27.882812 43.761719 32.089844 44 C 32.367188 44.015625 32.597656 44.222656 32.632812 44.496094 C 32.664062 44.769531 32.503906 45.03125 32.238281 45.121094 C 30.882812 45.574219 29.757812 46.886719 28.789062 48.449219 C 27.25 50.949219 26.179688 54.113281 25.476562 55.933594 C 24.996094 57.1875 24.523438 57.980469 23.398438 58.761719 C 23.191406 58.90625 22.984375 59.042969 22.765625 59.164062 Z M 29.34375 84.523438 C 28.03125 83.773438 26.960938 82.625 26.109375 81.402344 C 24.972656 79.785156 24.605469 78.09375 24.671875 76.144531 C 24.695312 75.617188 24.835938 75.015625 24.878906 74.425781 C 24.925781 73.980469 24.925781 73.542969 24.671875 73.1875 C 23.902344 72.09375 22.453125 71.703125 21.269531 71.242188 C 20.878906 71.089844 19.695312 70.273438 19.695312 70.273438 C 19.53125 70.167969 19.453125 69.992188 19.453125 69.804688 C 19.441406 69.621094 19.53125 69.445312 19.683594 69.335938 C 19.683594 69.335938 21.199219 68.257812 21.523438 68.082031 C 23.167969 67.15625 26.996094 65.4375 28.835938 64.78125 C 28.960938 64.738281 29.066406 64.699219 29.179688 64.664062 C 28.765625 64.46875 28.363281 64.269531 27.960938 64.050781 C 26.054688 62.992188 24.386719 61.75 22.671875 60.414062 C 22.535156 60.304688 21.441406 59.816406 21.1875 59.648438 C 21.015625 59.527344 20.957031 59.390625 20.9375 59.324219 C 20.878906 59.175781 20.84375 58.90625 21.121094 58.675781 C 21.210938 58.597656 21.730469 58.386719 21.785156 58.367188 C 22.121094 58.21875 22.441406 58.027344 22.742188 57.816406 C 23.648438 57.1875 24.019531 56.535156 24.410156 55.523438 C 25.121094 53.652344 26.226562 50.414062 27.8125 47.847656 C 28.410156 46.859375 29.101562 45.976562 29.847656 45.289062 L 29.847656 45.285156 C 26.351562 45.878906 22.394531 48.128906 20.625 51 C 20.121094 51.84375 19.71875 52.800781 19.464844 53.757812 C 19.394531 54.003906 19.371094 54.359375 19.292969 54.671875 C 19.210938 54.996094 19.0625 55.277344 18.855469 55.472656 C 18.566406 55.746094 18.128906 55.957031 17.648438 56.128906 C 17.074219 56.335938 16.40625 56.488281 15.933594 56.71875 C 14.992188 57.1875 14.253906 58.265625 13.691406 59.363281 C 13.082031 60.554688 12.691406 61.796875 12.496094 62.472656 C 12.496094 62.472656 17.992188 64.167969 17.992188 64.167969 C 18.210938 64.238281 18.371094 64.441406 18.394531 64.683594 C 18.40625 64.921875 18.269531 65.144531 18.050781 65.242188 C 18.050781 65.242188 14.277344 66.90625 13.347656 67.375 C 13.277344 67.410156 13.058594 67.527344 12.839844 67.648438 C 13.105469 68.144531 13.484375 68.851562 13.578125 69.015625 C 13.863281 69.546875 14.152344 70.070312 14.472656 70.582031 C 15.222656 71.808594 16.015625 72.914062 17.175781 73.777344 C 17.542969 74.054688 18.015625 74.265625 18.476562 74.5 C 19.027344 74.78125 19.542969 75.101562 19.914062 75.539062 C 20.292969 75.980469 20.546875 76.59375 20.753906 77.234375 C 20.9375 77.773438 21.097656 78.332031 21.316406 78.769531 C 22.855469 81.761719 24.949219 84.046875 28.445312 84.5 C 28.652344 84.523438 28.972656 84.53125 29.34375 84.523438 Z M 29.34375 84.523438 " fill-opacity="1" fill-rule="evenodd"/><path fill="#000000" d="M 35.679688 70 C 35.539062 69.898438 34.710938 69.289062 34.621094 69.214844 C 33.34375 68.179688 30.90625 65.78125 29.746094 64.625 C 29.628906 64.519531 29.570312 64.378906 29.570312 64.230469 C 29.570312 64.105469 29.605469 63.933594 29.746094 63.773438 C 29.847656 63.660156 30.101562 63.5 30.160156 63.457031 C 30.5625 63.160156 30.953125 62.867188 31.355469 62.574219 C 32.882812 61.4375 34.390625 60.179688 36.046875 59.207031 C 36.289062 59.0625 36.609375 59.125 36.78125 59.351562 C 37.242188 59.9375 38.4375 60.515625 39.070312 60.953125 C 40.808594 62.148438 42.613281 63.25 44.371094 64.410156 C 44.625 64.472656 44.726562 64.714844 44.738281 64.761719 C 44.785156 64.882812 44.855469 65.144531 44.601562 65.390625 C 44.566406 65.417969 44.335938 65.546875 44.257812 65.601562 C 44.085938 65.71875 43.910156 65.832031 43.738281 65.949219 C 43.140625 66.355469 42.519531 66.734375 41.898438 67.109375 C 40.105469 68.191406 38.324219 69.316406 36.449219 70.246094 C 36.265625 70.335938 36.046875 70.320312 35.875 70.207031 C 35.792969 70.15625 35.722656 70.082031 35.679688 70 Z M 31.007812 64.261719 C 32.25 65.488281 34.242188 67.425781 35.34375 68.324219 C 35.4375 68.394531 35.976562 68.75 36.3125 69.023438 C 38.023438 68.148438 39.65625 67.117188 41.3125 66.121094 C 41.910156 65.761719 42.507812 65.394531 43.09375 65 L 43.128906 64.972656 C 41.554688 63.953125 39.96875 62.964844 38.414062 61.898438 C 37.839844 61.503906 36.863281 60.96875 36.242188 60.429688 C 34.769531 61.34375 33.425781 62.476562 32.03125 63.5 C 31.6875 63.753906 31.34375 64.007812 31.007812 64.261719 Z M 44.292969 65.535156 L 44.292969 65.539062 Z M 44.292969 65.535156 " fill-opacity="1" fill-rule="evenodd"/><path fill="#000000" d="M 11.667969 62.800781 L -0.0507812 65.378906 L 11.667969 67.34375 L 16.578125 64.828125 Z M 11.667969 62.800781 " fill-opacity="1" fill-rule="evenodd"/><path fill="#000000" d="M 119.875 122.847656 L 134.4375 114.167969 L 144.371094 108.542969 L 143.039062 112.425781 L 118.503906 126.886719 Z M 119.875 122.847656 " fill-opacity="1" fill-rule="evenodd"/><path fill="#000000" d="M 99.398438 56.484375 L 113.960938 47.804688 L 123.898438 42.179688 L 122.5625 46.0625 L 98.03125 60.523438 Z M 99.398438 56.484375 " fill-opacity="1" fill-rule="evenodd"/><path fill="#000000" d="M 149.039062 81.617188 L 157.828125 75.984375 L 163.824219 72.335938 L 163.019531 74.855469 L 148.210938 84.242188 Z M 149.039062 81.617188 " fill-opacity="1" fill-rule="evenodd"/><path fill="#000000" d="M 184.003906 18.789062 C 184.035156 19.105469 184.015625 19.605469 183.875 19.984375 C 183.320312 21.460938 181.929688 23.800781 182.121094 25.378906 C 182.207031 26.101562 183.160156 26.492188 183.363281 27.210938 C 183.980469 29.363281 184.226562 31.742188 184.621094 33.9375 C 186.855469 46.328125 188.960938 58.726562 190.96875 71.148438 C 191.941406 77.089844 193.085938 83.007812 193.621094 88.996094 C 193.789062 90.953125 193.949219 92.917969 194.023438 94.878906 C 194.046875 95.527344 194.035156 96.179688 194.023438 96.828125 C 194.023438 97.167969 193.695312 98.035156 194.003906 97.847656 C 194.582031 97.511719 194.835938 95.320312 194.996094 94.78125 C 195.980469 91.339844 196.632812 87.898438 196.664062 84.335938 C 196.804688 70.304688 192.988281 56.429688 190.574219 42.648438 C 190.105469 39.917969 189.503906 37.195312 189.132812 34.449219 C 189.003906 33.515625 188.480469 32.113281 188.726562 31.175781 C 189.003906 30.167969 192.808594 33.632812 191.898438 31.410156 C 191.8125 31.1875 191.707031 30.96875 191.609375 30.75 C 191.441406 30.386719 191.28125 30.019531 191.109375 29.65625 C 189.675781 26.683594 187.847656 23.933594 186.03125 21.144531 C 185.703125 20.644531 184.621094 18 184.003906 18.789062 Z M 184.003906 18.789062 " fill-opacity="1" fill-rule="evenodd"/><path fill="#000000" d="M 84.929688 35.59375 C 84.933594 35.558594 84.90625 35.664062 84.890625 35.691406 C 84.855469 35.761719 84.820312 35.832031 84.785156 35.902344 C 84.679688 36.105469 84.578125 36.308594 84.472656 36.507812 C 84.117188 37.171875 83.773438 37.84375 83.449219 38.527344 C 83.265625 38.914062 83.089844 39.304688 82.921875 39.703125 C 82.28125 41.210938 81.507812 42.988281 82.476562 44.578125 C 82.625 44.816406 82.808594 45.027344 83.015625 45.199219 C 83.265625 45.402344 83.558594 45.542969 83.863281 45.605469 C 86.238281 46.097656 88.089844 42.742188 86.996094 40.402344 C 86.660156 39.675781 86.109375 39.097656 85.546875 38.59375 C 85.308594 38.378906 84.796875 38.109375 84.671875 37.773438 C 84.59375 37.558594 84.8125 37.265625 84.898438 37.101562 C 85.089844 36.722656 85.558594 35.839844 84.929688 35.59375 Z M 83.765625 39.992188 C 83.691406 40.21875 83.539062 40.433594 83.445312 40.652344 C 83.179688 41.261719 83.039062 41.988281 83.441406 42.570312 C 83.929688 43.28125 84.738281 43.222656 85.429688 43.039062 C 85.617188 42.988281 85.796875 42.933594 85.960938 42.804688 C 86.019531 42.761719 86.097656 42.707031 86.121094 42.625 C 86.144531 42.542969 86.09375 42.457031 86.0625 42.386719 C 85.96875 42.199219 85.855469 42.023438 85.730469 41.859375 C 85.382812 41.382812 84.980469 40.9375 84.5625 40.542969 C 84.386719 40.378906 83.96875 40.011719 83.765625 39.992188 Z M 83.765625 39.992188 " fill-opacity="1" fill-rule="evenodd"/><path fill="#000000" d="M 156.273438 32.964844 C 156.277344 32.929688 156.25 33.039062 156.234375 33.066406 C 156.199219 33.136719 156.164062 33.203125 156.128906 33.273438 C 156.023438 33.476562 155.921875 33.679688 155.816406 33.882812 C 155.464844 34.546875 155.117188 35.214844 154.792969 35.898438 C 154.609375 36.285156 154.433594 36.679688 154.265625 37.074219 C 153.628906 38.582031 152.851562 40.363281 153.824219 41.949219 C 153.96875 42.1875 154.152344 42.398438 154.359375 42.570312 C 154.609375 42.777344 154.902344 42.914062 155.207031 42.976562 C 157.585938 43.46875 159.433594 40.113281 158.339844 37.773438 C 158.003906 37.050781 157.453125 36.46875 156.894531 35.96875 C 156.65625 35.753906 156.140625 35.480469 156.015625 35.144531 C 155.9375 34.933594 156.15625 34.636719 156.242188 34.472656 C 156.433594 34.09375 156.902344 33.210938 156.273438 32.964844 Z M 155.113281 37.367188 C 155.035156 37.59375 154.882812 37.804688 154.789062 38.023438 C 154.523438 38.632812 154.386719 39.363281 154.785156 39.945312 C 155.273438 40.652344 156.082031 40.59375 156.773438 40.414062 C 156.964844 40.363281 157.144531 40.308594 157.304688 40.179688 C 157.363281 40.132812 157.441406 40.078125 157.464844 39.996094 C 157.488281 39.914062 157.441406 39.828125 157.40625 39.761719 C 157.3125 39.570312 157.199219 39.398438 157.074219 39.230469 C 156.726562 38.757812 156.324219 38.308594 155.90625 37.917969 C 155.730469 37.75 155.3125 37.382812 155.113281 37.367188 Z M 155.113281 37.367188 " fill-opacity="1" fill-rule="evenodd"/><path fill="#000000" d="M 79.304688 114.484375 C 79.167969 112.511719 80.613281 104.949219 80.695312 105.46875 C 80.738281 105.761719 80.648438 106.300781 80.648438 106.71875 C 80.636719 107.933594 80.796875 109.164062 80.96875 110.363281 C 81.546875 114.195312 84.757812 116.828125 88.675781 116.472656 C 91.523438 116.210938 94.28125 114.683594 96.683594 113.246094 C 101.671875 110.269531 106.25 106.597656 110.40625 102.566406 C 112.363281 100.667969 115.027344 98.5625 116.097656 95.964844 C 116.269531 95.566406 116.042969 94.644531 115.996094 94.246094 C 115.824219 92.667969 115.449219 91.113281 115.050781 89.582031 C 114.003906 85.667969 112.578125 81.839844 110.5625 78.316406 C 109.425781 76.324219 107.707031 74.503906 106.738281 72.4375 C 105.90625 70.664062 106.667969 67.796875 106.929688 65.960938 C 106.988281 65.566406 106.976562 64.070312 107.363281 63.808594 C 107.59375 63.65625 108.273438 64.738281 108.355469 64.851562 C 109.324219 66.160156 110.210938 67.519531 111.03125 68.929688 C 114.3125 74.59375 116.328125 80.761719 117.886719 87.085938 C 119.285156 92.8125 119.285156 100.980469 125.117188 104.320312 C 125.199219 104.246094 125.300781 104.433594 125.390625 104.476562 C 125.574219 104.554688 125.765625 104.621094 125.960938 104.679688 C 127.007812 105.007812 128.089844 105.226562 129.183594 105.339844 C 131.757812 105.605469 134.488281 105.476562 136.949219 104.648438 C 138.144531 104.246094 139.316406 103.675781 140.082031 102.636719 C 140.082031 102.660156 140.195312 102.234375 140.195312 102.191406 C 140.253906 101.828125 140.261719 101.464844 140.273438 101.101562 C 140.308594 100.105469 140.253906 99.109375 140.09375 98.121094 C 139.96875 97.320312 139.75 96.40625 139.023438 95.933594 C 138.691406 95.722656 137.703125 95.660156 137.53125 95.328125 C 137.371094 95.039062 137.429688 94.597656 137.417969 94.285156 C 137.417969 93.441406 137.4375 92.597656 137.472656 91.753906 C 137.507812 91.117188 137.542969 90.476562 137.632812 89.84375 C 137.65625 89.660156 137.644531 89.351562 137.894531 89.34375 C 138.375 89.320312 138.917969 89.710938 139.273438 89.976562 C 140.535156 90.921875 141.289062 92.316406 141.742188 93.808594 C 143.066406 98.226562 142.824219 104.074219 139.898438 107.828125 C 139.910156 107.714844 139.75 107.996094 139.660156 108.070312 C 139.488281 108.226562 139.296875 108.363281 139.101562 108.5 C 138.488281 108.933594 137.828125 109.3125 137.132812 109.617188 C 135.070312 110.535156 132.863281 110.738281 130.628906 110.542969 C 125.699219 110.109375 121.507812 107.757812 118.933594 103.515625 C 118.058594 102.066406 117.351562 100.609375 117.328125 98.894531 C 117.214844 98.96875 117.453125 98.375 117.375 98.484375 C 117.167969 98.738281 117.125 99.390625 117.03125 99.695312 C 116.769531 100.542969 116.441406 101.351562 116.042969 102.140625 C 114.960938 104.316406 113.511719 105.957031 111.738281 107.609375 C 110.0625 109.15625 108.320312 110.605469 106.53125 112.015625 C 105.050781 113.175781 103.570312 114.339844 102.058594 115.449219 C 100.929688 116.273438 99.78125 117.070312 98.628906 117.851562 C 93.960938 120.996094 88.097656 124.246094 82.6875 120.789062 C 81.617188 120.105469 80.714844 119.160156 80.179688 118.007812 C 79.65625 116.90625 79.382812 115.691406 79.304688 114.484375 Z M 79.304688 114.484375 " fill-opacity="1" fill-rule="evenodd"/><path fill="#000000" d="M 162.96875 32.695312 C 163.652344 33.324219 164.246094 34.671875 164.78125 35.492188 C 166.308594 37.84375 167.707031 40.328125 168.871094 42.878906 C 169.234375 43.683594 169.65625 44.492188 169.894531 45.34375 C 169.960938 45.578125 170.132812 46.058594 169.996094 46.296875 C 169.835938 46.574219 169.269531 46.125 169.109375 46.035156 C 168.449219 45.660156 167.84375 45.214844 167.207031 44.816406 C 167.023438 44.707031 166.707031 44.402344 166.5 44.410156 C 166.183594 44.417969 166.261719 45.492188 166.25 45.65625 C 166.238281 47.007812 166.285156 48.355469 166.320312 49.703125 C 166.171875 49.640625 166.363281 50.027344 166.386719 50.191406 C 166.433594 50.585938 166.457031 50.984375 166.488281 51.378906 C 166.582031 52.617188 166.695312 53.855469 166.785156 55.09375 C 167.058594 58.65625 167.332031 62.21875 167.617188 65.78125 C 168.1875 73.015625 168.8125 80.21875 170.214844 87.351562 C 170.738281 90 172.398438 96.609375 172.511719 96.734375 C 172.683594 96.921875 173.277344 96.695312 173.492188 96.695312 C 174.460938 96.6875 175.464844 96.453125 176.429688 96.398438 C 179.996094 96.1875 183.378906 96.648438 184.972656 100.234375 C 186.542969 103.757812 186.53125 110.832031 181.429688 111.296875 C 180.859375 111.351562 180.257812 111.292969 179.699219 111.140625 C 175.828125 110.085938 172.980469 105.882812 171.101562 102.578125 C 171.03125 102.46875 170.941406 102.769531 170.851562 102.855469 C 170.644531 103.046875 170.441406 103.230469 170.226562 103.410156 C 169.644531 103.902344 169.050781 104.378906 168.425781 104.820312 C 166.558594 106.132812 164.53125 106.96875 162.289062 107.402344 C 155.660156 108.675781 149.28125 106.320312 145.148438 100.996094 C 145.195312 100.726562 144.285156 99.3125 144.167969 98.972656 C 143.464844 97.03125 142.941406 95.039062 142.542969 93.019531 C 141.324219 86.800781 140.878906 80.046875 140.261719 73.753906 C 139.683594 67.777344 139.101562 62.203125 137.929688 56.316406 C 136.8125 50.78125 135.902344 44.625 132.953125 39.703125 C 132.65625 39.222656 131.882812 38.46875 131.769531 37.910156 C 131.550781 36.714844 132.578125 34.605469 133 33.539062 C 133.144531 33.152344 133.796875 31.019531 134.457031 31.226562 C 135.480469 31.546875 136.074219 33.726562 136.4375 34.5625 C 138.054688 38.292969 139.023438 42.15625 139.773438 46.140625 C 141.140625 53.367188 142.472656 62.449219 143.359375 69.738281 C 144.375 78.058594 144.304688 84.203125 146.902344 92.015625 C 148.703125 97.433594 151.753906 102.078125 157.730469 102.589844 C 158.371094 102.644531 160.042969 102.257812 160.578125 102.132812 C 163.140625 101.53125 165.773438 100.875 167.96875 99.367188 C 168.140625 99.25 167.558594 97.453125 167.265625 96.355469 C 166.308594 92.832031 165.589844 89.222656 165.042969 85.613281 C 164.042969 79.097656 163.621094 72.496094 163.105469 65.929688 C 162.5625 58.929688 161.96875 51.929688 161.628906 44.910156 C 161.582031 43.976562 161.535156 43.039062 161.492188 42.101562 C 161.457031 41.332031 161.410156 40.5625 161.363281 39.792969 C 161.320312 38.84375 161.34375 37.839844 161.171875 36.90625 C 160.976562 35.820312 160.566406 35.234375 160.988281 34.066406 C 161.171875 33.554688 162.308594 32.742188 162.96875 32.695312 Z M 175.851562 101.070312 C 176.25 102.035156 176.660156 102.921875 177.351562 103.734375 C 178.230469 104.757812 179.835938 105.917969 181.269531 105.480469 C 182.261719 105.175781 182.535156 104.113281 182.191406 103.214844 C 181.875 102.363281 181.121094 101.695312 180.359375 101.242188 C 179.6875 100.84375 176.660156 100.445312 175.851562 101.070312 Z M 175.851562 101.070312 " fill-opacity="1" fill-rule="evenodd"/><path fill="#000000" d="M 132.09375 78.132812 C 132.195312 77.511719 132.414062 76.570312 132.011719 76.035156 C 131.699219 75.625 131.1875 75.734375 130.792969 75.882812 C 129.910156 76.214844 128.683594 76.949219 128.410156 78.09375 C 128.125 79.328125 129.507812 80.378906 130.269531 80.882812 C 131.414062 81.636719 132.742188 81.105469 133.898438 80.621094 C 135.21875 80.066406 136.1875 79.042969 137.179688 78.367188 C 137.445312 78.1875 137.992188 77.65625 138.074219 77.546875 C 138.128906 77.476562 138.605469 76.785156 138.671875 76.847656 C 138.875 77.027344 138.707031 78.398438 138.707031 78.671875 C 138.707031 78.867188 138.855469 79.613281 138.710938 79.777344 C 138.496094 80.027344 138.03125 80.183594 137.757812 80.347656 C 137.113281 80.753906 136.472656 81.183594 135.847656 81.632812 C 134.019531 82.917969 132.277344 84.320312 130.597656 85.839844 C 129.691406 86.664062 128.675781 87.457031 127.988281 88.558594 C 127.953125 88.558594 128.070312 88.203125 128.085938 88.167969 C 128.234375 87.699219 128.417969 87.246094 128.601562 86.792969 C 129.058594 85.683594 129.5625 84.457031 130.277344 83.535156 C 130.316406 83.488281 130.03125 83.371094 130.023438 83.367188 C 129.820312 83.277344 129.621094 83.195312 129.425781 83.109375 C 128.828125 82.84375 128.234375 82.550781 127.710938 82.113281 C 126.300781 80.933594 126.191406 79.300781 127.050781 77.570312 C 128.191406 75.246094 130.167969 73.570312 132.304688 72.664062 C 132.613281 72.535156 132.933594 72.425781 133.257812 72.367188 C 133.46875 72.332031 133.679688 72.324219 133.890625 72.367188 C 135.527344 72.699219 134.492188 75.023438 133.941406 75.941406 C 133.59375 76.523438 132.496094 77.601562 132.09375 78.132812 Z M 132.09375 78.132812 " fill-opacity="1" fill-rule="evenodd"/><g clip-path="url(#99cffba218)"><path fill="#000000" d="M 233.421875 81.714844 C 233.40625 81.699219 233.363281 81.609375 233.308594 81.660156 C 233.253906 81.710938 233.1875 81.90625 233.179688 81.941406 C 233.132812 82.160156 233.078125 82.375 233.023438 82.59375 C 232.855469 83.265625 232.671875 83.933594 232.488281 84.601562 C 232.191406 85.652344 231.871094 86.695312 231.582031 87.746094 C 231.5 88.039062 231.425781 88.328125 231.363281 88.621094 C 231.335938 88.738281 231.277344 88.894531 231.332031 89.011719 C 231.421875 89.210938 231.664062 89.382812 231.824219 89.53125 C 232.195312 89.878906 232.585938 90.207031 232.960938 90.550781 C 232.980469 90.527344 232.976562 90.609375 232.988281 90.636719 C 233.003906 90.683594 233.023438 90.734375 233.039062 90.78125 C 233.089844 90.921875 233.136719 91.0625 233.183594 91.203125 C 233.328125 91.621094 233.476562 92.039062 233.621094 92.457031 C 234.050781 93.710938 234.539062 94.953125 235.058594 96.179688 C 236.628906 99.878906 238.703125 103.425781 240.9375 106.828125 C 240.863281 106.699219 240.746094 107.058594 240.640625 107.175781 C 240.445312 107.394531 240.234375 107.605469 240.019531 107.8125 C 239.382812 108.421875 238.761719 109.050781 238.085938 109.625 C 236.050781 111.367188 233.992188 113.066406 231.816406 114.660156 C 227.769531 117.621094 223.269531 120.121094 218.519531 122.027344 C 215.292969 123.324219 211.886719 124.371094 208.359375 124.671875 C 208.328125 124.648438 208.035156 124.707031 207.988281 124.707031 C 207.636719 124.726562 207.28125 124.746094 206.929688 124.753906 C 205.621094 124.78125 204.3125 124.6875 203.03125 124.460938 C 199.160156 123.773438 195.980469 121.679688 193.941406 118.605469 C 193.753906 118.328125 193.589844 117.976562 193.460938 117.664062 C 193.058594 116.699219 192.746094 115.703125 192.546875 114.683594 C 191.671875 110.28125 192.46875 105.570312 193.707031 101.289062 C 194.332031 99.136719 195.183594 97.050781 195.910156 94.925781 C 196.082031 94.417969 196.328125 93.855469 196.320312 93.316406 C 196.316406 92.804688 195.796875 93.027344 195.574219 93.273438 C 195.558594 93.261719 195.453125 93.449219 195.445312 93.457031 C 195.3125 93.675781 195.1875 93.898438 195.066406 94.121094 C 194.789062 94.636719 194.507812 95.15625 194.242188 95.679688 C 192.859375 98.402344 191.703125 101.21875 190.765625 104.097656 C 188.214844 111.945312 187.425781 122.171875 194.253906 128.476562 C 194.25 128.484375 194.691406 128.757812 194.710938 128.769531 C 195.285156 129.109375 195.835938 129.484375 196.417969 129.816406 C 198.8125 131.171875 201.578125 131.871094 204.367188 132.101562 C 212.59375 132.78125 220.722656 128.894531 227.164062 124.5625 C 227.199219 124.585938 227.445312 124.386719 227.492188 124.355469 C 227.820312 124.121094 228.148438 123.886719 228.480469 123.660156 C 230.019531 122.605469 231.558594 121.546875 233.042969 120.429688 C 236.417969 117.886719 240.105469 114.753906 241.949219 111.046875 C 243.171875 108.597656 243.550781 105.613281 243.363281 102.945312 C 243.375 102.941406 243.367188 102.828125 243.367188 102.816406 C 243.363281 102.644531 243.347656 102.472656 243.335938 102.300781 C 243.277344 101.582031 243.148438 100.878906 242.945312 100.179688 C 242.105469 97.304688 240.21875 94.808594 238.820312 92.152344 C 238.515625 91.570312 238.214844 90.988281 237.9375 90.398438 C 237.902344 90.320312 237.636719 89.882812 237.730469 89.800781 C 237.847656 89.699219 238.292969 89.976562 238.378906 90.023438 C 238.902344 90.300781 239.507812 90.847656 240.136719 90.871094 C 240.984375 90.902344 240.585938 89.996094 240.273438 89.660156 C 240.257812 89.667969 239.976562 89.269531 239.964844 89.25 C 239.59375 88.75 239.199219 88.261719 238.8125 87.769531 C 237.199219 85.738281 234.351562 82.71875 233.421875 81.714844 Z M 233.421875 81.714844 " fill-opacity="1" fill-rule="evenodd"/></g></svg>