<svg xmlns="http://www.w3.org/2000/svg" xmlns:xlink="http://www.w3.org/1999/xlink" width="500" zoomAndPan="magnify" viewBox="0 0 375 157.92" height="200" preserveAspectRatio="xMidYMid meet" version="1.0"><defs><clipPath id="8f05acbf50"><path d="M 358 70 L 374.902344 70 L 374.902344 76 L 358 76 Z M 358 70 " clip-rule="nonzero"/></clipPath><clipPath id="f5eeffdb13"><path d="M 0.09375 66 L 17 66 L 17 71 L 0.09375 71 Z M 0.09375 66 " clip-rule="nonzero"/></clipPath></defs><path fill="#000000" d="M 124.496094 111.496094 C 124.007812 111.4375 123.722656 111.242188 123.199219 111.617188 C 122.390625 112.203125 122.300781 113.804688 123.246094 114.320312 C 124.304688 114.894531 125.679688 113.761719 126.445312 113.152344 C 126.648438 112.992188 127.421875 112.433594 127.332031 113.144531 C 127.261719 113.65625 126.136719 114.195312 125.785156 114.464844 C 124.222656 115.648438 122.609375 116.882812 121.308594 118.347656 C 120.730469 119 120.082031 119.855469 120.808594 120.636719 C 122.652344 122.621094 126.011719 121.351562 127.980469 120.269531 C 128.640625 119.902344 129.265625 119.496094 129.878906 119.042969 C 129.984375 118.964844 130.929688 118.246094 130.824219 118.519531 C 130.5625 119.191406 129.878906 119.820312 129.4375 120.363281 C 127.445312 122.738281 124.359375 124.777344 121.152344 123.554688 C 120.71875 123.390625 120.285156 123.144531 119.945312 122.828125 C 117.53125 120.601562 119.738281 117.496094 121.84375 116.089844 C 121.789062 115.65625 120.878906 115.167969 120.648438 114.503906 C 120.34375 113.628906 120.71875 111.625 121.59375 110.6875 C 122.746094 109.472656 124.53125 109.585938 124.496094 111.496094 Z M 124.496094 111.496094 " fill-opacity="1" fill-rule="evenodd"/><path fill="#000000" d="M 184.503906 25.167969 C 184.535156 25.488281 184.511719 25.988281 184.375 26.363281 C 183.820312 27.839844 182.429688 30.179688 182.621094 31.757812 C 182.707031 32.476562 183.660156 32.867188 183.863281 33.585938 C 184.480469 35.738281 184.726562 38.117188 185.121094 40.3125 C 187.355469 52.695312 189.457031 65.085938 191.464844 77.503906 C 192.4375 83.441406 193.578125 89.359375 194.113281 95.34375 C 194.285156 97.300781 194.445312 99.261719 194.519531 101.222656 C 194.539062 101.871094 194.53125 102.519531 194.519531 103.167969 C 194.519531 103.507812 194.1875 104.375 194.496094 104.191406 C 195.074219 103.855469 195.332031 101.660156 195.492188 101.125 C 196.472656 97.6875 197.125 94.246094 197.15625 90.683594 C 197.296875 76.660156 193.484375 62.792969 191.070312 49.019531 C 190.601562 46.289062 190.003906 43.566406 189.628906 40.824219 C 189.5 39.890625 188.976562 38.488281 189.222656 37.550781 C 189.5 36.542969 193.300781 40.007812 192.394531 37.785156 C 192.308594 37.5625 192.203125 37.34375 192.105469 37.125 C 191.933594 36.761719 191.773438 36.394531 191.605469 36.03125 C 190.171875 33.0625 188.347656 30.3125 186.53125 27.527344 C 186.199219 27.027344 185.121094 24.382812 184.503906 25.167969 Z M 184.503906 25.167969 " fill-opacity="1" fill-rule="evenodd"/><path fill="#000000" d="M 132.875 36.464844 C 133.035156 36.695312 133.214844 37.089844 133.246094 37.445312 C 133.351562 38.84375 133.066406 41.289062 133.875 42.417969 C 134.242188 42.933594 135.242188 42.796875 135.710938 43.253906 C 137.128906 44.625 138.308594 46.347656 139.546875 47.855469 C 146.527344 56.375 153.402344 64.953125 160.199219 73.601562 C 163.457031 77.730469 166.863281 81.761719 169.753906 86.132812 C 170.695312 87.5625 171.632812 89 172.492188 90.480469 C 172.769531 90.96875 173.023438 91.476562 173.277344 91.980469 C 173.414062 92.242188 173.472656 93.066406 173.671875 92.777344 C 174.046875 92.25 173.386719 90.441406 173.3125 89.953125 C 172.792969 86.84375 171.980469 83.886719 170.566406 81.125 C 165.023438 70.246094 156.039062 61.316406 148.332031 51.8125 C 146.8125 49.925781 145.183594 48.101562 143.746094 46.160156 C 143.253906 45.5 142.222656 44.660156 142.0625 43.824219 C 141.902344 42.917969 146.667969 43.824219 144.964844 42.53125 C 144.800781 42.402344 144.617188 42.28125 144.445312 42.160156 C 144.144531 41.957031 143.855469 41.746094 143.558594 41.546875 C 141.089844 39.917969 138.359375 38.648438 135.625 37.339844 C 135.128906 37.109375 133.105469 35.570312 132.875 36.464844 Z M 132.875 36.464844 " fill-opacity="1" fill-rule="evenodd"/><path fill="#000000" d="M 168.707031 31.691406 C 168.605469 31.792969 168.742188 31.398438 168.777344 31.253906 C 168.855469 30.960938 168.9375 30.667969 169.015625 30.378906 C 169.253906 29.585938 169.503906 28.796875 169.8125 28.035156 C 169.902344 27.808594 170.085938 27.21875 170.414062 27.46875 C 171.246094 28.085938 171.703125 29.511719 172.15625 30.394531 C 173.296875 32.578125 174.445312 34.769531 175.480469 37.003906 C 175.84375 37.773438 176.175781 38.554688 176.492188 39.347656 C 176.550781 39.515625 176.789062 39.949219 176.609375 40.117188 C 176.265625 40.453125 174.957031 39.347656 174.683594 39.15625 C 174.878906 39.203125 174.375 38.894531 174.21875 38.773438 C 173.886719 38.535156 173.558594 38.25 173.191406 38.066406 C 173.125 38.09375 173.339844 38.933594 173.351562 38.984375 C 173.535156 39.960938 173.773438 40.929688 173.96875 41.90625 C 174.796875 46.078125 175.605469 50.257812 176.242188 54.460938 C 178.042969 66.347656 180.441406 77.910156 178.417969 89.9375 C 178.597656 90.03125 177.929688 92.046875 177.882812 92.222656 C 177.222656 94.699219 176.3125 97.136719 174.785156 99.222656 C 169.074219 107.042969 159.351562 109.609375 150.578125 112.238281 C 150.597656 112.351562 150.746094 112.089844 150.839844 112.023438 C 151.089844 111.851562 151.328125 111.679688 151.578125 111.519531 C 152.191406 111.121094 152.808594 110.722656 153.421875 110.324219 C 155.347656 109.0625 157.257812 107.785156 159.179688 106.523438 C 164.988281 102.707031 171.054688 99.046875 175.582031 93.695312 C 175.59375 93.753906 175.753906 93.179688 175.765625 93.128906 C 175.832031 92.683594 175.890625 92.238281 175.949219 91.792969 C 176.117188 90.292969 176.1875 88.777344 176.21875 87.273438 C 176.3125 82.765625 176.105469 78.214844 175.730469 73.726562 C 174.898438 63.839844 172.75 54.019531 170.847656 44.292969 C 170.347656 41.757812 169.8125 39.195312 169.515625 36.625 C 169.449219 36.058594 169.480469 34.710938 169.335938 33.757812 C 169.199219 32.804688 168.878906 32.242188 168.707031 31.691406 Z M 168.707031 31.691406 " fill-opacity="1" fill-rule="evenodd"/><path fill="#000000" d="M 130.46875 46.078125 C 130.476562 46.03125 130.433594 46.179688 130.410156 46.21875 C 130.351562 46.3125 130.296875 46.410156 130.238281 46.507812 C 130.070312 46.789062 129.90625 47.074219 129.734375 47.355469 C 129.167969 48.28125 128.613281 49.214844 128.089844 50.167969 C 127.796875 50.707031 127.511719 51.253906 127.242188 51.804688 C 126.21875 53.910156 124.972656 56.390625 126.53125 58.601562 C 126.765625 58.9375 127.058594 59.230469 127.394531 59.46875 C 127.800781 59.757812 128.269531 59.949219 128.757812 60.039062 C 132.574219 60.722656 135.546875 56.042969 133.792969 52.78125 C 133.25 51.769531 132.363281 50.964844 131.464844 50.261719 C 131.082031 49.964844 130.257812 49.585938 130.058594 49.117188 C 129.929688 48.820312 130.285156 48.410156 130.417969 48.179688 C 130.726562 47.652344 131.480469 46.421875 130.46875 46.078125 Z M 128.601562 52.214844 C 128.484375 52.53125 128.238281 52.824219 128.085938 53.128906 C 127.660156 53.980469 127.4375 54.996094 128.078125 55.808594 C 128.863281 56.796875 130.164062 56.714844 131.269531 56.460938 C 131.578125 56.390625 131.867188 56.316406 132.128906 56.136719 C 132.222656 56.070312 132.347656 55.996094 132.382812 55.878906 C 132.421875 55.765625 132.34375 55.648438 132.289062 55.550781 C 132.140625 55.285156 131.957031 55.042969 131.757812 54.8125 C 131.195312 54.152344 130.554688 53.527344 129.882812 52.980469 C 129.597656 52.75 128.925781 52.238281 128.601562 52.214844 Z M 128.601562 52.214844 " fill-opacity="1" fill-rule="evenodd"/><path fill="#000000" d="M 243.496094 70.160156 C 242.644531 70.742188 241.007812 70.597656 240.144531 69.621094 C 239.328125 68.703125 240.039062 65.929688 241.5 65.746094 C 243.367188 65.507812 245.539062 68.871094 246.484375 70.09375 C 246.847656 70.554688 247.992188 72.566406 247.992188 72.566406 C 247.992188 72.566406 248.074219 70.300781 248.179688 69.738281 C 248.273438 69.269531 248.367188 68.804688 248.484375 68.339844 C 248.585938 67.953125 248.703125 67.570312 248.84375 67.191406 C 249.359375 65.808594 251.039062 62.960938 253.035156 64.136719 C 253.410156 64.355469 253.667969 64.730469 253.890625 65.078125 C 254.054688 65.347656 254.167969 65.644531 254.296875 65.929688 C 254.824219 67.109375 253.632812 66.449219 252.59375 67.078125 C 251.949219 67.457031 250.746094 68.515625 250.351562 69.261719 C 249.300781 71.25 249.347656 74.042969 249.242188 76.246094 C 249.171875 76.285156 249.136719 77.167969 249.113281 77.292969 C 248.960938 77.285156 248.878906 76.980469 248.820312 76.878906 C 248.5625 76.363281 247.921875 75.863281 247.675781 75.34375 C 246.859375 73.59375 244.828125 71.609375 243.496094 70.160156 Z M 243.496094 70.160156 " fill-opacity="1" fill-rule="evenodd"/><path fill="#000000" d="M 239.167969 36.15625 C 238.316406 36.738281 236.679688 36.59375 235.816406 35.617188 C 235 34.699219 235.710938 31.925781 237.171875 31.742188 C 239.039062 31.503906 241.210938 34.867188 242.15625 36.089844 C 242.519531 36.550781 243.664062 38.5625 243.664062 38.5625 C 243.664062 38.5625 243.746094 36.296875 243.851562 35.734375 C 243.945312 35.265625 244.039062 34.800781 244.152344 34.335938 C 244.257812 33.949219 244.375 33.566406 244.515625 33.1875 C 245.03125 31.804688 246.710938 28.957031 248.707031 30.136719 C 249.082031 30.351562 249.339844 30.726562 249.5625 31.074219 C 249.722656 31.34375 249.839844 31.640625 249.96875 31.925781 C 250.496094 33.105469 249.304688 32.445312 248.265625 33.074219 C 247.621094 33.457031 246.417969 34.511719 246.023438 35.257812 C 244.972656 37.246094 245.019531 40.042969 244.914062 42.242188 C 244.84375 42.28125 244.808594 43.164062 244.785156 43.289062 C 244.632812 43.28125 244.550781 42.976562 244.492188 42.875 C 244.234375 42.359375 243.59375 41.859375 243.347656 41.339844 C 242.53125 39.589844 240.5 37.605469 239.167969 36.15625 Z M 239.167969 36.15625 " fill-opacity="1" fill-rule="evenodd"/><path fill="#000000" d="M 75.792969 68.507812 C 74.941406 69.089844 73.304688 68.945312 72.441406 67.96875 C 71.625 67.050781 72.335938 64.277344 73.796875 64.089844 C 75.664062 63.855469 77.835938 67.21875 78.78125 68.441406 C 79.144531 68.902344 80.289062 70.914062 80.289062 70.914062 C 80.289062 70.914062 80.371094 68.648438 80.476562 68.085938 C 80.570312 67.617188 80.664062 67.148438 80.78125 66.6875 C 80.886719 66.300781 81 65.917969 81.140625 65.539062 C 81.65625 64.15625 83.335938 61.308594 85.335938 62.484375 C 85.707031 62.703125 85.964844 63.078125 86.1875 63.425781 C 86.351562 63.695312 86.46875 63.992188 86.59375 64.277344 C 87.121094 65.457031 85.929688 64.796875 84.890625 65.425781 C 84.25 65.804688 83.046875 66.863281 82.648438 67.609375 C 81.597656 69.597656 81.644531 72.390625 81.539062 74.59375 C 81.46875 74.632812 81.433594 75.515625 81.410156 75.640625 C 81.257812 75.632812 81.175781 75.328125 81.117188 75.226562 C 80.863281 74.710938 80.21875 74.210938 79.972656 73.691406 C 79.15625 71.941406 77.125 69.957031 75.792969 68.507812 Z M 75.792969 68.507812 " fill-opacity="1" fill-rule="evenodd"/><path fill="#000000" d="M 267.785156 95.574219 C 267.785156 95.558594 267.796875 95.550781 267.832031 95.5625 L 267.785156 95.574219 C 267.808594 95.636719 269.1875 99.207031 269.058594 100.304688 C 269.058594 100.304688 268.800781 100.527344 268.765625 100.566406 C 268.582031 100.738281 268.382812 100.90625 268.195312 101.074219 C 267.53125 101.671875 266.851562 102.269531 266.175781 102.851562 C 264.304688 104.441406 262.378906 105.964844 260.453125 107.484375 C 254.671875 112.03125 247.992188 118.230469 240.214844 119.410156 C 238.113281 119.726562 235.917969 119.03125 234.011719 118.257812 C 232.15625 117.507812 230.347656 116.613281 228.875 115.265625 C 223.164062 110.023438 224.226562 100.980469 226.539062 94.5 C 225.992188 95.039062 225.675781 96.011719 225.347656 96.675781 C 224.402344 98.609375 223.644531 100.636719 223.199219 102.730469 C 221.542969 110.457031 222.171875 120.691406 230.578125 124.5625 C 231.804688 125.128906 233.113281 125.515625 234.46875 125.679688 C 246.402344 127.132812 256.878906 118.910156 264.304688 111.007812 C 266.851562 108.292969 269.351562 105.3125 271.183594 102.101562 C 271.664062 101.257812 271.933594 99.859375 271.921875 99.375 C 271.839844 97.429688 271.664062 95.734375 271.371094 93.804688 C 273.320312 92.363281 274.921875 91.902344 276.671875 90.121094 C 276.695312 90.089844 276.753906 90.46875 276.753906 90.492188 C 276.789062 90.683594 276.847656 90.875 276.90625 91.0625 C 277.117188 91.699219 277.375 92.3125 277.675781 92.910156 C 278.566406 94.636719 279.816406 96.34375 281.542969 97.378906 C 285.035156 99.46875 289.953125 98.121094 292.789062 95.601562 C 294.738281 93.863281 296.035156 91.554688 297.25 89.320312 C 297.308594 89.214844 297.449219 89.660156 297.472656 89.695312 C 297.589844 89.933594 297.707031 90.167969 297.84375 90.398438 C 298.277344 91.144531 298.769531 91.871094 299.304688 92.546875 C 301.011719 94.664062 303.496094 95.742188 306.277344 94.964844 C 307.28125 94.679688 308.238281 94.15625 309.148438 93.660156 C 316.589844 89.589844 313.726562 81.464844 313.0625 76.410156 C 312.828125 76.375 312.269531 76.960938 312.105469 77.089844 C 311.21875 77.792969 309.898438 78.773438 309.464844 79.835938 C 309.160156 80.609375 309.863281 81.722656 310.085938 82.453125 C 310.84375 84.964844 310.890625 87.628906 307.691406 88.238281 C 307.011719 88.367188 306.3125 88.375 305.648438 88.234375 C 304.722656 88.039062 304 87.488281 303.382812 86.835938 C 302.597656 86.015625 301.933594 85.097656 301.394531 84.113281 C 300.601562 82.640625 299.972656 80.863281 299.691406 79.214844 C 299.386719 79.285156 298.988281 80.90625 298.886719 81.148438 C 298.101562 82.964844 297.320312 84.769531 296.082031 86.351562 C 294.132812 88.839844 291.003906 91.453125 287.535156 91.398438 C 282.710938 91.328125 280.1875 85.085938 280.492188 81.179688 C 277.117188 83.585938 273.976562 86.738281 270.027344 88.351562 C 269.933594 88.390625 270.003906 88.152344 269.957031 88.066406 C 269.839844 87.871094 269.703125 87.691406 269.574219 87.511719 C 269.164062 86.933594 268.777344 86.347656 268.347656 85.78125 C 267.085938 84.128906 265.777344 82.332031 264.015625 81.128906 C 261.457031 79.378906 258.539062 79.667969 256.261719 81.710938 C 253.890625 83.851562 251.960938 87.15625 251.238281 90.210938 C 251.0625 90.933594 251.039062 91.675781 251.015625 92.410156 C 250.957031 95.371094 252.910156 96.640625 255.828125 97.0625 C 259.773438 97.632812 264.027344 96.714844 267.785156 95.574219 Z M 256.738281 90.328125 C 256.738281 90.328125 257.148438 89.121094 257.21875 88.964844 C 257.566406 88.164062 258.757812 86.335938 260.148438 86.792969 C 261.140625 87.121094 261.832031 88.144531 262.296875 88.886719 C 262.425781 89.101562 262.8125 89.824219 262.8125 89.824219 C 262.8125 89.824219 261.738281 90.296875 261.304688 90.390625 C 260.859375 90.492188 260.078125 90.605469 259.425781 90.609375 C 258.082031 90.617188 256.738281 90.328125 256.738281 90.328125 Z M 256.738281 90.328125 " fill-opacity="1" fill-rule="evenodd"/><path fill="#000000" d="M 305.085938 100.960938 C 305.0625 100.847656 306.382812 99.992188 306.5 100.117188 C 306.882812 100.542969 306.953125 101.535156 307.046875 102.0625 C 307.375 104.058594 307.175781 106.429688 304.980469 107.390625 C 304.246094 107.707031 303.472656 107.726562 302.714844 107.527344 C 302.296875 107.421875 301.734375 107.023438 301.3125 107.1875 C 300.042969 107.683594 299.890625 109.828125 298.136719 109.621094 C 296.199219 109.394531 294.960938 106.835938 292.882812 107.589844 C 291.074219 108.246094 289.519531 109.824219 288.082031 111 C 285.023438 113.496094 282.035156 116.25 278.4375 118.042969 C 276.265625 119.125 274.035156 119.019531 271.757812 118.25 C 271.347656 118.109375 270.0625 117.8125 269.875 117.367188 C 269.785156 117.152344 270.472656 117.210938 270.554688 117.214844 C 271.488281 117.230469 272.421875 117.210938 273.34375 117.101562 C 275.65625 116.824219 277.769531 116.074219 279.6875 114.824219 C 281.988281 113.335938 283.878906 111.382812 285.746094 109.449219 C 287.160156 107.980469 288.621094 106.390625 290.488281 105.429688 C 291.539062 104.894531 292.753906 104.574219 293.945312 104.816406 C 295.21875 105.082031 296.246094 105.886719 297.613281 105.539062 C 299.339844 105.105469 299.84375 102.964844 301.441406 102.527344 C 302.550781 102.226562 303.019531 104.460938 304.023438 103.828125 C 305.085938 103.160156 304.128906 101.527344 305.085938 100.960938 Z M 305.085938 100.960938 " fill-opacity="1" fill-rule="evenodd"/><path fill="#000000" d="M 273.71875 54.699219 C 273.824219 54.730469 273.613281 54.753906 273.648438 54.65625 C 273.730469 54.460938 273.929688 53.996094 274.011719 53.796875 C 274.234375 53.21875 274.5 52.65625 274.769531 52.097656 C 275.609375 50.339844 276.671875 48.289062 278.660156 47.515625 C 279.941406 47.015625 281.367188 47.015625 282.734375 46.949219 C 286.050781 46.777344 289.636719 47.101562 292.90625 47.695312 C 294.550781 47.992188 296.886719 48.53125 297.285156 50.375 C 297.71875 52.390625 296.128906 54.554688 294.832031 55.972656 C 291.539062 59.582031 286.644531 62.464844 281.671875 63.214844 C 280.023438 63.464844 278.390625 63.527344 276.742188 63.300781 C 276.277344 63.238281 275.503906 63.191406 275.15625 62.859375 C 274.921875 62.640625 275.667969 62.296875 275.785156 62.246094 C 276.625 61.863281 277.515625 61.585938 278.367188 61.253906 C 281.261719 60.125 284.265625 59.035156 286.890625 57.402344 C 287.371094 57.105469 289.039062 56.230469 288.980469 55.46875 C 288.96875 55.253906 288.257812 55.207031 288.128906 55.183594 C 287.148438 55.019531 286.15625 54.945312 285.175781 54.84375 C 282.195312 54.539062 276.71875 54.65625 273.71875 54.699219 Z M 273.71875 54.699219 " fill-opacity="1" fill-rule="evenodd"/><path fill="#000000" d="M 145.808594 31.925781 C 145.894531 31.953125 145.722656 31.972656 145.75 31.894531 C 145.816406 31.734375 145.980469 31.359375 146.046875 31.203125 C 146.226562 30.738281 146.445312 30.289062 146.664062 29.839844 C 147.34375 28.429688 148.207031 26.785156 149.820312 26.164062 C 150.863281 25.765625 152.023438 25.765625 153.132812 25.710938 C 155.828125 25.574219 158.738281 25.832031 161.394531 26.308594 C 162.734375 26.546875 164.632812 26.976562 164.953125 28.460938 C 165.304688 30.074219 164.015625 31.8125 162.960938 32.949219 C 160.285156 35.84375 156.3125 38.152344 152.269531 38.757812 C 150.929688 38.957031 149.601562 39.007812 148.265625 38.824219 C 147.886719 38.777344 147.261719 38.738281 146.976562 38.472656 C 146.785156 38.296875 147.394531 38.019531 147.488281 37.980469 C 148.171875 37.671875 148.890625 37.453125 149.585938 37.183594 C 151.9375 36.277344 154.375 35.40625 156.511719 34.097656 C 156.898438 33.859375 158.257812 33.152344 158.207031 32.542969 C 158.199219 32.375 157.621094 32.335938 157.515625 32.316406 C 156.71875 32.183594 155.914062 32.125 155.117188 32.042969 C 152.695312 31.796875 148.246094 31.890625 145.808594 31.925781 Z M 145.808594 31.925781 " fill-opacity="1" fill-rule="evenodd"/><path fill="#000000" d="M 83.378906 45.191406 C 83.464844 45.214844 83.292969 45.234375 83.324219 45.15625 C 83.390625 45 83.550781 44.625 83.617188 44.464844 C 83.796875 44.003906 84.015625 43.550781 84.234375 43.101562 C 84.917969 41.695312 85.78125 40.046875 87.394531 39.425781 C 88.4375 39.027344 89.59375 39.027344 90.703125 38.972656 C 93.398438 38.835938 96.3125 39.097656 98.96875 39.574219 C 100.304688 39.8125 102.203125 40.242188 102.527344 41.722656 C 102.878906 43.335938 101.585938 45.074219 100.535156 46.210938 C 97.859375 49.105469 93.882812 51.417969 89.839844 52.019531 C 88.503906 52.21875 87.175781 52.269531 85.835938 52.089844 C 85.457031 52.039062 84.832031 52 84.546875 51.734375 C 84.355469 51.5625 84.964844 51.285156 85.058594 51.242188 C 85.742188 50.9375 86.464844 50.714844 87.15625 50.445312 C 89.507812 49.542969 91.949219 48.667969 94.082031 47.359375 C 94.472656 47.121094 95.828125 46.417969 95.78125 45.804688 C 95.769531 45.636719 95.191406 45.597656 95.085938 45.582031 C 94.289062 45.445312 93.484375 45.386719 92.6875 45.308594 C 90.269531 45.0625 85.820312 45.15625 83.378906 45.191406 Z M 83.378906 45.191406 " fill-opacity="1" fill-rule="evenodd"/><path fill="#000000" d="M 305.960938 58.375 C 305.878906 58.367188 305.703125 58.226562 305.601562 58.191406 C 305.308594 58.089844 305.003906 57.980469 304.710938 57.863281 C 303.695312 57.445312 302.773438 56.84375 302.703125 55.691406 C 302.574219 53.363281 304.6875 50.628906 306.59375 49.34375 C 307.914062 48.449219 309.3125 48.601562 310.65625 49.609375 C 312.441406 50.949219 312.523438 52.910156 312.199219 54.625 C 311.753906 56.925781 309.980469 59.160156 308.496094 60.863281 C 302.285156 68.019531 284.078125 77.335938 282.488281 76.359375 C 282.886719 76.417969 283.855469 75.675781 284.160156 75.496094 C 285.78125 74.5625 287.441406 73.675781 289.039062 72.710938 C 292.835938 70.421875 296.386719 67.761719 299.84375 65.027344 C 302.527344 62.886719 303.964844 61.128906 305.960938 58.375 Z M 305.960938 58.375 L 305.984375 58.335938 C 305.984375 58.363281 305.972656 58.375 305.960938 58.375 Z M 307.9375 55.355469 C 307.9375 55.359375 307.9375 55.363281 307.9375 55.359375 L 307.9375 55.355469 C 307.914062 55.328125 307.46875 55.042969 307.445312 55.027344 C 307.246094 54.875 307.09375 54.695312 306.988281 54.492188 C 306.605469 53.847656 306.605469 53.070312 307.480469 52.691406 C 308.191406 52.378906 308.953125 52.644531 309.078125 53.289062 C 309.171875 53.734375 308.707031 54.976562 307.9375 55.355469 Z M 307.9375 55.355469 " fill-opacity="1" fill-rule="evenodd"/><path fill="#000000" d="M 232.671875 62.015625 C 232.636719 62.003906 232.003906 63.214844 231.933594 63.335938 C 231.792969 63.609375 230.570312 65.628906 231.175781 65.730469 C 231.863281 65.839844 232.808594 65.3125 233.417969 65.074219 C 235.074219 64.410156 236.710938 63.652344 238.335938 62.902344 C 244.078125 60.25 249.882812 57.722656 255.78125 55.386719 C 257.136719 54.847656 258.492188 54.324219 259.855469 53.800781 C 261.316406 53.246094 263.160156 51.84375 262.660156 50.015625 C 262.519531 49.515625 238.765625 59.535156 232.671875 62.015625 Z M 232.671875 62.015625 " fill-opacity="1" fill-rule="evenodd"/><path fill="#000000" d="M 104.246094 28.574219 C 104.210938 28.5625 103.578125 29.777344 103.507812 29.898438 C 103.367188 30.167969 102.144531 32.191406 102.75 32.289062 C 103.4375 32.402344 104.386719 31.875 104.992188 31.636719 C 106.652344 30.96875 108.285156 30.210938 109.910156 29.460938 C 115.652344 26.808594 121.457031 24.28125 127.355469 21.945312 C 128.710938 21.410156 130.066406 20.882812 131.429688 20.363281 C 132.890625 19.804688 134.734375 18.40625 134.234375 16.578125 C 134.09375 16.078125 110.339844 26.097656 104.246094 28.574219 Z M 104.246094 28.574219 " fill-opacity="1" fill-rule="evenodd"/><path fill="#000000" d="M 88.378906 89.5625 C 88.34375 89.550781 87.714844 90.765625 87.644531 90.886719 C 87.503906 91.15625 86.277344 93.179688 86.886719 93.277344 C 87.574219 93.390625 88.519531 92.863281 89.128906 92.625 C 90.785156 91.957031 92.421875 91.199219 94.042969 90.449219 C 99.789062 87.796875 105.59375 85.269531 111.492188 82.933594 C 112.847656 82.398438 114.199219 81.871094 115.566406 81.351562 C 117.027344 80.792969 118.871094 79.394531 118.371094 77.566406 C 118.230469 77.066406 94.476562 87.085938 88.378906 89.5625 Z M 88.378906 89.5625 " fill-opacity="1" fill-rule="evenodd"/><path fill="#000000" d="M 202.378906 55.519531 C 202.203125 55.628906 202.25 56.347656 202.238281 56.515625 C 202.144531 57.488281 202.074219 58.464844 202.003906 59.4375 C 201.921875 60.65625 201.558594 62.300781 201.921875 63.5 C 202.179688 64.382812 203.40625 65.191406 204.046875 65.792969 C 205.332031 66.996094 206.488281 68.359375 207.703125 69.636719 C 208.660156 70.652344 209.640625 71.65625 210.5625 72.695312 C 210.714844 72.863281 211.496094 73.433594 211.476562 73.675781 C 211.453125 74.015625 210.632812 74.636719 210.410156 74.878906 C 209.394531 76.003906 208.425781 77.179688 207.539062 78.394531 C 204.410156 82.664062 202.621094 88.027344 204.140625 93.210938 C 204.703125 95.117188 205.683594 97.484375 207.914062 97.992188 C 211.125 98.722656 214.160156 96.558594 216.308594 94.605469 C 220.523438 90.769531 225.875 85.59375 223.632812 79.5625 C 222.824219 77.386719 221.003906 75.675781 219.195312 74.21875 C 218.339844 73.53125 216.894531 72.847656 217.265625 71.601562 C 217.722656 70.058594 219.007812 68.667969 219.976562 67.40625 C 221.902344 64.894531 224.003906 62.410156 225.453125 59.605469 C 226.140625 58.277344 226.246094 56.839844 226.246094 55.382812 C 226.246094 55.019531 226.363281 54.296875 226.1875 53.960938 C 226.175781 53.9375 225.136719 55.332031 225.066406 55.433594 C 224.332031 56.464844 223.585938 57.488281 222.835938 58.511719 C 220.886719 61.203125 218.855469 63.820312 216.777344 66.417969 C 216.378906 66.914062 215.433594 68.742188 214.746094 68.910156 C 214.5 68.972656 213.695312 68.167969 213.507812 68.03125 C 212.480469 67.261719 210.398438 66.085938 209.816406 64.976562 C 209.199219 63.828125 212.5625 63.945312 212.28125 63.167969 C 211.953125 62.242188 210.457031 61.3125 209.699219 60.746094 C 207.703125 59.253906 204.328125 57.066406 202.378906 55.519531 Z M 212.640625 76.097656 C 212.652344 76.039062 212.410156 76.382812 212.386719 76.421875 C 212.210938 76.671875 212.035156 76.917969 211.859375 77.164062 C 211.289062 77.984375 210.738281 78.816406 210.203125 79.664062 C 208.859375 81.808594 207.351562 84.082031 206.710938 86.539062 C 206.441406 87.589844 206.335938 88.878906 207.503906 89.453125 C 208.472656 89.933594 209.863281 89.753906 210.902344 89.640625 C 214.230469 89.28125 219.21875 87.28125 219.300781 83.511719 C 219.355469 80.964844 214.453125 77.546875 212.640625 76.097656 Z M 212.640625 76.097656 " fill-opacity="1" fill-rule="evenodd"/><path fill="#000000" d="M 206.519531 104.035156 C 206.507812 103.957031 206.148438 104.414062 206.125 104.445312 C 205.929688 104.738281 205.746094 105.035156 205.574219 105.34375 C 205.039062 106.300781 204.554688 107.28125 204.171875 108.300781 C 203.15625 111.039062 202.472656 114.269531 203.160156 117.144531 C 203.414062 118.179688 203.878906 119.761719 205.253906 119.90625 C 207.378906 120.128906 208.542969 117.820312 208.984375 116.292969 C 209.101562 115.894531 209.507812 114.867188 209.21875 114.464844 C 209.171875 114.386719 209.035156 114.660156 209.023438 114.683594 C 208.839844 115.039062 208.65625 115.390625 208.445312 115.734375 C 208.035156 116.4375 207.003906 117.511719 205.734375 117.070312 C 204.585938 116.671875 204.34375 114.824219 204.414062 113.820312 C 204.597656 110.890625 205.617188 107.054688 206.519531 104.035156 Z M 206.519531 104.035156 " fill-opacity="1" fill-rule="evenodd"/><path fill="#000000" d="M 176.992188 108.035156 C 176.980469 107.960938 176.625 108.417969 176.597656 108.449219 C 176.402344 108.738281 176.21875 109.039062 176.046875 109.34375 C 175.511719 110.300781 175.027344 111.28125 174.648438 112.300781 C 173.628906 115.042969 172.945312 118.273438 173.632812 121.144531 C 173.886719 122.179688 174.351562 123.765625 175.726562 123.910156 C 177.851562 124.128906 179.019531 121.824219 179.460938 120.296875 C 179.578125 119.894531 179.980469 118.871094 179.691406 118.46875 C 179.644531 118.390625 179.507812 118.664062 179.496094 118.683594 C 179.3125 119.039062 179.128906 119.390625 178.917969 119.738281 C 178.507812 120.441406 177.476562 121.511719 176.207031 121.074219 C 175.058594 120.675781 174.820312 118.828125 174.886719 117.820312 C 175.070312 114.890625 176.089844 111.058594 176.992188 108.035156 Z M 176.992188 108.035156 " fill-opacity="1" fill-rule="evenodd"/><path fill="#000000" d="M 141.765625 85.183594 C 141.914062 85.121094 142.972656 86.144531 143.097656 86.246094 C 144.339844 87.230469 145.558594 88.234375 146.808594 89.199219 C 147.003906 89.34375 148.015625 89.929688 147.949219 90.246094 C 147.914062 90.445312 147.457031 90.410156 147.320312 90.40625 C 146.570312 90.398438 145.820312 90.316406 145.066406 90.257812 C 144.917969 90.246094 144.238281 90.101562 144.191406 90.359375 C 144.125 90.851562 145.171875 91.753906 145.433594 92.070312 C 146.671875 93.511719 147.957031 95.023438 148.824219 96.722656 C 150.007812 99.066406 149.9375 101.886719 149.371094 104.382812 C 149.140625 105.410156 148.890625 106.472656 148.277344 107.351562 C 146.546875 109.839844 143.714844 111.320312 140.878906 112.148438 C 138.832031 112.753906 136.578125 113.253906 134.425781 113.015625 C 134.390625 112.902344 133.707031 112.785156 133.605469 112.753906 C 132.707031 112.46875 131.84375 112.046875 131.011719 111.601562 C 128.234375 110.132812 126.09375 107.707031 123.804688 105.605469 C 124.046875 105.488281 123.292969 105.796875 123.042969 105.902344 C 122.578125 106.085938 122.109375 106.257812 121.65625 106.433594 C 120.222656 106.96875 118.796875 107.496094 117.375 108.074219 C 112.980469 109.851562 108.40625 111.375 103.773438 112.355469 C 93.621094 114.503906 80.53125 115.460938 71.277344 109.714844 C 67.964844 107.648438 65.609375 104.957031 63.277344 101.886719 C 62.933594 101.425781 60.15625 94.734375 59.578125 92.339844 C 57.242188 82.609375 57.6875 72.445312 56.582031 62.527344 C 56.117188 58.40625 55.273438 54.328125 53.828125 50.433594 C 53.148438 48.605469 51.234375 46.484375 50.984375 44.582031 C 50.800781 43.21875 51.484375 41.574219 52.042969 40.355469 C 52.144531 40.136719 52.53125 39.242188 52.851562 39.214844 C 53.476562 39.160156 54.558594 41.734375 54.785156 42.15625 C 56.730469 45.753906 58.0625 49.582031 58.792969 53.609375 C 60.601562 63.609375 60.816406 73.820312 62.070312 83.890625 C 62.457031 87 63.3125 90.242188 64.199219 93.296875 C 65.019531 96.085938 67.964844 101.101562 68.25 101.386719 C 69.058594 102.222656 70.152344 103.234375 71.152344 103.8125 C 75.035156 106.058594 79.15625 107.414062 83.605469 108.0625 C 92.527344 109.359375 102.316406 108.144531 110.832031 105.171875 C 113.609375 104.203125 117.089844 103.289062 119.332031 101.25 C 119.492188 101.375 119.140625 100.886719 119.003906 100.730469 C 118.753906 100.445312 118.480469 100.167969 118.207031 99.90625 C 117.351562 99.101562 116.351562 98.320312 115.292969 97.808594 C 113.800781 97.085938 112.039062 96.84375 110.398438 96.875 C 109.679688 96.890625 108.78125 97.191406 108.078125 97.019531 C 107.519531 96.878906 107.382812 96.207031 107.472656 95.714844 C 107.835938 93.789062 110.011719 92.472656 111.648438 91.722656 C 115.964844 89.75 121.222656 89.785156 125.808594 90.632812 C 125.660156 90.636719 126.082031 90.691406 126.230469 90.71875 C 126.515625 90.769531 126.800781 90.820312 127.085938 90.875 C 127.914062 91.042969 128.746094 91.21875 129.578125 91.386719 C 131.785156 91.84375 133.980469 92.472656 136.222656 92.820312 C 136.472656 92.859375 138.089844 92.832031 138.191406 93.105469 C 138.570312 94.125 138.351562 95.585938 138.363281 96.652344 C 138.363281 96.996094 138.488281 97.59375 138.25 97.894531 C 137.773438 98.484375 136.167969 98.742188 135.507812 99.03125 C 133.308594 99.976562 131 100.957031 128.917969 102.140625 C 128.746094 101.933594 129.167969 102.605469 129.316406 102.820312 C 129.667969 103.3125 130.089844 103.738281 130.53125 104.152344 C 131.773438 105.332031 133.195312 106.363281 134.746094 107.109375 C 138.886719 109.121094 144.792969 108.257812 146.773438 103.535156 C 146.855469 103.738281 146.628906 103.128906 146.546875 102.921875 C 146.386719 102.46875 146.21875 102.015625 146.035156 101.570312 C 145.511719 100.304688 144.941406 99.058594 144.292969 97.855469 C 143.632812 96.632812 142.929688 95.308594 142.121094 94.175781 C 141.859375 93.820312 141.253906 93.800781 141.085938 93.421875 C 140.71875 92.628906 140.832031 91.648438 140.867188 90.804688 C 140.902344 89.375 141.253906 85.402344 141.765625 85.183594 Z M 121.324219 95.675781 C 121.3125 95.671875 122.863281 95.683594 123.125 95.667969 C 123.828125 95.628906 124.570312 95.699219 125.273438 95.738281 C 126.628906 95.808594 128.019531 95.933594 129.339844 96.296875 C 129.894531 96.453125 130.5 96.652344 131.160156 97.046875 C 131.238281 97.089844 131 97.101562 130.921875 97.128906 C 130.761719 97.175781 130.589844 97.21875 130.441406 97.273438 C 129.917969 97.4375 129.417969 97.65625 128.917969 97.863281 C 127.4375 98.476562 125.96875 99.136719 124.5 99.78125 C 124.570312 99.660156 124.238281 99.296875 124.183594 99.210938 C 123.761719 98.625 121.78125 96.234375 121.324219 95.675781 Z M 121.324219 95.675781 " fill-opacity="1" fill-rule="evenodd"/><path fill="#000000" d="M 200.089844 40.628906 C 199.988281 40.589844 200.242188 40.464844 200.300781 40.378906 C 200.429688 40.222656 200.546875 40.066406 200.675781 39.910156 C 201.109375 39.355469 201.539062 38.804688 201.972656 38.25 C 202.753906 37.246094 203.535156 36.238281 204.34375 35.25 C 204.53125 35.03125 204.9375 34.273438 205.253906 34.179688 C 205.347656 34.152344 205.605469 34.46875 205.652344 34.519531 C 206.070312 34.890625 206.527344 35.230469 206.957031 35.585938 C 208.230469 36.625 209.480469 37.6875 210.742188 38.742188 C 211.152344 39.082031 212.027344 39.515625 212.238281 40.027344 C 212.296875 40.160156 211.757812 40.625 211.6875 40.703125 C 211.082031 41.378906 210.472656 42.0625 209.867188 42.742188 C 209.128906 43.558594 208.394531 44.378906 207.671875 45.199219 C 207.472656 45.414062 207.179688 45.933594 206.886719 46.039062 C 206.644531 46.125 205.882812 45.277344 205.71875 45.148438 C 204.53125 44.214844 201.316406 41.515625 200.089844 40.628906 Z M 200.089844 40.628906 " fill-opacity="1" fill-rule="evenodd"/><path fill="#000000" d="M 212.269531 40.011719 C 212.164062 39.972656 212.421875 39.847656 212.480469 39.757812 C 212.609375 39.601562 212.722656 39.445312 212.851562 39.292969 C 213.285156 38.738281 213.71875 38.183594 214.148438 37.632812 C 214.933594 36.625 215.714844 35.621094 216.519531 34.632812 C 216.707031 34.410156 217.117188 33.65625 217.429688 33.5625 C 217.523438 33.535156 217.78125 33.847656 217.828125 33.898438 C 218.25 34.273438 218.703125 34.609375 219.136719 34.96875 C 220.410156 36.007812 221.660156 37.070312 222.917969 38.121094 C 223.328125 38.460938 224.203125 38.894531 224.414062 39.40625 C 224.472656 39.542969 223.933594 40.007812 223.867188 40.082031 C 223.257812 40.761719 222.652344 41.445312 222.042969 42.125 C 221.308594 42.941406 220.570312 43.757812 219.847656 44.582031 C 219.648438 44.792969 219.359375 45.316406 219.066406 45.417969 C 218.820312 45.503906 218.0625 44.65625 217.898438 44.53125 C 216.707031 43.597656 213.496094 40.898438 212.269531 40.011719 Z M 212.269531 40.011719 " fill-opacity="1" fill-rule="evenodd"/><path fill="#000000" d="M 306.429688 25.703125 C 307.152344 25.425781 308.636719 25.914062 309.335938 26.054688 C 312.371094 26.671875 315.304688 27.789062 318.105469 29.085938 C 328.542969 33.910156 336.105469 42.964844 340.785156 53.304688 C 341.957031 55.886719 342.921875 58.605469 343.519531 61.375 C 343.679688 62.125 344.164062 63.488281 343.828125 64.257812 C 343.53125 64.921875 342.773438 65.441406 342.253906 65.917969 C 341.152344 66.945312 340.128906 67.847656 338.863281 68.621094 C 337.234375 67.113281 334.945312 66.039062 333.09375 64.78125 C 332.53125 60.300781 330.613281 55.824219 328.636719 51.828125 C 325.269531 45.035156 320.808594 38.800781 315.394531 33.496094 C 312.933594 31.101562 309.453125 27.359375 306.429688 25.703125 Z M 306.429688 25.703125 " fill-opacity="1" fill-rule="evenodd"/><path fill="#000000" d="M 306.429688 120.882812 C 307.152344 121.160156 308.636719 120.675781 309.335938 120.53125 C 312.371094 119.914062 315.304688 118.800781 318.105469 117.503906 C 328.542969 112.675781 336.105469 103.621094 340.785156 93.28125 C 341.957031 90.703125 342.921875 87.980469 343.519531 85.210938 C 343.679688 84.464844 344.164062 83.097656 343.828125 82.328125 C 343.53125 81.664062 342.773438 81.148438 342.253906 80.667969 C 341.152344 79.644531 340.128906 78.738281 338.863281 77.96875 C 337.234375 79.472656 334.945312 80.546875 333.09375 81.804688 C 332.53125 86.285156 330.613281 90.761719 328.636719 94.757812 C 325.269531 101.554688 320.808594 107.785156 315.394531 113.089844 C 312.933594 115.488281 309.453125 119.226562 306.429688 120.882812 Z M 306.429688 120.882812 " fill-opacity="1" fill-rule="evenodd"/><path fill="#000000" d="M 352.117188 67.332031 C 351.828125 67.484375 351.566406 67.628906 351.496094 67.675781 C 349.839844 68.972656 348.210938 70.183594 346.359375 71.210938 C 345.726562 71.5625 345.070312 71.855469 344.425781 72.179688 C 344.324219 72.234375 344.035156 72.367188 343.886719 72.519531 C 343.679688 72.726562 343.625 72.972656 343.679688 73.210938 C 343.738281 73.449219 343.910156 73.652344 344.210938 73.746094 C 344.4375 73.816406 344.808594 73.800781 344.921875 73.804688 C 345.105469 73.804688 345.667969 74.019531 346.40625 74.3125 C 348.347656 75.074219 351.394531 76.460938 352.796875 77.246094 C 352.957031 77.339844 353.4375 77.667969 353.851562 77.957031 C 353.597656 78.121094 353.335938 78.277344 353.199219 78.332031 C 351.804688 78.871094 350.164062 79.414062 349.265625 80.6875 C 348.933594 81.164062 348.828125 81.714844 348.828125 82.296875 C 348.839844 82.984375 349.035156 83.722656 349.058594 84.347656 C 349.117188 86.035156 348.816406 87.503906 347.828125 88.902344 C 347.058594 90.003906 346.105469 91.046875 344.921875 91.710938 C 344.726562 91.820312 343.070312 92.628906 343.070312 92.628906 C 342.839844 92.742188 342.714844 92.996094 342.761719 93.253906 C 342.808594 93.507812 343.027344 93.695312 343.277344 93.714844 C 343.277344 93.714844 345.820312 93.894531 346.578125 93.792969 C 350.484375 93.289062 352.863281 90.796875 354.578125 87.453125 C 354.828125 86.96875 355.011719 86.359375 355.207031 85.761719 C 355.382812 85.269531 355.554688 84.78125 355.839844 84.4375 C 356.117188 84.113281 356.519531 83.894531 356.933594 83.679688 C 357.449219 83.417969 357.980469 83.171875 358.390625 82.859375 C 359.667969 81.90625 360.566406 80.695312 361.390625 79.34375 C 361.714844 78.816406 362.011719 78.277344 362.300781 77.734375 C 362.449219 77.472656 363.324219 75.851562 363.324219 75.851562 C 363.472656 75.574219 363.367188 75.226562 363.09375 75.074219 C 363.09375 75.074219 362.207031 74.59375 362.046875 74.511719 C 361.472656 74.226562 359.886719 73.507812 358.703125 72.980469 C 358.691406 72.980469 363.253906 71.574219 363.253906 71.574219 C 363.542969 71.484375 363.714844 71.1875 363.644531 70.894531 C 363.644531 70.894531 363.171875 68.894531 362.207031 67.011719 C 361.53125 65.679688 360.597656 64.421875 359.449219 63.859375 C 359.023438 63.648438 358.449219 63.488281 357.910156 63.3125 C 357.472656 63.175781 357.058594 63.039062 356.804688 62.804688 C 356.714844 62.722656 356.703125 62.570312 356.679688 62.425781 C 356.621094 62.140625 356.585938 61.84375 356.53125 61.625 C 356.242188 60.566406 355.792969 59.503906 355.230469 58.570312 C 352.886719 54.757812 347.003906 51.9375 342.796875 52.175781 C 342.519531 52.191406 342.289062 52.402344 342.253906 52.671875 C 342.222656 52.945312 342.382812 53.207031 342.644531 53.292969 C 344.003906 53.75 345.128906 55.0625 346.09375 56.625 C 347.632812 59.125 348.703125 62.285156 349.40625 64.101562 C 349.886719 65.355469 350.359375 66.148438 351.484375 66.929688 C 351.691406 67.074219 351.898438 67.210938 352.117188 67.332031 Z M 345.542969 92.679688 C 346.851562 91.929688 347.921875 90.785156 348.773438 89.558594 C 349.910156 87.945312 350.277344 86.253906 350.207031 84.304688 C 350.1875 83.777344 350.046875 83.175781 350.003906 82.585938 C 349.957031 82.144531 349.957031 81.703125 350.207031 81.347656 C 350.980469 80.257812 352.425781 79.863281 353.609375 79.40625 C 354 79.25 355.1875 78.4375 355.1875 78.4375 C 355.347656 78.332031 355.425781 78.15625 355.425781 77.96875 C 355.4375 77.78125 355.347656 77.605469 355.195312 77.5 C 355.195312 77.5 353.679688 76.421875 353.359375 76.246094 C 351.714844 75.324219 347.886719 73.601562 346.046875 72.945312 C 345.921875 72.902344 345.820312 72.863281 345.703125 72.832031 C 346.117188 72.636719 346.519531 72.4375 346.921875 72.214844 C 348.828125 71.160156 350.496094 69.914062 352.207031 68.582031 C 352.347656 68.472656 353.4375 67.984375 353.691406 67.816406 C 353.863281 67.695312 353.921875 67.558594 353.945312 67.492188 C 354 67.34375 354.035156 67.074219 353.761719 66.84375 C 353.667969 66.765625 353.152344 66.554688 353.09375 66.535156 C 352.761719 66.390625 352.4375 66.199219 352.140625 65.988281 C 351.230469 65.355469 350.863281 64.703125 350.472656 63.691406 C 349.761719 61.824219 348.65625 58.585938 347.070312 56.019531 C 346.472656 55.035156 345.785156 54.152344 345.035156 53.464844 L 345.035156 53.460938 C 348.53125 54.050781 352.484375 56.300781 354.253906 59.171875 C 354.761719 60.015625 355.164062 60.972656 355.414062 61.925781 C 355.484375 62.175781 355.507812 62.53125 355.589844 62.839844 C 355.667969 63.164062 355.816406 63.449219 356.023438 63.644531 C 356.3125 63.917969 356.75 64.128906 357.230469 64.300781 C 357.804688 64.503906 358.472656 64.660156 358.945312 64.886719 C 359.886719 65.355469 360.621094 66.433594 361.183594 67.53125 C 361.792969 68.722656 362.183594 69.960938 362.378906 70.636719 C 362.378906 70.636719 356.886719 72.332031 356.886719 72.332031 C 356.667969 72.402344 356.507812 72.609375 356.484375 72.847656 C 356.472656 73.089844 356.609375 73.3125 356.828125 73.40625 C 356.828125 73.40625 360.597656 75.070312 361.53125 75.539062 C 361.597656 75.574219 361.816406 75.695312 362.035156 75.8125 C 361.769531 76.308594 361.390625 77.015625 361.300781 77.179688 C 361.011719 77.707031 360.726562 78.234375 360.402344 78.746094 C 359.65625 79.96875 358.863281 81.074219 357.703125 81.9375 C 357.335938 82.21875 356.863281 82.425781 356.402344 82.660156 C 355.851562 82.945312 355.335938 83.261719 354.96875 83.699219 C 354.589844 84.140625 354.335938 84.753906 354.128906 85.394531 C 353.945312 85.933594 353.785156 86.492188 353.566406 86.929688 C 352.023438 89.921875 349.933594 92.203125 346.4375 92.65625 C 346.230469 92.679688 345.910156 92.6875 345.542969 92.679688 Z M 345.542969 92.679688 " fill-opacity="1" fill-rule="evenodd"/><path fill="#000000" d="M 339.210938 78.164062 C 339.347656 78.0625 340.175781 77.453125 340.265625 77.378906 C 341.542969 76.34375 343.980469 73.945312 345.140625 72.792969 C 345.253906 72.6875 345.3125 72.546875 345.3125 72.398438 C 345.3125 72.269531 345.277344 72.101562 345.140625 71.941406 C 345.035156 71.824219 344.785156 71.667969 344.726562 71.625 C 344.324219 71.328125 343.933594 71.035156 343.53125 70.742188 C 342.003906 69.605469 340.496094 68.347656 338.839844 67.375 C 338.601562 67.230469 338.277344 67.292969 338.105469 67.519531 C 337.644531 68.105469 336.449219 68.683594 335.820312 69.121094 C 334.082031 70.316406 332.277344 71.417969 330.519531 72.574219 C 330.269531 72.636719 330.164062 72.878906 330.152344 72.929688 C 330.105469 73.050781 330.039062 73.308594 330.289062 73.558594 C 330.324219 73.582031 330.554688 73.710938 330.636719 73.765625 C 330.808594 73.882812 330.980469 73.996094 331.152344 74.113281 C 331.75 74.519531 332.371094 74.898438 332.992188 75.273438 C 334.785156 76.355469 336.566406 77.476562 338.441406 78.40625 C 338.625 78.496094 338.839844 78.484375 339.015625 78.371094 C 339.09375 78.316406 339.164062 78.246094 339.210938 78.164062 Z M 343.875 72.429688 C 342.632812 73.652344 340.644531 75.589844 339.542969 76.488281 C 339.449219 76.558594 338.910156 76.914062 338.578125 77.1875 C 336.863281 76.3125 335.234375 75.28125 333.578125 74.289062 C 332.980469 73.925781 332.382812 73.558594 331.796875 73.164062 L 331.761719 73.136719 C 333.335938 72.117188 334.921875 71.128906 336.472656 70.066406 C 337.046875 69.667969 338.027344 69.136719 338.644531 68.597656 C 340.117188 69.511719 341.460938 70.640625 342.851562 71.667969 C 343.199219 71.917969 343.542969 72.171875 343.875 72.429688 Z M 330.601562 73.703125 Z M 330.601562 73.703125 " fill-opacity="1" fill-rule="evenodd"/><g clip-path="url(#8f05acbf50)"><path fill="#000000" d="M 363.207031 70.964844 L 374.921875 73.546875 L 363.207031 75.507812 L 358.300781 72.996094 Z M 363.207031 70.964844 " fill-opacity="1" fill-rule="evenodd"/></g><path fill="#000000" d="M 68.636719 20.808594 C 67.914062 20.53125 66.429688 21.015625 65.730469 21.160156 C 62.695312 21.777344 59.765625 22.890625 56.960938 24.1875 C 46.523438 29.015625 38.960938 38.070312 34.28125 48.410156 C 33.109375 50.988281 32.144531 53.710938 31.546875 56.480469 C 31.386719 57.226562 30.902344 58.59375 31.238281 59.363281 C 31.535156 60.027344 32.292969 60.542969 32.8125 61.023438 C 33.914062 62.046875 34.9375 62.953125 36.203125 63.722656 C 37.835938 62.21875 40.121094 61.144531 41.972656 59.886719 C 42.535156 55.40625 44.453125 50.929688 46.429688 46.933594 C 49.800781 40.136719 54.257812 33.90625 59.671875 28.601562 C 62.132812 26.203125 65.613281 22.464844 68.636719 20.808594 Z M 68.636719 20.808594 " fill-opacity="1" fill-rule="evenodd"/><path fill="#000000" d="M 68.636719 115.988281 C 67.914062 116.265625 66.429688 115.777344 65.730469 115.636719 C 62.695312 115.019531 59.765625 113.902344 56.960938 112.605469 C 46.523438 107.78125 38.960938 98.726562 34.28125 88.386719 C 33.109375 85.804688 32.144531 83.085938 31.546875 80.316406 C 31.386719 79.566406 30.902344 78.203125 31.238281 77.433594 C 31.535156 76.769531 32.292969 76.25 32.8125 75.773438 C 33.914062 74.746094 34.9375 73.84375 36.203125 73.070312 C 37.835938 74.578125 40.121094 75.652344 41.972656 76.910156 C 42.535156 81.390625 44.453125 85.867188 46.429688 89.863281 C 49.800781 96.65625 54.257812 102.890625 59.671875 108.195312 C 62.132812 110.59375 65.613281 114.332031 68.636719 115.988281 Z M 68.636719 115.988281 " fill-opacity="1" fill-rule="evenodd"/><path fill="#000000" d="M 22.949219 62.4375 C 23.238281 62.589844 23.5 62.734375 23.570312 62.78125 C 25.226562 64.078125 26.859375 65.289062 28.707031 66.316406 C 29.339844 66.667969 29.996094 66.960938 30.640625 67.285156 C 30.742188 67.339844 31.03125 67.472656 31.179688 67.625 C 31.386719 67.832031 31.445312 68.078125 31.386719 68.316406 C 31.328125 68.554688 31.15625 68.757812 30.859375 68.851562 C 30.628906 68.921875 30.261719 68.90625 30.144531 68.90625 C 29.960938 68.910156 29.398438 69.125 28.664062 69.414062 C 26.71875 70.179688 23.675781 71.5625 22.273438 72.351562 C 22.109375 72.441406 21.628906 72.773438 21.214844 73.0625 C 21.46875 73.226562 21.730469 73.382812 21.871094 73.4375 C 23.261719 73.972656 24.902344 74.515625 25.800781 75.792969 C 26.132812 76.265625 26.238281 76.820312 26.238281 77.398438 C 26.226562 78.089844 26.03125 78.828125 26.007812 79.453125 C 25.949219 81.140625 26.25 82.609375 27.238281 84.007812 C 28.007812 85.109375 28.960938 86.148438 30.144531 86.8125 C 30.339844 86.925781 31.996094 87.730469 31.996094 87.730469 C 32.226562 87.84375 32.351562 88.101562 32.304688 88.355469 C 32.261719 88.613281 32.042969 88.800781 31.789062 88.820312 C 31.789062 88.820312 29.25 89 28.488281 88.898438 C 24.582031 88.394531 22.203125 85.898438 20.492188 82.558594 C 20.238281 82.074219 20.054688 81.464844 19.859375 80.867188 C 19.6875 80.371094 19.511719 79.886719 19.226562 79.542969 C 18.949219 79.21875 18.546875 78.996094 18.132812 78.785156 C 17.617188 78.523438 17.089844 78.277344 16.675781 77.964844 C 15.398438 77.007812 14.503906 75.800781 13.675781 74.449219 C 13.351562 73.921875 13.054688 73.378906 12.765625 72.839844 C 12.617188 72.578125 11.742188 70.957031 11.742188 70.957031 C 11.59375 70.679688 11.699219 70.332031 11.972656 70.179688 C 11.972656 70.179688 12.859375 69.699219 13.019531 69.617188 C 13.59375 69.332031 15.179688 68.613281 16.363281 68.085938 C 16.375 68.082031 11.8125 66.679688 11.8125 66.679688 C 11.527344 66.589844 11.351562 66.292969 11.421875 65.996094 C 11.421875 65.996094 11.894531 64 12.859375 62.117188 C 13.535156 60.785156 14.46875 59.527344 15.617188 58.960938 C 16.042969 58.753906 16.617188 58.59375 17.15625 58.417969 C 17.59375 58.28125 18.007812 58.140625 18.261719 57.910156 C 18.351562 57.824219 18.363281 57.675781 18.386719 57.53125 C 18.445312 57.246094 18.480469 56.949219 18.535156 56.726562 C 18.824219 55.671875 19.273438 54.609375 19.835938 53.675781 C 22.179688 49.863281 28.066406 47.042969 32.273438 47.28125 C 32.546875 47.296875 32.777344 47.503906 32.8125 47.777344 C 32.847656 48.050781 32.683594 48.3125 32.421875 48.398438 C 31.066406 48.855469 29.9375 50.167969 28.972656 51.726562 C 27.433594 54.226562 26.363281 57.386719 25.664062 59.207031 C 25.179688 60.460938 24.707031 61.253906 23.582031 62.035156 C 23.375 62.179688 23.167969 62.316406 22.949219 62.4375 Z M 29.523438 87.785156 C 28.214844 87.035156 27.144531 85.886719 26.292969 84.664062 C 25.15625 83.050781 24.789062 81.359375 24.859375 79.410156 C 24.882812 78.882812 25.019531 78.277344 25.066406 77.691406 C 25.109375 77.246094 25.109375 76.808594 24.859375 76.453125 C 24.089844 75.363281 22.640625 74.96875 21.457031 74.511719 C 21.066406 74.355469 19.882812 73.542969 19.882812 73.542969 C 19.71875 73.4375 19.640625 73.261719 19.640625 73.074219 C 19.628906 72.886719 19.71875 72.710938 19.871094 72.605469 C 19.871094 72.605469 21.386719 71.527344 21.710938 71.351562 C 23.351562 70.425781 27.179688 68.707031 29.019531 68.050781 C 29.144531 68.007812 29.25 67.96875 29.363281 67.9375 C 28.949219 67.738281 28.546875 67.539062 28.144531 67.320312 C 26.238281 66.265625 24.570312 65.019531 22.859375 63.6875 C 22.71875 63.574219 21.628906 63.089844 21.375 62.921875 C 21.203125 62.800781 21.144531 62.660156 21.121094 62.597656 C 21.066406 62.449219 21.03125 62.179688 21.308594 61.949219 C 21.398438 61.871094 21.914062 61.660156 21.972656 61.640625 C 22.304688 61.492188 22.628906 61.300781 22.925781 61.09375 C 23.835938 60.460938 24.203125 59.808594 24.59375 58.796875 C 25.304688 56.929688 26.410156 53.691406 27.996094 51.125 C 28.59375 50.140625 29.28125 49.253906 30.03125 48.570312 L 30.03125 48.566406 C 26.535156 49.15625 22.582031 51.40625 20.8125 54.277344 C 20.308594 55.121094 19.90625 56.078125 19.652344 57.03125 C 19.582031 57.28125 19.558594 57.632812 19.480469 57.945312 C 19.398438 58.269531 19.25 58.554688 19.042969 58.75 C 18.753906 59.023438 18.316406 59.230469 17.835938 59.40625 C 17.261719 59.609375 16.59375 59.761719 16.121094 59.992188 C 15.179688 60.460938 14.445312 61.539062 13.882812 62.636719 C 13.273438 63.828125 12.882812 65.066406 12.6875 65.742188 C 12.6875 65.742188 18.179688 67.4375 18.179688 67.4375 C 18.398438 67.507812 18.558594 67.714844 18.582031 67.953125 C 18.59375 68.191406 18.457031 68.414062 18.238281 68.511719 C 18.238281 68.511719 14.46875 70.175781 13.535156 70.644531 C 13.46875 70.679688 13.25 70.796875 13.03125 70.914062 C 13.296875 71.410156 13.675781 72.121094 13.765625 72.285156 C 14.054688 72.8125 14.339844 73.339844 14.664062 73.851562 C 15.410156 75.074219 16.203125 76.179688 17.363281 77.042969 C 17.730469 77.320312 18.203125 77.53125 18.664062 77.765625 C 19.214844 78.046875 19.730469 78.367188 20.101562 78.800781 C 20.480469 79.246094 20.730469 79.859375 20.9375 80.5 C 21.121094 81.039062 21.285156 81.59375 21.503906 82.03125 C 23.042969 85.023438 25.132812 87.308594 28.628906 87.757812 C 28.835938 87.785156 29.15625 87.789062 29.523438 87.785156 Z M 29.523438 87.785156 " fill-opacity="1" fill-rule="evenodd"/><path fill="#000000" d="M 35.859375 73.269531 C 35.71875 73.164062 34.890625 72.558594 34.800781 72.484375 C 33.523438 71.449219 31.085938 69.050781 29.925781 67.894531 C 29.8125 67.789062 29.753906 67.648438 29.753906 67.5 C 29.753906 67.375 29.789062 67.207031 29.925781 67.046875 C 30.03125 66.929688 30.28125 66.769531 30.339844 66.726562 C 30.742188 66.433594 31.132812 66.136719 31.535156 65.84375 C 33.066406 64.710938 34.570312 63.453125 36.226562 62.480469 C 36.464844 62.335938 36.789062 62.394531 36.960938 62.625 C 37.421875 63.210938 38.617188 63.789062 39.246094 64.222656 C 40.984375 65.421875 42.789062 66.519531 44.546875 67.679688 C 44.800781 67.742188 44.902344 67.984375 44.914062 68.03125 C 44.960938 68.152344 45.03125 68.414062 44.777344 68.660156 C 44.742188 68.6875 44.511719 68.816406 44.433594 68.871094 C 44.257812 68.988281 44.085938 69.101562 43.914062 69.21875 C 43.316406 69.625 42.695312 70.003906 42.074219 70.378906 C 40.28125 71.460938 38.5 72.582031 36.628906 73.511719 C 36.445312 73.601562 36.226562 73.589844 36.054688 73.476562 C 35.972656 73.421875 35.902344 73.351562 35.859375 73.269531 Z M 31.191406 67.53125 C 32.433594 68.757812 34.421875 70.695312 35.523438 71.589844 C 35.617188 71.660156 36.15625 72.019531 36.488281 72.292969 C 38.203125 71.417969 39.835938 70.386719 41.488281 69.390625 C 42.085938 69.03125 42.683594 68.664062 43.269531 68.269531 L 43.304688 68.242188 C 41.730469 67.222656 40.144531 66.234375 38.59375 65.171875 C 38.019531 64.773438 37.042969 64.242188 36.421875 63.703125 C 34.949219 64.617188 33.605469 65.746094 32.214844 66.769531 C 31.871094 67.023438 31.523438 67.277344 31.191406 67.53125 Z M 44.464844 68.804688 L 44.464844 68.808594 Z M 44.464844 68.804688 " fill-opacity="1" fill-rule="evenodd"/><g clip-path="url(#f5eeffdb13)"><path fill="#000000" d="M 11.859375 66.070312 L 0.148438 68.648438 L 11.859375 70.609375 L 16.765625 68.097656 Z M 11.859375 66.070312 " fill-opacity="1" fill-rule="evenodd"/></g><path fill="#000000" d="M 45.007812 96.617188 C 47.238281 96.429688 49.46875 95.761719 51.621094 95.207031 C 60.761719 92.867188 68.730469 88.332031 76.558594 83.226562 C 81.351562 80.097656 86.144531 77.003906 90.378906 73.128906 C 94.746094 69.140625 97.492188 64.402344 101.132812 59.851562 C 102.726562 57.863281 104.820312 55.453125 107.609375 55.515625 C 109.363281 55.554688 110.546875 56.765625 111.503906 58.109375 C 113.621094 61.0625 114.460938 64.222656 113.460938 67.761719 C 113.117188 68.976562 112.605469 70.609375 111.46875 71.324219 C 108.851562 72.957031 103.96875 70.414062 101.703125 69.097656 C 100.894531 68.628906 100.144531 68.09375 99.4375 67.496094 C 99.253906 67.34375 98.96875 66.941406 98.6875 67.082031 C 97.617188 67.621094 96.96875 70.234375 96.5 71.230469 C 95.203125 74.042969 93.746094 76.316406 91.3125 78.28125 C 85.949219 82.613281 79.882812 86.101562 74 89.667969 C 69.683594 92.28125 65.417969 95.28125 60.535156 96.730469 C 55.730469 98.15625 49.980469 96.234375 45.007812 96.617188 C 44.972656 96.621094 44.929688 96.625 44.894531 96.625 C 44.929688 96.621094 44.972656 96.617188 45.007812 96.617188 Z M 102.898438 63.554688 C 102.941406 63.492188 103.058594 63.277344 103.125 63.199219 C 103.285156 62.996094 103.457031 62.800781 103.636719 62.617188 C 104.230469 62.003906 105.039062 61.257812 105.925781 61.175781 C 107.941406 60.992188 109.363281 63.484375 109.523438 65.214844 C 109.601562 66.105469 109.066406 66.363281 108.257812 66.160156 C 107.085938 65.859375 103.988281 64.128906 102.898438 63.554688 Z M 102.898438 63.554688 C 102.875 63.582031 102.863281 63.582031 102.863281 63.542969 Z M 102.898438 63.554688 " fill-opacity="1" fill-rule="evenodd"/><path fill="#000000" d="M 121.800781 35.648438 C 121.902344 35.03125 122.121094 34.085938 121.71875 33.554688 C 121.40625 33.140625 120.894531 33.253906 120.5 33.402344 C 119.617188 33.734375 118.390625 34.46875 118.117188 35.613281 C 117.832031 36.84375 119.214844 37.894531 119.976562 38.398438 C 121.121094 39.152344 122.445312 38.621094 123.605469 38.136719 C 124.925781 37.582031 125.890625 36.558594 126.882812 35.882812 C 127.148438 35.703125 127.695312 35.171875 127.773438 35.066406 C 127.828125 34.996094 128.304688 34.304688 128.375 34.367188 C 128.578125 34.546875 128.410156 35.917969 128.410156 36.191406 C 128.410156 36.386719 128.558594 37.132812 128.414062 37.296875 C 128.195312 37.546875 127.734375 37.699219 127.460938 37.867188 C 126.816406 38.269531 126.175781 38.703125 125.550781 39.148438 C 123.726562 40.433594 121.984375 41.835938 120.304688 43.355469 C 119.398438 44.179688 118.382812 44.972656 117.695312 46.070312 C 117.664062 46.070312 117.777344 45.71875 117.792969 45.679688 C 117.941406 45.210938 118.125 44.757812 118.308594 44.308594 C 118.765625 43.199219 119.269531 41.96875 119.984375 41.050781 C 120.023438 41.003906 119.738281 40.886719 119.730469 40.882812 C 119.527344 40.792969 119.328125 40.710938 119.132812 40.625 C 118.535156 40.359375 117.941406 40.066406 117.417969 39.628906 C 116.007812 38.449219 115.898438 36.816406 116.757812 35.089844 C 117.902344 32.765625 119.875 31.089844 122.011719 30.1875 C 122.316406 30.054688 122.636719 29.949219 122.964844 29.890625 C 123.175781 29.851562 123.386719 29.84375 123.597656 29.886719 C 125.230469 30.222656 124.195312 32.542969 123.644531 33.460938 C 123.296875 34.042969 122.203125 35.121094 121.800781 35.648438 Z M 121.800781 35.648438 " fill-opacity="1" fill-rule="evenodd"/><path fill="#000000" d="M 134.339844 72.132812 C 134.234375 72.09375 134.492188 71.96875 134.546875 71.882812 C 134.675781 71.722656 134.792969 71.570312 134.921875 71.414062 C 135.355469 70.859375 135.785156 70.308594 136.21875 69.753906 C 137 68.75 137.785156 67.742188 138.589844 66.753906 C 138.777344 66.535156 139.183594 65.777344 139.5 65.683594 C 139.59375 65.65625 139.851562 65.972656 139.898438 66.019531 C 140.316406 66.394531 140.773438 66.734375 141.207031 67.089844 C 142.476562 68.128906 143.726562 69.191406 144.988281 70.246094 C 145.398438 70.582031 146.273438 71.015625 146.484375 71.527344 C 146.542969 71.664062 146.003906 72.128906 145.933594 72.207031 C 145.328125 72.882812 144.71875 73.566406 144.113281 74.246094 C 143.378906 75.0625 142.640625 75.882812 141.917969 76.703125 C 141.71875 76.917969 141.425781 77.4375 141.136719 77.539062 C 140.890625 77.628906 140.132812 76.78125 139.96875 76.652344 C 138.777344 75.71875 135.566406 73.019531 134.339844 72.132812 Z M 134.339844 72.132812 " fill-opacity="1" fill-rule="evenodd"/><path fill="#000000" d="M 229.8125 82.84375 C 229.800781 82.828125 229.753906 82.738281 229.699219 82.789062 C 229.648438 82.84375 229.582031 83.035156 229.574219 83.074219 C 229.523438 83.289062 229.46875 83.507812 229.414062 83.722656 C 229.246094 84.394531 229.066406 85.0625 228.878906 85.730469 C 228.582031 86.78125 228.261719 87.824219 227.972656 88.875 C 227.894531 89.164062 227.820312 89.457031 227.753906 89.75 C 227.730469 89.867188 227.671875 90.023438 227.726562 90.140625 C 227.816406 90.335938 228.054688 90.511719 228.21875 90.660156 C 228.589844 91.003906 228.976562 91.335938 229.351562 91.679688 C 229.371094 91.65625 229.371094 91.734375 229.378906 91.761719 C 229.394531 91.8125 229.414062 91.859375 229.429688 91.910156 C 229.480469 92.050781 229.527344 92.191406 229.574219 92.332031 C 229.722656 92.75 229.871094 93.164062 230.011719 93.582031 C 230.441406 94.835938 230.929688 96.078125 231.449219 97.300781 C 233.019531 101 235.09375 104.546875 237.328125 107.945312 C 237.25 107.816406 237.132812 108.179688 237.03125 108.292969 C 236.832031 108.511719 236.621094 108.722656 236.40625 108.929688 C 235.769531 109.539062 235.148438 110.167969 234.472656 110.742188 C 232.441406 112.480469 230.382812 114.183594 228.207031 115.773438 C 224.164062 118.734375 219.664062 121.234375 214.917969 123.140625 C 211.691406 124.433594 208.289062 125.480469 204.765625 125.78125 C 204.734375 125.757812 204.441406 125.816406 204.394531 125.816406 C 204.039062 125.835938 203.6875 125.855469 203.332031 125.863281 C 202.027344 125.890625 200.71875 125.796875 199.4375 125.570312 C 195.570312 124.882812 192.390625 122.789062 190.351562 119.71875 C 190.167969 119.441406 190 119.089844 189.871094 118.777344 C 189.46875 117.8125 189.160156 116.816406 188.957031 115.796875 C 188.085938 111.398438 188.882812 106.6875 190.121094 102.410156 C 190.742188 100.257812 191.59375 98.175781 192.320312 96.050781 C 192.492188 95.542969 192.738281 94.980469 192.730469 94.441406 C 192.726562 93.929688 192.207031 94.152344 191.988281 94.398438 C 191.96875 94.386719 191.863281 94.574219 191.855469 94.582031 C 191.722656 94.796875 191.597656 95.019531 191.476562 95.246094 C 191.199219 95.761719 190.921875 96.28125 190.652344 96.804688 C 189.269531 99.527344 188.113281 102.339844 187.179688 105.21875 C 184.628906 113.0625 183.839844 123.28125 190.664062 129.585938 C 190.660156 129.589844 191.101562 129.863281 191.121094 129.875 C 191.695312 130.21875 192.246094 130.589844 192.828125 130.921875 C 195.222656 132.277344 197.984375 132.976562 200.773438 133.207031 C 208.996094 133.886719 217.121094 130.003906 223.558594 125.671875 C 223.59375 125.695312 223.839844 125.496094 223.886719 125.464844 C 224.214844 125.230469 224.542969 124.996094 224.875 124.769531 C 226.414062 123.714844 227.953125 122.65625 229.433594 121.539062 C 232.808594 119 236.492188 115.867188 238.335938 112.164062 C 239.558594 109.714844 239.9375 106.730469 239.75 104.0625 C 239.761719 104.0625 239.753906 103.949219 239.753906 103.9375 C 239.75 103.765625 239.734375 103.59375 239.722656 103.421875 C 239.664062 102.703125 239.535156 102 239.332031 101.300781 C 238.492188 98.425781 236.605469 95.933594 235.210938 93.277344 C 234.90625 92.695312 234.605469 92.117188 234.328125 91.523438 C 234.292969 91.449219 234.023438 91.011719 234.121094 90.925781 C 234.238281 90.828125 234.679688 91.105469 234.769531 91.152344 C 235.292969 91.425781 235.894531 91.976562 236.527344 92 C 237.371094 92.03125 236.972656 91.125 236.660156 90.789062 C 236.644531 90.792969 236.367188 90.398438 236.351562 90.378906 C 235.984375 89.875 235.589844 89.386719 235.199219 88.898438 C 233.589844 86.867188 230.742188 83.851562 229.8125 82.84375 Z M 229.8125 82.84375 " fill-opacity="1" fill-rule="evenodd"/></svg>