<svg xmlns="http://www.w3.org/2000/svg" xmlns:xlink="http://www.w3.org/1999/xlink" width="500" zoomAndPan="magnify" viewBox="0 0 375 157.92" height="200" preserveAspectRatio="xMidYMid meet" version="1.0"><defs><clipPath id="b9c7a82a5d"><path d="M 358 71 L 374.902344 71 L 374.902344 76 L 358 76 Z M 358 71 " clip-rule="nonzero"/></clipPath><clipPath id="134055ddc9"><path d="M 31 20.144531 L 69 20.144531 L 69 64 L 31 64 Z M 31 20.144531 " clip-rule="nonzero"/></clipPath><clipPath id="9bf148321d"><path d="M 0.09375 66 L 18 66 L 18 71 L 0.09375 71 Z M 0.09375 66 " clip-rule="nonzero"/></clipPath><clipPath id="932b3676b5"><path d="M 199 81 L 252 81 L 252 129.589844 L 199 129.589844 Z M 199 81 " clip-rule="nonzero"/></clipPath></defs><path fill="#000000" d="M 306.253906 25.367188 C 306.976562 25.089844 308.457031 25.582031 309.15625 25.726562 C 312.183594 26.351562 315.109375 27.480469 317.910156 28.792969 C 328.328125 33.679688 335.875 42.851562 340.546875 53.324219 C 341.714844 55.9375 342.679688 58.691406 343.277344 61.496094 C 343.4375 62.253906 343.917969 63.636719 343.585938 64.417969 C 343.289062 65.089844 342.53125 65.613281 342.015625 66.097656 C 340.914062 67.136719 339.890625 68.050781 338.628906 68.832031 C 337 67.308594 334.71875 66.222656 332.871094 64.949219 C 332.308594 60.410156 330.390625 55.875 328.417969 51.828125 C 325.058594 44.945312 320.605469 38.636719 315.203125 33.261719 C 312.746094 30.835938 309.269531 27.046875 306.253906 25.367188 Z M 306.253906 25.367188 " fill-opacity="1" fill-rule="evenodd"/><path fill="#000000" d="M 306.253906 121.765625 C 306.976562 122.042969 308.457031 121.554688 309.15625 121.410156 C 312.183594 120.785156 315.109375 119.65625 317.910156 118.339844 C 328.328125 113.453125 335.875 104.285156 340.546875 93.8125 C 341.714844 91.199219 342.679688 88.445312 343.277344 85.636719 C 343.4375 84.878906 343.917969 83.5 343.585938 82.71875 C 343.289062 82.046875 342.53125 81.519531 342.015625 81.035156 C 340.914062 80 339.890625 79.082031 338.628906 78.300781 C 337 79.828125 334.71875 80.914062 332.871094 82.1875 C 332.308594 86.726562 330.390625 91.257812 328.417969 95.308594 C 325.058594 102.1875 320.605469 108.5 315.203125 113.871094 C 312.746094 116.300781 309.269531 120.089844 306.253906 121.765625 Z M 306.253906 121.765625 " fill-opacity="1" fill-rule="evenodd"/><path fill="#000000" d="M 351.859375 67.53125 C 351.570312 67.6875 351.308594 67.832031 351.238281 67.878906 C 349.585938 69.191406 347.957031 70.417969 346.109375 71.457031 C 345.480469 71.8125 344.824219 72.109375 344.183594 72.441406 C 344.078125 72.496094 343.792969 72.628906 343.644531 72.785156 C 343.4375 72.996094 343.378906 73.242188 343.4375 73.484375 C 343.492188 73.726562 343.664062 73.929688 343.964844 74.023438 C 344.195312 74.097656 344.5625 74.082031 344.675781 74.082031 C 344.859375 74.085938 345.421875 74.300781 346.15625 74.597656 C 348.09375 75.371094 351.132812 76.773438 352.535156 77.570312 C 352.695312 77.664062 353.175781 78 353.589844 78.292969 C 353.335938 78.457031 353.074219 78.617188 352.9375 78.671875 C 351.546875 79.214844 349.90625 79.765625 349.011719 81.058594 C 348.679688 81.535156 348.578125 82.09375 348.578125 82.683594 C 348.585938 83.382812 348.78125 84.128906 348.804688 84.761719 C 348.863281 86.472656 348.566406 87.957031 347.578125 89.375 C 346.808594 90.492188 345.855469 91.546875 344.675781 92.21875 C 344.480469 92.332031 342.828125 93.148438 342.828125 93.148438 C 342.597656 93.261719 342.472656 93.523438 342.519531 93.78125 C 342.5625 94.039062 342.78125 94.230469 343.035156 94.25 C 343.035156 94.25 345.570312 94.433594 346.328125 94.332031 C 350.226562 93.820312 352.601562 91.292969 354.3125 87.910156 C 354.566406 87.417969 354.75 86.800781 354.945312 86.195312 C 355.117188 85.695312 355.289062 85.199219 355.574219 84.855469 C 355.851562 84.523438 356.25 84.300781 356.664062 84.089844 C 357.179688 83.820312 357.707031 83.574219 358.121094 83.257812 C 359.394531 82.289062 360.289062 81.066406 361.117188 79.695312 C 361.4375 79.160156 361.734375 78.613281 362.023438 78.0625 C 362.171875 77.800781 363.042969 76.160156 363.042969 76.160156 C 363.191406 75.878906 363.089844 75.527344 362.8125 75.371094 C 362.8125 75.371094 361.929688 74.886719 361.769531 74.800781 C 361.195312 74.515625 359.613281 73.785156 358.429688 73.25 C 358.421875 73.25 362.976562 71.828125 362.976562 71.828125 C 363.261719 71.734375 363.433594 71.433594 363.363281 71.136719 C 363.363281 71.136719 362.894531 69.113281 361.929688 67.207031 C 361.253906 65.859375 360.324219 64.582031 359.175781 64.011719 C 358.753906 63.800781 358.179688 63.636719 357.640625 63.460938 C 357.203125 63.320312 356.789062 63.179688 356.539062 62.945312 C 356.445312 62.859375 356.433594 62.707031 356.414062 62.5625 C 356.355469 62.273438 356.320312 61.972656 356.261719 61.75 C 355.976562 60.679688 355.527344 59.601562 354.964844 58.65625 C 352.625 54.796875 346.753906 51.9375 342.554688 52.179688 C 342.277344 52.195312 342.046875 52.40625 342.015625 52.683594 C 341.980469 52.960938 342.140625 53.226562 342.402344 53.3125 C 343.757812 53.777344 344.882812 55.105469 345.84375 56.683594 C 347.382812 59.214844 348.449219 62.417969 349.148438 64.257812 C 349.632812 65.527344 350.101562 66.332031 351.226562 67.125 C 351.433594 67.269531 351.640625 67.40625 351.859375 67.53125 Z M 345.296875 93.199219 C 346.601562 92.441406 347.667969 91.28125 348.519531 90.042969 C 349.65625 88.40625 350.023438 86.695312 349.953125 84.71875 C 349.929688 84.1875 349.792969 83.574219 349.746094 82.976562 C 349.699219 82.53125 349.699219 82.085938 349.953125 81.726562 C 350.722656 80.621094 352.167969 80.222656 353.347656 79.757812 C 353.738281 79.601562 354.921875 78.777344 354.921875 78.777344 C 355.082031 78.667969 355.160156 78.492188 355.160156 78.304688 C 355.171875 78.113281 355.082031 77.9375 354.933594 77.828125 C 354.933594 77.828125 353.417969 76.738281 353.097656 76.558594 C 351.457031 75.621094 347.636719 73.878906 345.800781 73.214844 C 345.671875 73.171875 345.570312 73.132812 345.457031 73.101562 C 345.867188 72.902344 346.269531 72.699219 346.671875 72.476562 C 348.578125 71.40625 350.238281 70.148438 351.949219 68.796875 C 352.085938 68.683594 353.175781 68.191406 353.429688 68.019531 C 353.601562 67.898438 353.660156 67.757812 353.679688 67.691406 C 353.738281 67.542969 353.773438 67.269531 353.5 67.035156 C 353.40625 66.957031 352.890625 66.746094 352.832031 66.722656 C 352.5 66.574219 352.179688 66.382812 351.878906 66.167969 C 350.972656 65.527344 350.605469 64.867188 350.21875 63.84375 C 349.503906 61.953125 348.402344 58.671875 346.820312 56.074219 C 346.222656 55.074219 345.535156 54.179688 344.789062 53.484375 C 348.277344 54.082031 352.226562 56.359375 353.992188 59.265625 C 354.496094 60.121094 354.898438 61.089844 355.148438 62.058594 C 355.21875 62.308594 355.242188 62.667969 355.320312 62.980469 C 355.402344 63.308594 355.550781 63.597656 355.757812 63.796875 C 356.046875 64.070312 356.480469 64.285156 356.960938 64.460938 C 357.535156 64.667969 358.203125 64.824219 358.671875 65.054688 C 359.613281 65.527344 360.347656 66.621094 360.910156 67.734375 C 361.519531 68.941406 361.90625 70.195312 362.101562 70.878906 C 362.101562 70.878906 356.617188 72.59375 356.617188 72.59375 C 356.402344 72.667969 356.238281 72.875 356.21875 73.117188 C 356.207031 73.359375 356.34375 73.585938 356.5625 73.683594 C 356.5625 73.683594 360.324219 75.367188 361.253906 75.839844 C 361.324219 75.878906 361.539062 76 361.757812 76.117188 C 361.496094 76.621094 361.117188 77.339844 361.023438 77.503906 C 360.738281 78.039062 360.449219 78.570312 360.128906 79.089844 C 359.382812 80.328125 358.59375 81.445312 357.433594 82.324219 C 357.066406 82.605469 356.597656 82.816406 356.136719 83.054688 C 355.585938 83.339844 355.070312 83.664062 354.703125 84.105469 C 354.324219 84.550781 354.070312 85.175781 353.863281 85.824219 C 353.679688 86.371094 353.519531 86.933594 353.304688 87.375 C 351.765625 90.40625 349.675781 92.71875 346.191406 93.175781 C 345.984375 93.203125 345.660156 93.207031 345.296875 93.199219 Z M 345.296875 93.199219 " fill-opacity="1" fill-rule="evenodd"/><path fill="#000000" d="M 338.972656 78.5 C 339.109375 78.394531 339.9375 77.78125 340.027344 77.703125 C 341.300781 76.660156 343.734375 74.230469 344.894531 73.058594 C 345.007812 72.953125 345.066406 72.808594 345.066406 72.660156 C 345.066406 72.53125 345.03125 72.359375 344.894531 72.199219 C 344.789062 72.082031 344.539062 71.917969 344.480469 71.875 C 344.078125 71.574219 343.6875 71.28125 343.289062 70.984375 C 341.761719 69.832031 340.257812 68.558594 338.605469 67.574219 C 338.367188 67.425781 338.042969 67.488281 337.871094 67.722656 C 337.414062 68.316406 336.21875 68.898438 335.589844 69.339844 C 333.855469 70.554688 332.054688 71.667969 330.300781 72.839844 C 330.046875 72.902344 329.945312 73.148438 329.933594 73.199219 C 329.886719 73.320312 329.816406 73.585938 330.070312 73.835938 C 330.105469 73.859375 330.335938 73.992188 330.414062 74.046875 C 330.585938 74.164062 330.757812 74.277344 330.929688 74.398438 C 331.527344 74.8125 332.148438 75.195312 332.765625 75.570312 C 334.554688 76.667969 336.335938 77.804688 338.203125 78.746094 C 338.386719 78.839844 338.605469 78.824219 338.777344 78.710938 C 338.859375 78.65625 338.925781 78.582031 338.972656 78.5 Z M 343.632812 72.691406 C 342.390625 73.933594 340.40625 75.894531 339.304688 76.800781 C 339.214844 76.871094 338.675781 77.234375 338.34375 77.511719 C 336.632812 76.625 335.003906 75.582031 333.351562 74.574219 C 332.753906 74.207031 332.160156 73.835938 331.574219 73.4375 L 331.539062 73.410156 C 333.109375 72.378906 334.695312 71.378906 336.242188 70.300781 C 336.816406 69.898438 337.792969 69.359375 338.410156 68.8125 C 339.878906 69.738281 341.222656 70.882812 342.609375 71.917969 C 342.953125 72.175781 343.296875 72.433594 343.632812 72.691406 Z M 330.378906 73.980469 Z M 330.378906 73.980469 " fill-opacity="1" fill-rule="evenodd"/><g clip-path="url(#b9c7a82a5d)"><path fill="#000000" d="M 362.929688 71.210938 L 374.621094 73.824219 L 362.929688 75.808594 L 358.03125 73.265625 Z M 362.929688 71.210938 " fill-opacity="1" fill-rule="evenodd"/></g><g clip-path="url(#134055ddc9)"><path fill="#000000" d="M 68.886719 20.410156 C 68.164062 20.132812 66.683594 20.625 65.984375 20.765625 C 62.953125 21.394531 60.027344 22.523438 57.230469 23.835938 C 46.8125 28.722656 39.261719 37.894531 34.59375 48.367188 C 33.421875 50.980469 32.460938 53.734375 31.863281 56.539062 C 31.703125 57.296875 31.222656 58.679688 31.554688 59.460938 C 31.851562 60.132812 32.609375 60.65625 33.125 61.140625 C 34.226562 62.179688 35.246094 63.09375 36.507812 63.875 C 38.140625 62.351562 40.421875 61.265625 42.269531 59.992188 C 42.832031 55.453125 44.746094 50.917969 46.71875 46.871094 C 50.082031 39.988281 54.535156 33.679688 59.9375 28.304688 C 62.390625 25.878906 65.867188 22.089844 68.886719 20.410156 Z M 68.886719 20.410156 " fill-opacity="1" fill-rule="evenodd"/></g><path fill="#000000" d="M 68.886719 116.808594 C 68.164062 117.085938 66.683594 116.59375 65.984375 116.453125 C 62.953125 115.824219 60.027344 114.695312 57.230469 113.382812 C 46.8125 108.496094 39.261719 99.324219 34.59375 88.851562 C 33.421875 86.238281 32.460938 83.484375 31.863281 80.679688 C 31.703125 79.921875 31.222656 78.539062 31.554688 77.757812 C 31.851562 77.085938 32.609375 76.5625 33.125 76.078125 C 34.226562 75.039062 35.246094 74.125 36.507812 73.34375 C 38.140625 74.867188 40.421875 75.953125 42.269531 77.226562 C 42.832031 81.765625 44.746094 86.300781 46.71875 90.347656 C 50.082031 97.230469 54.535156 103.539062 59.9375 108.914062 C 62.390625 111.339844 65.867188 115.128906 68.886719 116.808594 Z M 68.886719 116.808594 " fill-opacity="1" fill-rule="evenodd"/><path fill="#000000" d="M 23.28125 62.574219 C 23.566406 62.726562 23.832031 62.871094 23.902344 62.921875 C 25.554688 64.234375 27.183594 65.460938 29.03125 66.5 C 29.660156 66.855469 30.3125 67.152344 30.957031 67.480469 C 31.058594 67.535156 31.347656 67.671875 31.496094 67.828125 C 31.703125 68.039062 31.761719 68.285156 31.703125 68.527344 C 31.644531 68.769531 31.472656 68.972656 31.175781 69.066406 C 30.945312 69.136719 30.578125 69.125 30.464844 69.125 C 30.28125 69.128906 29.71875 69.34375 28.984375 69.640625 C 27.042969 70.414062 24.003906 71.816406 22.605469 72.613281 C 22.445312 72.707031 21.960938 73.039062 21.550781 73.332031 C 21.800781 73.5 22.066406 73.660156 22.203125 73.714844 C 23.589844 74.257812 25.230469 74.808594 26.125 76.097656 C 26.460938 76.578125 26.5625 77.136719 26.5625 77.726562 C 26.550781 78.425781 26.355469 79.171875 26.332031 79.804688 C 26.277344 81.511719 26.574219 83 27.5625 84.417969 C 28.328125 85.535156 29.28125 86.589844 30.464844 87.261719 C 30.660156 87.375 32.3125 88.191406 32.3125 88.191406 C 32.539062 88.304688 32.667969 88.566406 32.621094 88.824219 C 32.574219 89.082031 32.355469 89.273438 32.105469 89.292969 C 32.105469 89.292969 29.570312 89.472656 28.8125 89.371094 C 24.910156 88.863281 22.535156 86.335938 20.828125 82.949219 C 20.574219 82.460938 20.390625 81.839844 20.195312 81.238281 C 20.023438 80.738281 19.851562 80.242188 19.5625 79.898438 C 19.289062 79.566406 18.886719 79.34375 18.472656 79.128906 C 17.957031 78.863281 17.429688 78.617188 17.015625 78.296875 C 15.742188 77.332031 14.847656 76.109375 14.023438 74.738281 C 13.703125 74.203125 13.402344 73.65625 13.117188 73.105469 C 12.96875 72.84375 12.09375 71.203125 12.09375 71.203125 C 11.945312 70.917969 12.050781 70.566406 12.324219 70.414062 C 12.324219 70.414062 13.207031 69.929688 13.367188 69.84375 C 13.941406 69.554688 15.527344 68.828125 16.707031 68.292969 C 16.71875 68.292969 12.164062 66.867188 12.164062 66.867188 C 11.878906 66.777344 11.707031 66.476562 11.773438 66.179688 C 11.773438 66.179688 12.246094 64.15625 13.207031 62.246094 C 13.886719 60.902344 14.816406 59.625 15.960938 59.054688 C 16.386719 58.839844 16.960938 58.679688 17.5 58.503906 C 17.933594 58.363281 18.347656 58.222656 18.601562 57.988281 C 18.691406 57.902344 18.703125 57.75 18.726562 57.605469 C 18.785156 57.316406 18.820312 57.015625 18.875 56.789062 C 19.164062 55.722656 19.609375 54.644531 20.171875 53.699219 C 22.511719 49.835938 28.386719 46.980469 32.585938 47.222656 C 32.859375 47.238281 33.089844 47.449219 33.125 47.726562 C 33.160156 48.003906 33 48.265625 32.734375 48.355469 C 31.382812 48.816406 30.257812 50.144531 29.292969 51.726562 C 27.757812 54.257812 26.6875 57.460938 25.988281 59.300781 C 25.507812 60.570312 25.035156 61.375 23.914062 62.167969 C 23.707031 62.3125 23.5 62.449219 23.28125 62.574219 Z M 29.84375 88.242188 C 28.535156 87.484375 27.46875 86.324219 26.621094 85.085938 C 25.484375 83.449219 25.117188 81.734375 25.1875 79.761719 C 25.207031 79.230469 25.347656 78.617188 25.390625 78.019531 C 25.4375 77.570312 25.4375 77.128906 25.1875 76.769531 C 24.417969 75.664062 22.972656 75.265625 21.789062 74.800781 C 21.398438 74.644531 20.21875 73.820312 20.21875 73.820312 C 20.058594 73.710938 19.976562 73.535156 19.976562 73.34375 C 19.964844 73.15625 20.058594 72.980469 20.207031 72.871094 C 20.207031 72.871094 21.722656 71.78125 22.042969 71.597656 C 23.683594 70.664062 27.503906 68.921875 29.339844 68.257812 C 29.464844 68.214844 29.570312 68.175781 29.683594 68.140625 C 29.269531 67.941406 28.867188 67.742188 28.46875 67.519531 C 26.5625 66.449219 24.898438 65.1875 23.191406 63.835938 C 23.050781 63.726562 21.960938 63.234375 21.710938 63.0625 C 21.539062 62.941406 21.480469 62.800781 21.457031 62.734375 C 21.398438 62.582031 21.367188 62.3125 21.640625 62.078125 C 21.734375 62 22.25 61.785156 22.304688 61.765625 C 22.640625 61.617188 22.960938 61.421875 23.257812 61.210938 C 24.164062 60.570312 24.53125 59.910156 24.921875 58.886719 C 25.632812 56.996094 26.734375 53.714844 28.316406 51.117188 C 28.914062 50.117188 29.601562 49.222656 30.347656 48.527344 L 30.347656 48.523438 C 26.859375 49.125 22.914062 51.402344 21.148438 54.308594 C 20.644531 55.160156 20.242188 56.132812 19.988281 57.097656 C 19.917969 57.351562 19.898438 57.707031 19.816406 58.023438 C 19.738281 58.351562 19.585938 58.640625 19.378906 58.839844 C 19.09375 59.113281 18.65625 59.328125 18.175781 59.5 C 17.601562 59.710938 16.9375 59.863281 16.464844 60.097656 C 15.527344 60.570312 14.792969 61.660156 14.230469 62.777344 C 13.621094 63.980469 13.230469 65.238281 13.035156 65.921875 C 13.035156 65.921875 18.519531 67.636719 18.519531 67.636719 C 18.738281 67.710938 18.898438 67.917969 18.921875 68.160156 C 18.933594 68.402344 18.796875 68.628906 18.578125 68.726562 C 18.578125 68.726562 14.816406 70.410156 13.886719 70.882812 C 13.816406 70.921875 13.597656 71.039062 13.378906 71.160156 C 13.644531 71.664062 14.023438 72.378906 14.113281 72.546875 C 14.402344 73.082031 14.6875 73.613281 15.007812 74.132812 C 15.753906 75.371094 16.546875 76.488281 17.707031 77.367188 C 18.074219 77.648438 18.542969 77.859375 19.003906 78.097656 C 19.554688 78.382812 20.070312 78.707031 20.4375 79.148438 C 20.816406 79.59375 21.066406 80.21875 21.273438 80.863281 C 21.457031 81.410156 21.617188 81.976562 21.835938 82.417969 C 23.375 85.449219 25.460938 87.761719 28.949219 88.21875 C 29.15625 88.246094 29.476562 88.25 29.84375 88.242188 Z M 29.84375 88.242188 " fill-opacity="1" fill-rule="evenodd"/><path fill="#000000" d="M 36.164062 73.542969 C 36.027344 73.4375 35.203125 72.824219 35.109375 72.746094 C 33.835938 71.699219 31.402344 69.269531 30.246094 68.101562 C 30.128906 67.996094 30.074219 67.851562 30.074219 67.703125 C 30.074219 67.574219 30.109375 67.402344 30.246094 67.238281 C 30.347656 67.125 30.601562 66.960938 30.660156 66.917969 C 31.058594 66.617188 31.449219 66.320312 31.851562 66.023438 C 33.378906 64.875 34.878906 63.601562 36.53125 62.617188 C 36.773438 62.46875 37.09375 62.53125 37.265625 62.761719 C 37.726562 63.355469 38.917969 63.941406 39.550781 64.382812 C 41.28125 65.59375 43.082031 66.710938 44.839844 67.882812 C 45.089844 67.945312 45.195312 68.191406 45.207031 68.238281 C 45.253906 68.363281 45.320312 68.625 45.070312 68.875 C 45.035156 68.902344 44.804688 69.03125 44.722656 69.089844 C 44.550781 69.207031 44.378906 69.320312 44.207031 69.441406 C 43.613281 69.851562 42.992188 70.234375 42.371094 70.613281 C 40.582031 71.710938 38.804688 72.847656 36.933594 73.789062 C 36.75 73.878906 36.53125 73.867188 36.359375 73.753906 C 36.28125 73.699219 36.210938 73.625 36.164062 73.542969 Z M 31.507812 67.734375 C 32.746094 68.972656 34.730469 70.9375 35.832031 71.84375 C 35.925781 71.914062 36.464844 72.277344 36.796875 72.554688 C 38.507812 71.667969 40.136719 70.621094 41.789062 69.617188 C 42.382812 69.25 42.980469 68.878906 43.566406 68.480469 L 43.601562 68.453125 C 42.027344 67.417969 40.445312 66.417969 38.894531 65.339844 C 38.324219 64.941406 37.347656 64.402344 36.726562 63.855469 C 35.257812 64.78125 33.917969 65.925781 32.527344 66.960938 C 32.183594 67.21875 31.839844 67.476562 31.507812 67.734375 Z M 44.757812 69.023438 Z M 44.757812 69.023438 " fill-opacity="1" fill-rule="evenodd"/><g clip-path="url(#9bf148321d)"><path fill="#000000" d="M 12.210938 66.253906 L 0.519531 68.863281 L 12.210938 70.851562 L 17.109375 68.308594 Z M 12.210938 66.253906 " fill-opacity="1" fill-rule="evenodd"/></g><path fill="#000000" d="M 143.542969 50.648438 C 143.550781 50.605469 143.507812 50.734375 143.488281 50.769531 C 143.433594 50.851562 143.378906 50.9375 143.324219 51.019531 C 143.164062 51.265625 143.003906 51.511719 142.839844 51.753906 C 142.296875 52.554688 141.765625 53.363281 141.269531 54.1875 C 140.984375 54.65625 140.714844 55.128906 140.457031 55.605469 C 139.476562 57.425781 138.28125 59.574219 139.773438 61.488281 C 140 61.777344 140.28125 62.03125 140.597656 62.238281 C 140.988281 62.488281 141.4375 62.652344 141.902344 62.730469 C 145.5625 63.320312 148.40625 59.273438 146.726562 56.449219 C 146.207031 55.574219 145.359375 54.878906 144.496094 54.269531 C 144.132812 54.011719 143.339844 53.683594 143.148438 53.277344 C 143.03125 53.023438 143.367188 52.667969 143.496094 52.46875 C 143.792969 52.011719 144.511719 50.945312 143.542969 50.648438 Z M 141.757812 55.957031 C 141.644531 56.230469 141.40625 56.488281 141.261719 56.75 C 140.855469 57.488281 140.640625 58.367188 141.257812 59.070312 C 142.007812 59.921875 143.25 59.851562 144.3125 59.632812 C 144.605469 59.574219 144.882812 59.507812 145.132812 59.351562 C 145.222656 59.296875 145.34375 59.230469 145.378906 59.132812 C 145.414062 59.03125 145.339844 58.929688 145.289062 58.847656 C 145.144531 58.617188 144.96875 58.40625 144.777344 58.207031 C 144.238281 57.636719 143.625 57.097656 142.980469 56.621094 C 142.710938 56.421875 142.066406 55.980469 141.757812 55.957031 Z M 141.757812 55.957031 " fill-opacity="1" fill-rule="evenodd"/><path fill="#000000" d="M 110.121094 92.132812 C 110.058594 92.175781 109.722656 92.359375 109.582031 92.425781 C 109.195312 92.597656 108.804688 92.75 108.417969 92.910156 C 107.328125 93.339844 106.230469 93.730469 105.121094 94.105469 C 101.941406 95.207031 98.707031 96.1875 95.417969 96.929688 C 88.691406 98.472656 81.628906 99.25 74.730469 98.96875 C 70.332031 98.796875 65.742188 98.171875 62.109375 95.507812 C 62.117188 95.519531 61.847656 95.402344 61.839844 95.402344 C 61.675781 95.292969 61.515625 95.183594 61.363281 95.066406 C 60.910156 94.710938 60.492188 94.324219 60.125 93.871094 C 58.992188 92.5 58.496094 90.765625 58.300781 89.03125 C 57.851562 84.976562 58.65625 80.78125 59.941406 76.957031 C 60.4375 75.492188 61.03125 73.605469 62.183594 72.484375 C 61.570312 73.613281 61.558594 75.351562 61.386719 76.589844 C 60.878906 80.511719 60.597656 85.203125 63.078125 88.535156 C 63.5625 89.179688 65.09375 90.398438 65.589844 90.734375 C 67.421875 91.984375 69.417969 92.792969 71.605469 93.125 C 76.285156 93.828125 81.175781 93.277344 85.84375 92.78125 C 94.144531 91.898438 105.078125 90.066406 113.527344 85.9375 C 116.253906 84.597656 118.226562 82.5625 120.425781 80.835938 C 120.222656 80.558594 120.148438 80.136719 119.953125 79.824219 C 119.457031 79.035156 118.539062 78.445312 117.636719 78.25 C 114.152344 77.496094 109.734375 81.050781 106.746094 77.980469 C 106.425781 77.65625 106.15625 77.28125 105.929688 76.878906 C 104.417969 74.089844 106.574219 70.53125 108.171875 68.300781 C 108.644531 67.632812 109.152344 66.996094 109.746094 66.425781 C 111.058594 65.171875 112.796875 64.277344 114.550781 65.164062 C 114.5 65.195312 114.660156 65.21875 114.714844 65.25 C 114.832031 65.324219 114.960938 65.410156 115.082031 65.496094 C 115.46875 65.757812 115.835938 66.046875 116.191406 66.347656 C 117.238281 67.242188 118.207031 68.234375 119.046875 69.3125 C 121.515625 72.429688 123.695312 76.792969 123.015625 80.878906 C 122.9375 80.878906 122.992188 81.03125 122.972656 81.097656 C 122.929688 81.234375 122.886719 81.375 122.832031 81.515625 C 122.703125 81.914062 122.539062 82.292969 122.367188 82.667969 C 121.796875 83.910156 121.03125 85.042969 120.082031 86.023438 C 117.410156 88.804688 113.59375 90.582031 110.121094 92.132812 Z M 110.121094 92.132812 L 110.101562 92.144531 C 110.144531 92.125 110.144531 92.125 110.121094 92.132812 Z M 115.652344 74.316406 C 115.382812 73.980469 114.714844 74.023438 114.316406 74.011719 C 113.355469 73.96875 112.40625 74.054688 111.449219 74.195312 C 110.820312 74.28125 110.089844 74.390625 109.703125 73.765625 C 108.839844 72.363281 110.402344 70.328125 111.867188 70.292969 C 113.34375 70.273438 115.261719 72.019531 115.652344 74.316406 Z M 115.652344 74.316406 " fill-opacity="1" fill-rule="evenodd"/><path fill="#000000" d="M 166.371094 93.648438 C 165.90625 93.589844 165.636719 93.40625 165.140625 93.765625 C 164.375 94.320312 164.289062 95.832031 165.183594 96.324219 C 166.1875 96.867188 167.492188 95.792969 168.210938 95.214844 C 168.40625 95.0625 169.140625 94.539062 169.054688 95.210938 C 168.988281 95.695312 167.921875 96.207031 167.585938 96.460938 C 166.109375 97.578125 164.578125 98.746094 163.351562 100.136719 C 162.800781 100.753906 162.1875 101.566406 162.875 102.304688 C 164.621094 104.183594 167.804688 102.980469 169.667969 101.957031 C 170.292969 101.609375 170.886719 101.226562 171.46875 100.796875 C 171.566406 100.71875 172.460938 100.039062 172.363281 100.300781 C 172.113281 100.9375 171.46875 101.535156 171.046875 102.046875 C 169.160156 104.292969 166.238281 106.226562 163.199219 105.070312 C 162.789062 104.914062 162.378906 104.679688 162.058594 104.378906 C 159.773438 102.269531 161.863281 99.328125 163.859375 98 C 163.804688 97.589844 162.941406 97.125 162.726562 96.496094 C 162.433594 95.667969 162.789062 93.769531 163.621094 92.882812 C 164.710938 91.730469 166.402344 91.839844 166.371094 93.648438 Z M 166.371094 93.648438 " fill-opacity="1" fill-rule="evenodd"/><path fill="#000000" d="M 193.179688 30.027344 C 193.210938 30.332031 193.191406 30.804688 193.058594 31.160156 C 192.53125 32.558594 191.21875 34.773438 191.398438 36.265625 C 191.480469 36.949219 192.382812 37.320312 192.574219 38 C 193.160156 40.039062 193.390625 42.289062 193.765625 44.371094 C 195.878906 56.101562 197.875 67.835938 199.773438 79.59375 C 200.695312 85.21875 201.777344 90.820312 202.28125 96.488281 C 202.445312 98.34375 202.597656 100.199219 202.667969 102.058594 C 202.6875 102.671875 202.675781 103.289062 202.667969 103.902344 C 202.667969 104.222656 202.355469 105.046875 202.648438 104.871094 C 203.191406 104.550781 203.4375 102.472656 203.585938 101.964844 C 204.519531 98.707031 205.136719 95.453125 205.164062 92.078125 C 205.296875 78.796875 201.6875 65.660156 199.398438 52.617188 C 198.957031 50.03125 198.390625 47.453125 198.035156 44.855469 C 197.914062 43.96875 197.417969 42.640625 197.652344 41.753906 C 197.914062 40.800781 201.515625 44.082031 200.65625 41.976562 C 200.574219 41.765625 200.472656 41.558594 200.382812 41.351562 C 200.21875 41.007812 200.066406 40.660156 199.90625 40.316406 C 198.550781 37.503906 196.820312 34.902344 195.101562 32.261719 C 194.789062 31.785156 193.765625 29.285156 193.179688 30.027344 Z M 193.179688 30.027344 " fill-opacity="1" fill-rule="evenodd"/><path fill="#000000" d="M 124.578125 32.753906 C 124.601562 32.980469 124.585938 33.328125 124.488281 33.59375 C 124.097656 34.632812 123.117188 36.273438 123.253906 37.382812 C 123.3125 37.890625 123.984375 38.164062 124.125 38.671875 C 124.5625 40.183594 124.734375 41.855469 125.015625 43.398438 C 126.585938 52.101562 128.070312 60.808594 129.484375 69.539062 C 130.167969 73.710938 130.972656 77.871094 131.347656 82.074219 C 131.46875 83.449219 131.582031 84.828125 131.632812 86.207031 C 131.648438 86.664062 131.640625 87.121094 131.632812 87.578125 C 131.632812 87.816406 131.402344 88.425781 131.621094 88.292969 C 132.027344 88.058594 132.207031 86.515625 132.320312 86.140625 C 133.011719 83.722656 133.46875 81.304688 133.492188 78.800781 C 133.589844 68.945312 130.90625 59.195312 129.203125 49.515625 C 128.875 47.597656 128.453125 45.683594 128.1875 43.757812 C 128.097656 43.101562 127.730469 42.113281 127.902344 41.457031 C 128.097656 40.75 130.777344 43.183594 130.136719 41.621094 C 130.078125 41.464844 130.003906 41.3125 129.933594 41.160156 C 129.8125 40.902344 129.703125 40.644531 129.582031 40.390625 C 128.574219 38.300781 127.285156 36.371094 126.007812 34.410156 C 125.773438 34.058594 125.015625 32.203125 124.578125 32.753906 Z M 124.578125 32.753906 " fill-opacity="1" fill-rule="evenodd"/><path fill="#000000" d="M 144.292969 41.230469 C 144.441406 41.449219 144.617188 41.824219 144.644531 42.160156 C 144.742188 43.484375 144.472656 45.800781 145.238281 46.871094 C 145.585938 47.359375 146.535156 47.226562 146.976562 47.664062 C 148.320312 48.960938 149.4375 50.589844 150.609375 52.019531 C 157.222656 60.089844 163.730469 68.214844 170.171875 76.402344 C 173.257812 80.3125 176.480469 84.132812 179.222656 88.273438 C 180.113281 89.625 181 90.988281 181.8125 92.390625 C 182.078125 92.851562 182.316406 93.332031 182.558594 93.808594 C 182.6875 94.058594 182.742188 94.839844 182.929688 94.566406 C 183.285156 94.066406 182.660156 92.351562 182.589844 91.890625 C 182.097656 88.945312 181.328125 86.148438 179.992188 83.53125 C 174.738281 73.222656 166.230469 64.769531 158.933594 55.765625 C 157.492188 53.980469 155.949219 52.253906 154.585938 50.414062 C 154.121094 49.789062 153.144531 48.992188 152.992188 48.203125 C 152.839844 47.34375 157.355469 48.203125 155.742188 46.976562 C 155.585938 46.855469 155.414062 46.742188 155.25 46.625 C 154.964844 46.433594 154.691406 46.234375 154.410156 46.046875 C 152.070312 44.503906 149.488281 43.300781 146.898438 42.0625 C 146.429688 41.839844 144.511719 40.386719 144.292969 41.230469 Z M 144.292969 41.230469 " fill-opacity="1" fill-rule="evenodd"/><path fill="#000000" d="M 178.230469 36.707031 C 178.132812 36.804688 178.261719 36.429688 178.292969 36.292969 C 178.371094 36.015625 178.445312 35.738281 178.519531 35.464844 C 178.746094 34.714844 178.984375 33.96875 179.273438 33.246094 C 179.359375 33.03125 179.535156 32.472656 179.847656 32.707031 C 180.632812 33.296875 181.0625 34.644531 181.496094 35.480469 C 182.574219 37.550781 183.664062 39.625 184.644531 41.738281 C 184.988281 42.46875 185.300781 43.210938 185.601562 43.957031 C 185.65625 44.117188 185.882812 44.527344 185.710938 44.691406 C 185.386719 45.007812 184.148438 43.957031 183.886719 43.777344 C 184.070312 43.824219 183.597656 43.53125 183.445312 43.417969 C 183.132812 43.191406 182.820312 42.917969 182.476562 42.746094 C 182.410156 42.773438 182.617188 43.570312 182.628906 43.613281 C 182.800781 44.542969 183.027344 45.457031 183.210938 46.382812 C 183.996094 50.335938 184.761719 54.292969 185.367188 58.273438 C 187.070312 69.53125 189.34375 80.480469 187.425781 91.875 C 187.597656 91.964844 186.960938 93.871094 186.917969 94.039062 C 186.292969 96.382812 185.429688 98.691406 183.984375 100.667969 C 178.574219 108.074219 169.367188 110.503906 161.054688 112.996094 C 161.078125 113.101562 161.21875 112.855469 161.304688 112.789062 C 161.542969 112.628906 161.769531 112.464844 162.003906 112.316406 C 162.585938 111.9375 163.167969 111.5625 163.75 111.183594 C 165.574219 109.988281 167.382812 108.777344 169.207031 107.582031 C 174.703125 103.96875 180.449219 100.503906 184.742188 95.433594 C 184.75 95.488281 184.902344 94.945312 184.914062 94.894531 C 184.976562 94.476562 185.03125 94.050781 185.085938 93.628906 C 185.246094 92.210938 185.3125 90.777344 185.34375 89.351562 C 185.429688 85.078125 185.234375 80.773438 184.878906 76.519531 C 184.09375 67.15625 182.054688 57.855469 180.253906 48.644531 C 179.78125 46.242188 179.273438 43.8125 178.996094 41.378906 C 178.929688 40.84375 178.960938 39.570312 178.820312 38.664062 C 178.691406 37.761719 178.390625 37.230469 178.230469 36.707031 Z M 178.230469 36.707031 " fill-opacity="1" fill-rule="evenodd"/><path fill="#000000" d="M 146.84375 34.453125 C 146.917969 34.070312 147.070312 33.492188 146.789062 33.164062 C 146.570312 32.910156 146.210938 32.980469 145.9375 33.070312 C 145.320312 33.273438 144.460938 33.726562 144.273438 34.429688 C 144.074219 35.1875 145.039062 35.832031 145.570312 36.144531 C 146.371094 36.609375 147.296875 36.28125 148.105469 35.984375 C 149.027344 35.640625 149.703125 35.011719 150.398438 34.597656 C 150.582031 34.484375 150.964844 34.160156 151.019531 34.09375 C 151.058594 34.050781 151.390625 33.625 151.4375 33.664062 C 151.582031 33.773438 151.460938 34.617188 151.460938 34.785156 C 151.460938 34.90625 151.566406 35.363281 151.46875 35.464844 C 151.316406 35.617188 150.992188 35.714844 150.800781 35.816406 C 150.351562 36.0625 149.902344 36.328125 149.464844 36.605469 C 148.191406 37.394531 146.972656 38.257812 145.800781 39.191406 C 145.167969 39.699219 144.457031 40.1875 143.976562 40.863281 C 143.953125 40.863281 144.035156 40.644531 144.042969 40.621094 C 144.148438 40.332031 144.277344 40.054688 144.40625 39.777344 C 144.722656 39.09375 145.074219 38.339844 145.574219 37.773438 C 145.605469 37.746094 145.402344 37.675781 145.398438 37.671875 C 145.257812 37.617188 145.117188 37.566406 144.980469 37.511719 C 144.5625 37.347656 144.148438 37.167969 143.78125 36.902344 C 142.796875 36.175781 142.722656 35.171875 143.320312 34.109375 C 144.121094 32.679688 145.5 31.648438 146.992188 31.09375 C 147.207031 31.011719 147.429688 30.945312 147.65625 30.910156 C 147.804688 30.886719 147.953125 30.882812 148.101562 30.910156 C 149.242188 31.113281 148.519531 32.542969 148.132812 33.105469 C 147.890625 33.464844 147.125 34.128906 146.84375 34.453125 Z M 146.84375 34.453125 " fill-opacity="1" fill-rule="evenodd"/><path fill="#000000" d="M 215.683594 47.949219 C 215.519531 48.054688 215.5625 48.730469 215.550781 48.890625 C 215.464844 49.8125 215.398438 50.738281 215.332031 51.660156 C 215.253906 52.816406 214.910156 54.375 215.253906 55.507812 C 215.496094 56.34375 216.65625 57.109375 217.265625 57.679688 C 218.480469 58.816406 219.578125 60.109375 220.726562 61.320312 C 221.632812 62.28125 222.5625 63.230469 223.4375 64.214844 C 223.503906 64.289062 224.222656 65.089844 224.222656 65.089844 C 224.222656 65.089844 223.402344 66.15625 223.292969 66.28125 C 222.332031 67.347656 221.414062 68.460938 220.574219 69.613281 C 217.609375 73.660156 215.917969 78.738281 217.355469 83.644531 C 217.886719 85.449219 218.8125 87.691406 220.925781 88.175781 C 223.96875 88.867188 226.84375 86.816406 228.878906 84.96875 C 232.871094 81.335938 237.9375 76.429688 235.8125 70.71875 C 235.050781 68.65625 233.324219 67.035156 231.609375 65.660156 C 230.992188 65.160156 229.289062 63.703125 229.289062 63.703125 C 229.289062 63.703125 231.433594 60.402344 232.351562 59.203125 C 234.175781 56.828125 236.167969 54.476562 237.539062 51.820312 C 238.191406 50.5625 238.292969 49.199219 238.292969 47.820312 C 238.292969 47.472656 238.402344 46.789062 238.234375 46.472656 C 238.226562 46.449219 237.242188 47.769531 237.175781 47.867188 C 236.476562 48.84375 235.769531 49.8125 235.0625 50.785156 C 233.214844 53.332031 231.289062 55.808594 229.320312 58.269531 C 228.945312 58.738281 226.945312 61.429688 226.945312 61.429688 C 226.945312 61.429688 223.28125 57.957031 222.730469 56.90625 C 222.144531 55.816406 225.328125 55.925781 225.0625 55.191406 C 224.753906 54.316406 223.335938 53.4375 222.617188 52.898438 C 220.726562 51.488281 217.53125 49.414062 215.683594 47.949219 Z M 225.40625 67.4375 C 225.417969 67.382812 225.183594 67.707031 225.164062 67.746094 C 224.996094 67.980469 224.832031 68.214844 224.664062 68.449219 C 224.125 69.226562 223.601562 70.015625 223.09375 70.816406 C 221.824219 72.84375 220.394531 75 219.789062 77.324219 C 219.53125 78.324219 219.433594 79.542969 220.539062 80.085938 C 221.457031 80.542969 222.773438 80.371094 223.757812 80.265625 C 226.910156 79.925781 231.058594 77.429688 231.136719 73.855469 C 231.191406 71.445312 227.121094 68.808594 225.40625 67.4375 Z M 225.40625 67.4375 " fill-opacity="1" fill-rule="evenodd"/><path fill="#000000" d="M 254.628906 61.8125 C 253.820312 62.367188 252.273438 62.230469 251.453125 61.304688 C 250.679688 60.4375 251.355469 57.808594 252.734375 57.632812 C 254.507812 57.40625 256.5625 60.59375 257.457031 61.75 C 257.800781 62.1875 258.886719 64.09375 258.886719 64.09375 C 258.886719 64.09375 258.964844 61.949219 259.0625 61.414062 C 259.152344 60.972656 259.238281 60.53125 259.351562 60.09375 C 259.449219 59.722656 259.558594 59.359375 259.691406 59.003906 C 260.179688 57.695312 261.773438 54.996094 263.664062 56.113281 C 264.019531 56.316406 264.261719 56.675781 264.472656 57.003906 C 264.625 57.257812 264.738281 57.539062 264.859375 57.808594 C 265.355469 58.925781 264.226562 58.300781 263.242188 58.894531 C 262.636719 59.257812 261.496094 60.257812 261.121094 60.964844 C 260.125 62.847656 260.167969 65.496094 260.070312 67.578125 C 260.003906 67.613281 259.96875 68.453125 259.949219 68.570312 C 259.804688 68.5625 259.726562 68.273438 259.671875 68.175781 C 259.425781 67.6875 258.820312 67.21875 258.585938 66.722656 C 257.8125 65.066406 255.886719 63.1875 254.628906 61.8125 Z M 254.628906 61.8125 " fill-opacity="1" fill-rule="evenodd"/><path fill="#000000" d="M 250.527344 29.609375 C 249.71875 30.164062 248.171875 30.027344 247.355469 29.097656 C 246.578125 28.230469 247.253906 25.605469 248.636719 25.425781 C 250.40625 25.203125 252.464844 28.390625 253.359375 29.546875 C 253.703125 29.984375 254.785156 31.886719 254.785156 31.886719 C 254.785156 31.886719 254.863281 29.742188 254.964844 29.210938 C 255.050781 28.765625 255.140625 28.324219 255.25 27.886719 C 255.351562 27.519531 255.460938 27.15625 255.59375 26.800781 C 256.082031 25.488281 257.671875 22.792969 259.5625 23.90625 C 259.917969 24.113281 260.160156 24.46875 260.371094 24.796875 C 260.527344 25.050781 260.636719 25.332031 260.757812 25.605469 C 261.257812 26.722656 260.128906 26.09375 259.144531 26.691406 C 258.535156 27.050781 257.398438 28.050781 257.019531 28.757812 C 256.023438 30.640625 256.070312 33.289062 255.96875 35.371094 C 255.902344 35.410156 255.871094 36.246094 255.847656 36.363281 C 255.703125 36.359375 255.625 36.070312 255.570312 35.972656 C 255.328125 35.484375 254.71875 35.011719 254.488281 34.519531 C 253.714844 32.863281 251.789062 30.984375 250.527344 29.609375 Z M 250.527344 29.609375 " fill-opacity="1" fill-rule="evenodd"/><path fill="#000000" d="M 277.632812 85.882812 C 277.632812 85.867188 277.644531 85.863281 277.675781 85.871094 L 277.632812 85.882812 C 277.65625 85.941406 278.960938 89.324219 278.839844 90.367188 C 278.839844 90.367188 278.59375 90.578125 278.5625 90.609375 C 278.386719 90.777344 278.195312 90.933594 278.019531 91.09375 C 277.390625 91.660156 276.75 92.226562 276.105469 92.777344 C 274.335938 94.285156 272.511719 95.726562 270.6875 97.164062 C 265.210938 101.46875 258.886719 107.34375 251.519531 108.460938 C 249.527344 108.761719 247.449219 108.101562 245.648438 107.371094 C 243.886719 106.65625 242.171875 105.8125 240.78125 104.535156 C 235.371094 99.570312 236.378906 91.003906 238.566406 84.867188 C 238.046875 85.378906 237.75 86.300781 237.441406 86.925781 C 236.542969 88.757812 235.824219 90.679688 235.40625 92.664062 C 233.835938 99.980469 234.429688 109.671875 242.394531 113.339844 C 243.554688 113.875 244.792969 114.242188 246.078125 114.398438 C 257.382812 115.773438 267.300781 107.984375 274.335938 100.5 C 276.75 97.929688 279.113281 95.109375 280.851562 92.066406 C 281.304688 91.269531 281.558594 89.941406 281.546875 89.484375 C 281.472656 87.644531 281.304688 86.039062 281.027344 84.210938 C 282.875 82.84375 284.390625 82.40625 286.050781 80.71875 C 286.070312 80.691406 286.128906 81.046875 286.128906 81.070312 C 286.160156 81.253906 286.214844 81.433594 286.269531 81.613281 C 286.46875 82.214844 286.714844 82.796875 287 83.363281 C 287.839844 84.996094 289.023438 86.613281 290.660156 87.59375 C 293.96875 89.574219 298.625 88.296875 301.3125 85.910156 C 303.160156 84.265625 304.386719 82.078125 305.539062 79.960938 C 305.59375 79.859375 305.726562 80.28125 305.75 80.316406 C 305.859375 80.542969 305.96875 80.765625 306.101562 80.984375 C 306.511719 81.6875 306.976562 82.375 307.484375 83.015625 C 309.101562 85.023438 311.457031 86.046875 314.085938 85.308594 C 315.039062 85.039062 315.945312 84.542969 316.808594 84.070312 C 323.855469 80.214844 321.144531 72.523438 320.515625 67.734375 C 320.292969 67.699219 319.761719 68.257812 319.605469 68.378906 C 318.765625 69.042969 317.515625 69.972656 317.105469 70.980469 C 316.820312 71.710938 317.484375 72.765625 317.695312 73.457031 C 318.414062 75.839844 318.457031 78.359375 315.425781 78.9375 C 314.785156 79.058594 314.121094 79.066406 313.492188 78.933594 C 312.617188 78.75 311.929688 78.226562 311.34375 77.609375 C 310.605469 76.832031 309.972656 75.964844 309.464844 75.03125 C 308.710938 73.632812 308.117188 71.953125 307.851562 70.390625 C 307.5625 70.460938 307.1875 71.992188 307.085938 72.222656 C 306.34375 73.941406 305.605469 75.652344 304.433594 77.148438 C 302.585938 79.507812 299.621094 81.980469 296.335938 81.929688 C 291.769531 81.863281 289.378906 75.953125 289.667969 72.25 C 286.46875 74.53125 283.496094 77.515625 279.757812 79.042969 C 279.667969 79.078125 279.734375 78.855469 279.691406 78.773438 C 279.578125 78.589844 279.445312 78.417969 279.324219 78.246094 C 278.9375 77.703125 278.574219 77.144531 278.164062 76.609375 C 276.96875 75.046875 275.730469 73.34375 274.058594 72.203125 C 271.636719 70.546875 268.875 70.820312 266.714844 72.753906 C 264.472656 74.78125 262.644531 77.914062 261.960938 80.804688 C 261.792969 81.488281 261.773438 82.191406 261.75 82.886719 C 261.695312 85.691406 263.542969 86.894531 266.308594 87.292969 C 270.046875 87.832031 274.070312 86.964844 277.632812 85.882812 Z M 267.171875 80.917969 C 267.171875 80.917969 267.558594 79.773438 267.625 79.625 C 267.957031 78.863281 269.082031 77.132812 270.398438 77.566406 C 271.339844 77.878906 271.992188 78.847656 272.433594 79.550781 C 272.554688 79.753906 272.921875 80.4375 272.921875 80.4375 C 272.921875 80.4375 271.902344 80.886719 271.496094 80.976562 C 271.074219 81.070312 270.332031 81.175781 269.714844 81.179688 C 268.441406 81.191406 267.171875 80.917969 267.171875 80.917969 Z M 267.171875 80.917969 " fill-opacity="1" fill-rule="evenodd"/><path fill="#000000" d="M 312.960938 90.988281 C 312.9375 90.878906 314.1875 90.070312 314.296875 90.1875 C 314.664062 90.589844 314.730469 91.53125 314.816406 92.03125 C 315.128906 93.921875 314.941406 96.167969 312.859375 97.074219 C 312.164062 97.375 311.433594 97.394531 310.714844 97.207031 C 310.316406 97.105469 309.785156 96.726562 309.386719 96.882812 C 308.179688 97.355469 308.039062 99.386719 306.378906 99.191406 C 304.542969 98.976562 303.371094 96.550781 301.402344 97.261719 C 299.6875 97.886719 298.214844 99.378906 296.855469 100.496094 C 293.957031 102.859375 291.125 105.46875 287.71875 107.164062 C 285.664062 108.1875 283.550781 108.089844 281.394531 107.359375 C 281.007812 107.230469 279.789062 106.949219 279.613281 106.523438 C 279.523438 106.320312 280.175781 106.378906 280.253906 106.378906 C 281.140625 106.394531 282.023438 106.378906 282.898438 106.273438 C 285.085938 106.011719 287.089844 105.296875 288.902344 104.117188 C 291.082031 102.707031 292.875 100.855469 294.644531 99.023438 C 295.980469 97.632812 297.363281 96.128906 299.132812 95.21875 C 300.128906 94.710938 301.28125 94.40625 302.40625 94.640625 C 303.613281 94.890625 304.585938 95.652344 305.882812 95.324219 C 307.519531 94.910156 307.992188 92.882812 309.507812 92.472656 C 310.558594 92.1875 311.003906 94.304688 311.953125 93.703125 C 312.960938 93.066406 312.054688 91.523438 312.960938 90.988281 Z M 312.960938 90.988281 " fill-opacity="1" fill-rule="evenodd"/><path fill="#000000" d="M 283.25 47.171875 C 283.351562 47.203125 283.152344 47.226562 283.183594 47.132812 C 283.261719 46.945312 283.449219 46.503906 283.527344 46.316406 C 283.738281 45.769531 283.992188 45.238281 284.246094 44.707031 C 285.042969 43.042969 286.050781 41.101562 287.929688 40.367188 C 289.148438 39.894531 290.496094 39.894531 291.789062 39.832031 C 294.929688 39.671875 298.328125 39.976562 301.421875 40.539062 C 302.984375 40.820312 305.195312 41.328125 305.570312 43.078125 C 305.980469 44.984375 304.476562 47.035156 303.25 48.378906 C 300.128906 51.796875 295.496094 54.523438 290.785156 55.238281 C 289.222656 55.472656 287.675781 55.53125 286.117188 55.316406 C 285.675781 55.257812 284.945312 55.214844 284.613281 54.898438 C 284.390625 54.695312 285.097656 54.367188 285.210938 54.316406 C 286.003906 53.957031 286.847656 53.695312 287.652344 53.378906 C 290.398438 52.308594 293.238281 51.277344 295.726562 49.734375 C 296.179688 49.453125 297.761719 48.621094 297.707031 47.898438 C 297.695312 47.699219 297.023438 47.65625 296.898438 47.632812 C 295.972656 47.476562 295.03125 47.40625 294.101562 47.308594 C 291.28125 47.019531 286.09375 47.128906 283.25 47.171875 Z M 283.25 47.171875 " fill-opacity="1" fill-rule="evenodd"/><path fill="#000000" d="M 173.152344 65.898438 C 172.914062 65.628906 172.300781 65.488281 171.988281 65.359375 C 170.652344 64.808594 169.226562 64.527344 167.792969 64.378906 C 162.878906 63.882812 155.40625 64.667969 152.984375 69.746094 C 153.089844 69.5625 153.058594 70.167969 153.089844 70.382812 C 153.15625 70.792969 153.253906 71.203125 153.390625 71.601562 C 153.824219 72.90625 154.375 74.1875 155.148438 75.332031 C 157.328125 78.519531 160.90625 80.632812 164.742188 81.128906 C 167.113281 81.433594 169.453125 80.191406 171.738281 79.007812 C 173.796875 77.929688 175.835938 76.992188 177.496094 75.804688 C 178.421875 75.148438 179.316406 74.46875 180.222656 73.777344 C 180.394531 73.648438 181.171875 73.097656 181.171875 73.097656 C 181.171875 73.097656 182.367188 73.886719 182.777344 74.1875 C 183.070312 74.414062 183.84375 75.082031 183.84375 75.082031 C 183.84375 75.082031 183.035156 75.773438 182.886719 75.859375 C 181.722656 76.503906 180.546875 77.152344 179.394531 77.808594 C 174.445312 80.625 169.605469 83.824219 164.367188 86.078125 C 159.71875 88.074219 154.125 90.410156 148.949219 90.21875 C 148.886719 90.21875 148.917969 90.519531 148.917969 90.542969 C 148.929688 90.800781 148.917969 91.058594 148.90625 91.328125 C 148.898438 92.136719 148.863281 92.945312 148.832031 93.753906 C 148.746094 96.105469 148.734375 98.636719 147.472656 100.695312 C 146.125 102.882812 144.058594 104.597656 142.128906 106.246094 C 138.441406 109.382812 134.332031 112.242188 129.976562 114.386719 C 125.0625 116.800781 118.175781 116.78125 114.734375 111.820312 C 113.289062 109.742188 112.804688 107.078125 112.589844 104.609375 C 112.320312 101.589844 112.65625 98.507812 113.464844 95.585938 C 113.59375 95.144531 113.960938 93.183594 114.542969 93.042969 C 114.757812 92.988281 114.605469 95.144531 114.59375 95.285156 C 114.53125 96.664062 114.476562 98.054688 114.519531 99.433594 C 114.636719 103.414062 115.664062 108.855469 119.671875 110.730469 C 122.527344 112.058594 125.785156 111.140625 128.554688 110.0625 C 134.882812 107.628906 141.640625 103.207031 146.167969 98.097656 C 146.082031 98.023438 146.222656 97.0625 146.222656 96.914062 C 146.167969 95.703125 145.988281 94.488281 145.71875 93.324219 C 145.296875 91.511719 144.488281 89.734375 143.625 88.09375 C 143.464844 87.769531 142.503906 86.671875 142.546875 86.324219 C 142.632812 85.464844 143.5625 84.484375 144.046875 83.804688 C 144.144531 83.664062 144.304688 84.007812 144.445312 84.105469 C 144.777344 84.308594 145.089844 84.535156 145.40625 84.761719 C 146.300781 85.421875 147.246094 86.066406 148.292969 86.445312 C 150.761719 87.339844 153.175781 86.777344 155.472656 85.679688 C 156.121094 85.367188 157.132812 84.988281 157.585938 84.375 C 157.605469 84.332031 156.894531 84.074219 156.84375 84.050781 C 156.398438 83.847656 155.96875 83.597656 155.558594 83.339844 C 154.148438 82.46875 152.777344 81.484375 151.644531 80.257812 C 149.015625 77.421875 149.15625 73.335938 150.425781 69.886719 C 152.488281 64.324219 158.136719 60.582031 163.578125 60.496094 C 166.339844 60.453125 171.179688 63.851562 173.152344 65.898438 Z M 173.152344 65.898438 " fill-opacity="1" fill-rule="evenodd"/><path fill="#000000" d="M 81.644531 43.332031 C 81.707031 43.351562 81.582031 43.367188 81.601562 43.304688 C 81.652344 43.183594 81.769531 42.890625 81.816406 42.769531 C 81.949219 42.410156 82.113281 42.058594 82.273438 41.710938 C 82.773438 40.613281 83.410156 39.335938 84.59375 38.851562 C 85.363281 38.539062 86.210938 38.542969 87.027344 38.5 C 89.007812 38.394531 91.152344 38.59375 93.105469 38.964844 C 94.085938 39.152344 95.484375 39.484375 95.71875 40.636719 C 95.976562 41.890625 95.03125 43.242188 94.253906 44.125 C 92.289062 46.375 89.367188 48.171875 86.394531 48.640625 C 85.410156 48.796875 84.433594 48.835938 83.449219 48.695312 C 83.171875 48.65625 82.710938 48.628906 82.5 48.417969 C 82.363281 48.285156 82.808594 48.070312 82.878906 48.035156 C 83.378906 47.796875 83.910156 47.625 84.421875 47.417969 C 86.148438 46.714844 87.941406 46.035156 89.511719 45.019531 C 89.796875 44.832031 90.796875 44.285156 90.761719 43.8125 C 90.753906 43.679688 90.328125 43.648438 90.25 43.636719 C 89.664062 43.53125 89.074219 43.484375 88.488281 43.421875 C 86.707031 43.230469 83.4375 43.304688 81.644531 43.332031 Z M 81.644531 43.332031 " fill-opacity="1" fill-rule="evenodd"/><path fill="#000000" d="M 159.679688 39.367188 C 159.742188 39.386719 159.613281 39.402344 159.636719 39.34375 C 159.683594 39.21875 159.804688 38.929688 159.851562 38.804688 C 159.984375 38.445312 160.144531 38.09375 160.304688 37.746094 C 160.808594 36.648438 161.441406 35.371094 162.628906 34.886719 C 163.394531 34.578125 164.246094 34.578125 165.0625 34.535156 C 167.042969 34.429688 169.183594 34.628906 171.136719 35 C 172.121094 35.1875 173.515625 35.519531 173.753906 36.671875 C 174.011719 37.929688 173.0625 39.277344 172.289062 40.164062 C 170.320312 42.414062 167.398438 44.210938 164.429688 44.679688 C 163.445312 44.832031 162.46875 44.871094 161.484375 44.730469 C 161.207031 44.691406 160.746094 44.664062 160.535156 44.457031 C 160.394531 44.320312 160.84375 44.105469 160.914062 44.074219 C 161.414062 43.835938 161.945312 43.664062 162.453125 43.453125 C 164.183594 42.75 165.976562 42.070312 167.546875 41.054688 C 167.832031 40.867188 168.828125 40.320312 168.792969 39.847656 C 168.789062 39.714844 168.363281 39.6875 168.285156 39.671875 C 167.699219 39.566406 167.105469 39.519531 166.519531 39.457031 C 164.742188 39.269531 161.46875 39.339844 159.679688 39.367188 Z M 159.679688 39.367188 " fill-opacity="1" fill-rule="evenodd"/><path fill="#000000" d="M 313.789062 50.652344 C 313.710938 50.644531 313.546875 50.511719 313.445312 50.480469 C 313.171875 50.386719 312.882812 50.28125 312.605469 50.167969 C 311.644531 49.773438 310.769531 49.203125 310.703125 48.113281 C 310.582031 45.90625 312.582031 43.316406 314.386719 42.101562 C 315.636719 41.253906 316.964844 41.394531 318.234375 42.351562 C 319.925781 43.621094 320.003906 45.476562 319.695312 47.101562 C 319.273438 49.28125 317.59375 51.398438 316.1875 53.007812 C 310.304688 59.789062 293.0625 68.613281 291.558594 67.6875 C 291.933594 67.742188 292.851562 67.035156 293.140625 66.867188 C 294.675781 65.984375 296.246094 65.144531 297.761719 64.230469 C 301.355469 62.0625 304.71875 59.542969 307.992188 56.953125 C 310.539062 54.925781 311.898438 53.261719 313.789062 50.652344 Z M 313.789062 50.652344 L 313.8125 50.613281 C 313.8125 50.644531 313.800781 50.652344 313.789062 50.652344 Z M 315.660156 47.792969 C 315.660156 47.796875 315.660156 47.800781 315.660156 47.796875 L 315.660156 47.792969 C 315.636719 47.765625 315.214844 47.5 315.195312 47.484375 C 315.003906 47.335938 314.863281 47.167969 314.761719 46.976562 C 314.398438 46.367188 314.398438 45.628906 315.226562 45.269531 C 315.902344 44.976562 316.621094 45.226562 316.742188 45.835938 C 316.832031 46.257812 316.386719 47.433594 315.660156 47.792969 Z M 315.660156 47.792969 " fill-opacity="1" fill-rule="evenodd"/><path fill="#000000" d="M 244.375 54.101562 C 244.339844 54.089844 243.746094 55.238281 243.679688 55.351562 C 243.546875 55.609375 242.382812 57.523438 242.957031 57.617188 C 243.613281 57.722656 244.507812 57.226562 245.082031 57 C 246.652344 56.367188 248.203125 55.652344 249.738281 54.9375 C 255.179688 52.429688 260.675781 50.035156 266.261719 47.824219 C 267.546875 47.3125 268.828125 46.816406 270.125 46.324219 C 271.503906 45.792969 273.253906 44.46875 272.777344 42.738281 C 272.644531 42.265625 250.148438 51.753906 244.375 54.101562 Z M 244.375 54.101562 " fill-opacity="1" fill-rule="evenodd"/><path fill="#000000" d="M 122.519531 100.769531 C 122.5 100.761719 122.101562 101.632812 122.058594 101.71875 C 121.96875 101.917969 121.199219 103.371094 121.578125 103.441406 C 122.011719 103.519531 122.609375 103.144531 122.992188 102.96875 C 124.035156 102.492188 125.0625 101.949219 126.085938 101.40625 C 129.699219 99.5 133.351562 97.683594 137.0625 96.003906 C 137.917969 95.617188 138.769531 95.242188 139.628906 94.867188 C 140.546875 94.464844 141.707031 93.460938 141.390625 92.144531 C 141.304688 91.785156 126.355469 98.988281 122.519531 100.769531 Z M 122.519531 100.769531 " fill-opacity="1" fill-rule="evenodd"/><path fill="#000000" d="M 137.117188 31.824219 C 137.09375 31.816406 136.699219 32.6875 136.65625 32.773438 C 136.566406 32.96875 135.796875 34.421875 136.175781 34.496094 C 136.609375 34.574219 137.207031 34.195312 137.589844 34.023438 C 138.632812 33.546875 139.660156 33 140.683594 32.460938 C 144.296875 30.554688 147.949219 28.738281 151.660156 27.058594 C 152.511719 26.671875 153.367188 26.292969 154.226562 25.921875 C 155.144531 25.519531 156.304688 24.511719 155.988281 23.199219 C 155.902344 22.839844 140.953125 30.042969 137.117188 31.824219 Z M 137.117188 31.824219 " fill-opacity="1" fill-rule="evenodd"/><path fill="#000000" d="M 219.605469 93.898438 C 219.59375 93.824219 219.257812 94.257812 219.234375 94.289062 C 219.046875 94.5625 218.875 94.847656 218.710938 95.136719 C 218.203125 96.042969 217.746094 96.972656 217.386719 97.9375 C 216.421875 100.53125 215.773438 103.59375 216.425781 106.3125 C 216.664062 107.292969 217.105469 108.792969 218.410156 108.929688 C 220.421875 109.140625 221.523438 106.953125 221.941406 105.507812 C 222.054688 105.128906 222.4375 104.160156 222.164062 103.777344 C 222.117188 103.703125 221.988281 103.960938 221.976562 103.984375 C 221.804688 104.320312 221.628906 104.652344 221.429688 104.980469 C 221.042969 105.644531 220.066406 106.660156 218.863281 106.242188 C 217.773438 105.867188 217.546875 104.117188 217.613281 103.164062 C 217.785156 100.390625 218.75 96.757812 219.605469 93.898438 Z M 219.605469 93.898438 " fill-opacity="1" fill-rule="evenodd"/><path fill="#000000" d="M 61.617188 60.328125 C 61.605469 60.257812 61.269531 60.691406 61.246094 60.71875 C 61.058594 60.996094 60.886719 61.277344 60.722656 61.566406 C 60.214844 62.476562 59.757812 63.402344 59.398438 64.371094 C 58.429688 66.964844 57.785156 70.023438 58.4375 72.746094 C 58.675781 73.726562 59.117188 75.226562 60.417969 75.363281 C 62.429688 75.574219 63.535156 73.386719 63.953125 71.941406 C 64.066406 71.5625 64.449219 70.589844 64.175781 70.207031 C 64.128906 70.136719 64 70.394531 63.988281 70.414062 C 63.816406 70.75 63.640625 71.085938 63.441406 71.410156 C 63.054688 72.078125 62.078125 73.09375 60.875 72.675781 C 59.785156 72.300781 59.558594 70.550781 59.625 69.597656 C 59.796875 66.820312 60.761719 63.191406 61.617188 60.328125 Z M 61.617188 60.328125 " fill-opacity="1" fill-rule="evenodd"/><path fill="#000000" d="M 213.519531 33.847656 C 213.417969 33.8125 213.664062 33.691406 213.71875 33.609375 C 213.839844 33.460938 213.949219 33.3125 214.070312 33.164062 C 214.480469 32.640625 214.890625 32.117188 215.300781 31.59375 C 216.039062 30.640625 216.78125 29.6875 217.546875 28.753906 C 217.722656 28.542969 218.109375 27.828125 218.40625 27.738281 C 218.496094 27.710938 218.738281 28.011719 218.785156 28.058594 C 219.183594 28.414062 219.613281 28.734375 220.023438 29.070312 C 221.226562 30.054688 222.410156 31.058594 223.605469 32.058594 C 223.992188 32.378906 224.824219 32.789062 225.023438 33.273438 C 225.078125 33.402344 224.570312 33.84375 224.503906 33.914062 C 223.925781 34.558594 223.351562 35.203125 222.777344 35.847656 C 222.078125 36.621094 221.382812 37.398438 220.699219 38.175781 C 220.507812 38.375 220.234375 38.871094 219.957031 38.96875 C 219.722656 39.050781 219.003906 38.25 218.851562 38.125 C 217.722656 37.242188 214.679688 34.6875 213.519531 33.847656 Z M 213.519531 33.847656 " fill-opacity="1" fill-rule="evenodd"/><path fill="#000000" d="M 225.050781 33.261719 C 224.953125 33.222656 225.195312 33.105469 225.25 33.023438 C 225.375 32.875 225.484375 32.726562 225.605469 32.578125 C 226.015625 32.054688 226.425781 31.53125 226.832031 31.007812 C 227.574219 30.054688 228.316406 29.101562 229.078125 28.167969 C 229.253906 27.957031 229.644531 27.242188 229.941406 27.152344 C 230.03125 27.125 230.273438 27.425781 230.316406 27.472656 C 230.714844 27.824219 231.148438 28.148438 231.554688 28.484375 C 232.761719 29.46875 233.945312 30.472656 235.140625 31.472656 C 235.527344 31.792969 236.355469 32.203125 236.554688 32.6875 C 236.609375 32.816406 236.101562 33.257812 236.035156 33.328125 C 235.460938 33.972656 234.886719 34.617188 234.308594 35.261719 C 233.613281 36.035156 232.917969 36.8125 232.230469 37.589844 C 232.042969 37.789062 231.765625 38.285156 231.488281 38.382812 C 231.257812 38.464844 230.539062 37.660156 230.382812 37.539062 C 229.253906 36.65625 226.214844 34.101562 225.050781 33.261719 Z M 225.050781 33.261719 " fill-opacity="1" fill-rule="evenodd"/><path fill="#000000" d="M 95.789062 52.582031 C 95.6875 52.546875 95.933594 52.425781 95.988281 52.34375 C 96.109375 52.195312 96.21875 52.046875 96.339844 51.902344 C 96.75 51.375 97.160156 50.851562 97.570312 50.328125 C 98.308594 49.378906 99.050781 48.425781 99.8125 47.488281 C 99.992188 47.28125 100.378906 46.5625 100.675781 46.472656 C 100.765625 46.449219 101.007812 46.746094 101.054688 46.792969 C 101.449219 47.148438 101.882812 47.46875 102.292969 47.804688 C 103.496094 48.789062 104.679688 49.796875 105.875 50.792969 C 106.261719 51.113281 107.09375 51.527344 107.289062 52.011719 C 107.347656 52.136719 106.835938 52.578125 106.769531 52.652344 C 106.195312 53.292969 105.621094 53.9375 105.046875 54.582031 C 104.347656 55.359375 103.652344 56.132812 102.964844 56.910156 C 102.777344 57.113281 102.5 57.605469 102.226562 57.703125 C 101.992188 57.785156 101.273438 56.984375 101.121094 56.863281 C 99.992188 55.980469 96.949219 53.421875 95.789062 52.582031 Z M 95.789062 52.582031 " fill-opacity="1" fill-rule="evenodd"/><g clip-path="url(#932b3676b5)"><path fill="#000000" d="M 242.078125 81.445312 C 242.066406 81.429688 242.023438 81.34375 241.972656 81.394531 C 241.921875 81.441406 241.859375 81.625 241.851562 81.660156 C 241.804688 81.867188 241.75 82.070312 241.699219 82.277344 C 241.539062 82.914062 241.371094 83.546875 241.191406 84.175781 C 240.910156 85.171875 240.609375 86.160156 240.335938 87.15625 C 240.261719 87.429688 240.191406 87.707031 240.128906 87.984375 C 240.105469 88.09375 240.050781 88.242188 240.101562 88.355469 C 240.1875 88.539062 240.414062 88.703125 240.566406 88.847656 C 240.917969 89.171875 241.285156 89.484375 241.640625 89.8125 C 241.660156 89.789062 241.660156 89.863281 241.667969 89.890625 C 241.683594 89.9375 241.699219 89.984375 241.714844 90.03125 C 241.761719 90.164062 241.808594 90.296875 241.851562 90.429688 C 241.992188 90.824219 242.132812 91.21875 242.265625 91.613281 C 242.671875 92.804688 243.132812 93.976562 243.625 95.136719 C 245.117188 98.640625 247.078125 102 249.195312 105.21875 C 249.121094 105.097656 249.011719 105.4375 248.914062 105.546875 C 248.726562 105.753906 248.527344 105.953125 248.324219 106.148438 C 247.71875 106.726562 247.132812 107.320312 246.492188 107.867188 C 244.570312 109.515625 242.617188 111.125 240.558594 112.632812 C 236.726562 115.433594 232.46875 117.804688 227.972656 119.609375 C 224.917969 120.832031 221.691406 121.824219 218.355469 122.113281 C 218.324219 122.089844 218.046875 122.140625 218.003906 122.144531 C 217.667969 122.160156 217.335938 122.179688 217 122.1875 C 215.761719 122.210938 214.523438 122.125 213.308594 121.910156 C 209.648438 121.261719 206.632812 119.277344 204.703125 116.367188 C 204.527344 116.105469 204.371094 115.773438 204.25 115.476562 C 203.867188 114.5625 203.574219 113.617188 203.382812 112.65625 C 202.558594 108.488281 203.3125 104.027344 204.484375 99.976562 C 205.074219 97.9375 205.882812 95.964844 206.570312 93.949219 C 206.734375 93.472656 206.964844 92.9375 206.957031 92.425781 C 206.953125 91.941406 206.464844 92.15625 206.253906 92.386719 C 206.238281 92.375 206.136719 92.550781 206.128906 92.5625 C 206.003906 92.765625 205.886719 92.976562 205.769531 93.1875 C 205.507812 93.679688 205.242188 94.171875 204.992188 94.667969 C 203.679688 97.242188 202.585938 99.910156 201.699219 102.632812 C 199.285156 110.0625 198.539062 119.742188 205 125.710938 C 204.996094 125.71875 205.414062 125.976562 205.433594 125.988281 C 205.976562 126.3125 206.5 126.664062 207.050781 126.980469 C 209.316406 128.261719 211.933594 128.925781 214.578125 129.140625 C 222.359375 129.785156 230.058594 126.109375 236.15625 122.003906 C 236.1875 122.027344 236.421875 121.839844 236.464844 121.808594 C 236.777344 121.589844 237.085938 121.367188 237.402344 121.152344 C 238.855469 120.152344 240.316406 119.148438 241.71875 118.09375 C 244.914062 115.6875 248.40625 112.71875 250.152344 109.210938 C 251.308594 106.890625 251.667969 104.066406 251.488281 101.542969 C 251.5 101.539062 251.492188 101.433594 251.492188 101.417969 C 251.492188 101.257812 251.476562 101.09375 251.464844 100.933594 C 251.410156 100.253906 251.285156 99.585938 251.09375 98.925781 C 250.300781 96.203125 248.511719 93.839844 247.191406 91.324219 C 246.902344 90.777344 246.617188 90.226562 246.355469 89.664062 C 246.320312 89.59375 246.066406 89.179688 246.160156 89.101562 C 246.269531 89.003906 246.6875 89.269531 246.773438 89.3125 C 247.269531 89.574219 247.835938 90.089844 248.4375 90.113281 C 249.238281 90.144531 248.859375 89.285156 248.5625 88.96875 C 248.546875 88.972656 248.285156 88.597656 248.269531 88.582031 C 247.921875 88.105469 247.550781 87.640625 247.179688 87.175781 C 245.652344 85.253906 242.957031 82.398438 242.078125 81.445312 Z M 242.078125 81.445312 " fill-opacity="1" fill-rule="evenodd"/></g></svg>