<svg xmlns="http://www.w3.org/2000/svg" xmlns:xlink="http://www.w3.org/1999/xlink" width="500" zoomAndPan="magnify" viewBox="0 0 375 149.999998" height="200" preserveAspectRatio="xMidYMid meet" version="1.0"><defs><clipPath id="ee35a030d4"><path d="M 31 21.328125 L 69 21.328125 L 69 67 L 31 67 Z M 31 21.328125 " clip-rule="nonzero"/></clipPath><clipPath id="d87af5216b"><path d="M 198 79 L 251 79 L 251 128.578125 L 198 128.578125 Z M 198 79 " clip-rule="nonzero"/></clipPath></defs><path fill="#000000" d="M 306.488281 26.796875 C 307.210938 26.511719 308.695312 27.015625 309.398438 27.164062 C 312.433594 27.808594 315.367188 28.972656 318.171875 30.328125 C 328.613281 35.359375 336.179688 44.804688 340.859375 55.59375 C 342.03125 58.285156 343 61.121094 343.597656 64.011719 C 343.757812 64.792969 344.242188 66.214844 343.90625 67.019531 C 343.609375 67.710938 342.847656 68.253906 342.332031 68.75 C 341.226562 69.820312 340.203125 70.761719 338.941406 71.570312 C 337.308594 69.996094 335.019531 68.878906 333.167969 67.566406 C 332.605469 62.890625 330.683594 58.222656 328.707031 54.050781 C 325.335938 46.964844 320.875 40.464844 315.457031 34.929688 C 312.996094 32.429688 309.511719 28.527344 306.488281 26.796875 Z M 306.488281 26.796875 " fill-opacity="1" fill-rule="evenodd"/><path fill="#000000" d="M 306.488281 126.089844 C 307.210938 126.378906 308.695312 125.871094 309.398438 125.722656 C 312.433594 125.078125 315.367188 123.917969 318.171875 122.5625 C 328.613281 117.527344 336.179688 108.082031 340.859375 97.296875 C 342.03125 94.605469 343 91.765625 343.597656 88.875 C 343.757812 88.097656 344.242188 86.675781 343.90625 85.871094 C 343.609375 85.175781 342.847656 84.636719 342.332031 84.136719 C 341.226562 83.070312 340.203125 82.125 338.941406 81.320312 C 337.308594 82.890625 335.019531 84.011719 333.167969 85.324219 C 332.605469 89.996094 330.683594 94.667969 328.707031 98.839844 C 325.335938 105.925781 320.875 112.425781 315.457031 117.960938 C 312.996094 120.460938 309.511719 124.363281 306.488281 126.089844 Z M 306.488281 126.089844 " fill-opacity="1" fill-rule="evenodd"/><path fill="#000000" d="M 352.199219 70.226562 C 351.910156 70.386719 351.648438 70.535156 351.578125 70.585938 C 349.921875 71.9375 348.289062 73.203125 346.4375 74.273438 C 345.804688 74.636719 345.148438 74.945312 344.503906 75.285156 C 344.402344 75.339844 344.113281 75.480469 343.964844 75.640625 C 343.757812 75.855469 343.699219 76.109375 343.757812 76.359375 C 343.816406 76.609375 343.988281 76.820312 344.285156 76.917969 C 344.515625 76.988281 344.886719 76.972656 345 76.976562 C 345.183594 76.980469 345.746094 77.203125 346.484375 77.507812 C 348.425781 78.300781 351.472656 79.746094 352.878906 80.570312 C 353.039062 80.664062 353.519531 81.007812 353.933594 81.3125 C 353.683594 81.480469 353.417969 81.644531 353.28125 81.703125 C 351.886719 82.261719 350.242188 82.828125 349.347656 84.160156 C 349.011719 84.652344 348.910156 85.230469 348.910156 85.835938 C 348.921875 86.554688 349.117188 87.324219 349.140625 87.976562 C 349.195312 89.734375 348.898438 91.269531 347.910156 92.726562 C 347.140625 93.878906 346.183594 94.964844 345 95.65625 C 344.804688 95.773438 343.148438 96.613281 343.148438 96.613281 C 342.917969 96.734375 342.792969 97 342.839844 97.265625 C 342.882812 97.53125 343.101562 97.730469 343.355469 97.75 C 343.355469 97.75 345.898438 97.9375 346.65625 97.832031 C 350.566406 97.304688 352.945312 94.703125 354.660156 91.21875 C 354.914062 90.710938 355.097656 90.074219 355.292969 89.453125 C 355.464844 88.9375 355.636719 88.429688 355.925781 88.070312 C 356.199219 87.730469 356.601562 87.503906 357.015625 87.28125 C 357.535156 87.007812 358.0625 86.75 358.476562 86.425781 C 359.753906 85.429688 360.652344 84.167969 361.480469 82.757812 C 361.800781 82.207031 362.097656 81.644531 362.386719 81.078125 C 362.535156 80.804688 363.410156 79.113281 363.410156 79.113281 C 363.558594 78.824219 363.457031 78.460938 363.179688 78.304688 C 363.179688 78.304688 362.296875 77.800781 362.132812 77.714844 C 361.558594 77.421875 359.972656 76.671875 358.789062 76.117188 C 358.777344 76.117188 363.339844 74.652344 363.339844 74.652344 C 363.628906 74.558594 363.800781 74.246094 363.734375 73.941406 C 363.734375 73.941406 363.261719 71.859375 362.296875 69.890625 C 361.617188 68.503906 360.683594 67.191406 359.535156 66.601562 C 359.109375 66.382812 358.535156 66.21875 357.996094 66.035156 C 357.558594 65.890625 357.144531 65.746094 356.890625 65.503906 C 356.796875 65.414062 356.785156 65.261719 356.765625 65.109375 C 356.707031 64.8125 356.671875 64.5 356.613281 64.269531 C 356.328125 63.167969 355.878906 62.0625 355.316406 61.085938 C 352.96875 57.109375 347.082031 54.167969 342.871094 54.414062 C 342.597656 54.429688 342.367188 54.648438 342.332031 54.933594 C 342.296875 55.21875 342.457031 55.492188 342.722656 55.582031 C 344.082031 56.058594 345.207031 57.425781 346.171875 59.054688 C 347.714844 61.664062 348.785156 64.960938 349.484375 66.855469 C 349.96875 68.164062 350.4375 68.992188 351.566406 69.808594 C 351.773438 69.957031 351.980469 70.097656 352.199219 70.226562 Z M 345.621094 96.667969 C 346.933594 95.886719 348 94.691406 348.851562 93.414062 C 349.992188 91.730469 350.359375 89.964844 350.289062 87.933594 C 350.265625 87.382812 350.128906 86.753906 350.082031 86.136719 C 350.035156 85.675781 350.035156 85.21875 350.289062 84.847656 C 351.058594 83.710938 352.507812 83.300781 353.695312 82.820312 C 354.085938 82.660156 355.269531 81.8125 355.269531 81.8125 C 355.429688 81.699219 355.511719 81.519531 355.511719 81.324219 C 355.523438 81.128906 355.429688 80.945312 355.28125 80.832031 C 355.28125 80.832031 353.761719 79.710938 353.441406 79.523438 C 351.796875 78.5625 347.96875 76.765625 346.125 76.082031 C 346 76.039062 345.898438 76 345.78125 75.964844 C 346.195312 75.757812 346.597656 75.550781 347 75.320312 C 348.910156 74.21875 350.578125 72.921875 352.289062 71.53125 C 352.429688 71.414062 353.519531 70.90625 353.773438 70.730469 C 353.945312 70.605469 354.003906 70.460938 354.027344 70.394531 C 354.085938 70.238281 354.117188 69.957031 353.84375 69.71875 C 353.75 69.636719 353.234375 69.417969 353.175781 69.394531 C 352.84375 69.242188 352.519531 69.042969 352.222656 68.824219 C 351.3125 68.164062 350.945312 67.484375 350.554688 66.429688 C 349.839844 64.480469 348.738281 61.101562 347.148438 58.425781 C 346.550781 57.398438 345.863281 56.476562 345.113281 55.757812 C 348.609375 56.371094 352.566406 58.71875 354.335938 61.714844 C 354.84375 62.59375 355.246094 63.59375 355.5 64.589844 C 355.566406 64.847656 355.589844 65.214844 355.671875 65.542969 C 355.75 65.878906 355.902344 66.175781 356.109375 66.378906 C 356.394531 66.664062 356.832031 66.882812 357.316406 67.0625 C 357.890625 67.277344 358.558594 67.4375 359.03125 67.675781 C 359.972656 68.164062 360.707031 69.289062 361.273438 70.4375 C 361.882812 71.679688 362.273438 72.96875 362.46875 73.675781 C 362.46875 73.675781 356.972656 75.441406 356.972656 75.441406 C 356.753906 75.515625 356.589844 75.730469 356.566406 75.980469 C 356.558594 76.230469 356.695312 76.464844 356.914062 76.5625 C 356.914062 76.5625 360.683594 78.300781 361.617188 78.785156 C 361.6875 78.824219 361.902344 78.949219 362.121094 79.070312 C 361.859375 79.589844 361.480469 80.328125 361.386719 80.5 C 361.097656 81.050781 360.8125 81.597656 360.488281 82.132812 C 359.742188 83.410156 358.949219 84.5625 357.789062 85.464844 C 357.417969 85.753906 356.949219 85.972656 356.488281 86.214844 C 355.9375 86.511719 355.417969 86.84375 355.050781 87.296875 C 354.671875 87.761719 354.417969 88.402344 354.210938 89.070312 C 354.027344 89.632812 353.867188 90.210938 353.648438 90.667969 C 352.105469 93.789062 350.015625 96.171875 346.519531 96.640625 C 346.3125 96.671875 345.988281 96.675781 345.621094 96.667969 Z M 345.621094 96.667969 " fill-opacity="1" fill-rule="evenodd"/><path fill="#000000" d="M 339.285156 81.527344 C 339.421875 81.417969 340.25 80.785156 340.34375 80.707031 C 341.617188 79.628906 344.058594 77.125 345.21875 75.921875 C 345.332031 75.8125 345.390625 75.664062 345.390625 75.511719 C 345.390625 75.378906 345.355469 75.199219 345.21875 75.035156 C 345.113281 74.914062 344.863281 74.746094 344.804688 74.703125 C 344.402344 74.394531 344.011719 74.089844 343.609375 73.78125 C 342.078125 72.597656 340.574219 71.285156 338.917969 70.273438 C 338.675781 70.121094 338.351562 70.183594 338.179688 70.421875 C 337.722656 71.035156 336.523438 71.636719 335.890625 72.089844 C 334.15625 73.339844 332.351562 74.488281 330.589844 75.695312 C 330.339844 75.761719 330.234375 76.011719 330.222656 76.0625 C 330.175781 76.191406 330.109375 76.460938 330.359375 76.71875 C 330.394531 76.746094 330.625 76.878906 330.707031 76.9375 C 330.878906 77.058594 331.050781 77.179688 331.222656 77.300781 C 331.820312 77.726562 332.441406 78.121094 333.0625 78.511719 C 334.859375 79.636719 336.640625 80.8125 338.515625 81.78125 C 338.699219 81.875 338.917969 81.859375 339.089844 81.742188 C 339.167969 81.6875 339.238281 81.613281 339.285156 81.527344 Z M 343.953125 75.542969 C 342.710938 76.820312 340.722656 78.84375 339.617188 79.777344 C 339.527344 79.847656 338.984375 80.222656 338.652344 80.507812 C 336.9375 79.59375 335.304688 78.519531 333.648438 77.484375 C 333.050781 77.105469 332.453125 76.722656 331.867188 76.308594 L 331.832031 76.28125 C 333.410156 75.21875 334.996094 74.1875 336.546875 73.078125 C 337.121094 72.664062 338.101562 72.109375 338.722656 71.546875 C 340.191406 72.5 341.539062 73.679688 342.929688 74.746094 C 343.273438 75.011719 343.621094 75.277344 343.953125 75.542969 Z M 330.671875 76.871094 Z M 330.671875 76.871094 " fill-opacity="1" fill-rule="evenodd"/><path fill="#000000" d="M 363.296875 74.015625 L 375.011719 76.707031 L 363.296875 78.753906 L 358.386719 76.132812 Z M 363.296875 74.015625 " fill-opacity="1" fill-rule="evenodd"/><g clip-path="url(#ee35a030d4)"><path fill="#000000" d="M 68.574219 21.691406 C 67.847656 21.402344 66.363281 21.910156 65.664062 22.058594 C 62.628906 22.703125 59.695312 23.867188 56.890625 25.21875 C 46.449219 30.253906 38.882812 39.699219 34.199219 50.484375 C 33.027344 53.175781 32.0625 56.015625 31.464844 58.90625 C 31.304688 59.683594 30.820312 61.109375 31.152344 61.914062 C 31.453125 62.605469 32.210938 63.144531 32.730469 63.644531 C 33.832031 64.714844 34.855469 65.65625 36.121094 66.460938 C 37.753906 64.890625 40.042969 63.769531 41.894531 62.460938 C 42.457031 57.785156 44.378906 53.113281 46.355469 48.945312 C 49.726562 41.855469 54.1875 35.355469 59.601562 29.820312 C 62.0625 27.320312 65.546875 23.417969 68.574219 21.691406 Z M 68.574219 21.691406 " fill-opacity="1" fill-rule="evenodd"/></g><path fill="#000000" d="M 68.574219 120.984375 C 67.847656 121.269531 66.363281 120.765625 65.664062 120.617188 C 62.628906 119.972656 59.695312 118.808594 56.890625 117.453125 C 46.449219 112.421875 38.882812 102.976562 34.199219 92.1875 C 33.027344 89.496094 32.0625 86.660156 31.464844 83.769531 C 31.304688 82.988281 30.820312 81.566406 31.152344 80.761719 C 31.453125 80.070312 32.210938 79.527344 32.730469 79.03125 C 33.832031 77.960938 34.855469 77.019531 36.121094 76.210938 C 37.753906 77.785156 40.042969 78.902344 41.894531 80.214844 C 42.457031 84.890625 44.378906 89.558594 46.355469 93.730469 C 49.726562 100.816406 54.1875 107.316406 59.601562 112.851562 C 62.0625 115.351562 65.546875 119.253906 68.574219 120.984375 Z M 68.574219 120.984375 " fill-opacity="1" fill-rule="evenodd"/><path fill="#000000" d="M 22.863281 65.121094 C 23.148438 65.277344 23.414062 65.429688 23.484375 65.476562 C 25.140625 66.828125 26.773438 68.09375 28.625 69.164062 C 29.257812 69.53125 29.910156 69.835938 30.554688 70.175781 C 30.660156 70.230469 30.945312 70.371094 31.097656 70.53125 C 31.304688 70.746094 31.359375 71.003906 31.304688 71.25 C 31.246094 71.5 31.074219 71.710938 30.773438 71.808594 C 30.542969 71.882812 30.175781 71.867188 30.0625 71.867188 C 29.878906 71.871094 29.3125 72.09375 28.578125 72.398438 C 26.632812 73.195312 23.585938 74.640625 22.183594 75.460938 C 22.023438 75.558594 21.539062 75.902344 21.125 76.203125 C 21.378906 76.375 21.644531 76.539062 21.78125 76.59375 C 23.171875 77.152344 24.816406 77.722656 25.714844 79.050781 C 26.046875 79.546875 26.152344 80.121094 26.152344 80.726562 C 26.140625 81.449219 25.945312 82.214844 25.921875 82.871094 C 25.863281 84.628906 26.164062 86.160156 27.152344 87.621094 C 27.921875 88.769531 28.875 89.855469 30.0625 90.550781 C 30.257812 90.664062 31.914062 91.507812 31.914062 91.507812 C 32.140625 91.625 32.269531 91.890625 32.222656 92.160156 C 32.175781 92.425781 31.957031 92.621094 31.707031 92.644531 C 31.707031 92.644531 29.164062 92.828125 28.40625 92.722656 C 24.496094 92.199219 22.113281 89.59375 20.402344 86.109375 C 20.148438 85.605469 19.964844 84.964844 19.769531 84.34375 C 19.597656 83.828125 19.425781 83.320312 19.136719 82.964844 C 18.859375 82.625 18.457031 82.394531 18.042969 82.175781 C 17.527344 81.898438 16.996094 81.644531 16.582031 81.316406 C 15.308594 80.320312 14.410156 79.058594 13.582031 77.648438 C 13.261719 77.101562 12.960938 76.535156 12.675781 75.96875 C 12.523438 75.695312 11.652344 74.007812 11.652344 74.007812 C 11.5 73.714844 11.605469 73.355469 11.878906 73.195312 C 11.878906 73.195312 12.765625 72.695312 12.925781 72.605469 C 13.5 72.3125 15.089844 71.5625 16.273438 71.011719 C 16.285156 71.007812 11.71875 69.542969 11.71875 69.542969 C 11.433594 69.449219 11.257812 69.140625 11.328125 68.832031 C 11.328125 68.832031 11.800781 66.75 12.765625 64.785156 C 13.445312 63.398438 14.375 62.082031 15.527344 61.492188 C 15.953125 61.277344 16.527344 61.109375 17.066406 60.925781 C 17.503906 60.78125 17.917969 60.640625 18.171875 60.394531 C 18.261719 60.308594 18.273438 60.152344 18.296875 60 C 18.355469 59.703125 18.390625 59.394531 18.445312 59.164062 C 18.734375 58.0625 19.183594 56.953125 19.746094 55.980469 C 22.09375 52 27.980469 49.058594 32.1875 49.308594 C 32.464844 49.324219 32.695312 49.542969 32.730469 49.828125 C 32.761719 50.113281 32.601562 50.382812 32.339844 50.476562 C 30.980469 50.949219 29.855469 52.320312 28.886719 53.949219 C 27.347656 56.554688 26.277344 59.851562 25.578125 61.75 C 25.09375 63.054688 24.621094 63.882812 23.496094 64.699219 C 23.289062 64.851562 23.082031 64.992188 22.863281 65.121094 Z M 29.441406 91.558594 C 28.128906 90.78125 27.058594 89.582031 26.207031 88.308594 C 25.070312 86.621094 24.703125 84.859375 24.769531 82.824219 C 24.792969 82.277344 24.933594 81.644531 24.976562 81.03125 C 25.023438 80.570312 25.023438 80.113281 24.769531 79.742188 C 24 78.601562 22.550781 78.191406 21.367188 77.714844 C 20.976562 77.554688 19.792969 76.703125 19.792969 76.703125 C 19.632812 76.59375 19.550781 76.410156 19.550781 76.214844 C 19.539062 76.019531 19.632812 75.835938 19.78125 75.726562 C 19.78125 75.726562 21.296875 74.601562 21.621094 74.417969 C 23.265625 73.453125 27.09375 71.660156 28.933594 70.976562 C 29.0625 70.929688 29.164062 70.890625 29.277344 70.855469 C 28.863281 70.652344 28.460938 70.441406 28.058594 70.214844 C 26.152344 69.113281 24.484375 67.8125 22.769531 66.421875 C 22.632812 66.304688 21.539062 65.800781 21.285156 65.625 C 21.113281 65.496094 21.058594 65.351562 21.035156 65.285156 C 20.976562 65.128906 20.941406 64.851562 21.21875 64.609375 C 21.308594 64.527344 21.828125 64.308594 21.886719 64.285156 C 22.21875 64.136719 22.539062 63.933594 22.839844 63.714844 C 23.746094 63.058594 24.117188 62.375 24.507812 61.320312 C 25.21875 59.375 26.324219 55.992188 27.910156 53.320312 C 28.507812 52.289062 29.199219 51.367188 29.945312 50.652344 L 29.945312 50.648438 C 26.449219 51.265625 22.496094 53.613281 20.722656 56.605469 C 20.21875 57.484375 19.816406 58.484375 19.5625 59.480469 C 19.492188 59.738281 19.46875 60.109375 19.390625 60.433594 C 19.308594 60.773438 19.160156 61.066406 18.953125 61.273438 C 18.664062 61.554688 18.226562 61.777344 17.746094 61.957031 C 17.171875 62.171875 16.503906 62.328125 16.03125 62.570312 C 15.089844 63.058594 14.351562 64.179688 13.789062 65.328125 C 13.179688 66.570312 12.789062 67.863281 12.59375 68.566406 C 12.59375 68.566406 18.089844 70.335938 18.089844 70.335938 C 18.308594 70.410156 18.46875 70.621094 18.492188 70.875 C 18.503906 71.121094 18.367188 71.355469 18.148438 71.457031 C 18.148438 71.457031 14.375 73.191406 13.445312 73.679688 C 13.375 73.71875 13.15625 73.839844 12.9375 73.964844 C 13.203125 74.480469 13.582031 75.222656 13.675781 75.394531 C 13.960938 75.941406 14.25 76.492188 14.570312 77.027344 C 15.320312 78.300781 16.113281 79.453125 17.273438 80.355469 C 17.640625 80.648438 18.113281 80.863281 18.574219 81.109375 C 19.125 81.40625 19.644531 81.738281 20.011719 82.191406 C 20.390625 82.652344 20.644531 83.292969 20.851562 83.960938 C 21.035156 84.523438 21.195312 85.105469 21.414062 85.5625 C 22.953125 88.683594 25.046875 91.0625 28.542969 91.535156 C 28.75 91.5625 29.070312 91.566406 29.441406 91.558594 Z M 29.441406 91.558594 " fill-opacity="1" fill-rule="evenodd"/><path fill="#000000" d="M 35.777344 76.417969 C 35.636719 76.3125 34.808594 75.675781 34.71875 75.597656 C 33.441406 74.519531 31.003906 72.019531 29.84375 70.8125 C 29.726562 70.703125 29.671875 70.558594 29.671875 70.402344 C 29.671875 70.269531 29.703125 70.09375 29.84375 69.925781 C 29.945312 69.804688 30.199219 69.640625 30.257812 69.59375 C 30.660156 69.285156 31.050781 68.980469 31.453125 68.675781 C 32.980469 67.488281 34.488281 66.175781 36.144531 65.164062 C 36.386719 65.011719 36.707031 65.078125 36.878906 65.316406 C 37.339844 65.925781 38.535156 66.53125 39.167969 66.984375 C 40.90625 68.230469 42.710938 69.378906 44.46875 70.585938 C 44.722656 70.652344 44.828125 70.90625 44.835938 70.957031 C 44.882812 71.082031 44.953125 71.355469 44.699219 71.613281 C 44.664062 71.640625 44.433594 71.773438 44.355469 71.832031 C 44.183594 71.953125 44.011719 72.070312 43.835938 72.191406 C 43.238281 72.617188 42.617188 73.011719 41.996094 73.402344 C 40.203125 74.53125 38.421875 75.703125 36.546875 76.671875 C 36.363281 76.765625 36.144531 76.753906 35.972656 76.636719 C 35.890625 76.578125 35.824219 76.503906 35.777344 76.417969 Z M 31.109375 70.433594 C 32.347656 71.714844 34.339844 73.734375 35.441406 74.667969 C 35.535156 74.742188 36.074219 75.113281 36.410156 75.398438 C 38.121094 74.484375 39.753906 73.410156 41.410156 72.375 C 42.007812 71.996094 42.605469 71.617188 43.191406 71.203125 L 43.226562 71.175781 C 41.652344 70.109375 40.066406 69.082031 38.511719 67.972656 C 37.9375 67.558594 36.960938 67.003906 36.339844 66.441406 C 34.867188 67.394531 33.523438 68.570312 32.132812 69.640625 C 31.785156 69.902344 31.441406 70.167969 31.109375 70.433594 Z M 44.390625 71.761719 L 44.390625 71.765625 Z M 44.390625 71.761719 " fill-opacity="1" fill-rule="evenodd"/><path fill="#000000" d="M 11.765625 68.910156 L 0.046875 71.601562 L 11.765625 73.644531 L 16.675781 71.027344 Z M 11.765625 68.910156 " fill-opacity="1" fill-rule="evenodd"/><path fill="#000000" d="M 195.464844 27.871094 C 195.496094 28.179688 195.476562 28.660156 195.34375 29.019531 C 194.808594 30.441406 193.472656 32.691406 193.660156 34.207031 C 193.742188 34.902344 194.65625 35.277344 194.851562 35.96875 C 195.445312 38.039062 195.683594 40.324219 196.0625 42.4375 C 198.210938 54.351562 200.234375 66.269531 202.164062 78.214844 C 203.097656 83.925781 204.199219 89.617188 204.710938 95.375 C 204.875 97.257812 205.03125 99.144531 205.101562 101.03125 C 205.121094 101.65625 205.113281 102.277344 205.101562 102.902344 C 205.101562 103.230469 204.785156 104.066406 205.082031 103.886719 C 205.636719 103.5625 205.882812 101.453125 206.039062 100.9375 C 206.980469 97.628906 207.609375 94.320312 207.640625 90.894531 C 207.773438 77.402344 204.105469 64.0625 201.785156 50.8125 C 201.332031 48.1875 200.757812 45.570312 200.398438 42.929688 C 200.273438 42.03125 199.769531 40.683594 200.007812 39.78125 C 200.273438 38.8125 203.929688 42.144531 203.058594 40.007812 C 202.976562 39.792969 202.875 39.585938 202.78125 39.375 C 202.617188 39.023438 202.460938 38.667969 202.296875 38.320312 C 200.921875 35.464844 199.164062 32.820312 197.417969 30.140625 C 197.101562 29.65625 196.0625 27.117188 195.464844 27.871094 Z M 195.464844 27.871094 " fill-opacity="1" fill-rule="evenodd"/><path fill="#000000" d="M 149.089844 36.445312 C 149.242188 36.667969 149.417969 37.046875 149.445312 37.390625 C 149.546875 38.734375 149.273438 41.085938 150.050781 42.171875 C 150.402344 42.667969 151.367188 42.535156 151.816406 42.976562 C 153.183594 44.296875 154.316406 45.953125 155.507812 47.40625 C 162.222656 55.597656 168.835938 63.851562 175.371094 72.167969 C 178.507812 76.140625 181.785156 80.019531 184.566406 84.222656 C 185.472656 85.597656 186.371094 86.984375 187.199219 88.40625 C 187.46875 88.875 187.710938 89.363281 187.953125 89.847656 C 188.085938 90.101562 188.140625 90.890625 188.332031 90.617188 C 188.695312 90.109375 188.058594 88.367188 187.988281 87.898438 C 187.488281 84.90625 186.707031 82.066406 185.347656 79.410156 C 180.011719 68.941406 171.371094 60.351562 163.960938 51.210938 C 162.5 49.394531 160.929688 47.640625 159.546875 45.773438 C 159.074219 45.136719 158.082031 44.328125 157.925781 43.523438 C 157.773438 42.652344 162.359375 43.527344 160.71875 42.28125 C 160.5625 42.15625 160.386719 42.042969 160.21875 41.921875 C 159.929688 41.726562 159.652344 41.527344 159.367188 41.335938 C 156.992188 39.769531 154.367188 38.546875 151.734375 37.289062 C 151.257812 37.066406 149.3125 35.585938 149.089844 36.445312 Z M 149.089844 36.445312 " fill-opacity="1" fill-rule="evenodd"/><path fill="#000000" d="M 183.558594 31.847656 C 183.460938 31.945312 183.589844 31.566406 183.625 31.429688 C 183.699219 31.144531 183.777344 30.863281 183.855469 30.585938 C 184.082031 29.824219 184.324219 29.066406 184.621094 28.332031 C 184.707031 28.117188 184.882812 27.546875 185.199219 27.789062 C 186 28.382812 186.4375 29.753906 186.875 30.601562 C 187.972656 32.703125 189.078125 34.8125 190.074219 36.960938 C 190.421875 37.699219 190.742188 38.453125 191.046875 39.214844 C 191.101562 39.375 191.332031 39.792969 191.15625 39.957031 C 190.828125 40.277344 189.570312 39.214844 189.304688 39.03125 C 189.492188 39.074219 189.011719 38.777344 188.859375 38.664062 C 188.539062 38.433594 188.222656 38.15625 187.871094 37.980469 C 187.804688 38.011719 188.015625 38.816406 188.027344 38.863281 C 188.199219 39.804688 188.429688 40.738281 188.617188 41.675781 C 189.417969 45.6875 190.195312 49.707031 190.804688 53.753906 C 192.535156 65.183594 194.847656 76.308594 192.898438 87.878906 C 193.074219 87.96875 192.425781 89.90625 192.382812 90.078125 C 191.75 92.460938 190.871094 94.804688 189.40625 96.8125 C 183.910156 104.335938 174.558594 106.800781 166.117188 109.332031 C 166.136719 109.441406 166.28125 109.1875 166.367188 109.125 C 166.609375 108.960938 166.839844 108.792969 167.082031 108.640625 C 167.671875 108.257812 168.261719 107.875 168.855469 107.492188 C 170.703125 106.277344 172.542969 105.050781 174.394531 103.835938 C 179.976562 100.164062 185.8125 96.644531 190.171875 91.492188 C 190.183594 91.550781 190.335938 91 190.347656 90.949219 C 190.414062 90.523438 190.46875 90.09375 190.523438 89.664062 C 190.6875 88.222656 190.75 86.765625 190.785156 85.316406 C 190.871094 80.980469 190.675781 76.605469 190.3125 72.285156 C 189.515625 62.773438 187.445312 53.328125 185.617188 43.972656 C 185.136719 41.53125 184.621094 39.066406 184.335938 36.59375 C 184.269531 36.050781 184.304688 34.753906 184.160156 33.835938 C 184.027344 32.917969 183.722656 32.378906 183.558594 31.847656 Z M 183.558594 31.847656 " fill-opacity="1" fill-rule="evenodd"/><path fill="#000000" d="M 248.589844 69.15625 C 247.769531 69.71875 246.199219 69.578125 245.367188 68.636719 C 244.582031 67.753906 245.265625 65.085938 246.671875 64.90625 C 248.46875 64.679688 250.558594 67.914062 251.46875 69.089844 C 251.816406 69.535156 252.917969 71.46875 252.917969 71.46875 C 252.917969 71.46875 252.996094 69.289062 253.097656 68.75 C 253.1875 68.296875 253.277344 67.851562 253.386719 67.40625 C 253.488281 67.03125 253.601562 66.664062 253.738281 66.300781 C 254.230469 64.972656 255.847656 62.230469 257.769531 63.363281 C 258.128906 63.570312 258.375 63.933594 258.589844 64.269531 C 258.746094 64.527344 258.859375 64.8125 258.984375 65.085938 C 259.488281 66.222656 258.34375 65.585938 257.34375 66.191406 C 256.726562 66.558594 255.566406 67.574219 255.1875 68.289062 C 254.175781 70.203125 254.21875 72.890625 254.117188 75.007812 C 254.050781 75.046875 254.015625 75.898438 253.996094 76.015625 C 253.847656 76.011719 253.769531 75.71875 253.714844 75.617188 C 253.46875 75.121094 252.847656 74.644531 252.613281 74.140625 C 251.828125 72.457031 249.871094 70.550781 248.589844 69.15625 Z M 248.589844 69.15625 " fill-opacity="1" fill-rule="evenodd"/><path fill="#000000" d="M 244.425781 36.445312 C 243.609375 37.007812 242.035156 36.867188 241.203125 35.925781 C 240.417969 35.046875 241.101562 32.375 242.507812 32.199219 C 244.304688 31.96875 246.394531 35.207031 247.304688 36.378906 C 247.652344 36.824219 248.753906 38.757812 248.753906 38.757812 C 248.753906 38.757812 248.832031 36.582031 248.933594 36.039062 C 249.023438 35.589844 249.113281 35.140625 249.222656 34.695312 C 249.324219 34.320312 249.4375 33.953125 249.574219 33.589844 C 250.066406 32.261719 251.683594 29.519531 253.605469 30.652344 C 253.964844 30.859375 254.210938 31.222656 254.425781 31.558594 C 254.582031 31.816406 254.695312 32.101562 254.820312 32.378906 C 255.324219 33.511719 254.179688 32.875 253.179688 33.480469 C 252.5625 33.847656 251.402344 34.863281 251.023438 35.582031 C 250.011719 37.496094 250.054688 40.183594 249.953125 42.300781 C 249.886719 42.335938 249.851562 43.1875 249.832031 43.304688 C 249.683594 43.300781 249.605469 43.007812 249.550781 42.90625 C 249.304688 42.410156 248.683594 41.933594 248.449219 41.429688 C 247.664062 39.75 245.707031 37.839844 244.425781 36.445312 Z M 244.425781 36.445312 " fill-opacity="1" fill-rule="evenodd"/><path fill="#000000" d="M 128.683594 39.921875 C 127.863281 40.484375 126.289062 40.347656 125.460938 39.40625 C 124.671875 38.523438 125.359375 35.855469 126.761719 35.675781 C 128.558594 35.449219 130.648438 38.683594 131.558594 39.859375 C 131.90625 40.304688 133.007812 42.238281 133.007812 42.238281 C 133.007812 42.238281 133.085938 40.058594 133.1875 39.519531 C 133.277344 39.066406 133.367188 38.617188 133.480469 38.175781 C 133.582031 37.800781 133.695312 37.433594 133.828125 37.070312 C 134.324219 35.738281 135.941406 33 137.859375 34.132812 C 138.21875 34.339844 138.46875 34.703125 138.679688 35.035156 C 138.839844 35.296875 138.949219 35.578125 139.074219 35.855469 C 139.578125 36.992188 138.433594 36.351562 137.433594 36.957031 C 136.816406 37.324219 135.660156 38.339844 135.277344 39.058594 C 134.265625 40.972656 134.3125 43.660156 134.210938 45.777344 C 134.144531 45.816406 134.109375 46.664062 134.085938 46.785156 C 133.941406 46.777344 133.863281 46.484375 133.804688 46.386719 C 133.558594 45.890625 132.941406 45.410156 132.703125 44.910156 C 131.917969 43.226562 129.964844 41.320312 128.683594 39.921875 Z M 128.683594 39.921875 " fill-opacity="1" fill-rule="evenodd"/><path fill="#000000" d="M 271.957031 93.601562 C 271.957031 93.585938 271.96875 93.582031 272.003906 93.589844 L 271.957031 93.601562 C 271.980469 93.660156 273.304688 97.097656 273.183594 98.15625 C 273.183594 98.15625 272.933594 98.367188 272.902344 98.402344 C 272.722656 98.570312 272.53125 98.730469 272.351562 98.894531 C 271.710938 99.46875 271.058594 100.042969 270.40625 100.605469 C 268.609375 102.132812 266.757812 103.597656 264.902344 105.058594 C 259.34375 109.433594 252.917969 115.398438 245.433594 116.53125 C 243.414062 116.835938 241.300781 116.167969 239.46875 115.425781 C 237.683594 114.699219 235.941406 113.84375 234.527344 112.542969 C 229.035156 107.5 230.054688 98.804688 232.28125 92.570312 C 231.753906 93.089844 231.449219 94.023438 231.132812 94.660156 C 230.222656 96.523438 229.496094 98.472656 229.066406 100.488281 C 227.472656 107.917969 228.078125 117.761719 236.167969 121.488281 C 237.347656 122.03125 238.605469 122.402344 239.90625 122.5625 C 251.386719 123.960938 261.464844 116.050781 268.609375 108.449219 C 271.058594 105.835938 273.460938 102.96875 275.226562 99.882812 C 275.6875 99.070312 275.945312 97.722656 275.933594 97.261719 C 275.855469 95.386719 275.6875 93.757812 275.40625 91.902344 C 277.28125 90.515625 278.820312 90.070312 280.507812 88.355469 C 280.527344 88.328125 280.585938 88.691406 280.585938 88.714844 C 280.617188 88.898438 280.675781 89.082031 280.730469 89.261719 C 280.933594 89.875 281.179688 90.464844 281.472656 91.039062 C 282.328125 92.703125 283.527344 94.339844 285.191406 95.339844 C 288.550781 97.347656 293.277344 96.054688 296.007812 93.628906 C 297.886719 91.957031 299.132812 89.738281 300.300781 87.585938 C 300.355469 87.484375 300.492188 87.914062 300.511719 87.949219 C 300.625 88.175781 300.738281 88.402344 300.871094 88.625 C 301.289062 89.339844 301.761719 90.039062 302.277344 90.6875 C 303.917969 92.726562 306.308594 93.765625 308.984375 93.015625 C 309.949219 92.742188 310.871094 92.242188 311.746094 91.761719 C 318.902344 87.847656 316.152344 80.03125 315.511719 75.167969 C 315.285156 75.132812 314.746094 75.699219 314.589844 75.820312 C 313.734375 76.496094 312.464844 77.441406 312.050781 78.464844 C 311.757812 79.207031 312.433594 80.28125 312.644531 80.980469 C 313.375 83.398438 313.421875 85.960938 310.34375 86.546875 C 309.691406 86.671875 309.015625 86.679688 308.378906 86.542969 C 307.488281 86.355469 306.792969 85.824219 306.199219 85.199219 C 305.445312 84.410156 304.804688 83.527344 304.289062 82.578125 C 303.523438 81.160156 302.917969 79.453125 302.648438 77.867188 C 302.355469 77.933594 301.972656 79.492188 301.871094 79.726562 C 301.121094 81.472656 300.367188 83.210938 299.175781 84.730469 C 297.300781 87.125 294.289062 89.636719 290.953125 89.585938 C 286.3125 89.519531 283.886719 83.515625 284.179688 79.757812 C 280.933594 82.070312 277.910156 85.105469 274.113281 86.652344 C 274.023438 86.691406 274.09375 86.464844 274.046875 86.378906 C 273.933594 86.191406 273.800781 86.019531 273.675781 85.847656 C 273.28125 85.292969 272.914062 84.726562 272.496094 84.183594 C 271.285156 82.59375 270.023438 80.867188 268.328125 79.707031 C 265.867188 78.023438 263.058594 78.300781 260.871094 80.265625 C 258.589844 82.324219 256.734375 85.507812 256.039062 88.445312 C 255.871094 89.136719 255.847656 89.851562 255.824219 90.558594 C 255.769531 93.40625 257.644531 94.628906 260.453125 95.03125 C 264.25 95.582031 268.339844 94.699219 271.957031 93.601562 Z M 261.332031 88.558594 C 261.332031 88.558594 261.722656 87.394531 261.789062 87.242188 C 262.128906 86.472656 263.273438 84.714844 264.609375 85.152344 C 265.566406 85.46875 266.226562 86.453125 266.675781 87.171875 C 266.800781 87.375 267.171875 88.070312 267.171875 88.070312 C 267.171875 88.070312 266.136719 88.523438 265.722656 88.617188 C 265.296875 88.714844 264.542969 88.820312 263.914062 88.824219 C 262.621094 88.835938 261.332031 88.558594 261.332031 88.558594 Z M 261.332031 88.558594 " fill-opacity="1" fill-rule="evenodd"/><path fill="#000000" d="M 307.839844 98.785156 C 307.816406 98.675781 309.085938 97.855469 309.195312 97.972656 C 309.566406 98.382812 309.636719 99.339844 309.726562 99.84375 C 310.039062 101.765625 309.847656 104.046875 307.738281 104.96875 C 307.027344 105.273438 306.289062 105.292969 305.558594 105.101562 C 305.152344 105 304.613281 104.613281 304.210938 104.773438 C 302.984375 105.253906 302.839844 107.316406 301.152344 107.117188 C 299.289062 106.898438 298.097656 104.4375 296.097656 105.160156 C 294.359375 105.792969 292.863281 107.308594 291.480469 108.441406 C 288.539062 110.84375 285.664062 113.492188 282.203125 115.21875 C 280.113281 116.257812 277.96875 116.15625 275.777344 115.414062 C 275.382812 115.28125 274.148438 114.996094 273.96875 114.566406 C 273.878906 114.359375 274.542969 114.417969 274.621094 114.421875 C 275.519531 114.433594 276.417969 114.417969 277.304688 114.308594 C 279.527344 114.042969 281.5625 113.320312 283.40625 112.121094 C 285.617188 110.6875 287.4375 108.808594 289.234375 106.949219 C 290.59375 105.535156 292 104.007812 293.796875 103.082031 C 294.808594 102.570312 295.976562 102.257812 297.121094 102.496094 C 298.34375 102.75 299.335938 103.523438 300.648438 103.191406 C 302.3125 102.769531 302.792969 100.710938 304.332031 100.292969 C 305.398438 100.003906 305.847656 102.152344 306.816406 101.542969 C 307.839844 100.898438 306.917969 99.332031 307.839844 98.785156 Z M 307.839844 98.785156 " fill-opacity="1" fill-rule="evenodd"/><path fill="#000000" d="M 277.664062 54.28125 C 277.765625 54.3125 277.5625 54.335938 277.597656 54.242188 C 277.675781 54.054688 277.867188 53.605469 277.945312 53.414062 C 278.160156 52.859375 278.417969 52.320312 278.675781 51.78125 C 279.484375 50.089844 280.507812 48.117188 282.417969 47.371094 C 283.652344 46.890625 285.023438 46.894531 286.335938 46.828125 C 289.527344 46.664062 292.976562 46.976562 296.121094 47.546875 C 297.707031 47.832031 299.953125 48.347656 300.332031 50.125 C 300.75 52.0625 299.222656 54.144531 297.976562 55.507812 C 294.808594 58.980469 290.101562 61.75 285.3125 62.472656 C 283.730469 62.714844 282.15625 62.773438 280.574219 62.558594 C 280.125 62.496094 279.382812 62.453125 279.046875 62.132812 C 278.820312 61.921875 279.539062 61.589844 279.652344 61.542969 C 280.460938 61.175781 281.316406 60.910156 282.136719 60.585938 C 284.921875 59.503906 287.808594 58.453125 290.335938 56.882812 C 290.796875 56.597656 292.402344 55.753906 292.347656 55.023438 C 292.335938 54.816406 291.648438 54.773438 291.527344 54.75 C 290.582031 54.589844 289.628906 54.519531 288.683594 54.421875 C 285.820312 54.128906 280.550781 54.242188 277.664062 54.28125 Z M 277.664062 54.28125 " fill-opacity="1" fill-rule="evenodd"/><path fill="#000000" d="M 168.097656 41.441406 C 168.152344 41.460938 168.042969 41.476562 168.0625 41.414062 C 168.105469 41.296875 168.207031 41.011719 168.25 40.890625 C 168.367188 40.535156 168.507812 40.191406 168.648438 39.851562 C 169.089844 38.777344 169.644531 37.523438 170.6875 37.050781 C 171.359375 36.746094 172.105469 36.746094 172.820312 36.703125 C 174.558594 36.601562 176.4375 36.796875 178.152344 37.160156 C 179.015625 37.34375 180.238281 37.667969 180.445312 38.800781 C 180.671875 40.03125 179.839844 41.355469 179.160156 42.21875 C 177.433594 44.425781 174.871094 46.1875 172.265625 46.648438 C 171.402344 46.800781 170.546875 46.835938 169.683594 46.699219 C 169.4375 46.660156 169.035156 46.632812 168.851562 46.429688 C 168.726562 46.296875 169.121094 46.085938 169.179688 46.054688 C 169.621094 45.820312 170.085938 45.652344 170.535156 45.449219 C 172.050781 44.757812 173.625 44.09375 175 43.09375 C 175.25 42.914062 176.125 42.375 176.09375 41.910156 C 176.089844 41.78125 175.714844 41.753906 175.648438 41.738281 C 175.132812 41.636719 174.613281 41.589844 174.101562 41.53125 C 172.539062 41.34375 169.671875 41.414062 168.097656 41.441406 Z M 168.097656 41.441406 " fill-opacity="1" fill-rule="evenodd"/><path fill="#000000" d="M 308.679688 57.816406 C 308.601562 57.8125 308.433594 57.675781 308.332031 57.644531 C 308.050781 57.546875 307.757812 57.441406 307.476562 57.324219 C 306.5 56.925781 305.613281 56.34375 305.546875 55.238281 C 305.421875 53 307.457031 50.367188 309.285156 49.132812 C 310.554688 48.269531 311.90625 48.417969 313.195312 49.386719 C 314.914062 50.675781 314.992188 52.558594 314.679688 54.210938 C 314.253906 56.425781 312.542969 58.574219 311.117188 60.210938 C 305.140625 67.097656 287.628906 76.058594 286.101562 75.117188 C 286.484375 75.175781 287.414062 74.460938 287.707031 74.289062 C 289.269531 73.390625 290.863281 72.539062 292.402344 71.609375 C 296.054688 69.40625 299.46875 66.851562 302.792969 64.21875 C 305.378906 62.160156 306.757812 60.46875 308.679688 57.816406 Z M 308.679688 57.816406 L 308.703125 57.78125 C 308.703125 57.808594 308.691406 57.820312 308.679688 57.816406 Z M 310.578125 54.914062 C 310.578125 54.917969 310.578125 54.921875 310.578125 54.917969 L 310.578125 54.914062 C 310.554688 54.886719 310.128906 54.613281 310.105469 54.597656 C 309.917969 54.449219 309.769531 54.277344 309.667969 54.085938 C 309.296875 53.464844 309.296875 52.71875 310.140625 52.351562 C 310.824219 52.054688 311.554688 52.308594 311.679688 52.925781 C 311.769531 53.355469 311.320312 54.550781 310.578125 54.914062 Z M 310.578125 54.914062 " fill-opacity="1" fill-rule="evenodd"/><path fill="#000000" d="M 238.179688 61.320312 C 238.144531 61.308594 237.539062 62.476562 237.46875 62.589844 C 237.335938 62.851562 236.15625 64.796875 236.738281 64.894531 C 237.402344 65 238.3125 64.496094 238.898438 64.265625 C 240.492188 63.625 242.066406 62.894531 243.625 62.171875 C 249.152344 59.621094 254.734375 57.191406 260.410156 54.945312 C 261.710938 54.425781 263.015625 53.921875 264.328125 53.421875 C 265.734375 52.882812 267.507812 51.539062 267.027344 49.777344 C 266.890625 49.296875 244.042969 58.9375 238.179688 61.320312 Z M 238.179688 61.320312 " fill-opacity="1" fill-rule="evenodd"/><path fill="#000000" d="M 126.46875 57.421875 C 126.4375 57.410156 125.933594 58.488281 125.875 58.59375 C 125.761719 58.832031 124.777344 60.625 125.265625 60.710938 C 125.820312 60.808594 126.582031 60.34375 127.066406 60.132812 C 128.402344 59.542969 129.714844 58.871094 131.019531 58.207031 C 135.636719 55.859375 140.300781 53.621094 145.039062 51.554688 C 146.128906 51.078125 147.21875 50.613281 148.316406 50.152344 C 149.488281 49.65625 150.972656 48.417969 150.570312 46.800781 C 150.457031 46.359375 131.367188 55.230469 126.46875 57.421875 Z M 126.46875 57.421875 " fill-opacity="1" fill-rule="evenodd"/><path fill="#000000" d="M 209.039062 55.074219 C 208.867188 55.179688 208.914062 55.867188 208.902344 56.027344 C 208.8125 56.964844 208.746094 57.902344 208.679688 58.839844 C 208.597656 60.015625 208.25 61.597656 208.597656 62.75 C 208.847656 63.601562 210.027344 64.375 210.644531 64.953125 C 211.878906 66.113281 212.992188 67.421875 214.160156 68.652344 C 215.082031 69.628906 216.023438 70.59375 216.914062 71.59375 C 217.058594 71.757812 217.8125 72.304688 217.789062 72.535156 C 217.765625 72.863281 216.980469 73.460938 216.765625 73.695312 C 215.789062 74.777344 214.855469 75.90625 214.003906 77.074219 C 210.992188 81.183594 209.273438 86.34375 210.734375 91.328125 C 211.273438 93.160156 212.214844 95.4375 214.363281 95.929688 C 217.453125 96.632812 220.371094 94.550781 222.4375 92.671875 C 226.496094 88.980469 231.640625 84 229.484375 78.199219 C 228.707031 76.105469 226.957031 74.460938 225.214844 73.058594 C 224.394531 72.398438 223 71.742188 223.359375 70.539062 C 223.796875 69.058594 225.035156 67.71875 225.964844 66.503906 C 227.820312 64.089844 229.84375 61.703125 231.234375 59.003906 C 231.898438 57.726562 232 56.34375 232 54.941406 C 232 54.589844 232.113281 53.894531 231.941406 53.574219 C 231.933594 53.550781 230.933594 54.890625 230.863281 54.992188 C 230.15625 55.984375 229.4375 56.964844 228.71875 57.953125 C 226.84375 60.542969 224.886719 63.058594 222.890625 65.554688 C 222.507812 66.03125 221.597656 67.792969 220.933594 67.953125 C 220.699219 68.015625 219.921875 67.238281 219.742188 67.109375 C 218.753906 66.367188 216.753906 65.238281 216.195312 64.171875 C 215.597656 63.066406 218.832031 63.175781 218.5625 62.429688 C 218.25 61.539062 216.8125 60.644531 216.082031 60.101562 C 214.160156 58.664062 210.914062 56.5625 209.039062 55.074219 Z M 219.394531 74.347656 C 219.40625 74.289062 218.6875 75.140625 218.664062 75.179688 C 218.496094 75.417969 218.328125 75.65625 218.160156 75.894531 C 217.609375 76.683594 217.082031 77.484375 216.5625 78.296875 C 215.273438 80.359375 213.824219 82.546875 213.207031 84.910156 C 212.945312 85.921875 212.847656 87.160156 213.96875 87.714844 C 214.902344 88.175781 216.238281 88.003906 217.238281 87.894531 C 220.441406 87.550781 225.238281 85.625 225.316406 82 C 225.371094 79.546875 221.125 75.738281 219.394531 74.347656 Z M 219.394531 74.347656 " fill-opacity="1" fill-rule="evenodd"/><path fill="#000000" d="M 213.019531 101.738281 C 213.007812 101.667969 212.667969 102.105469 212.644531 102.136719 C 212.453125 102.414062 212.277344 102.703125 212.113281 102.996094 C 211.597656 103.917969 211.132812 104.863281 210.765625 105.84375 C 209.785156 108.476562 209.128906 111.585938 209.789062 114.351562 C 210.03125 115.34375 210.480469 116.871094 211.804688 117.007812 C 213.847656 117.222656 214.96875 115.003906 215.394531 113.53125 C 215.507812 113.148438 215.898438 112.160156 215.617188 111.773438 C 215.570312 111.699219 215.441406 111.960938 215.429688 111.984375 C 215.253906 112.324219 215.074219 112.664062 214.875 112.996094 C 214.480469 113.671875 213.488281 114.703125 212.265625 114.28125 C 211.160156 113.898438 210.929688 112.121094 210.996094 111.152344 C 211.171875 108.332031 212.152344 104.644531 213.019531 101.738281 Z M 213.019531 101.738281 " fill-opacity="1" fill-rule="evenodd"/><path fill="#000000" d="M 135.175781 65.070312 C 135.164062 64.996094 134.820312 65.4375 134.796875 65.464844 C 134.609375 65.746094 134.429688 66.035156 134.265625 66.328125 C 133.753906 67.25 133.285156 68.191406 132.917969 69.171875 C 131.941406 71.808594 131.285156 74.917969 131.945312 77.679688 C 132.1875 78.675781 132.636719 80.199219 133.957031 80.339844 C 136.003906 80.550781 137.125 78.332031 137.550781 76.863281 C 137.660156 76.476562 138.050781 75.492188 137.773438 75.105469 C 137.726562 75.027344 137.597656 75.292969 137.585938 75.3125 C 137.40625 75.65625 137.230469 75.992188 137.03125 76.324219 C 136.632812 77 135.640625 78.03125 134.417969 77.609375 C 133.316406 77.226562 133.085938 75.449219 133.148438 74.480469 C 133.328125 71.664062 134.308594 67.976562 135.175781 65.070312 Z M 135.175781 65.070312 " fill-opacity="1" fill-rule="evenodd"/><path fill="#000000" d="M 75.914062 54.753906 C 75.886719 54.59375 75.097656 55.550781 75.042969 55.617188 C 74.605469 56.226562 74.195312 56.851562 73.8125 57.492188 C 72.625 59.496094 71.542969 61.546875 70.699219 63.679688 C 68.429688 69.414062 66.914062 76.175781 68.445312 82.183594 C 69.003906 84.347656 70.042969 87.664062 73.101562 87.964844 C 77.828125 88.429688 80.425781 83.601562 81.40625 80.40625 C 81.667969 79.570312 82.570312 77.425781 81.925781 76.582031 C 81.816406 76.417969 81.515625 76.992188 81.488281 77.039062 C 81.078125 77.777344 80.667969 78.515625 80.207031 79.238281 C 79.289062 80.707031 76.996094 82.953125 74.167969 82.03125 C 71.613281 81.203125 71.078125 77.335938 71.230469 75.226562 C 71.640625 69.097656 73.90625 61.074219 75.914062 54.753906 Z M 75.914062 54.753906 " fill-opacity="1" fill-rule="evenodd"/><path fill="#000000" d="M 206.839844 40.75 C 206.738281 40.710938 206.984375 40.589844 207.039062 40.507812 C 207.164062 40.355469 207.277344 40.207031 207.402344 40.058594 C 207.816406 39.523438 208.230469 38.992188 208.648438 38.460938 C 209.398438 37.492188 210.152344 36.527344 210.929688 35.574219 C 211.109375 35.363281 211.5 34.636719 211.804688 34.546875 C 211.894531 34.519531 212.140625 34.820312 212.1875 34.871094 C 212.589844 35.230469 213.027344 35.554688 213.445312 35.898438 C 214.667969 36.898438 215.871094 37.917969 217.082031 38.933594 C 217.476562 39.257812 218.320312 39.675781 218.523438 40.167969 C 218.578125 40.296875 218.0625 40.746094 217.992188 40.820312 C 217.410156 41.472656 216.824219 42.128906 216.242188 42.78125 C 215.535156 43.566406 214.824219 44.355469 214.128906 45.144531 C 213.9375 45.351562 213.65625 45.851562 213.375 45.949219 C 213.140625 46.035156 212.410156 45.21875 212.253906 45.097656 C 211.109375 44.199219 208.019531 41.601562 206.839844 40.75 Z M 206.839844 40.75 " fill-opacity="1" fill-rule="evenodd"/><path fill="#000000" d="M 218.554688 40.152344 C 218.453125 40.117188 218.699219 39.996094 218.753906 39.910156 C 218.878906 39.761719 218.992188 39.609375 219.113281 39.460938 C 219.53125 38.929688 219.945312 38.398438 220.363281 37.863281 C 221.113281 36.898438 221.867188 35.929688 222.640625 34.980469 C 222.820312 34.769531 223.214844 34.039062 223.519531 33.949219 C 223.609375 33.921875 223.855469 34.226562 223.898438 34.273438 C 224.304688 34.632812 224.742188 34.960938 225.160156 35.300781 C 226.382812 36.300781 227.585938 37.324219 228.796875 38.335938 C 229.191406 38.664062 230.035156 39.078125 230.234375 39.574219 C 230.292969 39.703125 229.773438 40.148438 229.707031 40.222656 C 229.125 40.875 228.539062 41.53125 227.957031 42.1875 C 227.246094 42.972656 226.539062 43.757812 225.84375 44.550781 C 225.652344 44.753906 225.371094 45.253906 225.089844 45.355469 C 224.855469 45.4375 224.125 44.625 223.96875 44.5 C 222.820312 43.601562 219.734375 41.007812 218.554688 40.152344 Z M 218.554688 40.152344 " fill-opacity="1" fill-rule="evenodd"/><path fill="#000000" d="M 143.105469 67.5 C 143.003906 67.460938 143.253906 67.339844 143.308594 67.257812 C 143.433594 67.105469 143.542969 66.957031 143.667969 66.808594 C 144.082031 66.273438 144.5 65.742188 144.914062 65.210938 C 145.667969 64.246094 146.421875 63.277344 147.195312 62.324219 C 147.375 62.113281 147.769531 61.386719 148.070312 61.296875 C 148.160156 61.269531 148.410156 61.570312 148.453125 61.621094 C 148.859375 61.980469 149.296875 62.304688 149.710938 62.648438 C 150.9375 63.648438 152.136719 64.667969 153.351562 65.683594 C 153.746094 66.007812 154.585938 66.425781 154.789062 66.917969 C 154.84375 67.046875 154.328125 67.496094 154.261719 67.570312 C 153.675781 68.222656 153.09375 68.878906 152.507812 69.53125 C 151.800781 70.316406 151.09375 71.105469 150.398438 71.894531 C 150.207031 72.101562 149.925781 72.601562 149.644531 72.703125 C 149.410156 72.785156 148.679688 71.96875 148.519531 71.847656 C 147.375 70.949219 144.285156 68.351562 143.105469 67.5 Z M 143.105469 67.5 " fill-opacity="1" fill-rule="evenodd"/><path fill="#000000" d="M 157.824219 75.144531 C 157.726562 75.105469 157.972656 74.984375 158.027344 74.902344 C 158.152344 74.75 158.265625 74.601562 158.386719 74.453125 C 158.804688 73.917969 159.21875 73.386719 159.632812 72.855469 C 160.386719 71.890625 161.140625 70.921875 161.914062 69.96875 C 162.09375 69.757812 162.488281 69.03125 162.792969 68.941406 C 162.882812 68.914062 163.128906 69.214844 163.171875 69.265625 C 163.578125 69.625 164.015625 69.949219 164.429688 70.292969 C 165.65625 71.292969 166.859375 72.3125 168.070312 73.328125 C 168.464844 73.652344 169.308594 74.070312 169.507812 74.5625 C 169.566406 74.691406 169.046875 75.140625 168.980469 75.214844 C 168.398438 75.867188 167.8125 76.523438 167.230469 77.175781 C 166.519531 77.960938 165.8125 78.75 165.117188 79.539062 C 164.925781 79.746094 164.644531 80.246094 164.363281 80.347656 C 164.128906 80.429688 163.398438 79.613281 163.242188 79.492188 C 162.09375 78.59375 159.003906 75.996094 157.824219 75.144531 Z M 157.824219 75.144531 " fill-opacity="1" fill-rule="evenodd"/><path fill="#000000" d="M 118.664062 80.226562 C 117.382812 69.679688 113.464844 43.371094 113.496094 43.402344 C 114.132812 43.976562 114.472656 44.394531 115.269531 44.734375 C 115.542969 44.847656 116.070312 45.003906 116.144531 44.570312 C 116.289062 43.777344 115.585938 42.644531 115.269531 41.949219 C 114.273438 39.738281 112.9375 37.710938 111.636719 35.675781 C 111.195312 34.988281 110.75 34.308594 110.253906 33.65625 C 110.210938 33.582031 109.917969 33.074219 109.773438 33.160156 C 109.566406 33.296875 109.488281 33.863281 109.445312 34.089844 C 109.226562 35.234375 109.621094 36.367188 109.804688 37.492188 C 110.527344 41.878906 110.847656 46.339844 111.394531 50.75 C 111.582031 52.183594 111.832031 53.984375 112.019531 55.398438 C 112.457031 58.75 112.882812 62.101562 113.320312 65.453125 C 114.570312 75.113281 116.59375 84.84375 116.945312 94.597656 C 116.96875 95.019531 115.476562 96.183594 115.226562 96.425781 C 113.300781 98.292969 111.304688 100.074219 109.203125 101.742188 C 102.972656 106.695312 95.386719 110.554688 87.449219 111.710938 C 84.023438 112.207031 80.253906 112.335938 77.210938 110.464844 C 72.121094 107.339844 70.742188 101.433594 71.441406 95.816406 C 71.671875 93.929688 72.132812 92.074219 72.4375 90.195312 C 72.527344 89.640625 72.855469 88.582031 72.515625 88.042969 C 72.164062 87.472656 71.484375 88.449219 71.308594 88.6875 C 70.433594 89.867188 69.875 91.332031 69.4375 92.722656 C 68.058594 97.082031 67.882812 102.269531 68.914062 106.71875 C 69.941406 111.167969 73.039062 115.339844 77.496094 116.800781 C 80.582031 117.808594 83.976562 117.703125 87.140625 117.136719 C 95.59375 115.625 103.390625 111.285156 110.101562 106.0625 C 113.636719 103.3125 117.207031 100.148438 119.398438 96.167969 C 119.429688 96.199219 119.453125 95.621094 119.453125 95.585938 C 119.441406 95.15625 119.398438 94.730469 119.363281 94.300781 C 119.289062 93.222656 119.59375 92.066406 119.519531 90.988281 C 119.289062 87.457031 119.082031 83.738281 118.664062 80.226562 Z M 118.664062 80.226562 " fill-opacity="1" fill-rule="evenodd"/><path fill="#000000" d="M 144.054688 98.046875 C 144.042969 98.046875 143.988281 97.839844 143.988281 97.839844 C 143.945312 97.675781 143.902344 97.5 143.867188 97.335938 C 143.757812 96.863281 143.648438 96.40625 143.5625 95.933594 C 143.265625 94.414062 143.035156 92.847656 143.015625 91.304688 C 142.949219 87.078125 145.949219 83.878906 149.234375 81.636719 C 150.195312 80.976562 151.5 79.839844 152.757812 79.859375 C 154.28125 79.882812 155.320312 82.707031 155.8125 83.78125 C 156.558594 85.402344 157.117188 87.152344 157.117188 88.949219 C 157.128906 92.191406 155.167969 95.136719 153.382812 97.71875 C 153.964844 97.75 154.730469 98.265625 155.308594 98.410156 C 157.238281 98.914062 159.394531 99.097656 161.179688 98.035156 C 162.910156 96.996094 164.003906 94.917969 164.300781 92.957031 C 164.441406 92.070312 163.609375 90.964844 162.691406 90.535156 C 162.636719 90.535156 162.65625 89.976562 162.65625 89.921875 C 162.644531 89.222656 162.679688 88.523438 162.699219 87.832031 C 162.746094 86.75 162.808594 85.675781 162.898438 84.589844 C 162.929688 84.296875 162.886719 83.605469 163.160156 83.386719 C 163.414062 83.167969 163.730469 83.59375 163.871094 83.757812 C 164.386719 84.394531 164.835938 85.105469 165.25 85.804688 C 167.015625 88.785156 167.636719 91.5 166.804688 94.917969 C 165.953125 98.398438 163.917969 102.25 160.402344 103.621094 C 156.527344 105.109375 151.621094 103.421875 148.214844 101.398438 C 147.460938 101.726562 146.671875 102.503906 145.949219 102.953125 C 144.21875 104.015625 142.203125 104.835938 140.167969 104.976562 C 138.613281 105.085938 137.058594 104.703125 135.636719 104.136719 C 127.960938 101.101562 125.617188 92.890625 124.53125 85.457031 C 124.257812 83.605469 124.019531 81.765625 123.800781 79.914062 C 123.527344 77.582031 123.25 75.242188 123.011719 72.910156 C 122.726562 70.039062 122.464844 67.171875 122.222656 64.304688 C 121.925781 60.722656 121.640625 57.132812 121.324219 53.550781 C 120.984375 49.621094 120.558594 45.699219 119.527344 41.878906 C 119.191406 40.632812 118.949219 38.945312 118.203125 37.859375 C 117.625 37.027344 116.824219 39.351562 116.527344 38.441406 C 116.035156 36.984375 117.011719 34.542969 117.503906 33.195312 C 117.710938 32.636719 117.996094 31.894531 118.597656 31.675781 C 119.902344 31.191406 121.0625 34.257812 121.367188 35.046875 C 123.066406 39.339844 123.800781 44.113281 124.566406 48.644531 C 125.417969 53.671875 125.945312 58.707031 126.207031 63.808594 C 126.636719 72.152344 126.722656 80.5625 129.535156 88.554688 C 131.277344 93.515625 134.804688 97.09375 140.101562 97.992188 C 141.371094 98.199219 142.796875 98.417969 144.054688 98.046875 Z M 144.054688 98.046875 Z M 145.871094 90.898438 C 145.773438 90.910156 146.027344 90.394531 146.035156 90.359375 C 146.332031 89.769531 146.648438 89.167969 147.097656 88.675781 C 148.402344 87.242188 151.019531 84.316406 152.234375 86.398438 C 152.957031 87.644531 154.027344 89.96875 154.183594 90.886719 C 154.433594 92.441406 153.582031 93.273438 152.070312 94.632812 C 151.523438 95.125 150.109375 95.636719 149.253906 95.519531 C 148.117188 95.34375 145.871094 93.40625 145.871094 90.898438 Z M 145.871094 90.898438 " fill-opacity="1" fill-rule="evenodd"/><g clip-path="url(#d87af5216b)"><path fill="#000000" d="M 241.351562 79.597656 C 241.339844 79.582031 241.296875 79.496094 241.246094 79.546875 C 241.191406 79.59375 241.128906 79.78125 241.121094 79.816406 C 241.074219 80.027344 241.019531 80.234375 240.96875 80.441406 C 240.808594 81.089844 240.632812 81.730469 240.453125 82.375 C 240.167969 83.382812 239.863281 84.386719 239.582031 85.398438 C 239.507812 85.679688 239.433594 85.957031 239.375 86.242188 C 239.347656 86.351562 239.292969 86.503906 239.34375 86.617188 C 239.429688 86.804688 239.664062 86.972656 239.816406 87.117188 C 240.175781 87.449219 240.546875 87.765625 240.910156 88.09375 C 240.929688 88.074219 240.925781 88.148438 240.9375 88.175781 C 240.953125 88.222656 240.96875 88.269531 240.984375 88.316406 C 241.03125 88.453125 241.078125 88.589844 241.125 88.722656 C 241.265625 89.125 241.40625 89.523438 241.542969 89.925781 C 241.957031 91.132812 242.425781 92.328125 242.925781 93.503906 C 244.4375 97.0625 246.429688 100.472656 248.578125 103.742188 C 248.507812 103.621094 248.394531 103.96875 248.292969 104.078125 C 248.105469 104.289062 247.902344 104.492188 247.695312 104.6875 C 247.082031 105.277344 246.488281 105.878906 245.835938 106.433594 C 243.882812 108.105469 241.902344 109.742188 239.808594 111.273438 C 235.917969 114.121094 231.589844 116.527344 227.027344 118.359375 C 223.921875 119.605469 220.648438 120.609375 217.257812 120.902344 C 217.226562 120.878906 216.945312 120.933594 216.902344 120.933594 C 216.5625 120.953125 216.222656 120.972656 215.878906 120.976562 C 214.625 121.003906 213.367188 120.914062 212.132812 120.695312 C 208.414062 120.039062 205.351562 118.023438 203.394531 115.070312 C 203.214844 114.800781 203.054688 114.464844 202.929688 114.164062 C 202.542969 113.234375 202.246094 112.277344 202.050781 111.296875 C 201.214844 107.066406 201.980469 102.535156 203.167969 98.421875 C 203.769531 96.347656 204.589844 94.34375 205.285156 92.300781 C 205.453125 91.8125 205.6875 91.269531 205.683594 90.753906 C 205.679688 90.261719 205.179688 90.476562 204.964844 90.714844 C 204.949219 90.703125 204.847656 90.878906 204.839844 90.886719 C 204.710938 91.097656 204.59375 91.3125 204.476562 91.527344 C 204.207031 92.023438 203.941406 92.523438 203.683594 93.027344 C 202.351562 95.644531 201.242188 98.351562 200.339844 101.121094 C 197.886719 108.664062 197.128906 118.496094 203.695312 124.558594 C 203.691406 124.566406 204.117188 124.828125 204.132812 124.839844 C 204.6875 125.167969 205.214844 125.527344 205.777344 125.847656 C 208.078125 127.148438 210.734375 127.820312 213.417969 128.042969 C 221.328125 128.695312 229.144531 124.960938 235.335938 120.796875 C 235.371094 120.816406 235.605469 120.628906 235.652344 120.59375 C 235.96875 120.371094 236.285156 120.144531 236.601562 119.925781 C 238.082031 118.914062 239.5625 117.894531 240.988281 116.820312 C 244.234375 114.378906 247.78125 111.363281 249.550781 107.800781 C 250.726562 105.445312 251.09375 102.574219 250.910156 100.007812 C 250.921875 100.007812 250.914062 99.898438 250.914062 99.886719 C 250.914062 99.722656 250.898438 99.558594 250.886719 99.390625 C 250.828125 98.699219 250.703125 98.023438 250.507812 97.351562 C 249.703125 94.585938 247.886719 92.1875 246.542969 89.632812 C 246.25 89.074219 245.960938 88.515625 245.695312 87.945312 C 245.660156 87.875 245.40625 87.453125 245.496094 87.375 C 245.609375 87.277344 246.035156 87.542969 246.121094 87.589844 C 246.625 87.855469 247.203125 88.378906 247.808594 88.402344 C 248.625 88.433594 248.242188 87.5625 247.941406 87.238281 C 247.925781 87.246094 247.65625 86.863281 247.640625 86.84375 C 247.289062 86.363281 246.910156 85.890625 246.535156 85.421875 C 244.984375 83.464844 242.246094 80.566406 241.351562 79.597656 Z M 241.351562 79.597656 " fill-opacity="1" fill-rule="evenodd"/></g></svg>