<svg xmlns="http://www.w3.org/2000/svg" xmlns:xlink="http://www.w3.org/1999/xlink" width="500" zoomAndPan="magnify" viewBox="0 0 375 149.999998" height="200" preserveAspectRatio="xMidYMid meet" version="1.0"><path fill="#000000" d="M 302.460938 15.773438 C 302.488281 15.902344 302.699219 15.785156 302.808594 15.808594 C 303.109375 15.867188 303.402344 15.9375 303.703125 16.007812 C 304.980469 16.320312 306.246094 16.726562 307.5 17.152344 C 312.523438 18.867188 317.292969 21.378906 321.625 24.789062 C 332.53125 33.371094 339.699219 47.898438 341.816406 62.820312 C 341.765625 62.839844 341.6875 63.054688 341.65625 63.097656 C 341.496094 63.363281 341.320312 63.621094 341.15625 63.886719 C 340.652344 64.707031 340.082031 65.488281 339.433594 66.164062 C 338.75 66.871094 337.671875 67.824219 336.707031 67.863281 C 335.945312 67.890625 335.160156 67.292969 334.527344 66.890625 C 333.164062 66.03125 331.828125 65.105469 330.5625 64.0625 C 330.597656 64.171875 330.445312 63.667969 330.429688 63.585938 C 330.339844 63.152344 330.242188 62.726562 330.136719 62.296875 C 329.816406 60.972656 329.488281 59.648438 329.15625 58.324219 C 328.160156 54.285156 326.636719 50.292969 325.046875 46.519531 C 320.398438 35.492188 310.902344 23.253906 302.460938 15.773438 Z M 302.460938 15.773438 " fill-opacity="1" fill-rule="evenodd"/><path fill="#000000" d="M 302.460938 132.773438 C 302.488281 132.640625 302.699219 132.757812 302.808594 132.738281 C 303.109375 132.675781 303.402344 132.605469 303.703125 132.535156 C 304.980469 132.222656 306.246094 131.816406 307.5 131.390625 C 312.523438 129.675781 317.292969 127.164062 321.625 123.753906 C 332.53125 115.175781 339.699219 100.644531 341.816406 85.722656 C 341.765625 85.703125 341.6875 85.492188 341.65625 85.445312 C 341.496094 85.179688 341.320312 84.925781 341.15625 84.660156 C 340.652344 83.839844 340.082031 83.054688 339.433594 82.378906 C 338.75 81.671875 337.671875 80.722656 336.707031 80.683594 C 335.945312 80.652344 335.160156 81.253906 334.527344 81.65625 C 333.164062 82.515625 331.828125 83.441406 330.5625 84.480469 C 330.597656 84.375 330.445312 84.875 330.429688 84.960938 C 330.339844 85.390625 330.242188 85.820312 330.136719 86.246094 C 329.816406 87.574219 329.488281 88.898438 329.15625 90.21875 C 328.160156 94.261719 326.636719 98.253906 325.046875 102.023438 C 320.398438 113.050781 310.902344 125.289062 302.460938 132.773438 Z M 302.460938 132.773438 " fill-opacity="1" fill-rule="evenodd"/><path fill="#000000" d="M 341.210938 50.246094 C 341.148438 50.222656 340.625 50.023438 340.433594 49.898438 C 340.207031 49.75 340.085938 49.554688 340.03125 49.410156 C 339.953125 49.21875 339.945312 49.027344 339.988281 48.839844 C 340.03125 48.679688 340.113281 48.457031 340.363281 48.304688 C 340.414062 48.269531 340.527344 48.21875 340.671875 48.1875 C 340.882812 48.140625 341.285156 48.109375 341.3125 48.105469 C 342.078125 48.070312 342.839844 48.136719 343.59375 48.261719 C 346.214844 48.6875 348.8125 49.800781 350.980469 51.558594 C 353.089844 53.265625 354.824219 55.5625 355.671875 58.394531 C 355.886719 59.128906 356.066406 59.890625 356.136719 60.667969 C 356.15625 60.835938 356.148438 61.039062 356.148438 61.242188 C 356.15625 61.304688 356.160156 61.398438 356.167969 61.46875 C 356.238281 61.492188 356.347656 61.523438 356.417969 61.535156 C 356.585938 61.570312 356.742188 61.597656 356.859375 61.636719 C 357.664062 61.902344 358.417969 62.351562 359.089844 62.925781 C 361.316406 64.828125 362.652344 67.972656 363.113281 71.074219 C 363.199219 71.28125 363.203125 71.515625 363.089844 71.78125 C 363.074219 71.820312 363.003906 72.078125 362.652344 72.210938 C 362.59375 72.234375 362.535156 72.25 362.472656 72.253906 L 362.402344 72.273438 C 362.253906 72.332031 362.101562 72.382812 361.949219 72.4375 C 361.445312 72.613281 360.9375 72.777344 360.425781 72.941406 C 359.550781 73.234375 358.671875 73.519531 357.789062 73.792969 L 358.0625 73.910156 C 359.625 74.59375 361.121094 75.398438 362.632812 76.210938 C 362.980469 76.398438 363.144531 76.867188 363.007812 77.28125 C 361.746094 81.03125 359.773438 84.675781 356.59375 86.652344 C 356.328125 86.816406 355.824219 87.15625 355.617188 87.351562 C 354.632812 88.28125 354.0625 89.519531 353.582031 90.859375 C 353.117188 92.15625 352.683594 93.476562 351.980469 94.636719 C 350.425781 97.195312 347.773438 98.9375 345.125 99.421875 C 344.28125 99.574219 343.417969 99.601562 342.566406 99.539062 C 342.417969 99.527344 342.210938 99.535156 342.019531 99.511719 C 341.785156 99.476562 341.570312 99.398438 341.40625 99.277344 C 341.0625 99.03125 340.992188 98.703125 341.027344 98.378906 C 341.046875 98.226562 341.09375 98.050781 341.207031 97.886719 C 341.332031 97.699219 341.605469 97.488281 341.671875 97.441406 C 342.117188 97.121094 342.578125 96.839844 343.03125 96.53125 C 344.066406 95.832031 345.070312 95.058594 345.84375 93.984375 C 346.816406 92.632812 347.285156 91.035156 347.324219 89.285156 C 347.34375 88.375 347.253906 87.398438 347.265625 86.445312 C 347.277344 85.335938 347.433594 84.253906 347.933594 83.300781 C 348.8125 81.636719 350.5 80.722656 352.019531 80.085938 C 352.109375 80.046875 352.304688 79.988281 352.507812 79.902344 C 352.304688 79.6875 352.042969 79.511719 351.839844 79.347656 C 351.039062 78.707031 350.191406 78.144531 349.332031 77.609375 C 348.585938 77.144531 347.832031 76.695312 347.054688 76.296875 C 346.054688 75.785156 345.019531 75.367188 343.992188 74.949219 C 343.871094 74.902344 343.488281 74.683594 343.324219 74.59375 C 343.292969 74.617188 343.261719 74.644531 343.226562 74.671875 C 343.082031 74.792969 342.941406 74.929688 342.824219 75.035156 C 342.253906 75.527344 341.707031 76.054688 341.167969 76.582031 C 340.632812 77.097656 340.105469 77.617188 339.570312 78.136719 C 338.902344 78.792969 338.238281 79.464844 337.585938 80.152344 C 337.425781 80.320312 337.234375 80.574219 337.027344 80.765625 C 336.800781 80.980469 336.550781 81.132812 336.300781 81.191406 C 336.054688 81.246094 335.808594 81.207031 335.574219 81.09375 C 335.402344 81.011719 335.238281 80.875 335.089844 80.777344 C 334.648438 80.484375 334.199219 80.195312 333.757812 79.890625 C 331.988281 78.65625 328.894531 76.25 327.273438 74.757812 C 327.070312 74.570312 326.976562 74.320312 327 74.007812 C 327.007812 73.882812 327.046875 73.695312 327.175781 73.515625 C 327.253906 73.410156 327.421875 73.253906 327.429688 73.246094 C 327.6875 73.011719 327.957031 72.796875 328.230469 72.582031 C 328.8125 72.128906 329.394531 71.683594 329.984375 71.25 C 331.644531 70.027344 334.035156 68.257812 335.695312 66.976562 C 335.78125 66.878906 335.917969 66.78125 336.144531 66.765625 C 336.316406 66.75 336.484375 66.8125 336.625 66.925781 C 336.640625 66.9375 336.660156 66.949219 336.667969 66.953125 C 336.734375 67.003906 336.800781 67.054688 336.867188 67.105469 C 337.058594 67.246094 337.242188 67.394531 337.425781 67.542969 C 337.933594 67.945312 338.445312 68.34375 338.949219 68.753906 C 340.371094 69.90625 341.847656 71.027344 343.21875 72.269531 C 343.980469 71.621094 344.867188 71.09375 345.652344 70.527344 C 347.191406 69.402344 348.738281 68.289062 350.285156 67.179688 C 349.738281 66.78125 349.214844 66.3125 348.808594 65.742188 C 348.238281 64.945312 347.972656 63.882812 347.664062 62.929688 C 347.140625 61.300781 346.714844 59.628906 346.175781 58.007812 C 345.417969 55.734375 344.402344 53.417969 342.894531 51.683594 C 342.394531 51.109375 341.835938 50.617188 341.210938 50.246094 Z M 343.414062 49.9375 C 345.796875 50.332031 348.164062 51.34375 350.140625 52.941406 C 351.996094 54.445312 353.539062 56.453125 354.285156 58.945312 C 354.472656 59.5625 354.621094 60.199219 354.679688 60.847656 C 354.703125 61.058594 354.679688 61.332031 354.699219 61.585938 C 354.71875 61.898438 354.785156 62.1875 354.910156 62.421875 C 355.039062 62.671875 355.25 62.871094 355.519531 63.003906 C 355.816406 63.148438 356.226562 63.1875 356.460938 63.261719 C 357.097656 63.472656 357.6875 63.832031 358.21875 64.285156 C 360.007812 65.816406 361.109375 68.296875 361.578125 70.800781 L 361.523438 70.820312 C 361.027344 70.992188 360.523438 71.152344 360.027344 71.316406 C 358.867188 71.699219 357.710938 72.074219 356.542969 72.421875 C 356.371094 72.472656 355.886719 72.53125 355.554688 72.648438 C 355.226562 72.765625 354.996094 72.96875 354.882812 73.148438 C 354.765625 73.339844 354.71875 73.558594 354.761719 73.804688 C 354.78125 73.933594 354.835938 74.136719 355.03125 74.320312 C 355.15625 74.433594 355.917969 74.785156 355.972656 74.808594 C 356.496094 75.035156 357.019531 75.261719 357.542969 75.492188 C 358.851562 76.066406 360.117188 76.726562 361.386719 77.40625 C 360.246094 80.527344 358.5625 83.507812 355.898438 85.164062 C 355.570312 85.367188 354.953125 85.796875 354.6875 86.042969 C 353.511719 87.15625 352.804688 88.613281 352.230469 90.210938 C 351.808594 91.394531 351.425781 92.609375 350.78125 93.664062 C 349.449219 95.859375 347.167969 97.335938 344.898438 97.75 C 344.585938 97.808594 344.269531 97.84375 343.960938 97.863281 C 345.074219 97.09375 346.132812 96.226562 346.972656 95.0625 C 348.15625 93.414062 348.742188 91.464844 348.789062 89.324219 C 348.808594 88.414062 348.714844 87.429688 348.730469 86.46875 C 348.738281 85.664062 348.816406 84.875 349.1875 84.179688 C 349.894531 82.84375 351.300781 82.1875 352.519531 81.675781 C 352.753906 81.574219 353.5 81.324219 353.832031 80.964844 C 354.195312 80.566406 354.3125 80.085938 354.082031 79.539062 C 353.796875 78.875 353.175781 78.359375 352.667969 77.957031 C 351.824219 77.285156 350.933594 76.6875 350.03125 76.125 C 349.253906 75.636719 348.464844 75.167969 347.648438 74.753906 C 346.617188 74.21875 345.546875 73.785156 344.476562 73.355469 C 344.460938 73.351562 344.453125 73.34375 344.4375 73.339844 C 345.082031 72.839844 345.792969 72.417969 346.429688 71.957031 C 348.328125 70.570312 350.238281 69.199219 352.152344 67.832031 C 352.359375 67.683594 352.488281 67.425781 352.496094 67.144531 C 352.503906 66.863281 352.394531 66.59375 352.195312 66.429688 C 352.007812 66.269531 351.703125 66.179688 351.492188 66.042969 C 350.933594 65.675781 350.351562 65.25 349.9375 64.667969 C 349.472656 64.011719 349.289062 63.121094 349.035156 62.335938 C 348.507812 60.703125 348.082031 59.027344 347.539062 57.402344 C 346.707031 54.910156 345.582031 52.386719 343.929688 50.484375 C 343.765625 50.292969 343.589844 50.113281 343.414062 49.9375 Z M 336.195312 68.621094 C 336.328125 68.722656 336.464844 68.828125 336.597656 68.9375 C 337.101562 69.335938 337.609375 69.730469 338.105469 70.136719 C 339.464844 71.234375 340.867188 72.300781 342.179688 73.476562 C 342.09375 73.550781 342.015625 73.621094 341.945312 73.683594 C 341.351562 74.195312 340.789062 74.742188 340.226562 75.289062 C 339.691406 75.804688 339.160156 76.324219 338.625 76.847656 C 337.941406 77.515625 337.265625 78.203125 336.601562 78.902344 C 336.496094 79.015625 336.378906 79.164062 336.25 79.304688 C 336.191406 79.367188 336.144531 79.449219 336.085938 79.496094 C 336.011719 79.441406 335.886719 79.355469 335.816406 79.3125 C 335.382812 79.023438 334.945312 78.742188 334.519531 78.441406 C 333.027344 77.40625 330.578125 75.519531 328.917969 74.085938 L 329.050781 73.984375 C 329.621094 73.539062 330.191406 73.101562 330.773438 72.675781 C 332.335938 71.523438 334.554688 69.882812 336.195312 68.621094 Z M 336.195312 68.621094 " fill-opacity="1" fill-rule="evenodd"/><path fill="#000000" d="M 374.980469 74.65625 L 363.089844 71.78125 L 355.933594 73.835938 L 362.136719 77.324219 Z M 374.980469 74.65625 " fill-opacity="1" fill-rule="evenodd"/><path fill="#000000" d="M 72.503906 22.179688 C 72.476562 22.3125 72.269531 22.195312 72.15625 22.214844 C 71.855469 22.277344 71.5625 22.347656 71.265625 22.417969 C 69.984375 22.730469 68.71875 23.132812 67.46875 23.5625 C 62.445312 25.277344 57.675781 27.789062 53.339844 31.199219 C 42.433594 39.777344 35.265625 54.308594 33.152344 69.230469 C 33.199219 69.25 33.28125 69.460938 33.3125 69.507812 C 33.472656 69.773438 33.644531 70.027344 33.808594 70.292969 C 34.316406 71.113281 34.882812 71.898438 35.53125 72.574219 C 36.214844 73.28125 37.292969 74.230469 38.257812 74.269531 C 39.023438 74.300781 39.804688 73.699219 40.4375 73.296875 C 41.800781 72.4375 43.140625 71.511719 44.40625 70.472656 C 44.371094 70.578125 44.519531 70.078125 44.539062 69.992188 C 44.628906 69.5625 44.726562 69.132812 44.832031 68.707031 C 45.152344 67.378906 45.480469 66.054688 45.808594 64.734375 C 46.808594 60.691406 48.332031 56.699219 49.921875 52.929688 C 54.566406 41.902344 64.066406 29.664062 72.503906 22.179688 Z M 72.503906 22.179688 " fill-opacity="1" fill-rule="evenodd"/><path fill="#000000" d="M 72.503906 139.179688 C 72.476562 139.050781 72.269531 139.167969 72.15625 139.144531 C 71.855469 139.085938 71.5625 139.015625 71.265625 138.945312 C 69.984375 138.632812 68.71875 138.226562 67.46875 137.800781 C 62.445312 136.085938 57.675781 133.574219 53.339844 130.160156 C 42.433594 121.582031 35.265625 107.054688 33.152344 92.132812 C 33.199219 92.113281 33.28125 91.898438 33.3125 91.855469 C 33.472656 91.589844 33.644531 91.332031 33.808594 91.066406 C 34.316406 90.246094 34.882812 89.464844 35.53125 88.789062 C 36.214844 88.082031 37.292969 87.128906 38.257812 87.089844 C 39.023438 87.0625 39.804688 87.660156 40.4375 88.0625 C 41.800781 88.921875 43.140625 89.847656 44.40625 90.890625 C 44.371094 90.78125 44.519531 91.285156 44.539062 91.367188 C 44.628906 91.800781 44.726562 92.226562 44.832031 92.65625 C 45.152344 93.980469 45.480469 95.304688 45.808594 96.628906 C 46.808594 100.667969 48.332031 104.660156 49.921875 108.433594 C 54.566406 119.460938 64.066406 131.699219 72.503906 139.179688 Z M 72.503906 139.179688 " fill-opacity="1" fill-rule="evenodd"/><path fill="#000000" d="M 33.753906 56.65625 C 33.816406 56.632812 34.339844 56.433594 34.53125 56.304688 C 34.757812 56.15625 34.878906 55.964844 34.9375 55.816406 C 35.011719 55.628906 35.019531 55.4375 34.976562 55.25 C 34.9375 55.089844 34.851562 54.867188 34.605469 54.714844 C 34.550781 54.675781 34.4375 54.625 34.292969 54.59375 C 34.082031 54.550781 33.679688 54.515625 33.652344 54.515625 C 32.890625 54.480469 32.125 54.546875 31.371094 54.667969 C 28.75 55.097656 26.152344 56.210938 23.984375 57.96875 C 21.875 59.671875 20.144531 61.96875 19.296875 64.800781 C 19.078125 65.539062 18.898438 66.300781 18.828125 67.074219 C 18.8125 67.242188 18.816406 67.445312 18.816406 67.652344 C 18.8125 67.714844 18.808594 67.804688 18.796875 67.875 C 18.726562 67.898438 18.621094 67.929688 18.550781 67.945312 C 18.378906 67.976562 18.226562 68.007812 18.105469 68.046875 C 17.300781 68.3125 16.546875 68.761719 15.875 69.335938 C 13.652344 71.238281 12.3125 74.378906 11.851562 77.480469 C 11.769531 77.691406 11.761719 77.925781 11.875 78.1875 C 11.890625 78.230469 11.964844 78.484375 12.3125 78.621094 C 12.371094 78.644531 12.429688 78.65625 12.492188 78.664062 L 12.5625 78.679688 C 12.714844 78.738281 12.863281 78.789062 13.015625 78.84375 C 13.523438 79.023438 14.027344 79.183594 14.539062 79.351562 C 15.414062 79.640625 16.292969 79.925781 17.175781 80.199219 L 16.902344 80.320312 C 15.34375 81.003906 13.847656 81.808594 12.332031 82.617188 C 11.984375 82.804688 11.820312 83.277344 11.957031 83.691406 C 13.21875 87.4375 15.191406 91.082031 18.371094 93.0625 C 18.636719 93.226562 19.140625 93.5625 19.347656 93.761719 C 20.335938 94.691406 20.902344 95.929688 21.382812 97.265625 C 21.847656 98.5625 22.285156 99.886719 22.984375 101.042969 C 24.539062 103.601562 27.191406 105.347656 29.84375 105.828125 C 30.6875 105.980469 31.546875 106.011719 32.402344 105.949219 C 32.546875 105.9375 32.757812 105.945312 32.945312 105.917969 C 33.183594 105.886719 33.394531 105.808594 33.558594 105.6875 C 33.902344 105.4375 33.972656 105.113281 33.9375 104.789062 C 33.917969 104.632812 33.871094 104.460938 33.761719 104.296875 C 33.636719 104.109375 33.359375 103.894531 33.292969 103.847656 C 32.847656 103.527344 32.386719 103.246094 31.933594 102.941406 C 30.898438 102.238281 29.894531 101.46875 29.125 100.390625 C 28.152344 99.039062 27.679688 97.441406 27.640625 95.691406 C 27.621094 94.785156 27.710938 93.808594 27.703125 92.855469 C 27.6875 91.742188 27.535156 90.664062 27.03125 89.707031 C 26.152344 88.046875 24.464844 87.132812 22.945312 86.496094 C 22.855469 86.457031 22.660156 86.398438 22.457031 86.3125 C 22.660156 86.09375 22.921875 85.921875 23.128906 85.753906 C 23.925781 85.117188 24.777344 84.554688 25.632812 84.019531 C 26.378906 83.550781 27.132812 83.101562 27.910156 82.707031 C 28.910156 82.191406 29.945312 81.773438 30.976562 81.359375 C 31.09375 81.308594 31.476562 81.09375 31.640625 81 C 31.671875 81.023438 31.703125 81.054688 31.738281 81.078125 C 31.886719 81.199219 32.023438 81.339844 32.144531 81.445312 C 32.710938 81.9375 33.257812 82.464844 33.800781 82.992188 C 34.332031 83.507812 34.859375 84.027344 35.394531 84.542969 C 36.066406 85.203125 36.726562 85.875 37.378906 86.558594 C 37.539062 86.730469 37.730469 86.980469 37.9375 87.175781 C 38.164062 87.386719 38.414062 87.539062 38.667969 87.597656 C 38.910156 87.65625 39.15625 87.617188 39.390625 87.503906 C 39.5625 87.417969 39.726562 87.285156 39.875 87.1875 C 40.320312 86.894531 40.769531 86.605469 41.207031 86.296875 C 42.980469 85.0625 46.070312 82.660156 47.691406 81.167969 C 47.894531 80.980469 47.988281 80.730469 47.964844 80.417969 C 47.957031 80.292969 47.917969 80.105469 47.789062 79.921875 C 47.714844 79.820312 47.542969 79.664062 47.535156 79.65625 C 47.277344 79.417969 47.007812 79.203125 46.738281 78.992188 C 46.15625 78.539062 45.574219 78.09375 44.980469 77.65625 C 43.320312 76.4375 40.933594 74.667969 39.269531 73.382812 C 39.1875 73.289062 39.050781 73.191406 38.824219 73.171875 C 38.648438 73.160156 38.480469 73.21875 38.34375 73.332031 C 38.324219 73.34375 38.308594 73.355469 38.296875 73.363281 C 38.230469 73.414062 38.164062 73.460938 38.097656 73.511719 C 37.90625 73.65625 37.726562 73.804688 37.539062 73.953125 C 37.03125 74.355469 36.523438 74.753906 36.015625 75.160156 C 34.59375 76.3125 33.121094 77.433594 31.746094 78.675781 C 30.984375 78.03125 30.101562 77.503906 29.3125 76.933594 C 27.773438 75.8125 26.226562 74.699219 24.683594 73.589844 C 25.230469 73.191406 25.753906 72.722656 26.15625 72.152344 C 26.730469 71.351562 26.992188 70.289062 27.300781 69.339844 C 27.828125 67.710938 28.253906 66.039062 28.789062 64.417969 C 29.550781 62.144531 30.5625 59.824219 32.070312 58.089844 C 32.570312 57.519531 33.128906 57.027344 33.753906 56.65625 Z M 31.550781 56.347656 C 29.167969 56.738281 26.800781 57.75 24.824219 59.351562 C 22.96875 60.851562 21.425781 62.859375 20.679688 65.355469 C 20.496094 65.96875 20.34375 66.605469 20.285156 67.253906 C 20.261719 67.464844 20.285156 67.738281 20.269531 67.992188 C 20.246094 68.304688 20.179688 68.597656 20.054688 68.828125 C 19.925781 69.082031 19.71875 69.28125 19.445312 69.414062 C 19.148438 69.558594 18.738281 69.59375 18.503906 69.671875 C 17.871094 69.882812 17.277344 70.238281 16.746094 70.695312 C 14.957031 72.226562 13.855469 74.707031 13.390625 77.207031 L 13.441406 77.226562 C 13.9375 77.402344 14.441406 77.5625 14.9375 77.726562 C 16.097656 78.109375 17.257812 78.484375 18.425781 78.828125 C 18.59375 78.878906 19.078125 78.941406 19.410156 79.058594 C 19.738281 79.175781 19.96875 79.378906 20.082031 79.554688 C 20.203125 79.75 20.246094 79.96875 20.207031 80.214844 C 20.183594 80.339844 20.128906 80.546875 19.933594 80.730469 C 19.808594 80.84375 19.046875 81.195312 18.992188 81.21875 C 18.46875 81.441406 17.945312 81.671875 17.421875 81.898438 C 16.117188 82.472656 14.851562 83.136719 13.578125 83.8125 C 14.722656 86.933594 16.402344 89.917969 19.070312 91.574219 C 19.398438 91.777344 20.015625 92.207031 20.277344 92.453125 C 21.453125 93.5625 22.160156 95.019531 22.738281 96.617188 C 23.160156 97.800781 23.539062 99.015625 24.183594 100.074219 C 25.515625 102.265625 27.800781 103.746094 30.070312 104.160156 C 30.378906 104.214844 30.695312 104.253906 31.007812 104.273438 C 29.890625 103.503906 28.835938 102.636719 27.996094 101.472656 C 26.808594 99.820312 26.222656 97.875 26.179688 95.734375 C 26.15625 94.820312 26.25 93.839844 26.238281 92.878906 C 26.226562 92.074219 26.148438 91.28125 25.777344 90.589844 C 25.074219 89.25 23.664062 88.597656 22.449219 88.082031 C 22.214844 87.984375 21.46875 87.734375 21.132812 87.375 C 20.769531 86.976562 20.652344 86.496094 20.886719 85.945312 C 21.167969 85.285156 21.792969 84.769531 22.296875 84.367188 C 23.140625 83.691406 24.035156 83.09375 24.933594 82.53125 C 25.710938 82.042969 26.503906 81.578125 27.316406 81.160156 C 28.351562 80.628906 29.421875 80.195312 30.492188 79.761719 C 30.503906 79.757812 30.511719 79.753906 30.527344 79.746094 C 29.882812 79.25 29.171875 78.824219 28.539062 78.363281 C 26.636719 76.980469 24.726562 75.609375 22.8125 74.238281 C 22.609375 74.089844 22.480469 73.832031 22.46875 73.550781 C 22.460938 73.269531 22.574219 73 22.773438 72.835938 C 22.960938 72.679688 23.261719 72.589844 23.472656 72.453125 C 24.035156 72.085938 24.617188 71.65625 25.027344 71.078125 C 25.496094 70.421875 25.675781 69.527344 25.929688 68.746094 C 26.457031 67.113281 26.886719 65.4375 27.425781 63.808594 C 28.257812 61.320312 29.386719 58.792969 31.039062 56.894531 C 31.203125 56.703125 31.375 56.519531 31.550781 56.347656 Z M 38.769531 75.027344 C 38.636719 75.132812 38.503906 75.238281 38.371094 75.34375 C 37.863281 75.742188 37.355469 76.140625 36.859375 76.542969 C 35.5 77.644531 34.097656 78.710938 32.789062 79.886719 C 32.871094 79.957031 32.953125 80.03125 33.023438 80.09375 C 33.613281 80.605469 34.175781 81.148438 34.742188 81.695312 C 35.273438 82.214844 35.808594 82.734375 36.339844 83.253906 C 37.023438 83.925781 37.699219 84.609375 38.363281 85.3125 C 38.472656 85.421875 38.585938 85.570312 38.714844 85.714844 C 38.773438 85.777344 38.824219 85.855469 38.878906 85.902344 C 38.957031 85.851562 39.082031 85.765625 39.152344 85.71875 C 39.582031 85.433594 40.023438 85.148438 40.449219 84.851562 C 41.941406 83.8125 44.386719 81.925781 46.046875 80.496094 L 45.914062 80.394531 C 45.347656 79.949219 44.773438 79.507812 44.191406 79.082031 C 42.628906 77.929688 40.414062 76.292969 38.769531 75.027344 Z M 38.769531 75.027344 " fill-opacity="1" fill-rule="evenodd"/><path fill="#000000" d="M -0.015625 81.066406 L 11.875 78.1875 L 19.035156 80.242188 L 12.828125 83.730469 Z M -0.015625 81.066406 " fill-opacity="1" fill-rule="evenodd"/><path fill="#000000" d="M 118.527344 10.519531 C 118.019531 10.910156 117.675781 11.539062 117.351562 12.128906 C 116.785156 13.152344 116.300781 14.230469 115.824219 15.308594 C 115.199219 16.722656 114.605469 18.167969 114.117188 19.648438 C 113.847656 20.472656 113.5625 21.339844 113.503906 22.21875 C 113.421875 23.5 113.8125 24.996094 114.6875 25.890625 C 115.761719 26.984375 117.65625 27.238281 118.992188 26.640625 C 121.488281 25.519531 122.824219 21.992188 122.125 19.179688 C 121.734375 17.601562 120.636719 16.378906 119.507812 15.390625 C 119.09375 15.027344 118.671875 14.679688 118.234375 14.355469 C 118.113281 14.265625 117.800781 14.101562 117.75 13.929688 C 117.671875 13.671875 117.960938 13.226562 118.0625 13.019531 C 118.347656 12.410156 119.152344 10.777344 118.527344 10.519531 Z M 116.3125 17.332031 C 116.269531 17.316406 116.019531 17.765625 116.007812 17.792969 C 115.839844 18.148438 115.683594 18.507812 115.5625 18.890625 C 115.1875 20.085938 114.921875 21.722656 116.121094 22.480469 C 117.152344 23.132812 118.460938 22.921875 119.523438 22.480469 C 119.835938 22.351562 120.605469 22.0625 120.507812 21.558594 C 120.40625 21.046875 119.984375 20.578125 119.675781 20.207031 C 118.792969 19.125 117.425781 18.097656 116.3125 17.332031 Z M 116.3125 17.332031 " fill-opacity="1" fill-rule="evenodd"/><path fill="#000000" d="M 248.058594 21.804688 C 248.121094 21.792969 248.03125 21.925781 248.019531 21.984375 C 247.992188 22.101562 247.96875 22.214844 247.9375 22.328125 C 247.878906 22.539062 247.710938 23.429688 247.351562 23.332031 C 247.171875 23.28125 247.003906 23.082031 246.882812 22.957031 C 246.582031 22.648438 246.296875 22.324219 245.996094 22.015625 C 245.472656 21.476562 244.871094 21 244.230469 20.597656 C 243.890625 20.382812 243.378906 20.203125 243.144531 19.867188 C 242.785156 19.347656 242.996094 18.464844 243.03125 17.890625 C 243.132812 16.34375 243.214844 13.660156 245.324219 13.476562 C 246.816406 13.347656 247.898438 14.519531 248.761719 15.542969 C 250.839844 18.011719 252.308594 21.136719 253.285156 24.164062 C 253.660156 25.332031 254.019531 26.507812 254.355469 27.6875 C 254.425781 27.933594 254.484375 28.195312 254.574219 28.4375 C 254.59375 28.492188 254.636719 28.632812 254.71875 28.617188 C 254.90625 28.582031 254.96875 28.023438 254.996094 27.894531 C 255.171875 27.117188 255.402344 26.34375 255.53125 25.554688 C 256.210938 21.472656 256.878906 18.882812 257.960938 15.785156 C 258.089844 15.414062 258.253906 14.914062 258.414062 14.566406 C 258.859375 13.597656 259.445312 12.648438 260.277344 11.949219 C 260.640625 11.648438 261.082031 11.363281 261.570312 11.332031 C 262.128906 11.292969 262.644531 11.550781 263.089844 11.855469 C 264.035156 12.507812 264.777344 13.433594 265.171875 14.488281 C 265.292969 14.8125 265.457031 15.167969 265.433594 15.515625 C 265.382812 16.1875 265.121094 16.855469 264.925781 17.5 C 264.800781 17.902344 264.671875 18.308594 264.539062 18.710938 C 264.398438 19.148438 264.253906 19.585938 264.082031 20.015625 C 264.050781 20.101562 263.984375 20.34375 263.867188 20.367188 C 263.769531 20.382812 263.6875 20.234375 263.648438 20.175781 C 263.464844 19.902344 263.316406 19.609375 263.152344 19.324219 C 262.59375 18.351562 261.410156 16.394531 260.023438 17.300781 C 258.835938 18.074219 258.253906 19.847656 257.828125 21.085938 C 256.769531 24.160156 256.199219 27.417969 255.777344 30.621094 C 255.769531 30.574219 255.753906 30.71875 255.742188 30.765625 C 255.710938 30.875 255.683594 30.980469 255.652344 31.089844 C 255.558594 31.433594 255.460938 31.773438 255.359375 32.117188 C 254.992188 33.332031 254.574219 34.527344 253.910156 35.625 C 253.75 35.886719 253.582031 36.144531 253.378906 36.375 C 253.347656 36.410156 253.195312 36.609375 253.132812 36.558594 C 252.933594 36.414062 253.007812 35.617188 252.992188 35.410156 C 252.910156 34.324219 252.785156 33.234375 252.582031 32.164062 C 251.945312 28.785156 250.007812 24.675781 248.058594 21.804688 Z M 248.058594 21.804688 " fill-opacity="1" fill-rule="evenodd"/><path fill="#000000" d="M 156.53125 24.410156 C 156.59375 24.398438 156.503906 24.507812 156.492188 24.558594 C 156.464844 24.652344 156.445312 24.746094 156.410156 24.84375 C 156.355469 25.011719 156.183594 25.75 155.824219 25.667969 C 155.644531 25.628906 155.476562 25.460938 155.355469 25.359375 C 155.054688 25.105469 154.769531 24.835938 154.46875 24.582031 C 153.945312 24.140625 153.34375 23.746094 152.703125 23.414062 C 152.363281 23.238281 151.851562 23.089844 151.617188 22.8125 C 151.257812 22.382812 151.46875 21.65625 151.507812 21.1875 C 151.605469 19.910156 151.6875 17.699219 153.796875 17.550781 C 155.289062 17.441406 156.375 18.40625 157.234375 19.25 C 159.316406 21.285156 160.78125 23.859375 161.757812 26.351562 C 162.136719 27.316406 162.492188 28.285156 162.828125 29.253906 C 162.898438 29.460938 162.957031 29.675781 163.046875 29.875 C 163.066406 29.917969 163.109375 30.035156 163.195312 30.023438 C 163.382812 29.996094 163.441406 29.535156 163.472656 29.429688 C 163.644531 28.785156 163.875 28.148438 164.003906 27.5 C 164.683594 24.136719 165.351562 22.003906 166.433594 19.453125 C 166.5625 19.144531 166.730469 18.734375 166.886719 18.445312 C 167.332031 17.648438 167.917969 16.863281 168.75 16.289062 C 169.113281 16.039062 169.554688 15.808594 170.042969 15.78125 C 170.601562 15.75 171.117188 15.960938 171.5625 16.214844 C 172.507812 16.75 173.25 17.511719 173.644531 18.382812 C 173.765625 18.648438 173.929688 18.941406 173.90625 19.230469 C 173.855469 19.78125 173.59375 20.332031 173.398438 20.863281 C 173.273438 21.195312 173.148438 21.53125 173.015625 21.859375 C 172.871094 22.21875 172.726562 22.582031 172.558594 22.933594 C 172.523438 23.007812 172.457031 23.207031 172.339844 23.226562 C 172.242188 23.238281 172.160156 23.117188 172.121094 23.066406 C 171.941406 22.84375 171.789062 22.601562 171.625 22.367188 C 171.066406 21.5625 169.882812 19.953125 168.496094 20.699219 C 167.308594 21.335938 166.726562 22.796875 166.300781 23.816406 C 165.242188 26.347656 164.671875 29.03125 164.253906 31.675781 C 164.242188 31.636719 164.226562 31.753906 164.214844 31.792969 C 164.183594 31.882812 164.15625 31.96875 164.125 32.058594 C 164.03125 32.34375 163.9375 32.625 163.832031 32.90625 C 163.464844 33.90625 163.050781 34.890625 162.382812 35.796875 C 162.222656 36.011719 162.054688 36.222656 161.851562 36.414062 C 161.820312 36.441406 161.667969 36.605469 161.605469 36.566406 C 161.410156 36.445312 161.480469 35.789062 161.464844 35.621094 C 161.382812 34.726562 161.257812 33.828125 161.054688 32.945312 C 160.417969 30.164062 158.480469 26.773438 156.53125 24.410156 Z M 156.53125 24.410156 " fill-opacity="1" fill-rule="evenodd"/><path fill="#000000" d="M 251.460938 62.21875 C 251.523438 62.207031 251.4375 62.339844 251.421875 62.402344 C 251.398438 62.515625 251.375 62.628906 251.34375 62.746094 C 251.285156 62.953125 251.117188 63.84375 250.753906 63.746094 C 250.574219 63.699219 250.410156 63.496094 250.285156 63.371094 C 249.984375 63.0625 249.703125 62.738281 249.402344 62.429688 C 248.878906 61.890625 248.273438 61.414062 247.636719 61.011719 C 247.292969 60.796875 246.785156 60.617188 246.550781 60.28125 C 246.191406 59.761719 246.402344 58.878906 246.4375 58.308594 C 246.535156 56.757812 246.617188 54.074219 248.726562 53.894531 C 250.222656 53.761719 251.304688 54.933594 252.167969 55.960938 C 254.246094 58.429688 255.710938 61.550781 256.6875 64.578125 C 257.066406 65.746094 257.421875 66.921875 257.757812 68.101562 C 257.832031 68.351562 257.890625 68.609375 257.976562 68.851562 C 257.996094 68.90625 258.039062 69.046875 258.125 69.03125 C 258.3125 69 258.375 68.4375 258.402344 68.3125 C 258.574219 67.53125 258.804688 66.757812 258.9375 65.96875 C 259.613281 61.886719 260.28125 59.300781 261.363281 56.203125 C 261.496094 55.828125 261.660156 55.332031 261.816406 54.980469 C 262.261719 54.015625 262.847656 53.0625 263.683594 52.363281 C 264.042969 52.0625 264.488281 51.777344 264.976562 51.746094 C 265.535156 51.710938 266.050781 51.964844 266.496094 52.273438 C 267.441406 52.921875 268.179688 53.847656 268.578125 54.90625 C 268.699219 55.226562 268.859375 55.582031 268.835938 55.929688 C 268.789062 56.601562 268.527344 57.269531 268.328125 57.914062 C 268.203125 58.316406 268.078125 58.722656 267.945312 59.125 C 267.800781 59.5625 267.65625 60 267.488281 60.429688 C 267.453125 60.515625 267.390625 60.761719 267.269531 60.78125 C 267.175781 60.796875 267.089844 60.648438 267.050781 60.589844 C 266.871094 60.316406 266.71875 60.023438 266.558594 59.738281 C 265.996094 58.765625 264.816406 56.8125 263.425781 57.714844 C 262.242188 58.492188 261.660156 60.261719 261.230469 61.5 C 260.171875 64.574219 259.601562 67.832031 259.183594 71.035156 C 259.175781 70.988281 259.15625 71.132812 259.144531 71.179688 C 259.117188 71.289062 259.085938 71.394531 259.058594 71.503906 C 258.964844 71.847656 258.867188 72.1875 258.761719 72.53125 C 258.394531 73.746094 257.980469 74.941406 257.3125 76.039062 C 257.152344 76.300781 256.984375 76.558594 256.78125 76.789062 C 256.753906 76.824219 256.597656 77.023438 256.535156 76.976562 C 256.339844 76.828125 256.414062 76.03125 256.398438 75.824219 C 256.3125 74.738281 256.1875 73.648438 255.984375 72.578125 C 255.347656 69.203125 253.410156 65.089844 251.460938 62.21875 Z M 251.460938 62.21875 " fill-opacity="1" fill-rule="evenodd"/><path fill="#000000" d="M 240.046875 49.453125 C 240.039062 49.4375 241.261719 48.753906 241.347656 48.707031 C 242.253906 48.1875 243.160156 47.675781 244.070312 47.164062 C 246.910156 45.5625 249.792969 44.054688 252.675781 42.578125 C 257.707031 40.007812 262.914062 37.878906 268.128906 35.953125 C 269.425781 35.476562 270.71875 34.992188 272.023438 34.542969 C 272.222656 34.476562 273.007812 34.101562 273.164062 34.453125 C 273.375 34.933594 272.503906 36.21875 272.320312 36.601562 C 272.019531 37.230469 271.765625 38.175781 271.335938 38.683594 C 270.835938 39.28125 270.050781 39.503906 269.40625 39.746094 C 268.320312 40.164062 267.230469 40.574219 266.148438 41.007812 C 259.128906 43.816406 252.378906 47.265625 245.621094 50.882812 C 243.914062 51.796875 242.207031 52.796875 240.445312 53.535156 C 240.199219 53.636719 239.105469 54.226562 238.871094 53.910156 C 238.558594 53.492188 239.914062 49.871094 240.046875 49.453125 Z M 240.046875 49.453125 " fill-opacity="1" fill-rule="evenodd"/><path fill="#000000" d="M 279.738281 44 C 279.621094 43.6875 279.976562 42.878906 280.058594 42.59375 C 280.457031 41.203125 280.933594 39.851562 281.519531 38.558594 C 282.171875 37.109375 282.925781 35.722656 283.746094 34.40625 C 284.195312 33.691406 284.675781 32.894531 285.316406 32.402344 C 286.417969 31.566406 287.914062 31.6875 289.160156 31.734375 C 291.675781 31.832031 294.191406 32.144531 296.683594 32.597656 C 298.289062 32.886719 299.992188 33.210938 301.542969 33.792969 C 302.019531 33.96875 302.808594 34.234375 302.988281 34.875 C 303.203125 35.636719 302.835938 36.597656 302.589844 37.28125 C 301.96875 38.996094 301.148438 40.621094 300.328125 42.210938 C 299.035156 44.730469 297.503906 47.089844 295.867188 49.308594 C 294.699219 50.890625 293.46875 52.507812 291.882812 53.503906 C 289.949219 54.710938 287.6875 55.027344 285.570312 55.460938 C 283.988281 55.785156 282.40625 56.121094 280.820312 56.40625 C 280.441406 56.476562 279.574219 56.785156 279.21875 56.488281 C 278.957031 56.269531 279.914062 55.570312 279.996094 55.503906 C 281.183594 54.574219 282.4375 53.75 283.667969 52.894531 C 286.621094 50.839844 289.617188 48.863281 292.601562 46.875 C 293.265625 46.429688 293.945312 46.015625 294.578125 45.507812 C 294.703125 45.410156 295.179688 45.105469 295.09375 44.851562 C 294.984375 44.539062 294.359375 44.441406 294.132812 44.367188 C 292.945312 43.976562 291.699219 43.804688 290.476562 43.667969 C 289.445312 43.554688 288.410156 43.472656 287.375 43.429688 C 285.382812 43.339844 281.722656 43.722656 279.738281 44 Z M 279.738281 44 " fill-opacity="1" fill-rule="evenodd"/><path fill="#000000" d="M 116.53125 90.539062 C 116.414062 90.226562 116.769531 89.417969 116.851562 89.132812 C 117.25 87.742188 117.726562 86.390625 118.3125 85.097656 C 118.964844 83.648438 119.71875 82.261719 120.539062 80.945312 C 120.988281 80.230469 121.46875 79.433594 122.109375 78.945312 C 123.210938 78.105469 124.707031 78.226562 125.953125 78.277344 C 128.46875 78.375 130.984375 78.683594 133.476562 79.136719 C 135.082031 79.425781 136.78125 79.75 138.335938 80.332031 C 138.8125 80.507812 139.601562 80.773438 139.78125 81.414062 C 139.996094 82.179688 139.628906 83.136719 139.382812 83.820312 C 138.761719 85.535156 137.941406 87.160156 137.121094 88.75 C 135.828125 91.269531 134.296875 93.628906 132.660156 95.847656 C 131.492188 97.429688 130.261719 99.046875 128.675781 100.042969 C 126.742188 101.253906 124.480469 101.566406 122.363281 102 C 120.78125 102.324219 119.199219 102.660156 117.613281 102.945312 C 117.234375 103.015625 116.367188 103.324219 116.011719 103.027344 C 115.75 102.808594 116.707031 102.109375 116.789062 102.042969 C 117.976562 101.113281 119.230469 100.289062 120.460938 99.433594 C 123.414062 97.378906 126.410156 95.402344 129.394531 93.414062 C 130.058594 92.972656 130.738281 92.554688 131.371094 92.050781 C 131.496094 91.949219 131.972656 91.644531 131.886719 91.390625 C 131.777344 91.078125 131.152344 90.980469 130.925781 90.90625 C 129.738281 90.515625 128.492188 90.34375 127.269531 90.207031 C 126.238281 90.09375 125.203125 90.015625 124.167969 89.96875 C 122.175781 89.878906 118.515625 90.261719 116.53125 90.539062 Z M 116.53125 90.539062 " fill-opacity="1" fill-rule="evenodd"/><path fill="#000000" d="M 287.914062 69.378906 C 288.054688 69.035156 288.800781 68.617188 289.054688 68.40625 C 290.152344 67.496094 291.257812 66.601562 292.363281 65.707031 C 296.261719 62.558594 300.257812 59.605469 303.996094 56.222656 C 306.597656 53.871094 309.140625 51.433594 311.53125 48.816406 C 312.117188 48.171875 312.71875 47.523438 313.222656 46.796875 C 313.347656 46.617188 313.703125 46.238281 313.6875 45.984375 C 313.679688 45.820312 313.4375 45.671875 313.339844 45.582031 C 312.933594 45.214844 312.515625 44.863281 312.109375 44.496094 C 310.703125 43.226562 309.644531 41.898438 310.253906 39.789062 C 310.410156 39.242188 310.613281 38.707031 310.867188 38.207031 C 311.941406 36.085938 315.078125 32.382812 317.304688 34.980469 C 318.703125 36.617188 317.765625 40.113281 317.207031 41.921875 C 317.074219 42.355469 316.472656 43.261719 316.488281 43.703125 C 316.492188 43.800781 316.824219 43.960938 316.886719 44.007812 C 317.261719 44.28125 317.675781 44.589844 317.949219 44.988281 C 318.6875 46.054688 317.726562 47.933594 317.117188 48.808594 C 316.550781 49.617188 315.738281 48.078125 315.277344 47.597656 C 315.179688 47.496094 314.777344 46.972656 314.628906 47.132812 C 313.71875 48.121094 313.046875 49.402344 312.171875 50.433594 C 308.417969 54.859375 304.371094 59.3125 299.691406 62.507812 C 296.980469 64.359375 294.210938 66.117188 291.449219 67.875 C 290.703125 68.351562 289.949219 68.832031 289.171875 69.246094 C 288.902344 69.390625 288.230469 69.433594 287.914062 69.378906 Z M 315.554688 42.636719 C 315.519531 42.601562 315.621094 42.28125 315.628906 42.234375 C 315.710938 41.816406 315.796875 41.390625 315.816406 40.964844 C 315.871094 39.855469 315.625 38.527344 314.851562 37.746094 C 314.050781 36.933594 313.136719 37.191406 312.480469 38.070312 C 312.335938 38.261719 311.980469 38.726562 312.042969 39.015625 C 312.136719 39.425781 312.511719 39.875 312.761719 40.160156 C 313.503906 41.003906 314.769531 41.84375 315.554688 42.636719 Z M 315.554688 42.636719 " fill-opacity="1" fill-rule="evenodd"/><path fill="#000000" d="M 158.757812 46.613281 C 158.933594 46.230469 159.878906 45.765625 160.203125 45.527344 C 161.59375 44.515625 162.996094 43.515625 164.398438 42.519531 C 169.335938 39.007812 174.398438 35.71875 179.140625 31.945312 C 182.4375 29.324219 185.660156 26.609375 188.6875 23.6875 C 189.429688 22.96875 190.191406 22.25 190.832031 21.4375 C 190.988281 21.238281 191.441406 20.816406 191.421875 20.53125 C 191.410156 20.347656 191.105469 20.183594 190.980469 20.082031 C 190.464844 19.675781 189.933594 19.28125 189.417969 18.871094 C 187.640625 17.453125 186.296875 15.976562 187.066406 13.625 C 187.265625 13.015625 187.523438 12.417969 187.84375 11.859375 C 189.203125 9.496094 193.179688 5.363281 196.007812 8.265625 C 197.777344 10.085938 196.585938 13.984375 195.878906 16.003906 C 195.710938 16.484375 194.949219 17.496094 194.96875 17.988281 C 194.972656 18.097656 195.394531 18.273438 195.476562 18.328125 C 195.949219 18.632812 196.472656 18.976562 196.820312 19.417969 C 197.757812 20.605469 196.539062 22.707031 195.765625 23.679688 C 195.050781 24.582031 194.019531 22.867188 193.4375 22.328125 C 193.3125 22.214844 192.800781 21.632812 192.613281 21.8125 C 191.460938 22.910156 190.609375 24.34375 189.5 25.492188 C 184.742188 30.421875 179.613281 35.390625 173.683594 38.953125 C 170.25 41.015625 166.738281 42.976562 163.238281 44.9375 C 162.289062 45.464844 161.335938 46.003906 160.351562 46.464844 C 160.011719 46.625 159.15625 46.675781 158.757812 46.613281 Z M 193.785156 16.796875 C 193.742188 16.757812 193.871094 16.402344 193.882812 16.351562 C 193.980469 15.886719 194.089844 15.410156 194.117188 14.9375 C 194.1875 13.695312 193.871094 12.214844 192.894531 11.34375 C 191.878906 10.4375 190.71875 10.730469 189.890625 11.707031 C 189.707031 11.921875 189.257812 12.441406 189.339844 12.761719 C 189.453125 13.21875 189.929688 13.71875 190.246094 14.039062 C 191.1875 14.980469 192.792969 15.914062 193.785156 16.796875 Z M 193.785156 16.796875 " fill-opacity="1" fill-rule="evenodd"/><path fill="#000000" d="M 221 94.957031 C 220.984375 94.875 220.925781 95.101562 220.890625 95.171875 C 220.824219 95.316406 220.757812 95.460938 220.695312 95.605469 C 220.484375 96.070312 220.269531 96.535156 220.058594 97.003906 C 219.488281 98.269531 218.917969 99.539062 218.375 100.828125 C 216.832031 104.492188 215.128906 108.726562 215.492188 112.914062 C 215.613281 114.273438 215.996094 116.582031 217.410156 116.933594 C 219.304688 117.40625 220.59375 114.605469 221.203125 113.015625 C 221.359375 112.613281 221.496094 112.199219 221.609375 111.777344 C 221.773438 111.191406 222.003906 110.296875 221.867188 109.667969 C 221.757812 109.179688 221.292969 109.867188 221.195312 110.007812 C 220.738281 110.648438 220.382812 111.777344 219.734375 112.179688 C 218.917969 112.683594 218.167969 111.242188 217.929688 110.582031 C 216.613281 106.902344 218.761719 103.171875 220.058594 99.929688 C 220.558594 98.683594 221.269531 96.402344 221 94.957031 Z M 221 94.957031 " fill-opacity="1" fill-rule="evenodd"/><path fill="#000000" d="M 221.152344 53.46875 C 221.144531 53.425781 221.832031 53.441406 221.929688 53.433594 C 222.230469 53.410156 224.394531 53.425781 224.316406 52.929688 C 224.226562 52.308594 223.007812 51.375 222.636719 50.976562 C 221.082031 49.292969 219.433594 47.679688 217.734375 46.199219 C 217.605469 46.085938 215.839844 44.425781 215.730469 44.527344 C 214.789062 45.40625 214.277344 48.152344 213.796875 49.40625 C 213.640625 49.789062 213.242188 50.492188 213.320312 50.949219 C 213.4375 51.65625 215.015625 51.609375 215.386719 52.476562 C 216.695312 55.496094 221.640625 62.402344 222.566406 63.167969 C 222.246094 64.570312 220.753906 66.9375 220.171875 68.195312 C 218.070312 72.699219 214.910156 78.160156 215.730469 83.585938 C 215.960938 85.082031 216.375 86.554688 216.984375 87.890625 C 217.382812 88.769531 217.871094 89.617188 218.441406 90.351562 C 218.890625 90.925781 219.386719 91.453125 219.953125 91.855469 C 223.433594 94.316406 226.757812 90.25 229.222656 87.660156 C 231.519531 85.246094 234.21875 82.421875 235.273438 78.878906 C 236.648438 74.292969 234.617188 70.351562 231.941406 67.148438 C 230.9375 65.960938 228.023438 64.039062 228.421875 62.027344 C 228.757812 60.371094 230.089844 58.839844 230.953125 57.554688 C 232.613281 55.082031 234.25 52.59375 235.8125 50.03125 C 236.359375 49.136719 238.0625 46.539062 237.179688 45.289062 C 236.691406 44.589844 235.777344 45.632812 235.386719 46 C 233.910156 47.382812 232.632812 49.097656 231.386719 50.753906 C 230.554688 51.851562 229.742188 52.953125 228.949219 54.085938 C 228.5 54.71875 228.078125 55.375 227.667969 56.039062 C 227.421875 56.4375 227.175781 56.84375 226.929688 57.25 C 226.140625 58.578125 225.902344 59.117188 224.878906 58.015625 C 224.632812 57.746094 224.394531 57.46875 224.164062 57.183594 C 223.828125 56.765625 223.503906 56.332031 223.183594 55.898438 C 222.664062 55.207031 220.730469 53.050781 220.21875 52.351562 Z M 225.214844 67.535156 C 224.890625 68.203125 223.707031 69.375 223.175781 70.089844 C 222.070312 71.570312 221.488281 73.277344 220.695312 75.015625 C 220.144531 76.234375 219.898438 77.574219 219.617188 78.925781 C 218.988281 81.933594 220.535156 85.140625 223.441406 84.859375 C 224.828125 84.730469 225.929688 83.910156 226.964844 82.902344 C 229.425781 80.519531 232.386719 77.441406 230.238281 73.441406 C 229.117188 71.34375 226.894531 68.980469 225.214844 67.535156 Z M 225.214844 67.535156 " fill-opacity="1" fill-rule="evenodd"/><path fill="#000000" d="M 314.589844 73.765625 C 315.480469 72.167969 316.714844 70.679688 317.890625 69.351562 C 318.078125 69.136719 318.789062 68.132812 319.125 68.226562 C 320.0625 68.484375 320.523438 71.765625 320.644531 72.5625 C 320.796875 73.636719 320.804688 74.730469 320.722656 75.8125 C 320.378906 80.492188 318.96875 85.703125 315.976562 88.972656 C 314.246094 90.863281 311.894531 91.863281 309.722656 90.390625 C 308.902344 89.832031 308.167969 89.109375 307.5 88.320312 C 306.332031 86.921875 305.429688 85.167969 304.714844 83.398438 C 304.628906 83.207031 304.503906 83.75 304.410156 83.933594 C 304.238281 84.292969 304.054688 84.648438 303.871094 85 C 303.367188 85.984375 302.878906 86.972656 302.339844 87.929688 C 300.75 90.753906 298.605469 94.003906 295.730469 95.050781 C 291.5625 96.574219 287.277344 92.050781 285.953125 87.707031 C 285.46875 86.113281 285.421875 84.65625 285.398438 83.007812 C 285.40625 83.011719 284.027344 84.570312 283.921875 84.675781 C 282.28125 86.289062 280.585938 87.613281 278.695312 88.765625 C 278.625 88.492188 279.085938 91.3125 279.085938 91.960938 C 279.085938 93.773438 279.101562 95.019531 278.582031 97.011719 C 278.386719 97.757812 277.019531 99.992188 276.707031 100.46875 C 274.40625 103.96875 271.914062 107.226562 269.167969 110.246094 C 261.417969 118.746094 250.292969 128.566406 239.5 121.625 C 238.078125 120.710938 236.746094 119.601562 235.640625 118.199219 C 234.152344 116.324219 233.101562 114.101562 232.492188 111.636719 C 231 105.570312 232.101562 98.90625 233.648438 93.003906 C 234.082031 91.351562 234.628906 89.746094 235.28125 88.195312 C 235.332031 88.082031 235.777344 86.859375 235.988281 87.117188 C 236.3125 87.519531 235.925781 88.992188 235.863281 89.4375 C 235.554688 91.859375 235.210938 94.269531 234.953125 96.699219 C 234.25 103.304688 235.007812 110.5625 240.046875 114.632812 C 248.375 121.371094 257.417969 112.65625 264.003906 107.015625 C 269.320312 102.460938 275.480469 97.601562 275.351562 89.132812 C 275.148438 89.191406 274.875 89.617188 274.703125 89.753906 C 274.105469 90.230469 273.453125 90.636719 272.808594 91 C 270.632812 92.21875 268.292969 92.996094 265.875 92.996094 C 264.832031 92.996094 263.773438 92.820312 262.777344 92.472656 C 261.980469 92.195312 261.214844 91.78125 260.523438 91.230469 C 255.296875 87.035156 259.023438 78.492188 261.929688 74.0625 C 263.339844 71.917969 265.550781 68.691406 268.160156 68.898438 C 270.679688 69.097656 273.042969 71.929688 274.476562 74.160156 C 275.78125 76.179688 276.578125 78.597656 277.257812 80.988281 C 277.195312 80.722656 277.734375 80.929688 277.964844 80.859375 C 278.367188 80.730469 278.765625 80.5625 279.15625 80.375 C 280.3125 79.824219 281.449219 79.085938 282.441406 78.199219 C 283.914062 76.890625 285.0625 75.214844 286.308594 73.640625 C 286.605469 73.273438 287.3125 72.074219 287.835938 72.371094 C 288.816406 72.917969 288.824219 75.753906 288.957031 76.789062 C 289.414062 80.347656 289.398438 84.339844 293.089844 85.097656 C 293.644531 85.210938 294.210938 85.238281 294.773438 85.1875 C 299.019531 84.804688 301.980469 80.550781 303.851562 76.425781 C 304.558594 74.863281 305.15625 73.238281 305.867188 71.6875 C 306.042969 71.320312 306.367188 70.398438 306.816406 70.410156 C 307.109375 70.421875 307.1875 70.941406 307.234375 71.195312 C 307.425781 72.191406 307.453125 73.234375 307.480469 74.25 C 307.4375 74.132812 307.4375 74.511719 307.425781 74.640625 C 307.402344 74.894531 307.367188 75.144531 307.359375 75.398438 C 307.328125 76.242188 307.390625 77.117188 307.535156 77.945312 C 307.976562 80.4375 309.386719 82.316406 311.566406 82.753906 C 315.226562 83.492188 315.949219 76.863281 314.589844 73.765625 Z M 270.359375 83.859375 C 270.34375 83.914062 269.992188 84.011719 269.953125 84.027344 C 269.546875 84.1875 269.132812 84.320312 268.710938 84.417969 C 267.375 84.734375 264.613281 85.214844 264.09375 83.101562 C 263.578125 80.988281 265.753906 78.792969 267.4375 79.042969 C 268.769531 79.238281 270.097656 81.667969 270.359375 83.859375 Z M 270.359375 83.859375 " fill-opacity="1" fill-rule="evenodd"/><path fill="#000000" d="M 212.214844 27.222656 L 217.402344 19.933594 L 225.144531 26.144531 L 220.011719 33.695312 Z M 212.214844 27.222656 " fill-opacity="1" fill-rule="evenodd"/><path fill="#000000" d="M 225.140625 27.222656 L 230.328125 19.933594 L 238.070312 26.144531 L 232.9375 33.695312 Z M 225.140625 27.222656 " fill-opacity="1" fill-rule="evenodd"/><path fill="#000000" d="M 127.917969 17.808594 L 133.105469 10.515625 L 140.847656 16.726562 L 135.714844 24.277344 Z M 127.917969 17.808594 " fill-opacity="1" fill-rule="evenodd"/><path fill="#000000" d="M 135.722656 64.683594 C 135.734375 64.652344 135.765625 64.636719 135.824219 64.632812 L 135.722656 64.683594 C 135.664062 64.84375 136.144531 65.339844 136.28125 65.605469 C 136.597656 66.203125 136.949219 66.789062 137.320312 67.355469 C 138.367188 68.953125 139.542969 70.476562 140.824219 71.890625 C 145.304688 76.828125 151.378906 78.195312 157.53125 75.382812 C 160.609375 73.972656 163.09375 71.847656 165.234375 69.253906 C 165.566406 68.851562 166.957031 66.617188 167.621094 66.761719 C 168.34375 66.914062 168.867188 70.496094 169.164062 71.117188 C 170.324219 73.53125 172.394531 74.890625 175.03125 75.203125 C 179.640625 75.746094 183.695312 73.035156 186.679688 69.777344 C 187.617188 68.757812 188.441406 67.644531 189.257812 66.523438 C 189.523438 66.148438 189.996094 65.230469 190.511719 65.125 C 190.835938 65.058594 191.253906 67.554688 191.382812 67.847656 C 192.152344 69.613281 193.453125 70.785156 195.398438 71.082031 C 196.894531 71.308594 198.410156 70.921875 199.917969 70.851562 C 211.417969 70.304688 210.808594 58.996094 206.367188 49.957031 C 205.5625 51.460938 204.761719 52.960938 203.949219 54.460938 C 203.558594 55.179688 202.886719 56.046875 202.769531 56.871094 C 202.6875 57.46875 203.382812 57.898438 203.761719 58.265625 C 204.554688 59.054688 205.503906 60.015625 205.496094 61.222656 C 205.492188 62.699219 204.023438 63.394531 202.757812 63.625 C 200.226562 64.085938 197.046875 63.449219 195.285156 61.445312 C 193.839844 59.796875 193.71875 57.480469 193.96875 55.40625 C 194.066406 54.582031 194.363281 53.746094 194.355469 52.917969 C 194.355469 52.683594 194.3125 52.164062 193.957031 52.226562 C 193.410156 52.320312 192.976562 53.117188 192.691406 53.523438 C 191.625 55.070312 190.816406 56.765625 190.046875 58.472656 C 188.101562 62.753906 186.074219 66.472656 181.164062 67.636719 C 176.578125 68.722656 170.882812 66.035156 171.515625 60.65625 C 171.667969 59.378906 172.269531 58.199219 172.949219 57.125 C 172.84375 57.179688 172.828125 56.921875 172.730469 56.863281 C 172.535156 56.75 172.285156 56.726562 172.066406 56.738281 C 171.355469 56.777344 170.640625 57.199219 170.105469 57.640625 C 168.730469 58.773438 168.023438 60.34375 167.097656 61.820312 C 166 63.570312 164.714844 65.167969 163.050781 66.417969 C 157.625 70.5 149.589844 70.617188 144.078125 66.71875 C 142.804688 65.816406 141.648438 64.757812 140.699219 63.511719 C 140.421875 63.148438 139.960938 62.667969 139.925781 62.1875 C 139.847656 61.210938 141.339844 60.339844 141.957031 59.816406 C 143.882812 58.199219 145.898438 56.550781 147.421875 54.539062 C 151.09375 49.695312 149.128906 43.324219 146.546875 38.429688 C 145.511719 36.46875 144.238281 34.269531 142.34375 33.007812 C 138.183594 30.234375 134.332031 34.753906 132.824219 38.296875 C 130.9375 42.726562 131.757812 47.871094 132.992188 52.367188 C 133.570312 54.464844 134.976562 58.765625 134.742188 58.859375 C 134.304688 59.035156 133.859375 59.203125 133.421875 59.371094 C 132.273438 59.816406 131.128906 60.277344 129.972656 60.710938 C 126.363281 62.0625 122.730469 63.363281 119.070312 64.570312 C 108.230469 68.140625 96.953125 70.984375 85.484375 71.257812 C 77.382812 71.449219 65.640625 70.847656 61.171875 62.707031 C 59.308594 59.316406 59.242188 55.375 59.878906 51.648438 C 60.136719 50.121094 60.613281 48.660156 60.96875 47.15625 C 61 47.023438 61.328125 45.902344 61.015625 45.867188 C 60.304688 45.785156 59.074219 48.519531 58.835938 48.96875 C 56.996094 52.417969 55.726562 56.308594 55.601562 60.234375 C 55.195312 72.976562 66.066406 80.878906 77.941406 81.269531 C 98.382812 81.949219 117.855469 73.570312 135.722656 64.683594 Z M 137.667969 56.59375 C 136.941406 54.390625 135.867188 50.816406 135.429688 48.507812 C 135.160156 47.078125 134.957031 45.617188 135.003906 44.152344 C 135.03125 43.300781 135.089844 42.453125 135.328125 41.636719 C 136.03125 39.234375 137.9375 38.925781 139.871094 39.945312 C 142.144531 41.148438 143.925781 43.492188 144.929688 45.929688 C 145.191406 46.554688 145.796875 47.519531 145.734375 48.234375 C 145.679688 48.847656 145.160156 49.425781 144.828125 49.890625 C 144.027344 50.996094 143.121094 52.019531 142.214844 53.027344 C 141.164062 54.1875 139.070312 55.960938 137.667969 56.59375 Z M 137.667969 56.59375 " fill-opacity="0.82" fill-rule="evenodd"/><path fill="#000000" d="M 167.445312 132.589844 L 172.628906 125.300781 L 180.371094 131.507812 L 175.238281 139.0625 Z M 167.445312 132.589844 " fill-opacity="1" fill-rule="evenodd"/><path fill="#000000" d="M 180.375 132.589844 L 185.5625 125.300781 L 193.304688 131.507812 L 188.171875 139.0625 Z M 180.375 132.589844 " fill-opacity="1" fill-rule="evenodd"/><path fill="#000000" d="M 307.824219 109.125 C 307.773438 109.136719 307.933594 108.753906 307.953125 108.707031 C 308.039062 108.457031 308.121094 108.207031 308.214844 107.960938 C 308.425781 107.390625 308.65625 106.832031 308.867188 106.257812 C 308.882812 106.207031 309.019531 105.742188 309.101562 105.792969 C 309.175781 105.835938 309.203125 106.078125 309.230469 106.160156 C 309.355469 106.582031 309.488281 106.996094 309.578125 107.429688 C 309.992188 109.371094 309.972656 111.375 309.234375 113.199219 C 308.710938 114.5 307.691406 115.441406 306.492188 115.585938 C 304.980469 115.765625 303.46875 114.289062 303.414062 112.40625 C 303.414062 112.398438 303.25 112.566406 303.238281 112.582031 C 303.152344 112.695312 303.074219 112.820312 302.992188 112.945312 C 302.738281 113.351562 302.5 113.769531 302.261719 114.191406 C 301.519531 115.523438 300.628906 117.101562 299.226562 117.394531 C 297.355469 117.785156 296.015625 115.984375 294.261719 115.695312 C 293.394531 115.554688 292.523438 115.898438 291.746094 116.339844 C 290.386719 117.109375 289.167969 118.21875 287.992188 119.328125 C 287.480469 119.8125 286.800781 120.4375 286.292969 120.917969 C 285.183594 121.972656 284.070312 123.023438 282.945312 124.054688 C 278.835938 127.816406 274.890625 131.632812 270.316406 134.539062 C 270.390625 134.636719 270.117188 134.632812 270.015625 134.6875 C 269.777344 134.824219 269.535156 134.949219 269.292969 135.074219 C 268.589844 135.429688 267.878906 135.765625 267.171875 136.101562 C 264.996094 137.117188 262.824219 138.003906 260.558594 138.675781 C 259.828125 138.890625 259.078125 139.101562 258.324219 139.164062 C 258.214844 139.175781 257.582031 139.246094 257.585938 138.964844 C 257.597656 138.414062 258.777344 137.871094 259.070312 137.675781 C 260.648438 136.644531 262.269531 135.734375 263.863281 134.742188 C 267.585938 132.425781 271.058594 129.601562 274.535156 126.785156 C 277.078125 124.734375 279.65625 122.734375 282.15625 120.605469 C 282.328125 120.460938 282.800781 120.0625 282.957031 119.929688 C 283.667969 119.332031 284.371094 118.71875 285.070312 118.105469 C 286.941406 116.476562 288.808594 114.816406 290.789062 113.394531 C 291.886719 112.601562 293.140625 111.761719 294.453125 111.777344 C 296.371094 111.800781 298.238281 113.90625 300.167969 112.84375 C 301.671875 112.019531 302.488281 110.035156 303.414062 108.492188 C 303.679688 108.046875 304.308594 106.675781 304.832031 106.621094 C 305.164062 106.589844 304.945312 107.585938 304.921875 107.761719 C 304.773438 108.894531 304.445312 110.570312 305.175781 111.511719 C 306.285156 112.933594 308.875 111.457031 307.824219 109.125 Z M 307.824219 109.125 " fill-opacity="1" fill-rule="evenodd"/><path fill="#000000" d="M 247.542969 83.839844 C 247.539062 83.804688 247.597656 83.875 247.625 83.894531 C 247.671875 83.921875 247.71875 83.949219 247.765625 83.976562 C 247.929688 84.074219 248.097656 84.164062 248.269531 84.25 C 248.394531 84.316406 248.523438 84.382812 248.652344 84.445312 C 248.742188 84.488281 248.828125 84.527344 248.914062 84.570312 C 249.21875 84.707031 250.222656 85.226562 250.191406 84.480469 C 250.167969 83.933594 249.765625 83.382812 249.476562 82.96875 C 248.878906 82.113281 248.277344 81.261719 247.671875 80.410156 C 246.5625 78.855469 245.449219 77.308594 244.3125 75.777344 C 244.042969 75.417969 243.785156 75.046875 243.503906 74.699219 C 243.421875 74.601562 243.285156 74.382812 243.148438 74.378906 C 242.941406 74.371094 242.828125 74.875 242.785156 75.019531 C 242.558594 75.78125 242.425781 76.574219 242.265625 77.351562 C 242.011719 78.59375 241.71875 79.820312 241.398438 81.039062 C 241.261719 81.554688 240.953125 82.273438 241.121094 82.8125 C 241.222656 83.148438 241.464844 83.402344 241.6875 83.648438 C 241.988281 83.976562 242.292969 84.296875 242.628906 84.585938 C 242.523438 84.875 242.851562 85.613281 242.921875 85.882812 C 243.25 87.113281 243.648438 88.316406 244.046875 89.519531 C 244.832031 91.914062 245.703125 94.273438 246.777344 96.53125 C 247.949219 98.992188 249.320312 101.359375 250.425781 103.855469 C 250.339844 103.839844 249.996094 104.398438 249.945312 104.460938 C 249.382812 105.15625 248.808594 105.839844 248.222656 106.511719 C 245.992188 109.085938 243.605469 111.476562 241.085938 113.707031 C 237.308594 117.050781 232.984375 119.769531 228.566406 121.972656 C 224.15625 124.167969 219.273438 125.9375 214.355469 125.34375 C 214.316406 125.203125 214.082031 125.332031 213.949219 125.296875 C 213.484375 125.171875 213.019531 125.039062 212.5625 124.871094 C 210.839844 124.25 209.183594 123.5 207.734375 122.28125 C 203.609375 118.824219 202.429688 113.136719 202.445312 107.679688 C 202.457031 102.976562 203.425781 98.300781 204.878906 93.886719 C 205.464844 92.105469 206.089844 90.335938 206.6875 88.558594 C 206.726562 88.445312 207.261719 87.046875 206.988281 87.042969 C 206.757812 87.042969 206.5 87.4375 206.378906 87.605469 C 205.859375 88.332031 205.417969 89.144531 205.046875 89.972656 C 203.523438 93.375 202.386719 97.042969 201.378906 100.652344 C 200.914062 102.308594 200.488281 103.976562 200.152344 105.667969 C 198.355469 114.730469 198.9375 127.167969 207.453125 132.0625 C 208.742188 132.800781 210.136719 133.363281 211.5625 133.707031 C 221.894531 136.199219 231.21875 130.152344 238.890625 123.511719 C 238.824219 123.566406 239.042969 123.425781 239.109375 123.375 C 239.25 123.269531 239.390625 123.160156 239.53125 123.054688 C 239.972656 122.71875 240.414062 122.375 240.847656 122.023438 C 242.136719 120.988281 243.359375 119.867188 244.535156 118.691406 C 248.269531 114.953125 251.652344 110.832031 252.695312 105.316406 C 252.777344 104.886719 252.855469 104.300781 252.882812 103.878906 C 252.953125 102.75 252.976562 101.613281 252.945312 100.480469 C 252.84375 96.875 251.566406 93.863281 250.203125 90.636719 C 249.324219 88.554688 248.574219 85.84375 247.542969 83.839844 Z M 247.542969 83.839844 " fill-opacity="1" fill-rule="evenodd"/><path fill="#000000" d="M 193.488281 99.046875 C 193.546875 98.804688 193.394531 97.964844 193.378906 97.855469 C 193.226562 96.917969 192.824219 95.03125 191.757812 94.757812 C 188.867188 94.019531 184.359375 97.660156 181.933594 98.886719 C 181.484375 99.117188 179.042969 99.753906 178.890625 100.292969 C 177.972656 103.472656 180.546875 107.347656 178.816406 110.480469 C 176.996094 113.777344 174.101562 116.777344 171.570312 119.523438 C 169.574219 121.6875 167.414062 123.703125 165.207031 125.644531 C 155.960938 133.761719 140.546875 144.605469 128.277344 135.765625 C 126.792969 134.691406 125.472656 133.292969 124.457031 131.773438 C 120.292969 125.554688 120.199219 116.914062 122.097656 109.90625 C 122.738281 107.535156 123.609375 105.222656 124.875 103.117188 C 124.964844 102.96875 126.085938 101.144531 126.359375 101.421875 C 126.609375 101.671875 126.390625 102.707031 126.367188 103.003906 C 126.222656 104.851562 125.980469 106.6875 125.851562 108.535156 C 125.472656 113.941406 125.605469 119.65625 128.605469 124.390625 C 132.40625 130.390625 140.480469 131.617188 147 130.175781 C 151.957031 129.082031 155.945312 126.132812 159.949219 123.167969 C 165.898438 118.761719 172.183594 113.660156 176.378906 107.460938 C 176.296875 107.390625 176.527344 106.140625 176.535156 106.007812 C 176.582031 105.132812 176.632812 101.710938 175.332031 101.402344 C 174.921875 101.304688 174.148438 101.804688 173.785156 101.941406 C 172.789062 102.324219 171.75 102.609375 170.710938 102.855469 C 165.5625 104.082031 158.511719 104.851562 155.804688 99.050781 C 152.769531 92.542969 158.320312 81.898438 165.753906 81.574219 C 171.894531 81.308594 177.292969 87.257812 179.132812 92.757812 C 179.132812 92.757812 179.132812 92.761719 179.132812 92.761719 L 179.132812 92.757812 C 179.121094 92.691406 179.835938 92.34375 179.917969 92.300781 C 180.828125 91.785156 181.707031 91.222656 182.617188 90.695312 C 185.023438 89.296875 187.535156 88.078125 190.152344 87.132812 C 191.550781 86.632812 193.152344 86.0625 194.652344 86.351562 C 197.71875 86.933594 197.324219 90.964844 196.789062 93.214844 C 196.414062 94.78125 194.367188 97.632812 193.488281 99.046875 C 193.472656 99.082031 193.460938 99.101562 193.445312 99.109375 C 193.457031 99.089844 193.472656 99.070312 193.488281 99.046875 Z M 171.148438 94.515625 C 171.144531 94.605469 169.847656 95.1875 169.777344 95.203125 C 168.9375 95.429688 168.074219 95.558594 167.210938 95.671875 C 166.207031 95.800781 165.171875 95.847656 164.171875 95.621094 C 163.222656 95.410156 162.242188 94.972656 161.644531 94.175781 C 160.640625 92.835938 161.292969 91.007812 162.796875 90.386719 C 164.230469 89.792969 165.84375 90.34375 167.136719 91.023438 C 168.234375 91.601562 170.308594 93.605469 171.148438 94.515625 Z M 171.148438 94.515625 " fill-opacity="1" fill-rule="evenodd"/></svg>