<svg xmlns="http://www.w3.org/2000/svg" xmlns:xlink="http://www.w3.org/1999/xlink" width="500" zoomAndPan="magnify" viewBox="0 0 375 149.999998" height="200" preserveAspectRatio="xMidYMid meet" version="1.0"><defs><clipPath id="833742e08b"><path d="M 196 77 L 248 77 L 248 128.578125 L 196 128.578125 Z M 196 77 " clip-rule="nonzero"/></clipPath><clipPath id="cb1a994c94"><path d="M 72 21.328125 L 186 21.328125 L 186 125 L 72 125 Z M 72 21.328125 " clip-rule="nonzero"/></clipPath></defs><path fill="#000000" d="M 306.195312 33.734375 C 306.917969 33.46875 308.398438 33.933594 309.101562 34.070312 C 312.128906 34.667969 315.058594 35.742188 317.855469 36.996094 C 328.277344 41.652344 335.832031 50.386719 340.5 60.363281 C 341.671875 62.855469 342.636719 65.476562 343.234375 68.152344 C 343.394531 68.871094 343.875 70.1875 343.542969 70.933594 C 343.246094 71.574219 342.488281 72.074219 341.972656 72.535156 C 340.867188 73.523438 339.847656 74.394531 338.585938 75.140625 C 336.957031 73.6875 334.671875 72.652344 332.824219 71.4375 C 332.261719 67.113281 330.34375 62.796875 328.371094 58.9375 C 325.007812 52.382812 320.554688 46.371094 315.148438 41.253906 C 312.691406 38.941406 309.214844 35.332031 306.195312 33.734375 Z M 306.195312 33.734375 " fill-opacity="1" fill-rule="evenodd"/><path fill="#000000" d="M 306.195312 125.566406 C 306.917969 125.832031 308.398438 125.363281 309.101562 125.226562 C 312.128906 124.628906 315.058594 123.554688 317.855469 122.300781 C 328.277344 117.648438 335.832031 108.910156 340.5 98.933594 C 341.671875 96.445312 342.636719 93.820312 343.234375 91.148438 C 343.394531 90.425781 343.875 89.109375 343.542969 88.367188 C 343.246094 87.726562 342.488281 87.226562 341.972656 86.765625 C 340.867188 85.773438 339.847656 84.902344 338.585938 84.160156 C 336.957031 85.613281 334.671875 86.648438 332.824219 87.859375 C 332.261719 92.183594 330.34375 96.503906 328.371094 100.359375 C 325.007812 106.914062 320.554688 112.925781 315.148438 118.046875 C 312.691406 120.359375 309.214844 123.964844 306.195312 125.566406 Z M 306.195312 125.566406 " fill-opacity="1" fill-rule="evenodd"/><path fill="#000000" d="M 351.820312 73.898438 C 351.53125 74.046875 351.265625 74.183594 351.199219 74.230469 C 349.546875 75.480469 347.917969 76.648438 346.066406 77.640625 C 345.4375 77.980469 344.78125 78.261719 344.140625 78.574219 C 344.035156 78.628906 343.75 78.757812 343.601562 78.90625 C 343.394531 79.105469 343.335938 79.339844 343.394531 79.570312 C 343.453125 79.800781 343.625 79.996094 343.921875 80.085938 C 344.152344 80.152344 344.519531 80.140625 344.632812 80.140625 C 344.816406 80.144531 345.378906 80.347656 346.113281 80.632812 C 348.054688 81.367188 351.09375 82.703125 352.496094 83.464844 C 352.65625 83.550781 353.136719 83.871094 353.550781 84.148438 C 353.300781 84.308594 353.035156 84.460938 352.898438 84.511719 C 351.507812 85.027344 349.867188 85.554688 348.972656 86.785156 C 348.640625 87.242188 348.535156 87.773438 348.535156 88.335938 C 348.546875 89 348.742188 89.710938 348.765625 90.316406 C 348.824219 91.941406 348.523438 93.359375 347.539062 94.707031 C 346.769531 95.773438 345.816406 96.777344 344.632812 97.417969 C 344.4375 97.523438 342.785156 98.304688 342.785156 98.304688 C 342.554688 98.414062 342.429688 98.660156 342.476562 98.90625 C 342.523438 99.152344 342.738281 99.335938 342.992188 99.355469 C 342.992188 99.355469 345.527344 99.527344 346.285156 99.429688 C 350.1875 98.941406 352.5625 96.535156 354.273438 93.3125 C 354.527344 92.84375 354.710938 92.253906 354.90625 91.679688 C 355.078125 91.203125 355.25 90.730469 355.535156 90.402344 C 355.8125 90.089844 356.214844 89.875 356.628906 89.671875 C 357.144531 89.417969 357.671875 89.183594 358.085938 88.878906 C 359.359375 87.957031 360.253906 86.792969 361.082031 85.488281 C 361.402344 84.980469 361.699219 84.457031 361.988281 83.933594 C 362.136719 83.683594 363.007812 82.117188 363.007812 82.117188 C 363.15625 81.851562 363.054688 81.515625 362.777344 81.367188 C 362.777344 81.367188 361.894531 80.90625 361.734375 80.824219 C 361.160156 80.550781 359.578125 79.859375 358.394531 79.347656 C 358.382812 79.347656 362.941406 77.992188 362.941406 77.992188 C 363.226562 77.902344 363.398438 77.617188 363.328125 77.332031 C 363.328125 77.332031 362.859375 75.40625 361.894531 73.589844 C 361.21875 72.304688 360.289062 71.089844 359.140625 70.546875 C 358.714844 70.34375 358.140625 70.191406 357.601562 70.019531 C 357.167969 69.886719 356.753906 69.753906 356.5 69.53125 C 356.410156 69.449219 356.398438 69.304688 356.375 69.164062 C 356.316406 68.890625 356.28125 68.601562 356.226562 68.390625 C 355.9375 67.371094 355.492188 66.347656 354.929688 65.445312 C 352.585938 61.765625 346.710938 59.042969 342.511719 59.273438 C 342.234375 59.289062 342.003906 59.492188 341.972656 59.753906 C 341.9375 60.019531 342.097656 60.269531 342.359375 60.355469 C 343.714844 60.792969 344.839844 62.058594 345.804688 63.566406 C 347.34375 65.976562 348.410156 69.027344 349.109375 70.78125 C 349.59375 71.992188 350.0625 72.757812 351.1875 73.511719 C 351.394531 73.648438 351.601562 73.78125 351.820312 73.898438 Z M 345.253906 98.351562 C 346.5625 97.632812 347.628906 96.523438 348.480469 95.34375 C 349.613281 93.785156 349.980469 92.152344 349.914062 90.273438 C 349.890625 89.765625 349.753906 89.183594 349.707031 88.613281 C 349.660156 88.1875 349.660156 87.765625 349.914062 87.421875 C 350.683594 86.367188 352.128906 85.988281 353.308594 85.546875 C 353.699219 85.398438 354.882812 84.613281 354.882812 84.613281 C 355.042969 84.511719 355.125 84.339844 355.125 84.160156 C 355.136719 83.980469 355.042969 83.8125 354.894531 83.707031 C 354.894531 83.707031 353.378906 82.667969 353.058594 82.496094 C 351.417969 81.605469 347.59375 79.945312 345.757812 79.316406 C 345.632812 79.273438 345.527344 79.234375 345.414062 79.203125 C 345.828125 79.015625 346.230469 78.824219 346.628906 78.609375 C 348.535156 77.589844 350.199219 76.390625 351.910156 75.101562 C 352.046875 74.996094 353.136719 74.527344 353.390625 74.367188 C 353.5625 74.25 353.621094 74.113281 353.644531 74.054688 C 353.699219 73.910156 353.734375 73.652344 353.460938 73.425781 C 353.367188 73.351562 352.851562 73.148438 352.792969 73.128906 C 352.460938 72.988281 352.140625 72.804688 351.839844 72.601562 C 350.933594 71.992188 350.566406 71.363281 350.175781 70.386719 C 349.464844 68.585938 348.363281 65.457031 346.78125 62.984375 C 346.183594 62.035156 345.496094 61.179688 344.75 60.515625 C 348.238281 61.085938 352.1875 63.257812 353.953125 66.023438 C 354.457031 66.839844 354.859375 67.761719 355.113281 68.683594 C 355.179688 68.921875 355.203125 69.265625 355.285156 69.566406 C 355.363281 69.878906 355.515625 70.152344 355.71875 70.339844 C 356.007812 70.601562 356.445312 70.804688 356.925781 70.972656 C 357.5 71.171875 358.164062 71.320312 358.636719 71.539062 C 359.578125 71.992188 360.3125 73.03125 360.875 74.089844 C 361.480469 75.242188 361.871094 76.4375 362.066406 77.089844 C 362.066406 77.089844 356.582031 78.722656 356.582031 78.722656 C 356.363281 78.792969 356.203125 78.988281 356.179688 79.21875 C 356.167969 79.453125 356.304688 79.667969 356.523438 79.757812 C 356.523438 79.757812 360.289062 81.363281 361.21875 81.816406 C 361.289062 81.851562 361.503906 81.964844 361.722656 82.078125 C 361.460938 82.558594 361.082031 83.242188 360.988281 83.398438 C 360.703125 83.910156 360.414062 84.414062 360.09375 84.910156 C 359.347656 86.089844 358.554688 87.15625 357.394531 87.992188 C 357.027344 88.257812 356.558594 88.460938 356.097656 88.6875 C 355.546875 88.960938 355.03125 89.265625 354.664062 89.6875 C 354.285156 90.113281 354.035156 90.707031 353.828125 91.324219 C 353.644531 91.84375 353.484375 92.382812 353.265625 92.804688 C 351.726562 95.691406 349.636719 97.894531 346.148438 98.328125 C 345.941406 98.355469 345.621094 98.359375 345.253906 98.351562 Z M 345.253906 98.351562 " fill-opacity="1" fill-rule="evenodd"/><path fill="#000000" d="M 338.929688 84.347656 C 339.066406 84.25 339.894531 83.664062 339.984375 83.589844 C 341.257812 82.59375 343.691406 80.28125 344.851562 79.164062 C 344.964844 79.0625 345.023438 78.929688 345.023438 78.785156 C 345.023438 78.664062 344.988281 78.5 344.851562 78.34375 C 344.75 78.234375 344.496094 78.078125 344.4375 78.039062 C 344.035156 77.753906 343.648438 77.46875 343.246094 77.1875 C 341.71875 76.089844 340.214844 74.875 338.5625 73.941406 C 338.320312 73.800781 338 73.859375 337.828125 74.078125 C 337.367188 74.644531 336.175781 75.203125 335.542969 75.621094 C 333.8125 76.777344 332.007812 77.839844 330.253906 78.957031 C 330 79.019531 329.898438 79.25 329.886719 79.296875 C 329.839844 79.414062 329.769531 79.664062 330.023438 79.902344 C 330.058594 79.929688 330.285156 80.050781 330.367188 80.105469 C 330.539062 80.21875 330.710938 80.328125 330.882812 80.441406 C 331.480469 80.835938 332.101562 81.199219 332.71875 81.558594 C 334.511719 82.601562 336.289062 83.6875 338.160156 84.582031 C 338.34375 84.671875 338.5625 84.65625 338.734375 84.550781 C 338.816406 84.496094 338.882812 84.429688 338.929688 84.347656 Z M 343.589844 78.816406 C 342.351562 79.996094 340.363281 81.867188 339.261719 82.730469 C 339.171875 82.796875 338.632812 83.144531 338.296875 83.40625 C 336.589844 82.5625 334.957031 81.566406 333.304688 80.609375 C 332.707031 80.257812 332.113281 79.90625 331.527344 79.523438 L 331.492188 79.5 C 333.066406 78.515625 334.648438 77.5625 336.199219 76.535156 C 336.773438 76.152344 337.746094 75.640625 338.367188 75.121094 C 339.835938 76 341.179688 77.089844 342.566406 78.078125 C 342.910156 78.324219 343.257812 78.570312 343.589844 78.816406 Z M 330.332031 80.042969 Z M 330.332031 80.042969 " fill-opacity="1" fill-rule="evenodd"/><path fill="#000000" d="M 362.894531 77.402344 L 374.589844 79.890625 L 362.894531 81.785156 L 357.992188 79.363281 Z M 362.894531 77.402344 " fill-opacity="1" fill-rule="evenodd"/><path fill="#000000" d="M 68.742188 29.007812 C 68.019531 28.746094 66.539062 29.210938 65.835938 29.347656 C 62.808594 29.945312 59.882812 31.019531 57.082031 32.273438 C 46.660156 36.929688 39.105469 45.664062 34.4375 55.640625 C 33.265625 58.132812 32.300781 60.753906 31.703125 63.429688 C 31.542969 64.148438 31.0625 65.464844 31.394531 66.210938 C 31.691406 66.847656 32.449219 67.347656 32.96875 67.8125 C 34.070312 68.800781 35.089844 69.671875 36.351562 70.417969 C 37.980469 68.964844 40.265625 67.929688 42.113281 66.714844 C 42.675781 62.390625 44.59375 58.074219 46.566406 54.214844 C 49.929688 47.660156 54.382812 41.648438 59.789062 36.53125 C 62.246094 34.21875 65.722656 30.609375 68.742188 29.007812 Z M 68.742188 29.007812 " fill-opacity="1" fill-rule="evenodd"/><path fill="#000000" d="M 68.742188 120.84375 C 68.019531 121.109375 66.539062 120.640625 65.835938 120.503906 C 62.808594 119.90625 59.882812 118.832031 57.082031 117.578125 C 46.660156 112.925781 39.105469 104.1875 34.4375 94.210938 C 33.265625 91.722656 32.300781 89.097656 31.703125 86.425781 C 31.542969 85.703125 31.0625 84.386719 31.394531 83.644531 C 31.691406 83.003906 32.449219 82.503906 32.96875 82.042969 C 34.070312 81.050781 35.089844 80.179688 36.351562 79.4375 C 37.980469 80.890625 40.265625 81.925781 42.113281 83.136719 C 42.675781 87.460938 44.59375 91.777344 46.566406 95.636719 C 49.929688 102.191406 54.382812 108.203125 59.789062 113.320312 C 62.246094 115.636719 65.722656 119.242188 68.742188 120.84375 Z M 68.742188 120.84375 " fill-opacity="1" fill-rule="evenodd"/><path fill="#000000" d="M 23.121094 69.175781 C 23.40625 69.324219 23.671875 69.460938 23.738281 69.507812 C 25.390625 70.757812 27.023438 71.925781 28.871094 72.917969 C 29.5 73.253906 30.15625 73.539062 30.796875 73.851562 C 30.902344 73.90625 31.1875 74.035156 31.335938 74.179688 C 31.542969 74.382812 31.601562 74.617188 31.542969 74.847656 C 31.484375 75.078125 31.3125 75.273438 31.015625 75.363281 C 30.785156 75.429688 30.417969 75.414062 30.304688 75.417969 C 30.121094 75.421875 29.558594 75.625 28.824219 75.910156 C 26.882812 76.644531 23.84375 77.980469 22.441406 78.742188 C 22.28125 78.828125 21.800781 79.148438 21.386719 79.425781 C 21.640625 79.585938 21.902344 79.734375 22.039062 79.789062 C 23.429688 80.304688 25.070312 80.832031 25.964844 82.0625 C 26.296875 82.519531 26.402344 83.050781 26.402344 83.613281 C 26.390625 84.277344 26.195312 84.988281 26.171875 85.59375 C 26.113281 87.21875 26.414062 88.636719 27.398438 89.984375 C 28.167969 91.050781 29.121094 92.054688 30.304688 92.695312 C 30.5 92.800781 32.152344 93.578125 32.152344 93.578125 C 32.382812 93.691406 32.507812 93.9375 32.460938 94.183594 C 32.414062 94.429688 32.199219 94.613281 31.945312 94.632812 C 31.945312 94.632812 29.410156 94.804688 28.652344 94.707031 C 24.75 94.21875 22.375 91.8125 20.664062 88.589844 C 20.410156 88.121094 20.226562 87.53125 20.03125 86.957031 C 19.859375 86.480469 19.6875 86.007812 19.402344 85.679688 C 19.125 85.363281 18.722656 85.152344 18.308594 84.949219 C 17.792969 84.695312 17.265625 84.460938 16.851562 84.15625 C 15.578125 83.234375 14.683594 82.070312 13.855469 80.765625 C 13.535156 80.257812 13.238281 79.734375 12.949219 79.210938 C 12.800781 78.957031 11.929688 77.394531 11.929688 77.394531 C 11.78125 77.125 11.882812 76.792969 12.160156 76.644531 C 12.160156 76.644531 13.042969 76.183594 13.203125 76.101562 C 13.777344 75.828125 15.359375 75.136719 16.542969 74.625 C 16.554688 74.621094 11.996094 73.269531 11.996094 73.269531 C 11.710938 73.179688 11.539062 72.894531 11.609375 72.609375 C 11.609375 72.609375 12.078125 70.683594 13.042969 68.867188 C 13.71875 67.582031 14.648438 66.367188 15.796875 65.824219 C 16.222656 65.621094 16.796875 65.46875 17.335938 65.296875 C 17.769531 65.164062 18.183594 65.03125 18.4375 64.808594 C 18.527344 64.726562 18.539062 64.582031 18.5625 64.441406 C 18.621094 64.167969 18.65625 63.878906 18.710938 63.667969 C 19 62.648438 19.445312 61.625 20.007812 60.722656 C 22.351562 57.042969 28.226562 54.320312 32.425781 54.550781 C 32.703125 54.566406 32.933594 54.769531 32.96875 55.03125 C 33 55.296875 32.839844 55.546875 32.578125 55.632812 C 31.222656 56.070312 30.097656 57.335938 29.132812 58.84375 C 27.59375 61.253906 26.527344 64.304688 25.828125 66.058594 C 25.347656 67.265625 24.875 68.035156 23.75 68.789062 C 23.542969 68.925781 23.335938 69.058594 23.121094 69.175781 Z M 29.683594 93.628906 C 28.375 92.90625 27.308594 91.800781 26.460938 90.621094 C 25.324219 89.0625 24.957031 87.429688 25.023438 85.550781 C 25.046875 85.042969 25.183594 84.460938 25.230469 83.890625 C 25.277344 83.464844 25.277344 83.042969 25.023438 82.699219 C 24.253906 81.644531 22.808594 81.265625 21.628906 80.824219 C 21.238281 80.675781 20.054688 79.890625 20.054688 79.890625 C 19.894531 79.789062 19.8125 79.617188 19.8125 79.4375 C 19.800781 79.257812 19.894531 79.089844 20.042969 78.984375 C 20.042969 78.984375 21.558594 77.945312 21.878906 77.773438 C 23.519531 76.882812 27.34375 75.222656 29.179688 74.59375 C 29.304688 74.550781 29.410156 74.511719 29.523438 74.480469 C 29.109375 74.292969 28.707031 74.097656 28.308594 73.886719 C 26.402344 72.867188 24.738281 71.667969 23.027344 70.378906 C 22.890625 70.273438 21.800781 69.804688 21.546875 69.644531 C 21.375 69.523438 21.316406 69.390625 21.292969 69.328125 C 21.238281 69.1875 21.203125 68.925781 21.476562 68.703125 C 21.570312 68.628906 22.085938 68.425781 22.144531 68.40625 C 22.476562 68.265625 22.796875 68.082031 23.097656 67.878906 C 24.003906 67.269531 24.371094 66.640625 24.761719 65.664062 C 25.472656 63.863281 26.574219 60.734375 28.15625 58.261719 C 28.753906 57.308594 29.441406 56.457031 30.1875 55.792969 C 26.699219 56.363281 22.753906 58.535156 20.984375 61.300781 C 20.480469 62.117188 20.078125 63.039062 19.824219 63.960938 C 19.757812 64.199219 19.734375 64.542969 19.652344 64.84375 C 19.574219 65.15625 19.421875 65.429688 19.21875 65.617188 C 18.929688 65.878906 18.492188 66.082031 18.011719 66.25 C 17.4375 66.449219 16.773438 66.59375 16.300781 66.816406 C 15.359375 67.269531 14.625 68.308594 14.0625 69.367188 C 13.457031 70.519531 13.066406 71.714844 12.871094 72.363281 C 12.871094 72.363281 18.355469 74 18.355469 74 C 18.574219 74.070312 18.734375 74.265625 18.757812 74.496094 C 18.769531 74.726562 18.632812 74.945312 18.414062 75.035156 C 18.414062 75.035156 14.648438 76.640625 13.71875 77.09375 C 13.652344 77.128906 13.433594 77.242188 13.214844 77.355469 C 13.476562 77.835938 13.855469 78.519531 13.949219 78.675781 C 14.234375 79.1875 14.523438 79.691406 14.84375 80.1875 C 15.589844 81.367188 16.382812 82.433594 17.542969 83.269531 C 17.910156 83.535156 18.378906 83.738281 18.839844 83.964844 C 19.390625 84.238281 19.90625 84.542969 20.273438 84.964844 C 20.652344 85.390625 20.902344 85.984375 21.109375 86.601562 C 21.292969 87.121094 21.457031 87.660156 21.671875 88.082031 C 23.210938 90.96875 25.300781 93.171875 28.789062 93.605469 C 28.996094 93.632812 29.316406 93.636719 29.683594 93.628906 Z M 29.683594 93.628906 " fill-opacity="1" fill-rule="evenodd"/><path fill="#000000" d="M 36.007812 79.625 C 35.871094 79.527344 35.042969 78.941406 34.953125 78.867188 C 33.679688 77.871094 31.246094 75.558594 30.085938 74.441406 C 29.972656 74.339844 29.914062 74.203125 29.914062 74.0625 C 29.914062 73.941406 29.949219 73.777344 30.085938 73.621094 C 30.1875 73.511719 30.441406 73.355469 30.5 73.316406 C 30.902344 73.03125 31.292969 72.746094 31.691406 72.464844 C 33.21875 71.367188 34.722656 70.152344 36.375 69.21875 C 36.617188 69.074219 36.9375 69.136719 37.109375 69.355469 C 37.570312 69.921875 38.761719 70.480469 39.394531 70.898438 C 41.128906 72.054688 42.929688 73.117188 44.683594 74.234375 C 44.9375 74.292969 45.039062 74.527344 45.050781 74.574219 C 45.097656 74.691406 45.167969 74.941406 44.914062 75.179688 C 44.878906 75.207031 44.652344 75.328125 44.570312 75.382812 C 44.398438 75.496094 44.226562 75.605469 44.054688 75.71875 C 43.457031 76.109375 42.835938 76.476562 42.21875 76.835938 C 40.425781 77.878906 38.648438 78.964844 36.777344 79.859375 C 36.59375 79.949219 36.375 79.933594 36.203125 79.824219 C 36.125 79.773438 36.054688 79.707031 36.007812 79.625 Z M 31.347656 74.089844 C 32.589844 75.273438 34.574219 77.144531 35.675781 78.007812 C 35.765625 78.074219 36.308594 78.417969 36.640625 78.683594 C 38.351562 77.839844 39.980469 76.84375 41.632812 75.886719 C 42.230469 75.535156 42.824219 75.183594 43.410156 74.800781 L 43.445312 74.777344 C 41.875 73.792969 40.289062 72.839844 38.738281 71.8125 C 38.167969 71.429688 37.191406 70.917969 36.570312 70.398438 C 35.101562 71.277344 33.757812 72.367188 32.371094 73.355469 C 32.027344 73.601562 31.679688 73.84375 31.347656 74.089844 Z M 44.605469 75.320312 Z M 44.605469 75.320312 " fill-opacity="1" fill-rule="evenodd"/><path fill="#000000" d="M 12.042969 72.679688 L 0.347656 75.167969 L 12.042969 77.0625 L 16.945312 74.636719 Z M 12.042969 72.679688 " fill-opacity="1" fill-rule="evenodd"/><path fill="#000000" d="M 165.039062 37.90625 C 164.660156 37.980469 164.253906 38.585938 164.144531 38.722656 C 163.949219 38.96875 163.757812 39.21875 163.566406 39.472656 C 162.886719 40.390625 162.402344 41.09375 162.730469 42.203125 C 163.382812 44.414062 164.527344 46.460938 165.238281 48.640625 C 165.589844 49.722656 165.199219 50.726562 163.792969 50.78125 C 161.039062 50.882812 160.433594 47.066406 160.101562 45.351562 C 160.007812 44.863281 159.910156 44.375 159.800781 43.890625 C 159.652344 43.222656 159.476562 42.566406 159.261719 41.914062 C 158.988281 41.09375 158.707031 40.273438 158.328125 39.484375 C 158.28125 39.386719 158.046875 38.75 157.882812 38.769531 C 157.476562 38.824219 156.921875 40.136719 156.75 40.429688 C 156.535156 40.800781 156.179688 41.234375 156.15625 41.667969 C 156.105469 42.464844 157.03125 43.433594 157.316406 44.171875 C 157.730469 45.246094 157.789062 46.40625 157.761719 47.535156 C 157.832031 47.554688 157.730469 47.90625 157.722656 47.9375 C 157.628906 48.367188 157.539062 48.792969 157.382812 49.207031 C 156.789062 50.757812 153.941406 52.089844 152.746094 50.238281 C 152.265625 49.492188 152.378906 48.496094 152.414062 47.675781 C 152.492188 45.894531 152.894531 44.105469 152.691406 42.324219 C 152.617188 41.679688 152.453125 40.988281 152.078125 40.425781 C 152.039062 40.363281 151.6875 39.859375 151.550781 39.964844 C 151.191406 40.238281 151.015625 40.914062 150.824219 41.28125 C 150.660156 41.605469 150.5 41.933594 150.339844 42.261719 C 150.148438 42.644531 149.972656 43.035156 149.777344 43.414062 C 149.742188 43.480469 149.523438 43.757812 149.546875 43.839844 C 149.582031 43.996094 149.984375 44.207031 150.097656 44.332031 C 150.429688 44.703125 150.574219 45.082031 150.609375 45.558594 C 150.714844 47.089844 150.304688 48.652344 150.246094 50.179688 C 150.199219 51.527344 150.054688 53.242188 151.117188 54.335938 C 152.304688 55.566406 154.347656 55.644531 155.722656 54.652344 C 157.402344 53.4375 158.519531 51.46875 158.648438 49.539062 C 159.019531 52.03125 161.949219 55.882812 165.125 53.898438 C 165.492188 53.664062 165.816406 53.402344 166.097656 53.085938 C 166.492188 52.636719 166.785156 52.09375 166.976562 51.550781 C 167.625 49.691406 167.667969 47.621094 167.113281 45.746094 C 166.421875 43.421875 165.050781 40.355469 165.039062 37.90625 Z M 165.039062 37.90625 " fill-opacity="1" fill-rule="evenodd"/><path fill="#000000" d="M 287.394531 76.46875 C 287.417969 76.453125 287.425781 76.429688 287.40625 76.402344 C 287.394531 76.425781 287.394531 76.445312 287.394531 76.46875 C 287.316406 76.511719 287.074219 76.515625 286.972656 76.566406 C 286.652344 76.726562 286.339844 76.898438 286.03125 77.074219 C 285.078125 77.597656 284.210938 78.210938 283.359375 78.867188 C 280.984375 80.691406 278.277344 83.621094 275.019531 83.582031 C 275.0625 83.40625 274.664062 82.9375 274.585938 82.816406 C 274.085938 82.007812 273.554688 81.230469 273.042969 80.429688 C 271.015625 77.203125 267.632812 72.628906 263.351562 75.449219 C 259.96875 77.679688 257.175781 82.023438 256.566406 86.023438 C 256.066406 89.261719 257.519531 92.367188 260.835938 93.332031 C 264.640625 94.441406 269.539062 92.183594 272.777344 90.28125 C 272.800781 90.265625 273.023438 90.667969 273.042969 90.71875 C 273.199219 91.007812 273.332031 91.300781 273.476562 91.589844 C 273.875 92.453125 274.277344 93.410156 274.230469 94.378906 C 274.207031 94.390625 273.953125 94.628906 273.898438 94.683594 C 273.710938 94.878906 273.511719 95.0625 273.3125 95.25 C 272.632812 95.871094 271.957031 96.480469 271.304688 97.117188 C 269.453125 98.894531 267.511719 100.554688 265.527344 102.183594 C 259.871094 106.839844 252.429688 113.367188 244.601562 113.285156 C 236.238281 113.195312 230.429688 106.195312 231.25 98.019531 C 231.480469 95.753906 231.925781 93.523438 232.511719 91.324219 C 232.613281 90.917969 233.222656 89.386719 232.933594 88.992188 C 232.679688 88.636719 231.683594 90.207031 231.605469 90.324219 C 230.59375 91.980469 229.984375 93.78125 229.597656 95.679688 C 228.597656 100.492188 228.730469 105.949219 230.792969 110.480469 C 234.433594 118.464844 244.167969 121.324219 252.007812 118.203125 C 256.066406 116.59375 259.636719 113.839844 263.042969 111.15625 C 266.226562 108.644531 269.496094 106.035156 271.925781 102.742188 C 273.246094 100.960938 275.171875 98.675781 275.726562 96.476562 C 276.359375 94.003906 276.195312 91.351562 275.851562 88.945312 C 275.839844 88.886719 276.328125 88.699219 276.382812 88.675781 C 276.902344 88.414062 277.4375 88.15625 277.957031 87.894531 C 279.976562 86.894531 282.082031 85.929688 283.789062 84.4375 C 283.910156 84.332031 283.8125 84.765625 283.84375 84.929688 C 283.902344 85.207031 284 85.476562 284.101562 85.746094 C 284.398438 86.53125 284.722656 87.304688 285.085938 88.058594 C 286.230469 90.394531 288.292969 92.234375 290.820312 92.90625 C 291.917969 93.199219 293.09375 93.394531 294.234375 93.296875 C 298.980469 92.894531 301.722656 88.109375 303.117188 84.054688 C 303.117188 84.046875 303.128906 84.046875 303.128906 84.046875 L 303.117188 84.054688 C 303.128906 84.15625 303.617188 85.28125 303.683594 85.402344 C 304.207031 86.308594 304.835938 87.183594 305.558594 87.945312 C 307.796875 90.332031 311.492188 91 314.472656 89.699219 C 316.457031 88.832031 317.578125 87.203125 318.445312 85.285156 C 320.21875 81.351562 319.375 75.386719 317.910156 71.382812 C 317.957031 71.183594 317.679688 71.71875 317.546875 71.875 C 317.246094 72.234375 316.914062 72.578125 316.613281 72.933594 C 315.703125 73.992188 314.628906 75.019531 313.863281 76.195312 C 313.796875 76.289062 315.140625 77.898438 315.25 78.152344 C 316.269531 80.386719 314.507812 82.660156 312.191406 82.785156 C 308.773438 82.972656 306.84375 80.007812 306.457031 76.96875 C 306.324219 75.921875 306.34375 74.859375 306.15625 73.820312 C 306.101562 73.484375 305.933594 72.921875 305.503906 72.933594 C 305.027344 72.949219 304.726562 73.625 304.558594 73.992188 C 304.027344 75.203125 303.972656 76.558594 303.652344 77.828125 C 303.316406 79.109375 302.597656 80.222656 301.886719 81.328125 C 300.578125 83.394531 299.003906 85.96875 296.574219 86.835938 C 293.671875 87.867188 289.921875 86.039062 288.449219 83.449219 C 287.382812 81.566406 287.074219 78.621094 287.394531 76.46875 Z M 274.230469 94.378906 Z M 260.847656 85.140625 C 260.945312 83.855469 261.65625 82.582031 262.542969 81.65625 C 262.976562 81.210938 263.519531 80.730469 264.195312 80.847656 C 265.515625 81.082031 266.835938 82.164062 267.699219 83.132812 C 267.878906 83.335938 268.476562 83.894531 268.386719 84.21875 C 268.289062 84.535156 267.808594 84.722656 267.542969 84.839844 C 266.710938 85.203125 265.792969 85.421875 264.90625 85.550781 C 263.953125 85.6875 261.355469 85.738281 260.847656 85.140625 Z M 260.847656 85.140625 " fill-opacity="1" fill-rule="evenodd"/><g clip-path="url(#833742e08b)"><path fill="#000000" d="M 238.375 77.53125 C 238.304688 77.609375 238.273438 77.871094 238.242188 77.976562 C 238.132812 78.359375 238.027344 78.746094 237.921875 79.128906 C 237.570312 80.464844 237.199219 81.792969 236.84375 83.125 C 236.730469 83.542969 236.613281 83.960938 236.5 84.378906 C 236.464844 84.5 236.34375 84.757812 236.382812 84.886719 C 236.421875 85.007812 236.734375 85.132812 236.832031 85.199219 C 237.15625 85.414062 237.46875 85.667969 237.734375 85.949219 C 237.730469 85.917969 237.824219 86.101562 237.832031 86.121094 C 237.890625 86.261719 237.953125 86.402344 238.015625 86.542969 C 238.191406 86.960938 238.339844 87.398438 238.503906 87.824219 C 239 89.109375 239.496094 90.390625 240.035156 91.660156 C 241.027344 93.996094 242.179688 96.28125 243.386719 98.515625 C 243.898438 99.457031 244.390625 100.398438 244.867188 101.355469 C 245.082031 101.789062 245.367188 102.226562 245.511719 102.691406 C 245.730469 103.394531 243.976562 104.382812 243.476562 104.902344 C 241.550781 106.886719 239.464844 108.707031 237.28125 110.410156 C 228.738281 117.089844 217.101562 123.714844 205.96875 119.109375 C 206.082031 119.214844 205.695312 118.960938 205.566406 118.875 C 205.296875 118.691406 205.039062 118.492188 204.789062 118.285156 C 203.996094 117.625 203.292969 116.90625 202.691406 116.070312 C 200.90625 113.585938 200.148438 110.664062 200.023438 107.65625 C 199.847656 103.351562 200.601562 99.179688 201.960938 95.101562 C 202.105469 94.664062 202.253906 94.226562 202.40625 93.789062 C 202.535156 93.417969 202.667969 93.046875 202.796875 92.675781 C 202.882812 92.425781 202.964844 92.175781 203.042969 91.925781 C 203.109375 91.726562 203.171875 91.523438 203.230469 91.320312 C 203.285156 91.152344 203.335938 90.984375 203.382812 90.8125 C 203.480469 90.460938 204.191406 88.488281 203.234375 88.730469 C 203.300781 88.890625 202.988281 88.988281 202.898438 89.140625 C 202.578125 89.667969 202.300781 90.21875 202.035156 90.773438 C 201.015625 92.921875 200.140625 95.121094 199.410156 97.386719 C 197.277344 104.035156 195.15625 112.285156 198.308594 118.917969 C 198.40625 118.890625 198.378906 119.101562 198.417969 119.195312 C 198.496094 119.394531 198.582031 119.589844 198.667969 119.785156 C 198.929688 120.382812 199.238281 120.957031 199.574219 121.515625 C 200.519531 123.113281 201.9375 124.460938 203.402344 125.601562 C 207.34375 128.664062 212.683594 128.648438 217.441406 128.050781 C 217.4375 128.027344 217.820312 127.941406 217.835938 127.9375 C 218.292969 127.824219 218.746094 127.714844 219.199219 127.582031 C 220.355469 127.25 221.503906 126.867188 222.589844 126.359375 C 225.972656 124.789062 229.40625 123.164062 232.308594 120.835938 C 232.308594 120.839844 236.148438 117.902344 237.238281 117.058594 C 240.542969 114.5 243.871094 111.433594 245.914062 107.773438 C 245.988281 107.644531 246.230469 107.078125 246.28125 106.960938 C 246.632812 106.121094 246.921875 105.25 247.140625 104.367188 C 247.683594 102.226562 247.929688 99.804688 247.480469 97.617188 C 247.191406 96.21875 246.617188 94.925781 246.0625 93.617188 C 246.160156 93.65625 245.984375 93.417969 245.945312 93.316406 C 245.871094 93.140625 245.792969 92.96875 245.714844 92.796875 C 245.449219 92.199219 245.183594 91.605469 244.914062 91.011719 C 244.140625 89.328125 242.929688 87.65625 242.480469 85.847656 C 242.367188 85.386719 242.84375 85.710938 243.042969 85.828125 C 243.554688 86.128906 244.050781 86.472656 244.59375 86.710938 C 244.765625 86.792969 245.089844 86.917969 245.148438 86.640625 C 245.304688 85.9375 244.542969 84.941406 244.195312 84.40625 C 243.078125 82.675781 240.601562 79.894531 238.375 77.53125 Z M 238.375 77.53125 " fill-opacity="1" fill-rule="evenodd"/></g><path fill="#000000" d="M 217.289062 58.558594 C 217.300781 58.277344 217.820312 58.753906 218.097656 58.832031 C 218.785156 59.039062 219.496094 59.21875 220.203125 59.367188 C 220.261719 59.378906 220.859375 59.535156 220.859375 59.433594 C 220.835938 58.835938 219.316406 57.824219 218.929688 57.472656 C 217.109375 55.792969 215.292969 54.109375 213.394531 52.519531 C 213.039062 52.222656 211.65625 50.757812 211.109375 50.953125 C 210.734375 51.085938 210.511719 51.710938 210.355469 52.03125 C 209.902344 53.011719 209.480469 54.003906 209.046875 54.992188 C 208.925781 55.265625 208.515625 55.90625 208.660156 56.234375 C 208.816406 56.570312 209.28125 56.480469 209.558594 56.644531 C 209.9375 56.871094 210.191406 57.410156 210.414062 57.765625 C 212.753906 61.371094 215.546875 64.574219 218.207031 67.9375 C 218.195312 67.941406 218.441406 68.1875 218.464844 68.214844 C 218.453125 68.203125 217.609375 69.222656 217.554688 69.292969 C 216.445312 70.613281 215.445312 72.019531 214.492188 73.441406 C 211.808594 77.386719 210.933594 82.890625 212.175781 87.492188 C 212.875 90.09375 214.925781 92.703125 217.851562 92.488281 C 220.105469 92.320312 222.289062 90.554688 223.863281 89.078125 C 227.710938 85.492188 232.257812 80.117188 230.085938 74.496094 C 229.230469 72.308594 227.824219 70.339844 226.292969 68.585938 C 225.828125 68.066406 224.460938 67.101562 224.652344 66.304688 C 224.984375 64.957031 226.28125 63.671875 227.070312 62.589844 C 229.109375 59.808594 232.027344 56.621094 232.914062 53.195312 C 233.222656 51.964844 233.609375 49.4375 232.867188 48.269531 C 232.757812 48.105469 232.402344 48.605469 232.359375 48.667969 C 231.882812 49.261719 231.515625 49.953125 231.117188 50.59375 C 230.117188 52.199219 229.085938 53.785156 228.011719 55.34375 C 227.15625 56.589844 226.269531 57.816406 225.394531 59.050781 C 224.539062 60.253906 223.6875 61.453125 222.820312 62.636719 C 222.65625 62.859375 222.246094 63.640625 221.902344 63.65625 C 221.046875 63.691406 217.832031 59.140625 217.289062 58.558594 Z M 220.957031 71.039062 C 221.101562 70.878906 220.105469 71.902344 219.984375 72.074219 C 219.761719 72.386719 219.527344 72.695312 219.304688 73.007812 C 218.640625 73.925781 218.007812 74.863281 217.386719 75.804688 C 215.648438 78.4375 212.664062 84.277344 217.289062 85.804688 C 220.328125 86.808594 223.277344 83.554688 225.015625 81.511719 C 225.738281 80.683594 226.792969 79.570312 226.792969 78.394531 C 226.800781 77.714844 226.359375 77.050781 226.003906 76.503906 C 224.984375 74.945312 222.398438 72.210938 220.957031 71.039062 Z M 220.957031 71.039062 " fill-opacity="1" fill-rule="evenodd"/><path fill="#000000" d="M 248.664062 35.976562 C 248.6875 36.011719 248.589844 36.160156 248.574219 36.195312 C 248.457031 36.425781 248.332031 36.65625 248.199219 36.882812 C 248.164062 36.9375 248.085938 37.113281 247.988281 37.105469 C 247.84375 37.097656 247.613281 36.882812 247.507812 36.816406 C 247.117188 36.546875 246.71875 36.289062 246.335938 36.011719 C 245.914062 35.707031 245.488281 35.398438 245.050781 35.105469 C 244.796875 34.9375 244.453125 34.785156 244.269531 34.554688 C 244.070312 34.304688 244.078125 33.953125 244.050781 33.667969 C 243.988281 32.976562 243.972656 32.261719 244.195312 31.585938 C 244.402344 30.960938 244.792969 30.128906 245.65625 30 C 246.566406 29.867188 247.515625 30.535156 248.214844 30.933594 C 249.628906 31.734375 250.523438 32.839844 251.316406 34.09375 C 252.023438 35.210938 252.585938 36.371094 252.9375 37.609375 C 253.15625 38.355469 253.285156 39.136719 253.542969 39.875 C 253.65625 40.191406 253.796875 40.589844 254.152344 40.777344 C 254.148438 40.824219 254.179688 40.679688 254.1875 40.628906 C 254.207031 40.53125 254.222656 40.433594 254.238281 40.335938 C 254.289062 40.050781 254.324219 39.765625 254.367188 39.480469 C 254.492188 38.597656 254.648438 37.722656 254.878906 36.851562 C 255.488281 34.546875 256.371094 32.074219 257.941406 30.09375 C 258.640625 29.207031 259.722656 28.238281 261.128906 28.695312 C 262.101562 29.015625 262.769531 29.953125 263.226562 30.695312 C 263.378906 30.9375 263.644531 31.308594 263.628906 31.59375 C 263.601562 32.15625 263.117188 32.800781 262.867188 33.308594 C 262.691406 33.660156 262.523438 34.023438 262.3125 34.367188 C 262.242188 34.484375 262.152344 34.679688 262 34.742188 C 261.722656 34.859375 261.382812 34.160156 261.304688 34.039062 C 260.894531 33.394531 260.277344 32.382812 259.25 32.429688 C 258.175781 32.484375 257.703125 33.632812 257.371094 34.324219 C 256.390625 36.394531 255.851562 38.523438 255.292969 40.691406 C 255.277344 40.691406 255.195312 41.007812 255.1875 41.03125 C 255.050781 41.421875 254.914062 41.8125 254.789062 42.203125 C 254.421875 43.355469 254.1875 44.570312 253.65625 45.679688 C 253.578125 45.847656 253.226562 46.683594 252.835938 46.484375 C 252.644531 46.382812 252.609375 46.078125 252.582031 45.914062 C 252.492188 45.421875 252.386719 44.9375 252.265625 44.453125 C 252.121094 43.886719 251.980469 43.324219 251.847656 42.757812 C 251.648438 41.894531 251.421875 41.03125 251.101562 40.191406 C 250.671875 39.0625 249.628906 36.5 248.664062 35.976562 Z M 248.664062 35.976562 " fill-opacity="1" fill-rule="evenodd"/><path fill="#000000" d="M 92.605469 69.539062 C 92.628906 69.574219 92.53125 69.722656 92.515625 69.757812 C 92.398438 69.988281 92.273438 70.21875 92.140625 70.445312 C 92.105469 70.5 92.027344 70.675781 91.929688 70.667969 C 91.785156 70.65625 91.554688 70.445312 91.449219 70.375 C 91.058594 70.109375 90.660156 69.851562 90.277344 69.574219 C 89.855469 69.265625 89.429688 68.960938 88.992188 68.667969 C 88.738281 68.5 88.394531 68.347656 88.210938 68.117188 C 88.011719 67.867188 88.019531 67.515625 87.992188 67.230469 C 87.929688 66.539062 87.914062 65.824219 88.136719 65.148438 C 88.34375 64.523438 88.734375 63.6875 89.597656 63.5625 C 90.507812 63.429688 91.457031 64.097656 92.15625 64.492188 C 93.570312 65.296875 94.464844 66.402344 95.257812 67.652344 C 95.964844 68.773438 96.527344 69.933594 96.878906 71.167969 C 97.09375 71.917969 97.226562 72.695312 97.484375 73.4375 C 97.59375 73.75 97.738281 74.152344 98.09375 74.339844 C 98.089844 74.386719 98.121094 74.242188 98.128906 74.191406 C 98.148438 74.09375 98.164062 73.996094 98.179688 73.898438 C 98.230469 73.613281 98.265625 73.328125 98.308594 73.042969 C 98.433594 72.160156 98.589844 71.285156 98.820312 70.414062 C 99.429688 68.109375 100.3125 65.636719 101.882812 63.65625 C 102.582031 62.769531 103.664062 61.800781 105.070312 62.257812 C 106.042969 62.578125 106.710938 63.511719 107.167969 64.253906 C 107.320312 64.5 107.585938 64.871094 107.570312 65.15625 C 107.542969 65.71875 107.058594 66.363281 106.808594 66.867188 C 106.632812 67.222656 106.464844 67.585938 106.253906 67.925781 C 106.183594 68.042969 106.089844 68.238281 105.941406 68.304688 C 105.664062 68.421875 105.324219 67.71875 105.246094 67.597656 C 104.835938 66.957031 104.21875 65.941406 103.191406 65.992188 C 102.117188 66.046875 101.644531 67.195312 101.3125 67.886719 C 100.332031 69.957031 99.792969 72.085938 99.234375 74.25 C 99.21875 74.253906 99.136719 74.570312 99.128906 74.59375 C 98.992188 74.980469 98.855469 75.371094 98.730469 75.765625 C 98.363281 76.917969 98.128906 78.128906 97.597656 79.238281 C 97.519531 79.410156 97.167969 80.242188 96.777344 80.042969 C 96.585938 79.945312 96.550781 79.640625 96.523438 79.476562 C 96.433594 78.984375 96.328125 78.5 96.207031 78.015625 C 96.0625 77.449219 95.921875 76.886719 95.789062 76.320312 C 95.589844 75.457031 95.363281 74.589844 95.042969 73.753906 C 94.613281 72.625 93.570312 70.0625 92.605469 69.539062 Z M 92.605469 69.539062 " fill-opacity="1" fill-rule="evenodd"/><path fill="#000000" d="M 248.664062 64.597656 C 248.6875 64.632812 248.589844 64.78125 248.574219 64.816406 C 248.457031 65.046875 248.332031 65.277344 248.199219 65.503906 C 248.164062 65.558594 248.085938 65.734375 247.988281 65.726562 C 247.84375 65.714844 247.613281 65.503906 247.507812 65.433594 C 247.117188 65.167969 246.71875 64.910156 246.335938 64.632812 C 245.914062 64.324219 245.488281 64.019531 245.050781 63.726562 C 244.796875 63.558594 244.453125 63.40625 244.269531 63.175781 C 244.070312 62.925781 244.078125 62.574219 244.050781 62.289062 C 243.988281 61.597656 243.972656 60.882812 244.195312 60.207031 C 244.402344 59.582031 244.792969 58.746094 245.65625 58.621094 C 246.566406 58.488281 247.515625 59.15625 248.214844 59.550781 C 249.628906 60.355469 250.523438 61.460938 251.316406 62.710938 C 252.023438 63.832031 252.585938 64.992188 252.9375 66.226562 C 253.15625 66.976562 253.285156 67.753906 253.542969 68.496094 C 253.65625 68.808594 253.796875 69.210938 254.152344 69.398438 C 254.148438 69.445312 254.179688 69.300781 254.1875 69.25 C 254.207031 69.152344 254.222656 69.054688 254.238281 68.957031 C 254.289062 68.671875 254.324219 68.386719 254.367188 68.101562 C 254.492188 67.21875 254.648438 66.34375 254.878906 65.472656 C 255.488281 63.167969 256.371094 60.695312 257.941406 58.714844 C 258.640625 57.828125 259.722656 56.859375 261.128906 57.316406 C 262.101562 57.636719 262.769531 58.570312 263.226562 59.3125 C 263.378906 59.558594 263.644531 59.929688 263.628906 60.214844 C 263.601562 60.777344 263.117188 61.421875 262.867188 61.925781 C 262.691406 62.28125 262.523438 62.644531 262.3125 62.984375 C 262.242188 63.101562 262.152344 63.296875 262 63.363281 C 261.722656 63.480469 261.382812 62.777344 261.304688 62.65625 C 260.894531 62.015625 260.277344 61 259.25 61.050781 C 258.175781 61.105469 257.703125 62.253906 257.371094 62.945312 C 256.390625 65.015625 255.851562 67.144531 255.292969 69.308594 C 255.277344 69.3125 255.195312 69.628906 255.1875 69.652344 C 255.050781 70.039062 254.914062 70.429688 254.789062 70.824219 C 254.421875 71.976562 254.1875 73.1875 253.65625 74.296875 C 253.578125 74.46875 253.226562 75.300781 252.835938 75.101562 C 252.644531 75.003906 252.609375 74.699219 252.582031 74.535156 C 252.492188 74.042969 252.386719 73.558594 252.265625 73.074219 C 252.121094 72.507812 251.980469 71.945312 251.847656 71.378906 C 251.648438 70.515625 251.421875 69.648438 251.101562 68.8125 C 250.671875 67.683594 249.628906 65.121094 248.664062 64.597656 Z M 248.664062 64.597656 " fill-opacity="1" fill-rule="evenodd"/><path fill="#000000" d="M 309.882812 94.90625 C 309.808594 94.808594 309.675781 95.160156 309.648438 95.234375 C 309.589844 95.394531 309.527344 95.550781 309.46875 95.710938 C 309.285156 96.21875 309.089844 96.714844 308.902344 97.21875 C 308.773438 97.542969 309.128906 97.953125 309.222656 98.242188 C 309.515625 99.128906 308.988281 99.71875 308.277344 99.703125 C 308.074219 99.699219 307.882812 99.640625 307.695312 99.558594 C 306.898438 99.226562 306.105469 98.410156 306.179688 97.308594 C 306.222656 96.742188 306.433594 96.257812 306.550781 95.714844 C 306.589844 95.539062 306.597656 95.253906 306.40625 95.203125 C 305.929688 95.066406 305.5 96.207031 305.335938 96.566406 C 304.671875 98.003906 304.109375 99.742188 302.804688 100.515625 C 301.589844 101.234375 300.4375 100.257812 299.261719 99.890625 C 297.996094 99.496094 296.734375 99.679688 295.523438 100.242188 C 295.523438 100.367188 295.328125 100.339844 295.234375 100.394531 C 294.929688 100.582031 294.632812 100.789062 294.339844 101 C 293.042969 101.925781 291.796875 102.972656 290.59375 104.066406 C 285.371094 108.785156 279.914062 113.0625 274.214844 116.917969 C 272.484375 118.089844 270.761719 119.296875 268.996094 120.386719 C 268.277344 120.828125 267.539062 121.234375 266.828125 121.695312 C 266.75 121.746094 266.171875 122.074219 266.335938 122.269531 C 266.527344 122.496094 267.0625 122.367188 267.289062 122.339844 C 268.164062 122.238281 269.046875 121.976562 269.902344 121.734375 C 271.996094 121.136719 274.230469 120.484375 276.15625 119.289062 C 277.386719 118.527344 278.523438 117.503906 279.636719 116.53125 C 283.027344 113.570312 286.390625 110.566406 289.796875 107.632812 C 291.792969 105.90625 293.96875 103.8125 296.339844 102.867188 C 298.449219 102.03125 300.140625 104.703125 302.253906 103.785156 C 303.167969 103.382812 303.839844 102.355469 304.289062 101.355469 C 304.367188 101.191406 304.808594 99.824219 304.964844 99.777344 C 304.992188 99.769531 305.070312 100.375 305.078125 100.410156 C 305.140625 100.859375 305.210938 101.347656 305.441406 101.714844 C 306.023438 102.636719 307.09375 102.804688 307.980469 102.589844 C 310.746094 101.933594 310.753906 98.71875 310.296875 96.050781 C 310.238281 95.695312 309.988281 95.042969 309.882812 94.90625 Z M 309.882812 94.90625 " fill-opacity="1" fill-rule="evenodd"/><path fill="#000000" d="M 235.644531 58 C 235.660156 58.011719 237.070312 57.269531 237.15625 57.226562 C 238.953125 56.367188 240.773438 55.542969 242.601562 54.726562 C 250.097656 51.390625 257.667969 48.109375 265.328125 45.027344 C 267.488281 44.160156 269.660156 43.308594 271.871094 42.53125 C 272.007812 42.484375 273.75 41.773438 273.847656 41.949219 C 274.039062 42.308594 273.234375 43.484375 273.078125 43.8125 C 272.746094 44.519531 272.53125 45.585938 271.921875 46.179688 C 271.507812 46.578125 270.71875 46.753906 270.15625 46.960938 C 268.789062 47.472656 267.414062 47.972656 266.0625 48.503906 C 261.882812 50.140625 257.839844 52.003906 253.738281 53.765625 C 249.769531 55.472656 245.707031 57.046875 241.773438 58.8125 C 239.8125 59.691406 237.847656 60.570312 235.886719 61.457031 C 235.574219 61.601562 234.265625 62.414062 233.867188 62.246094 C 233.613281 62.140625 233.902344 61.597656 233.953125 61.464844 C 234.234375 60.738281 235.316406 58.714844 235.644531 58 Z M 235.644531 58 " fill-opacity="1" fill-rule="evenodd"/><path fill="#000000" d="M 139.457031 38.753906 C 139.46875 38.761719 140.5 38.148438 140.566406 38.109375 C 141.882812 37.398438 143.21875 36.714844 144.558594 36.035156 C 150.054688 33.265625 155.605469 30.542969 161.226562 27.984375 C 162.808594 27.265625 164.402344 26.558594 166.023438 25.914062 C 166.125 25.875 167.402344 25.289062 167.472656 25.433594 C 167.613281 25.730469 167.023438 26.707031 166.910156 26.980469 C 166.667969 27.566406 166.511719 28.449219 166.0625 28.941406 C 165.757812 29.273438 165.179688 29.417969 164.765625 29.59375 C 163.761719 30.015625 162.757812 30.429688 161.765625 30.871094 C 158.699219 32.230469 155.734375 33.773438 152.726562 35.238281 C 149.816406 36.65625 146.835938 37.960938 143.949219 39.425781 C 142.511719 40.15625 141.070312 40.886719 139.632812 41.621094 C 139.402344 41.738281 138.445312 42.417969 138.152344 42.277344 C 137.96875 42.191406 138.179688 41.738281 138.214844 41.628906 C 138.421875 41.023438 139.214844 39.347656 139.457031 38.753906 Z M 139.457031 38.753906 " fill-opacity="1" fill-rule="evenodd"/><path fill="#000000" d="M 276.304688 47.476562 C 276.75 47.015625 277.078125 46.191406 277.429688 45.652344 C 278.453125 44.074219 279.472656 42.492188 280.523438 40.933594 C 281.113281 40.058594 281.664062 39.019531 282.507812 38.34375 C 283.707031 37.382812 285.503906 37.511719 286.953125 37.609375 C 290.292969 37.828125 294.152344 38.878906 297.332031 39.402344 C 297.382812 39.359375 297.667969 39.496094 297.730469 39.515625 C 298.101562 39.640625 298.464844 39.777344 298.828125 39.917969 C 300.054688 40.390625 302.457031 41.050781 302.027344 42.742188 C 301.753906 43.820312 301.015625 44.78125 300.347656 45.652344 C 299.308594 47.011719 298.191406 48.324219 297.019531 49.582031 C 295.472656 51.246094 293.84375 52.816406 292.144531 54.335938 C 291.023438 55.335938 289.867188 56.445312 288.417969 56.988281 C 285.996094 57.898438 283.132812 57.796875 280.582031 57.949219 C 279.371094 58.019531 278.160156 58.078125 276.949219 58.125 C 276.3125 58.148438 275.511719 58.238281 274.890625 58.050781 C 274.277344 57.871094 275.738281 57.054688 275.84375 56.996094 C 277.15625 56.269531 278.582031 55.707031 280 55.199219 C 283.273438 54.03125 286.628906 52.9375 289.738281 51.390625 C 290.480469 51.019531 291.21875 50.648438 291.945312 50.246094 C 292.132812 50.144531 292.554688 49.980469 292.625 49.753906 C 292.707031 49.480469 292.089844 49.210938 291.914062 49.128906 C 291.058594 48.742188 290.066406 48.550781 289.15625 48.332031 C 285.363281 47.425781 280.183594 46.90625 276.304688 47.476562 Z M 276.304688 47.476562 " fill-opacity="1" fill-rule="evenodd"/><path fill="#000000" d="M 288.5 69.839844 C 288.367188 69.785156 288.878906 69.445312 288.921875 69.421875 C 289.125 69.316406 289.324219 69.199219 289.519531 69.078125 C 290.089844 68.71875 290.664062 68.359375 291.226562 67.984375 C 292.988281 66.8125 294.734375 65.625 296.484375 64.445312 C 300.421875 61.78125 311.402344 53.304688 311.664062 52.804688 C 311.472656 52.660156 311.15625 52.558594 310.945312 52.425781 C 309.839844 51.742188 308.167969 50.730469 308.289062 49.363281 C 308.457031 47.503906 310.171875 45.414062 312.109375 44.773438 C 312.96875 44.488281 314.105469 44.355469 314.847656 44.953125 C 315.320312 45.332031 315.453125 45.945312 315.503906 46.488281 C 315.621094 47.6875 315.273438 48.832031 314.769531 49.933594 C 314.625 50.25 314.449219 50.554688 314.265625 50.855469 C 314.210938 50.945312 314.035156 51.125 314.035156 51.234375 C 314.039062 51.371094 314.476562 51.601562 314.578125 51.683594 C 314.964844 51.992188 315.507812 52.433594 315.660156 52.898438 C 315.855469 53.5 315.191406 54.351562 314.875 54.828125 C 314.792969 54.949219 314.566406 55.386719 314.355469 55.351562 C 314.113281 55.308594 313.898438 55.011719 313.742188 54.863281 C 313.324219 54.46875 312.859375 54.117188 312.445312 53.722656 C 312.382812 53.664062 312.324219 53.847656 312.265625 53.910156 C 312.144531 54.039062 312.019531 54.164062 311.898438 54.292969 C 311.546875 54.667969 311.1875 55.035156 310.828125 55.398438 C 309.746094 56.488281 308.652344 57.5625 307.523438 58.609375 C 303.425781 62.410156 298.546875 65.671875 293.34375 68.128906 C 292.15625 68.6875 290.984375 69.328125 289.726562 69.75 C 289.503906 69.824219 288.632812 69.894531 288.5 69.839844 Z M 313.117188 50.445312 C 313.113281 50.441406 313.160156 50.265625 313.164062 50.257812 C 313.203125 50.136719 313.238281 50.019531 313.269531 49.898438 C 313.351562 49.539062 313.40625 49.167969 313.382812 48.800781 C 313.367188 48.597656 313.351562 48.386719 313.316406 48.183594 C 313.1875 47.40625 312.511719 46.304688 311.472656 46.53125 C 311.234375 46.585938 311.019531 46.695312 310.824219 46.832031 C 310.679688 46.929688 310.554688 47.042969 310.4375 47.164062 C 310.289062 47.320312 310.109375 47.515625 310.09375 47.730469 C 310.085938 47.890625 310.210938 48.023438 310.316406 48.136719 C 310.535156 48.382812 310.792969 48.589844 311.03125 48.816406 C 311.539062 49.292969 312.558594 50.007812 313.117188 50.445312 Z M 313.117188 50.445312 " fill-opacity="1" fill-rule="evenodd"/><path fill="#000000" d="M 209.171875 35.019531 L 213.707031 28.871094 L 221.035156 34.347656 L 216.203125 40.140625 C 216.203125 40.140625 209.457031 34.734375 209.171875 35.019531 Z M 209.171875 35.019531 " fill-opacity="1" fill-rule="evenodd"/><path fill="#000000" d="M 219.871094 33.667969 L 224.40625 27.519531 L 231.734375 32.996094 L 226.898438 38.789062 C 226.898438 38.789062 220.15625 33.382812 219.871094 33.667969 Z M 219.871094 33.667969 " fill-opacity="1" fill-rule="evenodd"/><path fill="#000000" d="M 152.585938 65.945312 L 157.121094 59.796875 L 164.449219 65.273438 L 159.617188 71.066406 C 159.617188 71.066406 152.875 65.660156 152.585938 65.945312 Z M 152.585938 65.945312 " fill-opacity="1" fill-rule="evenodd"/><path fill="#000000" d="M 217.773438 97.425781 C 217.515625 97.253906 217.277344 97.609375 217.234375 97.660156 C 216.960938 97.980469 216.765625 98.351562 216.578125 98.71875 C 215.980469 99.871094 215.441406 101.054688 214.835938 102.207031 C 213.289062 105.152344 211.332031 108.699219 211.527344 112.0625 C 211.609375 113.523438 212.140625 115.382812 213.996094 115.683594 C 216.296875 116.054688 217.628906 112.96875 218.222656 111.496094 C 218.425781 110.996094 218.914062 109.992188 218.59375 109.449219 C 218.320312 108.984375 217.625 109.957031 217.519531 110.105469 C 216.871094 111.015625 215.839844 112.804688 214.640625 111.339844 C 213.671875 110.160156 213.820312 108.546875 214.121094 107.183594 C 214.5625 105.171875 215.625 103.335938 216.570312 101.492188 C 217.164062 100.335938 218.660156 98.011719 217.773438 97.425781 Z M 217.773438 97.425781 " fill-opacity="1" fill-rule="evenodd"/><path fill="#000000" d="M 82.6875 53.507812 C 82.195312 53.175781 81.746094 53.863281 81.664062 53.960938 C 81.144531 54.578125 80.78125 55.289062 80.421875 55.992188 C 79.289062 58.21875 78.269531 60.492188 77.125 62.710938 C 74.195312 68.386719 70.488281 75.214844 70.851562 81.6875 C 71.011719 84.5 72.019531 88.078125 75.53125 88.660156 C 79.886719 89.375 82.410156 83.429688 83.539062 80.597656 C 83.925781 79.632812 84.847656 77.703125 84.238281 76.65625 C 83.71875 75.757812 82.40625 77.636719 82.207031 77.921875 C 80.976562 79.671875 79.027344 83.113281 76.75 80.292969 C 74.917969 78.027344 75.195312 74.917969 75.765625 72.292969 C 76.609375 68.417969 78.617188 64.886719 80.40625 61.339844 C 81.53125 59.109375 84.367188 54.636719 82.6875 53.507812 Z M 82.6875 53.507812 " fill-opacity="1" fill-rule="evenodd"/><path fill="#000000" d="M 136.785156 33.921875 C 136.421875 33.679688 136.085938 34.175781 136.027344 34.25 C 135.644531 34.695312 135.375 35.210938 135.109375 35.71875 C 134.273438 37.324219 133.519531 38.96875 132.675781 40.574219 C 130.511719 44.675781 127.773438 49.609375 128.042969 54.289062 C 128.160156 56.324219 128.90625 58.90625 131.496094 59.328125 C 134.714844 59.847656 136.578125 55.550781 137.414062 53.5 C 137.699219 52.804688 138.378906 51.40625 137.929688 50.652344 C 137.546875 50.003906 136.578125 51.363281 136.429688 51.566406 C 135.519531 52.832031 134.078125 55.320312 132.398438 53.28125 C 131.046875 51.644531 131.25 49.394531 131.671875 47.496094 C 132.292969 44.699219 133.777344 42.144531 135.097656 39.582031 C 135.929688 37.96875 138.023438 34.734375 136.785156 33.921875 Z M 136.785156 33.921875 " fill-opacity="1" fill-rule="evenodd"/><path fill="#000000" d="M 139.503906 63.429688 C 139.472656 63.546875 138.972656 63.980469 138.871094 64.117188 C 138.398438 64.738281 137.953125 65.371094 137.546875 66.035156 C 136.128906 68.328125 134.773438 70.800781 134.113281 73.4375 C 133.800781 74.699219 133.574219 76.066406 133.917969 77.347656 C 134.699219 80.230469 138.847656 80.65625 141.136719 79.417969 C 142.828125 78.5 143.875 76.164062 143.941406 74.308594 C 144.023438 72.023438 142.960938 70.136719 141.273438 68.683594 C 140.613281 68.113281 139.332031 67.527344 138.953125 66.699219 C 138.808594 66.375 139.066406 65.964844 139.207031 65.683594 C 139.5625 64.988281 140.664062 63.847656 139.503906 63.429688 Z M 137.347656 70.277344 C 137.003906 70.558594 136.539062 71.535156 136.382812 71.941406 C 136.226562 72.347656 136.050781 72.757812 136.03125 73.199219 C 135.941406 75.277344 138.007812 75.8125 139.683594 75.609375 C 140.273438 75.539062 140.875 75.445312 141.449219 75.296875 C 141.652344 75.246094 141.953125 75.15625 142.042969 74.941406 C 142.242188 74.484375 138.195312 70.328125 137.347656 70.277344 Z M 137.347656 70.277344 " fill-opacity="1" fill-rule="evenodd"/><path fill="#000000" d="M 178.714844 107.113281 C 178.46875 107.210938 178.214844 107.332031 177.988281 107.5 C 177.71875 107.703125 177.480469 107.976562 177.261719 108.261719 C 176.816406 108.835938 176.453125 109.496094 176.15625 110.214844 C 175.972656 110.671875 175.753906 111.167969 175.675781 111.679688 C 175.675781 111.6875 175.683594 111.71875 175.683594 111.722656 C 175.703125 111.765625 175.71875 111.808594 175.734375 111.847656 C 175.8125 112.011719 175.953125 112.101562 176.105469 112.066406 C 176.308594 112.015625 176.496094 111.808594 176.664062 111.667969 C 176.890625 111.480469 177.128906 111.324219 177.378906 111.203125 C 177.398438 111.195312 177.5 111.144531 177.515625 111.136719 C 177.648438 111.074219 177.792969 111.015625 177.9375 110.96875 C 178.402344 110.816406 178.875 110.765625 179.347656 110.734375 C 180.054688 110.6875 180.78125 110.632812 181.488281 110.730469 C 182.230469 110.832031 182.964844 111.089844 183.707031 111.175781 C 183.285156 111.695312 182.746094 112.097656 182.28125 112.542969 C 181.253906 113.519531 180.214844 114.480469 179.210938 115.492188 C 179.238281 115.519531 179.152344 115.546875 179.125 115.574219 C 179.074219 115.625 179.027344 115.675781 178.984375 115.726562 C 178.832031 115.898438 178.679688 116.074219 178.527344 116.257812 C 178.097656 116.792969 177.71875 117.394531 177.371094 118.027344 C 176.636719 119.367188 176.207031 121.015625 176.054688 122.644531 C 175.996094 123.34375 175.980469 124.023438 176.089844 124.71875 C 176.074219 124.71875 176.113281 124.828125 176.113281 124.835938 C 176.164062 124.976562 176.222656 125.113281 176.285156 125.242188 C 176.519531 125.765625 176.816406 126.246094 177.1875 126.621094 C 177.582031 127.023438 178.070312 127.242188 178.554688 127.410156 C 179.238281 127.648438 179.929688 127.78125 180.636719 127.835938 C 180.863281 127.851562 181.132812 127.882812 181.363281 127.886719 C 181.875 127.902344 182.398438 127.898438 182.914062 127.851562 C 185.066406 127.660156 187.117188 126.949219 188.945312 125.464844 C 189.140625 125.3125 189.351562 125.164062 189.546875 125.019531 C 189.917969 124.734375 190.28125 124.433594 190.632812 124.101562 C 191.183594 123.574219 191.707031 122.960938 192.109375 122.242188 C 192.1875 122.109375 192.5 121.640625 192.3125 121.46875 C 192.160156 121.3125 191.824219 121.476562 191.664062 121.542969 C 191.054688 121.796875 190.5 122.203125 189.917969 122.527344 C 187.875 123.648438 185.546875 124.242188 183.335938 124.3125 C 183.335938 124.21875 183.191406 124.316406 183.117188 124.3125 C 182.992188 124.3125 182.855469 124.304688 182.730469 124.304688 C 182.324219 124.304688 181.917969 124.277344 181.53125 124.214844 C 180.671875 124.074219 179.757812 123.796875 179.007812 123.238281 C 178.671875 122.988281 178.054688 122.484375 177.828125 122.074219 C 177.734375 121.910156 177.742188 121.664062 177.75 121.472656 C 177.777344 120.882812 178.046875 120.355469 178.324219 119.910156 C 179.3125 118.335938 180.652344 117.195312 181.917969 116.042969 C 181.917969 116.042969 181.988281 115.984375 181.988281 115.980469 C 182.078125 115.898438 182.164062 115.816406 182.25 115.730469 C 182.621094 115.363281 182.980469 114.984375 183.328125 114.582031 C 184.476562 113.273438 185.75 111.742188 186.054688 109.710938 C 186.136719 109.132812 186.304688 108.046875 185.84375 107.632812 C 185.84375 107.558594 185.570312 107.421875 185.53125 107.398438 C 185.167969 107.179688 184.769531 107.023438 184.375 106.921875 C 182.738281 106.503906 180.351562 106.835938 178.714844 107.113281 Z M 178.714844 107.113281 " fill-opacity="1" fill-rule="evenodd"/><path fill="#000000" d="M 191.8125 27.050781 C 191.761719 27.09375 191.871094 26.941406 191.898438 26.886719 C 191.957031 26.769531 192.015625 26.652344 192.074219 26.539062 C 192.253906 26.175781 192.4375 25.8125 192.609375 25.449219 C 193.105469 24.40625 193.664062 23.382812 194.148438 22.34375 C 194.148438 22.417969 194.28125 22.554688 194.320312 22.621094 C 194.433594 22.824219 194.53125 23.039062 194.636719 23.246094 C 194.992188 23.953125 195.3125 24.671875 195.648438 25.382812 C 197.019531 28.300781 198.5625 31.171875 199.804688 34.128906 C 199.996094 34.59375 200.1875 35.0625 200.351562 35.535156 C 200.449219 35.808594 200.542969 36.085938 200.609375 36.367188 C 200.648438 36.515625 200.679688 36.667969 200.699219 36.820312 C 200.710938 36.921875 200.714844 37.023438 200.710938 37.125 C 200.710938 37.1875 200.699219 37.246094 200.683594 37.304688 C 200.484375 37.929688 199.730469 37.074219 199.535156 36.890625 C 199.449219 36.816406 199.363281 36.738281 199.277344 36.660156 C 199.183594 36.574219 199.085938 36.488281 198.988281 36.398438 C 198.855469 36.28125 198.722656 36.160156 198.589844 36.039062 C 198.410156 35.878906 198.234375 35.714844 198.058594 35.550781 C 197.878906 35.386719 197.699219 35.222656 197.527344 35.050781 C 197.464844 34.988281 197.535156 35.21875 197.542969 35.300781 C 197.566406 35.5 197.589844 35.699219 197.613281 35.902344 C 197.675781 36.425781 197.746094 36.949219 197.828125 37.472656 C 198.070312 39.007812 198.347656 40.539062 198.601562 42.074219 C 199.371094 46.71875 199.992188 51.398438 200.574219 56.066406 C 200.449219 56.039062 200.621094 56.28125 200.640625 56.390625 C 200.691406 56.652344 200.71875 56.917969 200.757812 57.179688 C 200.871094 57.902344 200.980469 58.625 201.082031 59.347656 C 201.386719 61.4375 201.679688 63.523438 201.933594 65.617188 C 202.921875 73.722656 204.75 82.332031 203.214844 90.511719 C 202.882812 92.28125 202.675781 94.300781 201.597656 95.890625 C 201.449219 96.105469 200.699219 97.277344 200.3125 97.246094 C 200.226562 97.242188 200.195312 97.164062 200.175781 97.105469 C 199.835938 96.085938 200.277344 94.574219 200.269531 93.53125 C 200.246094 89.371094 200.011719 85.242188 199.535156 81.101562 C 197.929688 67.121094 192.828125 32.15625 192.722656 28.867188 C 192.722656 28.867188 192.488281 28.410156 192.464844 28.371094 C 192.292969 28.039062 191.996094 27.378906 191.8125 27.050781 Z M 191.8125 27.050781 " fill-opacity="1" fill-rule="evenodd"/><g clip-path="url(#cb1a994c94)"><path fill="#000000" d="M 174.582031 25.8125 C 174.613281 25.949219 174.746094 25.59375 174.835938 25.488281 C 175.023438 25.261719 175.214844 25.03125 175.402344 24.804688 C 176.113281 23.949219 176.820312 23.089844 177.554688 22.257812 C 177.609375 22.1875 178.21875 21.375 178.351562 21.476562 C 179.105469 22.082031 179.347656 24.75 179.636719 25.621094 C 180.601562 28.621094 182 31.4375 183.152344 34.367188 C 183.464844 35.148438 184.429688 36.777344 184.273438 37.652344 C 184.21875 37.996094 181.589844 35.453125 181.378906 35.9375 C 181.023438 36.746094 181.433594 38.050781 181.578125 38.855469 C 182.023438 41.289062 182.464844 44.15625 182.742188 46.609375 C 183.796875 56.070312 184.496094 60 185.183594 71.0625 C 185.460938 75.527344 185.4375 79.277344 182.652344 82.949219 C 179.9375 86.53125 173.703125 91.246094 169.445312 87.019531 C 167.339844 84.921875 166.742188 81.707031 166.074219 78.917969 C 165.832031 79.242188 165.234375 78.976562 164.890625 79.1875 C 163.925781 79.789062 163.058594 80.574219 162.226562 81.347656 C 159.144531 84.21875 156.4375 87.730469 152.789062 89.960938 C 152.890625 89.785156 152.8125 90.371094 152.914062 90.542969 C 153.113281 90.875 153.421875 91.125 153.734375 91.34375 C 154.710938 92.019531 155.929688 92.363281 157.082031 92.578125 C 160.984375 93.320312 165.144531 93.554688 169.101562 93.921875 C 173.152344 94.296875 177.199219 94.425781 181.269531 94.476562 C 181.746094 94.484375 185.125 94.171875 184.9375 94.964844 C 184.640625 96.320312 183.675781 97.664062 183.074219 98.910156 C 182.875 99.335938 182.710938 100.15625 182.265625 100.410156 C 181.132812 101.046875 178.539062 100.582031 177.277344 100.71875 C 173.90625 101.070312 170.722656 101.902344 167.582031 103.175781 C 165.566406 103.984375 163.625 104.933594 161.695312 105.929688 C 160.199219 106.707031 158.691406 107.484375 157.183594 108.253906 C 149.453125 112.195312 136.367188 118.105469 130.710938 107.953125 C 129.660156 106.0625 129.070312 104.019531 128.5625 101.929688 C 126.265625 105.242188 122.238281 108.175781 119.125 110.640625 C 109.410156 118.34375 95.515625 128.117188 82.496094 123.167969 C 72.625 119.417969 71.652344 104.816406 74.066406 96.152344 C 74.65625 94.042969 75.464844 89.804688 77.371094 88.324219 C 77.816406 87.976562 77.296875 91.066406 77.261719 91.265625 C 76.894531 93.425781 76.542969 95.574219 76.339844 97.757812 C 75.765625 104.1875 77.960938 110.898438 83.4375 115.398438 C 90.136719 120.910156 101.746094 115.96875 112.292969 109.742188 C 119.800781 105.3125 125.535156 101.988281 126.507812 99.015625 C 126.496094 99.277344 126.640625 98.503906 126.652344 98.238281 C 126.6875 97.734375 126.6875 97.234375 126.675781 96.726562 C 126.640625 95.152344 126.566406 93.585938 126.410156 92.015625 C 125.988281 87.503906 125.222656 83.023438 124.378906 78.578125 C 123.402344 73.527344 122.171875 68.53125 121.199219 63.480469 C 120.042969 57.460938 119.125 51.25 117.394531 45.355469 C 116.574219 42.542969 116.917969 40.050781 117.195312 37.125 C 117.226562 36.757812 117.148438 34.605469 117.492188 34.347656 C 117.570312 34.289062 118.027344 34.972656 118.058594 35.027344 C 118.613281 35.828125 119.136719 36.667969 119.589844 37.53125 C 121.53125 41.164062 122.496094 45.433594 123.335938 49.429688 C 125.722656 60.734375 126.453125 72.320312 128.359375 83.710938 C 129.359375 89.695312 130.269531 96.136719 133.117188 101.585938 C 133.59375 102.507812 134.195312 103.339844 134.914062 104.097656 C 140.003906 109.492188 147.5 105.972656 153.390625 103.878906 C 155.71875 103.050781 158.082031 102.183594 160.308594 101.109375 C 160.421875 101.054688 162.304688 100.144531 162.25 100.039062 C 162.082031 99.742188 160.441406 99.75 160.152344 99.707031 C 157.925781 99.351562 155.730469 98.863281 153.5 98.511719 C 151.40625 98.183594 149.296875 97.96875 147.179688 97.828125 C 143.5625 97.582031 139.882812 97.523438 136.257812 97.75 C 136.488281 97.671875 137.144531 95.980469 137.289062 95.730469 C 138.242188 94.066406 139.304688 91.789062 140.8125 90.539062 C 141.757812 89.753906 144.128906 89.855469 145.273438 89.546875 C 147.613281 88.90625 149.894531 87.703125 151.859375 86.296875 C 155.75 83.523438 159.179688 80.152344 162.550781 76.792969 C 163.867188 75.476562 165.609375 72.847656 167.363281 72.085938 C 167.992188 71.8125 168.183594 72.804688 168.28125 73.1875 C 168.703125 74.675781 168.96875 76.222656 169.546875 77.65625 C 170.632812 80.316406 174.015625 82.636719 176.921875 81.714844 C 183.929688 79.488281 181.632812 71.882812 180.890625 66.554688 C 179.683594 57.886719 176.742188 33.851562 176.035156 30.636719 C 175.757812 29.335938 174.9375 27.082031 174.582031 25.8125 Z M 174.582031 25.8125 " fill-opacity="1" fill-rule="evenodd"/></g></svg>