<svg xmlns="http://www.w3.org/2000/svg" xmlns:xlink="http://www.w3.org/1999/xlink" width="500" zoomAndPan="magnify" viewBox="0 0 375 149.999998" height="200" preserveAspectRatio="xMidYMid meet" version="1.0"><defs><clipPath id="c886321f3a"><path d="M 167 123 L 195 123 L 195 141.421875 L 167 141.421875 Z M 167 123 " clip-rule="nonzero"/></clipPath></defs><path fill="#000000" d="M 306.371094 34.597656 C 307.09375 34.335938 308.578125 34.800781 309.277344 34.9375 C 312.3125 35.527344 315.246094 36.597656 318.050781 37.84375 C 328.492188 42.46875 336.054688 51.148438 340.734375 61.058594 C 341.90625 63.535156 342.875 66.140625 343.472656 68.796875 C 343.632812 69.511719 344.117188 70.820312 343.78125 71.558594 C 343.484375 72.195312 342.722656 72.691406 342.207031 73.152344 C 341.101562 74.132812 340.082031 75 338.816406 75.742188 C 337.183594 74.296875 334.894531 73.269531 333.042969 72.0625 C 332.480469 67.765625 330.558594 63.476562 328.582031 59.644531 C 325.214844 53.128906 320.753906 47.15625 315.339844 42.070312 C 312.878906 39.773438 309.394531 36.1875 306.371094 34.597656 Z M 306.371094 34.597656 " fill-opacity="1" fill-rule="evenodd"/><path fill="#000000" d="M 306.371094 125.84375 C 307.09375 126.105469 308.578125 125.640625 309.277344 125.507812 C 312.3125 124.914062 315.246094 123.84375 318.050781 122.601562 C 328.492188 117.976562 336.054688 109.296875 340.734375 99.382812 C 341.90625 96.910156 342.875 94.300781 343.472656 91.644531 C 343.632812 90.929688 344.117188 89.621094 343.78125 88.882812 C 343.484375 88.246094 342.722656 87.75 342.207031 87.292969 C 341.101562 86.308594 340.082031 85.441406 338.816406 84.703125 C 337.183594 86.148438 334.894531 87.175781 333.042969 88.378906 C 332.480469 92.675781 330.558594 96.964844 328.582031 100.800781 C 325.214844 107.3125 320.753906 113.285156 315.339844 118.371094 C 312.878906 120.667969 309.394531 124.253906 306.371094 125.84375 Z M 306.371094 125.84375 " fill-opacity="1" fill-rule="evenodd"/><path fill="#000000" d="M 352.070312 74.507812 C 351.785156 74.652344 351.519531 74.789062 351.449219 74.835938 C 349.796875 76.078125 348.164062 77.242188 346.3125 78.226562 C 345.679688 78.5625 345.023438 78.84375 344.378906 79.152344 C 344.277344 79.207031 343.988281 79.335938 343.839844 79.480469 C 343.632812 79.679688 343.574219 79.914062 343.632812 80.140625 C 343.691406 80.371094 343.863281 80.566406 344.160156 80.65625 C 344.390625 80.722656 344.757812 80.707031 344.875 80.710938 C 345.058594 80.710938 345.621094 80.917969 346.359375 81.195312 C 348.300781 81.929688 351.347656 83.253906 352.75 84.011719 C 352.910156 84.097656 353.394531 84.414062 353.808594 84.691406 C 353.554688 84.847656 353.289062 85 353.152344 85.054688 C 351.761719 85.566406 350.117188 86.085938 349.21875 87.308594 C 348.886719 87.765625 348.785156 88.292969 348.785156 88.851562 C 348.792969 89.511719 348.992188 90.21875 349.011719 90.820312 C 349.070312 92.433594 348.773438 93.84375 347.78125 95.183594 C 347.011719 96.242188 346.058594 97.238281 344.875 97.875 C 344.679688 97.980469 343.023438 98.753906 343.023438 98.753906 C 342.792969 98.863281 342.667969 99.109375 342.710938 99.355469 C 342.757812 99.597656 342.976562 99.78125 343.230469 99.800781 C 343.230469 99.800781 345.769531 99.96875 346.53125 99.875 C 350.4375 99.390625 352.820312 97 354.53125 93.796875 C 354.785156 93.332031 354.96875 92.746094 355.164062 92.175781 C 355.335938 91.699219 355.507812 91.234375 355.796875 90.90625 C 356.074219 90.59375 356.476562 90.382812 356.890625 90.179688 C 357.40625 89.925781 357.933594 89.691406 358.347656 89.390625 C 359.625 88.476562 360.523438 87.316406 361.351562 86.023438 C 361.671875 85.515625 361.96875 84.996094 362.257812 84.476562 C 362.40625 84.226562 363.28125 82.675781 363.28125 82.675781 C 363.429688 82.40625 363.328125 82.074219 363.050781 81.929688 C 363.050781 81.929688 362.164062 81.46875 362.003906 81.386719 C 361.429688 81.117188 359.84375 80.429688 358.660156 79.921875 C 358.648438 79.917969 363.210938 78.574219 363.210938 78.574219 C 363.5 78.488281 363.671875 78.203125 363.601562 77.917969 C 363.601562 77.917969 363.132812 76.007812 362.164062 74.199219 C 361.488281 72.925781 360.554688 71.71875 359.40625 71.175781 C 358.980469 70.976562 358.40625 70.824219 357.867188 70.65625 C 357.429688 70.523438 357.015625 70.390625 356.761719 70.167969 C 356.671875 70.085938 356.660156 69.941406 356.636719 69.804688 C 356.578125 69.53125 356.542969 69.246094 356.488281 69.035156 C 356.199219 68.019531 355.75 67.003906 355.1875 66.109375 C 352.84375 62.453125 346.957031 59.75 342.746094 59.976562 C 342.472656 59.992188 342.242188 60.191406 342.207031 60.453125 C 342.171875 60.714844 342.332031 60.964844 342.597656 61.050781 C 343.953125 61.488281 345.082031 62.746094 346.046875 64.242188 C 347.585938 66.636719 348.65625 69.667969 349.359375 71.410156 C 349.839844 72.609375 350.3125 73.371094 351.4375 74.121094 C 351.644531 74.257812 351.851562 74.390625 352.070312 74.507812 Z M 345.496094 98.804688 C 346.804688 98.085938 347.875 96.988281 348.726562 95.816406 C 349.863281 94.265625 350.230469 92.644531 350.164062 90.777344 C 350.140625 90.273438 350 89.695312 349.957031 89.128906 C 349.910156 88.703125 349.910156 88.285156 350.164062 87.945312 C 350.933594 86.898438 352.382812 86.519531 353.566406 86.082031 C 353.957031 85.933594 355.140625 85.152344 355.140625 85.152344 C 355.300781 85.050781 355.382812 84.882812 355.382812 84.703125 C 355.394531 84.523438 355.300781 84.355469 355.152344 84.253906 C 355.152344 84.253906 353.636719 83.222656 353.3125 83.050781 C 351.667969 82.167969 347.839844 80.515625 346 79.886719 C 345.875 79.847656 345.769531 79.808594 345.65625 79.777344 C 346.070312 79.589844 346.472656 79.398438 346.875 79.1875 C 348.785156 78.175781 350.449219 76.984375 352.164062 75.703125 C 352.300781 75.597656 353.394531 75.132812 353.648438 74.972656 C 353.820312 74.855469 353.875 74.722656 353.898438 74.660156 C 353.957031 74.515625 353.992188 74.261719 353.714844 74.039062 C 353.625 73.964844 353.105469 73.761719 353.046875 73.742188 C 352.714844 73.601562 352.394531 73.417969 352.09375 73.21875 C 351.1875 72.613281 350.816406 71.988281 350.425781 71.015625 C 349.714844 69.226562 348.609375 66.121094 347.023438 63.664062 C 346.425781 62.71875 345.738281 61.871094 344.988281 61.210938 C 348.484375 61.777344 352.441406 63.933594 354.210938 66.683594 C 354.714844 67.492188 355.117188 68.410156 355.371094 69.324219 C 355.441406 69.5625 355.464844 69.902344 355.542969 70.203125 C 355.625 70.511719 355.773438 70.785156 355.980469 70.972656 C 356.269531 71.234375 356.703125 71.433594 357.1875 71.601562 C 357.761719 71.796875 358.429688 71.945312 358.902344 72.164062 C 359.84375 72.613281 360.578125 73.644531 361.144531 74.699219 C 361.753906 75.839844 362.144531 77.027344 362.339844 77.675781 C 362.339844 77.675781 356.84375 79.300781 356.84375 79.300781 C 356.625 79.367188 356.464844 79.566406 356.441406 79.796875 C 356.429688 80.023438 356.566406 80.238281 356.785156 80.332031 C 356.785156 80.332031 360.554688 81.925781 361.488281 82.375 C 361.558594 82.410156 361.773438 82.523438 361.992188 82.632812 C 361.730469 83.109375 361.351562 83.789062 361.257812 83.949219 C 360.96875 84.453125 360.683594 84.957031 360.359375 85.449219 C 359.613281 86.621094 358.820312 87.679688 357.660156 88.507812 C 357.292969 88.777344 356.820312 88.976562 356.359375 89.199219 C 355.808594 89.472656 355.289062 89.777344 354.921875 90.195312 C 354.542969 90.617188 354.289062 91.207031 354.082031 91.820312 C 353.898438 92.339844 353.738281 92.871094 353.519531 93.292969 C 351.980469 96.160156 349.886719 98.347656 346.390625 98.78125 C 346.183594 98.804688 345.863281 98.8125 345.496094 98.804688 Z M 345.496094 98.804688 " fill-opacity="1" fill-rule="evenodd"/><path fill="#000000" d="M 339.160156 84.890625 C 339.296875 84.792969 340.125 84.207031 340.21875 84.136719 C 341.496094 83.148438 343.929688 80.847656 345.09375 79.738281 C 345.207031 79.636719 345.265625 79.503906 345.265625 79.363281 C 345.265625 79.242188 345.230469 79.078125 345.09375 78.925781 C 344.988281 78.8125 344.738281 78.660156 344.679688 78.621094 C 344.277344 78.335938 343.886719 78.054688 343.484375 77.773438 C 341.953125 76.6875 340.449219 75.480469 338.792969 74.550781 C 338.550781 74.410156 338.230469 74.46875 338.054688 74.6875 C 337.597656 75.25 336.402344 75.804688 335.769531 76.21875 C 334.03125 77.367188 332.226562 78.421875 330.46875 79.53125 C 330.214844 79.59375 330.113281 79.824219 330.101562 79.871094 C 330.054688 79.988281 329.984375 80.238281 330.238281 80.472656 C 330.273438 80.5 330.503906 80.621094 330.582031 80.675781 C 330.753906 80.785156 330.929688 80.894531 331.101562 81.007812 C 331.699219 81.398438 332.320312 81.761719 332.941406 82.117188 C 334.734375 83.15625 336.515625 84.234375 338.390625 85.125 C 338.574219 85.210938 338.792969 85.195312 338.964844 85.089844 C 339.046875 85.039062 339.113281 84.96875 339.160156 84.890625 Z M 343.828125 79.390625 C 342.585938 80.566406 340.597656 82.425781 339.492188 83.28125 C 339.402344 83.347656 338.863281 83.691406 338.527344 83.953125 C 336.816406 83.113281 335.183594 82.125 333.527344 81.175781 C 332.929688 80.828125 332.332031 80.476562 331.746094 80.097656 L 331.710938 80.070312 C 333.285156 79.09375 334.871094 78.148438 336.425781 77.128906 C 337 76.746094 337.976562 76.238281 338.597656 75.71875 C 340.070312 76.597656 341.414062 77.679688 342.804688 78.660156 C 343.148438 78.902344 343.496094 79.148438 343.828125 79.390625 Z M 330.550781 80.613281 Z M 330.550781 80.613281 " fill-opacity="1" fill-rule="evenodd"/><path fill="#000000" d="M 363.167969 77.992188 L 374.882812 80.460938 L 363.167969 82.34375 L 358.257812 79.933594 Z M 363.167969 77.992188 " fill-opacity="1" fill-rule="evenodd"/><path fill="#000000" d="M 68.503906 29.90625 C 67.777344 29.644531 66.296875 30.109375 65.59375 30.242188 C 62.558594 30.835938 59.625 31.90625 56.820312 33.148438 C 46.382812 37.773438 38.816406 46.453125 34.136719 56.367188 C 32.964844 58.839844 32 61.449219 31.402344 64.105469 C 31.242188 64.820312 30.757812 66.128906 31.089844 66.867188 C 31.390625 67.503906 32.148438 68 32.667969 68.457031 C 33.769531 69.441406 34.792969 70.308594 36.058594 71.046875 C 37.691406 69.601562 39.976562 68.574219 41.828125 67.371094 C 42.394531 63.074219 44.3125 58.785156 46.289062 54.949219 C 49.660156 48.4375 54.121094 42.464844 59.535156 37.378906 C 61.996094 35.082031 65.480469 31.496094 68.503906 29.90625 Z M 68.503906 29.90625 " fill-opacity="1" fill-rule="evenodd"/><path fill="#000000" d="M 68.503906 121.148438 C 67.777344 121.414062 66.296875 120.949219 65.59375 120.8125 C 62.558594 120.21875 59.625 119.152344 56.820312 117.90625 C 46.382812 113.28125 38.816406 104.601562 34.136719 94.6875 C 32.964844 92.214844 32 89.609375 31.402344 86.953125 C 31.242188 86.234375 30.757812 84.929688 31.089844 84.1875 C 31.390625 83.554688 32.148438 83.054688 32.667969 82.597656 C 33.769531 81.613281 34.792969 80.75 36.058594 80.007812 C 37.691406 81.453125 39.976562 82.480469 41.828125 83.6875 C 42.394531 87.984375 44.3125 92.273438 46.289062 96.105469 C 49.660156 102.617188 54.121094 108.589844 59.535156 113.675781 C 61.996094 115.976562 65.480469 119.5625 68.503906 121.148438 Z M 68.503906 121.148438 " fill-opacity="1" fill-rule="evenodd"/><path fill="#000000" d="M 22.800781 69.816406 C 23.089844 69.960938 23.351562 70.097656 23.421875 70.144531 C 25.078125 71.386719 26.710938 72.546875 28.5625 73.53125 C 29.195312 73.867188 29.847656 74.148438 30.492188 74.460938 C 30.597656 74.511719 30.882812 74.640625 31.035156 74.789062 C 31.242188 74.988281 31.296875 75.222656 31.242188 75.449219 C 31.183594 75.679688 31.011719 75.871094 30.710938 75.960938 C 30.480469 76.027344 30.113281 76.015625 30 76.015625 C 29.816406 76.019531 29.25 76.222656 28.515625 76.503906 C 26.574219 77.234375 23.527344 78.5625 22.125 79.320312 C 21.960938 79.40625 21.480469 79.722656 21.066406 80 C 21.320312 80.15625 21.582031 80.308594 21.722656 80.359375 C 23.113281 80.875 24.757812 81.394531 25.652344 82.617188 C 25.988281 83.070312 26.089844 83.601562 26.089844 84.15625 C 26.078125 84.820312 25.882812 85.527344 25.859375 86.125 C 25.800781 87.742188 26.101562 89.148438 27.089844 90.492188 C 27.859375 91.546875 28.816406 92.546875 30 93.183594 C 30.195312 93.289062 31.851562 94.0625 31.851562 94.0625 C 32.078125 94.171875 32.207031 94.417969 32.160156 94.660156 C 32.113281 94.90625 31.894531 95.089844 31.644531 95.105469 C 31.644531 95.105469 29.101562 95.277344 28.34375 95.179688 C 24.433594 94.699219 22.054688 92.304688 20.339844 89.101562 C 20.089844 88.640625 19.90625 88.054688 19.707031 87.480469 C 19.535156 87.007812 19.363281 86.539062 19.078125 86.210938 C 18.800781 85.898438 18.398438 85.691406 17.984375 85.488281 C 17.46875 85.234375 16.9375 85 16.523438 84.699219 C 15.246094 83.785156 14.351562 82.625 13.523438 81.328125 C 13.203125 80.824219 12.902344 80.304688 12.613281 79.785156 C 12.464844 79.535156 11.59375 77.980469 11.59375 77.980469 C 11.441406 77.714844 11.546875 77.382812 11.820312 77.238281 C 11.820312 77.238281 12.707031 76.777344 12.867188 76.695312 C 13.441406 76.425781 15.03125 75.734375 16.214844 75.226562 C 16.226562 75.226562 11.660156 73.878906 11.660156 73.878906 C 11.375 73.792969 11.199219 73.507812 11.269531 73.226562 C 11.269531 73.226562 11.742188 71.3125 12.707031 69.507812 C 13.386719 68.230469 14.316406 67.023438 15.464844 66.484375 C 15.890625 66.28125 16.464844 66.128906 17.007812 65.960938 C 17.445312 65.828125 17.859375 65.699219 18.109375 65.472656 C 18.203125 65.394531 18.214844 65.25 18.238281 65.113281 C 18.292969 64.839844 18.328125 64.554688 18.386719 64.339844 C 18.675781 63.328125 19.121094 62.3125 19.6875 61.414062 C 22.03125 57.761719 27.917969 55.054688 32.125 55.285156 C 32.402344 55.300781 32.632812 55.5 32.667969 55.761719 C 32.699219 56.023438 32.539062 56.273438 32.273438 56.359375 C 30.917969 56.796875 29.792969 58.050781 28.824219 59.546875 C 27.285156 61.945312 26.214844 64.976562 25.515625 66.71875 C 25.03125 67.917969 24.5625 68.679688 23.433594 69.429688 C 23.226562 69.566406 23.019531 69.695312 22.800781 69.816406 Z M 29.378906 94.113281 C 28.066406 93.394531 27 92.292969 26.148438 91.121094 C 25.007812 89.574219 24.640625 87.953125 24.710938 86.085938 C 24.734375 85.582031 24.871094 85 24.917969 84.4375 C 24.964844 84.011719 24.964844 83.59375 24.710938 83.25 C 23.941406 82.203125 22.492188 81.828125 21.308594 81.386719 C 20.917969 81.242188 19.730469 80.460938 19.730469 80.460938 C 19.570312 80.359375 19.492188 80.191406 19.492188 80.011719 C 19.480469 79.832031 19.570312 79.664062 19.71875 79.558594 C 19.71875 79.558594 21.238281 78.527344 21.558594 78.359375 C 23.203125 77.472656 27.03125 75.824219 28.871094 75.195312 C 29 75.152344 29.101562 75.117188 29.21875 75.085938 C 28.804688 74.898438 28.402344 74.707031 28 74.496094 C 26.089844 73.484375 24.421875 72.289062 22.710938 71.011719 C 22.570312 70.90625 21.480469 70.441406 21.226562 70.277344 C 21.054688 70.160156 20.996094 70.03125 20.972656 69.96875 C 20.917969 69.824219 20.882812 69.566406 21.15625 69.347656 C 21.25 69.273438 21.765625 69.070312 21.824219 69.050781 C 22.15625 68.910156 22.480469 68.726562 22.777344 68.523438 C 23.6875 67.917969 24.054688 67.292969 24.445312 66.324219 C 25.160156 64.535156 26.261719 61.429688 27.847656 58.972656 C 28.445312 58.027344 29.136719 57.179688 29.882812 56.519531 L 29.882812 56.515625 C 26.390625 57.082031 22.433594 59.242188 20.664062 61.992188 C 20.15625 62.800781 19.753906 63.71875 19.503906 64.632812 C 19.433594 64.871094 19.410156 65.210938 19.328125 65.507812 C 19.25 65.820312 19.097656 66.09375 18.894531 66.277344 C 18.605469 66.539062 18.167969 66.742188 17.683594 66.90625 C 17.109375 67.105469 16.445312 67.25 15.972656 67.472656 C 15.03125 67.917969 14.292969 68.953125 13.730469 70.007812 C 13.121094 71.148438 12.730469 72.335938 12.535156 72.984375 C 12.535156 72.984375 18.03125 74.609375 18.03125 74.609375 C 18.25 74.675781 18.410156 74.871094 18.433594 75.101562 C 18.445312 75.332031 18.304688 75.546875 18.085938 75.636719 C 18.085938 75.636719 14.316406 77.234375 13.386719 77.679688 C 13.316406 77.714844 13.097656 77.828125 12.878906 77.941406 C 13.144531 78.417969 13.523438 79.097656 13.617188 79.253906 C 13.902344 79.761719 14.191406 80.265625 14.511719 80.753906 C 15.257812 81.929688 16.054688 82.988281 17.214844 83.816406 C 17.582031 84.082031 18.054688 84.285156 18.511719 84.507812 C 19.066406 84.78125 19.582031 85.085938 19.949219 85.503906 C 20.328125 85.925781 20.582031 86.515625 20.789062 87.128906 C 20.972656 87.644531 21.132812 88.179688 21.351562 88.597656 C 22.894531 91.46875 24.984375 93.65625 28.480469 94.089844 C 28.6875 94.113281 29.011719 94.117188 29.378906 94.113281 Z M 29.378906 94.113281 " fill-opacity="1" fill-rule="evenodd"/><path fill="#000000" d="M 35.714844 80.195312 C 35.574219 80.097656 34.746094 79.515625 34.65625 79.445312 C 33.378906 78.453125 30.941406 76.15625 29.78125 75.046875 C 29.664062 74.945312 29.609375 74.8125 29.609375 74.667969 C 29.609375 74.546875 29.640625 74.386719 29.78125 74.230469 C 29.882812 74.121094 30.136719 73.96875 30.195312 73.929688 C 30.597656 73.644531 30.988281 73.363281 31.390625 73.082031 C 32.917969 71.992188 34.425781 70.785156 36.082031 69.855469 C 36.320312 69.714844 36.644531 69.773438 36.816406 69.996094 C 37.277344 70.554688 38.472656 71.109375 39.105469 71.527344 C 40.839844 72.675781 42.644531 73.730469 44.40625 74.839844 C 44.65625 74.902344 44.761719 75.132812 44.773438 75.179688 C 44.820312 75.292969 44.886719 75.542969 44.632812 75.78125 C 44.601562 75.804688 44.371094 75.929688 44.289062 75.984375 C 44.117188 76.09375 43.945312 76.203125 43.773438 76.3125 C 43.175781 76.707031 42.554688 77.066406 41.933594 77.425781 C 40.140625 78.464844 38.355469 79.539062 36.484375 80.429688 C 36.300781 80.519531 36.082031 80.503906 35.910156 80.398438 C 35.828125 80.34375 35.757812 80.277344 35.714844 80.195312 Z M 31.046875 74.699219 C 32.285156 75.875 34.277344 77.730469 35.378906 78.589844 C 35.472656 78.65625 36.011719 79 36.34375 79.261719 C 38.058594 78.421875 39.691406 77.433594 41.347656 76.480469 C 41.945312 76.136719 42.542969 75.785156 43.128906 75.40625 L 43.164062 75.378906 C 41.589844 74.402344 40 73.457031 38.449219 72.433594 C 37.875 72.054688 36.898438 71.542969 36.277344 71.027344 C 34.804688 71.902344 33.460938 72.988281 32.066406 73.96875 C 31.722656 74.210938 31.378906 74.453125 31.046875 74.699219 Z M 44.324219 75.921875 Z M 44.324219 75.921875 " fill-opacity="1" fill-rule="evenodd"/><path fill="#000000" d="M 11.707031 73.296875 L -0.0078125 75.769531 L 11.707031 77.648438 L 16.617188 75.242188 Z M 11.707031 73.296875 " fill-opacity="1" fill-rule="evenodd"/><path fill="#000000" d="M 172.039062 18.519531 C 171.914062 18.644531 172.078125 18.160156 172.121094 17.984375 C 172.21875 17.625 172.316406 17.269531 172.414062 16.914062 C 172.703125 15.949219 173.011719 14.988281 173.386719 14.054688 C 173.496094 13.78125 173.71875 13.058594 174.121094 13.363281 C 175.136719 14.121094 175.691406 15.859375 176.25 16.9375 C 177.636719 19.601562 179.042969 22.277344 180.304688 25.003906 C 180.75 25.945312 181.152344 26.902344 181.542969 27.867188 C 181.613281 28.070312 181.90625 28.601562 181.683594 28.808594 C 181.265625 29.21875 179.667969 27.867188 179.332031 27.632812 C 179.570312 27.691406 178.957031 27.3125 178.765625 27.167969 C 178.359375 26.878906 177.957031 26.527344 177.511719 26.304688 C 177.429688 26.339844 177.695312 27.363281 177.707031 27.421875 C 177.929688 28.617188 178.222656 29.800781 178.457031 30.992188 C 179.472656 36.085938 180.460938 41.1875 181.238281 46.320312 C 183.433594 60.832031 186.367188 74.949219 183.890625 89.636719 C 184.113281 89.753906 183.292969 92.210938 183.238281 92.425781 C 182.433594 95.449219 181.320312 98.425781 179.457031 100.972656 C 172.480469 110.523438 160.613281 113.65625 149.898438 116.867188 C 149.925781 117.003906 150.109375 116.683594 150.21875 116.601562 C 150.523438 116.394531 150.816406 116.183594 151.121094 115.992188 C 151.871094 115.503906 152.621094 115.019531 153.375 114.53125 C 155.722656 112.988281 158.058594 111.429688 160.40625 109.890625 C 167.492188 105.230469 174.898438 100.761719 180.429688 94.222656 C 180.445312 94.296875 180.640625 93.597656 180.652344 93.53125 C 180.738281 92.992188 180.804688 92.445312 180.875 91.902344 C 181.085938 90.074219 181.167969 88.222656 181.210938 86.382812 C 181.320312 80.878906 181.070312 75.324219 180.613281 69.839844 C 179.597656 57.773438 176.972656 45.78125 174.648438 33.90625 C 174.039062 30.808594 173.386719 27.679688 173.023438 24.542969 C 172.941406 23.851562 172.980469 22.207031 172.800781 21.042969 C 172.636719 19.875 172.246094 19.191406 172.039062 18.519531 Z M 172.039062 18.519531 " fill-opacity="1" fill-rule="evenodd"/><path fill="#000000" d="M 82.71875 48.816406 C 82.683594 48.929688 82.191406 49.363281 82.085938 49.5 C 81.621094 50.113281 81.179688 50.746094 80.773438 51.402344 C 79.363281 53.679688 78.015625 56.136719 77.363281 58.757812 C 77.050781 60.011719 76.824219 61.371094 77.167969 62.644531 C 77.941406 65.507812 82.066406 65.929688 84.339844 64.699219 C 86.019531 63.789062 87.058594 61.464844 87.125 59.621094 C 87.207031 57.355469 86.152344 55.480469 84.476562 54.035156 C 83.820312 53.46875 82.546875 52.886719 82.171875 52.0625 C 82.023438 51.742188 82.28125 51.332031 82.421875 51.054688 C 82.773438 50.363281 83.871094 49.226562 82.71875 48.816406 Z M 80.574219 55.617188 C 80.234375 55.898438 79.769531 56.867188 79.617188 57.269531 C 79.460938 57.675781 79.289062 58.085938 79.269531 58.523438 C 79.175781 60.585938 81.230469 61.117188 82.894531 60.917969 C 83.480469 60.847656 84.078125 60.753906 84.652344 60.605469 C 84.851562 60.554688 85.148438 60.464844 85.242188 60.253906 C 85.4375 59.796875 81.417969 55.667969 80.574219 55.617188 Z M 80.574219 55.617188 " fill-opacity="1" fill-rule="evenodd"/><path fill="#000000" d="M 162.753906 13.296875 C 162.71875 13.410156 162.226562 13.84375 162.121094 13.976562 C 161.65625 14.59375 161.210938 15.222656 160.804688 15.882812 C 159.398438 18.160156 158.050781 20.617188 157.398438 23.238281 C 157.085938 24.488281 156.859375 25.851562 157.203125 27.121094 C 157.976562 29.984375 162.097656 30.410156 164.375 29.179688 C 166.054688 28.269531 167.09375 25.945312 167.160156 24.101562 C 167.242188 21.835938 166.183594 19.957031 164.511719 18.511719 C 163.855469 17.949219 162.578125 17.367188 162.207031 16.542969 C 162.058594 16.222656 162.316406 15.8125 162.457031 15.53125 C 162.808594 14.839844 163.90625 13.707031 162.753906 13.296875 Z M 160.609375 20.097656 C 160.265625 20.375 159.804688 21.347656 159.648438 21.75 C 159.492188 22.152344 159.324219 22.5625 159.304688 23.003906 C 159.210938 25.066406 161.265625 25.597656 162.929688 25.398438 C 163.515625 25.328125 164.113281 25.234375 164.6875 25.085938 C 164.886719 25.035156 165.183594 24.945312 165.273438 24.734375 C 165.472656 24.277344 161.453125 20.148438 160.609375 20.097656 Z M 160.609375 20.097656 " fill-opacity="1" fill-rule="evenodd"/><path fill="#000000" d="M 187.496094 14.71875 C 187.433594 14.769531 187.570312 14.585938 187.605469 14.519531 C 187.675781 14.378906 187.746094 14.238281 187.816406 14.097656 C 188.039062 13.664062 188.261719 13.226562 188.476562 12.789062 C 189.082031 11.535156 189.769531 10.304688 190.367188 9.054688 C 190.367188 9.144531 190.53125 9.308594 190.574219 9.386719 C 190.714844 9.632812 190.835938 9.890625 190.964844 10.140625 C 191.398438 10.988281 191.789062 11.851562 192.203125 12.710938 C 193.878906 16.214844 195.773438 19.664062 197.289062 23.222656 C 197.527344 23.78125 197.761719 24.34375 197.964844 24.910156 C 198.082031 25.238281 198.195312 25.574219 198.28125 25.910156 C 198.324219 26.089844 198.363281 26.273438 198.386719 26.457031 C 198.398438 26.578125 198.40625 26.699219 198.402344 26.820312 C 198.398438 26.894531 198.390625 26.96875 198.367188 27.039062 C 198.121094 27.789062 197.195312 26.761719 196.957031 26.542969 C 196.855469 26.453125 196.75 26.359375 196.644531 26.265625 C 196.527344 26.160156 196.40625 26.058594 196.289062 25.953125 C 196.125 25.808594 195.964844 25.664062 195.800781 25.519531 C 195.582031 25.324219 195.367188 25.128906 195.152344 24.933594 C 194.929688 24.734375 194.707031 24.539062 194.5 24.332031 C 194.421875 24.257812 194.507812 24.53125 194.519531 24.632812 C 194.546875 24.871094 194.578125 25.113281 194.605469 25.351562 C 194.683594 25.984375 194.765625 26.617188 194.867188 27.242188 C 195.160156 29.089844 195.5 30.929688 195.808594 32.773438 C 196.75 38.363281 197.507812 43.984375 198.21875 49.597656 C 198.0625 49.566406 198.277344 49.859375 198.300781 49.988281 C 198.359375 50.304688 198.394531 50.621094 198.445312 50.9375 C 198.578125 51.808594 198.710938 52.675781 198.839844 53.546875 C 199.210938 56.054688 199.566406 58.566406 199.878906 61.082031 C 201.085938 70.828125 203.320312 81.179688 201.429688 91.015625 C 201.019531 93.144531 200.761719 95.574219 199.441406 97.484375 C 199.261719 97.742188 198.335938 99.152344 197.863281 99.117188 C 197.761719 99.109375 197.71875 99.015625 197.695312 98.945312 C 197.28125 97.71875 197.824219 95.902344 197.816406 94.648438 C 197.789062 89.644531 197.503906 84.679688 196.921875 79.703125 C 194.964844 62.894531 188.738281 20.851562 188.609375 16.898438 C 188.609375 16.898438 188.324219 16.351562 188.296875 16.300781 C 188.085938 15.90625 187.722656 15.109375 187.496094 14.71875 Z M 187.496094 14.71875 " fill-opacity="1" fill-rule="evenodd"/><path fill="#000000" d="M 130.164062 30.757812 C 130.132812 30.832031 130.164062 30.621094 130.160156 30.550781 C 130.15625 30.40625 130.148438 30.265625 130.144531 30.121094 C 130.132812 29.671875 130.121094 29.21875 130.097656 28.773438 C 130.03125 27.5 130.042969 26.195312 129.96875 24.925781 C 130.011719 24.996094 130.226562 25.035156 130.304688 25.070312 C 130.535156 25.1875 130.757812 25.316406 130.984375 25.441406 C 131.746094 25.859375 132.480469 26.3125 133.226562 26.75 C 136.28125 28.542969 139.496094 30.175781 142.4375 32.089844 C 142.898438 32.390625 143.355469 32.699219 143.792969 33.023438 C 144.046875 33.214844 144.296875 33.410156 144.523438 33.621094 C 144.644531 33.734375 144.765625 33.855469 144.867188 33.984375 C 144.9375 34.070312 145 34.15625 145.050781 34.253906 C 145.085938 34.3125 145.109375 34.371094 145.125 34.4375 C 145.265625 35.136719 144 34.839844 143.695312 34.800781 C 143.5625 34.785156 143.433594 34.769531 143.300781 34.753906 C 143.152344 34.738281 143.003906 34.71875 142.851562 34.703125 C 142.648438 34.679688 142.441406 34.652344 142.238281 34.628906 C 141.960938 34.59375 141.6875 34.558594 141.414062 34.523438 C 141.132812 34.488281 140.851562 34.457031 140.578125 34.410156 C 140.480469 34.394531 140.679688 34.558594 140.734375 34.625 C 140.871094 34.796875 141.007812 34.964844 141.144531 35.132812 C 141.5 35.574219 141.867188 36.011719 142.242188 36.4375 C 143.351562 37.691406 144.496094 38.917969 145.613281 40.160156 C 149.007812 43.929688 152.261719 47.820312 155.476562 51.730469 C 155.328125 51.785156 155.644531 51.898438 155.726562 51.984375 C 155.921875 52.191406 156.101562 52.417969 156.289062 52.632812 C 156.808594 53.222656 157.324219 53.816406 157.835938 54.414062 C 159.316406 56.136719 160.785156 57.863281 162.21875 59.617188 C 167.773438 66.417969 174.480469 73.140625 177.4375 81.640625 C 178.082031 83.480469 178.992188 85.472656 178.753906 87.625 C 178.722656 87.917969 178.589844 89.480469 178.171875 89.703125 C 178.082031 89.75 178.003906 89.699219 177.949219 89.660156 C 177.027344 88.941406 176.644531 87.269531 176.054688 86.316406 C 173.710938 82.511719 171.160156 78.875 168.359375 75.382812 C 158.886719 63.589844 134.066406 34.789062 132.121094 31.839844 C 132.121094 31.839844 131.625 31.570312 131.578125 31.546875 C 131.214844 31.355469 130.535156 30.941406 130.164062 30.757812 Z M 130.164062 30.757812 " fill-opacity="1" fill-rule="evenodd"/><path fill="#000000" d="M 88.160156 80.933594 C 88.21875 80.339844 88.824219 79.582031 89.066406 79.046875 C 89.914062 77.199219 91.414062 74.097656 90.234375 72.113281 C 88.957031 69.972656 86.078125 71.445312 84.492188 72.359375 C 81.773438 73.921875 79.316406 76.167969 77.253906 78.511719 C 76.0625 79.871094 74.863281 81.386719 74.378906 83.164062 C 73.664062 85.769531 75.855469 87.871094 77.726562 89.332031 C 78.125 89.640625 80.21875 90.683594 80.21875 91.242188 C 80.21875 91.894531 79.378906 92.714844 79.027344 93.195312 C 78.058594 94.5 77.101562 95.808594 76.261719 97.199219 C 76.140625 97.402344 75.117188 98.933594 75.523438 99.136719 C 75.898438 99.328125 76.8125 98.609375 77.089844 98.4375 C 78.820312 97.375 80.460938 96.175781 82.113281 94.992188 C 85.199219 92.777344 88.238281 90.511719 91.457031 88.476562 C 92.890625 87.566406 94.34375 86.679688 95.796875 85.808594 C 96.304688 85.507812 97.273438 85.113281 97.460938 84.488281 C 97.714844 83.601562 97.316406 82.324219 97.128906 81.449219 C 96.679688 79.410156 93.503906 81.878906 92.644531 82.421875 C 91.015625 83.453125 89.078125 85.128906 87.125 85.488281 C 84.515625 85.96875 80.25 83.320312 79.921875 80.65625 C 80.019531 80.761719 80.007812 80.371094 80.085938 80.246094 C 80.230469 80.019531 80.40625 79.808594 80.582031 79.609375 C 81.199219 78.9375 81.902344 78.25 82.773438 77.941406 C 84.625 77.289062 87.160156 79.621094 88.160156 80.933594 Z M 88.160156 80.933594 " fill-opacity="1" fill-rule="evenodd"/><path fill="#000000" d="M 180.492188 116.25 C 180.53125 115.875 180.984375 115.398438 181.164062 115.058594 C 181.800781 113.890625 182.917969 111.929688 182.039062 110.675781 C 181.082031 109.324219 178.933594 110.253906 177.75 110.832031 C 175.714844 111.816406 173.878906 113.238281 172.339844 114.71875 C 171.453125 115.578125 170.554688 116.539062 170.191406 117.660156 C 169.65625 119.308594 171.296875 120.636719 172.695312 121.558594 C 172.992188 121.753906 174.554688 122.414062 174.554688 122.765625 C 174.554688 123.179688 173.929688 123.699219 173.667969 124 C 172.941406 124.824219 172.226562 125.652344 171.601562 126.53125 C 171.507812 126.660156 170.742188 127.628906 171.046875 127.757812 C 171.328125 127.878906 172.011719 127.425781 172.21875 127.316406 C 173.511719 126.644531 174.738281 125.886719 175.972656 125.136719 C 178.277344 123.738281 180.546875 122.304688 182.953125 121.015625 C 184.023438 120.441406 185.109375 119.882812 186.195312 119.332031 C 186.574219 119.140625 187.296875 118.894531 187.4375 118.496094 C 187.628906 117.9375 187.332031 117.128906 187.191406 116.578125 C 186.855469 115.289062 184.484375 116.847656 183.839844 117.191406 C 182.621094 117.84375 181.171875 118.902344 179.714844 119.128906 C 177.765625 119.433594 174.578125 117.757812 174.332031 116.074219 C 174.40625 116.144531 174.398438 115.894531 174.457031 115.816406 C 174.5625 115.671875 174.695312 115.539062 174.828125 115.414062 C 175.289062 114.988281 175.816406 114.554688 176.464844 114.359375 C 177.847656 113.945312 179.742188 115.421875 180.492188 116.25 Z M 180.492188 116.25 " fill-opacity="1" fill-rule="evenodd"/><path fill="#000000" d="M 164.867188 80.875 C 164.890625 80.921875 164.230469 81.90625 164.140625 82.074219 C 163.394531 83.347656 162.566406 84.644531 162.003906 86.007812 C 161.707031 86.714844 162.609375 87.273438 162.984375 87.769531 C 163.976562 89.09375 164.617188 91.285156 162.753906 92.246094 C 162.367188 92.449219 161.925781 92.53125 161.488281 92.558594 C 158.875 92.726562 156.363281 90.644531 155.648438 88.203125 C 155.316406 87.050781 155.261719 85.800781 155.152344 84.609375 C 155.117188 84.28125 155.085938 83.527344 154.578125 83.617188 C 153.378906 83.824219 152.164062 86.179688 151.492188 87.050781 C 149.136719 90.152344 146.203125 94.503906 141.710938 93.898438 C 138.636719 93.484375 136.289062 91.175781 133.953125 89.351562 C 131.132812 87.136719 128.210938 85.535156 124.542969 86.132812 C 120.101562 86.859375 115.058594 88.972656 111.507812 91.386719 C 105.230469 95.660156 99.917969 101.304688 94.738281 106.820312 C 91.355469 110.425781 87.863281 114.628906 83.425781 116.980469 C 82.433594 117.503906 81.386719 117.921875 80.273438 118.082031 C 73.839844 119.003906 71.667969 112.414062 72.351562 107.152344 C 72.746094 104.042969 73.851562 100.957031 75.667969 98.386719 C 76.351562 97.417969 77.132812 96.535156 77.9375 95.660156 C 78.015625 95.585938 79.09375 94.234375 78.71875 94.332031 C 77.980469 94.519531 77.253906 95.324219 76.738281 95.816406 C 75.316406 97.144531 73.992188 98.605469 72.902344 100.210938 C 68.078125 107.300781 67.570312 119.777344 77.429688 122.738281 C 78.742188 123.128906 80.054688 123.375 81.429688 123.304688 C 87.214844 123.007812 91.765625 117.898438 95.355469 113.894531 C 101.660156 106.855469 107.828125 98.863281 116.367188 94.378906 C 117.703125 93.675781 119.144531 93.070312 120.632812 92.761719 C 123.605469 92.148438 126.726562 92.90625 128.984375 94.941406 C 131.519531 97.214844 133.214844 100.488281 136.839844 101.1875 C 140.917969 101.976562 145.09375 99.171875 147.957031 96.59375 C 148.726562 95.90625 149.445312 95.171875 150.105469 94.378906 C 150.347656 94.085938 150.699219 93.4375 151.117188 93.347656 C 151.4375 93.277344 152.40625 95.609375 152.59375 95.90625 C 153.695312 97.609375 154.964844 99.144531 157.011719 99.652344 C 159.824219 100.34375 163.523438 98.300781 165.300781 96.226562 C 168.449219 92.558594 167.269531 85.386719 164.867188 80.875 Z M 164.867188 80.875 " fill-opacity="1" fill-rule="evenodd"/><path fill="#000000" d="M 94.375 30.710938 C 94.308594 30.757812 94.445312 30.578125 94.480469 30.511719 C 94.550781 30.371094 94.621094 30.230469 94.691406 30.089844 C 94.914062 29.65625 95.140625 29.21875 95.351562 28.78125 C 95.957031 27.527344 96.644531 26.296875 97.242188 25.042969 C 97.242188 25.132812 97.40625 25.296875 97.449219 25.378906 C 97.589844 25.625 97.710938 25.882812 97.839844 26.132812 C 98.277344 26.980469 98.667969 27.84375 99.078125 28.703125 C 100.753906 32.207031 102.648438 35.65625 104.167969 39.214844 C 104.40625 39.769531 104.636719 40.335938 104.839844 40.902344 C 104.957031 41.230469 105.074219 41.566406 105.15625 41.902344 C 105.199219 42.082031 105.238281 42.265625 105.261719 42.449219 C 105.277344 42.570312 105.28125 42.691406 105.277344 42.8125 C 105.277344 42.886719 105.265625 42.960938 105.242188 43.03125 C 105 43.78125 104.074219 42.753906 103.832031 42.535156 C 103.730469 42.441406 103.625 42.351562 103.519531 42.257812 C 103.402344 42.152344 103.285156 42.046875 103.164062 41.945312 C 103.003906 41.800781 102.839844 41.65625 102.675781 41.511719 C 102.460938 41.316406 102.242188 41.121094 102.027344 40.925781 C 101.808594 40.726562 101.585938 40.53125 101.375 40.324219 C 101.296875 40.25 101.382812 40.523438 101.394531 40.625 C 101.421875 40.863281 101.453125 41.105469 101.480469 41.34375 C 101.558594 41.976562 101.644531 42.605469 101.742188 43.234375 C 102.035156 45.082031 102.375 46.921875 102.6875 48.765625 C 103.625 54.351562 104.382812 59.976562 105.09375 65.589844 C 104.941406 65.558594 105.152344 65.851562 105.175781 65.980469 C 105.238281 66.296875 105.269531 66.613281 105.320312 66.929688 C 105.457031 67.796875 105.589844 68.667969 105.714844 69.535156 C 106.085938 72.046875 106.441406 74.558594 106.753906 77.074219 C 107.960938 86.820312 110.195312 97.171875 108.304688 107.003906 C 107.894531 109.132812 107.640625 111.566406 106.316406 113.476562 C 106.136719 113.734375 105.210938 115.144531 104.738281 115.109375 C 104.636719 115.101562 104.59375 115.007812 104.574219 114.9375 C 104.15625 113.710938 104.699219 111.894531 104.691406 110.640625 C 104.667969 105.636719 104.378906 100.671875 103.800781 95.695312 C 101.839844 78.886719 95.613281 36.84375 95.488281 32.890625 C 95.488281 32.890625 95.199219 32.34375 95.171875 32.292969 C 94.960938 31.898438 94.597656 31.101562 94.375 30.710938 Z M 94.375 30.710938 " fill-opacity="1" fill-rule="evenodd"/><path fill="#000000" d="M 286.667969 75.265625 C 286.691406 75.25 286.703125 75.230469 286.679688 75.199219 C 286.667969 75.222656 286.667969 75.242188 286.667969 75.265625 C 286.589844 75.308594 286.347656 75.3125 286.25 75.363281 C 285.929688 75.523438 285.621094 75.691406 285.3125 75.867188 C 284.367188 76.386719 283.507812 76.996094 282.65625 77.648438 C 280.300781 79.460938 277.613281 82.375 274.371094 82.332031 C 274.417969 82.160156 274.019531 81.695312 273.941406 81.570312 C 273.445312 80.769531 272.917969 79.996094 272.410156 79.199219 C 270.394531 75.996094 267.035156 71.449219 262.78125 74.25 C 259.421875 76.46875 256.644531 80.785156 256.039062 84.757812 C 255.542969 87.976562 256.984375 91.0625 260.28125 92.023438 C 264.058594 93.121094 268.929688 90.878906 272.148438 88.992188 C 272.167969 88.976562 272.390625 89.375 272.410156 89.425781 C 272.566406 89.710938 272.699219 90 272.839844 90.289062 C 273.238281 91.148438 273.632812 92.097656 273.589844 93.0625 C 273.566406 93.074219 273.316406 93.308594 273.257812 93.363281 C 273.070312 93.558594 272.875 93.742188 272.675781 93.925781 C 272.003906 94.542969 271.332031 95.152344 270.679688 95.78125 C 268.839844 97.546875 266.914062 99.195312 264.941406 100.8125 C 259.320312 105.441406 251.929688 111.929688 244.148438 111.84375 C 235.84375 111.757812 230.070312 104.800781 230.882812 96.679688 C 231.117188 94.429688 231.554688 92.210938 232.140625 90.027344 C 232.238281 89.621094 232.84375 88.101562 232.558594 87.710938 C 232.304688 87.355469 231.3125 88.914062 231.238281 89.03125 C 230.234375 90.679688 229.628906 92.46875 229.242188 94.355469 C 228.25 99.136719 228.382812 104.554688 230.433594 109.058594 C 234.046875 116.992188 243.71875 119.832031 251.511719 116.734375 C 255.542969 115.132812 259.089844 112.394531 262.472656 109.730469 C 265.636719 107.234375 268.886719 104.640625 271.296875 101.371094 C 272.609375 99.601562 274.527344 97.328125 275.078125 95.144531 C 275.707031 92.691406 275.539062 90.054688 275.199219 87.660156 C 275.1875 87.605469 275.671875 87.417969 275.726562 87.394531 C 276.246094 87.132812 276.773438 86.878906 277.292969 86.621094 C 279.296875 85.625 281.390625 84.664062 283.085938 83.183594 C 283.207031 83.078125 283.109375 83.511719 283.144531 83.671875 C 283.199219 83.949219 283.296875 84.21875 283.394531 84.484375 C 283.695312 85.261719 284.011719 86.03125 284.375 86.78125 C 285.511719 89.105469 287.5625 90.929688 290.074219 91.601562 C 291.164062 91.890625 292.332031 92.082031 293.464844 91.988281 C 298.183594 91.585938 300.902344 86.832031 302.292969 82.804688 C 302.292969 82.796875 302.304688 82.792969 302.304688 82.796875 L 302.292969 82.804688 C 302.304688 82.902344 302.789062 84.023438 302.855469 84.140625 C 303.371094 85.042969 304 85.910156 304.714844 86.671875 C 306.941406 89.039062 310.609375 89.703125 313.574219 88.414062 C 315.546875 87.550781 316.660156 85.929688 317.519531 84.023438 C 319.28125 80.117188 318.445312 74.1875 316.988281 70.210938 C 317.035156 70.015625 316.757812 70.546875 316.625 70.699219 C 316.328125 71.058594 316 71.398438 315.699219 71.753906 C 314.796875 72.804688 313.726562 73.824219 312.96875 74.996094 C 312.902344 75.089844 314.234375 76.6875 314.34375 76.9375 C 315.359375 79.15625 313.605469 81.414062 311.304688 81.542969 C 307.910156 81.730469 305.992188 78.78125 305.609375 75.761719 C 305.476562 74.722656 305.496094 73.664062 305.3125 72.632812 C 305.253906 72.300781 305.089844 71.742188 304.660156 71.753906 C 304.1875 71.769531 303.890625 72.441406 303.722656 72.804688 C 303.195312 74.007812 303.140625 75.355469 302.820312 76.613281 C 302.488281 77.890625 301.773438 78.992188 301.070312 80.09375 C 299.769531 82.144531 298.203125 84.707031 295.792969 85.566406 C 292.90625 86.59375 289.179688 84.773438 287.714844 82.203125 C 286.65625 80.332031 286.347656 77.402344 286.667969 75.265625 Z M 273.589844 93.0625 Z M 260.292969 83.882812 C 260.390625 82.605469 261.09375 81.339844 261.976562 80.421875 C 262.40625 79.980469 262.945312 79.5 263.617188 79.617188 C 264.929688 79.851562 266.242188 80.925781 267.101562 81.886719 C 267.277344 82.089844 267.871094 82.644531 267.785156 82.964844 C 267.683594 83.28125 267.210938 83.464844 266.945312 83.582031 C 266.121094 83.945312 265.207031 84.164062 264.324219 84.289062 C 263.375 84.425781 260.796875 84.472656 260.292969 83.882812 Z M 260.292969 83.882812 " fill-opacity="1" fill-rule="evenodd"/><path fill="#000000" d="M 237.964844 76.320312 C 237.894531 76.398438 237.863281 76.660156 237.832031 76.765625 C 237.722656 77.144531 237.617188 77.527344 237.515625 77.910156 C 237.164062 79.234375 236.796875 80.554688 236.441406 81.878906 C 236.328125 82.292969 236.214844 82.710938 236.101562 83.125 C 236.066406 83.246094 235.945312 83.5 235.984375 83.628906 C 236.023438 83.75 236.335938 83.875 236.429688 83.9375 C 236.753906 84.152344 237.0625 84.40625 237.328125 84.6875 C 237.324219 84.65625 237.417969 84.835938 237.425781 84.855469 C 237.480469 84.996094 237.546875 85.132812 237.605469 85.273438 C 237.785156 85.691406 237.929688 86.125 238.09375 86.546875 C 238.582031 87.824219 239.078125 89.097656 239.617188 90.359375 C 240.601562 92.679688 241.746094 94.949219 242.945312 97.171875 C 243.449219 98.105469 243.941406 99.042969 244.414062 99.992188 C 244.628906 100.421875 244.910156 100.859375 245.054688 101.320312 C 245.269531 102.015625 243.53125 103 243.03125 103.515625 C 241.121094 105.488281 239.046875 107.296875 236.878906 108.992188 C 228.386719 115.625 216.828125 122.207031 205.765625 117.632812 C 205.878906 117.734375 205.496094 117.484375 205.367188 117.398438 C 205.097656 117.21875 204.84375 117.019531 204.597656 116.8125 C 203.808594 116.15625 203.105469 115.445312 202.507812 114.613281 C 200.734375 112.144531 199.984375 109.238281 199.859375 106.25 C 199.683594 101.976562 200.433594 97.828125 201.785156 93.777344 C 201.929688 93.34375 202.074219 92.910156 202.226562 92.476562 C 202.355469 92.105469 202.488281 91.738281 202.613281 91.367188 C 202.699219 91.121094 202.78125 90.875 202.859375 90.625 C 202.925781 90.425781 202.988281 90.222656 203.046875 90.023438 C 203.097656 89.855469 203.148438 89.6875 203.195312 89.515625 C 203.292969 89.171875 204 87.207031 203.046875 87.449219 C 203.117188 87.609375 202.804688 87.707031 202.714844 87.855469 C 202.398438 88.378906 202.121094 88.925781 201.859375 89.476562 C 200.84375 91.613281 199.972656 93.796875 199.25 96.046875 C 197.128906 102.65625 195.023438 110.851562 198.15625 117.441406 C 198.253906 117.414062 198.226562 117.625 198.261719 117.71875 C 198.339844 117.914062 198.429688 118.109375 198.511719 118.304688 C 198.773438 118.898438 199.078125 119.46875 199.410156 120.023438 C 200.351562 121.609375 201.757812 122.949219 203.214844 124.082031 C 207.132812 127.125 212.4375 127.113281 217.167969 126.515625 C 217.164062 126.496094 217.542969 126.410156 217.558594 126.40625 C 218.011719 126.289062 218.464844 126.179688 218.910156 126.050781 C 220.058594 125.722656 221.199219 125.339844 222.28125 124.835938 C 225.640625 123.277344 229.054688 121.660156 231.9375 119.347656 C 231.9375 119.355469 235.753906 116.433594 236.835938 115.597656 C 240.117188 113.054688 243.425781 110.007812 245.457031 106.367188 C 245.527344 106.238281 245.769531 105.679688 245.820312 105.5625 C 246.167969 104.726562 246.453125 103.863281 246.675781 102.984375 C 247.214844 100.859375 247.457031 98.453125 247.011719 96.28125 C 246.722656 94.890625 246.15625 93.605469 245.601562 92.304688 C 245.699219 92.34375 245.527344 92.105469 245.484375 92.007812 C 245.414062 91.832031 245.335938 91.660156 245.257812 91.488281 C 244.992188 90.898438 244.730469 90.304688 244.460938 89.714844 C 243.695312 88.042969 242.488281 86.382812 242.042969 84.585938 C 241.929688 84.128906 242.402344 84.449219 242.605469 84.566406 C 243.109375 84.863281 243.605469 85.203125 244.140625 85.445312 C 244.316406 85.523438 244.632812 85.644531 244.695312 85.375 C 244.847656 84.675781 244.09375 83.683594 243.75 83.152344 C 242.636719 81.429688 240.175781 78.667969 237.964844 76.320312 Z M 237.964844 76.320312 " fill-opacity="1" fill-rule="evenodd"/><path fill="#000000" d="M 217.011719 57.472656 C 217.023438 57.191406 217.542969 57.664062 217.816406 57.742188 C 218.5 57.949219 219.207031 58.128906 219.910156 58.277344 C 219.964844 58.285156 220.558594 58.441406 220.558594 58.339844 C 220.539062 57.746094 219.027344 56.742188 218.644531 56.394531 C 216.835938 54.722656 215.03125 53.050781 213.144531 51.46875 C 212.792969 51.175781 211.414062 49.722656 210.875 49.914062 C 210.5 50.046875 210.28125 50.667969 210.125 50.988281 C 209.675781 51.960938 209.257812 52.945312 208.828125 53.925781 C 208.707031 54.199219 208.296875 54.835938 208.441406 55.160156 C 208.59375 55.492188 209.058594 55.40625 209.332031 55.566406 C 209.707031 55.796875 209.960938 56.332031 210.179688 56.683594 C 212.507812 60.265625 215.28125 63.449219 217.925781 66.789062 C 217.917969 66.796875 218.160156 67.035156 218.179688 67.0625 C 218.167969 67.054688 217.332031 68.066406 217.277344 68.132812 C 216.175781 69.445312 215.183594 70.847656 214.234375 72.257812 C 211.570312 76.179688 210.699219 81.648438 211.933594 86.21875 C 212.628906 88.804688 214.664062 91.394531 217.574219 91.179688 C 219.8125 91.015625 221.980469 89.261719 223.546875 87.796875 C 227.371094 84.230469 231.886719 78.894531 229.726562 73.304688 C 228.878906 71.132812 227.480469 69.175781 225.960938 67.433594 C 225.496094 66.917969 224.140625 65.960938 224.328125 65.167969 C 224.660156 63.828125 225.949219 62.550781 226.730469 61.476562 C 228.757812 58.714844 231.65625 55.546875 232.535156 52.140625 C 232.84375 50.917969 233.230469 48.40625 232.492188 47.246094 C 232.382812 47.085938 232.03125 47.582031 231.984375 47.644531 C 231.511719 48.234375 231.148438 48.921875 230.753906 49.558594 C 229.761719 51.152344 228.734375 52.726562 227.667969 54.277344 C 226.820312 55.515625 225.9375 56.730469 225.066406 57.960938 C 224.21875 59.15625 223.371094 60.34375 222.511719 61.523438 C 222.34375 61.746094 221.9375 62.519531 221.597656 62.535156 C 220.746094 62.570312 217.550781 58.050781 217.011719 57.472656 Z M 220.660156 69.871094 C 220.804688 69.710938 219.8125 70.726562 219.691406 70.898438 C 219.46875 71.207031 219.238281 71.519531 219.019531 71.828125 C 218.355469 72.742188 217.730469 73.667969 217.113281 74.605469 C 215.382812 77.222656 212.417969 83.027344 217.011719 84.542969 C 220.03125 85.539062 222.960938 82.304688 224.691406 80.277344 C 225.410156 79.453125 226.457031 78.347656 226.457031 77.179688 C 226.464844 76.503906 226.027344 75.84375 225.671875 75.300781 C 224.660156 73.753906 222.09375 71.035156 220.660156 69.871094 Z M 220.660156 69.871094 " fill-opacity="1" fill-rule="evenodd"/><path fill="#000000" d="M 248.1875 35.035156 C 248.210938 35.070312 248.117188 35.21875 248.097656 35.253906 C 247.980469 35.480469 247.855469 35.710938 247.722656 35.9375 C 247.691406 35.988281 247.613281 36.164062 247.515625 36.15625 C 247.371094 36.144531 247.144531 35.9375 247.039062 35.867188 C 246.652344 35.601562 246.253906 35.34375 245.875 35.070312 C 245.453125 34.765625 245.03125 34.460938 244.597656 34.167969 C 244.34375 34 244.003906 33.851562 243.820312 33.621094 C 243.625 33.375 243.632812 33.023438 243.605469 32.742188 C 243.542969 32.054688 243.527344 31.34375 243.75 30.671875 C 243.953125 30.050781 244.339844 29.222656 245.199219 29.097656 C 246.101562 28.964844 247.046875 29.625 247.742188 30.023438 C 249.148438 30.820312 250.035156 31.917969 250.824219 33.160156 C 251.523438 34.273438 252.082031 35.425781 252.433594 36.65625 C 252.648438 37.398438 252.777344 38.171875 253.035156 38.90625 C 253.144531 39.21875 253.289062 39.617188 253.640625 39.804688 C 253.636719 39.851562 253.667969 39.707031 253.675781 39.65625 C 253.691406 39.5625 253.710938 39.464844 253.726562 39.363281 C 253.773438 39.082031 253.8125 38.800781 253.851562 38.515625 C 253.980469 37.636719 254.132812 36.769531 254.363281 35.90625 C 254.96875 33.613281 255.84375 31.15625 257.40625 29.1875 C 258.101562 28.308594 259.175781 27.34375 260.570312 27.800781 C 261.539062 28.117188 262.203125 29.046875 262.65625 29.785156 C 262.804688 30.027344 263.070312 30.394531 263.054688 30.679688 C 263.027344 31.238281 262.546875 31.878906 262.296875 32.382812 C 262.121094 32.734375 261.957031 33.09375 261.75 33.433594 C 261.679688 33.550781 261.585938 33.742188 261.4375 33.808594 C 261.164062 33.921875 260.824219 33.226562 260.75 33.109375 C 260.339844 32.46875 259.726562 31.460938 258.707031 31.511719 C 257.636719 31.5625 257.167969 32.707031 256.839844 33.394531 C 255.863281 35.449219 255.328125 37.566406 254.773438 39.71875 C 254.757812 39.71875 254.675781 40.035156 254.667969 40.058594 C 254.53125 40.441406 254.394531 40.832031 254.273438 41.222656 C 253.910156 42.367188 253.671875 43.570312 253.148438 44.671875 C 253.070312 44.839844 252.71875 45.671875 252.332031 45.472656 C 252.140625 45.375 252.109375 45.070312 252.078125 44.90625 C 251.988281 44.421875 251.886719 43.9375 251.765625 43.457031 C 251.621094 42.894531 251.480469 42.335938 251.351562 41.773438 C 251.152344 40.914062 250.929688 40.054688 250.609375 39.222656 C 250.179688 38.101562 249.148438 35.554688 248.1875 35.035156 Z M 248.1875 35.035156 " fill-opacity="1" fill-rule="evenodd"/><path fill="#000000" d="M 113.648438 37.179688 C 113.671875 37.214844 113.574219 37.363281 113.558594 37.398438 C 113.441406 37.628906 113.316406 37.855469 113.183594 38.082031 C 113.152344 38.136719 113.070312 38.308594 112.976562 38.300781 C 112.832031 38.292969 112.601562 38.082031 112.5 38.011719 C 112.113281 37.746094 111.714844 37.492188 111.335938 37.214844 C 110.914062 36.910156 110.492188 36.605469 110.054688 36.316406 C 109.804688 36.148438 109.464844 35.996094 109.28125 35.765625 C 109.082031 35.519531 109.089844 35.171875 109.066406 34.886719 C 109 34.199219 108.988281 33.488281 109.207031 32.816406 C 109.414062 32.195312 109.800781 31.367188 110.660156 31.242188 C 111.5625 31.109375 112.503906 31.773438 113.199219 32.167969 C 114.609375 32.964844 115.496094 34.066406 116.28125 35.308594 C 116.984375 36.417969 117.542969 37.574219 117.894531 38.800781 C 118.109375 39.546875 118.238281 40.320312 118.496094 41.054688 C 118.605469 41.367188 118.746094 41.765625 119.097656 41.949219 C 119.09375 41.996094 119.125 41.855469 119.136719 41.804688 C 119.152344 41.707031 119.167969 41.609375 119.1875 41.511719 C 119.234375 41.230469 119.273438 40.945312 119.3125 40.660156 C 119.4375 39.785156 119.59375 38.914062 119.820312 38.050781 C 120.429688 35.761719 121.304688 33.304688 122.863281 31.335938 C 123.5625 30.457031 124.636719 29.492188 126.03125 29.949219 C 126.996094 30.265625 127.664062 31.195312 128.117188 31.929688 C 128.265625 32.175781 128.53125 32.542969 128.515625 32.824219 C 128.488281 33.386719 128.007812 34.023438 127.757812 34.527344 C 127.582031 34.878906 127.417969 35.238281 127.210938 35.582031 C 127.136719 35.695312 127.046875 35.890625 126.898438 35.953125 C 126.621094 36.070312 126.285156 35.375 126.207031 35.253906 C 125.800781 34.617188 125.1875 33.609375 124.167969 33.65625 C 123.097656 33.710938 122.625 34.851562 122.300781 35.539062 C 121.324219 37.597656 120.785156 39.710938 120.234375 41.863281 C 120.21875 41.867188 120.136719 42.179688 120.128906 42.203125 C 119.992188 42.589844 119.855469 42.976562 119.730469 43.367188 C 119.367188 44.511719 119.132812 45.71875 118.609375 46.820312 C 118.527344 46.988281 118.179688 47.816406 117.792969 47.617188 C 117.601562 47.519531 117.566406 47.214844 117.539062 47.054688 C 117.449219 46.566406 117.347656 46.085938 117.226562 45.605469 C 117.082031 45.042969 116.941406 44.480469 116.808594 43.917969 C 116.609375 43.058594 116.386719 42.203125 116.070312 41.367188 C 115.640625 40.25 114.605469 37.703125 113.648438 37.179688 Z M 113.648438 37.179688 " fill-opacity="1" fill-rule="evenodd"/><path fill="#000000" d="M 248.1875 63.472656 C 248.210938 63.507812 248.117188 63.652344 248.097656 63.6875 C 247.980469 63.917969 247.855469 64.148438 247.722656 64.371094 C 247.691406 64.425781 247.613281 64.597656 247.515625 64.59375 C 247.371094 64.582031 247.144531 64.371094 247.039062 64.304688 C 246.652344 64.035156 246.253906 63.78125 245.875 63.507812 C 245.453125 63.203125 245.03125 62.894531 244.597656 62.605469 C 244.34375 62.4375 244.003906 62.285156 243.820312 62.058594 C 243.625 61.8125 243.632812 61.460938 243.605469 61.175781 C 243.542969 60.488281 243.527344 59.78125 243.75 59.109375 C 243.953125 58.488281 244.339844 57.660156 245.199219 57.535156 C 246.101562 57.402344 247.046875 58.0625 247.742188 58.457031 C 249.148438 59.253906 250.035156 60.355469 250.824219 61.597656 C 251.523438 62.710938 252.082031 63.863281 252.433594 65.089844 C 252.648438 65.835938 252.777344 66.609375 253.035156 67.34375 C 253.144531 67.65625 253.289062 68.054688 253.640625 68.242188 C 253.636719 68.289062 253.667969 68.144531 253.675781 68.09375 C 253.691406 67.996094 253.710938 67.898438 253.726562 67.800781 C 253.773438 67.519531 253.8125 67.234375 253.851562 66.953125 C 253.980469 66.074219 254.132812 65.203125 254.363281 64.339844 C 254.96875 62.050781 255.84375 59.59375 257.40625 57.625 C 258.101562 56.746094 259.175781 55.78125 260.570312 56.238281 C 261.539062 56.554688 262.203125 57.484375 262.65625 58.222656 C 262.804688 58.464844 263.070312 58.832031 263.054688 59.117188 C 263.027344 59.675781 262.546875 60.3125 262.296875 60.816406 C 262.121094 61.171875 261.957031 61.53125 261.75 61.871094 C 261.679688 61.984375 261.585938 62.179688 261.4375 62.242188 C 261.164062 62.359375 260.824219 61.664062 260.75 61.542969 C 260.339844 60.90625 259.726562 59.898438 258.707031 59.949219 C 257.636719 60 257.167969 61.140625 256.839844 61.828125 C 255.863281 63.886719 255.328125 66 254.773438 68.152344 C 254.757812 68.15625 254.675781 68.46875 254.667969 68.492188 C 254.53125 68.878906 254.394531 69.265625 254.273438 69.65625 C 253.910156 70.800781 253.671875 72.007812 253.148438 73.109375 C 253.070312 73.277344 252.71875 74.105469 252.332031 73.910156 C 252.140625 73.808594 252.109375 73.507812 252.078125 73.34375 C 251.988281 72.855469 251.886719 72.375 251.765625 71.894531 C 251.621094 71.332031 251.480469 70.769531 251.351562 70.207031 C 251.152344 69.351562 250.929688 68.492188 250.609375 67.660156 C 250.179688 66.539062 249.148438 63.992188 248.1875 63.472656 Z M 248.1875 63.472656 " fill-opacity="1" fill-rule="evenodd"/><path fill="#000000" d="M 160.65625 43.914062 C 160.671875 43.941406 160.597656 44.0625 160.582031 44.09375 C 160.492188 44.28125 160.394531 44.46875 160.289062 44.652344 C 160.265625 44.695312 160.203125 44.835938 160.125 44.832031 C 160.015625 44.824219 159.835938 44.652344 159.753906 44.59375 C 159.449219 44.375 159.136719 44.167969 158.839844 43.941406 C 158.507812 43.695312 158.179688 43.445312 157.835938 43.207031 C 157.636719 43.070312 157.371094 42.945312 157.226562 42.757812 C 157.070312 42.554688 157.078125 42.269531 157.058594 42.039062 C 157.007812 41.472656 156.996094 40.894531 157.171875 40.34375 C 157.332031 39.835938 157.632812 39.15625 158.308594 39.054688 C 159.019531 38.945312 159.757812 39.488281 160.304688 39.8125 C 161.40625 40.464844 162.105469 41.363281 162.722656 42.382812 C 163.273438 43.292969 163.710938 44.234375 163.988281 45.238281 C 164.15625 45.847656 164.257812 46.480469 164.457031 47.085938 C 164.546875 47.339844 164.65625 47.664062 164.933594 47.816406 C 164.929688 47.855469 164.953125 47.738281 164.960938 47.699219 C 164.976562 47.617188 164.988281 47.539062 165 47.457031 C 165.039062 47.226562 165.070312 46.996094 165.101562 46.761719 C 165.199219 46.042969 165.320312 45.332031 165.5 44.625 C 165.976562 42.75 166.664062 40.742188 167.886719 39.128906 C 168.433594 38.410156 169.277344 37.621094 170.375 37.996094 C 171.132812 38.253906 171.652344 39.015625 172.011719 39.617188 C 172.128906 39.816406 172.332031 40.117188 172.324219 40.351562 C 172.300781 40.808594 171.925781 41.332031 171.726562 41.742188 C 171.589844 42.03125 171.460938 42.324219 171.296875 42.605469 C 171.242188 42.699219 171.171875 42.859375 171.054688 42.910156 C 170.835938 43.003906 170.574219 42.4375 170.511719 42.335938 C 170.191406 41.816406 169.710938 40.988281 168.910156 41.03125 C 168.070312 41.074219 167.699219 42.007812 167.445312 42.570312 C 166.679688 44.253906 166.257812 45.984375 165.824219 47.746094 C 165.8125 47.746094 165.746094 48.003906 165.742188 48.023438 C 165.632812 48.339844 165.527344 48.65625 165.429688 48.976562 C 165.144531 49.914062 164.960938 50.898438 164.546875 51.800781 C 164.484375 51.941406 164.210938 52.617188 163.90625 52.457031 C 163.757812 52.375 163.730469 52.128906 163.707031 51.992188 C 163.636719 51.59375 163.558594 51.199219 163.460938 50.808594 C 163.351562 50.347656 163.238281 49.886719 163.136719 49.425781 C 162.980469 48.726562 162.804688 48.023438 162.554688 47.339844 C 162.21875 46.425781 161.40625 44.339844 160.65625 43.914062 Z M 160.65625 43.914062 " fill-opacity="1" fill-rule="evenodd"/><path fill="#000000" d="M 309.011719 93.585938 C 308.9375 93.488281 308.804688 93.835938 308.78125 93.914062 C 308.722656 94.070312 308.660156 94.226562 308.601562 94.386719 C 308.421875 94.886719 308.226562 95.382812 308.035156 95.882812 C 307.910156 96.203125 308.261719 96.613281 308.359375 96.898438 C 308.644531 97.78125 308.125 98.367188 307.417969 98.347656 C 307.214844 98.347656 307.027344 98.289062 306.835938 98.207031 C 306.046875 97.878906 305.257812 97.066406 305.335938 95.972656 C 305.375 95.40625 305.585938 94.929688 305.703125 94.390625 C 305.738281 94.214844 305.75 93.933594 305.558594 93.878906 C 305.085938 93.742188 304.660156 94.878906 304.492188 95.234375 C 303.832031 96.660156 303.277344 98.386719 301.976562 99.160156 C 300.773438 99.875 299.625 98.902344 298.460938 98.539062 C 297.199219 98.148438 295.945312 98.328125 294.746094 98.886719 C 294.746094 99.011719 294.550781 98.984375 294.460938 99.039062 C 294.15625 99.222656 293.863281 99.429688 293.570312 99.640625 C 292.28125 100.558594 291.042969 101.601562 289.847656 102.683594 C 284.65625 107.375 279.238281 111.625 273.574219 115.457031 C 271.851562 116.617188 270.144531 117.820312 268.386719 118.898438 C 267.671875 119.339844 266.941406 119.746094 266.234375 120.203125 C 266.15625 120.25 265.582031 120.578125 265.746094 120.773438 C 265.933594 120.996094 266.464844 120.867188 266.691406 120.84375 C 267.5625 120.742188 268.441406 120.484375 269.289062 120.242188 C 271.371094 119.648438 273.589844 118.996094 275.503906 117.8125 C 276.726562 117.054688 277.855469 116.035156 278.960938 115.070312 C 282.332031 112.128906 285.671875 109.144531 289.054688 106.230469 C 291.039062 104.515625 293.203125 102.433594 295.558594 101.496094 C 297.652344 100.664062 299.332031 103.316406 301.429688 102.40625 C 302.34375 102.007812 303.011719 100.988281 303.457031 99.996094 C 303.53125 99.828125 303.96875 98.46875 304.125 98.425781 C 304.152344 98.417969 304.234375 99.019531 304.238281 99.054688 C 304.300781 99.5 304.367188 99.984375 304.601562 100.351562 C 305.179688 101.265625 306.238281 101.429688 307.125 101.21875 C 309.871094 100.566406 309.878906 97.375 309.421875 94.722656 C 309.363281 94.371094 309.121094 93.71875 309.011719 93.585938 Z M 309.011719 93.585938 " fill-opacity="1" fill-rule="evenodd"/><path fill="#000000" d="M 152.328125 100.46875 C 152.25 100.371094 152.121094 100.722656 152.09375 100.796875 C 152.035156 100.953125 151.972656 101.109375 151.917969 101.269531 C 151.734375 101.773438 151.539062 102.265625 151.351562 102.765625 C 151.226562 103.089844 151.578125 103.496094 151.671875 103.785156 C 151.960938 104.664062 151.4375 105.25 150.730469 105.234375 C 150.53125 105.230469 150.339844 105.171875 150.152344 105.09375 C 149.359375 104.761719 148.570312 103.949219 148.648438 102.855469 C 148.6875 102.292969 148.898438 101.8125 149.015625 101.273438 C 149.054688 101.097656 149.0625 100.816406 148.875 100.765625 C 148.398438 100.625 147.972656 101.761719 147.808594 102.117188 C 147.148438 103.546875 146.589844 105.273438 145.292969 106.042969 C 144.085938 106.757812 142.941406 105.789062 141.773438 105.421875 C 140.515625 105.03125 139.261719 105.214844 138.058594 105.773438 C 138.058594 105.894531 137.867188 105.867188 137.773438 105.921875 C 137.46875 106.109375 137.175781 106.3125 136.882812 106.523438 C 135.59375 107.441406 134.359375 108.484375 133.160156 109.570312 C 127.96875 114.261719 122.550781 118.511719 116.886719 122.339844 C 115.167969 123.503906 113.457031 124.703125 111.699219 125.785156 C 110.988281 126.226562 110.253906 126.628906 109.546875 127.085938 C 109.46875 127.136719 108.894531 127.460938 109.058594 127.65625 C 109.246094 127.878906 109.78125 127.753906 110.003906 127.726562 C 110.875 127.625 111.753906 127.367188 112.601562 127.125 C 114.683594 126.53125 116.902344 125.882812 118.816406 124.695312 C 120.039062 123.941406 121.167969 122.921875 122.277344 121.953125 C 125.644531 119.011719 128.988281 116.03125 132.367188 113.113281 C 134.355469 111.398438 136.515625 109.316406 138.871094 108.378906 C 140.96875 107.546875 142.648438 110.203125 144.746094 109.292969 C 145.65625 108.894531 146.324219 107.871094 146.769531 106.878906 C 146.84375 106.710938 147.28125 105.355469 147.441406 105.308594 C 147.46875 105.300781 147.546875 105.902344 147.550781 105.9375 C 147.613281 106.382812 147.683594 106.867188 147.914062 107.234375 C 148.492188 108.148438 149.554688 108.316406 150.4375 108.101562 C 153.183594 107.449219 153.191406 104.257812 152.738281 101.605469 C 152.675781 101.253906 152.433594 100.605469 152.328125 100.46875 Z M 152.328125 100.46875 " fill-opacity="1" fill-rule="evenodd"/><path fill="#000000" d="M 235.253906 56.917969 C 235.269531 56.929688 236.667969 56.191406 236.753906 56.148438 C 238.539062 55.292969 240.347656 54.472656 242.164062 53.664062 C 249.613281 50.347656 257.132812 47.089844 264.746094 44.027344 C 266.890625 43.164062 269.050781 42.316406 271.246094 41.546875 C 271.382812 41.5 273.113281 40.796875 273.207031 40.96875 C 273.398438 41.324219 272.597656 42.496094 272.445312 42.820312 C 272.117188 43.523438 271.902344 44.582031 271.292969 45.171875 C 270.886719 45.570312 270.097656 45.742188 269.542969 45.949219 C 268.179688 46.453125 266.816406 46.953125 265.472656 47.480469 C 261.324219 49.109375 257.304688 50.957031 253.230469 52.707031 C 249.285156 54.40625 245.25 55.96875 241.339844 57.722656 C 239.390625 58.597656 237.4375 59.46875 235.492188 60.351562 C 235.179688 60.492188 233.882812 61.300781 233.484375 61.136719 C 233.234375 61.03125 233.519531 60.492188 233.570312 60.359375 C 233.851562 59.636719 234.925781 57.628906 235.253906 56.917969 Z M 235.253906 56.917969 " fill-opacity="1" fill-rule="evenodd"/><g clip-path="url(#c886321f3a)"><path fill="#000000" d="M 168.441406 137.457031 C 168.449219 137.46875 169.402344 136.804688 169.460938 136.765625 C 170.675781 136 171.90625 135.265625 173.140625 134.539062 C 178.207031 131.566406 183.324219 128.644531 188.5 125.894531 C 189.960938 125.125 191.429688 124.363281 192.921875 123.671875 C 193.015625 123.628906 194.195312 123 194.257812 123.15625 C 194.386719 123.472656 193.84375 124.523438 193.738281 124.816406 C 193.515625 125.445312 193.371094 126.394531 192.957031 126.921875 C 192.679688 127.28125 192.144531 127.433594 191.765625 127.621094 C 190.839844 128.074219 189.910156 128.519531 188.996094 128.992188 C 186.171875 130.453125 183.4375 132.113281 180.667969 133.683594 C 177.984375 135.203125 175.238281 136.605469 172.582031 138.179688 C 171.253906 138.964844 169.925781 139.746094 168.601562 140.535156 C 168.390625 140.664062 167.507812 141.390625 167.238281 141.238281 C 167.066406 141.144531 167.261719 140.664062 167.296875 140.542969 C 167.484375 139.894531 168.21875 138.09375 168.441406 137.457031 Z M 168.441406 137.457031 " fill-opacity="1" fill-rule="evenodd"/></g><path fill="#000000" d="M 110.203125 58.5 C 110.214844 58.507812 111.089844 57.953125 111.144531 57.917969 C 112.261719 57.273438 113.394531 56.65625 114.53125 56.046875 C 119.195312 53.542969 123.90625 51.085938 128.671875 48.777344 C 130.015625 48.128906 131.367188 47.488281 132.742188 46.90625 C 132.828125 46.871094 133.914062 46.339844 133.972656 46.472656 C 134.089844 46.738281 133.589844 47.621094 133.492188 47.867188 C 133.289062 48.398438 133.15625 49.195312 132.773438 49.640625 C 132.519531 49.941406 132.023438 50.070312 131.675781 50.226562 C 130.824219 50.609375 129.972656 50.984375 129.128906 51.382812 C 126.53125 52.609375 124.011719 54.003906 121.460938 55.324219 C 118.992188 56.605469 116.464844 57.785156 114.015625 59.105469 C 112.796875 59.765625 111.574219 60.425781 110.355469 61.089844 C 110.160156 61.195312 109.347656 61.808594 109.097656 61.679688 C 108.941406 61.601562 109.121094 61.195312 109.152344 61.09375 C 109.324219 60.550781 110 59.035156 110.203125 58.5 Z M 110.203125 58.5 " fill-opacity="1" fill-rule="evenodd"/><path fill="#000000" d="M 275.652344 46.460938 C 276.09375 46.003906 276.417969 45.183594 276.769531 44.644531 C 277.785156 43.082031 278.796875 41.507812 279.84375 39.960938 C 280.429688 39.089844 280.972656 38.058594 281.8125 37.386719 C 283.003906 36.429688 284.789062 36.558594 286.230469 36.65625 C 289.550781 36.875 293.382812 37.917969 296.539062 38.4375 C 296.59375 38.398438 296.878906 38.53125 296.9375 38.550781 C 297.304688 38.671875 297.667969 38.808594 298.03125 38.949219 C 299.246094 39.417969 301.636719 40.078125 301.207031 41.757812 C 300.9375 42.824219 300.203125 43.78125 299.539062 44.648438 C 298.503906 45.996094 297.394531 47.304688 296.234375 48.554688 C 294.695312 50.207031 293.074219 51.765625 291.386719 53.273438 C 290.273438 54.269531 289.125 55.375 287.6875 55.914062 C 285.28125 56.816406 282.433594 56.714844 279.898438 56.863281 C 278.695312 56.9375 277.496094 56.992188 276.292969 57.039062 C 275.65625 57.0625 274.863281 57.152344 274.246094 56.96875 C 273.636719 56.785156 275.085938 55.976562 275.191406 55.917969 C 276.496094 55.195312 277.914062 54.640625 279.324219 54.136719 C 282.574219 52.972656 285.90625 51.886719 288.996094 50.347656 C 289.734375 49.980469 290.46875 49.609375 291.191406 49.210938 C 291.375 49.109375 291.796875 48.945312 291.863281 48.722656 C 291.949219 48.453125 291.335938 48.183594 291.160156 48.101562 C 290.308594 47.71875 289.324219 47.527344 288.417969 47.3125 C 284.648438 46.410156 279.503906 45.894531 275.652344 46.460938 Z M 275.652344 46.460938 " fill-opacity="1" fill-rule="evenodd"/><path fill="#000000" d="M 126.742188 66.953125 C 127.1875 66.496094 127.511719 65.675781 127.859375 65.136719 C 128.878906 63.574219 129.890625 62 130.933594 60.453125 C 131.523438 59.582031 132.066406 58.550781 132.90625 57.878906 C 134.097656 56.921875 135.882812 57.050781 137.320312 57.148438 C 140.644531 57.367188 144.476562 58.410156 147.632812 58.929688 C 147.6875 58.890625 147.96875 59.023438 148.03125 59.042969 C 148.398438 59.164062 148.761719 59.300781 149.121094 59.441406 C 150.339844 59.910156 152.726562 60.570312 152.300781 62.25 C 152.027344 63.316406 151.296875 64.273438 150.632812 65.140625 C 149.597656 66.488281 148.488281 67.796875 147.324219 69.046875 C 145.789062 70.699219 144.167969 72.257812 142.480469 73.765625 C 141.367188 74.761719 140.214844 75.867188 138.777344 76.40625 C 136.375 77.308594 133.527344 77.207031 130.992188 77.355469 C 129.789062 77.429688 128.585938 77.484375 127.382812 77.53125 C 126.75 77.554688 125.953125 77.644531 125.335938 77.460938 C 124.726562 77.277344 126.179688 76.46875 126.28125 76.410156 C 127.589844 75.6875 129.007812 75.132812 130.414062 74.628906 C 133.667969 73.464844 137 72.378906 140.089844 70.839844 C 140.828125 70.472656 141.5625 70.101562 142.28125 69.703125 C 142.46875 69.601562 142.890625 69.4375 142.957031 69.214844 C 143.039062 68.945312 142.425781 68.675781 142.25 68.59375 C 141.402344 68.210938 140.414062 68.019531 139.507812 67.804688 C 135.742188 66.902344 130.597656 66.386719 126.742188 66.953125 Z M 126.742188 66.953125 " fill-opacity="1" fill-rule="evenodd"/><path fill="#000000" d="M 287.769531 68.679688 C 287.636719 68.625 288.144531 68.285156 288.1875 68.265625 C 288.390625 68.160156 288.585938 68.042969 288.777344 67.921875 C 289.347656 67.566406 289.917969 67.207031 290.476562 66.835938 C 292.226562 65.671875 293.960938 64.492188 295.699219 63.320312 C 299.609375 60.675781 310.523438 52.253906 310.78125 51.753906 C 310.59375 51.609375 310.277344 51.511719 310.066406 51.378906 C 308.96875 50.699219 307.308594 49.695312 307.429688 48.335938 C 307.59375 46.488281 309.300781 44.414062 311.222656 43.777344 C 312.078125 43.492188 313.207031 43.359375 313.945312 43.953125 C 314.414062 44.328125 314.546875 44.9375 314.597656 45.476562 C 314.710938 46.667969 314.367188 47.804688 313.867188 48.898438 C 313.722656 49.214844 313.550781 49.519531 313.367188 49.816406 C 313.3125 49.90625 313.136719 50.085938 313.140625 50.191406 C 313.144531 50.328125 313.574219 50.558594 313.675781 50.640625 C 314.0625 50.945312 314.601562 51.386719 314.753906 51.847656 C 314.945312 52.441406 314.285156 53.289062 313.972656 53.765625 C 313.890625 53.886719 313.664062 54.320312 313.457031 54.285156 C 313.214844 54.242188 313.003906 53.945312 312.84375 53.796875 C 312.429688 53.410156 311.972656 53.058594 311.558594 52.667969 C 311.496094 52.609375 311.441406 52.789062 311.382812 52.851562 C 311.257812 52.980469 311.136719 53.105469 311.015625 53.234375 C 310.667969 53.605469 310.308594 53.96875 309.949219 54.332031 C 308.878906 55.414062 307.789062 56.484375 306.667969 57.523438 C 302.597656 61.296875 297.75 64.539062 292.582031 66.980469 C 291.402344 67.535156 290.234375 68.171875 288.984375 68.589844 C 288.765625 68.667969 287.902344 68.734375 287.769531 68.679688 Z M 312.222656 49.410156 C 312.222656 49.402344 312.269531 49.230469 312.273438 49.222656 C 312.308594 49.105469 312.347656 48.988281 312.375 48.867188 C 312.460938 48.511719 312.511719 48.140625 312.488281 47.777344 C 312.476562 47.570312 312.457031 47.367188 312.425781 47.160156 C 312.296875 46.390625 311.625 45.296875 310.59375 45.523438 C 310.355469 45.574219 310.140625 45.6875 309.945312 45.820312 C 309.804688 45.914062 309.679688 46.03125 309.5625 46.152344 C 309.414062 46.304688 309.238281 46.5 309.222656 46.714844 C 309.214844 46.871094 309.339844 47.003906 309.441406 47.117188 C 309.664062 47.359375 309.917969 47.566406 310.15625 47.789062 C 310.660156 48.265625 311.667969 48.976562 312.222656 49.410156 Z M 312.222656 49.410156 " fill-opacity="1" fill-rule="evenodd"/><path fill="#000000" d="M 208.949219 34.082031 L 213.453125 27.972656 L 220.738281 33.414062 L 215.933594 39.171875 C 215.933594 39.171875 209.234375 33.796875 208.949219 34.082031 Z M 208.949219 34.082031 " fill-opacity="1" fill-rule="evenodd"/><path fill="#000000" d="M 219.578125 32.738281 L 224.085938 26.632812 L 231.367188 32.070312 L 226.5625 37.828125 C 226.5625 37.828125 219.863281 32.457031 219.578125 32.738281 Z M 219.578125 32.738281 " fill-opacity="1" fill-rule="evenodd"/><path fill="#000000" d="M 217.496094 96.089844 C 217.238281 95.917969 217 96.273438 216.957031 96.324219 C 216.6875 96.640625 216.496094 97.007812 216.308594 97.371094 C 215.714844 98.519531 215.179688 99.691406 214.578125 100.839844 C 213.042969 103.765625 211.09375 107.289062 211.289062 110.632812 C 211.371094 112.082031 211.898438 113.929688 213.742188 114.230469 C 216.027344 114.597656 217.351562 111.53125 217.941406 110.070312 C 218.144531 109.570312 218.628906 108.574219 218.308594 108.035156 C 218.039062 107.570312 217.347656 108.542969 217.246094 108.6875 C 216.597656 109.589844 215.574219 111.367188 214.382812 109.914062 C 213.421875 108.742188 213.566406 107.136719 213.863281 105.78125 C 214.304688 103.785156 215.363281 101.960938 216.300781 100.128906 C 216.886719 98.980469 218.375 96.671875 217.496094 96.089844 Z M 217.496094 96.089844 " fill-opacity="1" fill-rule="evenodd"/><path fill="#000000" d="M 120.238281 59.714844 C 119.878906 59.484375 119.554688 59.960938 119.496094 60.027344 C 119.117188 60.453125 118.851562 60.945312 118.59375 61.433594 C 117.773438 62.96875 117.03125 64.542969 116.203125 66.078125 C 114.078125 70 111.386719 74.71875 111.652344 79.195312 C 111.769531 81.140625 112.5 83.613281 115.046875 84.011719 C 118.207031 84.511719 120.035156 80.398438 120.855469 78.441406 C 121.132812 77.773438 121.804688 76.4375 121.363281 75.714844 C 120.988281 75.097656 120.035156 76.394531 119.890625 76.589844 C 118.996094 77.800781 117.582031 80.179688 115.929688 78.230469 C 114.601562 76.664062 114.800781 74.511719 115.21875 72.699219 C 115.828125 70.023438 117.285156 67.582031 118.582031 65.128906 C 119.398438 63.585938 121.453125 60.496094 120.238281 59.714844 Z M 120.238281 59.714844 " fill-opacity="1" fill-rule="evenodd"/></svg>