<svg xmlns="http://www.w3.org/2000/svg" xmlns:xlink="http://www.w3.org/1999/xlink" width="500" zoomAndPan="magnify" viewBox="0 0 375 157.92" height="200" preserveAspectRatio="xMidYMid meet" version="1.0"><defs><clipPath id="407d719a4f"><path d="M 188 79 L 241 79 L 241 132.777344 L 188 132.777344 Z M 188 79 " clip-rule="nonzero"/></clipPath><clipPath id="237e2de2de"><path d="M 138 111 L 181 111 L 181 132.777344 L 138 132.777344 Z M 138 111 " clip-rule="nonzero"/></clipPath><clipPath id="37e1435da9"><path d="M 91 17.335938 L 133 17.335938 L 133 39 L 91 39 Z M 91 17.335938 " clip-rule="nonzero"/></clipPath><clipPath id="b905044699"><path d="M 358 81 L 374.902344 81 L 374.902344 86 L 358 86 Z M 358 81 " clip-rule="nonzero"/></clipPath><clipPath id="ef1f1ad11d"><path d="M 0.09375 76 L 17 76 L 17 82 L 0.09375 82 Z M 0.09375 76 " clip-rule="nonzero"/></clipPath></defs><path fill="#000000" d="M 164.191406 30.402344 C 164.0625 30.511719 164.234375 30.085938 164.277344 29.929688 C 164.378906 29.609375 164.480469 29.292969 164.582031 28.976562 C 164.882812 28.121094 165.203125 27.265625 165.589844 26.4375 C 165.707031 26.195312 165.9375 25.554688 166.355469 25.824219 C 167.410156 26.496094 167.988281 28.042969 168.566406 28.996094 C 170.011719 31.367188 171.46875 33.742188 172.78125 36.164062 C 173.246094 37 173.664062 37.847656 174.066406 38.707031 C 174.140625 38.886719 174.441406 39.355469 174.210938 39.542969 C 173.777344 39.90625 172.117188 38.707031 171.773438 38.5 C 172.015625 38.550781 171.382812 38.214844 171.179688 38.085938 C 170.761719 37.828125 170.34375 37.515625 169.878906 37.316406 C 169.792969 37.347656 170.066406 38.257812 170.082031 38.3125 C 170.3125 39.375 170.617188 40.421875 170.863281 41.484375 C 171.917969 46.003906 172.941406 50.535156 173.75 55.097656 C 176.03125 67.984375 179.078125 80.527344 176.507812 93.570312 C 176.738281 93.671875 175.886719 95.859375 175.828125 96.050781 C 174.992188 98.734375 173.835938 101.378906 171.902344 103.640625 C 164.652344 112.125 152.320312 114.90625 141.1875 117.757812 C 141.21875 117.878906 141.40625 117.597656 141.519531 117.523438 C 141.839844 117.335938 142.140625 117.152344 142.457031 116.980469 C 143.238281 116.546875 144.019531 116.113281 144.796875 115.683594 C 147.238281 114.3125 149.664062 112.929688 152.105469 111.558594 C 159.46875 107.421875 167.164062 103.453125 172.914062 97.644531 C 172.925781 97.710938 173.128906 97.089844 173.144531 97.03125 C 173.230469 96.550781 173.300781 96.066406 173.375 95.582031 C 173.589844 93.960938 173.675781 92.316406 173.722656 90.683594 C 173.835938 85.792969 173.578125 80.859375 173.101562 75.988281 C 172.046875 65.269531 169.316406 54.617188 166.90625 44.070312 C 166.269531 41.320312 165.589844 38.539062 165.214844 35.753906 C 165.128906 35.140625 165.171875 33.679688 164.984375 32.644531 C 164.8125 31.609375 164.40625 31 164.191406 30.402344 Z M 164.191406 30.402344 " fill-opacity="1" fill-rule="evenodd"/><path fill="#000000" d="M 68.214844 87.28125 C 68.257812 86.894531 68.726562 86.398438 68.914062 86.046875 C 69.574219 84.832031 70.738281 82.792969 69.820312 81.492188 C 68.828125 80.085938 66.597656 81.054688 65.367188 81.652344 C 63.253906 82.679688 61.34375 84.152344 59.746094 85.691406 C 58.820312 86.585938 57.890625 87.582031 57.511719 88.75 C 56.957031 90.460938 58.660156 91.839844 60.113281 92.800781 C 60.421875 93.003906 62.046875 93.6875 62.046875 94.054688 C 62.046875 94.484375 61.398438 95.023438 61.121094 95.335938 C 60.371094 96.191406 59.625 97.054688 58.976562 97.96875 C 58.882812 98.101562 58.085938 99.105469 58.402344 99.238281 C 58.695312 99.367188 59.402344 98.894531 59.617188 98.78125 C 60.960938 98.082031 62.234375 97.296875 63.519531 96.519531 C 65.914062 95.0625 68.273438 93.574219 70.769531 92.238281 C 71.882812 91.640625 73.011719 91.058594 74.140625 90.484375 C 74.535156 90.289062 75.285156 90.03125 75.433594 89.617188 C 75.628906 89.035156 75.320312 88.195312 75.175781 87.625 C 74.824219 86.285156 72.363281 87.90625 71.695312 88.261719 C 70.429688 88.941406 68.921875 90.039062 67.410156 90.273438 C 65.382812 90.59375 62.070312 88.851562 61.816406 87.101562 C 61.890625 87.171875 61.882812 86.914062 61.945312 86.832031 C 62.054688 86.683594 62.191406 86.546875 62.328125 86.414062 C 62.808594 85.972656 63.355469 85.523438 64.03125 85.320312 C 65.46875 84.890625 67.433594 86.421875 68.214844 87.28125 Z M 68.214844 87.28125 " fill-opacity="1" fill-rule="evenodd"/><path fill="#000000" d="M 121.585938 36.097656 C 121.613281 35.816406 121.929688 35.457031 122.054688 35.203125 C 122.5 34.324219 123.277344 32.847656 122.664062 31.902344 C 122 30.886719 120.503906 31.585938 119.675781 32.019531 C 118.261719 32.761719 116.980469 33.832031 115.910156 34.945312 C 115.289062 35.59375 114.664062 36.316406 114.410156 37.160156 C 114.039062 38.398438 115.179688 39.398438 116.15625 40.09375 C 116.363281 40.242188 117.453125 40.738281 117.453125 41 C 117.453125 41.3125 117.015625 41.703125 116.832031 41.929688 C 116.328125 42.550781 115.828125 43.175781 115.390625 43.835938 C 115.328125 43.933594 114.796875 44.660156 115.007812 44.757812 C 115.203125 44.851562 115.679688 44.507812 115.824219 44.425781 C 116.722656 43.921875 117.578125 43.351562 118.4375 42.785156 C 120.042969 41.734375 121.625 40.65625 123.300781 39.6875 C 124.046875 39.253906 124.804688 38.832031 125.5625 38.417969 C 125.824219 38.273438 126.328125 38.085938 126.425781 37.789062 C 126.558594 37.367188 126.351562 36.757812 126.253906 36.34375 C 126.019531 35.375 124.367188 36.546875 123.921875 36.808594 C 123.070312 37.296875 122.0625 38.09375 121.046875 38.265625 C 119.6875 38.496094 117.46875 37.234375 117.296875 35.964844 C 117.347656 36.019531 117.34375 35.832031 117.382812 35.773438 C 117.457031 35.664062 117.546875 35.566406 117.640625 35.46875 C 117.960938 35.148438 118.328125 34.824219 118.78125 34.675781 C 119.746094 34.367188 121.0625 35.472656 121.585938 36.097656 Z M 121.585938 36.097656 " fill-opacity="1" fill-rule="evenodd"/><path fill="#000000" d="M 130.722656 52.726562 C 130.699219 52.8125 130.332031 53.144531 130.253906 53.246094 C 129.90625 53.71875 129.578125 54.199219 129.277344 54.703125 C 128.230469 56.445312 127.226562 58.328125 126.742188 60.332031 C 126.511719 61.289062 126.34375 62.332031 126.597656 63.304688 C 127.171875 65.496094 130.238281 65.820312 131.929688 64.878906 C 133.179688 64.183594 133.949219 62.40625 134 60.992188 C 134.058594 59.257812 133.273438 57.824219 132.03125 56.71875 C 131.542969 56.285156 130.59375 55.839844 130.316406 55.210938 C 130.207031 54.964844 130.398438 54.652344 130.503906 54.4375 C 130.765625 53.90625 131.578125 53.039062 130.722656 52.726562 Z M 129.132812 57.929688 C 128.875 58.144531 128.53125 58.886719 128.417969 59.195312 C 128.300781 59.503906 128.171875 59.816406 128.160156 60.152344 C 128.089844 61.730469 129.617188 62.136719 130.855469 61.984375 C 131.289062 61.929688 131.734375 61.859375 132.160156 61.746094 C 132.308594 61.707031 132.53125 61.640625 132.597656 61.476562 C 132.742188 61.128906 129.757812 57.96875 129.132812 57.929688 Z M 129.132812 57.929688 " fill-opacity="1" fill-rule="evenodd"/><path fill="#000000" d="M 182.429688 24.753906 C 182.371094 24.800781 182.492188 24.636719 182.523438 24.578125 C 182.585938 24.457031 182.648438 24.332031 182.710938 24.207031 C 182.910156 23.820312 183.109375 23.433594 183.296875 23.046875 C 183.835938 21.9375 184.445312 20.84375 184.976562 19.734375 C 184.972656 19.816406 185.121094 19.960938 185.160156 20.03125 C 185.285156 20.25 185.390625 20.476562 185.503906 20.699219 C 185.890625 21.453125 186.238281 22.214844 186.601562 22.976562 C 188.09375 26.082031 189.773438 29.140625 191.121094 32.292969 C 191.332031 32.785156 191.539062 33.285156 191.71875 33.789062 C 191.824219 34.078125 191.925781 34.375 192 34.671875 C 192.039062 34.832031 192.074219 34.996094 192.09375 35.160156 C 192.105469 35.265625 192.113281 35.375 192.109375 35.480469 C 192.105469 35.546875 192.097656 35.613281 192.074219 35.675781 C 191.859375 36.339844 191.039062 35.425781 190.824219 35.234375 C 190.734375 35.152344 190.640625 35.070312 190.546875 34.988281 C 190.441406 34.894531 190.335938 34.804688 190.230469 34.710938 C 190.085938 34.582031 189.941406 34.457031 189.796875 34.328125 C 189.605469 34.15625 189.414062 33.980469 189.222656 33.808594 C 189.027344 33.632812 188.828125 33.457031 188.644531 33.277344 C 188.574219 33.210938 188.652344 33.453125 188.660156 33.539062 C 188.6875 33.753906 188.710938 33.96875 188.738281 34.179688 C 188.804688 34.738281 188.878906 35.296875 188.96875 35.855469 C 189.226562 37.492188 189.53125 39.121094 189.804688 40.757812 C 190.640625 45.707031 191.3125 50.691406 191.945312 55.664062 C 191.804688 55.636719 191.996094 55.894531 192.015625 56.011719 C 192.070312 56.289062 192.101562 56.570312 192.144531 56.851562 C 192.261719 57.621094 192.382812 58.390625 192.496094 59.160156 C 192.824219 61.386719 193.140625 63.609375 193.417969 65.84375 C 194.488281 74.476562 196.46875 83.648438 194.792969 92.363281 C 194.429688 94.25 194.199219 96.40625 193.023438 98.097656 C 192.867188 98.328125 192.046875 99.578125 191.625 99.546875 C 191.535156 99.539062 191.496094 99.457031 191.476562 99.394531 C 191.109375 98.304688 191.589844 96.695312 191.585938 95.585938 C 191.5625 91.152344 191.308594 86.753906 190.792969 82.34375 C 189.054688 67.449219 183.527344 30.191406 183.414062 26.6875 C 183.417969 26.6875 183.160156 26.203125 183.136719 26.160156 C 182.949219 25.808594 182.625 25.101562 182.429688 24.753906 Z M 182.429688 24.753906 " fill-opacity="1" fill-rule="evenodd"/><path fill="#000000" d="M 128.945312 37.097656 C 128.917969 37.160156 128.949219 36.976562 128.949219 36.914062 C 128.949219 36.789062 128.949219 36.660156 128.949219 36.535156 C 128.949219 36.140625 128.953125 35.742188 128.941406 35.351562 C 128.917969 34.230469 128.964844 33.085938 128.933594 31.972656 C 128.96875 32.035156 129.15625 32.070312 129.222656 32.105469 C 129.425781 32.210938 129.617188 32.328125 129.816406 32.441406 C 130.480469 32.820312 131.113281 33.226562 131.761719 33.621094 C 134.414062 35.238281 137.207031 36.722656 139.753906 38.445312 C 140.152344 38.714844 140.546875 38.992188 140.925781 39.285156 C 141.144531 39.453125 141.359375 39.628906 141.554688 39.820312 C 141.660156 39.921875 141.761719 40.027344 141.847656 40.140625 C 141.90625 40.21875 141.960938 40.296875 142.003906 40.382812 C 142.03125 40.433594 142.050781 40.484375 142.0625 40.546875 C 142.167969 41.160156 141.058594 40.882812 140.789062 40.84375 C 140.675781 40.828125 140.558594 40.8125 140.445312 40.796875 C 140.3125 40.777344 140.179688 40.761719 140.050781 40.742188 C 139.867188 40.71875 139.6875 40.695312 139.507812 40.667969 C 139.265625 40.636719 139.023438 40.601562 138.78125 40.566406 C 138.535156 40.53125 138.289062 40.496094 138.046875 40.453125 C 137.960938 40.4375 138.132812 40.582031 138.179688 40.644531 C 138.296875 40.796875 138.410156 40.945312 138.527344 41.09375 C 138.832031 41.488281 139.140625 41.875 139.464844 42.257812 C 140.40625 43.375 141.382812 44.464844 142.339844 45.574219 C 145.234375 48.933594 148.003906 52.398438 150.738281 55.875 C 150.605469 55.921875 150.882812 56.027344 150.953125 56.101562 C 151.121094 56.289062 151.269531 56.488281 151.429688 56.679688 C 151.871094 57.207031 152.3125 57.734375 152.75 58.265625 C 154.011719 59.800781 155.261719 61.335938 156.480469 62.898438 C 161.199219 68.953125 166.941406 74.949219 169.328125 82.453125 C 169.84375 84.078125 170.59375 85.839844 170.324219 87.726562 C 170.289062 87.980469 170.128906 89.355469 169.753906 89.542969 C 169.671875 89.582031 169.605469 89.539062 169.558594 89.5 C 168.765625 88.859375 168.472656 87.382812 167.976562 86.539062 C 166.007812 83.164062 163.855469 79.933594 161.472656 76.828125 C 153.425781 66.335938 132.285156 40.691406 130.648438 38.070312 C 130.648438 38.070312 130.214844 37.832031 130.171875 37.808594 C 129.859375 37.636719 129.269531 37.261719 128.945312 37.097656 Z M 128.945312 37.097656 " fill-opacity="1" fill-rule="evenodd"/><path fill="#000000" d="M 281.808594 78.570312 C 281.828125 78.554688 281.839844 78.53125 281.820312 78.5 C 281.808594 78.523438 281.808594 78.546875 281.808594 78.570312 C 281.726562 78.617188 281.476562 78.617188 281.371094 78.671875 C 281.039062 78.835938 280.71875 79.015625 280.398438 79.195312 C 279.414062 79.734375 278.519531 80.367188 277.640625 81.046875 C 275.191406 82.929688 272.398438 85.957031 269.03125 85.914062 C 269.078125 85.734375 268.664062 85.25 268.585938 85.125 C 268.070312 84.292969 267.519531 83.484375 266.992188 82.660156 C 264.898438 79.332031 261.40625 74.605469 256.988281 77.515625 C 253.496094 79.820312 250.609375 84.308594 249.980469 88.433594 C 249.464844 91.777344 250.964844 94.984375 254.390625 95.980469 C 258.316406 97.125 263.375 94.792969 266.71875 92.832031 C 266.742188 92.816406 266.96875 93.230469 266.992188 93.285156 C 267.152344 93.578125 267.289062 93.882812 267.441406 94.183594 C 267.851562 95.070312 268.265625 96.058594 268.21875 97.0625 C 268.195312 97.074219 267.933594 97.320312 267.875 97.375 C 267.679688 97.578125 267.472656 97.769531 267.269531 97.957031 C 266.570312 98.601562 265.871094 99.230469 265.195312 99.886719 C 263.285156 101.722656 261.28125 103.433594 259.230469 105.117188 C 253.394531 109.921875 245.710938 116.664062 237.628906 116.578125 C 228.996094 116.488281 223 109.261719 223.84375 100.820312 C 224.085938 98.480469 224.542969 96.175781 225.152344 93.90625 C 225.253906 93.488281 225.882812 91.910156 225.585938 91.5 C 225.320312 91.132812 224.292969 92.753906 224.210938 92.875 C 223.167969 94.585938 222.539062 96.445312 222.140625 98.402344 C 221.109375 103.371094 221.246094 109.003906 223.375 113.683594 C 227.132812 121.925781 237.183594 124.875 245.277344 121.65625 C 249.464844 119.992188 253.152344 117.152344 256.667969 114.378906 C 259.953125 111.785156 263.328125 109.09375 265.835938 105.695312 C 267.199219 103.855469 269.191406 101.496094 269.761719 99.226562 C 270.417969 96.675781 270.246094 93.9375 269.890625 91.449219 C 269.878906 91.390625 270.382812 91.199219 270.4375 91.171875 C 270.976562 90.902344 271.527344 90.636719 272.066406 90.367188 C 274.148438 89.332031 276.324219 88.335938 278.085938 86.800781 C 278.210938 86.6875 278.109375 87.136719 278.144531 87.304688 C 278.199219 87.59375 278.304688 87.871094 278.40625 88.148438 C 278.714844 88.957031 279.046875 89.757812 279.425781 90.535156 C 280.605469 92.949219 282.734375 94.847656 285.34375 95.542969 C 286.476562 95.84375 287.691406 96.042969 288.871094 95.945312 C 293.769531 95.527344 296.597656 90.585938 298.039062 86.402344 C 298.039062 86.394531 298.050781 86.394531 298.050781 86.394531 L 298.039062 86.402344 C 298.050781 86.507812 298.554688 87.671875 298.625 87.792969 C 299.164062 88.730469 299.816406 89.632812 300.558594 90.421875 C 302.871094 92.882812 306.683594 93.574219 309.761719 92.230469 C 311.8125 91.335938 312.96875 89.652344 313.863281 87.671875 C 315.691406 83.609375 314.824219 77.453125 313.3125 73.320312 C 313.359375 73.113281 313.070312 73.667969 312.933594 73.828125 C 312.625 74.199219 312.28125 74.554688 311.972656 74.921875 C 311.035156 76.015625 309.921875 77.074219 309.132812 78.289062 C 309.066406 78.386719 310.449219 80.046875 310.566406 80.308594 C 311.617188 82.613281 309.796875 84.960938 307.40625 85.09375 C 303.878906 85.285156 301.886719 82.226562 301.484375 79.085938 C 301.347656 78.007812 301.371094 76.90625 301.175781 75.835938 C 301.121094 75.488281 300.949219 74.910156 300.5 74.921875 C 300.007812 74.9375 299.699219 75.636719 299.527344 76.015625 C 298.980469 77.265625 298.921875 78.660156 298.589844 79.972656 C 298.246094 81.296875 297.503906 82.445312 296.769531 83.589844 C 295.417969 85.71875 293.792969 88.378906 291.285156 89.273438 C 288.285156 90.339844 284.417969 88.449219 282.894531 85.78125 C 281.796875 83.835938 281.476562 80.792969 281.808594 78.570312 Z M 268.21875 97.0625 Z M 254.398438 87.523438 C 254.503906 86.195312 255.234375 84.882812 256.152344 83.929688 C 256.597656 83.46875 257.160156 82.972656 257.859375 83.09375 C 259.21875 83.335938 260.582031 84.453125 261.476562 85.453125 C 261.660156 85.660156 262.277344 86.234375 262.183594 86.570312 C 262.082031 86.898438 261.589844 87.089844 261.316406 87.210938 C 260.457031 87.589844 259.507812 87.816406 258.589844 87.949219 C 257.605469 88.089844 254.925781 88.140625 254.398438 87.523438 Z M 254.398438 87.523438 " fill-opacity="1" fill-rule="evenodd"/><g clip-path="url(#407d719a4f)"><path fill="#000000" d="M 231.203125 79.667969 C 231.128906 79.746094 231.097656 80.019531 231.066406 80.128906 C 230.949219 80.523438 230.839844 80.921875 230.734375 81.320312 C 230.371094 82.695312 229.988281 84.066406 229.617188 85.441406 C 229.503906 85.875 229.382812 86.304688 229.265625 86.738281 C 229.230469 86.863281 229.101562 87.128906 229.144531 87.261719 C 229.183594 87.386719 229.507812 87.515625 229.609375 87.582031 C 229.945312 87.804688 230.265625 88.070312 230.542969 88.359375 C 230.539062 88.328125 230.632812 88.515625 230.640625 88.535156 C 230.699219 88.679688 230.765625 88.824219 230.828125 88.96875 C 231.015625 89.402344 231.164062 89.851562 231.335938 90.292969 C 231.84375 91.621094 232.359375 92.941406 232.917969 94.253906 C 233.941406 96.664062 235.132812 99.023438 236.375 101.332031 C 236.902344 102.304688 237.410156 103.277344 237.90625 104.261719 C 238.125 104.710938 238.421875 105.164062 238.566406 105.640625 C 238.792969 106.367188 236.984375 107.390625 236.46875 107.921875 C 234.480469 109.972656 232.324219 111.851562 230.074219 113.613281 C 221.25 120.507812 209.242188 127.34375 197.746094 122.589844 C 197.863281 122.699219 197.464844 122.4375 197.332031 122.347656 C 197.050781 122.160156 196.789062 121.957031 196.53125 121.742188 C 195.710938 121.058594 194.984375 120.320312 194.363281 119.453125 C 192.519531 116.886719 191.738281 113.871094 191.609375 110.765625 C 191.425781 106.324219 192.207031 102.015625 193.609375 97.804688 C 193.761719 97.355469 193.910156 96.902344 194.070312 96.453125 C 194.203125 96.070312 194.339844 95.6875 194.472656 95.300781 C 194.558594 95.046875 194.644531 94.789062 194.726562 94.53125 C 194.792969 94.320312 194.859375 94.113281 194.921875 93.90625 C 194.976562 93.730469 195.027344 93.554688 195.078125 93.378906 C 195.175781 93.019531 195.914062 90.980469 194.921875 91.230469 C 194.992188 91.394531 194.671875 91.496094 194.578125 91.652344 C 194.246094 92.195312 193.960938 92.765625 193.6875 93.335938 C 192.632812 95.558594 191.730469 97.828125 190.976562 100.164062 C 188.773438 107.027344 186.585938 115.546875 189.839844 122.394531 C 189.941406 122.363281 189.914062 122.585938 189.949219 122.679688 C 190.03125 122.886719 190.121094 123.085938 190.210938 123.289062 C 190.480469 123.90625 190.800781 124.496094 191.144531 125.078125 C 192.121094 126.722656 193.582031 128.117188 195.097656 129.292969 C 199.167969 132.457031 204.679688 132.441406 209.589844 131.824219 C 209.589844 131.800781 209.984375 131.710938 210 131.707031 C 210.46875 131.585938 210.9375 131.472656 211.40625 131.339844 C 212.597656 130.996094 213.785156 130.597656 214.90625 130.078125 C 218.398438 128.453125 221.945312 126.777344 224.9375 124.375 C 224.9375 124.378906 228.90625 121.347656 230.03125 120.476562 C 233.441406 117.835938 236.875 114.667969 238.984375 110.886719 C 239.058594 110.753906 239.3125 110.171875 239.363281 110.050781 C 239.726562 109.183594 240.023438 108.28125 240.253906 107.375 C 240.8125 105.160156 241.066406 102.664062 240.601562 100.40625 C 240.304688 98.960938 239.710938 97.625 239.136719 96.273438 C 239.238281 96.316406 239.058594 96.066406 239.015625 95.964844 C 238.941406 95.785156 238.859375 95.605469 238.78125 95.425781 C 238.503906 94.8125 238.230469 94.195312 237.949219 93.582031 C 237.15625 91.84375 235.902344 90.121094 235.4375 88.253906 C 235.320312 87.777344 235.816406 88.109375 236.023438 88.234375 C 236.546875 88.542969 237.0625 88.898438 237.621094 89.144531 C 237.800781 89.226562 238.132812 89.355469 238.195312 89.074219 C 238.355469 88.347656 237.570312 87.316406 237.210938 86.765625 C 236.058594 84.976562 233.5 82.105469 231.203125 79.667969 Z M 231.203125 79.667969 " fill-opacity="1" fill-rule="evenodd"/></g><path fill="#000000" d="M 209.433594 60.082031 C 209.445312 59.792969 209.980469 60.28125 210.269531 60.363281 C 210.976562 60.578125 211.710938 60.765625 212.441406 60.917969 C 212.5 60.929688 213.117188 61.089844 213.117188 60.984375 C 213.09375 60.367188 211.527344 59.324219 211.125 58.960938 C 209.25 57.222656 207.371094 55.488281 205.414062 53.84375 C 205.046875 53.539062 203.617188 52.027344 203.054688 52.230469 C 202.667969 52.367188 202.4375 53.015625 202.277344 53.34375 C 201.808594 54.355469 201.371094 55.378906 200.925781 56.398438 C 200.800781 56.683594 200.375 57.34375 200.527344 57.679688 C 200.6875 58.027344 201.167969 57.933594 201.453125 58.105469 C 201.84375 58.339844 202.105469 58.898438 202.335938 59.265625 C 204.75 62.984375 207.636719 66.292969 210.382812 69.765625 C 210.371094 69.769531 210.621094 70.019531 210.644531 70.046875 C 210.632812 70.035156 209.765625 71.089844 209.707031 71.160156 C 208.5625 72.523438 207.53125 73.980469 206.546875 75.445312 C 203.777344 79.519531 202.871094 85.203125 204.15625 89.953125 C 204.875 92.636719 206.992188 95.328125 210.015625 95.105469 C 212.339844 94.9375 214.59375 93.113281 216.222656 91.589844 C 220.195312 87.882812 224.886719 82.339844 222.644531 76.535156 C 221.761719 74.277344 220.308594 72.242188 218.726562 70.433594 C 218.246094 69.894531 216.839844 68.902344 217.035156 68.078125 C 217.378906 66.6875 218.714844 65.359375 219.53125 64.242188 C 221.636719 61.375 224.648438 58.082031 225.5625 54.542969 C 225.882812 53.273438 226.285156 50.664062 225.515625 49.457031 C 225.402344 49.289062 225.035156 49.804688 224.988281 49.871094 C 224.496094 50.484375 224.121094 51.195312 223.707031 51.859375 C 222.675781 53.515625 221.613281 55.152344 220.503906 56.761719 C 219.621094 58.050781 218.707031 59.3125 217.800781 60.589844 C 216.917969 61.832031 216.039062 63.066406 215.144531 64.292969 C 214.972656 64.523438 214.550781 65.328125 214.195312 65.34375 C 213.3125 65.378906 209.992188 60.683594 209.433594 60.082031 Z M 213.222656 72.964844 C 213.371094 72.800781 212.339844 73.855469 212.214844 74.03125 C 211.984375 74.355469 211.746094 74.675781 211.515625 75 C 210.828125 75.949219 210.175781 76.910156 209.535156 77.886719 C 207.738281 80.601562 204.660156 86.632812 209.433594 88.210938 C 212.570312 89.246094 215.613281 85.882812 217.410156 83.777344 C 218.15625 82.921875 219.242188 81.773438 219.242188 80.558594 C 219.253906 79.855469 218.796875 79.171875 218.429688 78.605469 C 217.378906 77 214.710938 74.175781 213.222656 72.964844 Z M 213.222656 72.964844 " fill-opacity="1" fill-rule="evenodd"/><path fill="#000000" d="M 241.824219 36.769531 C 241.847656 36.804688 241.75 36.957031 241.730469 36.996094 C 241.609375 37.234375 241.480469 37.472656 241.34375 37.707031 C 241.308594 37.761719 241.226562 37.941406 241.125 37.933594 C 240.976562 37.925781 240.738281 37.707031 240.632812 37.632812 C 240.226562 37.355469 239.816406 37.089844 239.421875 36.804688 C 238.984375 36.488281 238.546875 36.171875 238.09375 35.871094 C 237.828125 35.695312 237.476562 35.539062 237.285156 35.300781 C 237.082031 35.042969 237.089844 34.679688 237.0625 34.386719 C 236.996094 33.671875 236.980469 32.933594 237.210938 32.234375 C 237.425781 31.589844 237.824219 30.730469 238.71875 30.601562 C 239.660156 30.460938 240.636719 31.148438 241.359375 31.558594 C 242.820312 32.386719 243.746094 33.53125 244.5625 34.824219 C 245.292969 35.976562 245.871094 37.175781 246.238281 38.453125 C 246.460938 39.226562 246.59375 40.03125 246.859375 40.792969 C 246.976562 41.117188 247.125 41.53125 247.488281 41.726562 C 247.484375 41.773438 247.515625 41.625 247.527344 41.574219 C 247.542969 41.472656 247.5625 41.371094 247.578125 41.269531 C 247.628906 40.976562 247.667969 40.679688 247.710938 40.386719 C 247.839844 39.472656 248.003906 38.570312 248.238281 37.671875 C 248.871094 35.292969 249.78125 32.738281 251.402344 30.695312 C 252.125 29.78125 253.242188 28.777344 254.691406 29.253906 C 255.695312 29.582031 256.386719 30.546875 256.859375 31.316406 C 257.015625 31.566406 257.289062 31.949219 257.273438 32.242188 C 257.246094 32.824219 256.746094 33.488281 256.484375 34.011719 C 256.304688 34.378906 256.132812 34.753906 255.914062 35.105469 C 255.839844 35.226562 255.746094 35.425781 255.589844 35.492188 C 255.304688 35.613281 254.957031 34.890625 254.875 34.765625 C 254.453125 34.101562 253.8125 33.058594 252.753906 33.109375 C 251.644531 33.164062 251.152344 34.347656 250.8125 35.0625 C 249.800781 37.203125 249.242188 39.398438 248.667969 41.632812 C 248.652344 41.636719 248.566406 41.964844 248.558594 41.988281 C 248.417969 42.386719 248.273438 42.792969 248.144531 43.195312 C 247.769531 44.386719 247.523438 45.640625 246.980469 46.785156 C 246.894531 46.957031 246.535156 47.820312 246.132812 47.613281 C 245.933594 47.511719 245.898438 47.195312 245.867188 47.027344 C 245.773438 46.519531 245.667969 46.019531 245.542969 45.519531 C 245.394531 44.9375 245.246094 44.355469 245.109375 43.769531 C 244.902344 42.878906 244.671875 41.984375 244.339844 41.121094 C 243.894531 39.957031 242.820312 37.308594 241.824219 36.769531 Z M 241.824219 36.769531 " fill-opacity="1" fill-rule="evenodd"/><path fill="#000000" d="M 155.824219 46.824219 C 155.839844 46.847656 155.769531 46.953125 155.757812 46.976562 C 155.671875 47.140625 155.578125 47.300781 155.480469 47.460938 C 155.457031 47.5 155.398438 47.621094 155.328125 47.617188 C 155.222656 47.609375 155.054688 47.460938 154.976562 47.414062 C 154.691406 47.222656 154.398438 47.042969 154.117188 46.847656 C 153.808594 46.632812 153.496094 46.417969 153.175781 46.210938 C 152.988281 46.089844 152.738281 45.984375 152.601562 45.824219 C 152.457031 45.648438 152.460938 45.402344 152.441406 45.199219 C 152.394531 44.710938 152.386719 44.210938 152.546875 43.734375 C 152.699219 43.296875 152.984375 42.710938 153.621094 42.621094 C 154.285156 42.527344 154.980469 42.996094 155.496094 43.273438 C 156.53125 43.839844 157.1875 44.617188 157.769531 45.496094 C 158.289062 46.285156 158.699219 47.101562 158.957031 47.96875 C 159.117188 48.496094 159.210938 49.042969 159.402344 49.5625 C 159.484375 49.785156 159.589844 50.066406 159.847656 50.199219 C 159.84375 50.230469 159.867188 50.128906 159.875 50.09375 C 159.886719 50.027344 159.898438 49.957031 159.910156 49.886719 C 159.945312 49.6875 159.976562 49.488281 160.003906 49.285156 C 160.097656 48.664062 160.210938 48.050781 160.382812 47.4375 C 160.828125 45.816406 161.476562 44.078125 162.625 42.6875 C 163.140625 42.0625 163.933594 41.382812 164.964844 41.703125 C 165.675781 41.929688 166.167969 42.585938 166.503906 43.109375 C 166.613281 43.28125 166.808594 43.539062 166.796875 43.742188 C 166.777344 44.136719 166.421875 44.589844 166.238281 44.945312 C 166.109375 45.195312 165.988281 45.449219 165.832031 45.691406 C 165.78125 45.773438 165.710938 45.910156 165.601562 45.953125 C 165.398438 46.035156 165.152344 45.542969 165.09375 45.460938 C 164.792969 45.007812 164.339844 44.292969 163.585938 44.328125 C 162.796875 44.367188 162.449219 45.175781 162.210938 45.660156 C 161.488281 47.117188 161.09375 48.613281 160.6875 50.136719 C 160.675781 50.136719 160.613281 50.359375 160.609375 50.378906 C 160.507812 50.648438 160.40625 50.925781 160.3125 51.199219 C 160.046875 52.011719 159.871094 52.863281 159.484375 53.644531 C 159.425781 53.761719 159.167969 54.351562 158.882812 54.210938 C 158.742188 54.140625 158.71875 53.925781 158.695312 53.808594 C 158.628906 53.464844 158.554688 53.125 158.464844 52.785156 C 158.359375 52.386719 158.253906 51.988281 158.15625 51.589844 C 158.011719 50.984375 157.847656 50.375 157.613281 49.785156 C 157.296875 48.992188 156.53125 47.191406 155.824219 46.824219 Z M 155.824219 46.824219 " fill-opacity="1" fill-rule="evenodd"/><path fill="#000000" d="M 100.496094 44.042969 C 100.515625 44.070312 100.441406 44.179688 100.425781 44.207031 C 100.335938 44.378906 100.238281 44.550781 100.132812 44.71875 C 100.109375 44.761719 100.046875 44.890625 99.972656 44.882812 C 99.859375 44.878906 99.683594 44.71875 99.601562 44.667969 C 99.300781 44.46875 98.988281 44.277344 98.695312 44.070312 C 98.367188 43.84375 98.039062 43.613281 97.695312 43.394531 C 97.5 43.269531 97.238281 43.15625 97.09375 42.984375 C 96.9375 42.800781 96.945312 42.539062 96.925781 42.324219 C 96.875 41.808594 96.863281 41.277344 97.035156 40.773438 C 97.195312 40.308594 97.496094 39.6875 98.167969 39.59375 C 98.871094 39.496094 99.605469 39.992188 100.148438 40.285156 C 101.246094 40.882812 101.9375 41.707031 102.550781 42.640625 C 103.097656 43.472656 103.53125 44.339844 103.804688 45.257812 C 103.972656 45.816406 104.074219 46.398438 104.273438 46.949219 C 104.359375 47.183594 104.472656 47.480469 104.746094 47.621094 C 104.742188 47.65625 104.765625 47.546875 104.773438 47.511719 C 104.785156 47.4375 104.800781 47.363281 104.8125 47.289062 C 104.851562 47.078125 104.878906 46.867188 104.910156 46.652344 C 105.007812 45.996094 105.128906 45.34375 105.308594 44.695312 C 105.78125 42.980469 106.464844 41.136719 107.679688 39.664062 C 108.222656 39.003906 109.0625 38.28125 110.148438 38.621094 C 110.902344 38.859375 111.417969 39.554688 111.773438 40.109375 C 111.890625 40.292969 112.09375 40.566406 112.085938 40.78125 C 112.0625 41.199219 111.6875 41.679688 111.492188 42.054688 C 111.355469 42.320312 111.226562 42.589844 111.066406 42.84375 C 111.011719 42.929688 110.9375 43.078125 110.824219 43.125 C 110.609375 43.210938 110.347656 42.691406 110.285156 42.601562 C 109.96875 42.121094 109.488281 41.367188 108.695312 41.402344 C 107.863281 41.441406 107.492188 42.296875 107.238281 42.8125 C 106.480469 44.355469 106.058594 45.941406 105.628906 47.554688 C 105.617188 47.554688 105.554688 47.792969 105.546875 47.808594 C 105.441406 48.097656 105.335938 48.390625 105.238281 48.683594 C 104.957031 49.539062 104.773438 50.445312 104.363281 51.269531 C 104.300781 51.394531 104.027344 52.019531 103.726562 51.867188 C 103.578125 51.792969 103.550781 51.566406 103.527344 51.445312 C 103.460938 51.078125 103.378906 50.71875 103.285156 50.359375 C 103.171875 49.9375 103.0625 49.515625 102.960938 49.09375 C 102.804688 48.453125 102.632812 47.808594 102.382812 47.183594 C 102.050781 46.34375 101.242188 44.433594 100.496094 44.042969 Z M 100.496094 44.042969 " fill-opacity="1" fill-rule="evenodd"/><path fill="#000000" d="M 62.464844 58.433594 C 62.484375 58.460938 62.410156 58.570312 62.394531 58.597656 C 62.304688 58.769531 62.207031 58.941406 62.105469 59.109375 C 62.078125 59.148438 62.015625 59.277344 61.941406 59.273438 C 61.832031 59.265625 61.652344 59.109375 61.570312 59.058594 C 61.269531 58.855469 60.960938 58.664062 60.664062 58.460938 C 60.335938 58.230469 60.007812 58.003906 59.667969 57.785156 C 59.46875 57.660156 59.207031 57.546875 59.0625 57.375 C 58.910156 57.1875 58.914062 56.925781 58.894531 56.714844 C 58.84375 56.199219 58.832031 55.667969 59.007812 55.164062 C 59.167969 54.695312 59.464844 54.078125 60.136719 53.984375 C 60.839844 53.882812 61.574219 54.378906 62.117188 54.675781 C 63.214844 55.273438 63.90625 56.097656 64.519531 57.03125 C 65.066406 57.863281 65.5 58.726562 65.777344 59.648438 C 65.941406 60.207031 66.042969 60.785156 66.242188 61.335938 C 66.328125 61.570312 66.441406 61.867188 66.714844 62.007812 C 66.710938 62.042969 66.734375 61.9375 66.742188 61.898438 C 66.757812 61.828125 66.769531 61.753906 66.78125 61.679688 C 66.820312 61.46875 66.847656 61.253906 66.882812 61.042969 C 66.980469 60.386719 67.101562 59.734375 67.277344 59.085938 C 67.75 57.367188 68.433594 55.527344 69.648438 54.050781 C 70.191406 53.390625 71.03125 52.667969 72.117188 53.011719 C 72.871094 53.25 73.386719 53.945312 73.742188 54.5 C 73.859375 54.679688 74.0625 54.957031 74.054688 55.167969 C 74.03125 55.589844 73.65625 56.066406 73.460938 56.445312 C 73.324219 56.707031 73.199219 56.976562 73.035156 57.234375 C 72.980469 57.320312 72.910156 57.464844 72.792969 57.511719 C 72.578125 57.601562 72.316406 57.078125 72.253906 56.988281 C 71.9375 56.511719 71.457031 55.753906 70.664062 55.792969 C 69.832031 55.832031 69.464844 56.6875 69.207031 57.203125 C 68.449219 58.746094 68.03125 60.332031 67.601562 61.941406 C 67.585938 61.945312 67.523438 62.179688 67.515625 62.199219 C 67.410156 62.488281 67.304688 62.777344 67.207031 63.070312 C 66.925781 63.929688 66.742188 64.832031 66.332031 65.660156 C 66.269531 65.785156 65.996094 66.40625 65.695312 66.257812 C 65.546875 66.183594 65.519531 65.957031 65.496094 65.835938 C 65.429688 65.46875 65.347656 65.109375 65.253906 64.746094 C 65.144531 64.324219 65.03125 63.90625 64.929688 63.484375 C 64.773438 62.839844 64.601562 62.195312 64.351562 61.574219 C 64.019531 60.734375 63.214844 58.824219 62.464844 58.433594 Z M 62.464844 58.433594 " fill-opacity="1" fill-rule="evenodd"/><path fill="#000000" d="M 241.824219 66.316406 C 241.847656 66.351562 241.75 66.503906 241.730469 66.542969 C 241.609375 66.78125 241.480469 67.019531 241.34375 67.25 C 241.308594 67.308594 241.226562 67.488281 241.125 67.480469 C 240.976562 67.46875 240.738281 67.25 240.632812 67.179688 C 240.226562 66.902344 239.816406 66.636719 239.421875 66.351562 C 238.984375 66.035156 238.546875 65.71875 238.09375 65.417969 C 237.828125 65.242188 237.476562 65.085938 237.285156 64.847656 C 237.082031 64.589844 237.089844 64.226562 237.0625 63.933594 C 236.996094 63.21875 236.980469 62.480469 237.210938 61.78125 C 237.425781 61.136719 237.824219 60.277344 238.71875 60.144531 C 239.660156 60.007812 240.636719 60.695312 241.359375 61.105469 C 242.820312 61.933594 243.746094 63.078125 244.5625 64.371094 C 245.292969 65.523438 245.871094 66.722656 246.238281 68 C 246.460938 68.773438 246.59375 69.574219 246.859375 70.339844 C 246.976562 70.664062 247.125 71.078125 247.488281 71.269531 C 247.484375 71.320312 247.515625 71.171875 247.527344 71.117188 C 247.542969 71.019531 247.5625 70.917969 247.578125 70.8125 C 247.628906 70.523438 247.667969 70.226562 247.710938 69.933594 C 247.839844 69.019531 248.003906 68.117188 248.238281 67.21875 C 248.871094 64.839844 249.78125 62.285156 251.402344 60.242188 C 252.125 59.328125 253.242188 58.324219 254.691406 58.800781 C 255.695312 59.128906 256.386719 60.09375 256.859375 60.859375 C 257.015625 61.113281 257.289062 61.496094 257.273438 61.789062 C 257.246094 62.371094 256.746094 63.035156 256.484375 63.558594 C 256.304688 63.925781 256.132812 64.296875 255.914062 64.652344 C 255.839844 64.773438 255.746094 64.972656 255.589844 65.039062 C 255.304688 65.160156 254.957031 64.4375 254.875 64.3125 C 254.453125 63.648438 253.8125 62.601562 252.753906 62.65625 C 251.644531 62.707031 251.152344 63.894531 250.8125 64.609375 C 249.800781 66.746094 249.242188 68.945312 248.667969 71.179688 C 248.652344 71.183594 248.566406 71.507812 248.558594 71.535156 C 248.417969 71.933594 248.273438 72.335938 248.144531 72.742188 C 247.769531 73.933594 247.523438 75.183594 246.980469 76.332031 C 246.894531 76.503906 246.535156 77.367188 246.132812 77.160156 C 245.933594 77.058594 245.898438 76.742188 245.867188 76.574219 C 245.773438 76.066406 245.667969 75.566406 245.542969 75.066406 C 245.394531 74.484375 245.246094 73.898438 245.109375 73.316406 C 244.902344 72.421875 244.671875 71.53125 244.339844 70.667969 C 243.894531 69.503906 242.820312 66.855469 241.824219 66.316406 Z M 241.824219 66.316406 " fill-opacity="1" fill-rule="evenodd"/><path fill="#000000" d="M 305.023438 97.605469 C 304.945312 97.503906 304.808594 97.867188 304.78125 97.945312 C 304.722656 98.109375 304.65625 98.269531 304.597656 98.4375 C 304.410156 98.960938 304.203125 99.472656 304.011719 99.992188 C 303.878906 100.328125 304.246094 100.75 304.34375 101.050781 C 304.644531 101.964844 304.101562 102.570312 303.367188 102.554688 C 303.15625 102.550781 302.957031 102.492188 302.765625 102.410156 C 301.941406 102.066406 301.121094 101.222656 301.203125 100.085938 C 301.242188 99.5 301.460938 99 301.582031 98.441406 C 301.621094 98.257812 301.632812 97.964844 301.4375 97.910156 C 300.941406 97.769531 300.5 98.949219 300.328125 99.320312 C 299.640625 100.800781 299.0625 102.597656 297.714844 103.398438 C 296.460938 104.140625 295.269531 103.132812 294.058594 102.753906 C 292.75 102.34375 291.449219 102.535156 290.199219 103.113281 C 290.199219 103.242188 290 103.214844 289.902344 103.269531 C 289.585938 103.464844 289.28125 103.679688 288.976562 103.894531 C 287.640625 104.851562 286.351562 105.933594 285.109375 107.058594 C 279.71875 111.933594 274.085938 116.351562 268.203125 120.328125 C 266.414062 121.539062 264.636719 122.785156 262.8125 123.910156 C 262.070312 124.367188 261.308594 124.785156 260.574219 125.261719 C 260.492188 125.3125 259.894531 125.652344 260.066406 125.855469 C 260.261719 126.085938 260.816406 125.953125 261.050781 125.925781 C 261.953125 125.820312 262.867188 125.554688 263.746094 125.300781 C 265.910156 124.683594 268.21875 124.011719 270.207031 122.777344 C 271.476562 121.992188 272.648438 120.933594 273.800781 119.929688 C 277.300781 116.875 280.773438 113.773438 284.285156 110.742188 C 286.351562 108.960938 288.59375 106.796875 291.042969 105.824219 C 293.222656 104.960938 294.96875 107.71875 297.144531 106.773438 C 298.09375 106.359375 298.785156 105.296875 299.25 104.265625 C 299.328125 104.09375 299.785156 102.679688 299.945312 102.632812 C 299.976562 102.625 300.058594 103.25 300.0625 103.289062 C 300.128906 103.75 300.199219 104.253906 300.4375 104.632812 C 301.039062 105.585938 302.140625 105.757812 303.0625 105.535156 C 305.914062 104.859375 305.921875 101.542969 305.449219 98.785156 C 305.386719 98.421875 305.132812 97.746094 305.023438 97.605469 Z M 305.023438 97.605469 " fill-opacity="1" fill-rule="evenodd"/><path fill="#000000" d="M 228.382812 59.503906 C 228.402344 59.515625 229.855469 58.75 229.945312 58.707031 C 231.800781 57.820312 233.675781 56.96875 235.566406 56.125 C 243.304688 52.679688 251.117188 49.292969 259.027344 46.113281 C 261.257812 45.214844 263.5 44.335938 265.78125 43.535156 C 265.921875 43.484375 267.722656 42.753906 267.820312 42.9375 C 268.019531 43.304688 267.1875 44.519531 267.027344 44.859375 C 266.6875 45.589844 266.464844 46.6875 265.832031 47.300781 C 265.410156 47.714844 264.589844 47.894531 264.011719 48.109375 C 262.597656 48.636719 261.183594 49.152344 259.785156 49.699219 C 255.472656 51.390625 251.296875 53.3125 247.0625 55.132812 C 242.964844 56.894531 238.773438 58.519531 234.710938 60.34375 C 232.683594 61.25 230.65625 62.160156 228.632812 63.074219 C 228.308594 63.222656 226.960938 64.0625 226.546875 63.890625 C 226.289062 63.78125 226.582031 63.21875 226.636719 63.082031 C 226.925781 62.332031 228.042969 60.242188 228.382812 59.503906 Z M 228.382812 59.503906 " fill-opacity="1" fill-rule="evenodd"/><path fill="#000000" d="M 93.320312 61.878906 C 93.339844 61.890625 94.792969 61.125 94.882812 61.082031 C 96.738281 60.191406 98.613281 59.34375 100.503906 58.5 C 108.242188 55.054688 116.054688 51.667969 123.964844 48.484375 C 126.195312 47.589844 128.4375 46.710938 130.71875 45.910156 C 130.859375 45.859375 132.660156 45.128906 132.757812 45.3125 C 132.957031 45.679688 132.125 46.894531 131.964844 47.234375 C 131.625 47.960938 131.402344 49.0625 130.769531 49.675781 C 130.347656 50.089844 129.527344 50.269531 128.949219 50.484375 C 127.535156 51.007812 126.121094 51.527344 124.722656 52.074219 C 120.410156 53.765625 116.234375 55.6875 112 57.507812 C 107.902344 59.269531 103.710938 60.894531 99.648438 62.714844 C 97.621094 63.625 95.59375 64.535156 93.570312 65.449219 C 93.246094 65.59375 91.898438 66.4375 91.484375 66.261719 C 91.226562 66.15625 91.523438 65.59375 91.574219 65.457031 C 91.863281 64.703125 92.980469 62.617188 93.320312 61.878906 Z M 93.320312 61.878906 " fill-opacity="1" fill-rule="evenodd"/><g clip-path="url(#237e2de2de)"><path fill="#000000" d="M 140.578125 127.742188 C 140.59375 127.753906 142.046875 126.988281 142.136719 126.941406 C 143.992188 126.054688 145.871094 125.203125 147.757812 124.363281 C 155.496094 120.917969 163.3125 117.53125 171.222656 114.347656 C 173.449219 113.453125 175.695312 112.574219 177.976562 111.773438 C 178.117188 111.722656 179.917969 110.992188 180.015625 111.171875 C 180.210938 111.542969 179.382812 112.757812 179.21875 113.09375 C 178.878906 113.824219 178.65625 114.925781 178.027344 115.539062 C 177.601562 115.949219 176.785156 116.128906 176.207031 116.347656 C 174.792969 116.871094 173.375 117.386719 171.980469 117.9375 C 167.664062 119.628906 163.488281 121.546875 159.257812 123.367188 C 155.15625 125.132812 150.964844 126.757812 146.902344 128.578125 C 144.878906 129.488281 142.847656 130.394531 140.828125 131.3125 C 140.503906 131.457031 139.152344 132.296875 138.738281 132.125 C 138.480469 132.015625 138.777344 131.457031 138.832031 131.320312 C 139.121094 130.566406 140.238281 128.480469 140.578125 127.742188 Z M 140.578125 127.742188 " fill-opacity="1" fill-rule="evenodd"/></g><path fill="#000000" d="M 140.835938 90.371094 C 141.191406 89.316406 142.097656 88.242188 142.796875 87.347656 C 142.976562 87.109375 143.402344 86.363281 143.769531 86.457031 C 144.226562 86.558594 144.523438 87.324219 144.683594 87.691406 C 145.28125 89.101562 145.828125 90.542969 146.183594 92.042969 C 147.054688 95.808594 146.917969 99.734375 143.953125 102.539062 C 140.195312 106.078125 135.457031 105.964844 132.722656 101.453125 C 132.089844 100.410156 131.679688 99.265625 131.265625 98.121094 C 131.199219 97.925781 131.039062 96.964844 130.867188 96.863281 C 130.84375 96.839844 129.574219 98.589844 129.492188 98.707031 C 128.632812 99.816406 127.730469 100.878906 126.734375 101.863281 C 123.917969 104.648438 116.695312 108.699219 114.027344 103.503906 C 113.234375 101.945312 113.292969 100.285156 113.304688 98.589844 C 113.351562 98.707031 112.089844 99.816406 111.976562 99.929688 C 110.523438 101.40625 108.863281 102.632812 107.113281 103.742188 C 105.816406 104.554688 104.46875 105.4375 102.992188 105.859375 C 97.894531 107.324219 93.820312 104.175781 91.324219 100.035156 C 90.523438 99.828125 89.710938 96.566406 89.492188 95.933594 C 87.96875 91.445312 87.511719 86.582031 86.835938 81.898438 C 85.324219 71.253906 84.628906 60.503906 82.820312 49.902344 C 82.328125 47.039062 81.867188 44.179688 81.375 41.316406 C 81.214844 40.34375 81.25 38.683594 80.6875 37.824219 C 80.175781 37.035156 77.746094 40.089844 77.449219 39.394531 C 77.1875 38.742188 77.691406 37.664062 77.875 37.070312 C 78.46875 35.066406 79.121094 33.085938 80.242188 31.300781 C 80.597656 30.738281 81.066406 29.855469 81.824219 29.753906 C 83.160156 29.582031 84.019531 32.238281 84.351562 33.085938 C 85.898438 36.953125 86.722656 41.132812 87.316406 45.242188 C 88.886719 55.925781 88.964844 66.878906 90.109375 77.628906 C 90.808594 84.257812 91.769531 91.835938 96.007812 97.273438 C 99.589844 101.875 106.320312 100.375 109.722656 96.347656 C 110.820312 95.042969 111.804688 93.644531 112.914062 92.351562 C 113.257812 91.949219 113.808594 91.125 114.371094 91 C 114.828125 90.886719 115.035156 91.699219 115.089844 91.996094 C 115.367188 93.335938 115.355469 94.640625 116.167969 95.820312 C 118.695312 99.53125 124.488281 98.523438 126.972656 95.363281 C 129.574219 92.054688 128.738281 87.507812 126.746094 84.15625 C 126.082031 83.03125 124.296875 81.554688 124.25 80.214844 C 124.179688 78.417969 125.039062 76.554688 125.613281 74.882812 C 125.75 74.457031 125.945312 73.277344 126.480469 73.128906 C 126.917969 73.015625 127.167969 73.78125 127.292969 74.058594 C 127.808594 75.339844 128.289062 76.644531 128.703125 77.960938 C 130.328125 83.066406 130.832031 88.804688 132.996094 93.703125 C 133.855469 95.625 135.332031 97.367188 137.277344 98.246094 C 139.660156 99.335938 143.183594 98.234375 143.425781 95.796875 C 143.503906 94.984375 140.996094 91.171875 140.835938 90.371094 Z M 140.835938 90.371094 " fill-opacity="1" fill-rule="evenodd"/><g clip-path="url(#37e1435da9)"><path fill="#000000" d="M 93.320312 34.132812 C 93.339844 34.144531 94.792969 33.378906 94.882812 33.335938 C 96.738281 32.445312 98.613281 31.59375 100.503906 30.753906 C 108.242188 27.308594 116.054688 23.921875 123.964844 20.738281 C 126.195312 19.84375 128.4375 18.964844 130.71875 18.164062 C 130.859375 18.113281 132.660156 17.382812 132.757812 17.5625 C 132.957031 17.933594 132.125 19.148438 131.964844 19.484375 C 131.625 20.214844 131.402344 21.316406 130.769531 21.929688 C 130.347656 22.339844 129.527344 22.523438 128.949219 22.738281 C 127.535156 23.261719 126.121094 23.777344 124.722656 24.328125 C 120.410156 26.019531 116.234375 27.941406 112 29.761719 C 107.902344 31.523438 103.710938 33.148438 99.648438 34.96875 C 97.621094 35.878906 95.59375 36.785156 93.570312 37.703125 C 93.246094 37.847656 91.898438 38.691406 91.484375 38.515625 C 91.226562 38.40625 91.523438 37.847656 91.574219 37.710938 C 91.863281 36.957031 92.980469 34.871094 93.320312 34.132812 Z M 93.320312 34.132812 " fill-opacity="1" fill-rule="evenodd"/></g><path fill="#000000" d="M 270.359375 48.640625 C 270.820312 48.164062 271.160156 47.3125 271.519531 46.757812 C 272.578125 45.128906 273.628906 43.496094 274.714844 41.886719 C 275.324219 40.984375 275.890625 39.910156 276.761719 39.210938 C 278 38.21875 279.855469 38.355469 281.351562 38.453125 C 284.800781 38.683594 288.785156 39.765625 292.066406 40.304688 C 292.121094 40.261719 292.414062 40.402344 292.476562 40.421875 C 292.859375 40.550781 293.238281 40.691406 293.613281 40.835938 C 294.875 41.324219 297.359375 42.007812 296.914062 43.753906 C 296.632812 44.863281 295.871094 45.859375 295.179688 46.757812 C 294.105469 48.160156 292.953125 49.519531 291.746094 50.816406 C 290.148438 52.53125 288.464844 54.152344 286.710938 55.71875 C 285.554688 56.757812 284.359375 57.902344 282.863281 58.460938 C 280.367188 59.398438 277.410156 59.292969 274.773438 59.453125 C 273.523438 59.527344 272.277344 59.585938 271.023438 59.632812 C 270.367188 59.660156 269.539062 59.75 268.898438 59.558594 C 268.265625 59.371094 269.773438 58.53125 269.882812 58.46875 C 271.238281 57.71875 272.710938 57.136719 274.175781 56.613281 C 277.554688 55.40625 281.015625 54.277344 284.226562 52.679688 C 284.992188 52.296875 285.757812 51.914062 286.503906 51.5 C 286.699219 51.394531 287.136719 51.222656 287.207031 50.992188 C 287.292969 50.710938 286.65625 50.429688 286.472656 50.347656 C 285.589844 49.945312 284.566406 49.75 283.625 49.523438 C 279.710938 48.585938 274.363281 48.054688 270.359375 48.640625 Z M 270.359375 48.640625 " fill-opacity="1" fill-rule="evenodd"/><path fill="#000000" d="M 144.640625 28.65625 C 144.925781 28.34375 145.136719 27.777344 145.363281 27.410156 C 146.019531 26.332031 146.675781 25.253906 147.351562 24.1875 C 147.730469 23.589844 148.082031 22.878906 148.625 22.417969 C 149.394531 21.761719 150.546875 21.851562 151.476562 21.917969 C 153.625 22.066406 156.101562 22.785156 158.144531 23.144531 C 158.175781 23.113281 158.359375 23.207031 158.398438 23.21875 C 158.636719 23.304688 158.871094 23.398438 159.105469 23.492188 C 159.890625 23.816406 161.433594 24.269531 161.160156 25.425781 C 160.984375 26.160156 160.511719 26.816406 160.082031 27.410156 C 159.414062 28.339844 158.695312 29.238281 157.945312 30.097656 C 156.949219 31.234375 155.902344 32.304688 154.8125 33.34375 C 154.09375 34.027344 153.347656 34.785156 152.417969 35.15625 C 150.867188 35.777344 149.027344 35.707031 147.386719 35.808594 C 146.609375 35.859375 145.832031 35.898438 145.054688 35.929688 C 144.644531 35.949219 144.132812 36.007812 143.730469 35.882812 C 143.339844 35.757812 144.277344 35.199219 144.34375 35.160156 C 145.1875 34.664062 146.105469 34.28125 147.015625 33.933594 C 149.117188 33.132812 151.269531 32.386719 153.265625 31.328125 C 153.742188 31.078125 154.21875 30.824219 154.683594 30.550781 C 154.804688 30.480469 155.078125 30.367188 155.121094 30.214844 C 155.175781 30.027344 154.777344 29.839844 154.664062 29.785156 C 154.113281 29.523438 153.476562 29.390625 152.890625 29.242188 C 150.457031 28.621094 147.132812 28.269531 144.640625 28.65625 Z M 144.640625 28.65625 " fill-opacity="1" fill-rule="evenodd"/><path fill="#000000" d="M 282.949219 71.730469 C 282.8125 71.671875 283.339844 71.320312 283.386719 71.296875 C 283.59375 71.1875 283.800781 71.066406 284 70.941406 C 284.589844 70.570312 285.183594 70.199219 285.765625 69.8125 C 287.582031 68.605469 289.386719 67.378906 291.191406 66.15625 C 295.253906 63.410156 306.59375 54.660156 306.859375 54.140625 C 306.664062 53.988281 306.339844 53.886719 306.121094 53.75 C 304.980469 53.046875 303.253906 52 303.378906 50.589844 C 303.550781 48.667969 305.324219 46.511719 307.320312 45.851562 C 308.210938 45.554688 309.382812 45.417969 310.148438 46.035156 C 310.636719 46.425781 310.773438 47.058594 310.828125 47.617188 C 310.945312 48.859375 310.589844 50.039062 310.066406 51.175781 C 309.917969 51.503906 309.738281 51.820312 309.546875 52.128906 C 309.492188 52.222656 309.308594 52.410156 309.3125 52.519531 C 309.316406 52.660156 309.765625 52.902344 309.867188 52.984375 C 310.269531 53.300781 310.832031 53.757812 310.988281 54.238281 C 311.1875 54.855469 310.503906 55.738281 310.175781 56.230469 C 310.09375 56.355469 309.859375 56.804688 309.640625 56.769531 C 309.390625 56.726562 309.167969 56.417969 309.007812 56.265625 C 308.574219 55.859375 308.097656 55.496094 307.667969 55.089844 C 307.605469 55.03125 307.546875 55.21875 307.484375 55.28125 C 307.355469 55.414062 307.230469 55.546875 307.101562 55.679688 C 306.742188 56.066406 306.371094 56.441406 306 56.820312 C 304.882812 57.945312 303.75 59.054688 302.585938 60.136719 C 298.359375 64.054688 293.320312 67.425781 287.949219 69.960938 C 286.722656 70.539062 285.515625 71.199219 284.214844 71.636719 C 283.984375 71.714844 283.085938 71.785156 282.949219 71.730469 Z M 308.359375 51.707031 C 308.359375 51.699219 308.40625 51.519531 308.410156 51.511719 C 308.449219 51.386719 308.488281 51.269531 308.519531 51.140625 C 308.605469 50.769531 308.660156 50.386719 308.636719 50.007812 C 308.621094 49.796875 308.601562 49.582031 308.566406 49.371094 C 308.433594 48.566406 307.738281 47.433594 306.667969 47.667969 C 306.417969 47.71875 306.195312 47.835938 305.992188 47.972656 C 305.847656 48.074219 305.714844 48.191406 305.59375 48.320312 C 305.441406 48.476562 305.257812 48.679688 305.242188 48.90625 C 305.234375 49.070312 305.363281 49.207031 305.46875 49.324219 C 305.699219 49.574219 305.960938 49.789062 306.210938 50.023438 C 306.734375 50.519531 307.785156 51.253906 308.359375 51.707031 Z M 308.359375 51.707031 " fill-opacity="1" fill-rule="evenodd"/><path fill="#000000" d="M 201.050781 35.78125 L 205.734375 29.433594 L 213.300781 35.085938 L 208.308594 41.066406 C 208.308594 41.066406 201.351562 35.484375 201.050781 35.78125 Z M 201.050781 35.78125 " fill-opacity="1" fill-rule="evenodd"/><path fill="#000000" d="M 137.859375 71.722656 L 142.539062 65.378906 L 150.105469 71.03125 L 145.117188 77.011719 C 145.117188 77.011719 138.15625 71.429688 137.859375 71.722656 Z M 137.859375 71.722656 " fill-opacity="1" fill-rule="evenodd"/><path fill="#000000" d="M 212.097656 34.382812 L 216.78125 28.039062 L 224.347656 33.691406 L 219.355469 39.671875 C 219.355469 39.671875 212.394531 34.089844 212.097656 34.382812 Z M 212.097656 34.382812 " fill-opacity="1" fill-rule="evenodd"/><path fill="#000000" d="M 99.835938 122.710938 L 104.515625 116.363281 L 112.085938 122.015625 L 107.09375 127.996094 C 107.09375 127.996094 100.132812 122.414062 99.835938 122.710938 Z M 99.835938 122.710938 " fill-opacity="1" fill-rule="evenodd"/><path fill="#000000" d="M 112.089844 122.710938 L 116.769531 116.363281 L 124.335938 122.015625 L 119.347656 127.996094 C 119.347656 127.996094 112.386719 122.414062 112.089844 122.710938 Z M 112.089844 122.710938 " fill-opacity="1" fill-rule="evenodd"/><path fill="#000000" d="M 131.730469 116.894531 L 136.414062 110.546875 L 143.980469 116.199219 L 138.988281 122.179688 C 138.988281 122.179688 132.03125 116.597656 131.730469 116.894531 Z M 131.730469 116.894531 " fill-opacity="1" fill-rule="evenodd"/><path fill="#000000" d="M 209.933594 100.207031 C 209.667969 100.027344 209.421875 100.394531 209.375 100.449219 C 209.09375 100.78125 208.894531 101.160156 208.699219 101.539062 C 208.082031 102.730469 207.527344 103.949219 206.902344 105.140625 C 205.304688 108.183594 203.285156 111.84375 203.484375 115.316406 C 203.570312 116.824219 204.121094 118.742188 206.035156 119.054688 C 208.40625 119.441406 209.785156 116.25 210.398438 114.730469 C 210.609375 114.214844 211.113281 113.179688 210.78125 112.617188 C 210.496094 112.136719 209.78125 113.144531 209.671875 113.296875 C 209.003906 114.234375 207.9375 116.082031 206.699219 114.570312 C 205.699219 113.355469 205.851562 111.6875 206.160156 110.277344 C 206.621094 108.203125 207.714844 106.308594 208.691406 104.40625 C 209.304688 103.210938 210.851562 100.8125 209.933594 100.207031 Z M 209.933594 100.207031 " fill-opacity="1" fill-rule="evenodd"/><path fill="#000000" d="M 106.296875 65.429688 C 106.027344 65.25 105.78125 65.621094 105.738281 65.671875 C 105.453125 66.003906 105.253906 66.386719 105.058594 66.761719 C 104.441406 67.953125 103.886719 69.171875 103.261719 70.363281 C 101.667969 73.40625 99.644531 77.066406 99.84375 80.539062 C 99.929688 82.046875 100.480469 83.964844 102.394531 84.277344 C 104.769531 84.664062 106.144531 81.476562 106.757812 79.953125 C 106.96875 79.4375 107.472656 78.402344 107.140625 77.839844 C 106.859375 77.359375 106.144531 78.367188 106.035156 78.519531 C 105.363281 79.460938 104.300781 81.304688 103.058594 79.792969 C 102.058594 78.578125 102.210938 76.910156 102.523438 75.5 C 102.980469 73.425781 104.078125 71.53125 105.050781 69.628906 C 105.664062 68.433594 107.210938 66.035156 106.296875 65.429688 Z M 106.296875 65.429688 " fill-opacity="1" fill-rule="evenodd"/><path fill="#000000" d="M 158.875 80.382812 C 158.609375 80.207031 158.363281 80.574219 158.316406 80.628906 C 158.035156 80.957031 157.835938 81.339844 157.640625 81.714844 C 157.023438 82.910156 156.46875 84.128906 155.84375 85.320312 C 154.246094 88.363281 152.226562 92.023438 152.425781 95.496094 C 152.511719 97.003906 153.0625 98.921875 154.976562 99.230469 C 157.347656 99.617188 158.726562 96.429688 159.339844 94.910156 C 159.550781 94.390625 160.054688 93.355469 159.722656 92.796875 C 159.4375 92.316406 158.722656 93.324219 158.613281 93.476562 C 157.945312 94.414062 156.878906 96.257812 155.640625 94.746094 C 154.640625 93.53125 154.792969 91.863281 155.101562 90.457031 C 155.5625 88.378906 156.65625 86.484375 157.632812 84.582031 C 158.246094 83.386719 159.792969 80.988281 158.875 80.382812 Z M 158.875 80.382812 " fill-opacity="1" fill-rule="evenodd"/><path fill="#000000" d="M 306.410156 36.378906 C 307.136719 36.105469 308.617188 36.585938 309.320312 36.726562 C 312.351562 37.34375 315.285156 38.453125 318.085938 39.746094 C 328.523438 44.550781 336.085938 53.570312 340.765625 63.871094 C 341.9375 66.441406 342.902344 69.148438 343.5 71.910156 C 343.660156 72.652344 344.144531 74.011719 343.808594 74.78125 C 343.511719 75.441406 342.753906 75.957031 342.234375 76.433594 C 341.132812 77.457031 340.109375 78.355469 338.84375 79.125 C 337.210938 77.625 334.925781 76.554688 333.074219 75.304688 C 332.511719 70.839844 330.59375 66.382812 328.617188 62.398438 C 325.25 55.632812 320.789062 49.425781 315.375 44.140625 C 312.914062 41.753906 309.433594 38.027344 306.410156 36.378906 Z M 306.410156 36.378906 " fill-opacity="1" fill-rule="evenodd"/><path fill="#000000" d="M 306.410156 131.183594 C 307.136719 131.457031 308.617188 130.972656 309.320312 130.832031 C 312.351562 130.214844 315.285156 129.105469 318.085938 127.8125 C 328.523438 123.007812 336.085938 113.988281 340.765625 103.6875 C 341.9375 101.117188 342.902344 98.410156 343.5 95.648438 C 343.660156 94.90625 344.144531 93.546875 343.808594 92.777344 C 343.511719 92.117188 342.753906 91.601562 342.234375 91.125 C 341.132812 90.105469 340.109375 89.203125 338.84375 88.433594 C 337.210938 89.9375 334.925781 91.003906 333.074219 92.257812 C 332.511719 96.71875 330.59375 101.179688 328.617188 105.160156 C 325.25 111.929688 320.789062 118.132812 315.375 123.417969 C 312.914062 125.804688 309.433594 129.53125 306.410156 131.183594 Z M 306.410156 131.183594 " fill-opacity="1" fill-rule="evenodd"/><path fill="#000000" d="M 352.097656 77.84375 C 351.808594 77.996094 351.542969 78.136719 351.476562 78.183594 C 349.820312 79.476562 348.1875 80.683594 346.339844 81.707031 C 345.707031 82.054688 345.050781 82.347656 344.40625 82.671875 C 344.304688 82.726562 344.015625 82.859375 343.867188 83.011719 C 343.660156 83.21875 343.601562 83.460938 343.660156 83.699219 C 343.71875 83.9375 343.890625 84.136719 344.1875 84.230469 C 344.417969 84.300781 344.785156 84.285156 344.902344 84.289062 C 345.085938 84.289062 345.648438 84.503906 346.382812 84.792969 C 348.328125 85.554688 351.371094 86.933594 352.773438 87.71875 C 352.933594 87.808594 353.417969 88.136719 353.832031 88.425781 C 353.578125 88.589844 353.316406 88.746094 353.175781 88.800781 C 351.785156 89.332031 350.140625 89.875 349.246094 91.144531 C 348.914062 91.617188 348.808594 92.167969 348.808594 92.746094 C 348.820312 93.433594 349.015625 94.167969 349.039062 94.792969 C 349.097656 96.46875 348.796875 97.933594 347.808594 99.328125 C 347.039062 100.425781 346.085938 101.460938 344.902344 102.125 C 344.707031 102.234375 343.050781 103.039062 343.050781 103.039062 C 342.820312 103.152344 342.695312 103.40625 342.742188 103.660156 C 342.785156 103.914062 343.003906 104.101562 343.257812 104.121094 C 343.257812 104.121094 345.796875 104.300781 346.554688 104.199219 C 350.464844 103.699219 352.84375 101.210938 354.554688 97.882812 C 354.808594 97.402344 354.992188 96.792969 355.1875 96.199219 C 355.359375 95.707031 355.53125 95.222656 355.820312 94.878906 C 356.097656 94.554688 356.496094 94.339844 356.910156 94.128906 C 357.429688 93.863281 357.957031 93.621094 358.371094 93.308594 C 359.648438 92.355469 360.542969 91.152344 361.371094 89.808594 C 361.691406 89.28125 361.992188 88.742188 362.277344 88.203125 C 362.429688 87.941406 363.300781 86.328125 363.300781 86.328125 C 363.453125 86.050781 363.347656 85.707031 363.070312 85.554688 C 363.070312 85.554688 362.1875 85.078125 362.027344 84.992188 C 361.453125 84.710938 359.867188 83.996094 358.683594 83.46875 C 358.671875 83.46875 363.234375 82.066406 363.234375 82.066406 C 363.519531 81.980469 363.691406 81.683594 363.625 81.390625 C 363.625 81.390625 363.152344 79.402344 362.1875 77.523438 C 361.507812 76.199219 360.578125 74.945312 359.429688 74.382812 C 359.003906 74.171875 358.429688 74.015625 357.890625 73.839844 C 357.453125 73.703125 357.039062 73.566406 356.785156 73.332031 C 356.695312 73.25 356.683594 73.101562 356.660156 72.957031 C 356.601562 72.671875 356.566406 72.375 356.507812 72.15625 C 356.222656 71.105469 355.773438 70.046875 355.210938 69.117188 C 352.867188 65.316406 346.980469 62.507812 342.773438 62.746094 C 342.5 62.761719 342.269531 62.96875 342.234375 63.242188 C 342.199219 63.515625 342.363281 63.773438 342.625 63.859375 C 343.980469 64.316406 345.109375 65.621094 346.074219 67.175781 C 347.613281 69.667969 348.683594 72.8125 349.382812 74.625 C 349.867188 75.875 350.335938 76.664062 351.464844 77.441406 C 351.671875 77.585938 351.878906 77.722656 352.097656 77.84375 Z M 345.523438 103.089844 C 346.832031 102.34375 347.902344 101.199219 348.75 99.984375 C 349.890625 98.375 350.257812 96.6875 350.1875 94.75 C 350.164062 94.222656 350.027344 93.621094 349.980469 93.035156 C 349.933594 92.59375 349.933594 92.15625 350.1875 91.804688 C 350.957031 90.71875 352.40625 90.324219 353.589844 89.867188 C 353.980469 89.714844 355.164062 88.90625 355.164062 88.90625 C 355.324219 88.796875 355.40625 88.625 355.40625 88.4375 C 355.417969 88.253906 355.324219 88.078125 355.175781 87.96875 C 355.175781 87.96875 353.660156 86.898438 353.335938 86.71875 C 351.695312 85.800781 347.867188 84.085938 346.027344 83.433594 C 345.902344 83.390625 345.796875 83.351562 345.683594 83.320312 C 346.097656 83.125 346.5 82.925781 346.902344 82.707031 C 348.808594 81.65625 350.476562 80.414062 352.1875 79.085938 C 352.324219 78.976562 353.417969 78.492188 353.671875 78.324219 C 353.84375 78.203125 353.902344 78.066406 353.921875 78.003906 C 353.980469 77.855469 354.015625 77.585938 353.738281 77.355469 C 353.648438 77.277344 353.128906 77.070312 353.074219 77.046875 C 352.738281 76.902344 352.417969 76.710938 352.121094 76.503906 C 351.210938 75.875 350.84375 75.222656 350.453125 74.214844 C 349.738281 72.359375 348.636719 69.128906 347.050781 66.578125 C 346.453125 65.59375 345.761719 64.714844 345.015625 64.027344 C 348.511719 64.617188 352.464844 66.855469 354.234375 69.714844 C 354.738281 70.554688 355.140625 71.507812 355.394531 72.460938 C 355.464844 72.707031 355.488281 73.058594 355.566406 73.371094 C 355.648438 73.691406 355.796875 73.976562 356.003906 74.167969 C 356.292969 74.441406 356.726562 74.652344 357.210938 74.824219 C 357.785156 75.027344 358.453125 75.179688 358.921875 75.410156 C 359.867188 75.875 360.601562 76.945312 361.164062 78.042969 C 361.773438 79.230469 362.164062 80.460938 362.359375 81.136719 C 362.359375 81.136719 356.867188 82.824219 356.867188 82.824219 C 356.648438 82.894531 356.488281 83.097656 356.464844 83.335938 C 356.453125 83.574219 356.589844 83.796875 356.808594 83.894531 C 356.808594 83.894531 360.578125 85.550781 361.507812 86.015625 C 361.578125 86.054688 361.796875 86.171875 362.015625 86.289062 C 361.75 86.78125 361.371094 87.488281 361.277344 87.652344 C 360.992188 88.175781 360.703125 88.699219 360.382812 89.210938 C 359.636719 90.429688 358.84375 91.53125 357.683594 92.390625 C 357.3125 92.667969 356.84375 92.878906 356.382812 93.109375 C 355.832031 93.390625 355.3125 93.710938 354.945312 94.144531 C 354.566406 94.585938 354.3125 95.195312 354.109375 95.832031 C 353.921875 96.371094 353.761719 96.925781 353.542969 97.363281 C 352.003906 100.339844 349.914062 102.613281 346.417969 103.066406 C 346.210938 103.089844 345.890625 103.09375 345.523438 103.089844 Z M 345.523438 103.089844 " fill-opacity="1" fill-rule="evenodd"/><path fill="#000000" d="M 339.1875 88.632812 C 339.328125 88.527344 340.15625 87.921875 340.246094 87.847656 C 341.523438 86.820312 343.960938 84.429688 345.121094 83.28125 C 345.234375 83.175781 345.292969 83.035156 345.292969 82.886719 C 345.292969 82.761719 345.257812 82.59375 345.121094 82.433594 C 345.015625 82.320312 344.761719 82.160156 344.707031 82.117188 C 344.304688 81.820312 343.914062 81.53125 343.511719 81.238281 C 341.980469 80.105469 340.476562 78.851562 338.820312 77.886719 C 338.582031 77.742188 338.257812 77.800781 338.085938 78.03125 C 337.625 78.613281 336.429688 79.191406 335.800781 79.621094 C 334.0625 80.816406 332.257812 81.910156 330.5 83.0625 C 330.246094 83.128906 330.144531 83.367188 330.132812 83.417969 C 330.085938 83.535156 330.019531 83.796875 330.269531 84.042969 C 330.304688 84.070312 330.535156 84.195312 330.617188 84.253906 C 330.789062 84.367188 330.960938 84.480469 331.132812 84.597656 C 331.730469 85.003906 332.351562 85.378906 332.972656 85.75 C 334.765625 86.828125 336.546875 87.949219 338.417969 88.875 C 338.601562 88.964844 338.820312 88.949219 338.992188 88.839844 C 339.074219 88.785156 339.144531 88.714844 339.1875 88.632812 Z M 343.855469 82.917969 C 342.613281 84.140625 340.625 86.070312 339.523438 86.960938 C 339.429688 87.03125 338.890625 87.386719 338.558594 87.660156 C 336.84375 86.785156 335.210938 85.761719 333.558594 84.769531 C 332.960938 84.410156 332.363281 84.046875 331.777344 83.652344 L 331.742188 83.625 C 333.316406 82.609375 334.902344 81.625 336.453125 80.566406 C 337.027344 80.171875 338.003906 79.640625 338.625 79.105469 C 340.097656 80.015625 341.441406 81.140625 342.832031 82.160156 C 343.175781 82.410156 343.523438 82.664062 343.855469 82.917969 Z M 330.582031 84.1875 Z M 330.582031 84.1875 " fill-opacity="1" fill-rule="evenodd"/><g clip-path="url(#b905044699)"><path fill="#000000" d="M 363.1875 81.460938 L 374.898438 84.03125 L 363.1875 85.984375 L 358.28125 83.484375 Z M 363.1875 81.460938 " fill-opacity="1" fill-rule="evenodd"/></g><path fill="#000000" d="M 68.625 31.5 C 67.902344 31.226562 66.417969 31.710938 65.71875 31.851562 C 62.683594 32.46875 59.753906 33.578125 56.949219 34.871094 C 46.511719 39.675781 38.949219 48.695312 34.273438 58.996094 C 33.101562 61.566406 32.136719 64.273438 31.539062 67.035156 C 31.375 67.777344 30.894531 69.136719 31.226562 69.90625 C 31.527344 70.566406 32.285156 71.082031 32.800781 71.558594 C 33.90625 72.578125 34.925781 73.480469 36.191406 74.25 C 37.824219 72.746094 40.109375 71.679688 41.960938 70.425781 C 42.523438 65.964844 44.445312 61.507812 46.421875 57.523438 C 49.789062 50.757812 54.246094 44.550781 59.660156 39.265625 C 62.121094 36.878906 65.601562 33.152344 68.625 31.5 Z M 68.625 31.5 " fill-opacity="1" fill-rule="evenodd"/><path fill="#000000" d="M 68.625 126.308594 C 67.902344 126.582031 66.417969 126.097656 65.71875 125.957031 C 62.683594 125.339844 59.753906 124.230469 56.949219 122.9375 C 46.511719 118.132812 38.949219 109.113281 34.273438 98.8125 C 33.101562 96.242188 32.136719 93.535156 31.539062 90.773438 C 31.375 90.03125 30.894531 88.671875 31.226562 87.902344 C 31.527344 87.242188 32.285156 86.726562 32.800781 86.25 C 33.90625 85.230469 34.925781 84.328125 36.191406 83.558594 C 37.824219 85.058594 40.109375 86.128906 41.960938 87.382812 C 42.523438 91.84375 44.445312 96.300781 46.421875 100.285156 C 49.789062 107.050781 54.246094 113.257812 59.660156 118.542969 C 62.121094 120.929688 65.601562 124.65625 68.625 126.308594 Z M 68.625 126.308594 " fill-opacity="1" fill-rule="evenodd"/><path fill="#000000" d="M 22.941406 72.96875 C 23.226562 73.121094 23.492188 73.261719 23.5625 73.308594 C 25.214844 74.601562 26.847656 75.808594 28.699219 76.832031 C 29.332031 77.179688 29.984375 77.472656 30.628906 77.796875 C 30.734375 77.847656 31.019531 77.984375 31.167969 78.136719 C 31.375 78.339844 31.433594 78.585938 31.375 78.824219 C 31.320312 79.058594 31.144531 79.261719 30.847656 79.355469 C 30.617188 79.425781 30.25 79.410156 30.136719 79.410156 C 29.949219 79.414062 29.386719 79.628906 28.652344 79.917969 C 26.710938 80.679688 23.664062 82.058594 22.261719 82.84375 C 22.101562 82.933594 21.617188 83.261719 21.203125 83.550781 C 21.457031 83.714844 21.722656 83.871094 21.859375 83.925781 C 23.25 84.457031 24.894531 85 25.789062 86.269531 C 26.125 86.742188 26.226562 87.292969 26.226562 87.871094 C 26.214844 88.558594 26.019531 89.292969 25.996094 89.914062 C 25.941406 91.59375 26.238281 93.058594 27.226562 94.453125 C 27.996094 95.550781 28.953125 96.585938 30.136719 97.246094 C 30.332031 97.359375 31.984375 98.160156 31.984375 98.160156 C 32.214844 98.273438 32.339844 98.53125 32.296875 98.785156 C 32.25 99.039062 32.03125 99.226562 31.777344 99.246094 C 31.777344 99.246094 29.238281 99.425781 28.480469 99.324219 C 24.574219 98.820312 22.191406 96.335938 20.480469 93.007812 C 20.226562 92.527344 20.042969 91.917969 19.847656 91.324219 C 19.675781 90.832031 19.503906 90.347656 19.214844 90.003906 C 18.941406 89.679688 18.539062 89.460938 18.125 89.25 C 17.609375 88.988281 17.078125 88.746094 16.664062 88.433594 C 15.390625 87.480469 14.492188 86.277344 13.664062 84.933594 C 13.34375 84.40625 13.042969 83.867188 12.757812 83.328125 C 12.609375 83.066406 11.734375 81.453125 11.734375 81.453125 C 11.585938 81.175781 11.6875 80.832031 11.964844 80.679688 C 11.964844 80.679688 12.847656 80.199219 13.011719 80.117188 C 13.585938 79.835938 15.171875 79.121094 16.355469 78.59375 C 16.367188 78.589844 11.804688 77.191406 11.804688 77.191406 C 11.515625 77.101562 11.34375 76.804688 11.414062 76.511719 C 11.414062 76.511719 11.882812 74.523438 12.847656 72.648438 C 13.527344 71.324219 14.457031 70.070312 15.609375 69.507812 C 16.03125 69.296875 16.609375 69.140625 17.148438 68.964844 C 17.585938 68.828125 18 68.691406 18.25 68.457031 C 18.34375 68.375 18.355469 68.226562 18.378906 68.082031 C 18.433594 67.796875 18.46875 67.5 18.527344 67.28125 C 18.8125 66.226562 19.261719 65.171875 19.824219 64.242188 C 22.171875 60.441406 28.054688 57.632812 32.261719 57.871094 C 32.539062 57.886719 32.765625 58.09375 32.800781 58.367188 C 32.835938 58.636719 32.675781 58.898438 32.410156 58.984375 C 31.054688 59.441406 29.929688 60.746094 28.960938 62.300781 C 27.421875 64.789062 26.355469 67.9375 25.652344 69.75 C 25.171875 70.996094 24.699219 71.789062 23.574219 72.566406 C 23.367188 72.710938 23.160156 72.84375 22.941406 72.96875 Z M 29.515625 98.214844 C 28.203125 97.46875 27.136719 96.324219 26.285156 95.105469 C 25.148438 93.496094 24.777344 91.8125 24.847656 89.875 C 24.871094 89.347656 25.007812 88.746094 25.054688 88.160156 C 25.101562 87.71875 25.101562 87.28125 24.847656 86.929688 C 24.078125 85.839844 22.628906 85.449219 21.445312 84.992188 C 21.054688 84.839844 19.871094 84.027344 19.871094 84.027344 C 19.710938 83.921875 19.628906 83.75 19.628906 83.5625 C 19.617188 83.375 19.710938 83.203125 19.859375 83.09375 C 19.859375 83.09375 21.378906 82.023438 21.699219 81.84375 C 23.34375 80.925781 27.167969 79.210938 29.007812 78.558594 C 29.136719 78.515625 29.238281 78.476562 29.355469 78.445312 C 28.941406 78.25 28.539062 78.050781 28.136719 77.832031 C 26.226562 76.78125 24.5625 75.539062 22.847656 74.210938 C 22.710938 74.101562 21.617188 73.617188 21.367188 73.449219 C 21.195312 73.328125 21.136719 73.191406 21.113281 73.125 C 21.054688 72.976562 21.019531 72.710938 21.296875 72.480469 C 21.390625 72.402344 21.90625 72.195312 21.964844 72.171875 C 22.296875 72.027344 22.617188 71.835938 22.917969 71.628906 C 23.824219 71 24.191406 70.347656 24.582031 69.339844 C 25.296875 67.480469 26.398438 64.253906 27.984375 61.699219 C 28.582031 60.71875 29.273438 59.839844 30.019531 59.152344 C 26.527344 59.738281 22.574219 61.980469 20.800781 64.839844 C 20.296875 65.679688 19.894531 66.632812 19.640625 67.582031 C 19.574219 67.832031 19.550781 68.183594 19.46875 68.492188 C 19.390625 68.816406 19.238281 69.097656 19.03125 69.292969 C 18.746094 69.566406 18.308594 69.773438 17.824219 69.945312 C 17.25 70.152344 16.585938 70.304688 16.113281 70.53125 C 15.171875 71 14.433594 72.070312 13.871094 73.167969 C 13.261719 74.351562 12.871094 75.585938 12.675781 76.261719 C 12.675781 76.261719 18.171875 77.949219 18.171875 77.949219 C 18.390625 78.019531 18.550781 78.222656 18.574219 78.460938 C 18.585938 78.699219 18.445312 78.921875 18.226562 79.019531 C 18.226562 79.019531 14.457031 80.675781 13.527344 81.140625 C 13.457031 81.175781 13.238281 81.296875 13.023438 81.410156 C 13.285156 81.90625 13.664062 82.613281 13.757812 82.777344 C 14.042969 83.300781 14.332031 83.824219 14.652344 84.335938 C 15.402344 85.554688 16.195312 86.652344 17.355469 87.515625 C 17.722656 87.792969 18.195312 88 18.652344 88.234375 C 19.203125 88.515625 19.722656 88.832031 20.089844 89.265625 C 20.46875 89.707031 20.722656 90.320312 20.929688 90.957031 C 21.113281 91.496094 21.273438 92.050781 21.492188 92.484375 C 23.03125 95.464844 25.125 97.738281 28.617188 98.1875 C 28.824219 98.214844 29.148438 98.21875 29.515625 98.214844 Z M 29.515625 98.214844 " fill-opacity="1" fill-rule="evenodd"/><path fill="#000000" d="M 35.847656 83.753906 C 35.710938 83.652344 34.882812 83.046875 34.789062 82.972656 C 33.515625 81.945312 31.078125 79.554688 29.917969 78.40625 C 29.800781 78.300781 29.746094 78.160156 29.746094 78.011719 C 29.746094 77.886719 29.777344 77.714844 29.917969 77.558594 C 30.019531 77.441406 30.273438 77.285156 30.332031 77.242188 C 30.734375 76.945312 31.125 76.652344 31.527344 76.363281 C 33.054688 75.230469 34.558594 73.976562 36.214844 73.011719 C 36.457031 72.863281 36.777344 72.925781 36.949219 73.15625 C 37.410156 73.738281 38.605469 74.3125 39.238281 74.746094 C 40.972656 75.941406 42.777344 77.035156 44.535156 78.1875 C 44.789062 78.253906 44.890625 78.492188 44.902344 78.539062 C 44.949219 78.660156 45.019531 78.921875 44.765625 79.167969 C 44.730469 79.191406 44.5 79.320312 44.421875 79.375 C 44.25 79.492188 44.078125 79.605469 43.902344 79.722656 C 43.304688 80.128906 42.683594 80.503906 42.066406 80.875 C 40.273438 81.953125 38.492188 83.074219 36.617188 83.996094 C 36.433594 84.089844 36.214844 84.074219 36.042969 83.960938 C 35.960938 83.910156 35.894531 83.835938 35.847656 83.753906 Z M 31.179688 78.042969 C 32.421875 79.261719 34.410156 81.191406 35.515625 82.085938 C 35.605469 82.15625 36.144531 82.511719 36.480469 82.785156 C 38.191406 81.910156 39.824219 80.882812 41.480469 79.894531 C 42.078125 79.535156 42.675781 79.171875 43.261719 78.773438 L 43.292969 78.75 C 41.71875 77.734375 40.132812 76.75 38.582031 75.691406 C 38.007812 75.296875 37.03125 74.765625 36.410156 74.226562 C 34.9375 75.136719 33.59375 76.261719 32.203125 77.285156 C 31.859375 77.535156 31.515625 77.789062 31.179688 78.042969 Z M 44.457031 79.3125 Z M 44.457031 79.3125 " fill-opacity="1" fill-rule="evenodd"/><g clip-path="url(#ef1f1ad11d)"><path fill="#000000" d="M 11.847656 76.585938 L 0.136719 79.15625 L 11.847656 81.109375 L 16.757812 78.605469 Z M 11.847656 76.585938 " fill-opacity="1" fill-rule="evenodd"/></g></svg>