<svg xmlns="http://www.w3.org/2000/svg" xmlns:xlink="http://www.w3.org/1999/xlink" width="500" zoomAndPan="magnify" viewBox="0 0 375 157.92" height="200" preserveAspectRatio="xMidYMid meet" version="1.0"><defs><clipPath id="f76738d111"><path d="M 358 74 L 374.902344 74 L 374.902344 80 L 358 80 Z M 358 74 " clip-rule="nonzero"/></clipPath><clipPath id="4b9c929b1d"><path d="M 0.09375 69 L 17 69 L 17 75 L 0.09375 75 Z M 0.09375 69 " clip-rule="nonzero"/></clipPath><clipPath id="df7ffa1c4f"><path d="M 93 10.308594 L 136 10.308594 L 136 32 L 93 32 Z M 93 10.308594 " clip-rule="nonzero"/></clipPath></defs><path fill="#000000" d="M 306.363281 29.597656 C 307.085938 29.324219 308.566406 29.804688 309.269531 29.945312 C 312.300781 30.5625 315.230469 31.671875 318.035156 32.964844 C 328.464844 37.769531 336.023438 46.78125 340.699219 57.078125 C 341.871094 59.648438 342.835938 62.355469 343.433594 65.113281 C 343.59375 65.859375 344.078125 67.214844 343.746094 67.984375 C 343.445312 68.644531 342.6875 69.160156 342.171875 69.636719 C 341.066406 70.65625 340.046875 71.554688 338.78125 72.324219 C 337.148438 70.824219 334.863281 69.757812 333.015625 68.503906 C 332.453125 64.042969 330.53125 59.589844 328.558594 55.605469 C 325.191406 48.84375 320.734375 42.640625 315.324219 37.355469 C 312.863281 34.96875 309.382812 31.246094 306.363281 29.597656 Z M 306.363281 29.597656 " fill-opacity="1" fill-rule="evenodd"/><path fill="#000000" d="M 306.363281 124.363281 C 307.085938 124.636719 308.566406 124.152344 309.269531 124.011719 C 312.300781 123.394531 315.230469 122.285156 318.035156 120.992188 C 328.464844 116.191406 336.023438 107.175781 340.699219 96.878906 C 341.871094 94.308594 342.835938 91.601562 343.433594 88.84375 C 343.59375 88.101562 344.078125 86.742188 343.746094 85.972656 C 343.445312 85.3125 342.6875 84.796875 342.171875 84.320312 C 341.066406 83.300781 340.046875 82.402344 338.78125 81.632812 C 337.148438 83.132812 334.863281 84.199219 333.015625 85.453125 C 332.453125 89.914062 330.53125 94.371094 328.558594 98.351562 C 325.191406 105.113281 320.734375 111.320312 315.324219 116.601562 C 312.863281 118.988281 309.382812 122.710938 306.363281 124.363281 Z M 306.363281 124.363281 " fill-opacity="1" fill-rule="evenodd"/><path fill="#000000" d="M 352.027344 71.046875 C 351.742188 71.195312 351.476562 71.339844 351.40625 71.386719 C 349.753906 72.675781 348.121094 73.882812 346.273438 74.90625 C 345.640625 75.253906 344.984375 75.546875 344.34375 75.871094 C 344.238281 75.925781 343.953125 76.058594 343.800781 76.210938 C 343.59375 76.417969 343.539062 76.660156 343.59375 76.898438 C 343.652344 77.136719 343.824219 77.335938 344.125 77.429688 C 344.355469 77.5 344.722656 77.484375 344.835938 77.488281 C 345.019531 77.488281 345.582031 77.703125 346.316406 77.992188 C 348.257812 78.753906 351.304688 80.132812 352.707031 80.914062 C 352.867188 81.007812 353.347656 81.335938 353.761719 81.625 C 353.511719 81.785156 353.246094 81.941406 353.109375 81.996094 C 351.71875 82.53125 350.074219 83.070312 349.179688 84.34375 C 348.84375 84.8125 348.742188 85.363281 348.742188 85.941406 C 348.753906 86.628906 348.949219 87.363281 348.972656 87.984375 C 349.03125 89.664062 348.730469 91.125 347.742188 92.519531 C 346.972656 93.617188 346.019531 94.652344 344.835938 95.316406 C 344.640625 95.425781 342.988281 96.226562 342.988281 96.226562 C 342.757812 96.339844 342.628906 96.597656 342.675781 96.851562 C 342.722656 97.105469 342.941406 97.292969 343.191406 97.3125 C 343.191406 97.3125 345.730469 97.492188 346.492188 97.390625 C 350.394531 96.886719 352.773438 94.402344 354.484375 91.078125 C 354.738281 90.597656 354.921875 89.988281 355.117188 89.394531 C 355.289062 88.902344 355.460938 88.414062 355.75 88.074219 C 356.027344 87.75 356.425781 87.53125 356.839844 87.320312 C 357.359375 87.058594 357.886719 86.816406 358.300781 86.503906 C 359.574219 85.554688 360.472656 84.351562 361.300781 83.003906 C 361.621094 82.480469 361.917969 81.941406 362.207031 81.398438 C 362.355469 81.140625 363.230469 79.527344 363.230469 79.527344 C 363.378906 79.25 363.273438 78.902344 363 78.753906 C 363 78.753906 362.113281 78.273438 361.953125 78.191406 C 361.378906 77.910156 359.792969 77.195312 358.609375 76.667969 C 358.597656 76.664062 363.160156 75.265625 363.160156 75.265625 C 363.449219 75.179688 363.621094 74.882812 363.550781 74.589844 C 363.550781 74.589844 363.078125 72.601562 362.113281 70.722656 C 361.4375 69.402344 360.507812 68.148438 359.355469 67.585938 C 358.933594 67.375 358.359375 67.21875 357.816406 67.042969 C 357.382812 66.90625 356.96875 66.769531 356.714844 66.535156 C 356.625 66.453125 356.613281 66.304688 356.589844 66.160156 C 356.53125 65.875 356.496094 65.578125 356.4375 65.359375 C 356.152344 64.308594 355.703125 63.25 355.140625 62.320312 C 352.796875 58.523438 346.914062 55.714844 342.710938 55.953125 C 342.433594 55.96875 342.207031 56.179688 342.171875 56.449219 C 342.136719 56.722656 342.296875 56.980469 342.5625 57.066406 C 343.917969 57.523438 345.042969 58.828125 346.007812 60.382812 C 347.546875 62.871094 348.617188 66.019531 349.316406 67.828125 C 349.800781 69.074219 350.269531 69.867188 351.394531 70.644531 C 351.601562 70.789062 351.808594 70.921875 352.027344 71.046875 Z M 345.457031 96.28125 C 346.765625 95.535156 347.835938 94.394531 348.683594 93.175781 C 349.820312 91.566406 350.191406 89.882812 350.121094 87.941406 C 350.097656 87.417969 349.960938 86.816406 349.914062 86.230469 C 349.867188 85.789062 349.867188 85.355469 350.121094 85 C 350.890625 83.914062 352.339844 83.523438 353.519531 83.066406 C 353.910156 82.910156 355.09375 82.101562 355.09375 82.101562 C 355.257812 81.996094 355.335938 81.820312 355.335938 81.632812 C 355.347656 81.449219 355.257812 81.273438 355.105469 81.167969 C 355.105469 81.167969 353.589844 80.09375 353.269531 79.917969 C 351.625 79 347.800781 77.285156 345.960938 76.632812 C 345.835938 76.589844 345.730469 76.550781 345.617188 76.519531 C 346.03125 76.324219 346.433594 76.125 346.835938 75.90625 C 348.742188 74.855469 350.40625 73.617188 352.121094 72.289062 C 352.257812 72.179688 353.347656 71.695312 353.601562 71.527344 C 353.773438 71.40625 353.832031 71.269531 353.855469 71.203125 C 353.910156 71.054688 353.945312 70.789062 353.671875 70.558594 C 353.578125 70.480469 353.0625 70.269531 353.003906 70.25 C 352.671875 70.105469 352.347656 69.914062 352.050781 69.703125 C 351.144531 69.078125 350.777344 68.425781 350.386719 67.417969 C 349.671875 65.5625 348.570312 62.335938 346.984375 59.78125 C 346.386719 58.800781 345.699219 57.921875 344.949219 57.234375 C 348.445312 57.820312 352.394531 60.0625 354.164062 62.917969 C 354.671875 63.757812 355.070312 64.714844 355.324219 65.664062 C 355.394531 65.910156 355.417969 66.261719 355.496094 66.574219 C 355.578125 66.894531 355.726562 67.179688 355.933594 67.371094 C 356.222656 67.644531 356.65625 67.851562 357.140625 68.023438 C 357.714844 68.230469 358.382812 68.382812 358.851562 68.609375 C 359.792969 69.078125 360.527344 70.148438 361.09375 71.242188 C 361.699219 72.429688 362.089844 73.664062 362.285156 74.335938 C 362.285156 74.335938 356.796875 76.023438 356.796875 76.023438 C 356.578125 76.09375 356.417969 76.296875 356.394531 76.535156 C 356.382812 76.773438 356.519531 76.996094 356.738281 77.09375 C 356.738281 77.09375 360.507812 78.75 361.4375 79.214844 C 361.503906 79.25 361.722656 79.367188 361.941406 79.484375 C 361.679688 79.980469 361.300781 80.6875 361.207031 80.847656 C 360.917969 81.375 360.632812 81.898438 360.3125 82.40625 C 359.5625 83.625 358.769531 84.726562 357.609375 85.585938 C 357.242188 85.863281 356.773438 86.074219 356.3125 86.304688 C 355.761719 86.585938 355.246094 86.902344 354.875 87.339844 C 354.496094 87.777344 354.246094 88.390625 354.039062 89.027344 C 353.855469 89.566406 353.695312 90.117188 353.476562 90.554688 C 351.9375 93.535156 349.84375 95.804688 346.351562 96.253906 C 346.144531 96.28125 345.824219 96.285156 345.457031 96.28125 Z M 345.457031 96.28125 " fill-opacity="1" fill-rule="evenodd"/><path fill="#000000" d="M 339.125 81.828125 C 339.265625 81.726562 340.089844 81.121094 340.183594 81.046875 C 341.457031 80.019531 343.894531 77.628906 345.054688 76.480469 C 345.167969 76.375 345.226562 76.234375 345.226562 76.085938 C 345.226562 75.960938 345.191406 75.792969 345.054688 75.632812 C 344.949219 75.519531 344.699219 75.359375 344.640625 75.316406 C 344.238281 75.023438 343.847656 74.730469 343.445312 74.4375 C 341.917969 73.308594 340.414062 72.054688 338.757812 71.089844 C 338.515625 70.941406 338.195312 71.003906 338.023438 71.230469 C 337.5625 71.816406 336.367188 72.390625 335.738281 72.824219 C 334.003906 74.015625 332.199219 75.109375 330.441406 76.261719 C 330.1875 76.328125 330.085938 76.566406 330.074219 76.617188 C 330.027344 76.734375 329.957031 76.996094 330.210938 77.242188 C 330.246094 77.269531 330.476562 77.394531 330.554688 77.449219 C 330.726562 77.566406 330.902344 77.679688 331.074219 77.796875 C 331.671875 78.203125 332.289062 78.578125 332.910156 78.949219 C 334.703125 80.027344 336.484375 81.144531 338.355469 82.070312 C 338.539062 82.160156 338.757812 82.148438 338.929688 82.035156 C 339.011719 81.980469 339.082031 81.910156 339.125 81.828125 Z M 343.789062 76.117188 C 342.550781 77.335938 340.5625 79.265625 339.460938 80.160156 C 339.367188 80.226562 338.828125 80.585938 338.496094 80.855469 C 336.78125 79.984375 335.152344 78.957031 333.496094 77.96875 C 332.898438 77.609375 332.300781 77.246094 331.714844 76.851562 L 331.683594 76.824219 C 333.253906 75.808594 334.839844 74.824219 336.390625 73.765625 C 336.964844 73.371094 337.941406 72.839844 338.5625 72.304688 C 340.035156 73.214844 341.378906 74.339844 342.769531 75.359375 C 343.113281 75.609375 343.457031 75.863281 343.789062 76.117188 Z M 330.523438 77.386719 Z M 330.523438 77.386719 " fill-opacity="1" fill-rule="evenodd"/><g clip-path="url(#f76738d111)"><path fill="#000000" d="M 363.113281 74.664062 L 374.820312 77.230469 L 363.113281 79.183594 L 358.207031 76.683594 Z M 363.113281 74.664062 " fill-opacity="1" fill-rule="evenodd"/></g><path fill="#000000" d="M 68.675781 24.722656 C 67.953125 24.449219 66.46875 24.933594 65.769531 25.074219 C 62.734375 25.6875 59.804688 26.796875 57.003906 28.089844 C 46.570312 32.894531 39.011719 41.910156 34.335938 52.203125 C 33.164062 54.773438 32.199219 57.480469 31.601562 60.238281 C 31.441406 60.984375 30.960938 62.34375 31.292969 63.109375 C 31.589844 63.769531 32.347656 64.285156 32.867188 64.761719 C 33.96875 65.785156 34.992188 66.683594 36.253906 67.453125 C 37.886719 65.953125 40.171875 64.882812 42.023438 63.632812 C 42.585938 59.171875 44.503906 54.714844 46.480469 50.734375 C 49.847656 43.96875 54.304688 37.765625 59.714844 32.484375 C 62.171875 30.097656 65.652344 26.371094 68.675781 24.722656 Z M 68.675781 24.722656 " fill-opacity="1" fill-rule="evenodd"/><path fill="#000000" d="M 68.675781 119.488281 C 67.953125 119.761719 66.46875 119.277344 65.769531 119.136719 C 62.734375 118.523438 59.804688 117.414062 57.003906 116.121094 C 46.570312 111.316406 39.011719 102.300781 34.335938 92.003906 C 33.164062 89.4375 32.199219 86.730469 31.601562 83.96875 C 31.441406 83.226562 30.960938 81.867188 31.292969 81.101562 C 31.589844 80.441406 32.347656 79.925781 32.867188 79.449219 C 33.96875 78.425781 34.992188 77.527344 36.253906 76.757812 C 37.886719 78.257812 40.171875 79.328125 42.023438 80.578125 C 42.585938 85.039062 44.503906 89.496094 46.480469 93.476562 C 49.847656 100.242188 54.304688 106.445312 59.714844 111.726562 C 62.171875 114.113281 65.652344 117.835938 68.675781 119.488281 Z M 68.675781 119.488281 " fill-opacity="1" fill-rule="evenodd"/><path fill="#000000" d="M 23.007812 66.171875 C 23.296875 66.324219 23.558594 66.464844 23.628906 66.511719 C 25.285156 67.804688 26.914062 69.011719 28.765625 70.03125 C 29.398438 70.382812 30.050781 70.671875 30.695312 70.996094 C 30.796875 71.050781 31.085938 71.183594 31.234375 71.335938 C 31.441406 71.542969 31.5 71.785156 31.441406 72.023438 C 31.382812 72.261719 31.210938 72.460938 30.914062 72.554688 C 30.683594 72.625 30.316406 72.609375 30.199219 72.613281 C 30.015625 72.613281 29.453125 72.828125 28.71875 73.117188 C 26.777344 73.878906 23.734375 75.257812 22.332031 76.042969 C 22.171875 76.132812 21.6875 76.460938 21.273438 76.75 C 21.527344 76.910156 21.792969 77.070312 21.929688 77.125 C 23.320312 77.65625 24.960938 78.199219 25.859375 79.46875 C 26.191406 79.941406 26.292969 80.488281 26.292969 81.066406 C 26.285156 81.757812 26.085938 82.488281 26.066406 83.113281 C 26.007812 84.789062 26.304688 86.253906 27.292969 87.644531 C 28.0625 88.742188 29.015625 89.78125 30.199219 90.441406 C 30.394531 90.550781 32.050781 91.355469 32.050781 91.355469 C 32.28125 91.46875 32.40625 91.722656 32.359375 91.976562 C 32.316406 92.230469 32.097656 92.421875 31.84375 92.4375 C 31.84375 92.4375 29.304688 92.617188 28.546875 92.515625 C 24.640625 92.015625 22.261719 89.53125 20.550781 86.203125 C 20.296875 85.722656 20.113281 85.113281 19.917969 84.519531 C 19.746094 84.027344 19.574219 83.542969 19.285156 83.203125 C 19.011719 82.878906 18.609375 82.660156 18.195312 82.449219 C 17.679688 82.1875 17.148438 81.941406 16.738281 81.628906 C 15.460938 80.679688 14.566406 79.476562 13.738281 78.128906 C 13.417969 77.605469 13.117188 77.066406 12.832031 76.527344 C 12.679688 76.265625 11.808594 74.652344 11.808594 74.652344 C 11.660156 74.375 11.761719 74.03125 12.039062 73.878906 C 12.039062 73.878906 12.921875 73.402344 13.082031 73.316406 C 13.65625 73.035156 15.242188 72.320312 16.425781 71.792969 C 16.4375 71.792969 11.875 70.394531 11.875 70.394531 C 11.589844 70.304688 11.417969 70.007812 11.484375 69.714844 C 11.484375 69.714844 11.957031 67.726562 12.921875 65.851562 C 13.601562 64.527344 14.53125 63.273438 15.679688 62.710938 C 16.105469 62.503906 16.679688 62.34375 17.21875 62.167969 C 17.65625 62.03125 18.070312 61.894531 18.320312 61.664062 C 18.414062 61.578125 18.425781 61.429688 18.449219 61.285156 C 18.503906 61.003906 18.539062 60.707031 18.597656 60.484375 C 18.882812 59.433594 19.332031 58.378906 19.894531 57.449219 C 22.238281 53.652344 28.121094 50.84375 32.328125 51.078125 C 32.601562 51.097656 32.832031 51.304688 32.867188 51.574219 C 32.902344 51.847656 32.738281 52.109375 32.476562 52.195312 C 31.121094 52.648438 29.992188 53.953125 29.027344 55.507812 C 27.488281 57.996094 26.421875 61.144531 25.71875 62.953125 C 25.238281 64.203125 24.765625 64.992188 23.640625 65.769531 C 23.433594 65.914062 23.226562 66.046875 23.007812 66.171875 Z M 29.582031 91.40625 C 28.269531 90.660156 27.203125 89.519531 26.351562 88.300781 C 25.214844 86.691406 24.847656 85.007812 24.917969 83.070312 C 24.9375 82.546875 25.078125 81.945312 25.121094 81.355469 C 25.167969 80.914062 25.167969 80.480469 24.917969 80.125 C 24.144531 79.039062 22.699219 78.648438 21.515625 78.191406 C 21.125 78.039062 19.941406 77.226562 19.941406 77.226562 C 19.78125 77.121094 19.699219 76.949219 19.699219 76.761719 C 19.6875 76.574219 19.78125 76.402344 19.929688 76.292969 C 19.929688 76.292969 21.445312 75.222656 21.769531 75.042969 C 23.410156 74.125 27.238281 72.414062 29.074219 71.761719 C 29.203125 71.714844 29.304688 71.679688 29.417969 71.644531 C 29.007812 71.449219 28.605469 71.253906 28.203125 71.035156 C 26.292969 69.980469 24.628906 68.742188 22.917969 67.414062 C 22.78125 67.304688 21.6875 66.820312 21.433594 66.652344 C 21.261719 66.53125 21.207031 66.394531 21.183594 66.332031 C 21.125 66.179688 21.089844 65.914062 21.367188 65.683594 C 21.457031 65.605469 21.976562 65.398438 22.03125 65.375 C 22.367188 65.230469 22.6875 65.039062 22.984375 64.832031 C 23.894531 64.203125 24.261719 63.554688 24.652344 62.546875 C 25.363281 60.6875 26.46875 57.460938 28.050781 54.910156 C 28.648438 53.925781 29.339844 53.046875 30.085938 52.363281 L 30.085938 52.359375 C 26.59375 52.949219 22.640625 55.1875 20.871094 58.046875 C 20.367188 58.886719 19.964844 59.839844 19.710938 60.789062 C 19.644531 61.035156 19.621094 61.390625 19.539062 61.699219 C 19.460938 62.023438 19.308594 62.304688 19.101562 62.5 C 18.816406 62.769531 18.378906 62.980469 17.898438 63.152344 C 17.324219 63.355469 16.65625 63.507812 16.183594 63.738281 C 15.242188 64.203125 14.507812 65.273438 13.945312 66.371094 C 13.335938 67.554688 12.945312 68.789062 12.75 69.460938 C 12.75 69.460938 18.242188 71.148438 18.242188 71.148438 C 18.460938 71.21875 18.621094 71.421875 18.644531 71.664062 C 18.65625 71.902344 18.515625 72.121094 18.300781 72.21875 C 18.300781 72.21875 14.53125 73.875 13.601562 74.339844 C 13.53125 74.378906 13.3125 74.496094 13.09375 74.613281 C 13.359375 75.105469 13.738281 75.8125 13.828125 75.976562 C 14.117188 76.5 14.402344 77.023438 14.726562 77.535156 C 15.472656 78.753906 16.265625 79.851562 17.425781 80.714844 C 17.792969 80.992188 18.265625 81.199219 18.722656 81.429688 C 19.273438 81.714844 19.792969 82.03125 20.160156 82.464844 C 20.539062 82.90625 20.792969 83.515625 21 84.152344 C 21.183594 84.691406 21.34375 85.246094 21.5625 85.679688 C 23.101562 88.660156 25.191406 90.933594 28.683594 91.382812 C 28.890625 91.410156 29.210938 91.414062 29.582031 91.40625 Z M 29.582031 91.40625 " fill-opacity="1" fill-rule="evenodd"/><path fill="#000000" d="M 35.910156 76.953125 C 35.773438 76.851562 34.945312 76.246094 34.855469 76.171875 C 33.578125 75.144531 31.144531 72.753906 29.984375 71.605469 C 29.867188 71.5 29.808594 71.359375 29.808594 71.214844 C 29.808594 71.085938 29.84375 70.917969 29.984375 70.757812 C 30.085938 70.644531 30.339844 70.484375 30.394531 70.441406 C 30.796875 70.148438 31.1875 69.855469 31.589844 69.5625 C 33.117188 68.433594 34.625 67.179688 36.277344 66.214844 C 36.519531 66.066406 36.839844 66.128906 37.011719 66.359375 C 37.472656 66.941406 38.667969 67.515625 39.300781 67.949219 C 41.035156 69.140625 42.839844 70.238281 44.597656 71.390625 C 44.847656 71.453125 44.953125 71.691406 44.964844 71.742188 C 45.007812 71.863281 45.078125 72.121094 44.824219 72.367188 C 44.792969 72.394531 44.5625 72.519531 44.480469 72.578125 C 44.308594 72.691406 44.136719 72.804688 43.964844 72.921875 C 43.367188 73.328125 42.746094 73.703125 42.125 74.078125 C 40.332031 75.152344 38.554688 76.273438 36.679688 77.195312 C 36.496094 77.289062 36.277344 77.273438 36.105469 77.160156 C 36.027344 77.109375 35.957031 77.035156 35.910156 76.953125 Z M 31.246094 71.242188 C 32.488281 72.464844 34.472656 74.394531 35.578125 75.285156 C 35.667969 75.355469 36.210938 75.710938 36.542969 75.984375 C 38.253906 75.109375 39.886719 74.085938 41.539062 73.09375 C 42.136719 72.734375 42.734375 72.371094 43.320312 71.976562 L 43.355469 71.949219 C 41.78125 70.933594 40.195312 69.953125 38.644531 68.890625 C 38.070312 68.496094 37.09375 67.96875 36.472656 67.429688 C 35.003906 68.339844 33.660156 69.464844 32.269531 70.484375 C 31.925781 70.738281 31.578125 70.988281 31.246094 71.242188 Z M 44.515625 72.511719 Z M 44.515625 72.511719 " fill-opacity="1" fill-rule="evenodd"/><g clip-path="url(#4b9c929b1d)"><path fill="#000000" d="M 11.921875 69.789062 L 0.214844 72.355469 L 11.921875 74.308594 L 16.828125 71.808594 Z M 11.921875 69.789062 " fill-opacity="1" fill-rule="evenodd"/></g><path fill="#000000" d="M 133.011719 21.023438 C 132.699219 21.078125 132.355469 21.523438 132.265625 21.625 C 132.101562 21.808594 131.9375 21.992188 131.78125 22.179688 C 131.207031 22.859375 130.800781 23.378906 131.078125 24.199219 C 131.625 25.832031 132.585938 27.34375 133.179688 28.953125 C 133.476562 29.753906 133.148438 30.496094 131.96875 30.535156 C 129.65625 30.609375 129.148438 27.789062 128.871094 26.523438 C 128.792969 26.164062 128.710938 25.800781 128.621094 25.445312 C 128.496094 24.953125 128.347656 24.464844 128.167969 23.984375 C 127.9375 23.378906 127.703125 22.769531 127.386719 22.1875 C 127.347656 22.117188 127.148438 21.644531 127.007812 21.660156 C 126.667969 21.699219 126.203125 22.671875 126.0625 22.886719 C 125.878906 23.164062 125.582031 23.480469 125.5625 23.800781 C 125.519531 24.390625 126.296875 25.105469 126.535156 25.652344 C 126.882812 26.445312 126.933594 27.304688 126.910156 28.136719 C 126.96875 28.148438 126.882812 28.410156 126.875 28.433594 C 126.800781 28.75 126.722656 29.066406 126.589844 29.371094 C 126.09375 30.515625 123.703125 31.5 122.699219 30.132812 C 122.296875 29.582031 122.390625 28.847656 122.421875 28.238281 C 122.488281 26.925781 122.824219 25.605469 122.652344 24.285156 C 122.59375 23.808594 122.457031 23.300781 122.140625 22.882812 C 122.109375 22.839844 121.8125 22.46875 121.699219 22.542969 C 121.398438 22.746094 121.25 23.246094 121.089844 23.519531 C 120.949219 23.757812 120.816406 24 120.683594 24.238281 C 120.523438 24.523438 120.375 24.8125 120.210938 25.09375 C 120.179688 25.140625 120 25.34375 120.015625 25.40625 C 120.046875 25.519531 120.382812 25.675781 120.480469 25.769531 C 120.757812 26.046875 120.878906 26.324219 120.910156 26.675781 C 120.996094 27.808594 120.652344 28.960938 120.605469 30.089844 C 120.5625 31.085938 120.445312 32.351562 121.332031 33.160156 C 122.332031 34.070312 124.042969 34.125 125.199219 33.390625 C 126.609375 32.496094 127.542969 31.039062 127.652344 29.617188 C 127.964844 31.457031 130.421875 34.300781 133.085938 32.835938 C 133.394531 32.664062 133.667969 32.472656 133.902344 32.234375 C 134.234375 31.902344 134.480469 31.503906 134.640625 31.101562 C 135.183594 29.730469 135.21875 28.199219 134.753906 26.816406 C 134.175781 25.097656 133.023438 22.832031 133.011719 21.023438 Z M 133.011719 21.023438 " fill-opacity="1" fill-rule="evenodd"/><path fill="#000000" d="M 143.949219 104.835938 C 143.78125 104.894531 143.609375 104.964844 143.457031 105.066406 C 143.273438 105.191406 143.109375 105.355469 142.960938 105.523438 C 142.65625 105.871094 142.410156 106.269531 142.210938 106.699219 C 142.085938 106.976562 141.933594 107.273438 141.882812 107.582031 C 141.882812 107.585938 141.890625 107.605469 141.890625 107.609375 C 141.902344 107.632812 141.910156 107.660156 141.921875 107.683594 C 141.976562 107.78125 142.074219 107.835938 142.175781 107.8125 C 142.3125 107.785156 142.441406 107.660156 142.554688 107.574219 C 142.710938 107.460938 142.871094 107.367188 143.042969 107.292969 C 143.054688 107.289062 143.121094 107.257812 143.132812 107.253906 C 143.226562 107.21875 143.324219 107.183594 143.421875 107.15625 C 143.734375 107.0625 144.058594 107.03125 144.378906 107.011719 C 144.859375 106.984375 145.355469 106.953125 145.835938 107.007812 C 146.339844 107.070312 146.839844 107.226562 147.34375 107.277344 C 147.058594 107.589844 146.691406 107.832031 146.375 108.101562 C 145.675781 108.6875 144.96875 109.265625 144.285156 109.875 C 144.304688 109.890625 144.246094 109.910156 144.230469 109.925781 C 144.195312 109.953125 144.160156 109.984375 144.132812 110.015625 C 144.027344 110.117188 143.925781 110.226562 143.824219 110.335938 C 143.53125 110.660156 143.273438 111.019531 143.035156 111.398438 C 142.539062 112.207031 142.246094 113.199219 142.140625 114.179688 C 142.101562 114.601562 142.089844 115.007812 142.164062 115.425781 C 142.152344 115.429688 142.179688 115.492188 142.179688 115.5 C 142.214844 115.582031 142.257812 115.664062 142.296875 115.742188 C 142.457031 116.054688 142.65625 116.347656 142.910156 116.570312 C 143.179688 116.8125 143.511719 116.945312 143.839844 117.046875 C 144.304688 117.1875 144.773438 117.269531 145.257812 117.300781 C 145.410156 117.3125 145.59375 117.332031 145.75 117.335938 C 146.101562 117.34375 146.457031 117.339844 146.804688 117.3125 C 148.269531 117.199219 149.664062 116.769531 150.90625 115.875 C 151.039062 115.785156 151.183594 115.695312 151.316406 115.609375 C 151.566406 115.4375 151.8125 115.253906 152.054688 115.054688 C 152.429688 114.738281 152.785156 114.367188 153.058594 113.9375 C 153.109375 113.855469 153.324219 113.574219 153.195312 113.472656 C 153.09375 113.378906 152.863281 113.476562 152.753906 113.515625 C 152.339844 113.667969 151.964844 113.914062 151.566406 114.109375 C 150.179688 114.78125 148.59375 115.140625 147.09375 115.183594 C 147.09375 115.125 146.996094 115.183594 146.941406 115.183594 C 146.855469 115.183594 146.765625 115.179688 146.679688 115.179688 C 146.402344 115.179688 146.128906 115.160156 145.863281 115.121094 C 145.28125 115.039062 144.660156 114.871094 144.148438 114.535156 C 143.917969 114.386719 143.5 114.082031 143.347656 113.835938 C 143.28125 113.738281 143.289062 113.589844 143.292969 113.472656 C 143.3125 113.117188 143.496094 112.800781 143.683594 112.535156 C 144.355469 111.585938 145.269531 110.898438 146.128906 110.207031 C 146.128906 110.207031 146.175781 110.171875 146.175781 110.167969 C 146.238281 110.121094 146.296875 110.070312 146.351562 110.019531 C 146.605469 109.800781 146.851562 109.570312 147.085938 109.328125 C 147.867188 108.542969 148.734375 107.617188 148.941406 106.398438 C 148.996094 106.050781 149.113281 105.394531 148.796875 105.148438 C 148.796875 105.101562 148.613281 105.019531 148.585938 105.003906 C 148.335938 104.871094 148.066406 104.777344 147.796875 104.71875 C 146.683594 104.464844 145.0625 104.667969 143.949219 104.835938 Z M 143.949219 104.835938 " fill-opacity="1" fill-rule="evenodd"/><path fill="#000000" d="M 264.921875 73.328125 C 264.945312 73.3125 264.957031 73.289062 264.933594 73.257812 C 264.921875 73.28125 264.921875 73.304688 264.921875 73.328125 C 264.839844 73.375 264.589844 73.375 264.484375 73.425781 C 264.152344 73.59375 263.832031 73.773438 263.511719 73.953125 C 262.527344 74.492188 261.636719 75.125 260.753906 75.804688 C 258.304688 77.683594 255.515625 80.710938 252.148438 80.667969 C 252.195312 80.488281 251.785156 80.003906 251.703125 79.878906 C 251.1875 79.046875 250.640625 78.242188 250.113281 77.414062 C 248.019531 74.085938 244.527344 69.363281 240.113281 72.273438 C 236.621094 74.578125 233.738281 79.0625 233.109375 83.1875 C 232.59375 86.53125 234.09375 89.734375 237.515625 90.730469 C 241.4375 91.875 246.496094 89.542969 249.839844 87.582031 C 249.859375 87.566406 250.089844 87.980469 250.113281 88.035156 C 250.273438 88.332031 250.410156 88.632812 250.558594 88.933594 C 250.972656 89.824219 251.382812 90.808594 251.335938 91.8125 C 251.316406 91.824219 251.050781 92.070312 250.996094 92.125 C 250.800781 92.324219 250.59375 92.515625 250.386719 92.707031 C 249.691406 93.351562 248.992188 93.980469 248.316406 94.636719 C 246.40625 96.46875 244.402344 98.183594 242.355469 99.863281 C 236.519531 104.667969 228.839844 111.40625 220.761719 111.320312 C 212.132812 111.226562 206.136719 104.003906 206.984375 95.566406 C 207.222656 93.230469 207.679688 90.925781 208.289062 88.660156 C 208.390625 88.238281 209.019531 86.660156 208.722656 86.253906 C 208.460938 85.882812 207.429688 87.503906 207.347656 87.625 C 206.308594 89.335938 205.679688 91.195312 205.277344 93.152344 C 204.25 98.117188 204.386719 103.75 206.515625 108.425781 C 210.265625 116.664062 220.316406 119.613281 228.40625 116.398438 C 232.59375 114.734375 236.277344 111.890625 239.792969 109.121094 C 243.074219 106.53125 246.453125 103.835938 248.957031 100.441406 C 250.320312 98.601562 252.308594 96.242188 252.882812 93.972656 C 253.535156 91.425781 253.363281 88.6875 253.007812 86.203125 C 252.996094 86.144531 253.5 85.949219 253.558594 85.925781 C 254.09375 85.652344 254.644531 85.390625 255.183594 85.121094 C 257.265625 84.085938 259.4375 83.089844 261.203125 81.554688 C 261.328125 81.445312 261.222656 81.890625 261.257812 82.058594 C 261.316406 82.347656 261.417969 82.625 261.523438 82.902344 C 261.832031 83.710938 262.164062 84.511719 262.539062 85.289062 C 263.71875 87.699219 265.847656 89.597656 268.457031 90.292969 C 269.589844 90.59375 270.800781 90.792969 271.980469 90.695312 C 276.878906 90.277344 279.707031 85.339844 281.148438 81.15625 C 281.148438 81.152344 281.160156 81.148438 281.160156 81.148438 L 281.148438 81.15625 C 281.160156 81.261719 281.664062 82.425781 281.730469 82.546875 C 282.269531 83.484375 282.921875 84.382812 283.664062 85.171875 C 285.976562 87.632812 289.785156 88.324219 292.867188 86.984375 C 294.914062 86.089844 296.070312 84.40625 296.960938 82.425781 C 298.792969 78.367188 297.921875 72.210938 296.414062 68.078125 C 296.457031 67.875 296.171875 68.425781 296.035156 68.585938 C 295.726562 68.957031 295.382812 69.3125 295.074219 69.679688 C 294.136719 70.773438 293.027344 71.832031 292.234375 73.046875 C 292.167969 73.144531 293.550781 74.804688 293.667969 75.066406 C 294.71875 77.371094 292.898438 79.714844 290.507812 79.847656 C 286.984375 80.039062 284.992188 76.980469 284.59375 73.84375 C 284.453125 72.765625 284.476562 71.667969 284.28125 70.59375 C 284.226562 70.25 284.054688 69.667969 283.609375 69.679688 C 283.117188 69.695312 282.808594 70.394531 282.636719 70.773438 C 282.085938 72.023438 282.027344 73.417969 281.695312 74.730469 C 281.351562 76.054688 280.609375 77.199219 279.878906 78.34375 C 278.527344 80.472656 276.902344 83.132812 274.394531 84.027344 C 271.398438 85.09375 267.53125 83.203125 266.007812 80.535156 C 264.910156 78.589844 264.589844 75.550781 264.921875 73.328125 Z M 251.335938 91.8125 Z M 237.527344 82.277344 C 237.628906 80.953125 238.359375 79.636719 239.277344 78.683594 C 239.722656 78.222656 240.285156 77.726562 240.980469 77.847656 C 242.34375 78.089844 243.703125 79.207031 244.597656 80.207031 C 244.78125 80.414062 245.398438 80.992188 245.308594 81.324219 C 245.203125 81.652344 244.710938 81.84375 244.4375 81.964844 C 243.578125 82.34375 242.628906 82.570312 241.714844 82.699219 C 240.730469 82.84375 238.050781 82.890625 237.527344 82.277344 Z M 237.527344 82.277344 " fill-opacity="1" fill-rule="evenodd"/><path fill="#000000" d="M 214.335938 74.421875 C 214.265625 74.503906 214.234375 74.777344 214.199219 74.882812 C 214.085938 75.277344 213.976562 75.675781 213.867188 76.074219 C 213.503906 77.449219 213.125 78.820312 212.753906 80.195312 C 212.636719 80.628906 212.519531 81.058594 212.402344 81.492188 C 212.367188 81.617188 212.238281 81.882812 212.28125 82.015625 C 212.320312 82.140625 212.644531 82.269531 212.746094 82.335938 C 213.078125 82.558594 213.398438 82.824219 213.675781 83.113281 C 213.671875 83.082031 213.769531 83.269531 213.777344 83.289062 C 213.835938 83.433594 213.902344 83.578125 213.964844 83.722656 C 214.148438 84.15625 214.300781 84.605469 214.46875 85.046875 C 214.980469 86.371094 215.496094 87.695312 216.050781 89.003906 C 217.074219 91.414062 218.265625 93.773438 219.507812 96.078125 C 220.035156 97.050781 220.542969 98.023438 221.035156 99.011719 C 221.257812 99.457031 221.550781 99.910156 221.699219 100.386719 C 221.925781 101.113281 220.117188 102.132812 219.601562 102.667969 C 217.613281 104.71875 215.460938 106.59375 213.207031 108.355469 C 204.390625 115.246094 192.386719 122.082031 180.894531 117.328125 C 181.015625 117.4375 180.613281 117.175781 180.480469 117.085938 C 180.203125 116.902344 179.9375 116.695312 179.679688 116.480469 C 178.863281 115.796875 178.132812 115.058594 177.511719 114.195312 C 175.671875 111.628906 174.890625 108.613281 174.761719 105.511719 C 174.578125 101.070312 175.355469 96.761719 176.761719 92.554688 C 176.910156 92.105469 177.0625 91.652344 177.21875 91.203125 C 177.351562 90.820312 177.492188 90.4375 177.621094 90.050781 C 177.710938 89.796875 177.792969 89.539062 177.878906 89.28125 C 177.945312 89.074219 178.007812 88.863281 178.070312 88.65625 C 178.125 88.480469 178.179688 88.304688 178.226562 88.128906 C 178.324219 87.769531 179.0625 85.730469 178.074219 85.980469 C 178.140625 86.148438 177.820312 86.25 177.726562 86.40625 C 177.398438 86.949219 177.109375 87.515625 176.835938 88.089844 C 175.785156 90.308594 174.878906 92.578125 174.128906 94.914062 C 171.925781 101.773438 169.738281 110.289062 172.992188 117.132812 C 173.09375 117.105469 173.0625 117.324219 173.101562 117.417969 C 173.183594 117.625 173.273438 117.824219 173.363281 118.027344 C 173.632812 118.644531 173.949219 119.234375 174.296875 119.816406 C 175.273438 121.460938 176.734375 122.855469 178.246094 124.03125 C 182.316406 127.191406 187.824219 127.175781 192.734375 126.558594 C 192.730469 126.535156 193.125 126.445312 193.144531 126.441406 C 193.613281 126.320312 194.082031 126.210938 194.546875 126.074219 C 195.738281 125.730469 196.925781 125.335938 198.050781 124.8125 C 201.539062 123.191406 205.082031 121.511719 208.078125 119.113281 C 208.074219 119.117188 212.039062 116.085938 213.164062 115.214844 C 216.574219 112.574219 220.007812 109.410156 222.117188 105.632812 C 222.191406 105.496094 222.445312 104.917969 222.496094 104.796875 C 222.855469 103.929688 223.15625 103.027344 223.382812 102.117188 C 223.945312 99.90625 224.195312 97.410156 223.730469 95.152344 C 223.433594 93.710938 222.84375 92.375 222.269531 91.023438 C 222.371094 91.066406 222.191406 90.816406 222.148438 90.714844 C 222.074219 90.535156 221.992188 90.355469 221.910156 90.175781 C 221.636719 89.5625 221.363281 88.945312 221.082031 88.335938 C 220.289062 86.597656 219.035156 84.871094 218.570312 83.007812 C 218.457031 82.53125 218.949219 82.863281 219.15625 82.988281 C 219.679688 83.296875 220.195312 83.648438 220.753906 83.898438 C 220.933594 83.980469 221.265625 84.109375 221.328125 83.828125 C 221.488281 83.101562 220.703125 82.070312 220.34375 81.519531 C 219.191406 79.730469 216.632812 76.863281 214.335938 74.421875 Z M 214.335938 74.421875 " fill-opacity="1" fill-rule="evenodd"/><path fill="#000000" d="M 192.574219 54.847656 C 192.585938 54.558594 193.125 55.046875 193.410156 55.128906 C 194.121094 55.34375 194.851562 55.527344 195.585938 55.683594 C 195.644531 55.691406 196.261719 55.855469 196.261719 55.746094 C 196.238281 55.132812 194.671875 54.089844 194.269531 53.726562 C 192.394531 51.992188 190.515625 50.257812 188.558594 48.613281 C 188.195312 48.308594 186.761719 46.796875 186.203125 46.996094 C 185.8125 47.136719 185.585938 47.78125 185.425781 48.113281 C 184.953125 49.121094 184.519531 50.144531 184.074219 51.164062 C 183.949219 51.449219 183.523438 52.109375 183.671875 52.445312 C 183.832031 52.792969 184.3125 52.703125 184.601562 52.871094 C 184.988281 53.105469 185.253906 53.664062 185.480469 54.03125 C 187.894531 57.75 190.78125 61.054688 193.527344 64.527344 C 193.515625 64.53125 193.765625 64.78125 193.789062 64.808594 C 193.777344 64.796875 192.90625 65.851562 192.851562 65.921875 C 191.707031 67.285156 190.675781 68.738281 189.691406 70.203125 C 186.921875 74.277344 186.019531 79.957031 187.300781 84.703125 C 188.023438 87.390625 190.140625 90.078125 193.160156 89.859375 C 195.484375 89.6875 197.738281 87.863281 199.363281 86.34375 C 203.332031 82.636719 208.023438 77.09375 205.78125 71.292969 C 204.902344 69.035156 203.449219 67.003906 201.867188 65.195312 C 201.386719 64.65625 199.980469 63.664062 200.175781 62.839844 C 200.519531 61.449219 201.855469 60.125 202.667969 59.007812 C 204.773438 56.136719 207.785156 52.847656 208.699219 49.3125 C 209.019531 48.042969 209.421875 45.433594 208.652344 44.226562 C 208.539062 44.058594 208.171875 44.574219 208.128906 44.640625 C 207.636719 45.253906 207.257812 45.964844 206.847656 46.628906 C 205.816406 48.285156 204.75 49.917969 203.640625 51.527344 C 202.761719 52.816406 201.84375 54.078125 200.941406 55.355469 C 200.058594 56.597656 199.179688 57.832031 198.285156 59.054688 C 198.113281 59.285156 197.691406 60.089844 197.335938 60.105469 C 196.457031 60.144531 193.136719 55.445312 192.574219 54.847656 Z M 196.363281 67.726562 C 196.511719 67.558594 195.484375 68.617188 195.355469 68.792969 C 195.128906 69.113281 194.886719 69.4375 194.660156 69.757812 C 193.972656 70.707031 193.320312 71.667969 192.679688 72.644531 C 190.882812 75.359375 187.804688 81.386719 192.574219 82.964844 C 195.710938 83.996094 198.753906 80.640625 200.550781 78.535156 C 201.296875 77.675781 202.382812 76.53125 202.382812 75.316406 C 202.394531 74.613281 201.9375 73.925781 201.570312 73.363281 C 200.519531 71.757812 197.851562 68.9375 196.363281 67.726562 Z M 196.363281 67.726562 " fill-opacity="1" fill-rule="evenodd"/><path fill="#000000" d="M 224.957031 31.542969 C 224.980469 31.582031 224.878906 31.734375 224.863281 31.769531 C 224.738281 32.007812 224.609375 32.246094 224.472656 32.480469 C 224.441406 32.535156 224.355469 32.714844 224.257812 32.707031 C 224.109375 32.699219 223.871094 32.480469 223.761719 32.410156 C 223.359375 32.132812 222.949219 31.867188 222.554688 31.582031 C 222.117188 31.265625 221.679688 30.949219 221.226562 30.644531 C 220.960938 30.472656 220.609375 30.3125 220.417969 30.074219 C 220.214844 29.820312 220.222656 29.457031 220.195312 29.160156 C 220.128906 28.445312 220.113281 27.710938 220.34375 27.011719 C 220.558594 26.367188 220.957031 25.507812 221.851562 25.378906 C 222.789062 25.238281 223.769531 25.925781 224.492188 26.335938 C 225.953125 27.164062 226.875 28.308594 227.691406 29.597656 C 228.421875 30.753906 229 31.953125 229.367188 33.226562 C 229.589844 34 229.722656 34.804688 229.988281 35.566406 C 230.105469 35.890625 230.253906 36.304688 230.617188 36.496094 C 230.613281 36.546875 230.644531 36.398438 230.65625 36.34375 C 230.671875 36.246094 230.691406 36.144531 230.707031 36.039062 C 230.757812 35.75 230.796875 35.453125 230.839844 35.160156 C 230.96875 34.25 231.128906 33.34375 231.367188 32.449219 C 231.996094 30.066406 232.910156 27.515625 234.527344 25.472656 C 235.25 24.558594 236.367188 23.558594 237.816406 24.03125 C 238.820312 24.359375 239.511719 25.324219 239.984375 26.09375 C 240.136719 26.34375 240.410156 26.726562 240.398438 27.019531 C 240.367188 27.601562 239.871094 28.265625 239.609375 28.789062 C 239.425781 29.15625 239.257812 29.527344 239.039062 29.882812 C 238.964844 30 238.871094 30.203125 238.714844 30.269531 C 238.429688 30.390625 238.082031 29.667969 238 29.542969 C 237.578125 28.878906 236.9375 27.832031 235.878906 27.882812 C 234.769531 27.9375 234.28125 29.125 233.941406 29.839844 C 232.929688 31.976562 232.371094 34.171875 231.796875 36.40625 C 231.78125 36.410156 231.695312 36.734375 231.6875 36.761719 C 231.542969 37.160156 231.402344 37.5625 231.273438 37.96875 C 230.898438 39.15625 230.652344 40.410156 230.105469 41.554688 C 230.023438 41.730469 229.660156 42.589844 229.261719 42.382812 C 229.0625 42.28125 229.027344 41.96875 228.996094 41.796875 C 228.902344 41.292969 228.796875 40.789062 228.671875 40.292969 C 228.523438 39.707031 228.375 39.125 228.238281 38.542969 C 228.03125 37.648438 227.800781 36.757812 227.46875 35.894531 C 227.023438 34.730469 225.953125 32.085938 224.957031 31.542969 Z M 224.957031 31.542969 " fill-opacity="1" fill-rule="evenodd"/><path fill="#000000" d="M 224.957031 61.078125 C 224.980469 61.113281 224.878906 61.265625 224.863281 61.304688 C 224.738281 61.542969 224.609375 61.78125 224.472656 62.015625 C 224.441406 62.070312 224.355469 62.25 224.257812 62.242188 C 224.109375 62.234375 223.871094 62.015625 223.761719 61.941406 C 223.359375 61.664062 222.949219 61.398438 222.554688 61.113281 C 222.117188 60.796875 221.679688 60.480469 221.226562 60.179688 C 220.960938 60.003906 220.609375 59.847656 220.417969 59.609375 C 220.214844 59.355469 220.222656 58.992188 220.195312 58.695312 C 220.128906 57.980469 220.113281 57.246094 220.34375 56.546875 C 220.558594 55.902344 220.957031 55.042969 221.851562 54.910156 C 222.789062 54.773438 223.769531 55.460938 224.492188 55.871094 C 225.953125 56.699219 226.875 57.839844 227.691406 59.132812 C 228.421875 60.289062 229 61.484375 229.367188 62.761719 C 229.589844 63.535156 229.722656 64.335938 229.988281 65.101562 C 230.105469 65.425781 230.253906 65.835938 230.617188 66.03125 C 230.613281 66.082031 230.644531 65.929688 230.65625 65.878906 C 230.671875 65.777344 230.691406 65.679688 230.707031 65.574219 C 230.757812 65.28125 230.796875 64.988281 230.839844 64.691406 C 230.96875 63.78125 231.128906 62.878906 231.367188 61.980469 C 231.996094 59.601562 232.910156 57.050781 234.527344 55.007812 C 235.25 54.09375 236.367188 53.089844 237.816406 53.566406 C 238.820312 53.894531 239.511719 54.859375 239.984375 55.625 C 240.136719 55.878906 240.410156 56.257812 240.398438 56.554688 C 240.367188 57.136719 239.871094 57.800781 239.609375 58.324219 C 239.425781 58.6875 239.257812 59.0625 239.039062 59.414062 C 238.964844 59.535156 238.871094 59.738281 238.714844 59.804688 C 238.429688 59.925781 238.082031 59.203125 238 59.078125 C 237.578125 58.414062 236.9375 57.367188 235.878906 57.417969 C 234.769531 57.472656 234.28125 58.660156 233.941406 59.375 C 232.929688 61.511719 232.371094 63.707031 231.796875 65.941406 C 231.78125 65.945312 231.695312 66.269531 231.6875 66.292969 C 231.542969 66.695312 231.402344 67.097656 231.273438 67.503906 C 230.898438 68.691406 230.652344 69.945312 230.105469 71.089844 C 230.023438 71.261719 229.660156 72.125 229.261719 71.917969 C 229.0625 71.816406 229.027344 71.5 228.996094 71.332031 C 228.902344 70.824219 228.796875 70.324219 228.671875 69.828125 C 228.523438 69.242188 228.375 68.660156 228.238281 68.074219 C 228.03125 67.183594 227.800781 66.292969 227.46875 65.425781 C 227.023438 64.261719 225.953125 61.617188 224.957031 61.078125 Z M 224.957031 61.078125 " fill-opacity="1" fill-rule="evenodd"/><path fill="#000000" d="M 288.128906 92.355469 C 288.050781 92.253906 287.914062 92.617188 287.886719 92.695312 C 287.828125 92.859375 287.761719 93.019531 287.703125 93.1875 C 287.511719 93.707031 287.308594 94.21875 287.113281 94.738281 C 286.984375 95.074219 287.347656 95.5 287.449219 95.796875 C 287.746094 96.710938 287.203125 97.320312 286.472656 97.304688 C 286.261719 97.300781 286.0625 97.238281 285.871094 97.15625 C 285.046875 96.816406 284.226562 95.96875 284.308594 94.835938 C 284.351562 94.246094 284.566406 93.75 284.6875 93.191406 C 284.726562 93.007812 284.738281 92.714844 284.542969 92.660156 C 284.046875 92.519531 283.605469 93.699219 283.433594 94.066406 C 282.75 95.550781 282.167969 97.34375 280.820312 98.144531 C 279.570312 98.886719 278.378906 97.878906 277.167969 97.5 C 275.859375 97.09375 274.558594 97.28125 273.308594 97.863281 C 273.308594 97.992188 273.109375 97.960938 273.011719 98.019531 C 272.699219 98.210938 272.390625 98.425781 272.085938 98.640625 C 270.75 99.597656 269.464844 100.679688 268.222656 101.804688 C 262.832031 106.679688 257.203125 111.09375 251.320312 115.070312 C 249.535156 116.277344 247.757812 117.523438 245.933594 118.648438 C 245.191406 119.105469 244.433594 119.523438 243.699219 120 C 243.617188 120.050781 243.019531 120.390625 243.191406 120.59375 C 243.386719 120.824219 243.9375 120.691406 244.171875 120.664062 C 245.078125 120.558594 245.988281 120.292969 246.867188 120.039062 C 249.03125 119.421875 251.335938 118.75 253.324219 117.519531 C 254.59375 116.730469 255.765625 115.671875 256.917969 114.667969 C 260.414062 111.613281 263.886719 108.515625 267.398438 105.488281 C 269.460938 103.707031 271.707031 101.542969 274.152344 100.570312 C 276.332031 99.707031 278.074219 102.464844 280.253906 101.515625 C 281.199219 101.105469 281.894531 100.042969 282.359375 99.011719 C 282.433594 98.839844 282.890625 97.429688 283.054688 97.378906 C 283.082031 97.375 283.164062 97.996094 283.167969 98.035156 C 283.234375 98.496094 283.304688 99 283.546875 99.382812 C 284.148438 100.332031 285.246094 100.503906 286.164062 100.28125 C 289.019531 99.605469 289.027344 96.289062 288.554688 93.535156 C 288.492188 93.167969 288.238281 92.496094 288.128906 92.355469 Z M 288.128906 92.355469 " fill-opacity="1" fill-rule="evenodd"/><path fill="#000000" d="M 211.519531 54.269531 C 211.535156 54.28125 212.988281 53.515625 213.082031 53.472656 C 214.933594 52.585938 216.8125 51.734375 218.699219 50.894531 C 226.433594 47.449219 234.246094 44.0625 242.152344 40.882812 C 244.378906 39.988281 246.621094 39.109375 248.902344 38.308594 C 249.042969 38.257812 250.84375 37.527344 250.941406 37.707031 C 251.140625 38.078125 250.308594 39.292969 250.148438 39.628906 C 249.808594 40.359375 249.585938 41.460938 248.953125 42.070312 C 248.527344 42.484375 247.710938 42.664062 247.132812 42.878906 C 245.71875 43.40625 244.304688 43.921875 242.910156 44.46875 C 238.597656 46.160156 234.421875 48.082031 230.191406 49.898438 C 226.09375 51.664062 221.902344 53.285156 217.84375 55.109375 C 215.820312 56.015625 213.789062 56.921875 211.769531 57.839844 C 211.445312 57.984375 210.097656 58.824219 209.683594 58.652344 C 209.425781 58.542969 209.71875 57.984375 209.773438 57.847656 C 210.0625 57.09375 211.179688 55.007812 211.519531 54.269531 Z M 211.519531 54.269531 " fill-opacity="1" fill-rule="evenodd"/><g clip-path="url(#df7ffa1c4f)"><path fill="#000000" d="M 95.625 27.105469 C 95.640625 27.117188 97.09375 26.351562 97.183594 26.308594 C 99.039062 25.421875 100.914062 24.570312 102.800781 23.730469 C 110.539062 20.285156 118.347656 16.898438 126.253906 13.71875 C 128.480469 12.824219 130.726562 11.945312 133.003906 11.144531 C 133.148438 11.09375 134.945312 10.363281 135.042969 10.542969 C 135.242188 10.914062 134.410156 12.128906 134.25 12.464844 C 133.910156 13.195312 133.6875 14.296875 133.054688 14.90625 C 132.632812 15.320312 131.816406 15.5 131.238281 15.714844 C 129.824219 16.242188 128.40625 16.757812 127.011719 17.304688 C 122.699219 18.996094 118.527344 20.917969 114.292969 22.734375 C 110.199219 24.5 106.007812 26.121094 101.945312 27.941406 C 99.921875 28.851562 97.894531 29.757812 95.871094 30.675781 C 95.550781 30.820312 94.199219 31.660156 93.785156 31.488281 C 93.527344 31.378906 93.824219 30.820312 93.878906 30.683594 C 94.167969 29.929688 95.285156 27.84375 95.625 27.105469 Z M 95.625 27.105469 " fill-opacity="1" fill-rule="evenodd"/></g><path fill="#000000" d="M 253.480469 43.410156 C 253.9375 42.933594 254.277344 42.082031 254.636719 41.527344 C 255.695312 39.898438 256.746094 38.269531 257.832031 36.660156 C 258.441406 35.753906 259.007812 34.683594 259.878906 33.984375 C 261.117188 32.996094 262.96875 33.128906 264.464844 33.226562 C 267.914062 33.457031 271.894531 34.539062 275.175781 35.078125 C 275.230469 35.035156 275.523438 35.175781 275.589844 35.195312 C 275.96875 35.324219 276.347656 35.464844 276.722656 35.609375 C 277.984375 36.097656 280.464844 36.78125 280.023438 38.527344 C 279.738281 39.636719 278.980469 40.628906 278.289062 41.527344 C 277.214844 42.929688 276.0625 44.289062 274.855469 45.585938 C 273.257812 47.300781 271.574219 48.921875 269.824219 50.488281 C 268.667969 51.523438 267.472656 52.667969 265.976562 53.226562 C 263.480469 54.164062 260.523438 54.058594 257.890625 54.21875 C 256.640625 54.292969 255.394531 54.351562 254.144531 54.398438 C 253.484375 54.421875 252.660156 54.515625 252.019531 54.324219 C 251.386719 54.136719 252.890625 53.296875 253 53.234375 C 254.355469 52.484375 255.828125 51.90625 257.292969 51.382812 C 260.671875 50.175781 264.128906 49.046875 267.339844 47.449219 C 268.105469 47.066406 268.871094 46.683594 269.617188 46.269531 C 269.808594 46.164062 270.246094 45.992188 270.320312 45.761719 C 270.40625 45.480469 269.769531 45.199219 269.585938 45.117188 C 268.703125 44.714844 267.679688 44.519531 266.738281 44.292969 C 262.824219 43.355469 257.480469 42.824219 253.480469 43.410156 Z M 253.480469 43.410156 " fill-opacity="1" fill-rule="evenodd"/><path fill="#000000" d="M 266.0625 66.488281 C 265.925781 66.433594 266.453125 66.078125 266.5 66.054688 C 266.707031 65.945312 266.914062 65.828125 267.113281 65.699219 C 267.703125 65.328125 268.296875 64.960938 268.878906 64.574219 C 270.691406 63.363281 272.496094 62.140625 274.300781 60.917969 C 278.363281 58.171875 289.695312 49.425781 289.964844 48.910156 C 289.769531 48.757812 289.441406 48.65625 289.222656 48.519531 C 288.082031 47.8125 286.359375 46.769531 286.484375 45.359375 C 286.65625 43.4375 288.429688 41.285156 290.421875 40.621094 C 291.3125 40.328125 292.484375 40.1875 293.25 40.804688 C 293.738281 41.195312 293.875 41.828125 293.929688 42.390625 C 294.046875 43.628906 293.691406 44.808594 293.167969 45.945312 C 293.019531 46.273438 292.839844 46.589844 292.652344 46.898438 C 292.59375 46.988281 292.410156 47.175781 292.414062 47.285156 C 292.417969 47.429688 292.867188 47.667969 292.972656 47.75 C 293.371094 48.070312 293.933594 48.527344 294.089844 49.007812 C 294.289062 49.625 293.605469 50.503906 293.277344 51 C 293.195312 51.125 292.960938 51.574219 292.746094 51.535156 C 292.492188 51.492188 292.273438 51.1875 292.109375 51.03125 C 291.679688 50.625 291.199219 50.265625 290.773438 49.859375 C 290.707031 49.796875 290.648438 49.984375 290.585938 50.046875 C 290.460938 50.179688 290.332031 50.3125 290.207031 50.445312 C 289.847656 50.832031 289.472656 51.207031 289.101562 51.585938 C 287.988281 52.710938 286.855469 53.820312 285.691406 54.902344 C 281.464844 58.820312 276.429688 62.1875 271.0625 64.722656 C 269.835938 65.300781 268.625 65.960938 267.324219 66.394531 C 267.097656 66.472656 266.203125 66.546875 266.0625 66.488281 Z M 291.464844 46.476562 C 291.460938 46.46875 291.511719 46.289062 291.511719 46.277344 C 291.550781 46.15625 291.59375 46.035156 291.621094 45.910156 C 291.707031 45.539062 291.765625 45.15625 291.738281 44.777344 C 291.722656 44.566406 291.707031 44.351562 291.671875 44.140625 C 291.539062 43.335938 290.839844 42.203125 289.769531 42.4375 C 289.523438 42.488281 289.300781 42.605469 289.097656 42.746094 C 288.949219 42.84375 288.820312 42.964844 288.699219 43.089844 C 288.546875 43.25 288.359375 43.453125 288.347656 43.675781 C 288.335938 43.839844 288.464844 43.976562 288.574219 44.09375 C 288.804688 44.34375 289.066406 44.558594 289.3125 44.792969 C 289.835938 45.285156 290.886719 46.023438 291.464844 46.476562 Z M 291.464844 46.476562 " fill-opacity="1" fill-rule="evenodd"/><path fill="#000000" d="M 184.199219 30.554688 L 188.878906 24.210938 L 196.445312 29.863281 L 191.453125 35.839844 C 191.453125 35.839844 184.496094 30.261719 184.199219 30.554688 Z M 184.199219 30.554688 " fill-opacity="1" fill-rule="evenodd"/><path fill="#000000" d="M 195.238281 29.160156 L 199.921875 22.816406 L 207.484375 28.464844 L 202.496094 34.445312 C 202.496094 34.445312 195.539062 28.863281 195.238281 29.160156 Z M 195.238281 29.160156 " fill-opacity="1" fill-rule="evenodd"/><path fill="#000000" d="M 117.328125 105.683594 L 122.007812 99.339844 L 129.570312 104.992188 L 124.582031 110.96875 C 124.582031 110.96875 117.625 105.390625 117.328125 105.683594 Z M 117.328125 105.683594 " fill-opacity="1" fill-rule="evenodd"/><path fill="#000000" d="M 149.183594 48.917969 C 148.371094 43.710938 147.601562 38.503906 146.882812 33.273438 C 146.492188 30.34375 146.113281 27.402344 145.496094 24.507812 C 145.324219 23.683594 145.3125 21.167969 144.660156 20.527344 C 144.570312 20.628906 144.777344 20.273438 144.832031 20.136719 C 144.949219 19.886719 145.074219 19.621094 145.199219 19.371094 C 145.324219 19.128906 146.734375 16.222656 147.132812 16.660156 C 148.058594 17.652344 148.644531 19.1875 149.238281 20.378906 C 150.394531 22.675781 151.503906 25 152.558594 27.347656 C 152.820312 27.941406 155.304688 33 153.039062 31.132812 C 152.84375 30.972656 152.648438 30.800781 152.464844 30.628906 C 152.15625 30.320312 151.847656 30.011719 151.527344 29.714844 C 151.300781 29.484375 150.738281 29.050781 150.417969 29.144531 C 150.28125 29.1875 150.40625 29.691406 150.429688 29.773438 C 150.566406 30.492188 150.714844 31.226562 150.886719 31.945312 C 153.726562 43.894531 155.566406 56.035156 156.996094 68.257812 C 157.765625 74.859375 158.417969 82.320312 154.136719 87.914062 C 149.855469 93.546875 139.375 94.382812 135.917969 87.320312 C 134.191406 83.808594 135.222656 80.15625 136.8125 76.871094 C 136.824219 76.839844 136.171875 76.929688 136.066406 76.941406 C 135.632812 77.011719 135.210938 77.089844 134.773438 77.183594 C 133.355469 77.457031 131.949219 77.835938 130.550781 78.210938 C 126.398438 79.34375 122.4375 80.992188 118.71875 83.191406 C 108.9375 88.945312 101.738281 95.730469 101.601562 109.121094 C 101.589844 110.480469 101.464844 111.820312 101.644531 113.433594 C 101.785156 114.601562 102 115.90625 102.378906 117.199219 C 102.457031 117.472656 103.03125 120.632812 106.796875 124.066406 C 110.410156 127.347656 115.585938 129.808594 120.242188 131.011719 C 128.699219 133.195312 137.589844 132.5 145.519531 131.332031 C 148.347656 130.917969 151.21875 130.910156 154.046875 130.53125 C 154.902344 130.417969 155.761719 130.3125 156.609375 130.1875 C 156.917969 130.140625 157.238281 130.097656 157.546875 130.050781 C 157.570312 130.050781 158.039062 129.96875 158.027344 130.015625 C 157.855469 130.609375 155.683594 131.332031 155.199219 131.5625 C 152.113281 133.046875 148.988281 134.457031 145.785156 135.679688 C 135.460938 139.628906 124.441406 139.523438 114.175781 135.292969 C 109.289062 133.277344 104.566406 130.460938 101.222656 126.285156 C 100.492188 125.347656 99.894531 123.960938 99.414062 122.921875 C 97.8125 119.417969 96.964844 115.824219 96.828125 111.96875 C 96.40625 99.496094 103.203125 89.070312 112.460938 81.277344 C 114.910156 79.21875 117.550781 76.804688 120.460938 75.398438 C 120.6875 75.28125 119.957031 75.417969 119.703125 75.429688 C 119.132812 75.453125 118.546875 75.464844 117.976562 75.464844 C 116.167969 75.464844 114.359375 75.453125 112.5625 75.464844 C 107.550781 75.511719 102.527344 75.441406 97.515625 75.398438 C 97.101562 75.398438 94.953125 75.613281 94.835938 75.144531 C 94.722656 74.652344 95.582031 73.542969 95.820312 73.175781 C 96.875 71.539062 97.925781 69.882812 99.117188 68.335938 C 102.722656 63.679688 107.972656 60.726562 112.976562 58.425781 C 112.6875 58.484375 112.035156 57.855469 111.832031 57.71875 C 110.433594 56.871094 109.0625 55.976562 107.710938 55.0625 C 104.050781 52.589844 98.328125 49.84375 100.308594 44.589844 C 100.605469 43.8125 100.996094 43.058594 101.496094 42.394531 C 102.128906 41.582031 102.882812 40.871094 103.753906 40.324219 C 107.699219 37.816406 113.042969 38 117.53125 38.136719 C 127.679688 38.445312 148.289062 43.148438 148.324219 43.285156 C 148.65625 44.890625 149.023438 47.039062 149.125 48.652344 C 149.125 48.734375 149.160156 48.824219 149.183594 48.917969 C 149.226562 49.203125 149.273438 49.488281 149.320312 49.773438 C 149.296875 49.933594 149.226562 50.074219 149.066406 50.164062 C 148.335938 50.597656 147.191406 50.65625 146.378906 50.875 C 144.488281 51.378906 142.613281 51.949219 140.757812 52.542969 C 135.027344 54.410156 129.394531 56.59375 123.789062 58.804688 C 122.597656 59.273438 121.398438 59.753906 120.207031 60.234375 C 119.921875 60.347656 119.085938 60.496094 118.890625 60.761719 C 118.789062 60.898438 118.972656 61.390625 118.984375 61.539062 C 119.0625 62.191406 119.121094 62.867188 119.015625 63.519531 C 119.007812 63.644531 118.914062 64.296875 118.730469 64.34375 C 118.535156 64.386719 118.296875 63.703125 118.25 63.585938 C 118.035156 63.117188 117.460938 61.414062 116.785156 61.332031 C 115.984375 61.242188 114.601562 62.398438 113.980469 62.773438 C 111.660156 64.226562 109.210938 65.851562 107.300781 67.820312 C 107.3125 67.914062 109.324219 67.890625 109.449219 67.902344 C 111.875 67.925781 114.304688 67.9375 116.730469 67.878906 C 124.304688 67.71875 131.902344 67.421875 139.476562 67.582031 C 141.378906 67.617188 143.300781 67.605469 145.1875 67.730469 C 145.601562 67.753906 146.824219 67.695312 147.191406 67.980469 C 147.292969 68.0625 147.109375 68.53125 147.085938 68.621094 C 146.90625 69.296875 146.652344 69.9375 146.390625 70.578125 C 146.070312 71.390625 145.816406 72.867188 145.152344 73.472656 C 144.671875 73.910156 143.804688 73.964844 143.195312 74.046875 C 141.871094 74.242188 140.371094 74.320312 139.089844 74.757812 C 139.125 74.800781 138.894531 75.214844 138.871094 75.269531 C 138.664062 75.84375 138.492188 76.4375 138.34375 77.035156 C 137.898438 78.863281 137.660156 80.742188 138.320312 82.558594 C 140.839844 89.414062 150.933594 87.183594 153.964844 81.90625 C 153.953125 81.816406 153.929688 81.40625 153.917969 81.234375 C 153.863281 80.695312 153.792969 80.167969 153.738281 79.632812 C 153.585938 78.132812 153.40625 76.632812 153.234375 75.132812 C 152.753906 70.898438 152.132812 66.6875 151.414062 62.488281 C 150.691406 58.253906 149.996094 54.019531 149.320312 49.773438 C 149.355469 49.511719 149.261719 49.191406 149.183594 48.917969 Z M 153.964844 81.90625 L 153.976562 81.886719 C 153.976562 81.929688 153.976562 81.941406 153.964844 81.90625 Z M 117.324219 55.792969 C 116.257812 55.0625 114.726562 53.734375 113.59375 53.082031 C 111.464844 51.847656 109.277344 50.632812 107.34375 49.121094 C 106.359375 48.367188 104.746094 47.050781 105.320312 45.609375 C 106.027344 43.8125 109.792969 43.332031 111.292969 43.277344 C 117.402344 43.035156 123.570312 43.894531 129.566406 44.808594 C 131.398438 45.082031 133.917969 45.472656 135.414062 45.875 C 136.011719 46.035156 137.488281 46.308594 138.835938 46.753906 C 139.71875 47.050781 140.496094 47.359375 140.496094 47.359375 L 140.324219 48.480469 C 140.324219 48.480469 139.03125 48.917969 138.664062 48.953125 C 138.460938 48.972656 135.679688 49.660156 135.507812 49.695312 C 134.238281 49.902344 132.976562 50.164062 131.71875 50.449219 C 127.074219 51.492188 121.707031 53.964844 117.324219 55.792969 Z M 117.324219 55.792969 " fill-opacity="1" fill-rule="evenodd"/><path fill="#000000" d="M 193.078125 94.953125 C 192.8125 94.777344 192.566406 95.144531 192.519531 95.199219 C 192.238281 95.527344 192.039062 95.910156 191.84375 96.285156 C 191.226562 97.480469 190.671875 98.699219 190.046875 99.886719 C 188.453125 102.929688 186.429688 106.589844 186.628906 110.058594 C 186.714844 111.566406 187.265625 113.484375 189.179688 113.796875 C 191.550781 114.179688 192.925781 110.992188 193.542969 109.472656 C 193.753906 108.957031 194.253906 107.921875 193.925781 107.363281 C 193.640625 106.882812 192.925781 107.886719 192.816406 108.039062 C 192.144531 108.980469 191.082031 110.824219 189.84375 109.3125 C 188.84375 108.097656 188.996094 106.429688 189.308594 105.023438 C 189.765625 102.945312 190.863281 101.054688 191.835938 99.152344 C 192.449219 97.957031 193.992188 95.558594 193.078125 94.953125 Z M 193.078125 94.953125 " fill-opacity="1" fill-rule="evenodd"/><path fill="#000000" d="M 166.019531 16.640625 C 165.964844 16.683594 166.082031 16.523438 166.113281 16.464844 C 166.179688 16.339844 166.238281 16.214844 166.300781 16.09375 C 166.5 15.707031 166.699219 15.320312 166.886719 14.929688 C 167.425781 13.824219 168.035156 12.730469 168.566406 11.621094 C 168.566406 11.703125 168.710938 11.847656 168.75 11.917969 C 168.875 12.136719 168.980469 12.363281 169.097656 12.585938 C 169.484375 13.339844 169.828125 14.101562 170.195312 14.863281 C 171.683594 17.96875 173.363281 21.023438 174.710938 24.171875 C 174.921875 24.667969 175.125 25.164062 175.308594 25.667969 C 175.410156 25.960938 175.511719 26.253906 175.585938 26.554688 C 175.625 26.714844 175.660156 26.875 175.679688 27.039062 C 175.691406 27.144531 175.699219 27.253906 175.695312 27.363281 C 175.691406 27.425781 175.683594 27.492188 175.664062 27.554688 C 175.449219 28.21875 174.625 27.308594 174.414062 27.117188 C 174.320312 27.035156 174.230469 26.949219 174.136719 26.871094 C 174.03125 26.777344 173.925781 26.683594 173.820312 26.589844 C 173.675781 26.464844 173.53125 26.335938 173.386719 26.207031 C 173.195312 26.035156 173.003906 25.863281 172.8125 25.6875 C 172.617188 25.515625 172.417969 25.339844 172.234375 25.15625 C 172.164062 25.089844 172.242188 25.335938 172.25 25.421875 C 172.277344 25.636719 172.300781 25.847656 172.328125 26.0625 C 172.394531 26.621094 172.46875 27.179688 172.558594 27.734375 C 172.816406 29.371094 173.121094 31 173.394531 32.632812 C 174.226562 37.582031 174.898438 42.566406 175.53125 47.535156 C 175.394531 47.507812 175.582031 47.765625 175.605469 47.882812 C 175.65625 48.160156 175.6875 48.441406 175.730469 48.722656 C 175.851562 49.492188 175.96875 50.261719 176.082031 51.03125 C 176.410156 53.257812 176.726562 55.480469 177.003906 57.710938 C 178.074219 66.339844 180.058594 75.507812 178.378906 84.222656 C 178.015625 86.105469 177.789062 88.261719 176.613281 89.953125 C 176.453125 90.179688 175.632812 91.429688 175.210938 91.398438 C 175.121094 91.390625 175.085938 91.308594 175.066406 91.25 C 174.699219 90.160156 175.179688 88.550781 175.171875 87.441406 C 175.148438 83.007812 174.894531 78.613281 174.382812 74.203125 C 172.644531 59.316406 167.121094 22.074219 167.007812 18.574219 C 167.007812 18.574219 166.753906 18.085938 166.730469 18.042969 C 166.542969 17.691406 166.21875 16.988281 166.019531 16.640625 Z M 166.019531 16.640625 " fill-opacity="1" fill-rule="evenodd"/></svg>