<svg xmlns="http://www.w3.org/2000/svg" xmlns:xlink="http://www.w3.org/1999/xlink" width="500" zoomAndPan="magnify" viewBox="0 0 375 149.999998" height="200" preserveAspectRatio="xMidYMid meet" version="1.0"><defs><clipPath id="356a202a67"><path d="M 183 17.109375 L 196 17.109375 L 196 93 L 183 93 Z M 183 17.109375 " clip-rule="nonzero"/></clipPath><clipPath id="8c64ec6d2f"><path d="M 186 81 L 239 81 L 239 132.609375 L 186 132.609375 Z M 186 81 " clip-rule="nonzero"/></clipPath></defs><path fill="#000000" d="M 136.035156 86.285156 C 136.300781 86.738281 135.648438 91.757812 135.1875 93.289062 C 135.027344 93.820312 134.882812 94.589844 134.515625 94.988281 C 134.4375 94.886719 134.214844 94.359375 133.84375 93.800781 C 133.40625 93.140625 132.792969 92.421875 132.441406 92.128906 C 129.773438 89.878906 126.394531 89.527344 123.253906 90.382812 C 122.046875 90.707031 120.914062 91.261719 119.773438 91.824219 C 119.765625 91.671875 119.539062 91.957031 119.421875 92.027344 C 119.160156 92.179688 118.90625 92.347656 118.648438 92.511719 C 117.855469 93.011719 117.066406 93.53125 116.300781 94.09375 C 114.019531 95.765625 111.808594 97.582031 109.695312 99.546875 C 105.425781 103.515625 101.496094 107.964844 97.214844 111.921875 C 95.132812 113.84375 92.914062 116.054688 90.429688 117.21875 C 90.433594 117.128906 90.292969 117.285156 90.222656 117.3125 C 90.074219 117.371094 89.925781 117.421875 89.773438 117.46875 C 89.355469 117.597656 88.933594 117.714844 88.503906 117.789062 C 87.21875 118.023438 85.921875 117.820312 84.671875 117.421875 C 82.292969 116.667969 79.984375 115.097656 78.433594 112.792969 C 77.617188 111.578125 77.003906 110.140625 76.515625 108.703125 C 76.492188 108.714844 76.371094 108.335938 76.363281 108.3125 C 76.203125 107.820312 76.074219 107.308594 75.957031 106.796875 C 75.472656 104.71875 75.386719 102.484375 75.597656 100.34375 C 76.324219 93.007812 80.277344 86.734375 83.054688 80.335938 C 83.710938 78.832031 84.328125 77.308594 85.035156 75.835938 C 85.132812 75.628906 85.535156 74.492188 85.910156 74.605469 C 86.109375 74.667969 86.097656 75.105469 86.09375 75.277344 C 86.078125 76.011719 85.929688 76.734375 85.765625 77.4375 C 85.054688 80.464844 83.921875 83.167969 82.492188 85.800781 C 81.910156 86.878906 81.363281 87.976562 80.839844 89.101562 C 78.472656 94.207031 75.75 101.09375 78.316406 106.804688 C 78.660156 107.574219 79.097656 108.320312 79.582031 108.980469 C 79.671875 108.976562 79.898438 109.253906 79.96875 109.308594 C 80.289062 109.558594 80.632812 109.773438 80.976562 109.984375 C 81.878906 110.535156 82.851562 110.792969 83.859375 110.917969 C 87.863281 111.414062 91.390625 108.90625 94.617188 106.429688 C 94.566406 106.5 94.738281 106.308594 94.804688 106.253906 C 94.914062 106.164062 95.023438 106.074219 95.128906 105.980469 C 95.480469 105.679688 95.824219 105.371094 96.167969 105.058594 C 97.136719 104.191406 98.09375 103.304688 99.039062 102.402344 C 101.910156 99.65625 104.648438 96.730469 107.503906 93.96875 C 107.613281 93.863281 107.796875 93.625 107.902344 93.511719 C 108.199219 93.195312 108.503906 92.894531 108.804688 92.585938 C 109.796875 91.582031 110.8125 90.601562 111.855469 89.667969 C 114.542969 87.277344 117.382812 85.128906 120.476562 83.550781 C 122.441406 82.546875 124.515625 81.75 126.660156 81.558594 C 126.679688 81.617188 126.769531 81.542969 126.820312 81.535156 C 127.039062 81.515625 127.253906 81.5 127.46875 81.492188 C 128.332031 81.476562 129.226562 81.570312 130.066406 81.808594 C 132.132812 82.398438 134.683594 83.976562 136.035156 86.285156 Z M 136.035156 86.285156 " fill-opacity="1" fill-rule="evenodd"/><path fill="#000000" d="M 159.71875 44.480469 C 159.382812 44.539062 159.019531 45.019531 158.921875 45.128906 C 158.746094 45.328125 158.574219 45.523438 158.40625 45.726562 C 157.792969 46.453125 157.363281 47.011719 157.65625 47.894531 C 158.238281 49.648438 159.261719 51.273438 159.898438 53.003906 C 160.214844 53.863281 159.863281 54.660156 158.609375 54.699219 C 156.140625 54.78125 155.597656 51.753906 155.300781 50.390625 C 155.21875 50.003906 155.132812 49.617188 155.035156 49.230469 C 154.902344 48.703125 154.742188 48.179688 154.550781 47.664062 C 154.308594 47.011719 154.054688 46.359375 153.71875 45.734375 C 153.675781 45.65625 153.464844 45.152344 153.316406 45.167969 C 152.953125 45.210938 152.457031 46.253906 152.304688 46.484375 C 152.113281 46.78125 151.792969 47.125 151.769531 47.46875 C 151.730469 48.101562 152.554688 48.867188 152.808594 49.453125 C 153.179688 50.308594 153.234375 51.230469 153.207031 52.125 C 153.273438 52.140625 153.179688 52.417969 153.175781 52.445312 C 153.09375 52.785156 153.007812 53.121094 152.867188 53.449219 C 152.339844 54.683594 149.789062 55.738281 148.71875 54.269531 C 148.289062 53.679688 148.390625 52.890625 148.425781 52.234375 C 148.496094 50.820312 148.855469 49.402344 148.671875 47.988281 C 148.605469 47.476562 148.460938 46.925781 148.125 46.480469 C 148.089844 46.433594 147.773438 46.03125 147.652344 46.117188 C 147.332031 46.332031 147.171875 46.867188 147.003906 47.164062 C 146.855469 47.417969 146.710938 47.679688 146.566406 47.9375 C 146.398438 48.242188 146.238281 48.550781 146.0625 48.855469 C 146.03125 48.90625 145.839844 49.125 145.855469 49.191406 C 145.890625 49.3125 146.25 49.480469 146.351562 49.582031 C 146.648438 49.878906 146.777344 50.175781 146.808594 50.554688 C 146.902344 51.769531 146.535156 53.011719 146.484375 54.222656 C 146.441406 55.292969 146.3125 56.652344 147.261719 57.523438 C 148.328125 58.5 150.152344 58.5625 151.386719 57.773438 C 152.886719 56.808594 153.886719 55.246094 154.003906 53.714844 C 154.332031 55.695312 156.957031 58.75 159.796875 57.175781 C 160.128906 56.992188 160.417969 56.785156 160.667969 56.53125 C 161.019531 56.175781 161.285156 55.742188 161.457031 55.3125 C 162.035156 53.835938 162.074219 52.191406 161.574219 50.703125 C 160.960938 48.859375 159.730469 46.425781 159.71875 44.480469 Z M 159.71875 44.480469 " fill-opacity="1" fill-rule="evenodd"/><path fill="#000000" d="M 141.378906 61.484375 C 141.34375 61.601562 140.839844 62.039062 140.738281 62.175781 C 140.261719 62.800781 139.8125 63.441406 139.402344 64.109375 C 137.972656 66.421875 136.605469 68.917969 135.941406 71.574219 C 135.625 72.847656 135.394531 74.230469 135.742188 75.519531 C 136.527344 78.425781 140.714844 78.855469 143.023438 77.605469 C 144.730469 76.683594 145.785156 74.324219 145.851562 72.453125 C 145.933594 70.152344 144.863281 68.25 143.160156 66.78125 C 142.496094 66.207031 141.203125 65.617188 140.820312 64.78125 C 140.675781 64.457031 140.933594 64.039062 141.078125 63.753906 C 141.433594 63.054688 142.546875 61.902344 141.378906 61.484375 Z M 139.203125 68.386719 C 138.855469 68.671875 138.382812 69.65625 138.226562 70.066406 C 138.070312 70.476562 137.894531 70.890625 137.875 71.339844 C 137.78125 73.433594 139.867188 73.972656 141.558594 73.769531 C 142.152344 73.695312 142.757812 73.601562 143.339844 73.453125 C 143.542969 73.398438 143.84375 73.308594 143.9375 73.09375 C 144.136719 72.632812 140.058594 68.441406 139.203125 68.386719 Z M 139.203125 68.386719 " fill-opacity="1" fill-rule="evenodd"/><g clip-path="url(#356a202a67)"><path fill="#000000" d="M 183.742188 22.148438 C 183.6875 22.191406 183.800781 22.039062 183.828125 21.984375 C 183.886719 21.867188 183.941406 21.75 184.003906 21.632812 C 184.183594 21.265625 184.371094 20.902344 184.542969 20.53125 C 185.042969 19.484375 185.605469 18.449219 186.097656 17.402344 C 186.097656 17.476562 186.230469 17.613281 186.269531 17.679688 C 186.382812 17.890625 186.484375 18.101562 186.589844 18.3125 C 186.949219 19.027344 187.269531 19.75 187.609375 20.46875 C 188.988281 23.410156 190.550781 26.304688 191.800781 29.289062 C 191.996094 29.757812 192.1875 30.230469 192.351562 30.707031 C 192.449219 30.980469 192.546875 31.261719 192.613281 31.542969 C 192.648438 31.695312 192.683594 31.847656 192.699219 32.003906 C 192.710938 32.105469 192.71875 32.207031 192.714844 32.308594 C 192.710938 32.371094 192.703125 32.433594 192.683594 32.492188 C 192.484375 33.121094 191.722656 32.257812 191.527344 32.074219 C 191.441406 31.996094 191.355469 31.917969 191.269531 31.84375 C 191.171875 31.753906 191.074219 31.667969 190.976562 31.578125 C 190.84375 31.457031 190.710938 31.335938 190.574219 31.214844 C 190.394531 31.050781 190.21875 30.886719 190.039062 30.722656 C 189.859375 30.558594 189.675781 30.390625 189.503906 30.21875 C 189.441406 30.15625 189.511719 30.386719 189.519531 30.46875 C 189.542969 30.671875 189.566406 30.875 189.59375 31.074219 C 189.65625 31.605469 189.726562 32.132812 189.808594 32.660156 C 190.050781 34.210938 190.332031 35.753906 190.585938 37.300781 C 191.363281 41.988281 191.988281 46.703125 192.578125 51.410156 C 192.449219 51.386719 192.625 51.628906 192.644531 51.742188 C 192.695312 52.003906 192.722656 52.269531 192.761719 52.535156 C 192.875 53.265625 192.984375 53.992188 193.089844 54.722656 C 193.394531 56.828125 193.691406 58.933594 193.949219 61.046875 C 194.945312 69.222656 196.789062 77.902344 195.238281 86.152344 C 194.90625 87.9375 194.695312 89.976562 193.609375 91.578125 C 193.460938 91.792969 192.699219 92.976562 192.3125 92.945312 C 192.226562 92.941406 192.195312 92.859375 192.175781 92.804688 C 191.832031 91.773438 192.277344 90.25 192.269531 89.195312 C 192.246094 85 192.007812 80.835938 191.527344 76.664062 C 189.910156 62.5625 184.761719 27.296875 184.65625 23.980469 C 184.65625 23.980469 184.421875 23.519531 184.398438 23.480469 C 184.222656 23.148438 183.925781 22.476562 183.742188 22.148438 Z M 183.742188 22.148438 " fill-opacity="1" fill-rule="evenodd"/></g><path fill="#000000" d="M 306.539062 26.289062 C 307.261719 26.023438 308.746094 26.496094 309.445312 26.632812 C 312.484375 27.234375 315.417969 28.320312 318.222656 29.582031 C 328.667969 34.277344 336.234375 43.085938 340.914062 53.148438 C 342.089844 55.660156 343.054688 58.308594 343.652344 61.003906 C 343.8125 61.730469 344.296875 63.058594 343.964844 63.808594 C 343.664062 64.453125 342.90625 64.957031 342.386719 65.421875 C 341.285156 66.421875 340.261719 67.300781 338.996094 68.050781 C 337.363281 66.585938 335.074219 65.542969 333.21875 64.316406 C 332.65625 59.957031 330.738281 55.601562 328.757812 51.710938 C 325.386719 45.101562 320.925781 39.039062 315.507812 33.875 C 313.046875 31.542969 309.5625 27.902344 306.539062 26.289062 Z M 306.539062 26.289062 " fill-opacity="1" fill-rule="evenodd"/><path fill="#000000" d="M 306.539062 118.910156 C 307.261719 119.175781 308.746094 118.703125 309.445312 118.566406 C 312.484375 117.964844 315.417969 116.878906 318.222656 115.617188 C 328.667969 110.921875 336.234375 102.109375 340.914062 92.050781 C 342.089844 89.539062 343.054688 86.890625 343.652344 84.195312 C 343.8125 83.46875 344.296875 82.140625 343.964844 81.390625 C 343.664062 80.746094 342.90625 80.242188 342.386719 79.777344 C 341.285156 78.777344 340.261719 77.898438 338.996094 77.148438 C 337.363281 78.613281 335.074219 79.65625 333.21875 80.878906 C 332.65625 85.242188 330.738281 89.597656 328.757812 93.488281 C 325.386719 100.097656 320.925781 106.160156 315.507812 111.324219 C 313.046875 113.65625 309.5625 117.296875 306.539062 118.910156 Z M 306.539062 118.910156 " fill-opacity="1" fill-rule="evenodd"/><path fill="#000000" d="M 352.253906 66.800781 C 351.96875 66.949219 351.703125 67.085938 351.632812 67.132812 C 349.980469 68.394531 348.34375 69.574219 346.492188 70.574219 C 345.859375 70.914062 345.207031 71.199219 344.5625 71.515625 C 344.457031 71.570312 344.171875 71.699219 344.019531 71.847656 C 343.8125 72.050781 343.757812 72.289062 343.8125 72.519531 C 343.871094 72.753906 344.042969 72.949219 344.34375 73.039062 C 344.574219 73.109375 344.941406 73.09375 345.054688 73.09375 C 345.238281 73.097656 345.804688 73.304688 346.539062 73.589844 C 348.484375 74.332031 351.53125 75.679688 352.933594 76.445312 C 353.09375 76.535156 353.578125 76.855469 353.992188 77.136719 C 353.738281 77.296875 353.476562 77.449219 353.335938 77.503906 C 351.945312 78.023438 350.300781 78.554688 349.402344 79.796875 C 349.070312 80.257812 348.964844 80.792969 348.964844 81.359375 C 348.976562 82.03125 349.171875 82.746094 349.195312 83.355469 C 349.253906 84.996094 348.953125 86.425781 347.964844 87.789062 C 347.195312 88.859375 346.242188 89.875 345.054688 90.519531 C 344.859375 90.628906 343.203125 91.414062 343.203125 91.414062 C 342.972656 91.523438 342.847656 91.773438 342.894531 92.019531 C 342.941406 92.269531 343.15625 92.453125 343.410156 92.472656 C 343.410156 92.472656 345.953125 92.644531 346.710938 92.550781 C 350.621094 92.058594 353.003906 89.628906 354.71875 86.378906 C 354.96875 85.90625 355.152344 85.3125 355.351562 84.734375 C 355.523438 84.25 355.695312 83.777344 355.980469 83.445312 C 356.257812 83.128906 356.660156 82.914062 357.074219 82.707031 C 357.59375 82.453125 358.121094 82.214844 358.535156 81.910156 C 359.8125 80.980469 360.710938 79.804688 361.539062 78.488281 C 361.859375 77.976562 362.160156 77.449219 362.445312 76.921875 C 362.597656 76.667969 363.46875 75.089844 363.46875 75.089844 C 363.621094 74.820312 363.515625 74.480469 363.238281 74.332031 C 363.238281 74.332031 362.355469 73.867188 362.191406 73.785156 C 361.617188 73.507812 360.03125 72.808594 358.847656 72.292969 C 358.835938 72.292969 363.402344 70.925781 363.402344 70.925781 C 363.6875 70.839844 363.859375 70.550781 363.792969 70.261719 C 363.792969 70.261719 363.320312 68.320312 362.355469 66.488281 C 361.675781 65.191406 360.742188 63.96875 359.59375 63.417969 C 359.167969 63.214844 358.59375 63.058594 358.050781 62.890625 C 357.617188 62.753906 357.203125 62.621094 356.949219 62.394531 C 356.855469 62.3125 356.84375 62.167969 356.820312 62.027344 C 356.765625 61.75 356.730469 61.457031 356.671875 61.242188 C 356.386719 60.214844 355.9375 59.183594 355.371094 58.273438 C 353.027344 54.5625 347.136719 51.820312 342.929688 52.050781 C 342.652344 52.066406 342.421875 52.269531 342.386719 52.535156 C 342.351562 52.800781 342.515625 53.054688 342.777344 53.140625 C 344.136719 53.582031 345.261719 54.859375 346.230469 56.378906 C 347.769531 58.8125 348.839844 61.886719 349.542969 63.65625 C 350.023438 64.875 350.496094 65.648438 351.625 66.410156 C 351.832031 66.546875 352.039062 66.679688 352.253906 66.800781 Z M 345.675781 91.460938 C 346.988281 90.734375 348.058594 89.617188 348.910156 88.429688 C 350.046875 86.855469 350.414062 85.210938 350.347656 83.316406 C 350.324219 82.804688 350.183594 82.214844 350.140625 81.640625 C 350.09375 81.210938 350.09375 80.785156 350.347656 80.4375 C 351.117188 79.375 352.566406 78.992188 353.75 78.546875 C 354.140625 78.398438 355.328125 77.605469 355.328125 77.605469 C 355.488281 77.5 355.566406 77.332031 355.566406 77.148438 C 355.578125 76.96875 355.488281 76.796875 355.339844 76.691406 C 355.339844 76.691406 353.820312 75.644531 353.496094 75.472656 C 351.851562 74.574219 348.023438 72.898438 346.183594 72.261719 C 346.054688 72.21875 345.953125 72.183594 345.839844 72.148438 C 346.253906 71.960938 346.65625 71.765625 347.058594 71.550781 C 348.964844 70.523438 350.632812 69.3125 352.347656 68.015625 C 352.484375 67.90625 353.578125 67.433594 353.832031 67.269531 C 354.003906 67.152344 354.0625 67.019531 354.085938 66.957031 C 354.140625 66.808594 354.175781 66.550781 353.902344 66.324219 C 353.808594 66.25 353.289062 66.042969 353.234375 66.023438 C 352.898438 65.882812 352.578125 65.695312 352.277344 65.488281 C 351.371094 64.875 351.003906 64.242188 350.609375 63.257812 C 349.898438 61.441406 348.792969 58.289062 347.207031 55.792969 C 346.609375 54.832031 345.917969 53.972656 345.171875 53.304688 L 345.171875 53.300781 C 348.667969 53.875 352.625 56.066406 354.394531 58.859375 C 354.902344 59.679688 355.304688 60.613281 355.558594 61.539062 C 355.625 61.78125 355.648438 62.125 355.730469 62.429688 C 355.808594 62.746094 355.960938 63.019531 356.167969 63.210938 C 356.453125 63.476562 356.890625 63.679688 357.375 63.847656 C 357.949219 64.046875 358.617188 64.199219 359.085938 64.421875 C 360.03125 64.875 360.765625 65.925781 361.332031 66.996094 C 361.941406 68.152344 362.332031 69.359375 362.527344 70.015625 C 362.527344 70.015625 357.027344 71.664062 357.027344 71.664062 C 356.808594 71.734375 356.648438 71.933594 356.625 72.167969 C 356.613281 72.398438 356.753906 72.617188 356.972656 72.710938 C 356.972656 72.710938 360.742188 74.328125 361.675781 74.785156 C 361.746094 74.820312 361.964844 74.933594 362.183594 75.050781 C 361.917969 75.53125 361.539062 76.222656 361.445312 76.382812 C 361.15625 76.894531 360.871094 77.40625 360.546875 77.90625 C 359.800781 79.097656 359.007812 80.171875 357.84375 81.011719 C 357.476562 81.28125 357.007812 81.488281 356.546875 81.714844 C 355.992188 81.988281 355.476562 82.300781 355.109375 82.722656 C 354.730469 83.152344 354.476562 83.753906 354.269531 84.375 C 354.085938 84.898438 353.921875 85.441406 353.703125 85.867188 C 352.164062 88.777344 350.070312 91 346.574219 91.4375 C 346.367188 91.464844 346.046875 91.46875 345.675781 91.460938 Z M 345.675781 91.460938 " fill-opacity="1" fill-rule="evenodd"/><path fill="#000000" d="M 339.339844 77.339844 C 339.476562 77.238281 340.304688 76.648438 340.398438 76.574219 C 341.675781 75.570312 344.113281 73.234375 345.273438 72.109375 C 345.390625 72.007812 345.445312 71.871094 345.445312 71.726562 C 345.445312 71.605469 345.414062 71.4375 345.273438 71.285156 C 345.171875 71.171875 344.917969 71.015625 344.859375 70.976562 C 344.457031 70.6875 344.066406 70.402344 343.664062 70.117188 C 342.132812 69.011719 340.628906 67.785156 338.972656 66.84375 C 338.730469 66.699219 338.40625 66.757812 338.234375 66.980469 C 337.777344 67.550781 336.578125 68.113281 335.945312 68.539062 C 334.210938 69.703125 332.402344 70.773438 330.644531 71.898438 C 330.390625 71.960938 330.289062 72.195312 330.277344 72.246094 C 330.230469 72.363281 330.160156 72.617188 330.414062 72.855469 C 330.449219 72.882812 330.679688 73.007812 330.757812 73.0625 C 330.933594 73.171875 331.105469 73.285156 331.277344 73.398438 C 331.875 73.792969 332.496094 74.164062 333.117188 74.527344 C 334.910156 75.578125 336.695312 76.671875 338.570312 77.574219 C 338.753906 77.664062 338.972656 77.652344 339.144531 77.539062 C 339.222656 77.488281 339.292969 77.417969 339.339844 77.339844 Z M 344.007812 71.757812 C 342.765625 72.949219 340.777344 74.835938 339.671875 75.707031 C 339.582031 75.773438 339.039062 76.121094 338.707031 76.390625 C 336.992188 75.535156 335.359375 74.535156 333.703125 73.566406 C 333.105469 73.214844 332.507812 72.859375 331.921875 72.472656 L 331.886719 72.449219 C 333.460938 71.457031 335.050781 70.496094 336.601562 69.460938 C 337.175781 69.074219 338.15625 68.554688 338.777344 68.03125 C 340.25 68.921875 341.59375 70.019531 342.984375 71.015625 C 343.332031 71.261719 343.675781 71.507812 344.007812 71.757812 Z M 330.726562 72.996094 L 330.726562 73 Z M 330.726562 72.996094 " fill-opacity="1" fill-rule="evenodd"/><path fill="#000000" d="M 363.355469 70.335938 L 375.074219 72.84375 L 363.355469 74.753906 L 358.445312 72.308594 Z M 363.355469 70.335938 " fill-opacity="1" fill-rule="evenodd"/><path fill="#000000" d="M 68.578125 21.527344 C 67.855469 21.257812 66.371094 21.730469 65.667969 21.871094 C 62.632812 22.472656 59.699219 23.554688 56.894531 24.820312 C 46.449219 29.511719 38.882812 38.324219 34.199219 48.386719 C 33.027344 50.898438 32.0625 53.542969 31.464844 56.238281 C 31.300781 56.96875 30.820312 58.292969 31.152344 59.042969 C 31.453125 59.691406 32.210938 60.195312 32.730469 60.660156 C 33.832031 61.65625 34.855469 62.535156 36.121094 63.289062 C 37.753906 61.820312 40.042969 60.777344 41.894531 59.554688 C 42.460938 55.195312 44.378906 50.839844 46.359375 46.949219 C 49.726562 40.335938 54.191406 34.273438 59.609375 29.113281 C 62.070312 26.777344 65.554688 23.140625 68.578125 21.527344 Z M 68.578125 21.527344 " fill-opacity="1" fill-rule="evenodd"/><path fill="#000000" d="M 68.578125 114.144531 C 67.855469 114.414062 66.371094 113.941406 65.667969 113.804688 C 62.632812 113.203125 59.699219 112.117188 56.894531 110.855469 C 46.449219 106.160156 38.882812 97.347656 34.199219 87.285156 C 33.027344 84.773438 32.0625 82.128906 31.464844 79.433594 C 31.300781 78.707031 30.820312 77.378906 31.152344 76.628906 C 31.453125 75.980469 32.210938 75.476562 32.730469 75.011719 C 33.832031 74.015625 34.855469 73.136719 36.121094 72.382812 C 37.753906 73.851562 40.042969 74.894531 41.894531 76.117188 C 42.460938 80.476562 44.378906 84.832031 46.359375 88.722656 C 49.726562 95.335938 54.191406 101.398438 59.609375 106.558594 C 62.070312 108.894531 65.554688 112.53125 68.578125 114.144531 Z M 68.578125 114.144531 " fill-opacity="1" fill-rule="evenodd"/><path fill="#000000" d="M 22.859375 62.035156 C 23.148438 62.183594 23.414062 62.324219 23.480469 62.371094 C 25.136719 63.632812 26.769531 64.8125 28.621094 65.808594 C 29.253906 66.152344 29.910156 66.4375 30.554688 66.753906 C 30.660156 66.804688 30.945312 66.9375 31.09375 67.085938 C 31.300781 67.285156 31.359375 67.523438 31.300781 67.757812 C 31.246094 67.988281 31.074219 68.1875 30.773438 68.277344 C 30.542969 68.34375 30.175781 68.328125 30.058594 68.332031 C 29.875 68.335938 29.3125 68.542969 28.578125 68.828125 C 26.632812 69.570312 23.585938 70.917969 22.183594 71.683594 C 22.019531 71.773438 21.539062 72.09375 21.125 72.375 C 21.375 72.535156 21.640625 72.6875 21.777344 72.742188 C 23.171875 73.261719 24.816406 73.789062 25.714844 75.03125 C 26.046875 75.492188 26.148438 76.03125 26.148438 76.597656 C 26.136719 77.269531 25.941406 77.984375 25.921875 78.59375 C 25.863281 80.234375 26.160156 81.664062 27.152344 83.023438 C 27.921875 84.097656 28.875 85.109375 30.058594 85.757812 C 30.257812 85.863281 31.914062 86.648438 31.914062 86.648438 C 32.140625 86.761719 32.269531 87.007812 32.222656 87.257812 C 32.175781 87.507812 31.957031 87.691406 31.707031 87.710938 C 31.707031 87.710938 29.164062 87.882812 28.402344 87.785156 C 24.492188 87.292969 22.113281 84.867188 20.398438 81.617188 C 20.144531 81.144531 19.960938 80.550781 19.765625 79.96875 C 19.59375 79.488281 19.421875 79.015625 19.132812 78.679688 C 18.859375 78.363281 18.457031 78.152344 18.042969 77.945312 C 17.523438 77.6875 16.996094 77.449219 16.582031 77.144531 C 15.304688 76.214844 14.40625 75.039062 13.578125 73.726562 C 13.257812 73.210938 12.957031 72.683594 12.671875 72.15625 C 12.519531 71.902344 11.648438 70.328125 11.648438 70.328125 C 11.496094 70.054688 11.601562 69.71875 11.875 69.570312 C 11.875 69.570312 12.761719 69.101562 12.921875 69.019531 C 13.5 68.746094 15.085938 68.046875 16.269531 67.53125 C 16.28125 67.53125 11.714844 66.164062 11.714844 66.164062 C 11.429688 66.078125 11.253906 65.785156 11.324219 65.5 C 11.324219 65.5 11.796875 63.558594 12.761719 61.722656 C 13.441406 60.429688 14.371094 59.203125 15.523438 58.65625 C 15.949219 58.449219 16.523438 58.296875 17.0625 58.125 C 17.5 57.992188 17.914062 57.855469 18.167969 57.628906 C 18.261719 57.546875 18.269531 57.402344 18.292969 57.261719 C 18.351562 56.984375 18.386719 56.695312 18.445312 56.480469 C 18.730469 55.453125 19.179688 54.417969 19.742188 53.511719 C 22.089844 49.800781 27.980469 47.054688 32.1875 47.289062 C 32.464844 47.304688 32.695312 47.507812 32.730469 47.769531 C 32.761719 48.039062 32.601562 48.292969 32.335938 48.375 C 30.980469 48.820312 29.851562 50.097656 28.886719 51.617188 C 27.347656 54.046875 26.277344 57.125 25.574219 58.894531 C 25.09375 60.113281 24.621094 60.882812 23.492188 61.644531 C 23.285156 61.785156 23.078125 61.917969 22.859375 62.035156 Z M 29.4375 86.699219 C 28.128906 85.972656 27.058594 84.855469 26.207031 83.664062 C 25.070312 82.09375 24.699219 80.449219 24.769531 78.550781 C 24.792969 78.039062 24.929688 77.453125 24.976562 76.878906 C 25.023438 76.445312 25.023438 76.019531 24.769531 75.675781 C 24 74.613281 22.550781 74.230469 21.367188 73.785156 C 20.972656 73.632812 19.789062 72.84375 19.789062 72.84375 C 19.628906 72.738281 19.546875 72.570312 19.546875 72.386719 C 19.535156 72.207031 19.628906 72.035156 19.777344 71.929688 C 19.777344 71.929688 21.296875 70.882812 21.617188 70.707031 C 23.261719 69.8125 27.09375 68.136719 28.933594 67.5 C 29.058594 67.457031 29.164062 67.417969 29.277344 67.386719 C 28.863281 67.195312 28.460938 67.003906 28.058594 66.789062 C 26.148438 65.761719 24.480469 64.550781 22.769531 63.25 C 22.628906 63.144531 21.539062 62.671875 21.285156 62.507812 C 21.113281 62.390625 21.054688 62.253906 21.03125 62.191406 C 20.972656 62.046875 20.941406 61.785156 21.214844 61.5625 C 21.308594 61.484375 21.824219 61.28125 21.882812 61.257812 C 22.214844 61.117188 22.539062 60.929688 22.835938 60.726562 C 23.746094 60.113281 24.113281 59.476562 24.503906 58.492188 C 25.21875 56.675781 26.324219 53.523438 27.910156 51.03125 C 28.507812 50.070312 29.199219 49.210938 29.945312 48.539062 C 26.449219 49.113281 22.492188 51.304688 20.722656 54.09375 C 20.214844 54.914062 19.8125 55.847656 19.558594 56.777344 C 19.492188 57.019531 19.46875 57.363281 19.386719 57.664062 C 19.304688 57.980469 19.15625 58.257812 18.949219 58.449219 C 18.664062 58.710938 18.226562 58.917969 17.742188 59.085938 C 17.167969 59.285156 16.5 59.433594 16.027344 59.65625 C 15.085938 60.113281 14.347656 61.160156 13.785156 62.230469 C 13.175781 63.390625 12.785156 64.59375 12.589844 65.253906 C 12.589844 65.253906 18.085938 66.902344 18.085938 66.902344 C 18.304688 66.972656 18.46875 67.171875 18.488281 67.402344 C 18.5 67.636719 18.363281 67.851562 18.144531 67.949219 C 18.144531 67.949219 14.371094 69.566406 13.441406 70.019531 C 13.371094 70.058594 13.152344 70.171875 12.933594 70.285156 C 13.199219 70.769531 13.578125 71.460938 13.671875 71.617188 C 13.957031 72.132812 14.246094 72.644531 14.566406 73.140625 C 15.316406 74.332031 16.109375 75.40625 17.269531 76.25 C 17.640625 76.519531 18.109375 76.722656 18.570312 76.949219 C 19.121094 77.226562 19.640625 77.535156 20.007812 77.960938 C 20.386719 78.390625 20.640625 78.988281 20.847656 79.609375 C 21.03125 80.136719 21.191406 80.679688 21.410156 81.105469 C 22.953125 84.015625 25.046875 86.238281 28.542969 86.675781 C 28.75 86.703125 29.070312 86.707031 29.4375 86.699219 Z M 29.4375 86.699219 " fill-opacity="1" fill-rule="evenodd"/><path fill="#000000" d="M 35.777344 72.574219 C 35.640625 72.476562 34.8125 71.882812 34.71875 71.8125 C 33.441406 70.804688 31.003906 68.472656 29.84375 67.347656 C 29.726562 67.246094 29.667969 67.109375 29.667969 66.964844 C 29.667969 66.839844 29.703125 66.675781 29.84375 66.519531 C 29.945312 66.410156 30.199219 66.253906 30.257812 66.210938 C 30.660156 65.921875 31.050781 65.636719 31.453125 65.351562 C 32.980469 64.246094 34.488281 63.023438 36.144531 62.078125 C 36.386719 61.9375 36.707031 61.996094 36.882812 62.21875 C 37.339844 62.789062 38.539062 63.351562 39.167969 63.773438 C 40.90625 64.941406 42.710938 66.011719 44.472656 67.136719 C 44.726562 67.199219 44.828125 67.433594 44.839844 67.480469 C 44.886719 67.597656 44.953125 67.851562 44.703125 68.09375 C 44.667969 68.117188 44.4375 68.242188 44.355469 68.296875 C 44.183594 68.410156 44.011719 68.519531 43.839844 68.632812 C 43.242188 69.03125 42.621094 69.398438 42 69.761719 C 40.203125 70.816406 38.421875 71.910156 36.546875 72.8125 C 36.363281 72.902344 36.144531 72.886719 35.972656 72.777344 C 35.890625 72.726562 35.824219 72.65625 35.777344 72.574219 Z M 31.105469 66.996094 C 32.347656 68.1875 34.339844 70.074219 35.441406 70.945312 C 35.535156 71.011719 36.074219 71.359375 36.410156 71.625 C 38.125 70.773438 39.757812 69.769531 41.414062 68.804688 C 42.011719 68.453125 42.609375 68.097656 43.195312 67.710938 L 43.230469 67.683594 C 41.652344 66.691406 40.066406 65.730469 38.515625 64.695312 C 37.9375 64.308594 36.960938 63.792969 36.339844 63.269531 C 34.867188 64.15625 33.523438 65.257812 32.128906 66.253906 C 31.785156 66.5 31.441406 66.746094 31.105469 66.996094 Z M 44.390625 68.234375 Z M 44.390625 68.234375 " fill-opacity="1" fill-rule="evenodd"/><path fill="#000000" d="M 11.761719 65.570312 L 0.0429688 68.082031 L 11.761719 69.988281 L 16.671875 67.546875 Z M 11.761719 65.570312 " fill-opacity="1" fill-rule="evenodd"/><path fill="#000000" d="M 278.300781 80.199219 C 278.324219 80.183594 278.335938 80.164062 278.3125 80.132812 C 278.300781 80.15625 278.300781 80.175781 278.300781 80.199219 C 278.222656 80.246094 277.976562 80.246094 277.875 80.296875 C 277.550781 80.460938 277.238281 80.632812 276.925781 80.808594 C 275.964844 81.339844 275.089844 81.957031 274.230469 82.621094 C 271.835938 84.457031 269.105469 87.414062 265.820312 87.371094 C 265.863281 87.199219 265.460938 86.722656 265.382812 86.601562 C 264.878906 85.789062 264.34375 85 263.828125 84.195312 C 261.78125 80.941406 258.371094 76.328125 254.054688 79.171875 C 250.644531 81.417969 247.824219 85.804688 247.210938 89.835938 C 246.707031 93.105469 248.171875 96.234375 251.515625 97.207031 C 255.351562 98.324219 260.292969 96.046875 263.558594 94.132812 C 263.582031 94.117188 263.804688 94.523438 263.828125 94.574219 C 263.984375 94.863281 264.121094 95.15625 264.265625 95.449219 C 264.667969 96.320312 265.070312 97.285156 265.023438 98.265625 C 265.003906 98.277344 264.746094 98.515625 264.691406 98.570312 C 264.5 98.765625 264.296875 98.953125 264.097656 99.140625 C 263.414062 99.769531 262.734375 100.382812 262.074219 101.023438 C 260.203125 102.816406 258.246094 104.488281 256.246094 106.132812 C 250.542969 110.828125 243.039062 117.414062 235.140625 117.332031 C 226.707031 117.242188 220.847656 110.179688 221.675781 101.9375 C 221.910156 99.652344 222.359375 97.398438 222.949219 95.183594 C 223.050781 94.773438 223.667969 93.230469 223.375 92.832031 C 223.117188 92.46875 222.113281 94.054688 222.035156 94.171875 C 221.015625 95.847656 220.402344 97.664062 220.007812 99.574219 C 219.003906 104.429688 219.136719 109.929688 221.21875 114.503906 C 224.886719 122.554688 234.707031 125.4375 242.613281 122.292969 C 246.707031 120.667969 250.308594 117.890625 253.742188 115.183594 C 256.949219 112.648438 260.25 110.015625 262.699219 106.699219 C 264.03125 104.902344 265.976562 102.59375 266.535156 100.378906 C 267.171875 97.886719 267.003906 95.210938 266.65625 92.78125 C 266.648438 92.726562 267.140625 92.535156 267.195312 92.511719 C 267.71875 92.246094 268.257812 91.988281 268.78125 91.722656 C 270.820312 90.714844 272.945312 89.742188 274.664062 88.238281 C 274.789062 88.132812 274.6875 88.570312 274.722656 88.730469 C 274.777344 89.011719 274.878906 89.285156 274.980469 89.558594 C 275.28125 90.347656 275.605469 91.128906 275.972656 91.890625 C 277.125 94.246094 279.207031 96.101562 281.757812 96.78125 C 282.863281 97.074219 284.050781 97.269531 285.203125 97.171875 C 289.988281 96.765625 292.75 91.9375 294.160156 87.851562 C 294.160156 87.84375 294.171875 87.839844 294.171875 87.84375 L 294.160156 87.851562 C 294.171875 87.953125 294.664062 89.089844 294.730469 89.210938 C 295.253906 90.125 295.894531 91.003906 296.621094 91.777344 C 298.878906 94.183594 302.601562 94.855469 305.613281 93.546875 C 307.613281 92.671875 308.742188 91.027344 309.617188 89.089844 C 311.40625 85.121094 310.554688 79.105469 309.078125 75.070312 C 309.125 74.867188 308.84375 75.410156 308.710938 75.566406 C 308.40625 75.929688 308.074219 76.273438 307.769531 76.632812 C 306.851562 77.703125 305.769531 78.738281 304.996094 79.925781 C 304.929688 80.019531 306.28125 81.640625 306.394531 81.898438 C 307.425781 84.152344 305.644531 86.441406 303.308594 86.570312 C 299.863281 86.761719 297.917969 83.769531 297.527344 80.703125 C 297.390625 79.648438 297.414062 78.574219 297.222656 77.527344 C 297.167969 77.191406 297 76.621094 296.5625 76.636719 C 296.082031 76.648438 295.78125 77.332031 295.613281 77.703125 C 295.078125 78.925781 295.019531 80.289062 294.695312 81.570312 C 294.359375 82.863281 293.632812 83.984375 292.917969 85.101562 C 291.597656 87.183594 290.011719 89.78125 287.5625 90.65625 C 284.628906 91.699219 280.851562 89.851562 279.363281 87.242188 C 278.289062 85.34375 277.976562 82.371094 278.300781 80.199219 Z M 265.023438 98.265625 Z M 251.527344 88.949219 C 251.625 87.648438 252.34375 86.363281 253.238281 85.433594 C 253.671875 84.984375 254.222656 84.5 254.902344 84.617188 C 256.234375 84.851562 257.566406 85.945312 258.4375 86.921875 C 258.617188 87.125 259.222656 87.6875 259.132812 88.015625 C 259.03125 88.335938 258.550781 88.523438 258.28125 88.640625 C 257.441406 89.007812 256.515625 89.230469 255.621094 89.359375 C 254.65625 89.5 252.039062 89.546875 251.527344 88.949219 Z M 251.527344 88.949219 " fill-opacity="1" fill-rule="evenodd"/><g clip-path="url(#8c64ec6d2f)"><path fill="#000000" d="M 228.863281 81.269531 C 228.789062 81.351562 228.761719 81.617188 228.726562 81.722656 C 228.617188 82.109375 228.507812 82.496094 228.40625 82.886719 C 228.050781 84.230469 227.675781 85.570312 227.316406 86.914062 C 227.203125 87.335938 227.085938 87.757812 226.96875 88.179688 C 226.933594 88.300781 226.8125 88.5625 226.851562 88.691406 C 226.890625 88.8125 227.207031 88.9375 227.304688 89.003906 C 227.632812 89.222656 227.945312 89.480469 228.214844 89.765625 C 228.210938 89.730469 228.304688 89.917969 228.3125 89.933594 C 228.371094 90.078125 228.4375 90.21875 228.496094 90.359375 C 228.679688 90.785156 228.828125 91.222656 228.992188 91.652344 C 229.488281 92.949219 229.992188 94.242188 230.539062 95.519531 C 231.539062 97.875 232.699219 100.179688 233.917969 102.4375 C 234.429688 103.386719 234.929688 104.335938 235.410156 105.300781 C 235.625 105.738281 235.914062 106.179688 236.058594 106.648438 C 236.277344 107.355469 234.511719 108.355469 234.007812 108.875 C 232.066406 110.878906 229.960938 112.714844 227.757812 114.433594 C 219.140625 121.167969 207.40625 127.851562 196.179688 123.207031 C 196.292969 123.3125 195.902344 123.054688 195.773438 122.96875 C 195.5 122.785156 195.242188 122.585938 194.992188 122.375 C 194.191406 121.707031 193.480469 120.984375 192.871094 120.140625 C 191.070312 117.632812 190.308594 114.6875 190.183594 111.652344 C 190.003906 107.316406 190.765625 103.105469 192.136719 98.992188 C 192.285156 98.550781 192.433594 98.109375 192.585938 97.671875 C 192.714844 97.296875 192.851562 96.921875 192.980469 96.546875 C 193.066406 96.296875 193.148438 96.042969 193.230469 95.792969 C 193.292969 95.589844 193.355469 95.386719 193.417969 95.179688 C 193.472656 95.011719 193.523438 94.839844 193.570312 94.667969 C 193.667969 94.316406 194.386719 92.324219 193.417969 92.566406 C 193.488281 92.730469 193.171875 92.828125 193.082031 92.980469 C 192.761719 93.511719 192.476562 94.066406 192.210938 94.625 C 191.183594 96.796875 190.300781 99.011719 189.566406 101.296875 C 187.410156 108.003906 185.273438 116.324219 188.453125 123.011719 C 188.550781 122.984375 188.523438 123.199219 188.5625 123.292969 C 188.640625 123.492188 188.730469 123.691406 188.816406 123.886719 C 189.078125 124.488281 189.390625 125.070312 189.726562 125.632812 C 190.683594 127.242188 192.109375 128.605469 193.589844 129.753906 C 197.566406 132.84375 202.949219 132.828125 207.75 132.226562 C 207.746094 132.203125 208.132812 132.113281 208.148438 132.109375 C 208.605469 131.992188 209.066406 131.882812 209.523438 131.753906 C 210.6875 131.417969 211.84375 131.027344 212.941406 130.519531 C 216.355469 128.933594 219.816406 127.292969 222.742188 124.949219 C 222.742188 124.953125 226.617188 121.988281 227.714844 121.140625 C 231.050781 118.558594 234.40625 115.464844 236.464844 111.773438 C 236.539062 111.640625 236.785156 111.074219 236.835938 110.953125 C 237.1875 110.105469 237.480469 109.226562 237.703125 108.339844 C 238.25 106.179688 238.5 103.738281 238.042969 101.53125 C 237.753906 100.121094 237.175781 98.816406 236.613281 97.496094 C 236.714844 97.535156 236.535156 97.292969 236.496094 97.195312 C 236.421875 97.015625 236.34375 96.84375 236.265625 96.667969 C 235.996094 96.066406 235.730469 95.464844 235.457031 94.867188 C 234.679688 93.167969 233.453125 91.484375 233 89.660156 C 232.886719 89.195312 233.367188 89.519531 233.570312 89.640625 C 234.085938 89.941406 234.585938 90.289062 235.132812 90.53125 C 235.308594 90.613281 235.632812 90.738281 235.691406 90.460938 C 235.851562 89.753906 235.082031 88.746094 234.734375 88.207031 C 233.605469 86.460938 231.105469 83.65625 228.863281 81.269531 Z M 228.863281 81.269531 " fill-opacity="1" fill-rule="evenodd"/></g><path fill="#000000" d="M 207.59375 62.136719 C 207.605469 61.855469 208.132812 62.332031 208.410156 62.414062 C 209.105469 62.621094 209.820312 62.804688 210.535156 62.953125 C 210.59375 62.964844 211.195312 63.121094 211.195312 63.015625 C 211.175781 62.414062 209.640625 61.398438 209.25 61.042969 C 207.417969 59.347656 205.582031 57.652344 203.667969 56.042969 C 203.3125 55.746094 201.914062 54.269531 201.367188 54.464844 C 200.984375 54.601562 200.761719 55.230469 200.605469 55.554688 C 200.148438 56.542969 199.722656 57.542969 199.285156 58.539062 C 199.164062 58.816406 198.75 59.460938 198.894531 59.789062 C 199.050781 60.128906 199.519531 60.039062 199.800781 60.203125 C 200.179688 60.4375 200.4375 60.980469 200.660156 61.339844 C 203.019531 64.972656 205.839844 68.207031 208.523438 71.597656 C 208.511719 71.601562 208.757812 71.847656 208.78125 71.875 C 208.769531 71.863281 207.917969 72.890625 207.863281 72.960938 C 206.746094 74.292969 205.738281 75.714844 204.777344 77.148438 C 202.070312 81.125 201.1875 86.679688 202.441406 91.320312 C 203.144531 93.941406 205.214844 96.570312 208.164062 96.355469 C 210.4375 96.1875 212.640625 94.40625 214.226562 92.917969 C 218.109375 89.296875 222.695312 83.882812 220.5 78.210938 C 219.640625 76.003906 218.21875 74.019531 216.675781 72.25 C 216.207031 71.722656 214.832031 70.753906 215.023438 69.949219 C 215.355469 68.589844 216.664062 67.292969 217.460938 66.203125 C 219.515625 63.398438 222.457031 60.183594 223.355469 56.726562 C 223.667969 55.484375 224.058594 52.9375 223.308594 51.757812 C 223.195312 51.59375 222.839844 52.097656 222.792969 52.164062 C 222.3125 52.761719 221.945312 53.457031 221.542969 54.105469 C 220.535156 55.722656 219.496094 57.320312 218.410156 58.894531 C 217.550781 60.152344 216.65625 61.386719 215.769531 62.636719 C 214.910156 63.847656 214.046875 65.054688 213.175781 66.25 C 213.007812 66.476562 212.59375 67.261719 212.246094 67.277344 C 211.386719 67.3125 208.144531 62.722656 207.59375 62.136719 Z M 211.296875 74.726562 C 211.441406 74.5625 210.4375 75.59375 210.3125 75.765625 C 210.089844 76.082031 209.855469 76.394531 209.628906 76.710938 C 208.960938 77.636719 208.324219 78.578125 207.695312 79.53125 C 205.941406 82.183594 202.929688 88.078125 207.59375 89.617188 C 210.660156 90.628906 213.632812 87.34375 215.390625 85.285156 C 216.117188 84.449219 217.179688 83.328125 217.179688 82.140625 C 217.191406 81.457031 216.742188 80.785156 216.386719 80.234375 C 215.355469 78.664062 212.75 75.90625 211.296875 74.726562 Z M 211.296875 74.726562 " fill-opacity="1" fill-rule="evenodd"/><path fill="#000000" d="M 239.238281 39.363281 C 239.261719 39.398438 239.164062 39.546875 239.148438 39.582031 C 239.027344 39.816406 238.902344 40.050781 238.765625 40.277344 C 238.734375 40.332031 238.652344 40.507812 238.554688 40.5 C 238.410156 40.492188 238.179688 40.277344 238.074219 40.207031 C 237.679688 39.9375 237.277344 39.675781 236.890625 39.398438 C 236.464844 39.089844 236.035156 38.777344 235.59375 38.484375 C 235.335938 38.3125 234.992188 38.160156 234.804688 37.925781 C 234.605469 37.675781 234.613281 37.320312 234.585938 37.035156 C 234.523438 36.335938 234.507812 35.617188 234.730469 34.933594 C 234.941406 34.300781 235.332031 33.460938 236.207031 33.335938 C 237.121094 33.199219 238.078125 33.871094 238.785156 34.273438 C 240.210938 35.082031 241.113281 36.199219 241.914062 37.460938 C 242.625 38.589844 243.191406 39.761719 243.550781 41.007812 C 243.765625 41.761719 243.898438 42.546875 244.160156 43.292969 C 244.269531 43.609375 244.414062 44.015625 244.773438 44.203125 C 244.769531 44.25 244.800781 44.105469 244.808594 44.054688 C 244.828125 43.957031 244.84375 43.859375 244.859375 43.757812 C 244.910156 43.472656 244.949219 43.183594 244.988281 42.894531 C 245.117188 42.003906 245.273438 41.121094 245.503906 40.246094 C 246.121094 37.917969 247.011719 35.425781 248.59375 33.429688 C 249.300781 32.535156 250.390625 31.554688 251.808594 32.019531 C 252.789062 32.339844 253.464844 33.285156 253.925781 34.035156 C 254.078125 34.28125 254.34375 34.652344 254.332031 34.941406 C 254.304688 35.511719 253.816406 36.15625 253.5625 36.667969 C 253.382812 37.027344 253.214844 37.390625 253.003906 37.738281 C 252.933594 37.855469 252.839844 38.050781 252.6875 38.117188 C 252.410156 38.234375 252.066406 37.527344 251.988281 37.40625 C 251.574219 36.757812 250.949219 35.734375 249.914062 35.785156 C 248.832031 35.839844 248.351562 37 248.019531 37.695312 C 247.03125 39.785156 246.484375 41.929688 245.925781 44.113281 C 245.910156 44.117188 245.824219 44.4375 245.816406 44.460938 C 245.679688 44.851562 245.539062 45.246094 245.414062 45.640625 C 245.046875 46.804688 244.808594 48.027344 244.273438 49.144531 C 244.191406 49.316406 243.839844 50.160156 243.445312 49.957031 C 243.25 49.855469 243.21875 49.550781 243.1875 49.382812 C 243.097656 48.890625 242.992188 48.398438 242.871094 47.914062 C 242.726562 47.339844 242.582031 46.773438 242.449219 46.199219 C 242.246094 45.328125 242.019531 44.457031 241.695312 43.613281 C 241.261719 42.476562 240.210938 39.890625 239.238281 39.363281 Z M 239.238281 39.363281 " fill-opacity="1" fill-rule="evenodd"/><path fill="#000000" d="M 118.207031 40.773438 C 118.226562 40.808594 118.132812 40.957031 118.113281 40.992188 C 117.996094 41.226562 117.867188 41.460938 117.734375 41.6875 C 117.703125 41.742188 117.621094 41.917969 117.523438 41.910156 C 117.378906 41.902344 117.144531 41.6875 117.039062 41.617188 C 116.644531 41.347656 116.242188 41.085938 115.859375 40.808594 C 115.429688 40.5 115.003906 40.1875 114.558594 39.894531 C 114.300781 39.722656 113.957031 39.570312 113.773438 39.335938 C 113.570312 39.085938 113.578125 38.734375 113.554688 38.445312 C 113.488281 37.746094 113.472656 37.027344 113.699219 36.34375 C 113.90625 35.710938 114.296875 34.871094 115.171875 34.746094 C 116.089844 34.609375 117.046875 35.28125 117.75 35.683594 C 119.179688 36.492188 120.082031 37.609375 120.878906 38.871094 C 121.59375 40 122.160156 41.171875 122.515625 42.417969 C 122.734375 43.171875 122.863281 43.957031 123.125 44.703125 C 123.238281 45.019531 123.382812 45.425781 123.738281 45.613281 C 123.734375 45.664062 123.765625 45.515625 123.773438 45.464844 C 123.792969 45.367188 123.808594 45.269531 123.828125 45.167969 C 123.875 44.882812 123.914062 44.59375 123.957031 44.304688 C 124.082031 43.414062 124.242188 42.53125 124.472656 41.65625 C 125.085938 39.332031 125.976562 36.835938 127.5625 34.839844 C 128.269531 33.945312 129.359375 32.96875 130.777344 33.429688 C 131.757812 33.75 132.429688 34.695312 132.890625 35.445312 C 133.042969 35.691406 133.3125 36.0625 133.296875 36.351562 C 133.269531 36.921875 132.78125 37.566406 132.527344 38.078125 C 132.351562 38.4375 132.183594 38.800781 131.96875 39.148438 C 131.898438 39.265625 131.804688 39.460938 131.65625 39.527344 C 131.375 39.644531 131.03125 38.9375 130.953125 38.816406 C 130.539062 38.167969 129.917969 37.144531 128.882812 37.195312 C 127.796875 37.25 127.320312 38.410156 126.988281 39.105469 C 125.996094 41.195312 125.453125 43.339844 124.890625 45.523438 C 124.875 45.527344 124.792969 45.847656 124.785156 45.871094 C 124.644531 46.261719 124.503906 46.65625 124.378906 47.050781 C 124.011719 48.214844 123.773438 49.4375 123.238281 50.554688 C 123.160156 50.726562 122.804688 51.570312 122.414062 51.367188 C 122.21875 51.265625 122.183594 50.960938 122.152344 50.792969 C 122.0625 50.300781 121.960938 49.808594 121.835938 49.324219 C 121.691406 48.75 121.546875 48.183594 121.414062 47.609375 C 121.210938 46.738281 120.988281 45.867188 120.664062 45.023438 C 120.226562 43.886719 119.179688 41.300781 118.207031 40.773438 Z M 118.207031 40.773438 " fill-opacity="1" fill-rule="evenodd"/><path fill="#000000" d="M 239.238281 68.226562 C 239.261719 68.261719 239.164062 68.410156 239.148438 68.449219 C 239.027344 68.679688 238.902344 68.914062 238.765625 69.140625 C 238.734375 69.195312 238.652344 69.371094 238.554688 69.363281 C 238.410156 69.355469 238.179688 69.140625 238.074219 69.070312 C 237.679688 68.800781 237.277344 68.542969 236.890625 68.261719 C 236.464844 67.953125 236.035156 67.644531 235.59375 67.347656 C 235.335938 67.179688 234.992188 67.023438 234.804688 66.792969 C 234.605469 66.542969 234.613281 66.1875 234.585938 65.898438 C 234.523438 65.199219 234.507812 64.480469 234.730469 63.796875 C 234.941406 63.167969 235.332031 62.328125 236.207031 62.199219 C 237.121094 62.066406 238.078125 62.738281 238.785156 63.136719 C 240.210938 63.949219 241.113281 65.0625 241.914062 66.328125 C 242.625 67.453125 243.191406 68.625 243.550781 69.871094 C 243.765625 70.628906 243.898438 71.414062 244.160156 72.160156 C 244.269531 72.476562 244.414062 72.878906 244.773438 73.070312 C 244.769531 73.117188 244.800781 72.96875 244.808594 72.917969 C 244.828125 72.820312 244.84375 72.722656 244.859375 72.621094 C 244.910156 72.335938 244.949219 72.046875 244.988281 71.761719 C 245.117188 70.871094 245.273438 69.988281 245.503906 69.109375 C 246.121094 66.785156 247.011719 64.289062 248.59375 62.292969 C 249.300781 61.402344 250.390625 60.421875 251.808594 60.882812 C 252.789062 61.207031 253.464844 62.148438 253.925781 62.898438 C 254.078125 63.144531 254.34375 63.519531 254.332031 63.804688 C 254.304688 64.375 253.816406 65.023438 253.5625 65.535156 C 253.382812 65.890625 253.214844 66.257812 253.003906 66.601562 C 252.933594 66.71875 252.839844 66.917969 252.6875 66.980469 C 252.410156 67.097656 252.066406 66.394531 251.988281 66.269531 C 251.574219 65.621094 250.949219 64.601562 249.914062 64.652344 C 248.832031 64.703125 248.351562 65.863281 248.019531 66.5625 C 247.03125 68.648438 246.484375 70.796875 245.925781 72.980469 C 245.910156 72.980469 245.824219 73.300781 245.816406 73.324219 C 245.679688 73.714844 245.539062 74.109375 245.414062 74.507812 C 245.046875 75.667969 244.808594 76.890625 244.273438 78.011719 C 244.191406 78.179688 243.839844 79.023438 243.445312 78.820312 C 243.25 78.722656 243.21875 78.414062 243.1875 78.25 C 243.097656 77.753906 242.992188 77.265625 242.871094 76.777344 C 242.726562 76.207031 242.582031 75.636719 242.449219 75.066406 C 242.246094 74.195312 242.019531 73.324219 241.695312 72.476562 C 241.261719 71.339844 240.210938 68.753906 239.238281 68.226562 Z M 239.238281 68.226562 " fill-opacity="1" fill-rule="evenodd"/><path fill="#000000" d="M 300.984375 98.796875 C 300.910156 98.695312 300.777344 99.050781 300.75 99.128906 C 300.691406 99.285156 300.628906 99.445312 300.570312 99.609375 C 300.382812 100.117188 300.183594 100.617188 299.996094 101.125 C 299.867188 101.453125 300.222656 101.867188 300.320312 102.160156 C 300.613281 103.054688 300.082031 103.648438 299.367188 103.632812 C 299.160156 103.628906 298.96875 103.566406 298.777344 103.488281 C 297.972656 103.152344 297.175781 102.328125 297.25 101.21875 C 297.292969 100.644531 297.503906 100.15625 297.625 99.613281 C 297.664062 99.433594 297.671875 99.148438 297.480469 99.09375 C 296.996094 98.957031 296.566406 100.109375 296.398438 100.46875 C 295.726562 101.917969 295.160156 103.671875 293.84375 104.453125 C 292.621094 105.179688 291.457031 104.195312 290.273438 103.824219 C 288.996094 103.425781 287.722656 103.609375 286.503906 104.179688 C 286.503906 104.304688 286.308594 104.273438 286.210938 104.332031 C 285.90625 104.519531 285.605469 104.726562 285.308594 104.941406 C 284 105.875 282.746094 106.929688 281.53125 108.03125 C 276.261719 112.792969 270.761719 117.109375 265.011719 120.996094 C 263.265625 122.175781 261.53125 123.394531 259.746094 124.492188 C 259.023438 124.9375 258.28125 125.351562 257.5625 125.8125 C 257.480469 125.863281 256.898438 126.195312 257.066406 126.394531 C 257.257812 126.617188 257.796875 126.488281 258.027344 126.464844 C 258.910156 126.359375 259.800781 126.097656 260.660156 125.851562 C 262.777344 125.25 265.027344 124.589844 266.972656 123.386719 C 268.210938 122.621094 269.359375 121.585938 270.480469 120.605469 C 273.902344 117.617188 277.292969 114.589844 280.726562 111.628906 C 282.742188 109.890625 284.933594 107.777344 287.328125 106.824219 C 289.453125 105.980469 291.160156 108.675781 293.289062 107.75 C 294.214844 107.347656 294.890625 106.308594 295.34375 105.300781 C 295.421875 105.132812 295.867188 103.753906 296.027344 103.707031 C 296.054688 103.699219 296.132812 104.308594 296.140625 104.347656 C 296.203125 104.796875 296.273438 105.292969 296.507812 105.664062 C 297.09375 106.589844 298.171875 106.757812 299.066406 106.542969 C 301.855469 105.882812 301.863281 102.640625 301.402344 99.949219 C 301.34375 99.589844 301.09375 98.933594 300.984375 98.796875 Z M 300.984375 98.796875 " fill-opacity="1" fill-rule="evenodd"/><path fill="#000000" d="M 226.105469 61.574219 C 226.121094 61.585938 227.542969 60.839844 227.632812 60.796875 C 229.441406 59.925781 231.277344 59.097656 233.121094 58.273438 C 240.679688 54.90625 248.316406 51.597656 256.042969 48.492188 C 258.21875 47.617188 260.410156 46.757812 262.640625 45.972656 C 262.777344 45.925781 264.539062 45.210938 264.632812 45.386719 C 264.828125 45.75 264.015625 46.933594 263.855469 47.265625 C 263.523438 47.980469 263.308594 49.054688 262.691406 49.652344 C 262.277344 50.054688 261.476562 50.230469 260.910156 50.441406 C 259.53125 50.957031 258.148438 51.460938 256.78125 51.996094 C 252.570312 53.648438 248.488281 55.523438 244.351562 57.304688 C 240.347656 59.027344 236.253906 60.613281 232.285156 62.394531 C 230.308594 63.28125 228.324219 64.167969 226.347656 65.0625 C 226.035156 65.203125 224.714844 66.027344 224.3125 65.859375 C 224.058594 65.75 224.347656 65.203125 224.398438 65.070312 C 224.683594 64.335938 225.773438 62.296875 226.105469 61.574219 Z M 226.105469 61.574219 " fill-opacity="1" fill-rule="evenodd"/><path fill="#000000" d="M 267.121094 50.960938 C 267.570312 50.496094 267.898438 49.664062 268.253906 49.121094 C 269.285156 47.53125 270.3125 45.933594 271.375 44.363281 C 271.96875 43.480469 272.523438 42.429688 273.375 41.75 C 274.585938 40.78125 276.394531 40.914062 277.859375 41.007812 C 281.230469 41.230469 285.121094 42.289062 288.324219 42.820312 C 288.378906 42.777344 288.667969 42.910156 288.726562 42.933594 C 289.101562 43.058594 289.46875 43.195312 289.835938 43.335938 C 291.070312 43.8125 293.496094 44.480469 293.0625 46.1875 C 292.785156 47.273438 292.042969 48.242188 291.367188 49.121094 C 290.320312 50.492188 289.191406 51.816406 288.011719 53.085938 C 286.453125 54.761719 284.804688 56.347656 283.09375 57.878906 C 281.964844 58.890625 280.796875 60.007812 279.335938 60.554688 C 276.894531 61.472656 274.007812 61.367188 271.429688 61.523438 C 270.210938 61.597656 268.992188 61.652344 267.769531 61.699219 C 267.125 61.726562 266.320312 61.8125 265.691406 61.628906 C 265.074219 61.445312 266.546875 60.621094 266.652344 60.5625 C 267.980469 59.828125 269.417969 59.261719 270.847656 58.75 C 274.148438 57.570312 277.53125 56.46875 280.667969 54.90625 C 281.414062 54.535156 282.164062 54.160156 282.894531 53.753906 C 283.082031 53.652344 283.507812 53.484375 283.578125 53.257812 C 283.664062 52.984375 283.039062 52.710938 282.863281 52.628906 C 282 52.238281 281 52.046875 280.078125 51.824219 C 276.253906 50.910156 271.03125 50.386719 267.121094 50.960938 Z M 267.121094 50.960938 " fill-opacity="1" fill-rule="evenodd"/><path fill="#000000" d="M 93.585938 63.808594 C 94.035156 63.347656 94.367188 62.515625 94.71875 61.96875 C 95.753906 60.378906 96.78125 58.785156 97.839844 57.210938 C 98.4375 56.328125 98.988281 55.28125 99.84375 54.597656 C 101.050781 53.632812 102.863281 53.761719 104.324219 53.859375 C 107.695312 54.082031 111.585938 55.140625 114.789062 55.667969 C 114.84375 55.625 115.132812 55.761719 115.195312 55.78125 C 115.566406 55.90625 115.9375 56.046875 116.304688 56.1875 C 117.539062 56.664062 119.960938 57.332031 119.527344 59.039062 C 119.253906 60.121094 118.507812 61.09375 117.835938 61.972656 C 116.785156 63.339844 115.65625 64.667969 114.480469 65.9375 C 112.917969 67.613281 111.273438 69.195312 109.5625 70.726562 C 108.429688 71.738281 107.261719 72.859375 105.804688 73.40625 C 103.363281 74.324219 100.472656 74.21875 97.898438 74.375 C 96.675781 74.445312 95.457031 74.503906 94.234375 74.550781 C 93.59375 74.574219 92.785156 74.664062 92.160156 74.476562 C 91.539062 74.292969 93.011719 73.472656 93.117188 73.414062 C 94.445312 72.679688 95.882812 72.113281 97.3125 71.601562 C 100.617188 70.421875 103.996094 69.320312 107.132812 67.757812 C 107.882812 67.386719 108.628906 67.011719 109.359375 66.605469 C 109.546875 66.5 109.976562 66.335938 110.042969 66.109375 C 110.128906 65.832031 109.507812 65.558594 109.328125 65.480469 C 108.464844 65.085938 107.464844 64.894531 106.546875 64.675781 C 102.71875 63.757812 97.5 63.238281 93.585938 63.808594 Z M 93.585938 63.808594 " fill-opacity="1" fill-rule="evenodd"/><path fill="#000000" d="M 199.410156 38.394531 L 203.984375 32.195312 L 211.375 37.71875 L 206.5 43.5625 C 206.5 43.5625 199.699219 38.105469 199.410156 38.394531 Z M 199.410156 38.394531 " fill-opacity="1" fill-rule="evenodd"/><path fill="#000000" d="M 210.199219 37.03125 L 214.773438 30.832031 L 222.167969 36.355469 L 217.289062 42.199219 C 217.289062 42.199219 210.492188 36.742188 210.199219 37.03125 Z M 210.199219 37.03125 " fill-opacity="1" fill-rule="evenodd"/><path fill="#000000" d="M 153.597656 70.390625 L 158.171875 64.191406 L 165.5625 69.714844 L 160.6875 75.558594 C 160.6875 75.558594 153.886719 70.105469 153.597656 70.390625 Z M 153.597656 70.390625 " fill-opacity="1" fill-rule="evenodd"/><path fill="#000000" d="M 207.3125 98.816406 C 207.050781 98.644531 206.8125 99.003906 206.769531 99.054688 C 206.492188 99.375 206.296875 99.75 206.105469 100.117188 C 205.503906 101.285156 204.960938 102.472656 204.351562 103.636719 C 202.792969 106.609375 200.816406 110.1875 201.011719 113.578125 C 201.09375 115.050781 201.632812 116.925781 203.503906 117.230469 C 205.820312 117.605469 207.164062 114.492188 207.765625 113.007812 C 207.972656 112.5 208.464844 111.492188 208.140625 110.941406 C 207.863281 110.472656 207.164062 111.457031 207.058594 111.605469 C 206.402344 112.523438 205.363281 114.324219 204.152344 112.847656 C 203.175781 111.660156 203.324219 110.03125 203.628906 108.65625 C 204.074219 106.628906 205.148438 104.777344 206.097656 102.917969 C 206.695312 101.75 208.207031 99.40625 207.3125 98.816406 Z M 207.3125 98.816406 " fill-opacity="1" fill-rule="evenodd"/><path fill="#000000" d="M 166.496094 120.054688 C 166.757812 120.226562 167 119.867188 167.042969 119.816406 C 167.320312 119.496094 167.515625 119.121094 167.703125 118.753906 C 168.308594 117.585938 168.851562 116.398438 169.460938 115.234375 C 171.019531 112.261719 172.996094 108.683594 172.800781 105.292969 C 172.714844 103.820312 172.179688 101.945312 170.308594 101.640625 C 167.988281 101.265625 166.644531 104.378906 166.042969 105.863281 C 165.839844 106.371094 165.347656 107.382812 165.671875 107.929688 C 165.949219 108.398438 166.648438 107.414062 166.753906 107.265625 C 167.410156 106.347656 168.449219 104.546875 169.660156 106.023438 C 170.636719 107.210938 170.488281 108.839844 170.183594 110.214844 C 169.734375 112.242188 168.664062 114.09375 167.710938 115.953125 C 167.113281 117.121094 165.605469 119.464844 166.496094 120.054688 Z M 166.496094 120.054688 " fill-opacity="1" fill-rule="evenodd"/><path fill="#000000" d="M 279.351562 73.515625 C 279.21875 73.460938 279.734375 73.113281 279.777344 73.09375 C 279.984375 72.984375 280.183594 72.867188 280.378906 72.746094 C 280.957031 72.382812 281.535156 72.019531 282.101562 71.644531 C 283.878906 70.460938 285.640625 69.265625 287.402344 68.074219 C 291.375 65.386719 302.449219 56.839844 302.710938 56.332031 C 302.519531 56.1875 302.203125 56.085938 301.988281 55.953125 C 300.871094 55.261719 299.1875 54.242188 299.3125 52.863281 C 299.476562 50.988281 301.210938 48.882812 303.160156 48.234375 C 304.03125 47.945312 305.175781 47.8125 305.925781 48.414062 C 306.402344 48.796875 306.535156 49.414062 306.585938 49.960938 C 306.703125 51.171875 306.355469 52.324219 305.84375 53.4375 C 305.699219 53.757812 305.523438 54.066406 305.335938 54.367188 C 305.28125 54.457031 305.105469 54.640625 305.105469 54.75 C 305.109375 54.886719 305.546875 55.121094 305.652344 55.203125 C 306.042969 55.515625 306.589844 55.960938 306.742188 56.429688 C 306.941406 57.03125 306.269531 57.894531 305.949219 58.375 C 305.871094 58.5 305.640625 58.9375 305.429688 58.902344 C 305.183594 58.859375 304.96875 58.558594 304.808594 58.410156 C 304.386719 58.011719 303.921875 57.660156 303.5 57.261719 C 303.4375 57.203125 303.378906 57.386719 303.320312 57.449219 C 303.195312 57.578125 303.070312 57.707031 302.949219 57.835938 C 302.597656 58.214844 302.234375 58.582031 301.867188 58.949219 C 300.78125 60.046875 299.675781 61.132812 298.535156 62.191406 C 294.40625 66.019531 289.484375 69.3125 284.238281 71.789062 C 283.039062 72.351562 281.855469 73 280.585938 73.425781 C 280.363281 73.5 279.488281 73.570312 279.351562 73.515625 Z M 304.175781 53.957031 C 304.175781 53.949219 304.222656 53.773438 304.226562 53.761719 C 304.265625 53.644531 304.304688 53.527344 304.332031 53.402344 C 304.414062 53.039062 304.472656 52.667969 304.445312 52.296875 C 304.433594 52.089844 304.414062 51.878906 304.378906 51.671875 C 304.25 50.886719 303.566406 49.78125 302.523438 50.007812 C 302.28125 50.058594 302.0625 50.175781 301.863281 50.308594 C 301.722656 50.40625 301.59375 50.523438 301.476562 50.644531 C 301.324219 50.800781 301.144531 51 301.132812 51.21875 C 301.121094 51.378906 301.246094 51.511719 301.351562 51.628906 C 301.578125 51.871094 301.835938 52.082031 302.074219 52.308594 C 302.585938 52.792969 303.613281 53.515625 304.175781 53.957031 Z M 304.175781 53.957031 " fill-opacity="1" fill-rule="evenodd"/><path fill="#000000" d="M 132.152344 51.375 C 132.015625 51.320312 132.535156 50.972656 132.578125 50.953125 C 132.78125 50.84375 132.984375 50.726562 133.175781 50.605469 C 133.753906 50.242188 134.335938 49.878906 134.902344 49.5 C 136.675781 48.320312 138.4375 47.125 140.203125 45.929688 C 144.171875 43.246094 155.25 34.699219 155.511719 34.191406 C 155.320312 34.046875 155 33.945312 154.789062 33.8125 C 153.671875 33.121094 151.988281 32.101562 152.109375 30.722656 C 152.277344 28.847656 154.011719 26.742188 155.960938 26.09375 C 156.828125 25.804688 157.972656 25.671875 158.722656 26.273438 C 159.199219 26.65625 159.332031 27.273438 159.386719 27.820312 C 159.503906 29.03125 159.152344 30.183594 158.644531 31.296875 C 158.496094 31.617188 158.324219 31.925781 158.136719 32.226562 C 158.082031 32.316406 157.902344 32.5 157.90625 32.605469 C 157.910156 32.746094 158.347656 32.980469 158.449219 33.0625 C 158.839844 33.371094 159.390625 33.820312 159.542969 34.289062 C 159.738281 34.890625 159.070312 35.753906 158.75 36.234375 C 158.667969 36.359375 158.441406 36.796875 158.226562 36.761719 C 157.980469 36.71875 157.765625 36.417969 157.605469 36.269531 C 157.1875 35.871094 156.71875 35.519531 156.300781 35.121094 C 156.238281 35.0625 156.179688 35.246094 156.121094 35.308594 C 155.996094 35.4375 155.871094 35.5625 155.746094 35.695312 C 155.394531 36.074219 155.03125 36.441406 154.667969 36.808594 C 153.578125 37.90625 152.472656 38.992188 151.335938 40.046875 C 147.207031 43.878906 142.285156 47.171875 137.039062 49.648438 C 135.839844 50.210938 134.65625 50.859375 133.386719 51.285156 C 133.164062 51.359375 132.285156 51.429688 132.152344 51.375 Z M 156.976562 31.8125 C 156.972656 31.808594 157.023438 31.632812 157.023438 31.621094 C 157.0625 31.503906 157.101562 31.386719 157.128906 31.261719 C 157.214844 30.898438 157.269531 30.527344 157.246094 30.15625 C 157.230469 29.949219 157.214844 29.738281 157.179688 29.53125 C 157.050781 28.746094 156.367188 27.640625 155.320312 27.867188 C 155.078125 27.917969 154.859375 28.03125 154.664062 28.167969 C 154.519531 28.265625 154.394531 28.382812 154.273438 28.503906 C 154.125 28.660156 153.945312 28.859375 153.929688 29.078125 C 153.921875 29.238281 154.046875 29.371094 154.152344 29.488281 C 154.375 29.730469 154.632812 29.941406 154.875 30.167969 C 155.386719 30.652344 156.414062 31.375 156.976562 31.8125 Z M 156.976562 31.8125 " fill-opacity="1" fill-rule="evenodd"/><path fill="#000000" d="M 163.507812 84.378906 C 163.609375 84.304688 163.660156 84.230469 163.570312 84.160156 C 163.550781 84.230469 163.527344 84.304688 163.507812 84.378906 C 163.355469 84.492188 163.074219 84.609375 162.953125 84.722656 C 162.507812 85.125 162.089844 85.554688 161.671875 85.984375 C 159.734375 87.960938 157.878906 90.179688 155.144531 91.035156 C 155.121094 91.042969 155.101562 91.050781 155.078125 91.058594 C 154.578125 91.222656 153.703125 91.652344 153.199219 91.8125 C 153.234375 91.800781 153.019531 91.109375 153.003906 91.070312 C 152.742188 90.332031 152.382812 89.65625 151.9375 89.011719 C 150.742188 87.292969 148.628906 86.011719 146.453125 86.433594 C 144.921875 86.730469 143.996094 87.910156 143.242188 89.179688 C 141.917969 91.410156 140.972656 93.855469 140.808594 96.464844 C 140.769531 97.054688 140.78125 97.65625 140.894531 98.234375 C 141.265625 100.09375 142.820312 100.71875 144.566406 100.800781 C 147.386719 100.929688 150.546875 99.722656 152.898438 98.203125 C 153.003906 98.132812 153.390625 99.105469 153.425781 99.199219 C 153.820312 100.261719 153.953125 101.296875 154.066406 102.40625 C 154.347656 102.554688 153.609375 102.847656 153.390625 103.074219 C 152.953125 103.523438 152.519531 103.972656 152.078125 104.414062 C 150.695312 105.8125 149.222656 107.128906 147.703125 108.382812 C 143.503906 111.84375 138.171875 116.378906 132.410156 116.453125 C 127.101562 116.523438 123.035156 112.261719 121.800781 107.296875 C 121.425781 105.789062 121.339844 104.246094 121.527344 102.707031 C 121.550781 102.535156 121.867188 101.425781 121.675781 101.324219 C 121.414062 101.191406 120.988281 101.8125 120.882812 101.949219 C 120.246094 102.785156 119.78125 103.738281 119.46875 104.738281 C 118.308594 108.421875 119.308594 112.382812 121.03125 115.726562 C 121.660156 116.945312 122.472656 118.171875 123.4375 119.152344 C 128.722656 124.539062 137.703125 120.410156 142.890625 117.214844 C 144.066406 116.488281 145.226562 115.726562 146.347656 114.921875 C 147.691406 113.949219 149.027344 112.949219 150.285156 111.867188 C 152.070312 110.324219 153.800781 108.589844 155.050781 106.570312 C 156.429688 104.339844 156.183594 101.6875 155.679688 99.230469 C 155.566406 98.660156 154.820312 96.59375 155.417969 96.214844 C 156.71875 95.382812 158.253906 94.972656 159.550781 94.128906 C 160.363281 93.601562 160.84375 92.746094 161.535156 92.199219 C 161.632812 92.121094 161.527344 92.445312 161.523438 92.566406 C 161.519531 92.804688 161.535156 93.046875 161.550781 93.28125 C 161.589844 93.925781 161.699219 94.566406 161.84375 95.191406 C 162.332031 97.289062 163.46875 98.820312 165.558594 99.511719 C 168.414062 100.457031 173.753906 98.242188 176.597656 94.605469 C 178.640625 91.992188 178.734375 87.855469 178.792969 87.304688 C 179.203125 83.234375 178.347656 79.1875 177.785156 75.140625 C 176.53125 66.164062 174.425781 56.0625 172.8125 47.144531 C 172.242188 43.984375 172.222656 41.652344 171.878906 38.472656 C 171.832031 38.441406 171.816406 38.414062 171.871094 38.40625 L 171.878906 38.472656 C 171.972656 38.535156 172.191406 38.625 172.273438 38.695312 C 172.550781 38.945312 172.808594 39.214844 173.089844 39.460938 C 173.847656 40.140625 174.628906 40.808594 175.441406 41.425781 C 175.636719 41.578125 176.136719 41.972656 176.238281 41.523438 C 176.507812 40.359375 175.730469 38.898438 175.265625 37.902344 C 174.066406 35.320312 172.757812 32.703125 171.199219 30.316406 C 170.835938 29.757812 169.742188 27.421875 168.984375 27.300781 C 168.367188 27.199219 167.480469 28.683594 167.1875 29.082031 C 166.773438 29.652344 165.660156 30.742188 165.601562 31.46875 C 165.515625 32.535156 167.074219 34.125 167.074219 34.125 C 167.074219 34.125 168.925781 45.851562 169.832031 52.445312 C 170.742188 59.09375 171.816406 66.503906 172.8125 72.820312 C 173.621094 77.9375 175.890625 84.597656 173.824219 89.722656 C 172.824219 92.207031 169.339844 94.289062 166.902344 92.914062 C 164.230469 91.410156 162.707031 87.351562 163.507812 84.378906 Z M 149.964844 94.617188 C 149.84375 94.683594 149.328125 94.972656 149.164062 95.0625 C 149.066406 95.117188 148.863281 95.242188 148.765625 95.296875 C 148.445312 95.472656 148.144531 95.585938 147.796875 95.710938 C 146.820312 96.066406 145.230469 96.390625 145.105469 94.9375 C 145.070312 94.507812 145.148438 94.070312 145.269531 93.660156 C 145.375 93.304688 145.523438 92.964844 145.707031 92.644531 C 146.835938 90.644531 149.171875 93.332031 149.964844 94.617188 Z M 149.964844 94.617188 C 150 94.597656 150.003906 94.597656 149.96875 94.617188 Z M 149.964844 94.617188 " fill-opacity="1" fill-rule="evenodd"/></svg>