<svg xmlns="http://www.w3.org/2000/svg" xmlns:xlink="http://www.w3.org/1999/xlink" width="500" zoomAndPan="magnify" viewBox="0 0 375 149.999998" height="200" preserveAspectRatio="xMidYMid meet" version="1.0"><defs><clipPath id="b17531d164"><path d="M 187 20.390625 L 200 20.390625 L 200 97 L 187 97 Z M 187 20.390625 " clip-rule="nonzero"/></clipPath><clipPath id="eda3b6c070"><path d="M 191 77 L 243 77 L 243 129.890625 L 191 129.890625 Z M 191 77 " clip-rule="nonzero"/></clipPath></defs><path fill="#000000" d="M 306.457031 28.949219 C 307.179688 28.683594 308.664062 29.152344 309.367188 29.292969 C 312.402344 29.894531 315.332031 30.976562 318.136719 32.238281 C 328.574219 36.933594 336.140625 45.738281 340.820312 55.796875 C 341.992188 58.304688 342.957031 60.953125 343.554688 63.648438 C 343.71875 64.375 344.199219 65.699219 343.867188 66.449219 C 343.566406 67.09375 342.808594 67.597656 342.292969 68.066406 C 341.1875 69.0625 340.164062 69.941406 338.898438 70.691406 C 337.265625 69.226562 334.980469 68.183594 333.128906 66.960938 C 332.566406 62.601562 330.644531 58.25 328.667969 54.359375 C 325.300781 47.75 320.839844 41.691406 315.425781 36.53125 C 312.964844 34.199219 309.480469 30.5625 306.457031 28.949219 Z M 306.457031 28.949219 " fill-opacity="1" fill-rule="evenodd"/><path fill="#000000" d="M 306.457031 121.527344 C 307.179688 121.792969 308.664062 121.320312 309.367188 121.183594 C 312.402344 120.582031 315.332031 119.496094 318.136719 118.234375 C 328.574219 113.542969 336.140625 104.734375 340.820312 94.679688 C 341.992188 92.167969 342.957031 89.523438 343.554688 86.828125 C 343.71875 86.101562 344.199219 84.773438 343.867188 84.023438 C 343.566406 83.378906 342.808594 82.875 342.292969 82.410156 C 341.1875 81.414062 340.164062 80.535156 338.898438 79.785156 C 337.265625 81.25 334.980469 82.292969 333.128906 83.515625 C 332.566406 87.875 330.644531 92.226562 328.667969 96.117188 C 325.300781 102.722656 320.839844 108.785156 315.425781 113.945312 C 312.964844 116.277344 309.480469 119.914062 306.457031 121.527344 Z M 306.457031 121.527344 " fill-opacity="1" fill-rule="evenodd"/><path fill="#000000" d="M 352.15625 69.441406 C 351.867188 69.589844 351.601562 69.726562 351.535156 69.773438 C 349.878906 71.035156 348.246094 72.214844 346.394531 73.210938 C 345.761719 73.554688 345.109375 73.839844 344.464844 74.15625 C 344.359375 74.207031 344.074219 74.339844 343.921875 74.488281 C 343.71875 74.6875 343.660156 74.925781 343.71875 75.15625 C 343.773438 75.390625 343.945312 75.585938 344.246094 75.675781 C 344.476562 75.746094 344.84375 75.730469 344.957031 75.734375 C 345.140625 75.734375 345.707031 75.945312 346.441406 76.226562 C 348.382812 76.96875 351.429688 78.316406 352.832031 79.082031 C 352.996094 79.171875 353.476562 79.492188 353.890625 79.773438 C 353.636719 79.933594 353.375 80.085938 353.234375 80.140625 C 351.84375 80.660156 350.199219 81.191406 349.304688 82.429688 C 348.96875 82.890625 348.867188 83.429688 348.867188 83.992188 C 348.878906 84.664062 349.074219 85.378906 349.097656 85.988281 C 349.15625 87.628906 348.855469 89.058594 347.867188 90.417969 C 347.097656 91.492188 346.140625 92.503906 344.957031 93.148438 C 344.761719 93.257812 343.109375 94.042969 343.109375 94.042969 C 342.878906 94.152344 342.75 94.402344 342.796875 94.652344 C 342.84375 94.898438 343.0625 95.082031 343.3125 95.101562 C 343.3125 95.101562 345.855469 95.273438 346.613281 95.179688 C 350.523438 94.6875 352.902344 92.261719 354.617188 89.011719 C 354.867188 88.539062 355.050781 87.945312 355.246094 87.367188 C 355.421875 86.882812 355.59375 86.410156 355.878906 86.078125 C 356.15625 85.761719 356.558594 85.546875 356.972656 85.339844 C 357.488281 85.085938 358.019531 84.847656 358.433594 84.542969 C 359.707031 83.613281 360.605469 82.4375 361.433594 81.125 C 361.753906 80.609375 362.054688 80.085938 362.339844 79.554688 C 362.492188 79.304688 363.363281 77.726562 363.363281 77.726562 C 363.511719 77.457031 363.410156 77.117188 363.132812 76.972656 C 363.132812 76.972656 362.25 76.503906 362.089844 76.421875 C 361.511719 76.148438 359.925781 75.449219 358.742188 74.933594 C 358.730469 74.933594 363.296875 73.566406 363.296875 73.566406 C 363.582031 73.480469 363.753906 73.1875 363.6875 72.902344 C 363.6875 72.902344 363.214844 70.960938 362.25 69.128906 C 361.570312 67.835938 360.640625 66.609375 359.488281 66.058594 C 359.066406 65.855469 358.488281 65.703125 357.949219 65.53125 C 357.511719 65.398438 357.097656 65.261719 356.84375 65.035156 C 356.753906 64.953125 356.742188 64.808594 356.71875 64.667969 C 356.660156 64.390625 356.628906 64.101562 356.570312 63.886719 C 356.28125 62.859375 355.832031 61.828125 355.269531 60.917969 C 352.925781 57.210938 347.039062 54.464844 342.832031 54.699219 C 342.554688 54.714844 342.324219 54.917969 342.292969 55.183594 C 342.257812 55.449219 342.417969 55.703125 342.683594 55.785156 C 344.039062 56.230469 345.164062 57.507812 346.132812 59.023438 C 347.671875 61.457031 348.742188 64.53125 349.441406 66.296875 C 349.925781 67.515625 350.394531 68.289062 351.523438 69.050781 C 351.730469 69.1875 351.9375 69.320312 352.15625 69.441406 Z M 345.578125 94.09375 C 346.890625 93.363281 347.957031 92.25 348.808594 91.058594 C 349.949219 89.488281 350.316406 87.84375 350.246094 85.949219 C 350.222656 85.4375 350.085938 84.847656 350.039062 84.273438 C 349.992188 83.84375 349.992188 83.417969 350.246094 83.074219 C 351.015625 82.011719 352.464844 81.628906 353.648438 81.183594 C 354.039062 81.035156 355.226562 80.242188 355.226562 80.242188 C 355.386719 80.136719 355.464844 79.96875 355.464844 79.785156 C 355.476562 79.605469 355.386719 79.433594 355.234375 79.328125 C 355.234375 79.328125 353.71875 78.28125 353.398438 78.109375 C 351.753906 77.210938 347.925781 75.539062 346.085938 74.902344 C 345.957031 74.859375 345.855469 74.820312 345.738281 74.789062 C 346.152344 74.597656 346.554688 74.402344 346.957031 74.191406 C 348.867188 73.164062 350.535156 71.953125 352.246094 70.65625 C 352.386719 70.546875 353.476562 70.074219 353.730469 69.910156 C 353.902344 69.792969 353.960938 69.660156 353.984375 69.597656 C 354.039062 69.449219 354.074219 69.191406 353.800781 68.964844 C 353.707031 68.890625 353.191406 68.683594 353.132812 68.664062 C 352.800781 68.523438 352.476562 68.335938 352.179688 68.132812 C 351.269531 67.519531 350.902344 66.882812 350.511719 65.898438 C 349.796875 64.082031 348.695312 60.933594 347.109375 58.4375 C 346.511719 57.480469 345.820312 56.621094 345.074219 55.949219 C 348.566406 56.523438 352.523438 58.710938 354.292969 61.503906 C 354.800781 62.324219 355.203125 63.253906 355.453125 64.183594 C 355.523438 64.425781 355.546875 64.769531 355.628906 65.070312 C 355.707031 65.386719 355.855469 65.664062 356.0625 65.851562 C 356.351562 66.117188 356.789062 66.324219 357.269531 66.492188 C 357.847656 66.691406 358.511719 66.839844 358.984375 67.0625 C 359.925781 67.519531 360.664062 68.566406 361.226562 69.636719 C 361.835938 70.792969 362.226562 72 362.421875 72.65625 C 362.421875 72.65625 356.925781 74.304688 356.925781 74.304688 C 356.707031 74.371094 356.546875 74.570312 356.523438 74.804688 C 356.511719 75.039062 356.648438 75.253906 356.867188 75.347656 C 356.867188 75.347656 360.640625 76.96875 361.570312 77.421875 C 361.640625 77.457031 361.859375 77.574219 362.078125 77.6875 C 361.8125 78.167969 361.433594 78.859375 361.339844 79.019531 C 361.054688 79.53125 360.765625 80.042969 360.445312 80.542969 C 359.695312 81.730469 358.902344 82.804688 357.742188 83.648438 C 357.375 83.917969 356.902344 84.121094 356.441406 84.347656 C 355.890625 84.625 355.375 84.933594 355.007812 85.355469 C 354.625 85.789062 354.375 86.386719 354.167969 87.007812 C 353.984375 87.53125 353.820312 88.074219 353.605469 88.5 C 352.0625 91.410156 349.972656 93.628906 346.476562 94.070312 C 346.269531 94.09375 345.945312 94.097656 345.578125 94.09375 Z M 345.578125 94.09375 " fill-opacity="1" fill-rule="evenodd"/><path fill="#000000" d="M 339.246094 79.976562 C 339.382812 79.875 340.210938 79.285156 340.300781 79.210938 C 341.578125 78.207031 344.015625 75.875 345.175781 74.75 C 345.292969 74.648438 345.347656 74.511719 345.347656 74.367188 C 345.347656 74.242188 345.316406 74.078125 345.175781 73.921875 C 345.074219 73.8125 344.820312 73.65625 344.761719 73.613281 C 344.359375 73.324219 343.96875 73.039062 343.566406 72.753906 C 342.039062 71.652344 340.53125 70.425781 338.875 69.484375 C 338.636719 69.339844 338.3125 69.402344 338.140625 69.621094 C 337.679688 70.191406 336.484375 70.753906 335.851562 71.179688 C 334.117188 72.34375 332.3125 73.414062 330.554688 74.539062 C 330.300781 74.601562 330.195312 74.835938 330.1875 74.882812 C 330.140625 75 330.070312 75.253906 330.324219 75.492188 C 330.359375 75.519531 330.589844 75.644531 330.667969 75.699219 C 330.839844 75.808594 331.011719 75.921875 331.1875 76.035156 C 331.785156 76.433594 332.40625 76.800781 333.023438 77.164062 C 334.820312 78.214844 336.601562 79.308594 338.472656 80.210938 C 338.660156 80.300781 338.875 80.285156 339.050781 80.175781 C 339.128906 80.125 339.199219 80.054688 339.246094 79.976562 Z M 343.914062 74.394531 C 342.671875 75.589844 340.683594 77.472656 339.578125 78.34375 C 339.484375 78.410156 338.945312 78.757812 338.613281 79.027344 C 336.898438 78.171875 335.265625 77.171875 333.613281 76.207031 C 333.015625 75.851562 332.414062 75.496094 331.828125 75.113281 L 331.796875 75.085938 C 333.371094 74.09375 334.957031 73.132812 336.507812 72.097656 C 337.082031 71.714844 338.0625 71.195312 338.679688 70.671875 C 340.152344 71.558594 341.496094 72.660156 342.890625 73.65625 C 343.234375 73.902344 343.578125 74.148438 343.914062 74.394531 Z M 330.632812 75.636719 Z M 330.632812 75.636719 " fill-opacity="1" fill-rule="evenodd"/><path fill="#000000" d="M 363.25 72.972656 L 374.964844 75.484375 L 363.25 77.390625 L 358.339844 74.949219 Z M 363.25 72.972656 " fill-opacity="1" fill-rule="evenodd"/><path fill="#000000" d="M 68.605469 24.1875 C 67.882812 23.921875 66.398438 24.394531 65.695312 24.53125 C 62.660156 25.132812 59.730469 26.214844 56.925781 27.476562 C 46.488281 32.171875 38.921875 40.976562 34.242188 51.035156 C 33.070312 53.546875 32.105469 56.191406 31.507812 58.886719 C 31.347656 59.613281 30.863281 60.9375 31.195312 61.6875 C 31.496094 62.335938 32.253906 62.839844 32.769531 63.304688 C 33.875 64.300781 34.898438 65.179688 36.164062 65.929688 C 37.796875 64.464844 40.082031 63.421875 41.933594 62.199219 C 42.496094 57.839844 44.417969 53.488281 46.394531 49.597656 C 49.761719 42.988281 54.222656 36.929688 59.636719 31.769531 C 62.097656 29.4375 65.582031 25.800781 68.605469 24.1875 Z M 68.605469 24.1875 " fill-opacity="1" fill-rule="evenodd"/><path fill="#000000" d="M 68.605469 116.765625 C 67.882812 117.03125 66.398438 116.558594 65.695312 116.421875 C 62.660156 115.820312 59.730469 114.738281 56.925781 113.476562 C 46.488281 108.78125 38.921875 99.976562 34.242188 89.917969 C 33.070312 87.40625 32.105469 84.761719 31.507812 82.066406 C 31.347656 81.339844 30.863281 80.015625 31.195312 79.265625 C 31.496094 78.617188 32.253906 78.113281 32.769531 77.648438 C 33.875 76.652344 34.898438 75.773438 36.164062 75.023438 C 37.796875 76.488281 40.082031 77.53125 41.933594 78.753906 C 42.496094 83.113281 44.417969 87.464844 46.394531 91.355469 C 49.761719 97.960938 54.222656 104.023438 59.636719 109.183594 C 62.097656 111.515625 65.582031 115.152344 68.605469 116.765625 Z M 68.605469 116.765625 " fill-opacity="1" fill-rule="evenodd"/><path fill="#000000" d="M 22.90625 64.679688 C 23.195312 64.828125 23.460938 64.96875 23.527344 65.011719 C 25.183594 66.273438 26.816406 67.453125 28.667969 68.453125 C 29.300781 68.792969 29.953125 69.078125 30.597656 69.394531 C 30.703125 69.445312 30.988281 69.578125 31.140625 69.726562 C 31.347656 69.925781 31.402344 70.164062 31.347656 70.394531 C 31.289062 70.628906 31.117188 70.824219 30.816406 70.917969 C 30.585938 70.984375 30.21875 70.96875 30.105469 70.972656 C 29.921875 70.972656 29.355469 71.183594 28.621094 71.464844 C 26.679688 72.207031 23.632812 73.554688 22.230469 74.324219 C 22.066406 74.410156 21.585938 74.730469 21.171875 75.011719 C 21.425781 75.171875 21.6875 75.324219 21.828125 75.378906 C 23.21875 75.898438 24.863281 76.429688 25.757812 77.667969 C 26.09375 78.128906 26.195312 78.667969 26.195312 79.230469 C 26.183594 79.902344 25.988281 80.621094 25.964844 81.230469 C 25.90625 82.867188 26.207031 84.296875 27.195312 85.65625 C 27.964844 86.730469 28.921875 87.742188 30.105469 88.390625 C 30.300781 88.496094 31.957031 89.28125 31.957031 89.28125 C 32.183594 89.390625 32.3125 89.640625 32.265625 89.890625 C 32.21875 90.136719 32 90.320312 31.75 90.339844 C 31.75 90.339844 29.207031 90.515625 28.449219 90.417969 C 24.539062 89.925781 22.160156 87.5 20.449219 84.25 C 20.195312 83.777344 20.011719 83.183594 19.816406 82.605469 C 19.640625 82.125 19.46875 81.648438 19.183594 81.316406 C 18.90625 81 18.503906 80.785156 18.089844 80.582031 C 17.574219 80.324219 17.042969 80.085938 16.628906 79.78125 C 15.355469 78.851562 14.457031 77.675781 13.628906 76.363281 C 13.308594 75.847656 13.007812 75.324219 12.722656 74.796875 C 12.574219 74.542969 11.699219 72.964844 11.699219 72.964844 C 11.550781 72.695312 11.652344 72.355469 11.929688 72.210938 C 11.929688 72.210938 12.8125 71.742188 12.976562 71.660156 C 13.550781 71.386719 15.136719 70.6875 16.320312 70.171875 C 16.332031 70.171875 11.765625 68.804688 11.765625 68.804688 C 11.480469 68.71875 11.308594 68.429688 11.375 68.140625 C 11.375 68.140625 11.847656 66.199219 12.8125 64.367188 C 13.492188 63.074219 14.421875 61.847656 15.574219 61.300781 C 16 61.09375 16.574219 60.941406 17.113281 60.769531 C 17.550781 60.636719 17.964844 60.503906 18.21875 60.273438 C 18.308594 60.195312 18.320312 60.046875 18.34375 59.90625 C 18.402344 59.628906 18.433594 59.339844 18.492188 59.125 C 18.78125 58.097656 19.230469 57.066406 19.792969 56.15625 C 22.136719 52.449219 28.023438 49.707031 32.230469 49.9375 C 32.507812 49.953125 32.738281 50.15625 32.769531 50.421875 C 32.804688 50.6875 32.644531 50.941406 32.378906 51.027344 C 31.023438 51.46875 29.898438 52.746094 28.929688 54.261719 C 27.390625 56.695312 26.320312 59.769531 25.621094 61.539062 C 25.136719 62.753906 24.667969 63.527344 23.539062 64.289062 C 23.332031 64.429688 23.125 64.558594 22.90625 64.679688 Z M 29.484375 89.332031 C 28.171875 88.605469 27.105469 87.488281 26.253906 86.296875 C 25.113281 84.726562 24.746094 83.082031 24.816406 81.1875 C 24.839844 80.675781 24.976562 80.085938 25.023438 79.515625 C 25.070312 79.082031 25.070312 78.65625 24.816406 78.3125 C 24.046875 77.25 22.597656 76.867188 21.414062 76.421875 C 21.023438 76.273438 19.839844 75.480469 19.839844 75.480469 C 19.675781 75.375 19.597656 75.207031 19.597656 75.023438 C 19.585938 74.84375 19.675781 74.671875 19.828125 74.566406 C 19.828125 74.566406 21.34375 73.519531 21.667969 73.347656 C 23.308594 72.449219 27.136719 70.777344 28.976562 70.140625 C 29.105469 70.097656 29.207031 70.058594 29.324219 70.027344 C 28.910156 69.835938 28.507812 69.644531 28.105469 69.429688 C 26.195312 68.402344 24.527344 67.191406 22.816406 65.894531 C 22.675781 65.785156 21.585938 65.3125 21.332031 65.148438 C 21.160156 65.03125 21.101562 64.898438 21.078125 64.835938 C 21.023438 64.691406 20.988281 64.429688 21.261719 64.203125 C 21.355469 64.128906 21.871094 63.925781 21.929688 63.902344 C 22.265625 63.761719 22.585938 63.574219 22.882812 63.371094 C 23.792969 62.757812 24.160156 62.121094 24.550781 61.136719 C 25.265625 59.324219 26.367188 56.171875 27.953125 53.675781 C 28.550781 52.71875 29.242188 51.859375 29.988281 51.191406 L 29.988281 51.1875 C 26.496094 51.761719 22.539062 53.949219 20.769531 56.742188 C 20.261719 57.5625 19.859375 58.496094 19.609375 59.421875 C 19.539062 59.664062 19.515625 60.007812 19.4375 60.3125 C 19.355469 60.625 19.207031 60.902344 19 61.09375 C 18.710938 61.355469 18.273438 61.5625 17.792969 61.730469 C 17.21875 61.929688 16.550781 62.078125 16.078125 62.300781 C 15.136719 62.757812 14.398438 63.804688 13.835938 64.875 C 13.226562 66.03125 12.835938 67.238281 12.640625 67.894531 C 12.640625 67.894531 18.136719 69.542969 18.136719 69.542969 C 18.355469 69.613281 18.515625 69.8125 18.539062 70.042969 C 18.550781 70.277344 18.414062 70.492188 18.195312 70.585938 C 18.195312 70.585938 14.421875 72.207031 13.492188 72.660156 C 13.421875 72.695312 13.203125 72.8125 12.984375 72.925781 C 13.25 73.40625 13.628906 74.097656 13.722656 74.257812 C 14.007812 74.769531 14.296875 75.28125 14.617188 75.78125 C 15.367188 76.972656 16.160156 78.042969 17.320312 78.886719 C 17.6875 79.15625 18.160156 79.359375 18.621094 79.585938 C 19.171875 79.863281 19.6875 80.171875 20.054688 80.597656 C 20.4375 81.027344 20.6875 81.625 20.894531 82.246094 C 21.078125 82.773438 21.242188 83.3125 21.457031 83.738281 C 23 86.648438 25.09375 88.867188 28.585938 89.308594 C 28.792969 89.332031 29.117188 89.339844 29.484375 89.332031 Z M 29.484375 89.332031 " fill-opacity="1" fill-rule="evenodd"/><path fill="#000000" d="M 35.816406 75.214844 C 35.679688 75.113281 34.851562 74.523438 34.761719 74.449219 C 33.484375 73.445312 31.046875 71.113281 29.886719 69.988281 C 29.769531 69.886719 29.714844 69.75 29.714844 69.605469 C 29.714844 69.480469 29.746094 69.316406 29.886719 69.160156 C 29.988281 69.050781 30.242188 68.894531 30.300781 68.851562 C 30.703125 68.5625 31.09375 68.277344 31.496094 67.992188 C 33.023438 66.890625 34.53125 65.664062 36.1875 64.722656 C 36.425781 64.578125 36.75 64.640625 36.921875 64.863281 C 37.382812 65.433594 38.578125 65.996094 39.210938 66.417969 C 40.945312 67.582031 42.75 68.652344 44.507812 69.777344 C 44.761719 69.839844 44.867188 70.074219 44.878906 70.121094 C 44.921875 70.238281 44.992188 70.492188 44.738281 70.734375 C 44.703125 70.757812 44.476562 70.882812 44.394531 70.9375 C 44.222656 71.050781 44.050781 71.160156 43.875 71.273438 C 43.277344 71.671875 42.65625 72.039062 42.039062 72.402344 C 40.242188 73.453125 38.460938 74.546875 36.589844 75.449219 C 36.402344 75.539062 36.1875 75.527344 36.011719 75.414062 C 35.933594 75.363281 35.863281 75.292969 35.816406 75.214844 Z M 31.152344 69.636719 C 32.390625 70.828125 34.382812 72.710938 35.484375 73.582031 C 35.578125 73.652344 36.117188 74 36.449219 74.265625 C 38.164062 73.414062 39.796875 72.410156 41.449219 71.445312 C 42.050781 71.09375 42.648438 70.734375 43.234375 70.351562 L 43.269531 70.324219 C 41.691406 69.332031 40.105469 68.375 38.554688 67.339844 C 37.980469 66.953125 37.003906 66.433594 36.382812 65.910156 C 34.910156 66.800781 33.566406 67.898438 32.171875 68.894531 C 31.828125 69.140625 31.484375 69.386719 31.152344 69.636719 Z M 44.429688 70.875 Z M 44.429688 70.875 " fill-opacity="1" fill-rule="evenodd"/><path fill="#000000" d="M 11.8125 68.214844 L 0.0976562 70.722656 L 11.8125 72.628906 L 16.722656 70.1875 Z M 11.8125 68.214844 " fill-opacity="1" fill-rule="evenodd"/><path fill="#000000" d="M 162.914062 26.890625 C 162.898438 26.953125 162.625 27.183594 162.570312 27.253906 C 162.3125 27.582031 162.070312 27.917969 161.847656 28.269531 C 161.070312 29.484375 160.332031 30.792969 159.972656 32.1875 C 159.800781 32.855469 159.675781 33.578125 159.867188 34.257812 C 160.289062 35.78125 162.554688 36.007812 163.804688 35.351562 C 164.730469 34.867188 165.300781 33.628906 165.335938 32.648438 C 165.382812 31.441406 164.800781 30.441406 163.882812 29.671875 C 163.523438 29.371094 162.820312 29.058594 162.613281 28.621094 C 162.535156 28.449219 162.675781 28.230469 162.753906 28.082031 C 162.945312 27.714844 163.546875 27.109375 162.914062 26.890625 Z M 161.738281 30.515625 C 161.550781 30.664062 161.296875 31.179688 161.210938 31.394531 C 161.125 31.609375 161.03125 31.828125 161.019531 32.0625 C 160.96875 33.160156 162.097656 33.445312 163.011719 33.339844 C 163.335938 33.300781 163.664062 33.25 163.976562 33.171875 C 164.089844 33.144531 164.25 33.097656 164.300781 32.984375 C 164.410156 32.742188 162.199219 30.542969 161.738281 30.515625 Z M 161.738281 30.515625 " fill-opacity="1" fill-rule="evenodd"/><g clip-path="url(#b17531d164)"><path fill="#000000" d="M 187.628906 25.394531 C 187.578125 25.4375 187.6875 25.285156 187.714844 25.230469 C 187.777344 25.113281 187.832031 24.996094 187.890625 24.878906 C 188.074219 24.511719 188.257812 24.148438 188.433594 23.777344 C 188.929688 22.730469 189.496094 21.699219 189.984375 20.648438 C 189.984375 20.722656 190.117188 20.863281 190.15625 20.929688 C 190.269531 21.136719 190.371094 21.351562 190.476562 21.5625 C 190.835938 22.273438 191.15625 22.996094 191.496094 23.714844 C 192.875 26.65625 194.433594 29.546875 195.683594 32.53125 C 195.878906 33 196.070312 33.472656 196.238281 33.945312 C 196.335938 34.222656 196.429688 34.503906 196.5 34.785156 C 196.535156 34.9375 196.566406 35.089844 196.585938 35.246094 C 196.597656 35.34375 196.601562 35.449219 196.601562 35.550781 C 196.597656 35.613281 196.589844 35.671875 196.570312 35.734375 C 196.371094 36.359375 195.609375 35.496094 195.410156 35.316406 C 195.328125 35.238281 195.242188 35.160156 195.15625 35.082031 C 195.058594 34.996094 194.960938 34.90625 194.863281 34.820312 C 194.726562 34.699219 194.59375 34.578125 194.460938 34.457031 C 194.28125 34.292969 194.105469 34.128906 193.925781 33.964844 C 193.746094 33.800781 193.5625 33.632812 193.390625 33.460938 C 193.328125 33.398438 193.398438 33.628906 193.40625 33.710938 C 193.429688 33.914062 193.453125 34.113281 193.476562 34.316406 C 193.542969 34.847656 193.609375 35.375 193.695312 35.902344 C 193.933594 37.449219 194.214844 38.992188 194.472656 40.539062 C 195.246094 45.222656 195.871094 49.9375 196.460938 54.644531 C 196.332031 54.617188 196.507812 54.863281 196.53125 54.972656 C 196.578125 55.238281 196.605469 55.503906 196.648438 55.769531 C 196.757812 56.496094 196.867188 57.226562 196.972656 57.953125 C 197.28125 60.058594 197.574219 62.164062 197.832031 64.273438 C 198.828125 72.445312 200.671875 81.125 199.125 89.367188 C 198.789062 91.152344 198.578125 93.191406 197.492188 94.789062 C 197.34375 95.007812 196.585938 96.191406 196.195312 96.160156 C 196.113281 96.152344 196.078125 96.074219 196.058594 96.015625 C 195.71875 94.988281 196.160156 93.464844 196.15625 92.414062 C 196.132812 88.21875 195.894531 84.054688 195.414062 79.882812 C 193.792969 65.789062 188.652344 30.539062 188.546875 27.226562 C 188.546875 27.226562 188.308594 26.765625 188.285156 26.722656 C 188.113281 26.390625 187.8125 25.722656 187.628906 25.394531 Z M 187.628906 25.394531 " fill-opacity="1" fill-rule="evenodd"/></g><path fill="#000000" d="M 282.898438 76.851562 C 282.921875 76.835938 282.933594 76.8125 282.910156 76.785156 C 282.898438 76.804688 282.898438 76.828125 282.898438 76.851562 C 282.820312 76.894531 282.574219 76.898438 282.472656 76.949219 C 282.148438 77.113281 281.835938 77.285156 281.523438 77.460938 C 280.5625 77.988281 279.691406 78.605469 278.828125 79.269531 C 276.4375 81.105469 273.710938 84.0625 270.421875 84.019531 C 270.46875 83.847656 270.066406 83.375 269.988281 83.25 C 269.484375 82.4375 268.949219 81.652344 268.433594 80.84375 C 266.386719 77.59375 262.976562 72.980469 258.664062 75.824219 C 255.253906 78.070312 252.4375 82.453125 251.820312 86.484375 C 251.320312 89.75 252.78125 92.878906 256.125 93.851562 C 259.960938 94.96875 264.902344 92.691406 268.164062 90.777344 C 268.1875 90.761719 268.410156 91.167969 268.433594 91.21875 C 268.589844 91.507812 268.722656 91.800781 268.871094 92.097656 C 269.273438 92.964844 269.675781 93.929688 269.628906 94.910156 C 269.605469 94.917969 269.351562 95.160156 269.292969 95.214844 C 269.105469 95.410156 268.902344 95.597656 268.703125 95.785156 C 268.019531 96.410156 267.339844 97.027344 266.679688 97.667969 C 264.8125 99.457031 262.855469 101.132812 260.855469 102.773438 C 255.152344 107.46875 247.652344 114.050781 239.757812 113.964844 C 231.332031 113.875 225.472656 106.820312 226.300781 98.578125 C 226.535156 96.292969 226.980469 94.042969 227.574219 91.828125 C 227.675781 91.417969 228.289062 89.875 228 89.476562 C 227.742188 89.117188 226.734375 90.699219 226.65625 90.816406 C 225.640625 92.492188 225.027344 94.304688 224.632812 96.21875 C 223.628906 101.070312 223.761719 106.570312 225.839844 111.140625 C 229.507812 119.1875 239.324219 122.070312 247.226562 118.925781 C 251.320312 117.300781 254.917969 114.523438 258.351562 111.820312 C 261.558594 109.285156 264.855469 106.65625 267.304688 103.339844 C 268.636719 101.542969 270.578125 99.238281 271.140625 97.019531 C 271.777344 94.53125 271.609375 91.855469 271.261719 89.429688 C 271.25 89.371094 271.742188 89.183594 271.796875 89.15625 C 272.324219 88.890625 272.859375 88.636719 273.386719 88.371094 C 275.421875 87.359375 277.542969 86.386719 279.265625 84.886719 C 279.390625 84.78125 279.289062 85.21875 279.320312 85.378906 C 279.378906 85.660156 279.480469 85.933594 279.578125 86.203125 C 279.882812 86.996094 280.203125 87.773438 280.574219 88.535156 C 281.726562 90.890625 283.804688 92.746094 286.351562 93.425781 C 287.460938 93.71875 288.644531 93.914062 289.796875 93.816406 C 294.582031 93.410156 297.34375 88.585938 298.75 84.5 C 298.75 84.492188 298.761719 84.488281 298.761719 84.492188 L 298.75 84.5 C 298.761719 84.601562 299.253906 85.738281 299.320312 85.855469 C 299.847656 86.773438 300.484375 87.652344 301.210938 88.421875 C 303.46875 90.828125 307.191406 91.5 310.199219 90.191406 C 312.199219 89.316406 313.328125 87.671875 314.199219 85.738281 C 315.988281 81.773438 315.140625 75.757812 313.664062 71.722656 C 313.707031 71.523438 313.429688 72.0625 313.296875 72.21875 C 312.992188 72.582031 312.65625 72.929688 312.355469 73.289062 C 311.4375 74.355469 310.355469 75.390625 309.582031 76.578125 C 309.515625 76.671875 310.867188 78.292969 310.980469 78.546875 C 312.007812 80.800781 310.230469 83.089844 307.894531 83.21875 C 304.453125 83.410156 302.507812 80.417969 302.117188 77.355469 C 301.980469 76.300781 302.003906 75.226562 301.8125 74.179688 C 301.757812 73.84375 301.589844 73.273438 301.15625 73.289062 C 300.675781 73.304688 300.371094 73.984375 300.203125 74.355469 C 299.667969 75.578125 299.613281 76.941406 299.289062 78.21875 C 298.953125 79.515625 298.226562 80.632812 297.511719 81.75 C 296.191406 83.832031 294.605469 86.429688 292.15625 87.304688 C 289.226562 88.34375 285.449219 86.5 283.960938 83.890625 C 282.886719 81.992188 282.574219 79.019531 282.898438 76.851562 Z M 269.628906 94.910156 C 269.628906 94.90625 269.628906 94.90625 269.628906 94.910156 Z M 256.136719 85.59375 C 256.238281 84.296875 256.953125 83.015625 257.847656 82.082031 C 258.28125 81.632812 258.832031 81.148438 259.511719 81.269531 C 260.84375 81.503906 262.171875 82.59375 263.046875 83.570312 C 263.222656 83.777344 263.828125 84.335938 263.738281 84.664062 C 263.636719 84.984375 263.15625 85.171875 262.890625 85.289062 C 262.050781 85.65625 261.121094 85.878906 260.226562 86.007812 C 259.265625 86.148438 256.652344 86.195312 256.136719 85.59375 Z M 256.136719 85.59375 " fill-opacity="1" fill-rule="evenodd"/><g clip-path="url(#eda3b6c070)"><path fill="#000000" d="M 233.484375 77.921875 C 233.410156 78 233.382812 78.265625 233.347656 78.371094 C 233.238281 78.757812 233.128906 79.148438 233.027344 79.535156 C 232.671875 80.878906 232.296875 82.21875 231.9375 83.5625 C 231.824219 83.984375 231.707031 84.40625 231.589844 84.828125 C 231.558594 84.949219 231.433594 85.207031 231.472656 85.335938 C 231.511719 85.460938 231.828125 85.585938 231.925781 85.652344 C 232.253906 85.871094 232.566406 86.128906 232.835938 86.410156 C 232.832031 86.378906 232.925781 86.5625 232.933594 86.582031 C 232.992188 86.726562 233.058594 86.863281 233.117188 87.007812 C 233.300781 87.429688 233.449219 87.871094 233.613281 88.300781 C 234.109375 89.597656 234.613281 90.886719 235.15625 92.164062 C 236.15625 94.519531 237.320312 96.824219 238.535156 99.078125 C 239.050781 100.027344 239.546875 100.976562 240.027344 101.941406 C 240.242188 102.378906 240.53125 102.820312 240.675781 103.285156 C 240.894531 103.996094 239.128906 104.992188 238.625 105.515625 C 236.683594 107.515625 234.578125 109.351562 232.378906 111.070312 C 223.765625 117.804688 212.039062 124.480469 200.8125 119.839844 C 200.929688 119.941406 200.539062 119.6875 200.410156 119.601562 C 200.136719 119.417969 199.878906 119.21875 199.625 119.007812 C 198.828125 118.339844 198.113281 117.617188 197.507812 116.773438 C 195.710938 114.269531 194.945312 111.324219 194.820312 108.289062 C 194.644531 103.953125 195.402344 99.746094 196.773438 95.636719 C 196.921875 95.195312 197.070312 94.753906 197.222656 94.3125 C 197.351562 93.9375 197.488281 93.566406 197.617188 93.191406 C 197.703125 92.941406 197.785156 92.6875 197.867188 92.4375 C 197.929688 92.234375 197.992188 92.03125 198.054688 91.824219 C 198.105469 91.65625 198.160156 91.484375 198.207031 91.3125 C 198.304688 90.960938 199.023438 88.96875 198.054688 89.214844 C 198.125 89.375 197.808594 89.476562 197.71875 89.625 C 197.398438 90.15625 197.117188 90.710938 196.851562 91.273438 C 195.820312 93.441406 194.9375 95.65625 194.203125 97.9375 C 192.050781 104.640625 189.914062 112.957031 193.09375 119.644531 C 193.191406 119.617188 193.164062 119.832031 193.199219 119.925781 C 193.28125 120.125 193.367188 120.320312 193.453125 120.519531 C 193.71875 121.121094 194.03125 121.699219 194.367188 122.265625 C 195.320312 123.875 196.75 125.234375 198.226562 126.382812 C 202.199219 129.472656 207.582031 129.457031 212.378906 128.851562 C 212.375 128.832031 212.761719 128.742188 212.777344 128.738281 C 213.238281 128.621094 213.695312 128.511719 214.152344 128.382812 C 215.316406 128.046875 216.472656 127.65625 217.570312 127.148438 C 220.980469 125.5625 224.441406 123.925781 227.367188 121.578125 C 227.367188 121.585938 231.238281 118.621094 232.335938 117.773438 C 235.667969 115.195312 239.023438 112.101562 241.082031 108.410156 C 241.15625 108.277344 241.402344 107.710938 241.453125 107.59375 C 241.804688 106.746094 242.097656 105.867188 242.320312 104.976562 C 242.867188 102.820312 243.113281 100.378906 242.660156 98.171875 C 242.371094 96.765625 241.792969 95.460938 241.230469 94.140625 C 241.332031 94.179688 241.152344 93.9375 241.113281 93.839844 C 241.039062 93.660156 240.960938 93.488281 240.882812 93.3125 C 240.613281 92.710938 240.347656 92.109375 240.074219 91.511719 C 239.296875 89.816406 238.070312 88.128906 237.621094 86.308594 C 237.507812 85.84375 237.988281 86.167969 238.191406 86.289062 C 238.703125 86.589844 239.203125 86.9375 239.75 87.179688 C 239.925781 87.257812 240.25 87.386719 240.308594 87.109375 C 240.46875 86.398438 239.699219 85.394531 239.351562 84.855469 C 238.222656 83.109375 235.726562 80.304688 233.484375 77.921875 Z M 233.484375 77.921875 " fill-opacity="1" fill-rule="evenodd"/></g><path fill="#000000" d="M 212.226562 58.796875 C 212.238281 58.515625 212.761719 58.992188 213.042969 59.074219 C 213.734375 59.28125 214.449219 59.464844 215.164062 59.613281 C 215.222656 59.625 215.824219 59.78125 215.824219 59.675781 C 215.804688 59.074219 214.269531 58.058594 213.878906 57.703125 C 212.046875 56.007812 210.214844 54.3125 208.300781 52.707031 C 207.945312 52.410156 206.546875 50.933594 206 51.128906 C 205.617188 51.261719 205.394531 51.894531 205.238281 52.21875 C 204.78125 53.203125 204.355469 54.203125 203.917969 55.199219 C 203.796875 55.476562 203.382812 56.121094 203.527344 56.453125 C 203.683594 56.789062 204.15625 56.699219 204.433594 56.867188 C 204.8125 57.097656 205.070312 57.640625 205.292969 58 C 207.652344 61.632812 210.46875 64.863281 213.152344 68.253906 C 213.140625 68.257812 213.386719 68.5 213.410156 68.53125 C 213.398438 68.519531 212.550781 69.546875 212.492188 69.617188 C 211.375 70.949219 210.371094 72.367188 209.410156 73.800781 C 206.703125 77.777344 205.820312 83.328125 207.070312 87.964844 C 207.777344 90.589844 209.84375 93.214844 212.796875 93 C 215.066406 92.832031 217.265625 91.050781 218.855469 89.566406 C 222.734375 85.945312 227.316406 80.53125 225.125 74.863281 C 224.265625 72.660156 222.847656 70.671875 221.304688 68.90625 C 220.832031 68.378906 219.457031 67.410156 219.648438 66.605469 C 219.984375 65.25 221.292969 63.953125 222.085938 62.859375 C 224.140625 60.058594 227.082031 56.84375 227.976562 53.390625 C 228.289062 52.148438 228.679688 49.601562 227.933594 48.421875 C 227.820312 48.257812 227.460938 48.761719 227.417969 48.828125 C 226.9375 49.425781 226.566406 50.121094 226.164062 50.765625 C 225.160156 52.386719 224.121094 53.984375 223.035156 55.554688 C 222.175781 56.8125 221.28125 58.046875 220.398438 59.292969 C 219.535156 60.507812 218.675781 61.710938 217.804688 62.90625 C 217.636719 63.132812 217.222656 63.917969 216.875 63.933594 C 216.015625 63.972656 212.773438 59.382812 212.226562 58.796875 Z M 215.925781 71.378906 C 216.070312 71.214844 215.066406 72.246094 214.941406 72.417969 C 214.71875 72.734375 214.484375 73.050781 214.261719 73.363281 C 213.589844 74.289062 212.953125 75.230469 212.328125 76.183594 C 210.570312 78.835938 207.5625 84.722656 212.226562 86.265625 C 215.289062 87.273438 218.261719 83.992188 220.015625 81.9375 C 220.742188 81.097656 221.804688 79.980469 221.804688 78.792969 C 221.816406 78.109375 221.371094 77.4375 221.011719 76.886719 C 219.984375 75.316406 217.378906 72.5625 215.925781 71.378906 Z M 215.925781 71.378906 " fill-opacity="1" fill-rule="evenodd"/><path fill="#000000" d="M 243.855469 36.03125 C 243.878906 36.070312 243.78125 36.21875 243.761719 36.253906 C 243.644531 36.484375 243.519531 36.71875 243.382812 36.945312 C 243.351562 37 243.269531 37.175781 243.171875 37.167969 C 243.027344 37.160156 242.792969 36.945312 242.6875 36.878906 C 242.296875 36.605469 241.894531 36.347656 241.507812 36.070312 C 241.082031 35.757812 240.652344 35.449219 240.210938 35.15625 C 239.953125 34.984375 239.609375 34.832031 239.421875 34.597656 C 239.222656 34.347656 239.230469 33.992188 239.203125 33.707031 C 239.140625 33.007812 239.125 32.289062 239.351562 31.605469 C 239.558594 30.976562 239.949219 30.136719 240.824219 30.007812 C 241.738281 29.875 242.695312 30.546875 243.402344 30.945312 C 244.828125 31.753906 245.730469 32.871094 246.527344 34.132812 C 247.238281 35.261719 247.808594 36.429688 248.164062 37.675781 C 248.378906 38.433594 248.511719 39.214844 248.773438 39.960938 C 248.882812 40.277344 249.027344 40.683594 249.386719 40.871094 C 249.382812 40.917969 249.414062 40.773438 249.421875 40.722656 C 249.441406 40.625 249.457031 40.527344 249.472656 40.425781 C 249.523438 40.140625 249.5625 39.851562 249.601562 39.5625 C 249.730469 38.675781 249.886719 37.792969 250.117188 36.914062 C 250.734375 34.589844 251.625 32.097656 253.207031 30.101562 C 253.914062 29.210938 255.003906 28.230469 256.417969 28.691406 C 257.398438 29.015625 258.074219 29.957031 258.535156 30.707031 C 258.6875 30.953125 258.953125 31.324219 258.941406 31.613281 C 258.910156 32.183594 258.425781 32.828125 258.171875 33.339844 C 257.992188 33.699219 257.824219 34.0625 257.613281 34.410156 C 257.542969 34.527344 257.449219 34.722656 257.296875 34.789062 C 257.019531 34.90625 256.675781 34.199219 256.597656 34.078125 C 256.183594 33.429688 255.5625 32.40625 254.527344 32.457031 C 253.441406 32.511719 252.964844 33.667969 252.632812 34.367188 C 251.644531 36.453125 251.097656 38.601562 250.539062 40.78125 C 250.523438 40.785156 250.4375 41.105469 250.429688 41.128906 C 250.292969 41.519531 250.152344 41.914062 250.027344 42.308594 C 249.660156 43.46875 249.421875 44.695312 248.886719 45.8125 C 248.804688 45.980469 248.453125 46.824219 248.058594 46.621094 C 247.867188 46.523438 247.832031 46.214844 247.800781 46.050781 C 247.710938 45.554688 247.609375 45.066406 247.484375 44.578125 C 247.339844 44.007812 247.195312 43.4375 247.0625 42.867188 C 246.859375 41.996094 246.636719 41.125 246.3125 40.28125 C 245.875 39.144531 244.828125 36.558594 243.855469 36.03125 Z M 243.855469 36.03125 " fill-opacity="1" fill-rule="evenodd"/><path fill="#000000" d="M 121.71875 36.714844 C 121.734375 36.742188 121.664062 36.851562 121.652344 36.875 C 121.570312 37.042969 121.480469 37.214844 121.382812 37.378906 C 121.359375 37.417969 121.300781 37.546875 121.234375 37.539062 C 121.132812 37.535156 120.964844 37.378906 120.890625 37.328125 C 120.613281 37.132812 120.328125 36.945312 120.054688 36.742188 C 119.75 36.519531 119.449219 36.292969 119.132812 36.078125 C 118.953125 35.957031 118.710938 35.84375 118.578125 35.675781 C 118.433594 35.496094 118.441406 35.238281 118.421875 35.027344 C 118.375 34.523438 118.367188 34 118.527344 33.503906 C 118.671875 33.046875 118.949219 32.4375 119.570312 32.347656 C 120.21875 32.25 120.894531 32.738281 121.394531 33.027344 C 122.40625 33.613281 123.046875 34.421875 123.613281 35.339844 C 124.117188 36.15625 124.519531 37.003906 124.769531 37.90625 C 124.925781 38.457031 125.015625 39.023438 125.203125 39.566406 C 125.28125 39.796875 125.382812 40.089844 125.636719 40.226562 C 125.632812 40.261719 125.65625 40.15625 125.664062 40.117188 C 125.675781 40.046875 125.6875 39.976562 125.699219 39.902344 C 125.734375 39.695312 125.761719 39.484375 125.789062 39.277344 C 125.882812 38.632812 125.992188 37.992188 126.15625 37.355469 C 126.59375 35.671875 127.222656 33.863281 128.34375 32.414062 C 128.84375 31.765625 129.617188 31.058594 130.621094 31.394531 C 131.316406 31.625 131.792969 32.308594 132.121094 32.851562 C 132.230469 33.03125 132.417969 33.300781 132.40625 33.511719 C 132.386719 33.921875 132.042969 34.394531 131.863281 34.765625 C 131.738281 35.023438 131.617188 35.289062 131.46875 35.539062 C 131.417969 35.625 131.351562 35.765625 131.246094 35.8125 C 131.046875 35.898438 130.804688 35.386719 130.75 35.296875 C 130.457031 34.828125 130.015625 34.085938 129.28125 34.125 C 128.511719 34.160156 128.171875 35.003906 127.9375 35.507812 C 127.238281 37.023438 126.851562 38.578125 126.453125 40.160156 C 126.441406 40.164062 126.382812 40.394531 126.378906 40.410156 C 126.277344 40.695312 126.179688 40.980469 126.089844 41.269531 C 125.832031 42.109375 125.660156 42.996094 125.285156 43.808594 C 125.226562 43.933594 124.976562 44.542969 124.699219 44.394531 C 124.558594 44.324219 124.535156 44.101562 124.515625 43.980469 C 124.449219 43.621094 124.378906 43.265625 124.289062 42.914062 C 124.1875 42.5 124.085938 42.085938 123.992188 41.671875 C 123.847656 41.042969 123.6875 40.410156 123.457031 39.796875 C 123.148438 38.972656 122.40625 37.097656 121.71875 36.714844 Z M 121.71875 36.714844 " fill-opacity="1" fill-rule="evenodd"/><path fill="#000000" d="M 243.855469 64.886719 C 243.878906 64.921875 243.78125 65.070312 243.761719 65.105469 C 243.644531 65.339844 243.519531 65.570312 243.382812 65.800781 C 243.351562 65.855469 243.269531 66.03125 243.171875 66.023438 C 243.027344 66.011719 242.792969 65.800781 242.6875 65.730469 C 242.296875 65.457031 241.894531 65.199219 241.507812 64.921875 C 241.082031 64.613281 240.652344 64.300781 240.210938 64.007812 C 239.953125 63.835938 239.609375 63.683594 239.421875 63.449219 C 239.222656 63.203125 239.230469 62.847656 239.203125 62.558594 C 239.140625 61.859375 239.125 61.140625 239.351562 60.457031 C 239.558594 59.828125 239.949219 58.988281 240.824219 58.859375 C 241.738281 58.726562 242.695312 59.398438 243.402344 59.800781 C 244.828125 60.609375 245.730469 61.722656 246.527344 62.984375 C 247.238281 64.113281 247.808594 65.285156 248.164062 66.527344 C 248.378906 67.285156 248.511719 68.070312 248.773438 68.816406 C 248.882812 69.132812 249.027344 69.535156 249.386719 69.726562 C 249.382812 69.773438 249.414062 69.625 249.421875 69.574219 C 249.441406 69.476562 249.457031 69.378906 249.472656 69.277344 C 249.523438 68.992188 249.5625 68.707031 249.601562 68.417969 C 249.730469 67.527344 249.886719 66.644531 250.117188 65.769531 C 250.734375 63.445312 251.625 60.949219 253.207031 58.953125 C 253.914062 58.0625 255.003906 57.082031 256.417969 57.546875 C 257.398438 57.867188 258.074219 58.8125 258.535156 59.558594 C 258.6875 59.804688 258.953125 60.179688 258.941406 60.464844 C 258.910156 61.035156 258.425781 61.683594 258.171875 62.195312 C 257.992188 62.550781 257.824219 62.914062 257.613281 63.261719 C 257.542969 63.378906 257.449219 63.574219 257.296875 63.640625 C 257.019531 63.757812 256.675781 63.050781 256.597656 62.929688 C 256.183594 62.28125 255.5625 61.261719 254.527344 61.3125 C 253.441406 61.363281 252.964844 62.523438 252.632812 63.21875 C 251.644531 65.308594 251.097656 67.453125 250.539062 69.636719 C 250.523438 69.636719 250.4375 69.957031 250.429688 69.980469 C 250.292969 70.371094 250.152344 70.765625 250.027344 71.160156 C 249.660156 72.324219 249.421875 73.546875 248.886719 74.664062 C 248.804688 74.835938 248.453125 75.675781 248.058594 75.476562 C 247.867188 75.375 247.832031 75.066406 247.800781 74.902344 C 247.710938 74.40625 247.609375 73.917969 247.484375 73.429688 C 247.339844 72.859375 247.195312 72.292969 247.0625 71.722656 C 246.859375 70.851562 246.636719 69.980469 246.3125 69.132812 C 245.875 67.996094 244.828125 65.414062 243.855469 64.886719 Z M 243.855469 64.886719 " fill-opacity="1" fill-rule="evenodd"/><path fill="#000000" d="M 305.574219 95.441406 C 305.496094 95.339844 305.363281 95.695312 305.335938 95.769531 C 305.277344 95.929688 305.214844 96.089844 305.15625 96.25 C 304.972656 96.761719 304.773438 97.261719 304.582031 97.769531 C 304.457031 98.097656 304.8125 98.511719 304.90625 98.800781 C 305.199219 99.695312 304.671875 100.289062 303.953125 100.273438 C 303.75 100.269531 303.554688 100.210938 303.367188 100.128906 C 302.5625 99.796875 301.761719 98.96875 301.839844 97.859375 C 301.882812 97.289062 302.09375 96.800781 302.210938 96.253906 C 302.25 96.074219 302.261719 95.789062 302.070312 95.738281 C 301.585938 95.597656 301.15625 96.75 300.988281 97.113281 C 300.316406 98.558594 299.75 100.3125 298.433594 101.09375 C 297.210938 101.820312 296.050781 100.835938 294.863281 100.464844 C 293.589844 100.066406 292.316406 100.253906 291.097656 100.820312 C 291.097656 100.945312 290.902344 100.914062 290.808594 100.972656 C 290.5 101.160156 290.199219 101.367188 289.902344 101.582031 C 288.597656 102.515625 287.339844 103.570312 286.125 104.671875 C 280.859375 109.429688 275.363281 113.742188 269.617188 117.628906 C 267.871094 118.808594 266.136719 120.027344 264.351562 121.125 C 263.628906 121.570312 262.886719 121.980469 262.167969 122.445312 C 262.089844 122.496094 261.507812 122.824219 261.671875 123.023438 C 261.863281 123.25 262.402344 123.121094 262.632812 123.09375 C 263.515625 122.992188 264.40625 122.730469 265.265625 122.484375 C 267.378906 121.882812 269.632812 121.222656 271.574219 120.019531 C 272.8125 119.25 273.957031 118.21875 275.082031 117.238281 C 278.5 114.253906 281.890625 111.226562 285.324219 108.269531 C 287.335938 106.527344 289.53125 104.417969 291.921875 103.464844 C 294.046875 102.621094 295.753906 105.3125 297.878906 104.390625 C 298.804688 103.984375 299.480469 102.949219 299.933594 101.941406 C 300.011719 101.773438 300.457031 100.394531 300.617188 100.347656 C 300.644531 100.34375 300.722656 100.953125 300.726562 100.988281 C 300.792969 101.4375 300.859375 101.933594 301.09375 102.304688 C 301.683594 103.230469 302.757812 103.398438 303.65625 103.183594 C 306.441406 102.519531 306.449219 99.28125 305.988281 96.59375 C 305.929688 96.234375 305.679688 95.574219 305.574219 95.441406 Z M 305.574219 95.441406 " fill-opacity="1" fill-rule="evenodd"/><path fill="#000000" d="M 230.726562 58.234375 C 230.742188 58.246094 232.164062 57.496094 232.253906 57.453125 C 234.0625 56.585938 235.894531 55.757812 237.738281 54.933594 C 245.296875 51.570312 252.925781 48.261719 260.652344 45.15625 C 262.828125 44.28125 265.019531 43.421875 267.246094 42.640625 C 267.382812 42.589844 269.140625 41.878906 269.238281 42.054688 C 269.429688 42.414062 268.621094 43.601562 268.460938 43.933594 C 268.128906 44.644531 267.914062 45.71875 267.296875 46.316406 C 266.882812 46.71875 266.082031 46.894531 265.519531 47.105469 C 264.136719 47.621094 262.753906 48.125 261.390625 48.660156 C 257.179688 50.3125 253.101562 52.1875 248.96875 53.964844 C 244.964844 55.6875 240.871094 57.273438 236.90625 59.050781 C 234.925781 59.941406 232.945312 60.824219 230.96875 61.71875 C 230.65625 61.863281 229.335938 62.683594 228.933594 62.515625 C 228.679688 62.410156 228.96875 61.859375 229.023438 61.726562 C 229.304688 60.992188 230.394531 58.957031 230.726562 58.234375 Z M 230.726562 58.234375 " fill-opacity="1" fill-rule="evenodd"/><path fill="#000000" d="M 121.640625 53.035156 C 121.652344 53.046875 122.71875 52.4375 122.785156 52.402344 C 124.140625 51.695312 125.515625 51.019531 126.898438 50.347656 C 132.5625 47.609375 138.28125 44.914062 144.074219 42.386719 C 145.703125 41.671875 147.347656 40.972656 149.015625 40.335938 C 149.121094 40.296875 150.4375 39.714844 150.511719 39.859375 C 150.65625 40.152344 150.046875 41.121094 149.929688 41.386719 C 149.679688 41.96875 149.515625 42.84375 149.054688 43.332031 C 148.742188 43.660156 148.144531 43.800781 147.722656 43.972656 C 146.6875 44.390625 145.648438 44.800781 144.628906 45.238281 C 141.46875 46.585938 138.414062 48.113281 135.316406 49.558594 C 132.316406 50.960938 129.246094 52.253906 126.273438 53.703125 C 124.789062 54.425781 123.304688 55.148438 121.824219 55.875 C 121.585938 55.992188 120.601562 56.660156 120.296875 56.523438 C 120.105469 56.4375 120.324219 55.988281 120.363281 55.882812 C 120.574219 55.28125 121.394531 53.625 121.640625 53.035156 Z M 121.640625 53.035156 " fill-opacity="1" fill-rule="evenodd"/><path fill="#000000" d="M 271.722656 47.625 C 272.171875 47.160156 272.503906 46.328125 272.855469 45.785156 C 273.890625 44.195312 274.914062 42.601562 275.976562 41.03125 C 276.570312 40.148438 277.125 39.101562 277.976562 38.417969 C 279.183594 37.449219 280.996094 37.582031 282.457031 37.679688 C 285.824219 37.902344 289.714844 38.957031 292.917969 39.488281 C 292.972656 39.445312 293.261719 39.582031 293.320312 39.601562 C 293.695312 39.726562 294.0625 39.863281 294.429688 40.003906 C 295.664062 40.480469 298.085938 41.148438 297.652344 42.855469 C 297.378906 43.9375 296.636719 44.910156 295.960938 45.789062 C 294.910156 47.15625 293.785156 48.484375 292.605469 49.75 C 291.046875 51.425781 289.402344 53.007812 287.691406 54.539062 C 286.5625 55.550781 285.394531 56.667969 283.933594 57.214844 C 281.492188 58.132812 278.605469 58.027344 276.035156 58.183594 C 274.8125 58.257812 273.59375 58.3125 272.371094 58.359375 C 271.730469 58.386719 270.921875 58.472656 270.296875 58.289062 C 269.679688 58.105469 271.148438 57.28125 271.253906 57.222656 C 272.582031 56.488281 274.019531 55.925781 275.449219 55.414062 C 278.75 54.234375 282.128906 53.128906 285.265625 51.570312 C 286.011719 51.199219 286.757812 50.824219 287.488281 50.417969 C 287.679688 50.3125 288.105469 50.148438 288.175781 49.921875 C 288.257812 49.648438 287.636719 49.375 287.457031 49.292969 C 286.59375 48.902344 285.59375 48.710938 284.675781 48.488281 C 280.851562 47.574219 275.632812 47.054688 271.722656 47.625 Z M 271.722656 47.625 " fill-opacity="1" fill-rule="evenodd"/><path fill="#000000" d="M 75.835938 59.199219 C 76.125 58.925781 76.335938 58.433594 76.5625 58.109375 C 77.226562 57.164062 77.882812 56.21875 78.5625 55.285156 C 78.945312 54.761719 79.300781 54.136719 79.84375 53.734375 C 80.621094 53.160156 81.78125 53.234375 82.71875 53.292969 C 84.878906 53.425781 87.371094 54.054688 89.425781 54.367188 C 89.457031 54.34375 89.644531 54.421875 89.683594 54.4375 C 89.921875 54.507812 90.15625 54.589844 90.394531 54.675781 C 91.183594 54.957031 92.738281 55.355469 92.460938 56.367188 C 92.285156 57.011719 91.808594 57.585938 91.375 58.109375 C 90.703125 58.921875 89.980469 59.710938 89.222656 60.460938 C 88.222656 61.457031 87.171875 62.398438 86.074219 63.308594 C 85.347656 63.90625 84.601562 64.574219 83.664062 64.898438 C 82.101562 65.441406 80.25 65.378906 78.601562 65.472656 C 77.816406 65.515625 77.035156 65.546875 76.253906 65.578125 C 75.839844 65.589844 75.324219 65.644531 74.921875 65.535156 C 74.527344 65.425781 75.46875 64.9375 75.539062 64.902344 C 76.386719 64.464844 77.308594 64.128906 78.226562 63.828125 C 80.339844 63.125 82.507812 62.472656 84.519531 61.542969 C 84.996094 61.324219 85.476562 61.101562 85.945312 60.859375 C 86.066406 60.796875 86.339844 60.699219 86.382812 60.566406 C 86.4375 60.402344 86.039062 60.238281 85.921875 60.191406 C 85.371094 59.960938 84.730469 59.84375 84.140625 59.714844 C 81.691406 59.171875 78.34375 58.859375 75.835938 59.199219 Z M 75.835938 59.199219 " fill-opacity="1" fill-rule="evenodd"/><path fill="#000000" d="M 141.421875 76.089844 C 141.652344 75.84375 141.824219 75.402344 142.003906 75.117188 C 142.535156 74.273438 143.058594 73.429688 143.605469 72.59375 C 143.910156 72.128906 144.195312 71.574219 144.628906 71.210938 C 145.25 70.699219 146.179688 70.765625 146.929688 70.820312 C 148.660156 70.9375 150.652344 71.496094 152.296875 71.777344 C 152.324219 71.753906 152.472656 71.828125 152.503906 71.835938 C 152.695312 71.902344 152.886719 71.976562 153.074219 72.050781 C 153.707031 72.304688 154.949219 72.660156 154.726562 73.5625 C 154.585938 74.136719 154.203125 74.652344 153.859375 75.117188 C 153.320312 75.84375 152.742188 76.546875 152.136719 77.214844 C 151.335938 78.105469 150.492188 78.945312 149.617188 79.753906 C 149.035156 80.292969 148.4375 80.882812 147.6875 81.175781 C 146.4375 81.660156 144.953125 81.605469 143.632812 81.6875 C 143.007812 81.726562 142.382812 81.753906 141.753906 81.78125 C 141.425781 81.792969 141.011719 81.839844 140.691406 81.742188 C 140.375 81.644531 141.128906 81.210938 141.183594 81.179688 C 141.863281 80.789062 142.601562 80.488281 143.332031 80.21875 C 145.027344 79.59375 146.761719 79.007812 148.371094 78.179688 C 148.753906 77.984375 149.136719 77.785156 149.511719 77.570312 C 149.609375 77.515625 149.828125 77.429688 149.863281 77.308594 C 149.90625 77.164062 149.585938 77.015625 149.496094 76.972656 C 149.054688 76.765625 148.539062 76.664062 148.070312 76.550781 C 146.105469 76.0625 143.429688 75.789062 141.421875 76.089844 Z M 141.421875 76.089844 " fill-opacity="1" fill-rule="evenodd"/><path fill="#000000" d="M 204.042969 35.066406 L 208.613281 28.867188 L 216.003906 34.390625 L 211.128906 40.230469 C 211.128906 40.230469 204.332031 34.777344 204.042969 35.066406 Z M 204.042969 35.066406 " fill-opacity="1" fill-rule="evenodd"/><path fill="#000000" d="M 119.898438 61.863281 L 123.21875 57.523438 L 128.589844 61.390625 L 125.046875 65.476562 C 125.046875 65.476562 120.109375 61.660156 119.898438 61.863281 Z M 119.898438 61.863281 " fill-opacity="1" fill-rule="evenodd"/><path fill="#000000" d="M 127.515625 61.863281 L 130.835938 57.523438 L 136.207031 61.390625 L 132.664062 65.476562 C 132.664062 65.476562 127.726562 61.660156 127.515625 61.863281 Z M 127.515625 61.863281 " fill-opacity="1" fill-rule="evenodd"/><path fill="#000000" d="M 147.304688 64 L 151.878906 57.800781 L 159.265625 63.320312 L 154.394531 69.160156 C 154.394531 69.160156 147.597656 63.710938 147.304688 64 Z M 147.304688 64 " fill-opacity="1" fill-rule="evenodd"/><path fill="#000000" d="M 80.53125 79.214844 L 85.101562 73.019531 L 92.492188 78.539062 L 87.617188 84.378906 C 87.617188 84.378906 80.820312 78.929688 80.53125 79.214844 Z M 80.53125 79.214844 " fill-opacity="1" fill-rule="evenodd"/><path fill="#000000" d="M 214.828125 33.703125 L 219.402344 27.507812 L 226.789062 33.027344 L 221.917969 38.867188 C 221.917969 38.867188 215.121094 33.414062 214.828125 33.703125 Z M 214.828125 33.703125 " fill-opacity="1" fill-rule="evenodd"/><path fill="#000000" d="M 211.945312 95.460938 C 211.683594 95.285156 211.441406 95.644531 211.398438 95.699219 C 211.121094 96.019531 210.929688 96.394531 210.738281 96.761719 C 210.136719 97.925781 209.59375 99.117188 208.980469 100.277344 C 207.421875 103.25 205.449219 106.824219 205.644531 110.214844 C 205.730469 111.6875 206.265625 113.5625 208.132812 113.867188 C 210.453125 114.242188 211.796875 111.128906 212.398438 109.644531 C 212.601562 109.140625 213.09375 108.128906 212.769531 107.578125 C 212.492188 107.109375 211.796875 108.09375 211.6875 108.242188 C 211.035156 109.160156 209.996094 110.960938 208.78125 109.484375 C 207.808594 108.296875 207.957031 106.667969 208.257812 105.296875 C 208.707031 103.265625 209.777344 101.417969 210.730469 99.5625 C 211.328125 98.394531 212.835938 96.050781 211.945312 95.460938 Z M 211.945312 95.460938 " fill-opacity="1" fill-rule="evenodd"/><path fill="#000000" d="M 155.683594 120.125 C 155.945312 120.296875 156.1875 119.9375 156.230469 119.886719 C 156.507812 119.5625 156.699219 119.191406 156.890625 118.824219 C 157.492188 117.65625 158.035156 116.46875 158.644531 115.304688 C 160.203125 112.332031 162.179688 108.757812 161.984375 105.367188 C 161.898438 103.894531 161.363281 102.023438 159.492188 101.71875 C 157.175781 101.34375 155.832031 104.457031 155.230469 105.941406 C 155.027344 106.445312 154.535156 107.457031 154.859375 108.003906 C 155.136719 108.472656 155.832031 107.488281 155.941406 107.339844 C 156.59375 106.421875 157.632812 104.621094 158.84375 106.097656 C 159.820312 107.285156 159.671875 108.914062 159.367188 110.289062 C 158.921875 112.316406 157.851562 114.164062 156.898438 116.023438 C 156.300781 117.191406 154.792969 119.535156 155.683594 120.125 Z M 155.683594 120.125 " fill-opacity="1" fill-rule="evenodd"/><path fill="#000000" d="M 168.3125 47.046875 C 168.050781 46.871094 167.808594 47.230469 167.765625 47.285156 C 167.492188 47.605469 167.296875 47.980469 167.105469 48.347656 C 166.503906 49.511719 165.960938 50.703125 165.351562 51.867188 C 163.792969 54.835938 161.816406 58.410156 162.011719 61.800781 C 162.097656 63.273438 162.632812 65.148438 164.503906 65.453125 C 166.820312 65.828125 168.164062 62.714844 168.765625 61.230469 C 168.96875 60.726562 169.460938 59.714844 169.136719 59.164062 C 168.863281 58.695312 168.164062 59.679688 168.058594 59.828125 C 167.402344 60.746094 166.363281 62.546875 165.152344 61.070312 C 164.175781 59.882812 164.324219 58.253906 164.628906 56.882812 C 165.074219 54.851562 166.144531 53.003906 167.097656 51.148438 C 167.695312 49.980469 169.207031 47.636719 168.3125 47.046875 Z M 168.3125 47.046875 " fill-opacity="1" fill-rule="evenodd"/><path fill="#000000" d="M 102.425781 125.476562 C 102.6875 125.652344 102.929688 125.292969 102.972656 125.238281 C 103.25 124.917969 103.441406 124.542969 103.632812 124.175781 C 104.234375 123.011719 104.777344 121.820312 105.386719 120.65625 C 106.945312 117.6875 108.921875 114.113281 108.726562 110.722656 C 108.640625 109.25 108.105469 107.375 106.234375 107.070312 C 103.917969 106.695312 102.574219 109.808594 101.972656 111.292969 C 101.769531 111.796875 101.277344 112.808594 101.601562 113.359375 C 101.878906 113.828125 102.574219 112.84375 102.683594 112.695312 C 103.335938 111.777344 104.375 109.976562 105.585938 111.453125 C 106.5625 112.640625 106.414062 114.269531 106.109375 115.640625 C 105.664062 117.671875 104.59375 119.519531 103.640625 121.375 C 103.042969 122.542969 101.535156 124.886719 102.425781 125.476562 Z M 102.425781 125.476562 " fill-opacity="1" fill-rule="evenodd"/><path fill="#000000" d="M 72.625 64.175781 C 72.1875 63.925781 71.789062 64.441406 71.714844 64.515625 C 71.257812 64.980469 70.933594 65.519531 70.617188 66.046875 C 69.613281 67.722656 68.710938 69.433594 67.695312 71.105469 C 65.097656 75.378906 61.8125 80.519531 62.136719 85.390625 C 62.277344 87.511719 63.171875 90.203125 66.28125 90.640625 C 70.140625 91.183594 72.378906 86.707031 73.378906 84.570312 C 73.71875 83.84375 74.539062 82.390625 74 81.601562 C 73.539062 80.929688 72.375 82.34375 72.199219 82.558594 C 71.109375 83.875 69.378906 86.46875 67.363281 84.34375 C 65.738281 82.636719 65.984375 80.292969 66.492188 78.316406 C 67.238281 75.402344 69.019531 72.742188 70.601562 70.074219 C 71.597656 68.394531 74.113281 65.023438 72.625 64.175781 Z M 72.625 64.175781 " fill-opacity="1" fill-rule="evenodd"/><path fill="#000000" d="M 283.949219 70.171875 C 283.816406 70.117188 284.332031 69.769531 284.375 69.746094 C 284.582031 69.640625 284.78125 69.523438 284.976562 69.402344 C 285.554688 69.039062 286.132812 68.675781 286.699219 68.296875 C 288.472656 67.117188 290.234375 65.921875 291.996094 64.730469 C 295.964844 62.046875 307.039062 53.5 307.300781 52.996094 C 307.109375 52.847656 306.789062 52.75 306.574219 52.617188 C 305.460938 51.925781 303.777344 50.90625 303.898438 49.527344 C 304.066406 47.652344 305.796875 45.546875 307.746094 44.902344 C 308.617188 44.613281 309.761719 44.476562 310.511719 45.082031 C 310.988281 45.460938 311.121094 46.082031 311.171875 46.625 C 311.289062 47.835938 310.9375 48.988281 310.429688 50.101562 C 310.285156 50.421875 310.109375 50.730469 309.921875 51.03125 C 309.867188 51.121094 309.691406 51.304688 309.691406 51.410156 C 309.695312 51.550781 310.136719 51.785156 310.238281 51.867188 C 310.628906 52.175781 311.175781 52.621094 311.328125 53.09375 C 311.527344 53.695312 310.855469 54.554688 310.539062 55.039062 C 310.457031 55.160156 310.226562 55.597656 310.015625 55.5625 C 309.769531 55.519531 309.554688 55.21875 309.394531 55.070312 C 308.972656 54.675781 308.507812 54.320312 308.089844 53.921875 C 308.027344 53.863281 307.96875 54.046875 307.910156 54.109375 C 307.785156 54.238281 307.660156 54.367188 307.535156 54.5 C 307.183594 54.875 306.820312 55.242188 306.457031 55.609375 C 305.367188 56.710938 304.261719 57.792969 303.125 58.851562 C 298.996094 62.675781 294.078125 65.96875 288.832031 68.445312 C 287.636719 69.007812 286.453125 69.65625 285.183594 70.078125 C 284.960938 70.15625 284.085938 70.226562 283.949219 70.171875 Z M 308.765625 50.617188 C 308.761719 50.613281 308.808594 50.4375 308.8125 50.425781 C 308.851562 50.308594 308.890625 50.191406 308.917969 50.066406 C 309.003906 49.703125 309.058594 49.332031 309.03125 48.960938 C 309.019531 48.753906 309 48.542969 308.964844 48.335938 C 308.835938 47.550781 308.15625 46.445312 307.109375 46.671875 C 306.867188 46.726562 306.648438 46.839844 306.453125 46.972656 C 306.308594 47.074219 306.183594 47.1875 306.0625 47.3125 C 305.914062 47.464844 305.734375 47.664062 305.71875 47.882812 C 305.710938 48.042969 305.835938 48.175781 305.941406 48.292969 C 306.164062 48.539062 306.421875 48.746094 306.664062 48.972656 C 307.175781 49.457031 308.199219 50.179688 308.765625 50.617188 Z M 308.765625 50.617188 " fill-opacity="1" fill-rule="evenodd"/><path fill="#000000" d="M 136.828125 60.941406 C 136.710938 60.894531 137.160156 60.609375 137.199219 60.589844 C 137.375 60.503906 137.550781 60.40625 137.71875 60.304688 C 138.222656 60.003906 138.722656 59.707031 139.214844 59.390625 C 140.757812 58.417969 142.285156 57.425781 143.816406 56.441406 C 147.261719 54.222656 156.875 47.15625 157.101562 46.734375 C 156.9375 46.613281 156.660156 46.53125 156.472656 46.421875 C 155.507812 45.851562 154.046875 45.007812 154.152344 43.867188 C 154.292969 42.316406 155.800781 40.574219 157.492188 40.042969 C 158.246094 39.800781 159.238281 39.691406 159.890625 40.191406 C 160.304688 40.503906 160.417969 41.015625 160.464844 41.46875 C 160.566406 42.46875 160.261719 43.421875 159.820312 44.339844 C 159.695312 44.605469 159.542969 44.863281 159.378906 45.113281 C 159.332031 45.1875 159.179688 45.335938 159.179688 45.425781 C 159.183594 45.539062 159.5625 45.734375 159.652344 45.800781 C 159.992188 46.058594 160.46875 46.425781 160.601562 46.816406 C 160.773438 47.316406 160.191406 48.027344 159.914062 48.425781 C 159.84375 48.527344 159.644531 48.890625 159.460938 48.859375 C 159.246094 48.824219 159.058594 48.574219 158.921875 48.453125 C 158.554688 48.125 158.152344 47.832031 157.789062 47.503906 C 157.734375 47.453125 157.683594 47.605469 157.632812 47.65625 C 157.523438 47.765625 157.414062 47.871094 157.308594 47.980469 C 157 48.289062 156.6875 48.59375 156.371094 48.898438 C 155.425781 49.808594 154.464844 50.703125 153.476562 51.578125 C 149.894531 54.742188 145.625 57.464844 141.070312 59.511719 C 140.03125 59.980469 139.003906 60.515625 137.902344 60.867188 C 137.707031 60.929688 136.945312 60.988281 136.828125 60.941406 Z M 158.375 44.769531 C 158.371094 44.765625 158.414062 44.617188 158.414062 44.613281 C 158.449219 44.511719 158.484375 44.414062 158.507812 44.3125 C 158.582031 44.015625 158.628906 43.707031 158.605469 43.398438 C 158.59375 43.226562 158.578125 43.054688 158.550781 42.882812 C 158.4375 42.234375 157.84375 41.316406 156.9375 41.507812 C 156.726562 41.550781 156.539062 41.644531 156.367188 41.753906 C 156.242188 41.835938 156.132812 41.933594 156.03125 42.035156 C 155.898438 42.164062 155.742188 42.328125 155.730469 42.507812 C 155.722656 42.640625 155.832031 42.75 155.921875 42.84375 C 156.117188 43.046875 156.339844 43.222656 156.550781 43.410156 C 156.996094 43.808594 157.886719 44.40625 158.375 44.769531 Z M 158.375 44.769531 " fill-opacity="1" fill-rule="evenodd"/><path fill="#000000" d="M 161.835938 97.046875 C 161.773438 97.164062 161.238281 97.152344 161.019531 97.230469 C 160.542969 97.402344 160.070312 97.582031 159.59375 97.757812 C 158.210938 98.277344 156.828125 98.816406 155.46875 99.394531 C 151.371094 101.132812 147.878906 103.460938 144.523438 106.371094 C 142.722656 107.929688 141.074219 109.644531 139.496094 111.429688 C 138.515625 112.542969 137.582031 113.707031 136.703125 114.90625 C 132.625 120.480469 127.148438 129.550781 118.878906 126.28125 C 117.726562 125.828125 116.660156 125.160156 115.757812 124.3125 C 110.917969 119.75 113.347656 111.4375 115.316406 106.121094 C 115.828125 104.730469 116.414062 103.367188 117.054688 102.03125 C 117.894531 100.285156 118.714844 98.460938 119.875 96.898438 C 120.09375 96.605469 120.824219 95.476562 121.316406 95.53125 C 121.675781 95.570312 120.855469 97.097656 120.808594 97.195312 C 119.910156 99.019531 119.089844 100.878906 118.34375 102.773438 C 116.457031 107.535156 114.132812 114.578125 117.574219 119.1875 C 121.449219 124.382812 127.699219 118.140625 130.675781 115.011719 C 131.351562 114.300781 132.007812 113.570312 132.648438 112.824219 C 133.511719 111.820312 134.355469 110.804688 135.21875 109.800781 C 135.660156 109.28125 136.253906 108.382812 136.675781 107.84375 C 137.695312 106.550781 138.820312 105.347656 139.992188 104.195312 C 143.070312 101.164062 146.585938 98.621094 150.277344 96.390625 C 153.101562 94.683594 156.066406 93.09375 159.308594 92.382812 C 159.140625 92.324219 159.050781 91.445312 159.015625 91.277344 C 158.769531 90.09375 158.007812 88.839844 157.855469 87.640625 C 157.371094 83.875 157.878906 79.507812 159.902344 76.214844 C 160.640625 75.007812 162.132812 73.082031 163.566406 72.660156 C 166.546875 71.785156 168.933594 77.253906 169.753906 79.378906 C 170.640625 81.679688 171.316406 84.695312 170.582031 87.117188 C 170.03125 88.925781 168.804688 90.527344 167.59375 91.945312 C 166.765625 92.917969 165.890625 93.914062 164.765625 94.546875 C 164.441406 94.425781 164.988281 95.207031 165.121094 95.527344 C 165.378906 96.15625 165.679688 96.761719 165.988281 97.363281 C 166.910156 99.171875 168.226562 101.070312 170.332031 101.550781 C 174.398438 102.480469 177.074219 97.511719 177.839844 94.320312 C 177.679688 94.492188 177.78125 93.851562 177.761719 93.617188 C 177.726562 93.167969 177.699219 92.71875 177.664062 92.269531 C 177.554688 90.867188 177.449219 89.46875 177.335938 88.070312 C 176.984375 83.835938 176.566406 79.621094 176.03125 75.40625 C 174.441406 62.851562 171.40625 48.03125 169.886719 35.460938 C 169.894531 35.472656 169.753906 35.234375 169.722656 35.179688 C 169.597656 34.953125 169.484375 34.71875 169.367188 34.492188 C 169.066406 33.90625 168.507812 33.15625 168.433594 32.492188 C 168.386719 32.035156 168.789062 31.53125 169.03125 31.1875 C 169.722656 30.1875 170.488281 29.242188 171.195312 28.257812 C 171.289062 28.128906 172.085938 26.8125 172.261719 26.894531 C 172.484375 27 172.621094 27.664062 172.710938 27.867188 C 173.128906 28.859375 173.601562 29.835938 174.035156 30.820312 C 175.433594 33.988281 176.878906 37.125 178.15625 40.347656 C 178.445312 41.074219 178.730469 41.796875 178.945312 42.550781 C 178.984375 42.679688 179.179688 43.214844 178.972656 43.296875 C 178.691406 43.398438 178.21875 42.960938 178.035156 42.816406 C 177.308594 42.238281 176.644531 41.582031 175.957031 40.957031 C 175.695312 42.109375 176.140625 43.746094 176.285156 44.902344 C 176.636719 47.730469 177.105469 50.542969 177.535156 53.359375 C 179.023438 63.117188 180.441406 72.898438 181.324219 82.734375 C 181.726562 87.246094 182.78125 92.675781 180.980469 97.019531 C 180.96875 96.875 180.855469 97.289062 180.785156 97.417969 C 180.625 97.703125 180.449219 97.976562 180.257812 98.238281 C 179.691406 99.023438 179.101562 99.789062 178.5 100.546875 C 176.75 102.746094 174.535156 104.914062 171.835938 105.863281 C 166.277344 107.816406 163.097656 101.429688 161.835938 97.046875 C 161.847656 97.027344 161.839844 96.996094 161.8125 96.964844 C 161.820312 96.992188 161.828125 97.019531 161.835938 97.046875 Z M 163.019531 90.167969 C 162.90625 90.167969 162.6875 89.734375 162.644531 89.664062 C 162.25 89.023438 161.910156 88.332031 161.613281 87.644531 C 160.792969 85.742188 160.277344 83.65625 160.484375 81.578125 C 160.558594 80.792969 160.773438 79.699219 161.554688 79.300781 C 162.316406 78.917969 163.316406 79.171875 164.039062 79.511719 C 165.667969 80.277344 167.214844 82.113281 167.65625 83.875 C 168.234375 86.183594 164.867188 89.113281 163.019531 90.167969 Z M 163.019531 90.167969 " fill-opacity="1" fill-rule="evenodd"/><path fill="#000000" d="M 136.566406 84.355469 C 136.246094 84.488281 135.949219 84.003906 135.609375 83.960938 C 134.734375 83.84375 133.808594 83.847656 132.929688 83.914062 C 130.191406 84.113281 126.839844 85.503906 124.246094 83.964844 C 122.746094 83.074219 122.234375 80.695312 122.453125 79.128906 C 122.898438 75.933594 125.71875 72.722656 128.582031 71.214844 C 131.433594 69.710938 134.667969 72.640625 135.953125 74.839844 C 138.523438 79.238281 140.066406 82.660156 138.992188 87.597656 C 138.785156 88.5625 138.605469 89.589844 138.023438 90.410156 C 136.8125 92.105469 135.5 94.144531 133.800781 95.136719 C 129.535156 97.632812 123.125 97.976562 119.914062 93.5625 C 119.421875 92.886719 119.105469 92.117188 118.835938 91.328125 C 118.714844 90.96875 118.109375 89.703125 117.980469 89.328125 C 117.363281 87.566406 116.839844 85.78125 116.421875 83.960938 C 115.132812 78.367188 114.621094 72.65625 114.140625 66.949219 C 113.667969 61.410156 113.210938 55.867188 112.339844 50.378906 C 111.824219 47.113281 111.054688 43.9375 109.808594 40.871094 C 109.351562 39.746094 108.863281 38.609375 108.273438 37.542969 C 107.851562 36.785156 107.183594 36.03125 106.988281 35.167969 C 106.707031 33.914062 107.019531 32.414062 107.234375 31.171875 C 107.359375 30.421875 107.53125 29.679688 107.785156 28.960938 C 107.835938 28.824219 107.941406 28.371094 108.128906 28.335938 C 108.339844 28.300781 108.636719 28.695312 108.746094 28.824219 C 109.292969 29.449219 109.773438 30.164062 110.222656 30.859375 C 112.292969 34.050781 113.441406 37.808594 114.207031 41.503906 C 116.804688 53.984375 116.050781 66.648438 118.296875 79.167969 C 119.148438 83.910156 119.679688 88.875 123.960938 91.679688 C 124.109375 91.773438 125.109375 92.335938 125.246094 92.347656 C 126.199219 92.4375 127.183594 92.417969 128.132812 92.328125 C 131.878906 91.96875 136.753906 88.382812 136.566406 84.355469 Z M 132.550781 79.476562 C 132.335938 80.035156 127.414062 80.148438 126.75 79.644531 C 125.410156 78.632812 126.917969 76.753906 128.039062 76.308594 C 131.335938 75.011719 132.765625 78.921875 132.550781 79.476562 Z M 132.550781 79.476562 " fill-opacity="1" fill-rule="evenodd"/><path fill="#000000" d="M 102.308594 76.558594 C 102.242188 76.621094 102.214844 76.824219 102.1875 76.90625 C 102.082031 77.207031 101.984375 77.507812 101.890625 77.808594 C 101.5625 78.851562 101.21875 79.890625 100.886719 80.929688 C 100.78125 81.257812 100.675781 81.585938 100.570312 81.910156 C 100.539062 82.003906 100.421875 82.207031 100.460938 82.308594 C 100.496094 82.402344 100.789062 82.5 100.878906 82.550781 C 101.179688 82.71875 101.46875 82.917969 101.714844 83.140625 C 101.710938 83.113281 101.796875 83.257812 101.804688 83.273438 C 101.859375 83.382812 101.917969 83.492188 101.976562 83.601562 C 102.140625 83.929688 102.277344 84.269531 102.429688 84.601562 C 102.886719 85.609375 103.351562 86.609375 103.851562 87.597656 C 104.769531 89.425781 105.839844 91.210938 106.960938 92.957031 C 107.433594 93.691406 107.890625 94.429688 108.332031 95.175781 C 108.53125 95.515625 108.796875 95.859375 108.929688 96.21875 C 109.132812 96.769531 107.507812 97.542969 107.042969 97.945312 C 105.257812 99.5 103.320312 100.917969 101.292969 102.253906 C 93.367188 107.472656 82.578125 112.648438 72.246094 109.050781 C 72.351562 109.128906 71.992188 108.933594 71.875 108.867188 C 71.625 108.722656 71.386719 108.570312 71.15625 108.40625 C 70.417969 107.886719 69.765625 107.328125 69.207031 106.675781 C 67.550781 104.734375 66.847656 102.449219 66.730469 100.097656 C 66.570312 96.738281 67.269531 93.476562 68.53125 90.289062 C 68.664062 89.945312 68.800781 89.605469 68.941406 89.265625 C 69.0625 88.972656 69.1875 88.683594 69.304688 88.394531 C 69.382812 88.199219 69.460938 88.003906 69.535156 87.808594 C 69.59375 87.652344 69.652344 87.496094 69.707031 87.335938 C 69.757812 87.203125 69.804688 87.070312 69.847656 86.9375 C 69.9375 86.664062 70.597656 85.121094 69.710938 85.3125 C 69.773438 85.4375 69.484375 85.511719 69.398438 85.632812 C 69.101562 86.042969 68.84375 86.472656 68.597656 86.90625 C 67.652344 88.585938 66.839844 90.304688 66.164062 92.074219 C 64.183594 97.269531 62.21875 103.714844 65.140625 108.898438 C 65.230469 108.878906 65.207031 109.042969 65.242188 109.117188 C 65.3125 109.273438 65.394531 109.425781 65.476562 109.578125 C 65.714844 110.042969 66.003906 110.492188 66.3125 110.929688 C 67.191406 112.175781 68.507812 113.230469 69.867188 114.121094 C 73.523438 116.515625 78.476562 116.503906 82.890625 116.035156 C 82.886719 116.019531 83.242188 115.953125 83.257812 115.949219 C 83.679688 115.859375 84.101562 115.773438 84.519531 115.671875 C 85.589844 115.410156 86.65625 115.109375 87.667969 114.714844 C 90.804688 113.488281 93.992188 112.214844 96.683594 110.398438 C 96.679688 110.402344 100.246094 108.105469 101.257812 107.449219 C 104.320312 105.449219 107.410156 103.050781 109.304688 100.191406 C 109.371094 100.089844 109.597656 99.648438 109.644531 99.558594 C 109.96875 98.902344 110.238281 98.21875 110.441406 97.53125 C 110.945312 95.855469 111.171875 93.964844 110.753906 92.257812 C 110.488281 91.164062 109.957031 90.152344 109.4375 89.128906 C 109.53125 89.160156 109.371094 88.972656 109.332031 88.894531 C 109.265625 88.757812 109.191406 88.625 109.117188 88.488281 C 108.871094 88.023438 108.625 87.558594 108.375 87.09375 C 107.660156 85.777344 106.53125 84.472656 106.117188 83.058594 C 106.011719 82.699219 106.453125 82.949219 106.640625 83.042969 C 107.113281 83.277344 107.574219 83.546875 108.078125 83.734375 C 108.238281 83.796875 108.535156 83.894531 108.59375 83.679688 C 108.738281 83.128906 108.03125 82.351562 107.710938 81.933594 C 106.671875 80.578125 104.375 78.40625 102.308594 76.558594 Z M 102.308594 76.558594 " fill-opacity="1" fill-rule="evenodd"/></svg>