<svg xmlns="http://www.w3.org/2000/svg" xmlns:xlink="http://www.w3.org/1999/xlink" width="500" zoomAndPan="magnify" viewBox="0 0 375 149.999998" height="200" preserveAspectRatio="xMidYMid meet" version="1.0"><path fill="#000000" d="M 306.464844 21.433594 C 307.1875 21.164062 308.671875 21.636719 309.375 21.773438 C 312.410156 22.378906 315.34375 23.460938 318.148438 24.722656 C 328.59375 29.417969 336.160156 38.230469 340.839844 48.292969 C 342.015625 50.804688 342.980469 53.449219 343.578125 56.144531 C 343.738281 56.871094 344.222656 58.199219 343.890625 58.949219 C 343.589844 59.597656 342.832031 60.101562 342.3125 60.566406 C 341.210938 61.5625 340.1875 62.441406 338.921875 63.195312 C 337.289062 61.726562 335 60.683594 333.148438 59.460938 C 332.582031 55.101562 330.664062 50.746094 328.683594 46.855469 C 325.316406 40.242188 320.851562 34.179688 315.433594 29.019531 C 312.972656 26.683594 309.488281 23.046875 306.464844 21.433594 Z M 306.464844 21.433594 " fill-opacity="1" fill-rule="evenodd"/><path fill="#000000" d="M 306.464844 114.050781 C 307.1875 114.320312 308.671875 113.847656 309.375 113.710938 C 312.410156 113.105469 315.34375 112.023438 318.148438 110.757812 C 328.59375 106.066406 336.160156 97.253906 340.839844 87.191406 C 342.015625 84.679688 342.980469 82.035156 343.578125 79.339844 C 343.738281 78.609375 344.222656 77.285156 343.890625 76.535156 C 343.589844 75.886719 342.832031 75.382812 342.3125 74.917969 C 341.210938 73.921875 340.1875 73.042969 338.921875 72.289062 C 337.289062 73.757812 335 74.800781 333.148438 76.023438 C 332.582031 80.382812 330.664062 84.738281 328.683594 88.628906 C 325.316406 95.242188 320.851562 101.304688 315.433594 106.464844 C 312.972656 108.800781 309.488281 112.4375 306.464844 114.050781 Z M 306.464844 114.050781 " fill-opacity="1" fill-rule="evenodd"/><path fill="#000000" d="M 352.183594 61.941406 C 351.894531 62.089844 351.628906 62.230469 351.5625 62.277344 C 349.90625 63.539062 348.273438 64.71875 346.417969 65.714844 C 345.789062 66.058594 345.132812 66.34375 344.488281 66.660156 C 344.382812 66.710938 344.097656 66.84375 343.945312 66.992188 C 343.738281 67.191406 343.683594 67.429688 343.738281 67.664062 C 343.796875 67.894531 343.96875 68.089844 344.269531 68.183594 C 344.5 68.25 344.867188 68.234375 344.980469 68.238281 C 345.167969 68.242188 345.730469 68.449219 346.464844 68.734375 C 348.410156 69.476562 351.457031 70.824219 352.859375 71.589844 C 353.023438 71.679688 353.503906 72 353.917969 72.28125 C 353.664062 72.441406 353.402344 72.59375 353.261719 72.648438 C 351.871094 73.167969 350.226562 73.695312 349.328125 74.9375 C 348.996094 75.398438 348.894531 75.9375 348.894531 76.503906 C 348.902344 77.175781 349.101562 77.890625 349.121094 78.5 C 349.179688 80.140625 348.882812 81.570312 347.890625 82.929688 C 347.121094 84.003906 346.167969 85.015625 344.980469 85.664062 C 344.785156 85.769531 343.128906 86.554688 343.128906 86.554688 C 342.898438 86.667969 342.773438 86.914062 342.820312 87.164062 C 342.867188 87.410156 343.085938 87.597656 343.335938 87.617188 C 343.335938 87.617188 345.878906 87.789062 346.636719 87.691406 C 350.546875 87.199219 352.929688 84.773438 354.644531 81.519531 C 354.894531 81.050781 355.082031 80.457031 355.277344 79.875 C 355.449219 79.394531 355.621094 78.921875 355.910156 78.585938 C 356.183594 78.269531 356.585938 78.054688 357 77.851562 C 357.519531 77.59375 358.046875 77.355469 358.460938 77.050781 C 359.738281 76.121094 360.636719 74.945312 361.464844 73.632812 C 361.785156 73.117188 362.085938 72.589844 362.371094 72.0625 C 362.523438 71.808594 363.394531 70.230469 363.394531 70.230469 C 363.546875 69.960938 363.441406 69.625 363.167969 69.476562 C 363.167969 69.476562 362.28125 69.007812 362.121094 68.925781 C 361.542969 68.652344 359.957031 67.953125 358.773438 67.4375 C 358.761719 67.4375 363.328125 66.070312 363.328125 66.070312 C 363.613281 65.980469 363.789062 65.691406 363.71875 65.40625 C 363.71875 65.40625 363.246094 63.464844 362.28125 61.628906 C 361.601562 60.335938 360.671875 59.109375 359.519531 58.5625 C 359.09375 58.355469 358.519531 58.203125 357.980469 58.03125 C 357.542969 57.898438 357.128906 57.761719 356.875 57.535156 C 356.78125 57.453125 356.769531 57.308594 356.75 57.167969 C 356.691406 56.890625 356.65625 56.601562 356.597656 56.386719 C 356.3125 55.359375 355.863281 54.324219 355.300781 53.417969 C 352.953125 49.707031 347.0625 46.960938 342.855469 47.191406 C 342.578125 47.207031 342.347656 47.414062 342.3125 47.675781 C 342.277344 47.945312 342.441406 48.199219 342.703125 48.28125 C 344.0625 48.726562 345.1875 50.003906 346.15625 51.519531 C 347.695312 53.953125 348.765625 57.03125 349.46875 58.800781 C 349.949219 60.019531 350.421875 60.789062 351.550781 61.550781 C 351.757812 61.691406 351.964844 61.824219 352.183594 61.941406 Z M 345.601562 86.605469 C 346.914062 85.878906 347.984375 84.761719 348.835938 83.570312 C 349.972656 82 350.34375 80.355469 350.273438 78.457031 C 350.25 77.945312 350.113281 77.359375 350.066406 76.785156 C 350.019531 76.351562 350.019531 75.925781 350.273438 75.582031 C 351.042969 74.519531 352.492188 74.136719 353.675781 73.691406 C 354.066406 73.539062 355.253906 72.75 355.253906 72.75 C 355.414062 72.644531 355.496094 72.476562 355.496094 72.292969 C 355.507812 72.109375 355.414062 71.941406 355.265625 71.835938 C 355.265625 71.835938 353.746094 70.789062 353.425781 70.613281 C 351.78125 69.714844 347.949219 68.042969 346.109375 67.40625 C 345.984375 67.363281 345.878906 67.324219 345.765625 67.292969 C 346.179688 67.101562 346.582031 66.910156 346.984375 66.695312 C 348.894531 65.667969 350.558594 64.457031 352.273438 63.15625 C 352.410156 63.050781 353.503906 62.578125 353.757812 62.414062 C 353.929688 62.296875 353.988281 62.160156 354.011719 62.097656 C 354.066406 61.953125 354.101562 61.691406 353.828125 61.46875 C 353.734375 61.390625 353.21875 61.1875 353.160156 61.164062 C 352.828125 61.023438 352.503906 60.835938 352.207031 60.632812 C 351.296875 60.019531 350.929688 59.382812 350.539062 58.398438 C 349.824219 56.582031 348.71875 53.429688 347.132812 50.933594 C 346.535156 49.976562 345.84375 49.117188 345.097656 48.445312 C 348.59375 49.019531 352.550781 51.210938 354.320312 54 C 354.828125 54.820312 355.230469 55.753906 355.484375 56.683594 C 355.550781 56.925781 355.574219 57.269531 355.65625 57.570312 C 355.734375 57.886719 355.886719 58.164062 356.09375 58.355469 C 356.378906 58.617188 356.816406 58.824219 357.300781 58.992188 C 357.875 59.191406 358.542969 59.339844 359.015625 59.5625 C 359.957031 60.019531 360.691406 61.066406 361.257812 62.136719 C 361.867188 63.296875 362.257812 64.5 362.453125 65.160156 C 362.453125 65.160156 356.957031 66.808594 356.957031 66.808594 C 356.738281 66.878906 356.574219 67.074219 356.550781 67.308594 C 356.542969 67.542969 356.679688 67.757812 356.898438 67.851562 C 356.898438 67.851562 360.671875 69.472656 361.601562 69.925781 C 361.671875 69.960938 361.890625 70.078125 362.109375 70.191406 C 361.84375 70.675781 361.464844 71.363281 361.371094 71.523438 C 361.085938 72.039062 360.796875 72.550781 360.476562 73.046875 C 359.726562 74.238281 358.933594 75.3125 357.773438 76.15625 C 357.402344 76.425781 356.933594 76.628906 356.472656 76.855469 C 355.921875 77.132812 355.402344 77.441406 355.035156 77.867188 C 354.65625 78.296875 354.402344 78.894531 354.195312 79.515625 C 354.011719 80.042969 353.851562 80.585938 353.632812 81.011719 C 352.089844 83.921875 349.996094 86.144531 346.5 86.582031 C 346.292969 86.609375 345.972656 86.613281 345.601562 86.605469 Z M 345.601562 86.605469 " fill-opacity="1" fill-rule="evenodd"/><path fill="#000000" d="M 339.265625 72.480469 C 339.402344 72.382812 340.230469 71.789062 340.324219 71.71875 C 341.601562 70.710938 344.039062 68.378906 345.199219 67.253906 C 345.316406 67.152344 345.375 67.015625 345.375 66.871094 C 345.375 66.746094 345.339844 66.582031 345.199219 66.425781 C 345.097656 66.316406 344.84375 66.160156 344.785156 66.117188 C 344.382812 65.828125 343.992188 65.542969 343.589844 65.257812 C 342.0625 64.152344 340.554688 62.929688 338.898438 61.984375 C 338.65625 61.84375 338.335938 61.902344 338.160156 62.125 C 337.703125 62.695312 336.503906 63.257812 335.875 63.679688 C 334.136719 64.847656 332.332031 65.917969 330.570312 67.042969 C 330.316406 67.105469 330.214844 67.339844 330.203125 67.386719 C 330.15625 67.503906 330.085938 67.757812 330.339844 68 C 330.375 68.023438 330.605469 68.148438 330.6875 68.203125 C 330.859375 68.316406 331.03125 68.425781 331.203125 68.539062 C 331.800781 68.9375 332.421875 69.304688 333.042969 69.667969 C 334.835938 70.722656 336.621094 71.816406 338.496094 72.71875 C 338.679688 72.808594 338.898438 72.792969 339.070312 72.683594 C 339.152344 72.632812 339.21875 72.5625 339.265625 72.480469 Z M 343.933594 66.902344 C 342.691406 68.09375 340.703125 69.976562 339.597656 70.847656 C 339.507812 70.917969 338.96875 71.265625 338.632812 71.53125 C 336.917969 70.679688 335.285156 69.675781 333.628906 68.710938 C 333.03125 68.359375 332.433594 68.003906 331.847656 67.617188 L 331.8125 67.589844 C 333.386719 66.597656 334.976562 65.636719 336.527344 64.601562 C 337.105469 64.214844 338.082031 63.699219 338.703125 63.175781 C 340.175781 64.0625 341.519531 65.164062 342.910156 66.160156 C 343.257812 66.40625 343.601562 66.652344 343.933594 66.902344 Z M 330.652344 68.140625 Z M 330.652344 68.140625 " fill-opacity="1" fill-rule="evenodd"/><path fill="#000000" d="M 363.28125 65.476562 L 375 67.988281 L 363.28125 69.894531 L 358.371094 67.453125 Z M 363.28125 65.476562 " fill-opacity="1" fill-rule="evenodd"/><path fill="#000000" d="M 68.503906 16.667969 C 67.78125 16.402344 66.296875 16.875 65.59375 17.011719 C 62.558594 17.613281 59.625 18.699219 56.820312 19.960938 C 46.375 24.65625 38.808594 33.464844 34.125 43.527344 C 32.953125 46.039062 31.988281 48.683594 31.386719 51.382812 C 31.226562 52.109375 30.746094 53.4375 31.078125 54.1875 C 31.378906 54.832031 32.136719 55.335938 32.652344 55.800781 C 33.757812 56.800781 34.78125 57.679688 36.046875 58.429688 C 37.679688 56.964844 39.96875 55.921875 41.820312 54.695312 C 42.382812 50.335938 44.304688 45.980469 46.28125 42.089844 C 49.652344 35.480469 54.117188 29.417969 59.53125 24.253906 C 61.996094 21.921875 65.480469 18.28125 68.503906 16.667969 Z M 68.503906 16.667969 " fill-opacity="1" fill-rule="evenodd"/><path fill="#000000" d="M 68.503906 109.289062 C 67.78125 109.554688 66.296875 109.082031 65.59375 108.945312 C 62.558594 108.34375 59.625 107.257812 56.820312 105.996094 C 46.375 101.300781 38.808594 92.492188 34.125 82.429688 C 32.953125 79.917969 31.988281 77.269531 31.386719 74.574219 C 31.226562 73.847656 30.746094 72.519531 31.078125 71.769531 C 31.378906 71.125 32.136719 70.621094 32.652344 70.15625 C 33.757812 69.15625 34.78125 68.277344 36.046875 67.527344 C 37.679688 68.992188 39.96875 70.035156 41.820312 71.261719 C 42.382812 75.621094 44.304688 79.976562 46.28125 83.867188 C 49.652344 90.476562 54.117188 96.539062 59.53125 101.703125 C 61.996094 104.035156 65.480469 107.675781 68.503906 109.289062 Z M 68.503906 109.289062 " fill-opacity="1" fill-rule="evenodd"/><path fill="#000000" d="M 22.785156 57.179688 C 23.074219 57.328125 23.335938 57.464844 23.40625 57.511719 C 25.0625 58.773438 26.695312 59.953125 28.546875 60.953125 C 29.179688 61.292969 29.835938 61.578125 30.480469 61.894531 C 30.582031 61.945312 30.871094 62.078125 31.019531 62.226562 C 31.226562 62.429688 31.285156 62.667969 31.226562 62.898438 C 31.171875 63.128906 30.996094 63.328125 30.699219 63.417969 C 30.46875 63.484375 30.101562 63.472656 29.984375 63.472656 C 29.800781 63.476562 29.238281 63.683594 28.5 63.96875 C 26.558594 64.710938 23.511719 66.058594 22.105469 66.824219 C 21.945312 66.914062 21.460938 67.234375 21.046875 67.515625 C 21.300781 67.675781 21.566406 67.828125 21.703125 67.882812 C 23.097656 68.402344 24.742188 68.933594 25.636719 70.175781 C 25.972656 70.636719 26.074219 71.171875 26.074219 71.738281 C 26.0625 72.410156 25.867188 73.125 25.84375 73.734375 C 25.789062 75.375 26.085938 76.804688 27.074219 78.167969 C 27.847656 79.238281 28.800781 80.253906 29.984375 80.898438 C 30.179688 81.003906 31.835938 81.789062 31.835938 81.789062 C 32.066406 81.902344 32.195312 82.152344 32.148438 82.398438 C 32.101562 82.648438 31.882812 82.832031 31.628906 82.851562 C 31.628906 82.851562 29.089844 83.023438 28.328125 82.925781 C 24.417969 82.4375 22.039062 80.007812 20.324219 76.757812 C 20.070312 76.285156 19.886719 75.691406 19.691406 75.113281 C 19.519531 74.628906 19.347656 74.15625 19.058594 73.824219 C 18.78125 73.503906 18.378906 73.292969 17.964844 73.085938 C 17.449219 72.832031 16.917969 72.59375 16.503906 72.285156 C 15.230469 71.355469 14.332031 70.183594 13.503906 68.867188 C 13.183594 68.351562 12.882812 67.828125 12.59375 67.296875 C 12.445312 67.042969 11.570312 65.46875 11.570312 65.46875 C 11.421875 65.195312 11.527344 64.859375 11.800781 64.710938 C 11.800781 64.710938 12.6875 64.246094 12.847656 64.164062 C 13.421875 63.886719 15.011719 63.1875 16.195312 62.671875 C 16.207031 62.671875 11.640625 61.304688 11.640625 61.304688 C 11.351562 61.21875 11.179688 60.929688 11.25 60.640625 C 11.25 60.640625 11.722656 58.699219 12.6875 56.863281 C 13.367188 55.570312 14.296875 54.347656 15.449219 53.796875 C 15.875 53.59375 16.449219 53.4375 16.988281 53.265625 C 17.425781 53.132812 17.839844 53 18.09375 52.773438 C 18.183594 52.691406 18.195312 52.542969 18.21875 52.402344 C 18.277344 52.125 18.3125 51.835938 18.367188 51.621094 C 18.65625 50.59375 19.105469 49.5625 19.667969 48.652344 C 22.015625 44.941406 27.902344 42.199219 32.113281 42.429688 C 32.390625 42.445312 32.621094 42.648438 32.652344 42.914062 C 32.6875 43.179688 32.527344 43.433594 32.261719 43.519531 C 30.90625 43.960938 29.777344 45.238281 28.8125 46.757812 C 27.269531 49.191406 26.203125 52.265625 25.5 54.035156 C 25.015625 55.253906 24.546875 56.027344 23.417969 56.785156 C 23.210938 56.925781 23.003906 57.058594 22.785156 57.179688 Z M 29.363281 81.839844 C 28.054688 81.113281 26.984375 79.996094 26.132812 78.808594 C 24.992188 77.234375 24.625 75.589844 24.695312 73.695312 C 24.71875 73.179688 24.855469 72.59375 24.902344 72.019531 C 24.949219 71.589844 24.949219 71.164062 24.695312 70.816406 C 23.925781 69.753906 22.476562 69.371094 21.289062 68.925781 C 20.898438 68.777344 19.714844 67.984375 19.714844 67.984375 C 19.554688 67.878906 19.472656 67.710938 19.472656 67.527344 C 19.460938 67.347656 19.554688 67.175781 19.703125 67.070312 C 19.703125 67.070312 21.222656 66.023438 21.542969 65.851562 C 23.1875 64.953125 27.019531 63.277344 28.859375 62.640625 C 28.984375 62.597656 29.089844 62.5625 29.203125 62.527344 C 28.789062 62.335938 28.386719 62.144531 27.984375 61.929688 C 26.074219 60.902344 24.40625 59.691406 22.695312 58.394531 C 22.554688 58.285156 21.460938 57.8125 21.210938 57.648438 C 21.039062 57.53125 20.980469 57.394531 20.957031 57.332031 C 20.898438 57.1875 20.863281 56.929688 21.140625 56.703125 C 21.234375 56.625 21.75 56.421875 21.808594 56.402344 C 22.140625 56.261719 22.464844 56.074219 22.761719 55.867188 C 23.671875 55.253906 24.039062 54.621094 24.429688 53.636719 C 25.144531 51.820312 26.246094 48.667969 27.835938 46.171875 C 28.433594 45.210938 29.121094 44.351562 29.871094 43.683594 L 29.871094 43.679688 C 26.375 44.253906 22.417969 46.445312 20.644531 49.238281 C 20.140625 50.058594 19.738281 50.988281 19.484375 51.917969 C 19.414062 52.160156 19.394531 52.503906 19.3125 52.808594 C 19.230469 53.121094 19.082031 53.398438 18.875 53.589844 C 18.585938 53.855469 18.152344 54.058594 17.667969 54.226562 C 17.09375 54.425781 16.425781 54.574219 15.953125 54.800781 C 15.011719 55.253906 14.273438 56.300781 13.710938 57.371094 C 13.101562 58.53125 12.710938 59.738281 12.515625 60.394531 C 12.515625 60.394531 18.011719 62.042969 18.011719 62.042969 C 18.230469 62.113281 18.390625 62.3125 18.414062 62.546875 C 18.425781 62.777344 18.289062 62.996094 18.070312 63.089844 C 18.070312 63.089844 14.296875 64.707031 13.367188 65.164062 C 13.296875 65.199219 13.078125 65.3125 12.859375 65.425781 C 13.125 65.910156 13.503906 66.601562 13.597656 66.761719 C 13.882812 67.273438 14.171875 67.785156 14.492188 68.285156 C 15.242188 69.476562 16.035156 70.546875 17.195312 71.390625 C 17.5625 71.660156 18.035156 71.863281 18.496094 72.09375 C 19.046875 72.367188 19.566406 72.679688 19.933594 73.101562 C 20.3125 73.53125 20.566406 74.132812 20.773438 74.753906 C 20.957031 75.277344 21.117188 75.820312 21.335938 76.246094 C 22.878906 79.15625 24.972656 81.378906 28.46875 81.816406 C 28.675781 81.84375 28.996094 81.847656 29.363281 81.839844 Z M 29.363281 81.839844 " fill-opacity="1" fill-rule="evenodd"/><path fill="#000000" d="M 35.703125 67.71875 C 35.5625 67.617188 34.734375 67.027344 34.644531 66.953125 C 33.367188 65.949219 30.929688 63.613281 29.765625 62.488281 C 29.652344 62.386719 29.59375 62.25 29.59375 62.105469 C 29.59375 61.984375 29.628906 61.816406 29.765625 61.660156 C 29.871094 61.550781 30.125 61.394531 30.179688 61.351562 C 30.582031 61.066406 30.976562 60.78125 31.378906 60.496094 C 32.90625 59.390625 34.414062 58.164062 36.070312 57.222656 C 36.3125 57.078125 36.632812 57.136719 36.804688 57.359375 C 37.265625 57.929688 38.460938 58.492188 39.09375 58.917969 C 40.832031 60.082031 42.636719 61.152344 44.398438 62.277344 C 44.648438 62.339844 44.753906 62.574219 44.765625 62.621094 C 44.8125 62.738281 44.878906 62.992188 44.625 63.234375 C 44.59375 63.261719 44.363281 63.382812 44.28125 63.4375 C 44.109375 63.550781 43.9375 63.660156 43.765625 63.777344 C 43.167969 64.171875 42.546875 64.539062 41.925781 64.902344 C 40.128906 65.957031 38.347656 67.050781 36.472656 67.953125 C 36.289062 68.042969 36.070312 68.027344 35.898438 67.917969 C 35.816406 67.867188 35.746094 67.796875 35.703125 67.71875 Z M 31.03125 62.136719 C 32.273438 63.328125 34.265625 65.214844 35.367188 66.085938 C 35.460938 66.152344 36 66.5 36.335938 66.765625 C 38.046875 65.914062 39.679688 64.910156 41.335938 63.945312 C 41.9375 63.59375 42.535156 63.238281 43.121094 62.851562 L 43.15625 62.828125 C 41.578125 61.835938 39.992188 60.875 38.4375 59.835938 C 37.863281 59.453125 36.886719 58.933594 36.265625 58.410156 C 34.792969 59.296875 33.449219 60.398438 32.054688 61.394531 C 31.710938 61.640625 31.367188 61.886719 31.03125 62.136719 Z M 44.316406 63.375 Z M 44.316406 63.375 " fill-opacity="1" fill-rule="evenodd"/><path fill="#000000" d="M 11.6875 60.714844 L -0.0351562 63.222656 L 11.6875 65.132812 L 16.597656 62.6875 Z M 11.6875 60.714844 " fill-opacity="1" fill-rule="evenodd"/><path fill="#000000" d="M 155.453125 106.871094 C 155.089844 106.9375 154.9375 105.765625 155.140625 105.210938 C 155.464844 104.335938 155.96875 103.445312 156.636719 102.722656 C 156.980469 102.355469 157.394531 102 157.898438 101.796875 C 158.15625 101.691406 158.492188 101.585938 158.789062 101.621094 C 159.300781 101.683594 159.808594 102.183594 160.144531 102.484375 C 161.109375 103.347656 162.160156 104.347656 162.929688 105.199219 C 162.917969 105.191406 162.953125 105.226562 162.964844 105.238281 C 162.988281 105.261719 163.015625 105.28125 163.039062 105.308594 C 163.121094 105.386719 163.195312 105.46875 163.273438 105.550781 C 163.492188 105.792969 163.789062 106.058594 163.878906 106.367188 C 163.949219 106.617188 163.8125 106.941406 163.734375 107.179688 C 163.546875 107.757812 163.335938 108.34375 162.96875 108.855469 C 162.957031 108.824219 162.464844 108.847656 162.429688 108.851562 C 161.84375 108.855469 161.257812 108.894531 160.675781 108.941406 C 158.507812 109.121094 155.738281 109.707031 154.847656 111.617188 C 154.898438 111.617188 154.808594 111.699219 154.804688 111.742188 C 154.738281 112.1875 154.789062 112.65625 154.832031 113.097656 C 154.929688 114.078125 155.117188 115.046875 155.351562 116.011719 C 156.089844 119.027344 156.984375 122.5625 157.484375 125.617188 C 157.5 125.710938 157.460938 125.996094 157.46875 126.105469 C 157.496094 126.527344 157.546875 126.941406 157.597656 127.359375 C 157.800781 129.140625 157.925781 130.972656 157.648438 132.753906 C 157.558594 133.339844 157.394531 133.960938 157.023438 134.46875 C 156.933594 134.589844 156.648438 134.996094 156.421875 134.820312 C 156.199219 134.644531 156.40625 134.085938 156.449219 133.882812 C 156.609375 133.078125 156.679688 132.25 156.703125 131.4375 C 156.796875 128.222656 156.027344 125.222656 155.289062 122.089844 C 155.1875 122.050781 155.136719 121.476562 155.117188 121.390625 C 154.945312 120.6875 154.777344 119.984375 154.589844 119.285156 C 153.816406 116.394531 152.605469 113.140625 153.652344 110.183594 C 153.613281 110.132812 153.707031 109.941406 153.722656 109.894531 C 153.839844 109.5625 154.011719 109.242188 154.238281 108.957031 C 155.183594 107.765625 156.40625 107.082031 157.964844 106.59375 C 158.398438 106.457031 158.992188 106.328125 159.445312 106.25 C 159.496094 106.242188 159.863281 106.21875 159.867188 106.15625 C 159.878906 105.996094 159.519531 105.753906 159.40625 105.652344 C 158.882812 105.179688 158.167969 104.605469 157.332031 104.800781 C 156.945312 104.890625 156.453125 105.152344 156.183594 105.535156 C 155.785156 106.101562 155.671875 106.828125 155.453125 106.871094 Z M 155.453125 106.871094 " fill-opacity="1" fill-rule="evenodd"/><path fill="#000000" d="M 280.667969 73.15625 C 280.6875 73.140625 280.699219 73.117188 280.675781 73.085938 C 280.667969 73.109375 280.667969 73.132812 280.667969 73.15625 C 280.585938 73.199219 280.339844 73.199219 280.242188 73.25 C 279.917969 73.414062 279.605469 73.589844 279.289062 73.765625 C 278.328125 74.292969 277.457031 74.910156 276.59375 75.574219 C 274.203125 77.414062 271.472656 80.371094 268.183594 80.328125 C 268.230469 80.152344 267.828125 79.679688 267.75 79.554688 C 267.246094 78.742188 266.707031 77.957031 266.195312 77.148438 C 264.148438 73.898438 260.734375 69.28125 256.417969 72.125 C 253.007812 74.375 250.191406 78.757812 249.574219 82.792969 C 249.070312 86.058594 250.535156 89.1875 253.878906 90.164062 C 257.714844 91.28125 262.660156 89.003906 265.925781 87.085938 C 265.949219 87.070312 266.171875 87.476562 266.195312 87.527344 C 266.351562 87.816406 266.484375 88.113281 266.628906 88.40625 C 267.03125 89.273438 267.433594 90.242188 267.390625 91.21875 C 267.367188 91.230469 267.109375 91.472656 267.054688 91.527344 C 266.863281 91.722656 266.664062 91.910156 266.460938 92.097656 C 265.78125 92.722656 265.097656 93.339844 264.4375 93.980469 C 262.570312 95.773438 260.613281 97.445312 258.609375 99.089844 C 252.90625 103.785156 245.402344 110.371094 237.507812 110.285156 C 229.074219 110.195312 223.214844 103.136719 224.042969 94.890625 C 224.277344 92.605469 224.722656 90.355469 225.316406 88.136719 C 225.417969 87.726562 226.03125 86.183594 225.742188 85.785156 C 225.484375 85.425781 224.476562 87.011719 224.398438 87.128906 C 223.382812 88.800781 222.765625 90.617188 222.375 92.53125 C 221.367188 97.382812 221.503906 102.886719 223.582031 107.457031 C 227.25 115.507812 237.070312 118.394531 244.976562 115.246094 C 249.070312 113.621094 252.671875 110.84375 256.105469 108.136719 C 259.316406 105.605469 262.613281 102.972656 265.0625 99.65625 C 266.394531 97.855469 268.339844 95.550781 268.902344 93.332031 C 269.539062 90.84375 269.371094 88.164062 269.023438 85.738281 C 269.011719 85.679688 269.503906 85.492188 269.558594 85.464844 C 270.085938 85.199219 270.621094 84.945312 271.148438 84.679688 C 273.183594 83.667969 275.308594 82.695312 277.03125 81.195312 C 277.152344 81.085938 277.054688 81.523438 277.085938 81.6875 C 277.144531 81.96875 277.242188 82.242188 277.34375 82.511719 C 277.644531 83.304688 277.96875 84.082031 278.339844 84.84375 C 279.492188 87.203125 281.570312 89.054688 284.121094 89.734375 C 285.230469 90.027344 286.414062 90.222656 287.566406 90.128906 C 292.351562 89.71875 295.117188 84.894531 296.523438 80.804688 C 296.523438 80.800781 296.535156 80.796875 296.535156 80.796875 L 296.523438 80.804688 C 296.535156 80.910156 297.027344 82.042969 297.09375 82.164062 C 297.621094 83.082031 298.257812 83.960938 298.984375 84.730469 C 301.246094 87.136719 304.96875 87.8125 307.976562 86.5 C 309.980469 85.625 311.109375 83.980469 311.980469 82.046875 C 313.769531 78.078125 312.921875 72.0625 311.445312 68.023438 C 311.488281 67.824219 311.210938 68.363281 311.074219 68.519531 C 310.773438 68.882812 310.4375 69.230469 310.136719 69.589844 C 309.21875 70.660156 308.132812 71.691406 307.363281 72.878906 C 307.296875 72.972656 308.648438 74.597656 308.761719 74.851562 C 309.789062 77.105469 308.011719 79.398438 305.671875 79.527344 C 302.230469 79.714844 300.28125 76.722656 299.890625 73.660156 C 299.757812 72.605469 299.78125 71.53125 299.589844 70.484375 C 299.535156 70.144531 299.367188 69.578125 298.929688 69.589844 C 298.449219 69.605469 298.148438 70.289062 297.980469 70.65625 C 297.441406 71.878906 297.386719 73.242188 297.0625 74.523438 C 296.726562 75.820312 296 76.9375 295.285156 78.054688 C 293.964844 80.140625 292.375 82.738281 289.925781 83.613281 C 286.996094 84.652344 283.214844 82.804688 281.730469 80.195312 C 280.65625 78.296875 280.339844 75.324219 280.667969 73.15625 Z M 267.390625 91.21875 Z M 253.890625 81.902344 C 253.992188 80.605469 254.707031 79.320312 255.601562 78.390625 C 256.039062 77.9375 256.585938 77.453125 257.269531 77.574219 C 258.601562 77.808594 259.929688 78.902344 260.804688 79.878906 C 260.980469 80.082031 261.585938 80.644531 261.496094 80.96875 C 261.394531 81.289062 260.914062 81.480469 260.648438 81.597656 C 259.808594 81.964844 258.878906 82.1875 257.984375 82.316406 C 257.023438 82.453125 254.40625 82.503906 253.890625 81.902344 Z M 253.890625 81.902344 " fill-opacity="1" fill-rule="evenodd"/><path fill="#000000" d="M 231.226562 74.226562 C 231.15625 74.304688 231.125 74.570312 231.09375 74.675781 C 230.980469 75.0625 230.875 75.449219 230.769531 75.839844 C 230.414062 77.183594 230.042969 78.523438 229.679688 79.867188 C 229.566406 80.289062 229.449219 80.710938 229.335938 81.132812 C 229.300781 81.253906 229.175781 81.515625 229.21875 81.644531 C 229.257812 81.765625 229.574219 81.894531 229.671875 81.960938 C 230 82.175781 230.3125 82.433594 230.582031 82.71875 C 230.578125 82.6875 230.671875 82.871094 230.679688 82.890625 C 230.738281 83.03125 230.800781 83.171875 230.863281 83.3125 C 231.042969 83.738281 231.191406 84.175781 231.359375 84.609375 C 231.855469 85.902344 232.359375 87.195312 232.902344 88.476562 C 233.902344 90.832031 235.066406 93.136719 236.28125 95.390625 C 236.796875 96.339844 237.292969 97.289062 237.773438 98.253906 C 237.992188 98.691406 238.277344 99.132812 238.421875 99.601562 C 238.644531 100.308594 236.878906 101.308594 236.371094 101.832031 C 234.429688 103.832031 232.324219 105.667969 230.125 107.386719 C 221.507812 114.125 209.773438 120.804688 198.542969 116.160156 C 198.660156 116.265625 198.269531 116.011719 198.136719 115.921875 C 197.867188 115.738281 197.609375 115.539062 197.355469 115.328125 C 196.554688 114.660156 195.84375 113.941406 195.238281 113.09375 C 193.4375 110.589844 192.671875 107.640625 192.546875 104.605469 C 192.371094 100.269531 193.132812 96.058594 194.503906 91.945312 C 194.648438 91.503906 194.796875 91.0625 194.949219 90.625 C 195.082031 90.25 195.214844 89.875 195.34375 89.5 C 195.429688 89.25 195.511719 88.996094 195.59375 88.746094 C 195.660156 88.542969 195.722656 88.339844 195.785156 88.136719 C 195.835938 87.964844 195.886719 87.792969 195.933594 87.621094 C 196.03125 87.269531 196.753906 85.277344 195.785156 85.519531 C 195.851562 85.683594 195.539062 85.78125 195.445312 85.933594 C 195.125 86.464844 194.84375 87.019531 194.578125 87.582031 C 193.546875 89.75 192.664062 91.96875 191.929688 94.25 C 189.777344 100.957031 187.640625 109.277344 190.820312 115.964844 C 190.917969 115.9375 190.890625 116.152344 190.925781 116.246094 C 191.007812 116.445312 191.09375 116.644531 191.179688 116.839844 C 191.445312 117.445312 191.757812 118.023438 192.09375 118.589844 C 193.050781 120.199219 194.476562 121.558594 195.953125 122.707031 C 199.929688 125.796875 205.316406 125.78125 210.117188 125.179688 C 210.113281 125.15625 210.496094 125.070312 210.511719 125.066406 C 210.972656 124.949219 211.433594 124.835938 211.886719 124.707031 C 213.050781 124.371094 214.210938 123.984375 215.308594 123.472656 C 218.71875 121.886719 222.183594 120.246094 225.109375 117.902344 C 225.109375 117.90625 228.984375 114.945312 230.082031 114.09375 C 233.414062 111.511719 236.769531 108.417969 238.832031 104.726562 C 238.902344 104.59375 239.152344 104.027344 239.199219 103.910156 C 239.554688 103.0625 239.84375 102.179688 240.070312 101.292969 C 240.617188 99.132812 240.863281 96.691406 240.410156 94.484375 C 240.117188 93.074219 239.542969 91.769531 238.976562 90.449219 C 239.078125 90.488281 238.902344 90.25 238.859375 90.148438 C 238.789062 89.972656 238.707031 89.796875 238.628906 89.621094 C 238.359375 89.019531 238.09375 88.417969 237.820312 87.820312 C 237.042969 86.125 235.820312 84.4375 235.367188 82.613281 C 235.253906 82.152344 235.734375 82.476562 235.9375 82.59375 C 236.449219 82.898438 236.953125 83.242188 237.496094 83.488281 C 237.675781 83.566406 237.996094 83.691406 238.058594 83.414062 C 238.214844 82.707031 237.449219 81.699219 237.097656 81.160156 C 235.972656 79.414062 233.472656 76.609375 231.226562 74.226562 Z M 231.226562 74.226562 " fill-opacity="1" fill-rule="evenodd"/><path fill="#000000" d="M 209.960938 55.09375 C 209.972656 54.808594 210.496094 55.285156 210.777344 55.367188 C 211.46875 55.578125 212.1875 55.757812 212.902344 55.910156 C 212.957031 55.917969 213.5625 56.078125 213.5625 55.972656 C 213.539062 55.371094 212.007812 54.351562 211.617188 53.996094 C 209.78125 52.300781 207.949219 50.605469 206.035156 49 C 205.675781 48.703125 204.28125 47.226562 203.730469 47.421875 C 203.351562 47.554688 203.128906 48.1875 202.972656 48.511719 C 202.511719 49.496094 202.085938 50.496094 201.652344 51.492188 C 201.527344 51.773438 201.113281 52.417969 201.257812 52.746094 C 201.417969 53.085938 201.886719 52.996094 202.164062 53.160156 C 202.546875 53.390625 202.804688 53.933594 203.027344 54.292969 C 205.386719 57.929688 208.203125 61.160156 210.890625 64.550781 C 210.878906 64.554688 211.125 64.800781 211.144531 64.828125 C 211.136719 64.816406 210.285156 65.847656 210.230469 65.917969 C 209.109375 67.25 208.105469 68.667969 207.140625 70.101562 C 204.4375 74.082031 203.550781 79.632812 204.804688 84.273438 C 205.507812 86.898438 207.578125 89.527344 210.53125 89.308594 C 212.800781 89.144531 215.003906 87.363281 216.59375 85.875 C 220.472656 82.253906 225.058594 76.835938 222.867188 71.164062 C 222.007812 68.960938 220.585938 66.972656 219.042969 65.203125 C 218.574219 64.679688 217.195312 63.707031 217.386719 62.90625 C 217.722656 61.546875 219.03125 60.25 219.824219 59.15625 C 221.882812 56.355469 224.824219 53.136719 225.71875 49.679688 C 226.03125 48.441406 226.421875 45.890625 225.675781 44.714844 C 225.5625 44.550781 225.203125 45.050781 225.160156 45.117188 C 224.679688 45.71875 224.308594 46.414062 223.90625 47.058594 C 222.902344 48.679688 221.859375 50.277344 220.777344 51.847656 C 219.914062 53.105469 219.019531 54.34375 218.136719 55.589844 C 217.273438 56.800781 216.414062 58.007812 215.542969 59.203125 C 215.375 59.429688 214.960938 60.21875 214.613281 60.230469 C 213.753906 60.269531 210.507812 55.679688 209.960938 55.09375 Z M 213.664062 67.679688 C 213.808594 67.515625 212.800781 68.550781 212.679688 68.722656 C 212.453125 69.035156 212.21875 69.351562 211.996094 69.667969 C 211.324219 70.59375 210.6875 71.535156 210.0625 72.484375 C 208.304688 75.140625 205.296875 81.03125 209.960938 82.570312 C 213.023438 83.582031 216 80.300781 217.757812 78.242188 C 218.484375 77.40625 219.546875 76.285156 219.546875 75.097656 C 219.554688 74.410156 219.109375 73.742188 218.75 73.1875 C 217.722656 71.621094 215.117188 68.863281 213.664062 67.679688 Z M 213.664062 67.679688 " fill-opacity="1" fill-rule="evenodd"/><path fill="#000000" d="M 241.605469 32.316406 C 241.625 32.355469 241.527344 32.503906 241.511719 32.539062 C 241.390625 32.769531 241.265625 33.003906 241.132812 33.230469 C 241.097656 33.289062 241.015625 33.460938 240.921875 33.457031 C 240.773438 33.445312 240.542969 33.230469 240.4375 33.164062 C 240.042969 32.890625 239.640625 32.632812 239.253906 32.355469 C 238.828125 32.042969 238.398438 31.734375 237.957031 31.4375 C 237.699219 31.269531 237.355469 31.113281 237.167969 30.882812 C 236.96875 30.632812 236.976562 30.277344 236.949219 29.988281 C 236.886719 29.289062 236.871094 28.570312 237.097656 27.890625 C 237.304688 27.257812 237.695312 26.417969 238.570312 26.289062 C 239.488281 26.15625 240.445312 26.828125 241.148438 27.230469 C 242.578125 28.039062 243.476562 29.152344 244.277344 30.417969 C 244.988281 31.542969 245.558594 32.714844 245.914062 33.960938 C 246.128906 34.71875 246.261719 35.503906 246.523438 36.25 C 246.636719 36.566406 246.78125 36.96875 247.136719 37.160156 C 247.132812 37.207031 247.164062 37.0625 247.171875 37.011719 C 247.191406 36.910156 247.207031 36.8125 247.222656 36.710938 C 247.273438 36.425781 247.3125 36.140625 247.351562 35.851562 C 247.480469 34.960938 247.636719 34.078125 247.871094 33.199219 C 248.484375 30.875 249.375 28.382812 250.957031 26.382812 C 251.664062 25.492188 252.757812 24.511719 254.171875 24.976562 C 255.152344 25.296875 255.828125 26.238281 256.289062 26.988281 C 256.441406 27.234375 256.707031 27.609375 256.695312 27.894531 C 256.667969 28.464844 256.179688 29.113281 255.925781 29.625 C 255.746094 29.980469 255.582031 30.347656 255.367188 30.691406 C 255.296875 30.808594 255.203125 31.007812 255.050781 31.070312 C 254.773438 31.191406 254.429688 30.484375 254.351562 30.363281 C 253.9375 29.714844 253.316406 28.691406 252.28125 28.742188 C 251.195312 28.792969 250.714844 29.953125 250.386719 30.652344 C 249.394531 32.738281 248.847656 34.886719 248.289062 37.070312 C 248.273438 37.074219 248.191406 37.390625 248.179688 37.414062 C 248.042969 37.808594 247.902344 38.199219 247.777344 38.597656 C 247.410156 39.757812 247.171875 40.984375 246.636719 42.101562 C 246.558594 42.273438 246.203125 43.113281 245.808594 42.914062 C 245.617188 42.8125 245.582031 42.503906 245.550781 42.339844 C 245.460938 41.84375 245.359375 41.355469 245.234375 40.867188 C 245.089844 40.296875 244.945312 39.726562 244.8125 39.15625 C 244.609375 38.285156 244.382812 37.414062 244.0625 36.570312 C 243.625 35.429688 242.578125 32.84375 241.605469 32.316406 Z M 241.605469 32.316406 " fill-opacity="1" fill-rule="evenodd"/><path fill="#000000" d="M 241.605469 61.183594 C 241.625 61.21875 241.527344 61.367188 241.511719 61.402344 C 241.390625 61.636719 241.265625 61.867188 241.132812 62.097656 C 241.097656 62.152344 241.015625 62.328125 240.921875 62.320312 C 240.773438 62.3125 240.542969 62.097656 240.4375 62.027344 C 240.042969 61.757812 239.640625 61.496094 239.253906 61.21875 C 238.828125 60.910156 238.398438 60.597656 237.957031 60.304688 C 237.699219 60.132812 237.355469 59.980469 237.167969 59.746094 C 236.96875 59.496094 236.976562 59.140625 236.949219 58.855469 C 236.886719 58.15625 236.871094 57.433594 237.097656 56.753906 C 237.304688 56.121094 237.695312 55.28125 238.570312 55.15625 C 239.488281 55.019531 240.445312 55.691406 241.148438 56.09375 C 242.578125 56.902344 243.476562 58.019531 244.277344 59.28125 C 244.988281 60.410156 245.558594 61.582031 245.914062 62.828125 C 246.128906 63.582031 246.261719 64.367188 246.523438 65.113281 C 246.636719 65.429688 246.78125 65.835938 247.136719 66.023438 C 247.132812 66.070312 247.164062 65.925781 247.171875 65.875 C 247.191406 65.777344 247.207031 65.679688 247.222656 65.578125 C 247.273438 65.292969 247.3125 65.003906 247.351562 64.714844 C 247.480469 63.824219 247.636719 62.941406 247.871094 62.066406 C 248.484375 59.738281 249.375 57.246094 250.957031 55.25 C 251.664062 54.355469 252.757812 53.375 254.171875 53.839844 C 255.152344 54.160156 255.828125 55.105469 256.289062 55.855469 C 256.441406 56.101562 256.707031 56.472656 256.695312 56.761719 C 256.667969 57.328125 256.179688 57.976562 255.925781 58.488281 C 255.746094 58.847656 255.582031 59.210938 255.367188 59.558594 C 255.296875 59.675781 255.203125 59.871094 255.050781 59.9375 C 254.773438 60.054688 254.429688 59.347656 254.351562 59.226562 C 253.9375 58.578125 253.316406 57.554688 252.28125 57.605469 C 251.195312 57.660156 250.714844 58.816406 250.386719 59.515625 C 249.394531 61.605469 248.847656 63.75 248.289062 65.933594 C 248.273438 65.9375 248.191406 66.257812 248.179688 66.28125 C 248.042969 66.671875 247.902344 67.066406 247.777344 67.460938 C 247.410156 68.625 247.171875 69.847656 246.636719 70.964844 C 246.558594 71.136719 246.203125 71.980469 245.808594 71.777344 C 245.617188 71.675781 245.582031 71.371094 245.550781 71.203125 C 245.460938 70.710938 245.359375 70.21875 245.234375 69.730469 C 245.089844 69.160156 244.945312 68.59375 244.8125 68.019531 C 244.609375 67.148438 244.382812 66.277344 244.0625 65.433594 C 243.625 64.296875 242.578125 61.710938 241.605469 61.183594 Z M 241.605469 61.183594 " fill-opacity="1" fill-rule="evenodd"/><path fill="#000000" d="M 303.351562 91.75 C 303.273438 91.652344 303.140625 92.003906 303.113281 92.082031 C 303.054688 92.242188 302.992188 92.398438 302.933594 92.5625 C 302.75 93.074219 302.550781 93.574219 302.359375 94.078125 C 302.234375 94.40625 302.589844 94.820312 302.6875 95.113281 C 302.980469 96.007812 302.449219 96.601562 301.730469 96.585938 C 301.527344 96.582031 301.332031 96.523438 301.144531 96.441406 C 300.339844 96.109375 299.539062 95.28125 299.617188 94.171875 C 299.65625 93.597656 299.871094 93.113281 299.988281 92.566406 C 300.027344 92.386719 300.039062 92.101562 299.847656 92.046875 C 299.363281 91.910156 298.933594 93.0625 298.765625 93.421875 C 298.09375 94.871094 297.527344 96.625 296.210938 97.40625 C 294.988281 98.132812 293.824219 97.148438 292.636719 96.777344 C 291.359375 96.378906 290.089844 96.566406 288.867188 97.132812 C 288.867188 97.257812 288.671875 97.226562 288.578125 97.285156 C 288.269531 97.472656 287.972656 97.683594 287.675781 97.894531 C 286.367188 98.828125 285.109375 99.886719 283.894531 100.984375 C 278.628906 105.746094 273.128906 110.0625 267.378906 113.949219 C 265.632812 115.128906 263.894531 116.347656 262.113281 117.445312 C 261.386719 117.894531 260.644531 118.304688 259.929688 118.769531 C 259.847656 118.816406 259.265625 119.148438 259.429688 119.347656 C 259.621094 119.574219 260.164062 119.445312 260.390625 119.417969 C 261.273438 119.316406 262.167969 119.054688 263.027344 118.808594 C 265.140625 118.203125 267.394531 117.546875 269.335938 116.34375 C 270.578125 115.574219 271.722656 114.539062 272.847656 113.558594 C 276.265625 110.574219 279.660156 107.542969 283.09375 104.585938 C 285.109375 102.84375 287.300781 100.730469 289.691406 99.78125 C 291.820312 98.933594 293.527344 101.628906 295.65625 100.703125 C 296.582031 100.300781 297.257812 99.261719 297.710938 98.253906 C 297.785156 98.085938 298.230469 96.707031 298.390625 96.660156 C 298.417969 96.65625 298.5 97.265625 298.503906 97.300781 C 298.566406 97.75 298.636719 98.246094 298.871094 98.617188 C 299.460938 99.542969 300.535156 99.714844 301.433594 99.496094 C 304.21875 98.835938 304.230469 95.59375 303.769531 92.902344 C 303.707031 92.546875 303.457031 91.886719 303.351562 91.75 Z M 303.351562 91.75 " fill-opacity="1" fill-rule="evenodd"/><path fill="#000000" d="M 228.472656 54.53125 C 228.488281 54.542969 229.90625 53.792969 229.996094 53.75 C 231.808594 52.882812 233.640625 52.050781 235.484375 51.226562 C 243.046875 47.859375 250.679688 44.554688 258.410156 41.445312 C 260.585938 40.570312 262.777344 39.710938 265.007812 38.929688 C 265.144531 38.878906 266.902344 38.164062 267 38.34375 C 267.191406 38.703125 266.378906 39.890625 266.222656 40.21875 C 265.890625 40.933594 265.671875 42.007812 265.054688 42.605469 C 264.640625 43.011719 263.84375 43.1875 263.277344 43.398438 C 261.894531 43.910156 260.511719 44.414062 259.148438 44.949219 C 254.933594 46.601562 250.855469 48.480469 246.71875 50.257812 C 242.714844 51.980469 238.617188 53.566406 234.652344 55.347656 C 232.671875 56.234375 230.691406 57.121094 228.714844 58.015625 C 228.398438 58.160156 227.082031 58.980469 226.675781 58.8125 C 226.421875 58.707031 226.710938 58.15625 226.765625 58.023438 C 227.046875 57.289062 228.140625 55.25 228.472656 54.53125 Z M 228.472656 54.53125 " fill-opacity="1" fill-rule="evenodd"/><path fill="#000000" d="M 120.011719 40.003906 C 120.027344 40.015625 121.449219 39.265625 121.539062 39.222656 C 123.347656 38.355469 125.183594 37.523438 127.027344 36.703125 C 134.585938 33.335938 142.222656 30.027344 149.949219 26.917969 C 152.125 26.042969 154.316406 25.183594 156.546875 24.402344 C 156.683594 24.351562 158.445312 23.636719 158.539062 23.816406 C 158.734375 24.175781 157.921875 25.363281 157.761719 25.691406 C 157.429688 26.40625 157.214844 27.480469 156.597656 28.082031 C 156.183594 28.484375 155.382812 28.660156 154.816406 28.871094 C 153.4375 29.382812 152.054688 29.886719 150.6875 30.421875 C 146.476562 32.078125 142.394531 33.953125 138.257812 35.730469 C 134.253906 37.453125 130.160156 39.039062 126.191406 40.820312 C 124.214844 41.707031 122.230469 42.59375 120.253906 43.488281 C 119.941406 43.632812 118.621094 44.453125 118.21875 44.285156 C 117.964844 44.179688 118.253906 43.628906 118.304688 43.496094 C 118.589844 42.761719 119.679688 40.722656 120.011719 40.003906 Z M 120.011719 40.003906 " fill-opacity="1" fill-rule="evenodd"/><path fill="#000000" d="M 269.488281 43.914062 C 269.9375 43.449219 270.269531 42.617188 270.621094 42.074219 C 271.65625 40.484375 272.679688 38.890625 273.742188 37.316406 C 274.335938 36.433594 274.890625 35.386719 275.742188 34.703125 C 276.953125 33.734375 278.765625 33.867188 280.226562 33.964844 C 283.597656 34.1875 287.488281 35.242188 290.691406 35.773438 C 290.746094 35.730469 291.035156 35.867188 291.097656 35.886719 C 291.46875 36.011719 291.835938 36.148438 292.203125 36.292969 C 293.4375 36.765625 295.863281 37.4375 295.429688 39.140625 C 295.152344 40.226562 294.410156 41.195312 293.738281 42.074219 C 292.6875 43.445312 291.558594 44.773438 290.378906 46.039062 C 288.820312 47.71875 287.175781 49.300781 285.460938 50.832031 C 284.332031 51.84375 283.164062 52.960938 281.703125 53.511719 C 279.261719 54.425781 276.375 54.324219 273.800781 54.476562 C 272.578125 54.550781 271.359375 54.605469 270.136719 54.652344 C 269.492188 54.679688 268.6875 54.769531 268.058594 54.582031 C 267.441406 54.398438 268.914062 53.574219 269.019531 53.515625 C 270.347656 52.78125 271.785156 52.21875 273.214844 51.707031 C 276.515625 50.523438 279.898438 49.421875 283.035156 47.859375 C 283.78125 47.488281 284.53125 47.113281 285.261719 46.707031 C 285.449219 46.605469 285.875 46.4375 285.945312 46.214844 C 286.03125 45.9375 285.40625 45.664062 285.230469 45.582031 C 284.367188 45.191406 283.367188 45 282.445312 44.777344 C 278.621094 43.863281 273.398438 43.34375 269.488281 43.914062 Z M 269.488281 43.914062 " fill-opacity="1" fill-rule="evenodd"/><path fill="#000000" d="M 121.511719 70.484375 C 121.855469 70.105469 122.113281 69.417969 122.386719 68.972656 C 123.183594 67.664062 123.972656 66.351562 124.792969 65.054688 C 125.253906 64.328125 125.679688 63.464844 126.335938 62.90625 C 127.269531 62.109375 128.667969 62.214844 129.796875 62.296875 C 132.394531 62.480469 135.398438 63.351562 137.871094 63.785156 C 137.914062 63.75 138.136719 63.863281 138.183594 63.878906 C 138.472656 63.980469 138.753906 64.09375 139.039062 64.210938 C 139.992188 64.605469 141.859375 65.152344 141.527344 66.558594 C 141.3125 67.449219 140.742188 68.25 140.21875 68.972656 C 139.410156 70.097656 138.539062 71.191406 137.628906 72.234375 C 136.425781 73.617188 135.15625 74.917969 133.835938 76.179688 C 132.964844 77.011719 132.0625 77.933594 130.9375 78.382812 C 129.050781 79.136719 126.824219 79.050781 124.835938 79.179688 C 123.894531 79.238281 122.953125 79.285156 122.011719 79.324219 C 121.515625 79.34375 120.890625 79.417969 120.410156 79.265625 C 119.933594 79.113281 121.066406 78.4375 121.148438 78.386719 C 122.171875 77.785156 123.28125 77.320312 124.386719 76.898438 C 126.933594 75.925781 129.542969 75.019531 131.964844 73.734375 C 132.539062 73.425781 133.117188 73.117188 133.679688 72.785156 C 133.824219 72.699219 134.15625 72.5625 134.210938 72.378906 C 134.273438 72.148438 133.792969 71.925781 133.65625 71.859375 C 132.992188 71.535156 132.21875 71.378906 131.507812 71.199219 C 128.558594 70.445312 124.527344 70.015625 121.511719 70.484375 Z M 121.511719 70.484375 " fill-opacity="1" fill-rule="evenodd"/><path fill="#000000" d="M 201.773438 31.351562 L 206.347656 25.152344 L 213.742188 30.671875 L 208.863281 36.515625 C 208.863281 36.515625 202.066406 31.0625 201.773438 31.351562 Z M 201.773438 31.351562 " fill-opacity="1" fill-rule="evenodd"/><path fill="#000000" d="M 212.566406 29.988281 L 217.140625 23.789062 L 224.53125 29.308594 L 219.65625 35.152344 C 219.65625 35.152344 212.855469 29.699219 212.566406 29.988281 Z M 212.566406 29.988281 " fill-opacity="1" fill-rule="evenodd"/><path fill="#000000" d="M 151.929688 75.160156 L 156.503906 68.960938 L 163.894531 74.480469 L 159.019531 80.324219 C 159.019531 80.324219 152.21875 74.871094 151.929688 75.160156 Z M 151.929688 75.160156 " fill-opacity="1" fill-rule="evenodd"/><path fill="#000000" d="M 209.679688 91.773438 C 209.417969 91.597656 209.175781 91.957031 209.132812 92.007812 C 208.855469 92.332031 208.664062 92.707031 208.472656 93.074219 C 207.871094 94.238281 207.328125 95.429688 206.714844 96.59375 C 205.15625 99.566406 203.183594 103.140625 203.375 106.535156 C 203.460938 108.007812 204 109.878906 205.867188 110.183594 C 208.1875 110.5625 209.53125 107.445312 210.132812 105.960938 C 210.335938 105.457031 210.828125 104.445312 210.503906 103.898438 C 210.230469 103.429688 209.53125 104.410156 209.421875 104.5625 C 208.769531 105.476562 207.730469 107.28125 206.515625 105.804688 C 205.542969 104.617188 205.6875 102.988281 205.992188 101.609375 C 206.441406 99.582031 207.511719 97.730469 208.464844 95.875 C 209.0625 94.707031 210.574219 92.363281 209.679688 91.773438 Z M 209.679688 91.773438 " fill-opacity="1" fill-rule="evenodd"/><path fill="#000000" d="M 69.738281 54.65625 C 69.234375 54.347656 68.773438 54.988281 68.691406 55.078125 C 68.160156 55.65625 67.789062 56.320312 67.421875 56.976562 C 66.265625 59.050781 65.222656 61.171875 64.050781 63.242188 C 61.058594 68.539062 57.269531 74.90625 57.640625 80.949219 C 57.804688 83.574219 58.835938 86.910156 62.421875 87.453125 C 66.875 88.121094 69.453125 82.574219 70.609375 79.929688 C 71 79.03125 71.945312 77.230469 71.324219 76.253906 C 70.792969 75.417969 69.453125 77.167969 69.246094 77.433594 C 67.988281 79.066406 65.996094 82.277344 63.667969 79.648438 C 61.796875 77.53125 62.078125 74.628906 62.664062 72.179688 C 63.523438 68.566406 65.578125 65.273438 67.40625 61.964844 C 68.554688 59.882812 71.453125 55.710938 69.738281 54.65625 Z M 69.738281 54.65625 " fill-opacity="1" fill-rule="evenodd"/><path fill="#000000" d="M 167.984375 17.929688 C 167.433594 18.273438 167.035156 19.246094 166.683594 19.777344 C 166.132812 20.617188 164.945312 21.820312 164.820312 22.851562 C 164.636719 24.386719 166.867188 25.996094 167.191406 27.5 C 167.84375 30.484375 167.910156 33.632812 168.488281 36.644531 C 170.292969 46.085938 175.398438 81.867188 175.722656 90.3125 C 175.753906 91.152344 174.691406 92.089844 174.191406 92.640625 C 172.269531 94.761719 169.753906 96.511719 166.742188 96.003906 C 162.367188 95.261719 160.8125 91.0625 161.046875 87.09375 C 160.480469 86.75 158.730469 90.046875 158.546875 90.363281 C 157.023438 92.980469 155.835938 95.53125 152.878906 96.796875 C 149.476562 98.25 145.105469 98.152344 141.75 96.53125 C 140.835938 96.089844 140.15625 95.390625 139.601562 94.546875 C 139.425781 94.285156 139.195312 93.546875 138.800781 93.566406 C 138.191406 93.59375 137.601562 94.847656 137.300781 95.261719 C 136.144531 96.839844 135.054688 98.519531 133.742188 99.976562 C 130.617188 103.441406 124.898438 105.597656 121.011719 101.960938 C 119.503906 100.550781 118.683594 98.53125 118.117188 96.589844 C 118.113281 96.832031 117.894531 96.152344 117.824219 95.917969 C 117.683594 95.445312 117.566406 94.96875 117.445312 94.488281 C 117.078125 93.019531 116.730469 91.546875 116.417969 90.0625 C 115.445312 85.460938 114.75 80.796875 114.058594 76.144531 C 112.195312 63.625 110.640625 51.058594 108.355469 38.601562 C 107.675781 34.882812 106.953125 31.167969 105.96875 27.515625 C 105.886719 27.203125 105.390625 24.460938 104.707031 24.5 C 104.210938 24.53125 103.691406 25.796875 103.496094 26.136719 C 102.421875 28.023438 101.527344 30.011719 100.691406 32.011719 C 100.738281 31.9375 100.984375 32.648438 100.992188 32.675781 C 101.179688 33.203125 101.367188 33.734375 101.550781 34.265625 C 102.09375 35.851562 102.574219 37.457031 103.023438 39.074219 C 104.34375 43.839844 105.503906 48.660156 106.34375 53.535156 C 107.832031 62.195312 109.019531 70.929688 109.972656 79.664062 C 110.582031 85.230469 111.347656 91.035156 110.832031 96.644531 C 110.882812 96.488281 110.601562 96.886719 110.484375 97.003906 C 110.28125 97.210938 110.070312 97.414062 109.859375 97.613281 C 109.109375 98.320312 108.332031 99 107.546875 99.660156 C 105.097656 101.707031 102.5625 103.660156 99.941406 105.476562 C 92.109375 110.910156 82.035156 118.105469 71.902344 116.472656 C 63.636719 115.136719 58.808594 108.953125 58.566406 100.753906 C 58.453125 96.976562 59.097656 93.207031 60.039062 89.558594 C 60.28125 88.625 60.539062 87.6875 60.824219 86.761719 C 60.886719 86.558594 61.203125 85.910156 61.03125 85.699219 C 60.734375 85.339844 59.289062 87.398438 59.1875 87.550781 C 54.703125 94.261719 53.042969 105.308594 56.476562 112.757812 C 58.136719 116.351562 61.167969 119.035156 64.609375 120.878906 C 66.433594 121.859375 68.410156 122.628906 70.480469 122.835938 C 75.582031 123.347656 80.769531 121.726562 85.453125 119.886719 C 91.105469 117.664062 96.441406 114.6875 101.414062 111.207031 C 106.304688 107.785156 110.585938 103.996094 113.191406 98.566406 C 112.941406 98.367188 113.242188 99.214844 113.316406 99.527344 C 113.445312 100.058594 113.636719 100.570312 113.8125 101.089844 C 114.410156 102.835938 115.179688 104.566406 116.246094 106.082031 C 119.242188 110.328125 125.40625 111.554688 129.792969 108.863281 C 132.160156 107.410156 134.367188 105.136719 135.867188 102.808594 C 136.386719 102 137.242188 99.457031 138.089844 98.976562 C 138.253906 98.886719 138.035156 99.351562 137.992188 99.535156 C 137.902344 99.933594 137.835938 100.332031 137.828125 100.742188 C 137.800781 102.082031 137.816406 103.535156 138.222656 104.824219 C 139.140625 107.703125 143.421875 113.792969 147.191406 112.214844 C 148.105469 111.835938 148.046875 110.316406 148.011719 109.519531 C 147.917969 107.402344 147.03125 104.4375 147.445312 102.375 C 147.523438 101.992188 149.011719 102.058594 149.292969 102.023438 C 151.019531 101.808594 152.816406 101.355469 154.285156 100.402344 C 155.78125 99.433594 157.019531 97.925781 157.910156 96.398438 C 158.019531 96.210938 158.59375 94.664062 158.777344 94.640625 C 158.851562 94.632812 158.90625 95.355469 158.914062 95.410156 C 159.007812 96.011719 159.15625 96.617188 159.332031 97.199219 C 159.789062 98.75 160.570312 100.28125 162 101.132812 C 168.847656 105.203125 175.753906 97.757812 178.761719 92.359375 C 178.925781 92.3125 179.011719 91.414062 179.027344 91.296875 C 179.230469 90.078125 179.265625 88.832031 179.300781 87.601562 C 179.457031 82.113281 178.890625 76.683594 178.234375 71.242188 C 177.164062 62.398438 175.382812 53.660156 173.648438 44.929688 C 173.078125 42.054688 172.582031 39.171875 172.117188 36.277344 C 171.914062 35.019531 171.324219 33.277344 171.570312 31.980469 C 171.765625 30.957031 174.628906 32.824219 175.050781 33.046875 C 175.257812 33.15625 176.019531 33.675781 176.085938 33.175781 C 176.261719 31.886719 175.070312 30.074219 174.570312 28.972656 C 173.023438 25.546875 169.652344 21.292969 167.984375 17.929688 Z M 167.984375 17.929688 " fill-opacity="1" fill-rule="evenodd"/><path fill="#000000" d="M 281.71875 66.46875 C 281.582031 66.414062 282.101562 66.070312 282.144531 66.046875 C 282.347656 65.941406 282.550781 65.820312 282.742188 65.699219 C 283.320312 65.335938 283.902344 64.976562 284.46875 64.597656 C 286.242188 63.417969 288.003906 62.21875 289.769531 61.027344 C 293.738281 58.34375 304.816406 49.792969 305.078125 49.289062 C 304.886719 49.140625 304.566406 49.039062 304.351562 48.90625 C 303.238281 48.21875 301.554688 47.195312 301.675781 45.820312 C 301.84375 43.941406 303.574219 41.835938 305.527344 41.1875 C 306.394531 40.902344 307.539062 40.765625 308.289062 41.367188 C 308.765625 41.75 308.898438 42.371094 308.953125 42.914062 C 309.066406 44.125 308.71875 45.28125 308.210938 46.390625 C 308.0625 46.710938 307.886719 47.019531 307.703125 47.320312 C 307.648438 47.414062 307.46875 47.59375 307.472656 47.703125 C 307.476562 47.839844 307.914062 48.074219 308.015625 48.15625 C 308.40625 48.46875 308.957031 48.914062 309.109375 49.382812 C 309.304688 49.988281 308.636719 50.847656 308.316406 51.328125 C 308.234375 51.453125 308.007812 51.890625 307.792969 51.855469 C 307.546875 51.8125 307.332031 51.511719 307.171875 51.363281 C 306.753906 50.96875 306.285156 50.613281 305.867188 50.214844 C 305.804688 50.15625 305.746094 50.339844 305.6875 50.402344 C 305.5625 50.53125 305.4375 50.660156 305.3125 50.789062 C 304.960938 51.167969 304.597656 51.535156 304.234375 51.902344 C 303.144531 53.003906 302.039062 54.089844 300.902344 55.144531 C 296.773438 58.972656 291.851562 62.265625 286.601562 64.742188 C 285.40625 65.308594 284.222656 65.953125 282.953125 66.378906 C 282.730469 66.453125 281.851562 66.527344 281.71875 66.46875 Z M 306.542969 46.910156 C 306.539062 46.902344 306.585938 46.726562 306.589844 46.71875 C 306.628906 46.597656 306.667969 46.480469 306.695312 46.359375 C 306.78125 45.996094 306.835938 45.621094 306.8125 45.25 C 306.796875 45.042969 306.78125 44.832031 306.746094 44.625 C 306.613281 43.839844 305.933594 42.734375 304.886719 42.960938 C 304.644531 43.015625 304.425781 43.128906 304.230469 43.261719 C 304.085938 43.359375 303.960938 43.476562 303.839844 43.601562 C 303.691406 43.753906 303.507812 43.953125 303.496094 44.171875 C 303.488281 44.332031 303.613281 44.464844 303.71875 44.582031 C 303.941406 44.828125 304.199219 45.035156 304.441406 45.265625 C 304.953125 45.746094 305.980469 46.46875 306.542969 46.910156 Z M 306.542969 46.910156 " fill-opacity="1" fill-rule="evenodd"/><path fill="#000000" d="M 191.765625 29.402344 C 191.714844 29.378906 192.140625 29.757812 192.171875 29.796875 C 192.234375 29.878906 192.300781 29.957031 192.367188 30.039062 C 192.585938 30.296875 192.796875 30.554688 193.015625 30.808594 C 193.476562 31.332031 193.953125 31.851562 194.453125 32.347656 C 194.578125 32.472656 194.804688 32.800781 194.992188 32.859375 C 195.136719 32.90625 195.164062 32.484375 195.167969 32.4375 C 195.234375 31.9375 195.21875 31.4375 195.066406 30.949219 C 195.074219 30.945312 194.984375 30.777344 194.980469 30.769531 C 194.882812 30.546875 194.785156 30.320312 194.6875 30.09375 C 194.28125 29.140625 193.875 28.1875 193.46875 27.230469 C 192.234375 24.320312 191 21.398438 189.585938 18.554688 C 189.226562 17.828125 188.894531 17.085938 188.527344 16.363281 C 188.382812 16.078125 188.246094 15.625 187.972656 15.40625 C 187.425781 16.644531 186.820312 17.871094 186.277344 19.117188 C 186.074219 19.585938 185.574219 20.273438 185.613281 20.796875 C 185.660156 21.402344 186.296875 22.140625 186.695312 22.625 C 186.628906 22.539062 186.699219 22.828125 186.707031 22.929688 C 186.722656 23.128906 186.742188 23.328125 186.757812 23.527344 C 186.816406 24.164062 190.289062 52.429688 190.496094 54.089844 C 191.109375 59.085938 191.859375 64.054688 192.6875 69.027344 C 192.710938 69.167969 192.75 69.453125 192.769531 69.578125 C 192.835938 70.066406 192.882812 70.550781 192.941406 71.039062 C 193.148438 72.75 193.363281 74.457031 193.558594 76.171875 C 194 80.050781 194.386719 83.9375 194.714844 87.832031 C 194.941406 90.558594 195.226562 93.417969 194.675781 96.144531 C 194.867188 96.203125 194.003906 97.546875 193.957031 97.617188 C 192.839844 99.304688 191.378906 100.839844 189.9375 102.320312 C 185.8125 106.558594 180.746094 109.859375 175.75 113.261719 C 173.84375 114.558594 171.855469 115.765625 169.902344 117.011719 C 169.828125 117.0625 168.214844 118.011719 168.425781 118.226562 C 168.523438 118.324219 168.972656 118.15625 169.078125 118.132812 C 169.75 117.953125 170.421875 117.757812 171.082031 117.546875 C 173.714844 116.722656 176.402344 116.007812 178.996094 115.089844 C 183.535156 113.484375 186.585938 110.648438 189.503906 107.277344 C 194.257812 101.785156 197.488281 95.75 198.121094 88.882812 C 198.148438 88.570312 198.140625 87.832031 198.148438 87.542969 C 198.183594 86.347656 198.191406 85.152344 198.175781 83.953125 C 198.125 79.847656 197.632812 75.761719 197.257812 71.671875 C 195.996094 57.910156 193.292969 43.230469 191.765625 29.402344 Z M 191.765625 29.402344 " fill-opacity="1" fill-rule="evenodd"/><path fill="#000000" d="M 153.703125 42.644531 C 153.410156 42.695312 153.089844 43.109375 153.003906 43.203125 C 152.851562 43.371094 152.699219 43.542969 152.554688 43.714844 C 152.019531 44.34375 151.640625 44.824219 151.898438 45.582031 C 152.40625 47.097656 153.304688 48.496094 153.859375 49.988281 C 154.136719 50.730469 153.832031 51.414062 152.730469 51.453125 C 150.570312 51.523438 150.097656 48.910156 149.835938 47.738281 C 149.761719 47.402344 149.6875 47.070312 149.601562 46.738281 C 149.488281 46.28125 149.347656 45.832031 149.179688 45.386719 C 148.964844 44.824219 148.746094 44.261719 148.449219 43.722656 C 148.414062 43.65625 148.226562 43.21875 148.097656 43.234375 C 147.78125 43.273438 147.347656 44.167969 147.214844 44.371094 C 147.042969 44.625 146.765625 44.921875 146.746094 45.214844 C 146.707031 45.761719 147.429688 46.425781 147.65625 46.929688 C 147.976562 47.664062 148.027344 48.460938 148.003906 49.230469 C 148.058594 49.242188 147.980469 49.484375 147.972656 49.507812 C 147.902344 49.800781 147.828125 50.089844 147.707031 50.375 C 147.242188 51.4375 145.011719 52.347656 144.074219 51.082031 C 143.695312 50.570312 143.785156 49.890625 143.816406 49.328125 C 143.875 48.109375 144.191406 46.886719 144.03125 45.664062 C 143.972656 45.222656 143.847656 44.75 143.550781 44.367188 C 143.519531 44.324219 143.246094 43.980469 143.136719 44.050781 C 142.859375 44.238281 142.71875 44.699219 142.570312 44.953125 C 142.441406 45.175781 142.316406 45.398438 142.1875 45.621094 C 142.039062 45.886719 141.902344 46.152344 141.746094 46.410156 C 141.722656 46.457031 141.550781 46.644531 141.566406 46.703125 C 141.597656 46.808594 141.910156 46.953125 142 47.039062 C 142.261719 47.292969 142.375 47.554688 142.398438 47.878906 C 142.484375 48.925781 142.160156 49.996094 142.117188 51.039062 C 142.078125 51.960938 141.96875 53.136719 142.796875 53.882812 C 143.730469 54.726562 145.328125 54.78125 146.40625 54.097656 C 147.722656 53.269531 148.597656 51.921875 148.699219 50.601562 C 148.988281 52.308594 151.285156 54.941406 153.769531 53.582031 C 154.0625 53.425781 154.316406 53.246094 154.535156 53.027344 C 154.84375 52.722656 155.074219 52.351562 155.222656 51.976562 C 155.734375 50.707031 155.765625 49.289062 155.328125 48.007812 C 154.789062 46.417969 153.714844 44.320312 153.703125 42.644531 Z M 153.703125 42.644531 " fill-opacity="1" fill-rule="evenodd"/></svg>