<svg xmlns="http://www.w3.org/2000/svg" xmlns:xlink="http://www.w3.org/1999/xlink" width="500" zoomAndPan="magnify" viewBox="0 0 375 149.999998" height="200" preserveAspectRatio="xMidYMid meet" version="1.0"><defs><clipPath id="dafd1d26d0"><path d="M 204 22.265625 L 216 22.265625 L 216 95 L 204 95 Z M 204 22.265625 " clip-rule="nonzero"/></clipPath></defs><path fill="#000000" d="M 306.445312 31.617188 C 307.171875 31.355469 308.65625 31.816406 309.355469 31.949219 C 312.394531 32.539062 315.324219 33.597656 318.132812 34.832031 C 328.574219 39.421875 336.140625 48.03125 340.820312 57.863281 C 341.996094 60.316406 342.960938 62.902344 343.558594 65.539062 C 343.71875 66.25 344.203125 67.546875 343.871094 68.28125 C 343.570312 68.910156 342.8125 69.402344 342.292969 69.859375 C 341.191406 70.832031 340.167969 71.691406 338.902344 72.425781 C 337.269531 70.996094 334.980469 69.972656 333.128906 68.777344 C 332.566406 64.515625 330.644531 60.261719 328.667969 56.457031 C 325.296875 50 320.835938 44.074219 315.417969 39.027344 C 312.957031 36.746094 309.472656 33.191406 306.445312 31.617188 Z M 306.445312 31.617188 " fill-opacity="1" fill-rule="evenodd"/><path fill="#000000" d="M 306.445312 122.128906 C 307.171875 122.390625 308.65625 121.929688 309.355469 121.792969 C 312.394531 121.207031 315.324219 120.144531 318.132812 118.910156 C 328.574219 114.324219 336.140625 105.710938 340.820312 95.878906 C 341.996094 93.425781 342.960938 90.839844 343.558594 88.203125 C 343.71875 87.492188 344.203125 86.195312 343.871094 85.464844 C 343.570312 84.832031 342.8125 84.339844 342.292969 83.886719 C 341.191406 82.910156 340.167969 82.050781 338.902344 81.316406 C 337.269531 82.75 334.980469 83.769531 333.128906 84.964844 C 332.566406 89.226562 330.644531 93.480469 328.667969 97.285156 C 325.296875 103.746094 320.835938 109.671875 315.417969 114.714844 C 312.957031 116.996094 309.472656 120.550781 306.445312 122.128906 Z M 306.445312 122.128906 " fill-opacity="1" fill-rule="evenodd"/><path fill="#000000" d="M 352.160156 71.203125 C 351.875 71.347656 351.609375 71.484375 351.539062 71.53125 C 349.882812 72.761719 348.25 73.914062 346.398438 74.890625 C 345.765625 75.226562 345.113281 75.503906 344.46875 75.8125 C 344.363281 75.863281 344.078125 75.992188 343.925781 76.136719 C 343.71875 76.335938 343.664062 76.566406 343.71875 76.792969 C 343.777344 77.019531 343.949219 77.214844 344.25 77.300781 C 344.480469 77.367188 344.847656 77.355469 344.960938 77.355469 C 345.144531 77.359375 345.710938 77.5625 346.445312 77.839844 C 348.390625 78.566406 351.4375 79.882812 352.839844 80.632812 C 353 80.71875 353.484375 81.03125 353.898438 81.308594 C 353.644531 81.460938 353.378906 81.613281 353.242188 81.664062 C 351.851562 82.175781 350.207031 82.691406 349.308594 83.90625 C 348.976562 84.355469 348.871094 84.878906 348.871094 85.433594 C 348.882812 86.089844 349.078125 86.789062 349.101562 87.382812 C 349.160156 88.988281 348.859375 90.382812 347.871094 91.714844 C 347.101562 92.761719 346.148438 93.753906 344.960938 94.386719 C 344.765625 94.488281 343.109375 95.257812 343.109375 95.257812 C 342.878906 95.367188 342.753906 95.609375 342.800781 95.851562 C 342.847656 96.09375 343.066406 96.273438 343.316406 96.292969 C 343.316406 96.292969 345.859375 96.460938 346.617188 96.367188 C 350.527344 95.886719 352.910156 93.515625 354.621094 90.335938 C 354.875 89.878906 355.058594 89.296875 355.253906 88.730469 C 355.429688 88.257812 355.601562 87.796875 355.886719 87.46875 C 356.164062 87.160156 356.566406 86.953125 356.980469 86.75 C 357.496094 86.5 358.027344 86.265625 358.441406 85.96875 C 359.71875 85.0625 360.613281 83.914062 361.441406 82.625 C 361.765625 82.125 362.0625 81.609375 362.351562 81.09375 C 362.5 80.847656 363.375 79.304688 363.375 79.304688 C 363.523438 79.039062 363.421875 78.710938 363.144531 78.566406 C 363.144531 78.566406 362.257812 78.109375 362.097656 78.03125 C 361.523438 77.761719 359.9375 77.078125 358.75 76.574219 C 358.738281 76.574219 363.304688 75.238281 363.304688 75.238281 C 363.59375 75.152344 363.765625 74.867188 363.695312 74.589844 C 363.695312 74.589844 363.226562 72.691406 362.257812 70.898438 C 361.582031 69.632812 360.648438 68.4375 359.5 67.898438 C 359.074219 67.699219 358.5 67.550781 357.957031 67.382812 C 357.519531 67.25 357.105469 67.121094 356.855469 66.898438 C 356.761719 66.816406 356.75 66.675781 356.726562 66.539062 C 356.667969 66.265625 356.636719 65.984375 356.578125 65.773438 C 356.289062 64.769531 355.839844 63.761719 355.277344 62.871094 C 352.933594 59.246094 347.042969 56.5625 342.835938 56.789062 C 342.558594 56.804688 342.328125 57.003906 342.292969 57.261719 C 342.257812 57.523438 342.421875 57.769531 342.683594 57.855469 C 344.042969 58.289062 345.167969 59.535156 346.136719 61.019531 C 347.675781 63.398438 348.746094 66.402344 349.449219 68.132812 C 349.929688 69.324219 350.402344 70.078125 351.527344 70.820312 C 351.734375 70.957031 351.941406 71.085938 352.160156 71.203125 Z M 345.582031 95.304688 C 346.894531 94.59375 347.964844 93.503906 348.816406 92.339844 C 349.953125 90.804688 350.320312 89.195312 350.253906 87.34375 C 350.230469 86.84375 350.089844 86.269531 350.046875 85.707031 C 350 85.285156 350 84.871094 350.253906 84.53125 C 351.023438 83.496094 352.472656 83.121094 353.65625 82.683594 C 354.046875 82.539062 355.230469 81.765625 355.230469 81.765625 C 355.394531 81.664062 355.472656 81.496094 355.472656 81.320312 C 355.484375 81.140625 355.394531 80.972656 355.242188 80.871094 C 355.242188 80.871094 353.726562 79.847656 353.402344 79.679688 C 351.757812 78.800781 347.929688 77.164062 346.089844 76.542969 C 345.960938 76.5 345.859375 76.464844 345.746094 76.433594 C 346.160156 76.246094 346.5625 76.058594 346.964844 75.847656 C 348.871094 74.84375 350.539062 73.660156 352.253906 72.390625 C 352.390625 72.285156 353.484375 71.824219 353.738281 71.664062 C 353.910156 71.546875 353.96875 71.417969 353.988281 71.355469 C 354.046875 71.214844 354.082031 70.960938 353.804688 70.738281 C 353.714844 70.664062 353.195312 70.464844 353.140625 70.445312 C 352.804688 70.308594 352.484375 70.125 352.183594 69.925781 C 351.277344 69.324219 350.90625 68.703125 350.515625 67.742188 C 349.804688 65.964844 348.699219 62.886719 347.113281 60.445312 C 346.515625 59.507812 345.824219 58.667969 345.078125 58.015625 L 345.078125 58.011719 C 348.574219 58.574219 352.53125 60.714844 354.300781 63.441406 C 354.808594 64.246094 355.210938 65.15625 355.460938 66.0625 C 355.53125 66.300781 355.554688 66.636719 355.632812 66.933594 C 355.714844 67.242188 355.863281 67.511719 356.070312 67.695312 C 356.359375 67.957031 356.796875 68.15625 357.277344 68.320312 C 357.855469 68.515625 358.519531 68.660156 358.992188 68.878906 C 359.9375 69.324219 360.671875 70.347656 361.234375 71.394531 C 361.84375 72.527344 362.234375 73.703125 362.429688 74.347656 C 362.429688 74.347656 356.933594 75.957031 356.933594 75.957031 C 356.714844 76.027344 356.554688 76.222656 356.53125 76.449219 C 356.519531 76.675781 356.660156 76.886719 356.875 76.980469 C 356.875 76.980469 360.648438 78.5625 361.582031 79.007812 C 361.648438 79.042969 361.867188 79.15625 362.085938 79.265625 C 361.820312 79.738281 361.441406 80.414062 361.351562 80.570312 C 361.0625 81.070312 360.777344 81.570312 360.453125 82.058594 C 359.707031 83.222656 358.914062 84.269531 357.75 85.09375 C 357.382812 85.359375 356.910156 85.558594 356.453125 85.777344 C 355.898438 86.050781 355.382812 86.351562 355.015625 86.765625 C 354.632812 87.1875 354.382812 87.769531 354.175781 88.378906 C 353.988281 88.894531 353.828125 89.421875 353.609375 89.839844 C 352.070312 92.683594 349.976562 94.855469 346.480469 95.285156 C 346.273438 95.308594 345.953125 95.3125 345.582031 95.304688 Z M 345.582031 95.304688 " fill-opacity="1" fill-rule="evenodd"/><path fill="#000000" d="M 339.246094 81.503906 C 339.382812 81.40625 340.210938 80.828125 340.304688 80.757812 C 341.582031 79.773438 344.019531 77.492188 345.179688 76.394531 C 345.296875 76.292969 345.351562 76.160156 345.351562 76.019531 C 345.351562 75.898438 345.320312 75.738281 345.179688 75.585938 C 345.078125 75.476562 344.824219 75.324219 344.765625 75.285156 C 344.363281 75.003906 343.972656 74.722656 343.570312 74.445312 C 342.042969 73.363281 340.535156 72.167969 338.878906 71.246094 C 338.636719 71.105469 338.316406 71.164062 338.140625 71.382812 C 337.683594 71.941406 336.488281 72.488281 335.855469 72.902344 C 334.117188 74.042969 332.3125 75.085938 330.550781 76.1875 C 330.300781 76.25 330.195312 76.476562 330.183594 76.523438 C 330.136719 76.640625 330.070312 76.886719 330.320312 77.121094 C 330.355469 77.148438 330.585938 77.269531 330.667969 77.324219 C 330.839844 77.433594 331.011719 77.539062 331.183594 77.652344 C 331.78125 78.039062 332.402344 78.398438 333.023438 78.753906 C 334.820312 79.78125 336.601562 80.851562 338.476562 81.734375 C 338.660156 81.820312 338.878906 81.808594 339.050781 81.699219 C 339.132812 81.648438 339.199219 81.582031 339.246094 81.503906 Z M 343.914062 76.050781 C 342.671875 77.214844 340.683594 79.058594 339.578125 79.910156 C 339.488281 79.976562 338.949219 80.316406 338.613281 80.574219 C 336.902344 79.742188 335.265625 78.761719 333.609375 77.816406 C 333.011719 77.472656 332.414062 77.125 331.828125 76.75 L 331.792969 76.722656 C 333.371094 75.753906 334.957031 74.816406 336.507812 73.804688 C 337.085938 73.425781 338.0625 72.921875 338.683594 72.40625 C 340.15625 73.277344 341.5 74.351562 342.890625 75.324219 C 343.238281 75.566406 343.582031 75.804688 343.914062 76.050781 Z M 330.632812 77.261719 Z M 330.632812 77.261719 " fill-opacity="1" fill-rule="evenodd"/><path fill="#000000" d="M 363.257812 74.660156 L 374.980469 77.113281 L 363.257812 78.976562 L 358.347656 76.589844 Z M 363.257812 74.660156 " fill-opacity="1" fill-rule="evenodd"/><path fill="#000000" d="M 68.511719 26.960938 C 67.785156 26.699219 66.304688 27.160156 65.601562 27.292969 C 62.566406 27.882812 59.632812 28.941406 56.828125 30.175781 C 46.382812 34.765625 38.816406 43.375 34.136719 53.210938 C 32.964844 55.664062 31.996094 58.25 31.398438 60.882812 C 31.238281 61.59375 30.753906 62.890625 31.089844 63.625 C 31.386719 64.257812 32.148438 64.75 32.664062 65.203125 C 33.769531 66.179688 34.792969 67.039062 36.058594 67.773438 C 37.691406 66.339844 39.980469 65.320312 41.832031 64.125 C 42.394531 59.863281 44.3125 55.605469 46.292969 51.804688 C 49.660156 45.34375 54.125 39.417969 59.539062 34.371094 C 62.003906 32.09375 65.488281 28.535156 68.511719 26.960938 Z M 68.511719 26.960938 " fill-opacity="1" fill-rule="evenodd"/><path fill="#000000" d="M 68.511719 117.472656 C 67.785156 117.734375 66.304688 117.273438 65.601562 117.136719 C 62.566406 116.550781 59.632812 115.492188 56.828125 114.257812 C 46.382812 109.667969 38.816406 101.058594 34.136719 91.222656 C 32.964844 88.769531 31.996094 86.183594 31.398438 83.550781 C 31.238281 82.839844 30.753906 81.542969 31.089844 80.808594 C 31.386719 80.175781 32.148438 79.683594 32.664062 79.230469 C 33.769531 78.253906 34.792969 77.394531 36.058594 76.660156 C 37.691406 78.09375 39.980469 79.113281 41.832031 80.308594 C 42.394531 84.570312 44.3125 88.828125 46.292969 92.628906 C 49.660156 99.089844 54.125 105.015625 59.539062 110.058594 C 62.003906 112.339844 65.488281 115.898438 68.511719 117.472656 Z M 68.511719 117.472656 " fill-opacity="1" fill-rule="evenodd"/><path fill="#000000" d="M 22.796875 66.550781 C 23.085938 66.695312 23.347656 66.828125 23.417969 66.875 C 25.074219 68.109375 26.707031 69.261719 28.558594 70.238281 C 29.191406 70.570312 29.847656 70.847656 30.492188 71.15625 C 30.59375 71.210938 30.882812 71.335938 31.03125 71.484375 C 31.238281 71.679688 31.296875 71.914062 31.238281 72.136719 C 31.179688 72.367188 31.007812 72.558594 30.710938 72.648438 C 30.480469 72.714844 30.109375 72.699219 29.996094 72.703125 C 29.8125 72.703125 29.25 72.90625 28.511719 73.183594 C 26.570312 73.910156 23.519531 75.226562 22.117188 75.976562 C 21.957031 76.0625 21.472656 76.378906 21.058594 76.652344 C 21.3125 76.808594 21.578125 76.957031 21.714844 77.011719 C 23.105469 77.519531 24.75 78.035156 25.648438 79.25 C 25.980469 79.699219 26.085938 80.222656 26.085938 80.777344 C 26.074219 81.433594 25.878906 82.132812 25.855469 82.730469 C 25.796875 84.332031 26.097656 85.730469 27.085938 87.058594 C 27.855469 88.109375 28.8125 89.097656 29.996094 89.730469 C 30.191406 89.835938 31.847656 90.601562 31.847656 90.601562 C 32.078125 90.710938 32.203125 90.953125 32.15625 91.195312 C 32.113281 91.4375 31.894531 91.621094 31.640625 91.636719 C 31.640625 91.636719 29.097656 91.808594 28.339844 91.710938 C 24.429688 91.234375 22.050781 88.859375 20.335938 85.683594 C 20.082031 85.222656 19.898438 84.640625 19.703125 84.074219 C 19.53125 83.605469 19.359375 83.140625 19.070312 82.816406 C 18.792969 82.503906 18.390625 82.296875 17.976562 82.09375 C 17.460938 81.84375 16.929688 81.613281 16.515625 81.3125 C 15.242188 80.40625 14.34375 79.257812 13.515625 77.972656 C 13.195312 77.46875 12.894531 76.957031 12.605469 76.4375 C 12.457031 76.191406 11.582031 74.648438 11.582031 74.648438 C 11.433594 74.386719 11.539062 74.054688 11.8125 73.910156 C 11.8125 73.910156 12.699219 73.453125 12.859375 73.375 C 13.433594 73.105469 15.023438 72.421875 16.207031 71.917969 C 16.21875 71.917969 11.652344 70.582031 11.652344 70.582031 C 11.363281 70.496094 11.191406 70.214844 11.261719 69.933594 C 11.261719 69.933594 11.734375 68.035156 12.699219 66.242188 C 13.378906 64.976562 14.308594 63.78125 15.460938 63.242188 C 15.886719 63.046875 16.460938 62.894531 17 62.726562 C 17.4375 62.597656 17.851562 62.464844 18.105469 62.242188 C 18.195312 62.164062 18.207031 62.019531 18.230469 61.882812 C 18.289062 61.613281 18.324219 61.328125 18.378906 61.121094 C 18.667969 60.113281 19.117188 59.105469 19.679688 58.21875 C 22.027344 54.589844 27.914062 51.910156 32.125 52.136719 C 32.398438 52.148438 32.628906 52.347656 32.664062 52.609375 C 32.699219 52.867188 32.539062 53.117188 32.273438 53.199219 C 30.914062 53.632812 29.789062 54.878906 28.824219 56.363281 C 27.28125 58.742188 26.210938 61.746094 25.511719 63.476562 C 25.027344 64.667969 24.554688 65.421875 23.429688 66.167969 C 23.222656 66.304688 23.015625 66.433594 22.796875 66.550781 Z M 29.375 90.652344 C 28.0625 89.941406 26.996094 88.847656 26.144531 87.6875 C 25.003906 86.148438 24.636719 84.542969 24.707031 82.6875 C 24.730469 82.1875 24.867188 81.613281 24.914062 81.054688 C 24.957031 80.632812 24.957031 80.214844 24.707031 79.878906 C 23.933594 78.839844 22.484375 78.464844 21.300781 78.03125 C 20.910156 77.882812 19.726562 77.109375 19.726562 77.109375 C 19.566406 77.007812 19.484375 76.839844 19.484375 76.664062 C 19.472656 76.488281 19.566406 76.320312 19.714844 76.214844 C 19.714844 76.214844 21.234375 75.195312 21.554688 75.023438 C 23.199219 74.144531 27.027344 72.511719 28.867188 71.886719 C 28.996094 71.84375 29.097656 71.808594 29.214844 71.777344 C 28.800781 71.589844 28.398438 71.402344 27.996094 71.191406 C 26.085938 70.1875 24.417969 69.003906 22.703125 67.734375 C 22.566406 67.632812 21.472656 67.167969 21.222656 67.007812 C 21.046875 66.894531 20.992188 66.761719 20.96875 66.699219 C 20.910156 66.558594 20.875 66.304688 21.152344 66.085938 C 21.246094 66.011719 21.761719 65.808594 21.820312 65.789062 C 22.152344 65.652344 22.476562 65.46875 22.773438 65.269531 C 23.683594 64.667969 24.050781 64.046875 24.441406 63.085938 C 25.15625 61.3125 26.257812 58.230469 27.84375 55.792969 C 28.445312 54.855469 29.132812 54.015625 29.882812 53.359375 C 26.386719 53.917969 22.429688 56.058594 20.65625 58.789062 C 20.152344 59.589844 19.75 60.5 19.496094 61.410156 C 19.425781 61.644531 19.402344 61.980469 19.324219 62.277344 C 19.242188 62.585938 19.09375 62.855469 18.886719 63.042969 C 18.597656 63.300781 18.160156 63.5 17.679688 63.664062 C 17.105469 63.859375 16.4375 64.003906 15.964844 64.222656 C 15.023438 64.667969 14.285156 65.691406 13.722656 66.738281 C 13.113281 67.871094 12.722656 69.050781 12.527344 69.691406 C 12.527344 69.691406 18.023438 71.304688 18.023438 71.304688 C 18.242188 71.371094 18.402344 71.566406 18.425781 71.792969 C 18.4375 72.023438 18.300781 72.234375 18.082031 72.324219 C 18.082031 72.324219 14.308594 73.90625 13.378906 74.351562 C 13.308594 74.386719 13.089844 74.5 12.871094 74.609375 C 13.136719 75.082031 13.515625 75.757812 13.609375 75.914062 C 13.894531 76.414062 14.183594 76.914062 14.503906 77.402344 C 15.253906 78.566406 16.046875 79.617188 17.207031 80.4375 C 17.574219 80.703125 18.046875 80.902344 18.507812 81.125 C 19.058594 81.394531 19.578125 81.695312 19.945312 82.109375 C 20.324219 82.53125 20.578125 83.117188 20.785156 83.722656 C 20.96875 84.238281 21.128906 84.765625 21.347656 85.183594 C 22.890625 88.027344 24.980469 90.199219 28.476562 90.628906 C 28.683594 90.652344 29.007812 90.65625 29.375 90.652344 Z M 29.375 90.652344 " fill-opacity="1" fill-rule="evenodd"/><path fill="#000000" d="M 35.710938 76.847656 C 35.574219 76.75 34.746094 76.171875 34.652344 76.101562 C 33.378906 75.117188 30.9375 72.839844 29.777344 71.738281 C 29.664062 71.640625 29.605469 71.503906 29.605469 71.363281 C 29.605469 71.246094 29.640625 71.082031 29.777344 70.929688 C 29.882812 70.820312 30.132812 70.667969 30.191406 70.628906 C 30.59375 70.347656 30.984375 70.070312 31.386719 69.789062 C 32.917969 68.710938 34.421875 67.511719 36.078125 66.589844 C 36.320312 66.449219 36.644531 66.507812 36.816406 66.726562 C 37.277344 67.285156 38.472656 67.835938 39.105469 68.246094 C 40.839844 69.386719 42.648438 70.433594 44.40625 71.53125 C 44.660156 71.59375 44.761719 71.824219 44.773438 71.871094 C 44.820312 71.984375 44.890625 72.234375 44.636719 72.46875 C 44.601562 72.492188 44.371094 72.613281 44.292969 72.667969 C 44.117188 72.777344 43.945312 72.886719 43.773438 72.996094 C 43.175781 73.382812 42.554688 73.746094 41.933594 74.097656 C 40.140625 75.128906 38.355469 76.195312 36.480469 77.078125 C 36.296875 77.167969 36.078125 77.152344 35.90625 77.046875 C 35.828125 76.996094 35.757812 76.925781 35.710938 76.847656 Z M 31.042969 71.394531 C 32.285156 72.558594 34.273438 74.402344 35.378906 75.253906 C 35.46875 75.320312 36.011719 75.660156 36.34375 75.921875 C 38.058594 75.085938 39.691406 74.105469 41.347656 73.164062 C 41.945312 72.820312 42.542969 72.472656 43.128906 72.09375 L 43.164062 72.070312 C 41.589844 71.097656 40 70.160156 38.449219 69.148438 C 37.875 68.769531 36.894531 68.265625 36.273438 67.753906 C 34.804688 68.621094 33.457031 69.695312 32.066406 70.667969 C 31.722656 70.910156 31.375 71.152344 31.042969 71.394531 Z M 44.324219 72.605469 Z M 44.324219 72.605469 " fill-opacity="1" fill-rule="evenodd"/><path fill="#000000" d="M 11.699219 70.003906 L -0.0195312 72.457031 L 11.699219 74.320312 L 16.609375 71.933594 Z M 11.699219 70.003906 " fill-opacity="1" fill-rule="evenodd"/><g clip-path="url(#dafd1d26d0)"><path fill="#000000" d="M 204.285156 27.21875 C 204.238281 27.257812 204.335938 27.113281 204.363281 27.0625 C 204.417969 26.949219 204.46875 26.839844 204.519531 26.726562 C 204.6875 26.382812 204.855469 26.035156 205.011719 25.6875 C 205.460938 24.691406 205.972656 23.714844 206.417969 22.71875 C 206.417969 22.789062 206.539062 22.921875 206.570312 22.984375 C 206.675781 23.179688 206.765625 23.382812 206.863281 23.582031 C 207.183594 24.257812 207.476562 24.941406 207.78125 25.625 C 209.027344 28.410156 210.433594 31.148438 211.5625 33.976562 C 211.738281 34.417969 211.910156 34.863281 212.0625 35.316406 C 212.148438 35.578125 212.234375 35.84375 212.296875 36.109375 C 212.332031 36.253906 212.359375 36.398438 212.375 36.546875 C 212.386719 36.640625 212.390625 36.738281 212.386719 36.835938 C 212.386719 36.894531 212.378906 36.949219 212.363281 37.007812 C 212.179688 37.601562 211.492188 36.785156 211.316406 36.613281 C 211.238281 36.539062 211.160156 36.464844 211.082031 36.394531 C 210.996094 36.308594 210.90625 36.226562 210.816406 36.144531 C 210.695312 36.03125 210.578125 35.914062 210.457031 35.800781 C 210.292969 35.644531 210.132812 35.488281 209.972656 35.335938 C 209.808594 35.175781 209.644531 35.019531 209.488281 34.859375 C 209.429688 34.796875 209.496094 35.015625 209.503906 35.09375 C 209.523438 35.285156 209.546875 35.476562 209.566406 35.667969 C 209.625 36.167969 209.6875 36.671875 209.761719 37.167969 C 209.976562 38.636719 210.230469 40.097656 210.460938 41.5625 C 211.160156 46 211.722656 50.46875 212.25 54.925781 C 212.136719 54.902344 212.292969 55.136719 212.3125 55.238281 C 212.355469 55.488281 212.382812 55.742188 212.417969 55.992188 C 212.519531 56.683594 212.617188 57.371094 212.710938 58.0625 C 212.988281 60.058594 213.253906 62.050781 213.484375 64.050781 C 214.378906 71.792969 216.042969 80.015625 214.636719 87.828125 C 214.332031 89.519531 214.140625 91.449219 213.15625 92.96875 C 213.023438 93.171875 212.335938 94.292969 211.984375 94.265625 C 211.910156 94.261719 211.878906 94.1875 211.859375 94.128906 C 211.550781 93.15625 211.953125 91.710938 211.949219 90.714844 C 211.929688 86.742188 211.71875 82.796875 211.289062 78.84375 C 209.832031 65.492188 205.207031 32.09375 205.113281 28.953125 C 205.113281 28.953125 204.898438 28.515625 204.878906 28.476562 C 204.722656 28.164062 204.453125 27.53125 204.285156 27.21875 Z M 204.285156 27.21875 " fill-opacity="1" fill-rule="evenodd"/></g><path fill="#000000" d="M 289.339844 78.34375 C 289.359375 78.328125 289.371094 78.308594 289.351562 78.28125 C 289.339844 78.300781 289.339844 78.324219 289.339844 78.34375 C 289.273438 78.382812 289.0625 78.386719 288.976562 78.433594 C 288.699219 78.582031 288.429688 78.742188 288.164062 78.902344 C 287.339844 79.386719 286.589844 79.953125 285.851562 80.5625 C 283.800781 82.25 281.464844 84.964844 278.644531 84.925781 C 278.683594 84.765625 278.339844 84.332031 278.273438 84.21875 C 277.839844 83.472656 277.378906 82.75 276.941406 82.007812 C 275.183594 79.023438 272.261719 74.789062 268.5625 77.398438 C 265.640625 79.460938 263.222656 83.484375 262.699219 87.1875 C 262.265625 90.183594 263.523438 93.054688 266.386719 93.949219 C 269.675781 94.976562 273.910156 92.886719 276.710938 91.128906 C 276.730469 91.113281 276.921875 91.484375 276.941406 91.53125 C 277.074219 91.796875 277.1875 92.066406 277.3125 92.339844 C 277.660156 93.136719 278.003906 94.019531 277.964844 94.921875 C 277.945312 94.929688 277.726562 95.148438 277.675781 95.203125 C 277.515625 95.382812 277.34375 95.550781 277.167969 95.722656 C 276.585938 96.300781 276 96.863281 275.433594 97.453125 C 273.835938 99.097656 272.15625 100.632812 270.441406 102.140625 C 265.554688 106.449219 259.121094 112.492188 252.355469 112.414062 C 245.128906 112.332031 240.105469 105.855469 240.816406 98.289062 C 241.019531 96.191406 241.402344 94.125 241.910156 92.089844 C 241.996094 91.714844 242.523438 90.300781 242.273438 89.933594 C 242.054688 89.601562 241.191406 91.058594 241.125 91.164062 C 240.25 92.699219 239.722656 94.367188 239.386719 96.121094 C 238.527344 100.574219 238.640625 105.625 240.421875 109.820312 C 243.566406 117.207031 251.980469 119.855469 258.757812 116.96875 C 262.265625 115.476562 265.351562 112.929688 268.292969 110.445312 C 271.046875 108.121094 273.871094 105.703125 275.972656 102.660156 C 277.113281 101.007812 278.78125 98.894531 279.257812 96.859375 C 279.804688 94.574219 279.660156 92.117188 279.363281 89.890625 C 279.355469 89.835938 279.777344 89.664062 279.824219 89.640625 C 280.273438 89.398438 280.734375 89.160156 281.183594 88.917969 C 282.929688 87.992188 284.75 87.097656 286.226562 85.71875 C 286.332031 85.621094 286.246094 86.023438 286.273438 86.171875 C 286.324219 86.429688 286.410156 86.679688 286.496094 86.929688 C 286.753906 87.65625 287.03125 88.371094 287.347656 89.070312 C 288.335938 91.234375 290.117188 92.933594 292.304688 93.558594 C 293.25 93.828125 294.269531 94.003906 295.253906 93.917969 C 299.355469 93.542969 301.722656 89.117188 302.933594 85.363281 C 302.933594 85.359375 302.941406 85.355469 302.941406 85.355469 L 302.933594 85.363281 C 302.941406 85.457031 303.363281 86.5 303.421875 86.609375 C 303.871094 87.449219 304.417969 88.257812 305.039062 88.964844 C 306.976562 91.171875 310.167969 91.792969 312.746094 90.589844 C 314.460938 89.785156 315.429688 88.277344 316.175781 86.5 C 317.710938 82.859375 316.980469 77.339844 315.71875 73.636719 C 315.753906 73.453125 315.515625 73.945312 315.402344 74.089844 C 315.140625 74.425781 314.855469 74.742188 314.597656 75.070312 C 313.808594 76.050781 312.878906 77 312.21875 78.089844 C 312.160156 78.175781 313.320312 79.664062 313.417969 79.902344 C 314.296875 81.96875 312.773438 84.070312 310.773438 84.191406 C 307.820312 84.363281 306.152344 81.617188 305.816406 78.804688 C 305.703125 77.839844 305.722656 76.851562 305.558594 75.890625 C 305.511719 75.582031 305.367188 75.058594 304.992188 75.070312 C 304.582031 75.085938 304.320312 75.710938 304.175781 76.050781 C 303.71875 77.171875 303.667969 78.425781 303.390625 79.601562 C 303.105469 80.789062 302.480469 81.816406 301.867188 82.839844 C 300.738281 84.75 299.375 87.136719 297.277344 87.9375 C 294.765625 88.894531 291.527344 87.199219 290.253906 84.804688 C 289.332031 83.0625 289.0625 80.335938 289.339844 78.34375 Z M 277.964844 94.921875 C 277.964844 94.917969 277.964844 94.917969 277.964844 94.921875 Z M 266.398438 86.371094 C 266.484375 85.179688 267.097656 84 267.863281 83.144531 C 268.238281 82.734375 268.707031 82.289062 269.292969 82.398438 C 270.433594 82.613281 271.570312 83.617188 272.320312 84.511719 C 272.472656 84.699219 272.992188 85.214844 272.914062 85.515625 C 272.828125 85.808594 272.414062 85.980469 272.1875 86.089844 C 271.46875 86.425781 270.671875 86.628906 269.90625 86.75 C 269.082031 86.875 266.835938 86.921875 266.398438 86.371094 Z M 266.398438 86.371094 " fill-opacity="1" fill-rule="evenodd"/><path fill="#000000" d="M 246.964844 79.324219 C 246.902344 79.398438 246.878906 79.640625 246.851562 79.738281 C 246.753906 80.09375 246.664062 80.449219 246.574219 80.808594 C 246.269531 82.039062 245.949219 83.269531 245.640625 84.503906 C 245.542969 84.890625 245.441406 85.277344 245.34375 85.664062 C 245.3125 85.777344 245.207031 86.015625 245.242188 86.132812 C 245.277344 86.246094 245.546875 86.363281 245.632812 86.421875 C 245.910156 86.621094 246.179688 86.859375 246.410156 87.117188 C 246.410156 87.089844 246.488281 87.257812 246.496094 87.277344 C 246.546875 87.40625 246.601562 87.535156 246.652344 87.664062 C 246.808594 88.054688 246.933594 88.457031 247.078125 88.851562 C 247.503906 90.042969 247.933594 91.226562 248.402344 92.402344 C 249.257812 94.5625 250.253906 96.679688 251.296875 98.746094 C 251.738281 99.617188 252.164062 100.488281 252.574219 101.375 C 252.761719 101.777344 253.007812 102.183594 253.132812 102.609375 C 253.320312 103.261719 251.808594 104.179688 251.375 104.65625 C 249.710938 106.492188 247.90625 108.175781 246.019531 109.757812 C 238.636719 115.9375 228.582031 122.066406 218.957031 117.804688 C 219.058594 117.902344 218.722656 117.667969 218.609375 117.589844 C 218.375 117.421875 218.15625 117.238281 217.941406 117.042969 C 217.253906 116.429688 216.644531 115.769531 216.125 114.992188 C 214.582031 112.695312 213.925781 109.988281 213.820312 107.203125 C 213.667969 103.222656 214.320312 99.359375 215.496094 95.585938 C 215.621094 95.183594 215.746094 94.777344 215.878906 94.375 C 215.992188 94.03125 216.105469 93.6875 216.214844 93.34375 C 216.289062 93.113281 216.359375 92.882812 216.429688 92.648438 C 216.484375 92.464844 216.539062 92.277344 216.59375 92.089844 C 216.636719 91.933594 216.679688 91.777344 216.722656 91.617188 C 216.804688 91.292969 217.421875 89.46875 216.59375 89.691406 C 216.652344 89.839844 216.382812 89.929688 216.304688 90.070312 C 216.027344 90.558594 215.785156 91.066406 215.558594 91.582031 C 214.675781 93.570312 213.917969 95.605469 213.292969 97.699219 C 211.445312 103.855469 209.613281 111.488281 212.339844 117.628906 C 212.421875 117.601562 212.398438 117.800781 212.429688 117.882812 C 212.5 118.070312 212.574219 118.25 212.648438 118.429688 C 212.875 118.984375 213.140625 119.515625 213.429688 120.035156 C 214.25 121.511719 215.472656 122.757812 216.738281 123.8125 C 220.144531 126.648438 224.761719 126.636719 228.875 126.082031 C 228.871094 126.058594 229.203125 125.980469 229.214844 125.976562 C 229.609375 125.871094 230.003906 125.769531 230.390625 125.648438 C 231.390625 125.339844 232.382812 124.984375 233.324219 124.515625 C 236.246094 123.0625 239.214844 121.558594 241.722656 119.40625 C 241.722656 119.410156 245.042969 116.6875 245.984375 115.910156 C 248.839844 113.542969 251.714844 110.703125 253.480469 107.3125 C 253.542969 107.195312 253.753906 106.671875 253.796875 106.5625 C 254.101562 105.785156 254.351562 104.980469 254.542969 104.164062 C 255.011719 102.179688 255.222656 99.941406 254.832031 97.917969 C 254.585938 96.625 254.089844 95.425781 253.605469 94.210938 C 253.695312 94.25 253.542969 94.027344 253.507812 93.9375 C 253.445312 93.773438 253.375 93.613281 253.308594 93.453125 C 253.078125 92.902344 252.851562 92.351562 252.613281 91.800781 C 251.949219 90.242188 250.898438 88.695312 250.511719 87.023438 C 250.414062 86.597656 250.828125 86.894531 251 87.007812 C 251.441406 87.28125 251.871094 87.601562 252.339844 87.824219 C 252.488281 87.898438 252.765625 88.011719 252.820312 87.757812 C 252.953125 87.109375 252.296875 86.183594 251.996094 85.691406 C 251.03125 84.085938 248.886719 81.511719 246.964844 79.324219 Z M 246.964844 79.324219 " fill-opacity="1" fill-rule="evenodd"/><path fill="#000000" d="M 228.75 61.769531 C 228.757812 61.507812 229.210938 61.945312 229.449219 62.023438 C 230.042969 62.210938 230.65625 62.378906 231.269531 62.519531 C 231.320312 62.527344 231.835938 62.671875 231.835938 62.578125 C 231.816406 62.023438 230.503906 61.089844 230.167969 60.765625 C 228.597656 59.207031 227.023438 57.652344 225.386719 56.175781 C 225.078125 55.90625 223.882812 54.550781 223.410156 54.730469 C 223.085938 54.851562 222.894531 55.433594 222.761719 55.730469 C 222.367188 56.632812 222.003906 57.550781 221.628906 58.464844 C 221.523438 58.722656 221.167969 59.3125 221.292969 59.617188 C 221.429688 59.925781 221.832031 59.84375 222.070312 59.996094 C 222.394531 60.207031 222.617188 60.707031 222.808594 61.035156 C 224.832031 64.371094 227.246094 67.335938 229.546875 70.449219 C 229.535156 70.453125 229.746094 70.675781 229.765625 70.703125 C 229.757812 70.691406 229.027344 71.636719 228.980469 71.699219 C 228.023438 72.921875 227.160156 74.226562 226.335938 75.542969 C 224.015625 79.195312 223.257812 84.289062 224.332031 88.546875 C 224.9375 90.953125 226.707031 93.367188 229.238281 93.167969 C 231.183594 93.015625 233.074219 91.378906 234.433594 90.015625 C 237.757812 86.691406 241.6875 81.722656 239.808594 76.515625 C 239.074219 74.496094 237.855469 72.671875 236.53125 71.046875 C 236.128906 70.566406 234.949219 69.675781 235.113281 68.9375 C 235.402344 67.691406 236.523438 66.5 237.203125 65.5 C 238.96875 62.925781 241.488281 59.972656 242.253906 56.804688 C 242.523438 55.664062 242.859375 53.324219 242.214844 52.246094 C 242.121094 52.09375 241.8125 52.554688 241.773438 52.617188 C 241.363281 53.164062 241.046875 53.804688 240.703125 54.398438 C 239.839844 55.882812 238.949219 57.347656 238.019531 58.792969 C 237.28125 59.945312 236.511719 61.078125 235.757812 62.226562 C 235.019531 63.335938 234.28125 64.445312 233.53125 65.542969 C 233.390625 65.75 233.035156 66.472656 232.738281 66.484375 C 232 66.519531 229.21875 62.304688 228.75 61.769531 Z M 231.921875 73.320312 C 232.046875 73.167969 231.183594 74.117188 231.078125 74.273438 C 230.886719 74.5625 230.6875 74.851562 230.496094 75.140625 C 229.917969 75.992188 229.375 76.855469 228.835938 77.730469 C 227.332031 80.164062 224.753906 85.570312 228.75 86.984375 C 231.375 87.910156 233.925781 84.898438 235.429688 83.011719 C 236.054688 82.242188 236.964844 81.214844 236.964844 80.125 C 236.972656 79.496094 236.589844 78.878906 236.285156 78.375 C 235.402344 76.933594 233.167969 74.402344 231.921875 73.320312 Z M 231.921875 73.320312 " fill-opacity="1" fill-rule="evenodd"/><path fill="#000000" d="M 255.867188 40.871094 C 255.882812 40.902344 255.800781 41.039062 255.785156 41.074219 C 255.683594 41.285156 255.574219 41.5 255.460938 41.710938 C 255.433594 41.761719 255.363281 41.921875 255.28125 41.914062 C 255.15625 41.90625 254.957031 41.710938 254.867188 41.644531 C 254.527344 41.394531 254.183594 41.160156 253.851562 40.902344 C 253.484375 40.617188 253.121094 40.335938 252.738281 40.0625 C 252.519531 39.90625 252.226562 39.765625 252.066406 39.554688 C 251.894531 39.324219 251.902344 38.996094 251.878906 38.734375 C 251.824219 38.09375 251.8125 37.433594 252.003906 36.804688 C 252.179688 36.226562 252.515625 35.457031 253.265625 35.339844 C 254.050781 35.214844 254.871094 35.832031 255.476562 36.199219 C 256.699219 36.941406 257.472656 37.96875 258.15625 39.125 C 258.765625 40.160156 259.253906 41.234375 259.558594 42.378906 C 259.746094 43.074219 259.855469 43.792969 260.082031 44.476562 C 260.175781 44.769531 260.300781 45.136719 260.605469 45.3125 C 260.601562 45.355469 260.628906 45.222656 260.636719 45.175781 C 260.652344 45.085938 260.667969 44.996094 260.683594 44.902344 C 260.722656 44.640625 260.757812 44.375 260.792969 44.113281 C 260.902344 43.296875 261.035156 42.484375 261.234375 41.679688 C 261.761719 39.546875 262.527344 37.257812 263.882812 35.425781 C 264.488281 34.605469 265.421875 33.707031 266.636719 34.132812 C 267.476562 34.425781 268.054688 35.292969 268.449219 35.980469 C 268.582031 36.207031 268.808594 36.546875 268.796875 36.8125 C 268.773438 37.335938 268.355469 37.929688 268.136719 38.398438 C 267.984375 38.726562 267.84375 39.0625 267.660156 39.378906 C 267.597656 39.488281 267.519531 39.667969 267.390625 39.726562 C 267.152344 39.835938 266.859375 39.1875 266.789062 39.074219 C 266.4375 38.480469 265.902344 37.542969 265.015625 37.589844 C 264.085938 37.636719 263.675781 38.699219 263.390625 39.339844 C 262.542969 41.257812 262.074219 43.226562 261.59375 45.230469 C 261.582031 45.234375 261.507812 45.527344 261.503906 45.546875 C 261.382812 45.90625 261.265625 46.269531 261.15625 46.632812 C 260.839844 47.699219 260.636719 48.820312 260.179688 49.847656 C 260.109375 50.003906 259.808594 50.777344 259.46875 50.59375 C 259.304688 50.5 259.273438 50.21875 259.25 50.066406 C 259.171875 49.613281 259.082031 49.164062 258.976562 48.714844 C 258.851562 48.191406 258.730469 47.667969 258.613281 47.144531 C 258.441406 46.34375 258.25 45.546875 257.972656 44.769531 C 257.597656 43.726562 256.699219 41.355469 255.867188 40.871094 Z M 255.867188 40.871094 " fill-opacity="1" fill-rule="evenodd"/><path fill="#000000" d="M 171.125 32.730469 C 171.144531 32.761719 171.0625 32.898438 171.046875 32.933594 C 170.945312 33.144531 170.835938 33.359375 170.722656 33.570312 C 170.695312 33.621094 170.625 33.78125 170.542969 33.773438 C 170.417969 33.765625 170.21875 33.570312 170.125 33.503906 C 169.789062 33.257812 169.445312 33.019531 169.113281 32.761719 C 168.746094 32.476562 168.382812 32.195312 168 31.921875 C 167.78125 31.765625 167.488281 31.625 167.328125 31.414062 C 167.15625 31.183594 167.164062 30.855469 167.140625 30.59375 C 167.085938 29.953125 167.070312 29.292969 167.265625 28.664062 C 167.441406 28.085938 167.777344 27.316406 168.527344 27.199219 C 169.3125 27.074219 170.132812 27.691406 170.738281 28.058594 C 171.960938 28.800781 172.734375 29.828125 173.417969 30.984375 C 174.027344 32.019531 174.515625 33.09375 174.820312 34.238281 C 175.007812 34.933594 175.117188 35.652344 175.34375 36.335938 C 175.4375 36.628906 175.5625 37 175.867188 37.171875 C 175.863281 37.214844 175.890625 37.082031 175.898438 37.035156 C 175.914062 36.945312 175.929688 36.855469 175.945312 36.761719 C 175.984375 36.5 176.019531 36.234375 176.054688 35.972656 C 176.164062 35.15625 176.296875 34.34375 176.496094 33.539062 C 177.023438 31.40625 177.789062 29.117188 179.144531 27.285156 C 179.75 26.464844 180.683594 25.566406 181.898438 25.992188 C 182.738281 26.285156 183.316406 27.152344 183.710938 27.839844 C 183.84375 28.066406 184.070312 28.40625 184.058594 28.671875 C 184.035156 29.195312 183.617188 29.789062 183.398438 30.257812 C 183.246094 30.585938 183.105469 30.921875 182.921875 31.238281 C 182.859375 31.347656 182.78125 31.527344 182.652344 31.585938 C 182.414062 31.695312 182.121094 31.046875 182.050781 30.933594 C 181.699219 30.339844 181.164062 29.402344 180.277344 29.449219 C 179.347656 29.496094 178.9375 30.558594 178.652344 31.199219 C 177.804688 33.117188 177.335938 35.085938 176.855469 37.089844 C 176.84375 37.09375 176.769531 37.386719 176.765625 37.40625 C 176.644531 37.765625 176.527344 38.128906 176.417969 38.492188 C 176.101562 39.558594 175.898438 40.679688 175.441406 41.707031 C 175.371094 41.863281 175.070312 42.636719 174.730469 42.453125 C 174.566406 42.359375 174.535156 42.078125 174.511719 41.925781 C 174.433594 41.472656 174.34375 41.023438 174.238281 40.574219 C 174.113281 40.050781 173.992188 39.527344 173.875 39.003906 C 173.703125 38.203125 173.511719 37.40625 173.234375 36.628906 C 172.859375 35.585938 171.960938 33.214844 171.125 32.730469 Z M 171.125 32.730469 " fill-opacity="1" fill-rule="evenodd"/><path fill="#000000" d="M 130.304688 48.742188 C 130.324219 48.777344 130.238281 48.914062 130.222656 48.945312 C 130.121094 49.160156 130.015625 49.371094 129.898438 49.582031 C 129.871094 49.632812 129.800781 49.792969 129.71875 49.785156 C 129.59375 49.777344 129.394531 49.582031 129.304688 49.519531 C 128.964844 49.269531 128.621094 49.03125 128.292969 48.777344 C 127.925781 48.492188 127.558594 48.207031 127.179688 47.9375 C 126.957031 47.78125 126.664062 47.640625 126.503906 47.425781 C 126.332031 47.195312 126.339844 46.871094 126.316406 46.605469 C 126.261719 45.964844 126.25 45.304688 126.441406 44.679688 C 126.621094 44.101562 126.953125 43.328125 127.703125 43.210938 C 128.488281 43.089844 129.308594 43.707031 129.914062 44.074219 C 131.136719 44.816406 131.910156 45.839844 132.59375 47 C 133.207031 48.035156 133.691406 49.109375 133.996094 50.25 C 134.183594 50.945312 134.292969 51.664062 134.519531 52.351562 C 134.613281 52.640625 134.738281 53.011719 135.042969 53.183594 C 135.039062 53.230469 135.070312 53.09375 135.074219 53.046875 C 135.089844 52.957031 135.105469 52.867188 135.121094 52.777344 C 135.160156 52.511719 135.195312 52.25 135.230469 51.984375 C 135.339844 51.167969 135.472656 50.355469 135.671875 49.554688 C 136.199219 47.417969 136.964844 45.128906 138.320312 43.296875 C 138.925781 42.480469 139.859375 41.578125 141.074219 42.003906 C 141.914062 42.300781 142.492188 43.164062 142.890625 43.851562 C 143.019531 44.078125 143.246094 44.421875 143.234375 44.6875 C 143.210938 45.207031 142.792969 45.800781 142.578125 46.269531 C 142.425781 46.597656 142.28125 46.933594 142.097656 47.25 C 142.039062 47.359375 141.957031 47.539062 141.828125 47.597656 C 141.589844 47.707031 141.296875 47.058594 141.226562 46.949219 C 140.875 46.351562 140.339844 45.414062 139.453125 45.460938 C 138.523438 45.507812 138.113281 46.574219 137.828125 47.214844 C 136.980469 49.128906 136.511719 51.097656 136.03125 53.105469 C 136.019531 53.105469 135.949219 53.398438 135.941406 53.421875 C 135.820312 53.78125 135.703125 54.140625 135.59375 54.503906 C 135.277344 55.570312 135.074219 56.695312 134.617188 57.71875 C 134.546875 57.875 134.246094 58.648438 133.90625 58.464844 C 133.742188 58.371094 133.710938 58.089844 133.6875 57.9375 C 133.609375 57.484375 133.519531 57.035156 133.414062 56.589844 C 133.289062 56.0625 133.167969 55.542969 133.054688 55.019531 C 132.878906 54.21875 132.6875 53.417969 132.410156 52.644531 C 132.035156 51.597656 131.136719 49.226562 130.304688 48.742188 Z M 130.304688 48.742188 " fill-opacity="1" fill-rule="evenodd"/><path fill="#000000" d="M 255.867188 67.355469 C 255.882812 67.390625 255.800781 67.527344 255.785156 67.558594 C 255.683594 67.773438 255.574219 67.984375 255.460938 68.195312 C 255.433594 68.246094 255.363281 68.40625 255.28125 68.398438 C 255.15625 68.390625 254.957031 68.195312 254.867188 68.132812 C 254.527344 67.882812 254.183594 67.644531 253.851562 67.390625 C 253.484375 67.105469 253.121094 66.820312 252.738281 66.550781 C 252.519531 66.394531 252.226562 66.253906 252.066406 66.039062 C 251.894531 65.808594 251.902344 65.484375 251.878906 65.21875 C 251.824219 64.578125 251.8125 63.917969 252.003906 63.292969 C 252.179688 62.714844 252.515625 61.941406 253.265625 61.824219 C 254.050781 61.703125 254.871094 62.320312 255.476562 62.6875 C 256.699219 63.429688 257.472656 64.453125 258.15625 65.613281 C 258.765625 66.648438 259.253906 67.722656 259.558594 68.863281 C 259.746094 69.558594 259.855469 70.277344 260.082031 70.964844 C 260.175781 71.253906 260.300781 71.625 260.605469 71.796875 C 260.601562 71.84375 260.628906 71.707031 260.636719 71.660156 C 260.652344 71.570312 260.667969 71.480469 260.683594 71.390625 C 260.722656 71.125 260.757812 70.863281 260.792969 70.597656 C 260.902344 69.78125 261.035156 68.96875 261.234375 68.167969 C 261.761719 66.03125 262.527344 63.742188 263.882812 61.910156 C 264.488281 61.09375 265.421875 60.191406 266.636719 60.617188 C 267.476562 60.914062 268.054688 61.777344 268.449219 62.464844 C 268.582031 62.691406 268.808594 63.035156 268.796875 63.300781 C 268.773438 63.820312 268.355469 64.414062 268.136719 64.886719 C 267.984375 65.214844 267.84375 65.546875 267.660156 65.863281 C 267.597656 65.972656 267.519531 66.152344 267.390625 66.214844 C 267.152344 66.320312 266.859375 65.671875 266.789062 65.5625 C 266.4375 64.964844 265.902344 64.027344 265.015625 64.074219 C 264.085938 64.121094 263.675781 65.1875 263.390625 65.828125 C 262.542969 67.742188 262.074219 69.710938 261.59375 71.71875 C 261.582031 71.71875 261.507812 72.011719 261.503906 72.035156 C 261.382812 72.394531 261.265625 72.753906 261.15625 73.117188 C 260.839844 74.183594 260.636719 75.308594 260.179688 76.332031 C 260.109375 76.488281 259.808594 77.261719 259.46875 77.078125 C 259.304688 76.984375 259.273438 76.703125 259.25 76.550781 C 259.171875 76.097656 259.082031 75.648438 258.976562 75.203125 C 258.851562 74.675781 258.730469 74.15625 258.613281 73.632812 C 258.441406 72.832031 258.25 72.03125 257.972656 71.257812 C 257.597656 70.210938 256.699219 67.839844 255.867188 67.355469 Z M 255.867188 67.355469 " fill-opacity="1" fill-rule="evenodd"/><path fill="#000000" d="M 308.769531 95.398438 C 308.703125 95.308594 308.589844 95.632812 308.566406 95.703125 C 308.515625 95.847656 308.460938 95.996094 308.410156 96.144531 C 308.253906 96.613281 308.082031 97.070312 307.917969 97.535156 C 307.808594 97.835938 308.117188 98.21875 308.199219 98.484375 C 308.449219 99.304688 307.996094 99.851562 307.378906 99.835938 C 307.203125 99.832031 307.039062 99.777344 306.875 99.703125 C 306.1875 99.398438 305.5 98.640625 305.566406 97.621094 C 305.605469 97.09375 305.785156 96.648438 305.886719 96.148438 C 305.921875 95.984375 305.929688 95.722656 305.765625 95.671875 C 305.351562 95.542969 304.980469 96.601562 304.835938 96.933594 C 304.261719 98.261719 303.777344 99.871094 302.648438 100.589844 C 301.601562 101.253906 300.601562 100.351562 299.589844 100.011719 C 298.492188 99.648438 297.402344 99.816406 296.355469 100.335938 C 296.355469 100.453125 296.191406 100.425781 296.109375 100.476562 C 295.84375 100.648438 295.589844 100.839844 295.335938 101.035156 C 294.214844 101.894531 293.136719 102.863281 292.097656 103.875 C 287.582031 108.242188 282.867188 112.203125 277.941406 115.769531 C 276.445312 116.851562 274.957031 117.96875 273.429688 118.976562 C 272.808594 119.386719 272.171875 119.765625 271.558594 120.191406 C 271.488281 120.234375 270.988281 120.539062 271.132812 120.722656 C 271.296875 120.929688 271.757812 120.808594 271.957031 120.785156 C 272.710938 120.691406 273.476562 120.453125 274.214844 120.226562 C 276.023438 119.671875 277.957031 119.066406 279.621094 117.964844 C 280.683594 117.257812 281.664062 116.308594 282.628906 115.410156 C 285.558594 112.671875 288.464844 109.890625 291.40625 107.175781 C 293.136719 105.578125 295.015625 103.640625 297.0625 102.765625 C 298.886719 101.992188 300.347656 104.464844 302.171875 103.613281 C 302.964844 103.242188 303.546875 102.292969 303.933594 101.367188 C 304 101.210938 304.378906 99.949219 304.519531 99.90625 C 304.542969 99.898438 304.609375 100.457031 304.613281 100.492188 C 304.667969 100.90625 304.726562 101.359375 304.929688 101.699219 C 305.433594 102.550781 306.355469 102.707031 307.125 102.507812 C 309.511719 101.898438 309.519531 98.925781 309.125 96.457031 C 309.074219 96.128906 308.859375 95.523438 308.769531 95.398438 Z M 308.769531 95.398438 " fill-opacity="1" fill-rule="evenodd"/><path fill="#000000" d="M 244.613281 61.25 C 244.628906 61.261719 245.847656 60.574219 245.921875 60.535156 C 247.472656 59.738281 249.046875 58.972656 250.625 58.21875 C 257.105469 55.128906 263.648438 52.09375 270.269531 49.242188 C 272.136719 48.441406 274.015625 47.652344 275.925781 46.933594 C 276.042969 46.886719 277.550781 46.234375 277.632812 46.394531 C 277.796875 46.726562 277.101562 47.816406 276.964844 48.121094 C 276.683594 48.773438 276.496094 49.761719 275.964844 50.308594 C 275.613281 50.679688 274.925781 50.839844 274.441406 51.035156 C 273.257812 51.503906 272.074219 51.96875 270.902344 52.460938 C 267.292969 53.976562 263.796875 55.699219 260.253906 57.328125 C 256.820312 58.910156 253.3125 60.367188 249.910156 62 C 248.214844 62.816406 246.515625 63.628906 244.824219 64.449219 C 244.550781 64.578125 243.421875 65.335938 243.078125 65.179688 C 242.859375 65.082031 243.109375 64.578125 243.152344 64.457031 C 243.394531 63.78125 244.332031 61.910156 244.613281 61.25 Z M 244.613281 61.25 " fill-opacity="1" fill-rule="evenodd"/><path fill="#000000" d="M 136.386719 56.769531 C 136.402344 56.78125 137.617188 56.09375 137.695312 56.054688 C 139.246094 55.257812 140.820312 54.496094 142.398438 53.742188 C 148.878906 50.652344 155.417969 47.617188 162.042969 44.761719 C 163.90625 43.960938 165.785156 43.171875 167.695312 42.453125 C 167.816406 42.410156 169.324219 41.753906 169.402344 41.917969 C 169.570312 42.246094 168.875 43.335938 168.738281 43.640625 C 168.453125 44.292969 168.269531 45.28125 167.738281 45.832031 C 167.382812 46.199219 166.699219 46.359375 166.214844 46.554688 C 165.03125 47.027344 163.847656 47.488281 162.675781 47.980469 C 159.066406 49.496094 155.570312 51.21875 152.023438 52.851562 C 148.59375 54.429688 145.082031 55.886719 141.683594 57.519531 C 139.988281 58.335938 138.289062 59.148438 136.59375 59.96875 C 136.324219 60.101562 135.195312 60.855469 134.847656 60.699219 C 134.632812 60.601562 134.878906 60.097656 134.925781 59.976562 C 135.167969 59.300781 136.101562 57.433594 136.386719 56.769531 Z M 136.386719 56.769531 " fill-opacity="1" fill-rule="evenodd"/><path fill="#000000" d="M 159.878906 57.351562 C 159.890625 57.363281 161.109375 56.675781 161.183594 56.636719 C 162.738281 55.839844 164.308594 55.078125 165.890625 54.324219 C 172.367188 51.234375 178.910156 48.199219 185.53125 45.347656 C 187.398438 44.542969 189.277344 43.753906 191.1875 43.035156 C 191.304688 42.992188 192.8125 42.335938 192.894531 42.5 C 193.058594 42.832031 192.363281 43.917969 192.230469 44.222656 C 191.945312 44.878906 191.757812 45.863281 191.230469 46.414062 C 190.875 46.78125 190.191406 46.945312 189.707031 47.136719 C 188.523438 47.609375 187.335938 48.070312 186.167969 48.5625 C 182.554688 50.078125 179.058594 51.800781 175.515625 53.433594 C 172.085938 55.015625 168.574219 56.46875 165.171875 58.101562 C 163.476562 58.917969 161.777344 59.730469 160.085938 60.550781 C 159.816406 60.683594 158.6875 61.4375 158.339844 61.28125 C 158.121094 61.183594 158.371094 60.683594 158.414062 60.558594 C 158.65625 59.886719 159.59375 58.015625 159.878906 57.351562 Z M 159.878906 57.351562 " fill-opacity="1" fill-rule="evenodd"/><path fill="#000000" d="M 279.757812 51.507812 C 280.140625 51.085938 280.425781 50.320312 280.726562 49.820312 C 281.613281 48.363281 282.492188 46.898438 283.402344 45.457031 C 283.914062 44.644531 284.386719 43.683594 285.117188 43.058594 C 286.152344 42.167969 287.707031 42.289062 288.957031 42.378906 C 291.847656 42.582031 295.183594 43.554688 297.929688 44.039062 C 297.976562 44 298.222656 44.125 298.273438 44.144531 C 298.59375 44.257812 298.910156 44.386719 299.222656 44.515625 C 300.28125 44.953125 302.359375 45.566406 301.988281 47.128906 C 301.753906 48.125 301.113281 49.015625 300.539062 49.824219 C 299.636719 51.078125 298.671875 52.296875 297.660156 53.460938 C 296.324219 55 294.914062 56.453125 293.445312 57.859375 C 292.476562 58.785156 291.476562 59.8125 290.226562 60.316406 C 288.132812 61.15625 285.65625 61.0625 283.453125 61.203125 C 282.40625 61.269531 281.359375 61.320312 280.3125 61.363281 C 279.761719 61.386719 279.070312 61.46875 278.53125 61.296875 C 278.003906 61.128906 279.265625 60.375 279.355469 60.320312 C 280.492188 59.648438 281.726562 59.128906 282.949219 58.660156 C 285.78125 57.578125 288.679688 56.5625 291.367188 55.132812 C 292.007812 54.789062 292.648438 54.445312 293.273438 54.074219 C 293.433594 53.976562 293.800781 53.828125 293.859375 53.621094 C 293.933594 53.367188 293.398438 53.113281 293.246094 53.039062 C 292.507812 52.683594 291.648438 52.503906 290.863281 52.304688 C 287.585938 51.464844 283.109375 50.984375 279.757812 51.507812 Z M 279.757812 51.507812 " fill-opacity="1" fill-rule="evenodd"/><path fill="#000000" d="M 104.003906 59.382812 C 104.386719 58.957031 104.671875 58.195312 104.972656 57.695312 C 105.859375 56.234375 106.738281 54.773438 107.648438 53.328125 C 108.160156 52.519531 108.632812 51.558594 109.363281 50.929688 C 110.398438 50.042969 111.953125 50.164062 113.203125 50.253906 C 116.09375 50.457031 119.429688 51.429688 122.175781 51.914062 C 122.222656 51.875 122.46875 52 122.519531 52.019531 C 122.839844 52.132812 123.15625 52.257812 123.46875 52.390625 C 124.527344 52.824219 126.605469 53.4375 126.234375 55.003906 C 126 56 125.363281 56.890625 124.785156 57.695312 C 123.882812 58.953125 122.917969 60.171875 121.90625 61.335938 C 120.570312 62.875 119.160156 64.324219 117.691406 65.730469 C 116.722656 66.660156 115.722656 67.6875 114.472656 68.1875 C 112.378906 69.03125 109.902344 68.933594 107.699219 69.074219 C 106.652344 69.144531 105.605469 69.195312 104.558594 69.238281 C 104.007812 69.261719 103.316406 69.34375 102.777344 69.171875 C 102.25 69.003906 103.511719 68.25 103.601562 68.195312 C 104.738281 67.519531 105.972656 67.003906 107.195312 66.53125 C 110.027344 65.449219 112.925781 64.4375 115.613281 63.003906 C 116.253906 62.664062 116.894531 62.320312 117.519531 61.949219 C 117.683594 61.851562 118.046875 61.699219 118.109375 61.492188 C 118.179688 61.238281 117.648438 60.988281 117.492188 60.914062 C 116.753906 60.554688 115.894531 60.378906 115.109375 60.175781 C 111.832031 59.335938 107.355469 58.859375 104.003906 59.382812 Z M 104.003906 59.382812 " fill-opacity="1" fill-rule="evenodd"/><path fill="#000000" d="M 221.734375 39.984375 L 225.65625 34.292969 L 231.988281 39.359375 L 227.8125 44.722656 C 227.8125 44.722656 221.984375 39.71875 221.734375 39.984375 Z M 221.734375 39.984375 " fill-opacity="1" fill-rule="evenodd"/><path fill="#000000" d="M 230.980469 38.734375 L 234.902344 33.042969 L 241.238281 38.109375 L 237.058594 43.472656 C 237.058594 43.472656 231.230469 38.46875 230.980469 38.734375 Z M 230.980469 38.734375 " fill-opacity="1" fill-rule="evenodd"/><path fill="#000000" d="M 173.792969 60.527344 L 176.84375 55.914062 L 181.765625 60.023438 L 178.519531 64.371094 C 178.519531 64.371094 173.988281 60.3125 173.792969 60.527344 Z M 173.792969 60.527344 " fill-opacity="1" fill-rule="evenodd"/><path fill="#000000" d="M 181.769531 59.542969 L 184.816406 54.929688 L 189.738281 59.039062 L 186.492188 63.386719 C 186.492188 63.386719 181.960938 59.328125 181.769531 59.542969 Z M 181.769531 59.542969 " fill-opacity="1" fill-rule="evenodd"/><path fill="#000000" d="M 228.503906 95.425781 C 228.277344 95.269531 228.070312 95.597656 228.035156 95.644531 C 227.796875 95.941406 227.632812 96.285156 227.46875 96.621094 C 226.953125 97.691406 226.484375 98.785156 225.964844 99.851562 C 224.625 102.578125 222.933594 105.859375 223.101562 108.972656 C 223.171875 110.324219 223.632812 112.042969 225.234375 112.324219 C 227.222656 112.667969 228.375 109.8125 228.890625 108.449219 C 229.066406 107.984375 229.488281 107.058594 229.210938 106.554688 C 228.972656 106.125 228.375 107.027344 228.28125 107.164062 C 227.722656 108.003906 226.832031 109.660156 225.792969 108.304688 C 224.957031 107.214844 225.082031 105.71875 225.34375 104.457031 C 225.726562 102.59375 226.644531 100.898438 227.460938 99.191406 C 227.972656 98.121094 229.269531 95.96875 228.503906 95.425781 Z M 228.503906 95.425781 " fill-opacity="1" fill-rule="evenodd"/><path fill="#000000" d="M 148.644531 59.203125 C 148.421875 59.046875 148.214844 59.375 148.175781 59.421875 C 147.941406 59.71875 147.773438 60.0625 147.609375 60.398438 C 147.09375 61.46875 146.628906 62.5625 146.105469 63.628906 C 144.769531 66.355469 143.078125 69.636719 143.242188 72.75 C 143.316406 74.105469 143.777344 75.824219 145.378906 76.101562 C 147.367188 76.445312 148.519531 73.589844 149.035156 72.226562 C 149.210938 71.761719 149.628906 70.835938 149.351562 70.332031 C 149.117188 69.902344 148.515625 70.804688 148.425781 70.941406 C 147.863281 71.78125 146.972656 73.4375 145.933594 72.082031 C 145.097656 70.992188 145.226562 69.496094 145.484375 68.234375 C 145.871094 66.371094 146.789062 64.675781 147.605469 62.96875 C 148.117188 61.898438 149.410156 59.746094 148.644531 59.203125 Z M 148.644531 59.203125 " fill-opacity="1" fill-rule="evenodd"/><path fill="#000000" d="M 194.4375 123.824219 C 194.660156 123.984375 194.867188 123.652344 194.90625 123.605469 C 195.140625 123.308594 195.308594 122.96875 195.472656 122.628906 C 195.988281 121.558594 196.453125 120.46875 196.976562 119.398438 C 198.3125 116.671875 200.003906 113.390625 199.835938 110.277344 C 199.765625 108.925781 199.304688 107.207031 197.703125 106.925781 C 195.714844 106.582031 194.5625 109.4375 194.046875 110.800781 C 193.871094 111.265625 193.453125 112.195312 193.730469 112.695312 C 193.964844 113.128906 194.566406 112.222656 194.65625 112.085938 C 195.21875 111.246094 196.109375 109.589844 197.148438 110.945312 C 197.980469 112.039062 197.855469 113.53125 197.59375 114.792969 C 197.210938 116.65625 196.292969 118.355469 195.476562 120.058594 C 194.964844 121.128906 193.671875 123.28125 194.4375 123.824219 Z M 194.4375 123.824219 " fill-opacity="1" fill-rule="evenodd"/><path fill="#000000" d="M 290.234375 72.210938 C 290.121094 72.160156 290.5625 71.84375 290.601562 71.824219 C 290.777344 71.722656 290.949219 71.617188 291.113281 71.503906 C 291.609375 71.171875 292.105469 70.839844 292.59375 70.492188 C 294.113281 69.410156 295.621094 68.308594 297.132812 67.214844 C 300.539062 64.753906 310.03125 56.90625 310.253906 56.445312 C 310.089844 56.308594 309.816406 56.214844 309.632812 56.09375 C 308.675781 55.460938 307.234375 54.523438 307.339844 53.261719 C 307.480469 51.539062 308.964844 49.605469 310.636719 49.011719 C 311.382812 48.746094 312.363281 48.625 313.007812 49.175781 C 313.414062 49.527344 313.527344 50.09375 313.574219 50.597656 C 313.671875 51.707031 313.375 52.765625 312.9375 53.785156 C 312.8125 54.078125 312.664062 54.363281 312.503906 54.640625 C 312.457031 54.722656 312.304688 54.890625 312.304688 54.988281 C 312.308594 55.117188 312.683594 55.332031 312.773438 55.40625 C 313.105469 55.691406 313.578125 56.101562 313.707031 56.53125 C 313.875 57.085938 313.300781 57.875 313.027344 58.316406 C 312.960938 58.429688 312.761719 58.832031 312.582031 58.800781 C 312.371094 58.761719 312.1875 58.484375 312.050781 58.347656 C 311.6875 57.984375 311.289062 57.660156 310.929688 57.296875 C 310.875 57.242188 310.828125 57.410156 310.777344 57.464844 C 310.667969 57.585938 310.5625 57.703125 310.457031 57.824219 C 310.152344 58.167969 309.84375 58.507812 309.53125 58.84375 C 308.597656 59.851562 307.648438 60.847656 306.675781 61.816406 C 303.136719 65.332031 298.917969 68.351562 294.421875 70.625 C 293.394531 71.144531 292.382812 71.738281 291.292969 72.128906 C 291.101562 72.195312 290.351562 72.261719 290.234375 72.210938 Z M 311.507812 54.261719 C 311.507812 54.253906 311.546875 54.09375 311.550781 54.085938 C 311.582031 53.976562 311.617188 53.867188 311.640625 53.753906 C 311.714844 53.421875 311.761719 53.078125 311.738281 52.738281 C 311.726562 52.546875 311.710938 52.355469 311.683594 52.167969 C 311.570312 51.445312 310.988281 50.429688 310.089844 50.640625 C 309.882812 50.6875 309.695312 50.792969 309.527344 50.914062 C 309.40625 51.003906 309.296875 51.113281 309.195312 51.226562 C 309.066406 51.367188 308.910156 51.550781 308.898438 51.75 C 308.890625 51.898438 309 52.019531 309.089844 52.125 C 309.28125 52.351562 309.5 52.542969 309.707031 52.75 C 310.148438 53.195312 311.027344 53.855469 311.507812 54.261719 Z M 311.507812 54.261719 " fill-opacity="1" fill-rule="evenodd"/><path fill="#000000" d="M 189.632812 87.261719 C 189.636719 87.292969 189.609375 87.457031 189.617188 87.519531 C 189.644531 87.734375 189.722656 87.929688 189.816406 88.125 C 190.0625 88.636719 190.363281 89.109375 190.714844 89.550781 C 191.9375 91.101562 193.335938 92.300781 195.148438 92.949219 C 198.773438 94.242188 200.539062 90.535156 200.871094 87.261719 C 200.957031 87.222656 200.84375 86.554688 200.839844 86.503906 C 200.769531 85.703125 200.679688 84.914062 200.589844 84.113281 C 200.21875 80.949219 199.863281 77.78125 199.4375 74.617188 C 198.21875 65.648438 196.414062 56.796875 195.070312 47.851562 C 194.75 45.71875 194.445312 43.578125 194.324219 41.417969 C 194.265625 40.421875 194.667969 38.5625 193.996094 37.804688 C 193.507812 37.25 192.304688 35.902344 191.84375 35.417969 C 191.835938 35.417969 192.539062 34.382812 192.574219 34.3125 C 192.792969 33.902344 193.007812 33.492188 193.230469 33.089844 C 193.695312 32.253906 194.1875 31.441406 194.671875 30.621094 C 194.789062 30.421875 195.105469 29.65625 195.410156 29.988281 C 196.109375 30.75 196.472656 32.253906 196.902344 33.199219 C 198.03125 35.675781 199.191406 38.128906 200.386719 40.570312 C 200.734375 41.28125 201.691406 42.75 201.394531 43.628906 C 201.28125 43.964844 200.835938 43.800781 200.617188 43.726562 C 199.902344 43.484375 199.347656 43.046875 198.839844 42.472656 C 198.808594 42.4375 198.820312 43.511719 198.824219 43.566406 C 198.886719 44.683594 199.050781 45.792969 199.222656 46.898438 C 199.675781 49.839844 200.292969 52.746094 200.746094 55.691406 C 202.136719 64.746094 203.867188 73.789062 203.957031 82.992188 C 204.003906 87.589844 204.234375 92.34375 200.988281 95.851562 C 199.863281 97.0625 198.21875 98.101562 196.589844 98.335938 C 191.804688 99.011719 186.625 89.714844 186.566406 89.757812 C 186.285156 89.941406 186.003906 90.125 185.71875 90.300781 C 184.886719 90.835938 184.054688 91.378906 183.199219 91.859375 C 180.558594 93.339844 177.730469 94.425781 174.910156 95.433594 C 168.261719 97.792969 160.691406 99.742188 153.644531 98.765625 C 152.320312 98.582031 151.027344 98.265625 149.820312 97.636719 C 149.222656 97.332031 148.445312 96.550781 147.789062 96.449219 C 147.257812 96.367188 146.972656 97.945312 146.78125 98.316406 C 146.6875 98.488281 146.402344 98.921875 146.160156 98.726562 C 145.851562 98.480469 145.921875 97.71875 145.953125 97.382812 C 146.058594 96.160156 146.523438 95.019531 146.996094 93.921875 C 146.128906 93.460938 144.851562 92.640625 144.628906 91.542969 C 144.039062 91.347656 142.484375 92.28125 141.9375 92.515625 C 139.5 93.585938 137.136719 94.816406 134.625 95.707031 C 127.738281 98.128906 120.269531 99.011719 113.347656 96.304688 C 113.125 96.210938 112.960938 95.933594 112.753906 95.820312 C 112.988281 96.203125 112.808594 97.6875 112.816406 98.160156 C 112.851562 100.253906 112.964844 102.390625 112.324219 104.402344 C 112.511719 104.308594 112.082031 104.761719 111.945312 104.925781 C 111.660156 105.273438 111.371094 105.613281 111.074219 105.941406 C 110.171875 106.957031 109.230469 107.933594 108.246094 108.855469 C 105.359375 111.566406 102.214844 113.964844 98.855469 115.957031 C 97.378906 116.828125 95.851562 117.609375 94.273438 118.246094 C 86.480469 121.367188 74.632812 122.585938 69.789062 113.503906 C 69.054688 112.117188 68.59375 110.601562 68.347656 109.039062 C 67.574219 104.164062 68.550781 98.929688 70.152344 94.332031 C 70.546875 93.214844 71.039062 92.054688 71.691406 91.070312 C 71.796875 90.90625 72.199219 90.238281 72.464844 90.332031 C 72.71875 90.421875 72.300781 91.632812 72.265625 91.789062 C 71.855469 93.429688 71.511719 95.082031 71.207031 96.746094 C 70.457031 100.839844 69.992188 105.992188 72.027344 109.75 C 74.515625 114.355469 79.535156 114.929688 84.070312 114.519531 C 90.699219 113.914062 97.164062 110.929688 102.777344 107.222656 C 105.230469 105.601562 107.777344 103.847656 109.480469 101.300781 C 109.445312 101.269531 109.820312 99.445312 109.828125 99.332031 C 109.960938 97.957031 109.738281 96.613281 109.167969 95.371094 C 108.65625 94.273438 107.960938 93.316406 107.164062 92.433594 C 106.710938 91.921875 105.894531 91.304688 105.699219 90.597656 C 105.429688 89.582031 105.902344 88.300781 106.171875 87.34375 C 106.300781 86.882812 106.640625 84.941406 107.257812 84.890625 C 107.769531 84.851562 108.554688 86.429688 108.820312 86.78125 C 110.085938 88.472656 111.527344 89.910156 113.28125 91 C 113.28125 91.007812 113.28125 91.007812 113.285156 91.007812 L 113.28125 91 C 113.273438 90.96875 113.429688 90.660156 113.445312 90.640625 C 113.558594 90.402344 113.671875 90.15625 113.804688 89.929688 C 114.234375 89.171875 114.726562 88.453125 115.222656 87.746094 C 116.742188 85.570312 118.328125 83.414062 120.078125 81.445312 C 122.679688 78.5 126.234375 75.265625 130.246094 75.304688 C 136.390625 75.359375 141.253906 82.316406 139.152344 88.503906 C 139.136719 88.523438 139.128906 88.535156 139.136719 88.554688 C 139.140625 88.535156 139.148438 88.523438 139.152344 88.503906 C 139.25 88.390625 139.714844 88.246094 139.820312 88.195312 C 140.648438 87.835938 141.453125 87.417969 142.25 86.976562 C 143.308594 86.402344 144.40625 85.886719 145.425781 85.230469 C 145.605469 85.117188 146.160156 84.59375 146.40625 84.707031 C 146.722656 84.851562 146.4375 86.195312 146.429688 86.441406 C 146.375 87.804688 146.644531 89.152344 147.542969 90.167969 C 147.609375 89.59375 148.136719 89.007812 148.445312 88.546875 C 149.335938 87.210938 150.308594 85.96875 151.273438 84.71875 C 151.980469 83.792969 152.71875 82.902344 153.480469 82.039062 C 157.179688 77.8125 162.738281 72.472656 168.402344 75.757812 C 171.566406 77.59375 173.746094 81.269531 174.507812 84.984375 C 174.839844 86.605469 174.515625 89.140625 173.15625 90.230469 C 172.925781 90.414062 174.191406 89.644531 174.277344 89.613281 C 175.210938 89.222656 176.15625 88.90625 177.109375 88.585938 C 179.820312 87.683594 182.523438 86.535156 184.980469 84.996094 C 185.140625 84.890625 184.597656 83.9375 184.546875 83.792969 C 184.109375 82.613281 183.683594 81.402344 183.4375 80.160156 C 182.746094 76.683594 184.039062 72.484375 187.050781 70.6875 C 190.425781 68.667969 193.429688 73.335938 194.164062 76.394531 C 195.230469 80.847656 192.957031 84.667969 189.632812 87.261719 Z M 149.832031 92.34375 C 149.757812 92.457031 150.539062 91.265625 150.554688 91.246094 C 150.71875 90.957031 150.890625 90.667969 151.070312 90.394531 C 151.59375 89.550781 152.148438 88.742188 152.726562 87.941406 C 154.402344 85.640625 156.351562 83.515625 158.535156 81.761719 C 159.347656 81.105469 160.207031 80.425781 161.175781 80.078125 C 164.382812 78.917969 167.105469 81.144531 169.3125 83.3125 C 170.410156 84.398438 171.820312 85.765625 172.25 87.355469 C 172.414062 87.941406 171.925781 88.351562 171.539062 88.71875 C 170.527344 89.683594 169.332031 90.414062 168.144531 91.089844 C 163.425781 93.757812 158.414062 94.191406 149.832031 92.34375 Z M 115.597656 91.328125 C 115.519531 91.429688 116.304688 90.25 116.320312 90.21875 C 116.484375 89.929688 116.65625 89.652344 116.832031 89.375 C 117.359375 88.535156 117.910156 87.714844 118.492188 86.925781 C 120.167969 84.613281 122.113281 82.492188 124.300781 80.734375 C 125.109375 80.089844 125.972656 79.410156 126.941406 79.0625 C 130.144531 77.894531 132.871094 80.128906 135.074219 82.296875 C 136.175781 83.371094 137.582031 84.75 138.015625 86.328125 C 138.175781 86.925781 137.6875 87.324219 137.300781 87.695312 C 136.292969 88.660156 135.097656 89.398438 133.90625 90.0625 C 129.1875 92.742188 124.175781 93.164062 115.597656 91.328125 Z M 189.632812 87.261719 L 189.621094 87.261719 C 189.628906 87.253906 189.632812 87.253906 189.632812 87.261719 Z M 188.042969 83.742188 C 187.964844 83.753906 187.691406 83.105469 187.671875 83.054688 C 187.472656 82.542969 187.273438 82.039062 187.117188 81.515625 C 186.679688 80.039062 186.472656 78.476562 186.867188 76.96875 C 187.003906 76.445312 187.21875 75.738281 187.710938 75.46875 C 188.21875 75.203125 188.710938 75.707031 189.042969 76.054688 C 189.695312 76.765625 190.1875 77.617188 190.613281 78.488281 C 190.785156 78.835938 191.027344 79.214844 191.082031 79.617188 C 191.144531 80.097656 190.910156 80.59375 190.691406 81.003906 C 190.144531 82.007812 188.890625 83.957031 188.042969 83.742188 Z M 188.042969 83.742188 " fill-opacity="1" fill-rule="evenodd"/><path fill="#000000" d="M 141.742188 109.855469 C 141.6875 109.855469 141.789062 109.679688 141.8125 109.597656 C 141.863281 109.429688 141.925781 109.269531 141.992188 109.109375 C 142.183594 108.640625 142.402344 108.210938 142.660156 107.804688 C 143.402344 106.644531 144.386719 105.328125 145.226562 104.296875 C 145.214844 104.324219 145.257812 104.253906 145.273438 104.230469 C 145.308594 104.183594 145.347656 104.140625 145.386719 104.09375 C 145.496094 103.957031 145.609375 103.832031 145.726562 103.703125 C 146.074219 103.320312 146.441406 102.976562 146.824219 102.65625 C 147.421875 102.144531 148.085938 101.714844 148.792969 101.539062 C 149.394531 101.386719 150.058594 101.433594 150.660156 101.585938 C 150.914062 101.652344 151.214844 101.734375 151.441406 101.90625 C 151.796875 102.179688 152.128906 102.664062 152.253906 103.183594 C 152.335938 103.539062 152.316406 103.914062 152.300781 104.277344 C 152.257812 105.261719 152.046875 106.171875 151.644531 107.003906 C 151.484375 107.332031 151.304688 107.644531 151.117188 107.945312 C 151.066406 108.027344 150.964844 108.167969 150.90625 108.246094 C 150.734375 108.480469 150.554688 108.710938 150.375 108.941406 C 149.890625 109.566406 149.367188 110.144531 148.800781 110.632812 C 146.734375 112.410156 144.261719 113.464844 141.785156 113.539062 C 140.753906 113.566406 139.832031 113.566406 138.878906 113.027344 C 138.882812 113.058594 138.835938 113.007812 138.8125 113 C 138.699219 112.957031 138.582031 112.914062 138.46875 112.867188 C 138.199219 112.757812 137.925781 112.65625 137.644531 112.589844 C 136.792969 112.378906 135.941406 112.347656 135.085938 112.535156 C 132.449219 113.101562 129.992188 114.851562 127.714844 116.601562 C 126 117.914062 124.347656 119.375 122.765625 120.945312 C 120.613281 123.074219 118.609375 125.441406 115.957031 126.4375 C 114.957031 126.8125 113.945312 127.117188 112.921875 127.355469 C 112.75 127.394531 112.078125 127.675781 111.925781 127.453125 C 111.800781 127.273438 112.285156 127.023438 112.347656 126.984375 C 112.875 126.660156 113.457031 126.511719 113.992188 126.207031 C 115.375 125.417969 116.726562 124.5 117.953125 123.351562 C 121.8125 119.746094 124.824219 115.730469 128.515625 112.488281 C 128.703125 112.324219 128.933594 112.15625 129.125 112.011719 C 129.589844 111.667969 130.0625 111.347656 130.539062 111.027344 C 131.800781 110.183594 133.117188 109.453125 134.480469 108.941406 C 135.300781 108.632812 136.160156 108.375 137.019531 108.519531 C 137.890625 108.667969 138.535156 109.292969 139.339844 109.65625 C 140 109.953125 141.050781 109.933594 141.742188 109.855469 Z M 141.742188 109.855469 L 141.75 109.855469 C 141.746094 109.855469 141.742188 109.855469 141.742188 109.855469 Z M 142.957031 109.816406 C 143.078125 109.777344 143.257812 109.449219 143.34375 109.34375 C 143.660156 108.945312 143.957031 108.53125 144.277344 108.136719 C 144.875 107.402344 145.5 106.703125 146.164062 106.070312 C 146.675781 105.578125 147.230469 105.105469 147.855469 104.894531 C 148.484375 104.683594 149.273438 104.789062 149.871094 105.128906 C 150.148438 105.285156 150.460938 105.625 150.296875 106.0625 C 150.242188 106.207031 150.117188 106.316406 150.019531 106.414062 C 149.773438 106.671875 149.503906 106.898438 149.230469 107.105469 C 148.136719 107.9375 146.957031 108.507812 145.761719 109.023438 C 144.910156 109.390625 143.5625 109.984375 142.957031 109.816406 Z M 142.957031 109.816406 " fill-opacity="1" fill-rule="evenodd"/></svg>