<svg xmlns="http://www.w3.org/2000/svg" xmlns:xlink="http://www.w3.org/1999/xlink" width="500" zoomAndPan="magnify" viewBox="0 0 375 149.999998" height="200" preserveAspectRatio="xMidYMid meet" version="1.0"><defs><clipPath id="deec65fd85"><path d="M 159 22.265625 L 186 22.265625 L 186 43 L 159 43 Z M 159 22.265625 " clip-rule="nonzero"/></clipPath></defs><path fill="#000000" d="M 306.550781 29.007812 C 307.273438 28.738281 308.757812 29.210938 309.460938 29.347656 C 312.496094 29.949219 315.429688 31.035156 318.234375 32.296875 C 328.679688 36.992188 336.246094 45.804688 340.929688 55.867188 C 342.101562 58.378906 343.066406 61.023438 343.667969 63.71875 C 343.828125 64.445312 344.308594 65.773438 343.976562 66.523438 C 343.675781 67.171875 342.917969 67.675781 342.402344 68.140625 C 341.296875 69.136719 340.273438 70.015625 339.007812 70.769531 C 337.375 69.300781 335.085938 68.257812 333.234375 67.035156 C 332.671875 62.675781 330.75 58.320312 328.773438 54.429688 C 325.402344 47.816406 320.9375 41.753906 315.523438 36.59375 C 313.058594 34.257812 309.574219 30.621094 306.550781 29.007812 Z M 306.550781 29.007812 " fill-opacity="1" fill-rule="evenodd"/><path fill="#000000" d="M 306.550781 121.625 C 307.273438 121.890625 308.757812 121.421875 309.460938 121.28125 C 312.496094 120.679688 315.429688 119.597656 318.234375 118.332031 C 328.679688 113.636719 336.246094 104.828125 340.929688 94.765625 C 342.101562 92.253906 343.066406 89.609375 343.667969 86.910156 C 343.828125 86.183594 344.308594 84.859375 343.976562 84.105469 C 343.675781 83.460938 342.917969 82.957031 342.402344 82.492188 C 341.296875 81.496094 340.273438 80.617188 339.007812 79.863281 C 337.375 81.332031 335.085938 82.375 333.234375 83.597656 C 332.671875 87.957031 330.75 92.3125 328.773438 96.203125 C 325.402344 102.816406 320.9375 108.878906 315.523438 114.039062 C 313.058594 116.371094 309.574219 120.011719 306.550781 121.625 Z M 306.550781 121.625 " fill-opacity="1" fill-rule="evenodd"/><path fill="#000000" d="M 352.269531 69.515625 C 351.980469 69.664062 351.71875 69.804688 351.648438 69.851562 C 349.992188 71.109375 348.359375 72.292969 346.507812 73.289062 C 345.875 73.632812 345.21875 73.917969 344.574219 74.234375 C 344.472656 74.285156 344.183594 74.417969 344.035156 74.566406 C 343.828125 74.765625 343.769531 75.003906 343.828125 75.234375 C 343.882812 75.46875 344.058594 75.664062 344.355469 75.757812 C 344.585938 75.824219 344.953125 75.808594 345.070312 75.8125 C 345.253906 75.8125 345.816406 76.023438 346.554688 76.304688 C 348.496094 77.050781 351.542969 78.398438 352.949219 79.164062 C 353.109375 79.253906 353.59375 79.574219 354.007812 79.855469 C 353.753906 80.015625 353.488281 80.167969 353.351562 80.21875 C 351.957031 80.742188 350.3125 81.269531 349.417969 82.511719 C 349.082031 82.972656 348.980469 83.511719 348.980469 84.074219 C 348.992188 84.746094 349.1875 85.464844 349.210938 86.074219 C 349.265625 87.714844 348.96875 89.144531 347.980469 90.503906 C 347.207031 91.578125 346.253906 92.589844 345.070312 93.238281 C 344.875 93.34375 343.21875 94.128906 343.21875 94.128906 C 342.988281 94.238281 342.859375 94.488281 342.90625 94.738281 C 342.953125 94.984375 343.171875 95.171875 343.425781 95.1875 C 343.425781 95.1875 345.964844 95.363281 346.726562 95.265625 C 350.636719 94.773438 353.015625 92.347656 354.730469 89.09375 C 354.984375 88.625 355.167969 88.03125 355.363281 87.449219 C 355.535156 86.96875 355.707031 86.492188 355.996094 86.160156 C 356.273438 85.84375 356.675781 85.628906 357.089844 85.425781 C 357.605469 85.167969 358.136719 84.929688 358.550781 84.625 C 359.824219 83.695312 360.722656 82.519531 361.550781 81.203125 C 361.871094 80.691406 362.171875 80.164062 362.460938 79.636719 C 362.609375 79.382812 363.484375 77.804688 363.484375 77.804688 C 363.632812 77.535156 363.527344 77.199219 363.253906 77.050781 C 363.253906 77.050781 362.367188 76.582031 362.207031 76.5 C 361.632812 76.226562 360.042969 75.527344 358.859375 75.011719 C 358.847656 75.011719 363.414062 73.644531 363.414062 73.644531 C 363.703125 73.554688 363.875 73.265625 363.804688 72.980469 C 363.804688 72.980469 363.332031 71.039062 362.367188 69.203125 C 361.6875 67.910156 360.757812 66.683594 359.605469 66.132812 C 359.179688 65.929688 358.605469 65.777344 358.066406 65.605469 C 357.628906 65.472656 357.214844 65.335938 356.960938 65.109375 C 356.871094 65.027344 356.859375 64.882812 356.835938 64.742188 C 356.777344 64.464844 356.742188 64.175781 356.6875 63.960938 C 356.398438 62.933594 355.949219 61.898438 355.386719 60.992188 C 353.039062 57.28125 347.152344 54.535156 342.941406 54.765625 C 342.664062 54.78125 342.433594 54.984375 342.402344 55.25 C 342.367188 55.515625 342.527344 55.769531 342.792969 55.855469 C 344.148438 56.300781 345.277344 57.578125 346.242188 59.09375 C 347.785156 61.527344 348.851562 64.601562 349.554688 66.371094 C 350.039062 67.589844 350.507812 68.363281 351.636719 69.125 C 351.84375 69.265625 352.050781 69.398438 352.269531 69.515625 Z M 345.691406 94.179688 C 347 93.453125 348.070312 92.335938 348.921875 91.144531 C 350.0625 89.574219 350.429688 87.925781 350.359375 86.03125 C 350.335938 85.519531 350.199219 84.929688 350.152344 84.359375 C 350.105469 83.925781 350.105469 83.5 350.359375 83.15625 C 351.128906 82.09375 352.578125 81.710938 353.765625 81.265625 C 354.15625 81.113281 355.339844 80.324219 355.339844 80.324219 C 355.5 80.21875 355.582031 80.046875 355.582031 79.867188 C 355.59375 79.683594 355.5 79.515625 355.351562 79.410156 C 355.351562 79.410156 353.832031 78.363281 353.511719 78.1875 C 351.867188 77.289062 348.035156 75.617188 346.195312 74.980469 C 346.070312 74.9375 345.964844 74.898438 345.851562 74.867188 C 346.265625 74.675781 346.667969 74.480469 347.070312 74.269531 C 348.980469 73.242188 350.648438 72.03125 352.359375 70.730469 C 352.5 70.625 353.59375 70.152344 353.84375 69.988281 C 354.015625 69.867188 354.074219 69.734375 354.097656 69.671875 C 354.15625 69.527344 354.191406 69.265625 353.914062 69.042969 C 353.820312 68.964844 353.304688 68.761719 353.246094 68.738281 C 352.914062 68.597656 352.589844 68.410156 352.292969 68.207031 C 351.382812 67.59375 351.015625 66.957031 350.625 65.972656 C 349.910156 64.15625 348.808594 61.003906 347.21875 58.507812 C 346.621094 57.550781 345.933594 56.691406 345.183594 56.019531 C 348.679688 56.59375 352.636719 58.78125 354.410156 61.574219 C 354.914062 62.394531 355.316406 63.328125 355.570312 64.257812 C 355.640625 64.5 355.660156 64.84375 355.742188 65.144531 C 355.824219 65.460938 355.972656 65.738281 356.179688 65.925781 C 356.46875 66.191406 356.902344 66.398438 357.386719 66.566406 C 357.960938 66.765625 358.628906 66.914062 359.101562 67.136719 C 360.042969 67.59375 360.78125 68.640625 361.34375 69.710938 C 361.953125 70.871094 362.34375 72.074219 362.539062 72.734375 C 362.539062 72.734375 357.042969 74.382812 357.042969 74.382812 C 356.824219 74.449219 356.664062 74.648438 356.640625 74.882812 C 356.628906 75.117188 356.765625 75.332031 356.984375 75.425781 C 356.984375 75.425781 360.757812 77.046875 361.6875 77.5 C 361.757812 77.535156 361.976562 77.652344 362.195312 77.765625 C 361.929688 78.25 361.550781 78.9375 361.457031 79.097656 C 361.171875 79.613281 360.882812 80.125 360.5625 80.621094 C 359.8125 81.8125 359.019531 82.886719 357.859375 83.730469 C 357.492188 84 357.019531 84.203125 356.558594 84.429688 C 356.007812 84.707031 355.488281 85.015625 355.121094 85.441406 C 354.742188 85.871094 354.488281 86.46875 354.28125 87.089844 C 354.097656 87.617188 353.9375 88.15625 353.71875 88.585938 C 352.175781 91.496094 350.082031 93.714844 346.585938 94.15625 C 346.378906 94.183594 346.058594 94.1875 345.691406 94.179688 Z M 345.691406 94.179688 " fill-opacity="1" fill-rule="evenodd"/><path fill="#000000" d="M 339.351562 80.054688 C 339.492188 79.957031 340.320312 79.363281 340.410156 79.292969 C 341.6875 78.285156 344.125 75.953125 345.289062 74.828125 C 345.402344 74.726562 345.460938 74.589844 345.460938 74.445312 C 345.460938 74.320312 345.425781 74.15625 345.289062 74 C 345.183594 73.886719 344.929688 73.734375 344.875 73.691406 C 344.472656 73.402344 344.082031 73.117188 343.675781 72.832031 C 342.148438 71.726562 340.640625 70.503906 338.984375 69.558594 C 338.742188 69.414062 338.421875 69.476562 338.25 69.699219 C 337.789062 70.269531 336.59375 70.832031 335.960938 71.253906 C 334.222656 72.417969 332.417969 73.488281 330.65625 74.617188 C 330.40625 74.679688 330.300781 74.914062 330.289062 74.960938 C 330.242188 75.078125 330.175781 75.332031 330.429688 75.574219 C 330.460938 75.597656 330.691406 75.722656 330.773438 75.777344 C 330.945312 75.890625 331.117188 76 331.289062 76.113281 C 331.886719 76.511719 332.507812 76.878906 333.128906 77.242188 C 334.925781 78.292969 336.707031 79.386719 338.582031 80.292969 C 338.765625 80.378906 338.984375 80.367188 339.15625 80.257812 C 339.238281 80.203125 339.308594 80.136719 339.351562 80.054688 Z M 344.023438 74.472656 C 342.78125 75.667969 340.789062 77.550781 339.6875 78.421875 C 339.59375 78.492188 339.054688 78.839844 338.71875 79.105469 C 337.007812 78.253906 335.375 77.25 333.71875 76.285156 C 333.117188 75.929688 332.519531 75.574219 331.933594 75.191406 L 331.898438 75.164062 C 333.476562 74.171875 335.0625 73.210938 336.617188 72.175781 C 337.191406 71.789062 338.167969 71.273438 338.789062 70.746094 C 340.261719 71.636719 341.605469 72.738281 343 73.734375 C 343.34375 73.980469 343.6875 74.226562 344.023438 74.472656 Z M 330.738281 75.714844 Z M 330.738281 75.714844 " fill-opacity="1" fill-rule="evenodd"/><path fill="#000000" d="M 363.367188 73.050781 L 375.089844 75.5625 L 363.367188 77.46875 L 358.457031 75.027344 Z M 363.367188 73.050781 " fill-opacity="1" fill-rule="evenodd"/><path fill="#000000" d="M 68.589844 24.242188 C 67.867188 23.976562 66.382812 24.449219 65.679688 24.585938 C 62.644531 25.1875 59.710938 26.273438 56.90625 27.535156 C 46.460938 32.230469 38.894531 41.039062 34.214844 51.101562 C 33.039062 53.613281 32.074219 56.261719 31.476562 58.957031 C 31.316406 59.683594 30.832031 61.011719 31.164062 61.761719 C 31.464844 62.40625 32.222656 62.910156 32.742188 63.375 C 33.84375 64.375 34.867188 65.253906 36.132812 66.003906 C 37.765625 64.539062 40.054688 63.496094 41.90625 62.269531 C 42.472656 57.910156 44.390625 53.554688 46.371094 49.664062 C 49.742188 43.054688 54.203125 36.992188 59.621094 31.828125 C 62.082031 29.496094 65.566406 25.855469 68.589844 24.242188 Z M 68.589844 24.242188 " fill-opacity="1" fill-rule="evenodd"/><path fill="#000000" d="M 68.589844 116.863281 C 67.867188 117.128906 66.382812 116.65625 65.679688 116.519531 C 62.644531 115.917969 59.710938 114.832031 56.90625 113.570312 C 46.460938 108.875 38.894531 100.066406 34.214844 90.003906 C 33.039062 87.492188 32.074219 84.84375 31.476562 82.148438 C 31.316406 81.421875 30.832031 80.09375 31.164062 79.34375 C 31.464844 78.699219 32.222656 78.195312 32.742188 77.730469 C 33.84375 76.730469 34.867188 75.851562 36.132812 75.101562 C 37.765625 76.566406 40.054688 77.609375 41.90625 78.832031 C 42.472656 83.195312 44.390625 87.550781 46.371094 91.441406 C 49.742188 98.050781 54.203125 104.113281 59.621094 109.277344 C 62.082031 111.609375 65.566406 115.25 68.589844 116.863281 Z M 68.589844 116.863281 " fill-opacity="1" fill-rule="evenodd"/><path fill="#000000" d="M 22.871094 64.753906 C 23.160156 64.902344 23.425781 65.039062 23.492188 65.085938 C 25.148438 66.347656 26.785156 67.527344 28.636719 68.527344 C 29.269531 68.867188 29.921875 69.152344 30.566406 69.46875 C 30.671875 69.523438 30.957031 69.652344 31.109375 69.800781 C 31.316406 70.003906 31.371094 70.242188 31.316406 70.472656 C 31.257812 70.707031 31.085938 70.902344 30.785156 70.992188 C 30.554688 71.0625 30.1875 71.046875 30.074219 71.046875 C 29.890625 71.050781 29.324219 71.257812 28.589844 71.542969 C 26.644531 72.285156 23.597656 73.632812 22.195312 74.402344 C 22.035156 74.488281 21.550781 74.808594 21.136719 75.089844 C 21.390625 75.25 21.652344 75.402344 21.792969 75.457031 C 23.183594 75.980469 24.828125 76.507812 25.726562 77.75 C 26.058594 78.210938 26.164062 78.746094 26.164062 79.3125 C 26.152344 79.984375 25.957031 80.699219 25.933594 81.308594 C 25.875 82.949219 26.175781 84.378906 27.164062 85.742188 C 27.933594 86.8125 28.886719 87.828125 30.074219 88.472656 C 30.269531 88.582031 31.925781 89.367188 31.925781 89.367188 C 32.15625 89.476562 32.28125 89.726562 32.234375 89.972656 C 32.1875 90.222656 31.96875 90.40625 31.71875 90.425781 C 31.71875 90.425781 29.175781 90.597656 28.417969 90.503906 C 24.507812 90.011719 22.125 87.582031 20.410156 84.332031 C 20.160156 83.859375 19.972656 83.265625 19.777344 82.6875 C 19.605469 82.203125 19.433594 81.730469 19.144531 81.398438 C 18.871094 81.082031 18.46875 80.867188 18.054688 80.660156 C 17.535156 80.40625 17.007812 80.167969 16.59375 79.863281 C 15.316406 78.933594 14.417969 77.757812 13.589844 76.441406 C 13.269531 75.929688 12.96875 75.402344 12.683594 74.875 C 12.53125 74.621094 11.660156 73.042969 11.660156 73.042969 C 11.507812 72.773438 11.613281 72.433594 11.890625 72.285156 C 11.890625 72.285156 12.773438 71.820312 12.9375 71.738281 C 13.511719 71.460938 15.097656 70.761719 16.28125 70.246094 C 16.292969 70.246094 11.726562 68.878906 11.726562 68.878906 C 11.441406 68.792969 11.269531 68.503906 11.335938 68.21875 C 11.335938 68.21875 11.808594 66.273438 12.773438 64.441406 C 13.453125 63.144531 14.386719 61.921875 15.535156 61.371094 C 15.960938 61.167969 16.535156 61.011719 17.074219 60.84375 C 17.511719 60.707031 17.925781 60.574219 18.179688 60.347656 C 18.273438 60.265625 18.285156 60.121094 18.308594 59.980469 C 18.363281 59.703125 18.398438 59.410156 18.457031 59.195312 C 18.742188 58.167969 19.191406 57.136719 19.757812 56.226562 C 22.101562 52.515625 27.992188 49.773438 32.199219 50.003906 C 32.476562 50.019531 32.707031 50.222656 32.742188 50.488281 C 32.777344 50.753906 32.613281 51.007812 32.351562 51.09375 C 30.992188 51.535156 29.867188 52.8125 28.898438 54.332031 C 27.359375 56.765625 26.289062 59.839844 25.585938 61.609375 C 25.105469 62.828125 24.632812 63.601562 23.503906 64.363281 C 23.296875 64.5 23.089844 64.632812 22.871094 64.753906 Z M 29.453125 89.417969 C 28.140625 88.6875 27.070312 87.570312 26.21875 86.382812 C 25.082031 84.808594 24.714844 83.164062 24.78125 81.269531 C 24.804688 80.757812 24.941406 80.167969 24.988281 79.59375 C 25.035156 79.164062 25.035156 78.738281 24.78125 78.390625 C 24.011719 77.328125 22.5625 76.945312 21.378906 76.5 C 20.988281 76.351562 19.800781 75.558594 19.800781 75.558594 C 19.640625 75.457031 19.558594 75.285156 19.558594 75.101562 C 19.550781 74.921875 19.640625 74.75 19.789062 74.644531 C 19.789062 74.644531 21.308594 73.597656 21.632812 73.425781 C 23.277344 72.527344 27.105469 70.851562 28.945312 70.214844 C 29.070312 70.171875 29.175781 70.136719 29.289062 70.105469 C 28.875 69.914062 28.472656 69.71875 28.070312 69.503906 C 26.164062 68.476562 24.496094 67.265625 22.78125 65.96875 C 22.644531 65.859375 21.550781 65.386719 21.296875 65.222656 C 21.125 65.105469 21.066406 64.972656 21.042969 64.910156 C 20.988281 64.761719 20.953125 64.503906 21.226562 64.277344 C 21.320312 64.203125 21.835938 63.996094 21.894531 63.976562 C 22.230469 63.835938 22.550781 63.648438 22.851562 63.445312 C 23.757812 62.828125 24.125 62.195312 24.515625 61.210938 C 25.230469 59.394531 26.335938 56.242188 27.921875 53.746094 C 28.519531 52.785156 29.210938 51.925781 29.957031 51.257812 L 29.957031 51.253906 C 26.460938 51.828125 22.503906 54.019531 20.734375 56.8125 C 20.226562 57.632812 19.824219 58.566406 19.570312 59.492188 C 19.503906 59.734375 19.480469 60.078125 19.398438 60.382812 C 19.320312 60.699219 19.167969 60.972656 18.960938 61.164062 C 18.675781 61.429688 18.238281 61.632812 17.753906 61.800781 C 17.179688 62 16.511719 62.152344 16.039062 62.375 C 15.097656 62.828125 14.363281 63.878906 13.796875 64.949219 C 13.1875 66.105469 12.796875 67.3125 12.601562 67.96875 C 12.601562 67.96875 18.101562 69.617188 18.101562 69.617188 C 18.316406 69.6875 18.480469 69.886719 18.503906 70.121094 C 18.515625 70.351562 18.375 70.570312 18.15625 70.664062 C 18.15625 70.664062 14.386719 72.285156 13.453125 72.738281 C 13.382812 72.773438 13.164062 72.886719 12.945312 73.003906 C 13.210938 73.484375 13.589844 74.175781 13.683594 74.335938 C 13.972656 74.847656 14.257812 75.359375 14.582031 75.859375 C 15.328125 77.050781 16.121094 78.125 17.28125 78.964844 C 17.652344 79.238281 18.121094 79.441406 18.582031 79.667969 C 19.136719 79.941406 19.652344 80.253906 20.019531 80.675781 C 20.398438 81.109375 20.652344 81.707031 20.859375 82.328125 C 21.042969 82.851562 21.207031 83.394531 21.421875 83.820312 C 22.964844 86.730469 25.058594 88.953125 28.554688 89.394531 C 28.761719 89.417969 29.082031 89.421875 29.453125 89.417969 Z M 29.453125 89.417969 " fill-opacity="1" fill-rule="evenodd"/><path fill="#000000" d="M 35.789062 75.292969 C 35.652344 75.191406 34.824219 74.601562 34.730469 74.527344 C 33.453125 73.523438 31.015625 71.1875 29.855469 70.066406 C 29.738281 69.960938 29.683594 69.824219 29.683594 69.679688 C 29.683594 69.558594 29.714844 69.390625 29.855469 69.238281 C 29.957031 69.125 30.210938 68.96875 30.269531 68.929688 C 30.671875 68.640625 31.0625 68.355469 31.464844 68.070312 C 32.996094 66.964844 34.5 65.738281 36.15625 64.796875 C 36.398438 64.652344 36.722656 64.714844 36.894531 64.933594 C 37.351562 65.507812 38.550781 66.070312 39.183594 66.492188 C 40.917969 67.65625 42.722656 68.726562 44.484375 69.851562 C 44.738281 69.914062 44.839844 70.148438 44.851562 70.199219 C 44.898438 70.316406 44.96875 70.570312 44.714844 70.808594 C 44.679688 70.835938 44.449219 70.960938 44.371094 71.015625 C 44.195312 71.125 44.023438 71.238281 43.851562 71.351562 C 43.253906 71.746094 42.632812 72.117188 42.011719 72.480469 C 40.21875 73.53125 38.433594 74.625 36.558594 75.527344 C 36.375 75.617188 36.15625 75.605469 35.984375 75.496094 C 35.902344 75.441406 35.835938 75.371094 35.789062 75.292969 Z M 31.121094 69.710938 C 32.363281 70.902344 34.351562 72.789062 35.457031 73.660156 C 35.546875 73.726562 36.089844 74.078125 36.421875 74.34375 C 38.136719 73.488281 39.769531 72.488281 41.425781 71.519531 C 42.023438 71.167969 42.621094 70.8125 43.207031 70.425781 L 43.242188 70.402344 C 41.667969 69.410156 40.078125 68.449219 38.527344 67.414062 C 37.953125 67.027344 36.972656 66.507812 36.351562 65.984375 C 34.878906 66.875 33.535156 67.972656 32.144531 68.96875 C 31.796875 69.214844 31.453125 69.460938 31.121094 69.710938 Z M 44.402344 70.949219 L 44.402344 70.953125 Z M 44.402344 70.949219 " fill-opacity="1" fill-rule="evenodd"/><path fill="#000000" d="M 11.773438 68.289062 L 0.0546875 70.796875 L 11.773438 72.707031 L 16.683594 70.261719 Z M 11.773438 68.289062 " fill-opacity="1" fill-rule="evenodd"/><path fill="#000000" d="M 155.621094 48.453125 C 155.59375 48.539062 155.195312 48.867188 155.113281 48.96875 C 154.738281 49.433594 154.382812 49.910156 154.058594 50.410156 C 152.925781 52.132812 151.847656 53.996094 151.324219 55.976562 C 151.070312 56.925781 150.890625 57.957031 151.164062 58.917969 C 151.785156 61.085938 155.09375 61.40625 156.921875 60.476562 C 158.269531 59.785156 159.105469 58.027344 159.15625 56.632812 C 159.222656 54.917969 158.375 53.496094 157.03125 52.402344 C 156.503906 51.972656 155.480469 51.535156 155.179688 50.910156 C 155.0625 50.667969 155.269531 50.359375 155.382812 50.144531 C 155.664062 49.621094 156.542969 48.765625 155.621094 48.453125 Z M 153.902344 53.601562 C 153.625 53.8125 153.253906 54.546875 153.128906 54.851562 C 153.003906 55.160156 152.867188 55.46875 152.851562 55.800781 C 152.777344 57.363281 154.425781 57.765625 155.761719 57.613281 C 156.234375 57.558594 156.710938 57.488281 157.171875 57.378906 C 157.332031 57.339844 157.570312 57.269531 157.644531 57.109375 C 157.800781 56.765625 154.574219 53.640625 153.902344 53.601562 Z M 153.902344 53.601562 " fill-opacity="1" fill-rule="evenodd"/><path fill="#000000" d="M 290.71875 76.425781 C 290.742188 76.410156 290.753906 76.390625 290.730469 76.359375 C 290.71875 76.382812 290.71875 76.402344 290.71875 76.425781 C 290.644531 76.46875 290.410156 76.472656 290.3125 76.519531 C 290 76.679688 289.699219 76.847656 289.398438 77.019531 C 288.472656 77.535156 287.632812 78.136719 286.804688 78.785156 C 284.5 80.578125 281.875 83.460938 278.714844 83.417969 C 278.757812 83.25 278.367188 82.785156 278.292969 82.667969 C 277.808594 81.875 277.292969 81.109375 276.796875 80.320312 C 274.828125 77.148438 271.546875 72.652344 267.394531 75.421875 C 264.113281 77.617188 261.402344 81.890625 260.808594 85.820312 C 260.324219 89.003906 261.734375 92.058594 264.953125 93.007812 C 268.644531 94.097656 273.398438 91.875 276.539062 90.007812 C 276.5625 89.992188 276.777344 90.386719 276.796875 90.4375 C 276.949219 90.71875 277.078125 91.007812 277.21875 91.292969 C 277.605469 92.140625 277.992188 93.082031 277.949219 94.039062 C 277.929688 94.046875 277.679688 94.28125 277.625 94.335938 C 277.445312 94.527344 277.25 94.707031 277.054688 94.890625 C 276.398438 95.503906 275.742188 96.101562 275.109375 96.726562 C 273.3125 98.476562 271.429688 100.105469 269.503906 101.707031 C 264.015625 106.285156 256.796875 112.703125 249.203125 112.625 C 241.089844 112.535156 235.453125 105.652344 236.246094 97.617188 C 236.472656 95.386719 236.902344 93.195312 237.472656 91.03125 C 237.570312 90.632812 238.164062 89.128906 237.882812 88.738281 C 237.636719 88.386719 236.667969 89.933594 236.589844 90.046875 C 235.613281 91.679688 235.019531 93.449219 234.644531 95.316406 C 233.675781 100.046875 233.804688 105.410156 235.804688 109.867188 C 239.335938 117.714844 248.78125 120.527344 256.386719 117.460938 C 260.324219 115.875 263.789062 113.167969 267.09375 110.53125 C 270.179688 108.058594 273.355469 105.492188 275.710938 102.261719 C 276.992188 100.507812 278.863281 98.257812 279.402344 96.097656 C 280.015625 93.667969 279.855469 91.058594 279.519531 88.691406 C 279.507812 88.636719 279.984375 88.453125 280.035156 88.429688 C 280.542969 88.167969 281.058594 87.917969 281.5625 87.660156 C 283.523438 86.675781 285.566406 85.726562 287.222656 84.261719 C 287.34375 84.160156 287.246094 84.585938 287.277344 84.742188 C 287.332031 85.019531 287.429688 85.285156 287.523438 85.546875 C 287.816406 86.320312 288.128906 87.082031 288.484375 87.820312 C 289.589844 90.121094 291.59375 91.925781 294.042969 92.589844 C 295.109375 92.875 296.25 93.066406 297.359375 92.972656 C 301.964844 92.574219 304.621094 87.871094 305.976562 83.882812 C 305.976562 83.878906 305.988281 83.875 305.988281 83.878906 L 305.976562 83.882812 C 305.988281 83.984375 306.460938 85.09375 306.527344 85.210938 C 307.03125 86.101562 307.644531 86.960938 308.34375 87.710938 C 310.515625 90.058594 314.101562 90.714844 316.992188 89.4375 C 318.917969 88.582031 320.007812 86.980469 320.84375 85.09375 C 322.566406 81.226562 321.75 75.359375 320.328125 71.425781 C 320.371094 71.230469 320.101562 71.753906 319.972656 71.910156 C 319.683594 72.261719 319.359375 72.601562 319.070312 72.949219 C 318.1875 73.992188 317.144531 75 316.402344 76.15625 C 316.335938 76.25 317.640625 77.832031 317.746094 78.082031 C 318.738281 80.277344 317.027344 82.511719 314.777344 82.636719 C 311.464844 82.820312 309.589844 79.90625 309.214844 76.917969 C 309.085938 75.890625 309.109375 74.84375 308.925781 73.820312 C 308.871094 73.492188 308.710938 72.9375 308.289062 72.953125 C 307.828125 72.964844 307.535156 73.632812 307.375 73.992188 C 306.859375 75.183594 306.804688 76.511719 306.492188 77.761719 C 306.171875 79.023438 305.472656 80.117188 304.78125 81.203125 C 303.511719 83.234375 301.984375 85.765625 299.628906 86.621094 C 296.808594 87.636719 293.171875 85.835938 291.742188 83.292969 C 290.710938 81.4375 290.410156 78.542969 290.71875 76.425781 Z M 277.949219 94.039062 C 277.949219 94.035156 277.949219 94.035156 277.949219 94.039062 Z M 264.964844 84.953125 C 265.058594 83.691406 265.75 82.4375 266.609375 81.527344 C 267.027344 81.089844 267.554688 80.617188 268.210938 80.734375 C 269.492188 80.960938 270.773438 82.027344 271.613281 82.980469 C 271.785156 83.179688 272.367188 83.726562 272.28125 84.042969 C 272.183594 84.359375 271.71875 84.539062 271.460938 84.65625 C 270.65625 85.015625 269.761719 85.230469 268.902344 85.355469 C 267.976562 85.492188 265.457031 85.539062 264.964844 84.953125 Z M 264.964844 84.953125 " fill-opacity="1" fill-rule="evenodd"/><path fill="#000000" d="M 243.136719 77.46875 C 243.066406 77.546875 243.039062 77.804688 243.007812 77.910156 C 242.898438 78.285156 242.796875 78.664062 242.695312 79.042969 C 242.355469 80.355469 241.996094 81.660156 241.648438 82.96875 C 241.539062 83.382812 241.425781 83.792969 241.316406 84.203125 C 241.28125 84.320312 241.164062 84.574219 241.203125 84.703125 C 241.242188 84.820312 241.542969 84.945312 241.640625 85.007812 C 241.953125 85.222656 242.257812 85.472656 242.515625 85.75 C 242.511719 85.71875 242.601562 85.898438 242.609375 85.914062 C 242.664062 86.054688 242.726562 86.191406 242.785156 86.328125 C 242.960938 86.742188 243.101562 87.171875 243.261719 87.589844 C 243.742188 88.855469 244.226562 90.113281 244.75 91.359375 C 245.710938 93.65625 246.828125 95.902344 248 98.101562 C 248.492188 99.027344 248.972656 99.953125 249.433594 100.894531 C 249.644531 101.320312 249.917969 101.753906 250.058594 102.207031 C 250.269531 102.898438 248.570312 103.871094 248.085938 104.378906 C 246.21875 106.332031 244.191406 108.121094 242.074219 109.796875 C 233.785156 116.363281 222.5 122.875 211.699219 118.347656 C 211.808594 118.453125 211.433594 118.203125 211.308594 118.117188 C 211.042969 117.941406 210.796875 117.746094 210.554688 117.539062 C 209.785156 116.890625 209.101562 116.183594 208.515625 115.363281 C 206.785156 112.917969 206.050781 110.042969 205.929688 107.085938 C 205.757812 102.859375 206.488281 98.753906 207.808594 94.746094 C 207.949219 94.316406 208.09375 93.882812 208.242188 93.457031 C 208.367188 93.089844 208.496094 92.726562 208.621094 92.359375 C 208.703125 92.117188 208.78125 91.871094 208.859375 91.625 C 208.921875 91.425781 208.984375 91.226562 209.042969 91.03125 C 209.09375 90.863281 209.140625 90.695312 209.1875 90.527344 C 209.28125 90.183594 209.972656 88.246094 209.042969 88.480469 C 209.109375 88.640625 208.804688 88.734375 208.71875 88.882812 C 208.410156 89.402344 208.136719 89.945312 207.882812 90.488281 C 206.890625 92.605469 206.042969 94.765625 205.335938 96.992188 C 203.265625 103.527344 201.207031 111.640625 204.265625 118.160156 C 204.359375 118.132812 204.335938 118.34375 204.371094 118.433594 C 204.445312 118.628906 204.53125 118.820312 204.613281 119.015625 C 204.867188 119.601562 205.167969 120.164062 205.492188 120.714844 C 206.410156 122.285156 207.785156 123.613281 209.207031 124.730469 C 213.03125 127.746094 218.210938 127.730469 222.828125 127.140625 C 222.824219 127.117188 223.195312 127.035156 223.210938 127.03125 C 223.652344 126.917969 224.09375 126.808594 224.53125 126.679688 C 225.652344 126.351562 226.765625 125.976562 227.824219 125.476562 C 231.105469 123.933594 234.4375 122.335938 237.25 120.046875 C 237.25 120.054688 240.976562 117.164062 242.035156 116.335938 C 245.238281 113.820312 248.46875 110.804688 250.453125 107.203125 C 250.519531 107.074219 250.757812 106.523438 250.804688 106.40625 C 251.144531 105.582031 251.425781 104.722656 251.640625 103.855469 C 252.167969 101.75 252.40625 99.371094 251.96875 97.21875 C 251.691406 95.84375 251.132812 94.574219 250.59375 93.285156 C 250.6875 93.324219 250.519531 93.089844 250.480469 92.992188 C 250.410156 92.820312 250.332031 92.648438 250.257812 92.476562 C 250 91.894531 249.742188 91.308594 249.480469 90.722656 C 248.730469 89.070312 247.554688 87.425781 247.117188 85.648438 C 247.007812 85.195312 247.472656 85.511719 247.667969 85.628906 C 248.160156 85.921875 248.644531 86.261719 249.167969 86.496094 C 249.339844 86.574219 249.648438 86.699219 249.707031 86.429688 C 249.859375 85.738281 249.121094 84.757812 248.785156 84.230469 C 247.699219 82.527344 245.296875 79.792969 243.136719 77.46875 Z M 243.136719 77.46875 " fill-opacity="1" fill-rule="evenodd"/><path fill="#000000" d="M 222.703125 58.820312 C 222.710938 58.542969 223.21875 59.007812 223.488281 59.085938 C 224.152344 59.289062 224.84375 59.46875 225.53125 59.613281 C 225.585938 59.625 226.167969 59.777344 226.167969 59.675781 C 226.144531 59.089844 224.671875 58.097656 224.292969 57.75 C 222.53125 56.097656 220.765625 54.445312 218.925781 52.878906 C 218.582031 52.589844 217.234375 51.148438 216.707031 51.339844 C 216.34375 51.472656 216.128906 52.085938 215.976562 52.402344 C 215.535156 53.363281 215.128906 54.339844 214.707031 55.308594 C 214.589844 55.582031 214.191406 56.210938 214.332031 56.53125 C 214.480469 56.859375 214.933594 56.773438 215.203125 56.933594 C 215.570312 57.160156 215.816406 57.691406 216.03125 58.039062 C 218.300781 61.582031 221.011719 64.734375 223.59375 68.039062 C 223.585938 68.042969 223.820312 68.28125 223.84375 68.308594 C 223.832031 68.300781 223.015625 69.300781 222.960938 69.371094 C 221.882812 70.667969 220.914062 72.054688 219.992188 73.449219 C 217.386719 77.328125 216.535156 82.742188 217.742188 87.265625 C 218.417969 89.824219 220.410156 92.386719 223.25 92.175781 C 225.433594 92.011719 227.554688 90.277344 229.082031 88.824219 C 232.816406 85.296875 237.226562 80.015625 235.117188 74.488281 C 234.289062 72.335938 232.921875 70.398438 231.4375 68.675781 C 230.984375 68.164062 229.664062 67.21875 229.847656 66.433594 C 230.167969 65.109375 231.425781 63.84375 232.191406 62.78125 C 234.171875 60.046875 237 56.914062 237.859375 53.542969 C 238.164062 52.335938 238.539062 49.847656 237.816406 48.699219 C 237.710938 48.539062 237.367188 49.03125 237.324219 49.09375 C 236.859375 49.679688 236.503906 50.355469 236.117188 50.988281 C 235.148438 52.566406 234.148438 54.125 233.105469 55.65625 C 232.277344 56.882812 231.417969 58.085938 230.566406 59.304688 C 229.738281 60.484375 228.910156 61.660156 228.070312 62.828125 C 227.910156 63.046875 227.511719 63.8125 227.175781 63.828125 C 226.347656 63.863281 223.230469 59.390625 222.703125 58.820312 Z M 226.261719 71.089844 C 226.402344 70.929688 225.433594 71.9375 225.316406 72.105469 C 225.101562 72.410156 224.875 72.71875 224.660156 73.027344 C 224.015625 73.929688 223.402344 74.847656 222.796875 75.773438 C 221.109375 78.359375 218.214844 84.105469 222.703125 85.605469 C 225.648438 86.589844 228.511719 83.390625 230.199219 81.386719 C 230.898438 80.570312 231.921875 79.476562 231.921875 78.320312 C 231.933594 77.652344 231.503906 76.996094 231.160156 76.460938 C 230.167969 74.929688 227.660156 72.242188 226.261719 71.089844 Z M 226.261719 71.089844 " fill-opacity="1" fill-rule="evenodd"/><path fill="#000000" d="M 253.128906 36.613281 C 253.152344 36.648438 253.058594 36.792969 253.042969 36.828125 C 252.925781 37.058594 252.804688 37.285156 252.675781 37.507812 C 252.644531 37.558594 252.566406 37.730469 252.472656 37.722656 C 252.332031 37.714844 252.109375 37.507812 252.007812 37.4375 C 251.628906 37.175781 251.242188 36.921875 250.871094 36.648438 C 250.460938 36.347656 250.046875 36.046875 249.621094 35.757812 C 249.375 35.59375 249.042969 35.441406 248.863281 35.214844 C 248.671875 34.972656 248.679688 34.625 248.652344 34.34375 C 248.59375 33.664062 248.578125 32.960938 248.792969 32.296875 C 248.996094 31.683594 249.371094 30.863281 250.210938 30.738281 C 251.09375 30.609375 252.015625 31.261719 252.691406 31.652344 C 254.066406 32.441406 254.933594 33.53125 255.703125 34.761719 C 256.386719 35.859375 256.933594 37.003906 257.277344 38.21875 C 257.484375 38.953125 257.609375 39.71875 257.863281 40.449219 C 257.96875 40.757812 258.109375 41.148438 258.453125 41.335938 C 258.449219 41.382812 258.480469 41.238281 258.488281 41.1875 C 258.503906 41.09375 258.519531 40.996094 258.539062 40.898438 C 258.585938 40.621094 258.621094 40.339844 258.660156 40.058594 C 258.785156 39.191406 258.933594 38.328125 259.160156 37.476562 C 259.75 35.207031 260.605469 32.777344 262.128906 30.832031 C 262.808594 29.960938 263.859375 29.003906 265.222656 29.457031 C 266.164062 29.769531 266.8125 30.691406 267.257812 31.421875 C 267.402344 31.660156 267.660156 32.023438 267.648438 32.304688 C 267.621094 32.859375 267.152344 33.492188 266.90625 33.988281 C 266.734375 34.339844 266.574219 34.695312 266.371094 35.03125 C 266.300781 35.144531 266.214844 35.335938 266.066406 35.398438 C 265.800781 35.515625 265.46875 34.828125 265.394531 34.707031 C 264.996094 34.074219 264.394531 33.078125 263.398438 33.128906 C 262.355469 33.179688 261.894531 34.308594 261.578125 34.992188 C 260.625 37.027344 260.101562 39.117188 259.5625 41.246094 C 259.546875 41.25 259.464844 41.5625 259.457031 41.585938 C 259.324219 41.964844 259.191406 42.351562 259.070312 42.734375 C 258.714844 43.867188 258.484375 45.0625 257.972656 46.152344 C 257.894531 46.320312 257.554688 47.140625 257.175781 46.941406 C 256.988281 46.84375 256.957031 46.546875 256.929688 46.382812 C 256.839844 45.902344 256.742188 45.425781 256.621094 44.949219 C 256.484375 44.394531 256.34375 43.839844 256.214844 43.28125 C 256.023438 42.433594 255.804688 41.582031 255.492188 40.757812 C 255.074219 39.648438 254.066406 37.128906 253.128906 36.613281 Z M 253.128906 36.613281 " fill-opacity="1" fill-rule="evenodd"/><path fill="#000000" d="M 133.558594 61.980469 C 133.578125 62.015625 133.484375 62.160156 133.46875 62.195312 C 133.355469 62.421875 133.230469 62.648438 133.101562 62.871094 C 133.070312 62.925781 132.992188 63.097656 132.898438 63.089844 C 132.761719 63.082031 132.535156 62.871094 132.433594 62.804688 C 132.054688 62.539062 131.667969 62.289062 131.296875 62.015625 C 130.886719 61.714844 130.476562 61.414062 130.050781 61.125 C 129.800781 60.957031 129.472656 60.808594 129.292969 60.582031 C 129.097656 60.339844 129.105469 59.992188 129.082031 59.710938 C 129.019531 59.03125 129.003906 58.328125 129.222656 57.664062 C 129.421875 57.046875 129.796875 56.230469 130.636719 56.105469 C 131.519531 55.972656 132.441406 56.628906 133.121094 57.019531 C 134.492188 57.808594 135.359375 58.898438 136.128906 60.128906 C 136.816406 61.226562 137.359375 62.371094 137.703125 63.585938 C 137.910156 64.320312 138.039062 65.085938 138.289062 65.8125 C 138.398438 66.121094 138.535156 66.515625 138.878906 66.699219 C 138.875 66.746094 138.90625 66.605469 138.914062 66.554688 C 138.933594 66.460938 138.949219 66.363281 138.964844 66.265625 C 139.011719 65.988281 139.046875 65.707031 139.089844 65.425781 C 139.210938 64.558594 139.363281 63.695312 139.585938 62.84375 C 140.175781 60.574219 141.035156 58.144531 142.558594 56.195312 C 143.238281 55.328125 144.285156 54.371094 145.648438 54.824219 C 146.59375 55.136719 147.242188 56.054688 147.683594 56.785156 C 147.832031 57.027344 148.089844 57.390625 148.074219 57.671875 C 148.046875 58.226562 147.578125 58.855469 147.335938 59.355469 C 147.164062 59.703125 147.003906 60.058594 146.796875 60.398438 C 146.730469 60.511719 146.640625 60.703125 146.496094 60.765625 C 146.226562 60.882812 145.898438 60.195312 145.820312 60.074219 C 145.421875 59.441406 144.824219 58.445312 143.828125 58.496094 C 142.785156 58.546875 142.324219 59.675781 142.003906 60.355469 C 141.050781 62.394531 140.527344 64.484375 139.988281 66.613281 C 139.972656 66.617188 139.894531 66.929688 139.886719 66.949219 C 139.75 67.332031 139.617188 67.714844 139.496094 68.101562 C 139.144531 69.234375 138.914062 70.429688 138.398438 71.519531 C 138.320312 71.683594 137.980469 72.507812 137.605469 72.308594 C 137.417969 72.210938 137.382812 71.910156 137.355469 71.75 C 137.269531 71.269531 137.167969 70.789062 137.050781 70.316406 C 136.910156 69.757812 136.773438 69.203125 136.644531 68.648438 C 136.449219 67.796875 136.230469 66.949219 135.921875 66.125 C 135.503906 65.015625 134.492188 62.496094 133.558594 61.980469 Z M 133.558594 61.980469 " fill-opacity="1" fill-rule="evenodd"/><path fill="#000000" d="M 66.710938 89.5625 C 66.730469 89.59375 66.648438 89.714844 66.632812 89.746094 C 66.53125 89.9375 66.421875 90.128906 66.304688 90.316406 C 66.277344 90.359375 66.207031 90.503906 66.121094 90.5 C 65.996094 90.492188 65.796875 90.316406 65.707031 90.257812 C 65.367188 90.035156 65.019531 89.820312 64.6875 89.59375 C 64.316406 89.335938 63.949219 89.082031 63.566406 88.839844 C 63.347656 88.699219 63.050781 88.574219 62.890625 88.382812 C 62.714844 88.175781 62.722656 87.882812 62.699219 87.644531 C 62.644531 87.070312 62.632812 86.476562 62.824219 85.917969 C 63.003906 85.398438 63.34375 84.707031 64.097656 84.601562 C 64.886719 84.492188 65.710938 85.042969 66.320312 85.375 C 67.550781 86.039062 68.328125 86.957031 69.015625 87.996094 C 69.632812 88.925781 70.121094 89.890625 70.425781 90.917969 C 70.613281 91.539062 70.726562 92.183594 70.953125 92.800781 C 71.050781 93.058594 71.175781 93.390625 71.480469 93.546875 C 71.476562 93.585938 71.503906 93.46875 71.511719 93.425781 C 71.527344 93.34375 71.542969 93.261719 71.558594 93.179688 C 71.597656 92.945312 71.632812 92.707031 71.667969 92.472656 C 71.777344 91.738281 71.914062 91.011719 72.113281 90.289062 C 72.644531 88.375 73.410156 86.324219 74.777344 84.679688 C 75.386719 83.945312 76.328125 83.136719 77.546875 83.519531 C 78.394531 83.785156 78.976562 84.558594 79.371094 85.175781 C 79.503906 85.378906 79.734375 85.6875 79.722656 85.921875 C 79.699219 86.390625 79.277344 86.925781 79.058594 87.347656 C 78.90625 87.640625 78.761719 87.941406 78.578125 88.226562 C 78.515625 88.320312 78.4375 88.484375 78.304688 88.539062 C 78.066406 88.632812 77.769531 88.054688 77.703125 87.953125 C 77.34375 87.417969 76.808594 86.578125 75.914062 86.617188 C 74.980469 86.664062 74.566406 87.617188 74.28125 88.191406 C 73.429688 89.910156 72.957031 91.675781 72.476562 93.476562 C 72.460938 93.476562 72.390625 93.738281 72.382812 93.757812 C 72.261719 94.082031 72.144531 94.40625 72.035156 94.730469 C 71.71875 95.6875 71.511719 96.695312 71.050781 97.617188 C 70.980469 97.757812 70.675781 98.449219 70.339844 98.285156 C 70.171875 98.203125 70.140625 97.949219 70.117188 97.8125 C 70.039062 97.40625 69.949219 97.003906 69.839844 96.601562 C 69.714844 96.128906 69.59375 95.664062 69.476562 95.191406 C 69.304688 94.476562 69.109375 93.757812 68.832031 93.0625 C 68.453125 92.125 67.550781 89.996094 66.710938 89.5625 Z M 66.710938 89.5625 " fill-opacity="1" fill-rule="evenodd"/><path fill="#000000" d="M 253.128906 64.753906 C 253.152344 64.789062 253.058594 64.933594 253.042969 64.96875 C 252.925781 65.195312 252.804688 65.421875 252.675781 65.644531 C 252.644531 65.699219 252.566406 65.871094 252.472656 65.863281 C 252.332031 65.851562 252.109375 65.644531 252.007812 65.578125 C 251.628906 65.3125 251.242188 65.058594 250.871094 64.789062 C 250.460938 64.488281 250.046875 64.183594 249.621094 63.898438 C 249.375 63.730469 249.042969 63.582031 248.863281 63.355469 C 248.671875 63.109375 248.679688 62.765625 248.652344 62.484375 C 248.59375 61.804688 248.578125 61.101562 248.792969 60.4375 C 248.996094 59.820312 249.371094 59.003906 250.210938 58.878906 C 251.09375 58.746094 252.015625 59.402344 252.691406 59.792969 C 254.066406 60.582031 254.933594 61.667969 255.703125 62.902344 C 256.386719 64 256.933594 65.140625 257.277344 66.355469 C 257.484375 67.09375 257.609375 67.859375 257.863281 68.585938 C 257.96875 68.894531 258.109375 69.289062 258.453125 69.472656 C 258.449219 69.519531 258.480469 69.378906 258.488281 69.328125 C 258.503906 69.230469 258.519531 69.136719 258.539062 69.039062 C 258.585938 68.757812 258.621094 68.480469 258.660156 68.199219 C 258.785156 67.328125 258.933594 66.46875 259.160156 65.613281 C 259.75 63.347656 260.605469 60.917969 262.128906 58.96875 C 262.808594 58.097656 263.859375 57.144531 265.222656 57.597656 C 266.164062 57.910156 266.8125 58.828125 267.257812 59.558594 C 267.402344 59.800781 267.660156 60.164062 267.648438 60.445312 C 267.621094 61 267.152344 61.628906 266.90625 62.128906 C 266.734375 62.476562 266.574219 62.832031 266.371094 63.167969 C 266.300781 63.285156 266.214844 63.476562 266.066406 63.539062 C 265.800781 63.652344 265.46875 62.964844 265.394531 62.847656 C 264.996094 62.214844 264.394531 61.21875 263.398438 61.265625 C 262.355469 61.320312 261.894531 62.449219 261.578125 63.128906 C 260.625 65.164062 260.101562 67.257812 259.5625 69.386719 C 259.546875 69.390625 259.464844 69.699219 259.457031 69.722656 C 259.324219 70.105469 259.191406 70.488281 259.070312 70.875 C 258.714844 72.007812 258.484375 73.199219 257.972656 74.292969 C 257.894531 74.457031 257.554688 75.277344 257.175781 75.082031 C 256.988281 74.984375 256.957031 74.683594 256.929688 74.523438 C 256.839844 74.039062 256.742188 73.5625 256.621094 73.089844 C 256.484375 72.53125 256.34375 71.976562 256.214844 71.421875 C 256.023438 70.570312 255.804688 69.722656 255.492188 68.898438 C 255.074219 67.789062 254.066406 65.269531 253.128906 64.753906 Z M 253.128906 64.753906 " fill-opacity="1" fill-rule="evenodd"/><path fill="#000000" d="M 312.519531 94.542969 C 312.445312 94.445312 312.316406 94.792969 312.289062 94.867188 C 312.234375 95.019531 312.171875 95.175781 312.117188 95.335938 C 311.941406 95.832031 311.75 96.320312 311.566406 96.8125 C 311.441406 97.132812 311.785156 97.539062 311.878906 97.820312 C 312.160156 98.695312 311.648438 99.273438 310.960938 99.257812 C 310.761719 99.253906 310.578125 99.195312 310.394531 99.117188 C 309.621094 98.789062 308.851562 97.988281 308.925781 96.902344 C 308.964844 96.34375 309.171875 95.871094 309.285156 95.335938 C 309.320312 95.164062 309.332031 94.886719 309.144531 94.832031 C 308.683594 94.699219 308.269531 95.820312 308.105469 96.175781 C 307.460938 97.585938 306.917969 99.292969 305.648438 100.058594 C 304.472656 100.765625 303.351562 99.804688 302.214844 99.441406 C 300.984375 99.054688 299.761719 99.238281 298.585938 99.789062 C 298.585938 99.910156 298.398438 99.882812 298.308594 99.9375 C 298.011719 100.121094 297.722656 100.324219 297.4375 100.53125 C 296.179688 101.441406 294.972656 102.472656 293.804688 103.546875 C 288.734375 108.1875 283.445312 112.394531 277.914062 116.183594 C 276.234375 117.332031 274.5625 118.523438 272.847656 119.589844 C 272.152344 120.027344 271.4375 120.429688 270.746094 120.878906 C 270.671875 120.929688 270.109375 121.25 270.269531 121.445312 C 270.453125 121.664062 270.972656 121.539062 271.195312 121.511719 C 272.042969 121.414062 272.898438 121.15625 273.726562 120.917969 C 275.761719 120.332031 277.929688 119.6875 279.796875 118.515625 C 280.992188 117.765625 282.09375 116.757812 283.175781 115.800781 C 286.464844 112.890625 289.726562 109.9375 293.03125 107.054688 C 294.96875 105.359375 297.078125 103.296875 299.378906 102.371094 C 301.425781 101.546875 303.066406 104.171875 305.113281 103.269531 C 306.003906 102.878906 306.65625 101.867188 307.09375 100.882812 C 307.164062 100.71875 307.59375 99.375 307.746094 99.332031 C 307.773438 99.324219 307.851562 99.917969 307.855469 99.953125 C 307.917969 100.394531 307.984375 100.875 308.210938 101.234375 C 308.773438 102.140625 309.808594 102.304688 310.671875 102.09375 C 313.355469 101.449219 313.363281 98.289062 312.917969 95.667969 C 312.859375 95.316406 312.621094 94.675781 312.519531 94.542969 Z M 312.519531 94.542969 " fill-opacity="1" fill-rule="evenodd"/><path fill="#000000" d="M 240.5 58.273438 C 240.515625 58.285156 241.878906 57.554688 241.964844 57.511719 C 243.707031 56.667969 245.472656 55.855469 247.246094 55.054688 C 254.519531 51.773438 261.863281 48.546875 269.296875 45.515625 C 271.390625 44.664062 273.5 43.824219 275.644531 43.0625 C 275.777344 43.015625 277.46875 42.320312 277.5625 42.492188 C 277.75 42.84375 276.96875 44 276.816406 44.324219 C 276.496094 45.019531 276.289062 46.066406 275.691406 46.648438 C 275.292969 47.042969 274.527344 47.214844 273.980469 47.417969 C 272.652344 47.917969 271.324219 48.410156 270.011719 48.933594 C 265.957031 50.546875 262.03125 52.375 258.054688 54.109375 C 254.203125 55.789062 250.261719 57.332031 246.445312 59.070312 C 244.539062 59.9375 242.632812 60.800781 240.734375 61.671875 C 240.429688 61.8125 239.160156 62.613281 238.773438 62.445312 C 238.527344 62.34375 238.808594 61.808594 238.855469 61.679688 C 239.128906 60.960938 240.179688 58.976562 240.5 58.273438 Z M 240.5 58.273438 " fill-opacity="1" fill-rule="evenodd"/><path fill="#000000" d="M 104.941406 41.078125 C 104.957031 41.089844 106.324219 40.359375 106.410156 40.316406 C 108.152344 39.472656 109.917969 38.660156 111.691406 37.859375 C 118.964844 34.578125 126.308594 31.351562 133.742188 28.320312 C 135.835938 27.46875 137.945312 26.632812 140.089844 25.867188 C 140.222656 25.820312 141.914062 25.125 142.007812 25.296875 C 142.191406 25.648438 141.410156 26.804688 141.257812 27.128906 C 140.941406 27.824219 140.730469 28.871094 140.136719 29.457031 C 139.738281 29.847656 138.96875 30.019531 138.425781 30.226562 C 137.097656 30.726562 135.765625 31.21875 134.453125 31.738281 C 130.398438 33.351562 126.476562 35.179688 122.496094 36.914062 C 118.644531 38.59375 114.703125 40.140625 110.886719 41.875 C 108.984375 42.742188 107.078125 43.605469 105.175781 44.476562 C 104.875 44.617188 103.605469 45.417969 103.214844 45.253906 C 102.972656 45.148438 103.25 44.613281 103.300781 44.484375 C 103.574219 43.769531 104.625 41.78125 104.941406 41.078125 Z M 104.941406 41.078125 " fill-opacity="1" fill-rule="evenodd"/><path fill="#000000" d="M 152.375 69.703125 C 152.386719 69.710938 153.386719 69.203125 153.453125 69.171875 C 154.730469 68.582031 156.027344 68.015625 157.328125 67.457031 C 162.667969 65.164062 168.058594 62.914062 173.519531 60.796875 C 175.054688 60.199219 176.605469 59.613281 178.179688 59.082031 C 178.277344 59.046875 179.519531 58.5625 179.585938 58.683594 C 179.722656 58.929688 179.148438 59.738281 179.039062 59.960938 C 178.804688 60.449219 178.648438 61.179688 178.214844 61.585938 C 177.921875 61.863281 177.355469 61.980469 176.957031 62.125 C 175.980469 62.472656 175.003906 62.816406 174.042969 63.183594 C 171.066406 64.308594 168.183594 65.585938 165.261719 66.796875 C 162.433594 67.96875 159.542969 69.046875 156.738281 70.261719 C 155.339844 70.867188 153.941406 71.46875 152.546875 72.078125 C 152.324219 72.175781 151.390625 72.734375 151.105469 72.621094 C 150.925781 72.546875 151.132812 72.175781 151.167969 72.082031 C 151.367188 71.582031 152.140625 70.195312 152.375 69.703125 Z M 152.375 69.703125 " fill-opacity="1" fill-rule="evenodd"/><path fill="#000000" d="M 279.953125 47.921875 C 280.382812 47.46875 280.703125 46.660156 281.042969 46.128906 C 282.039062 44.578125 283.023438 43.023438 284.046875 41.488281 C 284.617188 40.628906 285.148438 39.609375 285.96875 38.941406 C 287.132812 38 288.875 38.125 290.28125 38.222656 C 293.527344 38.4375 297.269531 39.46875 300.351562 39.984375 C 300.402344 39.945312 300.679688 40.078125 300.742188 40.097656 C 301.097656 40.21875 301.453125 40.351562 301.804688 40.492188 C 302.996094 40.953125 305.328125 41.605469 304.910156 43.269531 C 304.644531 44.328125 303.929688 45.273438 303.28125 46.128906 C 302.269531 47.464844 301.1875 48.757812 300.050781 49.996094 C 298.550781 51.628906 296.96875 53.171875 295.320312 54.664062 C 294.234375 55.652344 293.109375 56.742188 291.703125 57.277344 C 289.355469 58.167969 286.578125 58.070312 284.101562 58.21875 C 282.925781 58.289062 281.753906 58.34375 280.578125 58.390625 C 279.957031 58.417969 279.183594 58.503906 278.578125 58.320312 C 277.984375 58.140625 279.402344 57.339844 279.503906 57.285156 C 280.777344 56.566406 282.164062 56.015625 283.539062 55.515625 C 286.714844 54.367188 289.96875 53.292969 292.984375 51.769531 C 293.703125 51.40625 294.421875 51.039062 295.125 50.644531 C 295.308594 50.542969 295.71875 50.382812 295.785156 50.164062 C 295.867188 49.894531 295.269531 49.628906 295.097656 49.546875 C 294.265625 49.167969 293.304688 48.980469 292.417969 48.765625 C 288.738281 47.871094 283.714844 47.363281 279.953125 47.921875 Z M 279.953125 47.921875 " fill-opacity="1" fill-rule="evenodd"/><g clip-path="url(#deec65fd85)"><path fill="#000000" d="M 160.679688 32.183594 C 161.113281 31.730469 161.429688 30.921875 161.769531 30.390625 C 162.765625 28.839844 163.753906 27.285156 164.773438 25.753906 C 165.347656 24.890625 165.878906 23.871094 166.699219 23.203125 C 167.863281 22.261719 169.605469 22.390625 171.011719 22.484375 C 174.253906 22.699219 177.996094 23.730469 181.078125 24.246094 C 181.132812 24.207031 181.410156 24.339844 181.46875 24.359375 C 181.828125 24.480469 182.183594 24.613281 182.535156 24.753906 C 183.722656 25.214844 186.054688 25.867188 185.636719 27.53125 C 185.371094 28.589844 184.65625 29.535156 184.007812 30.390625 C 183 31.726562 181.914062 33.019531 180.78125 34.257812 C 179.277344 35.890625 177.695312 37.433594 176.046875 38.925781 C 174.960938 39.914062 173.835938 41.003906 172.433594 41.539062 C 170.085938 42.429688 167.304688 42.332031 164.828125 42.480469 C 163.652344 42.550781 162.480469 42.605469 161.304688 42.652344 C 160.6875 42.679688 159.910156 42.765625 159.308594 42.582031 C 158.710938 42.402344 160.128906 41.601562 160.230469 41.546875 C 161.507812 40.828125 162.890625 40.277344 164.265625 39.78125 C 167.441406 38.628906 170.695312 37.554688 173.714844 36.03125 C 174.433594 35.667969 175.152344 35.304688 175.855469 34.910156 C 176.035156 34.808594 176.449219 34.644531 176.515625 34.425781 C 176.59375 34.15625 175.996094 33.890625 175.824219 33.808594 C 174.992188 33.429688 174.03125 33.242188 173.148438 33.027344 C 169.46875 32.132812 164.445312 31.625 160.679688 32.183594 Z M 160.679688 32.183594 " fill-opacity="1" fill-rule="evenodd"/></g><path fill="#000000" d="M 79.304688 42.425781 C 79.632812 42.09375 79.875 41.5 80.132812 41.113281 C 80.890625 39.976562 81.640625 38.839844 82.414062 37.714844 C 82.851562 37.085938 83.253906 36.335938 83.878906 35.851562 C 84.761719 35.160156 86.085938 35.253906 87.15625 35.320312 C 89.621094 35.480469 92.464844 36.238281 94.808594 36.613281 C 94.847656 36.582031 95.058594 36.679688 95.101562 36.695312 C 95.375 36.785156 95.644531 36.882812 95.914062 36.984375 C 96.816406 37.324219 98.585938 37.800781 98.269531 39.019531 C 98.070312 39.792969 97.527344 40.484375 97.035156 41.113281 C 96.265625 42.089844 95.441406 43.039062 94.578125 43.941406 C 93.4375 45.140625 92.234375 46.269531 90.984375 47.363281 C 90.15625 48.085938 89.304688 48.886719 88.234375 49.277344 C 86.453125 49.929688 84.339844 49.855469 82.457031 49.964844 C 81.5625 50.019531 80.671875 50.058594 79.78125 50.09375 C 79.308594 50.109375 78.71875 50.175781 78.261719 50.042969 C 77.808594 49.910156 78.886719 49.324219 78.960938 49.28125 C 79.933594 48.757812 80.984375 48.351562 82.03125 47.988281 C 84.445312 47.144531 86.914062 46.359375 89.207031 45.242188 C 89.757812 44.976562 90.300781 44.710938 90.835938 44.421875 C 90.972656 44.347656 91.285156 44.226562 91.335938 44.066406 C 91.398438 43.871094 90.945312 43.675781 90.8125 43.617188 C 90.183594 43.335938 89.449219 43.199219 88.777344 43.042969 C 85.984375 42.390625 82.164062 42.015625 79.304688 42.425781 Z M 79.304688 42.425781 " fill-opacity="1" fill-rule="evenodd"/><path fill="#000000" d="M 214.824219 35.675781 L 219.226562 29.628906 L 226.339844 35.011719 L 221.648438 40.707031 C 221.648438 40.707031 215.105469 35.390625 214.824219 35.675781 Z M 214.824219 35.675781 " fill-opacity="1" fill-rule="evenodd"/><path fill="#000000" d="M 83.878906 59.9375 L 87.554688 54.707031 L 93.5 59.363281 L 89.578125 64.292969 C 89.578125 64.292969 84.113281 59.691406 83.878906 59.9375 Z M 83.878906 59.9375 " fill-opacity="1" fill-rule="evenodd"/><path fill="#000000" d="M 93.5 59.9375 L 97.175781 54.707031 L 103.121094 59.363281 L 99.199219 64.292969 C 99.199219 64.292969 93.734375 59.691406 93.5 59.9375 Z M 93.5 59.9375 " fill-opacity="1" fill-rule="evenodd"/><path fill="#000000" d="M 225.207031 34.34375 L 229.609375 28.300781 L 236.71875 33.683594 L 232.027344 39.378906 C 232.027344 39.378906 225.488281 34.0625 225.207031 34.34375 Z M 225.207031 34.34375 " fill-opacity="1" fill-rule="evenodd"/><path fill="#000000" d="M 104.6875 118.261719 L 109.085938 112.214844 L 116.199219 117.601562 L 111.507812 123.296875 C 111.507812 123.296875 104.964844 117.980469 104.6875 118.261719 Z M 104.6875 118.261719 " fill-opacity="1" fill-rule="evenodd"/><path fill="#000000" d="M 142.332031 78.382812 L 146.730469 72.335938 L 153.84375 77.722656 L 149.152344 83.417969 C 149.152344 83.417969 142.609375 78.101562 142.332031 78.382812 Z M 142.332031 78.382812 " fill-opacity="1" fill-rule="evenodd"/><path fill="#000000" d="M 222.417969 94.570312 C 222.164062 94.398438 221.933594 94.75 221.890625 94.800781 C 221.625 95.113281 221.4375 95.480469 221.253906 95.839844 C 220.675781 96.972656 220.152344 98.132812 219.566406 99.269531 C 218.066406 102.167969 216.167969 105.652344 216.351562 108.957031 C 216.433594 110.394531 216.953125 112.222656 218.75 112.519531 C 220.980469 112.886719 222.273438 109.847656 222.851562 108.402344 C 223.050781 107.910156 223.523438 106.921875 223.210938 106.390625 C 222.945312 105.929688 222.273438 106.890625 222.171875 107.035156 C 221.539062 107.929688 220.539062 109.6875 219.375 108.246094 C 218.4375 107.089844 218.578125 105.5 218.871094 104.160156 C 219.300781 102.183594 220.332031 100.378906 221.246094 98.566406 C 221.824219 97.429688 223.277344 95.144531 222.417969 94.570312 Z M 222.417969 94.570312 " fill-opacity="1" fill-rule="evenodd"/><path fill="#000000" d="M 291.722656 69.90625 C 291.59375 69.851562 292.09375 69.515625 292.132812 69.492188 C 292.332031 69.386719 292.523438 69.273438 292.710938 69.152344 C 293.265625 68.800781 293.824219 68.449219 294.371094 68.078125 C 296.078125 66.929688 297.773438 65.761719 299.46875 64.597656 C 303.289062 61.984375 313.945312 53.648438 314.195312 53.15625 C 314.015625 53.011719 313.707031 52.914062 313.5 52.785156 C 312.429688 52.113281 310.808594 51.117188 310.925781 49.773438 C 311.085938 47.945312 312.753906 45.890625 314.628906 45.261719 C 315.464844 44.980469 316.566406 44.847656 317.289062 45.4375 C 317.746094 45.808594 317.875 46.410156 317.925781 46.945312 C 318.035156 48.125 317.699219 49.25 317.210938 50.332031 C 317.070312 50.644531 316.902344 50.945312 316.722656 51.238281 C 316.667969 51.328125 316.5 51.503906 316.5 51.609375 C 316.503906 51.746094 316.925781 51.972656 317.023438 52.054688 C 317.398438 52.355469 317.929688 52.792969 318.074219 53.25 C 318.265625 53.835938 317.621094 54.675781 317.3125 55.144531 C 317.234375 55.265625 317.015625 55.695312 316.8125 55.660156 C 316.574219 55.617188 316.367188 55.324219 316.214844 55.179688 C 315.808594 54.792969 315.359375 54.445312 314.957031 54.058594 C 314.898438 54.003906 314.839844 54.179688 314.785156 54.242188 C 314.664062 54.367188 314.542969 54.492188 314.425781 54.621094 C 314.085938 54.988281 313.738281 55.347656 313.386719 55.707031 C 312.339844 56.777344 311.273438 57.835938 310.179688 58.863281 C 306.207031 62.597656 301.472656 65.808594 296.425781 68.222656 C 295.273438 68.773438 294.132812 69.402344 292.910156 69.816406 C 292.695312 69.890625 291.855469 69.960938 291.722656 69.90625 Z M 315.605469 50.835938 C 315.605469 50.832031 315.648438 50.660156 315.652344 50.648438 C 315.691406 50.535156 315.726562 50.417969 315.753906 50.300781 C 315.835938 49.945312 315.890625 49.582031 315.867188 49.21875 C 315.851562 49.019531 315.835938 48.8125 315.800781 48.613281 C 315.675781 47.847656 315.019531 46.765625 314.015625 46.988281 C 313.78125 47.039062 313.570312 47.152344 313.382812 47.28125 C 313.246094 47.378906 313.121094 47.492188 313.007812 47.609375 C 312.863281 47.761719 312.6875 47.957031 312.675781 48.167969 C 312.667969 48.324219 312.789062 48.453125 312.890625 48.566406 C 313.105469 48.808594 313.351562 49.011719 313.585938 49.234375 C 314.078125 49.703125 315.066406 50.40625 315.605469 50.835938 Z M 315.605469 50.835938 " fill-opacity="1" fill-rule="evenodd"/><path fill="#000000" d="M 199.054688 28.019531 C 199.007812 28.0625 199.105469 27.917969 199.132812 27.863281 C 199.183594 27.753906 199.234375 27.640625 199.285156 27.53125 C 199.449219 27.1875 199.613281 26.839844 199.769531 26.492188 C 200.214844 25.5 200.71875 24.523438 201.152344 23.53125 C 201.152344 23.605469 201.273438 23.734375 201.304688 23.796875 C 201.40625 23.992188 201.496094 24.195312 201.589844 24.394531 C 201.910156 25.066406 202.195312 25.75 202.496094 26.429688 C 203.722656 29.207031 205.109375 31.941406 206.21875 34.761719 C 206.390625 35.203125 206.5625 35.648438 206.710938 36.097656 C 206.796875 36.359375 206.878906 36.625 206.941406 36.890625 C 206.972656 37.035156 207.003906 37.179688 207.019531 37.324219 C 207.027344 37.417969 207.035156 37.515625 207.03125 37.613281 C 207.027344 37.671875 207.019531 37.730469 207.003906 37.785156 C 206.828125 38.378906 206.148438 37.5625 205.972656 37.394531 C 205.898438 37.320312 205.820312 37.246094 205.746094 37.171875 C 205.660156 37.089844 205.570312 37.007812 205.484375 36.921875 C 205.367188 36.808594 205.246094 36.695312 205.128906 36.582031 C 204.96875 36.425781 204.808594 36.273438 204.652344 36.117188 C 204.492188 35.960938 204.328125 35.804688 204.175781 35.640625 C 204.117188 35.582031 204.183594 35.800781 204.191406 35.878906 C 204.210938 36.066406 204.230469 36.257812 204.253906 36.449219 C 204.308594 36.949219 204.371094 37.449219 204.445312 37.949219 C 204.65625 39.410156 204.90625 40.867188 205.132812 42.328125 C 205.820312 46.757812 206.375 51.214844 206.894531 55.660156 C 206.78125 55.636719 206.9375 55.867188 206.953125 55.972656 C 207 56.21875 207.023438 56.472656 207.058594 56.722656 C 207.160156 57.410156 207.253906 58.097656 207.347656 58.789062 C 207.621094 60.777344 207.878906 62.765625 208.109375 64.761719 C 208.988281 72.484375 210.625 80.6875 209.238281 88.480469 C 208.941406 90.167969 208.753906 92.09375 207.785156 93.605469 C 207.652344 93.808594 206.976562 94.929688 206.628906 94.898438 C 206.554688 94.894531 206.527344 94.820312 206.507812 94.765625 C 206.207031 93.792969 206.601562 92.351562 206.597656 91.359375 C 206.578125 87.394531 206.367188 83.460938 205.945312 79.519531 C 204.511719 66.199219 199.960938 32.882812 199.867188 29.75 C 199.867188 29.75 199.65625 29.316406 199.636719 29.277344 C 199.484375 28.960938 199.21875 28.332031 199.054688 28.019531 Z M 199.054688 28.019531 " fill-opacity="1" fill-rule="evenodd"/><path fill="#000000" d="M 171.414062 107.757812 C 171.402344 107.765625 171.308594 107.753906 171.296875 107.75 C 171.273438 107.746094 171.25 107.734375 171.226562 107.722656 C 171.164062 107.691406 171.113281 107.648438 171.078125 107.589844 C 170.964844 107.414062 170.910156 107.207031 170.78125 107.042969 C 170.433594 106.605469 169.84375 106.816406 169.433594 107.054688 C 169.117188 107.242188 168.769531 107.515625 168.65625 107.859375 C 168.605469 108.011719 168.632812 108.171875 168.683594 108.324219 C 168.832031 108.785156 169.445312 109.035156 169.921875 109.191406 C 169.925781 109.175781 169.960938 109.203125 169.980469 109.203125 C 170.027344 109.210938 170.074219 109.214844 170.121094 109.222656 C 170.25 109.246094 170.382812 109.269531 170.511719 109.285156 C 170.902344 109.324219 171.296875 109.3125 171.667969 109.183594 C 172.289062 108.96875 172.726562 108.4375 173.238281 108.070312 C 173.445312 107.917969 173.769531 107.703125 174.050781 107.738281 C 174.179688 107.753906 174.207031 107.875 174.21875 107.976562 C 174.242188 108.207031 174.207031 108.449219 174.191406 108.675781 C 174.167969 108.949219 174.136719 109.257812 173.984375 109.5 C 173.847656 109.707031 173.621094 109.839844 173.410156 109.972656 C 173.066406 110.1875 172.714844 110.382812 172.34375 110.554688 C 172.1875 110.625 172.003906 110.746094 171.867188 110.835938 C 171.476562 111.082031 171.097656 111.347656 170.738281 111.628906 C 169.863281 112.308594 169.054688 113.039062 168.332031 113.855469 C 167.964844 114.269531 167.609375 114.691406 167.339844 115.167969 C 167.191406 115.433594 167.140625 115.710938 167.199219 116.027344 C 167.34375 116.789062 168.152344 117.109375 168.898438 117.222656 C 170.363281 117.441406 171.941406 117.230469 173.347656 116.820312 C 174.300781 116.539062 175.183594 116.144531 176.113281 115.808594 C 176.320312 115.734375 176.542969 115.644531 176.769531 115.625 C 176.859375 115.617188 176.988281 115.632812 176.980469 115.742188 C 176.972656 115.980469 176.710938 116.234375 176.558594 116.410156 C 176.101562 116.945312 175.5625 117.449219 174.972656 117.859375 C 173.960938 118.558594 172.828125 119.160156 171.601562 119.46875 C 170.617188 119.714844 169.558594 119.773438 168.539062 119.734375 C 167.21875 119.6875 165.9375 118.976562 165.71875 117.695312 C 165.652344 117.320312 165.742188 116.925781 165.828125 116.558594 C 165.851562 116.546875 165.90625 116.214844 165.917969 116.179688 C 166.046875 115.757812 166.207031 115.34375 166.375 114.933594 C 166.75 114.003906 167.210938 113.054688 167.839844 112.246094 C 168.085938 111.929688 168.382812 111.554688 168.753906 111.34375 C 168.695312 111.320312 168.625 111.195312 168.582031 111.152344 C 168.441406 111.011719 168.289062 110.875 168.132812 110.746094 C 167.660156 110.351562 167.175781 109.90625 167.050781 109.308594 C 166.964844 108.902344 167.09375 108.488281 167.222656 108.105469 C 167.574219 107.066406 168.367188 106.109375 169.265625 105.417969 C 169.625 105.140625 170.046875 104.855469 170.503906 104.730469 C 170.683594 104.683594 170.871094 104.660156 171.054688 104.679688 C 171.191406 104.691406 171.324219 104.730469 171.445312 104.789062 C 172.414062 105.234375 172.132812 106.5 171.757812 107.234375 C 171.671875 107.402344 171.640625 107.644531 171.414062 107.757812 Z M 171.414062 107.757812 " fill-opacity="1" fill-rule="evenodd"/><path fill="#000000" d="M 122.992188 58.972656 C 123.140625 58.84375 122.921875 59.371094 122.878906 59.5625 C 122.792969 59.949219 122.699219 60.316406 122.601562 60.691406 C 122.347656 61.683594 121.421875 63.695312 121.644531 64.683594 C 121.765625 65.210938 123.679688 66.191406 124.09375 66.554688 C 126.429688 68.6875 125.746094 70.957031 123.394531 72.582031 C 122.703125 73.066406 121.953125 73.441406 121.195312 73.808594 C 113.320312 77.53125 105.773438 78.640625 97.210938 79.316406 C 92.707031 79.671875 86.539062 79.867188 82.113281 78.671875 C 74.800781 76.703125 68.660156 68.773438 73.167969 61.433594 C 72.652344 61.457031 72.070312 62.253906 71.808594 62.609375 C 70.726562 64.082031 70.007812 65.835938 69.523438 67.578125 C 67.722656 74.046875 70.460938 79.414062 76.316406 82.277344 C 85.777344 86.914062 96.925781 85.0625 106.695312 82.792969 C 110.199219 81.972656 113.726562 81.144531 117.160156 80.058594 C 120.75 78.929688 125.945312 77.242188 127.417969 73.257812 C 127.984375 71.730469 128.011719 69.957031 127.875 68.34375 C 127.757812 66.996094 127.46875 65.664062 126.960938 64.40625 C 126.296875 62.746094 124.140625 60.328125 122.992188 58.972656 Z M 122.992188 58.972656 " fill-opacity="1" fill-rule="evenodd"/><path fill="#000000" d="M 108.003906 94.410156 C 107.992188 94.398438 107.992188 94.386719 108.007812 94.410156 L 108.003906 94.410156 C 108.035156 94.464844 108.132812 94.59375 108.152344 94.660156 C 108.230469 94.878906 108.3125 95.105469 108.394531 95.335938 C 108.65625 96.023438 108.949219 96.710938 109.277344 97.375 C 110.335938 99.523438 111.5625 101.375 113.964844 102.0625 C 117.683594 103.132812 121.476562 100.90625 124.625 99.164062 C 126.304688 98.226562 128.03125 97.375 129.628906 96.304688 C 129.972656 96.664062 130.074219 97.941406 130.230469 98.453125 C 130.675781 99.957031 131.273438 101.519531 132.425781 102.609375 C 133.265625 103.402344 134.269531 104.023438 135.320312 104.496094 C 142.023438 107.492188 146.953125 102.859375 150.554688 97.550781 C 150.578125 97.472656 150.609375 97.417969 150.660156 97.398438 C 150.625 97.449219 150.589844 97.496094 150.554688 97.550781 C 150.390625 98.105469 150.90625 99.804688 150.984375 100.078125 C 151.699219 102.609375 153.402344 103.871094 156.023438 103.882812 C 158.765625 103.894531 161.378906 102.628906 163.765625 101.386719 C 166.980469 99.71875 170.066406 97.984375 173.097656 96 C 173.097656 95.988281 173.101562 95.988281 173.105469 95.988281 L 173.097656 96 C 173.046875 96.054688 173.328125 96.546875 173.355469 96.601562 C 173.710938 97.265625 174.15625 97.886719 174.617188 98.476562 C 176.277344 100.601562 178.738281 101.898438 181.308594 102.53125 C 186.847656 103.882812 192.925781 99.445312 194.167969 93.84375 C 194.15625 93.984375 194.226562 93.558594 194.230469 93.417969 C 194.238281 93.066406 194.230469 92.71875 194.222656 92.382812 C 194.210938 91.933594 194.480469 89.863281 194.390625 87.660156 C 194.300781 85.457031 193.847656 83.136719 193.589844 81.847656 C 191.917969 73.519531 188.316406 53.492188 188.339844 53.511719 C 188.519531 53.699219 188.707031 53.871094 188.890625 54.046875 C 189.644531 54.746094 190.40625 55.476562 191.234375 56.085938 C 191.375 56.183594 192.097656 56.707031 192.21875 56.335938 C 192.476562 55.53125 191.5 53.992188 191.179688 53.328125 C 189.933594 50.734375 188.664062 48.148438 187.292969 45.628906 C 186.90625 44.910156 186.515625 44.203125 186.09375 43.503906 C 185.980469 43.328125 185.769531 42.828125 185.503906 42.839844 C 184.898438 42.859375 184.425781 44.453125 184.253906 44.878906 C 183.921875 45.71875 183.65625 46.589844 183.480469 47.472656 C 183.425781 47.746094 183.304688 48.148438 183.445312 48.410156 C 183.726562 48.933594 184.515625 49.359375 184.976562 49.71875 C 184.914062 49.742188 184.996094 50.199219 185 50.253906 C 185.074219 50.960938 188.574219 73.464844 189.402344 79.710938 C 190.042969 84.542969 190.792969 88.980469 190.035156 94.015625 C 190.085938 94.027344 189.980469 94.367188 189.972656 94.398438 C 189.855469 94.8125 189.683594 95.195312 189.46875 95.566406 C 188.71875 96.882812 187.570312 97.765625 186.171875 98.289062 C 183.25 99.402344 180.800781 98.179688 178.601562 96.207031 C 178.167969 95.816406 177.292969 95.324219 177.019531 94.789062 C 176.882812 94.519531 177.351562 94.246094 177.519531 94.125 C 178.234375 93.636719 179.039062 93.265625 179.800781 92.839844 C 181.164062 92.097656 182.488281 91.28125 183.851562 90.539062 C 184.578125 90.136719 186.429688 89.535156 186.714844 88.628906 C 186.84375 88.214844 186.691406 87.636719 186.664062 87.214844 C 185.203125 85.992188 183.039062 85.183594 181.292969 84.5625 C 175.964844 82.667969 170 82.207031 164.539062 83.8125 C 162.207031 84.5 160.082031 85.644531 158.46875 87.507812 C 158.0625 87.976562 157.234375 88.71875 157.402344 89.425781 C 157.652344 90.472656 158.722656 90.039062 159.410156 89.882812 C 160.746094 89.566406 162.234375 89.382812 163.605469 89.460938 C 166.011719 89.589844 167.65625 92.183594 168.941406 94.015625 C 167.992188 94.714844 166.769531 95.226562 165.746094 95.804688 C 162.746094 97.503906 157.945312 100.722656 154.472656 98.441406 C 153.035156 97.496094 152.179688 95.988281 151.597656 94.398438 C 151.496094 94.113281 151.019531 91.859375 150.671875 91.902344 C 150.089844 91.957031 149.488281 93.167969 149.226562 93.582031 C 148.296875 95.085938 147.394531 96.6875 146.179688 97.972656 C 141.671875 102.75 133.648438 100.90625 131.664062 94.507812 C 132.324219 93.953125 132.945312 93.011719 133.511719 92.335938 C 134.746094 90.886719 136.28125 89.304688 136.769531 87.386719 C 137.417969 84.835938 136.28125 81.566406 134.769531 79.515625 C 134.757812 79.625 134.675781 79.308594 134.605469 79.234375 C 134.40625 79.003906 134.191406 78.785156 133.972656 78.566406 C 133.265625 77.902344 132.519531 77.269531 131.761719 76.648438 C 129.460938 74.785156 127.050781 73.082031 124.589844 71.449219 C 121.941406 69.691406 119.230469 68.023438 116.550781 66.324219 C 115.355469 65.558594 113.640625 64.851562 112.71875 63.738281 C 111.746094 62.5625 113.5625 60.761719 112.632812 59.878906 C 111.710938 58.996094 108.660156 60.359375 108.191406 58.984375 C 108.074219 59.019531 108.339844 57.90625 108.359375 57.839844 C 108.699219 56.792969 109.402344 55.878906 110.171875 55.125 C 112.140625 53.195312 114.804688 51.976562 117.171875 50.644531 C 121.628906 48.148438 126.1875 45.816406 130.839844 43.710938 C 134.027344 42.28125 137.304688 40.820312 140.710938 40.015625 C 141.449219 39.839844 142.203125 39.710938 142.960938 39.644531 C 143.414062 39.613281 143.882812 39.601562 144.332031 39.667969 C 148.109375 40.289062 145.625 45.488281 144.761719 47.496094 C 144.5 48.105469 144.230469 48.714844 143.988281 49.335938 C 143.691406 50.078125 143.4375 50.832031 143.21875 51.605469 C 142.839844 52.925781 142.578125 54.308594 142.648438 55.695312 C 142.660156 55.957031 142.699219 57.035156 143.167969 56.992188 C 143.453125 56.96875 143.648438 55.921875 143.71875 55.726562 C 144.203125 54.417969 144.71875 53.121094 145.324219 51.855469 C 147.324219 47.667969 149.488281 43.722656 149.121094 38.925781 C 149.023438 37.648438 148.894531 36.035156 148.140625 34.945312 C 147.304688 33.734375 145.523438 33.886719 144.261719 34.074219 C 141.003906 34.5625 137.847656 35.90625 134.859375 37.246094 C 132.503906 38.304688 130.1875 39.449219 127.882812 40.613281 C 126.023438 41.550781 124.160156 42.492188 122.308594 43.449219 C 120.695312 44.289062 119.085938 45.140625 117.496094 46.035156 C 116.289062 46.710938 115.097656 47.40625 113.910156 48.117188 C 113.074219 48.605469 112.25 49.121094 111.4375 49.640625 C 110.75 50.089844 110.078125 50.546875 109.421875 51.027344 C 106.738281 53.023438 102.761719 56.785156 103.851562 60.664062 C 104.3125 62.300781 105.667969 62.34375 106.558594 63.457031 C 106.519531 63.566406 108.179688 64.570312 108.285156 64.644531 C 110.089844 65.84375 111.898438 67.03125 113.679688 68.273438 C 119.089844 72.035156 124.492188 75.863281 129.625 80.007812 C 131 81.117188 134.464844 83.472656 134.476562 85.632812 C 134.480469 85.816406 133.746094 86.363281 133.609375 86.492188 C 132.625 87.429688 131.617188 88.335938 130.574219 89.207031 C 127.574219 91.726562 124.117188 93.953125 120.460938 95.359375 C 118.898438 95.957031 117.082031 96.558594 115.390625 96.21875 C 112.949219 95.726562 111.527344 93.15625 111.113281 90.832031 C 110.96875 90.015625 110.910156 89.144531 110.964844 88.316406 C 110.972656 88.183594 111.195312 87.050781 111.097656 87.039062 C 110.519531 86.953125 109.425781 88.214844 109.035156 88.542969 C 107.328125 89.949219 105.648438 91.921875 103.636719 92.894531 C 102.1875 90.308594 100.367188 86.855469 97.105469 86.339844 C 95.359375 86.070312 93.886719 87.410156 92.765625 88.566406 C 90.3125 91.105469 87.171875 96.851562 90.710938 99.9375 C 92.394531 101.398438 95.199219 101.09375 97.203125 100.808594 C 98.734375 100.601562 100.554688 100.40625 102.011719 99.828125 C 102.414062 100.589844 102.976562 101.484375 102.84375 102.421875 C 102.78125 102.859375 101.902344 103.863281 101.683594 104.125 C 100.308594 105.703125 98.859375 107.164062 97.265625 108.515625 C 96.140625 109.476562 95.007812 110.414062 93.832031 111.308594 C 89.300781 114.730469 82.394531 119.757812 76.410156 117.054688 C 71.554688 114.851562 70.683594 108.941406 70.910156 104.132812 C 70.996094 102.304688 71.359375 100.480469 71.679688 98.683594 C 71.71875 98.464844 72.207031 97.046875 71.769531 97.003906 C 70.445312 96.875 69.523438 100.578125 69.304688 101.363281 C 68.078125 105.769531 67.851562 111.394531 69.832031 115.605469 C 71.664062 119.496094 75.253906 120.988281 79.304688 121.382812 C 87.285156 122.167969 95.140625 116.269531 100.359375 110.71875 C 103.902344 106.949219 106.65625 102.726562 104.476562 97.558594 C 105.648438 96.546875 106.839844 95.464844 108.003906 94.410156 Z M 99.589844 95.25 C 98.988281 95.433594 98.480469 95.511719 98.421875 95.519531 C 97.949219 95.621094 97.472656 95.683594 96.996094 95.738281 C 96.21875 95.835938 95.144531 96.066406 94.425781 95.621094 C 93.253906 94.878906 94.289062 92.980469 95.140625 92.457031 C 96.214844 91.78125 97.261719 92.445312 98.070312 93.1875 C 98.609375 93.691406 99.210938 94.617188 99.589844 95.25 Z M 170.820312 88.523438 C 171.296875 88.261719 171.917969 88.226562 172.4375 88.160156 C 173.707031 88.019531 174.976562 88.007812 176.238281 88.207031 C 176.691406 88.28125 177.148438 88.367188 177.570312 88.554688 C 177.664062 88.597656 177.945312 88.683594 177.964844 88.816406 C 177.992188 88.957031 177.742188 89.152344 177.65625 89.242188 C 177.269531 89.632812 176.84375 89.984375 176.429688 90.332031 C 176.003906 90.703125 175.570312 91.050781 175.148438 91.410156 C 174.953125 91.585938 174.691406 91.902344 174.433594 91.976562 C 174.148438 92.066406 173.707031 91.628906 173.507812 91.476562 C 172.738281 90.855469 171.5 89.242188 170.820312 88.523438 Z M 170.820312 88.523438 " fill-opacity="1" fill-rule="evenodd"/></svg>