<svg xmlns="http://www.w3.org/2000/svg" xmlns:xlink="http://www.w3.org/1999/xlink" width="500" zoomAndPan="magnify" viewBox="0 0 375 157.92" height="200" preserveAspectRatio="xMidYMid meet" version="1.0"><defs><clipPath id="40bb23473b"><path d="M 358 68 L 374.902344 68 L 374.902344 74 L 358 74 Z M 358 68 " clip-rule="nonzero"/></clipPath><clipPath id="2486b42ac8"><path d="M 0.09375 64 L 17 64 L 17 69 L 0.09375 69 Z M 0.09375 64 " clip-rule="nonzero"/></clipPath></defs><path fill="#000000" d="M 281.171875 77.363281 C 281.191406 77.347656 281.203125 77.328125 281.179688 77.296875 C 281.171875 77.320312 281.171875 77.339844 281.171875 77.363281 C 281.09375 77.410156 280.847656 77.410156 280.746094 77.460938 C 280.421875 77.625 280.109375 77.796875 279.796875 77.972656 C 278.835938 78.503906 277.960938 79.117188 277.101562 79.78125 C 274.710938 81.621094 271.980469 84.574219 268.695312 84.535156 C 268.742188 84.359375 268.339844 83.886719 268.261719 83.761719 C 267.757812 82.949219 267.21875 82.164062 266.707031 81.355469 C 264.660156 78.105469 261.25 73.492188 256.9375 76.335938 C 253.527344 78.582031 250.710938 82.964844 250.097656 86.996094 C 249.59375 90.261719 251.058594 93.390625 254.398438 94.363281 C 258.234375 95.480469 263.175781 93.203125 266.4375 91.289062 C 266.460938 91.273438 266.683594 91.679688 266.707031 91.730469 C 266.863281 92.019531 266.996094 92.3125 267.140625 92.605469 C 267.542969 93.476562 267.945312 94.441406 267.902344 95.417969 C 267.878906 95.429688 267.621094 95.667969 267.566406 95.726562 C 267.378906 95.921875 267.175781 96.109375 266.976562 96.292969 C 266.292969 96.921875 265.609375 97.539062 264.953125 98.175781 C 263.085938 99.96875 261.128906 101.640625 259.128906 103.28125 C 253.425781 107.976562 245.925781 114.558594 238.035156 114.472656 C 229.609375 114.382812 223.75 107.328125 224.578125 99.089844 C 224.8125 96.804688 225.257812 94.554688 225.851562 92.339844 C 225.953125 91.929688 226.566406 90.386719 226.277344 89.988281 C 226.019531 89.628906 225.011719 91.210938 224.933594 91.328125 C 223.917969 93 223.304688 94.816406 222.910156 96.730469 C 221.90625 101.578125 222.039062 107.078125 224.121094 111.648438 C 227.785156 119.695312 237.597656 122.578125 245.503906 119.433594 C 249.59375 117.808594 253.191406 115.03125 256.625 112.328125 C 259.832031 109.796875 263.128906 107.164062 265.578125 103.851562 C 266.90625 102.050781 268.851562 99.746094 269.410156 97.53125 C 270.046875 95.042969 269.878906 92.367188 269.535156 89.941406 C 269.523438 89.882812 270.015625 89.691406 270.070312 89.667969 C 270.597656 89.402344 271.132812 89.148438 271.65625 88.882812 C 273.691406 87.871094 275.816406 86.898438 277.539062 85.398438 C 277.660156 85.292969 277.558594 85.730469 277.59375 85.890625 C 277.648438 86.171875 277.75 86.445312 277.851562 86.714844 C 278.152344 87.507812 278.476562 88.285156 278.84375 89.046875 C 279.996094 91.402344 282.074219 93.257812 284.625 93.933594 C 285.730469 94.230469 286.914062 94.421875 288.066406 94.328125 C 292.851562 93.921875 295.613281 89.097656 297.019531 85.011719 C 297.019531 85.003906 297.03125 85 297.03125 85.003906 L 297.019531 85.011719 C 297.03125 85.113281 297.523438 86.25 297.589844 86.367188 C 298.117188 87.285156 298.753906 88.164062 299.480469 88.933594 C 301.738281 91.339844 305.460938 92.011719 308.464844 90.703125 C 310.46875 89.828125 311.597656 88.183594 312.46875 86.25 C 314.257812 82.285156 313.40625 76.273438 311.929688 72.238281 C 311.976562 72.035156 311.695312 72.574219 311.5625 72.734375 C 311.261719 73.097656 310.925781 73.441406 310.625 73.800781 C 309.707031 74.871094 308.621094 75.902344 307.851562 77.089844 C 307.785156 77.183594 309.136719 78.804688 309.25 79.0625 C 310.277344 81.3125 308.5 83.605469 306.164062 83.730469 C 302.722656 83.921875 300.777344 80.933594 300.386719 77.867188 C 300.25 76.816406 300.273438 75.742188 300.082031 74.695312 C 300.027344 74.355469 299.859375 73.789062 299.421875 73.800781 C 298.941406 73.816406 298.640625 74.5 298.472656 74.867188 C 297.9375 76.089844 297.882812 77.453125 297.558594 78.734375 C 297.222656 80.027344 296.496094 81.148438 295.78125 82.261719 C 294.460938 84.34375 292.875 86.941406 290.425781 87.816406 C 287.496094 88.855469 283.71875 87.011719 282.230469 84.402344 C 281.160156 82.503906 280.847656 79.535156 281.171875 77.363281 Z M 267.902344 95.417969 Z M 254.410156 86.105469 C 254.511719 84.8125 255.226562 83.527344 256.121094 82.59375 C 256.558594 82.144531 257.105469 81.660156 257.785156 81.78125 C 259.117188 82.015625 260.445312 83.105469 261.320312 84.082031 C 261.496094 84.289062 262.101562 84.847656 262.011719 85.175781 C 261.910156 85.496094 261.429688 85.683594 261.164062 85.800781 C 260.324219 86.167969 259.394531 86.390625 258.5 86.519531 C 257.539062 86.660156 254.925781 86.707031 254.410156 86.105469 Z M 254.410156 86.105469 " fill-opacity="1" fill-rule="evenodd"/><path fill="#000000" d="M 231.761719 78.433594 C 231.6875 78.515625 231.65625 78.777344 231.625 78.886719 C 231.511719 79.269531 231.40625 79.660156 231.300781 80.046875 C 230.945312 81.390625 230.574219 82.730469 230.214844 84.074219 C 230.101562 84.496094 229.984375 84.917969 229.867188 85.339844 C 229.832031 85.460938 229.710938 85.71875 229.75 85.847656 C 229.789062 85.972656 230.105469 86.097656 230.203125 86.164062 C 230.53125 86.382812 230.84375 86.640625 231.113281 86.921875 C 231.109375 86.890625 231.203125 87.074219 231.210938 87.09375 C 231.269531 87.238281 231.335938 87.375 231.394531 87.519531 C 231.574219 87.941406 231.722656 88.382812 231.890625 88.8125 C 232.386719 90.109375 232.890625 91.398438 233.433594 92.675781 C 234.433594 95.03125 235.597656 97.335938 236.8125 99.589844 C 237.324219 100.539062 237.824219 101.488281 238.304688 102.449219 C 238.519531 102.886719 238.808594 103.332031 238.953125 103.796875 C 239.171875 104.503906 237.40625 105.503906 236.902344 106.023438 C 234.960938 108.027344 232.855469 109.859375 230.65625 111.578125 C 222.042969 118.3125 210.316406 124.988281 199.09375 120.347656 C 199.210938 120.449219 198.820312 120.195312 198.6875 120.109375 C 198.417969 119.925781 198.160156 119.726562 197.90625 119.515625 C 197.109375 118.847656 196.394531 118.128906 195.789062 117.28125 C 193.992188 114.777344 193.226562 111.832031 193.101562 108.800781 C 192.925781 104.464844 193.683594 100.257812 195.054688 96.144531 C 195.203125 95.707031 195.351562 95.265625 195.503906 94.824219 C 195.632812 94.449219 195.769531 94.078125 195.898438 93.703125 C 195.980469 93.449219 196.066406 93.199219 196.144531 92.949219 C 196.210938 92.746094 196.273438 92.542969 196.335938 92.335938 C 196.386719 92.167969 196.4375 91.996094 196.488281 91.824219 C 196.585938 91.472656 197.304688 89.480469 196.335938 89.722656 C 196.40625 89.886719 196.089844 89.984375 196 90.136719 C 195.679688 90.667969 195.394531 91.222656 195.128906 91.78125 C 194.101562 93.949219 193.21875 96.167969 192.484375 98.449219 C 190.332031 105.152344 188.195312 113.464844 191.375 120.152344 C 191.472656 120.125 191.445312 120.339844 191.480469 120.433594 C 191.5625 120.632812 191.648438 120.828125 191.734375 121.027344 C 192 121.628906 192.3125 122.207031 192.648438 122.773438 C 193.601562 124.382812 195.027344 125.742188 196.507812 126.890625 C 200.480469 129.976562 205.863281 129.964844 210.660156 129.359375 C 210.65625 129.335938 211.042969 129.25 211.058594 129.246094 C 211.515625 129.128906 211.976562 129.019531 212.429688 128.886719 C 213.59375 128.550781 214.75 128.164062 215.847656 127.65625 C 219.257812 126.070312 222.71875 124.433594 225.644531 122.085938 C 225.644531 122.09375 229.515625 119.128906 230.613281 118.28125 C 233.945312 115.703125 237.300781 112.609375 239.359375 108.917969 C 239.433594 108.789062 239.679688 108.222656 239.726562 108.101562 C 240.082031 107.253906 240.371094 106.375 240.597656 105.488281 C 241.144531 103.328125 241.390625 100.886719 240.9375 98.683594 C 240.644531 97.273438 240.066406 95.96875 239.507812 94.648438 C 239.605469 94.691406 239.429688 94.449219 239.386719 94.351562 C 239.316406 94.171875 239.234375 93.996094 239.160156 93.824219 C 238.886719 93.222656 238.621094 92.621094 238.347656 92.023438 C 237.570312 90.328125 236.347656 88.640625 235.894531 86.820312 C 235.78125 86.355469 236.261719 86.679688 236.464844 86.800781 C 236.980469 87.101562 237.480469 87.449219 238.027344 87.691406 C 238.203125 87.769531 238.527344 87.898438 238.585938 87.621094 C 238.746094 86.910156 237.976562 85.90625 237.628906 85.367188 C 236.5 83.621094 234.003906 80.816406 231.761719 78.433594 Z M 231.761719 78.433594 " fill-opacity="1" fill-rule="evenodd"/><path fill="#000000" d="M 210.503906 59.3125 C 210.515625 59.03125 211.042969 59.507812 211.320312 59.589844 C 212.015625 59.796875 212.730469 59.976562 213.445312 60.128906 C 213.5 60.136719 214.105469 60.296875 214.105469 60.191406 C 214.082031 59.589844 212.550781 58.574219 212.160156 58.21875 C 210.324219 56.523438 208.492188 54.828125 206.582031 53.222656 C 206.222656 52.925781 204.828125 51.449219 204.277344 51.644531 C 203.898438 51.78125 203.675781 52.410156 203.519531 52.734375 C 203.058594 53.71875 202.636719 54.71875 202.199219 55.714844 C 202.078125 55.992188 201.664062 56.636719 201.808594 56.96875 C 201.964844 57.304688 202.433594 57.214844 202.714844 57.378906 C 203.09375 57.613281 203.351562 58.15625 203.574219 58.515625 C 205.933594 62.148438 208.75 65.378906 211.433594 68.765625 C 211.421875 68.769531 211.667969 69.015625 211.691406 69.042969 C 211.679688 69.03125 210.828125 70.0625 210.773438 70.128906 C 209.65625 71.460938 208.648438 72.878906 207.6875 74.3125 C 204.984375 78.289062 204.101562 83.839844 205.351562 88.476562 C 206.054688 91.097656 208.125 93.726562 211.074219 93.511719 C 213.34375 93.34375 215.546875 91.5625 217.132812 90.078125 C 221.011719 86.457031 225.59375 81.042969 223.402344 75.375 C 222.542969 73.171875 221.125 71.1875 219.582031 69.417969 C 219.113281 68.894531 217.738281 67.921875 217.925781 67.121094 C 218.261719 65.761719 219.570312 64.464844 220.363281 63.375 C 222.421875 60.574219 225.359375 57.359375 226.253906 53.90625 C 226.566406 52.664062 226.957031 50.117188 226.210938 48.9375 C 226.097656 48.773438 225.738281 49.277344 225.695312 49.34375 C 225.214844 49.941406 224.847656 50.636719 224.445312 51.28125 C 223.4375 52.902344 222.398438 54.5 221.3125 56.070312 C 220.453125 57.328125 219.558594 58.5625 218.675781 59.808594 C 217.816406 61.019531 216.953125 62.226562 216.082031 63.421875 C 215.914062 63.648438 215.5 64.433594 215.15625 64.449219 C 214.292969 64.484375 211.050781 59.898438 210.503906 59.3125 Z M 214.203125 71.894531 C 214.351562 71.730469 213.34375 72.761719 213.222656 72.933594 C 212.996094 73.25 212.761719 73.5625 212.539062 73.878906 C 211.867188 74.804688 211.230469 75.746094 210.605469 76.695312 C 208.851562 79.347656 205.84375 85.238281 210.503906 86.777344 C 213.566406 87.785156 216.539062 84.503906 218.296875 82.449219 C 219.023438 81.613281 220.085938 80.492188 220.085938 79.304688 C 220.09375 78.621094 219.648438 77.949219 219.289062 77.398438 C 218.261719 75.832031 215.65625 73.074219 214.203125 71.894531 Z M 214.203125 71.894531 " fill-opacity="1" fill-rule="evenodd"/><path fill="#000000" d="M 242.132812 36.550781 C 242.152344 36.585938 242.054688 36.734375 242.039062 36.769531 C 241.921875 37.003906 241.792969 37.234375 241.660156 37.464844 C 241.625 37.519531 241.542969 37.695312 241.449219 37.6875 C 241.304688 37.675781 241.070312 37.464844 240.964844 37.394531 C 240.570312 37.125 240.167969 36.863281 239.785156 36.585938 C 239.355469 36.277344 238.929688 35.96875 238.484375 35.671875 C 238.230469 35.5 237.886719 35.347656 237.699219 35.117188 C 237.5 34.867188 237.507812 34.511719 237.480469 34.222656 C 237.417969 33.523438 237.402344 32.804688 237.625 32.125 C 237.835938 31.492188 238.226562 30.652344 239.097656 30.527344 C 240.015625 30.390625 240.972656 31.0625 241.675781 31.464844 C 243.105469 32.273438 244.003906 33.386719 244.800781 34.648438 C 245.515625 35.777344 246.082031 36.949219 246.4375 38.191406 C 246.65625 38.949219 246.785156 39.734375 247.046875 40.480469 C 247.160156 40.796875 247.304688 41.199219 247.660156 41.390625 C 247.65625 41.4375 247.6875 41.289062 247.695312 41.238281 C 247.714844 41.140625 247.730469 41.042969 247.75 40.941406 C 247.796875 40.65625 247.835938 40.371094 247.878906 40.082031 C 248.003906 39.191406 248.160156 38.308594 248.394531 37.433594 C 249.007812 35.109375 249.898438 32.617188 251.480469 30.621094 C 252.1875 29.726562 253.277344 28.75 254.691406 29.210938 C 255.671875 29.53125 256.347656 30.476562 256.808594 31.222656 C 256.960938 31.472656 257.226562 31.84375 257.214844 32.132812 C 257.1875 32.699219 256.699219 33.347656 256.445312 33.859375 C 256.265625 34.214844 256.101562 34.582031 255.886719 34.925781 C 255.816406 35.042969 255.722656 35.242188 255.570312 35.304688 C 255.292969 35.421875 254.949219 34.71875 254.871094 34.59375 C 254.457031 33.945312 253.835938 32.925781 252.800781 32.976562 C 251.71875 33.027344 251.238281 34.1875 250.90625 34.886719 C 249.917969 36.972656 249.371094 39.117188 248.8125 41.300781 C 248.796875 41.300781 248.714844 41.621094 248.707031 41.644531 C 248.566406 42.035156 248.425781 42.429688 248.300781 42.824219 C 247.933594 43.988281 247.695312 45.210938 247.164062 46.328125 C 247.082031 46.5 246.726562 47.339844 246.335938 47.140625 C 246.140625 47.039062 246.105469 46.730469 246.078125 46.566406 C 245.988281 46.070312 245.882812 45.582031 245.757812 45.09375 C 245.613281 44.523438 245.46875 43.957031 245.335938 43.382812 C 245.136719 42.515625 244.910156 41.644531 244.585938 40.796875 C 244.152344 39.660156 243.101562 37.078125 242.132812 36.550781 Z M 242.132812 36.550781 " fill-opacity="1" fill-rule="evenodd"/><path fill="#000000" d="M 242.132812 65.398438 C 242.152344 65.433594 242.054688 65.582031 242.039062 65.621094 C 241.921875 65.851562 241.792969 66.085938 241.660156 66.3125 C 241.625 66.367188 241.542969 66.542969 241.449219 66.535156 C 241.304688 66.527344 241.070312 66.3125 240.964844 66.242188 C 240.570312 65.972656 240.167969 65.714844 239.785156 65.433594 C 239.355469 65.125 238.929688 64.816406 238.484375 64.519531 C 238.230469 64.351562 237.886719 64.195312 237.699219 63.964844 C 237.5 63.714844 237.507812 63.359375 237.480469 63.070312 C 237.417969 62.375 237.402344 61.652344 237.625 60.972656 C 237.835938 60.339844 238.226562 59.503906 239.097656 59.375 C 240.015625 59.242188 240.972656 59.914062 241.675781 60.3125 C 243.105469 61.121094 244.003906 62.238281 244.800781 63.5 C 245.515625 64.625 246.082031 65.796875 246.4375 67.042969 C 246.65625 67.796875 246.785156 68.582031 247.046875 69.328125 C 247.160156 69.644531 247.304688 70.046875 247.660156 70.238281 C 247.65625 70.285156 247.6875 70.140625 247.695312 70.089844 C 247.714844 69.992188 247.730469 69.890625 247.75 69.792969 C 247.796875 69.503906 247.835938 69.21875 247.878906 68.929688 C 248.003906 68.039062 248.160156 67.15625 248.394531 66.28125 C 249.007812 63.957031 249.898438 61.464844 251.480469 59.46875 C 252.1875 58.574219 253.277344 57.597656 254.691406 58.058594 C 255.671875 58.382812 256.347656 59.324219 256.808594 60.074219 C 256.960938 60.320312 257.226562 60.691406 257.214844 60.980469 C 257.1875 61.546875 256.699219 62.195312 256.445312 62.707031 C 256.265625 63.066406 256.101562 63.429688 255.886719 63.773438 C 255.816406 63.890625 255.722656 64.089844 255.570312 64.152344 C 255.292969 64.269531 254.949219 63.566406 254.871094 63.445312 C 254.457031 62.796875 253.835938 61.773438 252.800781 61.824219 C 251.71875 61.878906 251.238281 63.035156 250.90625 63.734375 C 249.917969 65.820312 249.371094 67.964844 248.8125 70.148438 C 248.796875 70.152344 248.714844 70.46875 248.707031 70.492188 C 248.566406 70.886719 248.425781 71.277344 248.300781 71.675781 C 247.933594 72.835938 247.695312 74.058594 247.164062 75.175781 C 247.082031 75.347656 246.726562 76.1875 246.335938 75.988281 C 246.140625 75.886719 246.105469 75.578125 246.078125 75.414062 C 245.988281 74.921875 245.882812 74.429688 245.757812 73.945312 C 245.613281 73.371094 245.46875 72.804688 245.335938 72.234375 C 245.136719 71.363281 244.910156 70.492188 244.585938 69.648438 C 244.152344 68.511719 243.101562 65.925781 242.132812 65.398438 Z M 242.132812 65.398438 " fill-opacity="1" fill-rule="evenodd"/><path fill="#000000" d="M 107.101562 77.71875 C 107.117188 77.746094 107.046875 77.863281 107.035156 77.890625 C 106.949219 78.070312 106.859375 78.25 106.761719 78.425781 C 106.742188 78.46875 106.683594 78.601562 106.613281 78.597656 C 106.507812 78.589844 106.34375 78.425781 106.265625 78.371094 C 105.984375 78.164062 105.695312 77.960938 105.421875 77.746094 C 105.113281 77.507812 104.808594 77.269531 104.492188 77.042969 C 104.308594 76.910156 104.0625 76.792969 103.929688 76.613281 C 103.785156 76.417969 103.792969 76.144531 103.773438 75.921875 C 103.726562 75.382812 103.714844 74.828125 103.878906 74.300781 C 104.027344 73.816406 104.304688 73.167969 104.929688 73.070312 C 105.585938 72.964844 106.269531 73.484375 106.777344 73.792969 C 107.796875 74.417969 108.441406 75.277344 109.011719 76.253906 C 109.523438 77.125 109.929688 78.027344 110.183594 78.988281 C 110.339844 79.570312 110.433594 80.175781 110.621094 80.753906 C 110.699219 80.996094 110.804688 81.308594 111.058594 81.457031 C 111.054688 81.492188 111.078125 81.378906 111.085938 81.339844 C 111.097656 81.265625 111.109375 81.1875 111.121094 81.109375 C 111.15625 80.890625 111.183594 80.667969 111.214844 80.445312 C 111.304688 79.757812 111.417969 79.078125 111.582031 78.402344 C 112.023438 76.605469 112.660156 74.683594 113.792969 73.140625 C 114.300781 72.453125 115.078125 71.695312 116.09375 72.054688 C 116.792969 72.300781 117.277344 73.03125 117.605469 73.609375 C 117.714844 73.796875 117.90625 74.085938 117.898438 74.308594 C 117.875 74.746094 117.527344 75.246094 117.347656 75.640625 C 117.21875 75.917969 117.097656 76.199219 116.949219 76.464844 C 116.894531 76.554688 116.828125 76.707031 116.722656 76.757812 C 116.523438 76.847656 116.277344 76.304688 116.222656 76.210938 C 115.925781 75.710938 115.480469 74.921875 114.738281 74.960938 C 113.960938 75 113.621094 75.894531 113.382812 76.433594 C 112.675781 78.046875 112.285156 79.703125 111.882812 81.386719 C 111.871094 81.390625 111.8125 81.636719 111.808594 81.652344 C 111.707031 81.957031 111.609375 82.257812 111.519531 82.566406 C 111.253906 83.460938 111.082031 84.40625 110.703125 85.269531 C 110.644531 85.402344 110.390625 86.050781 110.109375 85.894531 C 109.972656 85.816406 109.945312 85.582031 109.925781 85.453125 C 109.859375 85.070312 109.785156 84.691406 109.699219 84.316406 C 109.59375 83.875 109.492188 83.4375 109.398438 82.996094 C 109.253906 82.324219 109.089844 81.652344 108.859375 81 C 108.546875 80.121094 107.796875 78.128906 107.101562 77.71875 Z M 107.101562 77.71875 " fill-opacity="1" fill-rule="evenodd"/><path fill="#000000" d="M 303.84375 95.949219 C 303.765625 95.851562 303.632812 96.207031 303.605469 96.28125 C 303.546875 96.441406 303.484375 96.597656 303.425781 96.761719 C 303.242188 97.273438 303.042969 97.773438 302.851562 98.277344 C 302.726562 98.605469 303.082031 99.019531 303.179688 99.3125 C 303.46875 100.207031 302.941406 100.800781 302.222656 100.78125 C 302.019531 100.777344 301.824219 100.71875 301.636719 100.640625 C 300.832031 100.304688 300.03125 99.480469 300.109375 98.371094 C 300.152344 97.796875 300.363281 97.3125 300.484375 96.765625 C 300.519531 96.585938 300.53125 96.300781 300.339844 96.25 C 299.855469 96.109375 299.425781 97.261719 299.257812 97.621094 C 298.585938 99.070312 298.023438 100.820312 296.707031 101.605469 C 295.484375 102.328125 294.320312 101.34375 293.136719 100.972656 C 291.859375 100.578125 290.585938 100.761719 289.367188 101.328125 C 289.367188 101.453125 289.171875 101.425781 289.078125 101.480469 C 288.769531 101.671875 288.472656 101.878906 288.175781 102.089844 C 286.867188 103.023438 285.613281 104.082031 284.398438 105.179688 C 279.132812 109.941406 273.636719 114.253906 267.890625 118.136719 C 266.144531 119.316406 264.410156 120.535156 262.628906 121.632812 C 261.902344 122.078125 261.160156 122.488281 260.445312 122.953125 C 260.363281 123.003906 259.78125 123.332031 259.945312 123.53125 C 260.140625 123.757812 260.679688 123.628906 260.90625 123.601562 C 261.789062 123.5 262.679688 123.238281 263.539062 122.992188 C 265.652344 122.390625 267.90625 121.730469 269.847656 120.527344 C 271.085938 119.761719 272.230469 118.726562 273.355469 117.746094 C 276.773438 114.761719 280.164062 111.734375 283.59375 108.777344 C 285.609375 107.039062 287.800781 104.925781 290.191406 103.976562 C 292.316406 103.128906 294.023438 105.824219 296.148438 104.898438 C 297.074219 104.496094 297.753906 103.457031 298.207031 102.453125 C 298.28125 102.28125 298.726562 100.90625 298.886719 100.859375 C 298.914062 100.851562 298.992188 101.460938 299 101.496094 C 299.0625 101.949219 299.132812 102.441406 299.367188 102.8125 C 299.953125 103.738281 301.027344 103.910156 301.925781 103.695312 C 304.710938 103.03125 304.71875 99.792969 304.257812 97.101562 C 304.199219 96.746094 303.949219 96.085938 303.84375 95.949219 Z M 303.84375 95.949219 " fill-opacity="1" fill-rule="evenodd"/><path fill="#000000" d="M 229.003906 58.75 C 229.019531 58.761719 230.441406 58.015625 230.527344 57.96875 C 232.339844 57.105469 234.171875 56.273438 236.015625 55.453125 C 243.574219 52.085938 251.203125 48.78125 258.925781 45.671875 C 261.101562 44.800781 263.292969 43.941406 265.519531 43.15625 C 265.65625 43.109375 267.414062 42.394531 267.511719 42.574219 C 267.703125 42.933594 266.894531 44.117188 266.734375 44.449219 C 266.402344 45.160156 266.1875 46.238281 265.570312 46.835938 C 265.15625 47.238281 264.355469 47.414062 263.792969 47.625 C 262.410156 48.136719 261.027344 48.640625 259.664062 49.175781 C 255.453125 50.828125 251.375 52.703125 247.242188 54.480469 C 243.242188 56.203125 239.148438 57.789062 235.179688 59.566406 C 233.203125 60.457031 231.222656 61.339844 229.246094 62.234375 C 228.933594 62.378906 227.613281 63.199219 227.210938 63.03125 C 226.957031 62.925781 227.246094 62.375 227.300781 62.242188 C 227.582031 61.507812 228.671875 59.472656 229.003906 58.75 Z M 229.003906 58.75 " fill-opacity="1" fill-rule="evenodd"/><path fill="#000000" d="M 269.996094 48.140625 C 270.445312 47.675781 270.777344 46.847656 271.128906 46.300781 C 272.160156 44.714844 273.1875 43.117188 274.25 41.546875 C 274.84375 40.664062 275.394531 39.617188 276.246094 38.933594 C 277.457031 37.96875 279.265625 38.097656 280.726562 38.195312 C 284.097656 38.417969 287.984375 39.476562 291.1875 40.003906 C 291.242188 39.960938 291.53125 40.097656 291.59375 40.117188 C 291.964844 40.242188 292.332031 40.382812 292.699219 40.523438 C 293.933594 41 296.355469 41.667969 295.921875 43.371094 C 295.648438 44.457031 294.90625 45.425781 294.230469 46.304688 C 293.179688 47.671875 292.054688 49 290.875 50.265625 C 289.316406 51.941406 287.671875 53.523438 285.960938 55.054688 C 284.832031 56.066406 283.664062 57.183594 282.207031 57.730469 C 279.765625 58.648438 276.878906 58.542969 274.304688 58.699219 C 273.085938 58.769531 271.867188 58.828125 270.644531 58.875 C 270 58.898438 269.195312 58.988281 268.570312 58.800781 C 267.953125 58.617188 269.421875 57.796875 269.527344 57.738281 C 270.855469 57.003906 272.292969 56.4375 273.722656 55.929688 C 277.019531 54.75 280.402344 53.644531 283.535156 52.085938 C 284.28125 51.714844 285.03125 51.339844 285.761719 50.933594 C 285.949219 50.828125 286.375 50.664062 286.445312 50.4375 C 286.53125 50.164062 285.90625 49.890625 285.726562 49.808594 C 284.867188 49.417969 283.867188 49.226562 282.945312 49.003906 C 279.125 48.089844 273.90625 47.570312 269.996094 48.140625 Z M 269.996094 48.140625 " fill-opacity="1" fill-rule="evenodd"/><path fill="#000000" d="M 202.324219 35.585938 L 206.894531 29.386719 L 214.28125 34.90625 L 209.410156 40.746094 C 209.410156 40.746094 202.613281 35.296875 202.324219 35.585938 Z M 202.324219 35.585938 " fill-opacity="1" fill-rule="evenodd"/><path fill="#000000" d="M 213.109375 34.222656 L 217.679688 28.023438 L 225.070312 33.542969 L 220.195312 39.382812 C 220.195312 39.382812 213.398438 33.933594 213.109375 34.222656 Z M 213.109375 34.222656 " fill-opacity="1" fill-rule="evenodd"/><path fill="#000000" d="M 210.222656 95.96875 C 209.960938 95.796875 209.722656 96.15625 209.679688 96.207031 C 209.402344 96.53125 209.207031 96.902344 209.015625 97.273438 C 208.414062 98.4375 207.871094 99.625 207.261719 100.789062 C 205.703125 103.761719 203.730469 107.335938 203.925781 110.722656 C 204.007812 112.199219 204.546875 114.070312 206.414062 114.375 C 208.730469 114.75 210.074219 111.636719 210.675781 110.152344 C 210.882812 109.648438 211.371094 108.636719 211.050781 108.089844 C 210.773438 107.621094 210.074219 108.605469 209.96875 108.753906 C 209.3125 109.667969 208.273438 111.472656 207.0625 109.996094 C 206.089844 108.808594 206.234375 107.179688 206.539062 105.804688 C 206.988281 103.777344 208.058594 101.929688 209.007812 100.070312 C 209.605469 98.902344 211.117188 96.5625 210.222656 95.96875 Z M 210.222656 95.96875 " fill-opacity="1" fill-rule="evenodd"/><path fill="#000000" d="M 282.222656 70.683594 C 282.085938 70.628906 282.605469 70.285156 282.644531 70.261719 C 282.851562 70.152344 283.050781 70.035156 283.246094 69.914062 C 283.824219 69.550781 284.402344 69.191406 284.96875 68.8125 C 286.742188 67.632812 288.503906 66.4375 290.265625 65.242188 C 294.234375 62.5625 305.304688 54.015625 305.566406 53.511719 C 305.378906 53.363281 305.058594 53.265625 304.84375 53.132812 C 303.730469 52.441406 302.046875 51.421875 302.167969 50.042969 C 302.335938 48.167969 304.066406 46.0625 306.015625 45.417969 C 306.886719 45.128906 308.027344 44.996094 308.777344 45.597656 C 309.253906 45.980469 309.386719 46.597656 309.441406 47.144531 C 309.554688 48.355469 309.207031 49.507812 308.699219 50.617188 C 308.550781 50.9375 308.378906 51.246094 308.191406 51.546875 C 308.136719 51.636719 307.957031 51.820312 307.960938 51.925781 C 307.964844 52.066406 308.402344 52.300781 308.503906 52.382812 C 308.894531 52.691406 309.445312 53.136719 309.597656 53.609375 C 309.792969 54.210938 309.125 55.070312 308.804688 55.550781 C 308.722656 55.675781 308.496094 56.113281 308.28125 56.078125 C 308.035156 56.035156 307.820312 55.734375 307.664062 55.585938 C 307.242188 55.191406 306.777344 54.835938 306.355469 54.4375 C 306.292969 54.378906 306.234375 54.5625 306.175781 54.625 C 306.050781 54.753906 305.925781 54.882812 305.804688 55.015625 C 305.453125 55.390625 305.089844 55.757812 304.726562 56.125 C 303.636719 57.226562 302.53125 58.308594 301.394531 59.363281 C 297.265625 63.191406 292.347656 66.480469 287.105469 68.957031 C 285.90625 69.523438 284.726562 70.167969 283.453125 70.59375 C 283.230469 70.667969 282.355469 70.738281 282.222656 70.683594 Z M 307.03125 51.132812 C 307.027344 51.128906 307.078125 50.953125 307.078125 50.941406 C 307.117188 50.824219 307.15625 50.707031 307.1875 50.582031 C 307.269531 50.222656 307.324219 49.847656 307.300781 49.476562 C 307.285156 49.269531 307.269531 49.058594 307.234375 48.851562 C 307.105469 48.070312 306.421875 46.960938 305.378906 47.191406 C 305.136719 47.242188 304.917969 47.355469 304.722656 47.492188 C 304.578125 47.589844 304.449219 47.703125 304.332031 47.828125 C 304.183594 47.984375 304 48.179688 303.988281 48.398438 C 303.980469 48.558594 304.105469 48.691406 304.210938 48.808594 C 304.433594 49.054688 304.691406 49.261719 304.933594 49.492188 C 305.445312 49.972656 306.46875 50.695312 307.03125 51.132812 Z M 307.03125 51.132812 " fill-opacity="1" fill-rule="evenodd"/><path fill="#000000" d="M 131.875 54.738281 C 131.742188 54.683594 132.257812 54.335938 132.300781 54.3125 C 132.503906 54.207031 132.707031 54.089844 132.902344 53.96875 C 133.480469 53.605469 134.058594 53.242188 134.625 52.863281 C 136.398438 51.683594 138.160156 50.488281 139.921875 49.296875 C 143.890625 46.613281 154.960938 38.070312 155.222656 37.5625 C 155.03125 37.417969 154.710938 37.316406 154.5 37.183594 C 153.382812 36.496094 151.699219 35.472656 151.824219 34.097656 C 151.988281 32.222656 153.722656 30.117188 155.671875 29.46875 C 156.539062 29.183594 157.683594 29.046875 158.433594 29.648438 C 158.910156 30.03125 159.042969 30.648438 159.09375 31.195312 C 159.210938 32.40625 158.863281 33.558594 158.351562 34.667969 C 158.207031 34.988281 158.03125 35.296875 157.84375 35.601562 C 157.789062 35.691406 157.613281 35.871094 157.613281 35.980469 C 157.617188 36.117188 158.058594 36.351562 158.160156 36.433594 C 158.550781 36.746094 159.097656 37.191406 159.25 37.660156 C 159.449219 38.261719 158.777344 39.125 158.460938 39.605469 C 158.378906 39.726562 158.148438 40.167969 157.9375 40.128906 C 157.691406 40.085938 157.476562 39.789062 157.316406 39.636719 C 156.894531 39.242188 156.429688 38.890625 156.011719 38.492188 C 155.949219 38.433594 155.890625 38.617188 155.832031 38.679688 C 155.707031 38.808594 155.582031 38.933594 155.457031 39.066406 C 155.105469 39.441406 154.742188 39.8125 154.378906 40.179688 C 153.292969 41.277344 152.1875 42.363281 151.046875 43.417969 C 146.921875 47.246094 142.003906 50.535156 136.757812 53.011719 C 135.5625 53.574219 134.378906 54.222656 133.109375 54.644531 C 132.886719 54.722656 132.011719 54.792969 131.875 54.738281 Z M 156.6875 35.1875 C 156.683594 35.179688 156.730469 35.003906 156.734375 34.996094 C 156.773438 34.875 156.8125 34.757812 156.839844 34.636719 C 156.925781 34.273438 156.980469 33.902344 156.953125 33.527344 C 156.941406 33.320312 156.921875 33.113281 156.890625 32.90625 C 156.757812 32.121094 156.078125 31.015625 155.03125 31.242188 C 154.789062 31.292969 154.574219 31.410156 154.375 31.542969 C 154.230469 31.640625 154.105469 31.757812 153.988281 31.878906 C 153.835938 32.035156 153.65625 32.234375 153.640625 32.453125 C 153.632812 32.613281 153.757812 32.746094 153.863281 32.859375 C 154.085938 33.105469 154.34375 33.316406 154.585938 33.542969 C 155.097656 34.027344 156.125 34.746094 156.6875 35.1875 Z M 156.6875 35.1875 " fill-opacity="1" fill-rule="evenodd"/><path fill="#000000" d="M 306.484375 24.894531 C 307.207031 24.625 308.691406 25.097656 309.390625 25.234375 C 312.425781 25.835938 315.359375 26.921875 318.164062 28.183594 C 328.601562 32.875 336.164062 41.679688 340.84375 51.738281 C 342.015625 54.246094 342.980469 56.890625 343.578125 59.585938 C 343.738281 60.3125 344.222656 61.640625 343.886719 62.390625 C 343.589844 63.035156 342.832031 63.539062 342.3125 64.003906 C 341.210938 65 340.1875 65.878906 338.921875 66.628906 C 337.289062 65.164062 335.003906 64.121094 333.152344 62.898438 C 332.589844 58.539062 330.667969 54.1875 328.691406 50.300781 C 325.324219 43.691406 320.863281 37.632812 315.449219 32.472656 C 312.988281 30.140625 309.507812 26.503906 306.484375 24.894531 Z M 306.484375 24.894531 " fill-opacity="1" fill-rule="evenodd"/><path fill="#000000" d="M 306.484375 117.457031 C 307.207031 117.726562 308.691406 117.253906 309.390625 117.117188 C 312.425781 116.515625 315.359375 115.429688 318.164062 114.167969 C 328.601562 109.476562 336.164062 100.671875 340.84375 90.613281 C 342.015625 88.105469 342.980469 85.460938 343.578125 82.765625 C 343.738281 82.039062 344.222656 80.710938 343.886719 79.960938 C 343.589844 79.316406 342.832031 78.8125 342.3125 78.347656 C 341.210938 77.351562 340.1875 76.472656 338.921875 75.722656 C 337.289062 77.1875 335.003906 78.230469 333.152344 79.453125 C 332.589844 83.808594 330.667969 88.164062 328.691406 92.050781 C 325.324219 98.660156 320.863281 104.71875 315.449219 109.878906 C 312.988281 112.210938 309.507812 115.847656 306.484375 117.457031 Z M 306.484375 117.457031 " fill-opacity="1" fill-rule="evenodd"/><path fill="#000000" d="M 352.175781 65.378906 C 351.890625 65.527344 351.625 65.667969 351.554688 65.710938 C 349.898438 66.972656 348.269531 68.152344 346.417969 69.152344 C 345.785156 69.492188 345.128906 69.777344 344.484375 70.09375 C 344.382812 70.144531 344.09375 70.277344 343.945312 70.425781 C 343.738281 70.625 343.679688 70.863281 343.738281 71.09375 C 343.796875 71.328125 343.96875 71.523438 344.269531 71.617188 C 344.496094 71.683594 344.867188 71.667969 344.980469 71.671875 C 345.164062 71.671875 345.726562 71.882812 346.464844 72.164062 C 348.40625 72.90625 351.453125 74.253906 352.855469 75.019531 C 353.015625 75.109375 353.5 75.429688 353.910156 75.710938 C 353.660156 75.871094 353.394531 76.023438 353.257812 76.078125 C 351.867188 76.597656 350.222656 77.128906 349.324219 78.367188 C 348.992188 78.828125 348.890625 79.363281 348.890625 79.929688 C 348.898438 80.601562 349.097656 81.316406 349.117188 81.925781 C 349.175781 83.566406 348.878906 84.996094 347.890625 86.355469 C 347.117188 87.425781 346.164062 88.441406 344.980469 89.085938 C 344.785156 89.195312 343.128906 89.976562 343.128906 89.976562 C 342.898438 90.089844 342.773438 90.339844 342.820312 90.585938 C 342.867188 90.835938 343.082031 91.019531 343.335938 91.039062 C 343.335938 91.039062 345.878906 91.210938 346.636719 91.113281 C 350.542969 90.625 352.921875 88.195312 354.636719 84.945312 C 354.890625 84.476562 355.074219 83.882812 355.269531 83.304688 C 355.441406 82.820312 355.613281 82.347656 355.902344 82.015625 C 356.175781 81.699219 356.578125 81.484375 356.992188 81.277344 C 357.511719 81.023438 358.039062 80.785156 358.453125 80.480469 C 359.730469 79.550781 360.625 78.375 361.453125 77.0625 C 361.773438 76.546875 362.074219 76.023438 362.359375 75.492188 C 362.511719 75.242188 363.382812 73.664062 363.382812 73.664062 C 363.535156 73.394531 363.429688 73.054688 363.152344 72.910156 C 363.152344 72.910156 362.269531 72.441406 362.109375 72.359375 C 361.535156 72.085938 359.945312 71.386719 358.761719 70.871094 C 358.75 70.871094 363.316406 69.503906 363.316406 69.503906 C 363.601562 69.417969 363.773438 69.128906 363.707031 68.839844 C 363.707031 68.839844 363.234375 66.898438 362.269531 65.066406 C 361.589844 63.773438 360.660156 62.550781 359.511719 62 C 359.085938 61.796875 358.511719 61.640625 357.96875 61.46875 C 357.53125 61.335938 357.121094 61.203125 356.867188 60.976562 C 356.773438 60.894531 356.761719 60.75 356.738281 60.609375 C 356.683594 60.332031 356.648438 60.039062 356.589844 59.828125 C 356.304688 58.800781 355.855469 57.765625 355.292969 56.859375 C 352.945312 53.148438 347.0625 50.40625 342.855469 50.636719 C 342.578125 50.652344 342.347656 50.855469 342.3125 51.121094 C 342.277344 51.386719 342.441406 51.640625 342.703125 51.726562 C 344.0625 52.171875 345.1875 53.445312 346.152344 54.964844 C 347.691406 57.394531 348.761719 60.46875 349.464844 62.238281 C 349.945312 63.457031 350.417969 64.226562 351.542969 64.988281 C 351.75 65.128906 351.957031 65.261719 352.175781 65.378906 Z M 345.601562 90.027344 C 346.910156 89.300781 347.980469 88.183594 348.832031 86.996094 C 349.96875 85.425781 350.335938 83.78125 350.269531 81.886719 C 350.246094 81.375 350.105469 80.785156 350.0625 80.210938 C 350.015625 79.78125 350.015625 79.355469 350.269531 79.011719 C 351.039062 77.949219 352.488281 77.566406 353.671875 77.121094 C 354.0625 76.96875 355.246094 76.179688 355.246094 76.179688 C 355.40625 76.074219 355.488281 75.90625 355.488281 75.722656 C 355.5 75.542969 355.40625 75.371094 355.257812 75.265625 C 355.257812 75.265625 353.738281 74.21875 353.417969 74.046875 C 351.773438 73.148438 347.945312 71.476562 346.105469 70.839844 C 345.980469 70.796875 345.878906 70.757812 345.761719 70.726562 C 346.175781 70.535156 346.578125 70.34375 346.980469 70.128906 C 348.890625 69.101562 350.554688 67.890625 352.269531 66.59375 C 352.40625 66.484375 353.5 66.011719 353.75 65.851562 C 353.921875 65.730469 353.980469 65.597656 354.003906 65.535156 C 354.0625 65.390625 354.097656 65.128906 353.820312 64.90625 C 353.726562 64.828125 353.210938 64.625 353.152344 64.601562 C 352.820312 64.460938 352.5 64.273438 352.199219 64.070312 C 351.292969 63.457031 350.921875 62.820312 350.53125 61.839844 C 349.820312 60.023438 348.714844 56.871094 347.128906 54.378906 C 346.53125 53.417969 345.84375 52.558594 345.09375 51.890625 C 348.589844 52.464844 352.542969 54.652344 354.3125 57.441406 C 354.820312 58.261719 355.222656 59.195312 355.476562 60.121094 C 355.542969 60.363281 355.566406 60.707031 355.648438 61.011719 C 355.726562 61.328125 355.878906 61.601562 356.085938 61.792969 C 356.371094 62.058594 356.808594 62.261719 357.292969 62.429688 C 357.867188 62.628906 358.53125 62.777344 359.003906 63 C 359.945312 63.457031 360.683594 64.503906 361.246094 65.574219 C 361.855469 66.730469 362.246094 67.9375 362.441406 68.59375 C 362.441406 68.59375 356.945312 70.242188 356.945312 70.242188 C 356.726562 70.3125 356.566406 70.511719 356.542969 70.742188 C 356.53125 70.976562 356.671875 71.191406 356.890625 71.285156 C 356.890625 71.285156 360.660156 72.90625 361.589844 73.359375 C 361.660156 73.394531 361.878906 73.511719 362.097656 73.625 C 361.832031 74.105469 361.453125 74.796875 361.359375 74.957031 C 361.074219 75.46875 360.785156 75.980469 360.464844 76.480469 C 359.71875 77.667969 358.925781 78.742188 357.761719 79.585938 C 357.394531 79.855469 356.921875 80.058594 356.464844 80.285156 C 355.914062 80.5625 355.394531 80.871094 355.027344 81.292969 C 354.648438 81.722656 354.394531 82.324219 354.1875 82.945312 C 354.003906 83.46875 353.84375 84.011719 353.625 84.4375 C 352.085938 87.347656 349.992188 89.566406 346.496094 90.003906 C 346.289062 90.03125 345.96875 90.035156 345.601562 90.027344 Z M 345.601562 90.027344 " fill-opacity="1" fill-rule="evenodd"/><path fill="#000000" d="M 339.265625 75.914062 C 339.40625 75.8125 340.234375 75.222656 340.324219 75.148438 C 341.601562 74.144531 344.039062 71.8125 345.199219 70.6875 C 345.3125 70.585938 345.371094 70.449219 345.371094 70.304688 C 345.371094 70.179688 345.335938 70.015625 345.199219 69.859375 C 345.09375 69.75 344.84375 69.59375 344.785156 69.550781 C 344.382812 69.261719 343.992188 68.980469 343.589844 68.695312 C 342.0625 67.589844 340.554688 66.367188 338.898438 65.421875 C 338.65625 65.277344 338.335938 65.339844 338.164062 65.5625 C 337.703125 66.132812 336.507812 66.695312 335.875 67.117188 C 334.140625 68.28125 332.335938 69.351562 330.578125 70.476562 C 330.324219 70.539062 330.222656 70.773438 330.210938 70.820312 C 330.164062 70.9375 330.09375 71.191406 330.347656 71.433594 C 330.382812 71.457031 330.613281 71.582031 330.691406 71.636719 C 330.863281 71.75 331.035156 71.859375 331.210938 71.972656 C 331.808594 72.371094 332.429688 72.738281 333.046875 73.101562 C 334.84375 74.152344 336.625 75.246094 338.496094 76.148438 C 338.679688 76.238281 338.898438 76.222656 339.070312 76.113281 C 339.152344 76.0625 339.222656 75.992188 339.265625 75.914062 Z M 343.933594 70.335938 C 342.691406 71.527344 340.703125 73.410156 339.601562 74.28125 C 339.507812 74.347656 338.96875 74.695312 338.636719 74.964844 C 336.921875 74.113281 335.289062 73.109375 333.636719 72.144531 C 333.035156 71.789062 332.4375 71.433594 331.851562 71.050781 L 331.820312 71.023438 C 333.394531 70.03125 334.980469 69.074219 336.53125 68.039062 C 337.105469 67.652344 338.082031 67.132812 338.703125 66.609375 C 340.175781 67.5 341.519531 68.597656 342.910156 69.59375 C 343.257812 69.839844 343.601562 70.085938 343.933594 70.335938 Z M 330.65625 71.574219 Z M 330.65625 71.574219 " fill-opacity="1" fill-rule="evenodd"/><g clip-path="url(#40bb23473b)"><path fill="#000000" d="M 363.269531 68.914062 L 374.984375 71.421875 L 363.269531 73.328125 L 358.359375 70.886719 Z M 363.269531 68.914062 " fill-opacity="1" fill-rule="evenodd"/></g><path fill="#000000" d="M 68.660156 20.132812 C 67.933594 19.863281 66.453125 20.335938 65.75 20.472656 C 62.714844 21.074219 59.785156 22.160156 56.980469 23.421875 C 46.542969 28.113281 38.976562 36.917969 34.300781 46.976562 C 33.128906 49.484375 32.160156 52.128906 31.5625 54.824219 C 31.402344 55.550781 30.921875 56.878906 31.253906 57.628906 C 31.550781 58.273438 32.3125 58.777344 32.828125 59.242188 C 33.933594 60.238281 34.953125 61.117188 36.21875 61.871094 C 37.851562 60.402344 40.140625 59.359375 41.988281 58.136719 C 42.554688 53.78125 44.472656 49.425781 46.449219 45.539062 C 49.816406 38.933594 54.277344 32.871094 59.691406 27.710938 C 62.152344 25.382812 65.636719 21.742188 68.660156 20.132812 Z M 68.660156 20.132812 " fill-opacity="1" fill-rule="evenodd"/><path fill="#000000" d="M 68.660156 112.699219 C 67.933594 112.964844 66.453125 112.492188 65.75 112.355469 C 62.714844 111.753906 59.785156 110.671875 56.980469 109.410156 C 46.542969 104.714844 38.976562 95.910156 34.300781 85.855469 C 33.128906 83.34375 32.160156 80.699219 31.5625 78.003906 C 31.402344 77.277344 30.921875 75.953125 31.253906 75.203125 C 31.550781 74.554688 32.3125 74.050781 32.828125 73.585938 C 33.933594 72.589844 34.953125 71.710938 36.21875 70.960938 C 37.851562 72.425781 40.140625 73.46875 41.988281 74.691406 C 42.554688 79.050781 44.472656 83.402344 46.449219 87.292969 C 49.816406 93.898438 54.277344 99.957031 59.691406 105.117188 C 62.152344 107.449219 65.636719 111.085938 68.660156 112.699219 Z M 68.660156 112.699219 " fill-opacity="1" fill-rule="evenodd"/><path fill="#000000" d="M 22.964844 60.617188 C 23.253906 60.765625 23.515625 60.90625 23.585938 60.953125 C 25.242188 62.210938 26.875 63.390625 28.722656 64.390625 C 29.355469 64.730469 30.011719 65.015625 30.65625 65.332031 C 30.757812 65.386719 31.046875 65.515625 31.195312 65.664062 C 31.402344 65.867188 31.460938 66.105469 31.402344 66.335938 C 31.34375 66.566406 31.171875 66.765625 30.875 66.855469 C 30.644531 66.921875 30.277344 66.910156 30.160156 66.910156 C 29.976562 66.914062 29.414062 67.121094 28.679688 67.40625 C 26.734375 68.148438 23.691406 69.492188 22.289062 70.261719 C 22.125 70.347656 21.644531 70.667969 21.230469 70.953125 C 21.484375 71.109375 21.746094 71.261719 21.886719 71.316406 C 23.277344 71.835938 24.917969 72.367188 25.816406 73.605469 C 26.148438 74.066406 26.253906 74.605469 26.253906 75.171875 C 26.242188 75.839844 26.046875 76.558594 26.023438 77.167969 C 25.964844 78.804688 26.265625 80.234375 27.253906 81.59375 C 28.023438 82.667969 28.976562 83.679688 30.160156 84.324219 C 30.355469 84.433594 32.011719 85.21875 32.011719 85.21875 C 32.242188 85.328125 32.367188 85.578125 32.324219 85.824219 C 32.277344 86.074219 32.058594 86.257812 31.804688 86.277344 C 31.804688 86.277344 29.265625 86.449219 28.507812 86.351562 C 24.597656 85.863281 22.21875 83.4375 20.503906 80.1875 C 20.253906 79.714844 20.070312 79.121094 19.875 78.542969 C 19.699219 78.058594 19.527344 77.585938 19.242188 77.253906 C 18.964844 76.9375 18.5625 76.722656 18.148438 76.519531 C 17.632812 76.261719 17.101562 76.023438 16.6875 75.71875 C 15.414062 74.789062 14.515625 73.613281 13.6875 72.300781 C 13.367188 71.789062 13.066406 71.261719 12.78125 70.734375 C 12.632812 70.480469 11.757812 68.902344 11.757812 68.902344 C 11.609375 68.632812 11.710938 68.296875 11.988281 68.148438 C 11.988281 68.148438 12.871094 67.679688 13.035156 67.597656 C 13.609375 67.324219 15.195312 66.625 16.378906 66.109375 C 16.390625 66.109375 11.828125 64.742188 11.828125 64.742188 C 11.539062 64.65625 11.367188 64.367188 11.4375 64.082031 C 11.4375 64.082031 11.90625 62.140625 12.871094 60.304688 C 13.550781 59.011719 14.480469 57.789062 15.632812 57.238281 C 16.058594 57.035156 16.632812 56.882812 17.171875 56.710938 C 17.609375 56.574219 18.023438 56.441406 18.277344 56.214844 C 18.367188 56.132812 18.378906 55.988281 18.402344 55.847656 C 18.460938 55.570312 18.492188 55.28125 18.550781 55.066406 C 18.839844 54.039062 19.289062 53.003906 19.851562 52.097656 C 22.195312 48.390625 28.082031 45.644531 32.289062 45.878906 C 32.5625 45.894531 32.792969 46.097656 32.828125 46.363281 C 32.863281 46.628906 32.703125 46.882812 32.4375 46.964844 C 31.082031 47.410156 29.953125 48.683594 28.988281 50.203125 C 27.449219 52.632812 26.378906 55.707031 25.679688 57.476562 C 25.195312 58.695312 24.722656 59.46875 23.597656 60.226562 C 23.390625 60.367188 23.183594 60.5 22.964844 60.617188 Z M 29.539062 85.269531 C 28.230469 84.539062 27.160156 83.425781 26.308594 82.234375 C 25.171875 80.664062 24.804688 79.019531 24.875 77.125 C 24.898438 76.613281 25.035156 76.023438 25.082031 75.453125 C 25.125 75.019531 25.125 74.59375 24.875 74.25 C 24.101562 73.1875 22.65625 72.804688 21.472656 72.359375 C 21.082031 72.210938 19.894531 71.417969 19.894531 71.417969 C 19.734375 71.316406 19.65625 71.144531 19.65625 70.960938 C 19.644531 70.78125 19.734375 70.609375 19.886719 70.503906 C 19.886719 70.503906 21.402344 69.460938 21.722656 69.285156 C 23.367188 68.386719 27.195312 66.714844 29.035156 66.078125 C 29.160156 66.035156 29.265625 66 29.378906 65.964844 C 28.964844 65.773438 28.5625 65.582031 28.160156 65.367188 C 26.253906 64.339844 24.585938 63.128906 22.875 61.832031 C 22.734375 61.726562 21.644531 61.253906 21.390625 61.089844 C 21.21875 60.972656 21.160156 60.835938 21.136719 60.773438 C 21.082031 60.628906 21.046875 60.367188 21.320312 60.144531 C 21.414062 60.066406 21.929688 59.863281 21.988281 59.84375 C 22.320312 59.699219 22.644531 59.515625 22.941406 59.308594 C 23.851562 58.695312 24.21875 58.0625 24.609375 57.078125 C 25.320312 55.261719 26.425781 52.113281 28.011719 49.617188 C 28.609375 48.660156 29.300781 47.800781 30.046875 47.128906 C 26.550781 47.703125 22.597656 49.890625 20.828125 52.679688 C 20.320312 53.5 19.917969 54.433594 19.667969 55.363281 C 19.597656 55.601562 19.574219 55.949219 19.492188 56.25 C 19.414062 56.566406 19.265625 56.84375 19.058594 57.03125 C 18.769531 57.296875 18.332031 57.5 17.851562 57.667969 C 17.277344 57.867188 16.609375 58.019531 16.136719 58.242188 C 15.195312 58.695312 14.460938 59.742188 13.894531 60.8125 C 13.285156 61.972656 12.894531 63.175781 12.699219 63.832031 C 12.699219 63.832031 18.195312 65.480469 18.195312 65.480469 C 18.414062 65.550781 18.574219 65.75 18.597656 65.984375 C 18.609375 66.214844 18.472656 66.433594 18.253906 66.527344 C 18.253906 66.527344 14.480469 68.144531 13.550781 68.597656 C 13.480469 68.632812 13.261719 68.75 13.046875 68.863281 C 13.308594 69.347656 13.6875 70.035156 13.78125 70.195312 C 14.066406 70.707031 14.355469 71.21875 14.675781 71.71875 C 15.425781 72.910156 16.21875 73.980469 17.378906 74.824219 C 17.746094 75.09375 18.21875 75.296875 18.679688 75.523438 C 19.230469 75.800781 19.746094 76.109375 20.113281 76.535156 C 20.492188 76.964844 20.746094 77.5625 20.953125 78.183594 C 21.136719 78.707031 21.296875 79.25 21.515625 79.675781 C 23.058594 82.585938 25.148438 84.804688 28.644531 85.246094 C 28.851562 85.269531 29.171875 85.273438 29.539062 85.269531 Z M 29.539062 85.269531 " fill-opacity="1" fill-rule="evenodd"/><path fill="#000000" d="M 35.875 71.152344 C 35.738281 71.050781 34.910156 70.460938 34.816406 70.386719 C 33.539062 69.382812 31.105469 67.050781 29.941406 65.925781 C 29.828125 65.824219 29.769531 65.6875 29.769531 65.542969 C 29.769531 65.421875 29.804688 65.253906 29.941406 65.101562 C 30.046875 64.988281 30.300781 64.832031 30.355469 64.792969 C 30.757812 64.503906 31.148438 64.21875 31.550781 63.933594 C 33.082031 62.828125 34.585938 61.605469 36.242188 60.660156 C 36.484375 60.519531 36.804688 60.578125 36.976562 60.800781 C 37.4375 61.371094 38.632812 61.933594 39.265625 62.355469 C 41 63.519531 42.804688 64.589844 44.566406 65.714844 C 44.816406 65.777344 44.921875 66.011719 44.933594 66.058594 C 44.976562 66.175781 45.046875 66.429688 44.792969 66.671875 C 44.761719 66.695312 44.53125 66.820312 44.449219 66.875 C 44.277344 66.988281 44.105469 67.097656 43.933594 67.210938 C 43.335938 67.609375 42.714844 67.976562 42.09375 68.339844 C 40.300781 69.390625 38.519531 70.484375 36.644531 71.386719 C 36.460938 71.476562 36.242188 71.464844 36.070312 71.355469 C 35.988281 71.300781 35.921875 71.230469 35.875 71.152344 Z M 31.207031 65.574219 C 32.449219 66.765625 34.4375 68.648438 35.542969 69.519531 C 35.632812 69.589844 36.171875 69.9375 36.507812 70.203125 C 38.21875 69.351562 39.851562 68.347656 41.507812 67.382812 C 42.105469 67.03125 42.703125 66.675781 43.289062 66.289062 L 43.324219 66.261719 C 41.75 65.273438 40.160156 64.3125 38.609375 63.277344 C 38.035156 62.890625 37.058594 62.375 36.4375 61.847656 C 34.964844 62.738281 33.621094 63.835938 32.230469 64.832031 C 31.886719 65.078125 31.539062 65.324219 31.207031 65.574219 Z M 44.484375 66.8125 Z M 44.484375 66.8125 " fill-opacity="1" fill-rule="evenodd"/><g clip-path="url(#2486b42ac8)"><path fill="#000000" d="M 11.871094 64.152344 L 0.160156 66.660156 L 11.871094 68.566406 L 16.78125 66.125 Z M 11.871094 64.152344 " fill-opacity="1" fill-rule="evenodd"/></g><path fill="#000000" d="M 181.863281 26.472656 C 181.808594 26.515625 181.925781 26.355469 181.957031 26.296875 C 182.019531 26.175781 182.078125 26.054688 182.140625 25.933594 C 182.332031 25.550781 182.527344 25.171875 182.714844 24.785156 C 183.238281 23.691406 183.835938 22.617188 184.355469 21.523438 C 184.351562 21.601562 184.496094 21.742188 184.53125 21.8125 C 184.652344 22.03125 184.757812 22.253906 184.867188 22.472656 C 185.242188 23.210938 185.578125 23.960938 185.929688 24.710938 C 187.371094 27.765625 189 30.769531 190.304688 33.871094 C 190.507812 34.355469 190.707031 34.847656 190.882812 35.34375 C 190.984375 35.628906 191.082031 35.921875 191.152344 36.214844 C 191.191406 36.371094 191.222656 36.53125 191.242188 36.691406 C 191.253906 36.796875 191.261719 36.902344 191.257812 37.007812 C 191.253906 37.074219 191.246094 37.136719 191.222656 37.199219 C 191.011719 37.855469 190.214844 36.957031 190.007812 36.769531 C 189.917969 36.691406 189.832031 36.609375 189.742188 36.527344 C 189.636719 36.4375 189.535156 36.347656 189.433594 36.253906 C 189.292969 36.128906 189.152344 36.003906 189.011719 35.878906 C 188.824219 35.710938 188.640625 35.539062 188.453125 35.371094 C 188.261719 35.195312 188.070312 35.027344 187.890625 34.847656 C 187.824219 34.78125 187.898438 35.019531 187.90625 35.105469 C 187.929688 35.316406 187.957031 35.527344 187.980469 35.738281 C 188.046875 36.289062 188.117188 36.835938 188.203125 37.386719 C 188.449219 38.996094 188.742188 40.601562 189.003906 42.210938 C 189.804688 47.082031 190.445312 51.988281 191.050781 56.882812 C 190.914062 56.855469 191.097656 57.113281 191.121094 57.226562 C 191.171875 57.5 191.199219 57.777344 191.242188 58.054688 C 191.355469 58.8125 191.46875 59.570312 191.578125 60.328125 C 191.890625 62.515625 192.195312 64.707031 192.460938 66.902344 C 193.480469 75.402344 195.390625 84.429688 193.734375 93.015625 C 193.375 94.875 193.148438 96.996094 192.003906 98.664062 C 191.847656 98.890625 191.046875 100.125 190.636719 100.09375 C 190.546875 100.089844 190.511719 100.007812 190.492188 99.945312 C 190.136719 98.875 190.609375 97.289062 190.605469 96.195312 C 190.59375 91.832031 190.359375 87.5 189.867188 83.160156 C 188.210938 68.496094 182.921875 31.824219 182.820312 28.375 C 182.820312 28.375 182.574219 27.894531 182.550781 27.851562 C 182.367188 27.507812 182.054688 26.8125 181.863281 26.472656 Z M 181.863281 26.472656 " fill-opacity="1" fill-rule="evenodd"/><path fill="#000000" d="M 166.511719 123.875 C 166.894531 124.101562 167.246094 123.636719 167.308594 123.570312 C 167.714844 123.152344 167.996094 122.671875 168.277344 122.195312 C 169.15625 120.691406 169.949219 119.15625 170.839844 117.65625 C 173.117188 113.820312 176 109.207031 175.71875 104.828125 C 175.59375 102.925781 174.808594 100.511719 172.078125 100.117188 C 168.691406 99.632812 166.730469 103.648438 165.851562 105.566406 C 165.550781 106.21875 164.835938 107.523438 165.308594 108.230469 C 165.710938 108.835938 166.730469 107.566406 166.886719 107.375 C 167.84375 106.191406 169.363281 103.863281 171.132812 105.769531 C 172.554688 107.304688 172.339844 109.40625 171.894531 111.179688 C 171.242188 113.796875 169.679688 116.183594 168.289062 118.582031 C 167.414062 120.089844 165.207031 123.113281 166.511719 123.875 Z M 166.511719 123.875 " fill-opacity="1" fill-rule="evenodd"/><path fill="#000000" d="M 96.546875 56.964844 C 95.621094 57.132812 95.238281 54.257812 95.753906 52.902344 C 96.570312 50.753906 97.84375 48.578125 99.535156 46.8125 C 100.398438 45.90625 101.441406 45.039062 102.714844 44.542969 C 103.371094 44.285156 104.222656 44.023438 104.964844 44.109375 C 106.257812 44.261719 107.546875 45.488281 108.394531 46.222656 C 110.832031 48.335938 113.484375 50.789062 115.421875 52.878906 C 115.390625 52.847656 115.480469 52.9375 115.511719 52.964844 C 115.574219 53.023438 115.640625 53.078125 115.703125 53.136719 C 115.910156 53.328125 116.097656 53.535156 116.289062 53.738281 C 116.84375 54.324219 117.589844 54.980469 117.816406 55.730469 C 118.003906 56.347656 117.652344 57.144531 117.457031 57.726562 C 116.984375 59.136719 116.453125 60.570312 115.523438 61.824219 C 115.488281 61.75 114.246094 61.808594 114.15625 61.8125 C 112.683594 61.820312 111.203125 61.917969 109.734375 62.039062 C 104.257812 62.476562 97.261719 63.910156 95.015625 68.585938 C 95.144531 68.585938 94.921875 68.785156 94.902344 68.890625 C 94.738281 69.980469 94.867188 71.128906 94.976562 72.214844 C 95.21875 74.617188 95.695312 76.988281 96.289062 79.34375 C 98.148438 86.730469 100.410156 95.386719 101.671875 102.871094 C 101.710938 103.101562 101.613281 103.800781 101.628906 104.066406 C 101.703125 105.09375 101.832031 106.109375 101.953125 107.132812 C 102.472656 111.496094 102.792969 115.980469 102.089844 120.34375 C 101.859375 121.78125 101.449219 123.296875 100.503906 124.542969 C 100.277344 124.84375 99.558594 125.835938 98.988281 125.402344 C 98.429688 124.972656 98.953125 123.601562 99.054688 123.109375 C 99.464844 121.136719 99.644531 119.117188 99.703125 117.117188 C 99.933594 109.246094 97.992188 101.90625 96.125 94.234375 C 95.875 94.132812 95.742188 92.726562 95.691406 92.523438 C 95.261719 90.800781 94.835938 89.078125 94.363281 87.367188 C 92.410156 80.28125 89.355469 72.320312 92 65.082031 C 91.898438 64.957031 92.132812 64.484375 92.175781 64.367188 C 92.472656 63.558594 92.902344 62.777344 93.476562 62.074219 C 95.863281 59.160156 98.949219 57.484375 102.882812 56.285156 C 103.976562 55.953125 105.484375 55.640625 106.625 55.449219 C 106.753906 55.429688 107.675781 55.367188 107.6875 55.214844 C 107.714844 54.820312 106.8125 54.234375 106.527344 53.984375 C 105.203125 52.828125 103.402344 51.414062 101.289062 51.898438 C 100.308594 52.121094 99.066406 52.761719 98.386719 53.699219 C 97.382812 55.078125 97.09375 56.867188 96.546875 56.964844 Z M 96.546875 56.964844 " fill-opacity="1" fill-rule="evenodd"/><path fill="#000000" d="M 160.449219 58.042969 C 160.085938 58.121094 159.695312 58.746094 159.589844 58.886719 C 159.402344 59.140625 159.21875 59.398438 159.039062 59.660156 C 158.382812 60.605469 157.917969 61.332031 158.234375 62.476562 C 158.859375 64.753906 159.957031 66.867188 160.640625 69.113281 C 160.980469 70.230469 160.601562 71.265625 159.253906 71.316406 C 156.609375 71.425781 156.027344 67.488281 155.707031 65.722656 C 155.617188 65.21875 155.523438 64.714844 155.421875 64.214844 C 155.28125 63.527344 155.109375 62.851562 154.902344 62.179688 C 154.640625 61.332031 154.371094 60.484375 154.007812 59.671875 C 153.964844 59.574219 153.738281 58.914062 153.578125 58.9375 C 153.1875 58.992188 152.65625 60.34375 152.492188 60.648438 C 152.285156 61.03125 151.945312 61.476562 151.921875 61.921875 C 151.875 62.746094 152.761719 63.742188 153.035156 64.503906 C 153.433594 65.613281 153.488281 66.808594 153.460938 67.972656 C 153.53125 67.992188 153.433594 68.355469 153.425781 68.386719 C 153.335938 68.828125 153.25 69.269531 153.097656 69.695312 C 152.53125 71.292969 149.792969 72.667969 148.648438 70.757812 C 148.183594 69.992188 148.292969 68.964844 148.328125 68.117188 C 148.40625 66.28125 148.789062 64.4375 148.59375 62.597656 C 148.523438 61.933594 148.367188 61.222656 148.007812 60.640625 C 147.96875 60.578125 147.632812 60.058594 147.5 60.167969 C 147.15625 60.449219 146.984375 61.144531 146.804688 61.527344 C 146.644531 61.859375 146.492188 62.199219 146.335938 62.535156 C 146.15625 62.929688 145.984375 63.332031 145.796875 63.722656 C 145.765625 63.792969 145.554688 64.078125 145.574219 64.160156 C 145.613281 64.320312 145.996094 64.539062 146.105469 64.667969 C 146.425781 65.054688 146.5625 65.441406 146.597656 65.933594 C 146.699219 67.511719 146.304688 69.121094 146.25 70.699219 C 146.203125 72.089844 146.066406 73.855469 147.082031 74.984375 C 148.226562 76.253906 150.183594 76.332031 151.507812 75.308594 C 153.117188 74.058594 154.191406 72.027344 154.316406 70.039062 C 154.667969 72.609375 157.484375 76.578125 160.53125 74.53125 C 160.886719 74.292969 161.199219 74.023438 161.464844 73.695312 C 161.84375 73.230469 162.125 72.671875 162.308594 72.109375 C 162.933594 70.195312 162.972656 68.0625 162.4375 66.128906 C 161.777344 63.734375 160.460938 60.570312 160.449219 58.042969 Z M 160.449219 58.042969 " fill-opacity="1" fill-rule="evenodd"/><path fill="#000000" d="M 128.316406 35.730469 C 128.289062 35.820312 127.890625 36.144531 127.808594 36.246094 C 127.433594 36.714844 127.078125 37.191406 126.753906 37.6875 C 125.625 39.410156 124.542969 41.269531 124.019531 43.253906 C 123.769531 44.199219 123.589844 45.230469 123.863281 46.191406 C 124.484375 48.359375 127.789062 48.679688 129.613281 47.746094 C 130.964844 47.058594 131.796875 45.300781 131.851562 43.90625 C 131.914062 42.191406 131.070312 40.773438 129.722656 39.679688 C 129.199219 39.25 128.175781 38.8125 127.875 38.1875 C 127.757812 37.945312 127.964844 37.636719 128.078125 37.425781 C 128.359375 36.902344 129.238281 36.042969 128.316406 35.730469 Z M 126.597656 40.878906 C 126.320312 41.089844 125.949219 41.824219 125.828125 42.128906 C 125.703125 42.433594 125.5625 42.742188 125.546875 43.074219 C 125.476562 44.636719 127.121094 45.039062 128.457031 44.886719 C 128.925781 44.835938 129.40625 44.761719 129.867188 44.652344 C 130.027344 44.613281 130.265625 44.546875 130.339844 44.386719 C 130.496094 44.039062 127.273438 40.914062 126.597656 40.878906 Z M 126.597656 40.878906 " fill-opacity="1" fill-rule="evenodd"/><path fill="#000000" d="M 171.003906 33.804688 C 171.078125 33.726562 171.632812 34.410156 171.71875 34.5 C 172.03125 34.8125 174.03125 37.058594 174.441406 36.601562 C 175.035156 35.941406 173.644531 33.503906 173.378906 32.910156 C 171.992188 29.847656 170.253906 26.898438 168.503906 24.035156 C 168.203125 23.542969 167.382812 21.554688 166.722656 21.441406 C 165.949219 21.308594 165.003906 23.175781 164.691406 23.667969 C 164.410156 24.101562 164.128906 24.550781 163.847656 24.996094 C 162.417969 27.300781 163.5625 27.457031 165.3125 29.109375 C 166.691406 30.417969 165.9375 33.359375 166.210938 35.226562 C 166.84375 39.5625 167.484375 43.898438 168.066406 48.246094 C 169.78125 60.96875 171.699219 73.710938 172.453125 86.542969 C 172.199219 86.320312 172.148438 87.144531 171.933594 87.402344 C 171.457031 87.984375 170.832031 88.453125 170.210938 88.867188 C 168.300781 90.128906 166.164062 90.992188 163.960938 91.59375 C 158.828125 92.992188 153.558594 93.304688 148.773438 95.84375 C 141.242188 99.832031 136.316406 106.773438 129.800781 112.015625 C 126.570312 114.621094 122.308594 116.441406 119.253906 112.519531 C 118.75 111.882812 118.378906 111.167969 118.101562 110.394531 C 117.132812 107.722656 117.566406 104.503906 118.234375 101.8125 C 118.503906 100.714844 118.925781 99.675781 119.195312 98.589844 C 119.226562 98.457031 119.46875 97.628906 119.140625 97.652344 C 118.648438 97.6875 118.0625 98.558594 117.804688 98.894531 C 116.742188 100.28125 116.019531 101.921875 115.484375 103.578125 C 113.621094 109.3125 114.628906 117.234375 121.257812 119.316406 C 126.15625 120.859375 130.878906 117.648438 134.40625 114.566406 C 139.90625 109.746094 144.617188 103.765625 151.472656 100.78125 C 159.613281 97.226562 173.390625 98.324219 176.449219 87.480469 C 176.449219 87.492188 176.542969 86.988281 176.550781 86.921875 C 176.597656 86.496094 176.625 86.074219 176.640625 85.636719 C 176.695312 84.273438 176.695312 82.898438 176.660156 81.535156 C 176.5625 77.6875 176.410156 73.820312 175.972656 69.988281 C 174.617188 58.140625 172.777344 45.597656 171.003906 33.804688 Z M 171.003906 33.804688 " fill-opacity="1" fill-rule="evenodd"/><path fill="#000000" d="M 137.15625 81.808594 C 137.160156 81.8125 137.160156 81.816406 137.15625 81.824219 L 137.15625 81.808594 C 137.140625 81.800781 137.042969 81.902344 137 81.9375 C 136.875 82.035156 136.742188 82.128906 136.613281 82.226562 C 136.222656 82.507812 135.824219 82.785156 135.4375 83.070312 C 134.230469 83.964844 133.058594 84.898438 131.847656 85.78125 C 131.828125 85.765625 131.464844 86.0625 131.445312 86.074219 C 130.929688 86.460938 130.410156 86.835938 129.890625 87.214844 C 127.652344 88.84375 125.355469 90.398438 123 91.878906 C 116.8125 95.773438 110.460938 99.265625 103.816406 102.425781 C 103.839844 102.40625 103.582031 102.515625 103.558594 102.527344 C 103.417969 102.597656 103.28125 102.671875 103.144531 102.738281 C 102.683594 102.964844 102.222656 103.183594 101.761719 103.410156 C 100.4375 104.054688 99.121094 104.703125 97.796875 105.347656 C 94.152344 107.121094 90.4375 108.765625 86.765625 110.492188 C 85.3125 111.179688 83.863281 111.878906 82.414062 112.566406 C 82.3125 112.613281 81.242188 113.121094 81.398438 113.296875 C 81.703125 113.640625 83.398438 113.285156 83.765625 113.238281 C 86.175781 112.933594 88.582031 112.351562 90.949219 111.847656 C 95.722656 110.828125 100.773438 110.039062 105.28125 108.183594 C 110.140625 106.179688 114.585938 102.945312 118.910156 100.085938 C 118.910156 100.179688 119.050781 99.964844 119.128906 99.910156 C 119.3125 99.78125 119.492188 99.660156 119.671875 99.53125 C 120.25 99.125 120.832031 98.71875 121.414062 98.316406 C 123.042969 97.183594 124.6875 96.078125 126.3125 94.945312 C 129.605469 92.644531 133.539062 90.273438 135.984375 87.113281 C 137.214844 85.527344 137.984375 83.703125 138.449219 81.796875 C 139.789062 76.304688 139.289062 70.386719 135.707031 65.742188 C 134.023438 63.5625 131.855469 61.511719 126.960938 61.554688 C 126.9375 61.511719 126.644531 61.671875 126.617188 61.683594 C 126.246094 61.859375 125.890625 62.054688 125.539062 62.265625 C 124.140625 63.113281 122.835938 64.136719 121.914062 65.449219 C 119.550781 68.832031 118.78125 75.394531 124.023438 76.8125 C 124.773438 77.019531 125.65625 77.09375 126.484375 77.101562 C 128.09375 77.109375 129.699219 77.113281 131.304688 77.265625 C 132.273438 77.359375 133.292969 77.472656 134.171875 77.90625 C 134.980469 78.300781 135.652344 78.96875 136.195312 79.648438 C 136.707031 80.28125 137.105469 81.007812 137.15625 81.808594 Z M 130.863281 70.558594 C 130.816406 70.496094 130.453125 70.523438 130.386719 70.523438 C 129.855469 70.511719 129.320312 70.542969 128.792969 70.589844 C 127.5625 70.695312 126.078125 70.773438 124.914062 70.304688 C 124.5 70.136719 124.230469 69.914062 123.96875 69.558594 C 123.761719 69.28125 124.164062 68.789062 124.355469 68.601562 C 124.941406 68.042969 125.621094 67.613281 126.507812 67.570312 C 128.183594 67.484375 130.230469 69.132812 130.863281 70.558594 Z M 130.863281 70.558594 " fill-opacity="1" fill-rule="evenodd"/></svg>