<svg xmlns="http://www.w3.org/2000/svg" xmlns:xlink="http://www.w3.org/1999/xlink" width="500" zoomAndPan="magnify" viewBox="0 0 375 149.999998" height="200" preserveAspectRatio="xMidYMid meet" version="1.0"><defs><clipPath id="57594af2e8"><path d="M 120 14.765625 L 161 14.765625 L 161 36 L 120 36 Z M 120 14.765625 " clip-rule="nonzero"/></clipPath></defs><path fill="#000000" d="M 306.164062 26.183594 C 306.886719 25.90625 308.367188 26.398438 309.066406 26.539062 C 312.097656 27.167969 315.023438 28.300781 317.824219 29.617188 C 328.242188 34.511719 335.792969 43.699219 340.464844 54.191406 C 341.636719 56.808594 342.597656 59.570312 343.195312 62.378906 C 343.355469 63.136719 343.839844 64.523438 343.503906 65.304688 C 343.207031 65.976562 342.449219 66.503906 341.933594 66.988281 C 340.832031 68.03125 339.8125 68.945312 338.546875 69.730469 C 336.917969 68.199219 334.636719 67.113281 332.789062 65.835938 C 332.226562 61.289062 330.308594 56.75 328.335938 52.691406 C 324.972656 45.796875 320.519531 39.476562 315.113281 34.09375 C 312.660156 31.660156 309.179688 27.867188 306.164062 26.183594 Z M 306.164062 26.183594 " fill-opacity="1" fill-rule="evenodd"/><path fill="#000000" d="M 306.164062 122.761719 C 306.886719 123.039062 308.367188 122.546875 309.066406 122.402344 C 312.097656 121.777344 315.023438 120.644531 317.824219 119.328125 C 328.242188 114.433594 335.792969 105.246094 340.464844 94.753906 C 341.636719 92.136719 342.597656 89.375 343.195312 86.5625 C 343.355469 85.804688 343.839844 84.421875 343.503906 83.640625 C 343.207031 82.964844 342.449219 82.441406 341.933594 81.957031 C 340.832031 80.914062 339.8125 80 338.546875 79.214844 C 336.917969 80.742188 334.636719 81.832031 332.789062 83.109375 C 332.226562 87.65625 330.308594 92.195312 328.335938 96.253906 C 324.972656 103.144531 320.519531 109.46875 315.113281 114.851562 C 312.660156 117.285156 309.179688 121.078125 306.164062 122.761719 Z M 306.164062 122.761719 " fill-opacity="1" fill-rule="evenodd"/><path fill="#000000" d="M 351.78125 68.425781 C 351.492188 68.578125 351.230469 68.726562 351.160156 68.773438 C 349.507812 70.089844 347.878906 71.316406 346.03125 72.359375 C 345.398438 72.714844 344.746094 73.011719 344.101562 73.34375 C 344 73.398438 343.710938 73.535156 343.5625 73.6875 C 343.355469 73.898438 343.300781 74.148438 343.355469 74.390625 C 343.414062 74.632812 343.585938 74.835938 343.882812 74.929688 C 344.113281 75.003906 344.480469 74.988281 344.597656 74.988281 C 344.78125 74.992188 345.339844 75.207031 346.078125 75.503906 C 348.015625 76.28125 351.058594 77.683594 352.457031 78.484375 C 352.617188 78.578125 353.097656 78.910156 353.511719 79.207031 C 353.261719 79.371094 352.996094 79.53125 352.859375 79.585938 C 351.46875 80.128906 349.828125 80.683594 348.933594 81.976562 C 348.601562 82.457031 348.496094 83.015625 348.496094 83.605469 C 348.507812 84.308594 348.703125 85.054688 348.726562 85.6875 C 348.785156 87.398438 348.484375 88.890625 347.5 90.308594 C 346.730469 91.429688 345.777344 92.484375 344.597656 93.160156 C 344.402344 93.269531 342.75 94.089844 342.75 94.089844 C 342.519531 94.203125 342.394531 94.464844 342.4375 94.722656 C 342.484375 94.984375 342.703125 95.175781 342.953125 95.195312 C 342.953125 95.195312 345.492188 95.375 346.25 95.273438 C 350.148438 94.761719 352.527344 92.230469 354.234375 88.839844 C 354.488281 88.347656 354.671875 87.730469 354.867188 87.125 C 355.039062 86.621094 355.210938 86.128906 355.496094 85.78125 C 355.773438 85.449219 356.175781 85.226562 356.589844 85.011719 C 357.105469 84.746094 357.632812 84.496094 358.046875 84.179688 C 359.320312 83.210938 360.214844 81.984375 361.039062 80.613281 C 361.363281 80.078125 361.660156 79.527344 361.945312 78.976562 C 362.097656 78.714844 362.96875 77.070312 362.96875 77.070312 C 363.117188 76.785156 363.015625 76.433594 362.738281 76.28125 C 362.738281 76.28125 361.855469 75.792969 361.695312 75.707031 C 361.121094 75.421875 359.539062 74.691406 358.355469 74.15625 C 358.34375 74.152344 362.898438 72.726562 362.898438 72.726562 C 363.1875 72.636719 363.359375 72.335938 363.289062 72.035156 C 363.289062 72.035156 362.820312 70.011719 361.855469 68.097656 C 361.179688 66.75 360.25 65.472656 359.101562 64.898438 C 358.675781 64.6875 358.101562 64.523438 357.5625 64.347656 C 357.128906 64.207031 356.714844 64.066406 356.460938 63.832031 C 356.371094 63.746094 356.359375 63.59375 356.335938 63.445312 C 356.277344 63.15625 356.242188 62.855469 356.1875 62.632812 C 355.898438 61.558594 355.453125 60.480469 354.890625 59.535156 C 352.546875 55.664062 346.671875 52.804688 342.472656 53.046875 C 342.199219 53.0625 341.96875 53.273438 341.933594 53.550781 C 341.898438 53.828125 342.058594 54.09375 342.324219 54.179688 C 343.679688 54.644531 344.800781 55.972656 345.765625 57.558594 C 347.304688 60.09375 348.371094 63.300781 349.070312 65.148438 C 349.554688 66.417969 350.023438 67.222656 351.148438 68.015625 C 351.355469 68.164062 351.5625 68.300781 351.78125 68.425781 Z M 345.214844 94.140625 C 346.523438 93.382812 347.589844 92.21875 348.441406 90.976562 C 349.578125 89.339844 349.945312 87.621094 349.875 85.644531 C 349.851562 85.113281 349.714844 84.5 349.667969 83.902344 C 349.621094 83.453125 349.621094 83.007812 349.875 82.648438 C 350.644531 81.539062 352.089844 81.140625 353.273438 80.675781 C 353.660156 80.519531 354.84375 79.691406 354.84375 79.691406 C 355.003906 79.585938 355.085938 79.40625 355.085938 79.21875 C 355.097656 79.027344 355.003906 78.851562 354.855469 78.738281 C 354.855469 78.738281 353.339844 77.648438 353.019531 77.46875 C 351.378906 76.53125 347.558594 74.785156 345.71875 74.121094 C 345.59375 74.078125 345.492188 74.039062 345.375 74.003906 C 345.789062 73.804688 346.191406 73.601562 346.59375 73.378906 C 348.496094 72.308594 350.160156 71.046875 351.871094 69.691406 C 352.007812 69.578125 353.097656 69.085938 353.351562 68.914062 C 353.523438 68.792969 353.582031 68.652344 353.605469 68.585938 C 353.660156 68.433594 353.695312 68.164062 353.421875 67.929688 C 353.328125 67.851562 352.8125 67.636719 352.753906 67.613281 C 352.421875 67.46875 352.101562 67.273438 351.800781 67.058594 C 350.894531 66.417969 350.527344 65.757812 350.140625 64.730469 C 349.425781 62.835938 348.324219 59.550781 346.742188 56.945312 C 346.144531 55.945312 345.457031 55.050781 344.710938 54.351562 C 348.199219 54.949219 352.148438 57.234375 353.914062 60.144531 C 354.417969 61 354.820312 61.972656 355.074219 62.941406 C 355.140625 63.191406 355.164062 63.550781 355.246094 63.867188 C 355.324219 64.195312 355.476562 64.484375 355.679688 64.683594 C 355.96875 64.960938 356.40625 65.171875 356.886719 65.347656 C 357.460938 65.554688 358.125 65.710938 358.597656 65.945312 C 359.539062 66.417969 360.273438 67.511719 360.835938 68.628906 C 361.441406 69.835938 361.832031 71.09375 362.027344 71.777344 C 362.027344 71.777344 356.542969 73.496094 356.542969 73.496094 C 356.324219 73.570312 356.164062 73.777344 356.140625 74.023438 C 356.128906 74.265625 356.265625 74.492188 356.484375 74.589844 C 356.484375 74.589844 360.25 76.277344 361.179688 76.75 C 361.246094 76.789062 361.464844 76.90625 361.683594 77.027344 C 361.417969 77.53125 361.039062 78.25 360.949219 78.417969 C 360.660156 78.953125 360.375 79.484375 360.054688 80.003906 C 359.308594 81.246094 358.515625 82.367188 357.355469 83.246094 C 356.988281 83.527344 356.519531 83.738281 356.058594 83.976562 C 355.507812 84.265625 354.992188 84.585938 354.625 85.03125 C 354.246094 85.476562 353.996094 86.101562 353.789062 86.75 C 353.605469 87.296875 353.445312 87.863281 353.226562 88.308594 C 351.6875 91.34375 349.597656 93.660156 346.109375 94.117188 C 345.902344 94.144531 345.582031 94.148438 345.214844 94.140625 Z M 345.214844 94.140625 " fill-opacity="1" fill-rule="evenodd"/><path fill="#000000" d="M 338.890625 79.414062 C 339.03125 79.308594 339.855469 78.691406 339.949219 78.617188 C 341.222656 77.570312 343.65625 75.136719 344.8125 73.964844 C 344.929688 73.855469 344.984375 73.714844 344.984375 73.5625 C 344.984375 73.433594 344.953125 73.261719 344.8125 73.101562 C 344.710938 72.984375 344.457031 72.820312 344.402344 72.777344 C 344 72.476562 343.609375 72.179688 343.207031 71.882812 C 341.679688 70.730469 340.175781 69.453125 338.523438 68.46875 C 338.285156 68.320312 337.960938 68.382812 337.789062 68.613281 C 337.332031 69.210938 336.136719 69.796875 335.507812 70.238281 C 333.773438 71.453125 331.972656 72.570312 330.214844 73.742188 C 329.964844 73.808594 329.859375 74.050781 329.847656 74.101562 C 329.804688 74.222656 329.734375 74.488281 329.988281 74.738281 C 330.023438 74.765625 330.25 74.894531 330.332031 74.953125 C 330.503906 75.070312 330.675781 75.183594 330.847656 75.304688 C 331.445312 75.71875 332.0625 76.101562 332.683594 76.480469 C 334.472656 77.578125 336.253906 78.71875 338.125 79.660156 C 338.308594 79.753906 338.523438 79.738281 338.699219 79.625 C 338.777344 79.570312 338.847656 79.496094 338.890625 79.414062 Z M 343.550781 73.59375 C 342.3125 74.835938 340.328125 76.804688 339.226562 77.710938 C 339.132812 77.785156 338.59375 78.144531 338.261719 78.425781 C 336.550781 77.535156 334.921875 76.488281 333.269531 75.480469 C 332.671875 75.113281 332.074219 74.742188 331.492188 74.339844 L 331.457031 74.3125 C 333.027344 73.28125 334.613281 72.277344 336.160156 71.199219 C 336.734375 70.796875 337.710938 70.257812 338.328125 69.707031 C 339.800781 70.636719 341.140625 71.78125 342.53125 72.820312 C 342.875 73.078125 343.21875 73.335938 343.550781 73.59375 Z M 330.296875 74.886719 Z M 330.296875 74.886719 " fill-opacity="1" fill-rule="evenodd"/><path fill="#000000" d="M 362.855469 72.109375 L 374.546875 74.726562 L 362.855469 76.71875 L 357.953125 74.167969 Z M 362.855469 72.109375 " fill-opacity="1" fill-rule="evenodd"/><path fill="#000000" d="M 68.742188 21.21875 C 68.019531 20.9375 66.539062 21.429688 65.839844 21.574219 C 62.808594 22.203125 59.882812 23.332031 57.082031 24.648438 C 46.664062 29.542969 39.113281 38.730469 34.441406 49.222656 C 33.269531 51.84375 32.304688 54.601562 31.710938 57.414062 C 31.550781 58.171875 31.066406 59.554688 31.398438 60.339844 C 31.699219 61.011719 32.457031 61.539062 32.972656 62.023438 C 34.074219 63.0625 35.09375 63.980469 36.355469 64.761719 C 37.988281 63.234375 40.269531 62.144531 42.117188 60.871094 C 42.679688 56.324219 44.597656 51.78125 46.570312 47.726562 C 49.933594 40.832031 54.386719 34.507812 59.789062 29.125 C 62.246094 26.695312 65.722656 22.898438 68.742188 21.21875 Z M 68.742188 21.21875 " fill-opacity="1" fill-rule="evenodd"/><path fill="#000000" d="M 68.742188 117.792969 C 68.019531 118.074219 66.539062 117.582031 65.839844 117.4375 C 62.808594 116.808594 59.882812 115.679688 57.082031 114.363281 C 46.664062 109.464844 39.113281 100.277344 34.441406 89.785156 C 33.269531 87.167969 32.304688 84.410156 31.710938 81.597656 C 31.550781 80.839844 31.066406 79.453125 31.398438 78.671875 C 31.699219 78 32.457031 77.472656 32.972656 76.988281 C 34.074219 75.949219 35.09375 75.03125 36.355469 74.246094 C 37.988281 75.777344 40.269531 76.863281 42.117188 78.140625 C 42.679688 82.6875 44.597656 87.230469 46.570312 91.285156 C 49.933594 98.179688 54.386719 104.5 59.789062 109.882812 C 62.246094 112.316406 65.722656 116.113281 68.742188 117.792969 Z M 68.742188 117.792969 " fill-opacity="1" fill-rule="evenodd"/><path fill="#000000" d="M 23.125 63.457031 C 23.414062 63.613281 23.675781 63.757812 23.746094 63.804688 C 25.398438 65.121094 27.027344 66.351562 28.875 67.394531 C 29.507812 67.75 30.160156 68.046875 30.804688 68.375 C 30.90625 68.429688 31.191406 68.566406 31.34375 68.722656 C 31.550781 68.933594 31.605469 69.179688 31.550781 69.421875 C 31.492188 69.664062 31.320312 69.871094 31.019531 69.964844 C 30.792969 70.035156 30.425781 70.019531 30.308594 70.023438 C 30.125 70.023438 29.5625 70.242188 28.828125 70.539062 C 26.890625 71.3125 23.847656 72.71875 22.449219 73.519531 C 22.289062 73.609375 21.804688 73.945312 21.394531 74.238281 C 21.644531 74.402344 21.910156 74.5625 22.046875 74.621094 C 23.4375 75.164062 25.078125 75.714844 25.972656 77.007812 C 26.304688 77.488281 26.40625 78.050781 26.40625 78.640625 C 26.394531 79.339844 26.199219 80.085938 26.179688 80.722656 C 26.121094 82.433594 26.417969 83.921875 27.40625 85.34375 C 28.175781 86.460938 29.128906 87.519531 30.308594 88.191406 C 30.503906 88.304688 32.15625 89.121094 32.15625 89.121094 C 32.386719 89.238281 32.511719 89.5 32.46875 89.757812 C 32.421875 90.015625 32.203125 90.207031 31.949219 90.226562 C 31.949219 90.226562 29.414062 90.410156 28.65625 90.308594 C 24.753906 89.796875 22.378906 87.265625 20.671875 83.875 C 20.417969 83.382812 20.234375 82.761719 20.039062 82.15625 C 19.867188 81.65625 19.695312 81.160156 19.40625 80.8125 C 19.132812 80.484375 18.730469 80.261719 18.316406 80.046875 C 17.800781 79.777344 17.273438 79.53125 16.859375 79.210938 C 15.585938 78.242188 14.691406 77.015625 13.863281 75.644531 C 13.542969 75.109375 13.246094 74.5625 12.957031 74.011719 C 12.808594 73.746094 11.9375 72.101562 11.9375 72.101562 C 11.789062 71.820312 11.890625 71.46875 12.167969 71.3125 C 12.167969 71.3125 13.050781 70.824219 13.210938 70.742188 C 13.785156 70.453125 15.367188 69.726562 16.550781 69.1875 C 16.5625 69.1875 12.003906 67.761719 12.003906 67.761719 C 11.71875 67.671875 11.546875 67.367188 11.617188 67.070312 C 11.617188 67.070312 12.085938 65.042969 13.050781 63.132812 C 13.726562 61.78125 14.65625 60.503906 15.804688 59.929688 C 16.230469 59.71875 16.800781 59.558594 17.34375 59.378906 C 17.777344 59.238281 18.191406 59.101562 18.445312 58.863281 C 18.535156 58.777344 18.546875 58.625 18.570312 58.480469 C 18.628906 58.191406 18.660156 57.886719 18.71875 57.664062 C 19.007812 56.59375 19.453125 55.515625 20.015625 54.566406 C 22.355469 50.699219 28.234375 47.835938 32.433594 48.078125 C 32.707031 48.09375 32.9375 48.308594 32.972656 48.582031 C 33.007812 48.859375 32.847656 49.125 32.582031 49.214844 C 31.226562 49.675781 30.101562 51.007812 29.140625 52.589844 C 27.601562 55.128906 26.535156 58.335938 25.835938 60.179688 C 25.351562 61.449219 24.882812 62.257812 23.757812 63.050781 C 23.550781 63.195312 23.34375 63.332031 23.125 63.457031 Z M 29.691406 89.175781 C 28.382812 88.414062 27.3125 87.253906 26.464844 86.011719 C 25.328125 84.371094 24.960938 82.65625 25.03125 80.679688 C 25.054688 80.144531 25.191406 79.53125 25.238281 78.933594 C 25.28125 78.484375 25.28125 78.039062 25.03125 77.679688 C 24.261719 76.570312 22.816406 76.171875 21.632812 75.707031 C 21.242188 75.550781 20.0625 74.726562 20.0625 74.726562 C 19.902344 74.617188 19.820312 74.441406 19.820312 74.25 C 19.808594 74.0625 19.902344 73.882812 20.050781 73.773438 C 20.050781 73.773438 21.566406 72.679688 21.886719 72.5 C 23.527344 71.5625 27.347656 69.820312 29.183594 69.152344 C 29.3125 69.109375 29.414062 69.070312 29.527344 69.039062 C 29.117188 68.835938 28.714844 68.636719 28.3125 68.414062 C 26.40625 67.339844 24.742188 66.078125 23.035156 64.722656 C 22.894531 64.613281 21.804688 64.121094 21.554688 63.949219 C 21.382812 63.824219 21.324219 63.683594 21.300781 63.621094 C 21.242188 63.46875 21.210938 63.195312 21.484375 62.960938 C 21.578125 62.882812 22.09375 62.667969 22.148438 62.648438 C 22.484375 62.5 22.804688 62.304688 23.101562 62.09375 C 24.007812 61.453125 24.375 60.789062 24.765625 59.761719 C 25.476562 57.871094 26.578125 54.582031 28.164062 51.980469 C 28.761719 50.980469 29.449219 50.082031 30.195312 49.386719 L 30.195312 49.382812 C 26.707031 49.984375 22.757812 52.265625 20.992188 55.175781 C 20.484375 56.03125 20.085938 57.003906 19.832031 57.972656 C 19.761719 58.226562 19.742188 58.585938 19.660156 58.902344 C 19.578125 59.230469 19.429688 59.515625 19.222656 59.714844 C 18.9375 59.992188 18.5 60.207031 18.019531 60.378906 C 17.445312 60.589844 16.78125 60.746094 16.308594 60.976562 C 15.367188 61.453125 14.632812 62.546875 14.070312 63.660156 C 13.464844 64.871094 13.074219 66.125 12.878906 66.8125 C 12.878906 66.8125 18.363281 68.53125 18.363281 68.53125 C 18.582031 68.601562 18.742188 68.8125 18.765625 69.054688 C 18.777344 69.296875 18.640625 69.523438 18.421875 69.621094 C 18.421875 69.621094 14.65625 71.308594 13.726562 71.785156 C 13.660156 71.820312 13.441406 71.941406 13.222656 72.058594 C 13.484375 72.5625 13.863281 73.285156 13.957031 73.449219 C 14.242188 73.984375 14.53125 74.519531 14.851562 75.039062 C 15.597656 76.28125 16.390625 77.398438 17.546875 78.277344 C 17.914062 78.558594 18.386719 78.773438 18.84375 79.007812 C 19.394531 79.296875 19.914062 79.621094 20.28125 80.0625 C 20.660156 80.511719 20.910156 81.136719 21.117188 81.785156 C 21.300781 82.332031 21.460938 82.894531 21.679688 83.339844 C 23.21875 86.375 25.304688 88.691406 28.792969 89.152344 C 29 89.175781 29.324219 89.183594 29.691406 89.175781 Z M 29.691406 89.175781 " fill-opacity="1" fill-rule="evenodd"/><path fill="#000000" d="M 36.011719 74.445312 C 35.875 74.34375 35.050781 73.726562 34.957031 73.652344 C 33.683594 72.601562 31.25 70.167969 30.089844 68.996094 C 29.976562 68.890625 29.917969 68.746094 29.917969 68.597656 C 29.917969 68.46875 29.953125 68.296875 30.089844 68.132812 C 30.195312 68.015625 30.449219 67.855469 30.503906 67.8125 C 30.90625 67.511719 31.296875 67.214844 31.699219 66.914062 C 33.222656 65.761719 34.726562 64.488281 36.378906 63.503906 C 36.621094 63.351562 36.941406 63.417969 37.113281 63.648438 C 37.574219 64.242188 38.765625 64.828125 39.398438 65.269531 C 41.132812 66.484375 42.933594 67.601562 44.6875 68.777344 C 44.941406 68.839844 45.042969 69.085938 45.054688 69.136719 C 45.101562 69.257812 45.171875 69.523438 44.917969 69.773438 C 44.882812 69.800781 44.65625 69.929688 44.574219 69.988281 C 44.402344 70.101562 44.230469 70.21875 44.058594 70.335938 C 43.460938 70.75 42.839844 71.136719 42.222656 71.515625 C 40.429688 72.613281 38.652344 73.753906 36.78125 74.695312 C 36.597656 74.785156 36.378906 74.773438 36.207031 74.660156 C 36.128906 74.601562 36.058594 74.53125 36.011719 74.445312 Z M 31.355469 68.628906 C 32.59375 69.871094 34.578125 71.835938 35.679688 72.746094 C 35.773438 72.816406 36.3125 73.179688 36.644531 73.457031 C 38.355469 72.570312 39.984375 71.523438 41.636719 70.515625 C 42.234375 70.148438 42.828125 69.777344 43.414062 69.375 L 43.449219 69.347656 C 41.878906 68.3125 40.292969 67.3125 38.746094 66.230469 C 38.171875 65.828125 37.195312 65.289062 36.574219 64.742188 C 35.105469 65.667969 33.765625 66.816406 32.375 67.855469 C 32.03125 68.109375 31.6875 68.367188 31.355469 68.628906 Z M 44.609375 69.921875 Z M 44.609375 69.921875 " fill-opacity="1" fill-rule="evenodd"/><path fill="#000000" d="M 12.050781 67.144531 L 0.359375 69.761719 L 12.050781 71.75 L 16.953125 69.203125 Z M 12.050781 67.144531 " fill-opacity="1" fill-rule="evenodd"/><path fill="#000000" d="M 174.132812 37.601562 C 174 37.714844 174.175781 37.28125 174.21875 37.125 C 174.324219 36.800781 174.425781 36.480469 174.527344 36.160156 C 174.839844 35.292969 175.160156 34.429688 175.558594 33.589844 C 175.675781 33.34375 175.910156 32.699219 176.339844 32.972656 C 177.414062 33.648438 178 35.214844 178.589844 36.179688 C 180.058594 38.574219 181.546875 40.980469 182.882812 43.429688 C 183.355469 44.273438 183.78125 45.132812 184.191406 46 C 184.265625 46.183594 184.574219 46.65625 184.339844 46.84375 C 183.898438 47.214844 182.207031 46 181.855469 45.789062 C 182.105469 45.839844 181.457031 45.5 181.25 45.371094 C 180.824219 45.109375 180.398438 44.796875 179.925781 44.59375 C 179.839844 44.625 180.117188 45.546875 180.132812 45.601562 C 180.367188 46.675781 180.675781 47.734375 180.929688 48.808594 C 182 53.382812 183.046875 57.964844 183.871094 62.578125 C 186.195312 75.609375 189.296875 88.292969 186.679688 101.484375 C 186.914062 101.589844 186.046875 103.796875 185.988281 103.992188 C 185.132812 106.707031 183.957031 109.378906 181.988281 111.667969 C 174.601562 120.246094 162.039062 123.058594 150.699219 125.941406 C 150.730469 126.066406 150.921875 125.78125 151.039062 125.707031 C 151.363281 125.519531 151.671875 125.332031 151.992188 125.15625 C 152.789062 124.71875 153.582031 124.28125 154.375 123.84375 C 156.863281 122.460938 159.332031 121.0625 161.820312 119.675781 C 169.320312 115.492188 177.160156 111.476562 183.015625 105.605469 C 183.03125 105.671875 183.238281 105.039062 183.25 104.984375 C 183.339844 104.496094 183.414062 104.007812 183.488281 103.519531 C 183.707031 101.875 183.796875 100.214844 183.839844 98.5625 C 183.957031 93.617188 183.691406 88.628906 183.207031 83.703125 C 182.132812 72.863281 179.355469 62.089844 176.898438 51.425781 C 176.25 48.640625 175.558594 45.832031 175.175781 43.011719 C 175.089844 42.390625 175.132812 40.914062 174.941406 39.871094 C 174.765625 38.820312 174.351562 38.207031 174.132812 37.601562 Z M 174.132812 37.601562 " fill-opacity="1" fill-rule="evenodd"/><path fill="#000000" d="M 137.773438 49.25 C 137.746094 49.3125 137.769531 49.128906 137.769531 49.070312 C 137.765625 48.941406 137.757812 48.816406 137.75 48.691406 C 137.734375 48.296875 137.722656 47.898438 137.695312 47.507812 C 137.625 46.390625 137.621094 45.246094 137.542969 44.132812 C 137.578125 44.195312 137.765625 44.230469 137.832031 44.265625 C 138.039062 44.367188 138.230469 44.484375 138.429688 44.597656 C 139.097656 44.972656 139.738281 45.375 140.390625 45.769531 C 143.058594 47.371094 145.863281 48.839844 148.4375 50.546875 C 148.84375 50.816406 149.242188 51.089844 149.625 51.382812 C 149.847656 51.550781 150.066406 51.722656 150.265625 51.914062 C 150.375 52.015625 150.476562 52.121094 150.570312 52.234375 C 150.628906 52.308594 150.683594 52.386719 150.730469 52.472656 C 150.761719 52.523438 150.78125 52.578125 150.796875 52.636719 C 150.925781 53.25 149.824219 52.976562 149.558594 52.9375 C 149.445312 52.921875 149.332031 52.90625 149.21875 52.890625 C 149.085938 52.875 148.957031 52.859375 148.828125 52.84375 C 148.648438 52.820312 148.472656 52.796875 148.292969 52.769531 C 148.054688 52.738281 147.816406 52.703125 147.574219 52.671875 C 147.332031 52.636719 147.089844 52.605469 146.851562 52.5625 C 146.765625 52.546875 146.941406 52.691406 146.988281 52.753906 C 147.109375 52.902344 147.230469 53.050781 147.347656 53.199219 C 147.664062 53.589844 147.984375 53.976562 148.316406 54.355469 C 149.292969 55.46875 150.296875 56.554688 151.28125 57.65625 C 154.265625 60.996094 157.132812 64.445312 159.964844 67.90625 C 159.835938 67.953125 160.113281 68.054688 160.183594 68.132812 C 160.359375 68.316406 160.515625 68.515625 160.679688 68.707031 C 161.136719 69.230469 161.589844 69.753906 162.042969 70.285156 C 163.34375 71.808594 164.636719 73.339844 165.902344 74.894531 C 170.792969 80.914062 176.683594 86.878906 179.34375 94.363281 C 179.921875 95.984375 180.730469 97.738281 180.546875 99.625 C 180.523438 99.878906 180.425781 101.25 180.066406 101.441406 C 179.988281 101.480469 179.917969 101.4375 179.875 101.398438 C 179.066406 100.761719 178.714844 99.289062 178.195312 98.449219 C 176.117188 95.089844 173.867188 91.871094 171.394531 88.78125 C 163.050781 78.339844 141.203125 52.824219 139.484375 50.21875 C 139.484375 50.21875 139.046875 49.976562 139.007812 49.957031 C 138.691406 49.785156 138.097656 49.414062 137.773438 49.25 Z M 137.773438 49.25 " fill-opacity="1" fill-rule="evenodd"/><path fill="#000000" d="M 136.554688 36.25 C 136.582031 35.996094 136.917969 35.671875 137.054688 35.441406 C 137.523438 34.648438 138.351562 33.3125 137.699219 32.460938 C 136.992188 31.542969 135.402344 32.175781 134.523438 32.566406 C 133.015625 33.238281 131.65625 34.203125 130.519531 35.210938 C 129.859375 35.796875 129.195312 36.445312 128.925781 37.210938 C 128.53125 38.328125 129.742188 39.230469 130.78125 39.859375 C 131 39.992188 132.15625 40.441406 132.15625 40.679688 C 132.15625 40.960938 131.695312 41.3125 131.5 41.519531 C 130.960938 42.078125 130.433594 42.640625 129.96875 43.238281 C 129.902344 43.324219 129.335938 43.984375 129.5625 44.070312 C 129.769531 44.152344 130.273438 43.84375 130.425781 43.769531 C 131.382812 43.3125 132.292969 42.800781 133.207031 42.289062 C 134.914062 41.339844 136.597656 40.367188 138.375 39.492188 C 139.167969 39.101562 139.972656 38.71875 140.777344 38.34375 C 141.058594 38.214844 141.59375 38.046875 141.699219 37.777344 C 141.839844 37.398438 141.621094 36.847656 141.515625 36.472656 C 141.265625 35.597656 139.511719 36.65625 139.035156 36.890625 C 138.132812 37.332031 137.058594 38.050781 135.980469 38.207031 C 134.535156 38.414062 132.175781 37.277344 131.992188 36.132812 C 132.046875 36.179688 132.042969 36.011719 132.085938 35.957031 C 132.164062 35.859375 132.261719 35.769531 132.359375 35.683594 C 132.699219 35.394531 133.089844 35.097656 133.570312 34.964844 C 134.597656 34.683594 136 35.6875 136.554688 36.25 Z M 136.554688 36.25 " fill-opacity="1" fill-rule="evenodd"/><path fill="#000000" d="M 135.660156 106.183594 C 135.789062 105.84375 135.441406 105.210938 135.324219 104.921875 C 134.757812 103.527344 133.066406 102.339844 131.949219 101.34375 C 128.671875 98.421875 124.925781 96.921875 125.183594 91.765625 C 125.191406 91.761719 125.351562 91.21875 125.367188 91.183594 C 125.597656 90.675781 125.886719 90.175781 126.226562 89.734375 C 127.207031 88.445312 128.5 87.699219 130.109375 87.527344 C 130.816406 87.453125 132.328125 87.207031 132.945312 87.183594 C 135.992188 87.082031 139.035156 87.328125 142.050781 87.75 C 149.070312 88.730469 156.007812 90.453125 162.855469 92.253906 C 164.542969 92.699219 166.21875 93.160156 167.898438 93.632812 C 168.21875 93.722656 169.265625 93.84375 169.484375 94.148438 C 169.753906 94.523438 169.695312 95.3125 169.71875 95.742188 C 169.78125 96.902344 169.777344 98.066406 169.839844 99.222656 C 169.472656 99.101562 168.488281 99.589844 168.140625 99.6875 C 166.539062 100.144531 164.933594 100.59375 163.335938 101.066406 C 157.382812 102.824219 151.433594 104.589844 145.484375 106.355469 C 144.261719 106.71875 143.042969 107.101562 141.820312 107.449219 C 141.578125 107.519531 140.800781 107.605469 140.628906 107.828125 C 140.304688 108.246094 140.972656 109.449219 140.664062 109.710938 C 140.484375 109.863281 139.445312 109.082031 139.277344 108.976562 C 138.925781 109.183594 138.066406 109.144531 137.664062 109.230469 C 136.359375 109.496094 135.078125 109.878906 133.816406 110.292969 C 129.59375 111.679688 125.550781 113.527344 121.84375 115.996094 C 116.617188 119.476562 112.328125 124.1875 107.851562 128.546875 C 104.417969 131.894531 101.054688 135.210938 95.90625 134.15625 C 94.746094 133.917969 93.554688 133.535156 92.53125 132.929688 C 87.378906 129.898438 87.796875 122.0625 89.164062 117.171875 C 89.496094 115.988281 89.929688 114.832031 90.429688 113.710938 C 91.386719 111.566406 92.664062 109.4375 94.300781 107.742188 C 94.761719 107.265625 95.609375 106.363281 96.378906 106.402344 C 96.824219 106.425781 95.886719 108.011719 95.8125 108.15625 C 94.859375 110 93.917969 111.871094 93.207031 113.820312 C 91.566406 118.300781 89.855469 127.242188 96.09375 129.136719 C 97.828125 129.664062 99.710938 128.992188 101.195312 128.078125 C 104.054688 126.316406 106.429688 123.820312 108.796875 121.472656 C 115.78125 114.554688 125.015625 106.636719 135.660156 106.183594 Z M 129.460938 92.605469 C 129.476562 91.832031 130.347656 91.792969 130.566406 91.757812 C 131.378906 91.625 132.207031 91.589844 133.027344 91.566406 C 136.808594 91.472656 140.578125 92.082031 144.277344 92.800781 C 146.507812 93.238281 148.722656 93.746094 150.933594 94.277344 C 152.90625 94.753906 154.886719 95.214844 156.84375 95.761719 C 157.121094 95.839844 158.597656 96.039062 158.695312 96.410156 C 158.921875 97.246094 157.285156 97.746094 156.773438 97.953125 C 154.394531 98.917969 151.84375 99.527344 149.386719 100.261719 C 148.15625 100.632812 146.921875 100.972656 145.695312 101.347656 C 144.792969 101.625 143.898438 101.914062 143.003906 102.207031 C 142.144531 102.484375 141.28125 102.753906 140.421875 103.027344 C 140.101562 103.128906 139.609375 103.367188 139.257812 103.320312 C 138.800781 103.257812 138.117188 102.121094 137.832031 101.820312 C 137.152344 101.101562 134.941406 99.109375 132.855469 97.175781 C 131.148438 95.597656 129.4375 94.171875 129.460938 92.605469 Z M 129.460938 92.605469 " fill-opacity="1" fill-rule="evenodd"/><path fill="#000000" d="M 106.242188 76.339844 C 106.398438 76.203125 106.171875 76.753906 106.125 76.957031 C 106.039062 77.359375 105.9375 77.742188 105.835938 78.132812 C 105.574219 79.164062 104.605469 81.261719 104.839844 82.296875 C 104.964844 82.84375 106.960938 83.867188 107.394531 84.246094 C 109.828125 86.46875 109.117188 88.835938 106.664062 90.53125 C 105.941406 91.035156 105.160156 91.425781 104.367188 91.808594 C 96.160156 95.691406 88.289062 96.847656 79.363281 97.554688 C 74.664062 97.921875 68.234375 98.125 63.617188 96.878906 C 55.996094 94.828125 49.589844 86.558594 54.289062 78.90625 C 53.75 78.929688 53.148438 79.761719 52.871094 80.128906 C 51.746094 81.667969 50.996094 83.496094 50.488281 85.3125 C 48.613281 92.054688 51.464844 97.652344 57.574219 100.636719 C 67.441406 105.472656 79.066406 103.542969 89.25 101.175781 C 92.902344 100.324219 96.582031 99.460938 100.164062 98.328125 C 103.902344 97.148438 109.324219 95.386719 110.859375 91.238281 C 111.449219 89.644531 111.476562 87.792969 111.335938 86.109375 C 111.214844 84.707031 110.910156 83.316406 110.382812 82.003906 C 109.6875 80.277344 107.441406 77.75 106.242188 76.339844 Z M 106.242188 76.339844 " fill-opacity="1" fill-rule="evenodd"/><path fill="#000000" d="M 187.402344 20.46875 C 187.34375 20.515625 187.464844 20.347656 187.496094 20.289062 C 187.5625 20.160156 187.625 20.03125 187.691406 19.90625 C 187.890625 19.507812 188.09375 19.109375 188.289062 18.710938 C 188.835938 17.570312 189.460938 16.445312 190 15.304688 C 190 15.386719 190.144531 15.535156 190.1875 15.609375 C 190.3125 15.832031 190.421875 16.066406 190.535156 16.292969 C 190.925781 17.066406 191.277344 17.851562 191.644531 18.628906 C 193.148438 21.816406 194.847656 24.953125 196.207031 28.1875 C 196.421875 28.695312 196.628906 29.207031 196.808594 29.722656 C 196.914062 30.023438 197.019531 30.324219 197.09375 30.632812 C 197.132812 30.796875 197.167969 30.964844 197.1875 31.128906 C 197.199219 31.242188 197.207031 31.351562 197.203125 31.460938 C 197.199219 31.53125 197.1875 31.597656 197.167969 31.660156 C 196.949219 32.34375 196.117188 31.410156 195.898438 31.214844 C 195.808594 31.128906 195.714844 31.042969 195.621094 30.960938 C 195.511719 30.867188 195.40625 30.769531 195.300781 30.675781 C 195.152344 30.546875 195.007812 30.414062 194.859375 30.28125 C 194.664062 30.105469 194.46875 29.929688 194.277344 29.75 C 194.078125 29.570312 193.878906 29.394531 193.691406 29.207031 C 193.621094 29.136719 193.699219 29.386719 193.707031 29.476562 C 193.730469 29.695312 193.757812 29.914062 193.785156 30.132812 C 193.851562 30.707031 193.925781 31.28125 194.015625 31.855469 C 194.273438 33.535156 194.578125 35.210938 194.851562 36.886719 C 195.6875 41.972656 196.355469 47.089844 196.984375 52.199219 C 196.847656 52.167969 197.035156 52.433594 197.058594 52.554688 C 197.113281 52.839844 197.140625 53.128906 197.1875 53.417969 C 197.304688 54.207031 197.421875 55 197.535156 55.789062 C 197.863281 58.074219 198.179688 60.359375 198.457031 62.652344 C 199.519531 71.519531 201.511719 80.9375 199.785156 89.894531 C 199.414062 91.835938 199.175781 94.046875 197.980469 95.789062 C 197.816406 96.027344 196.980469 97.3125 196.554688 97.28125 C 196.464844 97.273438 196.425781 97.191406 196.40625 97.125 C 196.035156 96.007812 196.527344 94.355469 196.523438 93.210938 C 196.511719 88.660156 196.261719 84.140625 195.753906 79.609375 C 194.023438 64.3125 188.503906 26.050781 188.398438 22.453125 C 188.398438 22.453125 188.140625 21.953125 188.117188 21.910156 C 187.929688 21.546875 187.601562 20.824219 187.402344 20.46875 Z M 187.402344 20.46875 " fill-opacity="1" fill-rule="evenodd"/><path fill="#000000" d="M 107.65625 27.988281 C 107.609375 28.027344 107.714844 27.890625 107.742188 27.839844 C 107.796875 27.734375 107.851562 27.628906 107.910156 27.527344 C 108.085938 27.199219 108.261719 26.875 108.429688 26.542969 C 108.90625 25.605469 109.449219 24.683594 109.917969 23.746094 C 109.917969 23.8125 110.046875 23.9375 110.082031 23.996094 C 110.191406 24.179688 110.285156 24.371094 110.382812 24.558594 C 110.722656 25.191406 111.023438 25.832031 111.34375 26.472656 C 112.644531 29.085938 114.113281 31.65625 115.289062 34.308594 C 115.472656 34.722656 115.652344 35.144531 115.808594 35.566406 C 115.902344 35.8125 115.988281 36.0625 116.054688 36.3125 C 116.085938 36.449219 116.117188 36.585938 116.132812 36.722656 C 116.144531 36.8125 116.152344 36.902344 116.148438 36.992188 C 116.144531 37.050781 116.136719 37.105469 116.117188 37.15625 C 115.925781 37.71875 115.203125 36.953125 115.015625 36.792969 C 114.9375 36.722656 114.855469 36.652344 114.773438 36.585938 C 114.683594 36.507812 114.589844 36.429688 114.496094 36.351562 C 114.371094 36.246094 114.242188 36.136719 114.117188 36.03125 C 113.945312 35.886719 113.777344 35.738281 113.609375 35.59375 C 113.4375 35.449219 113.265625 35.300781 113.101562 35.148438 C 113.042969 35.09375 113.109375 35.296875 113.117188 35.371094 C 113.136719 35.550781 113.160156 35.730469 113.183594 35.910156 C 113.238281 36.382812 113.304688 36.851562 113.378906 37.320312 C 113.601562 38.699219 113.863281 40.074219 114.101562 41.449219 C 114.816406 45.621094 115.390625 49.820312 115.929688 54.011719 C 115.808594 53.988281 115.972656 54.207031 115.992188 54.304688 C 116.039062 54.539062 116.0625 54.777344 116.101562 55.011719 C 116.203125 55.660156 116.304688 56.308594 116.402344 56.957031 C 116.683594 58.832031 116.953125 60.707031 117.1875 62.585938 C 118.101562 69.863281 119.816406 77.589844 118.304688 84.945312 C 117.976562 86.539062 117.769531 88.355469 116.726562 89.785156 C 116.585938 89.980469 115.859375 91.039062 115.488281 91.011719 C 115.40625 91.007812 115.375 90.9375 115.359375 90.886719 C 115.039062 89.96875 115.46875 88.609375 115.464844 87.671875 C 115.460938 83.933594 115.253906 80.226562 114.816406 76.511719 C 113.339844 63.957031 108.605469 32.570312 108.519531 29.617188 C 108.519531 29.617188 108.296875 29.207031 108.277344 29.167969 C 108.113281 28.875 107.832031 28.28125 107.65625 27.988281 Z M 107.65625 27.988281 " fill-opacity="1" fill-rule="evenodd"/><path fill="#000000" d="M 281.253906 76.378906 C 281.277344 76.363281 281.289062 76.34375 281.265625 76.316406 C 281.253906 76.335938 281.253906 76.359375 281.253906 76.378906 C 281.179688 76.425781 280.9375 76.425781 280.839844 76.476562 C 280.519531 76.636719 280.214844 76.804688 279.90625 76.976562 C 278.964844 77.496094 278.109375 78.101562 277.265625 78.753906 C 274.917969 80.554688 272.246094 83.453125 269.023438 83.410156 C 269.066406 83.238281 268.671875 82.773438 268.59375 82.65625 C 268.101562 81.859375 267.574219 81.085938 267.070312 80.296875 C 265.066406 77.109375 261.722656 72.585938 257.492188 75.371094 C 254.148438 77.578125 251.386719 81.875 250.78125 85.824219 C 250.289062 89.027344 251.726562 92.09375 255.003906 93.050781 C 258.761719 94.144531 263.605469 91.914062 266.808594 90.035156 C 266.828125 90.019531 267.050781 90.417969 267.070312 90.46875 C 267.222656 90.75 267.355469 91.039062 267.5 91.328125 C 267.894531 92.179688 268.289062 93.125 268.242188 94.085938 C 268.222656 94.097656 267.96875 94.332031 267.914062 94.386719 C 267.730469 94.578125 267.53125 94.761719 267.335938 94.945312 C 266.664062 95.558594 265.996094 96.164062 265.351562 96.789062 C 263.519531 98.546875 261.601562 100.1875 259.640625 101.796875 C 254.050781 106.398438 246.695312 112.855469 238.957031 112.769531 C 230.691406 112.683594 224.945312 105.765625 225.757812 97.683594 C 225.988281 95.445312 226.425781 93.238281 227.007812 91.066406 C 227.105469 90.664062 227.710938 89.152344 227.425781 88.761719 C 227.171875 88.40625 226.1875 89.960938 226.109375 90.074219 C 225.113281 91.714844 224.507812 93.496094 224.125 95.371094 C 223.136719 100.125 223.269531 105.519531 225.308594 110 C 228.902344 117.890625 238.527344 120.71875 246.277344 117.636719 C 250.289062 116.042969 253.820312 113.320312 257.183594 110.667969 C 260.328125 108.183594 263.5625 105.605469 265.964844 102.351562 C 267.269531 100.589844 269.175781 98.332031 269.722656 96.15625 C 270.347656 93.714844 270.183594 91.09375 269.84375 88.710938 C 269.832031 88.65625 270.316406 88.46875 270.371094 88.445312 C 270.886719 88.1875 271.410156 87.933594 271.925781 87.675781 C 273.921875 86.683594 276.003906 85.730469 277.691406 84.257812 C 277.8125 84.152344 277.714844 84.582031 277.746094 84.742188 C 277.800781 85.019531 277.902344 85.285156 278 85.550781 C 278.296875 86.328125 278.613281 87.089844 278.976562 87.835938 C 280.105469 90.148438 282.140625 91.964844 284.640625 92.628906 C 285.726562 92.917969 286.886719 93.109375 288.019531 93.015625 C 292.710938 92.617188 295.417969 87.886719 296.796875 83.878906 C 296.796875 83.875 296.808594 83.871094 296.808594 83.871094 L 296.796875 83.878906 C 296.808594 83.980469 297.289062 85.09375 297.355469 85.210938 C 297.871094 86.109375 298.496094 86.972656 299.207031 87.726562 C 301.421875 90.085938 305.074219 90.746094 308.023438 89.460938 C 309.984375 88.601562 311.089844 86.992188 311.945312 85.09375 C 313.699219 81.207031 312.867188 75.308594 311.417969 71.351562 C 311.464844 71.15625 311.191406 71.683594 311.058594 71.839844 C 310.761719 72.195312 310.433594 72.535156 310.136719 72.886719 C 309.238281 73.933594 308.175781 74.949219 307.417969 76.109375 C 307.351562 76.203125 308.679688 77.792969 308.789062 78.042969 C 309.796875 80.253906 308.054688 82.5 305.765625 82.625 C 302.386719 82.808594 300.480469 79.878906 300.097656 76.875 C 299.964844 75.84375 299.988281 74.789062 299.800781 73.761719 C 299.746094 73.429688 299.582031 72.875 299.152344 72.886719 C 298.683594 72.902344 298.386719 73.570312 298.222656 73.933594 C 297.695312 75.132812 297.640625 76.46875 297.324219 77.722656 C 296.996094 78.992188 296.28125 80.089844 295.582031 81.183594 C 294.289062 83.226562 292.730469 85.773438 290.332031 86.628906 C 287.457031 87.648438 283.753906 85.839844 282.296875 83.28125 C 281.242188 81.421875 280.9375 78.507812 281.253906 76.378906 Z M 268.242188 94.085938 Z M 255.015625 84.953125 C 255.113281 83.683594 255.8125 82.421875 256.691406 81.511719 C 257.117188 81.070312 257.65625 80.59375 258.324219 80.710938 C 259.628906 80.941406 260.933594 82.011719 261.789062 82.96875 C 261.964844 83.167969 262.554688 83.71875 262.46875 84.039062 C 262.367188 84.355469 261.898438 84.539062 261.632812 84.65625 C 260.8125 85.015625 259.902344 85.230469 259.023438 85.359375 C 258.082031 85.496094 255.519531 85.542969 255.015625 84.953125 Z M 255.015625 84.953125 " fill-opacity="1" fill-rule="evenodd"/><path fill="#000000" d="M 232.804688 77.425781 C 232.734375 77.5 232.707031 77.761719 232.675781 77.867188 C 232.5625 78.246094 232.460938 78.625 232.359375 79.007812 C 232.007812 80.324219 231.644531 81.636719 231.289062 82.953125 C 231.179688 83.367188 231.066406 83.78125 230.949219 84.195312 C 230.917969 84.3125 230.796875 84.570312 230.835938 84.695312 C 230.875 84.816406 231.183594 84.941406 231.28125 85.003906 C 231.601562 85.21875 231.910156 85.46875 232.171875 85.746094 C 232.167969 85.714844 232.261719 85.898438 232.269531 85.914062 C 232.324219 86.054688 232.390625 86.191406 232.449219 86.332031 C 232.625 86.746094 232.769531 87.175781 232.933594 87.597656 C 233.421875 88.871094 233.914062 90.136719 234.449219 91.390625 C 235.425781 93.699219 236.566406 95.957031 237.761719 98.167969 C 238.261719 99.097656 238.75 100.027344 239.222656 100.972656 C 239.433594 101.402344 239.714844 101.835938 239.859375 102.292969 C 240.074219 102.988281 238.34375 103.96875 237.847656 104.476562 C 235.945312 106.441406 233.882812 108.238281 231.722656 109.925781 C 223.277344 116.527344 211.78125 123.074219 200.773438 118.523438 C 200.886719 118.625 200.503906 118.375 200.375 118.289062 C 200.109375 118.109375 199.855469 117.914062 199.609375 117.707031 C 198.828125 117.054688 198.128906 116.347656 197.535156 115.519531 C 195.769531 113.0625 195.019531 110.171875 194.898438 107.199219 C 194.722656 102.949219 195.46875 98.820312 196.8125 94.792969 C 196.957031 94.359375 197.101562 93.925781 197.253906 93.496094 C 197.378906 93.128906 197.511719 92.761719 197.640625 92.394531 C 197.722656 92.148438 197.804688 91.902344 197.882812 91.65625 C 197.949219 91.457031 198.007812 91.257812 198.070312 91.058594 C 198.121094 90.890625 198.171875 90.722656 198.21875 90.554688 C 198.3125 90.207031 199.019531 88.257812 198.070312 88.496094 C 198.136719 88.65625 197.828125 88.75 197.738281 88.898438 C 197.425781 89.421875 197.148438 89.964844 196.886719 90.511719 C 195.878906 92.640625 195.011719 94.8125 194.292969 97.050781 C 192.183594 103.621094 190.085938 111.777344 193.203125 118.332031 C 193.300781 118.304688 193.273438 118.515625 193.308594 118.605469 C 193.386719 118.804688 193.472656 118.996094 193.558594 119.191406 C 193.816406 119.78125 194.121094 120.347656 194.453125 120.902344 C 195.390625 122.480469 196.789062 123.8125 198.238281 124.9375 C 202.132812 127.96875 207.410156 127.953125 212.113281 127.359375 C 212.113281 127.339844 212.488281 127.253906 212.503906 127.25 C 212.953125 127.132812 213.40625 127.027344 213.851562 126.898438 C 214.992188 126.570312 216.128906 126.1875 217.203125 125.6875 C 220.546875 124.136719 223.941406 122.527344 226.808594 120.230469 C 226.808594 120.234375 230.605469 117.328125 231.683594 116.496094 C 234.949219 113.96875 238.238281 110.9375 240.257812 107.316406 C 240.328125 107.1875 240.570312 106.632812 240.621094 106.515625 C 240.964844 105.683594 241.25 104.824219 241.472656 103.953125 C 242.007812 101.835938 242.25 99.441406 241.804688 97.28125 C 241.519531 95.898438 240.953125 94.617188 240.402344 93.324219 C 240.5 93.363281 240.328125 93.128906 240.285156 93.03125 C 240.214844 92.855469 240.136719 92.683594 240.0625 92.511719 C 239.796875 91.925781 239.535156 91.335938 239.265625 90.75 C 238.503906 89.085938 237.304688 87.433594 236.863281 85.648438 C 236.75 85.191406 237.222656 85.507812 237.421875 85.628906 C 237.925781 85.921875 238.414062 86.261719 238.949219 86.5 C 239.125 86.578125 239.441406 86.703125 239.5 86.429688 C 239.65625 85.738281 238.902344 84.75 238.558594 84.222656 C 237.453125 82.507812 235.003906 79.761719 232.804688 77.425781 Z M 232.804688 77.425781 " fill-opacity="1" fill-rule="evenodd"/><path fill="#000000" d="M 211.957031 58.679688 C 211.96875 58.402344 212.484375 58.867188 212.757812 58.949219 C 213.4375 59.152344 214.140625 59.332031 214.839844 59.476562 C 214.894531 59.488281 215.488281 59.644531 215.488281 59.539062 C 215.464844 58.949219 213.964844 57.953125 213.582031 57.605469 C 211.78125 55.941406 209.984375 54.28125 208.109375 52.707031 C 207.761719 52.414062 206.390625 50.96875 205.851562 51.160156 C 205.480469 51.292969 205.261719 51.910156 205.109375 52.226562 C 204.65625 53.195312 204.242188 54.175781 203.8125 55.152344 C 203.695312 55.425781 203.289062 56.054688 203.429688 56.378906 C 203.582031 56.710938 204.042969 56.621094 204.320312 56.785156 C 204.691406 57.011719 204.941406 57.542969 205.164062 57.894531 C 207.476562 61.457031 210.238281 64.625 212.867188 67.949219 C 212.855469 67.953125 213.097656 68.195312 213.121094 68.222656 C 213.109375 68.210938 212.277344 69.21875 212.222656 69.285156 C 211.125 70.59375 210.140625 71.984375 209.195312 73.390625 C 206.542969 77.289062 205.675781 82.730469 206.90625 87.277344 C 207.597656 89.847656 209.625 92.425781 212.515625 92.214844 C 214.742188 92.050781 216.902344 90.304688 218.457031 88.847656 C 222.261719 85.296875 226.753906 79.988281 224.609375 74.429688 C 223.761719 72.269531 222.371094 70.320312 220.859375 68.589844 C 220.398438 68.074219 219.050781 67.121094 219.238281 66.335938 C 219.566406 65.003906 220.847656 63.730469 221.625 62.664062 C 223.644531 59.914062 226.527344 56.761719 227.402344 53.375 C 227.710938 52.160156 228.09375 49.660156 227.359375 48.507812 C 227.25 48.34375 226.898438 48.839844 226.855469 48.902344 C 226.382812 49.488281 226.019531 50.171875 225.625 50.804688 C 224.640625 52.394531 223.621094 53.957031 222.558594 55.5 C 221.714844 56.734375 220.835938 57.941406 219.972656 59.164062 C 219.125 60.355469 218.28125 61.535156 217.429688 62.707031 C 217.261719 62.929688 216.859375 63.699219 216.519531 63.714844 C 215.675781 63.75 212.496094 59.253906 211.957031 58.679688 Z M 215.585938 71.015625 C 215.730469 70.855469 214.742188 71.867188 214.621094 72.035156 C 214.402344 72.34375 214.171875 72.652344 213.953125 72.960938 C 213.296875 73.871094 212.671875 74.792969 212.058594 75.726562 C 210.335938 78.324219 207.386719 84.101562 211.957031 85.609375 C 214.960938 86.601562 217.878906 83.382812 219.597656 81.367188 C 220.3125 80.546875 221.351562 79.449219 221.351562 78.285156 C 221.363281 77.613281 220.925781 76.953125 220.574219 76.414062 C 219.566406 74.875 217.011719 72.171875 215.585938 71.015625 Z M 215.585938 71.015625 " fill-opacity="1" fill-rule="evenodd"/><path fill="#000000" d="M 242.980469 36.355469 C 243.003906 36.390625 242.90625 36.535156 242.890625 36.570312 C 242.773438 36.796875 242.648438 37.027344 242.519531 37.25 C 242.488281 37.304688 242.40625 37.476562 242.3125 37.46875 C 242.167969 37.460938 241.941406 37.25 241.835938 37.183594 C 241.453125 36.914062 241.058594 36.660156 240.679688 36.390625 C 240.261719 36.085938 239.839844 35.78125 239.40625 35.492188 C 239.15625 35.324219 238.820312 35.175781 238.636719 34.945312 C 238.4375 34.703125 238.445312 34.355469 238.421875 34.070312 C 238.359375 33.386719 238.34375 32.679688 238.5625 32.011719 C 238.769531 31.394531 239.152344 30.570312 240.007812 30.445312 C 240.90625 30.316406 241.84375 30.972656 242.535156 31.367188 C 243.933594 32.160156 244.816406 33.253906 245.601562 34.492188 C 246.300781 35.597656 246.855469 36.746094 247.207031 37.964844 C 247.417969 38.707031 247.546875 39.476562 247.800781 40.207031 C 247.910156 40.515625 248.054688 40.914062 248.402344 41.097656 C 248.398438 41.144531 248.429688 41.003906 248.441406 40.953125 C 248.457031 40.855469 248.472656 40.761719 248.488281 40.660156 C 248.539062 40.382812 248.574219 40.097656 248.617188 39.816406 C 248.742188 38.945312 248.894531 38.078125 249.121094 37.21875 C 249.726562 34.941406 250.597656 32.496094 252.148438 30.539062 C 252.84375 29.664062 253.910156 28.703125 255.300781 29.15625 C 256.261719 29.472656 256.921875 30.398438 257.375 31.132812 C 257.523438 31.375 257.785156 31.738281 257.773438 32.019531 C 257.746094 32.578125 257.265625 33.214844 257.015625 33.714844 C 256.84375 34.066406 256.679688 34.421875 256.472656 34.761719 C 256.402344 34.875 256.308594 35.070312 256.160156 35.132812 C 255.886719 35.246094 255.550781 34.554688 255.476562 34.4375 C 255.070312 33.800781 254.457031 32.800781 253.445312 32.847656 C 252.382812 32.898438 251.914062 34.035156 251.585938 34.722656 C 250.617188 36.769531 250.082031 38.871094 249.535156 41.011719 C 249.519531 41.015625 249.4375 41.328125 249.429688 41.351562 C 249.292969 41.734375 249.15625 42.121094 249.03125 42.507812 C 248.671875 43.644531 248.4375 44.847656 247.914062 45.941406 C 247.835938 46.109375 247.488281 46.933594 247.105469 46.738281 C 246.914062 46.636719 246.878906 46.335938 246.851562 46.175781 C 246.761719 45.691406 246.660156 45.210938 246.539062 44.734375 C 246.398438 44.171875 246.257812 43.617188 246.125 43.054688 C 245.929688 42.203125 245.707031 41.347656 245.390625 40.519531 C 244.960938 39.40625 243.933594 36.871094 242.980469 36.355469 Z M 242.980469 36.355469 " fill-opacity="1" fill-rule="evenodd"/><path fill="#000000" d="M 155.191406 46.964844 C 155.214844 47 155.117188 47.148438 155.101562 47.183594 C 154.984375 47.410156 154.859375 47.640625 154.730469 47.863281 C 154.699219 47.917969 154.617188 48.089844 154.523438 48.082031 C 154.378906 48.070312 154.152344 47.863281 154.046875 47.792969 C 153.664062 47.527344 153.269531 47.273438 152.890625 47 C 152.472656 46.699219 152.050781 46.394531 151.617188 46.105469 C 151.367188 45.9375 151.03125 45.789062 150.847656 45.558594 C 150.648438 45.316406 150.65625 44.964844 150.632812 44.683594 C 150.570312 44 150.554688 43.292969 150.773438 42.625 C 150.980469 42.007812 151.363281 41.183594 152.21875 41.058594 C 153.117188 40.925781 154.054688 41.585938 154.746094 41.980469 C 156.144531 42.773438 157.027344 43.867188 157.8125 45.101562 C 158.511719 46.207031 159.066406 47.355469 159.414062 48.578125 C 159.628906 49.320312 159.757812 50.085938 160.011719 50.820312 C 160.121094 51.128906 160.265625 51.523438 160.613281 51.710938 C 160.609375 51.757812 160.640625 51.613281 160.648438 51.566406 C 160.667969 51.46875 160.683594 51.371094 160.699219 51.273438 C 160.75 50.992188 160.785156 50.710938 160.828125 50.429688 C 160.953125 49.554688 161.105469 48.691406 161.332031 47.832031 C 161.9375 45.550781 162.808594 43.109375 164.359375 41.152344 C 165.054688 40.277344 166.121094 39.316406 167.511719 39.769531 C 168.472656 40.085938 169.132812 41.007812 169.585938 41.742188 C 169.734375 41.984375 169.996094 42.351562 169.980469 42.632812 C 169.953125 43.191406 169.476562 43.824219 169.226562 44.328125 C 169.054688 44.675781 168.890625 45.035156 168.683594 45.375 C 168.613281 45.488281 168.519531 45.683594 168.371094 45.746094 C 168.097656 45.859375 167.761719 45.167969 167.6875 45.046875 C 167.28125 44.414062 166.667969 43.410156 165.65625 43.460938 C 164.59375 43.511719 164.121094 44.648438 163.796875 45.332031 C 162.828125 47.378906 162.292969 49.484375 161.742188 51.625 C 161.726562 51.625 161.648438 51.9375 161.636719 51.960938 C 161.503906 52.347656 161.367188 52.730469 161.242188 53.121094 C 160.882812 54.257812 160.648438 55.457031 160.125 56.554688 C 160.046875 56.722656 159.699219 57.546875 159.316406 57.351562 C 159.125 57.25 159.089844 56.949219 159.0625 56.789062 C 158.972656 56.304688 158.871094 55.824219 158.75 55.34375 C 158.609375 54.785156 158.464844 54.226562 158.335938 53.667969 C 158.136719 52.8125 157.917969 51.960938 157.601562 51.132812 C 157.171875 50.015625 156.144531 47.484375 155.191406 46.964844 Z M 155.191406 46.964844 " fill-opacity="1" fill-rule="evenodd"/><path fill="#000000" d="M 242.980469 64.644531 C 243.003906 64.679688 242.90625 64.824219 242.890625 64.859375 C 242.773438 65.089844 242.648438 65.316406 242.519531 65.539062 C 242.488281 65.59375 242.40625 65.765625 242.3125 65.757812 C 242.167969 65.75 241.941406 65.539062 241.835938 65.472656 C 241.453125 65.207031 241.058594 64.953125 240.679688 64.679688 C 240.261719 64.375 239.839844 64.070312 239.40625 63.78125 C 239.15625 63.617188 238.820312 63.464844 238.636719 63.238281 C 238.4375 62.992188 238.445312 62.644531 238.421875 62.363281 C 238.359375 61.675781 238.34375 60.972656 238.5625 60.304688 C 238.769531 59.683594 239.152344 58.859375 240.007812 58.738281 C 240.90625 58.605469 241.84375 59.261719 242.535156 59.65625 C 243.933594 60.449219 244.816406 61.542969 245.601562 62.78125 C 246.300781 63.886719 246.855469 65.035156 247.207031 66.253906 C 247.417969 66.996094 247.546875 67.765625 247.800781 68.496094 C 247.910156 68.808594 248.054688 69.203125 248.402344 69.386719 C 248.398438 69.433594 248.429688 69.292969 248.441406 69.242188 C 248.457031 69.144531 248.472656 69.050781 248.488281 68.949219 C 248.539062 68.671875 248.574219 68.386719 248.617188 68.105469 C 248.742188 67.234375 248.894531 66.367188 249.121094 65.507812 C 249.726562 63.230469 250.597656 60.785156 252.148438 58.828125 C 252.84375 57.953125 253.910156 56.992188 255.300781 57.445312 C 256.261719 57.761719 256.921875 58.6875 257.375 59.421875 C 257.523438 59.664062 257.785156 60.027344 257.773438 60.308594 C 257.746094 60.867188 257.265625 61.503906 257.015625 62.003906 C 256.84375 62.355469 256.679688 62.710938 256.472656 63.050781 C 256.402344 63.167969 256.308594 63.359375 256.160156 63.421875 C 255.886719 63.539062 255.550781 62.847656 255.476562 62.726562 C 255.070312 62.089844 254.457031 61.089844 253.445312 61.136719 C 252.382812 61.191406 251.914062 62.328125 251.585938 63.011719 C 250.617188 65.058594 250.082031 67.160156 249.535156 69.300781 C 249.519531 69.304688 249.4375 69.617188 249.429688 69.640625 C 249.292969 70.023438 249.15625 70.410156 249.03125 70.796875 C 248.671875 71.9375 248.4375 73.136719 247.914062 74.230469 C 247.835938 74.398438 247.488281 75.226562 247.105469 75.027344 C 246.914062 74.929688 246.878906 74.628906 246.851562 74.464844 C 246.761719 73.980469 246.660156 73.5 246.539062 73.023438 C 246.398438 72.464844 246.257812 71.90625 246.125 71.34375 C 245.929688 70.492188 245.707031 69.636719 245.390625 68.808594 C 244.960938 67.695312 243.933594 65.160156 242.980469 64.644531 Z M 242.980469 64.644531 " fill-opacity="1" fill-rule="evenodd"/><path fill="#000000" d="M 303.5 94.597656 C 303.425781 94.5 303.292969 94.847656 303.265625 94.921875 C 303.210938 95.078125 303.148438 95.234375 303.089844 95.394531 C 302.910156 95.894531 302.714844 96.382812 302.527344 96.882812 C 302.40625 97.203125 302.753906 97.609375 302.847656 97.894531 C 303.136719 98.773438 302.617188 99.351562 301.914062 99.335938 C 301.710938 99.332031 301.523438 99.273438 301.335938 99.195312 C 300.546875 98.871094 299.765625 98.058594 299.839844 96.972656 C 299.878906 96.410156 300.089844 95.933594 300.207031 95.398438 C 300.242188 95.222656 300.253906 94.941406 300.066406 94.890625 C 299.589844 94.753906 299.167969 95.882812 299.003906 96.238281 C 298.347656 97.65625 297.792969 99.375 296.5 100.140625 C 295.300781 100.855469 294.160156 99.890625 293 99.523438 C 291.75 99.136719 290.5 99.316406 289.304688 99.871094 C 289.304688 99.996094 289.113281 99.96875 289.019531 100.023438 C 288.71875 100.207031 288.425781 100.410156 288.136719 100.621094 C 286.855469 101.535156 285.625 102.570312 284.433594 103.648438 C 279.269531 108.316406 273.878906 112.546875 268.242188 116.355469 C 266.53125 117.511719 264.832031 118.707031 263.082031 119.78125 C 262.371094 120.21875 261.644531 120.621094 260.941406 121.078125 C 260.863281 121.125 260.292969 121.449219 260.453125 121.644531 C 260.644531 121.867188 261.171875 121.738281 261.398438 121.714844 C 262.261719 121.613281 263.136719 121.355469 263.980469 121.117188 C 266.050781 120.523438 268.257812 119.878906 270.164062 118.699219 C 271.378906 117.945312 272.5 116.933594 273.605469 115.972656 C 276.953125 113.046875 280.28125 110.078125 283.644531 107.175781 C 285.621094 105.472656 287.769531 103.398438 290.113281 102.46875 C 292.199219 101.640625 293.871094 104.28125 295.957031 103.375 C 296.863281 102.976562 297.527344 101.960938 297.972656 100.972656 C 298.046875 100.808594 298.480469 99.457031 298.640625 99.410156 C 298.664062 99.40625 298.746094 100.003906 298.75 100.039062 C 298.8125 100.480469 298.878906 100.964844 299.109375 101.328125 C 299.6875 102.238281 300.742188 102.402344 301.621094 102.191406 C 304.351562 101.542969 304.359375 98.367188 303.910156 95.730469 C 303.847656 95.378906 303.605469 94.730469 303.5 94.597656 Z M 303.5 94.597656 " fill-opacity="1" fill-rule="evenodd"/><path fill="#000000" d="M 230.113281 58.121094 C 230.132812 58.132812 231.523438 57.398438 231.609375 57.355469 C 233.386719 56.507812 235.183594 55.691406 236.992188 54.886719 C 244.402344 51.585938 251.882812 48.34375 259.457031 45.296875 C 261.589844 44.441406 263.738281 43.597656 265.921875 42.832031 C 266.058594 42.785156 267.78125 42.082031 267.875 42.257812 C 268.066406 42.609375 267.269531 43.773438 267.113281 44.097656 C 266.789062 44.796875 266.578125 45.851562 265.972656 46.4375 C 265.566406 46.832031 264.78125 47.003906 264.226562 47.210938 C 262.875 47.714844 261.519531 48.207031 260.179688 48.734375 C 256.050781 50.355469 252.054688 52.191406 248 53.933594 C 244.074219 55.625 240.0625 57.179688 236.171875 58.921875 C 234.234375 59.792969 232.289062 60.664062 230.351562 61.539062 C 230.042969 61.679688 228.753906 62.484375 228.355469 62.320312 C 228.109375 62.214844 228.390625 61.675781 228.441406 61.546875 C 228.71875 60.828125 229.789062 58.828125 230.113281 58.121094 Z M 230.113281 58.121094 " fill-opacity="1" fill-rule="evenodd"/><g clip-path="url(#57594af2e8)"><path fill="#000000" d="M 122.503906 30.796875 C 122.519531 30.808594 123.910156 30.074219 123.996094 30.03125 C 125.773438 29.179688 127.570312 28.367188 129.378906 27.5625 C 136.789062 24.261719 144.269531 21.019531 151.84375 17.972656 C 153.976562 17.117188 156.125 16.273438 158.308594 15.507812 C 158.445312 15.457031 160.167969 14.757812 160.261719 14.933594 C 160.453125 15.285156 159.65625 16.449219 159.503906 16.773438 C 159.175781 17.472656 158.964844 18.523438 158.359375 19.113281 C 157.953125 19.507812 157.167969 19.679688 156.617188 19.886719 C 155.261719 20.390625 153.90625 20.882812 152.570312 21.40625 C 148.4375 23.027344 144.441406 24.867188 140.386719 26.609375 C 136.464844 28.296875 132.449219 29.851562 128.558594 31.597656 C 126.621094 32.46875 124.675781 33.335938 122.742188 34.214844 C 122.433594 34.355469 121.140625 35.160156 120.742188 34.992188 C 120.496094 34.890625 120.777344 34.351562 120.832031 34.222656 C 121.109375 33.5 122.175781 31.503906 122.503906 30.796875 Z M 122.503906 30.796875 " fill-opacity="1" fill-rule="evenodd"/></g><path fill="#000000" d="M 67.894531 77.125 C 67.910156 77.136719 69.300781 76.402344 69.386719 76.359375 C 71.164062 75.511719 72.960938 74.695312 74.769531 73.890625 C 82.179688 70.589844 89.660156 67.347656 97.234375 64.300781 C 99.367188 63.445312 101.515625 62.601562 103.699219 61.835938 C 103.835938 61.785156 105.558594 61.085938 105.652344 61.261719 C 105.84375 61.613281 105.046875 62.777344 104.894531 63.101562 C 104.566406 63.800781 104.355469 64.855469 103.75 65.441406 C 103.34375 65.835938 102.558594 66.007812 102.007812 66.214844 C 100.652344 66.71875 99.296875 67.210938 97.960938 67.738281 C 93.828125 69.355469 89.832031 71.195312 85.777344 72.9375 C 81.851562 74.628906 77.839844 76.179688 73.949219 77.925781 C 72.011719 78.796875 70.066406 79.664062 68.132812 80.542969 C 67.820312 80.683594 66.53125 81.488281 66.132812 81.320312 C 65.886719 81.21875 66.167969 80.679688 66.21875 80.550781 C 66.496094 79.828125 67.566406 77.832031 67.894531 77.125 Z M 67.894531 77.125 " fill-opacity="1" fill-rule="evenodd"/><path fill="#000000" d="M 270.308594 47.71875 C 270.75 47.265625 271.074219 46.449219 271.421875 45.914062 C 272.433594 44.355469 273.441406 42.792969 274.480469 41.253906 C 275.0625 40.386719 275.605469 39.359375 276.441406 38.691406 C 277.625 37.742188 279.402344 37.871094 280.835938 37.964844 C 284.136719 38.183594 287.953125 39.222656 291.09375 39.738281 C 291.144531 39.699219 291.429688 39.832031 291.488281 39.851562 C 291.855469 39.972656 292.214844 40.109375 292.574219 40.246094 C 293.785156 40.714844 296.160156 41.371094 295.734375 43.042969 C 295.464844 44.105469 294.738281 45.054688 294.078125 45.917969 C 293.046875 47.257812 291.941406 48.558594 290.785156 49.800781 C 289.257812 51.445312 287.644531 52.996094 285.96875 54.5 C 284.859375 55.488281 283.714844 56.585938 282.285156 57.125 C 279.890625 58.019531 277.058594 57.917969 274.535156 58.070312 C 273.339844 58.144531 272.144531 58.199219 270.945312 58.246094 C 270.316406 58.269531 269.523438 58.355469 268.910156 58.171875 C 268.304688 57.992188 269.746094 57.1875 269.851562 57.128906 C 271.152344 56.410156 272.5625 55.855469 273.964844 55.355469 C 277.199219 54.199219 280.511719 53.117188 283.585938 51.585938 C 284.320312 51.222656 285.054688 50.855469 285.769531 50.457031 C 285.953125 50.355469 286.371094 50.191406 286.441406 49.972656 C 286.523438 49.703125 285.914062 49.433594 285.738281 49.355469 C 284.890625 48.972656 283.914062 48.78125 283.011719 48.566406 C 279.261719 47.667969 274.144531 47.15625 270.308594 47.71875 Z M 270.308594 47.71875 " fill-opacity="1" fill-rule="evenodd"/><path fill="#000000" d="M 82.160156 49.46875 C 82.597656 49.011719 82.921875 48.195312 83.269531 47.664062 C 84.28125 46.105469 85.289062 44.542969 86.328125 43 C 86.910156 42.136719 87.453125 41.109375 88.289062 40.441406 C 89.472656 39.492188 91.25 39.621094 92.683594 39.714844 C 95.988281 39.933594 99.800781 40.96875 102.941406 41.488281 C 102.992188 41.445312 103.277344 41.578125 103.335938 41.601562 C 103.703125 41.722656 104.0625 41.859375 104.421875 41.996094 C 105.632812 42.460938 108.007812 43.117188 107.585938 44.789062 C 107.3125 45.851562 106.585938 46.804688 105.925781 47.664062 C 104.894531 49.007812 103.789062 50.308594 102.636719 51.550781 C 101.105469 53.195312 99.492188 54.746094 97.816406 56.246094 C 96.707031 57.238281 95.5625 58.335938 94.132812 58.871094 C 91.738281 59.769531 88.90625 59.667969 86.382812 59.820312 C 85.1875 59.890625 83.992188 59.945312 82.796875 59.992188 C 82.164062 60.015625 81.375 60.105469 80.757812 59.921875 C 80.152344 59.742188 81.597656 58.9375 81.699219 58.878906 C 83 58.15625 84.410156 57.605469 85.8125 57.101562 C 89.046875 55.945312 92.363281 54.867188 95.4375 53.335938 C 96.167969 52.96875 96.902344 52.601562 97.617188 52.207031 C 97.800781 52.105469 98.222656 51.941406 98.289062 51.71875 C 98.371094 51.449219 97.761719 51.179688 97.585938 51.101562 C 96.742188 50.71875 95.761719 50.53125 94.859375 50.316406 C 91.109375 49.417969 85.992188 48.90625 82.160156 49.46875 Z M 82.160156 49.46875 " fill-opacity="1" fill-rule="evenodd"/><path fill="#000000" d="M 122.949219 64.566406 C 123.25 64.234375 123.472656 63.636719 123.710938 63.246094 C 124.410156 62.105469 125.101562 60.960938 125.816406 59.835938 C 126.214844 59.203125 126.589844 58.449219 127.164062 57.960938 C 127.976562 57.265625 129.199219 57.359375 130.183594 57.429688 C 132.457031 57.589844 135.078125 58.347656 137.238281 58.726562 C 137.273438 58.695312 137.46875 58.792969 137.507812 58.808594 C 137.761719 58.898438 138.007812 58.996094 138.253906 59.097656 C 139.089844 59.441406 140.722656 59.921875 140.429688 61.144531 C 140.242188 61.921875 139.742188 62.617188 139.289062 63.246094 C 138.582031 64.230469 137.820312 65.179688 137.027344 66.089844 C 135.976562 67.292969 134.867188 68.425781 133.710938 69.527344 C 132.949219 70.25 132.164062 71.054688 131.179688 71.445312 C 129.535156 72.101562 127.589844 72.027344 125.855469 72.140625 C 125.03125 72.191406 124.210938 72.234375 123.386719 72.265625 C 122.953125 72.285156 122.410156 72.347656 121.984375 72.214844 C 121.570312 72.082031 122.5625 71.492188 122.632812 71.453125 C 123.527344 70.925781 124.496094 70.519531 125.460938 70.152344 C 127.683594 69.304688 129.964844 68.515625 132.078125 67.394531 C 132.582031 67.128906 133.085938 66.859375 133.578125 66.570312 C 133.703125 66.496094 133.992188 66.375 134.039062 66.214844 C 134.097656 66.015625 133.675781 65.820312 133.554688 65.761719 C 132.972656 65.480469 132.300781 65.34375 131.679688 65.1875 C 129.101562 64.527344 125.585938 64.15625 122.949219 64.566406 Z M 122.949219 64.566406 " fill-opacity="1" fill-rule="evenodd"/><path fill="#000000" d="M 160.300781 24.667969 C 160.65625 24.316406 160.917969 23.679688 161.199219 23.265625 C 162.019531 22.050781 162.832031 20.832031 163.675781 19.632812 C 164.148438 18.960938 164.585938 18.160156 165.261719 17.636719 C 166.222656 16.898438 167.660156 17 168.820312 17.074219 C 171.496094 17.242188 174.582031 18.050781 177.125 18.453125 C 177.167969 18.421875 177.394531 18.527344 177.445312 18.542969 C 177.742188 18.636719 178.03125 18.742188 178.324219 18.851562 C 179.304688 19.214844 181.226562 19.722656 180.882812 21.027344 C 180.664062 21.855469 180.074219 22.59375 179.539062 23.265625 C 178.707031 24.3125 177.8125 25.324219 176.875 26.292969 C 175.636719 27.570312 174.332031 28.78125 172.976562 29.949219 C 172.078125 30.722656 171.152344 31.574219 169.992188 31.992188 C 168.054688 32.691406 165.761719 32.613281 163.722656 32.730469 C 162.753906 32.789062 161.785156 32.832031 160.816406 32.867188 C 160.304688 32.886719 159.664062 32.953125 159.167969 32.8125 C 158.675781 32.671875 159.84375 32.042969 159.929688 32 C 160.980469 31.4375 162.121094 31.007812 163.257812 30.617188 C 165.875 29.714844 168.558594 28.875 171.046875 27.683594 C 171.640625 27.398438 172.234375 27.109375 172.816406 26.800781 C 172.964844 26.722656 173.304688 26.597656 173.359375 26.425781 C 173.425781 26.214844 172.933594 26.003906 172.789062 25.941406 C 172.105469 25.644531 171.3125 25.496094 170.582031 25.328125 C 167.546875 24.628906 163.402344 24.234375 160.300781 24.667969 Z M 160.300781 24.667969 " fill-opacity="1" fill-rule="evenodd"/><path fill="#000000" d="M 203.933594 35.410156 L 208.417969 29.332031 L 215.664062 34.746094 L 210.882812 40.472656 C 210.882812 40.472656 204.21875 35.128906 203.933594 35.410156 Z M 203.933594 35.410156 " fill-opacity="1" fill-rule="evenodd"/><path fill="#000000" d="M 214.511719 34.074219 L 218.992188 27.996094 L 226.238281 33.410156 L 221.460938 39.136719 C 221.460938 39.136719 214.796875 33.789062 214.511719 34.074219 Z M 214.511719 34.074219 " fill-opacity="1" fill-rule="evenodd"/><path fill="#000000" d="M 134.589844 76.8125 L 139.070312 70.738281 L 146.316406 76.148438 L 141.539062 81.875 C 141.539062 81.875 134.875 76.53125 134.589844 76.8125 Z M 134.589844 76.8125 " fill-opacity="1" fill-rule="evenodd"/><path fill="#000000" d="M 111.398438 98.417969 L 115.40625 93.410156 L 121.882812 97.871094 L 117.609375 102.589844 C 117.609375 102.589844 111.652344 98.183594 111.398438 98.417969 Z M 111.398438 98.417969 " fill-opacity="1" fill-rule="evenodd"/><path fill="#000000" d="M 75.367188 114.230469 L 79.375 109.222656 L 85.851562 113.683594 L 81.578125 118.402344 C 81.578125 118.402344 75.621094 113.996094 75.367188 114.230469 Z M 75.367188 114.230469 " fill-opacity="1" fill-rule="evenodd"/><path fill="#000000" d="M 211.695312 94.628906 C 211.4375 94.460938 211.203125 94.8125 211.160156 94.863281 C 210.886719 95.179688 210.699219 95.546875 210.511719 95.90625 C 209.921875 97.050781 209.386719 98.214844 208.789062 99.355469 C 207.261719 102.269531 205.324219 105.773438 205.515625 109.097656 C 205.601562 110.542969 206.125 112.378906 207.957031 112.679688 C 210.230469 113.046875 211.546875 109.996094 212.136719 108.539062 C 212.339844 108.042969 212.820312 107.050781 212.503906 106.515625 C 212.234375 106.054688 211.546875 107.019531 211.441406 107.164062 C 210.800781 108.0625 209.78125 109.832031 208.59375 108.382812 C 207.640625 107.21875 207.78125 105.621094 208.082031 104.273438 C 208.519531 102.285156 209.570312 100.472656 210.503906 98.652344 C 211.089844 97.507812 212.570312 95.210938 211.695312 94.628906 Z M 211.695312 94.628906 " fill-opacity="1" fill-rule="evenodd"/><path fill="#000000" d="M 282.300781 69.824219 C 282.167969 69.769531 282.675781 69.429688 282.71875 69.410156 C 282.917969 69.304688 283.113281 69.1875 283.304688 69.066406 C 283.871094 68.710938 284.441406 68.359375 284.996094 67.988281 C 286.734375 66.832031 288.460938 65.65625 290.191406 64.488281 C 294.082031 61.859375 304.9375 53.480469 305.195312 52.984375 C 305.007812 52.839844 304.695312 52.742188 304.484375 52.609375 C 303.394531 51.933594 301.742188 50.933594 301.863281 49.582031 C 302.023438 47.746094 303.722656 45.679688 305.636719 45.046875 C 306.488281 44.765625 307.609375 44.632812 308.34375 45.222656 C 308.8125 45.597656 308.941406 46.203125 308.992188 46.738281 C 309.105469 47.925781 308.765625 49.054688 308.265625 50.144531 C 308.121094 50.457031 307.949219 50.761719 307.769531 51.058594 C 307.714844 51.144531 307.539062 51.324219 307.542969 51.429688 C 307.546875 51.566406 307.976562 51.796875 308.074219 51.875 C 308.457031 52.179688 308.996094 52.617188 309.148438 53.078125 C 309.339844 53.667969 308.683594 54.511719 308.371094 54.984375 C 308.289062 55.105469 308.066406 55.535156 307.859375 55.5 C 307.617188 55.457031 307.40625 55.164062 307.25 55.015625 C 306.835938 54.628906 306.378906 54.28125 305.96875 53.894531 C 305.90625 53.835938 305.851562 54.015625 305.792969 54.074219 C 305.671875 54.203125 305.546875 54.328125 305.425781 54.457031 C 305.082031 54.824219 304.726562 55.1875 304.367188 55.546875 C 303.300781 56.625 302.21875 57.6875 301.101562 58.722656 C 297.054688 62.476562 292.230469 65.703125 287.089844 68.128906 C 285.914062 68.683594 284.753906 69.316406 283.511719 69.734375 C 283.292969 69.808594 282.433594 69.878906 282.300781 69.824219 Z M 306.632812 50.652344 C 306.628906 50.644531 306.675781 50.472656 306.679688 50.464844 C 306.714844 50.347656 306.753906 50.234375 306.78125 50.113281 C 306.863281 49.757812 306.917969 49.390625 306.894531 49.027344 C 306.882812 48.824219 306.863281 48.617188 306.828125 48.414062 C 306.703125 47.644531 306.035156 46.5625 305.007812 46.785156 C 304.773438 46.835938 304.558594 46.945312 304.363281 47.078125 C 304.222656 47.175781 304.097656 47.289062 303.984375 47.410156 C 303.835938 47.5625 303.660156 47.757812 303.644531 47.96875 C 303.636719 48.128906 303.757812 48.257812 303.863281 48.371094 C 304.082031 48.613281 304.335938 48.816406 304.570312 49.039062 C 305.074219 49.515625 306.078125 50.222656 306.632812 50.652344 Z M 306.632812 50.652344 " fill-opacity="1" fill-rule="evenodd"/></svg>