<svg xmlns="http://www.w3.org/2000/svg" xmlns:xlink="http://www.w3.org/1999/xlink" width="500" zoomAndPan="magnify" viewBox="0 0 375 157.92" height="200" preserveAspectRatio="xMidYMid meet" version="1.0"><defs><clipPath id="7bb62f504e"><path d="M 140 115 L 182 115 L 182 140.835938 L 140 140.835938 Z M 140 115 " clip-rule="nonzero"/></clipPath><clipPath id="094faf4957"><path d="M 358 71 L 374.902344 71 L 374.902344 77 L 358 77 Z M 358 71 " clip-rule="nonzero"/></clipPath><clipPath id="e6f0b56206"><path d="M 0.09375 66 L 17 66 L 17 72 L 0.09375 72 Z M 0.09375 66 " clip-rule="nonzero"/></clipPath></defs><path fill="#000000" d="M 277.609375 73.28125 C 277.628906 73.265625 277.640625 73.246094 277.621094 73.21875 C 277.609375 73.242188 277.609375 73.261719 277.609375 73.28125 C 277.539062 73.324219 277.3125 73.324219 277.21875 73.371094 C 276.921875 73.519531 276.636719 73.679688 276.347656 73.839844 C 275.464844 74.324219 274.667969 74.890625 273.878906 75.5 C 271.683594 77.183594 269.183594 79.898438 266.167969 79.859375 C 266.207031 79.699219 265.839844 79.261719 265.769531 79.152344 C 265.304688 78.40625 264.8125 77.683594 264.34375 76.945312 C 262.464844 73.960938 259.339844 69.730469 255.382812 72.339844 C 252.253906 74.402344 249.671875 78.417969 249.105469 82.117188 C 248.644531 85.113281 249.988281 87.980469 253.054688 88.875 C 256.570312 89.898438 261.101562 87.808594 264.097656 86.054688 C 264.117188 86.039062 264.320312 86.410156 264.34375 86.457031 C 264.484375 86.722656 264.609375 86.992188 264.742188 87.261719 C 265.113281 88.058594 265.480469 88.945312 265.4375 89.84375 C 265.417969 89.851562 265.183594 90.074219 265.132812 90.125 C 264.957031 90.304688 264.773438 90.472656 264.589844 90.644531 C 263.964844 91.222656 263.335938 91.785156 262.734375 92.371094 C 261.019531 94.015625 259.226562 95.550781 257.390625 97.054688 C 252.164062 101.359375 245.28125 107.398438 238.042969 107.320312 C 230.3125 107.238281 224.941406 100.765625 225.699219 93.207031 C 225.914062 91.113281 226.324219 89.050781 226.867188 87.015625 C 226.960938 86.640625 227.523438 85.226562 227.257812 84.859375 C 227.023438 84.53125 226.101562 85.984375 226.027344 86.089844 C 225.09375 87.625 224.53125 89.289062 224.171875 91.042969 C 223.25 95.492188 223.371094 100.539062 225.28125 104.730469 C 228.644531 112.109375 237.644531 114.753906 244.894531 111.871094 C 248.644531 110.378906 251.945312 107.832031 255.09375 105.351562 C 258.035156 103.03125 261.0625 100.617188 263.308594 97.574219 C 264.527344 95.925781 266.3125 93.8125 266.824219 91.78125 C 267.40625 89.496094 267.253906 87.042969 266.9375 84.816406 C 266.925781 84.765625 267.378906 84.589844 267.429688 84.566406 C 267.910156 84.324219 268.402344 84.089844 268.882812 83.847656 C 270.75 82.921875 272.699219 82.027344 274.277344 80.652344 C 274.390625 80.554688 274.296875 80.953125 274.328125 81.105469 C 274.378906 81.363281 274.472656 81.613281 274.5625 81.859375 C 274.839844 82.585938 275.136719 83.300781 275.476562 83.996094 C 276.53125 86.160156 278.441406 87.859375 280.777344 88.480469 C 281.792969 88.75 282.878906 88.929688 283.933594 88.839844 C 288.324219 88.46875 290.855469 84.042969 292.148438 80.296875 C 292.148438 80.289062 292.15625 80.289062 292.15625 80.289062 L 292.148438 80.296875 C 292.15625 80.390625 292.609375 81.433594 292.671875 81.542969 C 293.152344 82.382812 293.738281 83.1875 294.402344 83.894531 C 296.472656 86.101562 299.886719 86.71875 302.644531 85.515625 C 304.480469 84.714844 305.515625 83.207031 306.316406 81.433594 C 307.957031 77.796875 307.179688 72.28125 305.824219 68.578125 C 305.867188 68.394531 305.609375 68.890625 305.488281 69.035156 C 305.210938 69.367188 304.902344 69.683594 304.625 70.011719 C 303.785156 70.992188 302.789062 71.941406 302.082031 73.03125 C 302.019531 73.117188 303.261719 74.601562 303.363281 74.839844 C 304.308594 76.902344 302.675781 79.003906 300.535156 79.121094 C 297.375 79.296875 295.59375 76.554688 295.234375 73.746094 C 295.109375 72.777344 295.132812 71.792969 294.957031 70.832031 C 294.90625 70.523438 294.75 70.003906 294.351562 70.015625 C 293.910156 70.027344 293.632812 70.652344 293.480469 70.992188 C 292.988281 72.113281 292.9375 73.363281 292.640625 74.539062 C 292.332031 75.726562 291.664062 76.75 291.007812 77.777344 C 289.800781 79.683594 288.34375 82.066406 286.097656 82.867188 C 283.414062 83.824219 279.945312 82.128906 278.582031 79.738281 C 277.597656 77.996094 277.3125 75.273438 277.609375 73.28125 Z M 265.4375 89.84375 Z M 253.066406 81.300781 C 253.15625 80.113281 253.8125 78.933594 254.632812 78.082031 C 255.03125 77.667969 255.535156 77.222656 256.160156 77.332031 C 257.378906 77.546875 258.601562 78.550781 259.402344 79.445312 C 259.566406 79.632812 260.117188 80.148438 260.035156 80.445312 C 259.945312 80.742188 259.503906 80.914062 259.257812 81.023438 C 258.488281 81.359375 257.636719 81.5625 256.816406 81.679688 C 255.933594 81.808594 253.535156 81.851562 253.066406 81.300781 Z M 253.066406 81.300781 " fill-opacity="1" fill-rule="evenodd"/><path fill="#000000" d="M 232.277344 74.265625 C 232.210938 74.335938 232.183594 74.578125 232.152344 74.675781 C 232.050781 75.03125 231.953125 75.386719 231.859375 75.746094 C 231.53125 76.976562 231.191406 78.207031 230.859375 79.4375 C 230.753906 79.824219 230.648438 80.210938 230.542969 80.597656 C 230.511719 80.707031 230.398438 80.945312 230.433594 81.066406 C 230.46875 81.179688 230.761719 81.292969 230.851562 81.355469 C 231.148438 81.554688 231.4375 81.789062 231.683594 82.050781 C 231.683594 82.019531 231.765625 82.191406 231.773438 82.207031 C 231.828125 82.335938 231.886719 82.464844 231.941406 82.597656 C 232.109375 82.984375 232.246094 83.386719 232.394531 83.78125 C 232.851562 84.972656 233.316406 86.15625 233.8125 87.328125 C 234.730469 89.488281 235.796875 91.601562 236.910156 93.667969 C 237.382812 94.539062 237.839844 95.410156 238.28125 96.292969 C 238.476562 96.691406 238.742188 97.101562 238.875 97.527344 C 239.074219 98.175781 237.457031 99.09375 236.992188 99.570312 C 235.214844 101.40625 233.285156 103.089844 231.265625 104.664062 C 223.367188 110.839844 212.609375 116.964844 202.316406 112.707031 C 202.421875 112.804688 202.0625 112.570312 201.941406 112.488281 C 201.691406 112.320312 201.457031 112.136719 201.226562 111.945312 C 200.492188 111.332031 199.839844 110.671875 199.285156 109.898438 C 197.632812 107.601562 196.933594 104.898438 196.820312 102.117188 C 196.65625 98.140625 197.351562 94.28125 198.609375 90.511719 C 198.746094 90.105469 198.878906 89.699219 199.019531 89.296875 C 199.140625 88.953125 199.265625 88.613281 199.382812 88.265625 C 199.460938 88.039062 199.535156 87.808594 199.609375 87.574219 C 199.671875 87.390625 199.726562 87.203125 199.785156 87.015625 C 199.832031 86.859375 199.878906 86.703125 199.921875 86.542969 C 200.011719 86.222656 200.671875 84.398438 199.785156 84.621094 C 199.847656 84.769531 199.558594 84.859375 199.476562 85 C 199.179688 85.484375 198.921875 85.996094 198.679688 86.507812 C 197.734375 88.496094 196.925781 90.527344 196.253906 92.621094 C 194.277344 98.769531 192.320312 106.398438 195.234375 112.53125 C 195.324219 112.503906 195.296875 112.699219 195.332031 112.785156 C 195.40625 112.96875 195.488281 113.152344 195.566406 113.332031 C 195.804688 113.882812 196.09375 114.414062 196.402344 114.933594 C 197.277344 116.410156 198.585938 117.65625 199.941406 118.710938 C 203.585938 121.542969 208.523438 121.527344 212.921875 120.976562 C 212.921875 120.953125 213.273438 120.875 213.289062 120.871094 C 213.707031 120.761719 214.128906 120.664062 214.546875 120.542969 C 215.613281 120.234375 216.675781 119.878906 217.683594 119.410156 C 220.808594 117.957031 223.984375 116.453125 226.667969 114.304688 C 226.667969 114.308594 230.21875 111.59375 231.226562 110.8125 C 234.28125 108.449219 237.359375 105.613281 239.25 102.226562 C 239.316406 102.105469 239.542969 101.585938 239.585938 101.476562 C 239.910156 100.699219 240.175781 99.894531 240.382812 99.078125 C 240.886719 97.097656 241.109375 94.859375 240.695312 92.835938 C 240.429688 91.546875 239.898438 90.347656 239.382812 89.136719 C 239.476562 89.175781 239.3125 88.953125 239.273438 88.863281 C 239.207031 88.699219 239.136719 88.539062 239.0625 88.378906 C 238.816406 87.828125 238.574219 87.277344 238.320312 86.730469 C 237.609375 85.171875 236.488281 83.625 236.070312 81.957031 C 235.96875 81.53125 236.40625 81.828125 236.59375 81.9375 C 237.066406 82.214844 237.523438 82.53125 238.023438 82.753906 C 238.1875 82.828125 238.484375 82.941406 238.539062 82.691406 C 238.683594 82.039062 237.980469 81.117188 237.660156 80.621094 C 236.625 79.019531 234.335938 76.449219 232.277344 74.265625 Z M 232.277344 74.265625 " fill-opacity="1" fill-rule="evenodd"/><path fill="#000000" d="M 212.792969 56.726562 C 212.800781 56.464844 213.285156 56.902344 213.539062 56.976562 C 214.175781 57.167969 214.832031 57.335938 215.488281 57.472656 C 215.539062 57.480469 216.09375 57.628906 216.09375 57.53125 C 216.074219 56.980469 214.667969 56.046875 214.308594 55.71875 C 212.628906 54.164062 210.945312 52.613281 209.191406 51.136719 C 208.867188 50.867188 207.582031 49.511719 207.082031 49.691406 C 206.734375 49.816406 206.527344 50.394531 206.382812 50.691406 C 205.964844 51.59375 205.574219 52.511719 205.175781 53.425781 C 205.0625 53.679688 204.683594 54.269531 204.816406 54.574219 C 204.957031 54.882812 205.390625 54.800781 205.644531 54.953125 C 205.996094 55.164062 206.230469 55.664062 206.433594 55.992188 C 208.597656 59.324219 211.183594 62.285156 213.644531 65.394531 C 213.632812 65.398438 213.859375 65.625 213.878906 65.648438 C 213.867188 65.640625 213.089844 66.582031 213.039062 66.644531 C 212.011719 67.867188 211.089844 69.167969 210.207031 70.484375 C 207.726562 74.132812 206.917969 79.222656 208.066406 83.476562 C 208.710938 85.878906 210.609375 88.289062 213.316406 88.09375 C 215.394531 87.9375 217.414062 86.304688 218.871094 84.941406 C 222.429688 81.625 226.632812 76.65625 224.625 71.457031 C 223.835938 69.4375 222.53125 67.613281 221.117188 65.996094 C 220.6875 65.511719 219.425781 64.621094 219.601562 63.886719 C 219.90625 62.640625 221.105469 61.453125 221.835938 60.449219 C 223.722656 57.878906 226.417969 54.929688 227.238281 51.761719 C 227.523438 50.625 227.882812 48.289062 227.195312 47.210938 C 227.09375 47.058594 226.765625 47.519531 226.726562 47.582031 C 226.285156 48.128906 225.945312 48.765625 225.578125 49.359375 C 224.652344 50.84375 223.699219 52.308594 222.707031 53.75 C 221.917969 54.902344 221.097656 56.035156 220.285156 57.179688 C 219.496094 58.292969 218.707031 59.398438 217.90625 60.492188 C 217.753906 60.699219 217.375 61.421875 217.058594 61.433594 C 216.269531 61.46875 213.292969 57.261719 212.792969 56.726562 Z M 216.1875 68.261719 C 216.320312 68.113281 215.394531 69.058594 215.285156 69.21875 C 215.078125 69.507812 214.863281 69.796875 214.65625 70.085938 C 214.042969 70.933594 213.457031 71.796875 212.882812 72.667969 C 211.273438 75.101562 208.515625 80.503906 212.792969 81.914062 C 215.601562 82.839844 218.328125 79.832031 219.9375 77.945312 C 220.605469 77.179688 221.578125 76.152344 221.578125 75.0625 C 221.589844 74.433594 221.179688 73.820312 220.851562 73.3125 C 219.90625 71.875 217.519531 69.347656 216.1875 68.261719 Z M 216.1875 68.261719 " fill-opacity="1" fill-rule="evenodd"/><path fill="#000000" d="M 241.789062 35.84375 C 241.8125 35.875 241.722656 36.011719 241.707031 36.042969 C 241.597656 36.257812 241.480469 36.472656 241.359375 36.679688 C 241.328125 36.730469 241.253906 36.890625 241.164062 36.886719 C 241.03125 36.875 240.816406 36.679688 240.71875 36.617188 C 240.359375 36.367188 239.992188 36.128906 239.636719 35.875 C 239.246094 35.589844 238.851562 35.308594 238.445312 35.035156 C 238.210938 34.878906 237.898438 34.738281 237.726562 34.527344 C 237.542969 34.296875 237.550781 33.972656 237.523438 33.707031 C 237.464844 33.066406 237.453125 32.40625 237.660156 31.78125 C 237.851562 31.203125 238.207031 30.433594 239.007812 30.316406 C 239.851562 30.195312 240.726562 30.808594 241.375 31.175781 C 242.683594 31.917969 243.507812 32.941406 244.242188 34.097656 C 244.894531 35.132812 245.414062 36.207031 245.742188 37.347656 C 245.941406 38.042969 246.058594 38.761719 246.300781 39.445312 C 246.402344 39.738281 246.535156 40.105469 246.863281 40.28125 C 246.859375 40.324219 246.886719 40.191406 246.894531 40.144531 C 246.914062 40.054688 246.929688 39.964844 246.941406 39.871094 C 246.988281 39.609375 247.023438 39.34375 247.0625 39.082031 C 247.179688 38.265625 247.324219 37.457031 247.535156 36.652344 C 248.097656 34.519531 248.914062 32.234375 250.367188 30.402344 C 251.015625 29.585938 252.015625 28.6875 253.3125 29.109375 C 254.210938 29.40625 254.832031 30.269531 255.253906 30.957031 C 255.394531 31.183594 255.636719 31.523438 255.625 31.789062 C 255.597656 32.3125 255.152344 32.90625 254.917969 33.375 C 254.757812 33.703125 254.601562 34.035156 254.410156 34.351562 C 254.34375 34.460938 254.257812 34.640625 254.121094 34.699219 C 253.863281 34.808594 253.550781 34.160156 253.476562 34.050781 C 253.097656 33.453125 252.527344 32.515625 251.578125 32.5625 C 250.582031 32.613281 250.144531 33.675781 249.839844 34.316406 C 248.933594 36.230469 248.433594 38.195312 247.917969 40.199219 C 247.90625 40.203125 247.828125 40.492188 247.820312 40.515625 C 247.691406 40.875 247.566406 41.234375 247.449219 41.597656 C 247.113281 42.664062 246.894531 43.785156 246.40625 44.8125 C 246.332031 44.96875 246.007812 45.738281 245.648438 45.554688 C 245.46875 45.460938 245.4375 45.179688 245.410156 45.027344 C 245.328125 44.574219 245.230469 44.125 245.117188 43.679688 C 244.984375 43.15625 244.855469 42.636719 244.730469 42.109375 C 244.546875 41.3125 244.339844 40.511719 244.042969 39.738281 C 243.644531 38.695312 242.683594 36.328125 241.789062 35.84375 Z M 241.789062 35.84375 " fill-opacity="1" fill-rule="evenodd"/><path fill="#000000" d="M 172.144531 77.398438 C 172.164062 77.429688 172.074219 77.566406 172.058594 77.601562 C 171.949219 77.8125 171.832031 78.027344 171.710938 78.234375 C 171.679688 78.285156 171.605469 78.445312 171.515625 78.441406 C 171.382812 78.429688 171.167969 78.234375 171.074219 78.171875 C 170.710938 77.921875 170.34375 77.683594 169.992188 77.429688 C 169.597656 77.144531 169.207031 76.863281 168.800781 76.59375 C 168.5625 76.4375 168.25 76.292969 168.078125 76.082031 C 167.894531 75.851562 167.902344 75.527344 167.878906 75.261719 C 167.820312 74.621094 167.804688 73.960938 168.011719 73.335938 C 168.203125 72.757812 168.5625 71.988281 169.363281 71.871094 C 170.203125 71.75 171.078125 72.363281 171.726562 72.730469 C 173.035156 73.472656 173.859375 74.496094 174.59375 75.65625 C 175.246094 76.6875 175.765625 77.761719 176.09375 78.90625 C 176.292969 79.597656 176.414062 80.316406 176.652344 81 C 176.753906 81.292969 176.886719 81.660156 177.214844 81.835938 C 177.210938 81.878906 177.242188 81.746094 177.25 81.699219 C 177.265625 81.609375 177.28125 81.519531 177.296875 81.425781 C 177.339844 81.164062 177.375 80.898438 177.414062 80.636719 C 177.53125 79.820312 177.675781 79.011719 177.886719 78.207031 C 178.453125 76.074219 179.269531 73.789062 180.71875 71.957031 C 181.367188 71.140625 182.367188 70.242188 183.664062 70.667969 C 184.5625 70.960938 185.183594 71.824219 185.605469 72.511719 C 185.746094 72.738281 185.988281 73.078125 185.976562 73.34375 C 185.953125 73.867188 185.503906 74.460938 185.273438 74.929688 C 185.109375 75.257812 184.957031 75.589844 184.761719 75.90625 C 184.695312 76.015625 184.609375 76.195312 184.472656 76.253906 C 184.214844 76.363281 183.902344 75.714844 183.828125 75.605469 C 183.449219 75.007812 182.878906 74.074219 181.929688 74.117188 C 180.9375 74.167969 180.496094 75.230469 180.191406 75.871094 C 179.285156 77.785156 178.785156 79.75 178.273438 81.753906 C 178.257812 81.757812 178.179688 82.046875 178.171875 82.070312 C 178.046875 82.429688 177.917969 82.789062 177.804688 83.152344 C 177.464844 84.21875 177.246094 85.339844 176.757812 86.367188 C 176.683594 86.523438 176.359375 87.292969 176 87.109375 C 175.820312 87.015625 175.789062 86.734375 175.761719 86.582031 C 175.679688 86.128906 175.585938 85.683594 175.46875 85.234375 C 175.335938 84.710938 175.207031 84.191406 175.085938 83.667969 C 174.898438 82.867188 174.691406 82.070312 174.394531 81.292969 C 173.996094 80.25 173.035156 77.882812 172.144531 77.398438 Z M 172.144531 77.398438 " fill-opacity="1" fill-rule="evenodd"/><path fill="#000000" d="M 107.007812 38.210938 C 107.03125 38.242188 106.941406 38.378906 106.925781 38.414062 C 106.816406 38.625 106.699219 38.839844 106.578125 39.046875 C 106.546875 39.097656 106.472656 39.257812 106.382812 39.253906 C 106.25 39.242188 106.035156 39.046875 105.941406 38.984375 C 105.578125 38.734375 105.210938 38.496094 104.855469 38.242188 C 104.464844 37.957031 104.074219 37.675781 103.667969 37.40625 C 103.429688 37.25 103.117188 37.105469 102.945312 36.894531 C 102.761719 36.664062 102.769531 36.339844 102.742188 36.074219 C 102.683594 35.433594 102.671875 34.773438 102.878906 34.148438 C 103.070312 33.570312 103.425781 32.800781 104.226562 32.683594 C 105.070312 32.5625 105.945312 33.175781 106.59375 33.546875 C 107.902344 34.285156 108.726562 35.308594 109.460938 36.46875 C 110.113281 37.5 110.632812 38.574219 110.960938 39.71875 C 111.160156 40.410156 111.277344 41.128906 111.519531 41.8125 C 111.621094 42.105469 111.753906 42.472656 112.082031 42.648438 C 112.078125 42.691406 112.105469 42.558594 112.113281 42.511719 C 112.132812 42.421875 112.148438 42.332031 112.164062 42.238281 C 112.207031 41.976562 112.242188 41.710938 112.28125 41.449219 C 112.398438 40.632812 112.542969 39.824219 112.753906 39.019531 C 113.316406 36.886719 114.132812 34.601562 115.585938 32.769531 C 116.234375 31.953125 117.234375 31.054688 118.53125 31.480469 C 119.429688 31.773438 120.050781 32.636719 120.472656 33.324219 C 120.613281 33.550781 120.855469 33.894531 120.84375 34.15625 C 120.820312 34.679688 120.371094 35.273438 120.136719 35.742188 C 119.976562 36.070312 119.820312 36.402344 119.628906 36.71875 C 119.5625 36.828125 119.476562 37.007812 119.339844 37.066406 C 119.082031 37.175781 118.769531 36.527344 118.695312 36.417969 C 118.316406 35.824219 117.746094 34.886719 116.796875 34.929688 C 115.800781 34.980469 115.363281 36.042969 115.058594 36.683594 C 114.152344 38.597656 113.652344 40.5625 113.136719 42.566406 C 113.125 42.570312 113.046875 42.863281 113.039062 42.882812 C 112.910156 43.242188 112.785156 43.601562 112.667969 43.964844 C 112.332031 45.03125 112.113281 46.152344 111.625 47.179688 C 111.550781 47.335938 111.226562 48.105469 110.867188 47.921875 C 110.6875 47.828125 110.65625 47.546875 110.628906 47.394531 C 110.546875 46.941406 110.449219 46.496094 110.335938 46.046875 C 110.203125 45.523438 110.074219 45.003906 109.949219 44.480469 C 109.765625 43.679688 109.558594 42.882812 109.261719 42.105469 C 108.863281 41.0625 107.902344 38.695312 107.007812 38.210938 Z M 107.007812 38.210938 " fill-opacity="1" fill-rule="evenodd"/><path fill="#000000" d="M 241.789062 62.304688 C 241.8125 62.335938 241.722656 62.472656 241.707031 62.507812 C 241.597656 62.71875 241.480469 62.933594 241.359375 63.144531 C 241.328125 63.191406 241.253906 63.355469 241.164062 63.347656 C 241.03125 63.339844 240.816406 63.144531 240.71875 63.078125 C 240.359375 62.832031 239.992188 62.59375 239.636719 62.335938 C 239.246094 62.054688 238.851562 61.769531 238.445312 61.5 C 238.210938 61.34375 237.898438 61.203125 237.726562 60.988281 C 237.542969 60.757812 237.550781 60.433594 237.523438 60.171875 C 237.464844 59.53125 237.453125 58.871094 237.660156 58.246094 C 237.851562 57.664062 238.207031 56.894531 239.007812 56.777344 C 239.851562 56.65625 240.726562 57.273438 241.375 57.640625 C 242.683594 58.382812 243.507812 59.402344 244.242188 60.5625 C 244.894531 61.597656 245.414062 62.667969 245.742188 63.8125 C 245.941406 64.503906 246.058594 65.222656 246.300781 65.910156 C 246.402344 66.199219 246.535156 66.570312 246.863281 66.742188 C 246.859375 66.785156 246.886719 66.652344 246.894531 66.605469 C 246.914062 66.515625 246.929688 66.425781 246.941406 66.332031 C 246.988281 66.070312 247.023438 65.808594 247.0625 65.542969 C 247.179688 64.726562 247.324219 63.917969 247.535156 63.113281 C 248.097656 60.980469 248.914062 58.695312 250.367188 56.863281 C 251.015625 56.046875 252.015625 55.148438 253.3125 55.574219 C 254.210938 55.867188 254.832031 56.734375 255.253906 57.417969 C 255.394531 57.644531 255.636719 57.988281 255.625 58.25 C 255.597656 58.773438 255.152344 59.367188 254.917969 59.835938 C 254.757812 60.164062 254.601562 60.496094 254.410156 60.816406 C 254.34375 60.921875 254.257812 61.101562 254.121094 61.164062 C 253.863281 61.269531 253.550781 60.625 253.476562 60.511719 C 253.097656 59.917969 252.527344 58.980469 251.578125 59.027344 C 250.582031 59.074219 250.144531 60.136719 249.839844 60.777344 C 248.933594 62.691406 248.433594 64.660156 247.917969 66.660156 C 247.90625 66.664062 247.828125 66.957031 247.820312 66.976562 C 247.691406 67.335938 247.566406 67.699219 247.449219 68.0625 C 247.113281 69.125 246.894531 70.246094 246.40625 71.273438 C 246.332031 71.429688 246.007812 72.203125 245.648438 72.015625 C 245.46875 71.925781 245.4375 71.644531 245.410156 71.492188 C 245.328125 71.039062 245.230469 70.589844 245.117188 70.140625 C 244.984375 69.617188 244.855469 69.097656 244.730469 68.574219 C 244.546875 67.773438 244.339844 66.976562 244.042969 66.203125 C 243.644531 65.160156 242.683594 62.789062 241.789062 62.304688 Z M 241.789062 62.304688 " fill-opacity="1" fill-rule="evenodd"/><path fill="#000000" d="M 298.394531 90.3125 C 298.320312 90.21875 298.199219 90.542969 298.175781 90.613281 C 298.121094 90.761719 298.0625 90.90625 298.011719 91.054688 C 297.839844 91.523438 297.660156 91.980469 297.484375 92.445312 C 297.367188 92.746094 297.695312 93.125 297.78125 93.394531 C 298.050781 94.214844 297.566406 94.757812 296.90625 94.742188 C 296.71875 94.738281 296.542969 94.683594 296.367188 94.613281 C 295.632812 94.304688 294.898438 93.550781 294.96875 92.53125 C 295.007812 92.007812 295.203125 91.558594 295.3125 91.058594 C 295.347656 90.894531 295.355469 90.632812 295.179688 90.585938 C 294.738281 90.457031 294.339844 91.515625 294.1875 91.84375 C 293.574219 93.171875 293.054688 94.78125 291.847656 95.496094 C 290.726562 96.160156 289.65625 95.257812 288.570312 94.917969 C 287.402344 94.554688 286.234375 94.726562 285.117188 95.246094 C 285.117188 95.359375 284.9375 95.332031 284.851562 95.382812 C 284.566406 95.558594 284.292969 95.75 284.019531 95.941406 C 282.824219 96.800781 281.671875 97.769531 280.558594 98.777344 C 275.726562 103.140625 270.6875 107.097656 265.414062 110.660156 C 263.8125 111.742188 262.222656 112.859375 260.589844 113.867188 C 259.925781 114.277344 259.242188 114.652344 258.585938 115.078125 C 258.511719 115.125 257.976562 115.425781 258.128906 115.609375 C 258.304688 115.816406 258.800781 115.695312 259.011719 115.671875 C 259.820312 115.578125 260.636719 115.339844 261.425781 115.113281 C 263.363281 114.5625 265.429688 113.957031 267.210938 112.855469 C 268.347656 112.148438 269.398438 111.203125 270.429688 110.300781 C 273.5625 107.566406 276.675781 104.789062 279.820312 102.074219 C 281.667969 100.480469 283.679688 98.542969 285.871094 97.671875 C 287.820312 96.898438 289.386719 99.367188 291.335938 98.519531 C 292.183594 98.148438 292.808594 97.199219 293.222656 96.273438 C 293.292969 96.117188 293.699219 94.855469 293.847656 94.8125 C 293.871094 94.808594 293.945312 95.367188 293.949219 95.398438 C 294.007812 95.8125 294.070312 96.265625 294.285156 96.605469 C 294.824219 97.457031 295.8125 97.609375 296.632812 97.414062 C 299.191406 96.804688 299.199219 93.835938 298.773438 91.367188 C 298.71875 91.039062 298.492188 90.433594 298.394531 90.3125 Z M 298.394531 90.3125 " fill-opacity="1" fill-rule="evenodd"/><g clip-path="url(#7bb62f504e)"><path fill="#000000" d="M 181.121094 115.480469 C 181.050781 115.390625 180.929688 115.714844 180.902344 115.785156 C 180.851562 115.929688 180.792969 116.074219 180.738281 116.222656 C 180.570312 116.691406 180.386719 117.152344 180.210938 117.617188 C 180.097656 117.917969 180.421875 118.296875 180.511719 118.5625 C 180.78125 119.382812 180.292969 119.925781 179.636719 119.914062 C 179.449219 119.910156 179.273438 119.855469 179.097656 119.78125 C 178.359375 119.476562 177.625 118.71875 177.699219 117.699219 C 177.734375 117.175781 177.929688 116.730469 178.039062 116.226562 C 178.074219 116.0625 178.085938 115.800781 177.90625 115.753906 C 177.464844 115.625 177.070312 116.683594 176.914062 117.015625 C 176.300781 118.339844 175.78125 119.949219 174.574219 120.664062 C 173.453125 121.332031 172.386719 120.429688 171.300781 120.089844 C 170.128906 119.722656 168.960938 119.894531 167.84375 120.414062 C 167.84375 120.527344 167.664062 120.5 167.578125 120.554688 C 167.296875 120.726562 167.023438 120.917969 166.75 121.113281 C 165.550781 121.96875 164.398438 122.9375 163.285156 123.945312 C 158.457031 128.3125 153.414062 132.265625 148.144531 135.828125 C 146.542969 136.910156 144.953125 138.027344 143.316406 139.035156 C 142.652344 139.445312 141.972656 139.820312 141.3125 140.246094 C 141.242188 140.292969 140.707031 140.597656 140.859375 140.777344 C 141.035156 140.984375 141.53125 140.867188 141.738281 140.84375 C 142.546875 140.746094 143.367188 140.507812 144.15625 140.28125 C 146.09375 139.730469 148.15625 139.125 149.941406 138.023438 C 151.074219 137.316406 152.128906 136.371094 153.15625 135.472656 C 156.292969 132.734375 159.402344 129.957031 162.550781 127.246094 C 164.398438 125.648438 166.40625 123.710938 168.601562 122.839844 C 170.550781 122.066406 172.113281 124.535156 174.066406 123.6875 C 174.914062 123.316406 175.535156 122.367188 175.949219 121.441406 C 176.019531 121.289062 176.425781 120.023438 176.574219 119.980469 C 176.601562 119.976562 176.671875 120.535156 176.679688 120.566406 C 176.734375 120.980469 176.800781 121.433594 177.015625 121.773438 C 177.554688 122.625 178.539062 122.78125 179.363281 122.582031 C 181.917969 121.976562 181.925781 119.003906 181.503906 116.539062 C 181.449219 116.210938 181.21875 115.605469 181.121094 115.480469 Z M 181.121094 115.480469 " fill-opacity="1" fill-rule="evenodd"/></g><path fill="#000000" d="M 229.75 56.203125 C 229.765625 56.214844 231.066406 55.527344 231.148438 55.488281 C 232.808594 54.691406 234.488281 53.929688 236.179688 53.175781 C 243.109375 50.089844 250.109375 47.058594 257.191406 44.207031 C 259.1875 43.40625 261.199219 42.617188 263.242188 41.902344 C 263.367188 41.855469 264.980469 41.203125 265.066406 41.363281 C 265.246094 41.695312 264.5 42.78125 264.355469 43.085938 C 264.050781 43.738281 263.851562 44.726562 263.285156 45.273438 C 262.90625 45.644531 262.175781 45.804688 261.65625 45.996094 C 260.390625 46.46875 259.121094 46.929688 257.871094 47.421875 C 254.007812 48.9375 250.269531 50.65625 246.476562 52.285156 C 242.804688 53.867188 239.050781 55.320312 235.414062 56.953125 C 233.601562 57.765625 231.78125 58.578125 229.972656 59.398438 C 229.683594 59.53125 228.472656 60.285156 228.101562 60.128906 C 227.871094 60.03125 228.136719 59.527344 228.183594 59.40625 C 228.445312 58.734375 229.445312 56.863281 229.75 56.203125 Z M 229.75 56.203125 " fill-opacity="1" fill-rule="evenodd"/><path fill="#000000" d="M 267.347656 46.46875 C 267.761719 46.042969 268.0625 45.28125 268.386719 44.78125 C 269.335938 43.324219 270.277344 41.863281 271.25 40.421875 C 271.796875 39.613281 272.300781 38.652344 273.082031 38.027344 C 274.191406 37.136719 275.851562 37.257812 277.191406 37.347656 C 280.28125 37.550781 283.851562 38.523438 286.789062 39.007812 C 286.835938 38.96875 287.101562 39.089844 287.160156 39.109375 C 287.5 39.226562 287.839844 39.351562 288.175781 39.480469 C 289.304688 39.917969 291.527344 40.53125 291.132812 42.09375 C 290.878906 43.089844 290.195312 43.976562 289.578125 44.785156 C 288.617188 46.039062 287.582031 47.253906 286.5 48.417969 C 285.070312 49.957031 283.5625 51.40625 281.992188 52.8125 C 280.957031 53.738281 279.886719 54.765625 278.546875 55.265625 C 276.308594 56.105469 273.660156 56.011719 271.300781 56.152344 C 270.183594 56.21875 269.066406 56.269531 267.945312 56.3125 C 267.355469 56.335938 266.613281 56.417969 266.039062 56.25 C 265.472656 56.078125 266.824219 55.328125 266.921875 55.273438 C 268.136719 54.597656 269.453125 54.082031 270.765625 53.613281 C 273.792969 52.53125 276.894531 51.519531 279.769531 50.085938 C 280.453125 49.746094 281.140625 49.402344 281.808594 49.03125 C 281.980469 48.9375 282.375 48.785156 282.4375 48.578125 C 282.515625 48.324219 281.945312 48.074219 281.78125 48 C 280.988281 47.640625 280.070312 47.464844 279.230469 47.261719 C 275.722656 46.421875 270.933594 45.945312 267.347656 46.46875 Z M 267.347656 46.46875 " fill-opacity="1" fill-rule="evenodd"/><path fill="#000000" d="M 205.285156 34.960938 L 209.480469 29.273438 L 216.257812 34.339844 L 211.789062 39.695312 C 211.789062 39.695312 205.554688 34.695312 205.285156 34.960938 Z M 205.285156 34.960938 " fill-opacity="1" fill-rule="evenodd"/><path fill="#000000" d="M 215.179688 33.710938 L 219.371094 28.027344 L 226.148438 33.089844 L 221.679688 38.445312 C 221.679688 38.445312 215.445312 33.445312 215.179688 33.710938 Z M 215.179688 33.710938 " fill-opacity="1" fill-rule="evenodd"/><path fill="#000000" d="M 120.855469 131.003906 L 125.046875 125.320312 L 131.824219 130.382812 L 127.355469 135.738281 C 127.355469 135.738281 121.121094 130.742188 120.855469 131.003906 Z M 120.855469 131.003906 " fill-opacity="1" fill-rule="evenodd"/><path fill="#000000" d="M 212.523438 90.347656 C 212.28125 90.191406 212.0625 90.519531 212.019531 90.566406 C 211.769531 90.863281 211.589844 91.203125 211.414062 91.542969 C 210.863281 92.609375 210.363281 93.703125 209.804688 94.769531 C 208.375 97.496094 206.566406 100.773438 206.742188 103.882812 C 206.820312 105.234375 207.3125 106.949219 209.027344 107.230469 C 211.152344 107.574219 212.386719 104.71875 212.9375 103.359375 C 213.125 102.894531 213.574219 101.96875 213.277344 101.464844 C 213.027344 101.035156 212.382812 101.9375 212.285156 102.074219 C 211.6875 102.914062 210.734375 104.566406 209.621094 103.210938 C 208.726562 102.125 208.863281 100.628906 209.140625 99.371094 C 209.554688 97.507812 210.535156 95.8125 211.40625 94.109375 C 211.957031 93.039062 213.339844 90.890625 212.523438 90.347656 Z M 212.523438 90.347656 " fill-opacity="1" fill-rule="evenodd"/><path fill="#000000" d="M 278.5625 67.160156 C 278.4375 67.109375 278.914062 66.792969 278.953125 66.769531 C 279.140625 66.671875 279.324219 66.566406 279.503906 66.453125 C 280.03125 66.121094 280.5625 65.789062 281.082031 65.441406 C 282.710938 64.359375 284.324219 63.261719 285.941406 62.167969 C 289.582031 59.707031 299.738281 51.871094 299.976562 51.40625 C 299.800781 51.273438 299.507812 51.179688 299.3125 51.058594 C 298.289062 50.425781 296.746094 49.488281 296.859375 48.226562 C 297.011719 46.507812 298.601562 44.574219 300.386719 43.984375 C 301.183594 43.71875 302.234375 43.59375 302.921875 44.148438 C 303.359375 44.496094 303.480469 45.066406 303.527344 45.566406 C 303.636719 46.675781 303.316406 47.734375 302.847656 48.75 C 302.714844 49.042969 302.554688 49.328125 302.382812 49.605469 C 302.332031 49.6875 302.167969 49.855469 302.171875 49.953125 C 302.175781 50.082031 302.578125 50.296875 302.671875 50.371094 C 303.027344 50.65625 303.53125 51.0625 303.671875 51.496094 C 303.851562 52.046875 303.238281 52.835938 302.945312 53.277344 C 302.871094 53.390625 302.660156 53.792969 302.46875 53.761719 C 302.242188 53.722656 302.042969 53.445312 301.898438 53.308594 C 301.511719 52.945312 301.085938 52.621094 300.699219 52.257812 C 300.644531 52.203125 300.589844 52.371094 300.535156 52.429688 C 300.421875 52.546875 300.304688 52.664062 300.195312 52.785156 C 299.871094 53.128906 299.539062 53.46875 299.203125 53.804688 C 298.207031 54.8125 297.191406 55.808594 296.148438 56.777344 C 292.363281 60.285156 287.851562 63.304688 283.039062 65.574219 C 281.941406 66.09375 280.859375 66.683594 279.695312 67.074219 C 279.488281 67.144531 278.6875 67.210938 278.5625 67.160156 Z M 301.320312 49.226562 C 301.316406 49.21875 301.363281 49.058594 301.363281 49.050781 C 301.398438 48.941406 301.433594 48.832031 301.460938 48.722656 C 301.539062 48.386719 301.589844 48.046875 301.566406 47.707031 C 301.554688 47.515625 301.535156 47.324219 301.503906 47.132812 C 301.386719 46.414062 300.761719 45.398438 299.800781 45.609375 C 299.582031 45.65625 299.378906 45.761719 299.199219 45.882812 C 299.070312 45.972656 298.953125 46.082031 298.84375 46.191406 C 298.707031 46.335938 298.539062 46.515625 298.527344 46.71875 C 298.519531 46.863281 298.632812 46.988281 298.730469 47.09375 C 298.9375 47.316406 299.171875 47.507812 299.394531 47.71875 C 299.863281 48.160156 300.804688 48.824219 301.320312 49.226562 Z M 301.320312 49.226562 " fill-opacity="1" fill-rule="evenodd"/><path fill="#000000" d="M 82.386719 13.675781 C 82.417969 13.421875 82.753906 13.097656 82.890625 12.867188 C 83.359375 12.070312 84.191406 10.734375 83.535156 9.882812 C 82.828125 8.960938 81.234375 9.597656 80.355469 9.988281 C 78.847656 10.660156 77.484375 11.625 76.34375 12.636719 C 75.683594 13.222656 75.019531 13.871094 74.75 14.636719 C 74.351562 15.757812 75.566406 16.664062 76.605469 17.289062 C 76.824219 17.421875 77.984375 17.871094 77.984375 18.113281 C 77.984375 18.394531 77.523438 18.746094 77.328125 18.953125 C 76.789062 19.515625 76.257812 20.078125 75.792969 20.675781 C 75.726562 20.761719 75.160156 21.421875 75.386719 21.507812 C 75.59375 21.59375 76.097656 21.28125 76.253906 21.207031 C 77.210938 20.75 78.121094 20.234375 79.035156 19.726562 C 80.746094 18.773438 82.429688 17.796875 84.214844 16.921875 C 85.007812 16.53125 85.8125 16.148438 86.621094 15.773438 C 86.902344 15.644531 87.4375 15.476562 87.542969 15.207031 C 87.683594 14.824219 87.460938 14.273438 87.359375 13.898438 C 87.109375 13.023438 85.351562 14.085938 84.875 14.316406 C 83.96875 14.761719 82.894531 15.480469 81.816406 15.636719 C 80.367188 15.84375 78.003906 14.703125 77.820312 13.558594 C 77.875 13.605469 77.871094 13.4375 77.914062 13.382812 C 77.992188 13.285156 78.089844 13.195312 78.1875 13.109375 C 78.53125 12.820312 78.921875 12.523438 79.402344 12.390625 C 80.429688 12.109375 81.832031 13.113281 82.386719 13.675781 Z M 82.386719 13.675781 " fill-opacity="1" fill-rule="evenodd"/><path fill="#000000" d="M 187.597656 102.023438 C 187.488281 100.914062 186.976562 97.386719 187.0625 97.308594 C 188.003906 96.425781 190.503906 93.90625 190.734375 93.929688 C 190.917969 93.953125 191 95.957031 190.996094 96.574219 C 190.96875 98.890625 190.699219 103.308594 189.359375 106.640625 C 188.527344 108.703125 187.003906 110.136719 185.726562 111.023438 C 181.058594 114.246094 177.566406 109.035156 177.566406 104.765625 C 177.566406 104.613281 177.28125 104.882812 177.164062 104.984375 C 176.933594 105.179688 176.714844 105.390625 176.507812 105.613281 C 175.835938 106.34375 175.273438 107.1875 174.738281 108.019531 C 172.960938 110.789062 171.496094 113.367188 168.203125 114.523438 C 162.507812 116.519531 157.585938 110.902344 157.984375 105.449219 C 158.242188 105.609375 157.449219 105.738281 157.203125 105.917969 C 156.71875 106.269531 156.253906 106.65625 155.78125 107.03125 C 154.285156 108.214844 152.820312 109.4375 151.324219 110.625 C 146.644531 114.347656 140.453125 116.640625 134.472656 114.816406 C 130.6875 113.664062 126.707031 109.875 127.636719 105.578125 C 122.847656 111.550781 116.929688 116.835938 108.78125 114.25 C 107.378906 113.800781 106.023438 113.15625 104.800781 112.332031 C 104.0625 111.839844 103.277344 110.773438 102.710938 110.050781 C 101.332031 108.296875 100.195312 106.390625 99.34375 104.328125 C 95.574219 95.234375 95.191406 84.566406 94.269531 74.886719 C 93.609375 67.980469 93.058594 61.042969 92.03125 54.179688 C 91.257812 49.023438 90.136719 43.957031 88.769531 38.925781 C 88.316406 37.253906 88 34.28125 86.773438 32.914062 C 86.34375 32.433594 85.332031 34.5 85.167969 34.777344 C 85.140625 34.824219 84.742188 35.546875 84.664062 35.421875 C 84.371094 34.933594 84.816406 33.589844 84.90625 33.089844 C 85.257812 31.160156 85.796875 29.074219 87.085938 27.535156 C 87.554688 26.976562 88.316406 26.171875 89.140625 26.375 C 90.183594 26.632812 90.832031 28.183594 91.25 29.03125 C 92.726562 32.027344 93.503906 35.410156 94.214844 38.652344 C 97.421875 53.1875 97.414062 68.257812 99.238281 82.996094 C 100.195312 90.726562 101.074219 99.84375 107.144531 105.464844 C 110.367188 108.449219 115.019531 109.554688 118.929688 107.273438 C 120.671875 106.253906 122.074219 104.679688 123.398438 103.179688 C 124.636719 101.777344 127.101562 97.148438 129.484375 97.859375 C 129.71875 99.304688 129.988281 100.546875 130.65625 101.914062 C 131.296875 103.222656 132.082031 104.488281 133.164062 105.484375 C 137.726562 109.679688 145.179688 107.527344 150.085938 105.222656 C 151.0625 104.761719 152.019531 104.261719 152.945312 103.710938 C 154.855469 102.582031 156.671875 101.28125 158.351562 99.832031 C 159.050781 99.230469 160.070312 98.019531 161.089844 97.988281 C 161.621094 97.96875 161.675781 98.765625 161.664062 99.144531 C 161.625 100.597656 161.109375 101.957031 161.367188 103.429688 C 162.058594 107.355469 165.617188 108.097656 168.9375 107.203125 C 169.972656 106.925781 170.917969 106.214844 171.769531 105.601562 C 173.789062 104.148438 175.621094 102.40625 176.90625 100.253906 C 177.480469 99.289062 177.96875 98.269531 178.390625 97.234375 C 178.503906 96.953125 178.65625 96.101562 178.960938 95.949219 C 179.105469 95.878906 179.210938 96.550781 179.226562 96.625 C 179.40625 97.425781 179.527344 98.238281 179.667969 99.046875 C 180.054688 101.25 180.585938 103.796875 182.828125 104.84375 C 183.355469 105.089844 183.933594 105.183594 184.511719 105.148438 C 184.976562 105.117188 185.4375 104.992188 185.855469 104.789062 C 186.398438 104.527344 187.25 103.976562 187.542969 103.410156 C 187.734375 103.039062 187.636719 102.414062 187.597656 102.023438 Z M 187.597656 102.023438 " fill-opacity="1" fill-rule="evenodd"/><path fill="#000000" d="M 306.347656 25.597656 C 307.070312 25.320312 308.550781 25.8125 309.253906 25.957031 C 312.289062 26.585938 315.21875 27.71875 318.023438 29.035156 C 328.460938 33.941406 336.023438 43.140625 340.699219 53.648438 C 341.871094 56.273438 342.835938 59.035156 343.433594 61.851562 C 343.597656 62.609375 344.078125 63.996094 343.746094 64.78125 C 343.445312 65.453125 342.6875 65.980469 342.171875 66.46875 C 341.066406 67.507812 340.042969 68.425781 338.78125 69.210938 C 337.148438 67.679688 334.859375 66.589844 333.011719 65.3125 C 332.449219 60.757812 330.527344 56.210938 328.550781 52.148438 C 325.183594 45.242188 320.722656 38.910156 315.3125 33.519531 C 312.851562 31.082031 309.367188 27.285156 306.347656 25.597656 Z M 306.347656 25.597656 " fill-opacity="1" fill-rule="evenodd"/><path fill="#000000" d="M 306.347656 122.324219 C 307.070312 122.601562 308.550781 122.109375 309.253906 121.96875 C 312.289062 121.339844 315.21875 120.207031 318.023438 118.886719 C 328.460938 113.984375 336.023438 104.78125 340.699219 94.273438 C 341.871094 91.652344 342.835938 88.886719 343.433594 86.070312 C 343.597656 85.3125 344.078125 83.925781 343.746094 83.144531 C 343.445312 82.46875 342.6875 81.941406 342.171875 81.457031 C 341.066406 80.414062 340.042969 79.496094 338.78125 78.710938 C 337.148438 80.242188 334.859375 81.332031 333.011719 82.609375 C 332.449219 87.164062 330.527344 91.710938 328.550781 95.777344 C 325.183594 102.679688 320.722656 109.011719 315.3125 114.402344 C 312.851562 116.839844 309.367188 120.640625 306.347656 122.324219 Z M 306.347656 122.324219 " fill-opacity="1" fill-rule="evenodd"/><path fill="#000000" d="M 352.03125 67.90625 C 351.746094 68.058594 351.480469 68.207031 351.410156 68.253906 C 349.757812 69.570312 348.125 70.804688 346.273438 71.847656 C 345.640625 72.203125 344.988281 72.5 344.34375 72.832031 C 344.238281 72.886719 343.953125 73.023438 343.804688 73.175781 C 343.597656 73.386719 343.539062 73.636719 343.597656 73.878906 C 343.652344 74.121094 343.824219 74.328125 344.125 74.421875 C 344.355469 74.492188 344.722656 74.476562 344.835938 74.480469 C 345.019531 74.480469 345.585938 74.699219 346.320312 74.996094 C 348.261719 75.769531 351.308594 77.179688 352.710938 77.980469 C 352.871094 78.074219 353.355469 78.40625 353.769531 78.703125 C 353.515625 78.867188 353.25 79.027344 353.113281 79.082031 C 351.722656 79.628906 350.078125 80.179688 349.183594 81.476562 C 348.847656 81.957031 348.746094 82.519531 348.746094 83.109375 C 348.757812 83.8125 348.953125 84.558594 348.976562 85.195312 C 349.03125 86.910156 348.734375 88.402344 347.746094 89.824219 C 346.976562 90.945312 346.019531 92 344.835938 92.675781 C 344.640625 92.789062 342.988281 93.609375 342.988281 93.609375 C 342.757812 93.726562 342.628906 93.984375 342.675781 94.246094 C 342.722656 94.503906 342.941406 94.695312 343.195312 94.714844 C 343.195312 94.714844 345.734375 94.898438 346.492188 94.796875 C 350.398438 94.28125 352.78125 91.746094 354.492188 88.351562 C 354.746094 87.859375 354.929688 87.238281 355.125 86.632812 C 355.296875 86.128906 355.46875 85.636719 355.757812 85.289062 C 356.03125 84.957031 356.433594 84.734375 356.847656 84.519531 C 357.367188 84.25 357.894531 84.003906 358.308594 83.683594 C 359.582031 82.710938 360.480469 81.484375 361.308594 80.113281 C 361.628906 79.574219 361.929688 79.027344 362.214844 78.472656 C 362.363281 78.210938 363.238281 76.5625 363.238281 76.5625 C 363.386719 76.28125 363.285156 75.925781 363.007812 75.773438 C 363.007812 75.773438 362.125 75.285156 361.960938 75.199219 C 361.386719 74.910156 359.800781 74.183594 358.617188 73.644531 C 358.605469 73.640625 363.167969 72.214844 363.167969 72.214844 C 363.457031 72.125 363.628906 71.820312 363.558594 71.523438 C 363.558594 71.523438 363.089844 69.492188 362.125 67.578125 C 361.445312 66.226562 360.515625 64.949219 359.363281 64.371094 C 358.941406 64.160156 358.363281 64 357.824219 63.820312 C 357.386719 63.679688 356.972656 63.539062 356.722656 63.304688 C 356.628906 63.21875 356.617188 63.066406 356.59375 62.917969 C 356.539062 62.628906 356.503906 62.328125 356.445312 62.101562 C 356.160156 61.027344 355.710938 59.949219 355.148438 59 C 352.800781 55.125 346.917969 52.257812 342.710938 52.5 C 342.433594 52.519531 342.207031 52.730469 342.171875 53.007812 C 342.136719 53.285156 342.296875 53.550781 342.5625 53.640625 C 343.917969 54.101562 345.042969 55.433594 346.007812 57.023438 C 347.550781 59.5625 348.617188 62.773438 349.320312 64.621094 C 349.800781 65.894531 350.273438 66.703125 351.398438 67.496094 C 351.605469 67.640625 351.8125 67.78125 352.03125 67.90625 Z M 345.457031 93.660156 C 346.769531 92.902344 347.835938 91.734375 348.6875 90.492188 C 349.824219 88.851562 350.191406 87.132812 350.125 85.152344 C 350.101562 84.617188 349.964844 84.003906 349.917969 83.40625 C 349.871094 82.953125 349.871094 82.507812 350.125 82.148438 C 350.894531 81.039062 352.34375 80.640625 353.527344 80.171875 C 353.917969 80.015625 355.101562 79.191406 355.101562 79.191406 C 355.261719 79.082031 355.34375 78.902344 355.34375 78.714844 C 355.355469 78.523438 355.261719 78.347656 355.113281 78.234375 C 355.113281 78.234375 353.59375 77.144531 353.273438 76.960938 C 351.628906 76.023438 347.804688 74.273438 345.964844 73.609375 C 345.835938 73.566406 345.734375 73.527344 345.617188 73.492188 C 346.03125 73.292969 346.433594 73.089844 346.835938 72.867188 C 348.746094 71.792969 350.410156 70.53125 352.125 69.171875 C 352.261719 69.0625 353.355469 68.566406 353.605469 68.398438 C 353.78125 68.273438 353.835938 68.132812 353.859375 68.066406 C 353.917969 67.914062 353.953125 67.644531 353.675781 67.410156 C 353.582031 67.328125 353.066406 67.117188 353.007812 67.09375 C 352.675781 66.945312 352.355469 66.75 352.054688 66.539062 C 351.148438 65.894531 350.78125 65.234375 350.390625 64.203125 C 349.675781 62.308594 348.574219 59.015625 346.988281 56.410156 C 346.390625 55.40625 345.699219 54.507812 344.953125 53.8125 L 344.953125 53.808594 C 348.445312 54.410156 352.398438 56.695312 354.171875 59.609375 C 354.675781 60.46875 355.078125 61.441406 355.332031 62.410156 C 355.398438 62.664062 355.421875 63.023438 355.503906 63.339844 C 355.582031 63.667969 355.734375 63.957031 355.941406 64.15625 C 356.226562 64.433594 356.664062 64.648438 357.148438 64.824219 C 357.722656 65.03125 358.386719 65.1875 358.859375 65.421875 C 359.800781 65.894531 360.539062 66.992188 361.101562 68.109375 C 361.710938 69.316406 362.101562 70.578125 362.296875 71.265625 C 362.296875 71.265625 356.800781 72.984375 356.800781 72.984375 C 356.582031 73.058594 356.421875 73.265625 356.398438 73.511719 C 356.386719 73.753906 356.527344 73.980469 356.746094 74.078125 C 356.746094 74.078125 360.515625 75.769531 361.445312 76.242188 C 361.515625 76.28125 361.734375 76.402344 361.949219 76.519531 C 361.6875 77.023438 361.308594 77.746094 361.214844 77.914062 C 360.929688 78.449219 360.640625 78.980469 360.320312 79.503906 C 359.570312 80.746094 358.777344 81.867188 357.617188 82.746094 C 357.25 83.03125 356.777344 83.242188 356.320312 83.480469 C 355.769531 83.769531 355.25 84.09375 354.882812 84.535156 C 354.503906 84.984375 354.25 85.609375 354.042969 86.257812 C 353.859375 86.808594 353.699219 87.375 353.480469 87.816406 C 351.941406 90.859375 349.847656 93.179688 346.355469 93.636719 C 346.148438 93.664062 345.824219 93.667969 345.457031 93.660156 Z M 345.457031 93.660156 " fill-opacity="1" fill-rule="evenodd"/><path fill="#000000" d="M 339.125 78.910156 C 339.261719 78.808594 340.089844 78.1875 340.183594 78.113281 C 341.457031 77.0625 343.894531 74.625 345.054688 73.453125 C 345.171875 73.34375 345.226562 73.203125 345.226562 73.050781 C 345.226562 72.921875 345.195312 72.75 345.054688 72.585938 C 344.953125 72.46875 344.699219 72.308594 344.640625 72.265625 C 344.238281 71.964844 343.847656 71.664062 343.445312 71.367188 C 341.917969 70.214844 340.414062 68.933594 338.757812 67.949219 C 338.515625 67.800781 338.195312 67.863281 338.023438 68.09375 C 337.5625 68.691406 336.367188 69.277344 335.734375 69.71875 C 334 70.9375 332.195312 72.054688 330.4375 73.230469 C 330.183594 73.296875 330.078125 73.539062 330.066406 73.589844 C 330.023438 73.714844 329.953125 73.980469 330.207031 74.230469 C 330.242188 74.257812 330.46875 74.386719 330.550781 74.445312 C 330.722656 74.558594 330.894531 74.675781 331.066406 74.796875 C 331.664062 75.210938 332.285156 75.59375 332.90625 75.972656 C 334.699219 77.074219 336.480469 78.214844 338.355469 79.160156 C 338.539062 79.25 338.757812 79.238281 338.929688 79.121094 C 339.011719 79.066406 339.078125 78.996094 339.125 78.910156 Z M 343.792969 73.082031 C 342.550781 74.328125 340.5625 76.296875 339.457031 77.207031 C 339.367188 77.277344 338.828125 77.640625 338.492188 77.917969 C 336.78125 77.03125 335.148438 75.980469 333.492188 74.972656 C 332.894531 74.605469 332.296875 74.234375 331.710938 73.832031 L 331.675781 73.804688 C 333.253906 72.765625 334.839844 71.765625 336.390625 70.683594 C 336.964844 70.28125 337.941406 69.738281 338.5625 69.191406 C 340.03125 70.121094 341.378906 71.269531 342.769531 72.308594 C 343.113281 72.566406 343.457031 72.824219 343.792969 73.082031 Z M 330.515625 74.375 L 330.515625 74.378906 Z M 330.515625 74.375 " fill-opacity="1" fill-rule="evenodd"/><g clip-path="url(#094faf4957)"><path fill="#000000" d="M 363.125 71.597656 L 374.835938 74.21875 L 363.125 76.210938 L 358.214844 73.660156 Z M 363.125 71.597656 " fill-opacity="1" fill-rule="evenodd"/></g><path fill="#000000" d="M 68.558594 20.625 C 67.835938 20.34375 66.351562 20.839844 65.652344 20.980469 C 62.617188 21.609375 59.6875 22.742188 56.882812 24.0625 C 46.445312 28.964844 38.882812 38.167969 34.207031 48.675781 C 33.035156 51.296875 32.066406 54.0625 31.46875 56.875 C 31.308594 57.636719 30.828125 59.023438 31.160156 59.804688 C 31.457031 60.480469 32.21875 61.007812 32.734375 61.492188 C 33.835938 62.535156 34.859375 63.453125 36.125 64.238281 C 37.757812 62.707031 40.042969 61.617188 41.894531 60.339844 C 42.457031 55.785156 44.378906 51.238281 46.355469 47.171875 C 49.722656 40.269531 54.179688 33.9375 59.59375 28.546875 C 62.054688 26.109375 65.535156 22.308594 68.558594 20.625 Z M 68.558594 20.625 " fill-opacity="1" fill-rule="evenodd"/><path fill="#000000" d="M 68.558594 117.351562 C 67.835938 117.628906 66.351562 117.136719 65.652344 116.992188 C 62.617188 116.363281 59.6875 115.230469 56.882812 113.914062 C 46.445312 109.007812 38.882812 99.808594 34.207031 89.300781 C 33.035156 86.675781 32.066406 83.914062 31.46875 81.097656 C 31.308594 80.339844 30.828125 78.953125 31.160156 78.167969 C 31.457031 77.496094 32.21875 76.96875 32.734375 76.480469 C 33.835938 75.441406 34.859375 74.523438 36.125 73.738281 C 37.757812 75.269531 40.042969 76.359375 41.894531 77.636719 C 42.457031 82.191406 44.378906 86.738281 46.355469 90.800781 C 49.722656 97.707031 54.179688 104.035156 59.59375 109.429688 C 62.054688 111.863281 65.535156 115.664062 68.558594 117.351562 Z M 68.558594 117.351562 " fill-opacity="1" fill-rule="evenodd"/><path fill="#000000" d="M 22.875 62.929688 C 23.160156 63.085938 23.425781 63.230469 23.492188 63.277344 C 25.148438 64.597656 26.78125 65.828125 28.632812 66.871094 C 29.261719 67.226562 29.917969 67.523438 30.5625 67.855469 C 30.664062 67.910156 30.953125 68.046875 31.101562 68.203125 C 31.308594 68.414062 31.367188 68.660156 31.308594 68.902344 C 31.25 69.148438 31.078125 69.351562 30.78125 69.445312 C 30.550781 69.519531 30.183594 69.503906 30.066406 69.503906 C 29.882812 69.507812 29.320312 69.726562 28.585938 70.019531 C 26.644531 70.796875 23.597656 72.203125 22.195312 73.003906 C 22.035156 73.097656 21.550781 73.433594 21.136719 73.726562 C 21.390625 73.894531 21.65625 74.054688 21.792969 74.109375 C 23.183594 74.652344 24.828125 75.207031 25.722656 76.503906 C 26.058594 76.984375 26.160156 77.542969 26.160156 78.136719 C 26.148438 78.835938 25.953125 79.585938 25.929688 80.222656 C 25.871094 81.933594 26.171875 83.425781 27.160156 84.847656 C 27.929688 85.96875 28.882812 87.027344 30.066406 87.703125 C 30.261719 87.816406 31.917969 88.632812 31.917969 88.632812 C 32.148438 88.75 32.273438 89.011719 32.230469 89.269531 C 32.183594 89.527344 31.964844 89.722656 31.710938 89.742188 C 31.710938 89.742188 29.171875 89.921875 28.414062 89.820312 C 24.503906 89.308594 22.125 86.773438 20.414062 83.378906 C 20.160156 82.886719 19.976562 82.265625 19.78125 81.660156 C 19.609375 81.15625 19.4375 80.660156 19.148438 80.3125 C 18.875 79.980469 18.472656 79.757812 18.058594 79.542969 C 17.539062 79.277344 17.011719 79.027344 16.597656 78.707031 C 15.320312 77.738281 14.425781 76.511719 13.597656 75.136719 C 13.277344 74.601562 12.976562 74.050781 12.691406 73.5 C 12.539062 73.234375 11.667969 71.585938 11.667969 71.585938 C 11.515625 71.304688 11.621094 70.953125 11.898438 70.796875 C 11.898438 70.796875 12.78125 70.308594 12.941406 70.226562 C 13.515625 69.9375 15.101562 69.207031 16.289062 68.667969 C 16.296875 68.667969 11.734375 67.242188 11.734375 67.242188 C 11.449219 67.148438 11.277344 66.847656 11.34375 66.546875 C 11.34375 66.546875 11.816406 64.519531 12.78125 62.601562 C 13.460938 61.253906 14.390625 59.972656 15.539062 59.398438 C 15.964844 59.1875 16.539062 59.023438 17.082031 58.847656 C 17.515625 58.707031 17.929688 58.566406 18.183594 58.328125 C 18.277344 58.242188 18.289062 58.089844 18.308594 57.945312 C 18.367188 57.65625 18.402344 57.351562 18.460938 57.128906 C 18.746094 56.054688 19.195312 54.976562 19.757812 54.027344 C 22.101562 50.152344 27.988281 47.285156 32.195312 47.527344 C 32.46875 47.542969 32.699219 47.757812 32.734375 48.03125 C 32.769531 48.3125 32.609375 48.574219 32.34375 48.664062 C 30.988281 49.128906 29.859375 50.460938 28.894531 52.046875 C 27.355469 54.585938 26.285156 57.800781 25.585938 59.648438 C 25.101562 60.921875 24.632812 61.726562 23.503906 62.523438 C 23.296875 62.667969 23.089844 62.804688 22.875 62.929688 Z M 29.449219 88.6875 C 28.136719 87.925781 27.066406 86.761719 26.21875 85.519531 C 25.078125 83.875 24.710938 82.15625 24.78125 80.179688 C 24.804688 79.644531 24.941406 79.027344 24.988281 78.429688 C 25.035156 77.980469 25.035156 77.535156 24.78125 77.175781 C 24.011719 76.066406 22.5625 75.664062 21.378906 75.199219 C 20.988281 75.042969 19.804688 74.214844 19.804688 74.214844 C 19.644531 74.105469 19.5625 73.929688 19.5625 73.738281 C 19.550781 73.550781 19.644531 73.371094 19.792969 73.261719 C 19.792969 73.261719 21.308594 72.167969 21.632812 71.988281 C 23.273438 71.050781 27.101562 69.300781 28.941406 68.636719 C 29.066406 68.589844 29.171875 68.550781 29.285156 68.519531 C 28.871094 68.320312 28.46875 68.117188 28.066406 67.894531 C 26.160156 66.820312 24.492188 65.554688 22.78125 64.199219 C 22.644531 64.085938 21.550781 63.59375 21.296875 63.421875 C 21.125 63.296875 21.070312 63.160156 21.046875 63.09375 C 20.988281 62.941406 20.953125 62.667969 21.230469 62.433594 C 21.320312 62.355469 21.839844 62.140625 21.894531 62.117188 C 22.230469 61.972656 22.550781 61.777344 22.851562 61.5625 C 23.757812 60.921875 24.125 60.257812 24.515625 59.230469 C 25.230469 57.332031 26.332031 54.039062 27.917969 51.433594 C 28.515625 50.433594 29.207031 49.535156 29.953125 48.835938 L 29.953125 48.832031 C 26.460938 49.433594 22.503906 51.722656 20.734375 54.636719 C 20.230469 55.492188 19.828125 56.46875 19.574219 57.4375 C 19.503906 57.691406 19.484375 58.050781 19.402344 58.367188 C 19.320312 58.695312 19.171875 58.984375 18.964844 59.183594 C 18.679688 59.460938 18.242188 59.671875 17.757812 59.847656 C 17.183594 60.058594 16.515625 60.210938 16.046875 60.445312 C 15.101562 60.921875 14.367188 62.015625 13.804688 63.132812 C 13.195312 64.34375 12.804688 65.601562 12.609375 66.289062 C 12.609375 66.289062 18.101562 68.011719 18.101562 68.011719 C 18.320312 68.082031 18.484375 68.292969 18.503906 68.535156 C 18.515625 68.777344 18.378906 69.003906 18.160156 69.101562 C 18.160156 69.101562 14.390625 70.792969 13.460938 71.269531 C 13.390625 71.304688 13.171875 71.425781 12.953125 71.546875 C 13.21875 72.050781 13.597656 72.769531 13.691406 72.9375 C 13.976562 73.472656 14.265625 74.007812 14.585938 74.527344 C 15.332031 75.773438 16.125 76.894531 17.289062 77.773438 C 17.65625 78.054688 18.125 78.269531 18.585938 78.503906 C 19.136719 78.792969 19.65625 79.117188 20.023438 79.558594 C 20.402344 80.011719 20.65625 80.636719 20.863281 81.285156 C 21.046875 81.832031 21.207031 82.398438 21.425781 82.84375 C 22.964844 85.882812 25.058594 88.203125 28.550781 88.664062 C 28.757812 88.691406 29.078125 88.695312 29.449219 88.6875 Z M 29.449219 88.6875 " fill-opacity="1" fill-rule="evenodd"/><path fill="#000000" d="M 35.78125 73.9375 C 35.640625 73.832031 34.816406 73.214844 34.722656 73.140625 C 33.445312 72.089844 31.011719 69.652344 29.847656 68.476562 C 29.734375 68.371094 29.675781 68.226562 29.675781 68.078125 C 29.675781 67.949219 29.710938 67.773438 29.847656 67.613281 C 29.953125 67.496094 30.207031 67.332031 30.261719 67.289062 C 30.664062 66.988281 31.054688 66.691406 31.457031 66.394531 C 32.988281 65.238281 34.492188 63.960938 36.148438 62.976562 C 36.390625 62.824219 36.710938 62.886719 36.882812 63.121094 C 37.34375 63.714844 38.539062 64.304688 39.171875 64.746094 C 40.90625 65.960938 42.710938 67.082031 44.46875 68.257812 C 44.722656 68.320312 44.824219 68.566406 44.835938 68.617188 C 44.882812 68.738281 44.953125 69.003906 44.699219 69.253906 C 44.664062 69.28125 44.433594 69.410156 44.355469 69.46875 C 44.183594 69.585938 44.007812 69.703125 43.835938 69.820312 C 43.238281 70.234375 42.617188 70.621094 42 71 C 40.207031 72.097656 38.421875 73.242188 36.550781 74.183594 C 36.367188 74.277344 36.148438 74.261719 35.976562 74.148438 C 35.894531 74.09375 35.824219 74.019531 35.78125 73.9375 Z M 31.113281 68.109375 C 32.355469 69.351562 34.34375 71.324219 35.445312 72.230469 C 35.539062 72.304688 36.078125 72.667969 36.414062 72.945312 C 38.125 72.054688 39.757812 71.007812 41.410156 69.996094 C 42.007812 69.628906 42.605469 69.257812 43.191406 68.855469 L 43.226562 68.828125 C 41.652344 67.792969 40.066406 66.789062 38.515625 65.707031 C 37.941406 65.304688 36.964844 64.765625 36.34375 64.214844 C 34.871094 65.144531 33.527344 66.292969 32.136719 67.332031 C 31.792969 67.589844 31.445312 67.847656 31.113281 68.109375 Z M 44.390625 69.402344 Z M 44.390625 69.402344 " fill-opacity="1" fill-rule="evenodd"/><g clip-path="url(#e6f0b56206)"><path fill="#000000" d="M 11.78125 66.621094 L 0.0703125 69.242188 L 11.78125 71.234375 L 16.691406 68.683594 Z M 11.78125 66.621094 " fill-opacity="1" fill-rule="evenodd"/></g><path fill="#000000" d="M 104.253906 65.6875 C 107.214844 64.132812 110.972656 62.734375 113.03125 61.878906 C 117.773438 59.902344 185.765625 33.394531 185.964844 34.042969 C 186.066406 34.367188 185.324219 38.1875 185.324219 38.1875 C 185.324219 38.1875 177.871094 41.476562 172.390625 43.390625 C 158.023438 48.414062 144.902344 53.4375 130.652344 58.792969 C 123.578125 61.457031 116.492188 64.085938 109.460938 66.855469 C 107.816406 67.503906 106.160156 68.128906 104.511719 68.769531 C 104.1875 68.898438 103.085938 69.566406 102.726562 69.410156 C 102.496094 69.3125 104.144531 65.871094 104.253906 65.6875 Z M 104.253906 65.6875 " fill-opacity="1" fill-rule="evenodd"/><path fill="#000000" d="M 106.019531 83.386719 C 108.980469 81.835938 112.742188 80.4375 114.800781 79.582031 C 119.542969 77.601562 187.53125 51.097656 187.734375 51.746094 C 187.835938 52.066406 187.09375 55.886719 187.09375 55.886719 C 187.09375 55.886719 179.640625 59.179688 174.160156 61.09375 C 159.789062 66.117188 146.667969 71.136719 132.421875 76.496094 C 125.347656 79.15625 118.261719 81.789062 111.230469 84.558594 C 109.582031 85.207031 107.929688 85.832031 106.277344 86.472656 C 105.953125 86.597656 104.855469 87.269531 104.496094 87.113281 C 104.265625 87.011719 105.914062 83.574219 106.019531 83.386719 Z M 106.019531 83.386719 " fill-opacity="1" fill-rule="evenodd"/></svg>