<svg xmlns="http://www.w3.org/2000/svg" xmlns:xlink="http://www.w3.org/1999/xlink" width="500" zoomAndPan="magnify" viewBox="0 0 375 149.999998" height="200" preserveAspectRatio="xMidYMid meet" version="1.0"><defs><clipPath id="dbac2dbfb0"><path d="M 69 70 L 172 70 L 172 137.15625 L 69 137.15625 Z M 69 70 " clip-rule="nonzero"/></clipPath><clipPath id="322cf4578f"><path d="M 168 12.65625 L 209 12.65625 L 209 109 L 168 109 Z M 168 12.65625 " clip-rule="nonzero"/></clipPath></defs><path fill="#000000" d="M 306.453125 19.988281 C 307.175781 19.679688 308.660156 20.226562 309.363281 20.386719 C 312.398438 21.085938 315.332031 22.34375 318.136719 23.804688 C 328.582031 29.25 336.148438 39.464844 340.832031 51.128906 C 342.003906 54.042969 342.972656 57.109375 343.570312 60.234375 C 343.730469 61.078125 344.214844 62.617188 343.878906 63.488281 C 343.582031 64.234375 342.820312 64.820312 342.304688 65.359375 C 341.199219 66.515625 340.175781 67.535156 338.910156 68.40625 C 337.277344 66.707031 334.988281 65.496094 333.136719 64.078125 C 332.574219 59.023438 330.652344 53.972656 328.675781 49.464844 C 325.304688 41.796875 320.839844 34.769531 315.421875 28.785156 C 312.960938 26.078125 309.476562 21.859375 306.453125 19.988281 Z M 306.453125 19.988281 " fill-opacity="1" fill-rule="evenodd"/><path fill="#000000" d="M 306.453125 127.371094 C 307.175781 127.679688 308.660156 127.132812 309.363281 126.976562 C 312.398438 126.277344 315.332031 125.019531 318.136719 123.554688 C 328.582031 118.113281 336.148438 107.898438 340.832031 96.230469 C 342.003906 93.320312 342.972656 90.25 343.570312 87.125 C 343.730469 86.28125 344.214844 84.742188 343.878906 83.875 C 343.582031 83.125 342.820312 82.539062 342.304688 82 C 341.199219 80.84375 340.175781 79.824219 338.910156 78.953125 C 337.277344 80.652344 334.988281 81.863281 333.136719 83.28125 C 332.574219 88.335938 330.652344 93.386719 328.675781 97.898438 C 325.304688 105.5625 320.839844 112.59375 315.421875 118.578125 C 312.960938 121.28125 309.476562 125.5 306.453125 127.371094 Z M 306.453125 127.371094 " fill-opacity="1" fill-rule="evenodd"/><path fill="#000000" d="M 352.171875 66.957031 C 351.886719 67.128906 351.621094 67.289062 351.550781 67.34375 C 349.894531 68.804688 348.261719 70.171875 346.410156 71.332031 C 345.777344 71.726562 345.121094 72.058594 344.476562 72.425781 C 344.375 72.484375 344.085938 72.636719 343.9375 72.808594 C 343.730469 73.042969 343.671875 73.320312 343.730469 73.589844 C 343.789062 73.859375 343.960938 74.085938 344.257812 74.191406 C 344.488281 74.269531 344.855469 74.253906 344.972656 74.253906 C 345.15625 74.257812 345.71875 74.5 346.457031 74.828125 C 348.398438 75.691406 351.449219 77.253906 352.851562 78.140625 C 353.011719 78.246094 353.496094 78.617188 353.910156 78.941406 C 353.65625 79.128906 353.390625 79.304688 353.253906 79.367188 C 351.863281 79.972656 350.21875 80.585938 349.320312 82.023438 C 348.988281 82.558594 348.882812 83.179688 348.882812 83.835938 C 348.894531 84.617188 349.089844 85.445312 349.113281 86.152344 C 349.171875 88.054688 348.871094 89.710938 347.882812 91.289062 C 347.113281 92.535156 346.15625 93.707031 344.972656 94.457031 C 344.777344 94.582031 343.121094 95.492188 343.121094 95.492188 C 342.890625 95.621094 342.765625 95.910156 342.808594 96.199219 C 342.855469 96.484375 343.074219 96.699219 343.328125 96.722656 C 343.328125 96.722656 345.871094 96.921875 346.628906 96.808594 C 350.539062 96.242188 352.921875 93.425781 354.632812 89.65625 C 354.886719 89.109375 355.070312 88.421875 355.265625 87.75 C 355.4375 87.191406 355.613281 86.640625 355.898438 86.253906 C 356.175781 85.886719 356.578125 85.640625 356.992188 85.402344 C 357.507812 85.105469 358.039062 84.828125 358.453125 84.472656 C 359.730469 83.394531 360.625 82.03125 361.453125 80.507812 C 361.777344 79.914062 362.074219 79.300781 362.363281 78.691406 C 362.511719 78.394531 363.386719 76.566406 363.386719 76.566406 C 363.535156 76.253906 363.433594 75.863281 363.15625 75.691406 C 363.15625 75.691406 362.269531 75.148438 362.109375 75.054688 C 361.535156 74.734375 359.949219 73.925781 358.761719 73.328125 C 358.75 73.324219 363.316406 71.742188 363.316406 71.742188 C 363.605469 71.640625 363.777344 71.304688 363.710938 70.972656 C 363.710938 70.972656 363.238281 68.71875 362.269531 66.59375 C 361.59375 65.09375 360.660156 63.671875 359.511719 63.035156 C 359.085938 62.800781 358.511719 62.621094 357.96875 62.421875 C 357.53125 62.265625 357.117188 62.109375 356.863281 61.847656 C 356.773438 61.753906 356.761719 61.585938 356.738281 61.421875 C 356.679688 61.097656 356.648438 60.765625 356.589844 60.515625 C 356.300781 59.324219 355.851562 58.125 355.289062 57.070312 C 352.941406 52.769531 347.054688 49.585938 342.84375 49.855469 C 342.566406 49.875 342.339844 50.109375 342.304688 50.417969 C 342.269531 50.726562 342.429688 51.019531 342.695312 51.117188 C 344.050781 51.632812 345.179688 53.113281 346.144531 54.875 C 347.6875 57.695312 348.757812 61.261719 349.457031 63.3125 C 349.941406 64.726562 350.414062 65.621094 351.539062 66.503906 C 351.746094 66.664062 351.953125 66.816406 352.171875 66.957031 Z M 345.59375 95.550781 C 346.90625 94.707031 347.972656 93.414062 348.824219 92.03125 C 349.964844 90.210938 350.332031 88.300781 350.261719 86.105469 C 350.242188 85.511719 350.101562 84.828125 350.054688 84.164062 C 350.011719 83.664062 350.011719 83.171875 350.261719 82.769531 C 351.035156 81.539062 352.484375 81.09375 353.667969 80.578125 C 354.058594 80.402344 355.242188 79.484375 355.242188 79.484375 C 355.40625 79.363281 355.484375 79.167969 355.484375 78.957031 C 355.496094 78.746094 355.40625 78.546875 355.253906 78.425781 C 355.253906 78.425781 353.738281 77.210938 353.414062 77.011719 C 351.769531 75.96875 347.941406 74.027344 346.097656 73.289062 C 345.972656 73.242188 345.871094 73.199219 345.753906 73.160156 C 346.167969 72.9375 346.570312 72.714844 346.972656 72.464844 C 348.882812 71.273438 350.550781 69.871094 352.265625 68.363281 C 352.402344 68.242188 353.496094 67.691406 353.75 67.503906 C 353.921875 67.363281 353.976562 67.210938 354 67.136719 C 354.058594 66.96875 354.09375 66.667969 353.816406 66.40625 C 353.726562 66.316406 353.207031 66.082031 353.148438 66.054688 C 352.816406 65.890625 352.496094 65.675781 352.195312 65.4375 C 351.285156 64.726562 350.917969 63.988281 350.527344 62.847656 C 349.8125 60.742188 348.710938 57.085938 347.125 54.195312 C 346.523438 53.082031 345.835938 52.085938 345.085938 51.308594 C 348.582031 51.972656 352.539062 54.511719 354.3125 57.75 C 354.816406 58.699219 355.21875 59.78125 355.472656 60.859375 C 355.542969 61.136719 355.566406 61.539062 355.644531 61.890625 C 355.726562 62.253906 355.875 62.574219 356.082031 62.796875 C 356.371094 63.101562 356.808594 63.339844 357.289062 63.535156 C 357.867188 63.765625 358.53125 63.9375 359.003906 64.199219 C 359.949219 64.726562 360.683594 65.941406 361.246094 67.183594 C 361.855469 68.527344 362.25 69.921875 362.445312 70.6875 C 362.445312 70.6875 356.945312 72.597656 356.945312 72.597656 C 356.726562 72.675781 356.566406 72.910156 356.542969 73.179688 C 356.53125 73.449219 356.667969 73.699219 356.886719 73.808594 C 356.886719 73.808594 360.660156 75.6875 361.59375 76.214844 C 361.660156 76.253906 361.878906 76.390625 362.097656 76.519531 C 361.835938 77.082031 361.453125 77.882812 361.363281 78.066406 C 361.074219 78.660156 360.789062 79.253906 360.464844 79.832031 C 359.71875 81.214844 358.925781 82.457031 357.761719 83.433594 C 357.394531 83.75 356.921875 83.984375 356.460938 84.246094 C 355.910156 84.566406 355.394531 84.925781 355.023438 85.417969 C 354.644531 85.917969 354.390625 86.613281 354.183594 87.332031 C 354 87.941406 353.839844 88.570312 353.621094 89.0625 C 352.082031 92.4375 349.988281 95.015625 346.492188 95.523438 C 346.285156 95.554688 345.960938 95.558594 345.59375 95.550781 Z M 345.59375 95.550781 " fill-opacity="1" fill-rule="evenodd"/><path fill="#000000" d="M 339.253906 79.175781 C 339.394531 79.058594 340.222656 78.375 340.3125 78.289062 C 341.589844 77.125 344.027344 74.417969 345.191406 73.113281 C 345.304688 72.996094 345.363281 72.835938 345.363281 72.667969 C 345.363281 72.527344 345.328125 72.335938 345.191406 72.15625 C 345.085938 72.027344 344.835938 71.84375 344.777344 71.796875 C 344.375 71.460938 343.984375 71.132812 343.582031 70.800781 C 342.050781 69.519531 340.542969 68.101562 338.886719 67.007812 C 338.644531 66.839844 338.324219 66.910156 338.152344 67.167969 C 337.691406 67.828125 336.496094 68.480469 335.863281 68.972656 C 334.125 70.324219 332.320312 71.5625 330.558594 72.871094 C 330.308594 72.941406 330.203125 73.214844 330.191406 73.269531 C 330.144531 73.40625 330.078125 73.699219 330.328125 73.976562 C 330.363281 74.007812 330.59375 74.152344 330.675781 74.214844 C 330.847656 74.34375 331.019531 74.472656 331.191406 74.605469 C 331.789062 75.066406 332.410156 75.492188 333.03125 75.914062 C 334.828125 77.132812 336.609375 78.402344 338.484375 79.449219 C 338.667969 79.550781 338.886719 79.535156 339.058594 79.410156 C 339.140625 79.347656 339.210938 79.269531 339.253906 79.175781 Z M 343.925781 72.703125 C 342.683594 74.085938 340.695312 76.273438 339.589844 77.285156 C 339.496094 77.363281 338.957031 77.765625 338.621094 78.074219 C 336.910156 77.085938 335.277344 75.921875 333.621094 74.804688 C 333.023438 74.394531 332.421875 73.980469 331.835938 73.535156 L 331.800781 73.503906 C 333.378906 72.355469 334.964844 71.242188 336.519531 70.039062 C 337.09375 69.59375 338.070312 68.992188 338.691406 68.382812 C 340.164062 69.414062 341.511719 70.691406 342.902344 71.84375 C 343.246094 72.128906 343.59375 72.417969 343.925781 72.703125 Z M 330.640625 74.140625 L 330.640625 74.144531 Z M 330.640625 74.140625 " fill-opacity="1" fill-rule="evenodd"/><path fill="#000000" d="M 363.273438 71.054688 L 374.992188 73.964844 L 363.273438 76.175781 L 358.359375 73.34375 Z M 363.273438 71.054688 " fill-opacity="1" fill-rule="evenodd"/><path fill="#000000" d="M 68.5 14.46875 C 67.773438 14.15625 66.289062 14.703125 65.589844 14.863281 C 62.550781 15.5625 59.621094 16.820312 56.8125 18.28125 C 46.367188 23.726562 38.800781 33.941406 34.117188 45.609375 C 32.945312 48.519531 31.980469 51.585938 31.382812 54.714844 C 31.21875 55.554688 30.738281 57.09375 31.070312 57.964844 C 31.371094 58.714844 32.128906 59.296875 32.648438 59.839844 C 33.75 60.996094 34.773438 62.015625 36.039062 62.886719 C 37.671875 61.183594 39.960938 59.976562 41.8125 58.558594 C 42.378906 53.5 44.296875 48.453125 46.277344 43.941406 C 49.648438 36.277344 54.109375 29.246094 59.527344 23.261719 C 61.988281 20.554688 65.472656 16.335938 68.5 14.46875 Z M 68.5 14.46875 " fill-opacity="1" fill-rule="evenodd"/><path fill="#000000" d="M 68.5 121.847656 C 67.773438 122.160156 66.289062 121.613281 65.589844 121.453125 C 62.550781 120.753906 59.621094 119.496094 56.8125 118.03125 C 46.367188 112.589844 38.800781 102.375 34.117188 90.707031 C 32.945312 87.796875 31.980469 84.730469 31.382812 81.601562 C 31.21875 80.761719 30.738281 79.21875 31.070312 78.351562 C 31.371094 77.601562 32.128906 77.019531 32.648438 76.476562 C 33.75 75.320312 34.773438 74.300781 36.039062 73.429688 C 37.671875 75.132812 39.960938 76.339844 41.8125 77.757812 C 42.378906 82.816406 44.296875 87.863281 46.277344 92.375 C 49.648438 100.039062 54.109375 107.070312 59.527344 113.054688 C 61.988281 115.761719 65.472656 119.980469 68.5 121.847656 Z M 68.5 121.847656 " fill-opacity="1" fill-rule="evenodd"/><path fill="#000000" d="M 22.777344 61.433594 C 23.066406 61.605469 23.332031 61.765625 23.398438 61.820312 C 25.054688 63.28125 26.6875 64.652344 28.539062 65.808594 C 29.171875 66.203125 29.828125 66.535156 30.472656 66.902344 C 30.578125 66.964844 30.863281 67.113281 31.011719 67.289062 C 31.21875 67.519531 31.277344 67.796875 31.21875 68.066406 C 31.164062 68.335938 30.992188 68.5625 30.691406 68.667969 C 30.460938 68.746094 30.09375 68.730469 29.976562 68.734375 C 29.792969 68.734375 29.230469 68.976562 28.496094 69.304688 C 26.550781 70.167969 23.503906 71.730469 22.097656 72.621094 C 21.9375 72.722656 21.457031 73.09375 21.042969 73.421875 C 21.292969 73.605469 21.558594 73.78125 21.695312 73.84375 C 23.089844 74.449219 24.734375 75.0625 25.628906 76.5 C 25.964844 77.035156 26.066406 77.65625 26.066406 78.3125 C 26.054688 79.09375 25.859375 79.921875 25.835938 80.628906 C 25.78125 82.53125 26.078125 84.191406 27.066406 85.769531 C 27.839844 87.011719 28.792969 88.1875 29.976562 88.933594 C 30.171875 89.058594 31.832031 89.96875 31.832031 89.96875 C 32.058594 90.097656 32.1875 90.386719 32.140625 90.675781 C 32.09375 90.964844 31.875 91.175781 31.625 91.199219 C 31.625 91.199219 29.082031 91.402344 28.320312 91.289062 C 24.410156 90.71875 22.03125 87.902344 20.316406 84.132812 C 20.0625 83.589844 19.878906 82.898438 19.683594 82.226562 C 19.511719 81.667969 19.339844 81.117188 19.050781 80.730469 C 18.773438 80.363281 18.371094 80.117188 17.957031 79.878906 C 17.441406 79.582031 16.910156 79.304688 16.496094 78.949219 C 15.222656 77.875 14.324219 76.511719 13.496094 74.984375 C 13.175781 74.390625 12.875 73.78125 12.585938 73.167969 C 12.4375 72.875 11.5625 71.046875 11.5625 71.046875 C 11.414062 70.730469 11.515625 70.339844 11.792969 70.167969 C 11.792969 70.167969 12.679688 69.625 12.839844 69.53125 C 13.414062 69.214844 15.003906 68.402344 16.1875 67.804688 C 16.199219 67.804688 11.632812 66.21875 11.632812 66.21875 C 11.34375 66.117188 11.171875 65.78125 11.242188 65.449219 C 11.242188 65.449219 11.714844 63.199219 12.679688 61.070312 C 13.359375 59.570312 14.289062 58.152344 15.441406 57.511719 C 15.867188 57.277344 16.441406 57.097656 16.980469 56.898438 C 17.417969 56.742188 17.832031 56.589844 18.085938 56.324219 C 18.175781 56.230469 18.1875 56.0625 18.210938 55.898438 C 18.269531 55.578125 18.304688 55.242188 18.359375 54.992188 C 18.648438 53.800781 19.097656 52.601562 19.660156 51.550781 C 22.007812 47.246094 27.898438 44.066406 32.105469 44.332031 C 32.382812 44.351562 32.613281 44.585938 32.648438 44.894531 C 32.679688 45.203125 32.519531 45.496094 32.253906 45.597656 C 30.898438 46.109375 29.769531 47.589844 28.804688 49.351562 C 27.265625 52.171875 26.195312 55.738281 25.492188 57.789062 C 25.007812 59.203125 24.539062 60.097656 23.410156 60.980469 C 23.203125 61.140625 22.996094 61.296875 22.777344 61.433594 Z M 29.355469 90.027344 C 28.046875 89.183594 26.976562 87.890625 26.125 86.511719 C 24.988281 84.6875 24.617188 82.78125 24.6875 80.582031 C 24.710938 79.988281 24.847656 79.304688 24.894531 78.640625 C 24.941406 78.140625 24.941406 77.648438 24.6875 77.246094 C 23.917969 76.015625 22.46875 75.570312 21.28125 75.054688 C 20.890625 74.878906 19.707031 73.960938 19.707031 73.960938 C 19.546875 73.84375 19.464844 73.644531 19.464844 73.433594 C 19.453125 73.222656 19.546875 73.023438 19.695312 72.902344 C 19.695312 72.902344 21.214844 71.691406 21.535156 71.488281 C 23.179688 70.449219 27.011719 68.507812 28.851562 67.765625 C 28.976562 67.71875 29.082031 67.675781 29.195312 67.636719 C 28.78125 67.414062 28.378906 67.191406 27.976562 66.945312 C 26.066406 65.753906 24.398438 64.347656 22.6875 62.84375 C 22.546875 62.71875 21.457031 62.167969 21.203125 61.980469 C 21.03125 61.84375 20.972656 61.6875 20.949219 61.613281 C 20.890625 61.445312 20.855469 61.144531 21.132812 60.882812 C 21.226562 60.792969 21.742188 60.558594 21.800781 60.53125 C 22.132812 60.371094 22.457031 60.152344 22.753906 59.914062 C 23.664062 59.203125 24.03125 58.46875 24.421875 57.328125 C 25.136719 55.21875 26.238281 51.566406 27.828125 48.671875 C 28.425781 47.558594 29.117188 46.5625 29.863281 45.785156 C 26.367188 46.449219 22.410156 48.988281 20.640625 52.226562 C 20.132812 53.179688 19.730469 54.257812 19.476562 55.335938 C 19.40625 55.617188 19.386719 56.015625 19.304688 56.367188 C 19.222656 56.730469 19.074219 57.050781 18.867188 57.273438 C 18.578125 57.582031 18.144531 57.816406 17.660156 58.011719 C 17.085938 58.246094 16.417969 58.417969 15.945312 58.675781 C 15.003906 59.203125 14.265625 60.417969 13.703125 61.660156 C 13.09375 63.003906 12.703125 64.402344 12.507812 65.164062 C 12.507812 65.164062 18.003906 67.074219 18.003906 67.074219 C 18.222656 67.15625 18.382812 67.386719 18.40625 67.65625 C 18.417969 67.925781 18.28125 68.179688 18.0625 68.285156 C 18.0625 68.285156 14.289062 70.164062 13.359375 70.691406 C 13.289062 70.734375 13.070312 70.867188 12.851562 71 C 13.117188 71.558594 13.496094 72.359375 13.589844 72.542969 C 13.875 73.140625 14.164062 73.730469 14.484375 74.308594 C 15.234375 75.691406 16.027344 76.9375 17.1875 77.914062 C 17.554688 78.226562 18.027344 78.460938 18.488281 78.726562 C 19.039062 79.046875 19.558594 79.40625 19.925781 79.894531 C 20.304688 80.394531 20.558594 81.089844 20.765625 81.808594 C 20.949219 82.417969 21.109375 83.046875 21.328125 83.542969 C 22.871094 86.917969 24.964844 89.492188 28.460938 90 C 28.667969 90.03125 28.988281 90.035156 29.355469 90.027344 Z M 29.355469 90.027344 " fill-opacity="1" fill-rule="evenodd"/><path fill="#000000" d="M 35.695312 73.652344 C 35.558594 73.539062 34.730469 72.851562 34.636719 72.765625 C 33.359375 71.601562 30.921875 68.894531 29.761719 67.59375 C 29.644531 67.472656 29.585938 67.316406 29.585938 67.148438 C 29.585938 67.003906 29.621094 66.8125 29.761719 66.632812 C 29.863281 66.503906 30.117188 66.324219 30.171875 66.273438 C 30.578125 65.941406 30.96875 65.609375 31.371094 65.277344 C 32.898438 63.996094 34.40625 62.578125 36.0625 61.484375 C 36.304688 61.316406 36.625 61.386719 36.800781 61.644531 C 37.257812 62.308594 38.457031 62.960938 39.085938 63.449219 C 40.824219 64.800781 42.628906 66.042969 44.390625 67.347656 C 44.644531 67.417969 44.746094 67.691406 44.757812 67.746094 C 44.804688 67.882812 44.875 68.175781 44.621094 68.457031 C 44.585938 68.484375 44.355469 68.628906 44.277344 68.691406 C 44.101562 68.824219 43.929688 68.949219 43.757812 69.082031 C 43.160156 69.542969 42.539062 69.96875 41.917969 70.390625 C 40.125 71.613281 38.339844 72.878906 36.464844 73.925781 C 36.28125 74.03125 36.0625 74.015625 35.890625 73.886719 C 35.808594 73.828125 35.742188 73.746094 35.695312 73.652344 Z M 31.023438 67.183594 C 32.265625 68.566406 34.257812 70.75 35.363281 71.761719 C 35.453125 71.839844 35.992188 72.242188 36.328125 72.550781 C 38.042969 71.5625 39.675781 70.402344 41.332031 69.28125 C 41.929688 68.871094 42.527344 68.460938 43.113281 68.011719 L 43.148438 67.980469 C 41.574219 66.832031 39.984375 65.71875 38.433594 64.519531 C 37.855469 64.070312 36.878906 63.46875 36.257812 62.863281 C 34.785156 63.894531 33.441406 65.167969 32.046875 66.324219 C 31.703125 66.609375 31.359375 66.894531 31.023438 67.183594 Z M 44.308594 68.617188 L 44.308594 68.621094 Z M 44.308594 68.617188 " fill-opacity="1" fill-rule="evenodd"/><path fill="#000000" d="M 11.679688 65.53125 L -0.0429688 68.441406 L 11.679688 70.65625 L 16.589844 67.820312 Z M 11.679688 65.53125 " fill-opacity="1" fill-rule="evenodd"/><path fill="#000000" d="M 129.660156 24.167969 C 129.617188 24.203125 129.707031 24.070312 129.726562 24.023438 C 129.773438 23.921875 129.820312 23.816406 129.863281 23.714844 C 130.007812 23.394531 130.152344 23.078125 130.289062 22.753906 C 130.679688 21.839844 131.125 20.9375 131.507812 20.023438 C 131.507812 20.089844 131.613281 20.207031 131.644531 20.265625 C 131.734375 20.449219 131.8125 20.636719 131.894531 20.820312 C 132.175781 21.441406 132.429688 22.074219 132.695312 22.703125 C 133.785156 25.269531 135.011719 27.800781 135.996094 30.40625 C 136.152344 30.816406 136.300781 31.226562 136.433594 31.644531 C 136.507812 31.882812 136.582031 32.128906 136.636719 32.375 C 136.667969 32.507812 136.691406 32.640625 136.707031 32.777344 C 136.714844 32.867188 136.71875 32.953125 136.71875 33.042969 C 136.714844 33.097656 136.710938 33.152344 136.695312 33.203125 C 136.539062 33.753906 135.9375 32.996094 135.785156 32.839844 C 135.71875 32.769531 135.648438 32.703125 135.582031 32.636719 C 135.503906 32.558594 135.429688 32.480469 135.351562 32.40625 C 135.246094 32.300781 135.140625 32.191406 135.035156 32.085938 C 134.894531 31.945312 134.753906 31.800781 134.613281 31.65625 C 134.472656 31.511719 134.328125 31.367188 134.195312 31.21875 C 134.144531 31.160156 134.199219 31.363281 134.207031 31.4375 C 134.226562 31.613281 134.246094 31.789062 134.261719 31.964844 C 134.3125 32.425781 134.367188 32.886719 134.433594 33.347656 C 134.625 34.703125 134.847656 36.050781 135.050781 37.402344 C 135.660156 41.492188 136.15625 45.613281 136.621094 49.722656 C 136.523438 49.699219 136.660156 49.914062 136.675781 50.011719 C 136.714844 50.242188 136.738281 50.472656 136.769531 50.707031 C 136.859375 51.339844 136.945312 51.976562 137.027344 52.613281 C 137.269531 54.453125 137.503906 56.292969 137.707031 58.136719 C 138.496094 65.273438 139.949219 72.859375 138.738281 80.058594 C 138.476562 81.617188 138.3125 83.398438 137.460938 84.792969 C 137.34375 84.980469 136.75 86.015625 136.441406 85.988281 C 136.375 85.984375 136.351562 85.914062 136.335938 85.863281 C 136.066406 84.964844 136.414062 83.632812 136.410156 82.714844 C 136.386719 79.050781 136.195312 75.414062 135.816406 71.769531 C 134.535156 59.457031 130.46875 28.660156 130.382812 25.765625 C 130.382812 25.765625 130.195312 25.363281 130.175781 25.328125 C 130.039062 25.039062 129.804688 24.453125 129.660156 24.167969 Z M 129.660156 24.167969 " fill-opacity="1" fill-rule="evenodd"/><g clip-path="url(#dbac2dbfb0)"><path fill="#000000" d="M 127.492188 100.910156 C 126.800781 101.417969 128.855469 97.550781 129.109375 97.0625 C 129.878906 95.589844 130.910156 94.300781 131.796875 92.898438 C 134.632812 88.40625 138.042969 84.199219 141.8125 80.457031 C 145.558594 76.730469 150.207031 72.535156 155.492188 71.269531 C 161.199219 69.894531 168.039062 72.65625 170.597656 78.140625 C 171.382812 79.824219 171.546875 81.757812 171.566406 83.589844 C 171.632812 83.625 171.441406 84.195312 171.425781 84.242188 C 171.199219 84.992188 170.894531 85.714844 170.535156 86.40625 C 168.945312 89.480469 166.03125 91.292969 163.078125 92.921875 C 151.386719 99.386719 137.949219 103.132812 125.273438 107.160156 C 122.941406 107.902344 120.617188 109.324219 118.457031 110.449219 C 111.515625 114.074219 105.597656 118.640625 100.144531 124.25 C 95.035156 129.511719 89.679688 137.238281 81.414062 137.175781 C 79.972656 137.164062 78.53125 136.875 77.171875 136.402344 C 67.90625 133.167969 69.234375 122.003906 71.75 114.53125 C 72.636719 111.898438 73.886719 109.386719 75.457031 107.09375 C 75.835938 106.539062 76.527344 105.257812 77.273438 105.097656 C 77.789062 104.984375 77.003906 107.265625 76.949219 107.457031 C 76.242188 110.023438 75.378906 112.550781 74.710938 115.128906 C 73.367188 120.308594 72.25 127.140625 78.304688 129.53125 C 79.1875 129.878906 80.125 130.066406 81.066406 130.152344 C 88.671875 130.878906 94.570312 123.933594 99.160156 118.875 C 104.988281 112.449219 111.140625 107 119.347656 103.863281 C 131.207031 99.324219 143.609375 96.175781 155.570312 91.882812 C 158.75 90.746094 162.148438 89.558594 164.925781 87.582031 C 165.773438 86.976562 167.117188 86.042969 167.273438 84.902344 C 167.363281 84.222656 165.34375 79.699219 162.140625 78.074219 C 159.433594 76.703125 155.203125 77.710938 153.734375 78.089844 C 144.871094 80.367188 133.53125 95.207031 128.277344 100.695312 C 127.835938 101.160156 127.851562 100.644531 127.492188 100.910156 Z M 127.492188 100.910156 " fill-opacity="1" fill-rule="evenodd"/></g><path fill="#000000" d="M 291.0625 79.554688 C 291.085938 79.539062 291.097656 79.519531 291.074219 79.488281 C 291.0625 79.511719 291.0625 79.535156 291.0625 79.554688 C 290.988281 79.597656 290.746094 79.601562 290.648438 79.652344 C 290.328125 79.8125 290.019531 79.980469 289.714844 80.152344 C 288.769531 80.671875 287.914062 81.277344 287.070312 81.929688 C 284.71875 83.734375 282.042969 86.636719 278.816406 86.59375 C 278.859375 86.425781 278.464844 85.957031 278.386719 85.839844 C 277.894531 85.039062 277.367188 84.269531 276.859375 83.476562 C 274.851562 80.285156 271.503906 75.753906 267.269531 78.546875 C 263.921875 80.753906 261.152344 85.054688 260.550781 89.011719 C 260.054688 92.21875 261.496094 95.292969 264.777344 96.246094 C 268.542969 97.34375 273.390625 95.109375 276.597656 93.226562 C 276.621094 93.210938 276.839844 93.609375 276.859375 93.660156 C 277.015625 93.945312 277.144531 94.234375 277.289062 94.523438 C 277.683594 95.375 278.078125 96.324219 278.035156 97.285156 C 278.011719 97.296875 277.761719 97.53125 277.707031 97.585938 C 277.519531 97.777344 277.320312 97.960938 277.125 98.144531 C 276.453125 98.761719 275.785156 99.363281 275.136719 99.992188 C 273.304688 101.753906 271.382812 103.394531 269.417969 105.007812 C 263.820312 109.617188 256.457031 116.078125 248.707031 115.996094 C 240.429688 115.90625 234.679688 108.980469 235.492188 100.886719 C 235.722656 98.644531 236.160156 96.433594 236.742188 94.261719 C 236.84375 93.855469 237.445312 92.34375 237.160156 91.953125 C 236.90625 91.597656 235.921875 93.152344 235.84375 93.269531 C 234.84375 94.910156 234.242188 96.691406 233.855469 98.570312 C 232.867188 103.332031 233 108.734375 235.042969 113.222656 C 238.640625 121.121094 248.277344 123.953125 256.039062 120.867188 C 260.054688 119.269531 263.589844 116.542969 266.960938 113.886719 C 270.109375 111.402344 273.347656 108.820312 275.753906 105.5625 C 277.058594 103.796875 278.96875 101.535156 279.515625 99.359375 C 280.144531 96.914062 279.976562 94.289062 279.636719 91.90625 C 279.625 91.847656 280.109375 91.660156 280.164062 91.636719 C 280.679688 91.378906 281.207031 91.125 281.722656 90.867188 C 283.722656 89.875 285.804688 88.917969 287.496094 87.445312 C 287.617188 87.339844 287.519531 87.769531 287.550781 87.929688 C 287.605469 88.207031 287.707031 88.472656 287.804688 88.738281 C 288.101562 89.515625 288.417969 90.28125 288.78125 91.027344 C 289.910156 93.339844 291.953125 95.160156 294.457031 95.828125 C 295.542969 96.117188 296.707031 96.308594 297.835938 96.210938 C 302.535156 95.8125 305.246094 91.078125 306.628906 87.0625 C 306.628906 87.058594 306.640625 87.054688 306.640625 87.054688 L 306.628906 87.0625 C 306.640625 87.164062 307.121094 88.28125 307.1875 88.398438 C 307.703125 89.296875 308.328125 90.160156 309.042969 90.917969 C 311.261719 93.277344 314.914062 93.9375 317.867188 92.652344 C 319.832031 91.792969 320.941406 90.179688 321.796875 88.28125 C 323.554688 84.386719 322.71875 78.484375 321.269531 74.519531 C 321.3125 74.324219 321.039062 74.851562 320.910156 75.007812 C 320.613281 75.363281 320.28125 75.703125 319.984375 76.054688 C 319.085938 77.105469 318.023438 78.121094 317.265625 79.285156 C 317.199219 79.378906 318.527344 80.96875 318.636719 81.222656 C 319.644531 83.433594 317.902344 85.683594 315.605469 85.808594 C 312.226562 85.992188 310.316406 83.058594 309.933594 80.050781 C 309.800781 79.015625 309.824219 77.960938 309.636719 76.933594 C 309.582031 76.601562 309.417969 76.042969 308.988281 76.058594 C 308.515625 76.070312 308.21875 76.742188 308.054688 77.105469 C 307.527344 78.304688 307.472656 79.644531 307.15625 80.898438 C 306.824219 82.171875 306.113281 83.269531 305.410156 84.367188 C 304.113281 86.410156 302.554688 88.960938 300.152344 89.816406 C 297.277344 90.839844 293.566406 89.027344 292.105469 86.46875 C 291.054688 84.601562 290.746094 81.6875 291.0625 79.554688 Z M 278.035156 97.285156 Z M 264.789062 88.140625 C 264.886719 86.867188 265.589844 85.605469 266.464844 84.691406 C 266.894531 84.25 267.433594 83.777344 268.101562 83.890625 C 269.40625 84.121094 270.714844 85.195312 271.570312 86.152344 C 271.746094 86.355469 272.339844 86.90625 272.25 87.226562 C 272.152344 87.539062 271.679688 87.726562 271.417969 87.839844 C 270.59375 88.199219 269.683594 88.417969 268.804688 88.546875 C 267.859375 88.683594 265.292969 88.730469 264.789062 88.140625 Z M 264.789062 88.140625 " fill-opacity="1" fill-rule="evenodd"/><path fill="#000000" d="M 242.53125 80.605469 C 242.460938 80.683594 242.429688 80.941406 242.398438 81.046875 C 242.289062 81.425781 242.183594 81.808594 242.082031 82.1875 C 241.730469 83.507812 241.367188 84.824219 241.011719 86.140625 C 240.898438 86.554688 240.785156 86.96875 240.671875 87.382812 C 240.640625 87.503906 240.515625 87.757812 240.558594 87.886719 C 240.597656 88.007812 240.90625 88.128906 241.003906 88.195312 C 241.324219 88.410156 241.632812 88.660156 241.894531 88.941406 C 241.890625 88.910156 241.984375 89.089844 241.992188 89.109375 C 242.050781 89.246094 242.113281 89.386719 242.171875 89.523438 C 242.347656 89.941406 242.496094 90.371094 242.65625 90.792969 C 243.144531 92.066406 243.640625 93.335938 244.175781 94.589844 C 245.15625 96.902344 246.296875 99.164062 247.492188 101.375 C 247.996094 102.308594 248.484375 103.242188 248.957031 104.1875 C 249.167969 104.617188 249.449219 105.050781 249.589844 105.507812 C 249.808594 106.203125 248.074219 107.183594 247.578125 107.695312 C 245.675781 109.660156 243.605469 111.460938 241.445312 113.152344 C 232.988281 119.761719 221.476562 126.316406 210.457031 121.757812 C 210.570312 121.863281 210.183594 121.613281 210.058594 121.527344 C 209.789062 121.347656 209.535156 121.152344 209.289062 120.945312 C 208.503906 120.289062 207.804688 119.582031 207.210938 118.753906 C 205.441406 116.292969 204.695312 113.398438 204.570312 110.421875 C 204.394531 106.164062 205.144531 102.03125 206.488281 97.996094 C 206.632812 97.5625 206.777344 97.128906 206.929688 96.699219 C 207.054688 96.332031 207.1875 95.964844 207.316406 95.59375 C 207.398438 95.347656 207.480469 95.101562 207.558594 94.855469 C 207.625 94.65625 207.6875 94.457031 207.746094 94.257812 C 207.796875 94.089844 207.847656 93.921875 207.894531 93.75 C 207.988281 93.40625 208.695312 91.453125 207.746094 91.691406 C 207.8125 91.851562 207.507812 91.949219 207.414062 92.097656 C 207.101562 92.617188 206.824219 93.164062 206.5625 93.710938 C 205.550781 95.839844 204.683594 98.015625 203.964844 100.257812 C 201.851562 106.839844 199.753906 115.003906 202.875 121.570312 C 202.96875 121.542969 202.945312 121.753906 202.980469 121.84375 C 203.058594 122.042969 203.144531 122.234375 203.230469 122.429688 C 203.488281 123.019531 203.792969 123.585938 204.125 124.144531 C 205.0625 125.722656 206.464844 127.058594 207.914062 128.1875 C 211.816406 131.21875 217.101562 131.203125 221.8125 130.609375 C 221.808594 130.589844 222.1875 130.503906 222.203125 130.5 C 222.652344 130.382812 223.101562 130.277344 223.550781 130.148438 C 224.691406 129.816406 225.828125 129.4375 226.90625 128.9375 C 230.253906 127.382812 233.652344 125.773438 236.523438 123.46875 C 236.523438 123.476562 240.328125 120.566406 241.40625 119.730469 C 244.675781 117.199219 247.96875 114.164062 249.992188 110.539062 C 250.0625 110.410156 250.304688 109.855469 250.355469 109.738281 C 250.703125 108.90625 250.988281 108.042969 251.207031 107.167969 C 251.746094 105.050781 251.988281 102.652344 251.539062 100.488281 C 251.253906 99.105469 250.6875 97.824219 250.136719 96.527344 C 250.234375 96.566406 250.0625 96.328125 250.019531 96.230469 C 249.949219 96.058594 249.871094 95.886719 249.792969 95.714844 C 249.53125 95.125 249.269531 94.535156 249 93.949219 C 248.238281 92.28125 247.035156 90.628906 246.589844 88.839844 C 246.480469 88.382812 246.953125 88.703125 247.152344 88.820312 C 247.65625 89.113281 248.148438 89.457031 248.683594 89.695312 C 248.855469 89.773438 249.171875 89.894531 249.234375 89.625 C 249.386719 88.929688 248.632812 87.941406 248.292969 87.410156 C 247.183594 85.695312 244.730469 82.945312 242.53125 80.605469 Z M 242.53125 80.605469 " fill-opacity="1" fill-rule="evenodd"/><path fill="#000000" d="M 221.671875 61.828125 C 221.683594 61.550781 222.199219 62.019531 222.472656 62.101562 C 223.15625 62.304688 223.855469 62.484375 224.558594 62.628906 C 224.613281 62.640625 225.207031 62.796875 225.207031 62.691406 C 225.183594 62.101562 223.679688 61.101562 223.296875 60.753906 C 221.496094 59.089844 219.695312 57.425781 217.820312 55.847656 C 217.46875 55.558594 216.097656 54.109375 215.558594 54.300781 C 215.1875 54.433594 214.964844 55.050781 214.8125 55.371094 C 214.363281 56.335938 213.945312 57.320312 213.519531 58.296875 C 213.398438 58.570312 212.992188 59.203125 213.132812 59.527344 C 213.289062 59.859375 213.75 59.769531 214.023438 59.933594 C 214.394531 60.160156 214.648438 60.691406 214.867188 61.046875 C 217.183594 64.613281 219.949219 67.785156 222.582031 71.113281 C 222.574219 71.117188 222.816406 71.355469 222.835938 71.382812 C 222.824219 71.375 221.992188 72.382812 221.9375 72.453125 C 220.839844 73.757812 219.851562 75.152344 218.90625 76.558594 C 216.25 80.464844 215.382812 85.914062 216.613281 90.46875 C 217.304688 93.042969 219.335938 95.625 222.234375 95.410156 C 224.460938 95.246094 226.625 93.5 228.183594 92.039062 C 231.992188 88.484375 236.492188 83.167969 234.339844 77.601562 C 233.496094 75.4375 232.101562 73.488281 230.585938 71.753906 C 230.125 71.238281 228.773438 70.285156 228.960938 69.496094 C 229.289062 68.164062 230.574219 66.890625 231.355469 65.820312 C 233.375 63.066406 236.261719 59.910156 237.136719 56.519531 C 237.445312 55.300781 237.828125 52.796875 237.09375 51.644531 C 236.984375 51.480469 236.632812 51.976562 236.589844 52.039062 C 236.117188 52.628906 235.753906 53.308594 235.359375 53.945312 C 234.371094 55.535156 233.351562 57.101562 232.285156 58.644531 C 231.441406 59.878906 230.5625 61.09375 229.695312 62.316406 C 228.851562 63.507812 228.007812 64.691406 227.148438 65.863281 C 226.984375 66.085938 226.578125 66.859375 226.238281 66.871094 C 225.394531 66.910156 222.210938 62.402344 221.671875 61.828125 Z M 225.304688 74.183594 C 225.449219 74.023438 224.460938 75.035156 224.339844 75.203125 C 224.121094 75.515625 223.890625 75.820312 223.671875 76.132812 C 223.011719 77.039062 222.386719 77.964844 221.773438 78.898438 C 220.046875 81.503906 217.097656 87.285156 221.671875 88.796875 C 224.679688 89.789062 227.601562 86.566406 229.324219 84.546875 C 230.035156 83.726562 231.078125 82.628906 231.078125 81.460938 C 231.089844 80.789062 230.652344 80.128906 230.300781 79.589844 C 229.289062 78.050781 226.734375 75.34375 225.304688 74.183594 Z M 225.304688 74.183594 " fill-opacity="1" fill-rule="evenodd"/><path fill="#000000" d="M 252.722656 39.476562 C 252.742188 39.511719 252.648438 39.65625 252.632812 39.691406 C 252.515625 39.921875 252.390625 40.148438 252.257812 40.375 C 252.226562 40.425781 252.148438 40.597656 252.050781 40.59375 C 251.910156 40.582031 251.679688 40.375 251.578125 40.304688 C 251.191406 40.039062 250.796875 39.785156 250.417969 39.511719 C 249.996094 39.207031 249.578125 38.902344 249.144531 38.613281 C 248.890625 38.445312 248.554688 38.296875 248.371094 38.066406 C 248.175781 37.820312 248.179688 37.472656 248.15625 37.191406 C 248.09375 36.503906 248.078125 35.796875 248.296875 35.128906 C 248.503906 34.511719 248.886719 33.6875 249.746094 33.5625 C 250.644531 33.429688 251.582031 34.089844 252.273438 34.480469 C 253.675781 35.277344 254.5625 36.371094 255.34375 37.609375 C 256.046875 38.71875 256.601562 39.867188 256.953125 41.089844 C 257.164062 41.832031 257.292969 42.601562 257.550781 43.335938 C 257.660156 43.644531 257.800781 44.042969 258.152344 44.226562 C 258.148438 44.273438 258.179688 44.128906 258.1875 44.082031 C 258.207031 43.984375 258.222656 43.886719 258.238281 43.789062 C 258.285156 43.507812 258.324219 43.226562 258.363281 42.945312 C 258.488281 42.070312 258.644531 41.203125 258.871094 40.34375 C 259.476562 38.058594 260.347656 35.613281 261.902344 33.652344 C 262.597656 32.777344 263.667969 31.816406 265.058594 32.269531 C 266.019531 32.585938 266.683594 33.511719 267.136719 34.246094 C 267.285156 34.488281 267.546875 34.855469 267.53125 35.136719 C 267.503906 35.695312 267.027344 36.332031 266.777344 36.832031 C 266.601562 37.183594 266.4375 37.542969 266.230469 37.882812 C 266.160156 37.996094 266.070312 38.191406 265.921875 38.253906 C 265.648438 38.367188 265.3125 37.675781 265.234375 37.554688 C 264.828125 36.921875 264.214844 35.917969 263.199219 35.964844 C 262.136719 36.019531 261.664062 37.15625 261.339844 37.839844 C 260.367188 39.890625 259.832031 41.996094 259.28125 44.140625 C 259.265625 44.140625 259.1875 44.457031 259.175781 44.480469 C 259.039062 44.863281 258.90625 45.25 258.78125 45.636719 C 258.421875 46.777344 258.1875 47.980469 257.664062 49.078125 C 257.582031 49.246094 257.234375 50.070312 256.851562 49.875 C 256.660156 49.773438 256.625 49.472656 256.597656 49.3125 C 256.507812 48.824219 256.40625 48.34375 256.285156 47.867188 C 256.140625 47.304688 256 46.746094 255.871094 46.1875 C 255.671875 45.332031 255.449219 44.476562 255.132812 43.648438 C 254.707031 42.53125 253.675781 39.996094 252.722656 39.476562 Z M 252.722656 39.476562 " fill-opacity="1" fill-rule="evenodd"/><path fill="#000000" d="M 183.660156 24.894531 C 183.683594 24.929688 183.589844 25.074219 183.570312 25.109375 C 183.453125 25.339844 183.332031 25.566406 183.199219 25.789062 C 183.167969 25.84375 183.085938 26.015625 182.992188 26.011719 C 182.847656 26 182.621094 25.789062 182.515625 25.722656 C 182.128906 25.457031 181.734375 25.203125 181.359375 24.929688 C 180.9375 24.625 180.519531 24.320312 180.082031 24.03125 C 179.832031 23.863281 179.492188 23.714844 179.3125 23.484375 C 179.113281 23.238281 179.121094 22.890625 179.097656 22.609375 C 179.03125 21.921875 179.019531 21.214844 179.238281 20.546875 C 179.441406 19.925781 179.828125 19.101562 180.683594 18.976562 C 181.585938 18.847656 182.523438 19.507812 183.214844 19.898438 C 184.617188 20.691406 185.5 21.789062 186.285156 23.027344 C 186.984375 24.136719 187.542969 25.285156 187.890625 26.507812 C 188.105469 27.25 188.234375 28.019531 188.488281 28.753906 C 188.601562 29.0625 188.742188 29.457031 189.089844 29.644531 C 189.085938 29.691406 189.121094 29.546875 189.128906 29.5 C 189.144531 29.402344 189.160156 29.304688 189.179688 29.207031 C 189.226562 28.925781 189.265625 28.644531 189.304688 28.359375 C 189.429688 27.488281 189.585938 26.621094 189.8125 25.761719 C 190.414062 23.476562 191.289062 21.03125 192.84375 19.070312 C 193.535156 18.195312 194.609375 17.234375 195.996094 17.6875 C 196.960938 18.003906 197.621094 18.929688 198.074219 19.664062 C 198.222656 19.90625 198.488281 20.273438 198.472656 20.554688 C 198.445312 21.113281 197.964844 21.75 197.71875 22.25 C 197.542969 22.601562 197.378906 22.960938 197.171875 23.296875 C 197.101562 23.414062 197.007812 23.605469 196.859375 23.671875 C 196.585938 23.785156 196.25 23.09375 196.171875 22.972656 C 195.765625 22.335938 195.15625 21.335938 194.140625 21.382812 C 193.074219 21.433594 192.605469 22.574219 192.28125 23.257812 C 191.308594 25.308594 190.773438 27.414062 190.222656 29.558594 C 190.207031 29.558594 190.125 29.875 190.117188 29.898438 C 189.980469 30.28125 189.84375 30.667969 189.722656 31.054688 C 189.359375 32.195312 189.125 33.398438 188.601562 34.496094 C 188.523438 34.664062 188.175781 35.488281 187.789062 35.292969 C 187.597656 35.191406 187.566406 34.890625 187.535156 34.726562 C 187.449219 34.242188 187.347656 33.761719 187.226562 33.285156 C 187.082031 32.722656 186.941406 32.164062 186.8125 31.605469 C 186.613281 30.75 186.390625 29.894531 186.074219 29.066406 C 185.644531 27.949219 184.617188 25.410156 183.660156 24.894531 Z M 183.660156 24.894531 " fill-opacity="1" fill-rule="evenodd"/><path fill="#000000" d="M 146.472656 30.875 C 146.496094 30.910156 146.398438 31.054688 146.382812 31.089844 C 146.265625 31.320312 146.140625 31.546875 146.011719 31.773438 C 145.976562 31.828125 145.898438 32 145.800781 31.992188 C 145.660156 31.980469 145.429688 31.773438 145.328125 31.703125 C 144.941406 31.4375 144.546875 31.183594 144.167969 30.910156 C 143.75 30.605469 143.328125 30.300781 142.894531 30.011719 C 142.640625 29.84375 142.304688 29.695312 142.121094 29.464844 C 141.925781 29.222656 141.933594 28.871094 141.90625 28.589844 C 141.84375 27.90625 141.828125 27.199219 142.050781 26.527344 C 142.253906 25.910156 142.636719 25.085938 143.496094 24.960938 C 144.394531 24.828125 145.335938 25.488281 146.027344 25.882812 C 147.429688 26.675781 148.3125 27.769531 149.097656 29.007812 C 149.796875 30.117188 150.351562 31.265625 150.703125 32.488281 C 150.917969 33.230469 151.042969 34 151.300781 34.734375 C 151.410156 35.042969 151.554688 35.441406 151.902344 35.625 C 151.898438 35.671875 151.929688 35.53125 151.9375 35.480469 C 151.957031 35.382812 151.972656 35.289062 151.988281 35.1875 C 152.039062 34.90625 152.074219 34.625 152.117188 34.34375 C 152.242188 33.46875 152.394531 32.601562 152.625 31.742188 C 153.226562 29.460938 154.101562 27.011719 155.65625 25.050781 C 156.347656 24.175781 157.417969 23.214844 158.808594 23.667969 C 159.769531 23.984375 160.433594 24.910156 160.886719 25.644531 C 161.035156 25.886719 161.296875 26.253906 161.285156 26.535156 C 161.257812 27.09375 160.777344 27.730469 160.527344 28.230469 C 160.355469 28.582031 160.191406 28.941406 159.980469 29.28125 C 159.910156 29.394531 159.820312 29.589844 159.671875 29.652344 C 159.398438 29.769531 159.0625 29.074219 158.984375 28.957031 C 158.578125 28.320312 157.96875 27.316406 156.949219 27.363281 C 155.886719 27.417969 155.417969 28.554688 155.089844 29.238281 C 154.121094 31.289062 153.585938 33.394531 153.035156 35.539062 C 153.019531 35.542969 152.9375 35.855469 152.929688 35.878906 C 152.792969 36.261719 152.65625 36.648438 152.53125 37.039062 C 152.171875 38.175781 151.9375 39.378906 151.414062 40.476562 C 151.335938 40.644531 150.988281 41.472656 150.601562 41.273438 C 150.410156 41.175781 150.378906 40.871094 150.347656 40.710938 C 150.257812 40.226562 150.15625 39.746094 150.035156 39.265625 C 149.894531 38.707031 149.753906 38.148438 149.621094 37.585938 C 149.425781 36.730469 149.203125 35.875 148.886719 35.046875 C 148.457031 33.929688 147.429688 31.394531 146.472656 30.875 Z M 146.472656 30.875 " fill-opacity="1" fill-rule="evenodd"/><path fill="#000000" d="M 252.722656 67.804688 C 252.742188 67.839844 252.648438 67.984375 252.632812 68.019531 C 252.515625 68.25 252.390625 68.476562 252.257812 68.703125 C 252.226562 68.757812 252.148438 68.929688 252.050781 68.921875 C 251.910156 68.910156 251.679688 68.703125 251.578125 68.632812 C 251.191406 68.367188 250.796875 68.113281 250.417969 67.839844 C 249.996094 67.535156 249.578125 67.230469 249.144531 66.941406 C 248.890625 66.773438 248.554688 66.625 248.371094 66.394531 C 248.175781 66.152344 248.179688 65.800781 248.15625 65.519531 C 248.09375 64.832031 248.078125 64.128906 248.296875 63.457031 C 248.503906 62.839844 248.886719 62.015625 249.746094 61.890625 C 250.644531 61.757812 251.582031 62.417969 252.273438 62.808594 C 253.675781 63.605469 254.5625 64.699219 255.34375 65.9375 C 256.046875 67.046875 256.601562 68.195312 256.953125 69.417969 C 257.164062 70.160156 257.292969 70.929688 257.550781 71.664062 C 257.660156 71.972656 257.800781 72.371094 258.152344 72.554688 C 258.148438 72.601562 258.179688 72.460938 258.1875 72.410156 C 258.207031 72.3125 258.222656 72.214844 258.238281 72.117188 C 258.285156 71.835938 258.324219 71.554688 258.363281 71.273438 C 258.488281 70.398438 258.644531 69.53125 258.871094 68.671875 C 259.476562 66.390625 260.347656 63.941406 261.902344 61.980469 C 262.597656 61.105469 263.667969 60.144531 265.058594 60.597656 C 266.019531 60.914062 266.683594 61.839844 267.136719 62.574219 C 267.285156 62.816406 267.546875 63.183594 267.53125 63.464844 C 267.503906 64.023438 267.027344 64.660156 266.777344 65.160156 C 266.601562 65.511719 266.4375 65.871094 266.230469 66.210938 C 266.160156 66.324219 266.070312 66.519531 265.921875 66.582031 C 265.648438 66.699219 265.3125 66.003906 265.234375 65.882812 C 264.828125 65.25 264.214844 64.246094 263.199219 64.292969 C 262.136719 64.347656 261.664062 65.484375 261.339844 66.167969 C 260.367188 68.21875 259.832031 70.324219 259.28125 72.46875 C 259.265625 72.472656 259.1875 72.785156 259.175781 72.808594 C 259.039062 73.191406 258.90625 73.578125 258.78125 73.96875 C 258.421875 75.105469 258.1875 76.308594 257.664062 77.40625 C 257.582031 77.574219 257.234375 78.398438 256.851562 78.203125 C 256.660156 78.105469 256.625 77.800781 256.597656 77.640625 C 256.507812 77.152344 256.40625 76.671875 256.285156 76.195312 C 256.140625 75.632812 256 75.078125 255.871094 74.515625 C 255.671875 73.660156 255.449219 72.804688 255.132812 71.976562 C 254.707031 70.859375 253.675781 68.324219 252.722656 67.804688 Z M 252.722656 67.804688 " fill-opacity="1" fill-rule="evenodd"/><path fill="#000000" d="M 313.316406 97.785156 C 313.242188 97.6875 313.109375 98.035156 313.085938 98.109375 C 313.027344 98.265625 312.964844 98.421875 312.90625 98.582031 C 312.726562 99.082031 312.53125 99.574219 312.34375 100.070312 C 312.21875 100.390625 312.570312 100.796875 312.664062 101.085938 C 312.953125 101.964844 312.429688 102.546875 311.726562 102.527344 C 311.527344 102.527344 311.335938 102.46875 311.148438 102.390625 C 310.363281 102.0625 309.578125 101.25 309.652344 100.160156 C 309.691406 99.597656 309.902344 99.121094 310.019531 98.585938 C 310.054688 98.410156 310.066406 98.128906 309.878906 98.078125 C 309.402344 97.941406 308.980469 99.070312 308.816406 99.425781 C 308.15625 100.847656 307.601562 102.566406 306.308594 103.335938 C 305.109375 104.046875 303.964844 103.082031 302.804688 102.71875 C 301.550781 102.328125 300.300781 102.507812 299.101562 103.066406 C 299.101562 103.1875 298.910156 103.160156 298.820312 103.214844 C 298.515625 103.402344 298.222656 103.605469 297.929688 103.8125 C 296.648438 104.730469 295.417969 105.769531 294.222656 106.847656 C 289.054688 111.519531 283.65625 115.753906 278.011719 119.570312 C 276.300781 120.726562 274.59375 121.925781 272.847656 123 C 272.132812 123.441406 271.40625 123.84375 270.703125 124.296875 C 270.621094 124.347656 270.050781 124.671875 270.214844 124.867188 C 270.402344 125.089844 270.933594 124.960938 271.15625 124.9375 C 272.023438 124.835938 272.898438 124.578125 273.742188 124.335938 C 275.816406 123.746094 278.027344 123.097656 279.933594 121.917969 C 281.152344 121.164062 282.277344 120.148438 283.382812 119.1875 C 286.734375 116.257812 290.066406 113.285156 293.433594 110.378906 C 295.414062 108.671875 297.566406 106.597656 299.914062 105.664062 C 302 104.835938 303.675781 107.480469 305.765625 106.570312 C 306.671875 106.175781 307.335938 105.15625 307.78125 104.167969 C 307.855469 104.003906 308.292969 102.648438 308.449219 102.605469 C 308.476562 102.597656 308.554688 103.195312 308.558594 103.230469 C 308.621094 103.671875 308.691406 104.15625 308.921875 104.523438 C 309.496094 105.433594 310.554688 105.597656 311.433594 105.386719 C 314.171875 104.738281 314.179688 101.554688 313.726562 98.914062 C 313.667969 98.566406 313.421875 97.917969 313.316406 97.785156 Z M 313.316406 97.785156 " fill-opacity="1" fill-rule="evenodd"/><path fill="#000000" d="M 239.824219 61.28125 C 239.839844 61.289062 241.234375 60.554688 241.324219 60.511719 C 243.101562 59.664062 244.898438 58.847656 246.710938 58.039062 C 254.128906 54.734375 261.621094 51.488281 269.207031 48.4375 C 271.339844 47.578125 273.492188 46.734375 275.679688 45.96875 C 275.816406 45.917969 277.542969 45.21875 277.636719 45.394531 C 277.828125 45.746094 277.03125 46.910156 276.875 47.234375 C 276.546875 47.9375 276.335938 48.992188 275.730469 49.578125 C 275.324219 49.972656 274.539062 50.144531 273.984375 50.351562 C 272.628906 50.855469 271.269531 51.351562 269.933594 51.878906 C 265.796875 53.5 261.792969 55.339844 257.734375 57.085938 C 253.804688 58.777344 249.785156 60.335938 245.890625 62.082031 C 243.949219 62.953125 242.003906 63.824219 240.0625 64.699219 C 239.753906 64.839844 238.460938 65.648438 238.0625 65.480469 C 237.816406 65.378906 238.097656 64.839844 238.152344 64.707031 C 238.429688 63.988281 239.5 61.988281 239.824219 61.28125 Z M 239.824219 61.28125 " fill-opacity="1" fill-rule="evenodd"/><path fill="#000000" d="M 113.726562 126.703125 C 113.742188 126.714844 115.132812 125.980469 115.222656 125.9375 C 117 125.085938 118.800781 124.269531 120.609375 123.460938 C 128.03125 120.15625 135.519531 116.910156 143.105469 113.859375 C 145.242188 113.003906 147.394531 112.160156 149.578125 111.390625 C 149.714844 111.34375 151.441406 110.640625 151.535156 110.816406 C 151.726562 111.167969 150.929688 112.335938 150.773438 112.660156 C 150.449219 113.359375 150.234375 114.414062 149.628906 115 C 149.222656 115.398438 148.4375 115.570312 147.882812 115.777344 C 146.527344 116.28125 145.167969 116.773438 143.832031 117.300781 C 139.695312 118.921875 135.691406 120.765625 131.632812 122.507812 C 127.703125 124.199219 123.683594 125.757812 119.789062 127.503906 C 117.847656 128.375 115.902344 129.246094 113.964844 130.125 C 113.652344 130.265625 112.359375 131.070312 111.964844 130.90625 C 111.714844 130.800781 112 130.261719 112.050781 130.132812 C 112.328125 129.410156 113.398438 127.410156 113.726562 126.703125 Z M 113.726562 126.703125 " fill-opacity="1" fill-rule="evenodd"/><path fill="#000000" d="M 180.742188 49.289062 C 180.75 49.296875 181.726562 48.652344 181.789062 48.617188 C 183.035156 47.867188 184.296875 47.152344 185.566406 46.445312 C 190.765625 43.542969 196.015625 40.695312 201.332031 38.015625 C 202.828125 37.261719 204.335938 36.519531 205.871094 35.847656 C 205.964844 35.804688 207.175781 35.191406 207.238281 35.34375 C 207.371094 35.652344 206.816406 36.675781 206.707031 36.960938 C 206.476562 37.574219 206.328125 38.5 205.902344 39.015625 C 205.617188 39.363281 205.070312 39.515625 204.679688 39.695312 C 203.730469 40.140625 202.777344 40.574219 201.839844 41.035156 C 198.941406 42.460938 196.136719 44.074219 193.292969 45.609375 C 190.539062 47.09375 187.71875 48.457031 184.992188 49.992188 C 183.628906 50.757812 182.265625 51.523438 180.90625 52.292969 C 180.691406 52.414062 179.785156 53.125 179.507812 52.976562 C 179.332031 52.886719 179.53125 52.414062 179.566406 52.296875 C 179.761719 51.664062 180.511719 49.910156 180.742188 49.289062 Z M 180.742188 49.289062 " fill-opacity="1" fill-rule="evenodd"/><path fill="#000000" d="M 280.085938 50.855469 C 280.527344 50.402344 280.851562 49.585938 281.199219 49.050781 C 282.210938 47.488281 283.21875 45.925781 284.261719 44.382812 C 284.847656 43.515625 285.386719 42.484375 286.226562 41.816406 C 287.410156 40.867188 289.191406 40.996094 290.625 41.089844 C 293.933594 41.308594 297.75 42.347656 300.898438 42.867188 C 300.949219 42.824219 301.234375 42.957031 301.292969 42.976562 C 301.660156 43.101562 302.019531 43.234375 302.378906 43.375 C 303.59375 43.84375 305.972656 44.5 305.546875 46.171875 C 305.277344 47.238281 304.546875 48.1875 303.886719 49.050781 C 302.855469 50.394531 301.746094 51.699219 300.589844 52.941406 C 299.058594 54.589844 297.445312 56.140625 295.765625 57.644531 C 294.65625 58.636719 293.507812 59.734375 292.074219 60.273438 C 289.679688 61.171875 286.84375 61.070312 284.316406 61.222656 C 283.117188 61.292969 281.921875 61.347656 280.722656 61.394531 C 280.089844 61.421875 279.300781 61.507812 278.683594 61.324219 C 278.078125 61.144531 279.523438 60.339844 279.625 60.28125 C 280.929688 59.558594 282.339844 59.003906 283.742188 58.503906 C 286.984375 57.34375 290.304688 56.261719 293.382812 54.730469 C 294.117188 54.363281 294.847656 53.996094 295.566406 53.597656 C 295.75 53.496094 296.171875 53.332031 296.238281 53.113281 C 296.320312 52.839844 295.710938 52.574219 295.535156 52.492188 C 294.6875 52.109375 293.707031 51.921875 292.804688 51.707031 C 289.050781 50.804688 283.925781 50.292969 280.085938 50.855469 Z M 280.085938 50.855469 " fill-opacity="1" fill-rule="evenodd"/><path fill="#000000" d="M 93.097656 73.871094 C 93.539062 73.414062 93.863281 72.597656 94.210938 72.066406 C 95.222656 70.503906 96.230469 68.9375 97.273438 67.394531 C 97.855469 66.53125 98.398438 65.5 99.234375 64.832031 C 100.421875 63.882812 102.199219 64.011719 103.636719 64.105469 C 106.945312 64.324219 110.761719 65.363281 113.90625 65.882812 C 113.960938 65.839844 114.242188 65.972656 114.304688 65.992188 C 114.671875 66.113281 115.03125 66.25 115.390625 66.390625 C 116.605469 66.855469 118.984375 67.511719 118.558594 69.1875 C 118.285156 70.25 117.558594 71.203125 116.894531 72.066406 C 115.863281 73.410156 114.757812 74.710938 113.601562 75.957031 C 112.070312 77.601562 110.453125 79.15625 108.773438 80.660156 C 107.664062 81.652344 106.519531 82.75 105.085938 83.289062 C 102.691406 84.1875 99.855469 84.085938 97.328125 84.238281 C 96.128906 84.308594 94.933594 84.363281 93.734375 84.410156 C 93.101562 84.433594 92.308594 84.523438 91.695312 84.339844 C 91.089844 84.160156 92.535156 83.351562 92.636719 83.296875 C 93.941406 82.574219 95.351562 82.019531 96.753906 81.515625 C 99.996094 80.359375 103.3125 79.277344 106.390625 77.746094 C 107.125 77.378906 107.859375 77.011719 108.578125 76.613281 C 108.761719 76.511719 109.179688 76.347656 109.25 76.128906 C 109.332031 75.855469 108.722656 75.585938 108.546875 75.507812 C 107.699219 75.125 106.71875 74.9375 105.816406 74.71875 C 102.0625 73.820312 96.9375 73.308594 93.097656 73.871094 Z M 93.097656 73.871094 " fill-opacity="1" fill-rule="evenodd"/><path fill="#000000" d="M 213.636719 38.527344 L 218.128906 32.445312 L 225.382812 37.863281 L 220.597656 43.597656 C 220.597656 43.597656 213.921875 38.246094 213.636719 38.527344 Z M 213.636719 38.527344 " fill-opacity="1" fill-rule="evenodd"/><path fill="#000000" d="M 224.226562 37.191406 L 228.71875 31.105469 L 235.972656 36.523438 L 231.1875 42.257812 C 231.1875 42.257812 224.515625 36.90625 224.226562 37.191406 Z M 224.226562 37.191406 " fill-opacity="1" fill-rule="evenodd"/><path fill="#000000" d="M 187.484375 59.082031 L 191.976562 53 L 199.230469 58.417969 L 194.445312 64.152344 C 194.445312 64.152344 187.769531 58.800781 187.484375 59.082031 Z M 187.484375 59.082031 " fill-opacity="1" fill-rule="evenodd"/><path fill="#000000" d="M 150.945312 39.476562 C 150.523438 39.21875 150.136719 39.75 150.066406 39.824219 C 149.621094 40.300781 149.308594 40.847656 149 41.390625 C 148.027344 43.101562 147.152344 44.851562 146.171875 46.5625 C 143.65625 50.929688 140.476562 56.183594 140.789062 61.167969 C 140.925781 63.332031 141.792969 66.085938 144.804688 66.53125 C 148.542969 67.085938 150.707031 62.507812 151.675781 60.328125 C 152.007812 59.585938 152.796875 58.097656 152.277344 57.292969 C 151.832031 56.605469 150.703125 58.050781 150.53125 58.269531 C 149.476562 59.617188 147.800781 62.265625 145.847656 60.09375 C 144.277344 58.347656 144.515625 55.953125 145.003906 53.933594 C 145.726562 50.953125 147.453125 48.234375 148.988281 45.503906 C 149.949219 43.789062 152.386719 40.34375 150.945312 39.476562 Z M 150.945312 39.476562 " fill-opacity="1" fill-rule="evenodd"/><path fill="#000000" d="M 82.46875 62.003906 C 81.84375 61.5625 81.269531 62.472656 81.167969 62.605469 C 80.507812 63.421875 80.046875 64.367188 79.59375 65.300781 C 78.15625 68.253906 76.863281 71.269531 75.410156 74.214844 C 71.695312 81.746094 66.992188 90.804688 67.457031 99.394531 C 67.65625 103.128906 68.9375 107.875 73.390625 108.644531 C 78.914062 109.597656 82.113281 101.710938 83.546875 97.949219 C 84.035156 96.667969 85.207031 94.105469 84.433594 92.71875 C 83.777344 91.527344 82.113281 94.019531 81.859375 94.398438 C 80.296875 96.722656 77.820312 101.289062 74.933594 97.546875 C 72.613281 94.539062 72.964844 90.410156 73.6875 86.925781 C 74.753906 81.789062 77.304688 77.101562 79.574219 72.394531 C 80.996094 69.4375 84.59375 63.5 82.46875 62.003906 Z M 82.46875 62.003906 " fill-opacity="1" fill-rule="evenodd"/><g clip-path="url(#322cf4578f)"><path fill="#000000" d="M 205.621094 96.386719 C 205.605469 96.347656 205.632812 96.148438 205.625 96.066406 C 205.609375 95.898438 205.578125 95.726562 205.539062 95.558594 C 205.402344 94.984375 205.171875 94.433594 204.851562 93.921875 C 203.945312 92.480469 202.203125 91.546875 200.441406 91.171875 C 195.617188 90.136719 190.0625 93 185.929688 89.53125 C 185.332031 89.03125 184.8125 88.445312 184.410156 87.804688 C 183.484375 86.328125 183.421875 84.515625 183.644531 82.875 C 184.105469 79.449219 185.828125 76.304688 188.546875 73.890625 C 190.460938 72.191406 193.058594 70.761719 195.828125 71.605469 C 195.742188 71.625 196.003906 71.628906 196.089844 71.652344 C 196.265625 71.707031 196.4375 71.769531 196.605469 71.839844 C 197.132812 72.066406 197.636719 72.324219 198.136719 72.59375 C 199.550781 73.351562 200.816406 74.304688 201.945312 75.378906 C 205.566406 78.847656 207.804688 83.074219 208.566406 87.765625 C 208.605469 88.011719 208.652344 88.8125 208.660156 89.058594 C 208.699219 90.222656 208.640625 91.398438 208.519531 92.558594 C 208.148438 96.121094 207.242188 99.839844 204.785156 102.726562 C 204.519531 103.042969 203.976562 103.488281 203.636719 103.753906 C 202.753906 104.433594 201.824219 105.066406 200.835938 105.609375 C 197.019531 107.722656 191.996094 109.097656 187.492188 108.621094 C 187.027344 108.570312 185.960938 108.457031 185.566406 108.363281 C 183.21875 107.8125 181.277344 106.421875 179.835938 104.695312 C 174.722656 98.570312 174.378906 89.523438 173.925781 82.246094 C 173.972656 82.234375 173.449219 66.535156 173.191406 61.070312 C 173.304688 61.222656 173.1875 60.699219 173.175781 60.519531 C 173.160156 60.21875 173.136719 59.925781 173.113281 59.628906 C 173.035156 58.644531 172.949219 57.664062 172.867188 56.683594 C 172.625 53.808594 172.347656 50.945312 172.109375 48.070312 C 171.597656 41.835938 171.296875 35.515625 170.316406 29.320312 C 170 27.332031 169.65625 25.332031 169.144531 23.375 C 168.929688 22.558594 168.253906 21.445312 168.378906 20.59375 C 168.496094 19.792969 169.003906 19.03125 169.351562 18.292969 C 169.933594 17.0625 170.492188 15.832031 171.105469 14.613281 C 171.261719 14.300781 171.6875 12.949219 172.144531 12.859375 C 172.363281 12.816406 172.550781 13.214844 172.617188 13.339844 C 172.941406 13.902344 173.175781 14.511719 173.40625 15.113281 C 174.4375 17.78125 175.160156 20.480469 175.648438 23.269531 C 176.789062 29.773438 177 36.324219 177.195312 42.898438 C 177.359375 48.492188 177.605469 54.082031 177.875 59.667969 C 178.03125 62.886719 178.839844 78.957031 178.886719 80.507812 C 178.921875 81.757812 179.910156 99.488281 188.554688 100.4375 C 189.273438 100.515625 192.089844 100.734375 194.636719 100.390625 C 197.519531 100.007812 200.175781 99.023438 201.203125 98.597656 C 201.535156 98.460938 202.054688 98.414062 202.363281 98.296875 C 203.382812 97.910156 204.707031 96.953125 205.621094 96.386719 Z M 205.621094 96.386719 L 205.640625 96.371094 C 205.628906 96.390625 205.625 96.390625 205.621094 96.386719 Z M 197.285156 82.882812 C 197.285156 82.914062 197.066406 82.890625 197.035156 82.890625 C 196.769531 82.882812 196.503906 82.90625 196.238281 82.914062 C 195.554688 82.953125 194.882812 83.050781 194.203125 83.136719 C 193.308594 83.242188 192.394531 83.3125 191.496094 83.25 C 190.964844 83.210938 190.429688 83.125 189.929688 82.960938 C 189.363281 82.777344 188.96875 82.648438 188.519531 82.289062 C 188.429688 82.21875 187.980469 81.882812 187.976562 81.761719 C 187.96875 81.542969 188.371094 81.066406 188.519531 80.9375 C 189.167969 80.363281 189.871094 79.824219 190.742188 79.546875 C 191.710938 79.230469 193.109375 79.507812 193.980469 79.921875 C 194.984375 80.394531 196.613281 81.390625 197.285156 82.882812 Z M 197.285156 82.882812 " fill-opacity="1" fill-rule="evenodd"/></g><path fill="#000000" d="M 292.089844 73 C 291.957031 72.945312 292.464844 72.605469 292.507812 72.585938 C 292.707031 72.480469 292.90625 72.363281 293.097656 72.242188 C 293.664062 71.886719 294.230469 71.53125 294.789062 71.160156 C 296.53125 70.003906 298.257812 68.828125 299.992188 67.65625 C 303.886719 65.023438 314.757812 56.632812 315.015625 56.136719 C 314.828125 55.992188 314.515625 55.894531 314.304688 55.761719 C 313.210938 55.085938 311.558594 54.082031 311.675781 52.730469 C 311.839844 50.890625 313.542969 48.824219 315.457031 48.1875 C 316.308594 47.90625 317.429688 47.773438 318.167969 48.363281 C 318.636719 48.738281 318.765625 49.347656 318.816406 49.882812 C 318.929688 51.070312 318.589844 52.203125 318.089844 53.292969 C 317.945312 53.605469 317.773438 53.910156 317.589844 54.207031 C 317.539062 54.296875 317.363281 54.476562 317.363281 54.582031 C 317.367188 54.714844 317.800781 54.945312 317.898438 55.027344 C 318.28125 55.332031 318.820312 55.769531 318.972656 56.230469 C 319.164062 56.824219 318.507812 57.667969 318.195312 58.140625 C 318.113281 58.261719 317.890625 58.691406 317.679688 58.65625 C 317.441406 58.613281 317.226562 58.320312 317.070312 58.171875 C 316.660156 57.785156 316.199219 57.4375 315.789062 57.046875 C 315.726562 56.988281 315.671875 57.167969 315.613281 57.230469 C 315.492188 57.355469 315.367188 57.484375 315.246094 57.613281 C 314.902344 57.980469 314.546875 58.34375 314.1875 58.703125 C 313.121094 59.78125 312.035156 60.847656 310.917969 61.882812 C 306.863281 65.640625 302.035156 68.875 296.882812 71.304688 C 295.707031 71.859375 294.546875 72.492188 293.300781 72.910156 C 293.082031 72.984375 292.222656 73.054688 292.089844 73 Z M 316.453125 53.800781 C 316.449219 53.796875 316.496094 53.621094 316.5 53.613281 C 316.539062 53.496094 316.578125 53.382812 316.605469 53.261719 C 316.6875 52.90625 316.742188 52.539062 316.71875 52.175781 C 316.703125 51.96875 316.683594 51.765625 316.652344 51.5625 C 316.523438 50.792969 315.855469 49.703125 314.828125 49.929688 C 314.589844 49.980469 314.378906 50.089844 314.183594 50.222656 C 314.042969 50.320312 313.917969 50.433594 313.800781 50.554688 C 313.652344 50.707031 313.476562 50.902344 313.464844 51.117188 C 313.453125 51.273438 313.578125 51.402344 313.683594 51.519531 C 313.902344 51.757812 314.152344 51.964844 314.390625 52.1875 C 314.894531 52.664062 315.898438 53.371094 316.453125 53.800781 Z M 316.453125 53.800781 " fill-opacity="1" fill-rule="evenodd"/><path fill="#000000" d="M 159.972656 115.347656 C 159.929688 115.347656 160.148438 115.230469 160.222656 115.183594 C 160.410156 115.066406 160.59375 114.941406 160.773438 114.808594 C 161.300781 114.433594 161.816406 114.039062 162.316406 113.632812 C 163.804688 112.417969 165.136719 110.992188 165.953125 109.324219 C 166.882812 107.429688 167.925781 105.472656 167.480469 103.347656 C 167.421875 103.058594 167.320312 102.777344 167.167969 102.515625 C 167.058594 102.332031 166.925781 102.167969 166.757812 102.023438 C 165.441406 100.890625 163.71875 103.609375 163.085938 103.710938 C 162.6875 103.773438 162.835938 102.878906 162.929688 102.441406 C 163.171875 101.324219 163.554688 100.460938 164.398438 99.628906 C 165.328125 98.703125 166.8125 98.039062 168.054688 98.921875 C 168.304688 99.101562 168.507812 99.335938 168.679688 99.578125 C 169.421875 100.625 169.390625 101.878906 169.265625 103.074219 C 169.023438 105.425781 168.222656 107.5625 167.269531 109.742188 C 167.253906 109.78125 167.316406 109.679688 167.347656 109.652344 C 167.414062 109.582031 167.480469 109.515625 167.554688 109.453125 C 167.761719 109.261719 167.984375 109.085938 168.210938 108.914062 C 168.882812 108.410156 169.609375 107.933594 170.367188 107.542969 C 171.824219 106.789062 173.636719 106.761719 175.132812 107.457031 C 175.652344 107.699219 176.164062 107.976562 176.480469 108.4375 C 177.117188 109.371094 176.933594 110.726562 176.546875 111.703125 C 176.171875 112.65625 175.597656 113.5625 174.808594 114.285156 C 173.238281 115.714844 171.03125 116.324219 168.988281 116.988281 C 169.035156 117.035156 168.855469 117.023438 168.789062 117.046875 C 168.640625 117.097656 168.492188 117.144531 168.339844 117.183594 C 167.9375 117.289062 167.527344 117.382812 167.121094 117.46875 C 165.863281 117.734375 164.601562 117.972656 163.339844 118.207031 C 161.351562 118.574219 159.148438 119.109375 157.097656 118.859375 C 155.757812 118.699219 154.46875 118.144531 153.292969 117.566406 C 152.707031 117.277344 152.128906 116.988281 151.5625 116.660156 C 151.316406 116.519531 150.984375 116.359375 150.839844 116.113281 C 150.664062 115.8125 151.351562 115.867188 151.503906 115.863281 C 152.289062 115.855469 153.074219 115.898438 153.859375 115.882812 C 155.871094 115.839844 157.996094 115.738281 159.972656 115.347656 C 159.976562 115.347656 159.980469 115.34375 159.988281 115.34375 Z M 163.5625 115.011719 C 163.476562 114.941406 163.929688 114.4375 163.980469 114.382812 C 164.511719 113.769531 165.121094 113.21875 165.777344 112.710938 C 167.230469 111.582031 169.105469 110.277344 171.097656 110.132812 C 172.109375 110.0625 172.960938 110.34375 173.851562 110.773438 C 174.074219 110.882812 174.714844 111.128906 174.648438 111.425781 C 174.585938 111.699219 174.265625 111.875 174.035156 112.019531 C 173.355469 112.453125 172.671875 112.699219 171.90625 112.984375 C 170.925781 113.34375 169.90625 113.628906 168.898438 113.917969 C 167.351562 114.355469 165.167969 114.785156 163.5625 115.011719 Z M 163.5625 115.011719 " fill-opacity="1" fill-rule="evenodd"/></svg>