<svg xmlns="http://www.w3.org/2000/svg" xmlns:xlink="http://www.w3.org/1999/xlink" width="500" zoomAndPan="magnify" viewBox="0 0 375 149.999998" height="200" preserveAspectRatio="xMidYMid meet" version="1.0"><defs><clipPath id="ea1bcda616"><path d="M 187 13.59375 L 200 13.59375 L 200 92 L 187 92 Z M 187 13.59375 " clip-rule="nonzero"/></clipPath></defs><path fill="#000000" d="M 165.507812 74.984375 C 165.160156 75.042969 165.015625 74.003906 165.210938 73.511719 C 165.519531 72.734375 166 71.945312 166.640625 71.304688 C 166.964844 70.980469 167.359375 70.664062 167.84375 70.484375 C 168.089844 70.390625 168.410156 70.296875 168.691406 70.328125 C 169.179688 70.382812 169.667969 70.828125 169.988281 71.09375 C 170.910156 71.859375 171.914062 72.746094 172.648438 73.503906 C 172.636719 73.492188 172.667969 73.523438 172.679688 73.535156 C 172.707031 73.554688 172.730469 73.574219 172.753906 73.597656 C 172.832031 73.667969 172.902344 73.742188 172.972656 73.8125 C 173.183594 74.027344 173.46875 74.265625 173.554688 74.535156 C 173.625 74.757812 173.488281 75.046875 173.417969 75.257812 C 173.238281 75.769531 173.035156 76.289062 172.6875 76.742188 C 172.671875 76.714844 172.203125 76.738281 172.167969 76.738281 C 171.609375 76.742188 171.050781 76.777344 170.496094 76.820312 C 168.425781 76.976562 165.777344 77.5 164.929688 79.191406 C 164.980469 79.191406 164.894531 79.261719 164.886719 79.300781 C 164.824219 79.695312 164.875 80.113281 164.917969 80.503906 C 165.007812 81.375 165.1875 82.234375 165.410156 83.085938 C 166.117188 85.761719 166.96875 88.894531 167.449219 91.605469 C 167.460938 91.6875 167.425781 91.941406 167.433594 92.039062 C 167.460938 92.410156 167.507812 92.777344 167.554688 93.148438 C 167.75 94.726562 167.871094 96.351562 167.605469 97.929688 C 167.519531 98.453125 167.363281 99 167.007812 99.453125 C 166.921875 99.558594 166.648438 99.917969 166.433594 99.761719 C 166.222656 99.609375 166.417969 99.109375 166.457031 98.933594 C 166.613281 98.21875 166.679688 97.484375 166.703125 96.761719 C 166.789062 93.914062 166.054688 91.253906 165.351562 88.476562 C 165.257812 88.441406 165.207031 87.929688 165.1875 87.859375 C 165.023438 87.234375 164.863281 86.609375 164.683594 85.992188 C 163.945312 83.425781 162.789062 80.542969 163.789062 77.921875 C 163.753906 77.875 163.839844 77.707031 163.855469 77.664062 C 163.96875 77.371094 164.132812 77.085938 164.347656 76.832031 C 165.25 75.777344 166.417969 75.171875 167.90625 74.738281 C 168.320312 74.617188 168.886719 74.503906 169.320312 74.433594 C 169.371094 74.425781 169.71875 74.402344 169.722656 74.347656 C 169.734375 74.207031 169.390625 73.996094 169.285156 73.90625 C 168.785156 73.484375 168.101562 72.972656 167.304688 73.148438 C 166.933594 73.230469 166.464844 73.460938 166.207031 73.800781 C 165.824219 74.300781 165.71875 74.945312 165.507812 74.984375 Z M 165.507812 74.984375 " fill-opacity="1" fill-rule="evenodd"/><path fill="#000000" d="M 158.003906 34.886719 C 157.648438 34.949219 157.265625 35.441406 157.164062 35.554688 C 156.980469 35.757812 156.800781 35.960938 156.625 36.167969 C 155.984375 36.921875 155.53125 37.5 155.835938 38.410156 C 156.449219 40.21875 157.523438 41.898438 158.191406 43.683594 C 158.519531 44.570312 158.152344 45.394531 156.835938 45.4375 C 154.25 45.523438 153.679688 42.394531 153.371094 40.988281 C 153.28125 40.589844 153.191406 40.1875 153.089844 39.789062 C 152.949219 39.246094 152.78125 38.707031 152.582031 38.171875 C 152.328125 37.5 152.0625 36.824219 151.707031 36.179688 C 151.664062 36.101562 151.441406 35.578125 151.285156 35.59375 C 150.90625 35.636719 150.386719 36.714844 150.226562 36.953125 C 150.023438 37.257812 149.691406 37.613281 149.664062 37.96875 C 149.621094 38.621094 150.488281 39.417969 150.753906 40.019531 C 151.144531 40.902344 151.199219 41.855469 151.171875 42.777344 C 151.238281 42.792969 151.144531 43.082031 151.136719 43.109375 C 151.050781 43.457031 150.964844 43.808594 150.816406 44.148438 C 150.261719 45.417969 147.585938 46.507812 146.464844 44.992188 C 146.015625 44.382812 146.121094 43.566406 146.15625 42.890625 C 146.230469 41.433594 146.605469 39.96875 146.414062 38.507812 C 146.34375 37.976562 146.195312 37.410156 145.839844 36.949219 C 145.804688 36.898438 145.472656 36.488281 145.34375 36.574219 C 145.007812 36.796875 144.84375 37.351562 144.664062 37.652344 C 144.507812 37.917969 144.359375 38.1875 144.207031 38.453125 C 144.03125 38.769531 143.863281 39.089844 143.679688 39.398438 C 143.648438 39.453125 143.445312 39.679688 143.460938 39.75 C 143.5 39.875 143.875 40.050781 143.980469 40.152344 C 144.292969 40.457031 144.429688 40.765625 144.460938 41.15625 C 144.5625 42.414062 144.175781 43.691406 144.121094 44.945312 C 144.074219 46.050781 143.941406 47.453125 144.9375 48.351562 C 146.054688 49.359375 147.96875 49.425781 149.261719 48.609375 C 150.835938 47.617188 151.886719 46 152.007812 44.421875 C 152.351562 46.460938 155.105469 49.617188 158.082031 47.992188 C 158.429688 47.800781 158.734375 47.585938 158.996094 47.324219 C 159.367188 46.957031 159.644531 46.511719 159.824219 46.066406 C 160.433594 44.542969 160.472656 42.847656 159.949219 41.3125 C 159.300781 39.40625 158.015625 36.894531 158.003906 34.886719 Z M 158.003906 34.886719 " fill-opacity="1" fill-rule="evenodd"/><g clip-path="url(#ea1bcda616)"><path fill="#000000" d="M 187.746094 18.832031 C 187.695312 18.875 187.804688 18.71875 187.835938 18.664062 C 187.894531 18.542969 187.949219 18.421875 188.007812 18.300781 C 188.191406 17.929688 188.378906 17.554688 188.554688 17.175781 C 189.050781 16.101562 189.621094 15.042969 190.109375 13.96875 C 190.109375 14.046875 190.246094 14.1875 190.28125 14.253906 C 190.398438 14.464844 190.496094 14.6875 190.601562 14.902344 C 190.957031 15.628906 191.277344 16.371094 191.617188 17.105469 C 192.992188 20.113281 194.542969 23.070312 195.789062 26.121094 C 195.984375 26.601562 196.171875 27.082031 196.339844 27.570312 C 196.4375 27.851562 196.53125 28.136719 196.597656 28.425781 C 196.632812 28.582031 196.667969 28.738281 196.683594 28.898438 C 196.695312 29 196.703125 29.105469 196.699219 29.210938 C 196.695312 29.273438 196.6875 29.335938 196.667969 29.398438 C 196.46875 30.039062 195.707031 29.160156 195.511719 28.972656 C 195.425781 28.894531 195.339844 28.8125 195.253906 28.734375 C 195.15625 28.644531 195.058594 28.554688 194.960938 28.464844 C 194.828125 28.34375 194.695312 28.21875 194.5625 28.09375 C 194.382812 27.929688 194.203125 27.761719 194.027344 27.59375 C 193.847656 27.421875 193.664062 27.253906 193.492188 27.078125 C 193.429688 27.015625 193.5 27.25 193.507812 27.335938 C 193.53125 27.542969 193.554688 27.746094 193.578125 27.953125 C 193.640625 28.496094 193.710938 29.035156 193.792969 29.578125 C 194.03125 31.160156 194.308594 32.738281 194.5625 34.324219 C 195.328125 39.117188 195.945312 43.945312 196.523438 48.757812 C 196.394531 48.734375 196.570312 48.984375 196.589844 49.097656 C 196.640625 49.367188 196.667969 49.640625 196.707031 49.910156 C 196.816406 50.65625 196.925781 51.402344 197.03125 52.148438 C 197.332031 54.300781 197.621094 56.457031 197.875 58.617188 C 198.855469 66.980469 200.683594 75.863281 199.117188 84.304688 C 198.78125 86.132812 198.566406 88.21875 197.476562 89.859375 C 197.328125 90.082031 196.566406 91.296875 196.175781 91.265625 C 196.09375 91.257812 196.058594 91.179688 196.042969 91.117188 C 195.703125 90.066406 196.148438 88.503906 196.144531 87.429688 C 196.128906 83.136719 195.898438 78.875 195.425781 74.605469 C 193.835938 60.175781 188.757812 24.097656 188.660156 20.703125 C 188.660156 20.703125 188.421875 20.234375 188.402344 20.191406 C 188.226562 19.851562 187.929688 19.167969 187.746094 18.832031 Z M 187.746094 18.832031 " fill-opacity="1" fill-rule="evenodd"/></g><path fill="#000000" d="M 306.382812 21.484375 C 307.105469 21.164062 308.589844 21.730469 309.289062 21.894531 C 312.328125 22.613281 315.257812 23.914062 318.0625 25.425781 C 328.503906 31.050781 336.070312 41.605469 340.753906 53.660156 C 341.925781 56.667969 342.890625 59.835938 343.488281 63.066406 C 343.648438 63.9375 344.132812 65.527344 343.800781 66.429688 C 343.5 67.203125 342.742188 67.804688 342.222656 68.363281 C 341.121094 69.558594 340.097656 70.609375 338.832031 71.511719 C 337.199219 69.753906 334.910156 68.503906 333.058594 67.039062 C 332.496094 61.816406 330.574219 56.597656 328.597656 51.9375 C 325.226562 44.019531 320.765625 36.753906 315.351562 30.570312 C 312.890625 27.777344 309.40625 23.417969 306.382812 21.484375 Z M 306.382812 21.484375 " fill-opacity="1" fill-rule="evenodd"/><path fill="#000000" d="M 306.382812 132.433594 C 307.105469 132.753906 308.589844 132.1875 309.289062 132.023438 C 312.328125 131.304688 315.257812 130.003906 318.0625 128.492188 C 328.503906 122.867188 336.070312 112.3125 340.753906 100.257812 C 341.925781 97.25 342.890625 94.082031 343.488281 90.851562 C 343.648438 89.980469 344.132812 88.390625 343.800781 87.492188 C 343.5 86.71875 342.742188 86.113281 342.222656 85.554688 C 341.121094 84.359375 340.097656 83.308594 338.832031 82.40625 C 337.199219 84.164062 334.910156 85.414062 333.058594 86.878906 C 332.496094 92.101562 330.574219 97.320312 328.597656 101.980469 C 325.226562 109.902344 320.765625 117.164062 315.351562 123.347656 C 312.890625 126.144531 309.40625 130.503906 306.382812 132.433594 Z M 306.382812 132.433594 " fill-opacity="1" fill-rule="evenodd"/><path fill="#000000" d="M 352.089844 70.011719 C 351.804688 70.191406 351.539062 70.355469 351.46875 70.410156 C 349.8125 71.921875 348.179688 73.335938 346.328125 74.53125 C 345.695312 74.941406 345.042969 75.28125 344.398438 75.660156 C 344.292969 75.726562 344.007812 75.882812 343.855469 76.058594 C 343.648438 76.300781 343.59375 76.585938 343.648438 76.863281 C 343.707031 77.140625 343.878906 77.378906 344.179688 77.488281 C 344.410156 77.566406 344.777344 77.550781 344.890625 77.554688 C 345.074219 77.554688 345.640625 77.804688 346.375 78.144531 C 348.320312 79.035156 351.367188 80.648438 352.769531 81.570312 C 352.929688 81.675781 353.414062 82.058594 353.828125 82.398438 C 353.574219 82.585938 353.308594 82.769531 353.171875 82.835938 C 351.78125 83.460938 350.136719 84.09375 349.238281 85.582031 C 348.90625 86.132812 348.800781 86.773438 348.800781 87.453125 C 348.8125 88.257812 349.007812 89.117188 349.03125 89.847656 C 349.089844 91.8125 348.789062 93.523438 347.800781 95.152344 C 347.03125 96.4375 346.078125 97.652344 344.890625 98.425781 C 344.695312 98.554688 343.039062 99.496094 343.039062 99.496094 C 342.8125 99.628906 342.683594 99.925781 342.730469 100.226562 C 342.777344 100.523438 342.996094 100.742188 343.246094 100.765625 C 343.246094 100.765625 345.789062 100.972656 346.546875 100.859375 C 350.457031 100.269531 352.839844 97.359375 354.550781 93.464844 C 354.804688 92.902344 354.988281 92.1875 355.183594 91.496094 C 355.355469 90.917969 355.527344 90.351562 355.816406 89.949219 C 356.09375 89.570312 356.496094 89.316406 356.910156 89.070312 C 357.425781 88.761719 357.957031 88.476562 358.367188 88.109375 C 359.644531 86.996094 360.542969 85.589844 361.371094 84.015625 C 361.691406 83.398438 361.992188 82.769531 362.277344 82.136719 C 362.429688 81.832031 363.300781 79.941406 363.300781 79.941406 C 363.453125 79.617188 363.347656 79.214844 363.070312 79.035156 C 363.070312 79.035156 362.1875 78.476562 362.027344 78.378906 C 361.449219 78.050781 359.863281 77.210938 358.679688 76.59375 C 358.667969 76.59375 363.234375 74.957031 363.234375 74.957031 C 363.519531 74.851562 363.691406 74.503906 363.625 74.160156 C 363.625 74.160156 363.152344 71.835938 362.1875 69.636719 C 361.507812 68.085938 360.578125 66.621094 359.425781 65.960938 C 359 65.714844 358.425781 65.53125 357.886719 65.328125 C 357.449219 65.167969 357.035156 65.003906 356.78125 64.734375 C 356.691406 64.636719 356.679688 64.460938 356.65625 64.292969 C 356.597656 63.960938 356.5625 63.613281 356.507812 63.355469 C 356.21875 62.125 355.769531 60.886719 355.207031 59.800781 C 352.859375 55.355469 346.972656 52.066406 342.765625 52.34375 C 342.488281 52.363281 342.257812 52.605469 342.222656 52.921875 C 342.191406 53.242188 342.351562 53.546875 342.613281 53.648438 C 343.972656 54.179688 345.097656 55.707031 346.066406 57.527344 C 347.605469 60.441406 348.675781 64.125 349.375 66.246094 C 349.859375 67.707031 350.332031 68.632812 351.457031 69.542969 C 351.664062 69.710938 351.871094 69.867188 352.089844 70.011719 Z M 345.511719 99.554688 C 346.824219 98.683594 347.894531 97.347656 348.746094 95.921875 C 349.882812 94.039062 350.25 92.066406 350.183594 89.796875 C 350.160156 89.183594 350.019531 88.476562 349.976562 87.789062 C 349.929688 87.273438 349.929688 86.765625 350.183594 86.351562 C 350.953125 85.078125 352.402344 84.621094 353.585938 84.085938 C 353.976562 83.90625 355.160156 82.957031 355.160156 82.957031 C 355.320312 82.832031 355.402344 82.628906 355.402344 82.410156 C 355.414062 82.191406 355.320312 81.988281 355.171875 81.863281 C 355.171875 81.863281 353.65625 80.609375 353.332031 80.402344 C 351.6875 79.324219 347.859375 77.320312 346.019531 76.554688 C 345.890625 76.503906 345.789062 76.460938 345.675781 76.421875 C 346.089844 76.191406 346.492188 75.960938 346.894531 75.703125 C 348.800781 74.472656 350.46875 73.023438 352.183594 71.46875 C 352.320312 71.339844 353.414062 70.773438 353.664062 70.574219 C 353.839844 70.433594 353.894531 70.273438 353.917969 70.199219 C 353.976562 70.023438 354.011719 69.710938 353.734375 69.441406 C 353.644531 69.351562 353.125 69.105469 353.066406 69.082031 C 352.734375 68.910156 352.414062 68.6875 352.113281 68.441406 C 351.207031 67.707031 350.835938 66.945312 350.445312 65.769531 C 349.734375 63.59375 348.628906 59.816406 347.042969 56.824219 C 346.445312 55.675781 345.753906 54.644531 345.007812 53.84375 C 348.503906 54.53125 352.457031 57.15625 354.230469 60.5 C 354.734375 61.480469 355.136719 62.597656 355.390625 63.710938 C 355.460938 64 355.484375 64.414062 355.5625 64.777344 C 355.644531 65.152344 355.792969 65.484375 356 65.710938 C 356.289062 66.03125 356.726562 66.277344 357.207031 66.476562 C 357.78125 66.714844 358.449219 66.894531 358.921875 67.164062 C 359.863281 67.707031 360.601562 68.964844 361.164062 70.246094 C 361.773438 71.632812 362.164062 73.078125 362.359375 73.863281 C 362.359375 73.863281 356.863281 75.839844 356.863281 75.839844 C 356.644531 75.921875 356.484375 76.160156 356.460938 76.441406 C 356.449219 76.71875 356.585938 76.980469 356.804688 77.09375 C 356.804688 77.09375 360.578125 79.03125 361.507812 79.578125 C 361.578125 79.621094 361.796875 79.757812 362.015625 79.894531 C 361.75 80.472656 361.371094 81.300781 361.277344 81.492188 C 360.992188 82.105469 360.703125 82.71875 360.382812 83.316406 C 359.632812 84.742188 358.839844 86.027344 357.679688 87.039062 C 357.3125 87.363281 356.839844 87.605469 356.378906 87.878906 C 355.828125 88.207031 355.308594 88.578125 354.941406 89.085938 C 354.5625 89.601562 354.308594 90.320312 354.101562 91.066406 C 353.917969 91.695312 353.757812 92.34375 353.539062 92.855469 C 352 96.339844 349.90625 99 346.410156 99.527344 C 346.203125 99.558594 345.882812 99.566406 345.511719 99.554688 Z M 345.511719 99.554688 " fill-opacity="1" fill-rule="evenodd"/><path fill="#000000" d="M 339.175781 82.636719 C 339.316406 82.515625 340.144531 81.808594 340.234375 81.722656 C 341.511719 80.515625 343.949219 77.722656 345.109375 76.375 C 345.226562 76.25 345.28125 76.085938 345.28125 75.914062 C 345.28125 75.769531 345.25 75.570312 345.109375 75.382812 C 345.007812 75.25 344.753906 75.0625 344.695312 75.011719 C 344.292969 74.667969 343.902344 74.324219 343.5 73.984375 C 341.972656 72.660156 340.464844 71.195312 338.808594 70.0625 C 338.566406 69.890625 338.246094 69.964844 338.074219 70.230469 C 337.613281 70.914062 336.417969 71.585938 335.785156 72.09375 C 334.046875 73.488281 332.242188 74.773438 330.484375 76.121094 C 330.230469 76.195312 330.128906 76.476562 330.117188 76.535156 C 330.070312 76.675781 330 76.980469 330.253906 77.265625 C 330.289062 77.296875 330.519531 77.445312 330.597656 77.511719 C 330.769531 77.644531 330.945312 77.777344 331.117188 77.914062 C 331.714844 78.390625 332.335938 78.832031 332.957031 79.265625 C 334.75 80.527344 336.53125 81.839844 338.40625 82.921875 C 338.589844 83.027344 338.808594 83.011719 338.980469 82.878906 C 339.0625 82.816406 339.132812 82.734375 339.175781 82.636719 Z M 343.84375 75.953125 C 342.605469 77.378906 340.613281 79.636719 339.511719 80.683594 C 339.417969 80.761719 338.878906 81.179688 338.542969 81.5 C 336.832031 80.476562 335.199219 79.277344 333.542969 78.117188 C 332.945312 77.695312 332.347656 77.269531 331.761719 76.808594 L 331.726562 76.777344 C 333.300781 75.589844 334.886719 74.4375 336.441406 73.199219 C 337.015625 72.734375 337.992188 72.117188 338.613281 71.488281 C 340.085938 72.550781 341.429688 73.871094 342.824219 75.0625 C 343.167969 75.359375 343.511719 75.652344 343.84375 75.953125 Z M 330.5625 77.4375 Z M 330.5625 77.4375 " fill-opacity="1" fill-rule="evenodd"/><path fill="#000000" d="M 363.1875 74.246094 L 374.90625 77.253906 L 363.1875 79.539062 L 358.277344 76.613281 Z M 363.1875 74.246094 " fill-opacity="1" fill-rule="evenodd"/><path fill="#000000" d="M 68.484375 15.777344 C 67.761719 15.457031 66.277344 16.023438 65.574219 16.1875 C 62.539062 16.910156 59.605469 18.207031 56.800781 19.722656 C 46.359375 25.34375 38.792969 35.898438 34.113281 47.953125 C 32.941406 50.960938 31.976562 54.132812 31.375 57.363281 C 31.214844 58.234375 30.734375 59.824219 31.066406 60.722656 C 31.367188 61.496094 32.125 62.097656 32.640625 62.65625 C 33.746094 63.851562 34.769531 64.90625 36.035156 65.804688 C 37.667969 64.046875 39.957031 62.796875 41.808594 61.332031 C 42.371094 56.109375 44.289062 50.890625 46.269531 46.230469 C 49.636719 38.3125 54.097656 31.050781 59.515625 24.863281 C 61.976562 22.070312 65.460938 17.710938 68.484375 15.777344 Z M 68.484375 15.777344 " fill-opacity="1" fill-rule="evenodd"/><path fill="#000000" d="M 68.484375 126.726562 C 67.761719 127.046875 66.277344 126.484375 65.574219 126.316406 C 62.539062 125.597656 59.605469 124.296875 56.800781 122.785156 C 46.359375 117.160156 38.792969 106.605469 34.113281 94.550781 C 32.941406 91.542969 31.976562 88.375 31.375 85.144531 C 31.214844 84.273438 30.734375 82.683594 31.066406 81.785156 C 31.367188 81.011719 32.125 80.40625 32.640625 79.851562 C 33.746094 78.65625 34.769531 77.601562 36.035156 76.703125 C 37.667969 78.457031 39.957031 79.707031 41.808594 81.171875 C 42.371094 86.398438 44.289062 91.613281 46.269531 96.277344 C 49.636719 104.195312 54.097656 111.457031 59.515625 117.640625 C 61.976562 120.4375 65.460938 124.796875 68.484375 126.726562 Z M 68.484375 126.726562 " fill-opacity="1" fill-rule="evenodd"/><path fill="#000000" d="M 22.777344 64.304688 C 23.0625 64.484375 23.328125 64.648438 23.394531 64.707031 C 25.050781 66.214844 26.683594 67.628906 28.535156 68.828125 C 29.167969 69.234375 29.824219 69.578125 30.46875 69.957031 C 30.570312 70.019531 30.859375 70.175781 31.007812 70.355469 C 31.214844 70.59375 31.273438 70.878906 31.214844 71.15625 C 31.160156 71.4375 30.984375 71.671875 30.6875 71.78125 C 30.457031 71.863281 30.089844 71.84375 29.972656 71.847656 C 29.789062 71.851562 29.226562 72.097656 28.492188 72.441406 C 26.546875 73.328125 23.5 74.945312 22.097656 75.863281 C 21.9375 75.96875 21.453125 76.351562 21.039062 76.691406 C 21.292969 76.882812 21.554688 77.066406 21.695312 77.128906 C 23.085938 77.753906 24.730469 78.386719 25.628906 79.875 C 25.960938 80.425781 26.0625 81.070312 26.0625 81.746094 C 26.050781 82.550781 25.855469 83.410156 25.835938 84.140625 C 25.777344 86.105469 26.074219 87.816406 27.066406 89.449219 C 27.835938 90.734375 28.789062 91.945312 29.972656 92.722656 C 30.167969 92.851562 31.824219 93.789062 31.824219 93.789062 C 32.054688 93.921875 32.179688 94.222656 32.136719 94.519531 C 32.089844 94.816406 31.871094 95.039062 31.617188 95.058594 C 31.617188 95.058594 29.078125 95.269531 28.316406 95.152344 C 24.410156 94.5625 22.027344 91.65625 20.316406 87.761719 C 20.0625 87.195312 19.878906 86.484375 19.683594 85.789062 C 19.507812 85.210938 19.335938 84.644531 19.050781 84.246094 C 18.773438 83.863281 18.371094 83.609375 17.957031 83.363281 C 17.441406 83.054688 16.910156 82.769531 16.496094 82.40625 C 15.21875 81.292969 14.324219 79.882812 13.496094 78.308594 C 13.171875 77.691406 12.875 77.0625 12.585938 76.429688 C 12.4375 76.125 11.5625 74.234375 11.5625 74.234375 C 11.414062 73.910156 11.519531 73.507812 11.792969 73.332031 C 11.792969 73.332031 12.679688 72.769531 12.839844 72.671875 C 13.414062 72.34375 15 71.507812 16.1875 70.886719 C 16.199219 70.886719 11.632812 69.25 11.632812 69.25 C 11.34375 69.144531 11.171875 68.796875 11.242188 68.457031 C 11.242188 68.457031 11.714844 66.128906 12.679688 63.929688 C 13.359375 62.378906 14.289062 60.914062 15.4375 60.253906 C 15.863281 60.011719 16.4375 59.824219 16.980469 59.621094 C 17.417969 59.460938 17.832031 59.300781 18.082031 59.027344 C 18.175781 58.929688 18.1875 58.753906 18.210938 58.585938 C 18.269531 58.253906 18.300781 57.90625 18.359375 57.648438 C 18.648438 56.417969 19.097656 55.179688 19.660156 54.09375 C 22.003906 49.648438 27.890625 46.359375 32.101562 46.636719 C 32.378906 46.65625 32.605469 46.898438 32.640625 47.21875 C 32.675781 47.535156 32.515625 47.839844 32.25 47.941406 C 30.894531 48.472656 29.765625 50.003906 28.800781 51.820312 C 27.261719 54.734375 26.191406 58.421875 25.488281 60.539062 C 25.007812 62 24.535156 62.925781 23.40625 63.835938 C 23.199219 64.003906 22.992188 64.164062 22.777344 64.304688 Z M 29.351562 93.851562 C 28.042969 92.976562 26.972656 91.640625 26.121094 90.214844 C 24.984375 88.332031 24.617188 86.359375 24.683594 84.089844 C 24.707031 83.476562 24.84375 82.773438 24.890625 82.085938 C 24.9375 81.570312 24.9375 81.058594 24.683594 80.644531 C 23.914062 79.371094 22.464844 78.914062 21.28125 78.378906 C 20.890625 78.199219 19.707031 77.25 19.707031 77.25 C 19.542969 77.125 19.464844 76.921875 19.464844 76.703125 C 19.453125 76.488281 19.542969 76.28125 19.695312 76.15625 C 19.695312 76.15625 21.210938 74.902344 21.535156 74.695312 C 23.179688 73.617188 27.007812 71.613281 28.847656 70.847656 C 28.972656 70.796875 29.078125 70.753906 29.191406 70.714844 C 28.777344 70.484375 28.375 70.253906 27.972656 70 C 26.0625 68.765625 24.398438 67.316406 22.683594 65.761719 C 22.546875 65.632812 21.453125 65.066406 21.199219 64.871094 C 21.027344 64.726562 20.96875 64.566406 20.945312 64.492188 C 20.890625 64.316406 20.855469 64.007812 21.132812 63.738281 C 21.222656 63.644531 21.742188 63.398438 21.796875 63.375 C 22.132812 63.207031 22.453125 62.980469 22.753906 62.738281 C 23.660156 62 24.027344 61.242188 24.417969 60.0625 C 25.132812 57.886719 26.238281 54.109375 27.824219 51.121094 C 28.421875 49.96875 29.113281 48.941406 29.859375 48.140625 L 29.859375 48.136719 C 26.363281 48.824219 22.40625 51.449219 20.636719 54.792969 C 20.128906 55.777344 19.726562 56.894531 19.476562 58.003906 C 19.40625 58.292969 19.382812 58.707031 19.300781 59.070312 C 19.222656 59.449219 19.074219 59.777344 18.867188 60.007812 C 18.578125 60.324219 18.140625 60.570312 17.660156 60.769531 C 17.082031 61.011719 16.417969 61.1875 15.945312 61.457031 C 15 62 14.265625 63.257812 13.703125 64.539062 C 13.09375 65.925781 12.703125 67.371094 12.507812 68.160156 C 12.507812 68.160156 18.003906 70.132812 18.003906 70.132812 C 18.222656 70.21875 18.382812 70.457031 18.40625 70.734375 C 18.417969 71.015625 18.277344 71.273438 18.0625 71.386719 C 18.0625 71.386719 14.289062 73.328125 13.359375 73.871094 C 13.289062 73.914062 13.070312 74.050781 12.851562 74.1875 C 13.117188 74.765625 13.496094 75.59375 13.585938 75.785156 C 13.875 76.398438 14.164062 77.011719 14.484375 77.609375 C 15.230469 79.035156 16.023438 80.324219 17.1875 81.332031 C 17.554688 81.65625 18.027344 81.898438 18.484375 82.171875 C 19.039062 82.503906 19.554688 82.875 19.921875 83.382812 C 20.304688 83.898438 20.554688 84.613281 20.761719 85.359375 C 20.945312 85.988281 21.109375 86.636719 21.328125 87.148438 C 22.867188 90.636719 24.960938 93.296875 28.457031 93.824219 C 28.664062 93.851562 28.984375 93.859375 29.351562 93.851562 Z M 29.351562 93.851562 " fill-opacity="1" fill-rule="evenodd"/><path fill="#000000" d="M 35.6875 76.929688 C 35.550781 76.8125 34.722656 76.101562 34.632812 76.015625 C 33.355469 74.8125 30.917969 72.015625 29.753906 70.667969 C 29.640625 70.546875 29.582031 70.382812 29.582031 70.210938 C 29.582031 70.0625 29.617188 69.863281 29.753906 69.675781 C 29.859375 69.542969 30.113281 69.355469 30.167969 69.308594 C 30.570312 68.960938 30.960938 68.621094 31.367188 68.277344 C 32.894531 66.953125 34.402344 65.488281 36.058594 64.355469 C 36.296875 64.183594 36.621094 64.257812 36.792969 64.523438 C 37.253906 65.207031 38.449219 65.882812 39.082031 66.386719 C 40.816406 67.785156 42.621094 69.066406 44.382812 70.414062 C 44.636719 70.492188 44.738281 70.769531 44.75 70.828125 C 44.796875 70.96875 44.867188 71.273438 44.613281 71.5625 C 44.578125 71.589844 44.347656 71.742188 44.265625 71.804688 C 44.09375 71.941406 43.921875 72.074219 43.75 72.210938 C 43.152344 72.683594 42.53125 73.125 41.910156 73.5625 C 40.117188 74.820312 38.332031 76.132812 36.460938 77.214844 C 36.277344 77.320312 36.058594 77.304688 35.882812 77.171875 C 35.804688 77.109375 35.734375 77.027344 35.6875 76.929688 Z M 31.019531 70.246094 C 32.261719 71.671875 34.25 73.933594 35.355469 74.976562 C 35.449219 75.058594 35.988281 75.472656 36.320312 75.792969 C 38.035156 74.773438 39.667969 73.570312 41.324219 72.414062 C 41.921875 71.992188 42.519531 71.566406 43.105469 71.101562 L 43.140625 71.070312 C 41.566406 69.882812 39.976562 68.734375 38.425781 67.492188 C 37.851562 67.03125 36.875 66.410156 36.253906 65.78125 C 34.78125 66.847656 33.433594 68.164062 32.042969 69.355469 C 31.699219 69.652344 31.355469 69.949219 31.019531 70.246094 Z M 44.300781 71.730469 Z M 44.300781 71.730469 " fill-opacity="1" fill-rule="evenodd"/><path fill="#000000" d="M 11.679688 68.539062 L -0.0390625 71.546875 L 11.679688 73.832031 L 16.589844 70.90625 Z M 11.679688 68.539062 " fill-opacity="1" fill-rule="evenodd"/><path fill="#000000" d="M 285.902344 77.488281 C 285.925781 77.472656 285.9375 77.449219 285.914062 77.417969 C 285.902344 77.441406 285.902344 77.464844 285.902344 77.488281 C 285.820312 77.535156 285.5625 77.535156 285.457031 77.589844 C 285.117188 77.761719 284.785156 77.945312 284.457031 78.128906 C 283.445312 78.6875 282.527344 79.335938 281.625 80.035156 C 279.105469 81.964844 276.238281 85.078125 272.777344 85.03125 C 272.828125 84.847656 272.402344 84.351562 272.320312 84.21875 C 271.792969 83.367188 271.226562 82.539062 270.6875 81.691406 C 268.535156 78.269531 264.945312 73.414062 260.40625 76.40625 C 256.820312 78.773438 253.855469 83.382812 253.210938 87.621094 C 252.679688 91.058594 254.222656 94.347656 257.738281 95.375 C 261.769531 96.546875 266.96875 94.152344 270.402344 92.136719 C 270.425781 92.121094 270.664062 92.550781 270.6875 92.601562 C 270.851562 92.90625 270.992188 93.21875 271.144531 93.527344 C 271.566406 94.441406 271.992188 95.453125 271.945312 96.484375 C 271.921875 96.496094 271.648438 96.75 271.589844 96.808594 C 271.390625 97.011719 271.179688 97.210938 270.96875 97.40625 C 270.25 98.066406 269.535156 98.714844 268.839844 99.386719 C 266.875 101.273438 264.816406 103.03125 262.710938 104.757812 C 256.714844 109.695312 248.824219 116.621094 240.519531 116.535156 C 231.652344 116.4375 225.492188 109.015625 226.359375 100.34375 C 226.609375 97.941406 227.078125 95.574219 227.703125 93.242188 C 227.808594 92.8125 228.453125 91.191406 228.148438 90.769531 C 227.878906 90.390625 226.820312 92.058594 226.738281 92.183594 C 225.667969 93.941406 225.019531 95.851562 224.609375 97.863281 C 223.550781 102.964844 223.691406 108.753906 225.878906 113.558594 C 229.734375 122.027344 240.0625 125.058594 248.375 121.75 C 252.679688 120.042969 256.46875 117.121094 260.078125 114.273438 C 263.453125 111.613281 266.921875 108.84375 269.5 105.355469 C 270.898438 103.460938 272.945312 101.039062 273.53125 98.707031 C 274.203125 96.085938 274.027344 93.273438 273.660156 90.71875 C 273.648438 90.660156 274.167969 90.460938 274.226562 90.433594 C 274.777344 90.15625 275.34375 89.886719 275.894531 89.609375 C 278.035156 88.542969 280.269531 87.519531 282.082031 85.941406 C 282.210938 85.828125 282.105469 86.289062 282.140625 86.460938 C 282.199219 86.757812 282.304688 87.042969 282.410156 87.328125 C 282.730469 88.160156 283.070312 88.980469 283.457031 89.78125 C 284.667969 92.257812 286.855469 94.210938 289.539062 94.921875 C 290.703125 95.234375 291.949219 95.4375 293.160156 95.335938 C 298.195312 94.910156 301.097656 89.832031 302.582031 85.535156 C 302.582031 85.527344 302.59375 85.523438 302.59375 85.527344 L 302.582031 85.535156 C 302.59375 85.640625 303.109375 86.835938 303.179688 86.960938 C 303.734375 87.925781 304.402344 88.851562 305.167969 89.660156 C 307.542969 92.191406 311.460938 92.902344 314.621094 91.523438 C 316.726562 90.601562 317.914062 88.871094 318.832031 86.839844 C 320.714844 82.664062 319.820312 76.339844 318.269531 72.09375 C 318.316406 71.882812 318.023438 72.449219 317.878906 72.617188 C 317.5625 73 317.210938 73.363281 316.894531 73.738281 C 315.929688 74.863281 314.789062 75.953125 313.976562 77.199219 C 313.90625 77.300781 315.328125 79.003906 315.445312 79.273438 C 316.527344 81.644531 314.660156 84.054688 312.199219 84.1875 C 308.578125 84.386719 306.53125 81.242188 306.121094 78.019531 C 305.980469 76.910156 306.003906 75.78125 305.800781 74.679688 C 305.742188 74.324219 305.566406 73.726562 305.109375 73.742188 C 304.601562 73.757812 304.285156 74.472656 304.109375 74.863281 C 303.542969 76.148438 303.484375 77.582031 303.144531 78.929688 C 302.792969 80.292969 302.027344 81.46875 301.273438 82.644531 C 299.886719 84.832031 298.21875 87.566406 295.640625 88.484375 C 292.558594 89.578125 288.585938 87.636719 287.019531 84.894531 C 285.890625 82.894531 285.5625 79.769531 285.902344 77.488281 Z M 271.945312 96.484375 Z M 257.75 86.6875 C 257.855469 85.324219 258.609375 83.972656 259.546875 82.992188 C 260.007812 82.519531 260.582031 82.011719 261.300781 82.136719 C 262.699219 82.382812 264.101562 83.53125 265.015625 84.558594 C 265.207031 84.773438 265.839844 85.363281 265.746094 85.707031 C 265.640625 86.042969 265.136719 86.242188 264.851562 86.367188 C 263.96875 86.753906 262.996094 86.984375 262.054688 87.121094 C 261.042969 87.265625 258.289062 87.316406 257.75 86.6875 Z M 257.75 86.6875 " fill-opacity="1" fill-rule="evenodd"/><path fill="#000000" d="M 233.90625 78.625 C 233.832031 78.707031 233.800781 78.984375 233.765625 79.097656 C 233.648438 79.503906 233.535156 79.910156 233.425781 80.320312 C 233.050781 81.734375 232.660156 83.144531 232.28125 84.554688 C 232.160156 85 232.039062 85.445312 231.917969 85.886719 C 231.878906 86.015625 231.75 86.289062 231.792969 86.425781 C 231.835938 86.554688 232.167969 86.6875 232.269531 86.757812 C 232.613281 86.984375 232.945312 87.253906 233.226562 87.554688 C 233.222656 87.519531 233.320312 87.714844 233.328125 87.734375 C 233.390625 87.882812 233.460938 88.03125 233.523438 88.179688 C 233.714844 88.628906 233.867188 89.089844 234.042969 89.542969 C 234.566406 90.90625 235.097656 92.261719 235.667969 93.609375 C 236.71875 96.085938 237.941406 98.507812 239.222656 100.878906 C 239.761719 101.878906 240.285156 102.878906 240.792969 103.890625 C 241.019531 104.351562 241.320312 104.816406 241.472656 105.308594 C 241.703125 106.050781 239.847656 107.101562 239.316406 107.652344 C 237.273438 109.757812 235.058594 111.6875 232.746094 113.496094 C 223.683594 120.578125 211.347656 127.601562 199.539062 122.71875 C 199.660156 122.832031 199.25 122.5625 199.113281 122.46875 C 198.824219 122.277344 198.554688 122.066406 198.289062 121.847656 C 197.449219 121.144531 196.699219 120.386719 196.0625 119.496094 C 194.167969 116.863281 193.363281 113.761719 193.234375 110.570312 C 193.046875 106.011719 193.847656 101.582031 195.289062 97.257812 C 195.441406 96.792969 195.597656 96.328125 195.757812 95.867188 C 195.898438 95.472656 196.039062 95.082031 196.171875 94.6875 C 196.265625 94.421875 196.351562 94.15625 196.4375 93.894531 C 196.503906 93.679688 196.570312 93.464844 196.636719 93.25 C 196.691406 93.070312 196.746094 92.890625 196.792969 92.710938 C 196.898438 92.339844 197.652344 90.246094 196.636719 90.5 C 196.707031 90.671875 196.378906 90.777344 196.28125 90.9375 C 195.945312 91.496094 195.648438 92.078125 195.367188 92.667969 C 194.285156 94.949219 193.355469 97.28125 192.585938 99.679688 C 190.320312 106.734375 188.070312 115.480469 191.414062 122.515625 C 191.519531 122.488281 191.488281 122.710938 191.527344 122.808594 C 191.613281 123.023438 191.707031 123.226562 191.796875 123.4375 C 192.070312 124.070312 192.402344 124.679688 192.753906 125.273438 C 193.761719 126.964844 195.261719 128.398438 196.816406 129.605469 C 200.996094 132.855469 206.660156 132.839844 211.707031 132.203125 C 211.703125 132.179688 212.109375 132.089844 212.125 132.082031 C 212.605469 131.960938 213.089844 131.84375 213.570312 131.707031 C 214.792969 131.351562 216.011719 130.945312 217.167969 130.410156 C 220.753906 128.742188 224.394531 127.019531 227.472656 124.550781 C 227.472656 124.558594 231.546875 121.441406 232.703125 120.546875 C 236.207031 117.832031 239.734375 114.582031 241.902344 110.695312 C 241.980469 110.558594 242.238281 109.960938 242.289062 109.835938 C 242.664062 108.945312 242.96875 108.019531 243.203125 107.085938 C 243.78125 104.816406 244.039062 102.246094 243.5625 99.929688 C 243.257812 98.445312 242.648438 97.074219 242.058594 95.683594 C 242.164062 95.726562 241.976562 95.472656 241.933594 95.367188 C 241.855469 95.179688 241.773438 94.996094 241.691406 94.8125 C 241.40625 94.183594 241.128906 93.550781 240.839844 92.921875 C 240.023438 91.136719 238.734375 89.363281 238.257812 87.445312 C 238.140625 86.957031 238.644531 87.300781 238.859375 87.425781 C 239.398438 87.742188 239.925781 88.105469 240.5 88.363281 C 240.683594 88.445312 241.023438 88.578125 241.089844 88.289062 C 241.253906 87.542969 240.449219 86.484375 240.078125 85.917969 C 238.894531 84.078125 236.265625 81.128906 233.90625 78.625 Z M 233.90625 78.625 " fill-opacity="1" fill-rule="evenodd"/><path fill="#000000" d="M 211.554688 58.496094 C 211.566406 58.199219 212.117188 58.699219 212.414062 58.785156 C 213.140625 59.003906 213.894531 59.195312 214.648438 59.355469 C 214.707031 59.363281 215.339844 59.53125 215.339844 59.421875 C 215.316406 58.789062 213.707031 57.71875 213.292969 57.34375 C 211.367188 55.558594 209.4375 53.777344 207.425781 52.089844 C 207.050781 51.777344 205.582031 50.222656 205.003906 50.429688 C 204.605469 50.570312 204.367188 51.234375 204.203125 51.574219 C 203.722656 52.613281 203.273438 53.664062 202.816406 54.710938 C 202.6875 55.003906 202.25 55.679688 202.40625 56.027344 C 202.570312 56.382812 203.0625 56.289062 203.355469 56.464844 C 203.757812 56.707031 204.027344 57.277344 204.261719 57.65625 C 206.746094 61.476562 209.707031 64.875 212.53125 68.441406 C 212.519531 68.445312 212.777344 68.703125 212.800781 68.734375 C 212.789062 68.722656 211.894531 69.804688 211.835938 69.878906 C 210.660156 71.277344 209.601562 72.773438 208.589844 74.277344 C 205.746094 78.464844 204.816406 84.300781 206.132812 89.179688 C 206.875 91.941406 209.050781 94.703125 212.152344 94.476562 C 214.542969 94.300781 216.859375 92.429688 218.527344 90.863281 C 222.609375 87.058594 227.429688 81.359375 225.125 75.394531 C 224.21875 73.078125 222.726562 70.988281 221.105469 69.128906 C 220.609375 68.578125 219.164062 67.554688 219.363281 66.710938 C 219.714844 65.28125 221.09375 63.917969 221.925781 62.769531 C 224.089844 59.820312 227.183594 56.441406 228.125 52.804688 C 228.453125 51.5 228.867188 48.820312 228.078125 47.582031 C 227.960938 47.410156 227.582031 47.9375 227.535156 48.007812 C 227.03125 48.636719 226.644531 49.367188 226.21875 50.046875 C 225.160156 51.753906 224.066406 53.429688 222.925781 55.085938 C 222.019531 56.40625 221.082031 57.707031 220.152344 59.019531 C 219.246094 60.292969 218.339844 61.5625 217.421875 62.820312 C 217.246094 63.058594 216.8125 63.882812 216.445312 63.898438 C 215.542969 63.9375 212.128906 59.113281 211.554688 58.496094 Z M 215.445312 71.730469 C 215.601562 71.558594 214.542969 72.644531 214.410156 72.828125 C 214.175781 73.160156 213.929688 73.488281 213.695312 73.820312 C 212.988281 74.792969 212.320312 75.785156 211.660156 76.785156 C 209.8125 79.574219 206.648438 85.773438 211.554688 87.390625 C 214.777344 88.453125 217.90625 85.003906 219.75 82.839844 C 220.515625 81.957031 221.632812 80.78125 221.632812 79.53125 C 221.644531 78.808594 221.175781 78.105469 220.796875 77.523438 C 219.714844 75.875 216.976562 72.976562 215.445312 71.730469 Z M 215.445312 71.730469 " fill-opacity="1" fill-rule="evenodd"/><path fill="#000000" d="M 244.816406 34.546875 C 244.839844 34.585938 244.738281 34.742188 244.71875 34.78125 C 244.59375 35.027344 244.460938 35.269531 244.320312 35.511719 C 244.285156 35.566406 244.199219 35.753906 244.097656 35.746094 C 243.945312 35.734375 243.703125 35.511719 243.589844 35.4375 C 243.175781 35.152344 242.753906 34.878906 242.347656 34.585938 C 241.898438 34.261719 241.449219 33.933594 240.984375 33.625 C 240.710938 33.445312 240.351562 33.285156 240.15625 33.039062 C 239.945312 32.777344 239.953125 32.402344 239.925781 32.101562 C 239.855469 31.367188 239.84375 30.609375 240.078125 29.890625 C 240.296875 29.226562 240.707031 28.34375 241.628906 28.210938 C 242.589844 28.070312 243.597656 28.777344 244.339844 29.199219 C 245.839844 30.046875 246.789062 31.222656 247.628906 32.550781 C 248.378906 33.734375 248.972656 34.96875 249.347656 36.277344 C 249.578125 37.074219 249.714844 37.898438 249.992188 38.683594 C 250.109375 39.015625 250.261719 39.441406 250.632812 39.640625 C 250.628906 39.691406 250.664062 39.535156 250.675781 39.484375 C 250.691406 39.378906 250.710938 39.277344 250.726562 39.167969 C 250.777344 38.871094 250.820312 38.566406 250.863281 38.265625 C 250.996094 37.328125 251.164062 36.398438 251.40625 35.476562 C 252.054688 33.03125 252.988281 30.410156 254.65625 28.308594 C 255.398438 27.371094 256.546875 26.339844 258.035156 26.828125 C 259.066406 27.164062 259.777344 28.15625 260.261719 28.945312 C 260.421875 29.207031 260.703125 29.597656 260.6875 29.898438 C 260.65625 30.496094 260.144531 31.179688 259.878906 31.714844 C 259.691406 32.09375 259.515625 32.476562 259.292969 32.839844 C 259.214844 32.964844 259.117188 33.171875 258.960938 33.238281 C 258.664062 33.363281 258.304688 32.621094 258.222656 32.492188 C 257.789062 31.808594 257.132812 30.734375 256.042969 30.789062 C 254.902344 30.84375 254.398438 32.0625 254.050781 32.796875 C 253.011719 34.992188 252.4375 37.25 251.847656 39.546875 C 251.832031 39.546875 251.742188 39.882812 251.734375 39.910156 C 251.585938 40.320312 251.441406 40.734375 251.308594 41.152344 C 250.921875 42.371094 250.671875 43.660156 250.109375 44.835938 C 250.027344 45.015625 249.652344 45.902344 249.242188 45.6875 C 249.035156 45.582031 249 45.261719 248.96875 45.085938 C 248.875 44.566406 248.765625 44.050781 248.632812 43.539062 C 248.480469 42.9375 248.332031 42.339844 248.191406 41.738281 C 247.980469 40.824219 247.742188 39.90625 247.402344 39.019531 C 246.941406 37.820312 245.839844 35.105469 244.816406 34.546875 Z M 244.816406 34.546875 " fill-opacity="1" fill-rule="evenodd"/><path fill="#000000" d="M 244.816406 64.902344 C 244.839844 64.941406 244.738281 65.097656 244.71875 65.132812 C 244.59375 65.378906 244.460938 65.625 244.320312 65.863281 C 244.285156 65.921875 244.199219 66.105469 244.097656 66.097656 C 243.945312 66.089844 243.703125 65.863281 243.589844 65.789062 C 243.175781 65.503906 242.753906 65.234375 242.347656 64.941406 C 241.898438 64.613281 241.449219 64.289062 240.984375 63.976562 C 240.710938 63.800781 240.351562 63.636719 240.15625 63.394531 C 239.945312 63.128906 239.953125 62.757812 239.925781 62.453125 C 239.855469 61.71875 239.84375 60.960938 240.078125 60.246094 C 240.296875 59.582031 240.707031 58.699219 241.628906 58.5625 C 242.589844 58.421875 243.597656 59.128906 244.339844 59.550781 C 245.839844 60.402344 246.789062 61.574219 247.628906 62.902344 C 248.378906 64.089844 248.972656 65.320312 249.347656 66.632812 C 249.578125 67.425781 249.714844 68.25 249.992188 69.035156 C 250.109375 69.371094 250.261719 69.792969 250.632812 69.992188 C 250.628906 70.042969 250.664062 69.890625 250.675781 69.835938 C 250.691406 69.734375 250.710938 69.628906 250.726562 69.523438 C 250.777344 69.222656 250.820312 68.921875 250.863281 68.617188 C 250.996094 67.679688 251.164062 66.753906 251.40625 65.832031 C 252.054688 63.386719 252.988281 60.761719 254.65625 58.664062 C 255.398438 57.722656 256.546875 56.695312 258.035156 57.179688 C 259.066406 57.519531 259.777344 58.511719 260.261719 59.300781 C 260.421875 59.558594 260.703125 59.949219 260.6875 60.253906 C 260.65625 60.851562 260.144531 61.53125 259.878906 62.070312 C 259.691406 62.445312 259.515625 62.828125 259.292969 63.191406 C 259.214844 63.316406 259.117188 63.523438 258.960938 63.59375 C 258.664062 63.714844 258.304688 62.972656 258.222656 62.84375 C 257.789062 62.164062 257.132812 61.089844 256.042969 61.140625 C 254.902344 61.195312 254.398438 62.414062 254.050781 63.152344 C 253.011719 65.347656 252.4375 67.601562 251.847656 69.898438 C 251.832031 69.902344 251.742188 70.238281 251.734375 70.261719 C 251.585938 70.675781 251.441406 71.089844 251.308594 71.503906 C 250.921875 72.726562 250.671875 74.011719 250.109375 75.191406 C 250.027344 75.367188 249.652344 76.253906 249.242188 76.042969 C 249.035156 75.9375 249 75.613281 248.96875 75.441406 C 248.875 74.917969 248.765625 74.40625 248.632812 73.890625 C 248.480469 73.292969 248.332031 72.695312 248.191406 72.09375 C 247.980469 71.175781 247.742188 70.261719 247.402344 69.371094 C 246.941406 68.175781 245.839844 65.457031 244.816406 64.902344 Z M 244.816406 64.902344 " fill-opacity="1" fill-rule="evenodd"/><path fill="#000000" d="M 309.742188 97.027344 C 309.664062 96.921875 309.523438 97.296875 309.492188 97.375 C 309.433594 97.542969 309.367188 97.710938 309.304688 97.882812 C 309.109375 98.417969 308.902344 98.945312 308.703125 99.476562 C 308.566406 99.820312 308.941406 100.257812 309.042969 100.5625 C 309.351562 101.503906 308.792969 102.128906 308.039062 102.109375 C 307.824219 102.109375 307.621094 102.046875 307.421875 101.960938 C 306.578125 101.609375 305.734375 100.742188 305.816406 99.574219 C 305.859375 98.972656 306.082031 98.460938 306.207031 97.882812 C 306.25 97.695312 306.261719 97.398438 306.058594 97.339844 C 305.550781 97.195312 305.097656 98.40625 304.921875 98.785156 C 304.214844 100.308594 303.621094 102.152344 302.234375 102.976562 C 300.949219 103.738281 299.722656 102.703125 298.480469 102.3125 C 297.136719 101.894531 295.796875 102.089844 294.515625 102.6875 C 294.515625 102.820312 294.308594 102.789062 294.210938 102.847656 C 293.886719 103.046875 293.570312 103.265625 293.257812 103.488281 C 291.882812 104.46875 290.5625 105.582031 289.285156 106.738281 C 283.746094 111.746094 277.960938 116.28125 271.917969 120.371094 C 270.082031 121.609375 268.253906 122.890625 266.378906 124.046875 C 265.617188 124.515625 264.835938 124.949219 264.082031 125.4375 C 264 125.488281 263.386719 125.835938 263.558594 126.046875 C 263.761719 126.28125 264.328125 126.148438 264.570312 126.121094 C 265.5 126.011719 266.4375 125.734375 267.339844 125.476562 C 269.566406 124.84375 271.933594 124.152344 273.976562 122.886719 C 275.28125 122.078125 276.484375 120.988281 277.667969 119.957031 C 281.261719 116.820312 284.832031 113.632812 288.441406 110.523438 C 290.558594 108.695312 292.867188 106.46875 295.382812 105.46875 C 297.617188 104.582031 299.414062 107.414062 301.652344 106.441406 C 302.625 106.015625 303.335938 104.925781 303.8125 103.867188 C 303.890625 103.691406 304.359375 102.238281 304.527344 102.191406 C 304.558594 102.183594 304.640625 102.824219 304.648438 102.863281 C 304.714844 103.335938 304.785156 103.855469 305.03125 104.246094 C 305.652344 105.222656 306.785156 105.402344 307.726562 105.175781 C 310.65625 104.476562 310.667969 101.070312 310.183594 98.238281 C 310.117188 97.863281 309.855469 97.171875 309.742188 97.027344 Z M 309.742188 97.027344 " fill-opacity="1" fill-rule="evenodd"/><path fill="#000000" d="M 231.003906 57.902344 C 231.023438 57.914062 232.515625 57.128906 232.609375 57.082031 C 234.511719 56.171875 236.441406 55.296875 238.382812 54.433594 C 246.332031 50.890625 254.359375 47.414062 262.484375 44.144531 C 264.773438 43.226562 267.078125 42.320312 269.421875 41.5 C 269.566406 41.445312 271.417969 40.695312 271.519531 40.882812 C 271.722656 41.261719 270.867188 42.507812 270.703125 42.859375 C 270.351562 43.605469 270.125 44.738281 269.476562 45.367188 C 269.039062 45.789062 268.199219 45.976562 267.605469 46.199219 C 266.152344 46.738281 264.699219 47.265625 263.261719 47.832031 C 258.832031 49.570312 254.542969 51.542969 250.191406 53.410156 C 245.984375 55.222656 241.675781 56.890625 237.503906 58.761719 C 235.421875 59.699219 233.339844 60.628906 231.261719 61.570312 C 230.929688 61.71875 229.542969 62.585938 229.117188 62.40625 C 228.851562 62.296875 229.15625 61.71875 229.210938 61.578125 C 229.507812 60.804688 230.65625 58.664062 231.003906 57.902344 Z M 231.003906 57.902344 " fill-opacity="1" fill-rule="evenodd"/><path fill="#000000" d="M 81.175781 44.640625 C 81.191406 44.652344 82.6875 43.863281 82.777344 43.816406 C 84.683594 42.90625 86.613281 42.03125 88.550781 41.167969 C 96.503906 37.628906 104.527344 34.148438 112.65625 30.878906 C 114.945312 29.960938 117.25 29.054688 119.59375 28.234375 C 119.738281 28.183594 121.585938 27.429688 121.6875 27.617188 C 121.890625 27.996094 121.039062 29.246094 120.871094 29.59375 C 120.523438 30.34375 120.292969 31.472656 119.644531 32.101562 C 119.210938 32.527344 118.371094 32.710938 117.773438 32.933594 C 116.324219 33.472656 114.867188 34.003906 113.433594 34.566406 C 109 36.304688 104.710938 38.277344 100.363281 40.148438 C 96.152344 41.957031 91.847656 43.625 87.671875 45.5 C 85.59375 46.433594 83.507812 47.363281 81.429688 48.304688 C 81.097656 48.457031 79.710938 49.320312 79.289062 49.140625 C 79.023438 49.03125 79.324219 48.453125 79.382812 48.3125 C 79.679688 47.539062 80.824219 45.398438 81.175781 44.640625 Z M 81.175781 44.640625 " fill-opacity="1" fill-rule="evenodd"/><path fill="#000000" d="M 274.140625 46.738281 C 274.609375 46.25 274.960938 45.375 275.332031 44.804688 C 276.417969 43.132812 277.496094 41.453125 278.613281 39.800781 C 279.238281 38.871094 279.820312 37.769531 280.714844 37.054688 C 281.988281 36.035156 283.894531 36.171875 285.429688 36.273438 C 288.976562 36.507812 293.066406 37.621094 296.4375 38.179688 C 296.492188 38.132812 296.796875 38.277344 296.859375 38.296875 C 297.253906 38.429688 297.640625 38.574219 298.027344 38.722656 C 299.324219 39.222656 301.875 39.925781 301.417969 41.71875 C 301.128906 42.859375 300.347656 43.882812 299.636719 44.804688 C 298.535156 46.246094 297.347656 47.640625 296.109375 48.972656 C 294.46875 50.738281 292.738281 52.402344 290.9375 54.011719 C 289.75 55.074219 288.519531 56.253906 286.984375 56.828125 C 284.417969 57.792969 281.378906 57.683594 278.671875 57.84375 C 277.390625 57.921875 276.105469 57.980469 274.820312 58.03125 C 274.144531 58.058594 273.296875 58.152344 272.636719 57.957031 C 271.988281 57.761719 273.535156 56.898438 273.648438 56.835938 C 275.042969 56.0625 276.554688 55.46875 278.058594 54.929688 C 281.53125 53.691406 285.085938 52.53125 288.382812 50.886719 C 289.171875 50.496094 289.957031 50.101562 290.726562 49.675781 C 290.921875 49.566406 291.371094 49.394531 291.445312 49.15625 C 291.535156 48.867188 290.878906 48.578125 290.691406 48.492188 C 289.785156 48.082031 288.730469 47.878906 287.765625 47.648438 C 283.742188 46.683594 278.253906 46.136719 274.140625 46.738281 Z M 274.140625 46.738281 " fill-opacity="1" fill-rule="evenodd"/><path fill="#000000" d="M 97.71875 59.695312 C 98.191406 59.207031 98.539062 58.332031 98.910156 57.761719 C 99.996094 56.089844 101.078125 54.410156 102.191406 52.757812 C 102.820312 51.828125 103.398438 50.726562 104.296875 50.011719 C 105.566406 48.992188 107.472656 49.128906 109.007812 49.230469 C 112.554688 49.464844 116.644531 50.578125 120.015625 51.136719 C 120.074219 51.089844 120.375 51.234375 120.441406 51.253906 C 120.832031 51.386719 121.21875 51.53125 121.605469 51.679688 C 122.90625 52.179688 125.453125 52.882812 124.996094 54.675781 C 124.707031 55.816406 123.925781 56.839844 123.21875 57.761719 C 122.113281 59.203125 120.929688 60.597656 119.6875 61.929688 C 118.046875 63.695312 116.316406 65.359375 114.515625 66.96875 C 113.328125 68.03125 112.097656 69.210938 110.566406 69.785156 C 107.996094 70.75 104.960938 70.640625 102.253906 70.800781 C 100.96875 70.878906 99.6875 70.9375 98.402344 70.988281 C 97.726562 71.015625 96.875 71.109375 96.21875 70.910156 C 95.566406 70.71875 97.113281 69.855469 97.226562 69.792969 C 98.621094 69.019531 100.132812 68.425781 101.636719 67.886719 C 105.109375 66.648438 108.664062 65.488281 111.964844 63.84375 C 112.75 63.453125 113.535156 63.058594 114.304688 62.632812 C 114.503906 62.523438 114.953125 62.351562 115.027344 62.113281 C 115.113281 61.820312 114.460938 61.535156 114.273438 61.449219 C 113.363281 61.039062 112.3125 60.835938 111.34375 60.605469 C 107.324219 59.640625 101.832031 59.09375 97.71875 59.695312 Z M 97.71875 59.695312 " fill-opacity="1" fill-rule="evenodd"/><path fill="#000000" d="M 202.945312 33.53125 L 207.753906 27.011719 L 215.53125 32.816406 L 210.402344 38.960938 C 210.402344 38.960938 203.25 33.226562 202.945312 33.53125 Z M 202.945312 33.53125 " fill-opacity="1" fill-rule="evenodd"/><path fill="#000000" d="M 214.292969 32.097656 L 219.101562 25.578125 L 226.875 31.382812 L 221.75 37.527344 C 221.75 37.527344 214.597656 31.792969 214.292969 32.097656 Z M 214.292969 32.097656 " fill-opacity="1" fill-rule="evenodd"/><path fill="#000000" d="M 143.476562 91.582031 L 148.285156 85.0625 L 156.058594 90.871094 L 150.929688 97.011719 C 150.929688 97.011719 143.78125 91.277344 143.476562 91.582031 Z M 143.476562 91.582031 " fill-opacity="1" fill-rule="evenodd"/><path fill="#000000" d="M 211.246094 97.066406 C 210.96875 96.882812 210.71875 97.261719 210.671875 97.316406 C 210.382812 97.65625 210.175781 98.046875 209.976562 98.433594 C 209.34375 99.660156 208.769531 100.914062 208.128906 102.136719 C 206.488281 105.261719 204.414062 109.023438 204.617188 112.589844 C 204.707031 114.136719 205.273438 116.109375 207.238281 116.429688 C 209.675781 116.824219 211.089844 113.550781 211.722656 111.988281 C 211.9375 111.457031 212.453125 110.394531 212.113281 109.816406 C 211.824219 109.324219 211.089844 110.359375 210.976562 110.515625 C 210.289062 111.480469 209.195312 113.375 207.917969 111.820312 C 206.894531 110.570312 207.050781 108.859375 207.371094 107.414062 C 207.839844 105.28125 208.964844 103.332031 209.96875 101.378906 C 210.597656 100.152344 212.183594 97.6875 211.246094 97.066406 Z M 211.246094 97.066406 " fill-opacity="1" fill-rule="evenodd"/><path fill="#000000" d="M 175.179688 32 C 175.265625 31.90625 175.933594 32.722656 176.03125 32.828125 C 176.40625 33.203125 178.804688 35.898438 179.296875 35.347656 C 180.011719 34.558594 178.34375 31.636719 178.023438 30.925781 C 176.359375 27.257812 174.277344 23.71875 172.179688 20.289062 C 171.820312 19.699219 170.839844 17.316406 170.046875 17.179688 C 169.117188 17.019531 167.984375 19.257812 167.613281 19.847656 C 167.273438 20.371094 166.933594 20.90625 166.597656 21.441406 C 164.886719 24.203125 166.257812 24.390625 168.355469 26.371094 C 170.007812 27.9375 169.105469 31.460938 169.433594 33.699219 C 170.191406 38.898438 170.957031 44.097656 171.65625 49.308594 C 173.710938 64.554688 176.007812 79.828125 176.914062 95.207031 C 176.609375 94.941406 176.546875 95.933594 176.292969 96.242188 C 175.71875 96.9375 174.96875 97.5 174.222656 97.996094 C 171.933594 99.507812 169.375 100.542969 166.734375 101.265625 C 160.582031 102.9375 154.265625 103.3125 148.527344 106.355469 C 139.503906 111.136719 133.601562 119.457031 125.792969 125.742188 C 121.917969 128.863281 116.8125 131.046875 113.148438 126.34375 C 112.546875 125.582031 112.097656 124.722656 111.765625 123.800781 C 110.605469 120.597656 111.125 116.738281 111.929688 113.511719 C 112.25 112.195312 112.757812 110.953125 113.078125 109.652344 C 113.117188 109.492188 113.410156 108.5 113.011719 108.527344 C 112.425781 108.566406 111.71875 109.613281 111.410156 110.011719 C 110.136719 111.675781 109.273438 113.644531 108.628906 115.625 C 106.394531 122.5 107.605469 132 115.550781 134.492188 C 121.421875 136.339844 127.082031 132.496094 131.3125 128.796875 C 137.90625 123.023438 143.550781 115.855469 151.765625 112.277344 C 161.523438 108.015625 178.039062 109.328125 181.703125 96.335938 C 181.707031 96.347656 181.816406 95.746094 181.824219 95.664062 C 181.882812 95.15625 181.914062 94.644531 181.933594 94.125 C 182 92.488281 181.996094 90.839844 181.957031 89.207031 C 181.839844 84.597656 181.65625 79.960938 181.128906 75.367188 C 179.503906 61.164062 177.300781 46.132812 175.179688 32 Z M 175.179688 32 " fill-opacity="1" fill-rule="evenodd"/><path fill="#000000" d="M 287 70.46875 C 286.855469 70.414062 287.402344 70.050781 287.445312 70.023438 C 287.660156 69.914062 287.871094 69.789062 288.078125 69.660156 C 288.683594 69.277344 289.292969 68.898438 289.890625 68.5 C 291.757812 67.257812 293.609375 66 295.464844 64.746094 C 299.640625 61.925781 311.289062 52.933594 311.5625 52.402344 C 311.363281 52.246094 311.023438 52.140625 310.800781 52 C 309.628906 51.277344 307.859375 50.203125 307.984375 48.753906 C 308.160156 46.78125 309.984375 44.566406 312.035156 43.886719 C 312.949219 43.582031 314.152344 43.441406 314.941406 44.074219 C 315.441406 44.476562 315.582031 45.128906 315.636719 45.703125 C 315.757812 46.976562 315.390625 48.1875 314.855469 49.355469 C 314.703125 49.691406 314.519531 50.015625 314.324219 50.335938 C 314.265625 50.429688 314.078125 50.621094 314.078125 50.734375 C 314.082031 50.878906 314.542969 51.128906 314.652344 51.214844 C 315.0625 51.539062 315.640625 52.007812 315.800781 52.503906 C 316.007812 53.136719 315.304688 54.042969 314.96875 54.550781 C 314.882812 54.679688 314.640625 55.140625 314.417969 55.101562 C 314.160156 55.058594 313.933594 54.742188 313.765625 54.585938 C 313.324219 54.167969 312.832031 53.796875 312.390625 53.378906 C 312.328125 53.316406 312.265625 53.507812 312.203125 53.574219 C 312.070312 53.710938 311.941406 53.84375 311.8125 53.984375 C 311.441406 54.378906 311.058594 54.765625 310.675781 55.152344 C 309.53125 56.308594 308.367188 57.449219 307.171875 58.558594 C 302.828125 62.585938 297.652344 66.050781 292.136719 68.652344 C 290.875 69.246094 289.632812 69.925781 288.296875 70.375 C 288.0625 70.453125 287.140625 70.527344 287 70.46875 Z M 313.101562 49.902344 C 313.097656 49.894531 313.148438 49.707031 313.152344 49.699219 C 313.195312 49.574219 313.234375 49.449219 313.265625 49.320312 C 313.351562 48.941406 313.410156 48.546875 313.386719 48.15625 C 313.371094 47.9375 313.351562 47.71875 313.316406 47.5 C 313.179688 46.675781 312.460938 45.511719 311.363281 45.75 C 311.109375 45.804688 310.878906 45.925781 310.671875 46.066406 C 310.519531 46.171875 310.386719 46.292969 310.261719 46.421875 C 310.105469 46.585938 309.914062 46.792969 309.898438 47.023438 C 309.890625 47.191406 310.023438 47.332031 310.132812 47.453125 C 310.367188 47.710938 310.640625 47.929688 310.894531 48.171875 C 311.429688 48.679688 312.511719 49.4375 313.101562 49.902344 Z M 313.101562 49.902344 " fill-opacity="1" fill-rule="evenodd"/><path fill="#000000" d="M 120.914062 41.007812 C 120.773438 40.949219 121.316406 40.585938 121.363281 40.5625 C 121.578125 40.453125 121.789062 40.328125 121.992188 40.199219 C 122.601562 39.816406 123.210938 39.4375 123.808594 39.039062 C 125.671875 37.796875 127.523438 36.539062 129.378906 35.285156 C 133.554688 32.460938 145.203125 23.472656 145.476562 22.941406 C 145.277344 22.785156 144.941406 22.679688 144.714844 22.539062 C 143.542969 21.816406 141.773438 20.742188 141.902344 19.292969 C 142.078125 17.320312 143.898438 15.105469 145.949219 14.425781 C 146.863281 14.121094 148.066406 13.980469 148.855469 14.613281 C 149.359375 15.015625 149.496094 15.664062 149.550781 16.238281 C 149.675781 17.515625 149.308594 18.726562 148.773438 19.894531 C 148.617188 20.230469 148.433594 20.554688 148.238281 20.875 C 148.179688 20.96875 147.992188 21.160156 147.996094 21.273438 C 148 21.417969 148.460938 21.667969 148.566406 21.75 C 148.980469 22.078125 149.554688 22.546875 149.71875 23.042969 C 149.925781 23.675781 149.21875 24.582031 148.882812 25.089844 C 148.796875 25.21875 148.558594 25.679688 148.335938 25.640625 C 148.074219 25.59375 147.851562 25.28125 147.679688 25.121094 C 147.238281 24.707031 146.75 24.335938 146.308594 23.917969 C 146.242188 23.855469 146.179688 24.046875 146.117188 24.113281 C 145.988281 24.25 145.855469 24.382812 145.726562 24.519531 C 145.355469 24.917969 144.972656 25.304688 144.589844 25.691406 C 143.445312 26.847656 142.285156 27.988281 141.085938 29.097656 C 136.742188 33.125 131.570312 36.585938 126.050781 39.191406 C 124.792969 39.785156 123.546875 40.464844 122.210938 40.914062 C 121.976562 40.992188 121.054688 41.066406 120.914062 41.007812 Z M 147.019531 20.441406 C 147.015625 20.433594 147.066406 20.246094 147.070312 20.238281 C 147.109375 20.113281 147.152344 19.988281 147.179688 19.859375 C 147.269531 19.476562 147.328125 19.085938 147.300781 18.695312 C 147.285156 18.476562 147.269531 18.257812 147.230469 18.039062 C 147.09375 17.214844 146.378906 16.050781 145.277344 16.289062 C 145.023438 16.34375 144.792969 16.464844 144.585938 16.605469 C 144.4375 16.707031 144.300781 16.832031 144.179688 16.960938 C 144.019531 17.125 143.828125 17.332031 143.816406 17.5625 C 143.804688 17.730469 143.9375 17.871094 144.050781 17.992188 C 144.285156 18.25 144.554688 18.46875 144.808594 18.710938 C 145.347656 19.21875 146.425781 19.976562 147.019531 20.441406 Z M 147.019531 20.441406 " fill-opacity="1" fill-rule="evenodd"/><path fill="#000000" d="M 143.253906 71.222656 C 143.195312 71.328125 143.015625 71.597656 142.949219 71.71875 C 142.722656 72.132812 142.484375 72.546875 142.257812 72.964844 C 141.628906 74.128906 140.914062 75.269531 140.1875 76.378906 C 137.894531 79.875 134.449219 84.109375 129.738281 82.824219 C 129.867188 82.851562 130.160156 86 130.195312 86.265625 C 130.660156 90.152344 130.65625 93.808594 129.703125 97.628906 C 129.878906 97.425781 129.363281 98.015625 129.191406 98.21875 C 128.863281 98.59375 128.503906 98.953125 128.144531 99.304688 C 127.097656 100.320312 126.011719 101.285156 124.90625 102.238281 C 121.386719 105.25 117.753906 108.066406 113.945312 110.703125 C 108.402344 114.550781 102.675781 118.113281 96.667969 121.195312 C 94.289062 122.414062 91.792969 124.035156 89.195312 124.757812 C 83.890625 126.21875 77.921875 126.367188 72.476562 126.941406 C 68.96875 127.316406 65.34375 127.664062 61.8125 127.558594 C 61.253906 127.546875 58.722656 127.734375 58.402344 127.078125 C 58.058594 126.367188 60.75 125.84375 61.0625 125.75 C 64.492188 124.664062 67.902344 123.554688 71.269531 122.292969 C 79.789062 119.132812 88.03125 115.566406 96.152344 111.46875 C 100.167969 109.433594 104.058594 107.207031 107.925781 104.917969 C 110.773438 103.230469 113.582031 101.488281 116.34375 99.664062 C 119.246094 97.734375 122.152344 95.859375 124.882812 93.703125 C 125.636719 93.101562 127.242188 92.109375 127.511719 91.078125 C 127.761719 90.140625 126.847656 88.597656 126.484375 87.792969 C 125.511719 85.664062 124.167969 83.535156 122.65625 81.738281 C 122.140625 81.121094 120.894531 80.507812 120.53125 79.851562 C 120.328125 79.488281 120.945312 78.175781 121.046875 77.800781 C 121.613281 75.789062 122.914062 71.8125 122.914062 71.8125 C 122.914062 71.8125 125.964844 74.664062 126.6875 75.414062 C 128.738281 77.558594 131.007812 78.1875 133.734375 76.875 C 141.679688 73.03125 143.246094 61.480469 150.96875 57.085938 C 153.667969 55.546875 156.160156 58.039062 157.730469 60.035156 C 160.484375 63.53125 162.300781 68.527344 161.132812 72.992188 C 160.261719 76.328125 157.839844 79.125 154.296875 77.855469 C 152.394531 77.183594 150.585938 76.300781 148.832031 75.308594 C 147.058594 74.304688 144.460938 73.003906 143.253906 71.222656 C 143.28125 71.179688 143.28125 71.15625 143.234375 71.195312 C 143.242188 71.207031 143.246094 71.222656 143.253906 71.222656 Z M 146.988281 66.707031 C 147.011719 66.667969 147.183594 66.371094 147.207031 66.332031 C 147.261719 66.238281 147.316406 66.128906 147.375 66.035156 C 147.546875 65.730469 147.726562 65.433594 147.917969 65.152344 C 148.515625 64.269531 149.285156 63.304688 150.46875 63.398438 C 152.535156 63.558594 154.289062 65.6875 155.238281 67.335938 C 155.632812 68.03125 156.082031 68.917969 155.898438 69.734375 C 155.652344 70.847656 154.210938 70.941406 153.296875 70.78125 C 151.09375 70.390625 148.503906 68.261719 146.988281 66.707031 Z M 146.988281 66.707031 C 146.984375 66.707031 146.984375 66.707031 146.984375 66.707031 Z M 146.988281 66.707031 " fill-opacity="1" fill-rule="evenodd"/></svg>