<svg xmlns="http://www.w3.org/2000/svg" xmlns:xlink="http://www.w3.org/1999/xlink" width="500" zoomAndPan="magnify" viewBox="0 0 375 149.999998" height="200" preserveAspectRatio="xMidYMid meet" version="1.0"><path fill="#000000" d="M 281.953125 77.175781 C 281.976562 77.160156 281.988281 77.136719 281.964844 77.105469 C 281.953125 77.128906 281.953125 77.152344 281.953125 77.175781 C 281.871094 77.222656 281.617188 77.222656 281.511719 77.277344 C 281.179688 77.445312 280.855469 77.625 280.53125 77.804688 C 279.539062 78.351562 278.636719 78.988281 277.75 79.675781 C 275.277344 81.570312 272.460938 84.625 269.066406 84.582031 C 269.113281 84.402344 268.699219 83.914062 268.617188 83.785156 C 268.097656 82.945312 267.542969 82.132812 267.011719 81.300781 C 264.898438 77.941406 261.378906 73.179688 256.921875 76.113281 C 253.398438 78.4375 250.488281 82.960938 249.855469 87.125 C 249.335938 90.496094 250.847656 93.730469 254.300781 94.734375 C 258.261719 95.890625 263.363281 93.535156 266.734375 91.558594 C 266.757812 91.542969 266.988281 91.960938 267.011719 92.015625 C 267.171875 92.3125 267.3125 92.617188 267.460938 92.921875 C 267.878906 93.820312 268.292969 94.816406 268.246094 95.828125 C 268.222656 95.839844 267.957031 96.085938 267.902344 96.144531 C 267.703125 96.34375 267.496094 96.539062 267.289062 96.730469 C 266.585938 97.378906 265.878906 98.015625 265.199219 98.675781 C 263.269531 100.527344 261.25 102.253906 259.183594 103.949219 C 253.296875 108.796875 245.546875 115.59375 237.394531 115.507812 C 228.691406 115.417969 222.640625 108.128906 223.496094 99.617188 C 223.738281 97.257812 224.199219 94.933594 224.8125 92.644531 C 224.914062 92.21875 225.550781 90.628906 225.25 90.214844 C 224.984375 89.84375 223.945312 91.480469 223.863281 91.601562 C 222.8125 93.328125 222.179688 95.203125 221.773438 97.179688 C 220.734375 102.1875 220.875 107.871094 223.023438 112.589844 C 226.808594 120.902344 236.945312 123.878906 245.109375 120.632812 C 249.335938 118.953125 253.050781 116.085938 256.597656 113.292969 C 259.910156 110.675781 263.316406 107.957031 265.84375 104.535156 C 267.21875 102.675781 269.226562 100.296875 269.804688 98.007812 C 270.464844 95.4375 270.289062 92.671875 269.933594 90.167969 C 269.921875 90.109375 270.429688 89.910156 270.488281 89.886719 C 271.03125 89.613281 271.582031 89.347656 272.125 89.074219 C 274.226562 88.03125 276.421875 87.027344 278.199219 85.476562 C 278.328125 85.363281 278.222656 85.816406 278.257812 85.984375 C 278.316406 86.277344 278.417969 86.558594 278.523438 86.835938 C 278.835938 87.652344 279.167969 88.457031 279.550781 89.242188 C 280.738281 91.679688 282.886719 93.59375 285.519531 94.292969 C 286.664062 94.597656 287.886719 94.796875 289.074219 94.699219 C 294.019531 94.277344 296.871094 89.296875 298.324219 85.074219 C 298.324219 85.070312 298.335938 85.066406 298.335938 85.066406 L 298.324219 85.074219 C 298.335938 85.179688 298.84375 86.355469 298.914062 86.476562 C 299.457031 87.421875 300.113281 88.332031 300.863281 89.128906 C 303.195312 91.609375 307.042969 92.308594 310.148438 90.953125 C 312.214844 90.050781 313.378906 88.351562 314.28125 86.355469 C 316.128906 82.257812 315.25 76.046875 313.726562 71.878906 C 313.773438 71.671875 313.484375 72.230469 313.34375 72.394531 C 313.035156 72.769531 312.6875 73.125 312.375 73.496094 C 311.429688 74.597656 310.308594 75.667969 309.511719 76.890625 C 309.441406 76.992188 310.839844 78.664062 310.957031 78.929688 C 312.019531 81.253906 310.183594 83.621094 307.769531 83.753906 C 304.210938 83.949219 302.203125 80.863281 301.800781 77.695312 C 301.660156 76.609375 301.683594 75.5 301.488281 74.417969 C 301.429688 74.070312 301.257812 73.484375 300.808594 73.496094 C 300.308594 73.511719 300 74.21875 299.824219 74.597656 C 299.269531 75.859375 299.214844 77.269531 298.878906 78.589844 C 298.53125 79.925781 297.78125 81.082031 297.042969 82.238281 C 295.679688 84.386719 294.039062 87.070312 291.511719 87.972656 C 288.488281 89.046875 284.585938 87.140625 283.050781 84.445312 C 281.941406 82.484375 281.617188 79.417969 281.953125 77.175781 Z M 268.246094 95.828125 C 268.246094 95.824219 268.246094 95.824219 268.246094 95.828125 Z M 254.3125 86.207031 C 254.414062 84.867188 255.152344 83.542969 256.078125 82.578125 C 256.527344 82.117188 257.09375 81.617188 257.796875 81.738281 C 259.171875 81.980469 260.546875 83.109375 261.445312 84.117188 C 261.632812 84.328125 262.253906 84.90625 262.164062 85.246094 C 262.058594 85.574219 261.5625 85.769531 261.285156 85.890625 C 260.417969 86.269531 259.460938 86.5 258.535156 86.632812 C 257.542969 86.777344 254.84375 86.828125 254.3125 86.207031 Z M 254.3125 86.207031 " fill-opacity="1" fill-rule="evenodd"/><path fill="#000000" d="M 230.902344 78.28125 C 230.828125 78.363281 230.796875 78.636719 230.761719 78.746094 C 230.648438 79.144531 230.539062 79.546875 230.429688 79.949219 C 230.0625 81.335938 229.675781 82.71875 229.304688 84.105469 C 229.1875 84.542969 229.066406 84.976562 228.949219 85.410156 C 228.914062 85.539062 228.785156 85.808594 228.824219 85.941406 C 228.867188 86.066406 229.191406 86.199219 229.296875 86.265625 C 229.632812 86.492188 229.957031 86.757812 230.234375 87.050781 C 230.230469 87.015625 230.328125 87.207031 230.335938 87.226562 C 230.394531 87.375 230.460938 87.519531 230.527344 87.664062 C 230.710938 88.101562 230.863281 88.554688 231.035156 89 C 231.550781 90.339844 232.070312 91.671875 232.632812 92.992188 C 233.664062 95.425781 234.863281 97.804688 236.121094 100.132812 C 236.648438 101.113281 237.164062 102.09375 237.660156 103.089844 C 237.882812 103.539062 238.179688 103.996094 238.332031 104.476562 C 238.558594 105.210938 236.734375 106.242188 236.210938 106.78125 C 234.210938 108.847656 232.035156 110.742188 229.761719 112.515625 C 220.867188 119.472656 208.753906 126.367188 197.160156 121.574219 C 197.28125 121.679688 196.875 121.417969 196.742188 121.328125 C 196.460938 121.140625 196.195312 120.933594 195.933594 120.714844 C 195.109375 120.027344 194.371094 119.28125 193.746094 118.410156 C 191.886719 115.820312 191.097656 112.777344 190.96875 109.648438 C 190.785156 105.167969 191.570312 100.820312 192.988281 96.574219 C 193.140625 96.121094 193.292969 95.664062 193.449219 95.210938 C 193.585938 94.824219 193.726562 94.4375 193.855469 94.050781 C 193.945312 93.792969 194.03125 93.53125 194.113281 93.273438 C 194.183594 93.0625 194.246094 92.851562 194.3125 92.640625 C 194.363281 92.464844 194.417969 92.289062 194.46875 92.109375 C 194.566406 91.746094 195.308594 89.691406 194.3125 89.941406 C 194.382812 90.113281 194.058594 90.210938 193.960938 90.371094 C 193.632812 90.917969 193.339844 91.492188 193.066406 92.070312 C 192.003906 94.308594 191.089844 96.597656 190.332031 98.953125 C 188.109375 105.878906 185.902344 114.46875 189.1875 121.375 C 189.285156 121.34375 189.257812 121.566406 189.296875 121.664062 C 189.378906 121.871094 189.46875 122.074219 189.558594 122.277344 C 189.832031 122.898438 190.152344 123.496094 190.5 124.078125 C 191.488281 125.742188 192.960938 127.148438 194.488281 128.332031 C 198.59375 131.523438 204.152344 131.507812 209.105469 130.882812 C 209.101562 130.859375 209.5 130.769531 209.515625 130.765625 C 209.992188 130.644531 210.464844 130.53125 210.933594 130.394531 C 212.136719 130.050781 213.332031 129.648438 214.46875 129.121094 C 217.988281 127.488281 221.566406 125.792969 224.585938 123.371094 C 224.585938 123.378906 228.585938 120.316406 229.71875 119.4375 C 233.160156 116.777344 236.625 113.582031 238.753906 109.769531 C 238.828125 109.632812 239.082031 109.046875 239.132812 108.925781 C 239.496094 108.050781 239.796875 107.140625 240.03125 106.226562 C 240.59375 103.996094 240.851562 101.472656 240.382812 99.195312 C 240.082031 97.742188 239.484375 96.394531 238.902344 95.03125 C 239.007812 95.074219 238.824219 94.824219 238.78125 94.71875 C 238.707031 94.535156 238.625 94.355469 238.542969 94.175781 C 238.265625 93.554688 237.992188 92.933594 237.707031 92.316406 C 236.90625 90.566406 235.640625 88.824219 235.175781 86.941406 C 235.058594 86.464844 235.554688 86.796875 235.761719 86.921875 C 236.292969 87.234375 236.8125 87.589844 237.375 87.84375 C 237.558594 87.925781 237.890625 88.054688 237.953125 87.769531 C 238.117188 87.039062 237.324219 86 236.960938 85.441406 C 235.796875 83.636719 233.21875 80.742188 230.902344 78.28125 Z M 230.902344 78.28125 " fill-opacity="1" fill-rule="evenodd"/><path fill="#000000" d="M 208.957031 58.53125 C 208.96875 58.238281 209.511719 58.730469 209.800781 58.816406 C 210.515625 59.03125 211.257812 59.21875 211.996094 59.371094 C 212.054688 59.382812 212.675781 59.546875 212.675781 59.4375 C 212.652344 58.816406 211.070312 57.765625 210.667969 57.398438 C 208.773438 55.648438 206.878906 53.898438 204.90625 52.238281 C 204.535156 51.933594 203.09375 50.40625 202.527344 50.609375 C 202.136719 50.75 201.902344 51.402344 201.742188 51.734375 C 201.269531 52.753906 200.832031 53.785156 200.378906 54.8125 C 200.253906 55.101562 199.824219 55.765625 199.976562 56.105469 C 200.136719 56.457031 200.621094 56.363281 200.910156 56.535156 C 201.304688 56.773438 201.570312 57.335938 201.800781 57.707031 C 204.238281 61.457031 207.144531 64.792969 209.917969 68.296875 C 209.90625 68.300781 210.160156 68.550781 210.183594 68.582031 C 210.171875 68.570312 209.292969 69.632812 209.234375 69.703125 C 208.082031 71.078125 207.042969 72.546875 206.050781 74.023438 C 203.253906 78.132812 202.34375 83.863281 203.636719 88.65625 C 204.363281 91.363281 206.5 94.078125 209.546875 93.855469 C 211.890625 93.683594 214.164062 91.84375 215.804688 90.308594 C 219.8125 86.570312 224.546875 80.976562 222.28125 75.121094 C 221.394531 72.847656 219.925781 70.792969 218.335938 68.96875 C 217.847656 68.425781 216.429688 67.425781 216.625 66.59375 C 216.972656 65.191406 218.324219 63.851562 219.140625 62.726562 C 221.265625 59.832031 224.304688 56.511719 225.226562 52.945312 C 225.550781 51.664062 225.953125 49.03125 225.179688 47.816406 C 225.066406 47.644531 224.695312 48.164062 224.648438 48.234375 C 224.152344 48.851562 223.773438 49.570312 223.355469 50.234375 C 222.316406 51.910156 221.242188 53.558594 220.125 55.179688 C 219.234375 56.480469 218.3125 57.753906 217.398438 59.042969 C 216.511719 60.292969 215.621094 61.539062 214.71875 62.773438 C 214.546875 63.007812 214.121094 63.820312 213.761719 63.835938 C 212.871094 63.871094 209.523438 59.132812 208.957031 58.53125 Z M 212.78125 71.523438 C 212.929688 71.355469 211.890625 72.421875 211.765625 72.597656 C 211.535156 72.925781 211.289062 73.25 211.058594 73.574219 C 210.367188 74.53125 209.710938 75.503906 209.0625 76.484375 C 207.25 79.226562 204.144531 85.308594 208.957031 86.898438 C 212.121094 87.941406 215.195312 84.554688 217.007812 82.429688 C 217.757812 81.5625 218.855469 80.40625 218.855469 79.183594 C 218.863281 78.472656 218.402344 77.78125 218.035156 77.210938 C 216.972656 75.59375 214.28125 72.746094 212.78125 71.523438 Z M 212.78125 71.523438 " fill-opacity="1" fill-rule="evenodd"/><path fill="#000000" d="M 241.613281 35.015625 C 241.636719 35.050781 241.539062 35.203125 241.519531 35.242188 C 241.398438 35.480469 241.265625 35.722656 241.128906 35.957031 C 241.09375 36.015625 241.007812 36.195312 240.910156 36.1875 C 240.757812 36.179688 240.519531 35.957031 240.410156 35.886719 C 240.003906 35.605469 239.589844 35.339844 239.191406 35.050781 C 238.75 34.730469 238.308594 34.410156 237.851562 34.105469 C 237.585938 33.929688 237.230469 33.773438 237.039062 33.53125 C 236.832031 33.273438 236.839844 32.90625 236.8125 32.609375 C 236.746094 31.890625 236.730469 31.144531 236.960938 30.441406 C 237.175781 29.789062 237.582031 28.921875 238.484375 28.792969 C 239.429688 28.652344 240.417969 29.347656 241.144531 29.761719 C 242.621094 30.597656 243.550781 31.746094 244.375 33.050781 C 245.109375 34.214844 245.695312 35.425781 246.0625 36.710938 C 246.289062 37.492188 246.421875 38.300781 246.691406 39.074219 C 246.808594 39.398438 246.957031 39.816406 247.324219 40.011719 C 247.320312 40.0625 247.355469 39.910156 247.363281 39.859375 C 247.382812 39.757812 247.398438 39.65625 247.417969 39.550781 C 247.46875 39.257812 247.507812 38.957031 247.550781 38.660156 C 247.683594 37.742188 247.84375 36.832031 248.085938 35.925781 C 248.71875 33.523438 249.636719 30.949219 251.273438 28.886719 C 252.003906 27.964844 253.128906 26.957031 254.589844 27.433594 C 255.601562 27.765625 256.300781 28.738281 256.777344 29.511719 C 256.933594 29.769531 257.207031 30.152344 257.195312 30.449219 C 257.164062 31.035156 256.660156 31.707031 256.398438 32.234375 C 256.214844 32.601562 256.042969 32.980469 255.824219 33.335938 C 255.75 33.457031 255.65625 33.660156 255.5 33.726562 C 255.210938 33.847656 254.855469 33.121094 254.777344 32.996094 C 254.347656 32.324219 253.703125 31.269531 252.636719 31.320312 C 251.515625 31.375 251.023438 32.574219 250.679688 33.292969 C 249.660156 35.449219 249.09375 37.664062 248.515625 39.921875 C 248.5 39.921875 248.414062 40.253906 248.40625 40.277344 C 248.261719 40.679688 248.117188 41.085938 247.988281 41.496094 C 247.609375 42.695312 247.363281 43.960938 246.8125 45.113281 C 246.726562 45.289062 246.363281 46.160156 245.957031 45.953125 C 245.757812 45.847656 245.722656 45.53125 245.691406 45.359375 C 245.597656 44.847656 245.488281 44.34375 245.363281 43.839844 C 245.210938 43.25 245.0625 42.664062 244.925781 42.074219 C 244.71875 41.175781 244.484375 40.273438 244.152344 39.402344 C 243.703125 38.226562 242.617188 35.558594 241.613281 35.015625 Z M 241.613281 35.015625 " fill-opacity="1" fill-rule="evenodd"/><path fill="#000000" d="M 153.3125 23.09375 C 153.335938 23.128906 153.234375 23.285156 153.21875 23.320312 C 153.09375 23.5625 152.964844 23.800781 152.824219 24.039062 C 152.792969 24.09375 152.707031 24.273438 152.605469 24.269531 C 152.457031 24.257812 152.21875 24.039062 152.109375 23.964844 C 151.703125 23.683594 151.285156 23.417969 150.890625 23.128906 C 150.445312 22.8125 150.003906 22.492188 149.546875 22.1875 C 149.28125 22.011719 148.929688 21.851562 148.734375 21.609375 C 148.527344 21.355469 148.535156 20.988281 148.507812 20.691406 C 148.441406 19.96875 148.429688 19.226562 148.660156 18.519531 C 148.875 17.871094 149.277344 17.003906 150.179688 16.871094 C 151.128906 16.730469 152.117188 17.425781 152.84375 17.839844 C 154.316406 18.675781 155.246094 19.828125 156.074219 21.128906 C 156.808594 22.296875 157.394531 23.503906 157.761719 24.789062 C 157.984375 25.570312 158.121094 26.382812 158.390625 27.152344 C 158.507812 27.480469 158.65625 27.894531 159.023438 28.089844 C 159.019531 28.140625 159.054688 27.988281 159.0625 27.9375 C 159.082031 27.835938 159.097656 27.734375 159.117188 27.628906 C 159.164062 27.335938 159.207031 27.039062 159.25 26.742188 C 159.378906 25.820312 159.542969 24.910156 159.78125 24.003906 C 160.417969 21.605469 161.335938 19.027344 162.96875 16.96875 C 163.699219 16.046875 164.828125 15.035156 166.289062 15.511719 C 167.300781 15.84375 168 16.820312 168.472656 17.59375 C 168.632812 17.847656 168.90625 18.230469 168.890625 18.527344 C 168.863281 19.117188 168.359375 19.785156 168.097656 20.3125 C 167.914062 20.683594 167.742188 21.058594 167.523438 21.414062 C 167.449219 21.535156 167.351562 21.738281 167.195312 21.808594 C 166.910156 21.929688 166.554688 21.199219 166.472656 21.074219 C 166.046875 20.40625 165.402344 19.347656 164.335938 19.402344 C 163.214844 19.457031 162.71875 20.652344 162.378906 21.375 C 161.355469 23.527344 160.792969 25.746094 160.214844 28 C 160.199219 28 160.113281 28.332031 160.105469 28.355469 C 159.960938 28.761719 159.816406 29.167969 159.6875 29.574219 C 159.308594 30.773438 159.058594 32.039062 158.511719 33.191406 C 158.425781 33.371094 158.0625 34.238281 157.65625 34.03125 C 157.453125 33.925781 157.421875 33.609375 157.390625 33.4375 C 157.296875 32.929688 157.1875 32.421875 157.058594 31.917969 C 156.910156 31.328125 156.761719 30.742188 156.625 30.152344 C 156.417969 29.253906 156.183594 28.355469 155.851562 27.480469 C 155.398438 26.308594 154.316406 23.636719 153.3125 23.09375 Z M 153.3125 23.09375 " fill-opacity="1" fill-rule="evenodd"/><path fill="#000000" d="M 88.964844 71.667969 C 88.988281 71.707031 88.886719 71.859375 88.871094 71.894531 C 88.746094 72.136719 88.617188 72.375 88.476562 72.613281 C 88.445312 72.667969 88.359375 72.851562 88.261719 72.84375 C 88.109375 72.832031 87.871094 72.613281 87.761719 72.539062 C 87.355469 72.261719 86.9375 71.992188 86.542969 71.707031 C 86.097656 71.386719 85.65625 71.066406 85.199219 70.761719 C 84.9375 70.585938 84.582031 70.425781 84.386719 70.1875 C 84.179688 69.929688 84.191406 69.5625 84.164062 69.265625 C 84.097656 68.542969 84.082031 67.800781 84.3125 67.097656 C 84.527344 66.445312 84.933594 65.578125 85.832031 65.445312 C 86.78125 65.308594 87.769531 66 88.496094 66.414062 C 89.96875 67.25 90.902344 68.402344 91.726562 69.707031 C 92.460938 70.871094 93.046875 72.078125 93.414062 73.367188 C 93.640625 74.144531 93.773438 74.957031 94.042969 75.726562 C 94.160156 76.054688 94.308594 76.46875 94.675781 76.667969 C 94.671875 76.714844 94.707031 76.566406 94.714844 76.511719 C 94.734375 76.410156 94.75 76.308594 94.769531 76.207031 C 94.820312 75.910156 94.859375 75.613281 94.902344 75.316406 C 95.03125 74.394531 95.195312 73.484375 95.433594 72.578125 C 96.070312 70.179688 96.988281 67.605469 98.625 65.542969 C 99.351562 64.621094 100.480469 63.609375 101.941406 64.089844 C 102.953125 64.421875 103.652344 65.394531 104.128906 66.167969 C 104.285156 66.421875 104.558594 66.804688 104.546875 67.105469 C 104.515625 67.691406 104.011719 68.359375 103.75 68.886719 C 103.566406 69.257812 103.394531 69.632812 103.175781 69.992188 C 103.101562 70.113281 103.003906 70.316406 102.851562 70.382812 C 102.5625 70.503906 102.207031 69.773438 102.125 69.648438 C 101.699219 68.980469 101.054688 67.925781 99.988281 67.976562 C 98.867188 68.03125 98.375 69.226562 98.03125 69.949219 C 97.007812 72.105469 96.445312 74.320312 95.867188 76.574219 C 95.851562 76.578125 95.765625 76.90625 95.757812 76.929688 C 95.613281 77.335938 95.46875 77.742188 95.339844 78.152344 C 94.960938 79.351562 94.714844 80.613281 94.164062 81.769531 C 94.078125 81.945312 93.714844 82.8125 93.308594 82.605469 C 93.105469 82.5 93.074219 82.183594 93.042969 82.011719 C 92.949219 81.503906 92.839844 80.996094 92.714844 80.496094 C 92.5625 79.90625 92.414062 79.316406 92.277344 78.726562 C 92.070312 77.828125 91.835938 76.929688 91.503906 76.054688 C 91.054688 74.882812 89.96875 72.214844 88.964844 71.667969 Z M 88.964844 71.667969 " fill-opacity="1" fill-rule="evenodd"/><path fill="#000000" d="M 241.613281 64.8125 C 241.636719 64.851562 241.539062 65.003906 241.519531 65.042969 C 241.398438 65.28125 241.265625 65.523438 241.128906 65.757812 C 241.09375 65.816406 241.007812 65.996094 240.910156 65.988281 C 240.757812 65.980469 240.519531 65.757812 240.410156 65.6875 C 240.003906 65.40625 239.589844 65.136719 239.191406 64.851562 C 238.75 64.53125 238.308594 64.210938 237.851562 63.90625 C 237.585938 63.730469 237.230469 63.574219 237.039062 63.332031 C 236.832031 63.074219 236.839844 62.707031 236.8125 62.410156 C 236.746094 61.6875 236.730469 60.945312 236.960938 60.242188 C 237.175781 59.589844 237.582031 58.722656 238.484375 58.59375 C 239.429688 58.453125 240.417969 59.148438 241.144531 59.5625 C 242.621094 60.394531 243.550781 61.546875 244.375 62.851562 C 245.109375 64.015625 245.695312 65.226562 246.0625 66.511719 C 246.289062 67.292969 246.421875 68.101562 246.691406 68.871094 C 246.808594 69.199219 246.957031 69.617188 247.324219 69.8125 C 247.320312 69.863281 247.355469 69.710938 247.363281 69.660156 C 247.382812 69.558594 247.398438 69.457031 247.417969 69.351562 C 247.46875 69.054688 247.507812 68.757812 247.550781 68.460938 C 247.683594 67.542969 247.84375 66.628906 248.085938 65.726562 C 248.71875 63.324219 249.636719 60.75 251.273438 58.6875 C 252.003906 57.765625 253.128906 56.753906 254.589844 57.234375 C 255.601562 57.566406 256.300781 58.539062 256.777344 59.3125 C 256.933594 59.566406 257.207031 59.953125 257.195312 60.25 C 257.164062 60.835938 256.660156 61.507812 256.398438 62.035156 C 256.214844 62.402344 256.042969 62.78125 255.824219 63.136719 C 255.75 63.257812 255.65625 63.460938 255.5 63.527344 C 255.210938 63.648438 254.855469 62.921875 254.777344 62.792969 C 254.347656 62.125 253.703125 61.070312 252.636719 61.121094 C 251.515625 61.175781 251.023438 62.375 250.679688 63.09375 C 249.660156 65.25 249.09375 67.464844 248.515625 69.71875 C 248.5 69.722656 248.414062 70.050781 248.40625 70.078125 C 248.261719 70.480469 248.117188 70.886719 247.988281 71.296875 C 247.609375 72.496094 247.363281 73.757812 246.8125 74.914062 C 246.726562 75.089844 246.363281 75.960938 245.957031 75.75 C 245.757812 75.648438 245.722656 75.332031 245.691406 75.160156 C 245.597656 74.648438 245.488281 74.144531 245.363281 73.640625 C 245.210938 73.050781 245.0625 72.464844 244.925781 71.875 C 244.71875 70.972656 244.484375 70.074219 244.152344 69.203125 C 243.703125 68.027344 242.617188 65.359375 241.613281 64.8125 Z M 241.613281 64.8125 " fill-opacity="1" fill-rule="evenodd"/><path fill="#000000" d="M 305.355469 96.351562 C 305.277344 96.25 305.140625 96.617188 305.113281 96.695312 C 305.050781 96.859375 304.988281 97.023438 304.925781 97.191406 C 304.734375 97.71875 304.53125 98.234375 304.332031 98.757812 C 304.203125 99.097656 304.570312 99.523438 304.671875 99.824219 C 304.972656 100.75 304.425781 101.363281 303.683594 101.34375 C 303.472656 101.339844 303.273438 101.28125 303.078125 101.199219 C 302.25 100.851562 301.421875 100 301.5 98.855469 C 301.542969 98.261719 301.765625 97.757812 301.886719 97.195312 C 301.925781 97.011719 301.9375 96.714844 301.738281 96.660156 C 301.238281 96.515625 300.796875 97.707031 300.621094 98.082031 C 299.929688 99.574219 299.34375 101.386719 297.984375 102.191406 C 296.722656 102.941406 295.519531 101.925781 294.296875 101.542969 C 292.980469 101.132812 291.664062 101.324219 290.40625 101.910156 C 290.40625 102.039062 290.203125 102.007812 290.105469 102.066406 C 289.789062 102.261719 289.480469 102.476562 289.171875 102.695312 C 287.824219 103.660156 286.527344 104.75 285.273438 105.886719 C 279.832031 110.804688 274.15625 115.257812 268.21875 119.269531 C 266.417969 120.488281 264.625 121.746094 262.785156 122.878906 C 262.035156 123.339844 261.269531 123.765625 260.527344 124.242188 C 260.445312 124.296875 259.84375 124.636719 260.015625 124.84375 C 260.214844 125.074219 260.769531 124.941406 261.007812 124.914062 C 261.917969 124.808594 262.839844 124.539062 263.726562 124.285156 C 265.910156 123.664062 268.234375 122.980469 270.242188 121.738281 C 271.523438 120.945312 272.707031 119.878906 273.867188 118.867188 C 277.394531 115.785156 280.898438 112.65625 284.441406 109.601562 C 286.523438 107.804688 288.789062 105.625 291.257812 104.640625 C 293.453125 103.769531 295.214844 106.550781 297.410156 105.597656 C 298.367188 105.179688 299.066406 104.109375 299.535156 103.070312 C 299.613281 102.894531 300.070312 101.472656 300.238281 101.421875 C 300.265625 101.417969 300.347656 102.046875 300.351562 102.082031 C 300.417969 102.546875 300.488281 103.058594 300.730469 103.441406 C 301.339844 104.398438 302.449219 104.574219 303.375 104.351562 C 306.253906 103.667969 306.261719 100.320312 305.789062 97.542969 C 305.722656 97.175781 305.46875 96.492188 305.355469 96.351562 Z M 305.355469 96.351562 " fill-opacity="1" fill-rule="evenodd"/><path fill="#000000" d="M 228.054688 57.945312 C 228.070312 57.957031 229.539062 57.183594 229.628906 57.136719 C 231.5 56.242188 233.390625 55.382812 235.296875 54.535156 C 243.101562 51.058594 250.980469 47.644531 258.960938 44.433594 C 261.207031 43.53125 263.46875 42.644531 265.773438 41.835938 C 265.914062 41.785156 267.730469 41.050781 267.828125 41.234375 C 268.027344 41.605469 267.191406 42.828125 267.027344 43.171875 C 266.683594 43.90625 266.460938 45.019531 265.824219 45.636719 C 265.394531 46.050781 264.570312 46.234375 263.988281 46.449219 C 262.5625 46.980469 261.132812 47.5 259.722656 48.054688 C 255.375 49.761719 251.160156 51.699219 246.890625 53.53125 C 242.757812 55.3125 238.53125 56.949219 234.433594 58.789062 C 232.390625 59.703125 230.34375 60.621094 228.304688 61.542969 C 227.980469 61.691406 226.617188 62.539062 226.203125 62.363281 C 225.941406 62.253906 226.238281 61.6875 226.292969 61.550781 C 226.585938 60.792969 227.710938 58.6875 228.054688 57.945312 Z M 228.054688 57.945312 " fill-opacity="1" fill-rule="evenodd"/><path fill="#000000" d="M 151.042969 45.21875 C 151.0625 45.230469 152.527344 44.460938 152.617188 44.414062 C 154.488281 43.519531 156.382812 42.660156 158.285156 41.8125 C 166.09375 38.335938 173.972656 34.921875 181.949219 31.710938 C 184.195312 30.808594 186.460938 29.921875 188.761719 29.113281 C 188.902344 29.0625 190.71875 28.328125 190.816406 28.511719 C 191.019531 28.882812 190.179688 30.105469 190.015625 30.449219 C 189.675781 31.183594 189.449219 32.292969 188.8125 32.914062 C 188.386719 33.328125 187.558594 33.507812 186.976562 33.726562 C 185.550781 34.257812 184.121094 34.777344 182.714844 35.332031 C 178.363281 37.039062 174.152344 38.972656 169.882812 40.808594 C 165.75 42.589844 161.519531 44.226562 157.425781 46.0625 C 155.382812 46.980469 153.335938 47.894531 151.296875 48.820312 C 150.96875 48.96875 149.609375 49.816406 149.191406 49.640625 C 148.929688 49.53125 149.230469 48.964844 149.28125 48.828125 C 149.574219 48.070312 150.703125 45.964844 151.042969 45.21875 Z M 151.042969 45.21875 " fill-opacity="1" fill-rule="evenodd"/><path fill="#000000" d="M 190.867188 79.765625 C 191.039062 79.449219 189.152344 78.371094 188.996094 78.28125 C 186.761719 77.03125 183.527344 76.820312 180.167969 76.820312 C 172.480469 76.820312 168.992188 78.859375 162.015625 84.066406 C 161.777344 84.238281 161.941406 85.421875 161.972656 85.621094 C 162.242188 87.328125 162.777344 89.054688 163.339844 90.695312 C 165.390625 96.65625 171.21875 101.152344 177.128906 102.890625 C 176.734375 102.835938 177.910156 102.71875 178.289062 102.613281 C 178.960938 102.402344 179.625 102.179688 180.28125 101.941406 C 182.296875 101.207031 184.257812 100.339844 186.207031 99.457031 C 190.097656 97.679688 193.679688 95.601562 197.183594 93.167969 C 198.058594 92.566406 198.921875 91.945312 199.773438 91.316406 C 199.894531 91.222656 200.515625 90.617188 200.699219 90.695312 C 200.851562 90.761719 199.933594 92.566406 199.867188 92.695312 C 198.886719 94.828125 197.84375 96.933594 196.910156 99.0625 C 195.535156 102.21875 191.082031 102.929688 188.0625 104.625 C 178.441406 110.019531 164.234375 114.597656 154.5625 106.613281 C 146.65625 100.089844 147.320312 88.949219 146.617188 79.054688 C 145.867188 68.535156 145.183594 58.023438 143.714844 47.566406 C 142.75 40.6875 141.867188 33.085938 138.492188 26.878906 C 138 25.96875 136.90625 25.0625 136.570312 24.101562 C 135.933594 22.285156 136.648438 19.5 136.84375 17.65625 C 136.878906 17.339844 136.976562 14.328125 137.488281 14.328125 C 137.867188 14.328125 138.191406 15.066406 138.335938 15.316406 C 138.960938 16.421875 139.566406 17.539062 140.125 18.683594 C 142.644531 23.890625 144.097656 29.402344 145.09375 35.085938 C 148.15625 52.527344 149.222656 70.179688 151.773438 87.660156 C 152.492188 92.605469 153.910156 97.746094 157.859375 101.113281 C 159.011719 102.085938 160.523438 103.285156 162.113281 103.363281 C 162.34375 103.375 161.792969 103.035156 161.65625 102.835938 C 161.378906 102.441406 161.109375 102.046875 160.851562 101.640625 C 160 100.300781 159.289062 98.839844 158.675781 97.378906 C 156.875 93.089844 156.371094 88.789062 158.203125 84.476562 C 158.40625 84.003906 159.355469 82.464844 159.582031 82.148438 C 161.300781 79.742188 163.339844 77.597656 165.726562 75.832031 C 173.40625 70.191406 185.5 71.125 190.867188 79.765625 Z M 190.867188 79.765625 " fill-opacity="1" fill-rule="evenodd"/><path fill="#000000" d="M 81.238281 92.222656 C 81.066406 92.183594 81.082031 92.855469 80.957031 93.089844 C 80.648438 93.722656 80.285156 94.328125 79.953125 94.933594 C 78.984375 96.722656 77.96875 98.484375 76.96875 100.257812 C 74.09375 105.351562 71.453125 111.230469 73.539062 117.109375 C 74.40625 119.554688 76.363281 122.132812 79.078125 122.644531 C 81.035156 123.027344 82.914062 121.882812 84.476562 120.84375 C 88.175781 118.371094 91.167969 114.820312 94.167969 111.585938 C 100.59375 104.652344 107.929688 99.8125 116.898438 96.800781 C 120.371094 95.644531 123.921875 94.722656 127.449219 93.75 C 130.027344 93.023438 134.371094 91.460938 136.5625 89.855469 C 136.777344 89.382812 136.945312 88.933594 137.023438 88.421875 C 137.558594 84.871094 133.695312 84.488281 131 84.460938 C 126.535156 84.410156 118.925781 86.515625 117.0625 80.792969 C 116.824219 80.070312 116.734375 79.304688 116.746094 78.542969 C 116.761719 77.371094 117.027344 76.214844 117.386719 75.125 C 117.953125 73.375 118.800781 71.703125 119.832031 70.179688 C 121.125 68.269531 122.699219 66.207031 124.828125 65.191406 C 128.875 63.246094 132.789062 66.101562 135.296875 69.125 C 136.941406 71.113281 138.113281 73.53125 139.042969 75.925781 C 140.9375 80.78125 142.304688 86.371094 140.5 91.5 C 140.730469 91.566406 140.257812 91.90625 140.128906 92.117188 C 139.894531 92.484375 139.644531 92.839844 139.386719 93.183594 C 138.140625 94.878906 136.652344 96.417969 134.921875 97.628906 C 128.996094 101.746094 121.125 102.140625 114.5625 104.863281 C 106.742188 108.085938 100.203125 114.125 94.296875 120.027344 C 89.71875 124.59375 85.511719 130.128906 78.386719 129.328125 C 77.289062 129.195312 76.207031 128.921875 75.191406 128.472656 C 67.601562 125.171875 68.175781 115.109375 70.171875 108.53125 C 70.546875 107.308594 70.992188 106.097656 71.472656 104.902344 C 72.128906 103.285156 72.878906 101.691406 73.746094 100.179688 C 75.117188 97.785156 76.832031 95.15625 78.96875 93.355469 C 79.296875 93.078125 80.667969 91.972656 81.238281 92.222656 C 81.253906 92.234375 81.269531 92.234375 81.289062 92.261719 C 81.273438 92.25 81.253906 92.234375 81.238281 92.222656 Z M 131.445312 77.320312 C 130.035156 77.464844 128.605469 77.621094 127.1875 77.675781 C 126.191406 77.703125 124.964844 77.703125 124.125 77.082031 C 122.535156 75.886719 123.574219 73.007812 125.070312 72.230469 C 126.566406 71.441406 128.226562 72.386719 129.339844 73.402344 C 130.070312 74.070312 131.527344 76.226562 131.445312 77.320312 Z M 131.445312 77.320312 " fill-opacity="1" fill-rule="evenodd"/><path fill="#000000" d="M 106.5 122.960938 C 106.519531 122.972656 107.984375 122.199219 108.074219 122.15625 C 109.945312 121.257812 111.839844 120.402344 113.742188 119.550781 C 121.546875 116.074219 129.429688 112.660156 137.40625 109.453125 C 139.652344 108.550781 141.917969 107.660156 144.21875 106.855469 C 144.359375 106.804688 146.175781 106.066406 146.273438 106.25 C 146.476562 106.621094 145.636719 107.847656 145.472656 108.1875 C 145.132812 108.925781 144.90625 110.035156 144.269531 110.652344 C 143.839844 111.066406 143.015625 111.25 142.433594 111.46875 C 141.007812 111.996094 139.578125 112.519531 138.171875 113.070312 C 133.820312 114.777344 129.609375 116.714844 125.339844 118.550781 C 121.207031 120.328125 116.976562 121.964844 112.882812 123.804688 C 110.839844 124.722656 108.792969 125.636719 106.753906 126.558594 C 106.425781 126.707031 105.066406 127.554688 104.648438 127.378906 C 104.386719 127.269531 104.683594 126.707031 104.738281 126.566406 C 105.03125 125.808594 106.15625 123.703125 106.5 122.960938 Z M 106.5 122.960938 " fill-opacity="1" fill-rule="evenodd"/><path fill="#000000" d="M 270.398438 46.980469 C 270.859375 46.503906 271.203125 45.644531 271.566406 45.082031 C 272.632812 43.441406 273.695312 41.792969 274.789062 40.171875 C 275.40625 39.257812 275.976562 38.175781 276.855469 37.472656 C 278.101562 36.472656 279.972656 36.609375 281.484375 36.710938 C 284.960938 36.9375 288.980469 38.03125 292.289062 38.578125 C 292.34375 38.53125 292.640625 38.671875 292.707031 38.695312 C 293.089844 38.824219 293.472656 38.964844 293.847656 39.113281 C 295.125 39.605469 297.625 40.292969 297.179688 42.054688 C 296.894531 43.175781 296.128906 44.175781 295.433594 45.082031 C 294.347656 46.496094 293.183594 47.867188 291.964844 49.175781 C 290.355469 50.90625 288.65625 52.542969 286.890625 54.121094 C 285.722656 55.167969 284.515625 56.324219 283.007812 56.886719 C 280.488281 57.832031 277.507812 57.726562 274.847656 57.886719 C 273.589844 57.960938 272.328125 58.019531 271.066406 58.070312 C 270.402344 58.09375 269.570312 58.1875 268.921875 57.992188 C 268.285156 57.804688 269.804688 56.957031 269.914062 56.894531 C 271.285156 56.136719 272.769531 55.554688 274.246094 55.023438 C 277.652344 53.804688 281.144531 52.667969 284.382812 51.054688 C 285.15625 50.671875 285.925781 50.285156 286.679688 49.867188 C 286.875 49.757812 287.316406 49.589844 287.386719 49.355469 C 287.476562 49.070312 286.832031 48.789062 286.648438 48.703125 C 285.757812 48.300781 284.726562 48.101562 283.777344 47.875 C 279.828125 46.929688 274.4375 46.390625 270.398438 46.980469 Z M 270.398438 46.980469 " fill-opacity="1" fill-rule="evenodd"/><path fill="#000000" d="M 77.710938 44.398438 C 78.171875 43.917969 78.515625 43.058594 78.878906 42.496094 C 79.945312 40.855469 81.007812 39.210938 82.101562 37.585938 C 82.714844 36.675781 83.289062 35.59375 84.167969 34.886719 C 85.414062 33.890625 87.285156 34.023438 88.796875 34.125 C 92.273438 34.355469 96.292969 35.445312 99.601562 35.992188 C 99.65625 35.949219 99.953125 36.089844 100.019531 36.109375 C 100.402344 36.238281 100.785156 36.382812 101.160156 36.527344 C 102.4375 37.019531 104.9375 37.710938 104.492188 39.46875 C 104.207031 40.589844 103.441406 41.59375 102.742188 42.5 C 101.660156 43.914062 100.496094 45.28125 99.277344 46.589844 C 97.667969 48.324219 95.96875 49.957031 94.203125 51.539062 C 93.035156 52.582031 91.828125 53.738281 90.320312 54.304688 C 87.800781 55.25 84.820312 55.140625 82.160156 55.300781 C 80.902344 55.375 79.640625 55.433594 78.378906 55.484375 C 77.714844 55.507812 76.882812 55.601562 76.234375 55.410156 C 75.597656 55.21875 77.117188 54.371094 77.226562 54.308594 C 78.597656 53.550781 80.082031 52.96875 81.558594 52.441406 C 84.964844 51.222656 88.457031 50.082031 91.695312 48.472656 C 92.46875 48.085938 93.238281 47.699219 93.992188 47.28125 C 94.1875 47.175781 94.628906 47.003906 94.699219 46.769531 C 94.789062 46.484375 94.144531 46.203125 93.960938 46.121094 C 93.070312 45.714844 92.039062 45.515625 91.085938 45.289062 C 87.140625 44.34375 81.75 43.804688 77.710938 44.398438 Z M 77.710938 44.398438 " fill-opacity="1" fill-rule="evenodd"/><path fill="#000000" d="M 200.507812 34.019531 L 205.230469 27.617188 L 212.859375 33.320312 L 207.828125 39.351562 C 207.828125 39.351562 200.808594 33.722656 200.507812 34.019531 Z M 200.507812 34.019531 " fill-opacity="1" fill-rule="evenodd"/><path fill="#000000" d="M 211.648438 32.613281 L 216.367188 26.210938 L 224 31.914062 L 218.964844 37.945312 C 218.964844 37.945312 211.945312 32.316406 211.648438 32.613281 Z M 211.648438 32.613281 " fill-opacity="1" fill-rule="evenodd"/><path fill="#000000" d="M 162.726562 58.632812 L 167.449219 52.234375 L 175.078125 57.933594 L 170.046875 63.964844 C 170.046875 63.964844 163.027344 58.335938 162.726562 58.632812 Z M 162.726562 58.632812 " fill-opacity="1" fill-rule="evenodd"/><path fill="#000000" d="M 114.125 50.203125 L 118.847656 43.800781 L 126.476562 49.503906 L 121.445312 55.535156 C 121.445312 55.535156 114.425781 49.90625 114.125 50.203125 Z M 114.125 50.203125 " fill-opacity="1" fill-rule="evenodd"/><path fill="#000000" d="M 208.652344 96.394531 C 208.382812 96.21875 208.136719 96.589844 208.089844 96.640625 C 207.804688 96.976562 207.605469 97.359375 207.40625 97.742188 C 206.785156 98.941406 206.226562 100.171875 205.59375 101.375 C 203.984375 104.441406 201.945312 108.132812 202.148438 111.636719 C 202.234375 113.15625 202.789062 115.089844 204.71875 115.40625 C 207.113281 115.792969 208.5 112.578125 209.121094 111.046875 C 209.332031 110.523438 209.839844 109.480469 209.507812 108.914062 C 209.222656 108.429688 208.5 109.445312 208.390625 109.601562 C 207.714844 110.546875 206.640625 112.40625 205.390625 110.882812 C 204.382812 109.65625 204.535156 107.972656 204.847656 106.554688 C 205.3125 104.460938 206.417969 102.550781 207.398438 100.632812 C 208.015625 99.425781 209.578125 97.007812 208.652344 96.394531 Z M 208.652344 96.394531 " fill-opacity="1" fill-rule="evenodd"/><path fill="#000000" d="M 82.117188 58.191406 C 81.554688 57.820312 81.042969 58.585938 80.949219 58.699219 C 80.355469 59.386719 79.941406 60.183594 79.53125 60.972656 C 78.242188 63.457031 77.078125 66 75.773438 68.484375 C 72.433594 74.832031 68.203125 82.46875 68.621094 89.710938 C 68.804688 92.859375 69.953125 96.859375 73.957031 97.507812 C 78.921875 98.3125 81.800781 91.664062 83.085938 88.492188 C 83.527344 87.414062 84.578125 85.253906 83.886719 84.082031 C 83.292969 83.082031 81.796875 85.179688 81.570312 85.5 C 80.164062 87.457031 77.941406 91.308594 75.34375 88.152344 C 73.257812 85.617188 73.574219 82.136719 74.222656 79.203125 C 75.183594 74.871094 77.476562 70.917969 79.515625 66.953125 C 80.796875 64.457031 84.03125 59.453125 82.117188 58.191406 Z M 82.117188 58.191406 " fill-opacity="1" fill-rule="evenodd"/><path fill="#000000" d="M 171.277344 135.894531 C 171.644531 136.121094 171.984375 135.648438 172.046875 135.578125 C 172.433594 135.152344 172.707031 134.65625 172.976562 134.167969 C 173.824219 132.625 174.589844 131.046875 175.445312 129.503906 C 177.640625 125.566406 180.417969 120.832031 180.144531 116.335938 C 180.027344 114.386719 179.269531 111.902344 176.640625 111.5 C 173.375 111 171.484375 115.128906 170.640625 117.09375 C 170.351562 117.765625 169.660156 119.105469 170.117188 119.828125 C 170.503906 120.453125 171.488281 119.148438 171.636719 118.949219 C 172.558594 117.734375 174.023438 115.347656 175.726562 117.304688 C 177.097656 118.878906 176.890625 121.035156 176.464844 122.859375 C 175.832031 125.546875 174.328125 127.996094 172.988281 130.457031 C 172.144531 132.003906 170.019531 135.109375 171.277344 135.894531 Z M 171.277344 135.894531 " fill-opacity="1" fill-rule="evenodd"/><path fill="#000000" d="M 283.023438 70.28125 C 282.886719 70.222656 283.417969 69.867188 283.464844 69.84375 C 283.675781 69.734375 283.882812 69.613281 284.082031 69.484375 C 284.679688 69.109375 285.277344 68.738281 285.863281 68.347656 C 287.695312 67.128906 289.515625 65.890625 291.335938 64.660156 C 295.433594 61.890625 306.871094 53.0625 307.140625 52.542969 C 306.945312 52.390625 306.613281 52.285156 306.394531 52.148438 C 305.242188 51.4375 303.503906 50.382812 303.628906 48.960938 C 303.800781 47.023438 305.589844 44.847656 307.605469 44.179688 C 308.503906 43.882812 309.683594 43.742188 310.457031 44.367188 C 310.949219 44.761719 311.085938 45.398438 311.140625 45.964844 C 311.261719 47.214844 310.898438 48.402344 310.375 49.550781 C 310.222656 49.882812 310.042969 50.199219 309.851562 50.511719 C 309.792969 50.605469 309.609375 50.792969 309.613281 50.90625 C 309.617188 51.046875 310.070312 51.289062 310.175781 51.375 C 310.578125 51.695312 311.144531 52.15625 311.304688 52.640625 C 311.507812 53.265625 310.8125 54.152344 310.484375 54.648438 C 310.398438 54.777344 310.164062 55.230469 309.945312 55.191406 C 309.691406 55.148438 309.46875 54.839844 309.304688 54.683594 C 308.871094 54.277344 308.386719 53.910156 307.957031 53.5 C 307.890625 53.4375 307.832031 53.628906 307.769531 53.691406 C 307.640625 53.824219 307.511719 53.957031 307.386719 54.09375 C 307.019531 54.484375 306.644531 54.863281 306.269531 55.242188 C 305.148438 56.378906 304.003906 57.496094 302.828125 58.585938 C 298.566406 62.542969 293.484375 65.941406 288.070312 68.496094 C 286.832031 69.082031 285.609375 69.746094 284.300781 70.1875 C 284.070312 70.265625 283.164062 70.339844 283.023438 70.28125 Z M 308.652344 50.085938 C 308.648438 50.078125 308.699219 49.898438 308.703125 49.886719 C 308.742188 49.765625 308.78125 49.644531 308.8125 49.515625 C 308.898438 49.144531 308.957031 48.757812 308.929688 48.375 C 308.917969 48.160156 308.898438 47.945312 308.863281 47.730469 C 308.726562 46.917969 308.023438 45.777344 306.945312 46.011719 C 306.695312 46.066406 306.46875 46.183594 306.265625 46.320312 C 306.117188 46.421875 305.988281 46.542969 305.863281 46.671875 C 305.710938 46.832031 305.523438 47.035156 305.507812 47.261719 C 305.5 47.425781 305.628906 47.5625 305.738281 47.683594 C 305.96875 47.9375 306.234375 48.152344 306.484375 48.386719 C 307.011719 48.886719 308.070312 49.632812 308.652344 50.085938 Z M 308.652344 50.085938 " fill-opacity="1" fill-rule="evenodd"/><path fill="#000000" d="M 306.480469 19.882812 C 307.203125 19.566406 308.6875 20.125 309.390625 20.285156 C 312.425781 20.992188 315.359375 22.269531 318.164062 23.753906 C 328.609375 29.273438 336.175781 39.636719 340.859375 51.472656 C 342.03125 54.425781 342.996094 57.535156 343.597656 60.707031 C 343.757812 61.5625 344.238281 63.125 343.90625 64.007812 C 343.609375 64.765625 342.847656 65.359375 342.332031 65.90625 C 341.226562 67.078125 340.203125 68.113281 338.9375 68.996094 C 337.304688 67.273438 335.015625 66.046875 333.164062 64.605469 C 332.601562 59.476562 330.679688 54.355469 328.699219 49.78125 C 325.332031 42.003906 320.867188 34.875 315.449219 28.804688 C 312.988281 26.058594 309.503906 21.777344 306.480469 19.882812 Z M 306.480469 19.882812 " fill-opacity="1" fill-rule="evenodd"/><path fill="#000000" d="M 306.480469 128.808594 C 307.203125 129.125 308.6875 128.566406 309.390625 128.40625 C 312.425781 127.699219 315.359375 126.421875 318.164062 124.9375 C 328.609375 119.414062 336.175781 109.054688 340.859375 97.21875 C 342.03125 94.265625 342.996094 91.15625 343.597656 87.984375 C 343.757812 87.128906 344.238281 85.566406 343.90625 84.683594 C 343.609375 83.925781 342.847656 83.332031 342.332031 82.785156 C 341.226562 81.613281 340.203125 80.578125 338.9375 79.695312 C 337.304688 81.417969 335.015625 82.644531 333.164062 84.085938 C 332.601562 89.214844 330.679688 94.335938 328.699219 98.910156 C 325.332031 106.6875 320.867188 113.816406 315.449219 119.886719 C 312.988281 122.632812 309.503906 126.910156 306.480469 128.808594 Z M 306.480469 128.808594 " fill-opacity="1" fill-rule="evenodd"/><path fill="#000000" d="M 352.199219 67.523438 C 351.910156 67.699219 351.648438 67.863281 351.578125 67.917969 C 349.921875 69.402344 348.289062 70.789062 346.4375 71.964844 C 345.804688 72.363281 345.148438 72.699219 344.503906 73.070312 C 344.402344 73.132812 344.113281 73.289062 343.964844 73.460938 C 343.757812 73.699219 343.699219 73.980469 343.757812 74.25 C 343.816406 74.523438 343.988281 74.757812 344.285156 74.863281 C 344.515625 74.945312 344.882812 74.925781 345 74.929688 C 345.183594 74.929688 345.746094 75.175781 346.484375 75.511719 C 348.425781 76.382812 351.476562 77.96875 352.878906 78.871094 C 353.039062 78.976562 353.523438 79.351562 353.9375 79.683594 C 353.683594 79.871094 353.417969 80.050781 353.28125 80.113281 C 351.890625 80.726562 350.246094 81.347656 349.347656 82.808594 C 349.011719 83.351562 348.910156 83.980469 348.910156 84.648438 C 348.921875 85.4375 349.117188 86.28125 349.140625 86.996094 C 349.199219 88.925781 348.898438 90.609375 347.910156 92.207031 C 347.140625 93.46875 346.183594 94.660156 345 95.421875 C 344.804688 95.546875 343.148438 96.472656 343.148438 96.472656 C 342.917969 96.601562 342.792969 96.894531 342.835938 97.1875 C 342.882812 97.480469 343.101562 97.695312 343.355469 97.71875 C 343.355469 97.71875 345.898438 97.921875 346.65625 97.808594 C 350.566406 97.230469 352.949219 94.375 354.660156 90.550781 C 354.914062 89.996094 355.097656 89.296875 355.292969 88.617188 C 355.464844 88.050781 355.640625 87.492188 355.925781 87.101562 C 356.203125 86.726562 356.605469 86.476562 357.019531 86.234375 C 357.535156 85.933594 358.066406 85.652344 358.480469 85.292969 C 359.757812 84.199219 360.652344 82.816406 361.480469 81.269531 C 361.804688 80.667969 362.101562 80.046875 362.390625 79.425781 C 362.539062 79.128906 363.414062 77.273438 363.414062 77.273438 C 363.5625 76.957031 363.460938 76.558594 363.183594 76.386719 C 363.183594 76.386719 362.296875 75.835938 362.136719 75.738281 C 361.5625 75.414062 359.976562 74.59375 358.789062 73.988281 C 358.777344 73.984375 363.34375 72.378906 363.34375 72.378906 C 363.632812 72.277344 363.804688 71.933594 363.734375 71.597656 C 363.734375 71.597656 363.265625 69.3125 362.296875 67.15625 C 361.621094 65.636719 360.6875 64.195312 359.539062 63.546875 C 359.113281 63.308594 358.539062 63.125 357.996094 62.925781 C 357.558594 62.765625 357.144531 62.609375 356.890625 62.34375 C 356.800781 62.246094 356.789062 62.074219 356.765625 61.910156 C 356.707031 61.582031 356.675781 61.242188 356.617188 60.992188 C 356.328125 59.78125 355.878906 58.566406 355.316406 57.5 C 352.96875 53.132812 347.082031 49.90625 342.871094 50.179688 C 342.59375 50.195312 342.367188 50.4375 342.332031 50.746094 C 342.296875 51.0625 342.457031 51.359375 342.722656 51.460938 C 344.078125 51.980469 345.207031 53.484375 346.171875 55.269531 C 347.714844 58.128906 348.785156 61.746094 349.484375 63.828125 C 349.96875 65.261719 350.441406 66.171875 351.566406 67.066406 C 351.773438 67.230469 351.980469 67.382812 352.199219 67.523438 Z M 345.621094 96.53125 C 346.933594 95.675781 348 94.363281 348.851562 92.960938 C 349.992188 91.113281 350.359375 89.179688 350.289062 86.949219 C 350.265625 86.347656 350.128906 85.652344 350.082031 84.980469 C 350.039062 84.472656 350.039062 83.972656 350.289062 83.566406 C 351.0625 82.316406 352.511719 81.867188 353.695312 81.339844 C 354.085938 81.164062 355.269531 80.234375 355.269531 80.234375 C 355.433594 80.113281 355.511719 79.910156 355.511719 79.695312 C 355.523438 79.484375 355.433594 79.28125 355.28125 79.160156 C 355.28125 79.160156 353.765625 77.929688 353.441406 77.722656 C 351.796875 76.667969 347.96875 74.699219 346.125 73.949219 C 346 73.898438 345.898438 73.855469 345.78125 73.816406 C 346.195312 73.59375 346.597656 73.363281 347 73.113281 C 348.910156 71.90625 350.578125 70.480469 352.292969 68.953125 C 352.429688 68.828125 353.523438 68.269531 353.777344 68.078125 C 353.949219 67.9375 354.003906 67.78125 354.027344 67.707031 C 354.085938 67.535156 354.121094 67.230469 353.84375 66.964844 C 353.753906 66.875 353.234375 66.636719 353.175781 66.609375 C 352.84375 66.445312 352.523438 66.226562 352.222656 65.984375 C 351.3125 65.261719 350.945312 64.515625 350.554688 63.359375 C 349.839844 61.222656 348.738281 57.515625 347.148438 54.578125 C 346.550781 53.449219 345.863281 52.441406 345.113281 51.652344 L 345.113281 51.648438 C 348.609375 52.328125 352.566406 54.902344 354.339844 58.183594 C 354.84375 59.148438 355.246094 60.246094 355.5 61.339844 C 355.570312 61.625 355.59375 62.027344 355.671875 62.382812 C 355.753906 62.753906 355.902344 63.082031 356.109375 63.304688 C 356.398438 63.617188 356.835938 63.855469 357.316406 64.054688 C 357.894531 64.289062 358.558594 64.464844 359.03125 64.726562 C 359.976562 65.261719 360.710938 66.496094 361.273438 67.753906 C 361.882812 69.117188 362.277344 70.535156 362.472656 71.308594 C 362.472656 71.308594 356.972656 73.246094 356.972656 73.246094 C 356.753906 73.328125 356.59375 73.5625 356.570312 73.835938 C 356.558594 74.109375 356.695312 74.367188 356.914062 74.476562 C 356.914062 74.476562 360.6875 76.382812 361.621094 76.914062 C 361.6875 76.957031 361.90625 77.09375 362.125 77.226562 C 361.863281 77.796875 361.480469 78.605469 361.390625 78.792969 C 361.101562 79.398438 360.816406 80 360.492188 80.585938 C 359.746094 81.988281 358.953125 83.25 357.789062 84.238281 C 357.421875 84.558594 356.949219 84.796875 356.488281 85.066406 C 355.9375 85.390625 355.421875 85.753906 355.050781 86.253906 C 354.671875 86.757812 354.417969 87.460938 354.210938 88.195312 C 354.027344 88.8125 353.867188 89.449219 353.648438 89.949219 C 352.109375 93.375 350.015625 95.984375 346.519531 96.503906 C 346.3125 96.535156 345.988281 96.539062 345.621094 96.53125 Z M 345.621094 96.53125 " fill-opacity="1" fill-rule="evenodd"/><path fill="#000000" d="M 339.28125 79.917969 C 339.421875 79.800781 340.25 79.105469 340.339844 79.019531 C 341.617188 77.839844 344.054688 75.09375 345.21875 73.773438 C 345.332031 73.652344 345.390625 73.488281 345.390625 73.320312 C 345.390625 73.175781 345.355469 72.980469 345.21875 72.796875 C 345.113281 72.667969 344.863281 72.484375 344.804688 72.433594 C 344.402344 72.097656 344.011719 71.761719 343.609375 71.425781 C 342.078125 70.125 340.570312 68.683594 338.914062 67.574219 C 338.671875 67.40625 338.351562 67.476562 338.179688 67.738281 C 337.71875 68.410156 336.523438 69.070312 335.890625 69.570312 C 334.152344 70.941406 332.347656 72.199219 330.585938 73.523438 C 330.335938 73.597656 330.230469 73.871094 330.21875 73.929688 C 330.171875 74.066406 330.105469 74.363281 330.355469 74.648438 C 330.390625 74.679688 330.621094 74.824219 330.703125 74.886719 C 330.875 75.019531 331.046875 75.148438 331.21875 75.285156 C 331.816406 75.75 332.4375 76.183594 333.058594 76.609375 C 334.855469 77.847656 336.636719 79.136719 338.511719 80.199219 C 338.695312 80.300781 338.914062 80.285156 339.085938 80.15625 C 339.167969 80.09375 339.238281 80.015625 339.28125 79.917969 Z M 343.953125 73.355469 C 342.710938 74.757812 340.71875 76.976562 339.617188 78 C 339.523438 78.082031 338.984375 78.488281 338.648438 78.800781 C 336.9375 77.800781 335.304688 76.621094 333.648438 75.484375 C 333.046875 75.070312 332.449219 74.652344 331.863281 74.199219 L 331.828125 74.167969 C 333.40625 73 334.992188 71.871094 336.546875 70.652344 C 337.121094 70.199219 338.097656 69.589844 338.71875 68.972656 C 340.191406 70.019531 341.539062 71.3125 342.929688 72.484375 C 343.273438 72.773438 343.621094 73.0625 343.953125 73.355469 Z M 330.667969 74.8125 L 330.667969 74.816406 Z M 330.667969 74.8125 " fill-opacity="1" fill-rule="evenodd"/><path fill="#000000" d="M 363.300781 71.683594 L 375.019531 74.632812 L 363.300781 76.878906 L 358.386719 74.003906 Z M 363.300781 71.683594 " fill-opacity="1" fill-rule="evenodd"/><path fill="#000000" d="M 68.523438 14.28125 C 67.800781 13.964844 66.316406 14.519531 65.613281 14.683594 C 62.578125 15.390625 59.644531 16.667969 56.835938 18.152344 C 46.394531 23.671875 38.824219 34.035156 34.144531 45.871094 C 32.972656 48.824219 32.003906 51.933594 31.40625 55.105469 C 31.246094 55.960938 30.761719 57.523438 31.097656 58.40625 C 31.394531 59.164062 32.152344 59.757812 32.671875 60.304688 C 33.777344 61.476562 34.800781 62.511719 36.066406 63.394531 C 37.699219 61.671875 39.988281 60.441406 41.839844 59.003906 C 42.402344 53.875 44.324219 48.753906 46.300781 44.179688 C 49.671875 36.402344 54.132812 29.273438 59.550781 23.199219 C 62.011719 20.457031 65.5 16.175781 68.523438 14.28125 Z M 68.523438 14.28125 " fill-opacity="1" fill-rule="evenodd"/><path fill="#000000" d="M 68.523438 123.207031 C 67.800781 123.519531 66.316406 122.964844 65.613281 122.804688 C 62.578125 122.097656 59.644531 120.820312 56.835938 119.335938 C 46.394531 113.8125 38.824219 103.453125 34.144531 91.617188 C 32.972656 88.664062 32.003906 85.554688 31.40625 82.382812 C 31.246094 81.527344 30.761719 79.964844 31.097656 79.082031 C 31.394531 78.324219 32.152344 77.730469 32.671875 77.183594 C 33.777344 76.011719 34.800781 74.976562 36.066406 74.09375 C 37.699219 75.816406 39.988281 77.042969 41.839844 78.484375 C 42.402344 83.613281 44.324219 88.734375 46.300781 93.308594 C 49.671875 101.085938 54.132812 108.214844 59.550781 114.285156 C 62.011719 117.03125 65.5 121.308594 68.523438 123.207031 Z M 68.523438 123.207031 " fill-opacity="1" fill-rule="evenodd"/><path fill="#000000" d="M 22.804688 61.921875 C 23.089844 62.097656 23.355469 62.261719 23.425781 62.316406 C 25.082031 63.796875 26.714844 65.1875 28.566406 66.359375 C 29.199219 66.761719 29.855469 67.097656 30.496094 67.46875 C 30.601562 67.53125 30.890625 67.683594 31.039062 67.859375 C 31.246094 68.097656 31.304688 68.378906 31.246094 68.648438 C 31.1875 68.921875 31.015625 69.15625 30.714844 69.261719 C 30.484375 69.339844 30.117188 69.324219 30.003906 69.328125 C 29.820312 69.328125 29.253906 69.574219 28.519531 69.910156 C 26.574219 70.78125 23.527344 72.367188 22.125 73.269531 C 21.964844 73.371094 21.480469 73.75 21.066406 74.082031 C 21.320312 74.269531 21.582031 74.449219 21.722656 74.511719 C 23.113281 75.125 24.757812 75.746094 25.65625 77.207031 C 25.988281 77.75 26.09375 78.378906 26.09375 79.046875 C 26.082031 79.835938 25.886719 80.679688 25.863281 81.394531 C 25.804688 83.324219 26.105469 85.003906 27.09375 86.605469 C 27.863281 87.867188 28.820312 89.058594 30.003906 89.820312 C 30.199219 89.945312 31.855469 90.871094 31.855469 90.871094 C 32.085938 91 32.210938 91.292969 32.164062 91.585938 C 32.121094 91.878906 31.902344 92.09375 31.648438 92.117188 C 31.648438 92.117188 29.105469 92.320312 28.347656 92.207031 C 24.4375 91.628906 22.054688 88.773438 20.339844 84.949219 C 20.089844 84.394531 19.90625 83.695312 19.707031 83.015625 C 19.535156 82.449219 19.363281 81.890625 19.078125 81.496094 C 18.800781 81.125 18.398438 80.875 17.984375 80.632812 C 17.464844 80.332031 16.9375 80.050781 16.523438 79.691406 C 15.246094 78.597656 14.347656 77.214844 13.519531 75.667969 C 13.199219 75.066406 12.898438 74.445312 12.613281 73.824219 C 12.460938 73.527344 11.589844 71.671875 11.589844 71.671875 C 11.4375 71.355469 11.542969 70.957031 11.820312 70.78125 C 11.820312 70.78125 12.703125 70.234375 12.867188 70.136719 C 13.441406 69.8125 15.027344 68.992188 16.210938 68.386719 C 16.222656 68.382812 11.65625 66.777344 11.65625 66.777344 C 11.371094 66.675781 11.199219 66.332031 11.265625 65.996094 C 11.265625 65.996094 11.738281 63.710938 12.703125 61.554688 C 13.382812 60.03125 14.316406 58.59375 15.464844 57.945312 C 15.890625 57.707031 16.464844 57.523438 17.007812 57.324219 C 17.441406 57.164062 17.855469 57.007812 18.109375 56.742188 C 18.203125 56.644531 18.214844 56.472656 18.238281 56.308594 C 18.292969 55.980469 18.328125 55.640625 18.386719 55.386719 C 18.671875 54.179688 19.121094 52.964844 19.6875 51.894531 C 22.03125 47.53125 27.921875 44.304688 32.132812 44.578125 C 32.40625 44.59375 32.636719 44.835938 32.671875 45.144531 C 32.707031 45.460938 32.546875 45.757812 32.28125 45.859375 C 30.921875 46.378906 29.796875 47.878906 28.832031 49.667969 C 27.289062 52.527344 26.21875 56.144531 25.515625 58.226562 C 25.035156 59.660156 24.5625 60.566406 23.4375 61.460938 C 23.230469 61.628906 23.023438 61.78125 22.804688 61.921875 Z M 29.382812 90.929688 C 28.070312 90.074219 27 88.757812 26.148438 87.359375 C 25.011719 85.511719 24.644531 83.574219 24.710938 81.347656 C 24.734375 80.742188 24.875 80.050781 24.917969 79.378906 C 24.964844 78.871094 24.964844 78.371094 24.710938 77.964844 C 23.941406 76.714844 22.492188 76.265625 21.308594 75.738281 C 20.917969 75.5625 19.730469 74.632812 19.730469 74.632812 C 19.570312 74.507812 19.492188 74.308594 19.492188 74.09375 C 19.480469 73.882812 19.570312 73.679688 19.71875 73.558594 C 19.71875 73.558594 21.238281 72.324219 21.5625 72.121094 C 23.207031 71.066406 27.035156 69.097656 28.875 68.347656 C 29.003906 68.296875 29.105469 68.253906 29.222656 68.214844 C 28.808594 67.992188 28.40625 67.761719 28 67.511719 C 26.09375 66.304688 24.425781 64.878906 22.710938 63.351562 C 22.574219 63.226562 21.480469 62.667969 21.226562 62.476562 C 21.054688 62.335938 20.996094 62.179688 20.972656 62.105469 C 20.917969 61.933594 20.882812 61.628906 21.160156 61.363281 C 21.25 61.273438 21.769531 61.035156 21.824219 61.007812 C 22.160156 60.84375 22.480469 60.625 22.78125 60.382812 C 23.6875 59.660156 24.058594 58.914062 24.449219 57.757812 C 25.160156 55.621094 26.265625 51.910156 27.851562 48.976562 C 28.449219 47.847656 29.140625 46.835938 29.886719 46.050781 L 29.886719 46.046875 C 26.390625 46.722656 22.433594 49.300781 20.664062 52.582031 C 20.15625 53.546875 19.753906 54.644531 19.5 55.738281 C 19.433594 56.019531 19.410156 56.425781 19.328125 56.78125 C 19.25 57.152344 19.097656 57.480469 18.890625 57.703125 C 18.605469 58.015625 18.167969 58.253906 17.683594 58.453125 C 17.109375 58.6875 16.441406 58.863281 15.972656 59.125 C 15.027344 59.660156 14.292969 60.894531 13.726562 62.152344 C 13.117188 63.515625 12.726562 64.933594 12.53125 65.707031 C 12.53125 65.707031 18.03125 67.644531 18.03125 67.644531 C 18.25 67.726562 18.410156 67.960938 18.433594 68.234375 C 18.445312 68.507812 18.304688 68.765625 18.085938 68.875 C 18.085938 68.875 14.316406 70.777344 13.382812 71.3125 C 13.3125 71.355469 13.09375 71.492188 12.875 71.625 C 13.140625 72.191406 13.519531 73.003906 13.613281 73.191406 C 13.902344 73.796875 14.1875 74.398438 14.511719 74.984375 C 15.257812 76.386719 16.050781 77.648438 17.214844 78.636719 C 17.582031 78.957031 18.050781 79.195312 18.511719 79.464844 C 19.066406 79.789062 19.582031 80.152344 19.949219 80.652344 C 20.332031 81.15625 20.582031 81.859375 20.789062 82.59375 C 20.972656 83.210938 21.136719 83.847656 21.355469 84.347656 C 22.894531 87.773438 24.988281 90.382812 28.484375 90.902344 C 28.691406 90.929688 29.015625 90.9375 29.382812 90.929688 Z M 29.382812 90.929688 " fill-opacity="1" fill-rule="evenodd"/><path fill="#000000" d="M 35.71875 74.316406 C 35.582031 74.199219 34.753906 73.503906 34.660156 73.417969 C 33.386719 72.238281 30.945312 69.492188 29.785156 68.167969 C 29.667969 68.046875 29.613281 67.886719 29.613281 67.71875 C 29.613281 67.574219 29.648438 67.378906 29.785156 67.195312 C 29.886719 67.066406 30.140625 66.882812 30.199219 66.832031 C 30.601562 66.492188 30.992188 66.160156 31.394531 65.824219 C 32.925781 64.523438 34.429688 63.082031 36.089844 61.972656 C 36.328125 61.804688 36.652344 61.875 36.824219 62.136719 C 37.285156 62.808594 38.480469 63.46875 39.113281 63.96875 C 40.851562 65.335938 42.65625 66.597656 44.414062 67.921875 C 44.667969 67.996094 44.773438 68.269531 44.785156 68.324219 C 44.828125 68.464844 44.898438 68.761719 44.644531 69.046875 C 44.609375 69.074219 44.378906 69.222656 44.300781 69.285156 C 44.128906 69.417969 43.957031 69.546875 43.78125 69.683594 C 43.183594 70.148438 42.5625 70.582031 41.941406 71.007812 C 40.148438 72.246094 38.367188 73.535156 36.492188 74.597656 C 36.304688 74.699219 36.089844 74.683594 35.914062 74.554688 C 35.835938 74.492188 35.765625 74.410156 35.71875 74.316406 Z M 31.050781 67.753906 C 32.292969 69.15625 34.28125 71.375 35.386719 72.398438 C 35.476562 72.480469 36.019531 72.886719 36.351562 73.199219 C 38.066406 72.199219 39.699219 71.019531 41.355469 69.882812 C 41.953125 69.46875 42.550781 69.050781 43.136719 68.59375 L 43.171875 68.566406 C 41.597656 67.398438 40.011719 66.269531 38.457031 65.050781 C 37.882812 64.597656 36.90625 63.988281 36.285156 63.371094 C 34.8125 64.417969 33.464844 65.710938 32.074219 66.882812 C 31.730469 67.171875 31.382812 67.460938 31.050781 67.753906 Z M 44.335938 69.210938 Z M 44.335938 69.210938 " fill-opacity="1" fill-rule="evenodd"/><path fill="#000000" d="M 11.703125 66.082031 L -0.015625 69.03125 L 11.703125 71.277344 L 16.613281 68.402344 Z M 11.703125 66.082031 " fill-opacity="1" fill-rule="evenodd"/></svg>