<svg xmlns="http://www.w3.org/2000/svg" xmlns:xlink="http://www.w3.org/1999/xlink" width="500" zoomAndPan="magnify" viewBox="0 0 375 157.92" height="200" preserveAspectRatio="xMidYMid meet" version="1.0"><defs><clipPath id="697583d53d"><path d="M 358 72 L 374.902344 72 L 374.902344 78 L 358 78 Z M 358 72 " clip-rule="nonzero"/></clipPath><clipPath id="54debb1fa4"><path d="M 0.09375 68 L 17 68 L 17 73 L 0.09375 73 Z M 0.09375 68 " clip-rule="nonzero"/></clipPath></defs><path fill="#000000" d="M 187.996094 29.515625 C 187.945312 29.554688 188.054688 29.414062 188.082031 29.363281 C 188.140625 29.261719 188.195312 29.152344 188.253906 29.046875 C 188.429688 28.71875 188.609375 28.390625 188.78125 28.058594 C 189.265625 27.113281 189.816406 26.179688 190.296875 25.234375 C 190.292969 25.304688 190.425781 25.425781 190.460938 25.488281 C 190.570312 25.671875 190.664062 25.863281 190.765625 26.054688 C 191.109375 26.691406 191.417969 27.339844 191.738281 27.984375 C 193.058594 30.621094 194.550781 33.210938 195.742188 35.886719 C 195.929688 36.304688 196.113281 36.730469 196.273438 37.15625 C 196.363281 37.402344 196.453125 37.652344 196.519531 37.90625 C 196.554688 38.042969 196.585938 38.179688 196.601562 38.320312 C 196.613281 38.410156 196.617188 38.503906 196.613281 38.59375 C 196.609375 38.648438 196.601562 38.703125 196.582031 38.757812 C 196.386719 39.324219 195.65625 38.550781 195.46875 38.390625 C 195.386719 38.320312 195.304688 38.25 195.21875 38.183594 C 195.125 38.105469 195.03125 38.023438 194.9375 37.945312 C 194.808594 37.839844 194.679688 37.730469 194.550781 37.621094 C 194.378906 37.476562 194.210938 37.332031 194.039062 37.183594 C 193.863281 37.035156 193.6875 36.886719 193.523438 36.734375 C 193.460938 36.675781 193.527344 36.882812 193.539062 36.957031 C 193.558594 37.140625 193.582031 37.320312 193.605469 37.5 C 193.660156 37.976562 193.726562 38.453125 193.804688 38.925781 C 194.03125 40.316406 194.292969 41.699219 194.535156 43.089844 C 195.257812 47.296875 195.839844 51.53125 196.386719 55.757812 C 196.261719 55.734375 196.429688 55.953125 196.449219 56.050781 C 196.496094 56.289062 196.523438 56.527344 196.5625 56.765625 C 196.664062 57.417969 196.765625 58.074219 196.867188 58.730469 C 197.152344 60.621094 197.425781 62.507812 197.664062 64.40625 C 198.585938 71.742188 200.324219 79.535156 198.789062 86.953125 C 198.457031 88.558594 198.242188 90.390625 197.1875 91.835938 C 197.042969 92.03125 196.304688 93.097656 195.925781 93.070312 C 195.847656 93.066406 195.8125 92.996094 195.796875 92.945312 C 195.472656 92.019531 195.90625 90.648438 195.90625 89.703125 C 195.902344 85.933594 195.695312 82.195312 195.25 78.449219 C 193.753906 65.789062 188.960938 34.132812 188.871094 31.15625 C 188.875 31.15625 188.648438 30.742188 188.625 30.707031 C 188.460938 30.40625 188.171875 29.808594 187.996094 29.515625 Z M 187.996094 29.515625 " fill-opacity="1" fill-rule="evenodd"/><path fill="#000000" d="M 169.4375 53.335938 C 169.148438 53.386719 168.835938 53.789062 168.753906 53.878906 C 168.605469 54.046875 168.457031 54.210938 168.3125 54.382812 C 167.789062 54.996094 167.421875 55.464844 167.671875 56.203125 C 168.171875 57.679688 169.046875 59.046875 169.589844 60.503906 C 169.859375 61.226562 169.558594 61.898438 168.484375 61.933594 C 166.378906 62 165.914062 59.453125 165.660156 58.308594 C 165.589844 57.980469 165.515625 57.65625 165.433594 57.332031 C 165.320312 56.886719 165.183594 56.449219 165.019531 56.011719 C 164.8125 55.464844 164.597656 54.914062 164.308594 54.390625 C 164.269531 54.324219 164.089844 53.898438 163.964844 53.914062 C 163.652344 53.949219 163.230469 54.824219 163.101562 55.019531 C 162.933594 55.269531 162.664062 55.558594 162.644531 55.847656 C 162.605469 56.378906 163.3125 57.027344 163.53125 57.519531 C 163.847656 58.234375 163.894531 59.011719 163.871094 59.765625 C 163.925781 59.777344 163.847656 60.011719 163.84375 60.035156 C 163.773438 60.320312 163.703125 60.605469 163.582031 60.878906 C 163.128906 61.917969 160.949219 62.804688 160.035156 61.570312 C 159.667969 61.074219 159.753906 60.40625 159.785156 59.859375 C 159.84375 58.667969 160.152344 57.476562 159.996094 56.285156 C 159.9375 55.855469 159.816406 55.394531 159.527344 55.015625 C 159.496094 54.976562 159.230469 54.640625 159.125 54.710938 C 158.851562 54.890625 158.714844 55.34375 158.570312 55.589844 C 158.441406 55.808594 158.320312 56.023438 158.195312 56.242188 C 158.050781 56.5 157.917969 56.757812 157.765625 57.011719 C 157.738281 57.058594 157.574219 57.242188 157.589844 57.296875 C 157.617188 57.402344 157.925781 57.542969 158.011719 57.625 C 158.265625 57.875 158.378906 58.128906 158.402344 58.445312 C 158.484375 59.46875 158.171875 60.511719 158.128906 61.53125 C 158.089844 62.429688 157.980469 63.574219 158.789062 64.308594 C 159.699219 65.128906 161.261719 65.179688 162.316406 64.515625 C 163.597656 63.707031 164.453125 62.390625 164.550781 61.105469 C 164.832031 62.765625 167.074219 65.339844 169.5 64.011719 C 169.785156 63.859375 170.03125 63.683594 170.246094 63.472656 C 170.546875 63.171875 170.773438 62.808594 170.917969 62.445312 C 171.414062 61.203125 171.449219 59.824219 171.023438 58.570312 C 170.496094 57.019531 169.445312 54.972656 169.4375 53.335938 Z M 169.4375 53.335938 " fill-opacity="1" fill-rule="evenodd"/><path fill="#000000" d="M 181.792969 47.5 C 181.871094 47.417969 182.480469 48.132812 182.570312 48.226562 C 182.910156 48.558594 185.09375 50.921875 185.539062 50.441406 C 186.191406 49.746094 184.671875 47.179688 184.378906 46.558594 C 182.867188 43.332031 180.972656 40.226562 179.0625 37.214844 C 178.738281 36.695312 177.84375 34.601562 177.121094 34.484375 C 176.277344 34.34375 175.25 36.308594 174.910156 36.828125 C 174.597656 37.285156 174.292969 37.757812 173.988281 38.226562 C 172.425781 40.652344 173.675781 40.816406 175.585938 42.558594 C 177.089844 43.933594 176.265625 47.027344 176.5625 48.992188 C 177.253906 53.558594 177.953125 58.125 178.589844 62.699219 C 180.457031 76.089844 182.546875 89.503906 183.375 103.011719 C 183.097656 102.777344 183.039062 103.648438 182.804688 103.917969 C 182.285156 104.53125 181.601562 105.023438 180.925781 105.460938 C 178.839844 106.789062 176.511719 107.695312 174.109375 108.332031 C 168.511719 109.800781 162.765625 110.128906 157.542969 112.800781 C 149.332031 117.003906 143.960938 124.308594 136.855469 129.828125 C 133.332031 132.570312 128.683594 134.488281 125.351562 130.355469 C 124.804688 129.6875 124.394531 128.933594 124.09375 128.121094 C 123.035156 125.308594 123.511719 121.921875 124.242188 119.085938 C 124.535156 117.929688 124.996094 116.835938 125.285156 115.695312 C 125.320312 115.554688 125.585938 114.683594 125.226562 114.707031 C 124.691406 114.742188 124.050781 115.660156 123.769531 116.011719 C 122.609375 117.472656 121.824219 119.203125 121.238281 120.945312 C 119.207031 126.980469 120.308594 135.320312 127.535156 137.511719 C 132.878906 139.132812 138.03125 135.757812 141.878906 132.511719 C 147.875 127.4375 153.015625 121.144531 160.488281 118.003906 C 169.367188 114.261719 184.394531 115.414062 187.730469 104 C 187.730469 104.011719 187.835938 103.484375 187.839844 103.410156 C 187.890625 102.964844 187.921875 102.519531 187.9375 102.058594 C 188 100.625 187.996094 99.175781 187.960938 97.742188 C 187.855469 93.691406 187.6875 89.621094 187.207031 85.585938 C 185.730469 73.113281 183.726562 59.914062 181.792969 47.5 Z M 181.792969 47.5 " fill-opacity="1" fill-rule="evenodd"/><path fill="#000000" d="M 306.425781 29.746094 C 307.148438 29.488281 308.632812 29.949219 309.332031 30.082031 C 312.367188 30.667969 315.296875 31.726562 318.101562 32.960938 C 328.535156 37.542969 336.097656 46.144531 340.773438 55.964844 C 341.945312 58.414062 342.910156 60.996094 343.507812 63.628906 C 343.667969 64.339844 344.152344 65.632812 343.816406 66.367188 C 343.519531 66.996094 342.761719 67.488281 342.242188 67.941406 C 341.140625 68.917969 340.117188 69.773438 338.851562 70.507812 C 337.222656 69.078125 334.933594 68.058594 333.085938 66.863281 C 332.523438 62.609375 330.601562 58.359375 328.625 54.558594 C 325.261719 48.109375 320.800781 42.191406 315.390625 37.152344 C 312.929688 34.875 309.449219 31.320312 306.425781 29.746094 Z M 306.425781 29.746094 " fill-opacity="1" fill-rule="evenodd"/><path fill="#000000" d="M 306.425781 120.148438 C 307.148438 120.40625 308.632812 119.945312 309.332031 119.8125 C 312.367188 119.226562 315.296875 118.167969 318.101562 116.933594 C 328.535156 112.351562 336.097656 103.75 340.773438 93.929688 C 341.945312 91.480469 342.910156 88.898438 343.507812 86.265625 C 343.667969 85.554688 344.152344 84.261719 343.816406 83.527344 C 343.519531 82.898438 342.761719 82.40625 342.242188 81.953125 C 341.140625 80.976562 340.117188 80.121094 338.851562 79.386719 C 337.222656 80.816406 334.933594 81.835938 333.085938 83.03125 C 332.523438 87.285156 330.601562 91.535156 328.625 95.335938 C 325.261719 101.785156 320.800781 107.703125 315.390625 112.742188 C 312.929688 115.019531 309.449219 118.574219 306.425781 120.148438 Z M 306.425781 120.148438 " fill-opacity="1" fill-rule="evenodd"/><path fill="#000000" d="M 352.101562 69.285156 C 351.816406 69.433594 351.550781 69.566406 351.480469 69.613281 C 349.828125 70.84375 348.195312 71.996094 346.34375 72.96875 C 345.714844 73.304688 345.058594 73.582031 344.414062 73.890625 C 344.3125 73.941406 344.023438 74.070312 343.875 74.214844 C 343.667969 74.410156 343.609375 74.644531 343.667969 74.871094 C 343.726562 75.097656 343.898438 75.289062 344.195312 75.375 C 344.425781 75.445312 344.792969 75.429688 344.910156 75.429688 C 345.09375 75.433594 345.65625 75.636719 346.390625 75.914062 C 348.332031 76.640625 351.378906 77.953125 352.78125 78.703125 C 352.941406 78.789062 353.425781 79.101562 353.835938 79.378906 C 353.585938 79.53125 353.320312 79.683594 353.183594 79.734375 C 351.792969 80.242188 350.148438 80.757812 349.253906 81.972656 C 348.917969 82.421875 348.816406 82.945312 348.816406 83.496094 C 348.828125 84.152344 349.023438 84.851562 349.046875 85.445312 C 349.101562 87.046875 348.804688 88.441406 347.816406 89.773438 C 347.046875 90.820312 346.09375 91.808594 344.910156 92.4375 C 344.714844 92.542969 343.058594 93.308594 343.058594 93.308594 C 342.828125 93.417969 342.703125 93.660156 342.75 93.902344 C 342.792969 94.144531 343.011719 94.324219 343.265625 94.34375 C 343.265625 94.34375 345.804688 94.515625 346.5625 94.417969 C 350.46875 93.941406 352.847656 91.570312 354.5625 88.394531 C 354.8125 87.9375 355 87.355469 355.195312 86.789062 C 355.367188 86.320312 355.539062 85.855469 355.824219 85.53125 C 356.101562 85.222656 356.503906 85.015625 356.917969 84.8125 C 357.433594 84.5625 357.960938 84.332031 358.375 84.035156 C 359.652344 83.125 360.546875 81.980469 361.375 80.695312 C 361.699219 80.195312 361.996094 79.679688 362.285156 79.164062 C 362.433594 78.917969 363.304688 77.378906 363.304688 77.378906 C 363.457031 77.113281 363.351562 76.785156 363.078125 76.640625 C 363.078125 76.640625 362.191406 76.183594 362.03125 76.105469 C 361.457031 75.835938 359.871094 75.152344 358.6875 74.648438 C 358.675781 74.648438 363.238281 73.316406 363.238281 73.316406 C 363.523438 73.230469 363.695312 72.945312 363.628906 72.667969 C 363.628906 72.667969 363.15625 70.769531 362.191406 68.980469 C 361.511719 67.71875 360.582031 66.523438 359.433594 65.984375 C 359.007812 65.789062 358.433594 65.636719 357.894531 65.46875 C 357.457031 65.339844 357.042969 65.207031 356.789062 64.984375 C 356.699219 64.90625 356.6875 64.765625 356.664062 64.625 C 356.605469 64.355469 356.574219 64.074219 356.515625 63.863281 C 356.226562 62.859375 355.78125 61.851562 355.214844 60.964844 C 352.871094 57.34375 346.988281 54.664062 342.785156 54.890625 C 342.507812 54.90625 342.277344 55.105469 342.242188 55.363281 C 342.207031 55.625 342.371094 55.871094 342.632812 55.953125 C 343.988281 56.386719 345.117188 57.632812 346.082031 59.117188 C 347.621094 61.488281 348.691406 64.492188 349.390625 66.21875 C 349.875 67.40625 350.34375 68.164062 351.46875 68.90625 C 351.675781 69.042969 351.882812 69.171875 352.101562 69.285156 Z M 345.53125 93.359375 C 346.839844 92.648438 347.910156 91.558594 348.757812 90.398438 C 349.894531 88.863281 350.265625 87.257812 350.195312 85.40625 C 350.171875 84.90625 350.035156 84.332031 349.988281 83.773438 C 349.941406 83.351562 349.941406 82.9375 350.195312 82.597656 C 350.964844 81.5625 352.414062 81.1875 353.597656 80.753906 C 353.988281 80.605469 355.171875 79.832031 355.171875 79.832031 C 355.332031 79.730469 355.410156 79.566406 355.410156 79.386719 C 355.421875 79.210938 355.332031 79.042969 355.183594 78.941406 C 355.183594 78.941406 353.664062 77.921875 353.34375 77.75 C 351.699219 76.875 347.875 75.242188 346.035156 74.617188 C 345.910156 74.578125 345.804688 74.539062 345.691406 74.507812 C 346.105469 74.324219 346.507812 74.132812 346.910156 73.925781 C 348.816406 72.921875 350.480469 71.738281 352.195312 70.472656 C 352.332031 70.367188 353.425781 69.90625 353.675781 69.746094 C 353.847656 69.628906 353.90625 69.5 353.929688 69.4375 C 353.988281 69.296875 354.019531 69.042969 353.746094 68.824219 C 353.652344 68.75 353.136719 68.550781 353.078125 68.527344 C 352.746094 68.390625 352.425781 68.207031 352.125 68.007812 C 351.21875 67.410156 350.851562 66.789062 350.460938 65.828125 C 349.746094 64.054688 348.644531 60.980469 347.058594 58.542969 C 346.460938 57.605469 345.769531 56.765625 345.023438 56.113281 C 348.515625 56.671875 352.46875 58.8125 354.238281 61.535156 C 354.746094 62.335938 355.148438 63.246094 355.398438 64.152344 C 355.46875 64.390625 355.492188 64.726562 355.574219 65.019531 C 355.652344 65.328125 355.800781 65.597656 356.007812 65.785156 C 356.296875 66.042969 356.734375 66.242188 357.214844 66.40625 C 357.789062 66.601562 358.457031 66.746094 358.929688 66.964844 C 359.871094 67.410156 360.605469 68.433594 361.167969 69.476562 C 361.777344 70.609375 362.167969 71.785156 362.363281 72.425781 C 362.363281 72.425781 356.871094 74.035156 356.871094 74.035156 C 356.652344 74.101562 356.492188 74.296875 356.46875 74.523438 C 356.457031 74.753906 356.59375 74.964844 356.8125 75.054688 C 356.8125 75.054688 360.582031 76.636719 361.511719 77.078125 C 361.582031 77.113281 361.800781 77.226562 362.019531 77.339844 C 361.753906 77.808594 361.375 78.484375 361.285156 78.640625 C 360.996094 79.140625 360.710938 79.640625 360.386719 80.125 C 359.640625 81.289062 358.847656 82.335938 357.6875 83.160156 C 357.320312 83.421875 356.847656 83.621094 356.386719 83.84375 C 355.835938 84.113281 355.320312 84.414062 354.953125 84.828125 C 354.574219 85.25 354.320312 85.832031 354.113281 86.441406 C 353.929688 86.953125 353.769531 87.480469 353.550781 87.898438 C 352.011719 90.738281 349.917969 92.90625 346.425781 93.335938 C 346.21875 93.359375 345.898438 93.367188 345.53125 93.359375 Z M 345.53125 93.359375 " fill-opacity="1" fill-rule="evenodd"/><path fill="#000000" d="M 339.199219 79.574219 C 339.335938 79.476562 340.164062 78.898438 340.253906 78.828125 C 341.53125 77.847656 343.96875 75.566406 345.128906 74.472656 C 345.242188 74.371094 345.300781 74.238281 345.300781 74.097656 C 345.300781 73.976562 345.265625 73.816406 345.128906 73.664062 C 345.023438 73.554688 344.769531 73.402344 344.714844 73.363281 C 344.3125 73.082031 343.921875 72.800781 343.519531 72.523438 C 341.992188 71.445312 340.484375 70.25 338.832031 69.328125 C 338.589844 69.1875 338.265625 69.246094 338.09375 69.464844 C 337.636719 70.019531 336.441406 70.570312 335.808594 70.984375 C 334.074219 72.121094 332.269531 73.164062 330.511719 74.265625 C 330.257812 74.324219 330.15625 74.554688 330.144531 74.601562 C 330.097656 74.714844 330.027344 74.964844 330.28125 75.199219 C 330.316406 75.222656 330.546875 75.34375 330.625 75.398438 C 330.796875 75.507812 330.972656 75.613281 331.144531 75.726562 C 331.742188 76.113281 332.359375 76.472656 332.980469 76.828125 C 334.773438 77.855469 336.554688 78.921875 338.429688 79.804688 C 338.613281 79.890625 338.832031 79.878906 339.003906 79.769531 C 339.082031 79.71875 339.152344 79.652344 339.199219 79.574219 Z M 343.863281 74.125 C 342.621094 75.289062 340.632812 77.128906 339.53125 77.980469 C 339.441406 78.046875 338.898438 78.386719 338.566406 78.644531 C 336.855469 77.8125 335.222656 76.835938 333.566406 75.890625 C 332.96875 75.546875 332.371094 75.199219 331.785156 74.824219 L 331.753906 74.800781 C 333.328125 73.832031 334.910156 72.894531 336.464844 71.882812 C 337.039062 71.507812 338.015625 71 338.636719 70.488281 C 340.105469 71.355469 341.449219 72.429688 342.839844 73.402344 C 343.183594 73.640625 343.53125 73.882812 343.863281 74.125 Z M 330.589844 75.335938 Z M 330.589844 75.335938 " fill-opacity="1" fill-rule="evenodd"/><g clip-path="url(#697583d53d)"><path fill="#000000" d="M 363.191406 72.738281 L 374.898438 75.1875 L 363.191406 77.050781 L 358.285156 74.664062 Z M 363.191406 72.738281 " fill-opacity="1" fill-rule="evenodd"/></g><path fill="#000000" d="M 68.6875 25.097656 C 67.964844 24.835938 66.484375 25.296875 65.78125 25.433594 C 62.75 26.019531 59.820312 27.078125 57.015625 28.3125 C 46.582031 32.894531 39.019531 41.492188 34.34375 51.316406 C 33.171875 53.765625 32.207031 56.347656 31.609375 58.980469 C 31.449219 59.6875 30.964844 60.984375 31.296875 61.71875 C 31.597656 62.347656 32.355469 62.839844 32.871094 63.292969 C 33.976562 64.269531 34.996094 65.125 36.261719 65.859375 C 37.894531 64.429688 40.179688 63.410156 42.03125 62.214844 C 42.59375 57.960938 44.511719 53.707031 46.488281 49.910156 C 49.855469 43.457031 54.3125 37.539062 59.726562 32.503906 C 62.183594 30.226562 65.667969 26.671875 68.6875 25.097656 Z M 68.6875 25.097656 " fill-opacity="1" fill-rule="evenodd"/><path fill="#000000" d="M 68.6875 115.496094 C 67.964844 115.757812 66.484375 115.296875 65.78125 115.164062 C 62.75 114.578125 59.820312 113.515625 57.015625 112.285156 C 46.582031 107.703125 39.019531 99.101562 34.34375 89.28125 C 33.171875 86.832031 32.207031 84.25 31.609375 81.617188 C 31.449219 80.90625 30.964844 79.609375 31.296875 78.878906 C 31.597656 78.25 32.355469 77.757812 32.871094 77.300781 C 33.976562 76.328125 34.996094 75.46875 36.261719 74.738281 C 37.894531 76.167969 40.179688 77.1875 42.03125 78.382812 C 42.59375 82.636719 44.511719 86.886719 46.488281 90.683594 C 49.855469 97.136719 54.3125 103.054688 59.726562 108.09375 C 62.183594 110.371094 65.667969 113.921875 68.6875 115.496094 Z M 68.6875 115.496094 " fill-opacity="1" fill-rule="evenodd"/><path fill="#000000" d="M 23.011719 64.636719 C 23.300781 64.78125 23.566406 64.917969 23.632812 64.964844 C 25.289062 66.195312 26.921875 67.347656 28.769531 68.320312 C 29.402344 68.652344 30.058594 68.933594 30.699219 69.242188 C 30.804688 69.292969 31.089844 69.421875 31.242188 69.566406 C 31.449219 69.761719 31.503906 69.996094 31.449219 70.21875 C 31.390625 70.445312 31.21875 70.640625 30.917969 70.726562 C 30.6875 70.792969 30.320312 70.78125 30.207031 70.78125 C 30.023438 70.785156 29.460938 70.988281 28.722656 71.265625 C 26.78125 71.988281 23.738281 73.304688 22.335938 74.054688 C 22.175781 74.140625 21.691406 74.453125 21.277344 74.726562 C 21.53125 74.882812 21.796875 75.03125 21.933594 75.085938 C 23.324219 75.59375 24.964844 76.109375 25.863281 77.320312 C 26.195312 77.773438 26.300781 78.296875 26.300781 78.847656 C 26.289062 79.503906 26.09375 80.203125 26.070312 80.796875 C 26.011719 82.398438 26.3125 83.792969 27.300781 85.121094 C 28.070312 86.167969 29.023438 87.160156 30.207031 87.789062 C 30.402344 87.894531 32.054688 88.660156 32.054688 88.660156 C 32.285156 88.769531 32.414062 89.011719 32.367188 89.253906 C 32.320312 89.496094 32.101562 89.675781 31.851562 89.695312 C 31.851562 89.695312 29.308594 89.863281 28.550781 89.769531 C 24.644531 89.289062 22.265625 86.921875 20.554688 83.746094 C 20.300781 83.289062 20.117188 82.707031 19.921875 82.140625 C 19.75 81.671875 19.578125 81.207031 19.289062 80.882812 C 19.015625 80.574219 18.613281 80.367188 18.199219 80.164062 C 17.679688 79.914062 17.152344 79.683594 16.738281 79.382812 C 15.464844 78.476562 14.566406 77.328125 13.738281 76.046875 C 13.417969 75.546875 13.121094 75.03125 12.832031 74.515625 C 12.683594 74.269531 11.808594 72.730469 11.808594 72.730469 C 11.660156 72.464844 11.761719 72.136719 12.039062 71.992188 C 12.039062 71.992188 12.925781 71.535156 13.085938 71.453125 C 13.660156 71.1875 15.246094 70.503906 16.429688 70 C 16.441406 70 11.878906 68.664062 11.878906 68.664062 C 11.589844 68.582031 11.417969 68.296875 11.488281 68.019531 C 11.488281 68.019531 11.957031 66.121094 12.925781 64.332031 C 13.601562 63.070312 14.53125 61.875 15.683594 61.335938 C 16.105469 61.136719 16.683594 60.988281 17.222656 60.820312 C 17.660156 60.6875 18.070312 60.558594 18.324219 60.335938 C 18.417969 60.257812 18.429688 60.113281 18.453125 59.976562 C 18.507812 59.707031 18.542969 59.425781 18.601562 59.214844 C 18.886719 58.210938 19.335938 57.203125 19.898438 56.316406 C 22.242188 52.695312 28.125 50.015625 32.332031 50.242188 C 32.609375 50.257812 32.839844 50.457031 32.871094 50.714844 C 32.90625 50.972656 32.746094 51.222656 32.480469 51.304688 C 31.125 51.738281 30 52.984375 29.035156 54.464844 C 27.496094 56.839844 26.425781 59.84375 25.726562 61.570312 C 25.242188 62.757812 24.769531 63.511719 23.644531 64.253906 C 23.4375 64.390625 23.230469 64.519531 23.011719 64.636719 Z M 29.585938 88.710938 C 28.277344 88 27.207031 86.910156 26.355469 85.75 C 25.21875 84.214844 24.851562 82.609375 24.921875 80.757812 C 24.945312 80.257812 25.082031 79.683594 25.128906 79.125 C 25.171875 78.703125 25.171875 78.285156 24.921875 77.949219 C 24.152344 76.914062 22.703125 76.539062 21.519531 76.105469 C 21.128906 75.957031 19.945312 75.183594 19.945312 75.183594 C 19.785156 75.082031 19.703125 74.917969 19.703125 74.738281 C 19.691406 74.5625 19.785156 74.394531 19.933594 74.292969 C 19.933594 74.292969 21.449219 73.269531 21.773438 73.101562 C 23.414062 72.226562 27.242188 70.589844 29.082031 69.96875 C 29.207031 69.925781 29.308594 69.890625 29.425781 69.859375 C 29.011719 69.671875 28.609375 69.484375 28.207031 69.277344 C 26.300781 68.273438 24.632812 67.089844 22.921875 65.824219 C 22.785156 65.71875 21.691406 65.257812 21.4375 65.097656 C 21.265625 64.980469 21.207031 64.851562 21.1875 64.789062 C 21.128906 64.648438 21.09375 64.394531 21.371094 64.171875 C 21.460938 64.097656 21.980469 63.898438 22.035156 63.878906 C 22.371094 63.742188 22.691406 63.558594 22.988281 63.359375 C 23.898438 62.761719 24.265625 62.140625 24.65625 61.179688 C 25.367188 59.40625 26.472656 56.328125 28.058594 53.894531 C 28.65625 52.957031 29.34375 52.117188 30.089844 51.464844 C 26.597656 52.023438 22.644531 54.160156 20.875 56.886719 C 20.371094 57.6875 19.96875 58.597656 19.714844 59.503906 C 19.644531 59.738281 19.625 60.074219 19.542969 60.371094 C 19.460938 60.679688 19.3125 60.949219 19.105469 61.132812 C 18.820312 61.394531 18.382812 61.59375 17.898438 61.757812 C 17.324219 61.953125 16.660156 62.097656 16.1875 62.316406 C 15.246094 62.761719 14.511719 63.78125 13.945312 64.828125 C 13.335938 65.957031 12.945312 67.136719 12.75 67.777344 C 12.75 67.777344 18.246094 69.386719 18.246094 69.386719 C 18.460938 69.453125 18.625 69.648438 18.648438 69.875 C 18.65625 70.101562 18.519531 70.316406 18.300781 70.40625 C 18.300781 70.40625 14.53125 71.988281 13.601562 72.429688 C 13.53125 72.464844 13.316406 72.578125 13.097656 72.6875 C 13.359375 73.160156 13.738281 73.835938 13.832031 73.992188 C 14.121094 74.492188 14.40625 74.992188 14.726562 75.476562 C 15.476562 76.640625 16.269531 77.6875 17.429688 78.507812 C 17.796875 78.773438 18.265625 78.972656 18.726562 79.195312 C 19.277344 79.464844 19.796875 79.765625 20.164062 80.179688 C 20.542969 80.601562 20.796875 81.183594 21.003906 81.792969 C 21.1875 82.304688 21.347656 82.832031 21.566406 83.25 C 23.105469 86.089844 25.195312 88.257812 28.691406 88.6875 C 28.894531 88.710938 29.21875 88.714844 29.585938 88.710938 Z M 29.585938 88.710938 " fill-opacity="1" fill-rule="evenodd"/><path fill="#000000" d="M 35.917969 74.921875 C 35.78125 74.828125 34.953125 74.25 34.859375 74.179688 C 33.585938 73.195312 31.148438 70.917969 29.988281 69.820312 C 29.875 69.722656 29.816406 69.589844 29.816406 69.445312 C 29.816406 69.328125 29.851562 69.164062 29.988281 69.015625 C 30.089844 68.90625 30.34375 68.753906 30.402344 68.710938 C 30.804688 68.429688 31.195312 68.152344 31.597656 67.875 C 33.125 66.796875 34.628906 65.601562 36.285156 64.679688 C 36.527344 64.539062 36.847656 64.597656 37.019531 64.816406 C 37.480469 65.371094 38.675781 65.921875 39.308594 66.335938 C 41.042969 67.472656 42.847656 68.515625 44.605469 69.617188 C 44.855469 69.675781 44.960938 69.90625 44.972656 69.953125 C 45.019531 70.066406 45.085938 70.3125 44.835938 70.546875 C 44.800781 70.574219 44.570312 70.695312 44.488281 70.75 C 44.316406 70.859375 44.144531 70.964844 43.972656 71.078125 C 43.375 71.464844 42.753906 71.824219 42.132812 72.179688 C 40.339844 73.207031 38.558594 74.273438 36.6875 75.15625 C 36.503906 75.242188 36.285156 75.226562 36.113281 75.121094 C 36.03125 75.070312 35.964844 75.003906 35.917969 74.921875 Z M 31.253906 69.476562 C 32.492188 70.640625 34.480469 72.480469 35.585938 73.332031 C 35.675781 73.398438 36.214844 73.738281 36.550781 73.996094 C 38.261719 73.164062 39.894531 72.1875 41.546875 71.242188 C 42.144531 70.898438 42.742188 70.550781 43.328125 70.175781 L 43.363281 70.148438 C 41.789062 69.183594 40.203125 68.246094 38.652344 67.234375 C 38.078125 66.855469 37.101562 66.351562 36.480469 65.839844 C 35.007812 66.707031 33.664062 67.78125 32.273438 68.753906 C 31.929688 68.992188 31.585938 69.234375 31.253906 69.476562 Z M 44.523438 70.6875 Z M 44.523438 70.6875 " fill-opacity="1" fill-rule="evenodd"/><g clip-path="url(#54debb1fa4)"><path fill="#000000" d="M 11.925781 68.089844 L 0.214844 70.539062 L 11.925781 72.398438 L 16.832031 70.015625 Z M 11.925781 68.089844 " fill-opacity="1" fill-rule="evenodd"/></g><path fill="#000000" d="M 279.550781 80.796875 C 279.574219 80.78125 279.585938 80.761719 279.5625 80.734375 C 279.550781 80.753906 279.550781 80.773438 279.550781 80.796875 C 279.476562 80.835938 279.238281 80.839844 279.140625 80.886719 C 278.828125 81.039062 278.527344 81.203125 278.222656 81.367188 C 277.292969 81.867188 276.453125 82.445312 275.621094 83.070312 C 273.308594 84.796875 270.675781 87.578125 267.5 87.539062 C 267.542969 87.375 267.152344 86.929688 267.078125 86.8125 C 266.59375 86.050781 266.074219 85.3125 265.578125 84.550781 C 263.601562 81.492188 260.308594 77.152344 256.136719 79.828125 C 252.84375 81.941406 250.121094 86.066406 249.527344 89.855469 C 249.042969 92.929688 250.457031 95.871094 253.6875 96.785156 C 257.390625 97.835938 262.164062 95.695312 265.316406 93.894531 C 265.339844 93.878906 265.554688 94.261719 265.578125 94.308594 C 265.726562 94.582031 265.859375 94.859375 266 95.136719 C 266.386719 95.953125 266.777344 96.859375 266.734375 97.78125 C 266.710938 97.792969 266.460938 98.015625 266.410156 98.070312 C 266.226562 98.253906 266.03125 98.429688 265.835938 98.605469 C 265.175781 99.195312 264.519531 99.773438 263.882812 100.375 C 262.078125 102.058594 260.1875 103.632812 258.253906 105.179688 C 252.746094 109.59375 245.5 115.785156 237.875 115.707031 C 229.734375 115.621094 224.074219 108.984375 224.871094 101.230469 C 225.101562 99.082031 225.53125 96.964844 226.105469 94.882812 C 226.203125 94.496094 226.796875 93.046875 226.515625 92.671875 C 226.265625 92.332031 225.292969 93.824219 225.21875 93.933594 C 224.234375 95.507812 223.640625 97.214844 223.265625 99.011719 C 222.292969 103.574219 222.421875 108.75 224.429688 113.046875 C 227.972656 120.617188 237.453125 123.328125 245.089844 120.371094 C 249.042969 118.84375 252.519531 116.230469 255.835938 113.6875 C 258.933594 111.304688 262.121094 108.828125 264.484375 105.710938 C 265.769531 104.019531 267.652344 101.851562 268.191406 99.765625 C 268.804688 97.425781 268.644531 94.910156 268.308594 92.625 C 268.296875 92.574219 268.773438 92.394531 268.828125 92.371094 C 269.335938 92.121094 269.855469 91.878906 270.359375 91.632812 C 272.328125 90.679688 274.378906 89.765625 276.042969 88.355469 C 276.160156 88.253906 276.0625 88.664062 276.097656 88.816406 C 276.148438 89.082031 276.246094 89.339844 276.34375 89.59375 C 276.636719 90.335938 276.949219 91.070312 277.304688 91.785156 C 278.417969 94.003906 280.425781 95.746094 282.890625 96.382812 C 283.957031 96.660156 285.101562 96.84375 286.214844 96.753906 C 290.835938 96.371094 293.503906 91.832031 294.867188 87.988281 C 294.867188 87.984375 294.875 87.980469 294.875 87.980469 L 294.867188 87.988281 C 294.875 88.085938 295.351562 89.152344 295.417969 89.265625 C 295.925781 90.128906 296.539062 90.957031 297.242188 91.679688 C 299.421875 93.941406 303.019531 94.574219 305.925781 93.34375 C 307.859375 92.519531 308.949219 90.972656 309.789062 89.15625 C 311.519531 85.425781 310.699219 79.769531 309.273438 75.972656 C 309.316406 75.785156 309.046875 76.289062 308.917969 76.4375 C 308.625 76.78125 308.300781 77.105469 308.007812 77.441406 C 307.125 78.449219 306.074219 79.421875 305.332031 80.535156 C 305.265625 80.625 306.574219 82.152344 306.679688 82.390625 C 307.675781 84.511719 305.957031 86.664062 303.699219 86.785156 C 300.375 86.964844 298.496094 84.152344 298.117188 81.269531 C 297.988281 80.277344 298.007812 79.269531 297.824219 78.285156 C 297.769531 77.964844 297.609375 77.433594 297.1875 77.445312 C 296.722656 77.457031 296.429688 78.101562 296.269531 78.449219 C 295.75 79.597656 295.699219 80.878906 295.382812 82.082031 C 295.058594 83.300781 294.359375 84.355469 293.667969 85.40625 C 292.390625 87.363281 290.859375 89.804688 288.492188 90.628906 C 285.664062 91.605469 282.015625 89.871094 280.578125 87.417969 C 279.539062 85.628906 279.238281 82.835938 279.550781 80.796875 Z M 266.734375 97.78125 Z M 253.699219 89.019531 C 253.792969 87.800781 254.484375 86.59375 255.351562 85.714844 C 255.769531 85.292969 256.300781 84.839844 256.957031 84.949219 C 258.242188 85.171875 259.527344 86.199219 260.371094 87.117188 C 260.542969 87.308594 261.128906 87.835938 261.042969 88.144531 C 260.945312 88.445312 260.480469 88.621094 260.21875 88.734375 C 259.410156 89.078125 258.515625 89.285156 257.648438 89.410156 C 256.722656 89.539062 254.195312 89.585938 253.699219 89.019531 Z M 253.699219 89.019531 " fill-opacity="1" fill-rule="evenodd"/><path fill="#000000" d="M 231.804688 81.796875 C 231.734375 81.871094 231.703125 82.121094 231.671875 82.21875 C 231.566406 82.582031 231.460938 82.949219 231.359375 83.3125 C 231.019531 84.578125 230.65625 85.835938 230.308594 87.101562 C 230.199219 87.496094 230.085938 87.894531 229.976562 88.289062 C 229.941406 88.40625 229.824219 88.648438 229.863281 88.769531 C 229.898438 88.886719 230.203125 89.003906 230.300781 89.066406 C 230.617188 89.273438 230.917969 89.515625 231.179688 89.78125 C 231.175781 89.75 231.265625 89.921875 231.273438 89.941406 C 231.328125 90.074219 231.390625 90.207031 231.449219 90.339844 C 231.625 90.738281 231.769531 91.152344 231.929688 91.558594 C 232.410156 92.777344 232.894531 93.992188 233.421875 95.191406 C 234.386719 97.40625 235.507812 99.574219 236.683594 101.695312 C 237.179688 102.585938 237.660156 103.480469 238.125 104.386719 C 238.335938 104.796875 238.613281 105.214844 238.75 105.652344 C 238.964844 106.320312 237.257812 107.257812 236.769531 107.75 C 234.894531 109.632812 232.863281 111.355469 230.738281 112.972656 C 222.417969 119.304688 211.085938 125.585938 200.242188 121.21875 C 200.355469 121.320312 199.976562 121.078125 199.851562 120.996094 C 199.589844 120.824219 199.339844 120.636719 199.097656 120.441406 C 198.324219 119.8125 197.636719 119.132812 197.050781 118.339844 C 195.3125 115.984375 194.574219 113.210938 194.453125 110.359375 C 194.28125 106.28125 195.015625 102.324219 196.339844 98.457031 C 196.484375 98.042969 196.625 97.625 196.773438 97.214844 C 196.898438 96.859375 197.03125 96.511719 197.15625 96.15625 C 197.238281 95.921875 197.316406 95.683594 197.394531 95.449219 C 197.457031 95.257812 197.519531 95.066406 197.578125 94.875 C 197.628906 94.714844 197.679688 94.550781 197.726562 94.390625 C 197.820312 94.058594 198.515625 92.1875 197.578125 92.414062 C 197.644531 92.570312 197.34375 92.660156 197.253906 92.804688 C 196.941406 93.304688 196.671875 93.828125 196.414062 94.351562 C 195.417969 96.390625 194.566406 98.476562 193.859375 100.621094 C 191.777344 106.925781 189.714844 114.75 192.785156 121.039062 C 192.878906 121.011719 192.851562 121.214844 192.890625 121.300781 C 192.964844 121.492188 193.050781 121.675781 193.132812 121.863281 C 193.386719 122.429688 193.691406 122.972656 194.015625 123.503906 C 194.9375 125.015625 196.316406 126.296875 197.742188 127.375 C 201.582031 130.28125 206.78125 130.265625 211.417969 129.699219 C 211.414062 129.679688 211.785156 129.597656 211.800781 129.59375 C 212.246094 129.484375 212.6875 129.378906 213.128906 129.253906 C 214.253906 128.941406 215.371094 128.574219 216.429688 128.09375 C 219.726562 126.605469 223.070312 125.0625 225.894531 122.859375 C 225.894531 122.863281 229.636719 120.078125 230.695312 119.277344 C 233.914062 116.851562 237.15625 113.945312 239.144531 110.472656 C 239.214844 110.347656 239.453125 109.816406 239.5 109.703125 C 239.84375 108.90625 240.125 108.078125 240.339844 107.242188 C 240.867188 105.210938 241.109375 102.917969 240.667969 100.84375 C 240.386719 99.519531 239.832031 98.289062 239.285156 97.046875 C 239.382812 97.085938 239.214844 96.859375 239.171875 96.765625 C 239.101562 96.597656 239.027344 96.433594 238.949219 96.269531 C 238.691406 95.707031 238.433594 95.140625 238.167969 94.578125 C 237.417969 92.980469 236.234375 91.398438 235.800781 89.683594 C 235.6875 89.246094 236.152344 89.550781 236.351562 89.664062 C 236.84375 89.949219 237.332031 90.273438 237.855469 90.503906 C 238.027344 90.578125 238.339844 90.695312 238.398438 90.4375 C 238.550781 89.769531 237.808594 88.824219 237.472656 88.316406 C 236.382812 86.675781 233.96875 84.039062 231.804688 81.796875 Z M 231.804688 81.796875 " fill-opacity="1" fill-rule="evenodd"/><path fill="#000000" d="M 211.277344 63.816406 C 211.285156 63.546875 211.792969 63.996094 212.066406 64.074219 C 212.734375 64.269531 213.425781 64.441406 214.117188 64.582031 C 214.171875 64.589844 214.753906 64.738281 214.753906 64.640625 C 214.730469 64.074219 213.253906 63.117188 212.875 62.785156 C 211.101562 61.1875 209.332031 59.597656 207.484375 58.085938 C 207.140625 57.804688 205.789062 56.417969 205.261719 56.601562 C 204.894531 56.726562 204.675781 57.320312 204.527344 57.625 C 204.082031 58.554688 203.671875 59.492188 203.253906 60.429688 C 203.132812 60.691406 202.734375 61.296875 202.875 61.609375 C 203.023438 61.925781 203.480469 61.84375 203.75 61.996094 C 204.117188 62.214844 204.363281 62.726562 204.582031 63.0625 C 206.859375 66.480469 209.582031 69.519531 212.171875 72.707031 C 212.160156 72.710938 212.398438 72.941406 212.421875 72.96875 C 212.410156 72.957031 211.589844 73.925781 211.535156 73.988281 C 210.457031 75.242188 209.484375 76.578125 208.554688 77.925781 C 205.941406 81.667969 205.089844 86.886719 206.296875 91.25 C 206.976562 93.714844 208.976562 96.1875 211.828125 95.984375 C 214.019531 95.828125 216.148438 94.152344 217.679688 92.753906 C 221.429688 89.351562 225.855469 84.257812 223.738281 78.925781 C 222.90625 76.851562 221.535156 74.984375 220.046875 73.320312 C 219.59375 72.828125 218.261719 71.914062 218.449219 71.160156 C 218.769531 69.882812 220.035156 68.664062 220.800781 67.636719 C 222.789062 65 225.628906 61.976562 226.492188 58.726562 C 226.796875 57.558594 227.171875 55.164062 226.449219 54.054688 C 226.339844 53.902344 225.996094 54.375 225.953125 54.4375 C 225.488281 55 225.132812 55.652344 224.742188 56.261719 C 223.769531 57.785156 222.765625 59.285156 221.71875 60.765625 C 220.886719 61.945312 220.023438 63.109375 219.171875 64.28125 C 218.339844 65.421875 217.507812 66.554688 216.664062 67.679688 C 216.503906 67.890625 216.105469 68.632812 215.769531 68.644531 C 214.9375 68.679688 211.804688 64.363281 211.277344 63.816406 Z M 214.851562 75.648438 C 214.992188 75.496094 214.019531 76.464844 213.902344 76.628906 C 213.683594 76.925781 213.457031 77.21875 213.242188 77.515625 C 212.59375 78.386719 211.976562 79.273438 211.375 80.167969 C 209.679688 82.660156 206.773438 88.203125 211.277344 89.648438 C 214.234375 90.601562 217.109375 87.511719 218.804688 85.578125 C 219.503906 84.792969 220.53125 83.738281 220.53125 82.621094 C 220.542969 81.976562 220.109375 81.347656 219.765625 80.828125 C 218.769531 79.351562 216.253906 76.761719 214.851562 75.648438 Z M 214.851562 75.648438 " fill-opacity="1" fill-rule="evenodd"/><path fill="#000000" d="M 241.828125 42.390625 C 241.851562 42.425781 241.757812 42.566406 241.738281 42.601562 C 241.625 42.820312 241.503906 43.039062 241.371094 43.25 C 241.339844 43.304688 241.261719 43.46875 241.167969 43.460938 C 241.027344 43.453125 240.804688 43.25 240.703125 43.1875 C 240.320312 42.929688 239.933594 42.6875 239.5625 42.425781 C 239.148438 42.136719 238.734375 41.84375 238.308594 41.566406 C 238.058594 41.40625 237.726562 41.261719 237.546875 41.042969 C 237.355469 40.808594 237.359375 40.472656 237.335938 40.203125 C 237.273438 39.546875 237.261719 38.871094 237.476562 38.230469 C 237.679688 37.636719 238.054688 36.84375 238.898438 36.726562 C 239.785156 36.597656 240.707031 37.230469 241.390625 37.609375 C 242.769531 38.367188 243.640625 39.417969 244.410156 40.605469 C 245.097656 41.664062 245.644531 42.765625 245.992188 43.9375 C 246.199219 44.648438 246.324219 45.386719 246.578125 46.089844 C 246.6875 46.386719 246.828125 46.765625 247.171875 46.945312 C 247.167969 46.988281 247.199219 46.851562 247.207031 46.804688 C 247.222656 46.710938 247.238281 46.617188 247.257812 46.523438 C 247.304688 46.253906 247.339844 45.984375 247.378906 45.714844 C 247.503906 44.875 247.65625 44.046875 247.878906 43.222656 C 248.472656 41.035156 249.332031 38.691406 250.863281 36.8125 C 251.542969 35.972656 252.597656 35.054688 253.964844 35.488281 C 254.914062 35.792969 255.566406 36.679688 256.011719 37.382812 C 256.15625 37.613281 256.414062 37.964844 256.402344 38.234375 C 256.375 38.769531 255.902344 39.378906 255.65625 39.859375 C 255.484375 40.195312 255.324219 40.539062 255.121094 40.863281 C 255.050781 40.976562 254.960938 41.160156 254.816406 41.222656 C 254.546875 41.332031 254.214844 40.667969 254.140625 40.554688 C 253.738281 39.945312 253.136719 38.980469 252.136719 39.03125 C 251.089844 39.078125 250.628906 40.167969 250.308594 40.824219 C 249.351562 42.789062 248.824219 44.808594 248.285156 46.859375 C 248.269531 46.863281 248.1875 47.164062 248.179688 47.183594 C 248.046875 47.554688 247.910156 47.921875 247.789062 48.296875 C 247.433594 49.386719 247.203125 50.539062 246.691406 51.589844 C 246.613281 51.75 246.269531 52.542969 245.890625 52.351562 C 245.703125 52.257812 245.671875 51.96875 245.640625 51.8125 C 245.554688 51.347656 245.453125 50.886719 245.332031 50.429688 C 245.195312 49.894531 245.054688 49.359375 244.925781 48.820312 C 244.730469 48.003906 244.515625 47.183594 244.203125 46.390625 C 243.78125 45.320312 242.769531 42.886719 241.828125 42.390625 Z M 241.828125 42.390625 " fill-opacity="1" fill-rule="evenodd"/><path fill="#000000" d="M 148.421875 26.570312 C 148.4375 26.601562 148.359375 26.714844 148.34375 26.742188 C 148.246094 26.925781 148.140625 27.105469 148.03125 27.28125 C 148.003906 27.324219 147.933594 27.460938 147.855469 27.457031 C 147.734375 27.449219 147.542969 27.28125 147.453125 27.226562 C 147.128906 27.015625 146.796875 26.816406 146.476562 26.601562 C 146.125 26.359375 145.769531 26.117188 145.402344 25.890625 C 145.191406 25.757812 144.90625 25.636719 144.753906 25.457031 C 144.585938 25.261719 144.59375 24.988281 144.570312 24.761719 C 144.519531 24.21875 144.507812 23.660156 144.691406 23.132812 C 144.863281 22.640625 145.1875 21.988281 145.910156 21.890625 C 146.667969 21.785156 147.460938 22.308594 148.042969 22.617188 C 149.226562 23.246094 149.972656 24.113281 150.632812 25.09375 C 151.222656 25.972656 151.691406 26.882812 151.984375 27.847656 C 152.164062 28.4375 152.273438 29.046875 152.488281 29.625 C 152.582031 29.871094 152.703125 30.1875 152.996094 30.332031 C 152.992188 30.371094 153.019531 30.257812 153.027344 30.21875 C 153.042969 30.140625 153.054688 30.066406 153.070312 29.984375 C 153.109375 29.765625 153.144531 29.539062 153.175781 29.316406 C 153.28125 28.625 153.414062 27.9375 153.605469 27.257812 C 154.113281 25.449219 154.851562 23.511719 156.160156 21.960938 C 156.746094 21.269531 157.648438 20.507812 158.820312 20.867188 C 159.628906 21.117188 160.1875 21.851562 160.570312 22.433594 C 160.695312 22.625 160.917969 22.914062 160.90625 23.136719 C 160.882812 23.578125 160.480469 24.082031 160.269531 24.480469 C 160.121094 24.757812 159.984375 25.039062 159.808594 25.308594 C 159.75 25.402344 159.671875 25.554688 159.546875 25.605469 C 159.316406 25.695312 159.03125 25.148438 158.96875 25.050781 C 158.625 24.546875 158.109375 23.753906 157.253906 23.792969 C 156.355469 23.835938 155.960938 24.734375 155.683594 25.277344 C 154.867188 26.898438 154.414062 28.566406 153.953125 30.265625 C 153.9375 30.265625 153.867188 30.515625 153.863281 30.53125 C 153.746094 30.835938 153.632812 31.140625 153.527344 31.449219 C 153.222656 32.351562 153.027344 33.304688 152.585938 34.171875 C 152.519531 34.304688 152.226562 34.960938 151.902344 34.804688 C 151.738281 34.726562 151.710938 34.484375 151.6875 34.355469 C 151.613281 33.972656 151.527344 33.59375 151.421875 33.214844 C 151.304688 32.769531 151.183594 32.328125 151.074219 31.882812 C 150.90625 31.207031 150.722656 30.53125 150.453125 29.875 C 150.09375 28.992188 149.226562 26.980469 148.421875 26.570312 Z M 148.421875 26.570312 " fill-opacity="1" fill-rule="evenodd"/><path fill="#000000" d="M 122.117188 79.351562 C 122.070312 79.542969 123.570312 79.839844 123.761719 79.882812 C 124.132812 79.972656 124.503906 80.050781 124.875 80.125 C 126.148438 80.390625 127.425781 80.636719 128.699219 80.910156 C 130.136719 81.21875 132.648438 82.28125 134.117188 81.78125 C 134.972656 81.492188 134.890625 79.828125 135.800781 79.839844 C 137.722656 79.863281 140.386719 81.515625 142.210938 82.117188 C 143.421875 82.515625 144.640625 82.894531 145.871094 83.238281 C 145.980469 83.265625 147.707031 83.703125 147.675781 83.785156 C 147.539062 84.128906 146.195312 84.316406 145.90625 84.402344 C 144.199219 84.910156 142.527344 85.527344 140.933594 86.320312 C 136.703125 88.425781 132.589844 91.050781 127.683594 90.710938 C 125.769531 90.582031 123.429688 90.003906 122.15625 88.457031 C 121.585938 87.765625 121.25 86.871094 120.992188 86.023438 C 120.945312 85.871094 120.871094 85.28125 120.628906 85.292969 C 120.175781 85.316406 119.742188 86.054688 119.523438 86.371094 C 118.742188 87.5 117.917969 88.617188 117.152344 89.757812 C 117.078125 89.875 117.78125 90.402344 117.886719 90.523438 C 118.578125 91.316406 119.15625 92.175781 119.707031 93.070312 C 121.046875 95.226562 122.113281 97.519531 122.882812 99.9375 C 123.214844 100.976562 123.640625 102.125 123.605469 103.238281 C 123.746094 103.183594 123.410156 103.457031 123.304688 103.5625 C 123.121094 103.753906 122.929688 103.941406 122.730469 104.121094 C 122.195312 104.609375 121.640625 105.085938 121.089844 105.558594 C 119.273438 107.125 117.457031 108.703125 115.570312 110.1875 C 111.464844 113.414062 107.003906 116.578125 102.148438 118.578125 C 99.855469 119.523438 97.386719 120.296875 94.882812 120.300781 C 93.484375 120.300781 92.085938 120.089844 90.78125 119.585938 C 89.863281 119.226562 88.984375 118.753906 88.210938 118.140625 C 85.375 115.898438 84.488281 112.546875 84.695312 109.058594 C 84.964844 104.5625 86.398438 100.238281 87.464844 95.890625 C 87.316406 96.011719 86.75 96.148438 86.503906 96.355469 C 85.089844 97.539062 83.945312 99.128906 83.066406 100.734375 C 82.21875 102.277344 81.628906 103.953125 81.246094 105.667969 C 79.59375 113.085938 81.003906 123.328125 89.160156 126.277344 C 92.414062 127.453125 95.96875 127.378906 99.324219 126.738281 C 107.214844 125.234375 114 120.265625 119.59375 114.707031 C 121.488281 112.828125 123.246094 110.828125 124.726562 108.601562 C 125.332031 107.6875 126.125 106.625 126.441406 105.554688 C 126.710938 104.628906 126.433594 103.40625 126.339844 102.476562 C 126.140625 100.484375 125.890625 98.484375 125.335938 96.554688 C 125.285156 96.378906 125.691406 96.597656 125.871094 96.605469 C 126.175781 96.621094 126.476562 96.597656 126.78125 96.574219 C 127.707031 96.5 128.621094 96.324219 129.527344 96.128906 C 132.285156 95.535156 134.8125 94.460938 137.320312 93.1875 C 143.183594 90.210938 148.988281 86.820312 155.460938 85.355469 C 158.359375 84.703125 161.332031 84.539062 164.292969 84.65625 C 165.230469 84.691406 166.167969 84.773438 167.101562 84.878906 C 167.480469 84.921875 167.964844 85.058594 168.3125 84.84375 C 169.378906 84.179688 169.925781 82.394531 170.464844 81.335938 C 170.777344 80.726562 171.628906 79.515625 171.625 78.785156 C 171.621094 78.488281 170.335938 78.582031 170.199219 78.585938 C 168.574219 78.636719 166.953125 78.75 165.328125 78.769531 C 161.414062 78.8125 157.554688 78.558594 153.703125 77.832031 C 151.582031 77.429688 149.46875 76.964844 147.371094 76.441406 C 145.980469 76.101562 144.605469 75.714844 143.230469 75.316406 C 142.007812 74.964844 140.789062 74.585938 139.570312 74.222656 C 134.730469 72.78125 126.816406 70.320312 123.363281 75.683594 C 122.8125 76.539062 122.40625 78.382812 122.117188 79.351562 Z M 122.117188 79.351562 " fill-opacity="1" fill-rule="evenodd"/><path fill="#000000" d="M 118.542969 71.128906 C 118.5625 71.136719 118.285156 70.542969 118.238281 70.492188 C 117.914062 70.15625 117.476562 69.925781 117.050781 69.746094 C 115.820312 69.222656 114.433594 69.125 113.113281 69.128906 C 112.324219 69.132812 111.53125 69.175781 110.742188 69.234375 C 107.757812 69.453125 103.371094 70.488281 101.199219 67.667969 C 100.199219 66.363281 100.011719 64.535156 100.15625 62.953125 C 100.480469 59.421875 102.335938 56.25 105.007812 53.972656 C 106.34375 52.839844 108.0625 51.679688 109.90625 51.929688 C 111.632812 52.167969 113.445312 53.863281 114.667969 54.957031 C 118.722656 58.566406 121.566406 63.761719 121.535156 69.269531 C 121.527344 70.984375 120.699219 73.261719 119.96875 74.714844 C 116.929688 80.765625 110.25 83.933594 104.316406 86.476562 C 104.019531 86.605469 103.597656 86.8125 103.300781 86.933594 C 102.4375 87.292969 101.558594 87.621094 100.679688 87.9375 C 98.164062 88.851562 95.613281 89.671875 93.042969 90.417969 C 85.085938 92.726562 76.980469 94.144531 68.695312 94.464844 C 68.6875 94.523438 67.996094 94.472656 67.941406 94.472656 C 67.152344 94.449219 66.363281 94.390625 65.574219 94.335938 C 62.238281 94.101562 58.839844 93.523438 55.675781 92.417969 C 47.691406 89.625 40.058594 81.457031 43.511719 72.550781 C 44.007812 71.273438 44.644531 70.007812 45.503906 68.933594 C 46.039062 68.257812 46.773438 67.574219 47.59375 67.269531 C 47.796875 67.195312 48.277344 67.019531 48.445312 67.253906 C 48.632812 67.519531 48.351562 68.1875 48.269531 68.449219 C 47.941406 69.507812 47.617188 70.5625 47.347656 71.640625 C 46.660156 74.375 46.574219 77.398438 48.375 79.734375 C 49.511719 81.207031 51.089844 82.355469 52.667969 83.308594 C 57.933594 86.484375 63.453125 86.988281 69.464844 86.582031 C 70.609375 86.503906 72.175781 86.421875 73.289062 86.304688 C 76.058594 86.019531 78.828125 85.660156 81.5625 85.125 C 89.84375 83.5 97.789062 81.769531 105.769531 79.03125 C 109.585938 77.71875 115.011719 76.246094 118.542969 71.128906 Z M 111.582031 62.835938 C 111.578125 62.824219 111.308594 62.910156 111.285156 62.917969 C 111.121094 62.957031 110.953125 62.984375 110.785156 63.015625 C 110.210938 63.113281 109.632812 63.183594 109.054688 63.25 C 107.574219 63.417969 104.507812 63.667969 104.84375 61.335938 C 105.113281 59.476562 106.875 58.445312 108.597656 59.136719 C 109.949219 59.683594 111.238281 60.984375 111.582031 62.835938 Z M 111.582031 62.835938 " fill-opacity="1" fill-rule="evenodd"/><path fill="#000000" d="M 241.828125 69.53125 C 241.851562 69.566406 241.757812 69.707031 241.738281 69.738281 C 241.625 69.957031 241.503906 70.175781 241.371094 70.390625 C 241.339844 70.441406 241.261719 70.609375 241.167969 70.601562 C 241.027344 70.59375 240.804688 70.390625 240.703125 70.324219 C 240.320312 70.070312 239.933594 69.828125 239.5625 69.566406 C 239.148438 69.273438 238.734375 68.984375 238.308594 68.707031 C 238.058594 68.546875 237.726562 68.402344 237.546875 68.183594 C 237.355469 67.949219 237.359375 67.613281 237.335938 67.34375 C 237.273438 66.6875 237.261719 66.007812 237.476562 65.367188 C 237.679688 64.773438 238.054688 63.984375 238.898438 63.863281 C 239.785156 63.738281 240.707031 64.371094 241.390625 64.746094 C 242.769531 65.507812 243.640625 66.558594 244.410156 67.746094 C 245.097656 68.804688 245.644531 69.90625 245.992188 71.078125 C 246.199219 71.789062 246.324219 72.527344 246.578125 73.226562 C 246.6875 73.527344 246.828125 73.90625 247.171875 74.082031 C 247.167969 74.128906 247.199219 73.992188 247.207031 73.941406 C 247.222656 73.851562 247.238281 73.757812 247.257812 73.664062 C 247.304688 73.394531 247.339844 73.125 247.378906 72.851562 C 247.503906 72.015625 247.65625 71.1875 247.878906 70.363281 C 248.472656 68.175781 249.332031 65.832031 250.863281 63.953125 C 251.542969 63.113281 252.597656 62.191406 253.964844 62.628906 C 254.914062 62.929688 255.566406 63.816406 256.011719 64.523438 C 256.15625 64.753906 256.414062 65.105469 256.402344 65.375 C 256.375 65.910156 255.902344 66.519531 255.65625 67 C 255.484375 67.335938 255.324219 67.679688 255.121094 68.003906 C 255.050781 68.113281 254.960938 68.300781 254.816406 68.359375 C 254.546875 68.472656 254.214844 67.808594 254.140625 67.691406 C 253.738281 67.082031 253.136719 66.121094 252.136719 66.167969 C 251.089844 66.21875 250.628906 67.308594 250.308594 67.964844 C 249.351562 69.929688 248.824219 71.945312 248.285156 74 C 248.269531 74.003906 248.1875 74.300781 248.179688 74.324219 C 248.046875 74.691406 247.910156 75.0625 247.789062 75.433594 C 247.433594 76.527344 247.203125 77.679688 246.691406 78.730469 C 246.613281 78.890625 246.269531 79.683594 245.890625 79.492188 C 245.703125 79.398438 245.671875 79.109375 245.640625 78.953125 C 245.554688 78.488281 245.453125 78.027344 245.332031 77.570312 C 245.195312 77.03125 245.054688 76.496094 244.925781 75.960938 C 244.730469 75.140625 244.515625 74.324219 244.203125 73.527344 C 243.78125 72.457031 242.769531 70.027344 241.828125 69.53125 Z M 241.828125 69.53125 " fill-opacity="1" fill-rule="evenodd"/><path fill="#000000" d="M 301.457031 98.265625 C 301.382812 98.175781 301.253906 98.507812 301.226562 98.578125 C 301.171875 98.726562 301.109375 98.878906 301.054688 99.03125 C 300.875 99.511719 300.683594 99.980469 300.5 100.457031 C 300.378906 100.765625 300.722656 101.15625 300.816406 101.429688 C 301.097656 102.269531 300.585938 102.828125 299.894531 102.8125 C 299.695312 102.808594 299.507812 102.753906 299.324219 102.679688 C 298.550781 102.363281 297.777344 101.589844 297.851562 100.542969 C 297.890625 100.003906 298.097656 99.546875 298.210938 99.035156 C 298.25 98.867188 298.257812 98.597656 298.074219 98.546875 C 297.605469 98.417969 297.191406 99.5 297.027344 99.839844 C 296.378906 101.203125 295.832031 102.851562 294.5625 103.585938 C 293.378906 104.269531 292.257812 103.34375 291.113281 102.992188 C 289.878906 102.621094 288.648438 102.792969 287.472656 103.328125 C 287.472656 103.445312 287.28125 103.417969 287.191406 103.46875 C 286.894531 103.648438 286.605469 103.84375 286.320312 104.042969 C 285.058594 104.921875 283.84375 105.914062 282.671875 106.949219 C 277.582031 111.425781 272.273438 115.484375 266.71875 119.136719 C 265.035156 120.246094 263.359375 121.394531 261.636719 122.425781 C 260.9375 122.847656 260.21875 123.230469 259.527344 123.667969 C 259.449219 123.714844 258.886719 124.027344 259.046875 124.214844 C 259.230469 124.425781 259.753906 124.304688 259.972656 124.277344 C 260.828125 124.183594 261.6875 123.9375 262.519531 123.707031 C 264.558594 123.140625 266.734375 122.519531 268.613281 121.386719 C 269.808594 120.664062 270.914062 119.691406 272.003906 118.769531 C 275.304688 115.964844 278.578125 113.117188 281.894531 110.332031 C 283.839844 108.699219 285.957031 106.710938 288.269531 105.816406 C 290.324219 105.023438 291.96875 107.554688 294.023438 106.683594 C 294.917969 106.304688 295.574219 105.332031 296.011719 104.382812 C 296.085938 104.222656 296.511719 102.929688 296.667969 102.882812 C 296.695312 102.878906 296.773438 103.453125 296.777344 103.484375 C 296.839844 103.910156 296.90625 104.375 297.132812 104.722656 C 297.699219 105.59375 298.738281 105.753906 299.605469 105.550781 C 302.296875 104.929688 302.304688 101.882812 301.859375 99.351562 C 301.800781 99.015625 301.5625 98.394531 301.457031 98.265625 Z M 301.457031 98.265625 " fill-opacity="1" fill-rule="evenodd"/><path fill="#000000" d="M 229.152344 63.289062 C 229.167969 63.296875 230.542969 62.59375 230.625 62.554688 C 232.375 61.738281 234.148438 60.957031 235.929688 60.183594 C 243.230469 57.019531 250.601562 53.90625 258.0625 50.984375 C 260.164062 50.164062 262.28125 49.355469 264.433594 48.617188 C 264.566406 48.574219 266.265625 47.902344 266.359375 48.070312 C 266.546875 48.40625 265.761719 49.523438 265.609375 49.835938 C 265.289062 50.503906 265.078125 51.515625 264.480469 52.078125 C 264.082031 52.457031 263.308594 52.621094 262.765625 52.820312 C 261.429688 53.304688 260.09375 53.777344 258.777344 54.28125 C 254.707031 55.835938 250.769531 57.597656 246.773438 59.269531 C 242.910156 60.890625 238.953125 62.382812 235.121094 64.054688 C 233.210938 64.890625 231.296875 65.726562 229.390625 66.566406 C 229.085938 66.699219 227.8125 67.472656 227.421875 67.3125 C 227.175781 67.214844 227.457031 66.699219 227.507812 66.574219 C 227.78125 65.882812 228.832031 63.964844 229.152344 63.289062 Z M 229.152344 63.289062 " fill-opacity="1" fill-rule="evenodd"/><path fill="#000000" d="M 268.757812 53.300781 C 269.191406 52.867188 269.511719 52.082031 269.851562 51.570312 C 270.851562 50.078125 271.84375 48.578125 272.867188 47.097656 C 273.441406 46.269531 273.976562 45.285156 274.800781 44.640625 C 275.964844 43.730469 277.714844 43.855469 279.128906 43.945312 C 282.382812 44.15625 286.140625 45.152344 289.234375 45.648438 C 289.285156 45.609375 289.566406 45.734375 289.625 45.753906 C 289.984375 45.871094 290.339844 46.003906 290.695312 46.136719 C 291.886719 46.582031 294.226562 47.210938 293.808594 48.816406 C 293.542969 49.835938 292.824219 50.746094 292.175781 51.574219 C 291.160156 52.859375 290.070312 54.109375 288.933594 55.300781 C 287.425781 56.878906 285.835938 58.367188 284.183594 59.804688 C 283.09375 60.757812 281.964844 61.808594 280.554688 62.324219 C 278.199219 63.183594 275.410156 63.089844 272.921875 63.234375 C 271.742188 63.300781 270.566406 63.355469 269.386719 63.398438 C 268.765625 63.421875 267.984375 63.507812 267.378906 63.332031 C 266.785156 63.160156 268.203125 62.386719 268.308594 62.332031 C 269.589844 61.640625 270.976562 61.109375 272.359375 60.628906 C 275.546875 59.519531 278.8125 58.480469 281.839844 57.011719 C 282.5625 56.664062 283.285156 56.308594 283.988281 55.929688 C 284.171875 55.832031 284.585938 55.675781 284.652344 55.464844 C 284.734375 55.203125 284.132812 54.945312 283.960938 54.871094 C 283.125 54.503906 282.160156 54.324219 281.273438 54.117188 C 277.578125 53.253906 272.535156 52.765625 268.757812 53.300781 Z M 268.757812 53.300781 " fill-opacity="1" fill-rule="evenodd"/><path fill="#000000" d="M 65.980469 39.804688 C 66.414062 39.367188 66.734375 38.585938 67.074219 38.074219 C 68.074219 36.578125 69.066406 35.078125 70.089844 33.601562 C 70.664062 32.769531 71.199219 31.785156 72.019531 31.144531 C 73.1875 30.234375 74.9375 30.355469 76.347656 30.449219 C 79.605469 30.65625 83.363281 31.652344 86.457031 32.148438 C 86.507812 32.109375 86.785156 32.238281 86.847656 32.257812 C 87.207031 32.375 87.5625 32.503906 87.917969 32.636719 C 89.109375 33.085938 91.449219 33.714844 91.03125 35.316406 C 90.765625 36.335938 90.046875 37.25 89.398438 38.074219 C 88.382812 39.363281 87.292969 40.609375 86.15625 41.800781 C 84.648438 43.378906 83.058594 44.867188 81.40625 46.308594 C 80.316406 47.257812 79.1875 48.3125 77.777344 48.824219 C 75.417969 49.6875 72.628906 49.589844 70.144531 49.734375 C 68.964844 49.804688 67.789062 49.855469 66.609375 49.902344 C 65.984375 49.925781 65.207031 50.007812 64.601562 49.832031 C 64.003906 49.660156 65.425781 48.886719 65.527344 48.832031 C 66.808594 48.140625 68.199219 47.609375 69.578125 47.128906 C 72.769531 46.019531 76.035156 44.980469 79.0625 43.515625 C 79.785156 43.164062 80.507812 42.8125 81.210938 42.429688 C 81.394531 42.332031 81.804688 42.175781 81.875 41.964844 C 81.957031 41.707031 81.355469 41.449219 81.179688 41.371094 C 80.347656 41.003906 79.382812 40.824219 78.492188 40.617188 C 74.800781 39.753906 69.757812 39.265625 65.980469 39.804688 Z M 65.980469 39.804688 " fill-opacity="1" fill-rule="evenodd"/><path fill="#000000" d="M 203.371094 41.492188 L 207.789062 35.664062 L 214.925781 40.855469 L 210.21875 46.347656 C 210.21875 46.347656 203.652344 41.222656 203.371094 41.492188 Z M 203.371094 41.492188 " fill-opacity="1" fill-rule="evenodd"/><path fill="#000000" d="M 213.796875 40.210938 L 218.210938 34.382812 L 225.351562 39.574219 L 220.644531 45.066406 C 220.644531 45.066406 214.078125 39.9375 213.796875 40.210938 Z M 213.796875 40.210938 " fill-opacity="1" fill-rule="evenodd"/><path fill="#000000" d="M 94.722656 40.652344 L 99.140625 34.820312 L 106.28125 40.011719 L 101.570312 45.507812 C 101.570312 45.507812 95.003906 40.378906 94.722656 40.652344 Z M 94.722656 40.652344 " fill-opacity="1" fill-rule="evenodd"/><path fill="#000000" d="M 142.601562 60.117188 L 147.019531 54.289062 L 154.15625 59.480469 L 149.449219 64.972656 C 149.449219 64.972656 142.882812 59.847656 142.601562 60.117188 Z M 142.601562 60.117188 " fill-opacity="1" fill-rule="evenodd"/><path fill="#000000" d="M 148.386719 98.902344 L 152.804688 93.074219 L 159.941406 98.265625 L 155.234375 103.757812 C 155.234375 103.757812 148.667969 98.628906 148.386719 98.902344 Z M 148.386719 98.902344 " fill-opacity="1" fill-rule="evenodd"/><path fill="#000000" d="M 211.003906 98.300781 C 210.75 98.136719 210.515625 98.476562 210.476562 98.523438 C 210.210938 98.828125 210.019531 99.179688 209.835938 99.523438 C 209.253906 100.621094 208.730469 101.738281 208.140625 102.835938 C 206.636719 105.628906 204.730469 108.992188 204.917969 112.179688 C 205 113.566406 205.515625 115.328125 207.324219 115.613281 C 209.5625 115.96875 210.859375 113.039062 211.441406 111.644531 C 211.636719 111.167969 212.113281 110.214844 211.800781 109.703125 C 211.535156 109.261719 210.859375 110.183594 210.753906 110.324219 C 210.121094 111.1875 209.121094 112.882812 207.949219 111.492188 C 207.007812 110.378906 207.148438 108.84375 207.441406 107.550781 C 207.875 105.644531 208.910156 103.90625 209.828125 102.160156 C 210.40625 101.058594 211.867188 98.855469 211.003906 98.300781 Z M 211.003906 98.300781 " fill-opacity="1" fill-rule="evenodd"/><path fill="#000000" d="M 145.199219 98.464844 C 144.945312 98.300781 144.714844 98.636719 144.671875 98.6875 C 144.40625 98.992188 144.21875 99.339844 144.035156 99.6875 C 143.453125 100.78125 142.929688 101.902344 142.339844 102.996094 C 140.832031 105.792969 138.925781 109.152344 139.113281 112.34375 C 139.195312 113.730469 139.714844 115.488281 141.519531 115.777344 C 143.757812 116.128906 145.058594 113.203125 145.636719 111.804688 C 145.835938 111.332031 146.308594 110.378906 145.996094 109.863281 C 145.730469 109.421875 145.054688 110.347656 144.953125 110.488281 C 144.320312 111.351562 143.316406 113.046875 142.144531 111.65625 C 141.203125 110.539062 141.347656 109.007812 141.640625 107.714844 C 142.074219 105.808594 143.105469 104.066406 144.027344 102.320312 C 144.605469 101.222656 146.0625 99.019531 145.199219 98.464844 Z M 145.199219 98.464844 " fill-opacity="1" fill-rule="evenodd"/><path fill="#000000" d="M 177.222656 137.886719 C 177.476562 138.050781 177.707031 137.714844 177.75 137.664062 C 178.015625 137.359375 178.203125 137.011719 178.386719 136.664062 C 178.96875 135.570312 179.492188 134.449219 180.082031 133.355469 C 181.589844 130.558594 183.496094 127.199219 183.308594 124.007812 C 183.226562 122.625 182.707031 120.863281 180.902344 120.574219 C 178.664062 120.222656 177.363281 123.148438 176.785156 124.546875 C 176.585938 125.019531 176.113281 125.972656 176.425781 126.488281 C 176.691406 126.929688 177.367188 126.003906 177.46875 125.863281 C 178.101562 125 179.105469 123.304688 180.277344 124.695312 C 181.21875 125.8125 181.074219 127.34375 180.78125 128.636719 C 180.347656 130.542969 179.316406 132.285156 178.394531 134.03125 C 177.816406 135.128906 176.359375 137.332031 177.222656 137.886719 Z M 177.222656 137.886719 " fill-opacity="1" fill-rule="evenodd"/><path fill="#000000" d="M 280.566406 74.519531 C 280.433594 74.46875 280.933594 74.144531 280.976562 74.121094 C 281.175781 74.023438 281.367188 73.910156 281.554688 73.796875 C 282.113281 73.453125 282.671875 73.113281 283.222656 72.757812 C 284.933594 71.648438 286.636719 70.523438 288.339844 69.402344 C 292.171875 66.878906 302.871094 58.839844 303.121094 58.363281 C 302.9375 58.226562 302.628906 58.132812 302.421875 58.007812 C 301.347656 57.359375 299.71875 56.398438 299.835938 55.105469 C 299.996094 53.339844 301.671875 51.359375 303.554688 50.75 C 304.394531 50.480469 305.5 50.351562 306.222656 50.917969 C 306.683594 51.277344 306.8125 51.859375 306.863281 52.375 C 306.976562 53.511719 306.636719 54.597656 306.148438 55.640625 C 306.003906 55.941406 305.835938 56.234375 305.65625 56.515625 C 305.601562 56.601562 305.429688 56.773438 305.433594 56.875 C 305.4375 57.003906 305.859375 57.226562 305.960938 57.300781 C 306.335938 57.59375 306.867188 58.015625 307.015625 58.457031 C 307.203125 59.023438 306.558594 59.832031 306.25 60.285156 C 306.171875 60.402344 305.949219 60.8125 305.746094 60.777344 C 305.507812 60.738281 305.300781 60.457031 305.144531 60.316406 C 304.738281 59.945312 304.289062 59.609375 303.882812 59.238281 C 303.824219 59.183594 303.765625 59.355469 303.710938 59.414062 C 303.589844 59.535156 303.46875 59.65625 303.351562 59.777344 C 303.007812 60.132812 302.660156 60.480469 302.308594 60.824219 C 301.257812 61.859375 300.1875 62.878906 299.089844 63.871094 C 295.101562 67.472656 290.351562 70.566406 285.28125 72.894531 C 284.125 73.425781 282.984375 74.035156 281.757812 74.433594 C 281.542969 74.507812 280.695312 74.574219 280.566406 74.519531 Z M 304.535156 56.128906 C 304.535156 56.121094 304.582031 55.957031 304.582031 55.949219 C 304.621094 55.835938 304.65625 55.726562 304.683594 55.609375 C 304.765625 55.269531 304.820312 54.917969 304.796875 54.570312 C 304.78125 54.375 304.765625 54.175781 304.730469 53.984375 C 304.605469 53.246094 303.949219 52.203125 302.9375 52.417969 C 302.703125 52.464844 302.492188 52.574219 302.304688 52.699219 C 302.164062 52.792969 302.042969 52.902344 301.929688 53.015625 C 301.78125 53.164062 301.609375 53.351562 301.59375 53.554688 C 301.585938 53.707031 301.707031 53.832031 301.808594 53.941406 C 302.023438 54.171875 302.273438 54.367188 302.507812 54.582031 C 303 55.035156 303.992188 55.714844 304.535156 56.128906 Z M 304.535156 56.128906 " fill-opacity="1" fill-rule="evenodd"/><path fill="#000000" d="M 136.527344 54.257812 C 136.332031 54.175781 137.082031 53.65625 137.144531 53.625 C 137.441406 53.464844 137.734375 53.289062 138.015625 53.105469 C 138.855469 52.5625 139.695312 52.019531 140.519531 51.453125 C 143.09375 49.6875 145.648438 47.894531 148.207031 46.109375 C 153.96875 42.089844 170.039062 29.292969 170.417969 28.535156 C 170.144531 28.316406 169.679688 28.167969 169.367188 27.96875 C 167.75 26.933594 165.308594 25.40625 165.484375 23.34375 C 165.726562 20.535156 168.242188 17.382812 171.070312 16.414062 C 172.332031 15.980469 173.992188 15.78125 175.078125 16.683594 C 175.773438 17.253906 175.964844 18.179688 176.039062 19 C 176.210938 20.8125 175.703125 22.539062 174.964844 24.199219 C 174.753906 24.679688 174.5 25.140625 174.226562 25.59375 C 174.148438 25.730469 173.890625 26.003906 173.894531 26.164062 C 173.898438 26.371094 174.535156 26.722656 174.683594 26.84375 C 175.25 27.308594 176.046875 27.976562 176.269531 28.679688 C 176.554688 29.585938 175.582031 30.871094 175.117188 31.59375 C 175 31.777344 174.667969 32.433594 174.359375 32.378906 C 174.003906 32.316406 173.691406 31.867188 173.460938 31.644531 C 172.851562 31.050781 172.171875 30.519531 171.566406 29.925781 C 171.472656 29.835938 171.390625 30.113281 171.304688 30.203125 C 171.121094 30.398438 170.941406 30.589844 170.761719 30.785156 C 170.25 31.351562 169.722656 31.902344 169.195312 32.453125 C 167.617188 34.097656 166.011719 35.722656 164.359375 37.304688 C 158.367188 43.035156 151.230469 47.964844 143.617188 51.671875 C 141.878906 52.515625 140.160156 53.484375 138.320312 54.121094 C 137.996094 54.234375 136.722656 54.339844 136.527344 54.257812 Z M 172.546875 24.976562 C 172.539062 24.964844 172.609375 24.703125 172.613281 24.691406 C 172.671875 24.511719 172.726562 24.335938 172.769531 24.152344 C 172.890625 23.609375 172.972656 23.050781 172.933594 22.492188 C 172.914062 22.183594 172.890625 21.871094 172.839844 21.558594 C 172.648438 20.386719 171.660156 18.726562 170.144531 19.066406 C 169.792969 19.144531 169.476562 19.316406 169.191406 19.519531 C 168.980469 19.664062 168.796875 19.839844 168.625 20.023438 C 168.40625 20.253906 168.144531 20.554688 168.125 20.878906 C 168.113281 21.121094 168.292969 21.320312 168.449219 21.492188 C 168.773438 21.859375 169.144531 22.171875 169.496094 22.515625 C 170.238281 23.238281 171.726562 24.316406 172.546875 24.976562 Z M 172.546875 24.976562 " fill-opacity="1" fill-rule="evenodd"/><path fill="#000000" d="M 106.304688 45.484375 C 106.125 45.410156 106.808594 44.945312 106.867188 44.914062 C 107.136719 44.769531 107.402344 44.609375 107.660156 44.445312 C 108.425781 43.953125 109.191406 43.464844 109.945312 42.957031 C 112.292969 41.363281 114.621094 39.746094 116.957031 38.132812 C 122.210938 34.511719 136.871094 22.964844 137.214844 22.28125 C 136.964844 22.085938 136.542969 21.949219 136.257812 21.769531 C 134.78125 20.839844 132.554688 19.460938 132.714844 17.597656 C 132.9375 15.066406 135.230469 12.21875 137.808594 11.347656 C 138.960938 10.957031 140.476562 10.777344 141.46875 11.589844 C 142.097656 12.105469 142.273438 12.941406 142.34375 13.679688 C 142.496094 15.316406 142.035156 16.871094 141.363281 18.371094 C 141.167969 18.804688 140.9375 19.222656 140.691406 19.628906 C 140.617188 19.75 140.382812 20 140.386719 20.144531 C 140.390625 20.328125 140.96875 20.648438 141.105469 20.757812 C 141.621094 21.175781 142.347656 21.777344 142.550781 22.414062 C 142.8125 23.226562 141.925781 24.390625 141.503906 25.039062 C 141.394531 25.207031 141.09375 25.800781 140.8125 25.75 C 140.484375 25.691406 140.199219 25.289062 139.988281 25.085938 C 139.433594 24.550781 138.816406 24.074219 138.261719 23.535156 C 138.179688 23.457031 138.101562 23.703125 138.023438 23.789062 C 137.859375 23.960938 137.691406 24.136719 137.53125 24.3125 C 137.0625 24.820312 136.582031 25.320312 136.101562 25.816406 C 134.660156 27.300781 133.195312 28.765625 131.691406 30.191406 C 126.226562 35.363281 119.714844 39.808594 112.769531 43.152344 C 111.183594 43.914062 109.617188 44.785156 107.9375 45.359375 C 107.640625 45.464844 106.480469 45.558594 106.304688 45.484375 Z M 139.15625 19.070312 C 139.152344 19.0625 139.214844 18.824219 139.21875 18.8125 C 139.269531 18.652344 139.320312 18.492188 139.359375 18.328125 C 139.472656 17.835938 139.542969 17.332031 139.511719 16.832031 C 139.492188 16.550781 139.46875 16.269531 139.421875 15.988281 C 139.25 14.929688 138.347656 13.433594 136.964844 13.742188 C 136.644531 13.8125 136.355469 13.964844 136.09375 14.148438 C 135.90625 14.28125 135.738281 14.4375 135.582031 14.601562 C 135.382812 14.8125 135.140625 15.082031 135.125 15.375 C 135.113281 15.59375 135.277344 15.773438 135.417969 15.929688 C 135.714844 16.261719 136.054688 16.542969 136.375 16.851562 C 137.050781 17.503906 138.410156 18.476562 139.15625 19.070312 Z M 139.15625 19.070312 " fill-opacity="1" fill-rule="evenodd"/><path fill="#000000" d="M 132.113281 35.171875 C 132.078125 35.277344 131.585938 35.664062 131.484375 35.78125 C 131.019531 36.335938 130.582031 36.898438 130.175781 37.488281 C 128.777344 39.527344 127.4375 41.730469 126.789062 44.074219 C 126.476562 45.199219 126.253906 46.417969 126.59375 47.554688 C 127.363281 50.121094 131.460938 50.5 133.722656 49.398438 C 135.394531 48.582031 136.425781 46.5 136.492188 44.851562 C 136.574219 42.820312 135.523438 41.140625 133.859375 39.84375 C 133.207031 39.339844 131.9375 38.820312 131.566406 38.082031 C 131.421875 37.792969 131.675781 37.425781 131.816406 37.175781 C 132.167969 36.558594 133.257812 35.542969 132.113281 35.171875 Z M 129.980469 41.265625 C 129.640625 41.515625 129.179688 42.382812 129.027344 42.742188 C 128.871094 43.105469 128.703125 43.472656 128.683594 43.867188 C 128.589844 45.714844 130.632812 46.191406 132.289062 46.011719 C 132.871094 45.949219 133.464844 45.863281 134.035156 45.730469 C 134.234375 45.6875 134.527344 45.605469 134.617188 45.417969 C 134.8125 45.007812 130.816406 41.308594 129.980469 41.265625 Z M 129.980469 41.265625 " fill-opacity="1" fill-rule="evenodd"/></svg>