<svg xmlns="http://www.w3.org/2000/svg" xmlns:xlink="http://www.w3.org/1999/xlink" width="500" zoomAndPan="magnify" viewBox="0 0 375 157.92" height="200" preserveAspectRatio="xMidYMid meet" version="1.0"><defs><clipPath id="b5525728ea"><path d="M 358 65 L 374.902344 65 L 374.902344 71 L 358 71 Z M 358 65 " clip-rule="nonzero"/></clipPath><clipPath id="c97631a90c"><path d="M 31 18.039062 L 69 18.039062 L 69 59 L 31 59 Z M 31 18.039062 " clip-rule="nonzero"/></clipPath><clipPath id="d06331051b"><path d="M 0.09375 61 L 18 61 L 18 66 L 0.09375 66 Z M 0.09375 61 " clip-rule="nonzero"/></clipPath><clipPath id="88bcedf9ff"><path d="M 122 30 L 191 30 L 191 131.980469 L 122 131.980469 Z M 122 30 " clip-rule="nonzero"/></clipPath></defs><path fill="#000000" d="M 306.304688 22.917969 C 307.03125 22.65625 308.511719 23.117188 309.210938 23.25 C 312.242188 23.835938 315.167969 24.894531 317.96875 26.125 C 328.394531 30.703125 335.945312 39.292969 340.617188 49.105469 C 341.789062 51.554688 342.753906 54.132812 343.351562 56.765625 C 343.511719 57.472656 343.992188 58.765625 343.660156 59.5 C 343.363281 60.128906 342.605469 60.621094 342.085938 61.074219 C 340.984375 62.046875 339.964844 62.902344 338.699219 63.636719 C 337.070312 62.207031 334.785156 61.1875 332.9375 59.996094 C 332.375 55.742188 330.457031 51.496094 328.484375 47.703125 C 325.121094 41.257812 320.667969 35.347656 315.261719 30.3125 C 312.804688 28.039062 309.324219 24.488281 306.304688 22.917969 Z M 306.304688 22.917969 " fill-opacity="1" fill-rule="evenodd"/><path fill="#000000" d="M 306.304688 113.222656 C 307.03125 113.484375 308.511719 113.023438 309.210938 112.890625 C 312.242188 112.304688 315.167969 111.246094 317.96875 110.015625 C 328.394531 105.4375 335.945312 96.84375 340.617188 87.035156 C 341.789062 84.585938 342.753906 82.003906 343.351562 79.375 C 343.511719 78.667969 343.992188 77.375 343.660156 76.640625 C 343.363281 76.011719 342.605469 75.519531 342.085938 75.066406 C 340.984375 74.09375 339.964844 73.238281 338.699219 72.503906 C 337.070312 73.933594 334.785156 74.949219 332.9375 76.144531 C 332.375 80.394531 330.457031 84.640625 328.484375 88.4375 C 325.121094 94.882812 320.667969 100.792969 315.261719 105.828125 C 312.804688 108.101562 309.324219 111.652344 306.304688 113.222656 Z M 306.304688 113.222656 " fill-opacity="1" fill-rule="evenodd"/><path fill="#000000" d="M 351.9375 62.414062 C 351.648438 62.5625 351.386719 62.695312 351.316406 62.742188 C 349.664062 63.972656 348.035156 65.121094 346.183594 66.09375 C 345.554688 66.429688 344.898438 66.707031 344.257812 67.015625 C 344.152344 67.066406 343.867188 67.191406 343.71875 67.339844 C 343.511719 67.535156 343.453125 67.765625 343.511719 67.992188 C 343.566406 68.21875 343.742188 68.410156 344.039062 68.5 C 344.269531 68.566406 344.636719 68.550781 344.75 68.554688 C 344.933594 68.554688 345.496094 68.757812 346.230469 69.035156 C 348.171875 69.761719 351.214844 71.074219 352.613281 71.824219 C 352.773438 71.910156 353.257812 72.222656 353.671875 72.496094 C 353.417969 72.652344 353.152344 72.800781 353.015625 72.851562 C 351.625 73.359375 349.984375 73.878906 349.089844 75.085938 C 348.757812 75.535156 348.652344 76.058594 348.652344 76.613281 C 348.664062 77.265625 348.859375 77.964844 348.882812 78.558594 C 348.941406 80.160156 348.640625 81.554688 347.65625 82.878906 C 346.886719 83.925781 345.933594 84.914062 344.75 85.542969 C 344.554688 85.648438 342.902344 86.414062 342.902344 86.414062 C 342.671875 86.523438 342.546875 86.765625 342.59375 87.007812 C 342.636719 87.25 342.855469 87.429688 343.109375 87.449219 C 343.109375 87.449219 345.644531 87.617188 346.402344 87.523438 C 350.304688 87.042969 352.683594 84.675781 354.394531 81.507812 C 354.644531 81.046875 354.828125 80.46875 355.023438 79.902344 C 355.195312 79.433594 355.367188 78.96875 355.65625 78.644531 C 355.929688 78.335938 356.332031 78.128906 356.746094 77.925781 C 357.261719 77.675781 357.792969 77.445312 358.203125 77.148438 C 359.480469 76.242188 360.375 75.09375 361.199219 73.8125 C 361.523438 73.3125 361.820312 72.796875 362.105469 72.285156 C 362.257812 72.035156 363.128906 70.5 363.128906 70.5 C 363.277344 70.234375 363.175781 69.90625 362.898438 69.761719 C 362.898438 69.761719 362.015625 69.304688 361.855469 69.226562 C 361.28125 68.957031 359.695312 68.277344 358.515625 67.773438 C 358.503906 67.773438 363.058594 66.441406 363.058594 66.441406 C 363.347656 66.355469 363.519531 66.070312 363.449219 65.792969 C 363.449219 65.792969 362.980469 63.898438 362.015625 62.109375 C 361.339844 60.847656 360.410156 59.65625 359.261719 59.117188 C 358.835938 58.917969 358.261719 58.769531 357.722656 58.601562 C 357.285156 58.472656 356.871094 58.339844 356.621094 58.121094 C 356.527344 58.039062 356.515625 57.898438 356.492188 57.761719 C 356.4375 57.488281 356.402344 57.207031 356.34375 57 C 356.058594 55.996094 355.609375 54.988281 355.046875 54.101562 C 352.707031 50.484375 346.828125 47.808594 342.628906 48.035156 C 342.351562 48.050781 342.121094 48.246094 342.085938 48.507812 C 342.054688 48.765625 342.214844 49.011719 342.476562 49.097656 C 343.832031 49.53125 344.957031 50.773438 345.921875 52.253906 C 347.460938 54.625 348.527344 57.625 349.226562 59.351562 C 349.710938 60.539062 350.179688 61.292969 351.304688 62.035156 C 351.511719 62.171875 351.71875 62.300781 351.9375 62.414062 Z M 345.371094 86.464844 C 346.679688 85.753906 347.746094 84.664062 348.597656 83.503906 C 349.734375 81.972656 350.101562 80.367188 350.03125 78.519531 C 350.007812 78.019531 349.871094 77.445312 349.824219 76.886719 C 349.777344 76.46875 349.777344 76.050781 350.03125 75.714844 C 350.800781 74.679688 352.246094 74.304688 353.429688 73.871094 C 353.820312 73.722656 355 72.953125 355 72.953125 C 355.164062 72.851562 355.242188 72.683594 355.242188 72.507812 C 355.253906 72.332031 355.164062 72.164062 355.011719 72.0625 C 355.011719 72.0625 353.496094 71.039062 353.175781 70.871094 C 351.535156 69.996094 347.710938 68.363281 345.875 67.742188 C 345.75 67.699219 345.644531 67.664062 345.53125 67.632812 C 345.945312 67.445312 346.347656 67.257812 346.746094 67.050781 C 348.652344 66.046875 350.316406 64.867188 352.027344 63.601562 C 352.167969 63.496094 353.257812 63.035156 353.507812 62.875 C 353.679688 62.757812 353.738281 62.628906 353.761719 62.566406 C 353.820312 62.425781 353.855469 62.171875 353.578125 61.953125 C 353.488281 61.878906 352.96875 61.679688 352.914062 61.65625 C 352.578125 61.519531 352.257812 61.339844 351.960938 61.140625 C 351.054688 60.539062 350.683594 59.921875 350.296875 58.960938 C 349.582031 57.191406 348.480469 54.117188 346.898438 51.683594 C 346.300781 50.746094 345.613281 49.910156 344.867188 49.257812 L 344.867188 49.253906 C 348.355469 49.816406 352.304688 51.949219 354.070312 54.671875 C 354.578125 55.472656 354.980469 56.382812 355.230469 57.289062 C 355.300781 57.523438 355.324219 57.859375 355.402344 58.152344 C 355.484375 58.460938 355.632812 58.730469 355.839844 58.917969 C 356.125 59.175781 356.5625 59.375 357.042969 59.539062 C 357.617188 59.734375 358.285156 59.878906 358.753906 60.097656 C 359.695312 60.539062 360.429688 61.5625 360.992188 62.605469 C 361.601562 63.734375 361.992188 64.910156 362.1875 65.550781 C 362.1875 65.550781 356.699219 67.160156 356.699219 67.160156 C 356.484375 67.226562 356.320312 67.421875 356.296875 67.648438 C 356.289062 67.875 356.425781 68.085938 356.644531 68.179688 C 356.644531 68.179688 360.410156 69.757812 361.339844 70.199219 C 361.40625 70.234375 361.625 70.347656 361.84375 70.460938 C 361.578125 70.929688 361.199219 71.601562 361.109375 71.757812 C 360.820312 72.257812 360.535156 72.757812 360.214844 73.246094 C 359.46875 74.40625 358.675781 75.453125 357.515625 76.273438 C 357.148438 76.539062 356.675781 76.734375 356.21875 76.957031 C 355.667969 77.226562 355.152344 77.527344 354.785156 77.941406 C 354.40625 78.363281 354.152344 78.945312 353.945312 79.550781 C 353.761719 80.066406 353.601562 80.59375 353.382812 81.007812 C 351.84375 83.847656 349.753906 86.011719 346.265625 86.441406 C 346.058594 86.464844 345.738281 86.46875 345.371094 86.464844 Z M 345.371094 86.464844 " fill-opacity="1" fill-rule="evenodd"/><path fill="#000000" d="M 339.046875 72.691406 C 339.183594 72.59375 340.007812 72.019531 340.101562 71.945312 C 341.375 70.964844 343.808594 68.691406 344.96875 67.59375 C 345.082031 67.496094 345.140625 67.359375 345.140625 67.21875 C 345.140625 67.101562 345.105469 66.9375 344.96875 66.789062 C 344.867188 66.679688 344.613281 66.527344 344.554688 66.488281 C 344.152344 66.207031 343.761719 65.925781 343.363281 65.648438 C 341.835938 64.570312 340.332031 63.378906 338.679688 62.457031 C 338.4375 62.316406 338.117188 62.375 337.945312 62.59375 C 337.484375 63.148438 336.289062 63.699219 335.660156 64.109375 C 333.925781 65.246094 332.125 66.289062 330.367188 67.386719 C 330.113281 67.449219 330.011719 67.675781 330 67.722656 C 329.953125 67.839844 329.886719 68.085938 330.136719 68.320312 C 330.171875 68.347656 330.402344 68.46875 330.480469 68.519531 C 330.652344 68.628906 330.828125 68.738281 331 68.847656 C 331.59375 69.234375 332.214844 69.59375 332.835938 69.949219 C 334.625 70.976562 336.40625 72.042969 338.277344 72.921875 C 338.460938 73.007812 338.679688 72.996094 338.851562 72.890625 C 338.929688 72.835938 339 72.769531 339.046875 72.691406 Z M 343.707031 67.25 C 342.464844 68.414062 340.480469 70.25 339.378906 71.101562 C 339.285156 71.167969 338.746094 71.507812 338.414062 71.765625 C 336.703125 70.933594 335.074219 69.957031 333.421875 69.015625 C 332.824219 68.671875 332.226562 68.324219 331.640625 67.949219 L 331.605469 67.921875 C 333.179688 66.957031 334.761719 66.019531 336.3125 65.007812 C 336.886719 64.632812 337.863281 64.128906 338.484375 63.617188 C 339.953125 64.484375 341.296875 65.554688 342.683594 66.527344 C 343.027344 66.765625 343.375 67.007812 343.707031 67.25 Z M 330.449219 68.457031 L 330.449219 68.460938 Z M 330.449219 68.457031 " fill-opacity="1" fill-rule="evenodd"/><g clip-path="url(#b5525728ea)"><path fill="#000000" d="M 363.015625 65.863281 L 374.710938 68.308594 L 363.015625 70.171875 L 358.113281 67.789062 Z M 363.015625 65.863281 " fill-opacity="1" fill-rule="evenodd"/></g><g clip-path="url(#c97631a90c)"><path fill="#000000" d="M 68.808594 18.269531 C 68.085938 18.011719 66.605469 18.46875 65.90625 18.605469 C 62.875 19.191406 59.945312 20.25 57.144531 21.480469 C 46.722656 26.058594 39.167969 34.648438 34.496094 44.460938 C 33.328125 46.910156 32.363281 49.488281 31.765625 52.117188 C 31.605469 52.828125 31.121094 54.121094 31.457031 54.851562 C 31.753906 55.480469 32.511719 55.972656 33.027344 56.429688 C 34.128906 57.402344 35.152344 58.257812 36.414062 58.992188 C 38.042969 57.5625 40.328125 56.542969 42.175781 55.351562 C 42.738281 51.097656 44.65625 46.851562 46.632812 43.058594 C 49.996094 36.613281 54.449219 30.699219 59.855469 25.667969 C 62.3125 23.390625 65.789062 19.84375 68.808594 18.269531 Z M 68.808594 18.269531 " fill-opacity="1" fill-rule="evenodd"/></g><path fill="#000000" d="M 68.808594 108.578125 C 68.085938 108.839844 66.605469 108.378906 65.90625 108.246094 C 62.875 107.65625 59.945312 106.601562 57.144531 105.367188 C 46.722656 100.789062 39.167969 92.199219 34.496094 82.386719 C 33.328125 79.941406 32.363281 77.359375 31.765625 74.730469 C 31.605469 74.023438 31.121094 72.726562 31.457031 71.996094 C 31.753906 71.367188 32.511719 70.875 33.027344 70.421875 C 34.128906 69.449219 35.152344 68.589844 36.414062 67.859375 C 38.042969 69.289062 40.328125 70.304688 42.175781 71.5 C 42.738281 75.75 44.65625 79.996094 46.632812 83.789062 C 49.996094 90.238281 54.449219 96.148438 59.855469 101.183594 C 62.3125 103.457031 65.789062 107.003906 68.808594 108.578125 Z M 68.808594 108.578125 " fill-opacity="1" fill-rule="evenodd"/><path fill="#000000" d="M 23.179688 57.769531 C 23.464844 57.914062 23.730469 58.050781 23.800781 58.09375 C 25.453125 59.324219 27.082031 60.476562 28.929688 61.449219 C 29.5625 61.78125 30.214844 62.058594 30.859375 62.367188 C 30.960938 62.421875 31.25 62.546875 31.398438 62.691406 C 31.605469 62.890625 31.664062 63.121094 31.605469 63.347656 C 31.546875 63.574219 31.375 63.765625 31.078125 63.855469 C 30.847656 63.921875 30.480469 63.90625 30.363281 63.910156 C 30.179688 63.910156 29.617188 64.113281 28.882812 64.390625 C 26.945312 65.113281 23.902344 66.429688 22.5 67.175781 C 22.339844 67.261719 21.859375 67.574219 21.445312 67.851562 C 21.699219 68.003906 21.960938 68.15625 22.101562 68.207031 C 23.488281 68.714844 25.128906 69.230469 26.027344 70.441406 C 26.359375 70.890625 26.460938 71.414062 26.460938 71.964844 C 26.449219 72.621094 26.253906 73.320312 26.234375 73.914062 C 26.175781 75.515625 26.472656 76.90625 27.460938 78.234375 C 28.230469 79.28125 29.183594 80.269531 30.363281 80.898438 C 30.558594 81.003906 32.214844 81.769531 32.214844 81.769531 C 32.441406 81.875 32.570312 82.121094 32.523438 82.363281 C 32.476562 82.605469 32.257812 82.785156 32.007812 82.804688 C 32.007812 82.804688 29.46875 82.972656 28.710938 82.875 C 24.808594 82.398438 22.433594 80.03125 20.722656 76.859375 C 20.46875 76.402344 20.285156 75.820312 20.089844 75.257812 C 19.917969 74.785156 19.746094 74.324219 19.460938 74 C 19.183594 73.691406 18.78125 73.480469 18.367188 73.28125 C 17.851562 73.03125 17.324219 72.800781 16.910156 72.5 C 15.636719 71.59375 14.742188 70.449219 13.914062 69.167969 C 13.59375 68.667969 13.296875 68.152344 13.007812 67.636719 C 12.859375 67.390625 11.988281 65.851562 11.988281 65.851562 C 11.835938 65.589844 11.941406 65.261719 12.214844 65.117188 C 12.214844 65.117188 13.101562 64.660156 13.261719 64.582031 C 13.835938 64.3125 15.417969 63.628906 16.601562 63.128906 C 16.613281 63.125 12.054688 61.792969 12.054688 61.792969 C 11.769531 61.710938 11.597656 61.425781 11.664062 61.148438 C 11.664062 61.148438 12.136719 59.253906 13.101562 57.464844 C 13.777344 56.203125 14.707031 55.007812 15.855469 54.472656 C 16.28125 54.273438 16.855469 54.125 17.394531 53.957031 C 17.828125 53.824219 18.242188 53.695312 18.496094 53.472656 C 18.585938 53.394531 18.597656 53.253906 18.621094 53.113281 C 18.679688 52.84375 18.714844 52.5625 18.769531 52.351562 C 19.058594 51.351562 19.503906 50.34375 20.066406 49.457031 C 22.410156 45.839844 28.289062 43.164062 32.488281 43.386719 C 32.765625 43.402344 32.992188 43.601562 33.027344 43.859375 C 33.0625 44.121094 32.902344 44.367188 32.636719 44.449219 C 31.285156 44.882812 30.160156 46.128906 29.195312 47.609375 C 27.65625 49.980469 26.589844 52.980469 25.886719 54.703125 C 25.40625 55.894531 24.933594 56.648438 23.808594 57.386719 C 23.605469 57.523438 23.398438 57.652344 23.179688 57.769531 Z M 29.746094 81.816406 C 28.4375 81.109375 27.367188 80.019531 26.519531 78.859375 C 25.382812 77.328125 25.015625 75.722656 25.085938 73.875 C 25.109375 73.375 25.246094 72.800781 25.292969 72.242188 C 25.335938 71.820312 25.335938 71.40625 25.085938 71.070312 C 24.316406 70.03125 22.867188 69.660156 21.6875 69.226562 C 21.296875 69.078125 20.113281 68.308594 20.113281 68.308594 C 19.953125 68.207031 19.871094 68.039062 19.871094 67.863281 C 19.863281 67.683594 19.953125 67.519531 20.101562 67.414062 C 20.101562 67.414062 21.617188 66.394531 21.9375 66.226562 C 23.582031 65.351562 27.402344 63.71875 29.238281 63.097656 C 29.367188 63.054688 29.46875 63.019531 29.585938 62.988281 C 29.171875 62.800781 28.769531 62.613281 28.367188 62.402344 C 26.460938 61.402344 24.796875 60.21875 23.085938 58.953125 C 22.949219 58.851562 21.859375 58.386719 21.605469 58.230469 C 21.433594 58.113281 21.375 57.984375 21.355469 57.921875 C 21.296875 57.78125 21.261719 57.527344 21.539062 57.308594 C 21.628906 57.234375 22.144531 57.03125 22.203125 57.011719 C 22.535156 56.875 22.859375 56.691406 23.15625 56.492188 C 24.0625 55.894531 24.429688 55.273438 24.820312 54.316406 C 25.53125 52.542969 26.632812 49.46875 28.21875 47.039062 C 28.816406 46.101562 29.503906 45.261719 30.25 44.609375 C 26.761719 45.167969 22.8125 47.304688 21.042969 50.027344 C 20.539062 50.828125 20.136719 51.738281 19.882812 52.640625 C 19.816406 52.878906 19.792969 53.214844 19.710938 53.507812 C 19.632812 53.816406 19.484375 54.085938 19.277344 54.269531 C 18.988281 54.527344 18.554688 54.730469 18.070312 54.890625 C 17.496094 55.085938 16.832031 55.234375 16.359375 55.449219 C 15.417969 55.894531 14.683594 56.917969 14.121094 57.960938 C 13.511719 59.089844 13.125 60.265625 12.929688 60.90625 C 12.929688 60.90625 18.414062 62.515625 18.414062 62.515625 C 18.632812 62.582031 18.792969 62.777344 18.816406 63.003906 C 18.828125 63.230469 18.691406 63.441406 18.472656 63.535156 C 18.472656 63.535156 14.707031 65.113281 13.777344 65.554688 C 13.707031 65.589844 13.492188 65.703125 13.273438 65.8125 C 13.535156 66.285156 13.914062 66.957031 14.007812 67.113281 C 14.292969 67.613281 14.582031 68.113281 14.902344 68.597656 C 15.648438 69.761719 16.441406 70.808594 17.601562 71.628906 C 17.96875 71.890625 18.4375 72.089844 18.898438 72.3125 C 19.449219 72.582031 19.964844 72.882812 20.332031 73.296875 C 20.710938 73.714844 20.964844 74.300781 21.171875 74.90625 C 21.355469 75.417969 21.515625 75.945312 21.734375 76.363281 C 23.269531 79.199219 25.359375 81.367188 28.851562 81.796875 C 29.054688 81.820312 29.378906 81.824219 29.746094 81.816406 Z M 29.746094 81.816406 " fill-opacity="1" fill-rule="evenodd"/><path fill="#000000" d="M 36.070312 68.046875 C 35.933594 67.949219 35.105469 67.371094 35.015625 67.300781 C 33.738281 66.320312 31.304688 64.046875 30.148438 62.949219 C 30.03125 62.847656 29.976562 62.714844 29.976562 62.574219 C 29.976562 62.453125 30.007812 62.292969 30.148438 62.140625 C 30.25 62.03125 30.503906 61.882812 30.558594 61.839844 C 30.960938 61.558594 31.351562 61.28125 31.753906 61.003906 C 33.28125 59.925781 34.785156 58.730469 36.4375 57.8125 C 36.679688 57.671875 37 57.730469 37.171875 57.949219 C 37.632812 58.503906 38.824219 59.050781 39.457031 59.464844 C 41.191406 60.601562 42.992188 61.644531 44.75 62.742188 C 45 62.804688 45.105469 63.03125 45.117188 63.078125 C 45.160156 63.191406 45.230469 63.441406 44.976562 63.675781 C 44.945312 63.699219 44.714844 63.820312 44.632812 63.875 C 44.460938 63.984375 44.289062 64.09375 44.117188 64.203125 C 43.519531 64.589844 42.898438 64.949219 42.28125 65.304688 C 40.488281 66.328125 38.710938 67.394531 36.839844 68.277344 C 36.65625 68.363281 36.4375 68.351562 36.265625 68.242188 C 36.183594 68.191406 36.117188 68.125 36.070312 68.046875 Z M 31.410156 62.605469 C 32.648438 63.765625 34.636719 65.605469 35.738281 66.453125 C 35.828125 66.523438 36.367188 66.859375 36.703125 67.121094 C 38.410156 66.289062 40.042969 65.3125 41.695312 64.367188 C 42.292969 64.023438 42.890625 63.679688 43.472656 63.300781 L 43.507812 63.277344 C 41.9375 62.308594 40.351562 61.375 38.800781 60.363281 C 38.226562 59.988281 37.253906 59.480469 36.632812 58.972656 C 35.164062 59.835938 33.820312 60.910156 32.429688 61.882812 C 32.085938 62.121094 31.742188 62.363281 31.410156 62.605469 Z M 44.667969 63.8125 Z M 44.667969 63.8125 " fill-opacity="1" fill-rule="evenodd"/><g clip-path="url(#d06331051b)"><path fill="#000000" d="M 12.101562 61.21875 L 0.402344 63.664062 L 12.101562 65.523438 L 17.003906 63.140625 Z M 12.101562 61.21875 " fill-opacity="1" fill-rule="evenodd"/></g><path fill="#000000" d="M 194.984375 25.398438 C 194.933594 25.4375 195.039062 25.300781 195.066406 25.25 C 195.125 25.144531 195.179688 25.039062 195.238281 24.933594 C 195.414062 24.605469 195.59375 24.277344 195.765625 23.945312 C 196.25 23 196.800781 22.070312 197.277344 21.125 C 197.277344 21.191406 197.40625 21.316406 197.441406 21.375 C 197.550781 21.5625 197.648438 21.753906 197.75 21.941406 C 198.089844 22.578125 198.398438 23.226562 198.722656 23.871094 C 200.039062 26.503906 201.53125 29.09375 202.722656 31.765625 C 202.90625 32.183594 203.089844 32.605469 203.25 33.03125 C 203.339844 33.28125 203.429688 33.53125 203.496094 33.785156 C 203.53125 33.921875 203.5625 34.058594 203.578125 34.195312 C 203.589844 34.289062 203.59375 34.378906 203.589844 34.46875 C 203.585938 34.527344 203.578125 34.582031 203.558594 34.636719 C 203.363281 35.199219 202.632812 34.429688 202.445312 34.265625 C 202.363281 34.199219 202.28125 34.128906 202.199219 34.058594 C 202.105469 33.980469 202.011719 33.902344 201.917969 33.824219 C 201.789062 33.714844 201.660156 33.609375 201.53125 33.5 C 201.359375 33.355469 201.1875 33.207031 201.015625 33.0625 C 200.84375 32.914062 200.667969 32.765625 200.503906 32.613281 C 200.441406 32.554688 200.507812 32.761719 200.515625 32.835938 C 200.539062 33.019531 200.5625 33.199219 200.582031 33.378906 C 200.640625 33.855469 200.707031 34.328125 200.785156 34.800781 C 201.007812 36.191406 201.273438 37.574219 201.511719 38.960938 C 202.238281 43.164062 202.820312 47.394531 203.363281 51.617188 C 203.242188 51.59375 203.40625 51.8125 203.425781 51.910156 C 203.472656 52.148438 203.5 52.386719 203.539062 52.625 C 203.640625 53.277344 203.742188 53.929688 203.84375 54.585938 C 204.125 56.472656 204.402344 58.363281 204.640625 60.253906 C 205.5625 67.585938 207.296875 75.371094 205.761719 82.78125 C 205.429688 84.382812 205.21875 86.214844 204.160156 87.65625 C 204.019531 87.851562 203.28125 88.917969 202.902344 88.890625 C 202.824219 88.886719 202.792969 88.816406 202.773438 88.765625 C 202.449219 87.84375 202.882812 86.472656 202.882812 85.527344 C 202.882812 81.761719 202.671875 78.027344 202.230469 74.285156 C 200.734375 61.636719 195.945312 30.015625 195.855469 27.039062 C 195.859375 27.039062 195.632812 26.628906 195.609375 26.589844 C 195.445312 26.292969 195.160156 25.695312 194.984375 25.398438 Z M 194.984375 25.398438 " fill-opacity="1" fill-rule="evenodd"/><path fill="#000000" d="M 155.253906 45.460938 C 154.964844 45.511719 154.65625 45.914062 154.570312 46.007812 C 154.421875 46.171875 154.273438 46.339844 154.128906 46.507812 C 153.609375 47.121094 153.238281 47.589844 153.492188 48.328125 C 153.988281 49.804688 154.863281 51.171875 155.40625 52.625 C 155.675781 53.347656 155.375 54.015625 154.304688 54.050781 C 152.195312 54.121094 151.734375 51.574219 151.480469 50.429688 C 151.410156 50.105469 151.335938 49.777344 151.253906 49.453125 C 151.140625 49.011719 151.003906 48.570312 150.839844 48.136719 C 150.632812 47.589844 150.417969 47.042969 150.128906 46.515625 C 150.09375 46.453125 149.914062 46.023438 149.785156 46.039062 C 149.476562 46.074219 149.054688 46.949219 148.921875 47.144531 C 148.757812 47.394531 148.488281 47.683594 148.46875 47.972656 C 148.429688 48.503906 149.136719 49.148438 149.355469 49.644531 C 149.667969 50.359375 149.714844 51.132812 149.695312 51.886719 C 149.75 51.898438 149.671875 52.132812 149.664062 52.15625 C 149.59375 52.441406 149.523438 52.726562 149.402344 53 C 148.953125 54.035156 146.777344 54.921875 145.863281 53.691406 C 145.496094 53.191406 145.582031 52.527344 145.609375 51.980469 C 145.667969 50.792969 145.976562 49.597656 145.820312 48.410156 C 145.765625 47.980469 145.640625 47.519531 145.355469 47.144531 C 145.324219 47.101562 145.054688 46.765625 144.949219 46.835938 C 144.675781 47.019531 144.542969 47.46875 144.394531 47.714844 C 144.269531 47.933594 144.148438 48.148438 144.023438 48.367188 C 143.878906 48.625 143.746094 48.882812 143.59375 49.136719 C 143.570312 49.179688 143.402344 49.367188 143.417969 49.421875 C 143.449219 49.523438 143.753906 49.664062 143.839844 49.75 C 144.09375 50 144.207031 50.25 144.230469 50.566406 C 144.3125 51.589844 144 52.628906 143.953125 53.652344 C 143.917969 54.550781 143.808594 55.691406 144.617188 56.421875 C 145.527344 57.242188 147.085938 57.296875 148.136719 56.632812 C 149.421875 55.824219 150.273438 54.507812 150.371094 53.222656 C 150.65625 54.886719 152.894531 57.453125 155.316406 56.128906 C 155.601562 55.976562 155.847656 55.800781 156.0625 55.589844 C 156.363281 55.289062 156.589844 54.925781 156.734375 54.5625 C 157.230469 53.324219 157.261719 51.945312 156.835938 50.691406 C 156.3125 49.144531 155.261719 47.097656 155.253906 45.460938 Z M 155.253906 45.460938 " fill-opacity="1" fill-rule="evenodd"/><path fill="#000000" d="M 286.890625 73.007812 C 286.914062 72.996094 286.921875 72.972656 286.902344 72.945312 C 286.890625 72.96875 286.890625 72.988281 286.890625 73.007812 C 286.816406 73.050781 286.578125 73.050781 286.480469 73.101562 C 286.167969 73.253906 285.867188 73.417969 285.5625 73.582031 C 284.636719 74.078125 283.792969 74.65625 282.964844 75.28125 C 280.65625 77.007812 278.023438 79.785156 274.851562 79.746094 C 274.894531 79.582031 274.503906 79.136719 274.429688 79.023438 C 273.945312 78.257812 273.425781 77.519531 272.929688 76.761719 C 270.957031 73.707031 267.664062 69.371094 263.5 72.042969 C 260.210938 74.15625 257.492188 78.273438 256.898438 82.0625 C 256.414062 85.128906 257.824219 88.070312 261.050781 88.984375 C 264.753906 90.035156 269.519531 87.894531 272.671875 86.09375 C 272.691406 86.078125 272.910156 86.460938 272.929688 86.507812 C 273.082031 86.78125 273.210938 87.058594 273.351562 87.332031 C 273.738281 88.148438 274.128906 89.054688 274.085938 89.976562 C 274.0625 89.988281 273.816406 90.210938 273.761719 90.265625 C 273.578125 90.449219 273.382812 90.625 273.1875 90.800781 C 272.53125 91.386719 271.871094 91.96875 271.234375 92.566406 C 269.433594 94.253906 267.546875 95.824219 265.613281 97.367188 C 260.113281 101.777344 252.875 107.960938 245.257812 107.882812 C 237.121094 107.800781 231.46875 101.167969 232.265625 93.425781 C 232.492188 91.277344 232.925781 89.164062 233.496094 87.082031 C 233.59375 86.695312 234.1875 85.246094 233.90625 84.871094 C 233.660156 84.535156 232.6875 86.023438 232.613281 86.132812 C 231.628906 87.703125 231.035156 89.410156 230.660156 91.207031 C 229.6875 95.765625 229.816406 100.933594 231.824219 105.226562 C 235.363281 112.789062 244.835938 115.5 252.464844 112.542969 C 256.414062 111.015625 259.886719 108.410156 263.199219 105.867188 C 266.292969 103.488281 269.476562 101.015625 271.839844 97.898438 C 273.125 96.210938 275 94.042969 275.539062 91.960938 C 276.15625 89.621094 275.992188 87.109375 275.660156 84.828125 C 275.648438 84.773438 276.125 84.59375 276.175781 84.570312 C 276.683594 84.324219 277.203125 84.082031 277.710938 83.832031 C 279.671875 82.882812 281.722656 81.96875 283.382812 80.558594 C 283.503906 80.457031 283.40625 80.871094 283.4375 81.023438 C 283.492188 81.289062 283.589844 81.542969 283.6875 81.796875 C 283.976562 82.539062 284.289062 83.273438 284.648438 83.988281 C 285.757812 86.203125 287.765625 87.945312 290.222656 88.582031 C 291.292969 88.859375 292.4375 89.039062 293.546875 88.949219 C 298.164062 88.566406 300.828125 84.035156 302.1875 80.195312 C 302.1875 80.191406 302.199219 80.1875 302.199219 80.1875 L 302.1875 80.195312 C 302.199219 80.292969 302.675781 81.359375 302.738281 81.472656 C 303.246094 82.332031 303.863281 83.160156 304.5625 83.882812 C 306.742188 86.140625 310.335938 86.773438 313.238281 85.542969 C 315.167969 84.722656 316.257812 83.175781 317.097656 81.359375 C 318.824219 77.632812 318.003906 71.984375 316.582031 68.191406 C 316.625 68.003906 316.355469 68.507812 316.226562 68.65625 C 315.933594 69 315.609375 69.324219 315.320312 69.660156 C 314.433594 70.664062 313.386719 71.636719 312.644531 72.75 C 312.578125 72.839844 313.882812 74.363281 313.992188 74.601562 C 314.984375 76.71875 313.269531 78.871094 311.015625 78.992188 C 307.691406 79.171875 305.8125 76.363281 305.4375 73.484375 C 305.308594 72.492188 305.328125 71.484375 305.144531 70.5 C 305.089844 70.183594 304.929688 69.648438 304.507812 69.660156 C 304.042969 69.675781 303.753906 70.316406 303.589844 70.664062 C 303.074219 71.8125 303.019531 73.09375 302.707031 74.296875 C 302.382812 75.511719 301.683594 76.5625 300.992188 77.613281 C 299.71875 79.570312 298.1875 82.007812 295.824219 82.832031 C 292.996094 83.808594 289.351562 82.074219 287.914062 79.625 C 286.878906 77.839844 286.578125 75.046875 286.890625 73.007812 Z M 274.085938 89.976562 Z M 261.0625 81.226562 C 261.160156 80.007812 261.851562 78.800781 262.710938 77.925781 C 263.132812 77.503906 263.664062 77.046875 264.320312 77.160156 C 265.605469 77.378906 266.886719 78.40625 267.730469 79.324219 C 267.902344 79.515625 268.484375 80.042969 268.398438 80.347656 C 268.300781 80.652344 267.835938 80.828125 267.578125 80.9375 C 266.769531 81.285156 265.875 81.492188 265.011719 81.613281 C 264.082031 81.742188 261.558594 81.789062 261.0625 81.226562 Z M 261.0625 81.226562 " fill-opacity="1" fill-rule="evenodd"/><path fill="#000000" d="M 239.1875 74.007812 C 239.117188 74.082031 239.089844 74.332031 239.058594 74.429688 C 238.949219 74.792969 238.847656 75.160156 238.746094 75.523438 C 238.402344 76.789062 238.042969 78.046875 237.695312 79.308594 C 237.585938 79.703125 237.472656 80.101562 237.363281 80.496094 C 237.328125 80.609375 237.210938 80.855469 237.25 80.976562 C 237.285156 81.089844 237.589844 81.210938 237.6875 81.273438 C 238.003906 81.476562 238.304688 81.71875 238.566406 81.984375 C 238.5625 81.953125 238.652344 82.128906 238.660156 82.144531 C 238.714844 82.28125 238.777344 82.410156 238.835938 82.542969 C 239.011719 82.941406 239.152344 83.355469 239.3125 83.757812 C 239.792969 84.976562 240.28125 86.191406 240.804688 87.390625 C 241.769531 89.605469 242.890625 91.769531 244.0625 93.886719 C 244.558594 94.777344 245.039062 95.671875 245.503906 96.578125 C 245.710938 96.988281 245.988281 97.402344 246.128906 97.839844 C 246.339844 98.507812 244.636719 99.445312 244.148438 99.933594 C 242.277344 101.816406 240.246094 103.539062 238.125 105.15625 C 229.8125 111.480469 218.492188 117.753906 207.660156 113.394531 C 207.773438 113.492188 207.394531 113.253906 207.269531 113.171875 C 207.007812 113 206.757812 112.8125 206.515625 112.613281 C 205.742188 111.988281 205.054688 111.308594 204.472656 110.515625 C 202.734375 108.160156 201.996094 105.394531 201.878906 102.542969 C 201.707031 98.46875 202.4375 94.515625 203.761719 90.652344 C 203.902344 90.238281 204.046875 89.824219 204.195312 89.410156 C 204.320312 89.058594 204.449219 88.707031 204.574219 88.355469 C 204.65625 88.117188 204.738281 87.882812 204.816406 87.644531 C 204.878906 87.457031 204.9375 87.265625 205 87.074219 C 205.046875 86.914062 205.097656 86.75 205.144531 86.589844 C 205.238281 86.257812 205.933594 84.390625 205 84.617188 C 205.066406 84.769531 204.761719 84.863281 204.671875 85.007812 C 204.363281 85.503906 204.089844 86.027344 203.835938 86.550781 C 202.839844 88.589844 201.988281 90.671875 201.28125 92.816406 C 199.203125 99.113281 197.140625 106.929688 200.210938 113.210938 C 200.304688 113.183594 200.277344 113.386719 200.3125 113.472656 C 200.390625 113.664062 200.476562 113.847656 200.558594 114.035156 C 200.8125 114.597656 201.113281 115.144531 201.4375 115.675781 C 202.359375 117.183594 203.738281 118.464844 205.164062 119.542969 C 209 122.445312 214.191406 122.429688 218.824219 121.863281 C 218.820312 121.84375 219.191406 121.761719 219.207031 121.757812 C 219.648438 121.648438 220.09375 121.542969 220.53125 121.421875 C 221.65625 121.105469 222.773438 120.742188 223.832031 120.261719 C 227.121094 118.773438 230.464844 117.234375 233.285156 115.03125 C 233.285156 115.035156 237.023438 112.25 238.082031 111.453125 C 241.296875 109.03125 244.535156 106.125 246.523438 102.65625 C 246.59375 102.53125 246.832031 102 246.878906 101.886719 C 247.21875 101.089844 247.5 100.265625 247.71875 99.429688 C 248.246094 97.402344 248.484375 95.109375 248.046875 93.035156 C 247.765625 91.710938 247.207031 90.488281 246.664062 89.246094 C 246.761719 89.285156 246.589844 89.058594 246.550781 88.964844 C 246.480469 88.796875 246.402344 88.632812 246.328125 88.46875 C 246.070312 87.90625 245.8125 87.339844 245.546875 86.777344 C 244.796875 85.183594 243.617188 83.601562 243.179688 81.886719 C 243.070312 81.453125 243.535156 81.757812 243.730469 81.871094 C 244.226562 82.152344 244.710938 82.476562 245.234375 82.707031 C 245.40625 82.78125 245.71875 82.898438 245.777344 82.640625 C 245.929688 81.972656 245.1875 81.03125 244.851562 80.523438 C 243.761719 78.882812 241.351562 76.246094 239.1875 74.007812 Z M 239.1875 74.007812 " fill-opacity="1" fill-rule="evenodd"/><path fill="#000000" d="M 218.683594 56.046875 C 218.695312 55.777344 219.203125 56.226562 219.472656 56.304688 C 220.140625 56.5 220.832031 56.671875 221.519531 56.8125 C 221.574219 56.820312 222.15625 56.96875 222.15625 56.871094 C 222.136719 56.304688 220.660156 55.351562 220.28125 55.015625 C 218.511719 53.421875 216.742188 51.832031 214.898438 50.320312 C 214.550781 50.042969 213.203125 48.65625 212.675781 48.839844 C 212.308594 48.964844 212.09375 49.558594 211.941406 49.863281 C 211.5 50.789062 211.089844 51.726562 210.667969 52.664062 C 210.550781 52.925781 210.148438 53.53125 210.289062 53.839844 C 210.441406 54.160156 210.894531 54.074219 211.164062 54.230469 C 211.53125 54.445312 211.777344 54.957031 211.996094 55.292969 C 214.269531 58.707031 216.988281 61.742188 219.578125 64.929688 C 219.570312 64.933594 219.804688 65.164062 219.828125 65.1875 C 219.816406 65.179688 218.996094 66.144531 218.941406 66.210938 C 217.863281 67.460938 216.894531 68.796875 215.964844 70.140625 C 213.355469 73.878906 212.5 79.09375 213.710938 83.453125 C 214.390625 85.917969 216.386719 88.386719 219.234375 88.183594 C 221.425781 88.027344 223.550781 86.351562 225.082031 84.957031 C 228.824219 81.554688 233.25 76.46875 231.132812 71.140625 C 230.304688 69.070312 228.933594 67.203125 227.445312 65.542969 C 226.992188 65.046875 225.664062 64.136719 225.847656 63.382812 C 226.171875 62.105469 227.433594 60.886719 228.199219 59.863281 C 230.183594 57.230469 233.023438 54.207031 233.886719 50.960938 C 234.1875 49.796875 234.566406 47.402344 233.84375 46.296875 C 233.734375 46.140625 233.390625 46.613281 233.347656 46.675781 C 232.882812 47.238281 232.527344 47.890625 232.136719 48.5 C 231.167969 50.019531 230.164062 51.519531 229.117188 52.996094 C 228.285156 54.179688 227.421875 55.339844 226.570312 56.511719 C 225.738281 57.648438 224.910156 58.785156 224.066406 59.90625 C 223.90625 60.117188 223.507812 60.855469 223.171875 60.871094 C 222.339844 60.90625 219.210938 56.59375 218.683594 56.046875 Z M 222.253906 67.867188 C 222.394531 67.714844 221.425781 68.683594 221.304688 68.84375 C 221.089844 69.140625 220.863281 69.4375 220.648438 69.734375 C 220 70.601562 219.386719 71.488281 218.78125 72.378906 C 217.085938 74.875 214.183594 80.40625 218.683594 81.855469 C 221.640625 82.804688 224.511719 79.71875 226.203125 77.789062 C 226.90625 77 227.929688 75.949219 227.929688 74.832031 C 227.941406 74.191406 227.507812 73.558594 227.164062 73.042969 C 226.171875 71.566406 223.65625 68.976562 222.253906 67.867188 Z M 222.253906 67.867188 " fill-opacity="1" fill-rule="evenodd"/><path fill="#000000" d="M 249.203125 34.644531 C 249.226562 34.679688 249.132812 34.816406 249.113281 34.851562 C 249 35.070312 248.878906 35.289062 248.75 35.503906 C 248.71875 35.554688 248.636719 35.71875 248.542969 35.710938 C 248.40625 35.703125 248.179688 35.503906 248.078125 35.4375 C 247.699219 35.183594 247.308594 34.941406 246.9375 34.679688 C 246.527344 34.386719 246.113281 34.097656 245.6875 33.820312 C 245.4375 33.660156 245.105469 33.515625 244.925781 33.296875 C 244.734375 33.0625 244.742188 32.726562 244.714844 32.457031 C 244.652344 31.800781 244.640625 31.125 244.855469 30.484375 C 245.058594 29.890625 245.433594 29.101562 246.277344 28.984375 C 247.160156 28.855469 248.085938 29.488281 248.765625 29.863281 C 250.140625 30.625 251.011719 31.671875 251.78125 32.859375 C 252.46875 33.917969 253.015625 35.019531 253.359375 36.1875 C 253.570312 36.898438 253.695312 37.636719 253.949219 38.335938 C 254.058594 38.632812 254.195312 39.011719 254.539062 39.191406 C 254.535156 39.238281 254.566406 39.097656 254.574219 39.050781 C 254.59375 38.960938 254.609375 38.867188 254.625 38.773438 C 254.671875 38.503906 254.710938 38.234375 254.75 37.960938 C 254.871094 37.125 255.023438 36.296875 255.25 35.472656 C 255.84375 33.289062 256.699219 30.945312 258.226562 29.070312 C 258.910156 28.234375 259.960938 27.3125 261.328125 27.746094 C 262.273438 28.050781 262.925781 28.9375 263.371094 29.640625 C 263.515625 29.871094 263.773438 30.222656 263.761719 30.492188 C 263.734375 31.027344 263.265625 31.632812 263.019531 32.113281 C 262.847656 32.449219 262.6875 32.792969 262.480469 33.117188 C 262.414062 33.226562 262.324219 33.414062 262.175781 33.472656 C 261.90625 33.585938 261.578125 32.921875 261.5 32.808594 C 261.101562 32.199219 260.5 31.238281 259.503906 31.285156 C 258.457031 31.335938 257.996094 32.421875 257.675781 33.078125 C 256.71875 35.039062 256.191406 37.054688 255.652344 39.109375 C 255.636719 39.109375 255.558594 39.410156 255.550781 39.433594 C 255.414062 39.800781 255.28125 40.167969 255.160156 40.542969 C 254.804688 41.632812 254.574219 42.78125 254.058594 43.832031 C 253.980469 43.992188 253.640625 44.785156 253.261719 44.59375 C 253.074219 44.5 253.042969 44.210938 253.011719 44.054688 C 252.925781 43.59375 252.824219 43.132812 252.707031 42.675781 C 252.566406 42.136719 252.425781 41.601562 252.300781 41.066406 C 252.105469 40.25 251.886719 39.429688 251.574219 38.636719 C 251.152344 37.566406 250.140625 35.140625 249.203125 34.644531 Z M 249.203125 34.644531 " fill-opacity="1" fill-rule="evenodd"/><path fill="#000000" d="M 105.410156 34.203125 C 105.429688 34.238281 105.335938 34.378906 105.320312 34.410156 C 105.207031 34.628906 105.085938 34.847656 104.953125 35.0625 C 104.921875 35.113281 104.84375 35.277344 104.75 35.273438 C 104.609375 35.261719 104.386719 35.0625 104.285156 34.996094 C 103.90625 34.742188 103.515625 34.5 103.144531 34.238281 C 102.730469 33.945312 102.320312 33.65625 101.890625 33.378906 C 101.644531 33.21875 101.3125 33.074219 101.132812 32.855469 C 100.9375 32.621094 100.945312 32.289062 100.921875 32.015625 C 100.859375 31.359375 100.84375 30.683594 101.0625 30.042969 C 101.261719 29.453125 101.640625 28.664062 102.484375 28.542969 C 103.367188 28.417969 104.289062 29.046875 104.972656 29.425781 C 106.347656 30.183594 107.21875 31.230469 107.988281 32.417969 C 108.675781 33.476562 109.222656 34.578125 109.566406 35.746094 C 109.777344 36.457031 109.902344 37.195312 110.15625 37.894531 C 110.261719 38.195312 110.402344 38.574219 110.746094 38.75 C 110.742188 38.796875 110.773438 38.660156 110.78125 38.609375 C 110.800781 38.519531 110.816406 38.425781 110.832031 38.332031 C 110.878906 38.0625 110.917969 37.792969 110.957031 37.523438 C 111.078125 36.6875 111.230469 35.855469 111.453125 35.035156 C 112.046875 32.847656 112.90625 30.507812 114.433594 28.628906 C 115.117188 27.792969 116.167969 26.871094 117.535156 27.308594 C 118.480469 27.609375 119.132812 28.496094 119.578125 29.199219 C 119.722656 29.429688 119.980469 29.78125 119.96875 30.050781 C 119.941406 30.585938 119.46875 31.195312 119.226562 31.675781 C 119.054688 32.011719 118.890625 32.351562 118.6875 32.675781 C 118.617188 32.789062 118.527344 32.972656 118.382812 33.035156 C 118.113281 33.144531 117.785156 32.480469 117.707031 32.367188 C 117.308594 31.757812 116.707031 30.796875 115.707031 30.84375 C 114.664062 30.894531 114.199219 31.984375 113.878906 32.640625 C 112.925781 34.601562 112.398438 36.617188 111.859375 38.667969 C 111.84375 38.667969 111.761719 38.96875 111.753906 38.992188 C 111.621094 39.359375 111.488281 39.730469 111.367188 40.101562 C 111.011719 41.191406 110.78125 42.34375 110.265625 43.390625 C 110.1875 43.550781 109.847656 44.34375 109.46875 44.15625 C 109.28125 44.058594 109.246094 43.769531 109.21875 43.617188 C 109.132812 43.152344 109.03125 42.691406 108.910156 42.234375 C 108.773438 41.695312 108.632812 41.164062 108.503906 40.625 C 108.308594 39.808594 108.09375 38.988281 107.78125 38.195312 C 107.359375 37.128906 106.347656 34.699219 105.410156 34.203125 Z M 105.410156 34.203125 " fill-opacity="1" fill-rule="evenodd"/><path fill="#000000" d="M 140.441406 74.742188 C 140.460938 74.773438 140.378906 74.890625 140.367188 74.921875 C 140.265625 75.109375 140.160156 75.296875 140.050781 75.480469 C 140.023438 75.523438 139.957031 75.667969 139.875 75.660156 C 139.753906 75.652344 139.5625 75.480469 139.476562 75.425781 C 139.148438 75.207031 138.816406 74.996094 138.496094 74.773438 C 138.140625 74.523438 137.785156 74.273438 137.417969 74.035156 C 137.207031 73.898438 136.921875 73.773438 136.765625 73.585938 C 136.601562 73.382812 136.605469 73.097656 136.585938 72.863281 C 136.53125 72.300781 136.519531 71.71875 136.707031 71.171875 C 136.878906 70.660156 137.203125 69.984375 137.925781 69.878906 C 138.6875 69.773438 139.480469 70.3125 140.066406 70.636719 C 141.25 71.289062 141.996094 72.191406 142.65625 73.210938 C 143.25 74.121094 143.71875 75.0625 144.015625 76.070312 C 144.195312 76.679688 144.300781 77.3125 144.519531 77.914062 C 144.613281 78.171875 144.730469 78.496094 145.027344 78.648438 C 145.023438 78.6875 145.050781 78.570312 145.058594 78.527344 C 145.074219 78.449219 145.085938 78.371094 145.101562 78.289062 C 145.140625 78.058594 145.171875 77.824219 145.207031 77.59375 C 145.3125 76.875 145.445312 76.164062 145.636719 75.457031 C 146.144531 73.578125 146.882812 71.566406 148.195312 69.957031 C 148.78125 69.234375 149.6875 68.445312 150.859375 68.820312 C 151.671875 69.078125 152.234375 69.839844 152.617188 70.445312 C 152.742188 70.644531 152.960938 70.945312 152.953125 71.175781 C 152.929688 71.636719 152.523438 72.15625 152.3125 72.570312 C 152.164062 72.859375 152.027344 73.152344 151.851562 73.433594 C 151.792969 73.527344 151.714844 73.683594 151.589844 73.738281 C 151.359375 73.832031 151.074219 73.261719 151.007812 73.164062 C 150.667969 72.640625 150.148438 71.816406 149.292969 71.859375 C 148.390625 71.898438 147.996094 72.835938 147.722656 73.398438 C 146.898438 75.082031 146.449219 76.816406 145.984375 78.578125 C 145.96875 78.578125 145.902344 78.835938 145.894531 78.855469 C 145.777344 79.171875 145.664062 79.488281 145.558594 79.808594 C 145.253906 80.746094 145.058594 81.734375 144.613281 82.636719 C 144.546875 82.773438 144.253906 83.453125 143.929688 83.289062 C 143.765625 83.207031 143.738281 82.960938 143.714844 82.828125 C 143.640625 82.429688 143.554688 82.035156 143.449219 81.640625 C 143.332031 81.179688 143.210938 80.71875 143.101562 80.257812 C 142.933594 79.558594 142.746094 78.855469 142.480469 78.171875 C 142.117188 77.253906 141.25 75.167969 140.441406 74.742188 Z M 140.441406 74.742188 " fill-opacity="1" fill-rule="evenodd"/><path fill="#000000" d="M 249.203125 61.753906 C 249.226562 61.789062 249.132812 61.929688 249.113281 61.960938 C 249 62.179688 248.878906 62.398438 248.75 62.613281 C 248.71875 62.664062 248.636719 62.832031 248.542969 62.824219 C 248.40625 62.816406 248.179688 62.613281 248.078125 62.546875 C 247.699219 62.292969 247.308594 62.050781 246.9375 61.789062 C 246.527344 61.5 246.113281 61.207031 245.6875 60.929688 C 245.4375 60.769531 245.105469 60.625 244.925781 60.40625 C 244.734375 60.171875 244.742188 59.839844 244.714844 59.570312 C 244.652344 58.914062 244.640625 58.234375 244.855469 57.597656 C 245.058594 57.003906 245.433594 56.214844 246.277344 56.09375 C 247.160156 55.96875 248.085938 56.597656 248.765625 56.976562 C 250.140625 57.734375 251.011719 58.785156 251.78125 59.96875 C 252.46875 61.027344 253.015625 62.128906 253.359375 63.300781 C 253.570312 64.007812 253.695312 64.746094 253.949219 65.449219 C 254.058594 65.746094 254.195312 66.125 254.539062 66.300781 C 254.535156 66.347656 254.566406 66.210938 254.574219 66.164062 C 254.59375 66.070312 254.609375 65.976562 254.625 65.882812 C 254.671875 65.613281 254.710938 65.34375 254.75 65.074219 C 254.871094 64.238281 255.023438 63.40625 255.25 62.585938 C 255.84375 60.398438 256.699219 58.058594 258.226562 56.183594 C 258.910156 55.34375 259.960938 54.425781 261.328125 54.859375 C 262.273438 55.160156 262.925781 56.046875 263.371094 56.75 C 263.515625 56.984375 263.773438 57.332031 263.761719 57.601562 C 263.734375 58.136719 263.265625 58.746094 263.019531 59.226562 C 262.847656 59.5625 262.6875 59.90625 262.480469 60.230469 C 262.414062 60.339844 262.324219 60.523438 262.175781 60.585938 C 261.90625 60.695312 261.578125 60.03125 261.5 59.917969 C 261.101562 59.308594 260.5 58.347656 259.503906 58.394531 C 258.457031 58.445312 257.996094 59.535156 257.675781 60.191406 C 256.71875 62.152344 256.191406 64.167969 255.652344 66.21875 C 255.636719 66.222656 255.558594 66.519531 255.550781 66.542969 C 255.414062 66.910156 255.28125 67.28125 255.160156 67.652344 C 254.804688 68.742188 254.574219 69.894531 254.058594 70.945312 C 253.980469 71.105469 253.640625 71.894531 253.261719 71.707031 C 253.074219 71.613281 253.042969 71.324219 253.011719 71.167969 C 252.925781 70.703125 252.824219 70.242188 252.707031 69.785156 C 252.566406 69.25 252.425781 68.714844 252.300781 68.179688 C 252.105469 67.359375 251.886719 66.542969 251.574219 65.746094 C 251.152344 64.679688 250.140625 62.25 249.203125 61.753906 Z M 249.203125 61.753906 " fill-opacity="1" fill-rule="evenodd"/><path fill="#000000" d="M 308.773438 90.464844 C 308.699219 90.371094 308.570312 90.703125 308.542969 90.773438 C 308.488281 90.921875 308.425781 91.074219 308.371094 91.226562 C 308.191406 91.703125 308 92.175781 307.816406 92.652344 C 307.695312 92.960938 308.039062 93.347656 308.128906 93.621094 C 308.414062 94.460938 307.902344 95.019531 307.210938 95.003906 C 307.011719 95 306.824219 94.945312 306.640625 94.871094 C 305.867188 94.554688 305.09375 93.78125 305.167969 92.738281 C 305.210938 92.199219 305.414062 91.742188 305.527344 91.230469 C 305.566406 91.0625 305.578125 90.792969 305.390625 90.742188 C 304.925781 90.613281 304.507812 91.695312 304.347656 92.035156 C 303.699219 93.394531 303.152344 95.042969 301.882812 95.777344 C 300.703125 96.457031 299.582031 95.535156 298.4375 95.183594 C 297.207031 94.8125 295.976562 94.984375 294.800781 95.519531 C 294.800781 95.636719 294.613281 95.609375 294.519531 95.660156 C 294.222656 95.839844 293.9375 96.035156 293.648438 96.234375 C 292.386719 97.109375 291.175781 98.105469 290.003906 99.136719 C 284.921875 103.609375 279.617188 107.664062 274.070312 111.3125 C 272.386719 112.421875 270.710938 113.566406 268.992188 114.597656 C 268.292969 115.015625 267.574219 115.402344 266.882812 115.839844 C 266.804688 115.886719 266.242188 116.195312 266.402344 116.382812 C 266.589844 116.59375 267.109375 116.472656 267.332031 116.449219 C 268.183594 116.351562 269.042969 116.105469 269.871094 115.875 C 271.914062 115.308594 274.085938 114.691406 275.960938 113.558594 C 277.15625 112.839844 278.261719 111.867188 279.347656 110.945312 C 282.644531 108.140625 285.917969 105.296875 289.230469 102.515625 C 291.171875 100.882812 293.289062 98.898438 295.597656 98.003906 C 297.648438 97.210938 299.292969 99.742188 301.347656 98.871094 C 302.242188 98.492188 302.894531 97.519531 303.332031 96.574219 C 303.40625 96.414062 303.832031 95.121094 303.988281 95.074219 C 304.015625 95.070312 304.089844 95.640625 304.097656 95.675781 C 304.15625 96.101562 304.226562 96.5625 304.449219 96.910156 C 305.019531 97.785156 306.054688 97.941406 306.921875 97.738281 C 309.609375 97.117188 309.617188 94.074219 309.175781 91.546875 C 309.117188 91.210938 308.875 90.589844 308.773438 90.464844 Z M 308.773438 90.464844 " fill-opacity="1" fill-rule="evenodd"/><path fill="#000000" d="M 236.542969 55.519531 C 236.558594 55.53125 237.925781 54.828125 238.011719 54.785156 C 239.761719 53.972656 241.53125 53.191406 243.308594 52.417969 C 250.601562 49.253906 257.964844 46.148438 265.421875 43.226562 C 267.519531 42.40625 269.636719 41.601562 271.785156 40.863281 C 271.917969 40.820312 273.617188 40.148438 273.707031 40.316406 C 273.894531 40.652344 273.113281 41.769531 272.960938 42.078125 C 272.640625 42.75 272.429688 43.757812 271.832031 44.320312 C 271.433594 44.699219 270.664062 44.863281 270.117188 45.0625 C 268.785156 45.542969 267.453125 46.019531 266.136719 46.519531 C 262.070312 48.074219 258.132812 49.835938 254.144531 51.507812 C 250.28125 53.125 246.332031 54.613281 242.503906 56.285156 C 240.59375 57.121094 238.683594 57.953125 236.777344 58.792969 C 236.472656 58.929688 235.199219 59.699219 234.808594 59.539062 C 234.566406 59.441406 234.84375 58.925781 234.894531 58.800781 C 235.167969 58.109375 236.222656 56.195312 236.542969 55.519531 Z M 236.542969 55.519531 " fill-opacity="1" fill-rule="evenodd"/><path fill="#000000" d="M 276.101562 45.542969 C 276.535156 45.105469 276.855469 44.324219 277.195312 43.8125 C 278.195312 42.320312 279.183594 40.824219 280.207031 39.34375 C 280.78125 38.515625 281.316406 37.53125 282.136719 36.890625 C 283.304688 35.980469 285.050781 36.105469 286.460938 36.195312 C 289.714844 36.40625 293.46875 37.398438 296.558594 37.894531 C 296.609375 37.855469 296.890625 37.984375 296.949219 38.003906 C 297.308594 38.121094 297.664062 38.25 298.015625 38.382812 C 299.207031 38.828125 301.546875 39.457031 301.128906 41.058594 C 300.863281 42.078125 300.144531 42.988281 299.496094 43.816406 C 298.484375 45.101562 297.394531 46.347656 296.257812 47.539062 C 294.753906 49.113281 293.164062 50.601562 291.511719 52.039062 C 290.421875 52.988281 289.296875 54.039062 287.886719 54.554688 C 285.53125 55.414062 282.746094 55.316406 280.261719 55.464844 C 279.085938 55.53125 277.910156 55.585938 276.730469 55.628906 C 276.109375 55.652344 275.332031 55.738281 274.726562 55.5625 C 274.128906 55.386719 275.550781 54.617188 275.652344 54.5625 C 276.929688 53.871094 278.320312 53.339844 279.699219 52.859375 C 282.882812 51.75 286.144531 50.714844 289.171875 49.25 C 289.894531 48.898438 290.613281 48.546875 291.320312 48.167969 C 291.5 48.070312 291.914062 47.914062 291.980469 47.703125 C 292.0625 47.441406 291.460938 47.183594 291.289062 47.109375 C 290.457031 46.742188 289.492188 46.5625 288.605469 46.355469 C 284.914062 45.496094 279.875 45.003906 276.101562 45.542969 Z M 276.101562 45.542969 " fill-opacity="1" fill-rule="evenodd"/><path fill="#000000" d="M 63.09375 45.101562 C 63.527344 44.667969 63.84375 43.886719 64.1875 43.375 C 65.183594 41.882812 66.175781 40.382812 67.199219 38.90625 C 67.773438 38.078125 68.304688 37.09375 69.128906 36.453125 C 70.292969 35.542969 72.042969 35.664062 73.453125 35.757812 C 76.703125 35.964844 80.457031 36.960938 83.546875 37.457031 C 83.601562 37.417969 83.878906 37.542969 83.9375 37.5625 C 84.296875 37.679688 84.652344 37.808594 85.007812 37.941406 C 86.199219 38.390625 88.535156 39.019531 88.117188 40.621094 C 87.851562 41.640625 87.136719 42.550781 86.484375 43.375 C 85.472656 44.664062 84.382812 45.910156 83.246094 47.097656 C 81.742188 48.675781 80.15625 50.160156 78.503906 51.601562 C 77.414062 52.550781 76.285156 53.601562 74.878906 54.117188 C 72.523438 54.976562 69.734375 54.878906 67.253906 55.023438 C 66.074219 55.09375 64.898438 55.144531 63.71875 55.191406 C 63.097656 55.214844 62.320312 55.296875 61.714844 55.121094 C 61.121094 54.949219 62.539062 54.175781 62.640625 54.121094 C 63.921875 53.433594 65.308594 52.902344 66.6875 52.421875 C 69.875 51.3125 73.136719 50.277344 76.160156 48.808594 C 76.882812 48.460938 77.605469 48.109375 78.308594 47.726562 C 78.492188 47.628906 78.902344 47.472656 78.96875 47.261719 C 79.050781 47.003906 78.453125 46.746094 78.277344 46.667969 C 77.445312 46.300781 76.480469 46.121094 75.59375 45.914062 C 71.902344 45.054688 66.867188 44.566406 63.09375 45.101562 Z M 63.09375 45.101562 " fill-opacity="1" fill-rule="evenodd"/><path fill="#000000" d="M 210.785156 33.746094 L 215.199219 27.921875 L 222.332031 33.109375 L 217.625 38.597656 C 217.625 38.597656 211.066406 33.472656 210.785156 33.746094 Z M 210.785156 33.746094 " fill-opacity="1" fill-rule="evenodd"/><path fill="#000000" d="M 221.195312 32.464844 L 225.609375 26.640625 L 232.742188 31.828125 L 228.035156 37.316406 C 228.035156 37.316406 221.476562 32.191406 221.195312 32.464844 Z M 221.195312 32.464844 " fill-opacity="1" fill-rule="evenodd"/><path fill="#000000" d="M 119.972656 69.207031 L 124.386719 63.382812 L 131.515625 68.570312 L 126.8125 74.058594 C 126.8125 74.058594 120.253906 68.933594 119.972656 69.207031 Z M 119.972656 69.207031 " fill-opacity="1" fill-rule="evenodd"/><path fill="#000000" d="M 74.871094 66.96875 L 79.285156 61.144531 L 86.414062 66.332031 L 81.710938 71.820312 C 81.710938 71.820312 75.152344 66.699219 74.871094 66.96875 Z M 74.871094 66.96875 " fill-opacity="1" fill-rule="evenodd"/><path fill="#000000" d="M 218.410156 90.496094 C 218.15625 90.332031 217.925781 90.671875 217.882812 90.71875 C 217.617188 91.023438 217.429688 91.375 217.246094 91.71875 C 216.664062 92.8125 216.140625 93.933594 215.550781 95.023438 C 214.046875 97.816406 212.140625 101.175781 212.328125 104.363281 C 212.410156 105.746094 212.929688 107.503906 214.730469 107.792969 C 216.96875 108.144531 218.265625 105.21875 218.847656 103.824219 C 219.042969 103.351562 219.519531 102.402344 219.207031 101.886719 C 218.9375 101.445312 218.265625 102.367188 218.160156 102.507812 C 217.53125 103.371094 216.527344 105.0625 215.359375 103.675781 C 214.417969 102.5625 214.558594 101.03125 214.851562 99.738281 C 215.285156 97.832031 216.316406 96.09375 217.238281 94.351562 C 217.8125 93.253906 219.269531 91.050781 218.410156 90.496094 Z M 218.410156 90.496094 " fill-opacity="1" fill-rule="evenodd"/><path fill="#000000" d="M 177.582031 63.207031 C 177.257812 62.964844 176.957031 63.464844 176.90625 63.539062 C 176.5625 63.988281 176.320312 64.507812 176.082031 65.019531 C 175.335938 66.644531 174.660156 68.300781 173.902344 69.921875 C 171.964844 74.0625 169.511719 79.042969 169.753906 83.769531 C 169.859375 85.824219 170.527344 88.433594 172.847656 88.855469 C 175.730469 89.378906 177.398438 85.042969 178.144531 82.972656 C 178.398438 82.269531 179.011719 80.859375 178.609375 80.097656 C 178.265625 79.445312 177.398438 80.8125 177.265625 81.023438 C 176.449219 82.300781 175.160156 84.8125 173.65625 82.753906 C 172.445312 81.097656 172.625 78.828125 173.003906 76.914062 C 173.5625 74.085938 174.890625 71.511719 176.074219 68.921875 C 176.816406 67.292969 178.691406 64.03125 177.582031 63.207031 Z M 177.582031 63.207031 " fill-opacity="1" fill-rule="evenodd"/><path fill="#000000" d="M 87.574219 122.101562 C 87.902344 122.34375 88.199219 121.84375 88.253906 121.769531 C 88.597656 121.320312 88.835938 120.800781 89.074219 120.289062 C 89.824219 118.664062 90.496094 117.007812 91.253906 115.386719 C 93.191406 111.246094 95.644531 106.265625 95.402344 101.539062 C 95.296875 99.484375 94.628906 96.875 92.308594 96.453125 C 89.429688 95.929688 87.757812 100.265625 87.011719 102.335938 C 86.757812 103.039062 86.148438 104.449219 86.550781 105.210938 C 86.890625 105.863281 87.761719 104.496094 87.894531 104.285156 C 88.707031 103.007812 89.996094 100.496094 91.503906 102.554688 C 92.714844 104.210938 92.53125 106.480469 92.152344 108.394531 C 91.597656 111.222656 90.265625 113.800781 89.085938 116.386719 C 88.339844 118.015625 86.464844 121.277344 87.574219 122.101562 Z M 87.574219 122.101562 " fill-opacity="1" fill-rule="evenodd"/><path fill="#000000" d="M 287.902344 66.722656 C 287.769531 66.671875 288.269531 66.347656 288.3125 66.328125 C 288.507812 66.226562 288.703125 66.117188 288.890625 66 C 289.449219 65.660156 290.007812 65.320312 290.554688 64.964844 C 292.265625 63.855469 293.964844 62.730469 295.667969 61.613281 C 299.496094 59.089844 310.183594 51.0625 310.433594 50.585938 C 310.25 50.449219 309.941406 50.355469 309.734375 50.230469 C 308.660156 49.582031 307.035156 48.621094 307.152344 47.328125 C 307.3125 45.566406 308.988281 43.585938 310.867188 42.980469 C 311.707031 42.707031 312.808594 42.582031 313.535156 43.148438 C 313.992188 43.507812 314.121094 44.089844 314.171875 44.601562 C 314.285156 45.738281 313.949219 46.820312 313.457031 47.867188 C 313.316406 48.164062 313.148438 48.457031 312.96875 48.742188 C 312.914062 48.824219 312.742188 48.996094 312.746094 49.097656 C 312.75 49.226562 313.171875 49.449219 313.269531 49.523438 C 313.648438 49.816406 314.175781 50.234375 314.324219 50.675781 C 314.511719 51.242188 313.867188 52.050781 313.558594 52.503906 C 313.480469 52.621094 313.257812 53.03125 313.054688 52.996094 C 312.816406 52.957031 312.609375 52.675781 312.457031 52.535156 C 312.050781 52.164062 311.601562 51.832031 311.195312 51.457031 C 311.136719 51.402344 311.078125 51.574219 311.023438 51.632812 C 310.902344 51.753906 310.78125 51.875 310.664062 51.996094 C 310.324219 52.351562 309.972656 52.699219 309.621094 53.042969 C 308.570312 54.074219 307.503906 55.09375 306.40625 56.085938 C 302.421875 59.683594 297.675781 62.773438 292.613281 65.101562 C 291.457031 65.632812 290.316406 66.238281 289.089844 66.636719 C 288.875 66.710938 288.03125 66.777344 287.902344 66.722656 Z M 311.847656 48.351562 C 311.84375 48.347656 311.890625 48.179688 311.894531 48.171875 C 311.933594 48.058594 311.96875 47.949219 311.996094 47.835938 C 312.078125 47.492188 312.132812 47.144531 312.109375 46.792969 C 312.09375 46.597656 312.078125 46.402344 312.042969 46.207031 C 311.917969 45.472656 311.261719 44.429688 310.25 44.644531 C 310.019531 44.695312 309.808594 44.800781 309.617188 44.925781 C 309.480469 45.019531 309.355469 45.128906 309.242188 45.242188 C 309.097656 45.390625 308.921875 45.578125 308.910156 45.78125 C 308.902344 45.933594 309.023438 46.058594 309.125 46.167969 C 309.339844 46.398438 309.589844 46.59375 309.820312 46.808594 C 310.316406 47.261719 311.304688 47.9375 311.847656 48.351562 Z M 311.847656 48.351562 " fill-opacity="1" fill-rule="evenodd"/><path fill="#000000" d="M 131.535156 45.4375 C 131.40625 45.386719 131.902344 45.0625 131.945312 45.039062 C 132.144531 44.9375 132.335938 44.828125 132.523438 44.714844 C 133.082031 44.371094 133.640625 44.035156 134.1875 43.679688 C 135.898438 42.570312 137.597656 41.445312 139.300781 40.324219 C 143.132812 37.804688 153.816406 29.773438 154.066406 29.300781 C 153.882812 29.160156 153.578125 29.066406 153.371094 28.941406 C 152.292969 28.292969 150.671875 27.335938 150.789062 26.042969 C 150.949219 24.277344 152.621094 22.300781 154.5 21.691406 C 155.339844 21.421875 156.445312 21.296875 157.167969 21.863281 C 157.628906 22.222656 157.753906 22.800781 157.804688 23.316406 C 157.917969 24.453125 157.582031 25.535156 157.089844 26.578125 C 156.949219 26.878906 156.78125 27.167969 156.601562 27.453125 C 156.546875 27.539062 156.375 27.710938 156.378906 27.8125 C 156.382812 27.941406 156.804688 28.160156 156.902344 28.238281 C 157.28125 28.53125 157.808594 28.949219 157.957031 29.390625 C 158.148438 29.957031 157.5 30.765625 157.191406 31.21875 C 157.113281 31.332031 156.894531 31.746094 156.6875 31.710938 C 156.453125 31.671875 156.246094 31.390625 156.089844 31.25 C 155.683594 30.875 155.234375 30.542969 154.832031 30.171875 C 154.769531 30.117188 154.714844 30.289062 154.65625 30.347656 C 154.535156 30.46875 154.414062 30.585938 154.296875 30.710938 C 153.957031 31.066406 153.605469 31.410156 153.253906 31.757812 C 152.207031 32.789062 151.136719 33.808594 150.039062 34.800781 C 146.054688 38.398438 141.308594 41.488281 136.246094 43.816406 C 135.09375 44.34375 133.949219 44.953125 132.726562 45.351562 C 132.511719 45.421875 131.664062 45.488281 131.535156 45.4375 Z M 155.480469 27.066406 C 155.480469 27.058594 155.527344 26.894531 155.527344 26.886719 C 155.566406 26.773438 155.601562 26.664062 155.628906 26.546875 C 155.710938 26.207031 155.765625 25.855469 155.742188 25.507812 C 155.726562 25.3125 155.710938 25.117188 155.675781 24.921875 C 155.550781 24.183594 154.894531 23.144531 153.886719 23.359375 C 153.652344 23.40625 153.441406 23.515625 153.25 23.640625 C 153.113281 23.734375 152.988281 23.84375 152.875 23.957031 C 152.730469 24.105469 152.554688 24.289062 152.542969 24.496094 C 152.535156 24.644531 152.65625 24.769531 152.757812 24.878906 C 152.972656 25.109375 153.222656 25.304688 153.457031 25.519531 C 153.949219 25.976562 154.9375 26.652344 155.480469 27.066406 Z M 155.480469 27.066406 " fill-opacity="1" fill-rule="evenodd"/><path fill="#000000" d="M 107.179688 44.1875 C 107.082031 44.273438 107.039062 44.554688 106.996094 44.664062 C 106.84375 45.074219 106.699219 45.484375 106.554688 45.898438 C 106.074219 47.320312 105.566406 48.742188 105.078125 50.164062 C 104.921875 50.613281 104.765625 51.058594 104.605469 51.503906 C 104.5625 51.632812 104.394531 51.910156 104.445312 52.046875 C 104.5 52.175781 104.929688 52.3125 105.0625 52.378906 C 105.507812 52.609375 105.933594 52.882812 106.300781 53.183594 C 106.296875 53.148438 106.421875 53.34375 106.433594 53.367188 C 106.511719 53.515625 106.601562 53.664062 106.683594 53.816406 C 106.929688 54.265625 107.128906 54.730469 107.355469 55.183594 C 108.03125 56.558594 108.714844 57.925781 109.453125 59.28125 C 110.808594 61.777344 112.390625 64.21875 114.042969 66.605469 C 114.738281 67.613281 115.414062 68.617188 116.070312 69.640625 C 116.363281 70.101562 116.753906 70.570312 116.949219 71.066406 C 117.25 71.816406 114.851562 72.875 114.164062 73.425781 C 111.527344 75.546875 108.667969 77.492188 105.679688 79.3125 C 93.976562 86.449219 78.042969 93.523438 62.796875 88.605469 C 62.953125 88.714844 62.421875 88.445312 62.246094 88.351562 C 61.875 88.160156 61.523438 87.949219 61.183594 87.726562 C 60.097656 87.019531 59.128906 86.253906 58.304688 85.359375 C 55.859375 82.703125 54.824219 79.582031 54.652344 76.367188 C 54.414062 71.773438 55.445312 67.3125 57.308594 62.957031 C 57.507812 62.492188 57.707031 62.023438 57.914062 61.558594 C 58.09375 61.160156 58.277344 60.765625 58.449219 60.367188 C 58.566406 60.101562 58.679688 59.835938 58.789062 59.566406 C 58.878906 59.351562 58.964844 59.136719 59.046875 58.921875 C 59.117188 58.742188 59.1875 58.558594 59.253906 58.378906 C 59.386719 58.003906 60.363281 55.894531 59.050781 56.152344 C 59.140625 56.324219 58.714844 56.429688 58.589844 56.589844 C 58.152344 57.152344 57.769531 57.742188 57.410156 58.335938 C 56.011719 60.632812 54.8125 62.980469 53.816406 65.398438 C 50.890625 72.5 47.988281 81.3125 52.308594 88.398438 C 52.4375 88.371094 52.402344 88.597656 52.453125 88.695312 C 52.558594 88.90625 52.679688 89.117188 52.796875 89.328125 C 53.152344 89.964844 53.578125 90.578125 54.035156 91.175781 C 55.335938 92.878906 57.273438 94.324219 59.28125 95.539062 C 64.679688 98.8125 71.992188 98.796875 78.507812 98.15625 C 78.503906 98.132812 79.027344 98.039062 79.050781 98.035156 C 79.671875 97.914062 80.296875 97.796875 80.914062 97.65625 C 82.496094 97.300781 84.070312 96.890625 85.5625 96.347656 C 90.191406 94.671875 94.894531 92.933594 98.867188 90.449219 C 98.867188 90.457031 104.128906 87.316406 105.621094 86.414062 C 110.148438 83.683594 114.707031 80.40625 117.503906 76.492188 C 117.601562 76.355469 117.9375 75.753906 118.003906 75.628906 C 118.484375 74.730469 118.878906 73.800781 119.183594 72.859375 C 119.925781 70.570312 120.261719 67.984375 119.644531 65.648438 C 119.25 64.152344 118.464844 62.769531 117.703125 61.371094 C 117.839844 61.414062 117.597656 61.160156 117.542969 61.054688 C 117.445312 60.867188 117.335938 60.679688 117.230469 60.496094 C 116.863281 59.859375 116.503906 59.222656 116.128906 58.589844 C 115.074219 56.789062 113.414062 55.003906 112.796875 53.074219 C 112.644531 52.582031 113.296875 52.925781 113.574219 53.054688 C 114.269531 53.375 114.949219 53.738281 115.691406 53.996094 C 115.929688 54.082031 116.371094 54.214844 116.453125 53.921875 C 116.667969 53.171875 115.625 52.105469 115.148438 51.535156 C 113.617188 49.683594 110.222656 46.714844 107.179688 44.1875 Z M 107.179688 44.1875 " fill-opacity="1" fill-rule="evenodd"/><g clip-path="url(#88bcedf9ff)"><path fill="#000000" d="M 175.816406 35.050781 C 175.671875 35.175781 176.039062 34.738281 176.15625 34.589844 C 176.386719 34.304688 176.601562 34.011719 176.824219 33.71875 C 177.148438 33.292969 179.003906 30.4375 179.515625 30.90625 C 180.660156 31.960938 181.324219 34.628906 181.949219 36.011719 C 183.550781 39.550781 185.917969 43.183594 186.796875 47.007812 C 187.023438 48.007812 185.898438 47.335938 185.519531 47.101562 C 184.613281 46.527344 183.136719 44.585938 183.15625 46.539062 C 183.316406 64.308594 190.484375 81.261719 190.953125 99.046875 C 191.113281 105.09375 190.273438 111.023438 186.222656 115.769531 C 185.230469 116.929688 184.082031 117.925781 182.820312 118.785156 C 181.832031 119.457031 180.8125 119.941406 179.625 120.140625 C 171.078125 121.59375 167.769531 111.429688 167.449219 104.777344 C 166.070312 107.34375 164.710938 110.042969 162.828125 112.378906 C 158.664062 117.550781 152.816406 122.035156 147.375 125.769531 C 142.839844 128.878906 137.355469 131.804688 131.667969 131.269531 C 123.550781 130.503906 121.480469 120.707031 123.703125 114.164062 C 124.257812 112.527344 125.28125 110.078125 126.722656 108.96875 C 126.816406 108.894531 126.484375 110.9375 126.445312 111.160156 C 126.203125 112.539062 126.046875 113.9375 126.027344 115.339844 C 125.960938 119.449219 127.691406 123.875 132.230469 124.402344 C 135.511719 124.78125 138.761719 123.753906 141.710938 122.425781 C 147.96875 119.613281 153.261719 115.078125 158.269531 110.480469 C 160.941406 108.027344 163.859375 105.460938 165.855469 102.390625 C 167.0625 100.535156 165.421875 97.695312 164.960938 95.578125 C 163.722656 89.855469 161.367188 84.332031 158.292969 79.351562 C 157.472656 78.027344 156.625 76.703125 155.664062 75.472656 C 155.25 74.949219 154.453125 74.328125 154.183594 73.703125 C 154 73.285156 154.335938 72.378906 154.402344 71.960938 C 154.667969 70.339844 154.953125 68.71875 155.253906 67.105469 C 155.328125 66.714844 155.390625 65.167969 155.78125 64.933594 C 155.984375 64.808594 156.320312 65.171875 156.4375 65.285156 C 157.054688 65.875 157.59375 66.558594 158.125 67.222656 C 160.382812 70.066406 162.1875 73.1875 163.761719 76.453125 C 166.441406 82.011719 168.382812 87.9375 169.347656 94.039062 C 170.183594 99.320312 170.179688 105.539062 173.179688 110.199219 C 176.355469 115.140625 184.503906 114.382812 186.238281 108.492188 C 186.628906 107.15625 186.414062 105.492188 186.414062 104.121094 C 186.414062 100.628906 186.230469 97.128906 185.910156 93.648438 C 184.753906 81.101562 181.710938 68.878906 179.28125 56.546875 C 178.574219 52.953125 177.960938 49.308594 177.652344 45.65625 C 177.519531 44.105469 177.527344 42.542969 177.484375 40.984375 C 177.46875 40.382812 177.625 39.574219 177.433594 38.988281 C 177.085938 37.945312 176.355469 36.003906 175.816406 35.050781 Z M 175.816406 35.050781 " fill-opacity="1" fill-rule="evenodd"/></g><path fill="#000000" d="M 113.523438 105.796875 C 113.5 105.652344 113.574219 105.285156 113.554688 105.117188 C 113.492188 104.585938 113.378906 104.058594 113.25 103.539062 C 112.894531 102.082031 112.378906 100.671875 111.949219 99.238281 C 110.347656 93.882812 112.585938 88.386719 117.601562 85.726562 C 122.90625 82.910156 128.675781 84.972656 133.894531 86.898438 C 139.367188 88.917969 144.921875 90.820312 150.636719 92.039062 C 153.382812 92.628906 156.199219 93.058594 159.007812 93.1875 C 159.714844 93.21875 160.417969 93.21875 161.125 93.230469 C 161.234375 93.234375 161.738281 93.164062 161.8125 93.285156 C 161.949219 93.519531 161.570312 94.078125 161.480469 94.269531 C 160.996094 95.261719 160.503906 96.25 160.015625 97.246094 C 159.558594 98.1875 159.09375 99.128906 158.625 100.070312 C 158.472656 100.378906 158.296875 101.019531 158.015625 101.246094 C 157.839844 101.394531 157.101562 101.085938 156.894531 101.054688 C 155.90625 100.910156 154.902344 100.992188 153.917969 101.140625 C 150.839844 101.601562 147.953125 103.003906 145.15625 104.300781 C 143.058594 105.273438 140.96875 106.25 138.855469 107.183594 C 134.402344 109.152344 129.804688 110.742188 125.050781 111.808594 C 122.824219 112.304688 120.351562 112.328125 118.175781 112.929688 C 117.6875 113.0625 117.339844 115.113281 117.210938 115.53125 C 117.148438 115.75 117.039062 116.304688 116.742188 116.34375 C 116.25 116.410156 115.925781 114.765625 115.847656 114.4375 C 114.558594 114.410156 112.667969 113.179688 111.636719 112.550781 C 106.785156 109.585938 103.921875 104.484375 102.375 99.144531 C 100.484375 92.617188 99.84375 85.757812 99.152344 79.023438 C 98.070312 68.554688 97.453125 57.996094 95.984375 47.570312 C 95.371094 43.195312 94.890625 37.511719 92.417969 33.671875 C 91.664062 32.503906 90.433594 35.050781 90.03125 34.160156 C 89.792969 33.632812 90 32.769531 90.058594 32.222656 C 90.246094 30.523438 90.773438 27.164062 92.726562 26.527344 C 94.496094 25.945312 95.644531 29.113281 96.109375 30.242188 C 98.117188 35.125 99.121094 40.507812 100 45.6875 C 102.332031 59.460938 103.011719 73.371094 104.609375 87.226562 C 105.363281 93.773438 105.835938 102.675781 113.523438 105.796875 C 113.535156 105.855469 113.558594 105.875 113.613281 105.832031 Z M 116.261719 106.722656 C 116.546875 105.953125 115.890625 103.5625 115.761719 102.808594 C 115.144531 99.191406 112.804688 94.8125 115.761719 91.695312 C 117.851562 89.492188 121.054688 89.191406 123.824219 89.449219 C 129.527344 89.980469 134.835938 92.71875 140.125 94.859375 C 142.210938 95.703125 144.316406 96.519531 146.445312 97.246094 C 146.609375 97.300781 148.417969 97.75 148.378906 97.988281 C 148.339844 98.214844 147.613281 98.300781 147.464844 98.339844 C 146.347656 98.625 145.234375 98.917969 144.125 99.242188 C 139.480469 100.59375 135.191406 102.859375 130.8125 104.941406 C 126.753906 106.875 120.675781 107.570312 116.261719 106.722656 Z M 116.261719 106.722656 " fill-opacity="1" fill-rule="evenodd"/><path fill="#000000" d="M 121.414062 37.757812 C 121.179688 37.644531 121.941406 36.359375 122.011719 36.246094 C 122.714844 35.101562 123.910156 33.675781 125.304688 34.757812 C 126.339844 35.5625 127.003906 36.949219 127.492188 38.128906 C 128.757812 41.203125 129.34375 44.613281 128.867188 47.921875 C 128.703125 49.074219 128.382812 50.226562 127.914062 51.292969 C 127.804688 51.535156 127.550781 52.289062 127.214844 52.34375 C 126.960938 52.382812 126.945312 51.546875 126.9375 51.429688 C 126.859375 50.160156 126.859375 48.894531 126.738281 47.628906 C 126.417969 44.320312 123.511719 40.394531 121.414062 37.757812 Z M 121.414062 37.757812 " fill-opacity="1" fill-rule="evenodd"/></svg>