<svg xmlns="http://www.w3.org/2000/svg" xmlns:xlink="http://www.w3.org/1999/xlink" width="500" zoomAndPan="magnify" viewBox="0 0 375 157.92" height="200" preserveAspectRatio="xMidYMid meet" version="1.0"><defs><clipPath id="4b45e721bd"><path d="M 108 124 L 120 124 L 120 134.652344 L 108 134.652344 Z M 108 124 " clip-rule="nonzero"/></clipPath><clipPath id="6edcede89d"><path d="M 95 124 L 107 124 L 107 134.652344 L 95 134.652344 Z M 95 124 " clip-rule="nonzero"/></clipPath><clipPath id="0592612cf6"><path d="M 358 68 L 374.902344 68 L 374.902344 73 L 358 73 Z M 358 68 " clip-rule="nonzero"/></clipPath><clipPath id="bdaaa3d395"><path d="M 0.09375 64 L 17 64 L 17 69 L 0.09375 69 Z M 0.09375 64 " clip-rule="nonzero"/></clipPath><clipPath id="039d0221e8"><path d="M 185 15.460938 L 199 15.460938 L 199 93 L 185 93 Z M 185 15.460938 " clip-rule="nonzero"/></clipPath></defs><path fill="#000000" d="M 276.132812 77.589844 C 276.15625 77.574219 276.164062 77.558594 276.144531 77.53125 C 276.132812 77.550781 276.132812 77.570312 276.132812 77.589844 C 276.0625 77.628906 275.835938 77.632812 275.746094 77.675781 C 275.445312 77.824219 275.160156 77.976562 274.871094 78.132812 C 273.988281 78.605469 273.1875 79.160156 272.398438 79.753906 C 270.203125 81.394531 267.695312 84.039062 264.679688 84 C 264.71875 83.84375 264.351562 83.421875 264.277344 83.3125 C 263.816406 82.585938 263.324219 81.882812 262.851562 81.160156 C 260.972656 78.253906 257.84375 74.128906 253.882812 76.671875 C 250.75 78.679688 248.164062 82.597656 247.597656 86.203125 C 247.136719 89.121094 248.480469 91.917969 251.550781 92.789062 C 255.070312 93.789062 259.609375 91.75 262.605469 90.039062 C 262.625 90.027344 262.832031 90.386719 262.851562 90.433594 C 262.996094 90.691406 263.117188 90.957031 263.253906 91.21875 C 263.621094 91.996094 263.992188 92.859375 263.949219 93.734375 C 263.929688 93.742188 263.695312 93.957031 263.640625 94.007812 C 263.46875 94.183594 263.28125 94.347656 263.097656 94.515625 C 262.472656 95.078125 261.847656 95.628906 261.242188 96.199219 C 259.527344 97.800781 257.730469 99.296875 255.894531 100.765625 C 250.65625 104.960938 243.769531 110.84375 236.523438 110.769531 C 228.785156 110.691406 223.40625 104.382812 224.164062 97.011719 C 224.378906 94.972656 224.792969 92.960938 225.335938 90.980469 C 225.425781 90.613281 225.992188 89.234375 225.726562 88.878906 C 225.488281 88.554688 224.566406 89.972656 224.492188 90.078125 C 223.558594 91.570312 222.996094 93.195312 222.636719 94.90625 C 221.710938 99.242188 221.835938 104.15625 223.746094 108.242188 C 227.109375 115.4375 236.125 118.015625 243.378906 115.203125 C 247.136719 113.75 250.441406 111.269531 253.59375 108.851562 C 256.539062 106.585938 259.566406 104.234375 261.816406 101.269531 C 263.035156 99.664062 264.824219 97.601562 265.335938 95.621094 C 265.921875 93.394531 265.765625 91.003906 265.449219 88.835938 C 265.4375 88.785156 265.890625 88.613281 265.941406 88.589844 C 266.425781 88.355469 266.917969 88.125 267.398438 87.890625 C 269.265625 86.984375 271.21875 86.117188 272.796875 84.773438 C 272.910156 84.679688 272.820312 85.070312 272.851562 85.214844 C 272.902344 85.464844 272.992188 85.710938 273.085938 85.953125 C 273.363281 86.660156 273.660156 87.355469 274 88.035156 C 275.054688 90.140625 276.964844 91.800781 279.304688 92.40625 C 280.320312 92.667969 281.410156 92.84375 282.46875 92.757812 C 286.859375 92.394531 289.394531 88.082031 290.6875 84.425781 C 290.6875 84.421875 290.699219 84.417969 290.699219 84.417969 L 290.6875 84.425781 C 290.699219 84.519531 291.152344 85.535156 291.210938 85.640625 C 291.695312 86.460938 292.28125 87.246094 292.949219 87.933594 C 295.019531 90.085938 298.4375 90.6875 301.199219 89.515625 C 303.039062 88.734375 304.074219 87.265625 304.875 85.535156 C 306.515625 81.988281 305.738281 76.613281 304.382812 73.003906 C 304.421875 72.828125 304.167969 73.308594 304.042969 73.449219 C 303.765625 73.773438 303.457031 74.082031 303.179688 74.402344 C 302.339844 75.359375 301.34375 76.285156 300.636719 77.34375 C 300.574219 77.429688 301.816406 78.878906 301.917969 79.105469 C 302.863281 81.121094 301.230469 83.167969 299.085938 83.285156 C 295.925781 83.453125 294.136719 80.78125 293.777344 78.039062 C 293.65625 77.097656 293.675781 76.140625 293.5 75.203125 C 293.449219 74.902344 293.296875 74.394531 292.894531 74.40625 C 292.453125 74.417969 292.175781 75.027344 292.023438 75.359375 C 291.53125 76.449219 291.480469 77.671875 291.183594 78.8125 C 290.875 79.972656 290.207031 80.972656 289.550781 81.96875 C 288.339844 83.832031 286.882812 86.152344 284.632812 86.933594 C 281.945312 87.863281 278.476562 86.214844 277.109375 83.882812 C 276.125 82.183594 275.835938 79.53125 276.132812 77.589844 Z M 263.949219 93.734375 C 263.949219 93.730469 263.949219 93.730469 263.949219 93.734375 Z M 251.5625 85.40625 C 251.652344 84.246094 252.308594 83.101562 253.132812 82.265625 C 253.53125 81.867188 254.035156 81.433594 254.660156 81.539062 C 255.882812 81.75 257.105469 82.726562 257.90625 83.597656 C 258.070312 83.78125 258.625 84.28125 258.539062 84.574219 C 258.449219 84.859375 258.007812 85.027344 257.761719 85.132812 C 256.992188 85.460938 256.140625 85.660156 255.316406 85.777344 C 254.433594 85.898438 252.035156 85.941406 251.5625 85.40625 Z M 251.5625 85.40625 " fill-opacity="1" fill-rule="evenodd"/><path fill="#000000" d="M 230.75 78.542969 C 230.683594 78.613281 230.65625 78.851562 230.625 78.945312 C 230.523438 79.289062 230.425781 79.636719 230.328125 79.984375 C 230.003906 81.1875 229.660156 82.382812 229.332031 83.582031 C 229.226562 83.960938 229.117188 84.335938 229.011719 84.714844 C 228.980469 84.824219 228.867188 85.054688 228.90625 85.171875 C 228.941406 85.28125 229.230469 85.394531 229.320312 85.453125 C 229.621094 85.648438 229.910156 85.878906 230.15625 86.132812 C 230.152344 86.101562 230.238281 86.265625 230.246094 86.285156 C 230.300781 86.410156 230.359375 86.535156 230.414062 86.664062 C 230.582031 87.042969 230.71875 87.433594 230.867188 87.820312 C 231.324219 88.976562 231.789062 90.132812 232.289062 91.273438 C 233.203125 93.378906 234.273438 95.4375 235.390625 97.453125 C 235.859375 98.300781 236.316406 99.152344 236.757812 100.011719 C 236.957031 100.402344 237.222656 100.800781 237.351562 101.214844 C 237.554688 101.851562 235.933594 102.742188 235.472656 103.207031 C 233.691406 104.996094 231.757812 106.636719 229.738281 108.175781 C 221.828125 114.195312 211.0625 120.164062 200.753906 116.011719 C 200.859375 116.105469 200.5 115.878906 200.382812 115.800781 C 200.132812 115.636719 199.894531 115.457031 199.664062 115.269531 C 198.929688 114.675781 198.277344 114.027344 197.71875 113.273438 C 196.066406 111.035156 195.367188 108.402344 195.253906 105.691406 C 195.089844 101.8125 195.785156 98.050781 197.046875 94.375 C 197.179688 93.984375 197.316406 93.589844 197.457031 93.195312 C 197.578125 92.859375 197.699219 92.527344 197.820312 92.191406 C 197.898438 91.96875 197.972656 91.742188 198.046875 91.515625 C 198.109375 91.335938 198.164062 91.152344 198.222656 90.972656 C 198.269531 90.820312 198.316406 90.664062 198.359375 90.511719 C 198.449219 90.195312 199.109375 88.417969 198.222656 88.636719 C 198.285156 88.78125 197.996094 88.871094 197.914062 89.003906 C 197.617188 89.480469 197.359375 89.976562 197.113281 90.476562 C 196.167969 92.414062 195.359375 94.394531 194.6875 96.433594 C 192.707031 102.429688 190.746094 109.863281 193.664062 115.839844 C 193.753906 115.816406 193.730469 116.007812 193.765625 116.089844 C 193.835938 116.269531 193.917969 116.445312 193.996094 116.621094 C 194.238281 117.160156 194.527344 117.675781 194.835938 118.183594 C 195.710938 119.621094 197.023438 120.835938 198.378906 121.863281 C 202.027344 124.625 206.96875 124.613281 211.375 124.070312 C 211.371094 124.050781 211.726562 123.972656 211.738281 123.96875 C 212.160156 123.867188 212.582031 123.765625 213 123.648438 C 214.070312 123.347656 215.132812 123.003906 216.140625 122.546875 C 219.269531 121.132812 222.449219 119.664062 225.132812 117.570312 C 225.132812 117.574219 228.691406 114.925781 229.699219 114.167969 C 232.757812 111.859375 235.835938 109.097656 237.730469 105.796875 C 237.792969 105.679688 238.023438 105.171875 238.066406 105.066406 C 238.390625 104.308594 238.660156 103.523438 238.863281 102.730469 C 239.367188 100.796875 239.59375 98.617188 239.175781 96.644531 C 238.910156 95.386719 238.378906 94.21875 237.863281 93.039062 C 237.957031 93.074219 237.792969 92.859375 237.753906 92.769531 C 237.6875 92.613281 237.613281 92.457031 237.542969 92.300781 C 237.296875 91.761719 237.050781 91.226562 236.800781 90.691406 C 236.085938 89.171875 234.964844 87.667969 234.546875 86.039062 C 234.445312 85.625 234.886719 85.914062 235.070312 86.019531 C 235.542969 86.289062 236.003906 86.601562 236.503906 86.816406 C 236.667969 86.886719 236.960938 87 237.019531 86.753906 C 237.164062 86.121094 236.457031 85.222656 236.136719 84.738281 C 235.101562 83.179688 232.808594 80.671875 230.75 78.542969 Z M 230.75 78.542969 " fill-opacity="1" fill-rule="evenodd"/><path fill="#000000" d="M 211.242188 61.449219 C 211.253906 61.195312 211.734375 61.625 211.992188 61.695312 C 212.628906 61.882812 213.285156 62.046875 213.941406 62.179688 C 213.992188 62.1875 214.546875 62.332031 214.546875 62.234375 C 214.527344 61.699219 213.121094 60.789062 212.761719 60.472656 C 211.078125 58.957031 209.394531 57.441406 207.640625 56.003906 C 207.3125 55.738281 206.027344 54.417969 205.523438 54.59375 C 205.175781 54.714844 204.96875 55.28125 204.828125 55.566406 C 204.40625 56.449219 204.015625 57.34375 203.617188 58.234375 C 203.503906 58.484375 203.121094 59.058594 203.257812 59.351562 C 203.398438 59.65625 203.832031 59.574219 204.089844 59.722656 C 204.4375 59.929688 204.671875 60.414062 204.878906 60.734375 C 207.042969 63.984375 209.628906 66.871094 212.09375 69.902344 C 212.082031 69.90625 212.308594 70.125 212.332031 70.152344 C 212.320312 70.140625 211.539062 71.058594 211.488281 71.121094 C 210.460938 72.3125 209.539062 73.582031 208.65625 74.863281 C 206.171875 78.417969 205.359375 83.378906 206.511719 87.527344 C 207.15625 89.871094 209.054688 92.21875 211.765625 92.027344 C 213.847656 91.878906 215.871094 90.285156 217.328125 88.957031 C 220.890625 85.722656 225.097656 80.878906 223.085938 75.8125 C 222.296875 73.84375 220.992188 72.066406 219.578125 70.484375 C 219.144531 70.015625 217.882812 69.148438 218.058594 68.429688 C 218.367188 67.21875 219.566406 66.058594 220.296875 65.082031 C 222.183594 62.578125 224.882812 59.703125 225.703125 56.613281 C 225.992188 55.507812 226.351562 53.226562 225.664062 52.175781 C 225.5625 52.027344 225.234375 52.476562 225.191406 52.535156 C 224.75 53.070312 224.410156 53.691406 224.042969 54.269531 C 223.117188 55.71875 222.164062 57.144531 221.167969 58.550781 C 220.378906 59.675781 219.554688 60.777344 218.746094 61.894531 C 217.957031 62.976562 217.164062 64.054688 216.363281 65.125 C 216.210938 65.328125 215.832031 66.027344 215.511719 66.042969 C 214.722656 66.074219 211.746094 61.972656 211.242188 61.449219 Z M 214.640625 72.699219 C 214.773438 72.550781 213.847656 73.472656 213.738281 73.628906 C 213.53125 73.910156 213.316406 74.191406 213.109375 74.472656 C 212.496094 75.300781 211.910156 76.140625 211.335938 76.992188 C 209.722656 79.363281 206.960938 84.628906 211.242188 86.003906 C 214.054688 86.910156 216.785156 83.976562 218.398438 82.136719 C 219.0625 81.386719 220.039062 80.386719 220.039062 79.324219 C 220.050781 78.714844 219.636719 78.113281 219.308594 77.621094 C 218.367188 76.21875 215.972656 73.753906 214.640625 72.699219 Z M 214.640625 72.699219 " fill-opacity="1" fill-rule="evenodd"/><path fill="#000000" d="M 240.277344 41.089844 C 240.300781 41.121094 240.210938 41.253906 240.195312 41.285156 C 240.085938 41.496094 239.96875 41.703125 239.84375 41.90625 C 239.816406 41.957031 239.742188 42.113281 239.652344 42.105469 C 239.519531 42.097656 239.304688 41.90625 239.207031 41.84375 C 238.847656 41.601562 238.476562 41.371094 238.125 41.121094 C 237.730469 40.84375 237.339844 40.570312 236.933594 40.304688 C 236.695312 40.152344 236.382812 40.015625 236.210938 39.808594 C 236.027344 39.585938 236.03125 39.265625 236.007812 39.007812 C 235.949219 38.386719 235.9375 37.742188 236.140625 37.132812 C 236.332031 36.570312 236.691406 35.816406 237.496094 35.703125 C 238.335938 35.582031 239.214844 36.183594 239.859375 36.542969 C 241.171875 37.265625 242 38.261719 242.730469 39.390625 C 243.386719 40.398438 243.90625 41.445312 244.234375 42.558594 C 244.433594 43.234375 244.554688 43.9375 244.792969 44.601562 C 244.894531 44.886719 245.027344 45.246094 245.355469 45.414062 C 245.351562 45.457031 245.382812 45.328125 245.390625 45.28125 C 245.40625 45.195312 245.421875 45.105469 245.4375 45.015625 C 245.480469 44.761719 245.519531 44.503906 245.554688 44.246094 C 245.671875 43.449219 245.816406 42.660156 246.03125 41.878906 C 246.59375 39.800781 247.410156 37.570312 248.863281 35.789062 C 249.511719 34.988281 250.515625 34.113281 251.816406 34.527344 C 252.714844 34.816406 253.332031 35.660156 253.757812 36.328125 C 253.894531 36.550781 254.140625 36.882812 254.128906 37.140625 C 254.105469 37.648438 253.65625 38.226562 253.421875 38.683594 C 253.257812 39.003906 253.105469 39.328125 252.910156 39.636719 C 252.84375 39.742188 252.761719 39.917969 252.621094 39.976562 C 252.367188 40.082031 252.050781 39.449219 251.980469 39.339844 C 251.597656 38.761719 251.027344 37.847656 250.078125 37.894531 C 249.082031 37.941406 248.640625 38.976562 248.339844 39.601562 C 247.429688 41.46875 246.929688 43.382812 246.414062 45.335938 C 246.398438 45.339844 246.324219 45.625 246.316406 45.644531 C 246.1875 45.996094 246.0625 46.347656 245.945312 46.699219 C 245.609375 47.738281 245.386719 48.832031 244.898438 49.832031 C 244.824219 49.984375 244.5 50.738281 244.140625 50.558594 C 243.960938 50.46875 243.929688 50.191406 243.902344 50.042969 C 243.820312 49.601562 243.722656 49.164062 243.609375 48.730469 C 243.476562 48.21875 243.34375 47.710938 243.222656 47.199219 C 243.039062 46.421875 242.832031 45.644531 242.535156 44.886719 C 242.132812 43.871094 241.171875 41.5625 240.277344 41.089844 Z M 240.277344 41.089844 " fill-opacity="1" fill-rule="evenodd"/><path fill="#000000" d="M 141.417969 32.058594 C 141.4375 32.089844 141.347656 32.222656 141.332031 32.253906 C 141.222656 32.460938 141.109375 32.671875 140.984375 32.875 C 140.953125 32.921875 140.878906 33.082031 140.789062 33.074219 C 140.65625 33.066406 140.445312 32.875 140.347656 32.8125 C 139.984375 32.570312 139.617188 32.339844 139.261719 32.089844 C 138.871094 31.8125 138.476562 31.535156 138.070312 31.273438 C 137.835938 31.121094 137.519531 30.984375 137.347656 30.773438 C 137.164062 30.550781 137.171875 30.234375 137.148438 29.976562 C 137.089844 29.351562 137.074219 28.710938 137.28125 28.101562 C 137.472656 27.535156 137.832031 26.785156 138.632812 26.671875 C 139.476562 26.550781 140.351562 27.152344 141 27.511719 C 142.3125 28.234375 143.136719 29.230469 143.871094 30.359375 C 144.527344 31.367188 145.046875 32.414062 145.375 33.527344 C 145.574219 34.203125 145.691406 34.902344 145.933594 35.570312 C 146.035156 35.855469 146.167969 36.214844 146.496094 36.382812 C 146.492188 36.425781 146.519531 36.296875 146.527344 36.25 C 146.546875 36.164062 146.5625 36.074219 146.578125 35.984375 C 146.621094 35.730469 146.65625 35.472656 146.695312 35.214844 C 146.8125 34.417969 146.957031 33.628906 147.167969 32.847656 C 147.734375 30.769531 148.550781 28.539062 150.003906 26.753906 C 150.652344 25.957031 151.652344 25.082031 152.953125 25.496094 C 153.851562 25.785156 154.472656 26.625 154.894531 27.296875 C 155.035156 27.515625 155.28125 27.847656 155.269531 28.105469 C 155.242188 28.613281 154.792969 29.195312 154.5625 29.652344 C 154.398438 29.96875 154.246094 30.296875 154.050781 30.605469 C 153.984375 30.710938 153.898438 30.886719 153.761719 30.945312 C 153.503906 31.050781 153.191406 30.417969 153.117188 30.308594 C 152.738281 29.730469 152.164062 28.816406 151.214844 28.859375 C 150.21875 28.910156 149.78125 29.945312 149.476562 30.570312 C 148.570312 32.433594 148.066406 34.351562 147.554688 36.304688 C 147.539062 36.304688 147.460938 36.589844 147.453125 36.613281 C 147.328125 36.960938 147.199219 37.3125 147.085938 37.667969 C 146.746094 38.707031 146.527344 39.800781 146.039062 40.800781 C 145.964844 40.953125 145.640625 41.703125 145.277344 41.523438 C 145.101562 41.433594 145.070312 41.160156 145.042969 41.011719 C 144.957031 40.570312 144.863281 40.132812 144.75 39.695312 C 144.617188 39.1875 144.484375 38.679688 144.363281 38.167969 C 144.175781 37.390625 143.96875 36.609375 143.671875 35.855469 C 143.273438 34.839844 142.308594 32.527344 141.417969 32.058594 Z M 141.417969 32.058594 " fill-opacity="1" fill-rule="evenodd"/><path fill="#000000" d="M 100.109375 36.410156 C 100.128906 36.441406 100.039062 36.574219 100.023438 36.605469 C 99.914062 36.816406 99.796875 37.023438 99.675781 37.226562 C 99.644531 37.277344 99.570312 37.433594 99.480469 37.425781 C 99.347656 37.417969 99.132812 37.226562 99.039062 37.164062 C 98.675781 36.921875 98.308594 36.691406 97.953125 36.441406 C 97.558594 36.164062 97.167969 35.886719 96.761719 35.625 C 96.527344 35.472656 96.210938 35.335938 96.039062 35.125 C 95.855469 34.902344 95.863281 34.585938 95.839844 34.328125 C 95.777344 33.703125 95.765625 33.0625 95.972656 32.453125 C 96.164062 31.886719 96.523438 31.136719 97.324219 31.023438 C 98.164062 30.902344 99.042969 31.503906 99.691406 31.863281 C 101 32.585938 101.828125 33.582031 102.5625 34.710938 C 103.214844 35.71875 103.738281 36.765625 104.0625 37.878906 C 104.261719 38.554688 104.382812 39.253906 104.625 39.921875 C 104.726562 40.207031 104.859375 40.566406 105.1875 40.734375 C 105.183594 40.777344 105.210938 40.648438 105.21875 40.601562 C 105.234375 40.515625 105.25 40.425781 105.265625 40.335938 C 105.3125 40.082031 105.347656 39.824219 105.386719 39.566406 C 105.5 38.769531 105.648438 37.980469 105.859375 37.199219 C 106.425781 35.121094 107.242188 32.890625 108.695312 31.109375 C 109.34375 30.308594 110.34375 29.433594 111.644531 29.847656 C 112.542969 30.136719 113.164062 30.980469 113.585938 31.648438 C 113.726562 31.867188 113.972656 32.203125 113.957031 32.457031 C 113.933594 32.96875 113.484375 33.546875 113.253906 34.003906 C 113.089844 34.324219 112.9375 34.648438 112.742188 34.957031 C 112.675781 35.0625 112.589844 35.238281 112.449219 35.296875 C 112.195312 35.402344 111.878906 34.769531 111.808594 34.660156 C 111.429688 34.082031 110.855469 33.167969 109.90625 33.214844 C 108.910156 33.261719 108.472656 34.296875 108.167969 34.921875 C 107.257812 36.785156 106.757812 38.703125 106.242188 40.65625 C 106.230469 40.660156 106.152344 40.945312 106.144531 40.964844 C 106.015625 41.316406 105.890625 41.667969 105.773438 42.019531 C 105.4375 43.058594 105.21875 44.152344 104.730469 45.152344 C 104.652344 45.304688 104.328125 46.058594 103.96875 45.875 C 103.789062 45.785156 103.757812 45.511719 103.730469 45.363281 C 103.648438 44.921875 103.554688 44.484375 103.441406 44.050781 C 103.308594 43.539062 103.175781 43.03125 103.054688 42.519531 C 102.867188 41.742188 102.660156 40.964844 102.363281 40.207031 C 101.964844 39.191406 101 36.882812 100.109375 36.410156 Z M 100.109375 36.410156 " fill-opacity="1" fill-rule="evenodd"/><path fill="#000000" d="M 91.03125 81.542969 C 91.050781 81.574219 90.960938 81.707031 90.945312 81.738281 C 90.835938 81.945312 90.71875 82.15625 90.597656 82.359375 C 90.566406 82.40625 90.492188 82.5625 90.402344 82.558594 C 90.269531 82.550781 90.054688 82.359375 89.960938 82.296875 C 89.597656 82.054688 89.230469 81.820312 88.875 81.574219 C 88.480469 81.296875 88.089844 81.019531 87.683594 80.757812 C 87.449219 80.605469 87.132812 80.464844 86.960938 80.257812 C 86.777344 80.035156 86.785156 79.71875 86.761719 79.460938 C 86.699219 78.835938 86.6875 78.191406 86.894531 77.582031 C 87.085938 77.019531 87.445312 76.269531 88.246094 76.15625 C 89.085938 76.035156 89.964844 76.636719 90.613281 76.992188 C 91.921875 77.71875 92.75 78.714844 93.484375 79.84375 C 94.136719 80.851562 94.660156 81.898438 94.984375 83.011719 C 95.183594 83.6875 95.304688 84.386719 95.542969 85.054688 C 95.648438 85.335938 95.78125 85.699219 96.105469 85.867188 C 96.105469 85.910156 96.132812 85.78125 96.140625 85.734375 C 96.15625 85.644531 96.171875 85.558594 96.1875 85.46875 C 96.234375 85.214844 96.269531 84.957031 96.308594 84.699219 C 96.421875 83.902344 96.566406 83.113281 96.78125 82.332031 C 97.347656 80.253906 98.164062 78.023438 99.617188 76.238281 C 100.265625 75.441406 101.265625 74.566406 102.566406 74.980469 C 103.464844 75.265625 104.085938 76.109375 104.507812 76.78125 C 104.648438 77 104.894531 77.332031 104.878906 77.589844 C 104.855469 78.097656 104.40625 78.679688 104.175781 79.132812 C 104.011719 79.453125 103.859375 79.78125 103.664062 80.089844 C 103.597656 80.195312 103.511719 80.371094 103.371094 80.429688 C 103.117188 80.53125 102.800781 79.902344 102.730469 79.792969 C 102.351562 79.214844 101.777344 78.300781 100.828125 78.34375 C 99.832031 78.390625 99.394531 79.429688 99.089844 80.050781 C 98.179688 81.917969 97.679688 83.835938 97.164062 85.789062 C 97.152344 85.789062 97.074219 86.074219 97.066406 86.097656 C 96.9375 86.445312 96.8125 86.796875 96.695312 87.152344 C 96.359375 88.191406 96.140625 89.285156 95.652344 90.285156 C 95.574219 90.4375 95.25 91.1875 94.890625 91.007812 C 94.710938 90.917969 94.679688 90.644531 94.652344 90.496094 C 94.570312 90.054688 94.476562 89.617188 94.363281 89.179688 C 94.230469 88.671875 94.097656 88.164062 93.976562 87.652344 C 93.789062 86.875 93.582031 86.09375 93.285156 85.339844 C 92.886719 84.324219 91.921875 82.011719 91.03125 81.542969 Z M 91.03125 81.542969 " fill-opacity="1" fill-rule="evenodd"/><path fill="#000000" d="M 240.277344 66.882812 C 240.300781 66.917969 240.210938 67.050781 240.195312 67.082031 C 240.085938 67.289062 239.96875 67.496094 239.84375 67.703125 C 239.816406 67.75 239.742188 67.90625 239.652344 67.902344 C 239.519531 67.890625 239.304688 67.703125 239.207031 67.640625 C 238.847656 67.398438 238.476562 67.164062 238.125 66.917969 C 237.730469 66.640625 237.339844 66.363281 236.933594 66.097656 C 236.695312 65.945312 236.382812 65.808594 236.210938 65.601562 C 236.027344 65.378906 236.03125 65.0625 236.007812 64.804688 C 235.949219 64.179688 235.9375 63.535156 236.140625 62.925781 C 236.332031 62.363281 236.691406 61.613281 237.496094 61.5 C 238.335938 61.378906 239.214844 61.980469 239.859375 62.335938 C 241.171875 63.058594 242 64.058594 242.730469 65.183594 C 243.386719 66.195312 243.90625 67.242188 244.234375 68.351562 C 244.433594 69.027344 244.554688 69.730469 244.792969 70.398438 C 244.894531 70.679688 245.027344 71.039062 245.355469 71.210938 C 245.351562 71.253906 245.382812 71.121094 245.390625 71.078125 C 245.40625 70.988281 245.421875 70.902344 245.4375 70.8125 C 245.480469 70.554688 245.519531 70.296875 245.554688 70.042969 C 245.671875 69.246094 245.816406 68.457031 246.03125 67.671875 C 246.59375 65.59375 247.410156 63.367188 248.863281 61.582031 C 249.511719 60.785156 250.515625 59.910156 251.816406 60.324219 C 252.714844 60.609375 253.332031 61.453125 253.757812 62.121094 C 253.894531 62.34375 254.140625 62.675781 254.128906 62.933594 C 254.105469 63.441406 253.65625 64.019531 253.421875 64.476562 C 253.257812 64.796875 253.105469 65.125 252.910156 65.433594 C 252.84375 65.539062 252.761719 65.714844 252.621094 65.769531 C 252.367188 65.875 252.050781 65.246094 251.980469 65.136719 C 251.597656 64.558594 251.027344 63.644531 250.078125 63.6875 C 249.082031 63.734375 248.640625 64.773438 248.339844 65.394531 C 247.429688 67.261719 246.929688 69.179688 246.414062 71.132812 C 246.398438 71.132812 246.324219 71.417969 246.316406 71.441406 C 246.1875 71.789062 246.0625 72.140625 245.945312 72.496094 C 245.609375 73.535156 245.386719 74.628906 244.898438 75.625 C 244.824219 75.777344 244.5 76.53125 244.140625 76.351562 C 243.960938 76.261719 243.929688 75.988281 243.902344 75.839844 C 243.820312 75.398438 243.722656 74.960938 243.609375 74.523438 C 243.476562 74.011719 243.34375 73.503906 243.222656 72.996094 C 243.039062 72.214844 242.832031 71.4375 242.535156 70.683594 C 242.132812 69.667969 241.171875 67.355469 240.277344 66.882812 Z M 240.277344 66.882812 " fill-opacity="1" fill-rule="evenodd"/><path fill="#000000" d="M 296.953125 94.195312 C 296.882812 94.109375 296.761719 94.425781 296.734375 94.492188 C 296.679688 94.636719 296.625 94.777344 296.570312 94.921875 C 296.398438 95.378906 296.21875 95.824219 296.042969 96.277344 C 295.925781 96.570312 296.253906 96.941406 296.34375 97.203125 C 296.609375 98.003906 296.125 98.53125 295.464844 98.515625 C 295.277344 98.515625 295.101562 98.460938 294.925781 98.390625 C 294.1875 98.089844 293.453125 97.355469 293.523438 96.363281 C 293.5625 95.847656 293.757812 95.414062 293.867188 94.925781 C 293.902344 94.765625 293.914062 94.511719 293.734375 94.464844 C 293.292969 94.339844 292.898438 95.371094 292.742188 95.691406 C 292.125 96.988281 291.609375 98.554688 290.398438 99.25 C 289.277344 99.898438 288.207031 99.019531 287.121094 98.6875 C 285.949219 98.332031 284.78125 98.5 283.660156 99.007812 C 283.660156 99.117188 283.480469 99.09375 283.394531 99.140625 C 283.109375 99.3125 282.835938 99.496094 282.5625 99.6875 C 281.363281 100.523438 280.210938 101.464844 279.097656 102.449219 C 274.261719 106.703125 269.214844 110.558594 263.9375 114.035156 C 262.332031 115.089844 260.742188 116.175781 259.105469 117.15625 C 258.4375 117.558594 257.757812 117.925781 257.097656 118.339844 C 257.027344 118.382812 256.492188 118.679688 256.644531 118.859375 C 256.820312 119.058594 257.316406 118.945312 257.527344 118.917969 C 258.335938 118.828125 259.152344 118.59375 259.941406 118.375 C 261.882812 117.835938 263.949219 117.246094 265.734375 116.171875 C 266.871094 115.484375 267.925781 114.5625 268.957031 113.683594 C 272.09375 111.015625 275.207031 108.308594 278.359375 105.664062 C 280.207031 104.109375 282.222656 102.222656 284.417969 101.371094 C 286.371094 100.617188 287.933594 103.023438 289.890625 102.199219 C 290.738281 101.835938 291.359375 100.910156 291.777344 100.007812 C 291.847656 99.859375 292.253906 98.625 292.402344 98.585938 C 292.425781 98.578125 292.5 99.125 292.503906 99.15625 C 292.5625 99.558594 292.625 100 292.839844 100.332031 C 293.378906 101.160156 294.367188 101.3125 295.191406 101.121094 C 297.75 100.527344 297.757812 97.632812 297.335938 95.226562 C 297.28125 94.90625 297.050781 94.320312 296.953125 94.195312 Z M 296.953125 94.195312 " fill-opacity="1" fill-rule="evenodd"/><path fill="#000000" d="M 228.230469 60.949219 C 228.246094 60.960938 229.550781 60.292969 229.632812 60.253906 C 231.292969 59.476562 232.976562 58.734375 234.671875 58 C 241.609375 54.992188 248.617188 52.035156 255.707031 49.257812 C 257.707031 48.476562 259.71875 47.707031 261.765625 47.007812 C 261.890625 46.964844 263.503906 46.328125 263.59375 46.484375 C 263.769531 46.808594 263.023438 47.867188 262.878906 48.164062 C 262.574219 48.800781 262.375 49.761719 261.808594 50.296875 C 261.429688 50.65625 260.695312 50.8125 260.175781 51.003906 C 258.910156 51.460938 257.640625 51.910156 256.386719 52.390625 C 252.519531 53.867188 248.777344 55.542969 244.980469 57.132812 C 241.304688 58.671875 237.546875 60.089844 233.90625 61.679688 C 232.089844 62.476562 230.269531 63.265625 228.457031 64.066406 C 228.164062 64.195312 226.957031 64.929688 226.585938 64.777344 C 226.351562 64.683594 226.617188 64.191406 226.667969 64.074219 C 226.925781 63.417969 227.925781 61.59375 228.230469 60.949219 Z M 228.230469 60.949219 " fill-opacity="1" fill-rule="evenodd"/><path fill="#000000" d="M 143.527344 67.949219 C 143.539062 67.957031 144.382812 67.441406 144.433594 67.410156 C 145.511719 66.808594 146.601562 66.234375 147.699219 65.667969 C 152.195312 63.339844 156.734375 61.054688 161.332031 58.90625 C 162.625 58.300781 163.929688 57.707031 165.253906 57.167969 C 165.335938 57.132812 166.382812 56.640625 166.4375 56.761719 C 166.554688 57.011719 166.070312 57.832031 165.976562 58.058594 C 165.78125 58.550781 165.652344 59.296875 165.285156 59.710938 C 165.039062 59.988281 164.5625 60.109375 164.226562 60.253906 C 163.40625 60.609375 162.582031 60.957031 161.769531 61.328125 C 159.265625 62.472656 156.839844 63.769531 154.378906 64.996094 C 152 66.1875 149.5625 67.285156 147.203125 68.515625 C 146.027344 69.128906 144.847656 69.742188 143.671875 70.359375 C 143.484375 70.457031 142.703125 71.027344 142.460938 70.910156 C 142.308594 70.835938 142.480469 70.457031 142.511719 70.363281 C 142.683594 69.855469 143.332031 68.449219 143.527344 67.949219 Z M 143.527344 67.949219 " fill-opacity="1" fill-rule="evenodd"/><path fill="#000000" d="M 85.203125 64.507812 C 85.214844 64.515625 86.28125 64 86.347656 63.96875 C 87.707031 63.367188 89.085938 62.792969 90.46875 62.226562 C 96.144531 59.898438 101.871094 57.613281 107.671875 55.464844 C 109.308594 54.859375 110.953125 54.265625 112.625 53.726562 C 112.730469 53.691406 114.050781 53.199219 114.121094 53.320312 C 114.265625 53.570312 113.65625 54.390625 113.539062 54.617188 C 113.289062 55.109375 113.125 55.855469 112.664062 56.269531 C 112.351562 56.546875 111.753906 56.667969 111.328125 56.8125 C 110.292969 57.167969 109.253906 57.515625 108.230469 57.886719 C 105.066406 59.03125 102.003906 60.324219 98.898438 61.554688 C 95.894531 62.746094 92.820312 63.84375 89.839844 65.074219 C 88.355469 65.6875 86.867188 66.300781 85.386719 66.917969 C 85.148438 67.015625 84.160156 67.585938 83.855469 67.46875 C 83.664062 67.394531 83.882812 67.015625 83.921875 66.921875 C 84.132812 66.414062 84.953125 65.007812 85.203125 64.507812 Z M 85.203125 64.507812 " fill-opacity="1" fill-rule="evenodd"/><path fill="#000000" d="M 126.929688 125.597656 C 126.941406 125.605469 128.246094 124.9375 128.328125 124.898438 C 129.988281 124.125 131.671875 123.382812 133.367188 122.648438 C 140.304688 119.636719 147.3125 116.683594 154.40625 113.902344 C 156.402344 113.121094 158.414062 112.355469 160.460938 111.65625 C 160.585938 111.613281 162.199219 110.972656 162.289062 111.132812 C 162.464844 111.453125 161.722656 112.515625 161.574219 112.808594 C 161.269531 113.449219 161.070312 114.40625 160.503906 114.941406 C 160.125 115.304688 159.390625 115.460938 158.871094 115.648438 C 157.605469 116.105469 156.335938 116.558594 155.082031 117.035156 C 151.214844 118.515625 147.472656 120.191406 143.675781 121.78125 C 140 123.320312 136.242188 124.734375 132.601562 126.328125 C 130.785156 127.121094 128.964844 127.914062 127.152344 128.710938 C 126.863281 128.839844 125.652344 129.574219 125.28125 129.421875 C 125.046875 129.328125 125.3125 128.839844 125.363281 128.71875 C 125.621094 128.0625 126.625 126.242188 126.929688 125.597656 Z M 126.929688 125.597656 " fill-opacity="1" fill-rule="evenodd"/><path fill="#000000" d="M 265.871094 51.460938 C 266.285156 51.042969 266.585938 50.300781 266.910156 49.816406 C 267.859375 48.394531 268.800781 46.96875 269.777344 45.5625 C 270.324219 44.773438 270.828125 43.839844 271.613281 43.226562 C 272.722656 42.363281 274.386719 42.480469 275.726562 42.566406 C 278.820312 42.765625 282.390625 43.710938 285.332031 44.183594 C 285.382812 44.144531 285.648438 44.265625 285.703125 44.285156 C 286.046875 44.398438 286.382812 44.519531 286.71875 44.648438 C 287.855469 45.074219 290.078125 45.671875 289.679688 47.195312 C 289.425781 48.164062 288.746094 49.03125 288.128906 49.816406 C 287.164062 51.039062 286.128906 52.226562 285.046875 53.359375 C 283.613281 54.859375 282.105469 56.273438 280.53125 57.640625 C 279.496094 58.542969 278.421875 59.542969 277.082031 60.035156 C 274.84375 60.851562 272.191406 60.761719 269.828125 60.898438 C 268.707031 60.964844 267.589844 61.015625 266.46875 61.054688 C 265.875 61.078125 265.136719 61.160156 264.5625 60.992188 C 263.992188 60.828125 265.34375 60.09375 265.441406 60.039062 C 266.660156 59.382812 267.980469 58.878906 269.292969 58.421875 C 272.320312 57.367188 275.425781 56.382812 278.304688 54.984375 C 278.992188 54.652344 279.675781 54.316406 280.347656 53.957031 C 280.519531 53.863281 280.914062 53.714844 280.976562 53.515625 C 281.054688 53.265625 280.484375 53.023438 280.320312 52.949219 C 279.527344 52.601562 278.609375 52.429688 277.765625 52.230469 C 274.253906 51.414062 269.460938 50.949219 265.871094 51.460938 Z M 265.871094 51.460938 " fill-opacity="1" fill-rule="evenodd"/><path fill="#000000" d="M 203.730469 40.234375 L 207.925781 34.695312 L 214.710938 39.628906 L 210.238281 44.851562 C 210.238281 44.851562 203.996094 39.976562 203.730469 40.234375 Z M 203.730469 40.234375 " fill-opacity="1" fill-rule="evenodd"/><path fill="#000000" d="M 63.925781 58.84375 L 68.125 53.304688 L 74.910156 58.238281 L 70.433594 63.460938 C 70.433594 63.460938 64.195312 58.585938 63.925781 58.84375 Z M 63.925781 58.84375 " fill-opacity="1" fill-rule="evenodd"/><path fill="#000000" d="M 74.914062 58.84375 L 79.109375 53.304688 L 85.894531 58.238281 L 81.421875 63.460938 C 81.421875 63.460938 75.179688 58.585938 74.914062 58.84375 Z M 74.914062 58.84375 " fill-opacity="1" fill-rule="evenodd"/><path fill="#000000" d="M 111.167969 71.390625 L 115.367188 65.847656 L 122.152344 70.78125 L 117.675781 76.003906 C 117.675781 76.003906 111.4375 71.132812 111.167969 71.390625 Z M 111.167969 71.390625 " fill-opacity="1" fill-rule="evenodd"/><path fill="#000000" d="M 122.152344 70.265625 L 126.351562 64.722656 L 133.136719 69.660156 L 128.660156 74.878906 C 128.660156 74.878906 122.421875 70.007812 122.152344 70.265625 Z M 122.152344 70.265625 " fill-opacity="1" fill-rule="evenodd"/><path fill="#000000" d="M 114.144531 61.234375 L 118.339844 55.695312 L 125.125 60.628906 L 120.652344 65.851562 C 120.652344 65.851562 114.410156 60.976562 114.144531 61.234375 Z M 114.144531 61.234375 " fill-opacity="1" fill-rule="evenodd"/><path fill="#000000" d="M 213.632812 39.015625 L 217.832031 33.476562 L 224.617188 38.410156 L 220.140625 43.632812 C 220.140625 43.632812 213.902344 38.757812 213.632812 39.015625 Z M 213.632812 39.015625 " fill-opacity="1" fill-rule="evenodd"/><g clip-path="url(#4b45e721bd)"><path fill="#000000" d="M 108.472656 129.902344 L 112.671875 124.363281 L 119.453125 129.296875 L 114.980469 134.519531 C 114.980469 134.519531 108.738281 129.644531 108.472656 129.902344 Z M 108.472656 129.902344 " fill-opacity="1" fill-rule="evenodd"/></g><g clip-path="url(#6edcede89d)"><path fill="#000000" d="M 95.808594 129.902344 L 100.003906 124.363281 L 106.789062 129.296875 L 102.316406 134.519531 C 102.316406 134.519531 96.074219 129.644531 95.808594 129.902344 Z M 95.808594 129.902344 " fill-opacity="1" fill-rule="evenodd"/></g><path fill="#000000" d="M 162.316406 119.746094 L 166.511719 114.207031 L 173.296875 119.140625 L 168.824219 124.363281 C 168.824219 124.363281 162.582031 119.488281 162.316406 119.746094 Z M 162.316406 119.746094 " fill-opacity="1" fill-rule="evenodd"/><path fill="#000000" d="M 210.980469 94.226562 C 210.738281 94.074219 210.519531 94.394531 210.480469 94.441406 C 210.226562 94.730469 210.046875 95.0625 209.871094 95.390625 C 209.320312 96.433594 208.820312 97.496094 208.261719 98.535156 C 206.828125 101.191406 205.015625 104.386719 205.195312 107.417969 C 205.273438 108.738281 205.765625 110.410156 207.480469 110.683594 C 209.609375 111.019531 210.84375 108.234375 211.394531 106.910156 C 211.585938 106.457031 212.035156 105.554688 211.738281 105.0625 C 211.484375 104.644531 210.84375 105.523438 210.746094 105.65625 C 210.144531 106.476562 209.191406 108.085938 208.078125 106.765625 C 207.183594 105.707031 207.316406 104.25 207.597656 103.019531 C 208.007812 101.207031 208.992188 99.554688 209.863281 97.894531 C 210.414062 96.851562 211.800781 94.757812 210.980469 94.226562 Z M 210.980469 94.226562 " fill-opacity="1" fill-rule="evenodd"/><path fill="#000000" d="M 188.054688 45.984375 C 187.65625 45.714844 187.289062 46.277344 187.222656 46.359375 C 186.800781 46.863281 186.503906 47.449219 186.214844 48.027344 C 185.292969 49.851562 184.464844 51.71875 183.535156 53.539062 C 181.152344 58.199219 178.140625 63.800781 178.4375 69.113281 C 178.566406 71.421875 179.386719 74.359375 182.238281 74.835938 C 185.777344 75.425781 187.828125 70.542969 188.746094 68.21875 C 189.058594 67.425781 189.808594 65.84375 189.316406 64.984375 C 188.894531 64.25 187.828125 65.789062 187.664062 66.023438 C 186.664062 67.460938 185.078125 70.285156 183.230469 67.96875 C 181.742188 66.109375 181.964844 63.554688 182.429688 61.402344 C 183.113281 58.222656 184.75 55.324219 186.203125 52.414062 C 187.113281 50.582031 189.417969 46.910156 188.054688 45.984375 Z M 188.054688 45.984375 " fill-opacity="1" fill-rule="evenodd"/><path fill="#000000" d="M 277.09375 71.613281 C 276.972656 71.5625 277.445312 71.253906 277.484375 71.234375 C 277.675781 71.136719 277.859375 71.03125 278.035156 70.921875 C 278.566406 70.597656 279.097656 70.277344 279.621094 69.9375 C 281.25 68.882812 282.867188 67.8125 284.484375 66.746094 C 288.128906 64.347656 298.292969 56.710938 298.535156 56.257812 C 298.359375 56.125 298.066406 56.035156 297.871094 55.917969 C 296.847656 55.300781 295.300781 54.390625 295.414062 53.160156 C 295.566406 51.480469 297.15625 49.597656 298.945312 49.019531 C 299.746094 48.761719 300.792969 48.644531 301.480469 49.183594 C 301.921875 49.523438 302.042969 50.074219 302.089844 50.5625 C 302.195312 51.648438 301.875 52.675781 301.410156 53.667969 C 301.273438 53.957031 301.113281 54.230469 300.945312 54.5 C 300.894531 54.582031 300.730469 54.746094 300.730469 54.839844 C 300.734375 54.964844 301.136719 55.175781 301.230469 55.246094 C 301.589844 55.527344 302.09375 55.925781 302.234375 56.34375 C 302.414062 56.882812 301.800781 57.652344 301.507812 58.082031 C 301.433594 58.191406 301.222656 58.585938 301.027344 58.550781 C 300.800781 58.515625 300.605469 58.246094 300.457031 58.113281 C 300.070312 57.757812 299.644531 57.441406 299.257812 57.085938 C 299.203125 57.035156 299.148438 57.199219 299.09375 57.253906 C 298.980469 57.371094 298.863281 57.484375 298.75 57.601562 C 298.429688 57.9375 298.09375 58.265625 297.761719 58.59375 C 296.761719 59.578125 295.746094 60.546875 294.703125 61.492188 C 290.910156 64.914062 286.394531 67.855469 281.578125 70.066406 C 280.480469 70.574219 279.394531 71.148438 278.226562 71.53125 C 278.023438 71.597656 277.21875 71.660156 277.09375 71.613281 Z M 299.878906 54.132812 C 299.875 54.125 299.921875 53.96875 299.921875 53.960938 C 299.957031 53.855469 299.996094 53.75 300.019531 53.640625 C 300.097656 53.316406 300.148438 52.980469 300.125 52.648438 C 300.113281 52.464844 300.097656 52.277344 300.066406 52.09375 C 299.945312 51.390625 299.320312 50.402344 298.359375 50.605469 C 298.136719 50.652344 297.9375 50.753906 297.757812 50.875 C 297.625 50.960938 297.507812 51.066406 297.398438 51.175781 C 297.261719 51.316406 297.09375 51.492188 297.082031 51.6875 C 297.074219 51.832031 297.191406 51.949219 297.289062 52.050781 C 297.492188 52.273438 297.730469 52.457031 297.949219 52.664062 C 298.421875 53.09375 299.363281 53.738281 299.878906 54.132812 Z M 299.878906 54.132812 " fill-opacity="1" fill-rule="evenodd"/><path fill="#000000" d="M 306.214844 27.601562 C 306.941406 27.351562 308.421875 27.789062 309.121094 27.917969 C 312.152344 28.476562 315.078125 29.484375 317.878906 30.652344 C 328.300781 35.007812 335.855469 43.183594 340.527344 52.519531 C 341.695312 54.847656 342.660156 57.300781 343.257812 59.804688 C 343.417969 60.476562 343.902344 61.707031 343.566406 62.40625 C 343.269531 63.003906 342.511719 63.472656 341.996094 63.902344 C 340.894531 64.828125 339.871094 65.644531 338.609375 66.339844 C 336.980469 64.980469 334.695312 64.011719 332.847656 62.878906 C 332.285156 58.832031 330.367188 54.792969 328.394531 51.183594 C 325.03125 45.050781 320.578125 39.425781 315.167969 34.636719 C 312.714844 32.472656 309.234375 29.097656 306.214844 27.601562 Z M 306.214844 27.601562 " fill-opacity="1" fill-rule="evenodd"/><path fill="#000000" d="M 306.214844 113.519531 C 306.941406 113.769531 308.421875 113.332031 309.121094 113.203125 C 312.152344 112.644531 315.078125 111.636719 317.878906 110.464844 C 328.300781 106.109375 335.855469 97.9375 340.527344 88.601562 C 341.695312 86.273438 342.660156 83.820312 343.257812 81.316406 C 343.417969 80.644531 343.902344 79.410156 343.566406 78.714844 C 343.269531 78.117188 342.511719 77.648438 341.996094 77.21875 C 340.894531 76.292969 339.871094 75.476562 338.609375 74.78125 C 336.980469 76.140625 334.695312 77.109375 332.847656 78.242188 C 332.285156 82.289062 330.367188 86.328125 328.394531 89.9375 C 325.03125 96.070312 320.578125 101.695312 315.167969 106.484375 C 312.714844 108.648438 309.234375 112.023438 306.214844 113.519531 Z M 306.214844 113.519531 " fill-opacity="1" fill-rule="evenodd"/><path fill="#000000" d="M 351.84375 65.179688 C 351.558594 65.320312 351.292969 65.445312 351.222656 65.488281 C 349.570312 66.660156 347.941406 67.753906 346.09375 68.679688 C 345.460938 68.996094 344.808594 69.261719 344.164062 69.554688 C 344.0625 69.605469 343.773438 69.726562 343.625 69.863281 C 343.417969 70.050781 343.359375 70.269531 343.417969 70.484375 C 343.476562 70.703125 343.648438 70.882812 343.945312 70.96875 C 344.175781 71.03125 344.542969 71.019531 344.660156 71.019531 C 344.84375 71.023438 345.40625 71.214844 346.140625 71.480469 C 348.078125 72.167969 351.121094 73.417969 352.519531 74.128906 C 352.683594 74.210938 353.164062 74.507812 353.578125 74.769531 C 353.324219 74.917969 353.0625 75.0625 352.921875 75.109375 C 351.535156 75.59375 349.890625 76.085938 348.996094 77.234375 C 348.664062 77.664062 348.5625 78.160156 348.5625 78.6875 C 348.574219 79.308594 348.769531 79.972656 348.789062 80.539062 C 348.847656 82.0625 348.550781 83.386719 347.5625 84.648438 C 346.792969 85.644531 345.839844 86.585938 344.660156 87.183594 C 344.464844 87.285156 342.808594 88.011719 342.808594 88.011719 C 342.582031 88.117188 342.453125 88.347656 342.5 88.578125 C 342.546875 88.808594 342.765625 88.980469 343.015625 88.996094 C 343.015625 88.996094 345.554688 89.15625 346.3125 89.066406 C 350.214844 88.613281 352.589844 86.359375 354.300781 83.34375 C 354.554688 82.90625 354.738281 82.355469 354.933594 81.816406 C 355.105469 81.371094 355.277344 80.929688 355.5625 80.621094 C 355.839844 80.328125 356.238281 80.128906 356.652344 79.9375 C 357.171875 79.699219 357.699219 79.480469 358.109375 79.195312 C 359.386719 78.332031 360.28125 77.242188 361.105469 76.023438 C 361.429688 75.546875 361.726562 75.058594 362.015625 74.570312 C 362.164062 74.332031 363.035156 72.871094 363.035156 72.871094 C 363.183594 72.621094 363.082031 72.304688 362.804688 72.167969 C 362.804688 72.167969 361.921875 71.734375 361.761719 71.660156 C 361.1875 71.40625 359.601562 70.757812 358.421875 70.277344 C 358.410156 70.277344 362.964844 69.007812 362.964844 69.007812 C 363.253906 68.929688 363.425781 68.660156 363.355469 68.394531 C 363.355469 68.394531 362.886719 66.589844 361.921875 64.890625 C 361.246094 63.691406 360.316406 62.554688 359.167969 62.042969 C 358.742188 61.855469 358.167969 61.710938 357.628906 61.550781 C 357.191406 61.425781 356.78125 61.304688 356.527344 61.09375 C 356.433594 61.015625 356.421875 60.882812 356.402344 60.75 C 356.34375 60.492188 356.308594 60.226562 356.25 60.027344 C 355.964844 59.074219 355.515625 58.113281 354.953125 57.269531 C 352.613281 53.828125 346.734375 51.28125 342.535156 51.496094 C 342.257812 51.511719 342.03125 51.699219 341.996094 51.945312 C 341.960938 52.195312 342.121094 52.429688 342.386719 52.507812 C 343.738281 52.921875 344.863281 54.105469 345.828125 55.511719 C 347.367188 57.769531 348.433594 60.621094 349.136719 62.265625 C 349.617188 63.394531 350.085938 64.113281 351.210938 64.816406 C 351.417969 64.945312 351.625 65.070312 351.84375 65.179688 Z M 345.277344 88.058594 C 346.585938 87.382812 347.652344 86.347656 348.503906 85.246094 C 349.640625 83.785156 350.007812 82.261719 349.9375 80.5 C 349.914062 80.027344 349.777344 79.480469 349.730469 78.949219 C 349.6875 78.546875 349.6875 78.152344 349.9375 77.832031 C 350.707031 76.847656 352.152344 76.492188 353.335938 76.078125 C 353.726562 75.9375 354.910156 75.203125 354.910156 75.203125 C 355.070312 75.109375 355.148438 74.949219 355.148438 74.78125 C 355.160156 74.613281 355.070312 74.453125 354.921875 74.355469 C 354.921875 74.355469 353.40625 73.386719 353.082031 73.226562 C 351.441406 72.390625 347.621094 70.839844 345.78125 70.246094 C 345.65625 70.207031 345.554688 70.175781 345.4375 70.144531 C 345.851562 69.964844 346.253906 69.785156 346.65625 69.589844 C 348.5625 68.636719 350.226562 67.511719 351.9375 66.308594 C 352.074219 66.207031 353.164062 65.769531 353.417969 65.617188 C 353.589844 65.507812 353.644531 65.382812 353.667969 65.324219 C 353.726562 65.191406 353.761719 64.949219 353.484375 64.738281 C 353.394531 64.667969 352.875 64.480469 352.820312 64.460938 C 352.488281 64.328125 352.164062 64.15625 351.867188 63.964844 C 350.960938 63.394531 350.59375 62.804688 350.203125 61.894531 C 349.492188 60.207031 348.390625 57.285156 346.804688 54.96875 C 346.207031 54.078125 345.519531 53.28125 344.773438 52.660156 C 348.261719 53.191406 352.210938 55.222656 353.980469 57.8125 C 354.484375 58.574219 354.886719 59.441406 355.136719 60.300781 C 355.207031 60.523438 355.230469 60.84375 355.308594 61.125 C 355.390625 61.417969 355.539062 61.675781 355.746094 61.851562 C 356.035156 62.097656 356.46875 62.285156 356.953125 62.441406 C 357.527344 62.628906 358.191406 62.765625 358.664062 62.972656 C 359.601562 63.394531 360.339844 64.367188 360.902344 65.359375 C 361.507812 66.4375 361.898438 67.554688 362.09375 68.164062 C 362.09375 68.164062 356.609375 69.695312 356.609375 69.695312 C 356.390625 69.757812 356.230469 69.941406 356.207031 70.160156 C 356.195312 70.375 356.332031 70.578125 356.550781 70.664062 C 356.550781 70.664062 360.316406 72.164062 361.246094 72.585938 C 361.3125 72.621094 361.53125 72.726562 361.75 72.832031 C 361.484375 73.28125 361.105469 73.921875 361.015625 74.070312 C 360.726562 74.546875 360.441406 75.019531 360.121094 75.484375 C 359.375 76.585938 358.582031 77.582031 357.421875 78.363281 C 357.054688 78.617188 356.585938 78.804688 356.125 79.015625 C 355.574219 79.273438 355.058594 79.558594 354.691406 79.953125 C 354.3125 80.351562 354.058594 80.90625 353.851562 81.484375 C 353.667969 81.972656 353.507812 82.472656 353.289062 82.867188 C 351.753906 85.570312 349.664062 87.628906 346.171875 88.039062 C 345.96875 88.0625 345.644531 88.066406 345.277344 88.058594 Z M 345.277344 88.058594 " fill-opacity="1" fill-rule="evenodd"/><path fill="#000000" d="M 338.953125 74.957031 C 339.089844 74.863281 339.917969 74.316406 340.007812 74.25 C 341.285156 73.316406 343.71875 71.148438 344.875 70.109375 C 344.992188 70.011719 345.046875 69.886719 345.046875 69.75 C 345.046875 69.636719 345.015625 69.484375 344.875 69.339844 C 344.773438 69.234375 344.519531 69.09375 344.464844 69.054688 C 344.0625 68.785156 343.671875 68.519531 343.269531 68.257812 C 341.742188 67.230469 340.238281 66.09375 338.585938 65.21875 C 338.34375 65.085938 338.023438 65.144531 337.851562 65.347656 C 337.390625 65.878906 336.199219 66.402344 335.566406 66.792969 C 333.832031 67.875 332.03125 68.867188 330.277344 69.910156 C 330.023438 69.96875 329.917969 70.1875 329.910156 70.230469 C 329.863281 70.339844 329.792969 70.574219 330.046875 70.796875 C 330.082031 70.824219 330.308594 70.9375 330.390625 70.988281 C 330.5625 71.09375 330.734375 71.195312 330.90625 71.300781 C 331.503906 71.667969 332.125 72.011719 332.742188 72.347656 C 334.535156 73.324219 336.3125 74.339844 338.183594 75.175781 C 338.367188 75.257812 338.585938 75.246094 338.757812 75.144531 C 338.839844 75.097656 338.90625 75.03125 338.953125 74.957031 Z M 343.613281 69.78125 C 342.375 70.886719 340.386719 72.636719 339.285156 73.441406 C 339.195312 73.507812 338.65625 73.828125 338.320312 74.074219 C 336.613281 73.285156 334.980469 72.355469 333.328125 71.457031 C 332.730469 71.132812 332.136719 70.800781 331.550781 70.445312 L 331.515625 70.417969 C 333.085938 69.5 334.671875 68.609375 336.222656 67.648438 C 336.796875 67.289062 337.769531 66.808594 338.390625 66.324219 C 339.859375 67.148438 341.203125 68.167969 342.59375 69.09375 C 342.9375 69.320312 343.28125 69.550781 343.613281 69.78125 Z M 330.355469 70.929688 Z M 330.355469 70.929688 " fill-opacity="1" fill-rule="evenodd"/><g clip-path="url(#0592612cf6)"><path fill="#000000" d="M 362.921875 68.460938 L 374.617188 70.789062 L 362.921875 72.558594 L 358.019531 70.292969 Z M 362.921875 68.460938 " fill-opacity="1" fill-rule="evenodd"/></g><path fill="#000000" d="M 68.734375 23.183594 C 68.011719 22.933594 66.53125 23.371094 65.828125 23.5 C 62.800781 24.058594 59.871094 25.0625 57.070312 26.234375 C 46.648438 30.589844 39.097656 38.765625 34.425781 48.097656 C 33.253906 50.429688 32.289062 52.882812 31.691406 55.382812 C 31.53125 56.058594 31.050781 57.289062 31.382812 57.984375 C 31.679688 58.585938 32.4375 59.054688 32.953125 59.484375 C 34.058594 60.410156 35.078125 61.226562 36.339844 61.921875 C 37.972656 60.5625 40.253906 59.59375 42.101562 58.460938 C 42.664062 54.414062 44.582031 50.375 46.558594 46.765625 C 49.921875 40.632812 54.375 35.007812 59.78125 30.21875 C 62.238281 28.054688 65.714844 24.679688 68.734375 23.183594 Z M 68.734375 23.183594 " fill-opacity="1" fill-rule="evenodd"/><path fill="#000000" d="M 68.734375 109.101562 C 68.011719 109.347656 66.53125 108.910156 65.828125 108.785156 C 62.800781 108.226562 59.871094 107.21875 57.070312 106.046875 C 46.648438 101.691406 39.097656 93.519531 34.425781 84.183594 C 33.253906 81.855469 32.289062 79.402344 31.691406 76.898438 C 31.53125 76.226562 31.050781 74.992188 31.382812 74.296875 C 31.679688 73.699219 32.4375 73.230469 32.953125 72.796875 C 34.058594 71.875 35.078125 71.058594 36.339844 70.359375 C 37.972656 71.722656 40.253906 72.6875 42.101562 73.824219 C 42.664062 77.867188 44.582031 81.910156 46.558594 85.519531 C 49.921875 91.652344 54.375 97.277344 59.78125 102.066406 C 62.238281 104.230469 65.714844 107.605469 68.734375 109.101562 Z M 68.734375 109.101562 " fill-opacity="1" fill-rule="evenodd"/><path fill="#000000" d="M 23.105469 60.761719 C 23.394531 60.898438 23.65625 61.027344 23.726562 61.070312 C 25.378906 62.242188 27.007812 63.335938 28.855469 64.261719 C 29.488281 64.578125 30.144531 64.84375 30.785156 65.136719 C 30.890625 65.1875 31.175781 65.308594 31.324219 65.445312 C 31.53125 65.632812 31.589844 65.851562 31.53125 66.066406 C 31.472656 66.285156 31.300781 66.464844 31.003906 66.550781 C 30.773438 66.613281 30.40625 66.601562 30.292969 66.601562 C 30.109375 66.605469 29.546875 66.796875 28.8125 67.058594 C 26.871094 67.75 23.828125 69 22.429688 69.710938 C 22.269531 69.792969 21.785156 70.089844 21.375 70.351562 C 21.625 70.5 21.890625 70.640625 22.027344 70.691406 C 23.417969 71.175781 25.058594 71.664062 25.953125 72.816406 C 26.285156 73.246094 26.390625 73.742188 26.390625 74.269531 C 26.378906 74.890625 26.183594 75.554688 26.160156 76.121094 C 26.101562 77.644531 26.402344 78.96875 27.386719 80.230469 C 28.15625 81.226562 29.109375 82.167969 30.292969 82.765625 C 30.488281 82.867188 32.140625 83.59375 32.140625 83.59375 C 32.371094 83.695312 32.496094 83.929688 32.449219 84.160156 C 32.402344 84.390625 32.1875 84.558594 31.933594 84.578125 C 31.933594 84.578125 29.398438 84.738281 28.640625 84.648438 C 24.738281 84.191406 22.359375 81.941406 20.648438 78.925781 C 20.398438 78.488281 20.214844 77.933594 20.019531 77.398438 C 19.847656 76.949219 19.675781 76.511719 19.386719 76.203125 C 19.113281 75.910156 18.710938 75.710938 18.296875 75.519531 C 17.78125 75.28125 17.253906 75.0625 16.839844 74.777344 C 15.566406 73.914062 14.667969 72.824219 13.84375 71.605469 C 13.523438 71.128906 13.222656 70.640625 12.9375 70.148438 C 12.785156 69.914062 11.914062 68.453125 11.914062 68.453125 C 11.765625 68.199219 11.867188 67.886719 12.144531 67.75 C 12.144531 67.75 13.027344 67.316406 13.1875 67.242188 C 13.761719 66.984375 15.347656 66.335938 16.527344 65.859375 C 16.539062 65.859375 11.984375 64.589844 11.984375 64.589844 C 11.695312 64.507812 11.523438 64.242188 11.59375 63.976562 C 11.59375 63.976562 12.0625 62.171875 13.027344 60.472656 C 13.707031 59.269531 14.636719 58.132812 15.78125 57.625 C 16.207031 57.433594 16.78125 57.292969 17.320312 57.132812 C 17.757812 57.007812 18.171875 56.882812 18.421875 56.675781 C 18.515625 56.597656 18.527344 56.464844 18.550781 56.332031 C 18.605469 56.074219 18.640625 55.804688 18.699219 55.605469 C 18.984375 54.652344 19.433594 53.695312 19.996094 52.851562 C 22.335938 49.410156 28.214844 46.863281 32.414062 47.078125 C 32.691406 47.09375 32.921875 47.28125 32.953125 47.527344 C 32.988281 47.773438 32.828125 48.011719 32.566406 48.089844 C 31.210938 48.5 30.085938 49.683594 29.121094 51.09375 C 27.582031 53.351562 26.515625 56.203125 25.816406 57.84375 C 25.332031 58.976562 24.863281 59.691406 23.738281 60.398438 C 23.53125 60.527344 23.324219 60.652344 23.105469 60.761719 Z M 29.671875 83.640625 C 28.363281 82.964844 27.296875 81.929688 26.445312 80.824219 C 25.308594 79.367188 24.941406 77.839844 25.011719 76.082031 C 25.035156 75.605469 25.171875 75.0625 25.21875 74.53125 C 25.265625 74.128906 25.265625 73.734375 25.011719 73.414062 C 24.242188 72.429688 22.796875 72.074219 21.613281 71.660156 C 21.222656 71.519531 20.042969 70.785156 20.042969 70.785156 C 19.878906 70.691406 19.800781 70.53125 19.800781 70.363281 C 19.789062 70.195312 19.878906 70.035156 20.03125 69.9375 C 20.03125 69.9375 21.546875 68.96875 21.867188 68.804688 C 23.507812 67.972656 27.332031 66.421875 29.167969 65.828125 C 29.292969 65.789062 29.398438 65.753906 29.511719 65.726562 C 29.097656 65.546875 28.695312 65.367188 28.292969 65.171875 C 26.390625 64.214844 24.726562 63.09375 23.015625 61.886719 C 22.875 61.789062 21.785156 61.351562 21.535156 61.199219 C 21.363281 61.089844 21.304688 60.964844 21.28125 60.90625 C 21.222656 60.769531 21.1875 60.527344 21.464844 60.320312 C 21.558594 60.25 22.074219 60.058594 22.128906 60.039062 C 22.464844 59.910156 22.785156 59.738281 23.082031 59.546875 C 23.988281 58.976562 24.359375 58.386719 24.746094 57.476562 C 25.460938 55.789062 26.5625 52.863281 28.144531 50.550781 C 28.742188 49.660156 29.429688 48.863281 30.175781 48.242188 L 30.175781 48.238281 C 26.6875 48.773438 22.738281 50.804688 20.972656 53.394531 C 20.464844 54.15625 20.066406 55.019531 19.8125 55.882812 C 19.742188 56.105469 19.71875 56.425781 19.640625 56.707031 C 19.558594 57 19.410156 57.257812 19.203125 57.433594 C 18.917969 57.679688 18.480469 57.867188 18 58.023438 C 17.425781 58.210938 16.757812 58.347656 16.289062 58.554688 C 15.347656 58.976562 14.613281 59.949219 14.050781 60.941406 C 13.441406 62.015625 13.050781 63.136719 12.855469 63.746094 C 12.855469 63.746094 18.34375 65.273438 18.34375 65.273438 C 18.5625 65.339844 18.722656 65.523438 18.746094 65.742188 C 18.757812 65.957031 18.617188 66.15625 18.398438 66.246094 C 18.398438 66.246094 14.636719 67.746094 13.707031 68.167969 C 13.636719 68.203125 13.417969 68.308594 13.199219 68.414062 C 13.464844 68.863281 13.84375 69.503906 13.933594 69.652344 C 14.222656 70.128906 14.507812 70.601562 14.832031 71.0625 C 15.578125 72.167969 16.367188 73.164062 17.527344 73.945312 C 17.894531 74.199219 18.367188 74.386719 18.824219 74.597656 C 19.375 74.851562 19.890625 75.140625 20.257812 75.535156 C 20.636719 75.933594 20.890625 76.488281 21.097656 77.066406 C 21.28125 77.550781 21.441406 78.054688 21.660156 78.449219 C 23.199219 81.152344 25.289062 83.210938 28.777344 83.617188 C 28.984375 83.644531 29.304688 83.648438 29.671875 83.640625 Z M 29.671875 83.640625 " fill-opacity="1" fill-rule="evenodd"/><path fill="#000000" d="M 35.996094 70.539062 C 35.859375 70.445312 35.03125 69.898438 34.941406 69.828125 C 33.667969 68.898438 31.234375 66.730469 30.074219 65.6875 C 29.960938 65.59375 29.902344 65.464844 29.902344 65.332031 C 29.902344 65.21875 29.9375 65.066406 30.074219 64.921875 C 30.175781 64.816406 30.429688 64.671875 30.488281 64.632812 C 30.890625 64.367188 31.277344 64.101562 31.679688 63.835938 C 33.207031 62.8125 34.710938 61.675781 36.363281 60.800781 C 36.605469 60.667969 36.925781 60.722656 37.097656 60.929688 C 37.558594 61.460938 38.75 61.980469 39.382812 62.375 C 41.117188 63.453125 42.917969 64.449219 44.675781 65.492188 C 44.925781 65.550781 45.03125 65.769531 45.042969 65.8125 C 45.085938 65.921875 45.15625 66.15625 44.902344 66.378906 C 44.871094 66.402344 44.640625 66.519531 44.558594 66.570312 C 44.386719 66.671875 44.214844 66.777344 44.042969 66.882812 C 43.445312 67.25 42.828125 67.589844 42.207031 67.929688 C 40.414062 68.90625 38.636719 69.917969 36.765625 70.757812 C 36.582031 70.839844 36.363281 70.828125 36.191406 70.726562 C 36.113281 70.675781 36.042969 70.613281 35.996094 70.539062 Z M 31.335938 65.359375 C 32.574219 66.46875 34.5625 68.214844 35.664062 69.023438 C 35.753906 69.085938 36.296875 69.410156 36.628906 69.65625 C 38.339844 68.867188 39.96875 67.9375 41.621094 67.039062 C 42.21875 66.710938 42.816406 66.382812 43.398438 66.023438 L 43.433594 66 C 41.863281 65.082031 40.277344 64.191406 38.730469 63.230469 C 38.15625 62.871094 37.179688 62.390625 36.558594 61.902344 C 35.089844 62.730469 33.746094 63.75 32.359375 64.671875 C 32.015625 64.902344 31.667969 65.128906 31.335938 65.359375 Z M 44.59375 66.511719 Z M 44.59375 66.511719 " fill-opacity="1" fill-rule="evenodd"/><g clip-path="url(#bdaaa3d395)"><path fill="#000000" d="M 12.03125 64.042969 L 0.332031 66.371094 L 12.03125 68.140625 L 16.929688 65.871094 Z M 12.03125 64.042969 " fill-opacity="1" fill-rule="evenodd"/></g><path fill="#000000" d="M 155.542969 36.53125 C 155.511719 36.628906 155.042969 36.996094 154.949219 37.113281 C 154.507812 37.636719 154.089844 38.171875 153.707031 38.730469 C 152.378906 40.671875 151.109375 42.765625 150.492188 44.992188 C 150.199219 46.058594 149.988281 47.21875 150.308594 48.300781 C 151.039062 50.738281 154.925781 51.097656 157.070312 50.050781 C 158.65625 49.277344 159.632812 47.300781 159.695312 45.730469 C 159.773438 43.800781 158.777344 42.203125 157.199219 40.972656 C 156.582031 40.492188 155.378906 39.996094 155.027344 39.296875 C 154.890625 39.023438 155.128906 38.671875 155.265625 38.433594 C 155.59375 37.847656 156.628906 36.882812 155.542969 36.53125 Z M 153.523438 42.320312 C 153.199219 42.558594 152.761719 43.382812 152.617188 43.726562 C 152.46875 44.070312 152.308594 44.421875 152.289062 44.792969 C 152.203125 46.550781 154.140625 47.003906 155.710938 46.832031 C 156.261719 46.773438 156.824219 46.691406 157.363281 46.566406 C 157.554688 46.523438 157.832031 46.449219 157.921875 46.265625 C 158.105469 45.878906 154.316406 42.363281 153.523438 42.320312 Z M 153.523438 42.320312 " fill-opacity="1" fill-rule="evenodd"/><path fill="#000000" d="M 80.28125 33.464844 C 80.246094 33.5625 79.78125 33.929688 79.683594 34.042969 C 79.246094 34.570312 78.828125 35.105469 78.445312 35.664062 C 77.117188 37.605469 75.847656 39.695312 75.230469 41.925781 C 74.9375 42.992188 74.722656 44.152344 75.046875 45.234375 C 75.777344 47.671875 79.664062 48.03125 81.808594 46.984375 C 83.394531 46.207031 84.371094 44.230469 84.433594 42.664062 C 84.511719 40.734375 83.515625 39.136719 81.9375 37.90625 C 81.320312 37.425781 80.117188 36.929688 79.761719 36.230469 C 79.625 35.957031 79.867188 35.605469 80 35.367188 C 80.332031 34.78125 81.363281 33.816406 80.28125 33.464844 Z M 78.261719 39.253906 C 77.9375 39.492188 77.5 40.316406 77.355469 40.660156 C 77.207031 41.003906 77.046875 41.351562 77.027344 41.726562 C 76.941406 43.484375 78.875 43.9375 80.445312 43.765625 C 81 43.707031 81.5625 43.625 82.101562 43.5 C 82.292969 43.457031 82.570312 43.378906 82.65625 43.199219 C 82.84375 42.8125 79.054688 39.296875 78.261719 39.253906 Z M 78.261719 39.253906 " fill-opacity="1" fill-rule="evenodd"/><path fill="#000000" d="M 168.308594 35.214844 C 168.65625 34.84375 169.019531 35.941406 169.386719 36.289062 C 170.242188 37.097656 171.125 37.902344 172.066406 38.613281 C 172.261719 38.761719 172.984375 39.414062 173.277344 39.128906 C 173.925781 38.5 172.382812 35.535156 172.15625 34.957031 C 170.761719 31.460938 169.148438 27.945312 167.273438 24.683594 C 166.980469 24.179688 165.9375 21.8125 165.246094 21.792969 C 164.734375 21.78125 164.289062 22.523438 164.039062 22.878906 C 163.378906 23.8125 161.078125 26.675781 161.453125 27.863281 C 161.675781 28.574219 163.386719 29.203125 163.972656 29.613281 C 163.984375 29.53125 163.902344 30.050781 163.894531 30.132812 C 163.851562 30.550781 163.835938 30.972656 163.832031 31.394531 C 163.824219 32.675781 163.863281 33.957031 163.953125 35.234375 C 164.222656 39.082031 165.191406 42.898438 165.9375 46.671875 C 168.132812 57.75 170.824219 69.015625 171.277344 80.335938 C 171.222656 80.269531 170.847656 80.597656 170.8125 80.621094 C 170.230469 80.984375 169.613281 81.269531 168.984375 81.542969 C 167.515625 82.183594 165.972656 82.726562 164.429688 83.160156 C 162.09375 83.8125 159.714844 84.132812 157.296875 84.226562 C 156.09375 84.273438 154.34375 83.972656 153.292969 84.714844 C 152.296875 85.417969 151.917969 86.773438 151.542969 87.867188 C 151.0625 89.269531 150.472656 90.621094 149.941406 92.003906 C 149.988281 91.898438 151.3125 91.96875 151.402344 91.96875 C 153.121094 91.972656 154.835938 92.039062 156.550781 92.144531 C 163.34375 92.574219 170.109375 93.203125 176.84375 94.199219 C 177.09375 94.234375 176.425781 94.476562 176.207031 94.605469 C 175.695312 94.914062 175.179688 95.214844 174.664062 95.515625 C 173.265625 96.34375 171.851562 97.160156 170.421875 97.921875 C 166.195312 100.175781 160.417969 103.902344 155.40625 102.296875 C 155.476562 102.097656 154.457031 101.777344 154.324219 101.703125 C 153.054688 101.015625 151.765625 100.222656 150.605469 99.355469 C 147.953125 97.375 145.667969 93.089844 144.679688 89.964844 C 141.316406 79.363281 141.609375 70.324219 140.261719 60.082031 C 138.949219 50.109375 137.253906 39.953125 134.523438 30.257812 C 133.921875 28.117188 133.152344 26.003906 132.171875 24.003906 C 132.074219 23.800781 131.402344 22.152344 131.027344 22.320312 C 130.4375 22.582031 130 23.867188 129.765625 24.398438 C 128.945312 26.277344 128.007812 29 128.394531 31.109375 C 128.484375 31.597656 130.09375 29.769531 130.699219 30.953125 C 132.769531 34.96875 133.253906 40.621094 133.996094 45 C 136.554688 60.085938 136.445312 75.535156 139.433594 90.582031 C 140.902344 97.980469 143.996094 106.085938 151.878906 108.53125 C 155.253906 109.578125 158.917969 108.910156 162.269531 108.101562 C 170.492188 106.125 177.40625 101.113281 185.328125 98.410156 C 188.65625 97.273438 192.203125 96.464844 195.707031 96.128906 C 196.707031 96.035156 199.726562 96.6875 200.542969 96.097656 C 201.652344 95.296875 202.484375 90.191406 201.054688 89.667969 C 195.992188 87.820312 174.90625 88.363281 169.195312 86.582031 C 169.25 86.738281 169.492188 86.4375 169.644531 86.371094 C 169.953125 86.238281 170.253906 86.070312 170.550781 85.910156 C 171.855469 85.191406 173.453125 84.421875 174.125 83 C 174.714844 81.75 174.644531 80.203125 174.617188 78.859375 C 174.5625 76.160156 174.285156 73.46875 173.984375 70.785156 C 172.664062 59.105469 170.332031 46.78125 168.308594 35.214844 Z M 168.308594 35.214844 " fill-opacity="1" fill-rule="evenodd"/><path fill="#000000" d="M 80.789062 91.9375 C 80.765625 92.007812 80.539062 92.445312 80.488281 92.542969 C 80.277344 92.945312 80.027344 93.332031 79.773438 93.710938 C 78.960938 94.910156 78.117188 96.117188 77.109375 97.15625 C 74.285156 100.058594 68.609375 101.878906 65.808594 97.960938 C 63.964844 95.382812 64.613281 92.160156 66.105469 89.621094 C 68.90625 84.855469 73.695312 81.390625 77.964844 78.035156 C 77.59375 75.121094 76.929688 72.339844 76.894531 69.359375 C 76.890625 69.003906 76.933594 65.949219 77.851562 66.785156 C 78.378906 67.269531 78.609375 68.132812 78.84375 68.777344 C 79.320312 70.101562 79.75 71.441406 80.160156 72.785156 C 80.308594 73.277344 80.480469 74.726562 81.003906 74.984375 C 81.542969 75.25 82.328125 74 82.570312 73.703125 C 83.609375 72.445312 84.710938 71.226562 85.972656 70.191406 C 86.144531 70.046875 86.324219 69.910156 86.511719 69.789062 C 87.851562 68.949219 87.019531 71.050781 86.765625 71.523438 C 86.5625 71.898438 86.339844 72.257812 86.113281 72.617188 C 85.746094 73.21875 85.359375 73.804688 84.949219 74.375 C 84.296875 75.273438 83.5625 76.09375 82.847656 76.941406 C 82.109375 77.8125 82.464844 79.332031 82.445312 80.457031 C 82.410156 82.765625 82.59375 85.023438 83.070312 87.285156 C 84.25 92.90625 86.589844 100.492188 92.800781 102.328125 C 94.351562 102.785156 96.074219 102.65625 97.664062 102.515625 C 99.160156 102.382812 100.667969 102.089844 102.085938 101.589844 C 105.199219 100.496094 107.148438 97.835938 109.070312 95.289062 C 109.746094 94.394531 110.355469 93.449219 111.050781 92.570312 C 111.238281 92.335938 111.566406 91.832031 111.910156 91.808594 C 112.175781 91.789062 112.304688 92.222656 112.359375 92.410156 C 112.582031 93.148438 112.652344 93.945312 112.800781 94.703125 C 113.257812 97.007812 114.054688 99.59375 116.511719 100.421875 C 117.917969 100.898438 119.53125 100.671875 120.867188 100.082031 C 121.234375 99.921875 121.808594 99.761719 122.003906 99.367188 C 122.195312 98.984375 122.066406 98.34375 122.019531 97.941406 C 121.863281 96.628906 120.636719 94.855469 119.820312 93.789062 C 119.980469 92.402344 121.183594 90.726562 121.84375 89.527344 C 121.976562 89.289062 122.453125 88.03125 122.902344 88.3125 C 123.667969 88.789062 123.9375 90.652344 124.175781 91.429688 C 125.242188 94.917969 125.601562 99.164062 124.074219 102.5625 C 123.070312 104.796875 121.257812 107.445312 118.765625 108.136719 C 114.269531 109.386719 109.335938 105.394531 109.855469 100.699219 C 109.863281 100.640625 109.515625 101.1875 109.488281 101.222656 C 109.28125 101.550781 109.058594 101.867188 108.835938 102.183594 C 108.167969 103.113281 107.476562 104.015625 106.765625 104.910156 C 104.386719 107.886719 101.644531 110.542969 97.597656 110.507812 C 88.246094 110.429688 81.28125 100.511719 80.789062 91.9375 C 80.792969 91.929688 80.792969 91.925781 80.789062 91.929688 Z M 78.554688 89.421875 C 78.609375 89.375 78.511719 90.441406 78.511719 90.441406 C 78.511719 90.441406 78.023438 90.847656 77.953125 90.914062 C 77.414062 91.425781 72.777344 95.628906 70.144531 95.351562 C 69.308594 95.261719 68.253906 94.480469 67.914062 93.535156 C 67.503906 92.394531 68.238281 91.023438 68.824219 90.085938 C 70.394531 87.578125 72.558594 85.441406 74.863281 83.609375 C 75.609375 83.015625 76.375 82.441406 77.15625 81.898438 C 77.386719 81.738281 77.789062 81.382812 78.089844 81.550781 C 78.5 81.78125 78.46875 82.601562 78.503906 82.996094 C 78.617188 84.253906 78.492188 88.160156 78.554688 89.421875 Z M 78.554688 89.421875 " fill-opacity="1" fill-rule="evenodd"/><g clip-path="url(#039d0221e8)"><path fill="#000000" d="M 185.464844 20.6875 C 185.402344 20.730469 185.53125 20.574219 185.5625 20.519531 C 185.628906 20.398438 185.691406 20.28125 185.761719 20.164062 C 185.96875 19.792969 186.179688 19.421875 186.375 19.050781 C 186.941406 17.988281 187.582031 16.941406 188.140625 15.878906 C 188.140625 15.957031 188.289062 16.09375 188.332031 16.160156 C 188.457031 16.371094 188.570312 16.585938 188.6875 16.796875 C 189.085938 17.511719 189.441406 18.238281 189.816406 18.960938 C 191.347656 21.917969 193.078125 24.828125 194.460938 27.828125 C 194.679688 28.296875 194.890625 28.773438 195.074219 29.25 C 195.179688 29.527344 195.285156 29.808594 195.359375 30.09375 C 195.398438 30.246094 195.4375 30.402344 195.453125 30.558594 C 195.46875 30.660156 195.472656 30.761719 195.46875 30.867188 C 195.464844 30.929688 195.457031 30.988281 195.433594 31.050781 C 195.207031 31.6875 194.355469 30.820312 194.136719 30.640625 C 194.042969 30.558594 193.945312 30.484375 193.847656 30.40625 C 193.742188 30.316406 193.632812 30.230469 193.523438 30.140625 C 193.371094 30.019531 193.222656 29.898438 193.074219 29.777344 C 192.875 29.613281 192.675781 29.449219 192.476562 29.285156 C 192.273438 29.121094 192.070312 28.953125 191.878906 28.78125 C 191.808594 28.71875 191.886719 28.949219 191.894531 29.035156 C 191.921875 29.238281 191.945312 29.441406 191.972656 29.644531 C 192.039062 30.175781 192.113281 30.710938 192.203125 31.242188 C 192.464844 32.800781 192.769531 34.355469 193.046875 35.914062 C 193.882812 40.636719 194.554688 45.390625 195.183594 50.132812 C 195.039062 50.105469 195.234375 50.351562 195.257812 50.460938 C 195.3125 50.730469 195.339844 50.996094 195.386719 51.265625 C 195.503906 52 195.625 52.730469 195.738281 53.46875 C 196.066406 55.589844 196.382812 57.710938 196.65625 59.839844 C 197.722656 68.074219 199.734375 76.816406 197.9375 85.148438 C 197.550781 86.949219 197.300781 89.007812 196.070312 90.628906 C 195.902344 90.847656 195.039062 92.046875 194.601562 92.019531 C 194.507812 92.015625 194.472656 91.933594 194.453125 91.878906 C 194.074219 90.839844 194.582031 89.300781 194.585938 88.238281 C 194.585938 84.007812 194.347656 79.8125 193.835938 75.605469 C 192.113281 61.398438 186.578125 25.871094 186.480469 22.527344 C 186.480469 22.527344 186.214844 22.0625 186.191406 22.023438 C 186 21.6875 185.667969 21.015625 185.464844 20.6875 Z M 185.464844 20.6875 " fill-opacity="1" fill-rule="evenodd"/></g></svg>