<svg xmlns="http://www.w3.org/2000/svg" xmlns:xlink="http://www.w3.org/1999/xlink" width="500" zoomAndPan="magnify" viewBox="0 0 375 149.999998" height="200" preserveAspectRatio="xMidYMid meet" version="1.0"><defs><clipPath id="cbdebd8ea7"><path d="M 306 84 L 344 84 L 344 140.625 L 306 140.625 Z M 306 84 " clip-rule="nonzero"/></clipPath><clipPath id="d2856f7af9"><path d="M 31 9.375 L 69 9.375 L 69 66 L 31 66 Z M 31 9.375 " clip-rule="nonzero"/></clipPath></defs><path fill="#000000" d="M 306.144531 16.117188 C 306.867188 15.757812 308.347656 16.390625 309.046875 16.574219 C 312.078125 17.378906 315.003906 18.835938 317.800781 20.527344 C 328.21875 26.820312 335.769531 38.625 340.441406 52.113281 C 341.609375 55.476562 342.574219 59.023438 343.171875 62.636719 C 343.332031 63.609375 343.8125 65.390625 343.480469 66.394531 C 343.183594 67.261719 342.425781 67.9375 341.910156 68.558594 C 340.808594 69.898438 339.785156 71.074219 338.523438 72.082031 C 336.894531 70.117188 334.613281 68.71875 332.765625 67.078125 C 332.203125 61.234375 330.285156 55.398438 328.3125 50.183594 C 324.949219 41.324219 320.5 33.199219 315.09375 26.28125 C 312.640625 23.152344 309.160156 18.277344 306.144531 16.117188 Z M 306.144531 16.117188 " fill-opacity="1" fill-rule="evenodd"/><g clip-path="url(#cbdebd8ea7)"><path fill="#000000" d="M 306.144531 140.238281 C 306.867188 140.597656 308.347656 139.964844 309.046875 139.78125 C 312.078125 138.972656 315.003906 137.519531 317.800781 135.828125 C 328.21875 129.535156 335.769531 117.726562 340.441406 104.242188 C 341.609375 100.878906 342.574219 97.332031 343.171875 93.71875 C 343.332031 92.742188 343.8125 90.964844 343.480469 89.957031 C 343.183594 89.09375 342.425781 88.417969 341.910156 87.792969 C 340.808594 86.457031 339.785156 85.277344 338.523438 84.273438 C 336.894531 86.238281 334.613281 87.636719 332.765625 89.273438 C 332.203125 95.121094 330.285156 100.957031 328.3125 106.171875 C 324.949219 115.03125 320.5 123.15625 315.09375 130.074219 C 312.640625 133.199219 309.160156 138.078125 306.144531 140.238281 Z M 306.144531 140.238281 " fill-opacity="1" fill-rule="evenodd"/></g><path fill="#000000" d="M 351.753906 70.40625 C 351.46875 70.605469 351.203125 70.789062 351.132812 70.851562 C 349.480469 72.542969 347.851562 74.125 346.003906 75.460938 C 345.375 75.917969 344.71875 76.300781 344.078125 76.726562 C 343.972656 76.796875 343.6875 76.972656 343.539062 77.171875 C 343.332031 77.441406 343.273438 77.757812 343.332031 78.070312 C 343.390625 78.382812 343.5625 78.644531 343.859375 78.765625 C 344.089844 78.859375 344.457031 78.839844 344.570312 78.839844 C 344.753906 78.84375 345.316406 79.125 346.050781 79.503906 C 347.992188 80.5 351.03125 82.304688 352.429688 83.332031 C 352.589844 83.453125 353.074219 83.882812 353.488281 84.261719 C 353.234375 84.472656 352.96875 84.679688 352.832031 84.75 C 351.445312 85.449219 349.804688 86.15625 348.910156 87.820312 C 348.574219 88.4375 348.472656 89.15625 348.472656 89.917969 C 348.484375 90.816406 348.679688 91.777344 348.703125 92.59375 C 348.757812 94.792969 348.460938 96.707031 347.472656 98.53125 C 346.707031 99.96875 345.753906 101.328125 344.570312 102.195312 C 344.375 102.335938 342.722656 103.390625 342.722656 103.390625 C 342.496094 103.539062 342.367188 103.871094 342.414062 104.203125 C 342.460938 104.539062 342.679688 104.785156 342.929688 104.8125 C 342.929688 104.8125 345.464844 105.042969 346.222656 104.914062 C 350.125 104.253906 352.5 101 354.210938 96.644531 C 354.460938 96.011719 354.644531 95.214844 354.839844 94.4375 C 355.011719 93.792969 355.183594 93.15625 355.472656 92.710938 C 355.746094 92.285156 356.148438 92 356.5625 91.722656 C 357.078125 91.382812 357.605469 91.0625 358.019531 90.652344 C 359.292969 89.40625 360.1875 87.832031 361.011719 86.070312 C 361.335938 85.382812 361.632812 84.675781 361.917969 83.96875 C 362.070312 83.628906 362.941406 81.515625 362.941406 81.515625 C 363.089844 81.152344 362.988281 80.699219 362.710938 80.5 C 362.710938 80.5 361.828125 79.875 361.667969 79.765625 C 361.09375 79.394531 359.511719 78.460938 358.328125 77.769531 C 358.316406 77.765625 362.871094 75.933594 362.871094 75.933594 C 363.160156 75.820312 363.332031 75.429688 363.261719 75.046875 C 363.261719 75.046875 362.792969 72.441406 361.828125 69.984375 C 361.152344 68.25 360.222656 66.609375 359.074219 65.871094 C 358.648438 65.597656 358.074219 65.394531 357.535156 65.164062 C 357.101562 64.984375 356.6875 64.804688 356.433594 64.5 C 356.34375 64.390625 356.332031 64.195312 356.308594 64.007812 C 356.25 63.632812 356.21875 63.246094 356.160156 62.957031 C 355.871094 61.582031 355.425781 60.195312 354.863281 58.980469 C 352.523438 54.007812 346.648438 50.328125 342.449219 50.636719 C 342.171875 50.660156 341.945312 50.933594 341.910156 51.285156 C 341.875 51.644531 342.035156 51.984375 342.300781 52.097656 C 343.652344 52.691406 344.777344 54.402344 345.742188 56.4375 C 347.277344 59.699219 348.347656 63.820312 349.046875 66.191406 C 349.527344 67.824219 350 68.859375 351.121094 69.878906 C 351.328125 70.066406 351.535156 70.246094 351.753906 70.40625 Z M 345.191406 103.457031 C 346.5 102.480469 347.566406 100.984375 348.414062 99.390625 C 349.550781 97.285156 349.917969 95.078125 349.847656 92.539062 C 349.828125 91.851562 349.6875 91.0625 349.644531 90.292969 C 349.597656 89.71875 349.597656 89.144531 349.847656 88.683594 C 350.617188 87.257812 352.0625 86.746094 353.246094 86.148438 C 353.636719 85.949219 354.816406 84.886719 354.816406 84.886719 C 354.976562 84.746094 355.058594 84.519531 355.058594 84.273438 C 355.070312 84.03125 354.976562 83.804688 354.828125 83.660156 C 354.828125 83.660156 353.3125 82.257812 352.992188 82.027344 C 351.351562 80.824219 347.53125 78.578125 345.695312 77.726562 C 345.570312 77.667969 345.464844 77.617188 345.351562 77.574219 C 345.765625 77.320312 346.164062 77.058594 346.566406 76.773438 C 348.472656 75.394531 350.136719 73.773438 351.84375 72.03125 C 351.984375 71.886719 353.074219 71.253906 353.324219 71.035156 C 353.496094 70.875 353.554688 70.695312 353.578125 70.613281 C 353.636719 70.417969 353.671875 70.070312 353.394531 69.769531 C 353.304688 69.664062 352.785156 69.390625 352.730469 69.363281 C 352.394531 69.175781 352.074219 68.925781 351.777344 68.648438 C 350.871094 67.828125 350.503906 66.976562 350.113281 65.65625 C 349.402344 63.222656 348.300781 58.996094 346.714844 55.652344 C 346.121094 54.367188 345.429688 53.214844 344.6875 52.316406 C 348.175781 53.085938 352.121094 56.019531 353.886719 59.761719 C 354.394531 60.863281 354.792969 62.113281 355.046875 63.355469 C 355.117188 63.679688 355.136719 64.140625 355.21875 64.546875 C 355.300781 64.96875 355.449219 65.339844 355.65625 65.59375 C 355.941406 65.949219 356.378906 66.222656 356.859375 66.449219 C 357.433594 66.71875 358.097656 66.917969 358.570312 67.214844 C 359.511719 67.828125 360.246094 69.230469 360.808594 70.664062 C 361.414062 72.21875 361.804688 73.835938 362 74.714844 C 362 74.714844 356.515625 76.925781 356.515625 76.925781 C 356.296875 77.019531 356.136719 77.285156 356.113281 77.597656 C 356.101562 77.910156 356.238281 78.199219 356.457031 78.324219 C 356.457031 78.324219 360.222656 80.496094 361.152344 81.105469 C 361.21875 81.152344 361.4375 81.308594 361.65625 81.460938 C 361.390625 82.109375 361.011719 83.03125 360.921875 83.246094 C 360.636719 83.933594 360.347656 84.621094 360.027344 85.289062 C 359.28125 86.882812 358.488281 88.324219 357.332031 89.453125 C 356.964844 89.816406 356.492188 90.085938 356.035156 90.390625 C 355.484375 90.761719 354.964844 91.175781 354.597656 91.746094 C 354.222656 92.320312 353.96875 93.125 353.761719 93.957031 C 353.578125 94.660156 353.417969 95.386719 353.199219 95.957031 C 351.660156 99.859375 349.574219 102.835938 346.085938 103.425781 C 345.878906 103.460938 345.558594 103.464844 345.191406 103.457031 Z M 345.191406 103.457031 " fill-opacity="1" fill-rule="evenodd"/><path fill="#000000" d="M 338.867188 84.527344 C 339.007812 84.394531 339.832031 83.601562 339.925781 83.503906 C 341.199219 82.15625 343.628906 79.027344 344.789062 77.523438 C 344.902344 77.386719 344.960938 77.203125 344.960938 77.007812 C 344.960938 76.84375 344.925781 76.621094 344.789062 76.414062 C 344.6875 76.261719 344.433594 76.054688 344.375 76 C 343.972656 75.613281 343.585938 75.230469 343.183594 74.847656 C 341.65625 73.367188 340.152344 71.726562 338.5 70.460938 C 338.261719 70.269531 337.9375 70.351562 337.765625 70.648438 C 337.308594 71.414062 336.113281 72.167969 335.484375 72.734375 C 333.75 74.296875 331.949219 75.730469 330.195312 77.238281 C 329.941406 77.324219 329.839844 77.636719 329.828125 77.699219 C 329.78125 77.859375 329.710938 78.199219 329.964844 78.519531 C 330 78.554688 330.226562 78.722656 330.308594 78.796875 C 330.480469 78.945312 330.652344 79.09375 330.824219 79.246094 C 331.421875 79.777344 332.042969 80.273438 332.660156 80.757812 C 334.449219 82.167969 336.230469 83.636719 338.101562 84.847656 C 338.285156 84.964844 338.5 84.945312 338.671875 84.800781 C 338.753906 84.730469 338.824219 84.636719 338.867188 84.527344 Z M 343.527344 77.050781 C 342.289062 78.648438 340.300781 81.175781 339.203125 82.339844 C 339.109375 82.433594 338.570312 82.898438 338.238281 83.253906 C 336.527344 82.113281 334.898438 80.769531 333.246094 79.472656 C 332.648438 79.003906 332.050781 78.527344 331.46875 78.007812 L 331.433594 77.972656 C 333.003906 76.644531 334.589844 75.355469 336.136719 73.96875 C 336.710938 73.453125 337.6875 72.757812 338.304688 72.054688 C 339.773438 73.246094 341.117188 74.71875 342.503906 76.054688 C 342.851562 76.386719 343.195312 76.714844 343.527344 77.050781 Z M 330.273438 78.710938 Z M 330.273438 78.710938 " fill-opacity="1" fill-rule="evenodd"/><path fill="#000000" d="M 362.828125 75.140625 L 374.519531 78.507812 L 362.828125 81.0625 L 357.925781 77.789062 Z M 362.828125 75.140625 " fill-opacity="1" fill-rule="evenodd"/><g clip-path="url(#d2856f7af9)"><path fill="#000000" d="M 68.753906 9.730469 C 68.03125 9.371094 66.550781 10.003906 65.851562 10.1875 C 62.824219 10.996094 59.898438 12.449219 57.097656 14.140625 C 46.679688 20.433594 39.128906 32.242188 34.457031 45.726562 C 33.289062 49.089844 32.324219 52.636719 31.726562 56.25 C 31.566406 57.226562 31.085938 59.003906 31.417969 60.011719 C 31.714844 60.875 32.472656 61.550781 32.988281 62.175781 C 34.089844 63.511719 35.113281 64.6875 36.375 65.695312 C 38.003906 63.730469 40.289062 62.332031 42.136719 60.695312 C 42.695312 54.847656 44.613281 49.011719 46.585938 43.796875 C 49.949219 34.9375 54.402344 26.8125 59.804688 19.894531 C 62.261719 16.769531 65.738281 11.890625 68.753906 9.730469 Z M 68.753906 9.730469 " fill-opacity="1" fill-rule="evenodd"/></g><path fill="#000000" d="M 68.753906 133.855469 C 68.03125 134.214844 66.550781 133.582031 65.851562 133.394531 C 62.824219 132.589844 59.898438 131.136719 57.097656 129.445312 C 46.679688 123.152344 39.128906 111.34375 34.457031 97.859375 C 33.289062 94.492188 32.324219 90.949219 31.726562 87.332031 C 31.566406 86.359375 31.085938 84.582031 31.417969 83.574219 C 31.714844 82.710938 32.472656 82.035156 32.988281 81.410156 C 34.089844 80.074219 35.113281 78.894531 36.375 77.886719 C 38.003906 79.851562 40.289062 81.25 42.136719 82.890625 C 42.695312 88.734375 44.613281 94.570312 46.585938 99.785156 C 49.949219 108.644531 54.402344 116.769531 59.804688 123.691406 C 62.261719 126.816406 65.738281 131.695312 68.753906 133.855469 Z M 68.753906 133.855469 " fill-opacity="1" fill-rule="evenodd"/><path fill="#000000" d="M 23.144531 64.019531 C 23.433594 64.21875 23.695312 64.40625 23.765625 64.464844 C 25.417969 66.15625 27.046875 67.738281 28.894531 69.078125 C 29.523438 69.535156 30.179688 69.914062 30.820312 70.339844 C 30.925781 70.410156 31.210938 70.585938 31.359375 70.785156 C 31.566406 71.054688 31.625 71.375 31.566406 71.683594 C 31.511719 71.996094 31.335938 72.261719 31.039062 72.382812 C 30.808594 72.472656 30.441406 72.453125 30.328125 72.457031 C 30.144531 72.460938 29.582031 72.738281 28.847656 73.117188 C 26.910156 74.113281 23.867188 75.921875 22.46875 76.949219 C 22.308594 77.066406 21.824219 77.496094 21.414062 77.875 C 21.664062 78.085938 21.929688 78.292969 22.066406 78.363281 C 23.453125 79.0625 25.097656 79.773438 25.992188 81.4375 C 26.324219 82.054688 26.425781 82.773438 26.425781 83.53125 C 26.414062 84.433594 26.21875 85.390625 26.199219 86.207031 C 26.140625 88.40625 26.4375 90.324219 27.425781 92.148438 C 28.195312 93.585938 29.144531 94.941406 30.328125 95.808594 C 30.523438 95.953125 32.175781 97.003906 32.175781 97.003906 C 32.40625 97.152344 32.53125 97.488281 32.484375 97.820312 C 32.4375 98.152344 32.222656 98.398438 31.96875 98.425781 C 31.96875 98.425781 29.433594 98.65625 28.675781 98.527344 C 24.773438 97.871094 22.398438 94.613281 20.691406 90.257812 C 20.4375 89.628906 20.253906 88.828125 20.058594 88.054688 C 19.886719 87.40625 19.714844 86.773438 19.425781 86.324219 C 19.152344 85.902344 18.75 85.613281 18.335938 85.339844 C 17.820312 84.996094 17.292969 84.675781 16.878906 84.265625 C 15.605469 83.023438 14.710938 81.445312 13.886719 79.683594 C 13.5625 78.996094 13.265625 78.289062 12.980469 77.582031 C 12.828125 77.242188 11.957031 75.128906 11.957031 75.128906 C 11.808594 74.765625 11.910156 74.3125 12.1875 74.117188 C 12.1875 74.117188 13.070312 73.488281 13.230469 73.378906 C 13.804688 73.011719 15.390625 72.074219 16.570312 71.382812 C 16.582031 71.382812 12.027344 69.550781 12.027344 69.550781 C 11.738281 69.433594 11.566406 69.046875 11.636719 68.660156 C 11.636719 68.660156 12.105469 66.058594 13.070312 63.601562 C 13.746094 61.867188 14.675781 60.222656 15.824219 59.488281 C 16.25 59.214844 16.824219 59.007812 17.363281 58.777344 C 17.796875 58.597656 18.210938 58.417969 18.464844 58.113281 C 18.554688 58.003906 18.566406 57.808594 18.589844 57.621094 C 18.648438 57.25 18.683594 56.859375 18.738281 56.574219 C 19.027344 55.195312 19.472656 53.8125 20.035156 52.59375 C 22.375 47.621094 28.25 43.941406 32.449219 44.253906 C 32.726562 44.273438 32.957031 44.546875 32.988281 44.902344 C 33.023438 45.257812 32.863281 45.597656 32.601562 45.710938 C 31.246094 46.308594 30.121094 48.019531 29.15625 50.054688 C 27.621094 53.3125 26.554688 57.433594 25.851562 59.804688 C 25.371094 61.441406 24.902344 62.476562 23.777344 63.496094 C 23.570312 63.683594 23.363281 63.859375 23.144531 64.019531 Z M 29.707031 97.070312 C 28.398438 96.097656 27.332031 94.601562 26.484375 93.003906 C 25.347656 90.898438 24.980469 88.691406 25.050781 86.152344 C 25.074219 85.464844 25.210938 84.679688 25.257812 83.910156 C 25.300781 83.332031 25.300781 82.761719 25.050781 82.296875 C 24.28125 80.875 22.835938 80.359375 21.652344 79.761719 C 21.261719 79.5625 20.082031 78.5 20.082031 78.5 C 19.921875 78.363281 19.839844 78.132812 19.839844 77.890625 C 19.828125 77.648438 19.921875 77.417969 20.070312 77.277344 C 20.070312 77.277344 21.585938 75.875 21.90625 75.640625 C 23.546875 74.4375 27.367188 72.195312 29.203125 71.339844 C 29.328125 71.28125 29.433594 71.234375 29.546875 71.191406 C 29.132812 70.933594 28.734375 70.675781 28.332031 70.386719 C 26.425781 69.011719 24.761719 67.386719 23.054688 65.648438 C 22.914062 65.503906 21.824219 64.871094 21.574219 64.652344 C 21.402344 64.492188 21.34375 64.3125 21.320312 64.226562 C 21.261719 64.03125 21.230469 63.683594 21.503906 63.382812 C 21.597656 63.28125 22.113281 63.007812 22.171875 62.976562 C 22.503906 62.789062 22.824219 62.539062 23.121094 62.265625 C 24.027344 61.441406 24.394531 60.589844 24.785156 59.269531 C 25.496094 56.835938 26.597656 52.613281 28.183594 49.269531 C 28.777344 47.980469 29.46875 46.828125 30.214844 45.933594 L 30.214844 45.929688 C 26.726562 46.699219 22.777344 49.636719 21.011719 53.375 C 20.507812 54.476562 20.105469 55.726562 19.851562 56.96875 C 19.785156 57.292969 19.761719 57.753906 19.679688 58.160156 C 19.601562 58.585938 19.449219 58.953125 19.242188 59.210938 C 18.957031 59.566406 18.519531 59.839844 18.039062 60.0625 C 17.464844 60.332031 16.800781 60.53125 16.328125 60.832031 C 15.390625 61.441406 14.65625 62.847656 14.09375 64.28125 C 13.484375 65.832031 13.09375 67.449219 12.898438 68.328125 C 12.898438 68.328125 18.382812 70.539062 18.382812 70.539062 C 18.601562 70.632812 18.761719 70.898438 18.785156 71.210938 C 18.796875 71.523438 18.660156 71.816406 18.441406 71.941406 C 18.441406 71.941406 14.675781 74.109375 13.746094 74.71875 C 13.679688 74.765625 13.460938 74.921875 13.242188 75.074219 C 13.507812 75.722656 13.886719 76.648438 13.976562 76.863281 C 14.265625 77.550781 14.550781 78.234375 14.871094 78.902344 C 15.617188 80.5 16.410156 81.9375 17.570312 83.066406 C 17.9375 83.429688 18.40625 83.703125 18.867188 84.007812 C 19.417969 84.375 19.933594 84.792969 20.300781 85.359375 C 20.679688 85.9375 20.929688 86.738281 21.136719 87.570312 C 21.320312 88.277344 21.480469 89.003906 21.699219 89.574219 C 23.238281 93.472656 25.324219 96.453125 28.8125 97.039062 C 29.019531 97.074219 29.339844 97.082031 29.707031 97.070312 Z M 29.707031 97.070312 " fill-opacity="1" fill-rule="evenodd"/><path fill="#000000" d="M 36.03125 78.144531 C 35.894531 78.007812 35.066406 77.214844 34.976562 77.121094 C 33.703125 75.773438 31.269531 72.644531 30.109375 71.136719 C 29.996094 71 29.9375 70.816406 29.9375 70.625 C 29.9375 70.457031 29.972656 70.238281 30.109375 70.027344 C 30.214844 69.878906 30.464844 69.671875 30.523438 69.613281 C 30.925781 69.226562 31.316406 68.84375 31.714844 68.464844 C 33.242188 66.984375 34.746094 65.339844 36.398438 64.078125 C 36.640625 63.882812 36.960938 63.964844 37.132812 64.265625 C 37.589844 65.027344 38.785156 65.78125 39.414062 66.347656 C 41.148438 67.910156 42.949219 69.34375 44.703125 70.855469 C 44.957031 70.9375 45.0625 71.25 45.070312 71.316406 C 45.117188 71.472656 45.1875 71.8125 44.933594 72.136719 C 44.898438 72.171875 44.671875 72.335938 44.589844 72.410156 C 44.417969 72.558594 44.246094 72.707031 44.074219 72.859375 C 43.476562 73.394531 42.859375 73.886719 42.238281 74.375 C 40.449219 75.785156 38.667969 77.25 36.800781 78.460938 C 36.617188 78.578125 36.398438 78.5625 36.226562 78.414062 C 36.144531 78.34375 36.078125 78.25 36.03125 78.144531 Z M 31.371094 70.664062 C 32.613281 72.261719 34.597656 74.789062 35.699219 75.957031 C 35.789062 76.046875 36.328125 76.515625 36.660156 76.871094 C 38.371094 75.726562 40 74.382812 41.652344 73.089844 C 42.25 72.617188 42.847656 72.140625 43.429688 71.621094 L 43.464844 71.589844 C 41.894531 70.257812 40.308594 68.972656 38.761719 67.582031 C 38.1875 67.066406 37.210938 66.371094 36.59375 65.667969 C 35.125 66.859375 33.78125 68.335938 32.394531 69.671875 C 32.050781 70 31.703125 70.332031 31.371094 70.664062 Z M 44.625 72.324219 Z M 44.625 72.324219 " fill-opacity="1" fill-rule="evenodd"/><path fill="#000000" d="M 12.074219 68.757812 L 0.378906 72.121094 L 12.074219 74.675781 L 16.972656 71.402344 Z M 12.074219 68.757812 " fill-opacity="1" fill-rule="evenodd"/><path fill="#000000" d="M 141.230469 21.996094 C 141.078125 21.992188 141.554688 20.464844 141.589844 20.359375 C 141.765625 19.851562 142.398438 17.398438 143.144531 17.515625 C 143.761719 17.613281 144.308594 18.394531 144.710938 18.804688 C 146.0625 20.1875 147.277344 21.773438 148.222656 23.464844 C 150.226562 27.039062 150.855469 31.183594 150.148438 35.210938 C 149.933594 36.429688 149.59375 37.667969 149.023438 38.769531 C 148.980469 38.847656 148.523438 39.820312 148.390625 39.734375 C 148.117188 39.550781 148.390625 38.34375 148.421875 38.105469 C 148.601562 36.546875 148.652344 34.953125 148.472656 33.390625 C 148.050781 29.707031 143.839844 24.515625 141.230469 21.996094 Z M 141.230469 21.996094 " fill-opacity="1" fill-rule="evenodd"/><path fill="#000000" d="M 119.613281 32.519531 C 119.394531 32.492188 120.210938 32.394531 120.429688 32.472656 C 121.011719 32.671875 121.546875 33.011719 122.078125 33.316406 C 123.605469 34.199219 125.015625 35.246094 126.519531 36.15625 C 131.179688 38.976562 136.609375 39.257812 141.925781 39.203125 C 152.34375 39.089844 162.8125 36.132812 172.390625 32.136719 C 172.929688 31.914062 173.46875 31.683594 174.011719 31.457031 C 175.632812 30.777344 180.585938 28.066406 181.199219 31.296875 C 181.824219 34.601562 178.746094 38.609375 176.542969 40.789062 C 176.101562 41.222656 174.835938 42.777344 174.191406 42.832031 C 174.132812 42.835938 174.449219 42.089844 174.46875 42.046875 C 174.679688 41.589844 174.910156 41.144531 175.128906 40.691406 C 175.902344 39.089844 176.679688 37.453125 177.125 35.722656 C 177.171875 35.539062 177.609375 34.273438 177.304688 34.179688 C 176.960938 34.078125 176.355469 34.472656 176.0625 34.605469 C 174.976562 35.105469 173.878906 35.570312 172.789062 36.046875 C 168.488281 37.917969 164.136719 39.652344 159.671875 41.09375 C 151.714844 43.65625 142.964844 45.015625 134.71875 43.09375 C 131.566406 42.359375 128.683594 41.035156 125.765625 39.683594 C 125.78125 39.371094 125.886719 40.289062 125.925781 40.59375 C 126.003906 41.191406 126.027344 41.789062 126.011719 42.390625 C 125.96875 44.324219 125.765625 46.355469 125.183594 48.207031 C 125.097656 48.480469 124.808594 49.683594 124.421875 49.730469 C 124.179688 49.761719 124.136719 48.671875 124.121094 48.554688 C 123.96875 47.222656 123.859375 45.886719 123.632812 44.5625 C 123.066406 41.261719 121.28125 35.425781 119.613281 32.519531 Z M 119.613281 32.519531 " fill-opacity="1" fill-rule="evenodd"/><path fill="#000000" d="M 283.4375 80.183594 C 283.457031 80.167969 283.46875 80.144531 283.445312 80.113281 C 283.4375 80.136719 283.4375 80.160156 283.4375 80.183594 C 283.355469 80.226562 283.097656 80.226562 282.992188 80.28125 C 282.652344 80.445312 282.328125 80.617188 282 80.792969 C 280.996094 81.324219 280.089844 81.941406 279.191406 82.605469 C 276.695312 84.449219 273.847656 87.410156 270.417969 87.367188 C 270.464844 87.191406 270.046875 86.71875 269.964844 86.59375 C 269.4375 85.78125 268.878906 84.992188 268.34375 84.183594 C 266.207031 80.925781 262.652344 76.304688 258.148438 79.152344 C 254.589844 81.40625 251.652344 85.796875 251.011719 89.835938 C 250.484375 93.109375 252.011719 96.242188 255.5 97.21875 C 259.5 98.339844 264.65625 96.058594 268.0625 94.136719 C 268.085938 94.121094 268.320312 94.527344 268.34375 94.582031 C 268.503906 94.871094 268.644531 95.164062 268.796875 95.460938 C 269.21875 96.332031 269.636719 97.296875 269.589844 98.277344 C 269.566406 98.289062 269.300781 98.527344 269.242188 98.585938 C 269.042969 98.78125 268.832031 98.96875 268.621094 99.15625 C 267.910156 99.785156 267.199219 100.402344 266.511719 101.042969 C 264.5625 102.839844 262.523438 104.515625 260.433594 106.160156 C 254.484375 110.863281 246.660156 117.460938 238.425781 117.375 C 229.628906 117.285156 223.519531 110.214844 224.382812 101.957031 C 224.625 99.667969 225.09375 97.410156 225.710938 95.191406 C 225.816406 94.78125 226.457031 93.234375 226.152344 92.835938 C 225.886719 92.472656 224.835938 94.0625 224.753906 94.179688 C 223.691406 95.855469 223.050781 97.675781 222.644531 99.589844 C 221.59375 104.453125 221.734375 109.964844 223.902344 114.542969 C 227.730469 122.609375 237.96875 125.496094 246.214844 122.347656 C 250.484375 120.71875 254.242188 117.9375 257.820312 115.226562 C 261.167969 112.6875 264.609375 110.050781 267.164062 106.726562 C 268.550781 104.925781 270.582031 102.617188 271.164062 100.394531 C 271.828125 97.898438 271.65625 95.21875 271.292969 92.785156 C 271.28125 92.730469 271.796875 92.539062 271.851562 92.515625 C 272.402344 92.25 272.960938 91.992188 273.507812 91.726562 C 275.632812 90.714844 277.847656 89.738281 279.644531 88.234375 C 279.773438 88.128906 279.667969 88.566406 279.703125 88.730469 C 279.761719 89.011719 279.867188 89.285156 279.972656 89.554688 C 280.285156 90.347656 280.625 91.128906 281.007812 91.890625 C 282.210938 94.253906 284.378906 96.109375 287.039062 96.789062 C 288.195312 97.085938 289.429688 97.28125 290.632812 97.183594 C 295.625 96.777344 298.503906 91.941406 299.976562 87.847656 C 299.976562 87.839844 299.988281 87.835938 299.988281 87.839844 L 299.976562 87.847656 C 299.988281 87.949219 300.5 89.085938 300.570312 89.207031 C 301.117188 90.125 301.78125 91.007812 302.542969 91.777344 C 304.898438 94.1875 308.78125 94.863281 311.917969 93.550781 C 314.007812 92.675781 315.183594 91.027344 316.09375 89.089844 C 317.960938 85.113281 317.074219 79.085938 315.535156 75.042969 C 315.582031 74.84375 315.289062 75.382812 315.148438 75.539062 C 314.835938 75.90625 314.484375 76.25 314.171875 76.609375 C 313.214844 77.683594 312.082031 78.71875 311.277344 79.90625 C 311.207031 80.003906 312.617188 81.625 312.734375 81.882812 C 313.808594 84.140625 311.953125 86.4375 309.515625 86.566406 C 305.921875 86.753906 303.894531 83.757812 303.484375 80.6875 C 303.347656 79.632812 303.371094 78.554688 303.171875 77.507812 C 303.113281 77.167969 302.9375 76.597656 302.484375 76.613281 C 301.980469 76.625 301.667969 77.3125 301.492188 77.679688 C 300.929688 78.90625 300.875 80.273438 300.535156 81.554688 C 300.183594 82.851562 299.425781 83.972656 298.679688 85.09375 C 297.304688 87.179688 295.648438 89.78125 293.09375 90.65625 C 290.039062 91.699219 286.09375 89.851562 284.542969 87.238281 C 283.425781 85.332031 283.097656 82.355469 283.4375 80.183594 Z M 269.589844 98.277344 Z M 255.511719 88.945312 C 255.617188 87.644531 256.363281 86.359375 257.296875 85.425781 C 257.75 84.976562 258.324219 84.488281 259.035156 84.609375 C 260.421875 84.84375 261.8125 85.9375 262.71875 86.917969 C 262.90625 87.121094 263.535156 87.683594 263.445312 88.011719 C 263.339844 88.332031 262.835938 88.519531 262.558594 88.640625 C 261.683594 89.007812 260.714844 89.230469 259.78125 89.359375 C 258.777344 89.496094 256.046875 89.546875 255.511719 88.945312 Z M 255.511719 88.945312 " fill-opacity="1" fill-rule="evenodd"/><path fill="#000000" d="M 231.871094 81.257812 C 231.796875 81.335938 231.765625 81.601562 231.730469 81.707031 C 231.613281 82.09375 231.503906 82.484375 231.394531 82.875 C 231.023438 84.21875 230.632812 85.5625 230.257812 86.90625 C 230.136719 87.332031 230.015625 87.753906 229.898438 88.175781 C 229.859375 88.296875 229.730469 88.558594 229.773438 88.6875 C 229.816406 88.808594 230.144531 88.9375 230.246094 89.003906 C 230.589844 89.222656 230.914062 89.480469 231.195312 89.761719 C 231.191406 89.730469 231.289062 89.914062 231.296875 89.933594 C 231.359375 90.078125 231.425781 90.21875 231.492188 90.359375 C 231.679688 90.785156 231.832031 91.226562 232.007812 91.65625 C 232.527344 92.953125 233.050781 94.25 233.617188 95.53125 C 234.660156 97.890625 235.875 100.199219 237.144531 102.457031 C 237.679688 103.410156 238.199219 104.359375 238.699219 105.328125 C 238.925781 105.761719 239.222656 106.207031 239.375 106.675781 C 239.605469 107.386719 237.761719 108.386719 237.234375 108.90625 C 235.210938 110.914062 233.015625 112.75 230.71875 114.476562 C 221.734375 121.222656 209.496094 127.914062 197.785156 123.261719 C 197.90625 123.367188 197.496094 123.113281 197.363281 123.023438 C 197.078125 122.839844 196.808594 122.640625 196.546875 122.429688 C 195.710938 121.761719 194.96875 121.039062 194.335938 120.191406 C 192.457031 117.679688 191.660156 114.730469 191.53125 111.691406 C 191.347656 107.34375 192.140625 103.125 193.570312 99.007812 C 193.722656 98.566406 193.875 98.125 194.035156 97.683594 C 194.171875 97.308594 194.3125 96.933594 194.449219 96.558594 C 194.535156 96.304688 194.625 96.054688 194.707031 95.800781 C 194.777344 95.597656 194.839844 95.394531 194.90625 95.191406 C 194.960938 95.019531 195.015625 94.847656 195.0625 94.675781 C 195.164062 94.320312 195.914062 92.328125 194.90625 92.570312 C 194.976562 92.734375 194.652344 92.832031 194.554688 92.984375 C 194.21875 93.515625 193.925781 94.074219 193.648438 94.632812 C 192.574219 96.808594 191.652344 99.027344 190.886719 101.316406 C 188.640625 108.03125 186.410156 116.367188 189.730469 123.066406 C 189.832031 123.039062 189.800781 123.253906 189.839844 123.347656 C 189.921875 123.550781 190.015625 123.746094 190.105469 123.945312 C 190.378906 124.546875 190.707031 125.128906 191.054688 125.695312 C 192.054688 127.304688 193.542969 128.667969 195.085938 129.820312 C 199.230469 132.914062 204.847656 132.902344 209.851562 132.296875 C 209.847656 132.273438 210.25 132.1875 210.265625 132.183594 C 210.746094 132.066406 211.226562 131.953125 211.699219 131.824219 C 212.914062 131.484375 214.125 131.097656 215.269531 130.585938 C 218.824219 129 222.4375 127.355469 225.488281 125.007812 C 225.488281 125.011719 229.53125 122.042969 230.675781 121.191406 C 234.152344 118.609375 237.652344 115.507812 239.800781 111.808594 C 239.875 111.679688 240.132812 111.109375 240.1875 110.992188 C 240.554688 110.140625 240.859375 109.261719 241.09375 108.371094 C 241.664062 106.207031 241.921875 103.761719 241.445312 101.550781 C 241.144531 100.136719 240.539062 98.832031 239.953125 97.507812 C 240.058594 97.546875 239.875 97.304688 239.832031 97.207031 C 239.753906 97.027344 239.671875 96.855469 239.589844 96.679688 C 239.308594 96.078125 239.03125 95.476562 238.746094 94.875 C 237.9375 93.175781 236.660156 91.484375 236.1875 89.660156 C 236.066406 89.195312 236.570312 89.519531 236.78125 89.640625 C 237.316406 89.941406 237.839844 90.289062 238.410156 90.535156 C 238.59375 90.613281 238.929688 90.738281 238.996094 90.460938 C 239.160156 89.753906 238.359375 88.746094 237.992188 88.203125 C 236.816406 86.453125 234.210938 83.644531 231.871094 81.257812 Z M 231.871094 81.257812 " fill-opacity="1" fill-rule="evenodd"/><path fill="#000000" d="M 209.695312 62.089844 C 209.707031 61.804688 210.257812 62.285156 210.546875 62.367188 C 211.269531 62.574219 212.015625 62.757812 212.765625 62.90625 C 212.820312 62.917969 213.453125 63.078125 213.453125 62.972656 C 213.429688 62.367188 211.832031 61.347656 211.421875 60.992188 C 209.507812 59.292969 207.597656 57.597656 205.601562 55.988281 C 205.230469 55.6875 203.769531 54.210938 203.199219 54.40625 C 202.804688 54.539062 202.570312 55.171875 202.40625 55.496094 C 201.929688 56.484375 201.484375 57.488281 201.03125 58.484375 C 200.902344 58.761719 200.46875 59.410156 200.621094 59.738281 C 200.785156 60.078125 201.273438 59.988281 201.566406 60.152344 C 201.964844 60.386719 202.230469 60.929688 202.464844 61.289062 C 204.925781 64.929688 207.863281 68.167969 210.664062 71.566406 C 210.652344 71.570312 210.910156 71.816406 210.933594 71.84375 C 210.921875 71.832031 210.035156 72.863281 209.976562 72.933594 C 208.808594 74.265625 207.761719 75.6875 206.757812 77.125 C 203.933594 81.109375 203.011719 86.671875 204.320312 91.320312 C 205.054688 93.949219 207.210938 96.582031 210.292969 96.363281 C 212.660156 96.199219 214.957031 94.414062 216.613281 92.921875 C 220.660156 89.296875 225.441406 83.871094 223.15625 78.1875 C 222.257812 75.980469 220.777344 73.992188 219.167969 72.21875 C 218.675781 71.691406 217.242188 70.71875 217.441406 69.917969 C 217.789062 68.554688 219.15625 67.253906 219.984375 66.160156 C 222.128906 63.351562 225.199219 60.132812 226.128906 56.667969 C 226.457031 55.425781 226.867188 52.875 226.082031 51.695312 C 225.96875 51.527344 225.59375 52.03125 225.546875 52.097656 C 225.046875 52.699219 224.660156 53.394531 224.242188 54.042969 C 223.191406 55.664062 222.105469 57.265625 220.976562 58.839844 C 220.078125 60.101562 219.144531 61.339844 218.222656 62.589844 C 217.324219 63.800781 216.425781 65.011719 215.515625 66.210938 C 215.339844 66.433594 214.910156 67.222656 214.546875 67.238281 C 213.648438 67.273438 210.269531 62.675781 209.695312 62.089844 Z M 213.558594 74.699219 C 213.707031 74.535156 212.660156 75.570312 212.53125 75.742188 C 212.296875 76.058594 212.050781 76.371094 211.820312 76.6875 C 211.121094 77.617188 210.453125 78.558594 209.800781 79.511719 C 207.96875 82.171875 204.832031 88.074219 209.695312 89.613281 C 212.890625 90.628906 215.996094 87.339844 217.824219 85.277344 C 218.585938 84.4375 219.691406 83.316406 219.691406 82.128906 C 219.703125 81.441406 219.238281 80.769531 218.863281 80.21875 C 217.789062 78.644531 215.074219 75.882812 213.558594 74.699219 Z M 213.558594 74.699219 " fill-opacity="1" fill-rule="evenodd"/><path fill="#000000" d="M 242.691406 39.261719 C 242.714844 39.296875 242.613281 39.445312 242.59375 39.480469 C 242.46875 39.714844 242.339844 39.949219 242.199219 40.175781 C 242.164062 40.230469 242.078125 40.40625 241.976562 40.398438 C 241.828125 40.390625 241.582031 40.175781 241.472656 40.105469 C 241.0625 39.835938 240.644531 39.574219 240.242188 39.296875 C 239.796875 38.984375 239.347656 38.675781 238.886719 38.378906 C 238.621094 38.210938 238.261719 38.054688 238.066406 37.820312 C 237.859375 37.570312 237.867188 37.214844 237.839844 36.929688 C 237.769531 36.226562 237.757812 35.507812 237.992188 34.824219 C 238.207031 34.191406 238.617188 33.351562 239.527344 33.222656 C 240.484375 33.089844 241.480469 33.761719 242.214844 34.164062 C 243.707031 34.972656 244.644531 36.089844 245.480469 37.355469 C 246.222656 38.484375 246.8125 39.660156 247.183594 40.90625 C 247.410156 41.664062 247.546875 42.449219 247.820312 43.199219 C 247.9375 43.515625 248.089844 43.917969 248.460938 44.109375 C 248.457031 44.15625 248.488281 44.011719 248.5 43.960938 C 248.515625 43.863281 248.535156 43.761719 248.550781 43.660156 C 248.601562 43.375 248.644531 43.085938 248.6875 42.800781 C 248.820312 41.90625 248.984375 41.023438 249.226562 40.144531 C 249.867188 37.816406 250.796875 35.316406 252.445312 33.316406 C 253.183594 32.421875 254.320312 31.441406 255.800781 31.90625 C 256.820312 32.226562 257.527344 33.171875 258.007812 33.921875 C 258.164062 34.171875 258.445312 34.542969 258.429688 34.832031 C 258.398438 35.402344 257.890625 36.050781 257.625 36.5625 C 257.441406 36.921875 257.265625 37.285156 257.046875 37.632812 C 256.96875 37.75 256.875 37.945312 256.714844 38.011719 C 256.425781 38.128906 256.066406 37.421875 255.984375 37.300781 C 255.554688 36.652344 254.902344 35.628906 253.824219 35.675781 C 252.695312 35.730469 252.195312 36.890625 251.847656 37.589844 C 250.816406 39.683594 250.246094 41.832031 249.664062 44.019531 C 249.644531 44.023438 249.558594 44.34375 249.550781 44.367188 C 249.40625 44.757812 249.261719 45.152344 249.128906 45.550781 C 248.746094 46.714844 248.496094 47.9375 247.941406 49.058594 C 247.855469 49.230469 247.488281 50.074219 247.078125 49.871094 C 246.875 49.769531 246.839844 49.464844 246.808594 49.296875 C 246.714844 48.800781 246.605469 48.3125 246.476562 47.824219 C 246.324219 47.25 246.175781 46.683594 246.035156 46.109375 C 245.828125 45.238281 245.589844 44.363281 245.253906 43.519531 C 244.800781 42.378906 243.703125 39.789062 242.691406 39.261719 Z M 242.691406 39.261719 " fill-opacity="1" fill-rule="evenodd"/><path fill="#000000" d="M 242.691406 68.171875 C 242.714844 68.210938 242.613281 68.359375 242.59375 68.394531 C 242.46875 68.628906 242.339844 68.859375 242.199219 69.089844 C 242.164062 69.144531 242.078125 69.320312 241.976562 69.3125 C 241.828125 69.304688 241.582031 69.089844 241.472656 69.019531 C 241.0625 68.746094 240.644531 68.488281 240.242188 68.210938 C 239.796875 67.898438 239.347656 67.589844 238.886719 67.292969 C 238.621094 67.121094 238.261719 66.96875 238.066406 66.734375 C 237.859375 66.484375 237.867188 66.128906 237.839844 65.839844 C 237.769531 65.140625 237.757812 64.421875 237.992188 63.738281 C 238.207031 63.105469 238.617188 62.261719 239.527344 62.136719 C 240.484375 62 241.480469 62.675781 242.214844 63.078125 C 243.707031 63.886719 244.644531 65.003906 245.480469 66.269531 C 246.222656 67.398438 246.8125 68.570312 247.183594 69.820312 C 247.410156 70.578125 247.546875 71.363281 247.820312 72.109375 C 247.9375 72.429688 248.089844 72.832031 248.460938 73.023438 C 248.457031 73.070312 248.488281 72.921875 248.5 72.875 C 248.515625 72.773438 248.535156 72.675781 248.550781 72.574219 C 248.601562 72.289062 248.644531 72 248.6875 71.710938 C 248.820312 70.820312 248.984375 69.933594 249.226562 69.058594 C 249.867188 66.726562 250.796875 64.230469 252.445312 62.230469 C 253.183594 61.335938 254.320312 60.355469 255.800781 60.820312 C 256.820312 61.140625 257.527344 62.085938 258.007812 62.835938 C 258.164062 63.082031 258.445312 63.457031 258.429688 63.746094 C 258.398438 64.3125 257.890625 64.964844 257.625 65.476562 C 257.441406 65.832031 257.265625 66.199219 257.046875 66.546875 C 256.96875 66.664062 256.875 66.859375 256.714844 66.925781 C 256.425781 67.042969 256.066406 66.335938 255.984375 66.214844 C 255.554688 65.566406 254.902344 64.539062 253.824219 64.589844 C 252.695312 64.644531 252.195312 65.804688 251.847656 66.503906 C 250.816406 68.597656 250.246094 70.746094 249.664062 72.933594 C 249.644531 72.9375 249.558594 73.253906 249.550781 73.28125 C 249.40625 73.671875 249.261719 74.066406 249.128906 74.460938 C 248.746094 75.625 248.496094 76.851562 247.941406 77.972656 C 247.855469 78.144531 247.488281 78.988281 247.078125 78.785156 C 246.875 78.683594 246.839844 78.375 246.808594 78.210938 C 246.714844 77.714844 246.605469 77.226562 246.476562 76.738281 C 246.324219 76.164062 246.175781 75.59375 246.035156 75.023438 C 245.828125 74.148438 245.589844 73.277344 245.253906 72.429688 C 244.800781 71.292969 243.703125 68.703125 242.691406 68.171875 Z M 242.691406 68.171875 " fill-opacity="1" fill-rule="evenodd"/><path fill="#000000" d="M 307.085938 98.789062 C 307.003906 98.691406 306.867188 99.046875 306.839844 99.121094 C 306.777344 99.28125 306.710938 99.441406 306.652344 99.601562 C 306.457031 100.113281 306.25 100.617188 306.050781 101.125 C 305.921875 101.453125 306.292969 101.867188 306.390625 102.160156 C 306.699219 103.054688 306.144531 103.648438 305.394531 103.632812 C 305.183594 103.628906 304.980469 103.570312 304.78125 103.492188 C 303.945312 103.15625 303.109375 102.328125 303.191406 101.214844 C 303.234375 100.640625 303.457031 100.15625 303.578125 99.605469 C 303.621094 99.425781 303.632812 99.140625 303.429688 99.089844 C 302.925781 98.949219 302.476562 100.105469 302.300781 100.464844 C 301.601562 101.917969 301.011719 103.671875 299.636719 104.457031 C 298.363281 105.183594 297.148438 104.199219 295.914062 103.824219 C 294.582031 103.425781 293.253906 103.613281 291.980469 104.179688 C 291.980469 104.308594 291.777344 104.277344 291.679688 104.332031 C 291.359375 104.523438 291.046875 104.730469 290.734375 104.945312 C 289.371094 105.878906 288.0625 106.9375 286.796875 108.039062 C 281.300781 112.8125 275.566406 117.132812 269.570312 121.027344 C 267.746094 122.207031 265.9375 123.429688 264.078125 124.527344 C 263.324219 124.976562 262.546875 125.386719 261.800781 125.851562 C 261.714844 125.902344 261.109375 126.234375 261.28125 126.433594 C 261.480469 126.660156 262.042969 126.53125 262.285156 126.503906 C 263.203125 126.398438 264.132812 126.136719 265.03125 125.890625 C 267.238281 125.289062 269.585938 124.628906 271.613281 123.421875 C 272.90625 122.652344 274.101562 121.617188 275.273438 120.632812 C 278.839844 117.644531 282.378906 114.609375 285.957031 111.644531 C 288.058594 109.902344 290.347656 107.785156 292.839844 106.832031 C 295.058594 105.988281 296.839844 108.683594 299.058594 107.757812 C 300.023438 107.355469 300.730469 106.316406 301.203125 105.304688 C 301.28125 105.136719 301.746094 103.753906 301.914062 103.710938 C 301.941406 103.703125 302.027344 104.3125 302.03125 104.351562 C 302.097656 104.800781 302.167969 105.296875 302.414062 105.667969 C 303.027344 106.597656 304.148438 106.765625 305.085938 106.550781 C 307.992188 105.886719 308 102.640625 307.519531 99.945312 C 307.457031 99.585938 307.199219 98.925781 307.085938 98.789062 Z M 307.085938 98.789062 " fill-opacity="1" fill-rule="evenodd"/><path fill="#000000" d="M 229.003906 61.53125 C 229.019531 61.542969 230.5 60.792969 230.59375 60.75 C 232.480469 59.878906 234.394531 59.046875 236.316406 58.222656 C 244.203125 54.851562 252.164062 51.539062 260.226562 48.421875 C 262.496094 47.546875 264.78125 46.6875 267.105469 45.902344 C 267.25 45.851562 269.082031 45.136719 269.183594 45.316406 C 269.386719 45.675781 268.539062 46.867188 268.375 47.195312 C 268.027344 47.910156 267.800781 48.988281 267.15625 49.585938 C 266.726562 49.992188 265.890625 50.167969 265.300781 50.378906 C 263.863281 50.894531 262.417969 51.398438 260.996094 51.933594 C 256.601562 53.589844 252.347656 55.46875 248.035156 57.25 C 243.859375 58.976562 239.585938 60.566406 235.449219 62.347656 C 233.382812 63.238281 231.316406 64.128906 229.253906 65.023438 C 228.925781 65.167969 227.550781 65.988281 227.128906 65.820312 C 226.867188 65.714844 227.167969 65.164062 227.222656 65.03125 C 227.515625 64.292969 228.65625 62.253906 229.003906 61.53125 Z M 229.003906 61.53125 " fill-opacity="1" fill-rule="evenodd"/><path fill="#000000" d="M 271.769531 50.894531 C 272.238281 50.429688 272.582031 49.597656 272.953125 49.050781 C 274.03125 47.457031 275.101562 45.859375 276.207031 44.285156 C 276.828125 43.402344 277.40625 42.351562 278.292969 41.667969 C 279.554688 40.699219 281.445312 40.828125 282.96875 40.925781 C 286.484375 41.148438 290.542969 42.210938 293.882812 42.738281 C 293.941406 42.695312 294.242188 42.832031 294.304688 42.851562 C 294.695312 42.976562 295.078125 43.117188 295.460938 43.257812 C 296.75 43.734375 299.277344 44.40625 298.824219 46.113281 C 298.539062 47.199219 297.761719 48.171875 297.058594 49.050781 C 295.964844 50.425781 294.789062 51.753906 293.558594 53.023438 C 291.929688 54.703125 290.214844 56.289062 288.429688 57.824219 C 287.25 58.835938 286.03125 59.957031 284.511719 60.507812 C 281.964844 61.425781 278.953125 61.320312 276.265625 61.476562 C 274.992188 61.546875 273.722656 61.605469 272.449219 61.652344 C 271.777344 61.675781 270.933594 61.765625 270.28125 61.578125 C 269.636719 61.394531 271.171875 60.574219 271.28125 60.511719 C 272.664062 59.777344 274.164062 59.210938 275.65625 58.699219 C 279.101562 57.515625 282.628906 56.410156 285.898438 54.847656 C 286.679688 54.476562 287.457031 54.097656 288.21875 53.695312 C 288.417969 53.589844 288.863281 53.421875 288.933594 53.199219 C 289.023438 52.921875 288.375 52.648438 288.1875 52.566406 C 287.285156 52.175781 286.242188 51.980469 285.285156 51.761719 C 281.296875 50.84375 275.851562 50.320312 271.769531 50.894531 Z M 271.769531 50.894531 " fill-opacity="1" fill-rule="evenodd"/><path fill="#000000" d="M 201.15625 38.308594 L 205.929688 32.097656 L 213.636719 37.628906 L 208.554688 43.480469 C 208.554688 43.480469 201.460938 38.019531 201.15625 38.308594 Z M 201.15625 38.308594 " fill-opacity="1" fill-rule="evenodd"/><path fill="#000000" d="M 212.414062 36.941406 L 217.183594 30.730469 L 224.894531 36.265625 L 219.808594 42.117188 C 219.808594 42.117188 212.714844 36.652344 212.414062 36.941406 Z M 212.414062 36.941406 " fill-opacity="1" fill-rule="evenodd"/><path fill="#000000" d="M 154.65625 55.933594 L 159.429688 49.722656 L 167.136719 55.257812 L 162.050781 61.109375 C 162.050781 61.109375 154.960938 55.644531 154.65625 55.933594 Z M 154.65625 55.933594 " fill-opacity="1" fill-rule="evenodd"/><path fill="#000000" d="M 167.140625 55.933594 L 171.910156 49.722656 L 179.621094 55.257812 L 174.535156 61.109375 C 174.535156 61.109375 167.445312 55.644531 167.140625 55.933594 Z M 167.140625 55.933594 " fill-opacity="1" fill-rule="evenodd"/><path fill="#000000" d="M 180.746094 94.5625 C 180.667969 93.785156 177.410156 94.667969 175.945312 95.078125 C 171.597656 96.304688 166.511719 97.054688 162.5 94.082031 C 156.648438 89.75 162.300781 80.058594 166.871094 77.0625 C 171.132812 74.28125 175.460938 76.652344 178.398438 80.15625 C 183.277344 85.972656 185.984375 93.046875 185.242188 100.652344 C 185.5625 100.613281 184.847656 101.171875 184.660156 101.429688 C 184.25 101.988281 183.796875 102.507812 183.347656 103.023438 C 182.003906 104.59375 180.558594 106.0625 179.097656 107.507812 C 174.589844 111.980469 169.652344 116.011719 164.558594 119.789062 C 162.351562 121.425781 160.082031 122.976562 157.757812 124.4375 C 147.046875 131.183594 132.976562 136.851562 121.09375 129.261719 C 119.066406 127.964844 117.269531 126.25 115.945312 124.246094 C 114.296875 121.738281 113.175781 118.902344 112.421875 116.011719 C 111.398438 112.101562 111.050781 108 111.199219 103.964844 C 111.335938 100.351562 111.855469 96.632812 113.101562 93.226562 C 113.605469 91.847656 114.226562 90.429688 115.171875 89.285156 C 115.230469 89.21875 116.195312 88.210938 116.285156 88.453125 C 116.453125 88.945312 115.832031 90.28125 115.722656 90.757812 C 115.265625 92.800781 114.921875 94.929688 114.785156 97 C 114.257812 105.136719 115.015625 116.84375 122.585938 121.792969 C 132.183594 128.074219 145.738281 123.210938 154.914062 118.617188 C 157.128906 117.511719 159.285156 116.3125 161.394531 115.019531 C 163.824219 113.519531 166.179688 111.898438 168.511719 110.25 C 170.96875 108.503906 173.347656 106.648438 175.667969 104.726562 C 177.253906 103.417969 180.296875 100.449219 181.058594 98.8125 C 181.488281 97.886719 180.851562 95.554688 180.746094 94.5625 Z M 174.109375 87.199219 C 173.128906 87.609375 172.054688 87.8125 171.011719 87.964844 C 170.289062 88.085938 169.550781 88.167969 168.8125 88.140625 C 168.417969 88.113281 168.015625 88.074219 167.636719 87.949219 C 166.195312 87.5 166.070312 86.082031 166.753906 84.898438 C 167.480469 83.644531 168.921875 82.769531 170.394531 83.140625 C 171.0625 83.304688 171.636719 83.671875 172.109375 84.175781 C 172.691406 84.773438 173.796875 86.425781 174.109375 87.199219 Z M 174.109375 87.199219 " fill-opacity="1" fill-rule="evenodd"/><path fill="#000000" d="M 209.394531 98.835938 C 209.121094 98.660156 208.871094 99.019531 208.824219 99.074219 C 208.539062 99.394531 208.335938 99.769531 208.136719 100.140625 C 207.507812 101.304688 206.941406 102.5 206.304688 103.664062 C 204.679688 106.640625 202.621094 110.222656 202.820312 113.621094 C 202.910156 115.097656 203.472656 116.976562 205.421875 117.28125 C 207.839844 117.65625 209.242188 114.535156 209.867188 113.050781 C 210.082031 112.542969 210.59375 111.53125 210.257812 110.980469 C 209.96875 110.511719 209.238281 111.496094 209.128906 111.644531 C 208.445312 112.566406 207.359375 114.371094 206.097656 112.890625 C 205.082031 111.699219 205.234375 110.070312 205.550781 108.691406 C 206.019531 106.660156 207.136719 104.804688 208.128906 102.945312 C 208.75 101.773438 210.328125 99.425781 209.394531 98.835938 Z M 209.394531 98.835938 " fill-opacity="1" fill-rule="evenodd"/><path fill="#000000" d="M 284.527344 73.488281 C 284.386719 73.429688 284.925781 73.085938 284.972656 73.0625 C 285.183594 72.953125 285.394531 72.835938 285.597656 72.714844 C 286.199219 72.351562 286.804688 71.988281 287.398438 71.609375 C 289.246094 70.425781 291.085938 69.226562 292.925781 68.035156 C 297.066406 65.34375 308.617188 56.78125 308.890625 56.273438 C 308.691406 56.128906 308.359375 56.027344 308.132812 55.894531 C 306.972656 55.203125 305.214844 54.179688 305.34375 52.800781 C 305.515625 50.921875 307.324219 48.808594 309.359375 48.164062 C 310.265625 47.875 311.457031 47.738281 312.238281 48.34375 C 312.738281 48.726562 312.875 49.34375 312.929688 49.890625 C 313.050781 51.105469 312.6875 52.261719 312.15625 53.375 C 312.003906 53.695312 311.820312 54.003906 311.628906 54.304688 C 311.570312 54.394531 311.382812 54.578125 311.386719 54.6875 C 311.390625 54.824219 311.847656 55.0625 311.953125 55.140625 C 312.363281 55.453125 312.933594 55.902344 313.09375 56.371094 C 313.300781 56.976562 312.601562 57.835938 312.269531 58.320312 C 312.183594 58.445312 311.945312 58.882812 311.722656 58.847656 C 311.464844 58.804688 311.242188 58.503906 311.074219 58.355469 C 310.636719 57.957031 310.148438 57.601562 309.714844 57.203125 C 309.648438 57.144531 309.585938 57.328125 309.523438 57.390625 C 309.394531 57.519531 309.265625 57.648438 309.136719 57.78125 C 308.769531 58.15625 308.390625 58.527344 308.011719 58.894531 C 306.875 59.996094 305.722656 61.082031 304.535156 62.140625 C 300.226562 65.976562 295.09375 69.273438 289.621094 71.753906 C 288.375 72.320312 287.140625 72.96875 285.816406 73.394531 C 285.582031 73.472656 284.667969 73.542969 284.527344 73.488281 Z M 310.417969 53.894531 C 310.414062 53.886719 310.464844 53.710938 310.46875 53.699219 C 310.507812 53.582031 310.550781 53.464844 310.578125 53.339844 C 310.667969 52.976562 310.722656 52.601562 310.699219 52.230469 C 310.683594 52.023438 310.664062 51.8125 310.628906 51.605469 C 310.492188 50.820312 309.78125 49.710938 308.691406 49.9375 C 308.441406 49.992188 308.210938 50.105469 308.007812 50.238281 C 307.855469 50.339844 307.722656 50.453125 307.601562 50.578125 C 307.445312 50.734375 307.253906 50.933594 307.242188 51.152344 C 307.230469 51.3125 307.363281 51.445312 307.472656 51.5625 C 307.707031 51.808594 307.976562 52.015625 308.226562 52.246094 C 308.761719 52.730469 309.832031 53.453125 310.417969 53.894531 Z M 310.417969 53.894531 " fill-opacity="1" fill-rule="evenodd"/></svg>