<svg xmlns="http://www.w3.org/2000/svg" xmlns:xlink="http://www.w3.org/1999/xlink" width="500" zoomAndPan="magnify" viewBox="0 0 375 149.999998" height="200" preserveAspectRatio="xMidYMid meet" version="1.0"><defs><clipPath id="aef7c92672"><path d="M 30 12.421875 L 69 12.421875 L 69 65 L 30 65 Z M 30 12.421875 " clip-rule="nonzero"/></clipPath><clipPath id="283b4e0b39"><path d="M 110 118 L 150 118 L 150 137.671875 L 110 137.671875 Z M 110 118 " clip-rule="nonzero"/></clipPath></defs><path fill="#000000" d="M 306.394531 18.699219 C 307.117188 18.367188 308.601562 18.953125 309.304688 19.125 C 312.339844 19.875 315.269531 21.226562 318.078125 22.800781 C 328.515625 28.652344 336.082031 39.632812 340.765625 52.171875 C 341.9375 55.300781 342.902344 58.597656 343.5 61.957031 C 343.660156 62.863281 344.144531 64.519531 343.8125 65.453125 C 343.511719 66.257812 342.753906 66.886719 342.234375 67.464844 C 341.132812 68.707031 340.109375 69.804688 338.84375 70.742188 C 337.210938 68.914062 334.921875 67.613281 333.070312 66.089844 C 332.507812 60.652344 330.585938 55.226562 328.609375 50.378906 C 325.242188 42.140625 320.777344 34.585938 315.363281 28.152344 C 312.902344 25.246094 309.417969 20.710938 306.394531 18.699219 Z M 306.394531 18.699219 " fill-opacity="1" fill-rule="evenodd"/><path fill="#000000" d="M 306.394531 134.117188 C 307.117188 134.449219 308.601562 133.859375 309.304688 133.691406 C 312.339844 132.941406 315.269531 131.589844 318.078125 130.015625 C 328.515625 124.164062 336.082031 113.183594 340.765625 100.644531 C 341.9375 97.515625 342.902344 94.21875 343.5 90.859375 C 343.660156 89.953125 344.144531 88.296875 343.8125 87.363281 C 343.511719 86.558594 342.753906 85.929688 342.234375 85.351562 C 341.132812 84.109375 340.109375 83.011719 338.84375 82.074219 C 337.210938 83.902344 334.921875 85.203125 333.070312 86.726562 C 332.507812 92.160156 330.585938 97.589844 328.609375 102.4375 C 325.242188 110.675781 320.777344 118.230469 315.363281 124.664062 C 312.902344 127.570312 309.417969 132.105469 306.394531 134.117188 Z M 306.394531 134.117188 " fill-opacity="1" fill-rule="evenodd"/><path fill="#000000" d="M 352.101562 69.179688 C 351.8125 69.367188 351.550781 69.539062 351.480469 69.597656 C 349.824219 71.167969 348.191406 72.640625 346.339844 73.882812 C 345.707031 74.308594 345.050781 74.664062 344.410156 75.058594 C 344.304688 75.125 344.019531 75.285156 343.867188 75.472656 C 343.660156 75.722656 343.605469 76.019531 343.660156 76.308594 C 343.71875 76.597656 343.890625 76.84375 344.191406 76.957031 C 344.421875 77.042969 344.789062 77.023438 344.902344 77.027344 C 345.085938 77.027344 345.652344 77.289062 346.386719 77.640625 C 348.328125 78.566406 351.378906 80.246094 352.78125 81.203125 C 352.941406 81.3125 353.425781 81.714844 353.835938 82.0625 C 353.585938 82.261719 353.320312 82.453125 353.183594 82.519531 C 351.789062 83.167969 350.148438 83.828125 349.25 85.375 C 348.917969 85.949219 348.8125 86.617188 348.8125 87.324219 C 348.824219 88.160156 349.019531 89.054688 349.042969 89.8125 C 349.101562 91.859375 348.800781 93.640625 347.8125 95.335938 C 347.042969 96.671875 346.085938 97.933594 344.902344 98.738281 C 344.707031 98.875 343.050781 99.851562 343.050781 99.851562 C 342.820312 99.988281 342.695312 100.300781 342.742188 100.609375 C 342.789062 100.917969 343.007812 101.148438 343.257812 101.171875 C 343.257812 101.171875 345.800781 101.390625 346.558594 101.269531 C 350.46875 100.65625 352.847656 97.628906 354.5625 93.578125 C 354.816406 92.992188 355 92.25 355.195312 91.527344 C 355.367188 90.929688 355.539062 90.335938 355.828125 89.921875 C 356.101562 89.527344 356.503906 89.261719 356.917969 89.003906 C 357.4375 88.6875 357.964844 88.390625 358.378906 88.007812 C 359.65625 86.851562 360.554688 85.386719 361.382812 83.746094 C 361.703125 83.105469 362 82.449219 362.289062 81.792969 C 362.4375 81.476562 363.3125 79.511719 363.3125 79.511719 C 363.460938 79.171875 363.359375 78.753906 363.082031 78.570312 C 363.082031 78.570312 362.199219 77.984375 362.035156 77.882812 C 361.460938 77.542969 359.875 76.671875 358.691406 76.027344 C 358.679688 76.027344 363.242188 74.324219 363.242188 74.324219 C 363.53125 74.214844 363.703125 73.855469 363.632812 73.496094 C 363.632812 73.496094 363.164062 71.078125 362.199219 68.789062 C 361.519531 67.179688 360.585938 65.652344 359.4375 64.964844 C 359.011719 64.710938 358.4375 64.519531 357.898438 64.308594 C 357.460938 64.140625 357.046875 63.972656 356.792969 63.691406 C 356.699219 63.589844 356.691406 63.40625 356.667969 63.230469 C 356.609375 62.886719 356.574219 62.523438 356.515625 62.257812 C 356.230469 60.976562 355.78125 59.6875 355.21875 58.558594 C 352.871094 53.933594 346.984375 50.511719 342.777344 50.800781 C 342.5 50.820312 342.269531 51.074219 342.234375 51.40625 C 342.199219 51.734375 342.363281 52.050781 342.625 52.160156 C 343.984375 52.710938 345.109375 54.300781 346.074219 56.195312 C 347.617188 59.226562 348.6875 63.058594 349.386719 65.261719 C 349.871094 66.78125 350.34375 67.746094 351.46875 68.691406 C 351.675781 68.867188 351.882812 69.03125 352.101562 69.179688 Z M 345.523438 99.914062 C 346.835938 99.007812 347.90625 97.617188 348.753906 96.132812 C 349.894531 94.175781 350.261719 92.125 350.191406 89.761719 C 350.167969 89.125 350.03125 88.390625 349.984375 87.675781 C 349.941406 87.140625 349.941406 86.609375 350.191406 86.175781 C 350.964844 84.851562 352.410156 84.375 353.597656 83.820312 C 353.988281 83.632812 355.171875 82.648438 355.171875 82.648438 C 355.332031 82.515625 355.414062 82.304688 355.414062 82.078125 C 355.425781 81.851562 355.332031 81.640625 355.183594 81.507812 C 355.183594 81.507812 353.664062 80.203125 353.34375 79.988281 C 351.699219 78.867188 347.871094 76.78125 346.03125 75.988281 C 345.902344 75.933594 345.800781 75.890625 345.683594 75.847656 C 346.097656 75.609375 346.5 75.367188 346.902344 75.101562 C 348.8125 73.820312 350.480469 72.3125 352.191406 70.695312 C 352.332031 70.5625 353.425781 69.972656 353.675781 69.769531 C 353.847656 69.621094 353.90625 69.453125 353.929688 69.375 C 353.988281 69.195312 354.023438 68.867188 353.746094 68.589844 C 353.652344 68.492188 353.136719 68.238281 353.078125 68.210938 C 352.746094 68.035156 352.421875 67.804688 352.125 67.550781 C 351.214844 66.785156 350.847656 65.992188 350.457031 64.765625 C 349.742188 62.503906 348.640625 58.574219 347.054688 55.464844 C 346.457031 54.269531 345.765625 53.195312 345.019531 52.363281 L 345.019531 52.359375 C 348.515625 53.078125 352.46875 55.804688 354.242188 59.285156 C 354.746094 60.308594 355.148438 61.46875 355.402344 62.625 C 355.46875 62.925781 355.492188 63.355469 355.574219 63.734375 C 355.65625 64.128906 355.804688 64.472656 356.011719 64.707031 C 356.296875 65.039062 356.734375 65.292969 357.21875 65.503906 C 357.792969 65.753906 358.460938 65.9375 358.933594 66.214844 C 359.875 66.785156 360.609375 68.089844 361.175781 69.421875 C 361.785156 70.867188 362.175781 72.371094 362.371094 73.1875 C 362.371094 73.1875 356.875 75.242188 356.875 75.242188 C 356.65625 75.328125 356.492188 75.578125 356.472656 75.871094 C 356.460938 76.160156 356.597656 76.429688 356.816406 76.546875 C 356.816406 76.546875 360.585938 78.566406 361.519531 79.128906 C 361.589844 79.175781 361.804688 79.320312 362.023438 79.460938 C 361.761719 80.0625 361.382812 80.921875 361.289062 81.121094 C 361 81.761719 360.714844 82.398438 360.390625 83.019531 C 359.644531 84.503906 358.851562 85.84375 357.691406 86.890625 C 357.320312 87.230469 356.851562 87.484375 356.390625 87.765625 C 355.839844 88.109375 355.320312 88.496094 354.953125 89.023438 C 354.574219 89.5625 354.320312 90.304688 354.113281 91.082031 C 353.929688 91.738281 353.769531 92.410156 353.550781 92.941406 C 352.007812 96.570312 349.917969 99.335938 346.421875 99.886719 C 346.214844 99.917969 345.890625 99.921875 345.523438 99.914062 Z M 345.523438 99.914062 " fill-opacity="1" fill-rule="evenodd"/><path fill="#000000" d="M 339.1875 82.3125 C 339.328125 82.191406 340.152344 81.453125 340.246094 81.363281 C 341.523438 80.109375 343.960938 77.199219 345.121094 75.800781 C 345.238281 75.671875 345.292969 75.5 345.292969 75.320312 C 345.292969 75.167969 345.257812 74.960938 345.121094 74.769531 C 345.019531 74.628906 344.765625 74.433594 344.707031 74.382812 C 344.304688 74.023438 343.914062 73.667969 343.511719 73.3125 C 341.984375 71.9375 340.476562 70.410156 338.820312 69.234375 C 338.578125 69.054688 338.257812 69.128906 338.085938 69.40625 C 337.625 70.117188 336.429688 70.820312 335.796875 71.347656 C 334.058594 72.800781 332.253906 74.132812 330.496094 75.535156 C 330.242188 75.613281 330.140625 75.90625 330.128906 75.964844 C 330.082031 76.113281 330.011719 76.429688 330.265625 76.726562 C 330.300781 76.761719 330.53125 76.914062 330.609375 76.984375 C 330.78125 77.121094 330.957031 77.261719 331.128906 77.402344 C 331.726562 77.898438 332.347656 78.355469 332.96875 78.808594 C 334.761719 80.121094 336.542969 81.484375 338.417969 82.609375 C 338.601562 82.71875 338.820312 82.703125 338.992188 82.566406 C 339.074219 82.5 339.140625 82.414062 339.1875 82.3125 Z M 343.855469 75.359375 C 342.613281 76.84375 340.625 79.195312 339.523438 80.28125 C 339.429688 80.367188 338.890625 80.796875 338.554688 81.128906 C 336.84375 80.070312 335.210938 78.816406 333.554688 77.613281 C 332.957031 77.175781 332.359375 76.730469 331.773438 76.25 L 331.738281 76.21875 C 333.3125 74.984375 334.898438 73.785156 336.453125 72.496094 C 337.027344 72.015625 338.003906 71.367188 338.625 70.714844 C 340.097656 71.824219 341.441406 73.195312 342.832031 74.433594 C 343.179688 74.742188 343.523438 75.050781 343.855469 75.359375 Z M 330.574219 76.902344 L 330.574219 76.90625 Z M 330.574219 76.902344 " fill-opacity="1" fill-rule="evenodd"/><path fill="#000000" d="M 363.199219 73.585938 L 374.914062 76.714844 L 363.199219 79.089844 L 358.289062 76.046875 Z M 363.199219 73.585938 " fill-opacity="1" fill-rule="evenodd"/><g clip-path="url(#aef7c92672)"><path fill="#000000" d="M 68.496094 12.761719 C 67.773438 12.429688 66.289062 13.015625 65.585938 13.1875 C 62.550781 13.9375 59.617188 15.289062 56.8125 16.863281 C 46.371094 22.714844 38.804688 33.695312 34.125 46.234375 C 32.953125 49.363281 31.988281 52.660156 31.390625 56.019531 C 31.226562 56.925781 30.746094 58.582031 31.078125 59.515625 C 31.378906 60.320312 32.136719 60.949219 32.65625 61.527344 C 33.757812 62.769531 34.78125 63.867188 36.046875 64.804688 C 37.679688 62.976562 39.96875 61.675781 41.820312 60.152344 C 42.382812 54.71875 44.300781 49.289062 46.28125 44.441406 C 49.648438 36.203125 54.109375 28.648438 59.527344 22.214844 C 61.988281 19.308594 65.472656 14.773438 68.496094 12.761719 Z M 68.496094 12.761719 " fill-opacity="1" fill-rule="evenodd"/></g><path fill="#000000" d="M 68.496094 128.179688 C 67.773438 128.511719 66.289062 127.925781 65.585938 127.753906 C 62.550781 127.003906 59.617188 125.652344 56.8125 124.078125 C 46.371094 118.226562 38.804688 107.25 34.125 94.710938 C 32.953125 91.582031 31.988281 88.28125 31.390625 84.921875 C 31.226562 84.015625 30.746094 82.363281 31.078125 81.425781 C 31.378906 80.621094 32.136719 79.996094 32.65625 79.414062 C 33.757812 78.171875 34.78125 77.074219 36.046875 76.140625 C 37.679688 77.964844 39.96875 79.265625 41.820312 80.792969 C 42.382812 86.226562 44.300781 91.652344 46.28125 96.5 C 49.648438 104.738281 54.109375 112.292969 59.527344 118.726562 C 61.988281 121.636719 65.472656 126.171875 68.496094 128.179688 Z M 68.496094 128.179688 " fill-opacity="1" fill-rule="evenodd"/><path fill="#000000" d="M 22.789062 63.242188 C 23.074219 63.429688 23.339844 63.601562 23.410156 63.660156 C 25.066406 65.230469 26.699219 66.703125 28.550781 67.945312 C 29.179688 68.371094 29.835938 68.726562 30.480469 69.121094 C 30.585938 69.1875 30.871094 69.347656 31.019531 69.535156 C 31.226562 69.785156 31.285156 70.082031 31.226562 70.371094 C 31.171875 70.660156 31 70.90625 30.699219 71.019531 C 30.46875 71.105469 30.101562 71.085938 29.988281 71.089844 C 29.800781 71.089844 29.238281 71.351562 28.503906 71.703125 C 26.558594 72.628906 23.511719 74.308594 22.109375 75.265625 C 21.949219 75.375 21.464844 75.777344 21.050781 76.125 C 21.304688 76.324219 21.570312 76.515625 21.707031 76.582031 C 23.097656 77.230469 24.742188 77.890625 25.640625 79.4375 C 25.972656 80.011719 26.078125 80.679688 26.078125 81.386719 C 26.066406 82.222656 25.871094 83.117188 25.847656 83.875 C 25.789062 85.921875 26.089844 87.703125 27.078125 89.398438 C 27.847656 90.734375 28.800781 91.996094 29.988281 92.800781 C 30.183594 92.9375 31.839844 93.914062 31.839844 93.914062 C 32.066406 94.050781 32.195312 94.363281 32.148438 94.671875 C 32.101562 94.980469 31.882812 95.210938 31.632812 95.234375 C 31.632812 95.234375 29.089844 95.453125 28.332031 95.332031 C 24.421875 94.71875 22.039062 91.691406 20.328125 87.640625 C 20.074219 87.054688 19.890625 86.3125 19.695312 85.589844 C 19.523438 84.992188 19.351562 84.398438 19.0625 83.984375 C 18.785156 83.589844 18.382812 83.324219 17.96875 83.066406 C 17.453125 82.75 16.925781 82.453125 16.511719 82.070312 C 15.234375 80.914062 14.335938 79.449219 13.507812 77.808594 C 13.1875 77.167969 12.886719 76.511719 12.601562 75.855469 C 12.449219 75.539062 11.578125 73.574219 11.578125 73.574219 C 11.425781 73.238281 11.53125 72.816406 11.808594 72.632812 C 11.808594 72.632812 12.691406 72.050781 12.851562 71.945312 C 13.429688 71.605469 15.015625 70.734375 16.199219 70.089844 C 16.210938 70.089844 11.644531 68.386719 11.644531 68.386719 C 11.359375 68.277344 11.1875 67.917969 11.253906 67.558594 C 11.253906 67.558594 11.726562 65.140625 12.691406 62.851562 C 13.371094 61.242188 14.300781 59.714844 15.453125 59.027344 C 15.878906 58.773438 16.453125 58.582031 16.992188 58.371094 C 17.429688 58.203125 17.84375 58.035156 18.097656 57.753906 C 18.1875 57.652344 18.199219 57.46875 18.222656 57.292969 C 18.28125 56.949219 18.316406 56.585938 18.371094 56.320312 C 18.660156 55.039062 19.109375 53.75 19.671875 52.621094 C 22.019531 47.996094 27.90625 44.574219 32.113281 44.863281 C 32.390625 44.882812 32.621094 45.136719 32.65625 45.46875 C 32.6875 45.796875 32.527344 46.113281 32.261719 46.222656 C 30.90625 46.773438 29.78125 48.363281 28.8125 50.257812 C 27.273438 53.289062 26.203125 57.121094 25.503906 59.324219 C 25.019531 60.84375 24.546875 61.808594 23.421875 62.753906 C 23.214844 62.929688 23.007812 63.09375 22.789062 63.242188 Z M 29.367188 93.976562 C 28.054688 93.070312 26.984375 91.679688 26.132812 90.195312 C 24.996094 88.238281 24.628906 86.1875 24.695312 83.824219 C 24.71875 83.1875 24.859375 82.453125 24.902344 81.738281 C 24.949219 81.203125 24.949219 80.671875 24.695312 80.238281 C 23.925781 78.914062 22.476562 78.4375 21.292969 77.882812 C 20.902344 77.695312 19.71875 76.710938 19.71875 76.710938 C 19.558594 76.578125 19.476562 76.367188 19.476562 76.140625 C 19.464844 75.914062 19.558594 75.703125 19.707031 75.570312 C 19.707031 75.570312 21.222656 74.265625 21.546875 74.050781 C 23.191406 72.929688 27.019531 70.84375 28.859375 70.050781 C 28.984375 69.996094 29.089844 69.953125 29.203125 69.910156 C 28.789062 69.671875 28.386719 69.429688 27.984375 69.164062 C 26.078125 67.882812 24.410156 66.375 22.695312 64.757812 C 22.558594 64.625 21.464844 64.035156 21.214844 63.832031 C 21.039062 63.683594 20.984375 63.515625 20.960938 63.4375 C 20.902344 63.257812 20.867188 62.929688 21.144531 62.652344 C 21.234375 62.554688 21.753906 62.300781 21.8125 62.273438 C 22.144531 62.097656 22.464844 61.867188 22.765625 61.613281 C 23.671875 60.847656 24.042969 60.054688 24.433594 58.828125 C 25.144531 56.566406 26.25 52.636719 27.835938 49.527344 C 28.433594 48.332031 29.125 47.257812 29.871094 46.425781 L 29.871094 46.421875 C 26.375 47.140625 22.421875 49.867188 20.648438 53.347656 C 20.144531 54.371094 19.742188 55.53125 19.488281 56.6875 C 19.417969 56.988281 19.394531 57.417969 19.316406 57.796875 C 19.234375 58.191406 19.085938 58.535156 18.878906 58.769531 C 18.589844 59.101562 18.15625 59.355469 17.671875 59.566406 C 17.097656 59.816406 16.429688 60 15.957031 60.277344 C 15.015625 60.847656 14.277344 62.152344 13.714844 63.484375 C 13.105469 64.929688 12.714844 66.433594 12.519531 67.25 C 12.519531 67.25 18.015625 69.304688 18.015625 69.304688 C 18.234375 69.390625 18.394531 69.640625 18.417969 69.933594 C 18.429688 70.222656 18.292969 70.492188 18.074219 70.609375 C 18.074219 70.609375 14.300781 72.628906 13.371094 73.191406 C 13.300781 73.238281 13.082031 73.382812 12.863281 73.523438 C 13.128906 74.125 13.507812 74.984375 13.601562 75.183594 C 13.886719 75.824219 14.175781 76.460938 14.496094 77.082031 C 15.246094 78.566406 16.039062 79.90625 17.199219 80.953125 C 17.566406 81.292969 18.039062 81.546875 18.5 81.828125 C 19.050781 82.171875 19.570312 82.558594 19.9375 83.085938 C 20.316406 83.625 20.570312 84.371094 20.777344 85.144531 C 20.960938 85.800781 21.121094 86.472656 21.339844 87.003906 C 22.878906 90.632812 24.972656 93.398438 28.46875 93.949219 C 28.675781 93.980469 28.996094 93.984375 29.367188 93.976562 Z M 29.367188 93.976562 " fill-opacity="1" fill-rule="evenodd"/><path fill="#000000" d="M 35.703125 76.375 C 35.5625 76.253906 34.734375 75.515625 34.644531 75.425781 C 33.367188 74.171875 30.929688 71.261719 29.769531 69.863281 C 29.652344 69.734375 29.597656 69.5625 29.597656 69.382812 C 29.597656 69.230469 29.628906 69.023438 29.769531 68.832031 C 29.871094 68.691406 30.125 68.496094 30.183594 68.445312 C 30.585938 68.085938 30.976562 67.730469 31.378906 67.375 C 32.90625 66 34.414062 64.472656 36.070312 63.296875 C 36.3125 63.117188 36.632812 63.195312 36.804688 63.472656 C 37.265625 64.179688 38.460938 64.882812 39.09375 65.410156 C 40.828125 66.863281 42.636719 68.195312 44.394531 69.597656 C 44.648438 69.675781 44.75 69.96875 44.761719 70.027344 C 44.808594 70.175781 44.878906 70.492188 44.625 70.789062 C 44.589844 70.824219 44.359375 70.976562 44.28125 71.046875 C 44.105469 71.183594 43.933594 71.324219 43.761719 71.464844 C 43.164062 71.960938 42.542969 72.417969 41.921875 72.871094 C 40.128906 74.183594 38.347656 75.546875 36.472656 76.671875 C 36.289062 76.78125 36.070312 76.765625 35.898438 76.628906 C 35.816406 76.5625 35.746094 76.476562 35.703125 76.375 Z M 31.03125 69.421875 C 32.273438 70.90625 34.265625 73.257812 35.367188 74.34375 C 35.460938 74.429688 36 74.863281 36.332031 75.191406 C 38.046875 74.132812 39.679688 72.882812 41.335938 71.675781 C 41.933594 71.238281 42.53125 70.792969 43.117188 70.3125 L 43.152344 70.28125 C 41.578125 69.046875 39.992188 67.847656 38.4375 66.558594 C 37.863281 66.078125 36.886719 65.433594 36.265625 64.777344 C 34.792969 65.886719 33.449219 67.257812 32.054688 68.496094 C 31.710938 68.804688 31.367188 69.113281 31.03125 69.421875 Z M 44.3125 70.964844 L 44.3125 70.96875 Z M 44.3125 70.964844 " fill-opacity="1" fill-rule="evenodd"/><path fill="#000000" d="M 11.691406 67.648438 L -0.0234375 70.777344 L 11.691406 73.152344 L 16.601562 70.109375 Z M 11.691406 67.648438 " fill-opacity="1" fill-rule="evenodd"/><path fill="#000000" d="M 164.488281 29.199219 C 164.238281 29.246094 163.96875 29.628906 163.894531 29.71875 C 163.765625 29.875 163.636719 30.035156 163.511719 30.195312 C 163.0625 30.777344 162.742188 31.226562 162.960938 31.929688 C 163.390625 33.335938 164.148438 34.636719 164.617188 36.019531 C 164.851562 36.710938 164.59375 37.347656 163.664062 37.378906 C 161.839844 37.445312 161.4375 35.019531 161.21875 33.929688 C 161.15625 33.621094 161.089844 33.3125 161.019531 33.003906 C 160.921875 32.578125 160.804688 32.160156 160.660156 31.746094 C 160.484375 31.226562 160.296875 30.703125 160.046875 30.203125 C 160.015625 30.140625 159.859375 29.734375 159.75 29.75 C 159.480469 29.78125 159.113281 30.617188 159 30.800781 C 158.859375 31.039062 158.621094 31.3125 158.605469 31.589844 C 158.574219 32.097656 159.1875 32.710938 159.375 33.179688 C 159.648438 33.863281 159.6875 34.601562 159.667969 35.316406 C 159.714844 35.328125 159.648438 35.554688 159.644531 35.574219 C 159.582031 35.847656 159.523438 36.117188 159.417969 36.378906 C 159.027344 37.367188 157.140625 38.210938 156.347656 37.035156 C 156.03125 36.5625 156.105469 35.929688 156.128906 35.40625 C 156.179688 34.273438 156.449219 33.140625 156.3125 32.007812 C 156.261719 31.597656 156.15625 31.15625 155.90625 30.800781 C 155.878906 30.761719 155.648438 30.441406 155.558594 30.507812 C 155.320312 30.679688 155.203125 31.109375 155.078125 31.34375 C 154.96875 31.550781 154.863281 31.757812 154.753906 31.964844 C 154.628906 32.210938 154.511719 32.457031 154.382812 32.699219 C 154.359375 32.742188 154.214844 32.917969 154.230469 32.96875 C 154.253906 33.066406 154.519531 33.203125 154.59375 33.28125 C 154.816406 33.519531 154.910156 33.757812 154.933594 34.0625 C 155.003906 35.035156 154.734375 36.027344 154.695312 37 C 154.664062 37.855469 154.566406 38.945312 155.269531 39.640625 C 156.058594 40.421875 157.40625 40.472656 158.320312 39.839844 C 159.433594 39.070312 160.171875 37.816406 160.257812 36.59375 C 160.5 38.175781 162.441406 40.621094 164.542969 39.359375 C 164.789062 39.214844 165.003906 39.046875 165.1875 38.84375 C 165.449219 38.558594 165.644531 38.214844 165.769531 37.867188 C 166.199219 36.6875 166.226562 35.371094 165.859375 34.179688 C 165.402344 32.703125 164.496094 30.753906 164.488281 29.199219 Z M 164.488281 29.199219 " fill-opacity="1" fill-rule="evenodd"/><path fill="#000000" d="M 124.566406 72.757812 C 124.539062 72.769531 124.90625 72.847656 124.96875 72.859375 C 125.234375 72.902344 125.496094 72.960938 125.761719 73.003906 C 126.480469 73.128906 127.207031 73.273438 127.929688 73.363281 C 128.011719 73.375 128.671875 73.5 128.648438 73.261719 C 128.585938 72.679688 127.523438 71.699219 127.183594 71.296875 C 125.808594 69.710938 124.363281 68.125 122.867188 66.652344 C 122.53125 66.324219 121.386719 64.851562 120.890625 64.863281 C 120.292969 64.875 120.207031 67.550781 120.160156 67.933594 C 120.019531 69.148438 119.898438 70.351562 119.820312 71.578125 C 119.796875 71.9375 119.644531 72.5 119.882812 72.824219 C 120.273438 73.339844 121.183594 73.375 121.75 73.5 C 121.773438 73.261719 121.808594 74.914062 121.824219 75.152344 C 121.855469 75.625 122.789062 78.289062 123.296875 79.714844 C 124.246094 82.359375 125.359375 85.011719 126.8125 87.351562 C 127.394531 88.292969 128.546875 89.746094 128.425781 90.96875 C 128.308594 92.152344 126.757812 92.972656 125.96875 93.714844 C 123.59375 95.972656 120.820312 97.851562 118.109375 99.605469 C 108.78125 105.652344 99.023438 110.609375 89.015625 115.21875 C 85.167969 116.984375 81.273438 118.636719 77.316406 120.101562 C 75.785156 120.664062 74.226562 121.144531 72.695312 121.707031 C 72.589844 121.742188 71.257812 122.125 71.445312 122.382812 C 71.738281 122.789062 72.769531 122.753906 73.175781 122.796875 C 74.847656 123 76.527344 123.046875 78.214844 123.058594 C 85.414062 123.113281 92.34375 121.496094 98.730469 117.90625 C 107.367188 113.0625 114.585938 108.464844 123.203125 101.640625 C 126.03125 99.402344 131.125 96.21875 131.378906 92.152344 C 131.773438 85.820312 126.816406 78.140625 124.566406 72.757812 Z M 124.566406 72.757812 " fill-opacity="1" fill-rule="evenodd"/><path fill="#000000" d="M 105.109375 54.421875 C 105.277344 54.277344 105.03125 54.875 104.984375 55.09375 C 104.886719 55.53125 104.777344 55.945312 104.667969 56.375 C 104.382812 57.496094 103.332031 59.773438 103.585938 60.898438 C 103.722656 61.492188 105.890625 62.601562 106.359375 63.019531 C 109.007812 65.433594 108.234375 68.003906 105.570312 69.84375 C 104.785156 70.394531 103.933594 70.820312 103.074219 71.234375 C 94.15625 75.453125 85.597656 76.710938 75.898438 77.476562 C 70.792969 77.878906 63.804688 78.097656 58.789062 76.746094 C 50.507812 74.515625 43.542969 65.53125 48.652344 57.214844 C 48.066406 57.238281 47.410156 58.140625 47.113281 58.542969 C 45.890625 60.214844 45.074219 62.203125 44.523438 64.175781 C 42.484375 71.503906 45.585938 77.585938 52.222656 80.828125 C 62.945312 86.085938 75.578125 83.988281 86.644531 81.414062 C 90.617188 80.488281 94.613281 79.550781 98.503906 78.320312 C 102.570312 77.039062 108.457031 75.125 110.125 70.613281 C 110.769531 68.882812 110.796875 66.871094 110.644531 65.042969 C 110.515625 63.519531 110.183594 62.007812 109.609375 60.578125 C 108.855469 58.703125 106.414062 55.960938 105.109375 54.421875 Z M 105.109375 54.421875 " fill-opacity="1" fill-rule="evenodd"/><path fill="#000000" d="M 187.574219 28.957031 C 187.515625 28.996094 187.636719 28.84375 187.664062 28.785156 C 187.730469 28.667969 187.789062 28.546875 187.851562 28.429688 C 188.046875 28.058594 188.246094 27.6875 188.429688 27.3125 C 188.964844 26.246094 189.566406 25.195312 190.089844 24.128906 C 190.089844 24.203125 190.230469 24.34375 190.269531 24.410156 C 190.390625 24.621094 190.496094 24.835938 190.609375 25.050781 C 190.984375 25.769531 191.324219 26.503906 191.679688 27.230469 C 193.128906 30.207031 194.769531 33.136719 196.082031 36.15625 C 196.285156 36.628906 196.488281 37.109375 196.660156 37.589844 C 196.761719 37.867188 196.863281 38.152344 196.933594 38.4375 C 196.972656 38.59375 197.003906 38.746094 197.023438 38.902344 C 197.035156 39.007812 197.042969 39.109375 197.039062 39.214844 C 197.035156 39.277344 197.027344 39.339844 197.003906 39.398438 C 196.792969 40.039062 195.988281 39.164062 195.78125 38.984375 C 195.691406 38.902344 195.597656 38.824219 195.507812 38.746094 C 195.40625 38.660156 195.300781 38.570312 195.199219 38.480469 C 195.058594 38.359375 194.917969 38.238281 194.773438 38.113281 C 194.585938 37.949219 194.398438 37.785156 194.210938 37.617188 C 194.019531 37.449219 193.828125 37.285156 193.644531 37.109375 C 193.578125 37.046875 193.652344 37.28125 193.660156 37.363281 C 193.683594 37.570312 193.710938 37.773438 193.734375 37.976562 C 193.796875 38.515625 193.871094 39.050781 193.957031 39.585938 C 194.203125 41.152344 194.496094 42.71875 194.761719 44.285156 C 195.5625 49.035156 196.203125 53.816406 196.808594 58.585938 C 196.671875 58.558594 196.855469 58.808594 196.878906 58.917969 C 196.929688 59.1875 196.957031 59.457031 197 59.726562 C 197.113281 60.464844 197.226562 61.203125 197.335938 61.941406 C 197.652344 64.078125 197.953125 66.210938 198.21875 68.351562 C 199.238281 76.636719 201.152344 85.429688 199.476562 93.800781 C 199.113281 95.613281 198.882812 97.683594 197.722656 99.3125 C 197.566406 99.53125 196.753906 100.734375 196.339844 100.707031 C 196.253906 100.699219 196.21875 100.621094 196.199219 100.5625 C 195.839844 99.519531 196.316406 97.972656 196.316406 96.90625 C 196.308594 92.652344 196.074219 88.429688 195.585938 84.199219 C 193.929688 69.90625 188.632812 34.167969 188.535156 30.808594 C 188.535156 30.808594 188.285156 30.34375 188.261719 30.300781 C 188.082031 29.964844 187.765625 29.285156 187.574219 28.957031 Z M 187.574219 28.957031 " fill-opacity="1" fill-rule="evenodd"/><path fill="#000000" d="M 130.34375 28.957031 C 130.289062 28.996094 130.40625 28.84375 130.4375 28.785156 C 130.5 28.667969 130.558594 28.546875 130.625 28.429688 C 130.820312 28.058594 131.015625 27.6875 131.203125 27.3125 C 131.734375 26.246094 132.339844 25.195312 132.863281 24.128906 C 132.859375 24.203125 133.003906 24.34375 133.042969 24.410156 C 133.164062 24.621094 133.269531 24.835938 133.378906 25.050781 C 133.757812 25.769531 134.09375 26.503906 134.449219 27.230469 C 135.902344 30.207031 137.539062 33.136719 138.851562 36.15625 C 139.058594 36.628906 139.257812 37.109375 139.433594 37.589844 C 139.535156 37.867188 139.632812 38.152344 139.707031 38.4375 C 139.742188 38.59375 139.777344 38.746094 139.796875 38.902344 C 139.808594 39.007812 139.8125 39.109375 139.808594 39.214844 C 139.808594 39.277344 139.796875 39.339844 139.777344 39.398438 C 139.5625 40.039062 138.757812 39.164062 138.550781 38.984375 C 138.460938 38.902344 138.371094 38.824219 138.28125 38.746094 C 138.175781 38.660156 138.074219 38.570312 137.972656 38.480469 C 137.828125 38.359375 137.6875 38.238281 137.546875 38.113281 C 137.355469 37.949219 137.167969 37.785156 136.980469 37.617188 C 136.789062 37.449219 136.597656 37.285156 136.414062 37.109375 C 136.347656 37.046875 136.421875 37.28125 136.433594 37.363281 C 136.457031 37.570312 136.480469 37.773438 136.503906 37.976562 C 136.570312 38.515625 136.640625 39.050781 136.726562 39.585938 C 136.976562 41.152344 137.265625 42.71875 137.53125 44.285156 C 138.332031 49.035156 138.976562 53.816406 139.578125 58.585938 C 139.441406 58.558594 139.628906 58.808594 139.648438 58.917969 C 139.699219 59.1875 139.730469 59.457031 139.769531 59.726562 C 139.886719 60.464844 140 61.203125 140.109375 61.941406 C 140.421875 64.078125 140.726562 66.210938 140.988281 68.351562 C 142.011719 76.636719 143.925781 85.429688 142.246094 93.800781 C 141.882812 95.613281 141.652344 97.683594 140.492188 99.3125 C 140.335938 99.53125 139.527344 100.734375 139.113281 100.707031 C 139.023438 100.699219 138.988281 100.621094 138.96875 100.5625 C 138.609375 99.519531 139.089844 97.972656 139.085938 96.90625 C 139.078125 92.652344 138.84375 88.429688 138.355469 84.199219 C 136.703125 69.90625 131.40625 34.167969 131.308594 30.808594 C 131.308594 30.808594 131.058594 30.34375 131.035156 30.300781 C 130.851562 29.964844 130.539062 29.285156 130.34375 28.957031 Z M 130.34375 28.957031 " fill-opacity="1" fill-rule="evenodd"/><path fill="#000000" d="M 279.671875 84.914062 C 279.691406 84.898438 279.703125 84.878906 279.683594 84.851562 C 279.671875 84.871094 279.671875 84.894531 279.671875 84.914062 C 279.59375 84.957031 279.355469 84.957031 279.257812 85.003906 C 278.945312 85.15625 278.640625 85.316406 278.335938 85.480469 C 277.40625 85.972656 276.558594 86.550781 275.722656 87.167969 C 273.402344 88.878906 270.757812 91.632812 267.566406 91.59375 C 267.609375 91.433594 267.21875 90.992188 267.144531 90.875 C 266.65625 90.117188 266.136719 89.386719 265.636719 88.632812 C 263.652344 85.605469 260.34375 81.304688 256.15625 83.957031 C 252.851562 86.050781 250.117188 90.132812 249.519531 93.890625 C 249.03125 96.933594 250.453125 99.847656 253.695312 100.753906 C 257.414062 101.796875 262.210938 99.675781 265.375 97.890625 C 265.398438 97.875 265.617188 98.253906 265.636719 98.300781 C 265.789062 98.570312 265.917969 98.84375 266.058594 99.117188 C 266.449219 99.929688 266.839844 100.828125 266.796875 101.738281 C 266.777344 101.75 266.527344 101.972656 266.472656 102.027344 C 266.289062 102.207031 266.09375 102.382812 265.898438 102.554688 C 265.234375 103.140625 264.574219 103.714844 263.933594 104.308594 C 262.121094 105.980469 260.226562 107.539062 258.285156 109.070312 C 252.753906 113.441406 245.476562 119.574219 237.816406 119.496094 C 229.640625 119.414062 223.957031 112.839844 224.757812 105.160156 C 224.988281 103.03125 225.421875 100.933594 225.996094 98.867188 C 226.09375 98.488281 226.691406 97.050781 226.40625 96.679688 C 226.160156 96.34375 225.183594 97.820312 225.105469 97.929688 C 224.121094 99.488281 223.523438 101.179688 223.144531 102.960938 C 222.167969 107.480469 222.296875 112.605469 224.316406 116.863281 C 227.871094 124.363281 237.394531 127.050781 245.0625 124.121094 C 249.03125 122.605469 252.523438 120.019531 255.855469 117.496094 C 258.96875 115.136719 262.167969 112.6875 264.542969 109.597656 C 265.832031 107.921875 267.71875 105.773438 268.261719 103.707031 C 268.878906 101.386719 268.71875 98.894531 268.378906 96.632812 C 268.371094 96.582031 268.847656 96.402344 268.902344 96.378906 C 269.410156 96.132812 269.933594 95.894531 270.441406 95.648438 C 272.414062 94.707031 274.476562 93.800781 276.144531 92.402344 C 276.265625 92.300781 276.167969 92.710938 276.199219 92.859375 C 276.253906 93.125 276.351562 93.378906 276.449219 93.628906 C 276.742188 94.367188 277.058594 95.09375 277.414062 95.800781 C 278.53125 97.996094 280.550781 99.722656 283.023438 100.355469 C 284.097656 100.628906 285.246094 100.8125 286.363281 100.722656 C 291.003906 100.34375 293.683594 95.847656 295.050781 92.039062 C 295.050781 92.035156 295.0625 92.03125 295.0625 92.03125 L 295.050781 92.039062 C 295.0625 92.136719 295.539062 93.195312 295.605469 93.304688 C 296.113281 94.160156 296.730469 94.976562 297.4375 95.695312 C 299.628906 97.9375 303.238281 98.566406 306.15625 97.34375 C 308.097656 96.53125 309.191406 94.996094 310.039062 93.195312 C 311.773438 89.5 310.949219 83.894531 309.519531 80.136719 C 309.5625 79.949219 309.289062 80.449219 309.160156 80.597656 C 308.867188 80.9375 308.542969 81.257812 308.25 81.59375 C 307.359375 82.589844 306.308594 83.550781 305.558594 84.65625 C 305.496094 84.746094 306.808594 86.257812 306.914062 86.496094 C 307.914062 88.59375 306.1875 90.726562 303.921875 90.847656 C 300.582031 91.023438 298.695312 88.238281 298.316406 85.382812 C 298.183594 84.402344 298.207031 83.402344 298.023438 82.425781 C 297.96875 82.109375 297.804688 81.582031 297.382812 81.59375 C 296.914062 81.605469 296.625 82.242188 296.460938 82.585938 C 295.941406 83.726562 295.886719 84.996094 295.570312 86.191406 C 295.246094 87.394531 294.539062 88.4375 293.847656 89.480469 C 292.566406 91.417969 291.027344 93.839844 288.652344 94.652344 C 285.808594 95.625 282.144531 93.902344 280.703125 91.472656 C 279.660156 89.703125 279.355469 86.933594 279.671875 84.914062 Z M 266.796875 101.738281 Z M 253.707031 93.0625 C 253.804688 91.851562 254.5 90.65625 255.367188 89.789062 C 255.789062 89.371094 256.320312 88.917969 256.980469 89.027344 C 258.273438 89.246094 259.5625 90.265625 260.410156 91.175781 C 260.582031 91.367188 261.167969 91.890625 261.082031 92.191406 C 260.984375 92.492188 260.519531 92.667969 260.257812 92.777344 C 259.445312 93.117188 258.542969 93.324219 257.675781 93.445312 C 256.742188 93.574219 254.207031 93.621094 253.707031 93.0625 Z M 253.707031 93.0625 " fill-opacity="1" fill-rule="evenodd"/><path fill="#000000" d="M 231.722656 85.914062 C 231.652344 85.984375 231.625 86.234375 231.59375 86.332031 C 231.484375 86.691406 231.382812 87.054688 231.28125 87.414062 C 230.933594 88.667969 230.574219 89.917969 230.222656 91.167969 C 230.113281 91.558594 230 91.953125 229.886719 92.34375 C 229.855469 92.460938 229.734375 92.703125 229.773438 92.820312 C 229.8125 92.9375 230.117188 93.054688 230.214844 93.117188 C 230.53125 93.320312 230.835938 93.558594 231.097656 93.824219 C 231.09375 93.792969 231.183594 93.964844 231.191406 93.980469 C 231.25 94.113281 231.3125 94.246094 231.371094 94.378906 C 231.546875 94.773438 231.6875 95.179688 231.847656 95.582031 C 232.332031 96.789062 232.820312 97.992188 233.347656 99.183594 C 234.316406 101.378906 235.445312 103.527344 236.625 105.625 C 237.125 106.511719 237.605469 107.394531 238.074219 108.292969 C 238.28125 108.699219 238.5625 109.113281 238.703125 109.546875 C 238.914062 110.207031 237.203125 111.136719 236.710938 111.625 C 234.832031 113.488281 232.789062 115.199219 230.652344 116.800781 C 222.296875 123.074219 210.917969 129.296875 200.027344 124.972656 C 200.140625 125.070312 199.761719 124.832031 199.636719 124.75 C 199.371094 124.578125 199.121094 124.394531 198.875 124.199219 C 198.101562 123.574219 197.410156 122.902344 196.820312 122.117188 C 195.074219 119.78125 194.335938 117.035156 194.214844 114.210938 C 194.042969 110.171875 194.78125 106.25 196.109375 102.417969 C 196.25 102.007812 196.394531 101.597656 196.542969 101.1875 C 196.671875 100.835938 196.800781 100.488281 196.925781 100.140625 C 197.007812 99.90625 197.089844 99.671875 197.167969 99.4375 C 197.230469 99.246094 197.292969 99.058594 197.351562 98.867188 C 197.402344 98.710938 197.453125 98.550781 197.5 98.390625 C 197.59375 98.0625 198.289062 96.207031 197.351562 96.433594 C 197.417969 96.585938 197.113281 96.675781 197.023438 96.820312 C 196.714844 97.3125 196.441406 97.832031 196.183594 98.351562 C 195.183594 100.371094 194.328125 102.4375 193.617188 104.5625 C 191.527344 110.808594 189.453125 118.558594 192.539062 124.789062 C 192.632812 124.765625 192.605469 124.964844 192.640625 125.050781 C 192.71875 125.238281 192.804688 125.421875 192.886719 125.605469 C 193.144531 126.167969 193.445312 126.707031 193.773438 127.234375 C 194.699219 128.730469 196.085938 130 197.519531 131.070312 C 201.375 133.949219 206.59375 133.933594 211.25 133.371094 C 211.246094 133.351562 211.621094 133.269531 211.636719 133.265625 C 212.082031 133.15625 212.527344 133.054688 212.96875 132.929688 C 214.097656 132.617188 215.222656 132.257812 216.285156 131.78125 C 219.59375 130.304688 222.953125 128.777344 225.789062 126.59375 C 225.789062 126.597656 229.546875 123.839844 230.613281 123.046875 C 233.84375 120.644531 237.101562 117.761719 239.097656 114.320312 C 239.167969 114.199219 239.40625 113.671875 239.457031 113.558594 C 239.796875 112.769531 240.082031 111.953125 240.296875 111.125 C 240.828125 109.109375 241.070312 106.835938 240.628906 104.78125 C 240.347656 103.46875 239.785156 102.253906 239.238281 101.023438 C 239.335938 101.0625 239.167969 100.835938 239.125 100.742188 C 239.054688 100.578125 238.976562 100.414062 238.902344 100.253906 C 238.640625 99.695312 238.382812 99.132812 238.117188 98.578125 C 237.363281 96.996094 236.175781 95.425781 235.738281 93.726562 C 235.625 93.292969 236.09375 93.597656 236.289062 93.707031 C 236.789062 93.988281 237.273438 94.3125 237.804688 94.539062 C 237.976562 94.613281 238.289062 94.730469 238.347656 94.472656 C 238.5 93.8125 237.757812 92.875 237.417969 92.371094 C 236.324219 90.746094 233.898438 88.132812 231.722656 85.914062 Z M 231.722656 85.914062 " fill-opacity="1" fill-rule="evenodd"/><path fill="#000000" d="M 211.105469 68.089844 C 211.117188 67.828125 211.625 68.269531 211.894531 68.347656 C 212.570312 68.542969 213.261719 68.710938 213.957031 68.851562 C 214.011719 68.859375 214.597656 69.007812 214.597656 68.910156 C 214.574219 68.347656 213.089844 67.402344 212.710938 67.070312 C 210.929688 65.488281 209.152344 63.910156 207.296875 62.414062 C 206.949219 62.136719 205.59375 60.761719 205.0625 60.945312 C 204.695312 61.070312 204.476562 61.660156 204.324219 61.960938 C 203.882812 62.878906 203.46875 63.808594 203.046875 64.738281 C 202.925781 64.996094 202.527344 65.597656 202.667969 65.90625 C 202.820312 66.21875 203.273438 66.136719 203.546875 66.289062 C 203.914062 66.503906 204.164062 67.011719 204.378906 67.347656 C 206.667969 70.730469 209.402344 73.742188 212.003906 76.902344 C 211.992188 76.90625 212.234375 77.132812 212.253906 77.160156 C 212.242188 77.148438 211.417969 78.105469 211.363281 78.171875 C 210.28125 79.414062 209.304688 80.734375 208.371094 82.070312 C 205.746094 85.777344 204.890625 90.949219 206.105469 95.269531 C 206.789062 97.714844 208.792969 100.164062 211.65625 99.960938 C 213.859375 99.804688 215.996094 98.144531 217.535156 96.761719 C 221.300781 93.390625 225.746094 88.34375 223.621094 83.058594 C 222.785156 81.007812 221.40625 79.15625 219.910156 77.507812 C 219.457031 77.019531 218.121094 76.117188 218.304688 75.367188 C 218.632812 74.101562 219.902344 72.894531 220.671875 71.875 C 222.667969 69.265625 225.519531 66.269531 226.386719 63.050781 C 226.691406 61.894531 227.070312 59.519531 226.34375 58.421875 C 226.234375 58.269531 225.886719 58.738281 225.84375 58.800781 C 225.378906 59.359375 225.019531 60.003906 224.628906 60.609375 C 223.652344 62.117188 222.644531 63.605469 221.59375 65.070312 C 220.757812 66.242188 219.890625 67.390625 219.03125 68.554688 C 218.199219 69.683594 217.363281 70.808594 216.515625 71.921875 C 216.355469 72.128906 215.953125 72.863281 215.617188 72.875 C 214.78125 72.910156 211.636719 68.636719 211.105469 68.089844 Z M 214.695312 79.8125 C 214.835938 79.664062 213.859375 80.625 213.738281 80.785156 C 213.523438 81.078125 213.296875 81.371094 213.078125 81.664062 C 212.429688 82.527344 211.808594 83.402344 211.203125 84.289062 C 209.5 86.761719 206.582031 92.25 211.105469 93.683594 C 214.078125 94.625 216.960938 91.570312 218.664062 89.652344 C 219.367188 88.871094 220.398438 87.828125 220.398438 86.722656 C 220.410156 86.085938 219.976562 85.460938 219.628906 84.945312 C 218.632812 83.484375 216.105469 80.914062 214.695312 79.8125 Z M 214.695312 79.8125 " fill-opacity="1" fill-rule="evenodd"/><path fill="#000000" d="M 241.785156 46.863281 C 241.804688 46.894531 241.710938 47.035156 241.695312 47.066406 C 241.578125 47.285156 241.457031 47.5 241.328125 47.714844 C 241.296875 47.765625 241.214844 47.929688 241.121094 47.921875 C 240.980469 47.914062 240.753906 47.714844 240.652344 47.648438 C 240.269531 47.394531 239.882812 47.15625 239.507812 46.894531 C 239.09375 46.605469 238.675781 46.320312 238.246094 46.042969 C 238 45.882812 237.667969 45.742188 237.484375 45.523438 C 237.289062 45.292969 237.296875 44.960938 237.273438 44.691406 C 237.210938 44.042969 237.195312 43.371094 237.414062 42.738281 C 237.617188 42.148438 237.996094 41.367188 238.84375 41.25 C 239.730469 41.121094 240.660156 41.75 241.34375 42.121094 C 242.726562 42.875 243.601562 43.914062 244.378906 45.089844 C 245.070312 46.140625 245.617188 47.234375 245.964844 48.394531 C 246.175781 49.097656 246.300781 49.828125 246.554688 50.523438 C 246.664062 50.820312 246.804688 51.195312 247.148438 51.371094 C 247.144531 51.414062 247.175781 51.277344 247.183594 51.230469 C 247.203125 51.140625 247.21875 51.050781 247.234375 50.953125 C 247.28125 50.6875 247.320312 50.421875 247.359375 50.152344 C 247.484375 49.324219 247.636719 48.5 247.863281 47.683594 C 248.457031 45.519531 249.320312 43.195312 250.855469 41.335938 C 251.542969 40.503906 252.601562 39.589844 253.972656 40.023438 C 254.925781 40.324219 255.578125 41.203125 256.027344 41.898438 C 256.171875 42.128906 256.433594 42.476562 256.417969 42.742188 C 256.390625 43.273438 255.917969 43.878906 255.671875 44.351562 C 255.5 44.6875 255.339844 45.027344 255.132812 45.347656 C 255.0625 45.457031 254.972656 45.640625 254.828125 45.703125 C 254.554688 45.8125 254.222656 45.152344 254.148438 45.039062 C 253.746094 44.4375 253.140625 43.484375 252.136719 43.53125 C 251.085938 43.578125 250.621094 44.660156 250.300781 45.308594 C 249.339844 47.253906 248.8125 49.253906 248.269531 51.289062 C 248.253906 51.289062 248.171875 51.585938 248.164062 51.609375 C 248.027344 51.972656 247.894531 52.339844 247.773438 52.710938 C 247.414062 53.792969 247.183594 54.933594 246.667969 55.972656 C 246.585938 56.132812 246.246094 56.917969 245.863281 56.730469 C 245.675781 56.636719 245.640625 56.347656 245.613281 56.195312 C 245.527344 55.734375 245.425781 55.277344 245.304688 54.824219 C 245.164062 54.292969 245.023438 53.761719 244.894531 53.230469 C 244.699219 52.417969 244.480469 51.609375 244.167969 50.820312 C 243.746094 49.761719 242.726562 47.351562 241.785156 46.863281 Z M 241.785156 46.863281 " fill-opacity="1" fill-rule="evenodd"/><path fill="#000000" d="M 115.242188 52.507812 C 115.261719 52.542969 115.167969 52.679688 115.152344 52.714844 C 115.035156 52.929688 114.914062 53.148438 114.785156 53.359375 C 114.753906 53.410156 114.671875 53.574219 114.578125 53.566406 C 114.4375 53.558594 114.210938 53.359375 114.109375 53.292969 C 113.726562 53.042969 113.339844 52.800781 112.964844 52.542969 C 112.550781 52.253906 112.132812 51.964844 111.703125 51.6875 C 111.457031 51.53125 111.121094 51.386719 110.941406 51.171875 C 110.746094 50.9375 110.753906 50.605469 110.730469 50.339844 C 110.667969 49.6875 110.652344 49.019531 110.871094 48.382812 C 111.074219 47.796875 111.453125 47.011719 112.300781 46.894531 C 113.1875 46.769531 114.117188 47.394531 114.800781 47.769531 C 116.183594 48.523438 117.058594 49.5625 117.832031 50.738281 C 118.523438 51.789062 119.074219 52.878906 119.421875 54.039062 C 119.632812 54.742188 119.757812 55.472656 120.011719 56.167969 C 120.121094 56.464844 120.261719 56.839844 120.605469 57.015625 C 120.601562 57.0625 120.632812 56.925781 120.640625 56.878906 C 120.660156 56.785156 120.675781 56.695312 120.691406 56.601562 C 120.738281 56.335938 120.777344 56.066406 120.816406 55.796875 C 120.941406 54.96875 121.09375 54.144531 121.316406 53.332031 C 121.914062 51.164062 122.777344 48.839844 124.3125 46.980469 C 125 46.148438 126.058594 45.238281 127.429688 45.667969 C 128.382812 45.96875 129.035156 46.847656 129.484375 47.542969 C 129.628906 47.773438 129.890625 48.121094 129.875 48.390625 C 129.847656 48.917969 129.375 49.523438 129.128906 50 C 128.957031 50.332031 128.796875 50.671875 128.589844 50.992188 C 128.519531 51.105469 128.429688 51.285156 128.28125 51.347656 C 128.011719 51.457031 127.679688 50.800781 127.605469 50.6875 C 127.203125 50.082031 126.597656 49.128906 125.59375 49.175781 C 124.542969 49.226562 124.078125 50.304688 123.757812 50.957031 C 122.796875 52.902344 122.265625 54.898438 121.722656 56.933594 C 121.710938 56.9375 121.628906 57.234375 121.621094 57.257812 C 121.484375 57.621094 121.351562 57.988281 121.230469 58.355469 C 120.871094 59.4375 120.640625 60.578125 120.125 61.621094 C 120.042969 61.777344 119.703125 62.5625 119.320312 62.375 C 119.132812 62.28125 119.097656 61.996094 119.070312 61.839844 C 118.984375 61.378906 118.882812 60.925781 118.761719 60.46875 C 118.621094 59.9375 118.480469 59.410156 118.351562 58.875 C 118.15625 58.066406 117.9375 57.253906 117.625 56.464844 C 117.203125 55.40625 116.183594 53 115.242188 52.507812 Z M 115.242188 52.507812 " fill-opacity="1" fill-rule="evenodd"/><path fill="#000000" d="M 241.785156 73.746094 C 241.804688 73.78125 241.710938 73.917969 241.695312 73.953125 C 241.578125 74.167969 241.457031 74.386719 241.328125 74.597656 C 241.296875 74.648438 241.214844 74.8125 241.121094 74.804688 C 240.980469 74.796875 240.753906 74.597656 240.652344 74.535156 C 240.269531 74.28125 239.882812 74.039062 239.507812 73.78125 C 239.09375 73.492188 238.675781 73.203125 238.246094 72.929688 C 238 72.769531 237.667969 72.625 237.484375 72.410156 C 237.289062 72.175781 237.296875 71.847656 237.273438 71.578125 C 237.210938 70.925781 237.195312 70.257812 237.414062 69.621094 C 237.617188 69.035156 237.996094 68.25 238.84375 68.132812 C 239.730469 68.007812 240.660156 68.632812 241.34375 69.007812 C 242.726562 69.761719 243.601562 70.800781 244.378906 71.976562 C 245.070312 73.027344 245.617188 74.117188 245.964844 75.277344 C 246.175781 75.980469 246.300781 76.714844 246.554688 77.410156 C 246.664062 77.703125 246.804688 78.078125 247.148438 78.253906 C 247.144531 78.300781 247.175781 78.164062 247.183594 78.117188 C 247.203125 78.027344 247.21875 77.933594 247.234375 77.839844 C 247.28125 77.574219 247.320312 77.304688 247.359375 77.039062 C 247.484375 76.207031 247.636719 75.386719 247.863281 74.570312 C 248.457031 72.402344 249.320312 70.082031 250.855469 68.21875 C 251.542969 67.390625 252.601562 66.476562 253.972656 66.90625 C 254.925781 67.207031 255.578125 68.085938 256.027344 68.785156 C 256.171875 69.015625 256.433594 69.359375 256.417969 69.628906 C 256.390625 70.160156 255.917969 70.761719 255.671875 71.238281 C 255.5 71.570312 255.339844 71.910156 255.132812 72.234375 C 255.0625 72.34375 254.972656 72.527344 254.828125 72.585938 C 254.554688 72.695312 254.222656 72.039062 254.148438 71.925781 C 253.746094 71.320312 253.140625 70.367188 252.136719 70.414062 C 251.085938 70.464844 250.621094 71.542969 250.300781 72.195312 C 249.339844 74.140625 248.8125 76.140625 248.269531 78.171875 C 248.253906 78.175781 248.171875 78.472656 248.164062 78.496094 C 248.027344 78.859375 247.894531 79.226562 247.773438 79.59375 C 247.414062 80.675781 247.183594 81.816406 246.667969 82.859375 C 246.585938 83.015625 246.246094 83.800781 245.863281 83.613281 C 245.675781 83.519531 245.640625 83.234375 245.613281 83.078125 C 245.527344 82.621094 245.425781 82.164062 245.304688 81.710938 C 245.164062 81.175781 245.023438 80.648438 244.894531 80.117188 C 244.699219 79.304688 244.480469 78.492188 244.167969 77.707031 C 243.746094 76.644531 242.726562 74.238281 241.785156 73.746094 Z M 241.785156 73.746094 " fill-opacity="1" fill-rule="evenodd"/><path fill="#000000" d="M 301.664062 102.214844 C 301.585938 102.125 301.460938 102.453125 301.433594 102.523438 C 301.375 102.671875 301.316406 102.820312 301.257812 102.972656 C 301.078125 103.449219 300.886719 103.914062 300.703125 104.386719 C 300.578125 104.691406 300.925781 105.078125 301.015625 105.347656 C 301.300781 106.183594 300.789062 106.734375 300.089844 106.71875 C 299.894531 106.714844 299.707031 106.660156 299.519531 106.585938 C 298.742188 106.273438 297.964844 105.507812 298.042969 104.472656 C 298.082031 103.9375 298.289062 103.484375 298.402344 102.976562 C 298.441406 102.808594 298.449219 102.542969 298.261719 102.492188 C 297.796875 102.363281 297.378906 103.4375 297.214844 103.773438 C 296.5625 105.125 296.015625 106.757812 294.738281 107.484375 C 293.550781 108.160156 292.421875 107.242188 291.273438 106.898438 C 290.035156 106.527344 288.800781 106.699219 287.617188 107.226562 C 287.617188 107.34375 287.429688 107.316406 287.335938 107.371094 C 287.039062 107.546875 286.75 107.742188 286.460938 107.9375 C 285.191406 108.808594 283.972656 109.792969 282.796875 110.816406 C 277.6875 115.253906 272.351562 119.273438 266.777344 122.890625 C 265.085938 123.992188 263.402344 125.125 261.671875 126.148438 C 260.96875 126.566406 260.25 126.949219 259.554688 127.378906 C 259.476562 127.425781 258.910156 127.734375 259.070312 127.917969 C 259.257812 128.128906 259.78125 128.007812 260.003906 127.984375 C 260.859375 127.890625 261.722656 127.644531 262.558594 127.417969 C 264.609375 126.855469 266.792969 126.242188 268.675781 125.121094 C 269.878906 124.40625 270.992188 123.441406 272.082031 122.527344 C 275.398438 119.746094 278.6875 116.925781 282.015625 114.167969 C 283.972656 112.550781 286.097656 110.582031 288.417969 109.695312 C 290.480469 108.90625 292.132812 111.417969 294.199219 110.554688 C 295.097656 110.179688 295.753906 109.214844 296.191406 108.273438 C 296.265625 108.117188 296.699219 106.832031 296.851562 106.789062 C 296.878906 106.785156 296.957031 107.351562 296.960938 107.386719 C 297.023438 107.804688 297.089844 108.265625 297.320312 108.609375 C 297.886719 109.476562 298.933594 109.632812 299.800781 109.433594 C 302.503906 108.816406 302.515625 105.796875 302.066406 103.289062 C 302.007812 102.957031 301.765625 102.34375 301.664062 102.214844 Z M 301.664062 102.214844 " fill-opacity="1" fill-rule="evenodd"/><path fill="#000000" d="M 229.054688 67.570312 C 229.070312 67.582031 230.449219 66.882812 230.535156 66.84375 C 232.292969 66.035156 234.070312 65.261719 235.859375 64.496094 C 243.191406 61.359375 250.59375 58.277344 258.089844 55.382812 C 260.199219 54.566406 262.324219 53.765625 264.488281 53.039062 C 264.621094 52.992188 266.328125 52.328125 266.417969 52.492188 C 266.605469 52.828125 265.820312 53.933594 265.667969 54.242188 C 265.34375 54.90625 265.132812 55.90625 264.535156 56.464844 C 264.132812 56.839844 263.359375 57.003906 262.808594 57.199219 C 261.472656 57.679688 260.128906 58.148438 258.804688 58.648438 C 254.71875 60.1875 250.761719 61.933594 246.753906 63.589844 C 242.871094 65.195312 238.898438 66.671875 235.050781 68.332031 C 233.128906 69.160156 231.207031 69.984375 229.292969 70.816406 C 228.984375 70.949219 227.707031 71.714844 227.316406 71.558594 C 227.070312 71.460938 227.351562 70.949219 227.402344 70.824219 C 227.675781 70.140625 228.734375 68.242188 229.054688 67.570312 Z M 229.054688 67.570312 " fill-opacity="1" fill-rule="evenodd"/><g clip-path="url(#283b4e0b39)"><path fill="#000000" d="M 112.558594 133.40625 C 112.574219 133.414062 113.949219 132.71875 114.035156 132.679688 C 115.792969 131.871094 117.574219 131.09375 119.359375 130.328125 C 126.691406 127.195312 134.09375 124.113281 141.589844 121.214844 C 143.699219 120.402344 145.828125 119.601562 147.988281 118.871094 C 148.121094 118.828125 149.828125 118.164062 149.921875 118.328125 C 150.109375 118.664062 149.320312 119.769531 149.167969 120.078125 C 148.847656 120.742188 148.636719 121.742188 148.035156 122.300781 C 147.632812 122.675781 146.859375 122.839844 146.3125 123.035156 C 144.972656 123.511719 143.628906 123.984375 142.308594 124.480469 C 138.222656 126.023438 134.265625 127.769531 130.253906 129.425781 C 126.371094 131.03125 122.398438 132.507812 118.550781 134.167969 C 116.632812 134.992188 114.710938 135.820312 112.792969 136.652344 C 112.488281 136.785156 111.210938 137.550781 110.816406 137.394531 C 110.570312 137.292969 110.851562 136.785156 110.902344 136.660156 C 111.175781 135.976562 112.234375 134.078125 112.558594 133.40625 Z M 112.558594 133.40625 " fill-opacity="1" fill-rule="evenodd"/></g><path fill="#000000" d="M 144.25 26.996094 C 144.261719 27.003906 145.261719 26.445312 145.324219 26.414062 C 146.597656 25.765625 147.886719 25.144531 149.1875 24.53125 C 154.507812 22.015625 159.878906 19.546875 165.316406 17.222656 C 166.847656 16.570312 168.390625 15.929688 169.957031 15.34375 C 170.054688 15.308594 171.292969 14.777344 171.359375 14.910156 C 171.496094 15.175781 170.925781 16.0625 170.816406 16.308594 C 170.582031 16.84375 170.429688 17.644531 169.992188 18.09375 C 169.703125 18.394531 169.140625 18.523438 168.742188 18.683594 C 167.769531 19.066406 166.796875 19.441406 165.835938 19.84375 C 162.871094 21.078125 160 22.476562 157.089844 23.804688 C 154.273438 25.089844 151.390625 26.277344 148.597656 27.605469 C 147.207031 28.269531 145.8125 28.929688 144.421875 29.597656 C 144.199219 29.703125 143.269531 30.320312 142.988281 30.191406 C 142.808594 30.113281 143.011719 29.703125 143.050781 29.605469 C 143.246094 29.054688 144.015625 27.535156 144.25 26.996094 Z M 144.25 26.996094 " fill-opacity="1" fill-rule="evenodd"/><path fill="#000000" d="M 102.753906 36.238281 C 102.765625 36.246094 103.761719 35.6875 103.824219 35.65625 C 105.101562 35.007812 106.390625 34.386719 107.6875 33.773438 C 113.007812 31.257812 118.378906 28.789062 123.820312 26.46875 C 125.351562 25.8125 126.894531 25.171875 128.460938 24.589844 C 128.558594 24.550781 129.796875 24.019531 129.863281 24.152344 C 130 24.421875 129.429688 25.304688 129.316406 25.554688 C 129.085938 26.085938 128.929688 26.886719 128.496094 27.335938 C 128.203125 27.636719 127.644531 27.765625 127.246094 27.925781 C 126.273438 28.308594 125.300781 28.683594 124.339844 29.085938 C 121.375 30.320312 118.503906 31.71875 115.59375 33.046875 C 112.777344 34.335938 109.894531 35.519531 107.101562 36.847656 C 105.707031 37.511719 104.3125 38.171875 102.921875 38.839844 C 102.703125 38.949219 101.773438 39.5625 101.488281 39.433594 C 101.3125 39.355469 101.515625 38.945312 101.550781 38.847656 C 101.75 38.296875 102.519531 36.777344 102.753906 36.238281 Z M 102.753906 36.238281 " fill-opacity="1" fill-rule="evenodd"/><path fill="#000000" d="M 268.824219 57.679688 C 269.257812 57.246094 269.582031 56.472656 269.921875 55.964844 C 270.925781 54.484375 271.921875 53 272.949219 51.535156 C 273.527344 50.710938 274.0625 49.738281 274.890625 49.101562 C 276.0625 48.199219 277.820312 48.320312 279.238281 48.410156 C 282.507812 48.617188 286.28125 49.605469 289.386719 50.097656 C 289.441406 50.058594 289.71875 50.183594 289.777344 50.203125 C 290.140625 50.320312 290.496094 50.449219 290.851562 50.578125 C 292.050781 51.023438 294.402344 51.644531 293.980469 53.234375 C 293.714844 54.246094 292.992188 55.148438 292.339844 55.96875 C 291.320312 57.242188 290.226562 58.480469 289.085938 59.660156 C 287.570312 61.222656 285.976562 62.695312 284.316406 64.125 C 283.21875 65.066406 282.085938 66.109375 280.671875 66.617188 C 278.304688 67.472656 275.503906 67.375 273.003906 67.519531 C 271.820312 67.585938 270.640625 67.640625 269.453125 67.683594 C 268.828125 67.707031 268.046875 67.789062 267.441406 67.617188 C 266.839844 67.445312 268.269531 66.679688 268.371094 66.625 C 269.65625 65.941406 271.050781 65.414062 272.4375 64.9375 C 275.640625 63.835938 278.921875 62.808594 281.960938 61.355469 C 282.6875 61.007812 283.410156 60.660156 284.121094 60.28125 C 284.304688 60.1875 284.71875 60.03125 284.785156 59.820312 C 284.867188 59.5625 284.261719 59.308594 284.089844 59.234375 C 283.253906 58.871094 282.28125 58.691406 281.390625 58.484375 C 277.683594 57.632812 272.617188 57.148438 268.824219 57.679688 Z M 268.824219 57.679688 " fill-opacity="1" fill-rule="evenodd"/><path fill="#000000" d="M 203.164062 45.976562 L 207.601562 40.203125 L 214.769531 45.34375 L 210.042969 50.789062 C 210.042969 50.789062 203.449219 45.707031 203.164062 45.976562 Z M 203.164062 45.976562 " fill-opacity="1" fill-rule="evenodd"/><path fill="#000000" d="M 101.417969 123.53125 L 105.855469 117.757812 L 113.023438 122.902344 L 108.292969 128.34375 C 108.292969 128.34375 101.699219 123.261719 101.417969 123.53125 Z M 101.417969 123.53125 " fill-opacity="1" fill-rule="evenodd"/><path fill="#000000" d="M 113.023438 123.53125 L 117.460938 117.757812 L 124.628906 122.902344 L 119.902344 128.34375 C 119.902344 128.34375 113.308594 123.261719 113.023438 123.53125 Z M 113.023438 123.53125 " fill-opacity="1" fill-rule="evenodd"/><path fill="#000000" d="M 59.820312 46.054688 L 64.257812 40.277344 L 71.425781 45.421875 L 66.699219 50.863281 C 66.699219 50.863281 60.101562 45.785156 59.820312 46.054688 Z M 59.820312 46.054688 " fill-opacity="1" fill-rule="evenodd"/><path fill="#000000" d="M 71.429688 46.054688 L 75.867188 40.277344 L 83.035156 45.421875 L 78.304688 50.863281 C 78.304688 50.863281 71.710938 45.785156 71.429688 46.054688 Z M 71.429688 46.054688 " fill-opacity="1" fill-rule="evenodd"/><path fill="#000000" d="M 213.632812 44.707031 L 218.066406 38.933594 L 225.234375 44.074219 L 220.507812 49.515625 C 220.507812 49.515625 213.914062 44.4375 213.632812 44.707031 Z M 213.632812 44.707031 " fill-opacity="1" fill-rule="evenodd"/><path fill="#000000" d="M 144.144531 46.054688 L 148.582031 40.277344 L 155.75 45.421875 L 151.019531 50.863281 C 151.019531 50.863281 144.425781 45.785156 144.144531 46.054688 Z M 144.144531 46.054688 " fill-opacity="1" fill-rule="evenodd"/><path fill="#000000" d="M 210.824219 102.257812 C 210.570312 102.097656 210.335938 102.429688 210.296875 102.480469 C 210.027344 102.78125 209.839844 103.128906 209.65625 103.46875 C 209.070312 104.554688 208.542969 105.664062 207.953125 106.75 C 206.4375 109.515625 204.523438 112.847656 204.714844 116.007812 C 204.796875 117.378906 205.316406 119.125 207.128906 119.410156 C 209.378906 119.757812 210.679688 116.859375 211.265625 115.476562 C 211.464844 115.003906 211.941406 114.0625 211.625 113.550781 C 211.359375 113.113281 210.679688 114.03125 210.578125 114.171875 C 209.941406 115.023438 208.933594 116.703125 207.757812 115.328125 C 206.8125 114.222656 206.957031 112.703125 207.25 111.421875 C 207.683594 109.53125 208.722656 107.808594 209.644531 106.078125 C 210.226562 104.992188 211.691406 102.808594 210.824219 102.257812 Z M 210.824219 102.257812 " fill-opacity="1" fill-rule="evenodd"/><path fill="#000000" d="M 172.242188 58.972656 C 171.988281 58.8125 171.753906 59.144531 171.710938 59.195312 C 171.445312 59.496094 171.253906 59.84375 171.070312 60.1875 C 170.484375 61.269531 169.960938 62.378906 169.367188 63.464844 C 167.855469 66.234375 165.941406 69.5625 166.128906 72.722656 C 166.210938 74.097656 166.734375 75.839844 168.546875 76.125 C 170.792969 76.476562 172.097656 73.574219 172.679688 72.191406 C 172.878906 71.71875 173.355469 70.777344 173.042969 70.269531 C 172.773438 69.832031 172.097656 70.746094 171.992188 70.886719 C 171.359375 71.738281 170.351562 73.417969 169.175781 72.042969 C 168.230469 70.9375 168.371094 69.417969 168.667969 68.136719 C 169.101562 66.25 170.140625 64.527344 171.0625 62.792969 C 171.644531 61.707031 173.109375 59.523438 172.242188 58.972656 Z M 172.242188 58.972656 " fill-opacity="1" fill-rule="evenodd"/><path fill="#000000" d="M 175.753906 115.292969 C 175.5 115.132812 175.265625 115.46875 175.226562 115.515625 C 174.957031 115.816406 174.769531 116.164062 174.582031 116.507812 C 174 117.59375 173.472656 118.703125 172.878906 119.785156 C 171.367188 122.554688 169.453125 125.886719 169.640625 129.042969 C 169.722656 130.417969 170.246094 132.160156 172.058594 132.445312 C 174.308594 132.796875 175.609375 129.894531 176.195312 128.511719 C 176.394531 128.042969 176.867188 127.097656 176.554688 126.589844 C 176.289062 126.152344 175.609375 127.066406 175.507812 127.207031 C 174.871094 128.0625 173.863281 129.742188 172.6875 128.363281 C 171.742188 127.257812 171.886719 125.742188 172.179688 124.460938 C 172.613281 122.570312 173.652344 120.847656 174.574219 119.117188 C 175.15625 118.027344 176.621094 115.84375 175.753906 115.292969 Z M 175.753906 115.292969 " fill-opacity="1" fill-rule="evenodd"/><path fill="#000000" d="M 77.75 110.101562 C 78.144531 110.3125 78.507812 109.871094 78.570312 109.808594 C 78.988281 109.410156 79.28125 108.949219 79.566406 108.496094 C 80.472656 107.0625 81.289062 105.597656 82.207031 104.164062 C 84.554688 100.503906 87.527344 96.101562 87.234375 91.925781 C 87.105469 90.113281 86.296875 87.804688 83.484375 87.429688 C 79.996094 86.96875 77.972656 90.800781 77.066406 92.628906 C 76.757812 93.253906 76.019531 94.496094 76.507812 95.171875 C 76.921875 95.75 77.972656 94.539062 78.136719 94.355469 C 79.121094 93.226562 80.683594 91.007812 82.507812 92.824219 C 83.976562 94.285156 83.753906 96.292969 83.296875 97.984375 C 82.621094 100.484375 81.011719 102.761719 79.578125 105.046875 C 78.679688 106.488281 76.40625 109.371094 77.75 110.101562 Z M 77.75 110.101562 " fill-opacity="1" fill-rule="evenodd"/><path fill="#000000" d="M 113 86.890625 C 112.84375 86.957031 113.230469 85.320312 113.265625 85.183594 C 113.378906 84.738281 114.085938 81.734375 114.707031 81.898438 C 115.449219 82.101562 116.085938 83.570312 116.410156 84.15625 C 117.777344 86.5625 119.039062 89.324219 118.675781 92.164062 C 117.683594 99.90625 109.242188 105.054688 102.175781 101.125 C 97.390625 98.464844 95.609375 92.292969 94.492188 87.3125 C 91.679688 74.765625 92.132812 61.46875 90.679688 48.734375 C 90.21875 44.714844 89.652344 40.722656 89.027344 36.730469 C 88.898438 35.910156 88.824219 33.171875 88.078125 32.589844 C 87.800781 32.371094 87.300781 32.980469 87.148438 33.132812 C 86.6875 33.601562 85.417969 35.617188 84.644531 34.820312 C 84.148438 34.3125 84.363281 33.359375 84.496094 32.753906 C 84.855469 31.105469 85.710938 27.824219 87.378906 26.984375 C 89.121094 26.113281 90.183594 29.253906 90.523438 30.359375 C 91.984375 35.070312 92.507812 40.140625 93.148438 45.007812 C 94.230469 53.296875 94.953125 61.621094 95.710938 69.9375 C 96.355469 77.03125 96.917969 84.675781 99.953125 91.238281 C 101.21875 93.976562 103.25 96.636719 106.101562 97.855469 C 109.277344 99.199219 114.367188 97.019531 115.78125 93.609375 C 116.949219 90.785156 113.910156 89.085938 113 86.890625 Z M 113 86.890625 " fill-opacity="1" fill-rule="evenodd"/><path fill="#000000" d="M 176.417969 42.636719 C 176.082031 42.765625 176.957031 43.121094 177.234375 43.347656 C 177.550781 43.613281 179.933594 45.476562 180.039062 44.550781 C 180.167969 43.410156 179.480469 42.003906 179.097656 40.976562 C 178.121094 38.339844 176.957031 35.742188 175.753906 33.207031 C 175.515625 32.714844 174.59375 30.066406 173.972656 29.9375 C 173.265625 29.789062 172.335938 30.925781 171.886719 31.332031 C 171.394531 31.777344 170.355469 32.421875 170.132812 33.070312 C 169.984375 33.5 170.414062 34.199219 170.597656 34.539062 C 171.257812 35.820312 171.972656 37.316406 172.945312 38.378906 C 172.890625 38.304688 172.910156 38.910156 172.910156 38.960938 C 172.902344 39.417969 172.90625 39.875 172.910156 40.320312 C 172.925781 41.699219 173 43.070312 173.101562 44.4375 C 173.398438 48.519531 173.851562 52.574219 174.570312 56.605469 C 176.242188 66.03125 178.238281 75.398438 179.851562 84.839844 C 180.828125 90.542969 181.496094 96.5 175.3125 99.335938 C 170.574219 101.515625 168.464844 93.722656 167.484375 90.617188 C 164.65625 81.671875 163.1875 72.304688 158.730469 63.917969 C 157.609375 61.8125 156.277344 59.835938 154.730469 58.023438 C 154.453125 57.707031 153.613281 56.386719 153.132812 56.335938 C 152.847656 56.300781 152.542969 57.375 152.476562 57.578125 C 152.074219 58.695312 151.636719 59.808594 151.207031 60.925781 C 151.105469 61.179688 150.679688 61.835938 150.882812 62.117188 C 152.449219 64.320312 154.40625 66.246094 155.960938 68.492188 C 159.042969 72.925781 161.265625 77.90625 162.445312 83.179688 C 162.824219 84.863281 163.125 86.574219 163.421875 88.285156 C 163.5 88.703125 163.898438 89.769531 163.605469 90.175781 C 162.164062 92.140625 159.792969 93.8125 157.976562 95.410156 C 153.269531 99.515625 148.117188 103.378906 142.460938 106.09375 C 139.753906 107.386719 136.011719 109.160156 132.929688 108.335938 C 128.917969 107.257812 127.976562 101.9375 128.046875 98.4375 C 128.070312 97.195312 128.214844 95.953125 128.417969 94.738281 C 128.429688 94.648438 128.636719 93 128.554688 93.039062 C 128.078125 93.203125 127.792969 94.839844 127.683594 95.21875 C 126.910156 97.917969 126.527344 100.71875 126.835938 103.519531 C 127.019531 105.179688 127.503906 106.851562 128.28125 108.324219 C 128.777344 109.273438 129.414062 110.160156 130.160156 110.921875 C 136.304688 117.167969 145.570312 111.3125 150.988281 107.144531 C 152.21875 106.207031 153.425781 105.21875 154.597656 104.191406 C 156.171875 102.824219 157.726562 101.414062 159.242188 99.984375 C 160.773438 98.527344 162.3125 96.980469 163.417969 95.167969 C 163.78125 94.574219 164.332031 92.695312 164.976562 92.367188 C 165.300781 92.214844 164.988281 93.089844 165.015625 93.457031 C 165.082031 94.269531 165.195312 95.066406 165.324219 95.878906 C 165.734375 98.363281 166.386719 101.214844 168.441406 102.898438 C 172.460938 106.179688 179.289062 103.328125 182.050781 99.628906 C 183.074219 98.261719 183.621094 96.269531 183.851562 94.625 C 184.359375 90.972656 183.933594 87.476562 183.558594 83.824219 C 182.867188 77.097656 181.53125 70.441406 180.457031 63.777344 C 179.460938 57.59375 177.761719 48.757812 176.417969 42.636719 Z M 176.417969 42.636719 " fill-opacity="1" fill-rule="evenodd"/><path fill="#000000" d="M 280.6875 78.6875 C 280.554688 78.636719 281.058594 78.3125 281.097656 78.292969 C 281.296875 78.191406 281.492188 78.082031 281.679688 77.96875 C 282.242188 77.632812 282.804688 77.292969 283.355469 76.941406 C 285.074219 75.84375 286.785156 74.726562 288.496094 73.617188 C 292.34375 71.117188 303.085938 63.15625 303.339844 62.683594 C 303.15625 62.546875 302.84375 62.453125 302.636719 62.328125 C 301.558594 61.6875 299.921875 60.734375 300.042969 59.453125 C 300.203125 57.703125 301.882812 55.742188 303.773438 55.140625 C 304.617188 54.871094 305.726562 54.746094 306.457031 55.308594 C 306.917969 55.664062 307.046875 56.238281 307.097656 56.75 C 307.210938 57.875 306.871094 58.949219 306.378906 59.984375 C 306.234375 60.28125 306.066406 60.570312 305.886719 60.851562 C 305.832031 60.9375 305.660156 61.105469 305.664062 61.207031 C 305.664062 61.335938 306.089844 61.554688 306.191406 61.628906 C 306.570312 61.917969 307.101562 62.335938 307.25 62.773438 C 307.441406 63.335938 306.789062 64.136719 306.480469 64.585938 C 306.402344 64.699219 306.179688 65.109375 305.976562 65.074219 C 305.734375 65.035156 305.527344 64.757812 305.371094 64.617188 C 304.964844 64.246094 304.511719 63.917969 304.105469 63.546875 C 304.046875 63.492188 303.988281 63.664062 303.929688 63.722656 C 303.808594 63.839844 303.6875 63.960938 303.570312 64.082031 C 303.226562 64.433594 302.875 64.777344 302.523438 65.121094 C 301.46875 66.144531 300.394531 67.152344 299.289062 68.136719 C 295.285156 71.703125 290.511719 74.769531 285.425781 77.078125 C 284.261719 77.605469 283.117188 78.207031 281.882812 78.601562 C 281.667969 78.671875 280.816406 78.738281 280.6875 78.6875 Z M 304.761719 60.46875 C 304.757812 60.460938 304.804688 60.296875 304.808594 60.289062 C 304.84375 60.179688 304.882812 60.070312 304.910156 59.953125 C 304.992188 59.617188 305.046875 59.269531 305.023438 58.921875 C 305.007812 58.730469 304.992188 58.535156 304.957031 58.339844 C 304.832031 57.609375 304.167969 56.578125 303.15625 56.792969 C 302.921875 56.839844 302.710938 56.945312 302.519531 57.070312 C 302.378906 57.164062 302.257812 57.269531 302.140625 57.386719 C 301.996094 57.53125 301.820312 57.714844 301.808594 57.917969 C 301.796875 58.066406 301.917969 58.191406 302.023438 58.300781 C 302.238281 58.527344 302.488281 58.722656 302.722656 58.9375 C 303.21875 59.386719 304.214844 60.058594 304.761719 60.46875 Z M 304.761719 60.46875 " fill-opacity="1" fill-rule="evenodd"/></svg>