<svg xmlns="http://www.w3.org/2000/svg" xmlns:xlink="http://www.w3.org/1999/xlink" width="500" zoomAndPan="magnify" viewBox="0 0 375 149.999998" height="200" preserveAspectRatio="xMidYMid meet" version="1.0"><path fill="#000000" d="M 306.269531 19.140625 C 306.992188 18.808594 308.472656 19.394531 309.175781 19.566406 C 312.207031 20.316406 315.136719 21.667969 317.941406 23.238281 C 328.371094 29.085938 335.933594 40.054688 340.609375 52.582031 C 341.78125 55.707031 342.746094 59.003906 343.34375 62.359375 C 343.503906 63.265625 343.984375 64.917969 343.652344 65.851562 C 343.355469 66.65625 342.597656 67.285156 342.078125 67.863281 C 340.976562 69.105469 339.953125 70.199219 338.691406 71.136719 C 337.058594 69.3125 334.773438 68.011719 332.921875 66.488281 C 332.359375 61.058594 330.441406 55.636719 328.464844 50.792969 C 325.097656 42.5625 320.640625 35.011719 315.230469 28.585938 C 312.769531 25.679688 309.289062 21.148438 306.269531 19.140625 Z M 306.269531 19.140625 " fill-opacity="1" fill-rule="evenodd"/><path fill="#000000" d="M 306.269531 134.457031 C 306.992188 134.792969 308.472656 134.203125 309.175781 134.03125 C 312.207031 133.285156 315.136719 131.933594 317.941406 130.359375 C 328.371094 124.515625 335.933594 113.542969 340.609375 101.015625 C 341.78125 97.890625 342.746094 94.59375 343.34375 91.238281 C 343.503906 90.332031 343.984375 88.679688 343.652344 87.746094 C 343.355469 86.941406 342.597656 86.3125 342.078125 85.734375 C 340.976562 84.492188 339.953125 83.398438 338.691406 82.460938 C 337.058594 84.289062 334.773438 85.585938 332.921875 87.109375 C 332.359375 92.539062 330.441406 97.960938 328.464844 102.808594 C 325.097656 111.039062 320.640625 118.585938 315.230469 125.015625 C 312.769531 127.917969 309.289062 132.449219 306.269531 134.457031 Z M 306.269531 134.457031 " fill-opacity="1" fill-rule="evenodd"/><path fill="#000000" d="M 351.9375 69.578125 C 351.648438 69.761719 351.386719 69.9375 351.316406 69.992188 C 349.660156 71.5625 348.03125 73.035156 346.179688 74.277344 C 345.546875 74.703125 344.894531 75.054688 344.25 75.449219 C 344.148438 75.515625 343.859375 75.679688 343.710938 75.863281 C 343.503906 76.113281 343.445312 76.410156 343.503906 76.699219 C 343.5625 76.988281 343.734375 77.234375 344.03125 77.347656 C 344.261719 77.433594 344.628906 77.414062 344.746094 77.417969 C 344.929688 77.417969 345.492188 77.679688 346.226562 78.03125 C 348.167969 78.957031 351.210938 80.636719 352.613281 81.589844 C 352.773438 81.699219 353.257812 82.101562 353.671875 82.449219 C 353.417969 82.648438 353.15625 82.839844 353.015625 82.90625 C 351.625 83.554688 349.984375 84.214844 349.085938 85.757812 C 348.753906 86.332031 348.652344 87 348.652344 87.707031 C 348.664062 88.542969 348.859375 89.433594 348.878906 90.191406 C 348.9375 92.234375 348.640625 94.015625 347.652344 95.710938 C 346.882812 97.046875 345.929688 98.308594 344.746094 99.113281 C 344.550781 99.246094 342.894531 100.222656 342.894531 100.222656 C 342.664062 100.363281 342.539062 100.671875 342.585938 100.980469 C 342.628906 101.289062 342.847656 101.519531 343.101562 101.542969 C 343.101562 101.542969 345.640625 101.757812 346.398438 101.636719 C 350.304688 101.027344 352.683594 98.003906 354.394531 93.957031 C 354.648438 93.371094 354.832031 92.628906 355.027344 91.90625 C 355.199219 91.308594 355.371094 90.71875 355.660156 90.300781 C 355.933594 89.90625 356.335938 89.640625 356.75 89.386719 C 357.265625 89.066406 357.796875 88.769531 358.210938 88.390625 C 359.484375 87.234375 360.382812 85.769531 361.207031 84.132812 C 361.53125 83.492188 361.828125 82.835938 362.117188 82.179688 C 362.265625 81.863281 363.136719 79.898438 363.136719 79.898438 C 363.289062 79.5625 363.183594 79.140625 362.910156 78.957031 C 362.910156 78.957031 362.023438 78.375 361.863281 78.273438 C 361.289062 77.933594 359.703125 77.0625 358.519531 76.417969 C 358.507812 76.417969 363.070312 74.714844 363.070312 74.714844 C 363.355469 74.609375 363.527344 74.246094 363.460938 73.890625 C 363.460938 73.890625 362.988281 71.472656 362.023438 69.1875 C 361.347656 67.578125 360.414062 66.050781 359.265625 65.367188 C 358.839844 65.113281 358.265625 64.921875 357.726562 64.707031 C 357.289062 64.542969 356.875 64.375 356.625 64.09375 C 356.53125 63.992188 356.519531 63.808594 356.496094 63.632812 C 356.441406 63.289062 356.40625 62.929688 356.347656 62.660156 C 356.0625 61.378906 355.613281 60.09375 355.050781 58.964844 C 352.707031 54.34375 346.824219 50.925781 342.617188 51.214844 C 342.34375 51.234375 342.113281 51.488281 342.078125 51.816406 C 342.042969 52.148438 342.207031 52.464844 342.46875 52.570312 C 343.824219 53.121094 344.953125 54.710938 345.917969 56.601562 C 347.457031 59.632812 348.523438 63.460938 349.226562 65.664062 C 349.707031 67.183594 350.179688 68.144531 351.304688 69.089844 C 351.511719 69.265625 351.71875 69.429688 351.9375 69.578125 Z M 345.363281 100.285156 C 346.675781 99.378906 347.742188 97.988281 348.59375 96.507812 C 349.730469 94.550781 350.097656 92.503906 350.03125 90.140625 C 350.007812 89.503906 349.867188 88.769531 349.824219 88.058594 C 349.777344 87.519531 349.777344 86.992188 350.03125 86.558594 C 350.800781 85.238281 352.246094 84.761719 353.429688 84.207031 C 353.820312 84.019531 355.003906 83.03125 355.003906 83.03125 C 355.164062 82.902344 355.246094 82.691406 355.246094 82.464844 C 355.257812 82.238281 355.164062 82.027344 355.015625 81.894531 C 355.015625 81.894531 353.5 80.59375 353.175781 80.375 C 351.535156 79.257812 347.707031 77.171875 345.871094 76.378906 C 345.742188 76.328125 345.640625 76.28125 345.527344 76.238281 C 345.9375 76.003906 346.339844 75.761719 346.742188 75.496094 C 348.652344 74.214844 350.316406 72.707031 352.027344 71.089844 C 352.167969 70.957031 353.257812 70.367188 353.511719 70.164062 C 353.683594 70.015625 353.742188 69.851562 353.761719 69.773438 C 353.820312 69.589844 353.855469 69.265625 353.578125 68.988281 C 353.488281 68.890625 352.96875 68.636719 352.914062 68.609375 C 352.578125 68.433594 352.257812 68.203125 351.960938 67.949219 C 351.050781 67.183594 350.683594 66.390625 350.292969 65.167969 C 349.582031 62.90625 348.476562 58.980469 346.894531 55.875 C 346.296875 54.679688 345.605469 53.609375 344.859375 52.773438 C 348.351562 53.488281 352.304688 56.214844 354.074219 59.691406 C 354.578125 60.710938 354.980469 61.875 355.234375 63.03125 C 355.304688 63.332031 355.324219 63.757812 355.40625 64.136719 C 355.488281 64.527344 355.636719 64.875 355.84375 65.109375 C 356.128906 65.441406 356.566406 65.695312 357.050781 65.902344 C 357.625 66.152344 358.289062 66.339844 358.761719 66.617188 C 359.703125 67.183594 360.4375 68.488281 361 69.820312 C 361.609375 71.261719 362 72.765625 362.195312 73.582031 C 362.195312 73.582031 356.703125 75.636719 356.703125 75.636719 C 356.484375 75.722656 356.324219 75.96875 356.300781 76.261719 C 356.289062 76.550781 356.429688 76.820312 356.648438 76.9375 C 356.648438 76.9375 360.414062 78.953125 361.347656 79.519531 C 361.414062 79.5625 361.632812 79.707031 361.851562 79.847656 C 361.585938 80.453125 361.207031 81.308594 361.117188 81.507812 C 360.828125 82.148438 360.542969 82.785156 360.21875 83.40625 C 359.472656 84.890625 358.679688 86.226562 357.519531 87.273438 C 357.152344 87.613281 356.679688 87.863281 356.222656 88.148438 C 355.671875 88.492188 355.152344 88.878906 354.785156 89.40625 C 354.40625 89.941406 354.152344 90.6875 353.945312 91.460938 C 353.761719 92.113281 353.601562 92.789062 353.382812 93.320312 C 351.84375 96.945312 349.753906 99.710938 346.261719 100.257812 C 346.054688 100.289062 345.734375 100.292969 345.363281 100.285156 Z M 345.363281 100.285156 " fill-opacity="1" fill-rule="evenodd"/><path fill="#000000" d="M 339.035156 82.699219 C 339.171875 82.574219 340 81.839844 340.089844 81.75 C 341.367188 80.496094 343.800781 77.589844 344.960938 76.191406 C 345.078125 76.0625 345.136719 75.894531 345.136719 75.714844 C 345.136719 75.5625 345.101562 75.355469 344.960938 75.160156 C 344.859375 75.023438 344.605469 74.828125 344.550781 74.777344 C 344.148438 74.417969 343.757812 74.0625 343.355469 73.707031 C 341.824219 72.332031 340.320312 70.804688 338.667969 69.632812 C 338.425781 69.453125 338.105469 69.527344 337.929688 69.804688 C 337.472656 70.515625 336.277344 71.214844 335.644531 71.742188 C 333.910156 73.195312 332.105469 74.527344 330.347656 75.929688 C 330.097656 76.007812 329.992188 76.296875 329.980469 76.355469 C 329.933594 76.503906 329.867188 76.820312 330.117188 77.117188 C 330.152344 77.152344 330.382812 77.304688 330.464844 77.375 C 330.636719 77.511719 330.808594 77.652344 330.980469 77.792969 C 331.578125 78.289062 332.199219 78.746094 332.820312 79.199219 C 334.609375 80.507812 336.390625 81.871094 338.265625 82.996094 C 338.449219 83.105469 338.667969 83.089844 338.839844 82.953125 C 338.917969 82.886719 338.988281 82.800781 339.035156 82.699219 Z M 343.699219 75.75 C 342.457031 77.234375 340.46875 79.582031 339.367188 80.667969 C 339.277344 80.753906 338.734375 81.1875 338.402344 81.519531 C 336.691406 80.457031 335.058594 79.207031 333.40625 78.003906 C 332.808594 77.566406 332.210938 77.125 331.625 76.644531 L 331.589844 76.609375 C 333.164062 75.375 334.75 74.179688 336.300781 72.890625 C 336.875 72.410156 337.851562 71.765625 338.472656 71.113281 C 339.941406 72.21875 341.285156 73.585938 342.675781 74.828125 C 343.019531 75.132812 343.367188 75.441406 343.699219 75.75 Z M 330.429688 77.292969 L 330.429688 77.296875 Z M 330.429688 77.292969 " fill-opacity="1" fill-rule="evenodd"/><path fill="#000000" d="M 363.023438 73.980469 L 374.730469 77.105469 L 363.023438 79.480469 L 358.117188 76.4375 Z M 363.023438 73.980469 " fill-opacity="1" fill-rule="evenodd"/><path fill="#000000" d="M 68.570312 13.207031 C 67.847656 12.875 66.367188 13.460938 65.664062 13.632812 C 62.632812 14.382812 59.703125 15.734375 56.898438 17.304688 C 46.464844 23.152344 38.90625 34.121094 34.230469 46.648438 C 33.058594 49.777344 32.09375 53.070312 31.496094 56.429688 C 31.335938 57.332031 30.851562 58.988281 31.1875 59.921875 C 31.484375 60.722656 32.242188 61.351562 32.761719 61.933594 C 33.863281 63.175781 34.886719 64.269531 36.148438 65.203125 C 37.78125 63.378906 40.066406 62.078125 41.917969 60.554688 C 42.480469 55.125 44.398438 49.703125 46.375 44.859375 C 49.742188 36.628906 54.199219 29.078125 59.609375 22.652344 C 62.070312 19.746094 65.550781 15.214844 68.570312 13.207031 Z M 68.570312 13.207031 " fill-opacity="1" fill-rule="evenodd"/><path fill="#000000" d="M 68.570312 128.527344 C 67.847656 128.859375 66.367188 128.273438 65.664062 128.101562 C 62.632812 127.351562 59.703125 126 56.898438 124.429688 C 46.464844 118.582031 38.90625 107.613281 34.230469 95.085938 C 33.058594 91.957031 32.09375 88.664062 31.496094 85.304688 C 31.335938 84.402344 30.851562 82.75 31.1875 81.8125 C 31.484375 81.011719 32.242188 80.382812 32.761719 79.804688 C 33.863281 78.5625 34.886719 77.464844 36.148438 76.53125 C 37.78125 78.355469 40.066406 79.65625 41.917969 81.179688 C 42.480469 86.609375 44.398438 92.03125 46.375 96.875 C 49.742188 105.105469 54.199219 112.65625 59.609375 119.082031 C 62.070312 121.988281 65.550781 126.519531 68.570312 128.527344 Z M 68.570312 128.527344 " fill-opacity="1" fill-rule="evenodd"/><path fill="#000000" d="M 22.902344 63.644531 C 23.191406 63.832031 23.453125 64.003906 23.523438 64.0625 C 25.175781 65.632812 26.808594 67.101562 28.660156 68.34375 C 29.289062 68.769531 29.945312 69.125 30.589844 69.519531 C 30.691406 69.582031 30.980469 69.746094 31.128906 69.933594 C 31.335938 70.183594 31.394531 70.480469 31.335938 70.765625 C 31.277344 71.058594 31.105469 71.300781 30.808594 71.414062 C 30.578125 71.5 30.210938 71.480469 30.09375 71.484375 C 29.910156 71.488281 29.347656 71.746094 28.613281 72.101562 C 26.671875 73.023438 23.625 74.703125 22.226562 75.65625 C 22.0625 75.769531 21.582031 76.167969 21.167969 76.519531 C 21.421875 76.714844 21.683594 76.90625 21.824219 76.972656 C 23.210938 77.621094 24.855469 78.28125 25.75 79.828125 C 26.085938 80.402344 26.1875 81.070312 26.1875 81.773438 C 26.175781 82.609375 25.980469 83.5 25.957031 84.261719 C 25.902344 86.304688 26.199219 88.082031 27.1875 89.777344 C 27.957031 91.113281 28.910156 92.375 30.09375 93.179688 C 30.289062 93.3125 31.945312 94.292969 31.945312 94.292969 C 32.175781 94.429688 32.300781 94.738281 32.253906 95.046875 C 32.207031 95.359375 31.992188 95.585938 31.738281 95.609375 C 31.738281 95.609375 29.199219 95.828125 28.441406 95.707031 C 24.535156 95.09375 22.15625 92.070312 20.445312 88.023438 C 20.191406 87.4375 20.007812 86.695312 19.8125 85.976562 C 19.640625 85.375 19.46875 84.785156 19.179688 84.371094 C 18.90625 83.976562 18.503906 83.710938 18.089844 83.453125 C 17.570312 83.132812 17.042969 82.835938 16.628906 82.457031 C 15.355469 81.300781 14.457031 79.835938 13.628906 78.199219 C 13.308594 77.558594 13.011719 76.902344 12.722656 76.246094 C 12.574219 75.929688 11.699219 73.96875 11.699219 73.96875 C 11.550781 73.628906 11.65625 73.210938 11.929688 73.027344 C 11.929688 73.027344 12.816406 72.445312 12.976562 72.34375 C 13.550781 72 15.136719 71.128906 16.320312 70.488281 C 16.332031 70.484375 11.769531 68.785156 11.769531 68.785156 C 11.480469 68.675781 11.308594 68.316406 11.378906 67.957031 C 11.378906 67.957031 11.851562 65.539062 12.816406 63.257812 C 13.492188 61.644531 14.421875 60.121094 15.574219 59.433594 C 15.996094 59.179688 16.570312 58.988281 17.113281 58.777344 C 17.546875 58.609375 17.960938 58.441406 18.214844 58.160156 C 18.308594 58.058594 18.320312 57.875 18.339844 57.703125 C 18.398438 57.355469 18.433594 56.996094 18.492188 56.726562 C 18.777344 55.449219 19.226562 54.160156 19.789062 53.03125 C 22.132812 48.410156 28.015625 44.992188 32.21875 45.28125 C 32.496094 45.300781 32.726562 45.554688 32.761719 45.882812 C 32.792969 46.214844 32.632812 46.53125 32.371094 46.636719 C 31.015625 47.191406 29.886719 48.78125 28.921875 50.671875 C 27.382812 53.699219 26.316406 57.527344 25.613281 59.730469 C 25.132812 61.25 24.660156 62.210938 23.535156 63.160156 C 23.328125 63.332031 23.121094 63.496094 22.902344 63.644531 Z M 29.472656 94.355469 C 28.164062 93.449219 27.097656 92.058594 26.246094 90.574219 C 25.109375 88.617188 24.742188 86.570312 24.808594 84.210938 C 24.832031 83.570312 24.972656 82.839844 25.015625 82.125 C 25.0625 81.589844 25.0625 81.058594 24.808594 80.628906 C 24.039062 79.304688 22.59375 78.828125 21.410156 78.273438 C 21.019531 78.085938 19.835938 77.101562 19.835938 77.101562 C 19.675781 76.972656 19.59375 76.757812 19.59375 76.53125 C 19.582031 76.308594 19.675781 76.09375 19.824219 75.960938 C 19.824219 75.960938 21.339844 74.660156 21.660156 74.445312 C 23.304688 73.324219 27.128906 71.242188 28.96875 70.445312 C 29.09375 70.394531 29.199219 70.347656 29.3125 70.308594 C 28.898438 70.070312 28.496094 69.828125 28.09375 69.5625 C 26.1875 68.28125 24.523438 66.773438 22.8125 65.160156 C 22.671875 65.023438 21.582031 64.4375 21.328125 64.230469 C 21.15625 64.085938 21.097656 63.917969 21.074219 63.839844 C 21.019531 63.660156 20.984375 63.335938 21.257812 63.054688 C 21.351562 62.960938 21.867188 62.703125 21.925781 62.679688 C 22.257812 62.503906 22.582031 62.269531 22.878906 62.015625 C 23.789062 61.25 24.15625 60.460938 24.546875 59.234375 C 25.257812 56.972656 26.359375 53.046875 27.945312 49.941406 C 28.542969 48.746094 29.234375 47.675781 29.980469 46.84375 L 29.980469 46.839844 C 26.488281 47.554688 22.535156 50.28125 20.765625 53.757812 C 20.261719 54.78125 19.859375 55.941406 19.605469 57.097656 C 19.535156 57.398438 19.511719 57.828125 19.433594 58.203125 C 19.351562 58.597656 19.203125 58.941406 18.996094 59.175781 C 18.710938 59.507812 18.273438 59.761719 17.789062 59.972656 C 17.214844 60.21875 16.550781 60.40625 16.078125 60.683594 C 15.136719 61.25 14.402344 62.554688 13.835938 63.886719 C 13.230469 65.332031 12.839844 66.832031 12.644531 67.652344 C 12.644531 67.652344 18.132812 69.703125 18.132812 69.703125 C 18.351562 69.789062 18.511719 70.039062 18.535156 70.328125 C 18.546875 70.617188 18.410156 70.886719 18.191406 71.003906 C 18.191406 71.003906 14.421875 73.023438 13.492188 73.585938 C 13.425781 73.632812 13.207031 73.773438 12.988281 73.917969 C 13.25 74.519531 13.628906 75.378906 13.722656 75.578125 C 14.011719 76.214844 14.296875 76.851562 14.617188 77.472656 C 15.367188 78.957031 16.160156 80.292969 17.320312 81.34375 C 17.6875 81.679688 18.15625 81.933594 18.617188 82.214844 C 19.167969 82.558594 19.6875 82.945312 20.054688 83.472656 C 20.433594 84.007812 20.683594 84.753906 20.890625 85.527344 C 21.074219 86.183594 21.238281 86.855469 21.453125 87.386719 C 22.996094 91.011719 25.085938 93.777344 28.578125 94.324219 C 28.785156 94.355469 29.105469 94.363281 29.472656 94.355469 Z M 29.472656 94.355469 " fill-opacity="1" fill-rule="evenodd"/><path fill="#000000" d="M 35.804688 76.769531 C 35.667969 76.644531 34.839844 75.90625 34.746094 75.816406 C 33.472656 74.566406 31.035156 71.660156 29.875 70.257812 C 29.761719 70.132812 29.703125 69.960938 29.703125 69.78125 C 29.703125 69.628906 29.738281 69.421875 29.875 69.230469 C 29.980469 69.089844 30.234375 68.894531 30.289062 68.84375 C 30.691406 68.484375 31.082031 68.128906 31.484375 67.773438 C 33.011719 66.398438 34.519531 64.875 36.171875 63.699219 C 36.414062 63.519531 36.734375 63.597656 36.90625 63.871094 C 37.367188 64.582031 38.5625 65.285156 39.195312 65.808594 C 40.929688 67.261719 42.734375 68.59375 44.492188 69.996094 C 44.742188 70.074219 44.847656 70.363281 44.859375 70.425781 C 44.902344 70.570312 44.972656 70.886719 44.71875 71.1875 C 44.6875 71.21875 44.457031 71.375 44.375 71.441406 C 44.203125 71.582031 44.03125 71.71875 43.859375 71.859375 C 43.261719 72.355469 42.640625 72.8125 42.019531 73.265625 C 40.226562 74.574219 38.445312 75.9375 36.574219 77.0625 C 36.390625 77.171875 36.171875 77.15625 36 77.019531 C 35.917969 76.953125 35.851562 76.867188 35.804688 76.769531 Z M 31.140625 69.820312 C 32.382812 71.304688 34.367188 73.652344 35.472656 74.734375 C 35.5625 74.820312 36.101562 75.253906 36.4375 75.585938 C 38.148438 74.523438 39.78125 73.273438 41.433594 72.070312 C 42.03125 71.632812 42.628906 71.191406 43.214844 70.710938 L 43.25 70.679688 C 41.675781 69.441406 40.089844 68.246094 38.539062 66.957031 C 37.964844 66.476562 36.988281 65.832031 36.367188 65.179688 C 34.898438 66.285156 33.554688 67.65625 32.164062 68.894531 C 31.816406 69.203125 31.472656 69.511719 31.140625 69.820312 Z M 44.410156 71.363281 Z M 44.410156 71.363281 " fill-opacity="1" fill-rule="evenodd"/><path fill="#000000" d="M 11.816406 68.046875 L 0.109375 71.171875 L 11.816406 73.546875 L 16.722656 70.503906 Z M 11.816406 68.046875 " fill-opacity="1" fill-rule="evenodd"/><path fill="#000000" d="M 155.191406 130.324219 C 155.152344 130.328125 155.363281 130.210938 155.4375 130.164062 C 155.621094 130.046875 155.800781 129.925781 155.976562 129.800781 C 156.488281 129.433594 156.992188 129.046875 157.480469 128.648438 C 158.9375 127.464844 160.234375 126.070312 161.035156 124.445312 C 161.941406 122.59375 162.960938 120.683594 162.527344 118.605469 C 162.46875 118.324219 162.371094 118.050781 162.21875 117.796875 C 162.113281 117.617188 161.980469 117.453125 161.820312 117.3125 C 160.535156 116.207031 158.851562 118.863281 158.230469 118.960938 C 157.84375 119.023438 157.988281 118.148438 158.082031 117.71875 C 158.316406 116.628906 158.691406 115.789062 159.511719 114.976562 C 160.421875 114.070312 161.871094 113.421875 163.082031 114.285156 C 163.332031 114.460938 163.527344 114.6875 163.695312 114.925781 C 164.421875 115.949219 164.390625 117.171875 164.269531 118.339844 C 164.03125 120.636719 163.246094 122.722656 162.316406 124.851562 C 162.304688 124.886719 162.363281 124.789062 162.394531 124.761719 C 162.460938 124.695312 162.527344 124.628906 162.597656 124.566406 C 162.800781 124.382812 163.015625 124.210938 163.238281 124.042969 C 163.890625 123.550781 164.601562 123.085938 165.34375 122.703125 C 166.765625 121.96875 168.535156 121.941406 169.996094 122.617188 C 170.503906 122.855469 171.003906 123.125 171.3125 123.578125 C 171.9375 124.488281 171.753906 125.8125 171.378906 126.769531 C 171.011719 127.699219 170.453125 128.582031 169.679688 129.289062 C 168.148438 130.683594 165.992188 131.277344 164 131.925781 C 164.042969 131.972656 163.867188 131.960938 163.800781 131.984375 C 163.65625 132.03125 163.511719 132.078125 163.363281 132.117188 C 162.96875 132.21875 162.570312 132.3125 162.171875 132.394531 C 160.945312 132.65625 159.714844 132.890625 158.480469 133.117188 C 156.539062 133.476562 154.390625 133.996094 152.386719 133.757812 C 151.078125 133.597656 149.816406 133.054688 148.671875 132.492188 C 148.097656 132.210938 147.53125 131.925781 146.980469 131.605469 C 146.738281 131.46875 146.417969 131.3125 146.277344 131.074219 C 146.101562 130.78125 146.777344 130.832031 146.921875 130.828125 C 147.691406 130.820312 148.457031 130.863281 149.222656 130.847656 C 151.191406 130.804688 153.261719 130.707031 155.191406 130.324219 C 155.195312 130.324219 155.199219 130.324219 155.207031 130.320312 Z M 158.699219 130 C 158.617188 129.929688 159.058594 129.4375 159.105469 129.382812 C 159.625 128.785156 160.222656 128.246094 160.859375 127.75 C 162.28125 126.648438 164.113281 125.375 166.054688 125.234375 C 167.042969 125.164062 167.875 125.4375 168.746094 125.859375 C 168.964844 125.964844 169.589844 126.207031 169.523438 126.496094 C 169.464844 126.761719 169.148438 126.933594 168.925781 127.074219 C 168.261719 127.5 167.59375 127.738281 166.84375 128.015625 C 165.886719 128.371094 164.894531 128.648438 163.910156 128.925781 C 162.398438 129.359375 160.265625 129.773438 158.699219 130 Z M 158.699219 130 " fill-opacity="1" fill-rule="evenodd"/><path fill="#000000" d="M 177.316406 50.246094 C 178.398438 51.332031 179.792969 52.335938 181.085938 53.15625 C 181.34375 53.308594 182.207031 53.953125 182.5 53.550781 C 183.097656 52.726562 181.332031 50.054688 180.984375 49.371094 C 179.613281 46.699219 178.132812 44.105469 176.667969 41.496094 C 175.960938 40.242188 175.335938 38.429688 174.328125 37.378906 C 174.148438 37.191406 173.445312 38.644531 173.386719 38.761719 C 172.601562 40.292969 171.527344 41.964844 171.058594 43.621094 C 170.675781 44.976562 173.210938 46.75 173.953125 47.675781 C 173.53125 48.027344 173.996094 50.398438 174.042969 50.867188 C 174.367188 54.121094 174.792969 57.359375 175.230469 60.617188 C 175.644531 63.667969 176.070312 66.730469 176.535156 69.78125 C 176.875 72.011719 177.257812 74.238281 177.652344 76.457031 C 178.671875 82.128906 180.308594 88.484375 178.609375 95.285156 C 177.9375 97.980469 176.652344 100.972656 173.175781 102.148438 C 171.722656 102.640625 169.8125 103.707031 168.285156 103.78125 C 168.144531 103.78125 169.964844 102.640625 170.390625 102.148438 C 171.433594 100.945312 172.828125 98.667969 172.769531 96.917969 C 172.726562 95.640625 171.886719 94.375 171.203125 93.347656 C 169.316406 90.511719 166.59375 87.75 163.183594 86.941406 C 159.625 86.09375 156.144531 87.535156 153.203125 89.472656 C 148.070312 92.855469 143.648438 97.335938 139.46875 101.804688 C 138.296875 103.058594 137.125 104.328125 135.996094 105.617188 C 135.675781 105.984375 135.070312 107.085938 134.601562 107.289062 C 134.253906 107.429688 133.65625 107.378906 133.285156 107.414062 C 132.792969 107.453125 131.746094 107.757812 131.292969 107.53125 C 130.984375 107.363281 130.941406 106.628906 130.878906 106.339844 C 130.640625 105.25 130.335938 104.160156 129.835938 103.148438 C 128.652344 100.769531 126.410156 98.78125 123.640625 98.703125 C 121.351562 98.640625 119.550781 99.996094 118.1875 101.71875 C 116.042969 104.414062 114.601562 108.53125 115.9375 111.921875 C 116.132812 111.960938 116.589844 112.609375 116.773438 112.746094 C 117.421875 113.226562 118.207031 113.570312 118.976562 113.785156 C 122.285156 114.734375 126.222656 114.089844 129.410156 112.910156 C 129.699219 113.757812 129.023438 114.570312 128.445312 115.277344 C 127.234375 116.785156 125.851562 118.179688 124.464844 119.519531 C 123.421875 120.523438 122.359375 121.507812 121.25 122.445312 C 116.46875 126.472656 109.210938 132.308594 102.472656 129.917969 C 96.890625 127.941406 95.746094 121.851562 96.226562 116.570312 C 96.378906 114.875 96.6875 113.203125 97.058594 111.542969 C 97.085938 111.417969 97.617188 108.871094 97.304688 108.960938 C 96.960938 109.050781 96.613281 109.683594 96.433594 109.949219 C 95.601562 111.164062 95.023438 112.53125 94.566406 113.925781 C 92.800781 119.320312 92.457031 125.828125 95.570312 130.839844 C 98.574219 135.679688 104.664062 137.046875 109.972656 135.882812 C 117.367188 134.246094 123.828125 128.296875 128.066406 122.242188 C 129.558594 120.117188 130.890625 117.835938 131.890625 115.417969 C 132.160156 114.773438 132.570312 112.59375 133.234375 112.226562 C 134.097656 111.746094 135.605469 111.960938 136.539062 111.949219 C 139.011719 111.886719 141.480469 111.835938 143.953125 111.722656 C 150.765625 111.378906 157.625 110.886719 164.371094 109.820312 C 168.429688 109.1875 172.855469 108.847656 176.203125 106.261719 C 177.023438 105.644531 178.753906 104.210938 179.378906 103.503906 C 181.847656 100.667969 183.441406 97.464844 183.519531 93.675781 C 183.632812 88.359375 182.574219 83.304688 182.066406 78.039062 C 181.304688 70.136719 178.460938 58.210938 177.316406 50.246094 Z M 125.804688 106.871094 C 125.621094 106.78125 124.785156 107.136719 124.582031 107.175781 C 123.664062 107.3125 122.257812 107.582031 121.417969 107.148438 C 120.113281 106.480469 120.664062 104.628906 121.800781 103.921875 C 123.28125 103.007812 125.210938 105.363281 125.804688 106.871094 Z M 138.554688 107.328125 C 138.507812 107.277344 139.792969 106.035156 139.859375 105.972656 C 141.507812 104.375 143.191406 102.820312 144.910156 101.3125 C 147.480469 99.046875 150.152344 96.816406 153.03125 94.957031 C 154.804688 93.804688 156.777344 92.703125 158.917969 92.5 C 161.765625 92.234375 164.367188 93.601562 166.058594 95.828125 C 166.59375 96.539062 167.164062 97.539062 167.070312 98.550781 C 166.992188 99.414062 167.121094 100.261719 165.605469 101.617188 C 164.109375 102.957031 162.691406 103.832031 160.792969 104.476562 C 157.675781 105.515625 154.871094 106.0625 152.296875 106.695312 C 148.453125 107.644531 142.507812 107.289062 138.554688 107.328125 Z M 138.554688 107.328125 " fill-opacity="1" fill-rule="evenodd"/><path fill="#000000" d="M 163.683594 57.96875 C 163.433594 58.015625 163.164062 58.398438 163.09375 58.488281 C 162.964844 58.644531 162.835938 58.804688 162.710938 58.964844 C 162.261719 59.546875 161.941406 59.992188 162.15625 60.699219 C 162.589844 62.101562 163.347656 63.402344 163.816406 64.785156 C 164.050781 65.472656 163.789062 66.109375 162.863281 66.144531 C 161.039062 66.207031 160.636719 63.785156 160.417969 62.695312 C 160.355469 62.386719 160.292969 62.078125 160.222656 61.769531 C 160.125 61.347656 160.003906 60.929688 159.863281 60.515625 C 159.683594 59.992188 159.496094 59.472656 159.246094 58.972656 C 159.214844 58.910156 159.058594 58.503906 158.949219 58.519531 C 158.679688 58.550781 158.316406 59.386719 158.203125 59.570312 C 158.0625 59.808594 157.824219 60.082031 157.808594 60.355469 C 157.777344 60.863281 158.386719 61.480469 158.574219 61.949219 C 158.851562 62.628906 158.890625 63.367188 158.871094 64.082031 C 158.917969 64.09375 158.851562 64.320312 158.847656 64.339844 C 158.785156 64.609375 158.722656 64.882812 158.621094 65.144531 C 158.230469 66.128906 156.34375 66.972656 155.554688 65.800781 C 155.234375 65.328125 155.308594 64.695312 155.332031 64.171875 C 155.386719 63.039062 155.652344 61.90625 155.515625 60.773438 C 155.46875 60.363281 155.359375 59.925781 155.113281 59.570312 C 155.085938 59.527344 154.855469 59.210938 154.761719 59.277344 C 154.527344 59.449219 154.410156 59.878906 154.285156 60.113281 C 154.171875 60.320312 154.066406 60.527344 153.960938 60.734375 C 153.835938 60.976562 153.71875 61.222656 153.589844 61.464844 C 153.566406 61.507812 153.421875 61.683594 153.4375 61.734375 C 153.460938 61.835938 153.726562 61.96875 153.800781 62.050781 C 154.023438 62.285156 154.117188 62.523438 154.140625 62.828125 C 154.210938 63.800781 153.9375 64.792969 153.902344 65.761719 C 153.867188 66.617188 153.773438 67.707031 154.476562 68.402344 C 155.261719 69.183594 156.613281 69.234375 157.523438 68.601562 C 158.632812 67.832031 159.371094 66.578125 159.457031 65.355469 C 159.703125 66.9375 161.640625 69.382812 163.742188 68.121094 C 163.984375 67.976562 164.199219 67.808594 164.386719 67.605469 C 164.644531 67.320312 164.839844 66.976562 164.964844 66.632812 C 165.398438 65.453125 165.421875 64.136719 165.054688 62.945312 C 164.601562 61.472656 163.691406 59.523438 163.683594 57.96875 Z M 163.683594 57.96875 " fill-opacity="1" fill-rule="evenodd"/><path fill="#000000" d="M 124.765625 61.785156 C 124.742188 61.796875 125.105469 61.875 125.167969 61.886719 C 125.433594 61.933594 125.695312 61.988281 125.960938 62.035156 C 126.679688 62.15625 127.402344 62.304688 128.128906 62.394531 C 128.210938 62.40625 128.867188 62.527344 128.84375 62.292969 C 128.785156 61.707031 127.722656 60.730469 127.378906 60.324219 C 126.007812 58.742188 124.5625 57.160156 123.070312 55.6875 C 122.734375 55.359375 121.589844 53.890625 121.09375 53.902344 C 120.5 53.910156 120.410156 56.585938 120.367188 56.96875 C 120.226562 58.179688 120.101562 59.382812 120.023438 60.605469 C 120 60.964844 119.851562 61.527344 120.085938 61.855469 C 120.476562 62.371094 121.386719 62.40625 121.949219 62.527344 C 121.976562 62.292969 122.011719 63.941406 122.027344 64.179688 C 122.058594 64.652344 122.988281 67.3125 123.5 68.738281 C 124.445312 71.378906 125.558594 74.03125 127.007812 76.367188 C 127.589844 77.3125 128.742188 78.761719 128.621094 79.984375 C 128.507812 81.164062 126.957031 81.984375 126.167969 82.726562 C 123.792969 84.984375 121.023438 86.859375 118.316406 88.613281 C 108.996094 94.65625 99.246094 99.609375 89.246094 104.214844 C 85.402344 105.976562 81.511719 107.628906 77.554688 109.089844 C 76.027344 109.652344 74.472656 110.132812 72.941406 110.695312 C 72.835938 110.730469 71.503906 111.113281 71.6875 111.371094 C 71.984375 111.773438 73.011719 111.742188 73.417969 111.785156 C 75.089844 111.988281 76.769531 112.03125 78.453125 112.042969 C 85.644531 112.101562 92.574219 110.484375 98.953125 106.898438 C 107.582031 102.058594 114.792969 97.464844 123.40625 90.644531 C 126.230469 88.410156 131.320312 85.230469 131.574219 81.164062 C 131.96875 74.839844 127.015625 67.167969 124.765625 61.785156 Z M 124.765625 61.785156 " fill-opacity="1" fill-rule="evenodd"/><path fill="#000000" d="M 183.644531 30.070312 C 183.589844 30.113281 183.707031 29.957031 183.738281 29.902344 C 183.800781 29.78125 183.859375 29.664062 183.921875 29.542969 C 184.117188 29.171875 184.316406 28.800781 184.503906 28.429688 C 185.035156 27.363281 185.636719 26.3125 186.160156 25.246094 C 186.160156 25.324219 186.300781 25.460938 186.339844 25.53125 C 186.460938 25.738281 186.566406 25.957031 186.675781 26.167969 C 187.054688 26.890625 187.390625 27.621094 187.746094 28.347656 C 189.195312 31.320312 190.835938 34.246094 192.144531 37.265625 C 192.351562 37.738281 192.550781 38.214844 192.726562 38.695312 C 192.828125 38.976562 192.925781 39.261719 192.996094 39.546875 C 193.035156 39.699219 193.070312 39.855469 193.089844 40.011719 C 193.101562 40.113281 193.105469 40.21875 193.101562 40.320312 C 193.097656 40.382812 193.089844 40.445312 193.070312 40.507812 C 192.855469 41.144531 192.050781 40.273438 191.84375 40.089844 C 191.753906 40.011719 191.664062 39.933594 191.574219 39.855469 C 191.46875 39.765625 191.367188 39.675781 191.265625 39.589844 C 191.125 39.464844 190.980469 39.34375 190.839844 39.222656 C 190.652344 39.058594 190.464844 38.890625 190.277344 38.726562 C 190.085938 38.558594 189.894531 38.394531 189.710938 38.21875 C 189.644531 38.15625 189.71875 38.386719 189.726562 38.472656 C 189.75 38.675781 189.777344 38.882812 189.800781 39.085938 C 189.863281 39.621094 189.9375 40.15625 190.023438 40.691406 C 190.269531 42.257812 190.5625 43.820312 190.828125 45.386719 C 191.625 50.132812 192.269531 54.910156 192.871094 59.675781 C 192.734375 59.652344 192.921875 59.898438 192.941406 60.007812 C 192.992188 60.277344 193.019531 60.546875 193.0625 60.816406 C 193.179688 61.554688 193.292969 62.289062 193.398438 63.027344 C 193.714844 65.160156 194.015625 67.292969 194.28125 69.433594 C 195.300781 77.710938 197.214844 86.5 195.539062 94.863281 C 195.175781 96.671875 194.941406 98.738281 193.785156 100.367188 C 193.628906 100.585938 192.820312 101.789062 192.40625 101.761719 C 192.316406 101.753906 192.28125 101.675781 192.261719 101.617188 C 191.90625 100.574219 192.382812 99.027344 192.378906 97.964844 C 192.371094 93.710938 192.140625 89.492188 191.648438 85.265625 C 189.996094 70.988281 184.703125 35.28125 184.605469 31.921875 C 184.605469 31.921875 184.359375 31.457031 184.335938 31.414062 C 184.152344 31.078125 183.839844 30.402344 183.644531 30.070312 Z M 183.644531 30.070312 " fill-opacity="1" fill-rule="evenodd"/><path fill="#000000" d="M 133.546875 44.492188 C 133.503906 44.527344 133.59375 44.402344 133.617188 44.355469 C 133.664062 44.261719 133.710938 44.164062 133.757812 44.070312 C 133.90625 43.773438 134.058594 43.472656 134.199219 43.171875 C 134.605469 42.316406 135.066406 41.472656 135.464844 40.617188 C 135.464844 40.679688 135.574219 40.789062 135.601562 40.847656 C 135.695312 41.015625 135.777344 41.1875 135.859375 41.359375 C 136.148438 41.941406 136.410156 42.527344 136.683594 43.113281 C 137.796875 45.507812 139.050781 47.863281 140.058594 50.292969 C 140.214844 50.671875 140.371094 51.054688 140.503906 51.445312 C 140.582031 51.667969 140.65625 51.894531 140.710938 52.125 C 140.742188 52.25 140.769531 52.375 140.78125 52.5 C 140.792969 52.582031 140.796875 52.667969 140.792969 52.75 C 140.792969 52.800781 140.785156 52.851562 140.769531 52.898438 C 140.605469 53.410156 139.992188 52.710938 139.832031 52.5625 C 139.761719 52.5 139.691406 52.433594 139.625 52.371094 C 139.542969 52.300781 139.464844 52.230469 139.386719 52.15625 C 139.277344 52.058594 139.171875 51.960938 139.0625 51.863281 C 138.917969 51.730469 138.773438 51.597656 138.628906 51.464844 C 138.484375 51.328125 138.335938 51.195312 138.195312 51.054688 C 138.144531 51.003906 138.203125 51.191406 138.210938 51.257812 C 138.226562 51.421875 138.246094 51.585938 138.265625 51.75 C 138.316406 52.183594 138.371094 52.613281 138.4375 53.042969 C 138.628906 54.304688 138.855469 55.5625 139.058594 56.820312 C 139.675781 60.636719 140.171875 64.480469 140.640625 68.3125 C 140.535156 68.292969 140.679688 68.492188 140.695312 68.582031 C 140.734375 68.796875 140.757812 69.015625 140.789062 69.230469 C 140.878906 69.824219 140.964844 70.417969 141.050781 71.011719 C 141.292969 72.726562 141.527344 74.441406 141.730469 76.160156 C 142.519531 82.820312 143.996094 89.890625 142.722656 96.613281 C 142.449219 98.070312 142.273438 99.730469 141.390625 101.035156 C 141.269531 101.214844 140.652344 102.179688 140.335938 102.15625 C 140.269531 102.152344 140.242188 102.085938 140.226562 102.039062 C 139.949219 101.199219 140.3125 99.957031 140.3125 99.101562 C 140.300781 95.683594 140.117188 92.289062 139.738281 88.890625 C 138.457031 77.40625 134.363281 48.683594 134.285156 45.980469 C 134.285156 45.980469 134.09375 45.609375 134.074219 45.574219 C 133.933594 45.304688 133.695312 44.757812 133.546875 44.492188 Z M 133.546875 44.492188 " fill-opacity="1" fill-rule="evenodd"/><path fill="#000000" d="M 279.871094 75.140625 C 279.894531 75.128906 279.902344 75.109375 279.882812 75.078125 C 279.871094 75.101562 279.871094 75.121094 279.871094 75.140625 C 279.796875 75.183594 279.558594 75.183594 279.460938 75.234375 C 279.144531 75.386719 278.84375 75.546875 278.539062 75.710938 C 277.605469 76.203125 276.761719 76.777344 275.925781 77.394531 C 273.609375 79.105469 270.964844 81.859375 267.777344 81.816406 C 267.820312 81.65625 267.429688 81.214844 267.355469 81.101562 C 266.867188 80.34375 266.347656 79.613281 265.847656 78.859375 C 263.867188 75.832031 260.5625 71.539062 256.378906 74.183594 C 253.074219 76.277344 250.34375 80.359375 249.746094 84.109375 C 249.257812 87.152344 250.679688 90.066406 253.917969 90.972656 C 257.636719 92.011719 262.425781 89.890625 265.589844 88.109375 C 265.609375 88.09375 265.828125 88.472656 265.847656 88.519531 C 266 88.789062 266.132812 89.0625 266.273438 89.335938 C 266.660156 90.144531 267.050781 91.042969 267.007812 91.953125 C 266.988281 91.964844 266.738281 92.1875 266.683594 92.238281 C 266.5 92.421875 266.304688 92.597656 266.109375 92.769531 C 265.449219 93.351562 264.789062 93.925781 264.148438 94.523438 C 262.339844 96.191406 260.441406 97.746094 258.503906 99.277344 C 252.976562 103.648438 245.703125 109.777344 238.054688 109.699219 C 229.882812 109.613281 224.203125 103.042969 225.007812 95.371094 C 225.234375 93.246094 225.667969 91.148438 226.242188 89.085938 C 226.339844 88.703125 226.933594 87.269531 226.652344 86.898438 C 226.40625 86.5625 225.429688 88.035156 225.351562 88.144531 C 224.367188 89.703125 223.769531 91.394531 223.390625 93.175781 C 222.417969 97.691406 222.546875 102.8125 224.5625 107.066406 C 228.117188 114.558594 237.632812 117.242188 245.292969 114.316406 C 249.257812 112.800781 252.746094 110.21875 256.074219 107.699219 C 259.183594 105.339844 262.382812 102.890625 264.753906 99.804688 C 266.042969 98.128906 267.929688 95.984375 268.472656 93.921875 C 269.089844 91.601562 268.925781 89.113281 268.589844 86.851562 C 268.578125 86.800781 269.058594 86.621094 269.109375 86.597656 C 269.621094 86.351562 270.140625 86.113281 270.648438 85.867188 C 272.621094 84.925781 274.679688 84.023438 276.351562 82.625 C 276.46875 82.523438 276.371094 82.933594 276.402344 83.082031 C 276.457031 83.34375 276.554688 83.597656 276.652344 83.851562 C 276.945312 84.585938 277.261719 85.3125 277.617188 86.019531 C 278.734375 88.214844 280.75 89.941406 283.21875 90.574219 C 284.292969 90.847656 285.441406 91.027344 286.558594 90.9375 C 291.195312 90.558594 293.871094 86.066406 295.238281 82.261719 C 295.238281 82.257812 295.25 82.253906 295.25 82.253906 L 295.238281 82.261719 C 295.25 82.359375 295.726562 83.414062 295.789062 83.527344 C 296.300781 84.378906 296.917969 85.199219 297.621094 85.914062 C 299.8125 88.15625 303.417969 88.78125 306.335938 87.5625 C 308.273438 86.75 309.367188 85.21875 310.214844 83.417969 C 311.949219 79.722656 311.125 74.125 309.695312 70.367188 C 309.738281 70.183594 309.464844 70.683594 309.335938 70.832031 C 309.042969 71.167969 308.71875 71.488281 308.425781 71.824219 C 307.539062 72.820312 306.484375 73.78125 305.738281 74.886719 C 305.671875 74.976562 306.984375 76.484375 307.09375 76.722656 C 308.089844 78.820312 306.367188 80.953125 304.101562 81.070312 C 300.765625 81.246094 298.878906 78.464844 298.5 75.613281 C 298.371094 74.632812 298.390625 73.632812 298.207031 72.65625 C 298.152344 72.339844 297.992188 71.8125 297.566406 71.824219 C 297.101562 71.839844 296.808594 72.476562 296.648438 72.816406 C 296.125 73.957031 296.074219 75.226562 295.757812 76.417969 C 295.433594 77.621094 294.730469 78.664062 294.035156 79.703125 C 292.757812 81.640625 291.21875 84.058594 288.84375 84.875 C 286.003906 85.84375 282.34375 84.125 280.902344 81.695312 C 279.859375 79.929688 279.558594 77.164062 279.871094 75.140625 Z M 267.007812 91.953125 Z M 253.929688 83.285156 C 254.027344 82.078125 254.71875 80.878906 255.585938 80.011719 C 256.007812 79.59375 256.539062 79.144531 257.203125 79.253906 C 258.492188 79.472656 259.78125 80.488281 260.625 81.398438 C 260.800781 81.589844 261.382812 82.113281 261.296875 82.414062 C 261.199219 82.714844 260.734375 82.890625 260.472656 83 C 259.660156 83.339844 258.761719 83.546875 257.894531 83.667969 C 256.964844 83.796875 254.425781 83.839844 253.929688 83.285156 Z M 253.929688 83.285156 " fill-opacity="1" fill-rule="evenodd"/><path fill="#000000" d="M 231.964844 76.140625 C 231.894531 76.214844 231.863281 76.460938 231.832031 76.558594 C 231.722656 76.917969 231.621094 77.28125 231.519531 77.640625 C 231.175781 78.894531 230.816406 80.140625 230.464844 81.390625 C 230.355469 81.785156 230.242188 82.175781 230.128906 82.566406 C 230.097656 82.683594 229.976562 82.925781 230.015625 83.042969 C 230.054688 83.160156 230.359375 83.277344 230.457031 83.335938 C 230.773438 83.539062 231.078125 83.78125 231.335938 84.042969 C 231.335938 84.015625 231.425781 84.183594 231.433594 84.203125 C 231.488281 84.335938 231.550781 84.464844 231.609375 84.597656 C 231.785156 84.992188 231.929688 85.402344 232.089844 85.800781 C 232.570312 87.007812 233.058594 88.210938 233.585938 89.402344 C 234.554688 91.59375 235.683594 93.738281 236.863281 95.835938 C 237.359375 96.71875 237.839844 97.605469 238.308594 98.503906 C 238.515625 98.910156 238.796875 99.320312 238.933594 99.753906 C 239.148438 100.414062 237.4375 101.34375 236.949219 101.832031 C 235.066406 103.695312 233.027344 105.402344 230.894531 107.003906 C 222.542969 113.269531 211.175781 119.488281 200.296875 115.164062 C 200.40625 115.261719 200.027344 115.027344 199.902344 114.945312 C 199.636719 114.773438 199.386719 114.589844 199.144531 114.394531 C 198.371094 113.773438 197.679688 113.101562 197.089844 112.3125 C 195.347656 109.980469 194.605469 107.238281 194.484375 104.414062 C 194.3125 100.378906 195.050781 96.457031 196.378906 92.632812 C 196.523438 92.222656 196.664062 91.808594 196.8125 91.402344 C 196.941406 91.050781 197.070312 90.703125 197.195312 90.355469 C 197.277344 90.121094 197.359375 89.886719 197.4375 89.652344 C 197.5 89.464844 197.5625 89.273438 197.621094 89.085938 C 197.671875 88.925781 197.722656 88.765625 197.765625 88.605469 C 197.863281 88.277344 198.558594 86.425781 197.621094 86.652344 C 197.6875 86.804688 197.382812 86.894531 197.292969 87.039062 C 196.984375 87.53125 196.710938 88.046875 196.453125 88.570312 C 195.453125 90.585938 194.597656 92.652344 193.886719 94.777344 C 191.800781 101.015625 189.730469 108.761719 192.8125 114.984375 C 192.90625 114.960938 192.878906 115.160156 192.914062 115.246094 C 192.992188 115.433594 193.078125 115.617188 193.160156 115.800781 C 193.414062 116.359375 193.71875 116.898438 194.042969 117.425781 C 194.972656 118.921875 196.355469 120.191406 197.785156 121.257812 C 201.640625 124.136719 206.855469 124.121094 211.507812 123.558594 C 211.503906 123.539062 211.878906 123.457031 211.894531 123.453125 C 212.335938 123.34375 212.78125 123.242188 213.222656 123.121094 C 214.351562 122.808594 215.476562 122.445312 216.539062 121.972656 C 219.84375 120.496094 223.199219 118.96875 226.035156 116.789062 C 226.035156 116.792969 229.789062 114.035156 230.851562 113.242188 C 234.082031 110.839844 237.335938 107.960938 239.332031 104.523438 C 239.402344 104.402344 239.640625 103.875 239.6875 103.765625 C 240.03125 102.976562 240.3125 102.15625 240.53125 101.332031 C 241.0625 99.320312 241.300781 97.046875 240.859375 94.996094 C 240.578125 93.683594 240.019531 92.46875 239.472656 91.238281 C 239.570312 91.277344 239.398438 91.050781 239.359375 90.960938 C 239.289062 90.792969 239.210938 90.632812 239.136719 90.46875 C 238.875 89.910156 238.617188 89.351562 238.351562 88.792969 C 237.597656 87.214844 236.414062 85.644531 235.972656 83.949219 C 235.863281 83.515625 236.328125 83.816406 236.527344 83.929688 C 237.023438 84.210938 237.511719 84.53125 238.039062 84.757812 C 238.210938 84.832031 238.523438 84.949219 238.582031 84.691406 C 238.734375 84.035156 237.992188 83.097656 237.652344 82.59375 C 236.558594 80.96875 234.136719 78.359375 231.964844 76.140625 Z M 231.964844 76.140625 " fill-opacity="1" fill-rule="evenodd"/><path fill="#000000" d="M 211.363281 58.335938 C 211.375 58.070312 211.882812 58.515625 212.152344 58.589844 C 212.824219 58.785156 213.519531 58.953125 214.214844 59.09375 C 214.265625 59.101562 214.851562 59.25 214.851562 59.152344 C 214.832031 58.59375 213.347656 57.644531 212.96875 57.3125 C 211.191406 55.734375 209.414062 54.160156 207.558594 52.664062 C 207.210938 52.386719 205.859375 51.011719 205.328125 51.195312 C 204.957031 51.320312 204.742188 51.90625 204.589844 52.207031 C 204.144531 53.125 203.734375 54.054688 203.3125 54.984375 C 203.191406 55.242188 202.792969 55.84375 202.933594 56.148438 C 203.085938 56.464844 203.539062 56.382812 203.808594 56.535156 C 204.179688 56.75 204.429688 57.257812 204.644531 57.589844 C 206.929688 60.972656 209.660156 63.980469 212.261719 67.136719 C 212.25 67.140625 212.492188 67.367188 212.511719 67.394531 C 212.5 67.382812 211.675781 68.339844 211.625 68.40625 C 210.539062 69.644531 209.5625 70.96875 208.632812 72.300781 C 206.011719 76.003906 205.152344 81.171875 206.367188 85.488281 C 207.050781 87.933594 209.054688 90.378906 211.914062 90.175781 C 214.117188 90.023438 216.25 88.363281 217.789062 86.980469 C 221.550781 83.609375 225.992188 78.570312 223.867188 73.289062 C 223.035156 71.238281 221.65625 69.390625 220.164062 67.746094 C 219.707031 67.253906 218.375 66.351562 218.558594 65.605469 C 218.882812 64.339844 220.152344 63.132812 220.921875 62.117188 C 222.914062 59.507812 225.765625 56.515625 226.632812 53.296875 C 226.933594 52.144531 227.316406 49.769531 226.589844 48.675781 C 226.480469 48.519531 226.132812 48.988281 226.089844 49.050781 C 225.625 49.609375 225.265625 50.253906 224.875 50.855469 C 223.902344 52.363281 222.894531 53.851562 221.84375 55.316406 C 221.007812 56.484375 220.140625 57.632812 219.285156 58.796875 C 218.449219 59.925781 217.617188 61.046875 216.769531 62.160156 C 216.609375 62.371094 216.207031 63.101562 215.871094 63.117188 C 215.035156 63.148438 211.894531 58.878906 211.363281 58.335938 Z M 214.949219 70.046875 C 215.089844 69.894531 214.117188 70.855469 213.996094 71.015625 C 213.78125 71.308594 213.550781 71.601562 213.335938 71.894531 C 212.683594 72.757812 212.066406 73.632812 211.460938 74.519531 C 209.757812 76.988281 206.84375 82.472656 211.363281 83.90625 C 214.332031 84.847656 217.214844 81.792969 218.917969 79.878906 C 219.621094 79.097656 220.648438 78.054688 220.648438 76.949219 C 220.660156 76.3125 220.226562 75.6875 219.878906 75.175781 C 218.882812 73.714844 216.359375 71.148438 214.949219 70.046875 Z M 214.949219 70.046875 " fill-opacity="1" fill-rule="evenodd"/><path fill="#000000" d="M 242.015625 37.121094 C 242.039062 37.15625 241.945312 37.292969 241.925781 37.328125 C 241.8125 37.546875 241.6875 37.761719 241.558594 37.972656 C 241.527344 38.023438 241.449219 38.1875 241.355469 38.179688 C 241.214844 38.171875 240.988281 37.972656 240.886719 37.910156 C 240.503906 37.65625 240.113281 37.414062 239.742188 37.15625 C 239.324219 36.867188 238.910156 36.578125 238.480469 36.304688 C 238.234375 36.148438 237.902344 36.003906 237.71875 35.785156 C 237.527344 35.554688 237.535156 35.222656 237.507812 34.957031 C 237.445312 34.304688 237.429688 33.636719 237.648438 33 C 237.851562 32.414062 238.230469 31.632812 239.078125 31.515625 C 239.964844 31.390625 240.890625 32.015625 241.574219 32.386719 C 242.957031 33.140625 243.832031 34.179688 244.605469 35.355469 C 245.296875 36.402344 245.847656 37.492188 246.191406 38.652344 C 246.402344 39.355469 246.527344 40.085938 246.78125 40.78125 C 246.890625 41.078125 247.03125 41.453125 247.375 41.628906 C 247.371094 41.671875 247.402344 41.535156 247.414062 41.488281 C 247.429688 41.398438 247.445312 41.304688 247.460938 41.210938 C 247.507812 40.945312 247.546875 40.679688 247.585938 40.410156 C 247.710938 39.582031 247.863281 38.761719 248.085938 37.945312 C 248.683594 35.78125 249.546875 33.460938 251.082031 31.601562 C 251.765625 30.769531 252.824219 29.859375 254.195312 30.289062 C 255.144531 30.589844 255.796875 31.46875 256.246094 32.164062 C 256.390625 32.394531 256.652344 32.742188 256.636719 33.007812 C 256.609375 33.539062 256.136719 34.140625 255.890625 34.617188 C 255.71875 34.949219 255.558594 35.289062 255.351562 35.609375 C 255.28125 35.71875 255.191406 35.902344 255.046875 35.964844 C 254.777344 36.074219 254.445312 35.417969 254.367188 35.300781 C 253.96875 34.699219 253.363281 33.746094 252.359375 33.792969 C 251.308594 33.84375 250.84375 34.921875 250.523438 35.574219 C 249.566406 37.515625 249.035156 39.511719 248.492188 41.546875 C 248.476562 41.546875 248.398438 41.84375 248.390625 41.867188 C 248.253906 42.230469 248.121094 42.597656 248 42.964844 C 247.640625 44.046875 247.410156 45.1875 246.894531 46.226562 C 246.816406 46.386719 246.472656 47.167969 246.089844 46.980469 C 245.902344 46.886719 245.871094 46.601562 245.839844 46.449219 C 245.753906 45.988281 245.652344 45.53125 245.53125 45.078125 C 245.394531 44.546875 245.253906 44.019531 245.125 43.488281 C 244.929688 42.675781 244.710938 41.863281 244.398438 41.078125 C 243.976562 40.019531 242.957031 37.613281 242.015625 37.121094 Z M 242.015625 37.121094 " fill-opacity="1" fill-rule="evenodd"/><path fill="#000000" d="M 119.53125 39.128906 C 119.554688 39.164062 119.460938 39.300781 119.445312 39.335938 C 119.328125 39.550781 119.207031 39.769531 119.074219 39.980469 C 119.042969 40.03125 118.964844 40.195312 118.871094 40.1875 C 118.730469 40.179688 118.503906 39.980469 118.402344 39.914062 C 118.019531 39.664062 117.632812 39.421875 117.257812 39.164062 C 116.84375 38.875 116.429688 38.585938 116 38.3125 C 115.75 38.152344 115.417969 38.011719 115.238281 37.792969 C 115.042969 37.5625 115.050781 37.230469 115.023438 36.964844 C 114.964844 36.3125 114.949219 35.644531 115.167969 35.007812 C 115.367188 34.421875 115.746094 33.640625 116.59375 33.519531 C 117.480469 33.394531 118.410156 34.019531 119.09375 34.394531 C 120.476562 35.148438 121.347656 36.1875 122.125 37.359375 C 122.8125 38.410156 123.363281 39.5 123.710938 40.660156 C 123.917969 41.363281 124.046875 42.09375 124.300781 42.789062 C 124.40625 43.082031 124.546875 43.457031 124.894531 43.636719 C 124.890625 43.679688 124.921875 43.542969 124.929688 43.496094 C 124.945312 43.40625 124.964844 43.3125 124.980469 43.21875 C 125.027344 42.953125 125.0625 42.6875 125.105469 42.417969 C 125.226562 41.589844 125.378906 40.765625 125.605469 39.953125 C 126.199219 37.789062 127.0625 35.464844 128.597656 33.609375 C 129.28125 32.777344 130.339844 31.867188 131.710938 32.296875 C 132.660156 32.597656 133.316406 33.472656 133.761719 34.171875 C 133.910156 34.402344 134.167969 34.746094 134.15625 35.015625 C 134.128906 35.542969 133.65625 36.148438 133.410156 36.625 C 133.238281 36.957031 133.074219 37.296875 132.871094 37.617188 C 132.800781 37.726562 132.710938 37.910156 132.5625 37.96875 C 132.292969 38.078125 131.960938 37.421875 131.886719 37.308594 C 131.484375 36.707031 130.878906 35.753906 129.878906 35.800781 C 128.828125 35.851562 128.363281 36.929688 128.042969 37.578125 C 127.082031 39.523438 126.554688 41.519531 126.011719 43.550781 C 125.996094 43.554688 125.914062 43.851562 125.90625 43.875 C 125.773438 44.238281 125.636719 44.605469 125.515625 44.972656 C 125.160156 46.054688 124.925781 47.191406 124.410156 48.234375 C 124.332031 48.394531 123.988281 49.175781 123.609375 48.988281 C 123.421875 48.894531 123.386719 48.609375 123.359375 48.457031 C 123.269531 47.996094 123.171875 47.539062 123.050781 47.085938 C 122.910156 46.554688 122.769531 46.023438 122.640625 45.492188 C 122.445312 44.683594 122.226562 43.871094 121.914062 43.085938 C 121.492188 42.027344 120.476562 39.621094 119.53125 39.128906 Z M 119.53125 39.128906 " fill-opacity="1" fill-rule="evenodd"/><path fill="#000000" d="M 92.820312 81.484375 C 92.839844 81.519531 92.746094 81.65625 92.730469 81.691406 C 92.613281 81.90625 92.492188 82.125 92.363281 82.335938 C 92.332031 82.386719 92.25 82.550781 92.15625 82.542969 C 92.015625 82.535156 91.789062 82.335938 91.6875 82.273438 C 91.308594 82.019531 90.917969 81.777344 90.542969 81.519531 C 90.128906 81.230469 89.714844 80.941406 89.285156 80.667969 C 89.035156 80.507812 88.703125 80.367188 88.523438 80.148438 C 88.328125 79.917969 88.335938 79.585938 88.3125 79.320312 C 88.25 78.667969 88.234375 78 88.453125 77.363281 C 88.652344 76.777344 89.03125 75.996094 89.878906 75.878906 C 90.769531 75.75 91.695312 76.378906 92.378906 76.75 C 93.761719 77.503906 94.636719 78.542969 95.410156 79.714844 C 96.101562 80.765625 96.648438 81.855469 96.996094 83.015625 C 97.207031 83.71875 97.332031 84.449219 97.585938 85.144531 C 97.695312 85.4375 97.835938 85.816406 98.179688 85.992188 C 98.175781 86.035156 98.207031 85.898438 98.214844 85.851562 C 98.234375 85.761719 98.25 85.667969 98.265625 85.574219 C 98.3125 85.308594 98.351562 85.042969 98.390625 84.773438 C 98.511719 83.945312 98.667969 83.121094 98.890625 82.308594 C 99.488281 80.144531 100.347656 77.824219 101.882812 75.964844 C 102.566406 75.132812 103.625 74.222656 104.996094 74.652344 C 105.949219 74.953125 106.601562 75.832031 107.050781 76.527344 C 107.195312 76.757812 107.453125 77.101562 107.441406 77.371094 C 107.414062 77.902344 106.941406 78.503906 106.695312 78.980469 C 106.523438 79.3125 106.363281 79.652344 106.15625 79.972656 C 106.085938 80.082031 105.996094 80.265625 105.851562 80.328125 C 105.578125 80.4375 105.246094 79.777344 105.171875 79.664062 C 104.769531 79.0625 104.167969 78.109375 103.164062 78.15625 C 102.113281 78.207031 101.648438 79.285156 101.328125 79.9375 C 100.367188 81.878906 99.839844 83.875 99.296875 85.910156 C 99.28125 85.910156 99.199219 86.207031 99.191406 86.230469 C 99.058594 86.59375 98.921875 86.960938 98.800781 87.328125 C 98.445312 88.410156 98.214844 89.550781 97.695312 90.589844 C 97.617188 90.75 97.277344 91.53125 96.894531 91.34375 C 96.707031 91.25 96.675781 90.964844 96.644531 90.8125 C 96.558594 90.351562 96.457031 89.894531 96.335938 89.441406 C 96.195312 88.910156 96.058594 88.382812 95.929688 87.847656 C 95.734375 87.039062 95.511719 86.226562 95.199219 85.441406 C 94.777344 84.382812 93.761719 81.976562 92.820312 81.484375 Z M 92.820312 81.484375 " fill-opacity="1" fill-rule="evenodd"/><path fill="#000000" d="M 242.015625 63.984375 C 242.039062 64.019531 241.945312 64.15625 241.925781 64.191406 C 241.8125 64.40625 241.6875 64.625 241.558594 64.835938 C 241.527344 64.886719 241.449219 65.050781 241.355469 65.042969 C 241.214844 65.035156 240.988281 64.835938 240.886719 64.769531 C 240.503906 64.519531 240.113281 64.277344 239.742188 64.019531 C 239.324219 63.730469 238.910156 63.441406 238.480469 63.167969 C 238.234375 63.007812 237.902344 62.867188 237.71875 62.648438 C 237.527344 62.417969 237.535156 62.085938 237.507812 61.816406 C 237.445312 61.167969 237.429688 60.5 237.648438 59.863281 C 237.851562 59.277344 238.230469 58.496094 239.078125 58.375 C 239.964844 58.25 240.890625 58.875 241.574219 59.25 C 242.957031 60.003906 243.832031 61.039062 244.605469 62.214844 C 245.296875 63.265625 245.847656 64.355469 246.191406 65.515625 C 246.402344 66.21875 246.527344 66.949219 246.78125 67.644531 C 246.890625 67.9375 247.03125 68.3125 247.375 68.488281 C 247.371094 68.535156 247.402344 68.398438 247.414062 68.351562 C 247.429688 68.261719 247.445312 68.167969 247.460938 68.074219 C 247.507812 67.808594 247.546875 67.539062 247.585938 67.273438 C 247.710938 66.445312 247.863281 65.621094 248.085938 64.808594 C 248.683594 62.640625 249.546875 60.320312 251.082031 58.464844 C 251.765625 57.632812 252.824219 56.722656 254.195312 57.152344 C 255.144531 57.453125 255.796875 58.328125 256.246094 59.027344 C 256.390625 59.257812 256.652344 59.601562 256.636719 59.871094 C 256.609375 60.398438 256.136719 61.003906 255.890625 61.480469 C 255.71875 61.8125 255.558594 62.152344 255.351562 62.472656 C 255.28125 62.582031 255.191406 62.765625 255.046875 62.824219 C 254.777344 62.933594 254.445312 62.277344 254.367188 62.164062 C 253.96875 61.5625 253.363281 60.609375 252.359375 60.65625 C 251.308594 60.707031 250.84375 61.785156 250.523438 62.433594 C 249.566406 64.378906 249.035156 66.375 248.492188 68.40625 C 248.476562 68.410156 248.398438 68.707031 248.390625 68.730469 C 248.253906 69.09375 248.121094 69.460938 248 69.828125 C 247.640625 70.910156 247.410156 72.046875 246.894531 73.089844 C 246.816406 73.246094 246.472656 74.03125 246.089844 73.84375 C 245.902344 73.75 245.871094 73.464844 245.839844 73.308594 C 245.753906 72.851562 245.652344 72.394531 245.53125 71.941406 C 245.394531 71.410156 245.253906 70.878906 245.125 70.347656 C 244.929688 69.539062 244.710938 68.726562 244.398438 67.941406 C 243.976562 66.882812 242.957031 64.476562 242.015625 63.984375 Z M 242.015625 63.984375 " fill-opacity="1" fill-rule="evenodd"/><path fill="#000000" d="M 301.84375 92.429688 C 301.765625 92.335938 301.636719 92.667969 301.613281 92.738281 C 301.554688 92.886719 301.496094 93.035156 301.4375 93.1875 C 301.257812 93.660156 301.066406 94.125 300.882812 94.597656 C 300.757812 94.902344 301.105469 95.289062 301.199219 95.558594 C 301.480469 96.394531 300.96875 96.945312 300.273438 96.929688 C 300.074219 96.925781 299.886719 96.871094 299.703125 96.796875 C 298.925781 96.484375 298.148438 95.71875 298.222656 94.683594 C 298.261719 94.152344 298.46875 93.699219 298.585938 93.1875 C 298.621094 93.023438 298.632812 92.757812 298.445312 92.707031 C 297.976562 92.578125 297.558594 93.652344 297.398438 93.988281 C 296.746094 95.335938 296.199219 96.964844 294.921875 97.695312 C 293.738281 98.371094 292.609375 97.453125 291.460938 97.109375 C 290.222656 96.738281 288.992188 96.910156 287.808594 97.4375 C 287.808594 97.554688 287.621094 97.527344 287.527344 97.582031 C 287.230469 97.757812 286.941406 97.949219 286.652344 98.148438 C 285.386719 99.015625 284.167969 100 282.992188 101.023438 C 277.886719 105.457031 272.558594 109.472656 266.988281 113.089844 C 265.292969 114.1875 263.613281 115.320312 261.886719 116.34375 C 261.183594 116.757812 260.464844 117.140625 259.769531 117.574219 C 259.691406 117.617188 259.125 117.925781 259.285156 118.113281 C 259.472656 118.320312 259.996094 118.203125 260.21875 118.175781 C 261.074219 118.082031 261.9375 117.835938 262.769531 117.609375 C 264.820312 117.046875 267 116.433594 268.882812 115.316406 C 270.085938 114.601562 271.195312 113.636719 272.285156 112.726562 C 275.597656 109.945312 278.886719 107.128906 282.210938 104.375 C 284.164062 102.753906 286.289062 100.789062 288.609375 99.902344 C 290.667969 99.117188 292.320312 101.621094 294.382812 100.761719 C 295.28125 100.386719 295.9375 99.421875 296.375 98.484375 C 296.449219 98.328125 296.882812 97.042969 297.035156 97 C 297.0625 96.996094 297.140625 97.5625 297.144531 97.59375 C 297.207031 98.015625 297.273438 98.472656 297.5 98.820312 C 298.070312 99.683594 299.113281 99.839844 299.984375 99.640625 C 302.683594 99.023438 302.691406 96.007812 302.246094 93.503906 C 302.1875 93.171875 301.945312 92.554688 301.84375 92.429688 Z M 301.84375 92.429688 " fill-opacity="1" fill-rule="evenodd"/><path fill="#000000" d="M 229.300781 57.8125 C 229.316406 57.824219 230.691406 57.128906 230.777344 57.085938 C 232.53125 56.28125 234.308594 55.507812 236.097656 54.742188 C 243.421875 51.609375 250.820312 48.527344 258.308594 45.636719 C 260.417969 44.820312 262.539062 44.023438 264.699219 43.292969 C 264.835938 43.25 266.539062 42.585938 266.628906 42.75 C 266.820312 43.085938 266.03125 44.1875 265.878906 44.496094 C 265.558594 45.160156 265.347656 46.160156 264.75 46.71875 C 264.347656 47.09375 263.574219 47.257812 263.023438 47.453125 C 261.6875 47.929688 260.347656 48.398438 259.023438 48.898438 C 254.941406 50.4375 250.988281 52.183594 246.980469 53.835938 C 243.101562 55.441406 239.132812 56.917969 235.289062 58.574219 C 233.371094 59.402344 231.449219 60.226562 229.535156 61.058594 C 229.230469 61.191406 227.953125 61.957031 227.558594 61.796875 C 227.316406 61.699219 227.59375 61.191406 227.644531 61.066406 C 227.921875 60.382812 228.976562 58.484375 229.300781 57.8125 Z M 229.300781 57.8125 " fill-opacity="1" fill-rule="evenodd"/><path fill="#000000" d="M 269.03125 47.933594 C 269.46875 47.5 269.789062 46.726562 270.132812 46.21875 C 271.132812 44.738281 272.128906 43.253906 273.15625 41.792969 C 273.730469 40.96875 274.265625 39.996094 275.09375 39.359375 C 276.265625 38.460938 278.019531 38.582031 279.4375 38.671875 C 282.703125 38.878906 286.472656 39.863281 289.578125 40.355469 C 289.628906 40.316406 289.910156 40.441406 289.96875 40.460938 C 290.332031 40.578125 290.6875 40.707031 291.042969 40.835938 C 292.238281 41.28125 294.589844 41.902344 294.167969 43.492188 C 293.902344 44.5 293.179688 45.402344 292.527344 46.222656 C 291.511719 47.496094 290.417969 48.730469 289.277344 49.910156 C 287.765625 51.472656 286.167969 52.945312 284.511719 54.371094 C 283.414062 55.3125 282.28125 56.351562 280.871094 56.863281 C 278.503906 57.714844 275.703125 57.617188 273.210938 57.761719 C 272.027344 57.828125 270.847656 57.882812 269.664062 57.925781 C 269.039062 57.949219 268.257812 58.03125 267.648438 57.859375 C 267.050781 57.6875 268.476562 56.921875 268.578125 56.867188 C 269.863281 56.183594 271.257812 55.660156 272.644531 55.183594 C 275.84375 54.085938 279.121094 53.058594 282.160156 51.605469 C 282.882812 51.257812 283.609375 50.910156 284.316406 50.53125 C 284.5 50.4375 284.914062 50.28125 284.980469 50.070312 C 285.0625 49.8125 284.457031 49.558594 284.285156 49.484375 C 283.449219 49.121094 282.480469 48.941406 281.589844 48.738281 C 277.882812 47.882812 272.824219 47.398438 269.03125 47.933594 Z M 269.03125 47.933594 " fill-opacity="1" fill-rule="evenodd"/><path fill="#000000" d="M 89.800781 53.480469 C 90.238281 53.050781 90.558594 52.277344 90.898438 51.769531 C 91.902344 50.289062 92.894531 48.804688 93.925781 47.339844 C 94.5 46.519531 95.035156 45.546875 95.863281 44.910156 C 97.035156 44.007812 98.789062 44.132812 100.207031 44.222656 C 103.472656 44.429688 107.242188 45.414062 110.347656 45.90625 C 110.398438 45.867188 110.679688 45.992188 110.738281 46.011719 C 111.101562 46.128906 111.457031 46.257812 111.8125 46.386719 C 113.007812 46.832031 115.359375 47.453125 114.9375 49.039062 C 114.671875 50.050781 113.949219 50.953125 113.296875 51.769531 C 112.28125 53.046875 111.1875 54.28125 110.042969 55.460938 C 108.53125 57.019531 106.9375 58.496094 105.28125 59.917969 C 104.183594 60.859375 103.050781 61.902344 101.636719 62.410156 C 99.273438 63.265625 96.472656 63.167969 93.980469 63.3125 C 92.796875 63.378906 91.613281 63.433594 90.429688 63.476562 C 89.808594 63.5 89.027344 63.582031 88.417969 63.410156 C 87.820312 63.238281 89.246094 62.472656 89.347656 62.417969 C 90.632812 61.734375 92.027344 61.207031 93.414062 60.734375 C 96.613281 59.632812 99.890625 58.609375 102.929688 57.15625 C 103.652344 56.808594 104.375 56.460938 105.085938 56.082031 C 105.265625 55.984375 105.679688 55.832031 105.75 55.621094 C 105.832031 55.363281 105.226562 55.109375 105.054688 55.035156 C 104.21875 54.671875 103.25 54.492188 102.359375 54.285156 C 98.652344 53.433594 93.59375 52.949219 89.800781 53.480469 Z M 89.800781 53.480469 " fill-opacity="1" fill-rule="evenodd"/><path fill="#000000" d="M 203.429688 36.238281 L 207.863281 30.46875 L 215.027344 35.609375 L 210.300781 41.046875 C 210.300781 41.046875 203.710938 35.96875 203.429688 36.238281 Z M 203.429688 36.238281 " fill-opacity="1" fill-rule="evenodd"/><path fill="#000000" d="M 213.886719 34.96875 L 218.320312 29.199219 L 225.480469 34.339844 L 220.757812 39.777344 C 220.757812 39.777344 214.167969 34.703125 213.886719 34.96875 Z M 213.886719 34.96875 " fill-opacity="1" fill-rule="evenodd"/><path fill="#000000" d="M 211.082031 92.472656 C 210.828125 92.308594 210.59375 92.644531 210.554688 92.691406 C 210.285156 92.992188 210.097656 93.339844 209.914062 93.683594 C 209.328125 94.769531 208.800781 95.875 208.210938 96.957031 C 206.699219 99.726562 204.785156 103.054688 204.976562 106.210938 C 205.058594 107.582031 205.578125 109.324219 207.390625 109.609375 C 209.636719 109.957031 210.9375 107.058594 211.519531 105.679688 C 211.71875 105.207031 212.195312 104.265625 211.882812 103.757812 C 211.613281 103.320312 210.9375 104.234375 210.835938 104.375 C 210.199219 105.226562 209.191406 106.90625 208.019531 105.53125 C 207.074219 104.425781 207.214844 102.910156 207.511719 101.628906 C 207.945312 99.742188 208.984375 98.019531 209.90625 96.289062 C 210.484375 95.203125 211.949219 93.023438 211.082031 92.472656 Z M 211.082031 92.472656 " fill-opacity="1" fill-rule="evenodd"/><path fill="#000000" d="M 110.050781 106.695312 C 109.796875 106.53125 109.5625 106.867188 109.523438 106.914062 C 109.253906 107.214844 109.066406 107.5625 108.882812 107.90625 C 108.296875 108.988281 107.769531 110.097656 107.179688 111.179688 C 105.667969 113.949219 103.753906 117.277344 103.945312 120.433594 C 104.027344 121.804688 104.546875 123.546875 106.359375 123.832031 C 108.605469 124.179688 109.90625 121.28125 110.488281 119.902344 C 110.6875 119.429688 111.164062 118.488281 110.851562 117.980469 C 110.582031 117.542969 109.90625 118.457031 109.804688 118.597656 C 109.167969 119.449219 108.160156 121.128906 106.988281 119.753906 C 106.042969 118.648438 106.183594 117.132812 106.480469 115.851562 C 106.914062 113.964844 107.953125 112.242188 108.875 110.511719 C 109.453125 109.425781 110.917969 107.242188 110.050781 106.695312 Z M 110.050781 106.695312 " fill-opacity="1" fill-rule="evenodd"/><path fill="#000000" d="M 280.886719 68.921875 C 280.753906 68.871094 281.257812 68.546875 281.296875 68.527344 C 281.496094 68.425781 281.691406 68.316406 281.878906 68.203125 C 282.441406 67.867188 283 67.53125 283.550781 67.179688 C 285.269531 66.078125 286.976562 64.964844 288.6875 63.855469 C 292.535156 61.359375 303.265625 53.402344 303.519531 52.929688 C 303.335938 52.792969 303.027344 52.699219 302.820312 52.578125 C 301.738281 51.933594 300.105469 50.984375 300.226562 49.703125 C 300.386719 47.957031 302.066406 45.996094 303.957031 45.394531 C 304.796875 45.125 305.90625 45 306.632812 45.5625 C 307.09375 45.917969 307.222656 46.492188 307.273438 47 C 307.386719 48.128906 307.050781 49.199219 306.554688 50.234375 C 306.414062 50.53125 306.246094 50.820312 306.0625 51.101562 C 306.011719 51.183594 305.839844 51.355469 305.839844 51.457031 C 305.84375 51.585938 306.269531 51.804688 306.367188 51.878906 C 306.746094 52.167969 307.277344 52.582031 307.425781 53.019531 C 307.617188 53.582031 306.96875 54.382812 306.660156 54.832031 C 306.578125 54.945312 306.359375 55.355469 306.152344 55.320312 C 305.914062 55.28125 305.707031 55 305.550781 54.863281 C 305.144531 54.492188 304.691406 54.164062 304.285156 53.792969 C 304.226562 53.738281 304.167969 53.910156 304.109375 53.96875 C 303.992188 54.089844 303.867188 54.207031 303.75 54.328125 C 303.410156 54.679688 303.054688 55.023438 302.703125 55.367188 C 301.648438 56.386719 300.578125 57.398438 299.472656 58.378906 C 295.472656 61.945312 290.703125 65.007812 285.621094 67.3125 C 284.460938 67.839844 283.3125 68.441406 282.082031 68.835938 C 281.867188 68.90625 281.015625 68.972656 280.886719 68.921875 Z M 304.941406 50.71875 C 304.9375 50.710938 304.984375 50.546875 304.988281 50.539062 C 305.023438 50.429688 305.0625 50.320312 305.089844 50.203125 C 305.171875 49.867188 305.226562 49.519531 305.199219 49.171875 C 305.1875 48.980469 305.167969 48.785156 305.136719 48.59375 C 305.011719 47.863281 304.347656 46.832031 303.335938 47.042969 C 303.101562 47.09375 302.890625 47.199219 302.699219 47.324219 C 302.5625 47.414062 302.4375 47.523438 302.324219 47.636719 C 302.175781 47.78125 302 47.96875 301.988281 48.171875 C 301.980469 48.320312 302.101562 48.445312 302.203125 48.550781 C 302.421875 48.78125 302.671875 48.972656 302.90625 49.1875 C 303.398438 49.636719 304.394531 50.308594 304.941406 50.71875 Z M 304.941406 50.71875 " fill-opacity="1" fill-rule="evenodd"/><path fill="#000000" d="M 146.097656 49.007812 C 145.964844 48.957031 146.464844 48.636719 146.507812 48.617188 C 146.707031 48.515625 146.902344 48.40625 147.089844 48.292969 C 147.648438 47.953125 148.210938 47.617188 148.761719 47.265625 C 150.480469 46.167969 152.1875 45.054688 153.898438 43.945312 C 157.742188 41.445312 168.476562 33.488281 168.730469 33.019531 C 168.546875 32.882812 168.234375 32.789062 168.027344 32.664062 C 166.949219 32.023438 165.316406 31.074219 165.433594 29.789062 C 165.59375 28.042969 167.273438 26.082031 169.164062 25.484375 C 170.007812 25.214844 171.117188 25.089844 171.84375 25.648438 C 172.304688 26.003906 172.433594 26.582031 172.484375 27.089844 C 172.597656 28.214844 172.257812 29.289062 171.765625 30.324219 C 171.625 30.621094 171.453125 30.910156 171.273438 31.191406 C 171.21875 31.273438 171.046875 31.445312 171.050781 31.542969 C 171.054688 31.671875 171.476562 31.890625 171.578125 31.96875 C 171.957031 32.257812 172.488281 32.671875 172.636719 33.109375 C 172.828125 33.671875 172.175781 34.472656 171.867188 34.917969 C 171.789062 35.035156 171.566406 35.441406 171.363281 35.410156 C 171.125 35.367188 170.914062 35.089844 170.761719 34.949219 C 170.351562 34.582031 169.902344 34.253906 169.496094 33.882812 C 169.433594 33.828125 169.378906 34 169.320312 34.054688 C 169.199219 34.175781 169.078125 34.296875 168.960938 34.417969 C 168.617188 34.769531 168.265625 35.109375 167.914062 35.453125 C 166.859375 36.476562 165.785156 37.488281 164.683594 38.46875 C 160.683594 42.03125 155.914062 45.097656 150.828125 47.402344 C 149.667969 47.925781 148.523438 48.527344 147.292969 48.925781 C 147.074219 48.996094 146.226562 49.0625 146.097656 49.007812 Z M 170.148438 30.804688 C 170.148438 30.800781 170.195312 30.636719 170.195312 30.628906 C 170.234375 30.515625 170.269531 30.40625 170.296875 30.292969 C 170.378906 29.953125 170.433594 29.609375 170.410156 29.261719 C 170.398438 29.070312 170.378906 28.875 170.347656 28.679688 C 170.21875 27.949219 169.558594 26.921875 168.546875 27.132812 C 168.3125 27.179688 168.101562 27.285156 167.910156 27.414062 C 167.769531 27.503906 167.648438 27.613281 167.53125 27.726562 C 167.386719 27.871094 167.210938 28.054688 167.199219 28.257812 C 167.1875 28.40625 167.3125 28.53125 167.414062 28.640625 C 167.628906 28.867188 167.878906 29.0625 168.113281 29.273438 C 168.609375 29.726562 169.605469 30.394531 170.148438 30.804688 Z M 170.148438 30.804688 " fill-opacity="1" fill-rule="evenodd"/></svg>