<svg xmlns="http://www.w3.org/2000/svg" xmlns:xlink="http://www.w3.org/1999/xlink" width="500" zoomAndPan="magnify" viewBox="0 0 375 149.999998" height="200" preserveAspectRatio="xMidYMid meet" version="1.0"><path fill="#000000" d="M 247.164062 34.910156 C 247.222656 34.898438 247.136719 35.015625 247.125 35.070312 C 247.101562 35.171875 247.078125 35.273438 247.046875 35.375 C 246.992188 35.558594 246.828125 36.351562 246.480469 36.265625 C 246.304688 36.222656 246.144531 36.042969 246.027344 35.929688 C 245.734375 35.65625 245.460938 35.371094 245.171875 35.09375 C 244.664062 34.617188 244.078125 34.195312 243.460938 33.835938 C 243.132812 33.644531 242.640625 33.488281 242.410156 33.1875 C 242.066406 32.726562 242.269531 31.941406 242.304688 31.433594 C 242.398438 30.058594 242.480469 27.675781 244.519531 27.515625 C 245.964844 27.398438 247.011719 28.441406 247.84375 29.351562 C 249.855469 31.542969 251.273438 34.316406 252.21875 37.003906 C 252.585938 38.039062 252.929688 39.082031 253.253906 40.132812 C 253.324219 40.351562 253.378906 40.582031 253.464844 40.800781 C 253.484375 40.84375 253.527344 40.972656 253.609375 40.957031 C 253.789062 40.925781 253.847656 40.429688 253.875 40.316406 C 254.042969 39.625 254.265625 38.9375 254.394531 38.238281 C 255.050781 34.613281 255.695312 32.316406 256.742188 29.566406 C 256.867188 29.234375 257.027344 28.792969 257.179688 28.484375 C 257.609375 27.621094 258.175781 26.777344 258.984375 26.160156 C 259.332031 25.890625 259.761719 25.636719 260.234375 25.609375 C 260.773438 25.578125 261.273438 25.804688 261.703125 26.074219 C 262.617188 26.652344 263.332031 27.476562 263.71875 28.414062 C 263.835938 28.699219 263.992188 29.015625 263.96875 29.324219 C 263.921875 29.921875 263.667969 30.515625 263.476562 31.085938 C 263.355469 31.445312 263.234375 31.804688 263.105469 32.160156 C 262.96875 32.550781 262.828125 32.9375 262.664062 33.320312 C 262.628906 33.394531 262.570312 33.613281 262.453125 33.632812 C 262.363281 33.644531 262.28125 33.515625 262.242188 33.460938 C 262.066406 33.21875 261.921875 32.957031 261.765625 32.707031 C 261.222656 31.839844 260.078125 30.105469 258.734375 30.910156 C 257.589844 31.597656 257.027344 33.167969 256.613281 34.269531 C 255.589844 37 255.039062 39.890625 254.632812 42.738281 C 254.625 42.695312 254.605469 42.824219 254.59375 42.867188 C 254.566406 42.960938 254.539062 43.054688 254.511719 43.152344 C 254.417969 43.457031 254.324219 43.761719 254.226562 44.0625 C 253.871094 45.144531 253.46875 46.207031 252.824219 47.179688 C 252.667969 47.410156 252.507812 47.640625 252.308594 47.84375 C 252.28125 47.875 252.132812 48.050781 252.070312 48.011719 C 251.882812 47.878906 251.953125 47.171875 251.9375 46.988281 C 251.855469 46.027344 251.734375 45.058594 251.539062 44.109375 C 250.921875 41.109375 249.050781 37.457031 247.164062 34.910156 Z M 247.164062 34.910156 " fill-opacity="1" fill-rule="evenodd"/><path fill="#000000" d="M 129.214844 35.214844 C 129.273438 35.203125 129.1875 35.320312 129.175781 35.375 C 129.152344 35.476562 129.128906 35.578125 129.097656 35.679688 C 129.042969 35.863281 128.878906 36.65625 128.527344 36.570312 C 128.355469 36.527344 128.195312 36.347656 128.078125 36.238281 C 127.785156 35.964844 127.511719 35.675781 127.21875 35.402344 C 126.714844 34.921875 126.128906 34.5 125.511719 34.144531 C 125.179688 33.953125 124.6875 33.792969 124.460938 33.492188 C 124.113281 33.03125 124.316406 32.25 124.351562 31.742188 C 124.449219 30.367188 124.527344 27.980469 126.570312 27.820312 C 128.011719 27.707031 129.0625 28.746094 129.894531 29.65625 C 131.90625 31.847656 133.324219 34.621094 134.269531 37.308594 C 134.632812 38.347656 134.980469 39.390625 135.304688 40.4375 C 135.375 40.65625 135.429688 40.886719 135.515625 41.105469 C 135.535156 41.152344 135.574219 41.277344 135.65625 41.265625 C 135.839844 41.234375 135.898438 40.738281 135.925781 40.625 C 136.09375 39.929688 136.316406 39.246094 136.441406 38.542969 C 137.097656 34.921875 137.742188 32.621094 138.792969 29.871094 C 138.917969 29.539062 139.078125 29.097656 139.230469 28.789062 C 139.660156 27.929688 140.226562 27.085938 141.03125 26.464844 C 141.382812 26.195312 141.8125 25.945312 142.28125 25.914062 C 142.824219 25.882812 143.324219 26.109375 143.753906 26.382812 C 144.667969 26.960938 145.382812 27.78125 145.765625 28.71875 C 145.882812 29.003906 146.042969 29.320312 146.019531 29.632812 C 145.972656 30.226562 145.71875 30.820312 145.527344 31.390625 C 145.40625 31.75 145.285156 32.109375 145.15625 32.46875 C 145.015625 32.855469 144.878906 33.246094 144.714844 33.625 C 144.679688 33.703125 144.617188 33.917969 144.503906 33.9375 C 144.410156 33.953125 144.328125 33.820312 144.292969 33.765625 C 144.117188 33.523438 143.972656 33.265625 143.8125 33.011719 C 143.273438 32.148438 142.128906 30.414062 140.785156 31.214844 C 139.640625 31.902344 139.074219 33.476562 138.664062 34.578125 C 137.636719 37.304688 137.085938 40.195312 136.679688 43.042969 C 136.671875 43 136.65625 43.128906 136.644531 43.171875 C 136.617188 43.269531 136.589844 43.363281 136.558594 43.457031 C 136.46875 43.761719 136.375 44.066406 136.273438 44.371094 C 135.917969 45.449219 135.515625 46.511719 134.871094 47.484375 C 134.71875 47.71875 134.554688 47.945312 134.359375 48.152344 C 134.328125 48.179688 134.183594 48.359375 134.121094 48.316406 C 133.929688 48.183594 134 47.480469 133.984375 47.292969 C 133.90625 46.332031 133.785156 45.363281 133.589844 44.414062 C 132.972656 41.414062 131.097656 37.761719 129.214844 35.214844 Z M 129.214844 35.214844 " fill-opacity="1" fill-rule="evenodd"/><path fill="#000000" d="M 110.722656 67.503906 C 110.769531 67.492188 110.703125 67.585938 110.691406 67.628906 C 110.671875 67.707031 110.652344 67.785156 110.628906 67.863281 C 110.585938 68.003906 110.453125 68.617188 110.171875 68.550781 C 110.03125 68.515625 109.902344 68.378906 109.804688 68.292969 C 109.570312 68.082031 109.351562 67.859375 109.117188 67.648438 C 108.707031 67.277344 108.238281 66.953125 107.738281 66.675781 C 107.472656 66.527344 107.078125 66.402344 106.894531 66.171875 C 106.613281 65.816406 106.777344 65.210938 106.808594 64.820312 C 106.882812 63.757812 106.949219 61.914062 108.59375 61.789062 C 109.753906 61.703125 110.597656 62.503906 111.269531 63.207031 C 112.890625 64.902344 114.035156 67.042969 114.792969 69.121094 C 115.089844 69.921875 115.367188 70.726562 115.628906 71.539062 C 115.683594 71.707031 115.730469 71.886719 115.796875 72.054688 C 115.8125 72.089844 115.847656 72.1875 115.914062 72.175781 C 116.058594 72.152344 116.109375 71.769531 116.128906 71.683594 C 116.265625 71.148438 116.445312 70.617188 116.546875 70.074219 C 117.074219 67.277344 117.59375 65.5 118.4375 63.375 C 118.539062 63.117188 118.667969 62.777344 118.792969 62.539062 C 119.136719 61.875 119.59375 61.222656 120.242188 60.742188 C 120.523438 60.535156 120.871094 60.339844 121.25 60.316406 C 121.6875 60.292969 122.089844 60.46875 122.433594 60.679688 C 123.171875 61.125 123.746094 61.761719 124.058594 62.484375 C 124.152344 62.707031 124.277344 62.949219 124.257812 63.1875 C 124.222656 63.648438 124.015625 64.109375 123.863281 64.550781 C 123.765625 64.824219 123.667969 65.105469 123.566406 65.378906 C 123.453125 65.679688 123.339844 65.980469 123.207031 66.273438 C 123.183594 66.335938 123.132812 66.5 123.039062 66.515625 C 122.964844 66.527344 122.898438 66.425781 122.867188 66.382812 C 122.726562 66.199219 122.609375 65.996094 122.484375 65.800781 C 122.046875 65.132812 121.125 63.792969 120.042969 64.414062 C 119.121094 64.945312 118.667969 66.160156 118.335938 67.011719 C 117.507812 69.117188 117.066406 71.351562 116.738281 73.550781 C 116.730469 73.519531 116.71875 73.617188 116.707031 73.652344 C 116.6875 73.726562 116.664062 73.796875 116.640625 73.871094 C 116.566406 74.109375 116.492188 74.34375 116.410156 74.578125 C 116.125 75.410156 115.800781 76.230469 115.28125 76.984375 C 115.15625 77.164062 115.027344 77.339844 114.867188 77.496094 C 114.84375 77.523438 114.726562 77.65625 114.675781 77.625 C 114.523438 77.523438 114.578125 76.980469 114.566406 76.835938 C 114.503906 76.09375 114.40625 75.34375 114.246094 74.609375 C 113.75 72.292969 112.242188 69.472656 110.722656 67.503906 Z M 110.722656 67.503906 " fill-opacity="1" fill-rule="evenodd"/><path fill="#000000" d="M 250.457031 70.792969 C 250.515625 70.78125 250.433594 70.902344 250.417969 70.953125 C 250.394531 71.058594 250.371094 71.160156 250.34375 71.261719 C 250.285156 71.445312 250.121094 72.238281 249.773438 72.152344 C 249.597656 72.105469 249.4375 71.929688 249.320312 71.816406 C 249.03125 71.542969 248.753906 71.253906 248.464844 70.980469 C 247.957031 70.503906 247.375 70.078125 246.753906 69.722656 C 246.425781 69.53125 245.933594 69.371094 245.707031 69.070312 C 245.359375 68.613281 245.5625 67.828125 245.597656 67.320312 C 245.691406 65.945312 245.773438 63.5625 247.8125 63.398438 C 249.257812 63.285156 250.304688 64.324219 251.140625 65.234375 C 253.148438 67.425781 254.570312 70.199219 255.511719 72.886719 C 255.878906 73.925781 256.222656 74.96875 256.546875 76.015625 C 256.617188 76.238281 256.671875 76.46875 256.757812 76.683594 C 256.777344 76.730469 256.820312 76.855469 256.902344 76.84375 C 257.082031 76.8125 257.140625 76.316406 257.167969 76.203125 C 257.335938 75.507812 257.558594 74.824219 257.6875 74.125 C 258.34375 70.5 258.988281 68.199219 260.035156 65.449219 C 260.160156 65.117188 260.320312 64.675781 260.472656 64.367188 C 260.902344 63.507812 261.46875 62.664062 262.277344 62.042969 C 262.625 61.773438 263.054688 61.523438 263.527344 61.496094 C 264.066406 61.460938 264.566406 61.6875 264.996094 61.960938 C 265.910156 62.539062 266.625 63.363281 267.011719 64.296875 C 267.128906 64.585938 267.285156 64.898438 267.261719 65.210938 C 267.214844 65.808594 266.960938 66.398438 266.769531 66.96875 C 266.652344 67.328125 266.527344 67.691406 266.398438 68.046875 C 266.261719 68.433594 266.121094 68.824219 265.957031 69.203125 C 265.925781 69.28125 265.863281 69.5 265.746094 69.515625 C 265.65625 69.53125 265.574219 69.398438 265.535156 69.347656 C 265.359375 69.105469 265.214844 68.84375 265.058594 68.59375 C 264.515625 67.726562 263.371094 65.992188 262.03125 66.796875 C 260.882812 67.484375 260.320312 69.054688 259.90625 70.15625 C 258.882812 72.882812 258.332031 75.777344 257.925781 78.621094 C 257.917969 78.582031 257.902344 78.710938 257.886719 78.75 C 257.859375 78.847656 257.832031 78.941406 257.804688 79.039062 C 257.710938 79.34375 257.617188 79.644531 257.519531 79.949219 C 257.164062 81.03125 256.761719 82.089844 256.117188 83.0625 C 255.960938 83.296875 255.800781 83.523438 255.601562 83.730469 C 255.574219 83.761719 255.425781 83.9375 255.367188 83.894531 C 255.175781 83.765625 255.246094 83.058594 255.230469 82.875 C 255.148438 81.910156 255.027344 80.941406 254.832031 79.992188 C 254.214844 76.992188 252.34375 73.34375 250.457031 70.792969 Z M 250.457031 70.792969 " fill-opacity="1" fill-rule="evenodd"/><path fill="#000000" d="M 239.414062 59.453125 C 239.40625 59.441406 240.589844 58.832031 240.671875 58.789062 C 241.546875 58.332031 242.425781 57.875 243.304688 57.421875 C 246.050781 56 248.839844 54.660156 251.628906 53.351562 C 256.496094 51.066406 261.527344 49.175781 266.574219 47.46875 C 267.828125 47.042969 269.082031 46.613281 270.339844 46.214844 C 270.535156 46.15625 271.292969 45.824219 271.445312 46.136719 C 271.648438 46.5625 270.804688 47.703125 270.628906 48.042969 C 270.339844 48.601562 270.09375 49.4375 269.679688 49.890625 C 269.195312 50.421875 268.433594 50.617188 267.8125 50.835938 C 266.757812 51.203125 265.707031 51.570312 264.660156 51.957031 C 257.871094 54.449219 251.34375 57.507812 244.804688 60.722656 C 243.15625 61.535156 241.503906 62.425781 239.796875 63.078125 C 239.5625 63.167969 238.5 63.691406 238.277344 63.410156 C 237.976562 63.039062 239.285156 59.824219 239.414062 59.453125 Z M 239.414062 59.453125 " fill-opacity="1" fill-rule="evenodd"/><path fill="#000000" d="M 92.199219 61.453125 C 92.191406 61.4375 93.375 60.832031 93.457031 60.789062 C 94.332031 60.328125 95.210938 59.875 96.089844 59.417969 C 98.835938 58 101.625 56.660156 104.414062 55.347656 C 109.28125 53.0625 114.316406 51.175781 119.359375 49.464844 C 120.613281 49.039062 121.867188 48.613281 123.125 48.214844 C 123.320312 48.152344 124.078125 47.820312 124.230469 48.132812 C 124.433594 48.558594 123.589844 49.699219 123.414062 50.039062 C 123.125 50.597656 122.878906 51.4375 122.464844 51.890625 C 121.980469 52.417969 121.21875 52.617188 120.597656 52.835938 C 119.542969 53.203125 118.492188 53.570312 117.445312 53.953125 C 110.65625 56.445312 104.128906 59.507812 97.589844 62.722656 C 95.941406 63.535156 94.289062 64.421875 92.582031 65.074219 C 92.347656 65.164062 91.289062 65.691406 91.0625 65.410156 C 90.761719 65.039062 92.070312 61.820312 92.199219 61.453125 Z M 92.199219 61.453125 " fill-opacity="1" fill-rule="evenodd"/><path fill="#000000" d="M 143.457031 128.035156 C 143.449219 128.023438 144.625 127.519531 144.707031 127.484375 C 145.578125 127.101562 146.449219 126.722656 147.320312 126.34375 C 150.050781 125.160156 152.820312 124.046875 155.59375 122.960938 C 160.425781 121.0625 165.4375 119.507812 170.457031 118.109375 C 171.703125 117.761719 172.949219 117.410156 174.207031 117.085938 C 174.398438 117.035156 175.152344 116.761719 175.304688 117.03125 C 175.515625 117.398438 174.683594 118.367188 174.511719 118.65625 C 174.230469 119.128906 173.992188 119.847656 173.585938 120.230469 C 173.105469 120.675781 172.347656 120.835938 171.730469 121.015625 C 170.683594 121.316406 169.636719 121.617188 168.59375 121.933594 C 161.839844 123.984375 155.351562 126.523438 148.859375 129.195312 C 147.21875 129.871094 145.578125 130.613281 143.882812 131.148438 C 143.644531 131.226562 142.59375 131.660156 142.363281 131.417969 C 142.0625 131.09375 143.332031 128.351562 143.457031 128.035156 Z M 143.457031 128.035156 " fill-opacity="1" fill-rule="evenodd"/><path fill="#000000" d="M 277.808594 54.617188 C 277.695312 54.339844 278.042969 53.617188 278.121094 53.363281 C 278.503906 52.128906 278.964844 50.929688 279.53125 49.78125 C 280.164062 48.496094 280.890625 47.265625 281.6875 46.097656 C 282.121094 45.460938 282.582031 44.753906 283.203125 44.320312 C 284.269531 43.574219 285.71875 43.683594 286.921875 43.726562 C 289.355469 43.8125 291.789062 44.089844 294.199219 44.488281 C 295.75 44.746094 297.398438 45.035156 298.898438 45.550781 C 299.359375 45.707031 300.125 45.941406 300.296875 46.511719 C 300.503906 47.191406 300.152344 48.042969 299.914062 48.648438 C 299.3125 50.171875 298.519531 51.613281 297.726562 53.027344 C 296.476562 55.261719 294.992188 57.359375 293.410156 59.328125 C 292.28125 60.734375 291.089844 62.167969 289.554688 63.050781 C 287.6875 64.125 285.5 64.40625 283.449219 64.789062 C 281.917969 65.078125 280.390625 65.375 278.855469 65.632812 C 278.488281 65.691406 277.652344 65.96875 277.304688 65.703125 C 277.054688 65.507812 277.980469 64.890625 278.058594 64.828125 C 279.207031 64 280.421875 63.269531 281.609375 62.511719 C 284.464844 60.6875 287.363281 58.933594 290.253906 57.164062 C 290.894531 56.773438 291.550781 56.402344 292.164062 55.953125 C 292.28125 55.867188 292.746094 55.59375 292.660156 55.371094 C 292.554688 55.09375 291.949219 55.007812 291.730469 54.941406 C 290.582031 54.59375 289.378906 54.441406 288.195312 54.320312 C 287.195312 54.21875 286.195312 54.148438 285.195312 54.105469 C 283.265625 54.027344 279.726562 54.367188 277.808594 54.617188 Z M 277.808594 54.617188 " fill-opacity="1" fill-rule="evenodd"/><path fill="#000000" d="M 285.710938 77.148438 C 285.84375 76.839844 286.566406 76.46875 286.816406 76.28125 C 287.875 75.476562 288.945312 74.679688 290.015625 73.886719 C 293.785156 71.089844 297.648438 68.46875 301.265625 65.464844 C 303.78125 63.375 306.242188 61.214844 308.550781 58.886719 C 309.121094 58.316406 309.703125 57.742188 310.191406 57.09375 C 310.308594 56.9375 310.65625 56.601562 310.640625 56.375 C 310.632812 56.230469 310.398438 56.097656 310.304688 56.015625 C 309.910156 55.691406 309.503906 55.378906 309.113281 55.054688 C 307.753906 53.925781 306.726562 52.746094 307.316406 50.871094 C 307.46875 50.386719 307.664062 49.910156 307.910156 49.46875 C 308.949219 47.585938 311.984375 44.296875 314.140625 46.605469 C 315.492188 48.054688 314.582031 51.160156 314.042969 52.769531 C 313.914062 53.152344 313.332031 53.957031 313.347656 54.347656 C 313.351562 54.433594 313.671875 54.578125 313.734375 54.617188 C 314.09375 54.863281 314.496094 55.136719 314.761719 55.488281 C 315.476562 56.433594 314.542969 58.105469 313.957031 58.882812 C 313.410156 59.597656 312.625 58.234375 312.179688 57.808594 C 312.082031 57.714844 311.691406 57.25 311.546875 57.394531 C 310.671875 58.269531 310.019531 59.410156 309.171875 60.324219 C 305.542969 64.253906 301.628906 68.207031 297.101562 71.042969 C 294.480469 72.6875 291.800781 74.25 289.128906 75.8125 C 288.40625 76.234375 287.679688 76.660156 286.925781 77.027344 C 286.667969 77.15625 286.015625 77.195312 285.710938 77.148438 Z M 312.445312 53.398438 C 312.414062 53.371094 312.507812 53.085938 312.515625 53.042969 C 312.59375 52.675781 312.675781 52.296875 312.699219 51.917969 C 312.75 50.929688 312.511719 49.75 311.765625 49.058594 C 310.988281 48.335938 310.105469 48.566406 309.472656 49.347656 C 309.332031 49.519531 308.988281 49.929688 309.050781 50.1875 C 309.136719 50.550781 309.5 50.949219 309.742188 51.203125 C 310.460938 51.953125 311.683594 52.699219 312.445312 53.398438 Z M 312.445312 53.398438 " fill-opacity="1" fill-rule="evenodd"/><path fill="#000000" d="M 220.992188 99.863281 C 220.976562 99.789062 220.917969 99.988281 220.882812 100.054688 C 220.820312 100.179688 220.757812 100.308594 220.695312 100.4375 C 220.492188 100.851562 220.285156 101.265625 220.082031 101.679688 C 219.527344 102.804688 218.976562 103.933594 218.453125 105.074219 C 216.957031 108.328125 215.3125 112.089844 215.664062 115.804688 C 215.777344 117.015625 216.148438 119.0625 217.515625 119.375 C 219.347656 119.792969 220.597656 117.308594 221.1875 115.898438 C 221.335938 115.539062 221.46875 115.171875 221.582031 114.796875 C 221.738281 114.277344 221.960938 113.484375 221.828125 112.925781 C 221.722656 112.488281 221.273438 113.101562 221.175781 113.226562 C 220.734375 113.796875 220.394531 114.796875 219.765625 115.15625 C 218.976562 115.601562 218.25 114.324219 218.019531 113.738281 C 216.746094 110.46875 218.824219 107.15625 220.078125 104.277344 C 220.5625 103.171875 221.25 101.144531 220.992188 99.863281 Z M 220.992188 99.863281 " fill-opacity="1" fill-rule="evenodd"/><path fill="#000000" d="M 179.550781 48.355469 C 179.519531 48.210938 179.410156 48.605469 179.347656 48.734375 C 179.230469 48.984375 179.113281 49.238281 178.996094 49.488281 C 178.613281 50.304688 178.226562 51.113281 177.847656 51.929688 C 176.808594 54.144531 175.78125 56.363281 174.800781 58.609375 C 172 65.015625 168.921875 72.417969 169.582031 79.730469 C 169.796875 82.109375 170.492188 86.140625 173.046875 86.753906 C 176.476562 87.578125 178.808594 82.6875 179.914062 79.914062 C 180.195312 79.207031 180.441406 78.484375 180.652344 77.746094 C 180.945312 76.71875 181.363281 75.160156 181.113281 74.0625 C 180.917969 73.203125 180.074219 74.410156 179.894531 74.652344 C 179.070312 75.773438 178.433594 77.746094 177.253906 78.449219 C 175.78125 79.324219 174.421875 76.8125 173.992188 75.65625 C 171.609375 69.226562 175.496094 62.710938 177.84375 57.046875 C 178.746094 54.867188 180.035156 50.878906 179.550781 48.355469 Z M 179.550781 48.355469 " fill-opacity="1" fill-rule="evenodd"/><path fill="#000000" d="M 221.128906 63.023438 C 221.121094 62.984375 221.785156 62.996094 221.878906 62.992188 C 222.171875 62.972656 224.265625 62.984375 224.191406 62.546875 C 224.101562 61.992188 222.925781 61.164062 222.566406 60.808594 C 221.0625 59.316406 219.46875 57.882812 217.820312 56.570312 C 217.699219 56.46875 215.992188 54.996094 215.882812 55.085938 C 214.976562 55.863281 214.480469 58.300781 214.015625 59.417969 C 213.863281 59.757812 213.480469 60.382812 213.554688 60.785156 C 213.667969 61.414062 215.191406 61.375 215.550781 62.140625 C 216.820312 64.824219 221.601562 70.953125 222.496094 71.636719 C 222.183594 72.878906 220.742188 74.980469 220.179688 76.097656 C 218.148438 80.097656 215.089844 84.945312 215.882812 89.765625 C 216.109375 91.09375 216.507812 92.402344 217.097656 93.589844 C 217.484375 94.367188 217.957031 95.117188 218.507812 95.773438 C 218.941406 96.28125 219.421875 96.75 219.96875 97.105469 C 223.335938 99.292969 226.546875 95.683594 228.933594 93.382812 C 231.15625 91.238281 233.765625 88.730469 234.789062 85.585938 C 236.117188 81.511719 234.152344 78.011719 231.5625 75.171875 C 230.59375 74.113281 227.773438 72.40625 228.160156 70.621094 C 228.488281 69.152344 229.773438 67.792969 230.605469 66.652344 C 232.214844 64.457031 233.796875 62.246094 235.308594 59.972656 C 235.839844 59.175781 237.484375 56.871094 236.632812 55.761719 C 236.15625 55.140625 235.277344 56.066406 234.894531 56.390625 C 233.464844 57.621094 232.234375 59.144531 231.027344 60.613281 C 230.222656 61.585938 229.433594 62.566406 228.667969 63.570312 C 228.234375 64.132812 227.828125 64.714844 227.429688 65.304688 C 227.191406 65.660156 226.957031 66.019531 226.71875 66.378906 C 225.953125 67.558594 225.722656 68.039062 224.734375 67.058594 C 224.496094 66.824219 224.265625 66.574219 224.042969 66.320312 C 223.714844 65.953125 223.40625 65.566406 223.09375 65.179688 C 222.59375 64.566406 220.722656 62.652344 220.226562 62.03125 Z M 225.058594 75.515625 C 224.746094 76.105469 223.601562 77.148438 223.085938 77.78125 C 222.015625 79.09375 221.453125 80.613281 220.6875 82.15625 C 220.152344 83.238281 219.914062 84.429688 219.644531 85.625 C 219.035156 88.296875 220.53125 91.144531 223.34375 90.898438 C 224.683594 90.78125 225.75 90.050781 226.753906 89.160156 C 229.128906 87.042969 231.996094 84.308594 229.917969 80.757812 C 228.832031 78.894531 226.683594 76.796875 225.058594 75.515625 Z M 225.058594 75.515625 " fill-opacity="1" fill-rule="evenodd"/><path fill="#000000" d="M 311.5 81.046875 C 312.363281 79.625 313.554688 78.304688 314.691406 77.125 C 314.875 76.9375 315.558594 76.046875 315.886719 76.128906 C 316.792969 76.355469 317.242188 79.269531 317.355469 79.976562 C 317.503906 80.929688 317.511719 81.902344 317.429688 82.863281 C 317.097656 87.015625 315.734375 91.644531 312.84375 94.546875 C 311.167969 96.226562 308.894531 97.113281 306.792969 95.804688 C 306 95.3125 305.289062 94.667969 304.644531 93.96875 C 303.511719 92.726562 302.640625 91.167969 301.949219 89.601562 C 301.867188 89.425781 301.746094 89.910156 301.65625 90.074219 C 301.488281 90.390625 301.3125 90.707031 301.132812 91.019531 C 300.648438 91.894531 300.171875 92.773438 299.652344 93.621094 C 298.113281 96.128906 296.039062 99.015625 293.261719 99.945312 C 289.230469 101.296875 285.082031 97.28125 283.800781 93.421875 C 283.335938 92.007812 283.289062 90.714844 283.265625 89.25 C 283.273438 89.253906 281.9375 90.640625 281.835938 90.730469 C 280.253906 92.164062 278.613281 93.339844 276.78125 94.367188 C 276.714844 94.121094 277.164062 96.625 277.164062 97.203125 C 277.164062 98.808594 277.175781 99.917969 276.675781 101.6875 C 276.484375 102.347656 275.164062 104.332031 274.859375 104.753906 C 272.636719 107.863281 270.222656 110.757812 267.566406 113.4375 C 260.074219 120.984375 249.316406 129.707031 238.875 123.539062 C 237.5 122.726562 236.210938 121.742188 235.140625 120.496094 C 233.703125 118.832031 232.6875 116.859375 232.097656 114.671875 C 230.65625 109.285156 231.71875 103.367188 233.214844 98.128906 C 233.636719 96.660156 234.164062 95.234375 234.792969 93.859375 C 234.84375 93.757812 235.277344 92.671875 235.480469 92.902344 C 235.789062 93.257812 235.417969 94.566406 235.355469 94.960938 C 235.058594 97.109375 234.726562 99.25 234.476562 101.40625 C 233.796875 107.273438 234.53125 113.714844 239.402344 117.332031 C 247.457031 123.316406 256.207031 115.574219 262.574219 110.566406 C 267.71875 106.527344 273.671875 102.210938 273.550781 94.6875 C 273.355469 94.742188 273.089844 95.121094 272.921875 95.242188 C 272.34375 95.667969 271.714844 96.023438 271.089844 96.347656 C 268.984375 97.429688 266.722656 98.121094 264.382812 98.121094 C 263.375 98.121094 262.351562 97.964844 261.390625 97.65625 C 260.617188 97.40625 259.878906 97.042969 259.207031 96.550781 C 254.152344 92.824219 257.757812 85.242188 260.570312 81.308594 C 261.929688 79.402344 264.070312 76.539062 266.59375 76.722656 C 269.03125 76.902344 271.316406 79.414062 272.703125 81.394531 C 273.964844 83.1875 274.738281 85.335938 275.394531 87.460938 C 275.332031 87.222656 275.855469 87.40625 276.078125 87.34375 C 276.464844 87.230469 276.851562 87.078125 277.230469 86.914062 C 278.347656 86.425781 279.445312 85.765625 280.40625 84.980469 C 281.832031 83.820312 282.941406 82.332031 284.148438 80.933594 C 284.433594 80.609375 285.117188 79.542969 285.625 79.804688 C 286.574219 80.292969 286.582031 82.8125 286.710938 83.730469 C 287.148438 86.890625 287.136719 90.433594 290.707031 91.105469 C 291.242188 91.207031 291.792969 91.230469 292.332031 91.1875 C 296.4375 90.847656 299.304688 87.070312 301.113281 83.40625 C 301.796875 82.019531 302.375 80.578125 303.066406 79.199219 C 303.234375 78.875 303.546875 78.054688 303.980469 78.066406 C 304.265625 78.074219 304.339844 78.539062 304.386719 78.761719 C 304.570312 79.644531 304.597656 80.574219 304.625 81.476562 C 304.582031 81.371094 304.582031 81.707031 304.570312 81.820312 C 304.550781 82.046875 304.515625 82.269531 304.507812 82.496094 C 304.476562 83.246094 304.535156 84.019531 304.679688 84.753906 C 305.105469 86.96875 306.46875 88.636719 308.574219 89.027344 C 312.117188 89.683594 312.816406 83.792969 311.5 81.046875 Z M 268.71875 90.007812 C 268.707031 90.054688 268.367188 90.140625 268.328125 90.15625 C 267.933594 90.296875 267.535156 90.417969 267.128906 90.503906 C 265.832031 90.785156 263.164062 91.210938 262.664062 89.335938 C 262.160156 87.457031 264.269531 85.507812 265.894531 85.730469 C 267.183594 85.90625 268.46875 88.0625 268.71875 90.007812 Z M 268.71875 90.007812 " fill-opacity="1" fill-rule="evenodd"/><path fill="#000000" d="M 212.492188 39.722656 L 217.507812 33.25 L 224.996094 38.761719 L 220.03125 45.46875 Z M 212.492188 39.722656 " fill-opacity="1" fill-rule="evenodd"/><path fill="#000000" d="M 129.8125 63.222656 L 134.832031 56.75 L 142.320312 62.265625 L 137.351562 68.96875 Z M 129.8125 63.222656 " fill-opacity="1" fill-rule="evenodd"/><path fill="#000000" d="M 139.761719 63.222656 L 144.777344 56.75 L 152.265625 62.265625 L 147.300781 68.96875 Z M 139.761719 63.222656 " fill-opacity="1" fill-rule="evenodd"/><path fill="#000000" d="M 53.195312 59.75 L 58.210938 53.277344 L 65.699219 58.789062 L 60.734375 65.496094 Z M 53.195312 59.75 " fill-opacity="1" fill-rule="evenodd"/><path fill="#000000" d="M 65.695312 59.75 L 70.710938 53.277344 L 78.203125 58.789062 L 73.234375 65.496094 Z M 65.695312 59.75 " fill-opacity="1" fill-rule="evenodd"/><path fill="#000000" d="M 224.992188 39.722656 L 230.007812 33.25 L 237.496094 38.761719 L 232.53125 45.46875 Z M 224.992188 39.722656 " fill-opacity="1" fill-rule="evenodd"/><path fill="#000000" d="M 299.46875 107.714844 C 299.417969 107.726562 299.574219 107.390625 299.59375 107.347656 C 299.675781 107.125 299.757812 106.902344 299.84375 106.683594 C 300.050781 106.179688 300.273438 105.679688 300.476562 105.171875 C 300.492188 105.128906 300.625 104.714844 300.703125 104.757812 C 300.773438 104.796875 300.800781 105.011719 300.828125 105.085938 C 300.945312 105.457031 301.074219 105.828125 301.164062 106.210938 C 301.5625 107.933594 301.542969 109.714844 300.832031 111.335938 C 300.324219 112.488281 299.339844 113.324219 298.179688 113.453125 C 296.71875 113.617188 295.257812 112.304688 295.203125 110.632812 C 295.203125 110.625 295.042969 110.773438 295.03125 110.785156 C 294.949219 110.886719 294.871094 111 294.796875 111.109375 C 294.550781 111.46875 294.320312 111.84375 294.089844 112.21875 C 293.371094 113.398438 292.507812 114.800781 291.152344 115.0625 C 289.34375 115.40625 288.046875 113.808594 286.351562 113.554688 C 285.511719 113.425781 284.667969 113.730469 283.914062 114.125 C 282.605469 114.808594 281.421875 115.789062 280.285156 116.777344 C 279.789062 117.207031 279.132812 117.761719 278.644531 118.1875 C 277.570312 119.128906 276.496094 120.058594 275.40625 120.972656 C 271.429688 124.3125 267.617188 127.703125 263.191406 130.28125 C 263.261719 130.371094 262.996094 130.367188 262.902344 130.417969 C 262.667969 130.535156 262.433594 130.648438 262.199219 130.757812 C 261.519531 131.074219 260.835938 131.375 260.148438 131.667969 C 258.046875 132.574219 255.941406 133.359375 253.753906 133.957031 C 253.046875 134.148438 252.320312 134.335938 251.59375 134.390625 C 251.484375 134.398438 250.875 134.464844 250.878906 134.214844 C 250.890625 133.726562 252.03125 133.242188 252.3125 133.070312 C 253.839844 132.152344 255.40625 131.34375 256.949219 130.464844 C 260.546875 128.40625 263.910156 125.898438 267.273438 123.398438 C 269.730469 121.574219 272.222656 119.804688 274.644531 117.910156 C 274.808594 117.785156 275.265625 117.429688 275.414062 117.3125 C 276.105469 116.78125 276.78125 116.238281 277.460938 115.691406 C 279.269531 114.246094 281.078125 112.773438 282.988281 111.507812 C 284.050781 110.804688 285.265625 110.058594 286.535156 110.074219 C 288.390625 110.09375 290.195312 111.964844 292.0625 111.019531 C 293.519531 110.285156 294.304688 108.523438 295.203125 107.152344 C 295.460938 106.761719 296.066406 105.542969 296.574219 105.496094 C 296.894531 105.464844 296.683594 106.351562 296.660156 106.507812 C 296.519531 107.515625 296.199219 109 296.90625 109.835938 C 297.980469 111.097656 300.484375 109.785156 299.46875 107.714844 Z M 299.46875 107.714844 " fill-opacity="1" fill-rule="evenodd"/><path fill="#000000" d="M 246.660156 89.992188 C 246.65625 89.960938 246.710938 90.023438 246.738281 90.039062 C 246.785156 90.0625 246.828125 90.089844 246.875 90.113281 C 247.035156 90.195312 247.195312 90.277344 247.359375 90.355469 C 247.484375 90.414062 247.609375 90.472656 247.734375 90.527344 C 247.816406 90.566406 247.902344 90.601562 247.988281 90.636719 C 248.28125 90.761719 249.25 91.222656 249.222656 90.558594 C 249.199219 90.074219 248.808594 89.582031 248.53125 89.214844 C 247.953125 88.457031 247.367188 87.699219 246.78125 86.945312 C 245.710938 85.566406 244.632812 84.191406 243.535156 82.832031 C 243.273438 82.511719 243.023438 82.183594 242.75 81.875 C 242.675781 81.789062 242.542969 81.59375 242.410156 81.589844 C 242.210938 81.585938 242.097656 82.027344 242.058594 82.160156 C 241.839844 82.835938 241.707031 83.539062 241.554688 84.230469 C 241.308594 85.332031 241.027344 86.421875 240.714844 87.503906 C 240.585938 87.960938 240.285156 88.597656 240.449219 89.078125 C 240.546875 89.375 240.777344 89.601562 240.996094 89.820312 C 241.285156 90.113281 241.582031 90.398438 241.90625 90.652344 C 241.804688 90.910156 242.121094 91.566406 242.191406 91.804688 C 242.507812 92.894531 242.894531 93.964844 243.277344 95.035156 C 244.035156 97.160156 244.878906 99.253906 245.917969 101.257812 C 247.050781 103.445312 248.378906 105.546875 249.449219 107.761719 C 249.367188 107.75 249.03125 108.246094 248.984375 108.300781 C 248.4375 108.917969 247.882812 109.523438 247.316406 110.121094 C 245.160156 112.40625 242.851562 114.53125 240.414062 116.511719 C 236.761719 119.480469 232.578125 121.894531 228.304688 123.851562 C 224.039062 125.800781 219.320312 127.371094 214.5625 126.84375 C 214.523438 126.71875 214.296875 126.832031 214.167969 126.800781 C 213.71875 126.6875 213.269531 126.570312 212.828125 126.425781 C 211.160156 125.871094 209.558594 125.203125 208.15625 124.125 C 204.167969 121.054688 203.027344 116.003906 203.042969 111.160156 C 203.054688 106.980469 203.988281 102.828125 205.394531 98.910156 C 205.964844 97.328125 206.566406 95.761719 207.144531 94.183594 C 207.183594 94.082031 207.699219 92.835938 207.433594 92.835938 C 207.214844 92.835938 206.960938 93.183594 206.847656 93.332031 C 206.34375 93.980469 205.917969 94.699219 205.558594 95.4375 C 204.085938 98.457031 202.988281 101.710938 202.011719 104.917969 C 201.5625 106.390625 201.148438 107.871094 200.824219 109.371094 C 199.085938 117.417969 199.652344 128.464844 207.882812 132.808594 C 209.132812 133.464844 210.480469 133.964844 211.859375 134.265625 C 221.851562 136.480469 230.871094 131.113281 238.292969 125.214844 C 238.226562 125.265625 238.4375 125.140625 238.503906 125.097656 C 238.640625 125 238.773438 124.90625 238.910156 124.8125 C 239.339844 124.511719 239.765625 124.207031 240.183594 123.894531 C 241.429688 122.976562 242.613281 121.980469 243.75 120.933594 C 247.363281 117.617188 250.632812 113.957031 251.644531 109.0625 C 251.722656 108.679688 251.796875 108.160156 251.824219 107.785156 C 251.894531 106.78125 251.914062 105.769531 251.882812 104.765625 C 251.789062 101.5625 250.550781 98.890625 249.234375 96.023438 C 248.382812 94.175781 247.65625 91.769531 246.660156 89.992188 Z M 246.660156 89.992188 " fill-opacity="1" fill-rule="evenodd"/><path fill="#000000" d="M 302.269531 16.21875 C 302.292969 16.328125 302.503906 16.230469 302.613281 16.25 C 302.914062 16.300781 303.207031 16.355469 303.503906 16.417969 C 304.78125 16.679688 306.042969 17.019531 307.292969 17.375 C 312.308594 18.808594 317.066406 20.914062 321.394531 23.773438 C 332.28125 30.957031 339.433594 43.125 341.542969 55.621094 C 341.496094 55.640625 341.414062 55.820312 341.382812 55.855469 C 341.222656 56.078125 341.050781 56.292969 340.886719 56.515625 C 340.382812 57.203125 339.8125 57.859375 339.167969 58.421875 C 338.484375 59.015625 337.40625 59.8125 336.445312 59.847656 C 335.683594 59.871094 334.902344 59.367188 334.269531 59.03125 C 332.910156 58.3125 331.574219 57.535156 330.3125 56.664062 C 330.347656 56.753906 330.195312 56.332031 330.179688 56.265625 C 330.089844 55.902344 329.992188 55.542969 329.886719 55.183594 C 329.566406 54.074219 329.238281 52.964844 328.910156 51.855469 C 327.914062 48.472656 326.394531 45.128906 324.804688 41.972656 C 320.171875 32.734375 310.691406 22.484375 302.269531 16.21875 Z M 302.269531 16.21875 " fill-opacity="1" fill-rule="evenodd"/><path fill="#000000" d="M 302.269531 114.210938 C 302.292969 114.097656 302.503906 114.199219 302.613281 114.179688 C 302.914062 114.128906 303.207031 114.070312 303.503906 114.011719 C 304.78125 113.75 306.042969 113.410156 307.292969 113.054688 C 312.308594 111.617188 317.066406 109.511719 321.394531 106.65625 C 332.28125 99.472656 339.433594 87.304688 341.542969 74.804688 C 341.496094 74.789062 341.414062 74.609375 341.382812 74.570312 C 341.222656 74.351562 341.050781 74.136719 340.886719 73.914062 C 340.382812 73.226562 339.8125 72.570312 339.167969 72.003906 C 338.484375 71.410156 337.40625 70.613281 336.445312 70.582031 C 335.683594 70.558594 334.902344 71.058594 334.269531 71.398438 C 332.910156 72.117188 331.574219 72.894531 330.3125 73.765625 C 330.347656 73.675781 330.195312 74.09375 330.179688 74.164062 C 330.089844 74.527344 329.992188 74.886719 329.886719 75.242188 C 329.566406 76.355469 329.238281 77.460938 328.910156 78.570312 C 327.914062 81.953125 326.394531 85.300781 324.804688 88.457031 C 320.171875 97.691406 310.691406 107.941406 302.269531 114.210938 Z M 302.269531 114.210938 " fill-opacity="1" fill-rule="evenodd"/><path fill="#000000" d="M 340.941406 45.09375 C 340.878906 45.074219 340.355469 44.90625 340.164062 44.800781 C 339.9375 44.675781 339.820312 44.511719 339.761719 44.390625 C 339.6875 44.230469 339.675781 44.070312 339.722656 43.914062 C 339.761719 43.78125 339.84375 43.59375 340.09375 43.464844 C 340.148438 43.4375 340.257812 43.390625 340.402344 43.367188 C 340.613281 43.328125 341.015625 43.300781 341.042969 43.300781 C 341.804688 43.269531 342.566406 43.324219 343.320312 43.429688 C 345.933594 43.785156 348.527344 44.71875 350.691406 46.191406 C 352.796875 47.621094 354.523438 49.542969 355.371094 51.914062 C 355.589844 52.53125 355.765625 53.171875 355.835938 53.820312 C 355.855469 53.960938 355.851562 54.128906 355.851562 54.300781 C 355.855469 54.355469 355.859375 54.429688 355.867188 54.492188 C 355.9375 54.507812 356.046875 54.535156 356.117188 54.546875 C 356.285156 54.574219 356.441406 54.601562 356.558594 54.632812 C 357.363281 54.855469 358.117188 55.230469 358.785156 55.710938 C 361.003906 57.304688 362.339844 59.9375 362.800781 62.535156 C 362.882812 62.710938 362.890625 62.90625 362.777344 63.128906 C 362.761719 63.164062 362.6875 63.375 362.339844 63.488281 C 362.28125 63.507812 362.222656 63.519531 362.160156 63.523438 L 362.089844 63.539062 C 361.941406 63.585938 361.789062 63.632812 361.640625 63.675781 C 361.132812 63.824219 360.628906 63.960938 360.117188 64.101562 C 359.246094 64.34375 358.367188 64.582031 357.484375 64.8125 L 357.761719 64.910156 C 359.316406 65.484375 360.808594 66.160156 362.320312 66.835938 C 362.667969 66.992188 362.832031 67.386719 362.695312 67.734375 C 361.433594 70.875 359.46875 73.925781 356.292969 75.582031 C 356.027344 75.722656 355.527344 76.003906 355.320312 76.171875 C 354.335938 76.949219 353.765625 77.984375 353.289062 79.105469 C 352.824219 80.191406 352.390625 81.300781 351.6875 82.269531 C 350.136719 84.414062 347.492188 85.875 344.84375 86.277344 C 344.003906 86.40625 343.144531 86.429688 342.292969 86.378906 C 342.144531 86.367188 341.9375 86.375 341.746094 86.351562 C 341.511719 86.324219 341.300781 86.257812 341.136719 86.15625 C 340.792969 85.949219 340.722656 85.675781 340.757812 85.40625 C 340.777344 85.277344 340.824219 85.128906 340.9375 84.992188 C 341.058594 84.835938 341.335938 84.65625 341.402344 84.617188 C 341.84375 84.351562 342.304688 84.113281 342.757812 83.859375 C 343.789062 83.269531 344.792969 82.625 345.5625 81.722656 C 346.535156 80.589844 347.003906 79.253906 347.042969 77.785156 C 347.0625 77.027344 346.972656 76.210938 346.980469 75.410156 C 346.996094 74.480469 347.148438 73.574219 347.652344 72.773438 C 348.527344 71.382812 350.210938 70.617188 351.726562 70.085938 C 351.816406 70.050781 352.011719 70 352.214844 69.929688 C 352.011719 69.75 351.75 69.605469 351.546875 69.464844 C 350.75 68.929688 349.902344 68.457031 349.046875 68.011719 C 348.300781 67.617188 347.546875 67.242188 346.773438 66.910156 C 345.777344 66.480469 344.742188 66.128906 343.714844 65.78125 C 343.59375 65.742188 343.214844 65.558594 343.050781 65.480469 C 343.019531 65.5 342.988281 65.527344 342.953125 65.546875 C 342.804688 65.648438 342.667969 65.765625 342.550781 65.855469 C 341.980469 66.265625 341.4375 66.707031 340.894531 67.148438 C 340.363281 67.582031 339.835938 68.015625 339.304688 68.449219 C 338.636719 69 337.976562 69.5625 337.324219 70.136719 C 337.164062 70.28125 336.972656 70.492188 336.765625 70.652344 C 336.539062 70.832031 336.289062 70.960938 336.039062 71.007812 C 335.792969 71.054688 335.550781 71.023438 335.316406 70.929688 C 335.144531 70.859375 334.980469 70.746094 334.832031 70.664062 C 334.390625 70.417969 333.941406 70.175781 333.503906 69.917969 C 331.734375 68.886719 328.648438 66.871094 327.03125 65.621094 C 326.828125 65.464844 326.734375 65.253906 326.757812 64.992188 C 326.765625 64.890625 326.804688 64.734375 326.933594 64.578125 C 327.007812 64.492188 327.179688 64.363281 327.1875 64.355469 C 327.445312 64.160156 327.714844 63.976562 327.984375 63.800781 C 328.566406 63.421875 329.144531 63.046875 329.734375 62.683594 C 331.394531 61.660156 333.777344 60.179688 335.433594 59.101562 C 335.519531 59.023438 335.65625 58.941406 335.882812 58.925781 C 336.054688 58.914062 336.222656 58.964844 336.363281 59.0625 C 336.378906 59.070312 336.398438 59.078125 336.40625 59.085938 C 336.472656 59.128906 336.539062 59.167969 336.605469 59.210938 C 336.796875 59.332031 336.976562 59.453125 337.164062 59.578125 C 337.667969 59.917969 338.179688 60.25 338.683594 60.589844 C 340.101562 61.558594 341.574219 62.496094 342.945312 63.535156 C 343.707031 62.996094 344.589844 62.554688 345.371094 62.078125 C 346.910156 61.136719 348.453125 60.203125 349.996094 59.273438 C 349.449219 58.941406 348.925781 58.550781 348.523438 58.070312 C 347.953125 57.402344 347.691406 56.511719 347.378906 55.714844 C 346.855469 54.351562 346.433594 52.953125 345.894531 51.59375 C 345.136719 49.6875 344.128906 47.746094 342.621094 46.292969 C 342.125 45.816406 341.566406 45.402344 340.941406 45.09375 Z M 343.136719 44.832031 C 345.519531 45.164062 347.882812 46.011719 349.851562 47.351562 C 351.707031 48.609375 353.246094 50.289062 353.988281 52.378906 C 354.175781 52.894531 354.324219 53.425781 354.382812 53.96875 C 354.40625 54.144531 354.382812 54.375 354.402344 54.589844 C 354.421875 54.851562 354.488281 55.09375 354.613281 55.289062 C 354.742188 55.5 354.949219 55.667969 355.222656 55.777344 C 355.519531 55.898438 355.925781 55.929688 356.160156 55.992188 C 356.792969 56.167969 357.382812 56.46875 357.914062 56.851562 C 359.703125 58.132812 360.800781 60.210938 361.265625 62.304688 L 361.214844 62.320312 C 360.71875 62.46875 360.214844 62.601562 359.71875 62.738281 C 358.5625 63.0625 357.40625 63.375 356.242188 63.664062 C 356.070312 63.707031 355.589844 63.757812 355.257812 63.855469 C 354.929688 63.953125 354.699219 64.125 354.585938 64.273438 C 354.46875 64.433594 354.421875 64.617188 354.464844 64.824219 C 354.484375 64.929688 354.539062 65.101562 354.734375 65.253906 C 354.859375 65.351562 355.621094 65.644531 355.671875 65.664062 C 356.195312 65.851562 356.71875 66.042969 357.242188 66.234375 C 358.546875 66.714844 359.808594 67.269531 361.074219 67.839844 C 359.9375 70.453125 358.257812 72.949219 355.597656 74.335938 C 355.269531 74.507812 354.652344 74.867188 354.390625 75.074219 C 353.21875 76.003906 352.511719 77.222656 351.9375 78.5625 C 351.515625 79.554688 351.132812 80.570312 350.492188 81.457031 C 349.160156 83.292969 346.882812 84.53125 344.617188 84.878906 C 344.308594 84.925781 343.992188 84.957031 343.683594 84.972656 C 344.796875 84.328125 345.851562 83.601562 346.6875 82.628906 C 347.871094 81.246094 348.457031 79.613281 348.5 77.820312 C 348.523438 77.058594 348.429688 76.234375 348.445312 75.429688 C 348.453125 74.753906 348.53125 74.09375 348.902344 73.511719 C 349.605469 72.394531 351.011719 71.84375 352.226562 71.414062 C 352.460938 71.332031 353.203125 71.121094 353.535156 70.820312 C 353.898438 70.488281 354.015625 70.085938 353.785156 69.625 C 353.5 69.070312 352.878906 68.636719 352.375 68.300781 C 351.535156 67.734375 350.640625 67.238281 349.742188 66.765625 C 348.96875 66.355469 348.179688 65.964844 347.367188 65.617188 C 346.335938 65.171875 345.265625 64.808594 344.199219 64.445312 C 344.183594 64.441406 344.175781 64.4375 344.164062 64.433594 C 344.804688 64.015625 345.515625 63.660156 346.148438 63.273438 C 348.046875 62.113281 349.949219 60.964844 351.863281 59.820312 C 352.066406 59.695312 352.195312 59.480469 352.203125 59.242188 C 352.210938 59.007812 352.101562 58.78125 351.902344 58.644531 C 351.714844 58.511719 351.414062 58.4375 351.199219 58.324219 C 350.640625 58.015625 350.0625 57.65625 349.648438 57.171875 C 349.183594 56.621094 349.003906 55.875 348.75 55.21875 C 348.222656 53.851562 347.796875 52.445312 347.257812 51.082031 C 346.425781 48.996094 345.300781 46.882812 343.652344 45.292969 C 343.488281 45.132812 343.316406 44.980469 343.136719 44.832031 Z M 335.9375 60.480469 C 336.070312 60.566406 336.203125 60.65625 336.335938 60.746094 C 336.839844 61.078125 337.34375 61.410156 337.84375 61.75 C 339.199219 62.671875 340.597656 63.5625 341.90625 64.546875 C 341.820312 64.609375 341.742188 64.667969 341.671875 64.722656 C 341.082031 65.152344 340.519531 65.609375 339.957031 66.066406 C 339.425781 66.5 338.890625 66.933594 338.359375 67.371094 C 337.679688 67.933594 337.003906 68.507812 336.339844 69.09375 C 336.234375 69.1875 336.117188 69.308594 335.988281 69.429688 C 335.929688 69.484375 335.882812 69.550781 335.824219 69.589844 C 335.75 69.546875 335.625 69.472656 335.554688 69.433594 C 335.125 69.195312 334.6875 68.957031 334.261719 68.707031 C 332.769531 67.835938 330.328125 66.257812 328.671875 65.058594 L 328.804688 64.972656 C 329.371094 64.601562 329.945312 64.234375 330.523438 63.875 C 332.085938 62.910156 334.296875 61.539062 335.9375 60.480469 Z M 335.9375 60.480469 " fill-opacity="1" fill-rule="evenodd"/><path fill="#000000" d="M 374.644531 65.535156 L 362.777344 63.128906 L 355.632812 64.847656 L 361.824219 67.769531 Z M 374.644531 65.535156 " fill-opacity="1" fill-rule="evenodd"/><path fill="#000000" d="M 72.757812 21.585938 C 72.730469 21.695312 72.519531 21.597656 72.410156 21.617188 C 72.109375 21.667969 71.816406 21.722656 71.519531 21.785156 C 70.242188 22.046875 68.980469 22.386719 67.730469 22.742188 C 62.71875 24.179688 57.957031 26.28125 53.628906 29.140625 C 42.746094 36.324219 35.589844 48.492188 33.480469 60.988281 C 33.53125 61.007812 33.609375 61.1875 33.640625 61.222656 C 33.800781 61.445312 33.972656 61.660156 34.136719 61.882812 C 34.644531 62.570312 35.210938 63.226562 35.855469 63.789062 C 36.539062 64.382812 37.617188 65.179688 38.578125 65.214844 C 39.339844 65.238281 40.121094 64.734375 40.753906 64.398438 C 42.117188 63.679688 43.449219 62.902344 44.714844 62.03125 C 44.675781 62.121094 44.828125 61.699219 44.847656 61.632812 C 44.933594 61.269531 45.03125 60.910156 45.136719 60.550781 C 45.457031 59.441406 45.785156 58.332031 46.113281 57.222656 C 47.109375 53.839844 48.632812 50.496094 50.21875 47.339844 C 54.855469 38.101562 64.335938 27.851562 72.757812 21.585938 Z M 72.757812 21.585938 " fill-opacity="1" fill-rule="evenodd"/><path fill="#000000" d="M 72.757812 119.578125 C 72.730469 119.464844 72.519531 119.566406 72.410156 119.546875 C 72.109375 119.496094 71.816406 119.4375 71.519531 119.378906 C 70.242188 119.117188 68.980469 118.777344 67.730469 118.421875 C 62.71875 116.984375 57.957031 114.878906 53.628906 112.023438 C 42.746094 104.839844 35.589844 92.671875 33.480469 80.171875 C 33.53125 80.15625 33.609375 79.976562 33.640625 79.9375 C 33.800781 79.71875 33.972656 79.503906 34.136719 79.28125 C 34.644531 78.59375 35.210938 77.9375 35.855469 77.371094 C 36.539062 76.777344 37.617188 75.980469 38.578125 75.949219 C 39.339844 75.925781 40.121094 76.425781 40.753906 76.765625 C 42.117188 77.484375 43.449219 78.261719 44.714844 79.132812 C 44.675781 79.042969 44.828125 79.460938 44.847656 79.53125 C 44.933594 79.894531 45.03125 80.253906 45.136719 80.609375 C 45.457031 81.722656 45.785156 82.828125 46.113281 83.9375 C 47.109375 87.320312 48.632812 90.667969 50.21875 93.824219 C 54.855469 103.058594 64.335938 113.308594 72.757812 119.578125 Z M 72.757812 119.578125 " fill-opacity="1" fill-rule="evenodd"/><path fill="#000000" d="M 34.085938 50.460938 C 34.144531 50.441406 34.667969 50.273438 34.859375 50.167969 C 35.085938 50.042969 35.207031 49.878906 35.261719 49.757812 C 35.339844 49.597656 35.347656 49.4375 35.304688 49.28125 C 35.261719 49.148438 35.179688 48.960938 34.929688 48.832031 C 34.878906 48.804688 34.765625 48.757812 34.621094 48.734375 C 34.414062 48.695312 34.007812 48.667969 33.984375 48.667969 C 33.21875 48.636719 32.457031 48.691406 31.703125 48.796875 C 29.089844 49.152344 26.496094 50.085938 24.332031 51.558594 C 22.226562 52.988281 20.5 54.910156 19.652344 57.28125 C 19.4375 57.898438 19.257812 58.539062 19.1875 59.1875 C 19.167969 59.328125 19.175781 59.496094 19.175781 59.667969 C 19.167969 59.722656 19.164062 59.796875 19.15625 59.859375 C 19.085938 59.875 18.980469 59.902344 18.90625 59.914062 C 18.738281 59.941406 18.585938 59.96875 18.464844 60 C 17.664062 60.222656 16.910156 60.597656 16.238281 61.078125 C 14.019531 62.671875 12.683594 65.304688 12.222656 67.902344 C 12.140625 68.078125 12.136719 68.273438 12.246094 68.496094 C 12.265625 68.53125 12.335938 68.742188 12.683594 68.855469 C 12.742188 68.875 12.800781 68.886719 12.863281 68.890625 L 12.933594 68.90625 C 13.085938 68.953125 13.234375 69 13.386719 69.042969 C 13.890625 69.191406 14.394531 69.328125 14.90625 69.46875 C 15.777344 69.710938 16.65625 69.949219 17.539062 70.179688 L 17.265625 70.277344 C 15.707031 70.851562 14.214844 71.527344 12.703125 72.203125 C 12.355469 72.359375 12.191406 72.753906 12.332031 73.101562 C 13.589844 76.242188 15.558594 79.292969 18.730469 80.949219 C 18.996094 81.089844 19.496094 81.371094 19.707031 81.539062 C 20.691406 82.316406 21.257812 83.351562 21.734375 84.472656 C 22.203125 85.558594 22.636719 86.667969 23.335938 87.636719 C 24.886719 89.78125 27.535156 91.242188 30.179688 91.644531 C 31.023438 91.773438 31.882812 91.796875 32.734375 91.746094 C 32.878906 91.734375 33.085938 91.742188 33.277344 91.71875 C 33.511719 91.691406 33.726562 91.625 33.890625 91.523438 C 34.230469 91.316406 34.300781 91.042969 34.265625 90.773438 C 34.25 90.644531 34.199219 90.496094 34.089844 90.359375 C 33.964844 90.203125 33.691406 90.023438 33.625 89.984375 C 33.179688 89.71875 32.71875 89.480469 32.265625 89.226562 C 31.234375 88.636719 30.234375 87.992188 29.460938 87.089844 C 28.492188 85.957031 28.019531 84.621094 27.980469 83.152344 C 27.964844 82.394531 28.050781 81.578125 28.042969 80.777344 C 28.03125 79.847656 27.875 78.941406 27.375 78.140625 C 26.496094 76.75 24.8125 75.984375 23.296875 75.453125 C 23.207031 75.417969 23.011719 75.367188 22.808594 75.296875 C 23.011719 75.117188 23.273438 74.972656 23.476562 74.832031 C 24.277344 74.296875 25.121094 73.824219 25.976562 73.378906 C 26.722656 72.984375 27.476562 72.609375 28.25 72.277344 C 29.25 71.847656 30.28125 71.496094 31.308594 71.148438 C 31.429688 71.109375 31.8125 70.925781 31.972656 70.847656 C 32.003906 70.867188 32.035156 70.894531 32.070312 70.914062 C 32.21875 71.015625 32.355469 71.132812 32.476562 71.222656 C 33.042969 71.632812 33.589844 72.074219 34.128906 72.515625 C 34.660156 72.949219 35.1875 73.382812 35.71875 73.816406 C 36.390625 74.367188 37.050781 74.929688 37.699219 75.503906 C 37.859375 75.648438 38.050781 75.859375 38.257812 76.019531 C 38.484375 76.199219 38.734375 76.328125 38.988281 76.375 C 39.230469 76.421875 39.472656 76.390625 39.707031 76.296875 C 39.882812 76.226562 40.046875 76.113281 40.191406 76.03125 C 40.636719 75.785156 41.082031 75.542969 41.523438 75.285156 C 43.289062 74.253906 46.375 72.238281 47.992188 70.988281 C 48.195312 70.832031 48.289062 70.621094 48.269531 70.359375 C 48.257812 70.257812 48.21875 70.101562 48.089844 69.949219 C 48.015625 69.859375 47.847656 69.730469 47.835938 69.722656 C 47.582031 69.527344 47.308594 69.34375 47.039062 69.167969 C 46.460938 68.789062 45.878906 68.414062 45.289062 68.050781 C 43.632812 67.027344 41.246094 65.546875 39.589844 64.46875 C 39.503906 64.390625 39.367188 64.308594 39.140625 64.292969 C 38.96875 64.28125 38.800781 64.332031 38.664062 64.429688 C 38.644531 64.4375 38.628906 64.445312 38.617188 64.453125 C 38.550781 64.496094 38.484375 64.535156 38.417969 64.578125 C 38.230469 64.699219 38.046875 64.820312 37.859375 64.945312 C 37.355469 65.285156 36.847656 65.617188 36.339844 65.957031 C 34.921875 66.925781 33.449219 67.863281 32.082031 68.902344 C 31.320312 68.363281 30.4375 67.921875 29.652344 67.445312 C 28.113281 66.503906 26.570312 65.570312 25.027344 64.640625 C 25.574219 64.308594 26.097656 63.917969 26.5 63.4375 C 27.074219 62.769531 27.332031 61.878906 27.644531 61.082031 C 28.167969 59.71875 28.59375 58.320312 29.128906 56.960938 C 29.886719 55.054688 30.898438 53.113281 32.40625 51.660156 C 32.902344 51.183594 33.460938 50.769531 34.085938 50.460938 Z M 31.886719 50.199219 C 29.503906 50.53125 27.144531 51.378906 25.171875 52.71875 C 23.316406 53.976562 21.78125 55.65625 21.035156 57.746094 C 20.847656 58.261719 20.699219 58.792969 20.640625 59.335938 C 20.617188 59.511719 20.640625 59.742188 20.625 59.957031 C 20.601562 60.21875 20.535156 60.460938 20.410156 60.65625 C 20.28125 60.867188 20.074219 61.035156 19.804688 61.144531 C 19.507812 61.265625 19.097656 61.296875 18.863281 61.359375 C 18.230469 61.535156 17.640625 61.835938 17.109375 62.21875 C 15.324219 63.5 14.222656 65.578125 13.757812 67.671875 L 13.8125 67.6875 C 14.308594 67.835938 14.808594 67.96875 15.304688 68.105469 C 16.460938 68.429688 17.617188 68.742188 18.785156 69.03125 C 18.953125 69.074219 19.4375 69.125 19.769531 69.222656 C 20.097656 69.320312 20.328125 69.492188 20.4375 69.640625 C 20.558594 69.800781 20.601562 69.984375 20.5625 70.191406 C 20.539062 70.296875 20.484375 70.46875 20.292969 70.621094 C 20.167969 70.71875 19.40625 71.011719 19.351562 71.03125 C 18.828125 71.21875 18.304688 71.410156 17.78125 71.601562 C 16.480469 72.082031 15.214844 72.636719 13.949219 73.207031 C 15.085938 75.820312 16.765625 78.316406 19.425781 79.703125 C 19.753906 79.875 20.371094 80.234375 20.632812 80.441406 C 21.808594 81.371094 22.511719 82.589844 23.085938 83.929688 C 23.507812 84.921875 23.890625 85.9375 24.53125 86.824219 C 25.863281 88.660156 28.140625 89.898438 30.40625 90.246094 C 30.714844 90.292969 31.03125 90.324219 31.339844 90.339844 C 30.226562 89.695312 29.171875 88.96875 28.335938 87.996094 C 27.152344 86.613281 26.566406 84.980469 26.523438 83.1875 C 26.5 82.425781 26.59375 81.601562 26.582031 80.796875 C 26.570312 80.121094 26.492188 79.460938 26.125 78.878906 C 25.417969 77.761719 24.015625 77.210938 22.800781 76.78125 C 22.566406 76.699219 21.820312 76.488281 21.488281 76.1875 C 21.125 75.855469 21.007812 75.453125 21.238281 74.992188 C 21.523438 74.4375 22.144531 74.003906 22.648438 73.667969 C 23.492188 73.105469 24.382812 72.605469 25.28125 72.132812 C 26.058594 71.722656 26.847656 71.332031 27.65625 70.984375 C 28.691406 70.539062 29.757812 70.175781 30.828125 69.8125 C 30.839844 69.808594 30.847656 69.804688 30.863281 69.800781 C 30.21875 69.382812 29.511719 69.027344 28.875 68.640625 C 26.980469 67.480469 25.074219 66.332031 23.164062 65.1875 C 22.960938 65.0625 22.832031 64.847656 22.820312 64.609375 C 22.8125 64.375 22.921875 64.148438 23.125 64.011719 C 23.308594 63.878906 23.609375 63.804688 23.824219 63.691406 C 24.382812 63.382812 24.960938 63.023438 25.375 62.539062 C 25.839844 61.988281 26.023438 61.242188 26.273438 60.585938 C 26.800781 59.21875 27.226562 57.8125 27.769531 56.449219 C 28.597656 54.363281 29.722656 52.25 31.371094 50.660156 C 31.535156 50.5 31.707031 50.347656 31.886719 50.199219 Z M 39.089844 65.847656 C 38.957031 65.933594 38.824219 66.023438 38.691406 66.113281 C 38.183594 66.445312 37.679688 66.777344 37.183594 67.117188 C 35.828125 68.039062 34.425781 68.929688 33.117188 69.914062 C 33.203125 69.976562 33.28125 70.035156 33.351562 70.089844 C 33.941406 70.519531 34.503906 70.976562 35.066406 71.433594 C 35.601562 71.867188 36.132812 72.300781 36.664062 72.738281 C 37.347656 73.300781 38.019531 73.875 38.683594 74.460938 C 38.792969 74.554688 38.90625 74.675781 39.035156 74.796875 C 39.09375 74.851562 39.140625 74.917969 39.199219 74.957031 C 39.273438 74.914062 39.398438 74.839844 39.46875 74.800781 C 39.898438 74.5625 40.339844 74.324219 40.765625 74.074219 C 42.253906 73.203125 44.695312 71.625 46.351562 70.425781 L 46.21875 70.339844 C 45.652344 69.96875 45.082031 69.601562 44.5 69.242188 C 42.941406 68.277344 40.726562 66.90625 39.089844 65.847656 Z M 39.089844 65.847656 " fill-opacity="1" fill-rule="evenodd"/><path fill="#000000" d="M 0.382812 70.902344 L 12.246094 68.496094 L 19.390625 70.214844 L 13.199219 73.136719 Z M 0.382812 70.902344 " fill-opacity="1" fill-rule="evenodd"/><path fill="#000000" d="M 195.066406 17.714844 C 195.066406 17.714844 195.023438 17.628906 195.023438 17.628906 C 194.992188 17.5625 194.960938 17.496094 194.925781 17.433594 C 194.828125 17.246094 194.722656 17.066406 194.625 16.878906 C 194.347656 16.359375 193.808594 15.621094 193.929688 15.019531 C 194.085938 14.230469 194.566406 13.421875 194.917969 12.695312 C 195.554688 11.390625 196.214844 10.085938 196.78125 8.753906 C 196.765625 8.808594 197.351562 9.683594 197.398438 9.777344 C 197.960938 10.894531 198.445312 12.042969 198.941406 13.1875 C 199.933594 15.464844 200.761719 17.792969 201.644531 20.101562 C 202.34375 21.929688 203.144531 23.726562 203.714844 25.59375 C 204.003906 26.550781 204.191406 27.527344 204.144531 28.523438 C 204.136719 28.71875 204.164062 29.324219 203.863281 29.386719 C 203.457031 29.46875 202.945312 28.601562 202.757812 28.378906 C 201.839844 27.300781 201.003906 26.179688 200.03125 25.140625 C 199.953125 25.382812 200.179688 25.910156 200.21875 26.152344 C 200.339844 26.992188 200.421875 27.839844 200.519531 28.679688 C 200.847656 31.585938 201.09375 34.492188 201.332031 37.402344 C 201.941406 44.765625 202.722656 52.140625 203.632812 59.480469 C 204.070312 63.027344 204.726562 66.550781 205.070312 70.105469 C 204.996094 70.132812 205.0625 70.519531 205.066406 70.558594 C 205.089844 71.105469 205.117188 71.65625 205.140625 72.207031 C 205.238281 74.382812 205.421875 76.554688 205.539062 78.730469 C 205.894531 85.527344 207.136719 92.863281 204.441406 99.40625 C 203.886719 100.75 203.210938 102.0625 202.542969 103.363281 C 202.34375 103.757812 202.113281 104.503906 201.664062 104.734375 C 201.285156 104.929688 201.300781 103.523438 201.296875 103.414062 C 201.253906 101.871094 201.246094 100.328125 201.222656 98.785156 C 201.164062 95.046875 201.042969 91.304688 200.949219 87.566406 C 200.847656 83.433594 200.605469 79.316406 200.289062 75.191406 C 200.398438 75.367188 200.238281 74.789062 200.214844 74.585938 C 200.164062 74.152344 200.121094 73.710938 200.078125 73.273438 C 199.929688 71.871094 199.769531 70.464844 199.625 69.058594 C 199.214844 65.097656 198.796875 61.136719 198.378906 57.175781 C 197.09375 44.984375 195.441406 29.871094 195.066406 17.714844 Z M 195.066406 17.714844 " fill-opacity="1" fill-rule="evenodd"/><path fill="#000000" d="M 154.230469 8.96875 C 154.234375 8.96875 154.191406 8.886719 154.1875 8.882812 C 154.15625 8.816406 154.125 8.753906 154.089844 8.6875 C 153.992188 8.503906 153.886719 8.320312 153.789062 8.132812 C 153.515625 7.613281 152.972656 6.875 153.09375 6.273438 C 153.25 5.484375 153.730469 4.675781 154.082031 3.953125 C 154.71875 2.644531 155.378906 1.339844 155.949219 0.0078125 C 155.929688 0.0625 156.519531 0.9375 156.566406 1.03125 C 157.125 2.152344 157.609375 3.300781 158.105469 4.445312 C 159.097656 6.71875 159.925781 9.046875 160.8125 11.355469 C 161.507812 13.183594 162.308594 14.984375 162.878906 16.847656 C 163.167969 17.808594 163.355469 18.78125 163.308594 19.777344 C 163.300781 19.976562 163.328125 20.582031 163.027344 20.640625 C 162.621094 20.722656 162.109375 19.855469 161.921875 19.632812 C 161.003906 18.558594 160.167969 17.433594 159.195312 16.394531 C 159.117188 16.636719 159.347656 17.164062 159.382812 17.40625 C 159.507812 18.246094 159.585938 19.09375 159.683594 19.9375 C 160.011719 22.839844 160.257812 25.746094 160.5 28.65625 C 161.105469 36.023438 161.886719 43.394531 162.796875 50.734375 C 163.234375 54.28125 163.890625 57.804688 164.238281 61.359375 C 164.160156 61.386719 164.226562 61.773438 164.230469 61.8125 C 164.253906 62.359375 164.28125 62.910156 164.304688 63.460938 C 164.402344 65.636719 164.585938 67.808594 164.703125 69.984375 C 165.058594 76.78125 166.300781 84.117188 163.605469 90.660156 C 163.050781 92.007812 162.375 93.320312 161.707031 94.621094 C 161.507812 95.011719 161.277344 95.757812 160.828125 95.988281 C 160.449219 96.183594 160.464844 94.78125 160.460938 94.667969 C 160.417969 93.125 160.410156 91.582031 160.386719 90.039062 C 160.328125 86.300781 160.207031 82.5625 160.113281 78.820312 C 160.011719 74.6875 159.769531 70.570312 159.453125 66.445312 C 159.5625 66.621094 159.402344 66.042969 159.378906 65.84375 C 159.328125 65.40625 159.285156 64.96875 159.242188 64.53125 C 159.09375 63.125 158.9375 61.71875 158.789062 60.316406 C 158.378906 56.355469 157.960938 52.394531 157.542969 48.433594 C 156.257812 36.238281 154.605469 21.128906 154.230469 8.96875 Z M 154.230469 8.96875 " fill-opacity="1" fill-rule="evenodd"/><path fill="#000000" d="M 186.035156 39.117188 C 186 39.078125 185.988281 39.0625 186.035156 39.089844 L 186.035156 39.117188 C 186.109375 39.199219 186.289062 39.371094 186.355469 39.445312 C 186.601562 39.699219 186.832031 39.949219 187.089844 40.175781 C 187.773438 40.765625 189.414062 42.089844 189.570312 40.371094 C 189.945312 36.257812 186.722656 30.75 184.992188 27.171875 C 184.660156 26.484375 183.726562 23.59375 182.875 23.332031 C 181.992188 23.058594 180.75 25.25 180.390625 25.769531 C 178.039062 29.148438 178.265625 29.851562 180.59375 33.007812 C 181.527344 34.277344 181.050781 36.429688 181.28125 37.972656 C 181.792969 41.394531 182.296875 44.8125 182.738281 48.246094 C 184.09375 58.644531 185.46875 69.03125 186.988281 79.414062 C 188.003906 86.394531 189.496094 93.507812 189.25 100.601562 C 189.222656 100.488281 189.148438 100.8125 189.09375 100.929688 C 188.984375 101.167969 188.890625 101.414062 188.761719 101.644531 C 188.386719 102.3125 187.800781 102.871094 187.234375 103.375 C 185.804688 104.632812 182.523438 106.152344 180.503906 105.621094 C 180.082031 105.511719 179.832031 104.90625 179.640625 104.566406 C 179.054688 103.539062 178.488281 102.496094 177.851562 101.5 C 175.683594 98.125 172.511719 93.746094 167.953125 95.707031 C 167.101562 96.074219 166.339844 96.605469 165.625 97.183594 C 164.527344 98.082031 163.582031 99.171875 162.785156 100.335938 C 161.648438 102.019531 160.78125 103.917969 160.414062 105.914062 C 160.222656 106.9375 160.191406 108 160.339844 109.019531 C 160.476562 109.945312 160.722656 110.871094 161.136719 111.710938 C 163.277344 116.074219 169.964844 114.5625 173.734375 113.882812 C 175.105469 113.636719 176.46875 113.363281 177.816406 113.050781 C 178.019531 113.003906 178.878906 112.644531 179.074219 112.792969 C 179.320312 112.984375 179.328125 113.699219 179.375 113.976562 C 179.578125 115.230469 179.648438 116.496094 179.585938 117.769531 C 179.585938 117.820312 178.164062 119.257812 178.046875 119.378906 C 176.179688 121.339844 174.246094 123.265625 172.183594 125.003906 C 165.09375 130.957031 154.851562 138.367188 144.941406 136.269531 C 137.839844 134.761719 136.570312 127.667969 136.503906 121.378906 C 136.484375 119.324219 136.757812 117.300781 137.097656 115.277344 C 137.136719 115.039062 137.75 112.363281 137.402344 112.390625 C 136.972656 112.425781 136.621094 113.25 136.457031 113.550781 C 135.667969 115.035156 135.066406 116.613281 134.625 118.242188 C 132.929688 124.539062 133.398438 131.792969 137.0625 137.351562 C 138.085938 138.902344 139.40625 140.292969 140.953125 141.328125 C 151.105469 148.105469 162.402344 140.226562 169.957031 133.378906 C 171.449219 132.023438 172.925781 130.648438 174.335938 129.210938 C 176.414062 127.101562 178.460938 124.921875 180.089844 122.429688 C 181.410156 120.40625 182.019531 118.464844 182.179688 116.054688 C 182.25 115.082031 181.96875 112.574219 182.5625 111.75 C 182.820312 111.382812 183.816406 111.253906 184.21875 111.097656 C 185.394531 110.613281 186.539062 110.042969 187.628906 109.382812 C 190.089844 107.882812 191.734375 106.011719 192.941406 103.476562 C 193.664062 101.964844 194.03125 97.632812 194.066406 96.003906 C 194.152344 91.761719 188.542969 53.691406 186.035156 39.117188 Z M 165.550781 107.683594 C 165.980469 107.601562 166.640625 107.789062 167.097656 107.800781 C 168.613281 107.828125 170.179688 107.800781 171.691406 107.589844 C 172.285156 107.507812 173.035156 107.445312 173.539062 107.078125 C 174.015625 106.738281 173.613281 106.003906 173.390625 105.546875 C 172.542969 103.859375 172.183594 103.75 171.09375 103.039062 C 168.691406 101.496094 166.382812 104.253906 165.550781 107.683594 Z M 165.550781 107.683594 " fill-opacity="1" fill-rule="evenodd"/><path fill="#000000" d="M 150.996094 96.644531 C 151.179688 96.496094 149.613281 94.171875 148.382812 93.683594 C 143.953125 91.917969 139.015625 95.828125 134.84375 92.605469 C 129.550781 88.527344 133.464844 79.597656 137.988281 76.609375 C 142.019531 73.941406 146.003906 76.050781 148.550781 79.59375 C 152.167969 84.617188 154.640625 91.367188 152.902344 97.597656 C 152.902344 97.59375 152.578125 98.082031 152.554688 98.109375 C 152.324219 98.464844 152.09375 98.824219 151.847656 99.171875 C 151.179688 100.144531 150.445312 101.078125 149.648438 101.949219 C 147.265625 104.546875 144.234375 106.226562 140.925781 107.378906 C 130.523438 111 117.210938 109.035156 109.507812 100.546875 C 109.496094 100.535156 107.613281 101.917969 107.464844 102.027344 C 106.230469 102.90625 104.957031 103.726562 103.664062 104.503906 C 99.082031 107.257812 94.675781 109.25 89.242188 108.320312 C 83.207031 107.289062 78.132812 104.117188 75.816406 98.3125 C 74.84375 95.863281 74.402344 93.199219 73.902344 90.625 C 73.875 90.480469 73.597656 88.371094 73.5 88.355469 C 73.289062 88.335938 72.71875 89.175781 72.609375 89.3125 C 71.75 90.359375 70.933594 91.4375 70.015625 92.429688 C 67.472656 95.1875 64.128906 97.277344 60.269531 97.230469 C 59.601562 97.222656 58.953125 97.136719 58.316406 96.9375 C 54.171875 95.664062 55.25 91.59375 56.515625 88.363281 C 58.980469 82.09375 64.804688 77.148438 70.503906 73.832031 C 70.375 73.128906 70.238281 72.242188 70.097656 71.304688 C 69.675781 68.546875 69.625 64.863281 70.117188 64.628906 C 70.566406 64.417969 70.871094 65.222656 70.976562 65.515625 C 71.402344 66.699219 71.675781 67.941406 71.949219 69.164062 C 71.988281 69.34375 72.078125 70.398438 72.359375 70.351562 C 72.921875 70.261719 73.5625 69.574219 73.984375 69.242188 C 75.082031 68.382812 76.164062 67.503906 77.320312 66.734375 C 77.554688 66.578125 79.050781 65.535156 79.339844 66 C 79.652344 66.503906 78.453125 67.703125 78.199219 68.027344 C 77.199219 69.300781 76.101562 70.492188 75.007812 71.6875 C 74.550781 72.183594 73.753906 72.796875 73.664062 73.519531 C 73.359375 76.039062 74.550781 79.402344 75.074219 81.828125 C 76.878906 90.214844 80.03125 99.675781 89.65625 101.324219 C 93.878906 102.046875 98.453125 100.9375 102.179688 98.941406 C 103.148438 98.429688 106.523438 96.980469 105.402344 95.453125 C 103.261719 92.550781 99.0625 91.605469 95.695312 91.488281 C 94.53125 91.441406 93.375 91.550781 92.203125 91.578125 C 91.972656 91.585938 91.222656 91.667969 91.113281 91.347656 C 90.992188 91.011719 91.460938 90.414062 91.628906 90.164062 C 92.324219 89.101562 93.117188 88.070312 93.953125 87.109375 C 94.789062 86.15625 95.667969 85.171875 96.8125 84.578125 C 99.128906 83.378906 101.929688 83.011719 104.476562 82.738281 C 110.394531 82.105469 116.175781 82.582031 121.839844 84.40625 C 123.777344 85.027344 125.628906 85.816406 127.417969 86.777344 C 128.175781 87.171875 129.074219 87.566406 128.945312 88.570312 C 128.78125 89.78125 127.664062 93.003906 126.59375 93.738281 C 125.796875 94.289062 124.546875 94.472656 123.632812 94.765625 C 121.316406 95.515625 118.777344 96.203125 116.898438 97.832031 C 116.800781 97.753906 117.035156 98.042969 117.109375 98.136719 C 117.304688 98.363281 117.539062 98.566406 117.769531 98.761719 C 118.457031 99.363281 119.246094 99.867188 120.023438 100.34375 C 122.324219 101.761719 124.605469 102.746094 127.28125 103.222656 C 135.265625 104.660156 145.617188 103.320312 150.996094 96.644531 Z M 107.5 89.875 C 107.859375 89.398438 109.023438 89.3125 109.554688 89.234375 C 111.742188 88.9375 113.976562 89.09375 116.121094 89.582031 C 116.773438 89.734375 117.433594 89.910156 118.046875 90.183594 C 118.15625 90.230469 118.558594 90.351562 118.574219 90.503906 C 118.585938 90.699219 118.210938 90.917969 118.089844 91.011719 C 117.433594 91.503906 116.761719 91.953125 116.09375 92.417969 C 115.304688 92.96875 114.507812 93.527344 113.695312 94.042969 C 113.492188 94.171875 113.082031 94.527344 112.824219 94.519531 C 112.390625 94.515625 111.777344 93.792969 111.484375 93.535156 C 110.34375 92.550781 108.609375 90.882812 107.5 89.875 Z M 70.878906 76.855469 C 68.925781 78.503906 66.390625 80.601562 64.464844 82.296875 C 63.375 83.25 62.292969 84.214844 61.261719 85.25 C 61.039062 85.46875 60.855469 85.660156 60.636719 85.890625 C 59.636719 86.941406 57.558594 89.078125 59.136719 90.535156 C 59.316406 90.699219 59.511719 90.835938 59.722656 90.9375 C 60.042969 91.101562 60.378906 91.203125 60.730469 91.230469 C 61.175781 91.273438 61.625 91.238281 62.054688 91.15625 C 64.675781 90.6875 67.058594 89.03125 69.183594 87.457031 C 69.988281 86.859375 71.125 86.191406 71.648438 85.285156 C 72.011719 84.667969 71.96875 83.882812 71.90625 83.1875 C 71.777344 81.683594 71.207031 78.324219 70.878906 76.855469 Z M 145.121094 87.097656 C 145.078125 87.023438 144.757812 87.042969 144.695312 87.042969 C 144.191406 87.050781 143.683594 87.136719 143.183594 87.199219 C 142.75 87.261719 142.3125 87.320312 141.882812 87.382812 C 141.5625 87.4375 141.238281 87.484375 140.917969 87.539062 C 139.582031 87.75 136.972656 88.070312 136.933594 86.042969 C 136.898438 84.039062 139.148438 82.058594 141.128906 82.609375 C 142.660156 83.039062 144.773438 85.386719 145.121094 87.097656 Z M 145.121094 87.097656 " fill-opacity="1" fill-rule="evenodd"/><path fill="#000000" d="M 109.351562 111.933594 C 109.316406 111.914062 109.410156 111.886719 109.4375 111.859375 C 109.488281 111.808594 109.539062 111.753906 109.585938 111.699219 C 109.730469 111.527344 109.855469 111.34375 109.957031 111.148438 C 110.273438 110.550781 110.390625 109.933594 110.421875 109.273438 C 110.421875 109.273438 110.421875 109.242188 110.421875 109.242188 C 110.421875 109.203125 110.421875 109.160156 110.421875 109.121094 C 110.414062 108.96875 110.398438 108.816406 110.378906 108.667969 C 110.3125 108.226562 110.15625 107.707031 109.738281 107.429688 C 109.679688 107.394531 109.570312 107.359375 109.507812 107.34375 C 109.289062 107.285156 109.074219 107.265625 108.847656 107.28125 C 107.953125 107.347656 107.210938 107.871094 106.554688 108.382812 C 106.554688 108.441406 106.386719 108.566406 106.347656 108.605469 C 106.125 108.835938 105.894531 109.066406 105.679688 109.304688 C 104.976562 110.078125 104.363281 110.9375 103.894531 111.847656 C 103.910156 111.851562 103.871094 111.871094 103.867188 111.882812 C 103.847656 111.914062 103.832031 111.945312 103.8125 111.976562 C 103.761719 112.078125 103.710938 112.1875 103.667969 112.292969 C 103.539062 112.59375 103.449219 112.90625 103.40625 113.226562 C 103.289062 114.101562 103.695312 114.96875 104.257812 115.660156 C 104.265625 115.660156 104.332031 115.75 104.335938 115.757812 C 104.433594 115.871094 104.535156 115.976562 104.636719 116.085938 C 105.039062 116.503906 105.5 116.871094 105.960938 117.230469 C 105.878906 117.421875 105.539062 117.652344 105.394531 117.808594 C 104.980469 118.261719 104.582031 118.734375 104.226562 119.226562 C 102.945312 121.023438 102 123.09375 101.636719 125.210938 C 101.484375 126.09375 101.375 127.125 101.808594 127.960938 C 102.023438 128.371094 102.367188 128.710938 102.734375 129.015625 C 103.65625 129.785156 105.125 129.832031 106.359375 129.851562 C 109.175781 129.898438 111.902344 128.886719 114.078125 127.3125 C 114.671875 126.882812 115.148438 126.371094 115.644531 125.851562 C 115.996094 125.480469 116.378906 125.121094 116.683594 124.714844 C 116.847656 124.496094 117.023438 124.261719 117.117188 124.011719 C 117.148438 123.933594 117.199219 123.808594 117.125 123.738281 C 117.0625 123.679688 116.945312 123.691406 116.863281 123.699219 C 116.613281 123.722656 116.363281 123.796875 116.125 123.875 C 115.140625 124.195312 114.234375 124.675781 113.269531 125.035156 C 112.691406 125.25 112.097656 125.429688 111.5 125.597656 C 109.121094 126.269531 106.019531 126.796875 103.863281 125.296875 C 103.875 125.304688 103.828125 125.25 103.824219 125.242188 C 103.796875 125.203125 103.773438 125.160156 103.753906 125.121094 C 103.675781 124.984375 103.621094 124.839844 103.574219 124.695312 C 103.421875 124.273438 103.511719 123.804688 103.667969 123.390625 C 104.15625 122.117188 105.175781 121.003906 106.15625 120.011719 C 107.328125 118.828125 108.550781 117.628906 109.929688 116.636719 C 110.515625 116.210938 111.136719 115.824219 111.765625 115.457031 C 112.234375 115.1875 112.804688 114.914062 113.082031 114.457031 C 113.355469 114.007812 113.367188 113.460938 113.386719 112.957031 C 113.398438 112.628906 113.441406 112.195312 113.273438 111.890625 C 113.261719 111.871094 113.128906 111.878906 113.117188 111.878906 C 112.9375 111.894531 112.765625 111.9375 112.605469 112.019531 C 112.328125 112.167969 112.109375 112.371094 111.875 112.566406 C 111.550781 112.84375 111.226562 113.121094 110.890625 113.382812 C 110.550781 113.648438 110.191406 113.929688 109.765625 114.066406 C 109.382812 114.183594 108.972656 114.1875 108.574219 114.164062 C 107.832031 114.117188 106.992188 113.980469 106.363281 113.589844 C 105.8125 113.246094 105.460938 112.398438 105.777344 111.820312 C 105.988281 111.441406 106.425781 111.148438 106.808594 110.917969 C 107.117188 110.734375 107.503906 110.5 107.894531 110.515625 C 108.46875 110.539062 108.753906 111.121094 108.972656 111.519531 C 109.039062 111.640625 109.242188 111.839844 109.351562 111.933594 Z M 109.351562 111.933594 " fill-opacity="1" fill-rule="evenodd"/><path fill="#000000" d="M 73.457031 25.914062 C 72.679688 26.472656 72.144531 27.363281 71.644531 28.199219 C 70.773438 29.660156 70.027344 31.1875 69.292969 32.71875 C 68.324219 34.730469 67.40625 36.785156 66.660156 38.890625 C 66.242188 40.058594 65.800781 41.289062 65.714844 42.539062 C 65.585938 44.367188 66.1875 46.488281 67.539062 47.757812 C 69.195312 49.3125 72.117188 49.675781 74.175781 48.828125 C 78.027344 47.234375 80.082031 42.21875 79.007812 38.222656 C 78.402344 35.976562 76.714844 34.242188 74.96875 32.835938 C 74.332031 32.320312 73.679688 31.828125 73.007812 31.367188 C 72.816406 31.238281 72.339844 31.003906 72.257812 30.761719 C 72.136719 30.394531 72.585938 29.761719 72.738281 29.464844 C 73.179688 28.597656 74.421875 26.28125 73.457031 25.914062 Z M 70.042969 35.59375 C 69.976562 35.578125 69.59375 36.210938 69.574219 36.25 C 69.316406 36.757812 69.070312 37.269531 68.886719 37.808594 C 68.308594 39.511719 67.898438 41.835938 69.746094 42.914062 C 71.335938 43.84375 73.355469 43.539062 74.992188 42.914062 C 75.476562 42.726562 76.660156 42.316406 76.511719 41.601562 C 76.355469 40.875 75.703125 40.210938 75.230469 39.679688 C 73.871094 38.144531 71.761719 36.683594 70.042969 35.59375 Z M 70.042969 35.59375 " fill-opacity="1" fill-rule="evenodd"/></svg>