<svg xmlns="http://www.w3.org/2000/svg" xmlns:xlink="http://www.w3.org/1999/xlink" width="500" zoomAndPan="magnify" viewBox="0 0 375 157.92" height="200" preserveAspectRatio="xMidYMid meet" version="1.0"><defs><clipPath id="2d2a893db8"><path d="M 355 73 L 374.902344 73 L 374.902344 80 L 355 80 Z M 355 73 " clip-rule="nonzero"/></clipPath><clipPath id="7963d1f434"><path d="M 0.09375 78 L 20 78 L 20 85 L 0.09375 85 Z M 0.09375 78 " clip-rule="nonzero"/></clipPath><clipPath id="4761b98313"><path d="M 67 11.710938 L 211 11.710938 L 211 130 L 67 130 Z M 67 11.710938 " clip-rule="nonzero"/></clipPath></defs><path fill="#000000" d="M 340.113281 65.636719 C 340.28125 64.816406 339.832031 63.726562 339.628906 62.949219 C 338.996094 60.5 338.046875 58.144531 337.050781 55.8125 C 334.453125 49.726562 330.695312 44.253906 326.257812 39.273438 C 323.152344 35.785156 319.660156 32.414062 315.519531 30.058594 C 311.625 27.84375 307.257812 26.347656 302.910156 25.179688 C 301.53125 24.808594 300.15625 24.472656 298.746094 24.226562 C 298.144531 24.121094 297.539062 23.96875 296.929688 23.917969 C 296.914062 23.914062 296.4375 23.910156 296.449219 23.945312 C 296.691406 24.539062 298.648438 25.429688 299.15625 25.792969 C 301.476562 27.460938 303.667969 29.289062 305.703125 31.277344 C 311.628906 37.085938 316.75 43.824219 320.84375 50.953125 C 322.820312 54.386719 324.542969 57.996094 325.890625 61.707031 C 326.316406 62.878906 326.691406 64.066406 327.007812 65.269531 C 327.144531 65.777344 327.148438 66.632812 327.464844 67.070312 C 328.027344 67.859375 329.269531 68.3125 330.117188 68.726562 C 331.5 69.398438 334.140625 71.007812 334.140625 71.007812 C 334.140625 71.007812 335.597656 70.085938 336.179688 69.667969 C 337.453125 68.746094 339.226562 66.933594 340.113281 65.636719 Z M 340.113281 65.636719 " fill-opacity="1" fill-rule="evenodd"/><path fill="#000000" d="M 340.113281 87.027344 C 340.28125 87.847656 339.832031 88.9375 339.628906 89.71875 C 338.996094 92.164062 338.046875 94.519531 337.050781 96.851562 C 334.453125 102.9375 330.695312 108.410156 326.257812 113.390625 C 323.152344 116.878906 319.660156 120.25 315.519531 122.605469 C 311.625 124.820312 307.257812 126.316406 302.910156 127.488281 C 301.53125 127.855469 300.15625 128.191406 298.746094 128.4375 C 298.144531 128.542969 297.539062 128.695312 296.929688 128.746094 C 296.914062 128.75 296.4375 128.753906 296.449219 128.71875 C 296.691406 128.125 298.648438 127.234375 299.15625 126.871094 C 301.476562 125.203125 303.667969 123.375 305.703125 121.386719 C 311.628906 115.578125 316.75 108.839844 320.84375 101.710938 C 322.820312 98.277344 324.542969 94.667969 325.890625 90.957031 C 326.316406 89.785156 326.691406 88.597656 327.007812 87.394531 C 327.144531 86.886719 327.148438 86.035156 327.464844 85.597656 C 328.027344 84.804688 329.269531 84.351562 330.117188 83.9375 C 331.5 83.265625 334.140625 81.65625 334.140625 81.65625 C 334.140625 81.65625 335.597656 82.578125 336.179688 82.996094 C 337.453125 83.917969 339.226562 85.730469 340.113281 87.027344 Z M 340.113281 87.027344 " fill-opacity="1" fill-rule="evenodd"/><path fill="#000000" d="M 349.933594 69.871094 L 349.878906 69.851562 C 349.613281 69.746094 349.371094 69.660156 349.292969 69.609375 C 348.160156 68.964844 347.265625 68.0625 346.578125 66.992188 C 345.746094 65.703125 345.351562 64.25 344.8125 62.839844 C 344.21875 61.296875 343.453125 59.769531 342.390625 58.472656 C 341.65625 57.582031 340.808594 56.753906 339.890625 56.042969 C 339.589844 55.816406 339.285156 55.597656 338.964844 55.390625 C 338.941406 55.378906 338.628906 55.183594 338.46875 55.0625 C 338.378906 54.992188 338.320312 54.925781 338.285156 54.886719 C 338.175781 54.738281 338.175781 54.597656 338.1875 54.511719 C 338.207031 54.382812 338.261719 54.273438 338.359375 54.1875 C 338.496094 54.066406 338.773438 53.964844 339.125 53.949219 C 339.601562 53.925781 340.269531 54.019531 340.480469 54.03125 C 342.65625 54.117188 344.769531 54.800781 346.703125 55.726562 C 349.335938 56.992188 351.429688 58.976562 352.855469 61.445312 C 353.222656 62.066406 353.496094 62.785156 353.808594 63.476562 C 354.089844 64.097656 354.398438 64.699219 354.867188 65.171875 C 355.265625 65.578125 355.785156 65.820312 356.324219 66.042969 C 356.949219 66.300781 357.601562 66.527344 358.167969 66.871094 C 359.828125 67.867188 360.9375 69.621094 361.726562 71.300781 C 362.023438 71.945312 362.40625 72.714844 362.429688 73.429688 C 362.433594 73.632812 362.3125 73.820312 362.121094 73.910156 C 360.507812 74.65625 358.839844 75.300781 357.191406 75.972656 C 356.773438 76.140625 356.277344 76.300781 355.8125 76.492188 C 356.140625 76.640625 356.460938 76.78125 356.785156 76.925781 C 358.019531 77.472656 359.265625 78.003906 360.492188 78.574219 C 360.824219 78.730469 361.15625 78.886719 361.484375 79.046875 C 361.59375 79.097656 361.703125 79.152344 361.804688 79.210938 C 361.789062 79.199219 361.75 79.183594 361.75 79.183594 C 361.75 79.183594 362 79.292969 362.070312 79.359375 C 362.210938 79.503906 362.269531 79.679688 362.195312 79.902344 C 361.421875 82.226562 359.9375 84.59375 358 86.171875 C 356.699219 87.234375 355.105469 87.839844 354.015625 89.148438 C 353.117188 90.21875 352.660156 91.546875 351.992188 92.742188 C 351.175781 94.203125 350.121094 95.53125 348.789062 96.589844 C 347.019531 98 345.027344 98.75 342.753906 98.941406 C 342.0625 99 341.371094 99.035156 340.679688 99.050781 C 340.429688 99.054688 340.175781 99.050781 339.917969 99.035156 C 339.878906 99.03125 339.792969 99.019531 339.71875 99.007812 C 339.558594 99.035156 339.394531 98.996094 339.269531 98.894531 C 339.0625 98.730469 339.058594 98.558594 339.0625 98.472656 C 339.0625 98.277344 339.148438 98.085938 339.410156 97.988281 C 339.457031 97.972656 339.53125 97.953125 339.621094 97.953125 C 342.746094 97 346.164062 94.570312 346.417969 91.191406 C 346.515625 89.933594 346.191406 88.734375 346.09375 87.488281 C 346.042969 86.800781 345.972656 86.023438 346.253906 85.367188 C 346.675781 84.371094 347.515625 83.746094 348.480469 83.273438 C 349.332031 82.859375 350.285156 82.566406 351.074219 82.179688 C 351.222656 82.105469 351.621094 81.9375 351.925781 81.722656 C 351.964844 81.695312 352.011719 81.65625 352.042969 81.621094 C 351.382812 81.007812 350.304688 80.617188 349.519531 80.242188 C 347.53125 79.292969 345.503906 78.421875 343.445312 77.628906 C 342.625 77.3125 341.816406 76.980469 340.992188 76.691406 C 340.867188 76.648438 340.703125 76.570312 340.53125 76.507812 C 340.503906 76.492188 340.457031 76.480469 340.417969 76.472656 C 340.363281 76.527344 340.296875 76.601562 340.273438 76.625 C 339.925781 76.976562 339.578125 77.332031 339.222656 77.679688 C 338.113281 78.765625 336.976562 79.820312 335.871094 80.90625 C 335.660156 81.109375 335.367188 81.507812 335.054688 81.816406 C 334.761719 82.101562 334.441406 82.316406 334.152344 82.375 C 333.960938 82.414062 333.6875 82.375 333.390625 82.226562 C 333.027344 82.046875 332.574219 81.691406 332.398438 81.597656 C 330.851562 80.808594 329.34375 79.941406 327.828125 79.089844 C 326.996094 78.617188 326.179688 78.113281 325.308594 77.691406 C 325.121094 77.597656 324.703125 77.457031 324.425781 77.289062 C 324.207031 77.160156 324.054688 77.003906 323.972656 76.851562 C 323.875 76.664062 323.882812 76.46875 323.992188 76.273438 C 324.042969 76.179688 324.132812 76.074219 324.257812 75.984375 C 324.402344 75.875 324.601562 75.785156 324.664062 75.746094 C 325.246094 75.414062 325.835938 75.082031 326.40625 74.730469 C 328.332031 73.550781 330.261719 72.378906 332.214844 71.242188 C 332.6875 70.96875 333.164062 70.699219 333.632812 70.410156 C 333.660156 70.390625 333.855469 70.277344 333.921875 70.238281 C 333.984375 70.164062 334.058594 70.101562 334.15625 70.066406 C 334.339844 69.996094 334.546875 70.027344 334.699219 70.144531 C 336.160156 71.292969 338.332031 73.089844 339.777344 74.261719 C 340.140625 74.554688 340.519531 74.832031 340.875 75.128906 C 340.894531 75.148438 340.960938 75.203125 341.011719 75.253906 C 341.050781 75.230469 341.089844 75.203125 341.128906 75.175781 C 341.3125 75.0625 341.5 74.941406 341.644531 74.878906 C 342.625 74.441406 343.5625 73.917969 344.496094 73.390625 C 345.363281 72.902344 346.164062 72.347656 346.945312 71.746094 C 347.785156 71.09375 348.703125 70.507812 349.644531 70.003906 C 349.707031 69.96875 349.816406 69.925781 349.933594 69.871094 Z M 340.320312 55.054688 C 340.363281 55.058594 340.40625 55.0625 340.4375 55.066406 C 342.457031 55.148438 344.421875 55.792969 346.21875 56.65625 C 348.664062 57.824219 350.59375 59.664062 351.917969 61.949219 C 352.644531 63.203125 353.039062 64.824219 354.082031 65.882812 C 354.585938 66.394531 355.226562 66.714844 355.894531 66.992188 C 356.476562 67.230469 357.078125 67.433594 357.597656 67.746094 C 359.074219 68.636719 360.039062 70.226562 360.738281 71.722656 C 360.941406 72.15625 361.210938 72.648438 361.308594 73.132812 C 359.816406 73.808594 358.289062 74.402344 356.769531 75.019531 C 356.015625 75.328125 355.027344 75.621094 354.363281 76.089844 C 354.191406 76.207031 354.148438 76.34375 354.136719 76.453125 C 354.117188 76.574219 354.140625 76.695312 354.214844 76.8125 C 354.261719 76.875 354.335938 76.953125 354.457031 77.011719 C 354.5 77.035156 354.632812 77.078125 354.667969 77.089844 C 354.792969 77.152344 354.910156 77.214844 355.039062 77.277344 C 355.460938 77.480469 355.894531 77.671875 356.328125 77.863281 C 357.5625 78.410156 358.800781 78.9375 360.019531 79.503906 C 360.347656 79.65625 360.675781 79.808594 360.996094 79.96875 L 361.027344 79.984375 C 360.285156 82.003906 358.984375 84.015625 357.304688 85.382812 C 355.953125 86.484375 354.3125 87.136719 353.175781 88.5 C 352.238281 89.621094 351.742188 91 351.039062 92.253906 C 350.296875 93.59375 349.320312 94.820312 348.105469 95.792969 C 346.503906 97.0625 344.707031 97.738281 342.65625 97.910156 C 342.558594 97.921875 342.457031 97.929688 342.359375 97.933594 C 344.992188 96.527344 347.269531 94.191406 347.492188 91.269531 C 347.59375 89.957031 347.269531 88.707031 347.167969 87.410156 C 347.128906 86.875 347.03125 86.269531 347.246094 85.761719 C 347.574219 85.003906 348.234375 84.554688 348.972656 84.199219 C 349.824219 83.78125 350.78125 83.488281 351.566406 83.097656 C 351.832031 82.96875 352.703125 82.5625 353.003906 82.140625 C 353.128906 81.96875 353.191406 81.789062 353.191406 81.609375 C 353.191406 81.414062 353.128906 81.210938 352.941406 81.019531 C 352.210938 80.265625 350.929688 79.761719 350 79.316406 C 347.984375 78.351562 345.933594 77.472656 343.847656 76.667969 C 343.203125 76.417969 342.558594 76.160156 341.914062 75.917969 C 341.976562 75.878906 342.039062 75.84375 342.09375 75.816406 C 343.105469 75.367188 344.078125 74.828125 345.042969 74.285156 C 345.949219 73.765625 346.796875 73.1875 347.617188 72.550781 C 348.414062 71.9375 349.28125 71.386719 350.171875 70.910156 C 350.335938 70.820312 350.742188 70.664062 350.984375 70.46875 C 351.199219 70.292969 351.320312 70.074219 351.332031 69.859375 C 351.34375 69.679688 351.269531 69.457031 351.035156 69.269531 C 350.742188 69.046875 349.996094 68.808594 349.839844 68.722656 C 348.863281 68.160156 348.09375 67.375 347.492188 66.449219 C 346.699219 65.21875 346.339844 63.828125 345.824219 62.484375 C 345.195312 60.839844 344.367188 59.210938 343.238281 57.832031 C 342.449219 56.878906 341.546875 55.992188 340.558594 55.234375 C 340.480469 55.175781 340.398438 55.113281 340.320312 55.054688 Z M 334.34375 71.203125 C 335.785156 72.347656 337.742188 73.96875 339.085938 75.054688 C 339.320312 75.242188 339.554688 75.421875 339.789062 75.605469 C 339.675781 75.710938 339.546875 75.855469 339.496094 75.910156 C 339.148438 76.257812 338.804688 76.609375 338.457031 76.957031 C 337.347656 78.042969 336.207031 79.097656 335.097656 80.179688 C 334.894531 80.382812 334.597656 80.78125 334.28125 81.09375 C 334.179688 81.195312 334.082031 81.296875 333.980469 81.34375 C 333.894531 81.304688 333.675781 81.191406 333.539062 81.101562 C 333.269531 80.925781 333.027344 80.746094 332.898438 80.683594 C 331.363281 79.902344 329.875 79.039062 328.375 78.195312 C 327.519531 77.714844 326.6875 77.203125 325.800781 76.769531 C 325.691406 76.714844 325.515625 76.648438 325.328125 76.570312 C 325.886719 76.253906 326.441406 75.9375 326.988281 75.605469 C 328.902344 74.425781 330.828125 73.261719 332.773438 72.128906 C 333.253906 71.847656 333.738281 71.574219 334.214844 71.28125 C 334.238281 71.265625 334.28125 71.238281 334.34375 71.203125 Z M 334.34375 71.203125 " fill-opacity="1" fill-rule="evenodd"/><g clip-path="url(#2d2a893db8)"><path fill="#000000" d="M 374.707031 76.832031 L 362.070312 79.359375 L 355.476562 76.5 L 362.101562 73.5 Z M 374.707031 76.832031 " fill-opacity="1" fill-rule="evenodd"/></g><path fill="#000000" d="M 34.882812 70.957031 C 34.71875 70.140625 35.164062 69.046875 35.371094 68.269531 C 36.003906 65.820312 36.953125 63.464844 37.945312 61.136719 C 40.542969 55.050781 44.300781 49.578125 48.738281 44.59375 C 51.847656 41.105469 55.335938 37.734375 59.476562 35.378906 C 63.371094 33.164062 67.742188 31.667969 72.089844 30.5 C 73.464844 30.128906 74.839844 29.792969 76.25 29.546875 C 76.851562 29.441406 77.457031 29.289062 78.066406 29.238281 C 78.085938 29.238281 78.558594 29.234375 78.546875 29.269531 C 78.308594 29.859375 76.347656 30.75 75.839844 31.117188 C 73.523438 32.78125 71.328125 34.609375 69.296875 36.597656 C 63.367188 42.410156 58.25 49.148438 54.152344 56.273438 C 52.179688 59.710938 50.453125 63.320312 49.105469 67.027344 C 48.683594 68.203125 48.304688 69.386719 47.992188 70.589844 C 47.855469 71.097656 47.847656 71.953125 47.535156 72.390625 C 46.96875 73.179688 45.730469 73.636719 44.878906 74.046875 C 43.496094 74.71875 40.859375 76.332031 40.859375 76.332031 C 40.859375 76.332031 39.402344 75.410156 38.820312 74.992188 C 37.546875 74.070312 35.769531 72.253906 34.882812 70.957031 Z M 34.882812 70.957031 " fill-opacity="1" fill-rule="evenodd"/><path fill="#000000" d="M 34.882812 92.347656 C 34.71875 93.167969 35.164062 94.261719 35.371094 95.039062 C 36.003906 97.484375 36.953125 99.84375 37.945312 102.171875 C 40.542969 108.257812 44.300781 113.730469 48.738281 118.714844 C 51.847656 122.203125 55.335938 125.574219 59.476562 127.929688 C 63.371094 130.144531 67.742188 131.640625 72.089844 132.808594 C 73.464844 133.179688 74.839844 133.515625 76.25 133.761719 C 76.851562 133.867188 77.457031 134.019531 78.066406 134.070312 C 78.085938 134.070312 78.558594 134.074219 78.546875 134.039062 C 78.308594 133.449219 76.347656 132.558594 75.839844 132.191406 C 73.523438 130.523438 71.328125 128.699219 69.296875 126.710938 C 63.367188 120.898438 58.25 114.160156 54.152344 107.035156 C 52.179688 103.597656 50.453125 99.988281 49.105469 96.28125 C 48.683594 95.105469 48.304688 93.921875 47.992188 92.714844 C 47.855469 92.210938 47.847656 91.355469 47.535156 90.917969 C 46.96875 90.128906 45.730469 89.671875 44.878906 89.257812 C 43.496094 88.589844 40.859375 86.976562 40.859375 86.976562 C 40.859375 86.976562 39.402344 87.898438 38.820312 88.316406 C 37.546875 89.238281 35.769531 91.054688 34.882812 92.347656 Z M 34.882812 92.347656 " fill-opacity="1" fill-rule="evenodd"/><path fill="#000000" d="M 25.066406 75.195312 L 25.117188 75.171875 C 25.386719 75.070312 25.625 74.980469 25.707031 74.933594 C 26.835938 74.289062 27.734375 73.386719 28.417969 72.316406 C 29.253906 71.027344 29.648438 69.570312 30.183594 68.164062 C 30.777344 66.621094 31.542969 65.089844 32.605469 63.796875 C 33.339844 62.90625 34.1875 62.074219 35.105469 61.367188 C 35.410156 61.136719 35.710938 60.917969 36.03125 60.714844 C 36.054688 60.699219 36.367188 60.503906 36.527344 60.382812 C 36.621094 60.3125 36.675781 60.246094 36.710938 60.207031 C 36.820312 60.058594 36.820312 59.921875 36.808594 59.832031 C 36.792969 59.703125 36.734375 59.597656 36.636719 59.507812 C 36.5 59.390625 36.226562 59.285156 35.871094 59.269531 C 35.398438 59.25 34.730469 59.34375 34.519531 59.351562 C 32.34375 59.441406 30.230469 60.125 28.292969 61.050781 C 25.660156 62.3125 23.570312 64.296875 22.140625 66.765625 C 21.777344 67.390625 21.5 68.105469 21.1875 68.796875 C 20.90625 69.417969 20.597656 70.023438 20.132812 70.492188 C 19.730469 70.902344 19.210938 71.144531 18.675781 71.363281 C 18.046875 71.621094 17.394531 71.851562 16.828125 72.191406 C 15.167969 73.1875 14.058594 74.941406 13.273438 76.621094 C 12.976562 77.265625 12.59375 78.035156 12.570312 78.75 C 12.5625 78.953125 12.683594 79.140625 12.878906 79.230469 C 14.488281 79.980469 16.15625 80.621094 17.808594 81.296875 C 18.222656 81.464844 18.71875 81.621094 19.183594 81.8125 C 18.859375 81.960938 18.539062 82.105469 18.210938 82.246094 C 16.976562 82.796875 15.734375 83.324219 14.503906 83.894531 C 14.175781 84.050781 13.84375 84.207031 13.511719 84.367188 C 13.402344 84.421875 13.292969 84.472656 13.191406 84.53125 C 13.207031 84.523438 13.25 84.503906 13.25 84.503906 C 13.25 84.503906 12.996094 84.617188 12.929688 84.679688 C 12.785156 84.828125 12.730469 85.003906 12.804688 85.222656 C 13.574219 87.550781 15.058594 89.914062 16.996094 91.492188 C 18.296875 92.554688 19.890625 93.160156 20.980469 94.46875 C 21.878906 95.539062 22.335938 96.867188 23.003906 98.066406 C 23.820312 99.523438 24.878906 100.851562 26.207031 101.910156 C 27.980469 103.320312 29.972656 104.074219 32.246094 104.265625 C 32.9375 104.324219 33.628906 104.359375 34.320312 104.371094 C 34.570312 104.375 34.820312 104.371094 35.078125 104.355469 C 35.117188 104.355469 35.203125 104.339844 35.277344 104.328125 C 35.4375 104.359375 35.601562 104.316406 35.730469 104.21875 C 35.933594 104.054688 35.941406 103.882812 35.933594 103.796875 C 35.933594 103.597656 35.847656 103.410156 35.585938 103.3125 C 35.539062 103.296875 35.464844 103.277344 35.375 103.273438 C 32.25 102.320312 28.835938 99.890625 28.578125 96.515625 C 28.480469 95.253906 28.808594 94.054688 28.902344 92.808594 C 28.957031 92.121094 29.023438 91.34375 28.742188 90.6875 C 28.320312 89.691406 27.480469 89.066406 26.515625 88.597656 C 25.664062 88.183594 24.710938 87.890625 23.921875 87.5 C 23.773438 87.425781 23.375 87.257812 23.074219 87.042969 C 23.03125 87.015625 22.988281 86.976562 22.953125 86.941406 C 23.613281 86.332031 24.695312 85.9375 25.476562 85.5625 C 27.464844 84.613281 29.492188 83.742188 31.554688 82.949219 C 32.371094 82.632812 33.183594 82.300781 34.003906 82.011719 C 34.128906 81.972656 34.296875 81.890625 34.46875 81.828125 C 34.496094 81.816406 34.542969 81.804688 34.582031 81.792969 C 34.632812 81.851562 34.699219 81.921875 34.722656 81.945312 C 35.074219 82.296875 35.421875 82.652344 35.773438 83 C 36.882812 84.085938 38.019531 85.144531 39.128906 86.226562 C 39.339844 86.429688 39.628906 86.828125 39.945312 87.136719 C 40.234375 87.425781 40.554688 87.636719 40.847656 87.699219 C 41.035156 87.738281 41.308594 87.695312 41.605469 87.550781 C 41.972656 87.367188 42.421875 87.011719 42.601562 86.917969 C 44.148438 86.132812 45.65625 85.261719 47.167969 84.410156 C 48.003906 83.9375 48.820312 83.4375 49.6875 83.011719 C 49.875 82.917969 50.292969 82.78125 50.574219 82.609375 C 50.789062 82.480469 50.945312 82.324219 51.023438 82.171875 C 51.121094 81.984375 51.117188 81.789062 51.007812 81.597656 C 50.957031 81.5 50.863281 81.394531 50.738281 81.304688 C 50.597656 81.199219 50.394531 81.105469 50.332031 81.070312 C 49.75 80.734375 49.164062 80.40625 48.589844 80.054688 C 46.667969 78.871094 44.734375 77.699219 42.78125 76.5625 C 42.308594 76.289062 41.835938 76.019531 41.367188 75.730469 C 41.335938 75.710938 41.144531 75.597656 41.074219 75.558594 C 41.011719 75.484375 40.9375 75.425781 40.839844 75.386719 C 40.65625 75.316406 40.453125 75.347656 40.296875 75.464844 C 38.835938 76.617188 36.664062 78.414062 35.222656 79.585938 C 34.855469 79.878906 34.476562 80.152344 34.125 80.453125 C 34.101562 80.472656 34.039062 80.527344 33.988281 80.574219 C 33.945312 80.550781 33.90625 80.523438 33.867188 80.5 C 33.683594 80.386719 33.496094 80.261719 33.351562 80.199219 C 32.371094 79.765625 31.433594 79.242188 30.503906 78.714844 C 29.636719 78.222656 28.835938 77.671875 28.054688 77.066406 C 27.214844 76.417969 26.292969 75.832031 25.351562 75.328125 C 25.289062 75.292969 25.179688 75.246094 25.066406 75.195312 Z M 34.679688 60.378906 C 34.632812 60.382812 34.59375 60.382812 34.558594 60.386719 C 32.542969 60.46875 30.578125 61.113281 28.777344 61.976562 C 26.332031 63.144531 24.402344 64.984375 23.078125 67.269531 C 22.351562 68.523438 21.957031 70.144531 20.914062 71.203125 C 20.410156 71.714844 19.769531 72.039062 19.101562 72.316406 C 18.519531 72.554688 17.921875 72.753906 17.402344 73.066406 C 15.921875 73.957031 14.957031 75.546875 14.261719 77.046875 C 14.054688 77.476562 13.785156 77.96875 13.6875 78.457031 C 15.179688 79.132812 16.710938 79.722656 18.230469 80.34375 C 18.984375 80.648438 19.972656 80.941406 20.632812 81.410156 C 20.804688 81.527344 20.851562 81.667969 20.863281 81.773438 C 20.878906 81.898438 20.855469 82.015625 20.78125 82.132812 C 20.738281 82.195312 20.664062 82.277344 20.542969 82.335938 C 20.496094 82.359375 20.367188 82.398438 20.332031 82.410156 C 20.207031 82.472656 20.085938 82.539062 19.960938 82.597656 C 19.539062 82.804688 19.101562 82.996094 18.667969 83.1875 C 17.433594 83.734375 16.195312 84.257812 14.980469 84.828125 C 14.648438 84.976562 14.324219 85.132812 14.003906 85.289062 L 13.96875 85.308594 C 14.710938 87.324219 16.011719 89.335938 17.691406 90.703125 C 19.046875 91.808594 20.683594 92.460938 21.820312 93.820312 C 22.757812 94.941406 23.253906 96.320312 23.957031 97.578125 C 24.699219 98.914062 25.675781 100.140625 26.894531 101.113281 C 28.492188 102.386719 30.292969 103.0625 32.34375 103.234375 C 32.4375 103.242188 32.542969 103.25 32.640625 103.257812 C 30.007812 101.847656 27.726562 99.511719 27.503906 96.589844 C 27.402344 95.277344 27.726562 94.027344 27.832031 92.730469 C 27.871094 92.195312 27.96875 91.589844 27.75 91.082031 C 27.425781 90.324219 26.761719 89.878906 26.027344 89.519531 C 25.175781 89.105469 24.214844 88.8125 23.433594 88.417969 C 23.164062 88.289062 22.296875 87.886719 21.992188 87.460938 C 21.867188 87.289062 21.804688 87.109375 21.804688 86.933594 C 21.804688 86.734375 21.867188 86.535156 22.054688 86.339844 C 22.785156 85.585938 24.066406 85.082031 24.996094 84.636719 C 27.011719 83.675781 29.0625 82.792969 31.148438 81.988281 C 31.792969 81.738281 32.4375 81.480469 33.085938 81.242188 C 33.023438 81.199219 32.960938 81.164062 32.902344 81.140625 C 31.890625 80.691406 30.921875 80.148438 29.953125 79.605469 C 29.046875 79.089844 28.203125 78.507812 27.378906 77.871094 C 26.585938 77.257812 25.71875 76.707031 24.824219 76.230469 C 24.660156 76.140625 24.253906 75.984375 24.015625 75.792969 C 23.796875 75.613281 23.679688 75.394531 23.667969 75.183594 C 23.65625 75.003906 23.730469 74.78125 23.964844 74.59375 C 24.253906 74.367188 25.003906 74.132812 25.15625 74.042969 C 26.132812 73.484375 26.90625 72.699219 27.503906 71.769531 C 28.296875 70.542969 28.660156 69.148438 29.171875 67.804688 C 29.800781 66.160156 30.628906 64.535156 31.757812 63.152344 C 32.546875 62.203125 33.449219 61.316406 34.4375 60.558594 C 34.519531 60.496094 34.597656 60.4375 34.679688 60.378906 Z M 40.652344 76.527344 C 39.214844 77.671875 37.253906 79.289062 35.910156 80.375 C 35.675781 80.5625 35.445312 80.742188 35.210938 80.929688 C 35.324219 81.03125 35.449219 81.175781 35.5 81.230469 C 35.847656 81.582031 36.191406 81.933594 36.539062 82.277344 C 37.648438 83.363281 38.789062 84.417969 39.898438 85.5 C 40.105469 85.707031 40.402344 86.105469 40.714844 86.414062 C 40.816406 86.515625 40.914062 86.621094 41.019531 86.664062 C 41.105469 86.625 41.320312 86.511719 41.457031 86.421875 C 41.726562 86.25 41.972656 86.070312 42.097656 86.003906 C 43.632812 85.222656 45.125 84.363281 46.621094 83.515625 C 47.476562 83.035156 48.3125 82.523438 49.195312 82.089844 C 49.304688 82.039062 49.480469 81.972656 49.671875 81.894531 C 49.109375 81.578125 48.558594 81.261719 48.007812 80.925781 C 46.09375 79.746094 44.171875 78.582031 42.222656 77.449219 C 41.742188 77.171875 41.257812 76.894531 40.785156 76.601562 C 40.761719 76.589844 40.714844 76.5625 40.652344 76.527344 Z M 40.652344 76.527344 " fill-opacity="1" fill-rule="evenodd"/><g clip-path="url(#7963d1f434)"><path fill="#000000" d="M 0.289062 82.152344 L 12.929688 84.679688 L 19.519531 81.820312 L 12.894531 78.820312 Z M 0.289062 82.152344 " fill-opacity="1" fill-rule="evenodd"/></g><path fill="#000000" d="M 221.550781 42.902344 L 225.625 37.820312 L 232.265625 43.007812 L 228.355469 48.144531 Z M 221.550781 42.902344 " fill-opacity="1" fill-rule="evenodd"/><path fill="#000000" d="M 313.695312 84.707031 C 313.808594 84.675781 314.253906 83.832031 314.34375 83.703125 C 315.0625 82.671875 315.761719 81.613281 316.539062 80.617188 C 316.710938 80.390625 317.144531 79.550781 317.5 79.566406 C 317.890625 79.582031 317.929688 80.824219 317.976562 81.078125 C 318.277344 82.867188 318.515625 84.6875 318.546875 86.503906 C 318.605469 89.914062 318.285156 94.421875 315.261719 96.648438 C 310.503906 100.152344 303.882812 95.175781 303.882812 89.835938 C 303.886719 89.84375 302.8125 91.308594 302.75 91.417969 C 301.71875 93.183594 301.039062 95.128906 299.980469 96.875 C 297.300781 101.296875 290.953125 103.210938 286.90625 99.238281 C 284.722656 97.089844 283.960938 93.355469 284.09375 90.394531 C 283.035156 92.011719 281.828125 93.609375 280.296875 94.824219 C 280.027344 95.035156 278.191406 95.902344 278.191406 95.902344 C 278.191406 95.902344 278.523438 97.355469 278.582031 97.933594 C 278.71875 99.429688 278.890625 100.84375 278.71875 102.464844 C 278.695312 102.628906 278.5625 103.085938 278.519531 103.203125 C 278.207031 103.964844 277.753906 104.714844 277.28125 105.382812 C 275.160156 108.367188 272.351562 111.007812 269.707031 113.523438 C 268.300781 114.859375 266.871094 116.175781 265.378906 117.40625 C 258.488281 123.082031 248.296875 129.453125 239.230469 124.503906 C 237.9375 123.796875 236.796875 122.859375 235.832031 121.753906 C 234.613281 120.347656 233.683594 118.71875 233.070312 116.96875 C 231.515625 112.519531 231.644531 107.570312 232.828125 103.054688 C 233.257812 101.433594 233.796875 99.796875 234.621094 98.328125 C 234.671875 98.242188 235.535156 96.863281 235.699219 97.160156 C 235.910156 97.539062 235.449219 98.515625 235.347656 98.878906 C 234.890625 100.527344 234.40625 102.164062 234.160156 103.859375 C 233.359375 109.40625 233.828125 115.441406 238.878906 118.816406 C 239.6875 119.359375 240.578125 119.808594 241.503906 120.125 C 244.8125 121.25 248.425781 120.757812 251.703125 119.773438 C 258.578125 117.703125 264.566406 112.761719 270.011719 108.289062 C 271.371094 107.175781 272.691406 106.019531 274.007812 104.855469 C 274.871094 104.089844 275.882812 103.296875 276.441406 102.261719 C 277.191406 100.867188 276.15625 97.085938 276.15625 97.085938 C 276.15625 97.085938 275.007812 97.753906 274.914062 97.796875 C 273.648438 98.371094 272.816406 98.625 271.472656 99 C 267.429688 100.132812 262.007812 99.988281 260.238281 95.414062 C 258.664062 91.363281 261.238281 86.558594 264.035156 83.695312 C 265.09375 82.609375 266.738281 81.0625 268.417969 81.300781 C 273.109375 81.972656 275.253906 87.054688 277.191406 90.636719 C 277.1875 90.636719 277.488281 90.535156 277.566406 90.496094 C 277.863281 90.351562 278.144531 90.171875 278.417969 89.988281 C 279.203125 89.472656 279.96875 88.925781 280.71875 88.363281 C 282.152344 87.292969 283.4375 86.078125 284.792969 84.917969 C 285.003906 84.738281 285.800781 83.847656 286.144531 83.996094 C 286.324219 84.074219 286.316406 84.484375 286.335938 84.636719 C 286.402344 85.304688 286.335938 85.976562 286.328125 86.644531 C 286.316406 88.847656 286.695312 91.097656 288.101562 92.878906 C 290.226562 95.582031 294.167969 95.253906 296.875 93.585938 C 301.023438 91.03125 302.359375 86.457031 304.378906 82.375 C 304.449219 82.226562 304.640625 82.917969 304.648438 82.960938 C 304.851562 83.714844 304.984375 84.484375 305.191406 85.238281 C 305.742188 87.257812 306.320312 89.617188 308.4375 90.542969 C 309.183594 90.867188 310.015625 90.949219 310.824219 90.949219 C 311.417969 90.953125 312.007812 90.90625 312.59375 90.78125 C 313.007812 90.695312 313.382812 90.554688 313.757812 90.359375 C 316.046875 89.164062 314.554688 86.523438 313.695312 84.707031 Z M 271.425781 91.828125 C 270.007812 92.113281 267.980469 92.730469 266.515625 92.820312 C 265.945312 92.855469 265.246094 92.898438 264.742188 92.574219 C 264.203125 92.222656 264.203125 91.519531 264.375 90.96875 C 264.730469 89.84375 265.589844 88.675781 266.699219 88.175781 C 268.523438 87.34375 270.464844 90.515625 271.425781 91.828125 Z M 271.425781 91.828125 " fill-opacity="1" fill-rule="evenodd"/><path fill="#000000" d="M 238.9375 83.96875 C 238.957031 83.976562 238.914062 84.105469 238.910156 84.117188 C 238.867188 84.296875 238.820312 84.480469 238.773438 84.660156 C 238.550781 85.488281 238.335938 86.320312 238.113281 87.152344 C 237.804688 88.304688 237.546875 89.464844 237.273438 90.625 C 237.203125 90.917969 237.136719 91.214844 237.054688 91.507812 C 237.035156 91.578125 236.949219 91.753906 236.976562 91.828125 C 237.058594 92.039062 237.269531 92.230469 237.417969 92.390625 C 237.757812 92.757812 238.121094 93.082031 238.476562 93.429688 C 238.515625 93.382812 238.429688 93.550781 238.441406 93.613281 C 238.476562 93.789062 238.519531 93.964844 238.566406 94.140625 C 238.6875 94.597656 238.832031 95.046875 238.992188 95.488281 C 239.464844 96.824219 239.960938 98.152344 240.46875 99.472656 C 242 103.429688 244.148438 107.03125 245.820312 110.90625 C 245.816406 110.898438 245.234375 111.429688 245.191406 111.472656 C 244.820312 111.847656 244.46875 112.246094 244.101562 112.625 C 243.015625 113.757812 241.824219 114.78125 240.636719 115.800781 C 236.824219 119.066406 233.21875 122.425781 228.855469 124.933594 C 227.710938 125.59375 226.574219 126.355469 225.390625 126.9375 C 222.539062 128.335938 219.304688 129.476562 216.140625 129.8125 C 215.082031 129.925781 214.003906 129.929688 212.9375 129.792969 C 208.699219 129.253906 204.648438 126.914062 202.523438 123.0625 C 201.90625 121.949219 201.484375 120.726562 201.195312 119.484375 C 200.335938 115.808594 200.722656 112.042969 201.351562 108.359375 C 201.933594 104.957031 202.914062 101.867188 204.117188 98.65625 C 204.339844 98.054688 205.3125 96.125 204.203125 95.765625 C 204.144531 95.746094 203.917969 96.25 203.898438 96.285156 C 203.578125 96.878906 203.300781 97.496094 203.015625 98.105469 C 201.835938 100.660156 200.691406 103.253906 199.800781 105.933594 C 198.003906 111.367188 197.335938 117.210938 198.054688 122.910156 C 198.621094 127.386719 200.167969 131.402344 203.78125 134.191406 C 208.089844 137.519531 213.972656 138.171875 219.160156 136.859375 C 222.765625 135.945312 226.335938 134.042969 229.433594 131.976562 C 229.441406 131.984375 231.160156 130.765625 231.308594 130.65625 C 233.242188 129.230469 235.179688 127.789062 237.046875 126.269531 C 240.425781 123.53125 243.945312 120.488281 246.199219 116.679688 C 248.875 112.160156 248.863281 106.363281 247.214844 101.515625 C 247.320312 101.53125 247.140625 101.3125 247.09375 101.210938 C 246.988281 100.980469 246.875 100.75 246.765625 100.519531 C 246.480469 99.910156 246.175781 99.304688 245.886719 98.695312 C 245.003906 96.863281 243.902344 95.0625 243.207031 93.144531 C 243.042969 92.683594 243.339844 92.671875 243.769531 92.917969 C 244.292969 93.21875 244.765625 93.632812 245.316406 93.875 C 245.515625 93.960938 245.824219 94.019531 245.910156 93.75 C 246.082031 93.203125 245.582031 92.5 245.316406 92.078125 C 244.449219 90.695312 240.117188 85.425781 238.9375 83.96875 Z M 238.9375 83.96875 " fill-opacity="1" fill-rule="evenodd"/><path fill="#000000" d="M 252.414062 72.183594 C 252.402344 72.160156 252.398438 72.230469 252.386719 72.253906 C 252.363281 72.3125 252.34375 72.371094 252.316406 72.429688 C 252.273438 72.535156 252.066406 73.152344 251.890625 73.105469 C 251.574219 73.023438 251.230469 72.519531 251 72.332031 C 250.480469 71.914062 249.90625 71.542969 249.339844 71.175781 C 249.054688 70.988281 248.652344 70.804688 248.5 70.515625 C 248.347656 70.21875 248.367188 69.84375 248.355469 69.527344 C 248.320312 68.578125 248.414062 66.773438 249.789062 66.457031 C 250.808594 66.222656 251.84375 66.863281 252.550781 67.398438 C 253.871094 68.390625 254.703125 69.777344 255.371094 71.128906 C 256.222656 72.851562 256.902344 74.648438 257.472656 76.453125 C 257.488281 76.5 257.503906 76.363281 257.515625 76.316406 C 257.539062 76.226562 257.5625 76.136719 257.582031 76.046875 C 257.640625 75.792969 257.699219 75.539062 257.75 75.285156 C 257.917969 74.488281 258.078125 73.6875 258.289062 72.894531 C 258.855469 70.78125 259.515625 68.714844 260.738281 66.792969 C 261.257812 65.96875 262.097656 65.007812 263.367188 65.226562 C 264.085938 65.351562 264.457031 65.867188 264.871094 66.324219 C 265.402344 66.90625 266.09375 67.808594 266.011719 68.589844 C 265.960938 69.058594 265.671875 69.542969 265.460938 69.96875 C 265.28125 70.332031 265.078125 70.769531 264.726562 71.042969 C 264.410156 71.289062 263.996094 70.679688 263.859375 70.515625 C 263.394531 69.972656 262.378906 68.609375 261.457031 69.332031 C 260.917969 69.753906 260.660156 70.390625 260.429688 70.964844 C 260.011719 72.007812 259.699219 73.082031 259.398438 74.152344 C 259.378906 74.230469 259.308594 74.46875 259.292969 74.535156 C 259.179688 74.945312 259.058594 75.351562 258.953125 75.761719 C 258.519531 77.359375 257.988281 78.949219 257.328125 80.492188 C 257.179688 80.839844 257.027344 81.1875 256.832031 81.515625 C 256.800781 81.570312 256.695312 81.820312 256.578125 81.796875 C 256.445312 81.769531 256.425781 81.425781 256.40625 81.347656 C 256.304688 80.902344 256.1875 80.460938 256.085938 80.015625 C 255.980469 79.542969 255.875 79.070312 255.730469 78.605469 C 255.480469 77.800781 255.21875 76.996094 254.917969 76.203125 C 254.472656 75.027344 253.300781 72.859375 252.414062 72.183594 Z M 252.414062 72.183594 " fill-opacity="1" fill-rule="evenodd"/><path fill="#000000" d="M 247.578125 42.808594 C 247.566406 42.785156 247.5625 42.855469 247.550781 42.878906 C 247.53125 42.9375 247.507812 42.996094 247.480469 43.050781 C 247.4375 43.15625 247.230469 43.773438 247.054688 43.726562 C 246.738281 43.644531 246.394531 43.140625 246.164062 42.953125 C 245.644531 42.539062 245.070312 42.167969 244.503906 41.796875 C 244.21875 41.613281 243.816406 41.429688 243.664062 41.140625 C 243.511719 40.84375 243.53125 40.464844 243.519531 40.148438 C 243.484375 39.203125 243.578125 37.394531 244.953125 37.078125 C 245.972656 36.84375 247.007812 37.488281 247.714844 38.019531 C 249.035156 39.015625 249.867188 40.398438 250.535156 41.75 C 251.386719 43.476562 252.066406 45.273438 252.640625 47.078125 C 252.652344 47.125 252.667969 46.984375 252.679688 46.9375 C 252.703125 46.847656 252.726562 46.757812 252.746094 46.667969 C 252.804688 46.417969 252.863281 46.164062 252.914062 45.910156 C 253.082031 45.109375 253.242188 44.308594 253.453125 43.515625 C 254.019531 41.402344 254.679688 39.339844 255.902344 37.414062 C 256.421875 36.59375 257.265625 35.628906 258.53125 35.847656 C 259.25 35.972656 259.621094 36.492188 260.035156 36.945312 C 260.566406 37.527344 261.257812 38.433594 261.175781 39.214844 C 261.125 39.683594 260.835938 40.167969 260.625 40.59375 C 260.445312 40.957031 260.242188 41.390625 259.890625 41.664062 C 259.574219 41.910156 259.160156 41.300781 259.023438 41.140625 C 258.558594 40.59375 257.546875 39.234375 256.625 39.953125 C 256.082031 40.375 255.824219 41.015625 255.59375 41.585938 C 255.175781 42.628906 254.863281 43.703125 254.5625 44.777344 C 254.542969 44.855469 254.472656 45.089844 254.457031 45.160156 C 254.34375 45.566406 254.222656 45.972656 254.117188 46.382812 C 253.683594 47.984375 253.15625 49.574219 252.492188 51.117188 C 252.34375 51.460938 252.191406 51.808594 252 52.140625 C 251.964844 52.195312 251.859375 52.441406 251.742188 52.417969 C 251.609375 52.390625 251.589844 52.050781 251.570312 51.96875 C 251.46875 51.523438 251.351562 51.082031 251.25 50.636719 C 251.144531 50.164062 251.039062 49.691406 250.894531 49.226562 C 250.644531 48.425781 250.382812 47.617188 250.085938 46.828125 C 249.636719 45.648438 248.464844 43.484375 247.578125 42.808594 Z M 247.578125 42.808594 " fill-opacity="1" fill-rule="evenodd"/><path fill="#000000" d="M 241.375 66.601562 C 241.445312 66.664062 241.53125 66.503906 241.613281 66.457031 C 241.910156 66.285156 242.203125 66.109375 242.5 65.9375 C 243.707031 65.238281 244.914062 64.546875 246.148438 63.886719 C 251.363281 61.109375 256.964844 58.59375 262.601562 56.644531 C 264.125 56.117188 265.648438 55.582031 267.179688 55.078125 C 267.53125 54.960938 267.878906 54.835938 268.234375 54.738281 C 268.257812 54.730469 268.542969 54.640625 268.566406 54.691406 C 268.601562 54.769531 268.410156 55 268.375 55.058594 C 268.164062 55.398438 267.949219 55.734375 267.738281 56.078125 C 267.414062 56.597656 267.203125 57.371094 266.78125 57.828125 C 266.570312 58.054688 265.894531 58.160156 265.613281 58.269531 C 264.683594 58.625 263.761719 58.996094 262.84375 59.371094 C 257.023438 61.746094 251.339844 64.414062 245.644531 67.027344 C 244.289062 67.648438 242.925781 68.257812 241.597656 68.925781 C 241.421875 69.011719 240.5 69.640625 240.277344 69.527344 C 240.121094 69.449219 240.273438 69.054688 240.304688 68.953125 C 240.484375 68.390625 241.125 67.140625 241.375 66.601562 Z M 241.375 66.601562 " fill-opacity="1" fill-rule="evenodd"/><path fill="#000000" d="M 288.421875 82.097656 C 288.324219 81.953125 288.765625 81.566406 288.8125 81.53125 C 289.351562 81.136719 289.917969 80.769531 290.476562 80.398438 C 292.75 78.898438 295.15625 77.59375 297.445312 76.117188 C 301.46875 73.519531 305.183594 70.421875 308.730469 67.292969 C 310.585938 65.660156 312.707031 64.117188 314.191406 62.164062 C 314.003906 61.886719 313.660156 61.667969 313.40625 61.453125 C 312.8125 60.949219 312.203125 60.464844 311.605469 59.96875 C 311.265625 59.6875 310.890625 59.421875 310.707031 59.023438 C 310.542969 58.667969 310.554688 58.265625 310.601562 57.890625 C 310.863281 55.871094 312.441406 53.765625 314.242188 52.636719 C 315.320312 51.960938 316.863281 51.78125 317.773438 52.8125 C 319.203125 54.429688 318.511719 56.722656 317.804688 58.496094 C 317.65625 58.875 317.476562 59.238281 317.296875 59.605469 C 317.226562 59.75 317.0625 59.957031 317.046875 60.121094 C 317.03125 60.308594 317.492188 60.542969 317.621094 60.640625 C 318.070312 60.996094 318.574219 61.46875 318.78125 61.996094 C 319.050781 62.679688 318.476562 63.578125 318.144531 64.164062 C 318.054688 64.324219 317.824219 64.804688 317.558594 64.742188 C 317.261719 64.675781 316.96875 64.386719 316.761719 64.199219 C 316.300781 63.78125 315.886719 63.316406 315.417969 62.90625 C 315.417969 62.898438 315.203125 63.136719 315.167969 63.179688 C 314.988281 63.386719 314.800781 63.589844 314.617188 63.796875 C 314.09375 64.375 313.589844 64.96875 313.078125 65.554688 C 311.589844 67.265625 310.007812 68.933594 308.273438 70.4375 C 304.25 73.929688 299.574219 76.71875 294.71875 79.109375 C 293.46875 79.726562 292.210938 80.339844 290.9375 80.917969 C 290.234375 81.234375 288.628906 82.402344 288.421875 82.097656 Z M 316.242188 59.488281 C 316.25 59.488281 316.304688 59.261719 316.308594 59.242188 C 316.367188 58.964844 316.429688 58.683594 316.464844 58.402344 C 316.589844 57.382812 316.464844 56.054688 315.601562 55.316406 C 314.910156 54.726562 313.925781 54.796875 313.28125 55.421875 C 313.039062 55.664062 312.835938 55.96875 312.894531 56.308594 C 312.960938 56.734375 313.316406 57.097656 313.625 57.394531 C 314.203125 57.957031 315.613281 58.976562 316.242188 59.488281 Z M 316.242188 59.488281 " fill-opacity="1" fill-rule="evenodd"/><path fill="#000000" d="M 211.121094 65.136719 C 211.121094 65.113281 211.105469 64.808594 211.109375 64.722656 C 211.144531 64.390625 211.195312 64.054688 211.234375 63.722656 C 211.339844 62.84375 211.394531 61.957031 211.527344 61.082031 C 211.589844 60.6875 211.640625 60.167969 212.167969 60.328125 C 212.988281 60.574219 213.746094 61.140625 214.480469 61.554688 C 215.789062 62.300781 217.085938 63.066406 218.425781 63.761719 C 218.953125 64.039062 219.492188 64.300781 220.015625 64.589844 C 220.113281 64.640625 220.421875 64.761719 220.40625 64.910156 C 220.390625 65.113281 219.910156 65.121094 219.777344 65.128906 C 219.449219 65.15625 217.96875 65.042969 217.800781 65.34375 C 217.515625 65.851562 218.394531 66.871094 218.648438 67.238281 C 219.816406 68.921875 221.265625 70.390625 222.824219 71.726562 C 222.863281 71.722656 223.28125 70.949219 223.332031 70.882812 C 223.867188 70.09375 224.414062 69.3125 224.957031 68.527344 C 226.902344 65.71875 228.925781 62.929688 231.023438 60.226562 C 231.527344 59.578125 232.042969 58.929688 232.578125 58.304688 C 232.75 58.101562 232.984375 57.761719 233.28125 57.71875 C 233.726562 57.65625 233.488281 59.097656 233.457031 59.3125 C 233.253906 60.996094 232.117188 62.578125 231.246094 63.984375 C 230.445312 65.285156 229.613281 66.5625 228.761719 67.832031 C 227.4375 69.808594 226.121094 71.792969 224.753906 73.742188 C 225.28125 74.152344 225.804688 75.015625 226.285156 75.527344 C 227.515625 76.839844 229.167969 78.277344 229.804688 80 C 230.339844 81.457031 230.875 82.792969 231.035156 84.320312 C 231.214844 86.085938 230.847656 88.226562 230.207031 89.921875 C 229.082031 92.886719 226.121094 95.53125 223.476562 97.175781 C 221.382812 98.480469 218.429688 99.738281 215.894531 99.402344 C 212.445312 98.945312 212.375 93.914062 212.519531 91.359375 C 212.558594 90.738281 212.625 90.121094 212.730469 89.507812 C 212.882812 88.652344 213.09375 87.808594 213.359375 86.984375 C 213.65625 86.066406 214.011719 85.164062 214.417969 84.289062 C 215.824219 81.277344 217.648438 78.457031 219.761719 75.886719 C 216.96875 73.445312 215.09375 70.023438 212.949219 67.0625 C 212.765625 66.804688 212.542969 66.578125 212.195312 66.636719 C 212.105469 66.648438 211.5 66.800781 211.292969 66.492188 C 211.042969 66.121094 211.195312 65.273438 211.121094 65.136719 Z M 222.078125 78.644531 C 221.882812 78.644531 221.5 79.144531 221.375 79.253906 C 220.707031 79.882812 220.078125 80.5625 219.453125 81.238281 C 218.96875 81.757812 218.503906 82.292969 218.050781 82.839844 C 217.660156 83.320312 217.277344 83.804688 216.921875 84.304688 C 215.449219 86.363281 213.378906 90.246094 216.207031 92.101562 C 219.164062 94.042969 222.957031 91.605469 225.269531 89.765625 C 226.390625 88.875 227.542969 87.882812 227.742188 86.390625 C 227.882812 85.363281 227.46875 84.433594 226.941406 83.574219 C 225.957031 81.972656 223.476562 79.902344 222.078125 78.644531 Z M 211.121094 65.136719 Z M 211.121094 65.136719 " fill-opacity="1" fill-rule="evenodd"/><path fill="#000000" d="M 210.84375 42.902344 L 214.914062 37.820312 L 221.554688 43.007812 L 217.644531 48.144531 Z M 210.84375 42.902344 " fill-opacity="1" fill-rule="evenodd"/><path fill="#000000" d="M 313.300781 102.230469 C 313.261719 102.128906 313.476562 101.710938 313.511719 101.609375 C 313.738281 100.949219 313.957031 100.289062 314.226562 99.644531 C 314.265625 99.554688 314.460938 98.949219 314.601562 98.96875 C 314.671875 98.980469 314.722656 99.128906 314.75 99.183594 C 314.867188 99.433594 314.988281 99.675781 315.101562 99.925781 C 315.65625 101.136719 315.726562 102.570312 315.554688 103.882812 C 315.367188 105.34375 314.707031 106.851562 313.414062 107.566406 C 311.53125 108.613281 309.234375 107.140625 308.660156 105.148438 C 307.800781 105.605469 307.4375 106.8125 306.886719 107.71875 C 306.265625 108.742188 305.351562 109.429688 304.210938 109.644531 C 302.332031 109.992188 300.957031 108.539062 299.253906 108.070312 C 298.292969 107.804688 297.316406 108.050781 296.4375 108.492188 C 294.441406 109.496094 292.664062 111.03125 290.890625 112.40625 C 286.5 115.804688 282.441406 119.660156 278.019531 123 C 274.3125 125.800781 270.09375 127.496094 265.617188 128.597656 C 264.480469 128.875 263.335938 129.164062 262.191406 129.378906 C 262.078125 129.402344 261.199219 129.601562 261.179688 129.371094 C 261.15625 129.121094 261.679688 128.863281 261.828125 128.765625 C 262.492188 128.328125 263.171875 127.910156 263.859375 127.511719 C 266.765625 125.828125 269.75 124.304688 272.660156 122.628906 C 278.226562 119.421875 283.453125 115.367188 288.550781 111.390625 C 291.292969 109.246094 294.042969 106.214844 297.402344 105.199219 C 300.058594 104.398438 302.253906 105.621094 304.878906 105.574219 C 304.878906 105.5625 305.214844 105.46875 305.230469 105.464844 C 305.4375 105.386719 305.632812 105.289062 305.820312 105.164062 C 306.441406 104.761719 307.007812 104.246094 307.5 103.675781 C 307.925781 103.179688 308.25 102.617188 308.605469 102.066406 C 308.8125 101.746094 309.03125 101.4375 309.25 101.125 C 309.402344 100.910156 309.550781 100.691406 309.707031 100.480469 C 309.761719 100.410156 310.351562 99.625 310.488281 99.867188 C 310.617188 100.089844 310.277344 100.792969 310.203125 101.007812 C 309.925781 101.84375 309.652344 102.746094 310.257812 103.496094 C 311.128906 104.582031 315.070312 105.085938 313.300781 102.230469 Z M 313.300781 102.230469 " fill-opacity="1" fill-rule="evenodd"/><path fill="#000000" d="M 218.871094 102.484375 C 218.886719 102.449219 218.742188 102.652344 218.726562 102.671875 C 218.625 102.839844 218.527344 103.003906 218.425781 103.171875 C 218.144531 103.640625 217.878906 104.113281 217.621094 104.59375 C 216.882812 105.960938 216.171875 107.339844 215.507812 108.742188 C 213.613281 112.75 211.570312 117.058594 212.160156 121.582031 C 212.316406 122.78125 212.699219 124.035156 213.453125 125.019531 C 213.742188 125.390625 214.109375 125.832031 214.601562 125.945312 C 215.503906 126.152344 216.4375 125.324219 216.984375 124.757812 C 218.300781 123.386719 219.144531 121.601562 219.683594 119.828125 C 219.855469 119.261719 220.167969 118.355469 219.921875 117.769531 C 219.671875 117.175781 218.941406 118.375 218.828125 118.550781 C 218.167969 119.570312 217.09375 121.46875 215.613281 120.199219 C 215.410156 120.027344 215.253906 119.8125 215.128906 119.582031 C 214.390625 118.261719 214.636719 116.570312 214.917969 115.164062 C 215.433594 112.609375 216.582031 110.269531 217.683594 107.910156 C 218.359375 106.460938 220.132812 103.042969 218.871094 102.484375 Z M 218.871094 102.484375 " fill-opacity="1" fill-rule="evenodd"/><path fill="#000000" d="M 284.363281 50.3125 C 284.507812 50.386719 285.203125 50.21875 285.382812 50.210938 C 286.28125 50.167969 287.1875 50.144531 288.089844 50.152344 C 290.917969 50.175781 293.730469 50.433594 296.511719 50.886719 C 297.78125 51.09375 300.023438 51.269531 300.160156 52.800781 C 300.050781 52.75 300.140625 53.023438 300.113281 53.132812 C 300.054688 53.339844 299.988281 53.546875 299.921875 53.75 C 299.71875 54.355469 299.402344 54.925781 299.085938 55.484375 C 298.136719 57.148438 296.773438 58.625 295.488281 60.074219 C 294.445312 61.25 293.355469 62.375 292.234375 63.488281 C 291.71875 64 291.160156 64.730469 290.480469 65.070312 C 289.78125 65.414062 288.808594 65.449219 288.042969 65.570312 C 286.640625 65.792969 285.25 66.050781 283.859375 66.316406 C 282.683594 66.539062 281.515625 66.78125 280.328125 66.96875 C 279.914062 67.035156 279.304688 67.207031 278.882812 67.070312 C 278.433594 66.929688 279.367188 66.378906 279.472656 66.320312 C 280.558594 65.738281 281.71875 65.273438 282.835938 64.75 C 285.527344 63.484375 288.171875 62.078125 290.71875 60.585938 C 291.347656 60.214844 291.976562 59.851562 292.617188 59.5 C 292.703125 59.449219 293.210938 59.261719 293.230469 59.148438 C 293.296875 58.785156 292.128906 58.527344 291.921875 58.46875 C 290.296875 58.015625 288.542969 57.949219 286.855469 57.953125 C 285.003906 57.957031 283.152344 58.109375 281.332031 58.402344 C 280.871094 58.476562 280.417969 58.582031 279.957031 58.636719 C 279.84375 58.652344 279.59375 58.699219 279.515625 58.578125 C 279.40625 58.402344 279.558594 58.042969 279.636719 57.882812 C 279.925781 57.289062 280.277344 56.71875 280.640625 56.160156 C 280.984375 55.636719 281.316406 55.109375 281.652344 54.585938 C 282.199219 53.722656 283.816406 51.175781 284.363281 50.3125 Z M 284.363281 50.3125 " fill-opacity="1" fill-rule="evenodd"/><path fill="#000000" d="M 123.460938 39.773438 C 123.550781 39.84375 123.660156 39.652344 123.761719 39.597656 C 124.136719 39.394531 124.507812 39.1875 124.882812 38.984375 C 126.40625 38.15625 127.933594 37.339844 129.492188 36.558594 C 136.078125 33.273438 143.15625 30.300781 150.277344 27.992188 C 152.203125 27.367188 154.128906 26.738281 156.0625 26.140625 C 156.503906 26.003906 156.945312 25.851562 157.398438 25.738281 C 157.425781 25.730469 157.789062 25.625 157.816406 25.683594 C 157.859375 25.773438 157.621094 26.046875 157.574219 26.117188 C 157.308594 26.519531 157.035156 26.917969 156.769531 27.320312 C 156.363281 27.941406 156.089844 28.851562 155.558594 29.390625 C 155.292969 29.660156 154.441406 29.785156 154.085938 29.914062 C 152.914062 30.335938 151.746094 30.773438 150.585938 31.21875 C 143.234375 34.027344 136.050781 37.183594 128.855469 40.273438 C 127.144531 41.007812 125.417969 41.726562 123.746094 42.519531 C 123.523438 42.621094 122.355469 43.363281 122.074219 43.230469 C 121.875 43.136719 122.066406 42.671875 122.109375 42.550781 C 122.335938 41.886719 123.144531 40.40625 123.460938 39.773438 Z M 123.460938 39.773438 " fill-opacity="1" fill-rule="evenodd"/><path fill="#000000" d="M 128.929688 71.625 L 133 66.542969 L 139.640625 71.730469 L 135.730469 76.863281 Z M 128.929688 71.625 " fill-opacity="1" fill-rule="evenodd"/><g clip-path="url(#4761b98313)"><path fill="#000000" d="M 176.867188 23.230469 C 177.894531 23.652344 179.53125 25.878906 180.496094 26.480469 C 180.695312 26.601562 181.425781 27.128906 181.679688 26.988281 C 181.910156 26.859375 181.667969 26.316406 181.609375 26.160156 C 181.269531 25.234375 180.796875 24.339844 180.347656 23.457031 C 178.894531 20.566406 177.375 17.683594 175.792969 14.859375 C 175.375 14.117188 174.933594 13.382812 174.5 12.652344 C 174.398438 12.480469 174.210938 11.972656 174 11.90625 C 173.347656 11.703125 172.511719 13.503906 172.285156 13.882812 C 171.804688 14.691406 170.515625 16.183594 170.730469 17.1875 C 170.875 17.871094 172.25 19.003906 172.707031 19.503906 C 172.449219 20.632812 179.628906 63.148438 179.648438 67.789062 C 179.597656 67.75 179.21875 68.203125 179.164062 68.253906 C 178.824219 68.589844 178.472656 68.910156 178.082031 69.1875 C 176.972656 69.976562 175.789062 70.597656 174.46875 70.96875 C 171.988281 71.664062 169.34375 71.945312 166.785156 72.203125 C 165.519531 72.332031 163.773438 72.164062 162.695312 72.949219 C 160.863281 74.28125 160.078125 77.617188 159.203125 79.621094 C 159.09375 79.882812 159.78125 79.664062 160.066406 79.6875 C 160.746094 79.742188 161.421875 79.792969 162.09375 79.847656 C 164.089844 80 166.089844 80.152344 168.082031 80.324219 C 174.246094 80.847656 180.4375 81.339844 186.542969 82.328125 C 186.238281 82.3125 185.324219 83.109375 185.035156 83.285156 C 183.679688 84.109375 182.300781 84.894531 180.894531 85.632812 C 177.242188 87.554688 173.46875 89.332031 169.566406 90.703125 C 167.652344 91.375 165.546875 92.164062 163.488281 92.039062 C 161.121094 91.894531 159.125 90 157.957031 88.078125 C 157.503906 87.332031 157.152344 86.535156 156.9375 85.695312 C 156.898438 85.550781 156.847656 84.953125 156.613281 84.953125 C 155.910156 84.953125 154.890625 87.625 154.617188 88.113281 C 153.203125 90.65625 151.734375 93.320312 148.351562 92.75 C 146.105469 92.371094 144.492188 90.882812 144.308594 88.617188 C 144.234375 87.714844 144.359375 86.824219 144.558594 85.941406 C 144.585938 85.824219 144.769531 85.230469 144.554688 85.167969 C 144.292969 85.085938 143.828125 85.636719 143.691406 85.789062 C 142.820312 86.695312 142.0625 87.726562 141.300781 88.714844 C 138.945312 91.753906 136.945312 94.441406 132.738281 94.566406 C 129.808594 94.652344 127.425781 93.046875 127.160156 90.023438 C 127.117188 89.492188 127.757812 86.21875 127.207031 86.019531 C 126.28125 85.683594 124.933594 87.234375 124.40625 87.746094 C 122.144531 89.933594 120.105469 92.257812 117.046875 93.363281 C 114.261719 94.371094 111.390625 94.039062 109.140625 92.078125 C 108.226562 91.28125 107.507812 90.363281 106.789062 89.398438 C 106.679688 89.25 106.285156 88.542969 106.027344 88.660156 C 105.578125 88.859375 105.566406 90.179688 105.492188 90.566406 C 105.160156 92.320312 104.746094 94.058594 104.367188 95.800781 C 104.34375 95.714844 104.640625 96.097656 104.664062 96.132812 C 104.835938 96.417969 104.996094 96.710938 105.140625 97.011719 C 105.59375 97.945312 105.964844 98.917969 106.363281 99.875 C 107.519531 102.683594 108.730469 105.765625 108.730469 108.847656 C 106.523438 110.230469 104.523438 112.328125 102.460938 113.925781 C 97.742188 117.582031 92.351562 121.0625 86.515625 122.617188 C 82.753906 123.617188 78.382812 124 75.011719 121.679688 C 69.617188 117.96875 70.480469 110.363281 71.558594 104.859375 C 71.914062 103.03125 72.335938 101.214844 72.800781 99.410156 C 72.847656 99.21875 73.441406 96.726562 73.378906 96.738281 C 72.722656 96.882812 72.042969 98.265625 71.742188 98.757812 C 70.359375 100.988281 69.289062 103.515625 68.554688 106.023438 C 66.074219 114.484375 67.300781 127.582031 78.070312 129.246094 C 81.867188 129.832031 85.707031 128.898438 89.222656 127.523438 C 95.179688 125.191406 100.679688 121.601562 105.398438 117.332031 C 107.664062 115.28125 110.953125 112.59375 112.117188 109.65625 C 112.941406 107.597656 111.964844 104.371094 111.546875 102.308594 C 111.476562 101.921875 110.722656 99.945312 110.890625 99.609375 C 111 99.394531 111.226562 99.960938 111.414062 100.109375 C 111.777344 100.390625 112.183594 100.597656 112.605469 100.765625 C 113.988281 101.3125 115.164062 101.179688 116.460938 100.488281 C 118.308594 99.503906 119.792969 97.925781 121.039062 96.28125 C 121.390625 95.820312 122.304688 93.898438 122.867188 93.71875 C 122.96875 93.683594 123.582031 95.847656 123.664062 96.035156 C 124.332031 97.566406 125.335938 98.808594 126.9375 99.421875 C 133.25 101.84375 138.351562 96.929688 142.03125 92.582031 C 142.582031 95.011719 144.039062 99.5625 147.398438 99.234375 C 149.542969 99.027344 151.445312 97.179688 152.792969 95.683594 C 153.785156 94.585938 154.6875 93.421875 155.523438 92.207031 C 155.660156 92.007812 156.210938 90.945312 156.507812 90.9375 C 156.691406 90.929688 156.792969 92.699219 156.820312 92.851562 C 157.035156 94.050781 157.398438 95.578125 158.378906 96.398438 C 160.875 98.472656 165.304688 97.152344 168.070312 96.484375 C 168.078125 96.691406 168.457031 96.328125 168.65625 96.253906 C 169.058594 96.101562 169.460938 95.941406 169.867188 95.789062 C 171.03125 95.34375 172.195312 94.882812 173.347656 94.398438 C 177.011719 92.855469 180.671875 91.292969 184.359375 89.804688 C 190.34375 87.390625 196.449219 85.257812 202.632812 83.425781 C 204.46875 82.882812 206.308594 82.359375 208.140625 81.816406 C 208.609375 81.679688 209.722656 81.582031 210.074219 81.203125 C 210.53125 80.703125 210.714844 78.789062 210.726562 78.121094 C 210.726562 78.019531 207.824219 78.347656 207.539062 78.363281 C 205.148438 78.492188 202.742188 78.605469 200.351562 78.496094 C 193 78.148438 185.742188 77.007812 178.5625 75.429688 C 178.59375 75.582031 178.273438 75.332031 178.125 75.285156 C 178.019531 75.253906 177.195312 74.964844 177.214844 74.949219 C 178.292969 73.882812 179.660156 73.023438 180.785156 71.984375 C 181.25 71.554688 181.859375 71.09375 182.148438 70.515625 C 182.5 69.820312 182.484375 68.945312 182.488281 68.191406 C 182.308594 68.230469 182.5 67.832031 182.5 67.652344 C 182.5 67.292969 182.5 66.929688 182.488281 66.566406 C 182.449219 65.40625 182.367188 64.246094 182.289062 63.085938 C 182.066406 59.910156 177.621094 32.46875 176.867188 23.230469 Z M 176.867188 23.230469 " fill-opacity="1" fill-rule="evenodd"/></g><path fill="#000000" d="M 139.640625 72.199219 L 143.710938 67.117188 L 150.351562 72.304688 L 146.441406 77.441406 Z M 139.640625 72.199219 " fill-opacity="1" fill-rule="evenodd"/><path fill="#000000" d="M 133.097656 62.851562 L 137.167969 57.765625 L 143.808594 62.953125 L 139.898438 68.089844 Z M 133.097656 62.851562 " fill-opacity="1" fill-rule="evenodd"/><path fill="#000000" d="M 192.109375 25.554688 C 192.484375 25.0625 192.703125 24.398438 193 23.867188 C 193.707031 22.601562 194.449219 21.339844 195.351562 20.164062 C 195.328125 20.214844 195.457031 20.359375 195.484375 20.40625 C 195.601562 20.621094 195.703125 20.84375 195.804688 21.070312 C 196.261719 22.070312 196.738281 23.0625 197.183594 24.070312 C 198.339844 26.679688 199.570312 29.265625 200.664062 31.898438 C 200.945312 32.582031 201.222656 33.273438 201.457031 33.972656 C 201.671875 34.613281 201.886719 35.300781 201.742188 35.976562 C 201.71875 36.082031 201.683594 36.359375 201.554688 36.417969 C 201.484375 36.445312 201.371094 36.359375 201.324219 36.324219 C 201.125 36.183594 200.9375 36.019531 200.757812 35.863281 C 200.125 35.304688 199.507812 34.746094 198.90625 34.160156 C 198.742188 34.003906 198.019531 33.296875 197.976562 33.921875 C 197.972656 33.980469 197.976562 34.042969 197.980469 34.105469 C 197.992188 34.195312 198.011719 34.285156 198.039062 34.375 C 198.242188 34.332031 198.082031 34.730469 198.101562 34.910156 C 198.132812 35.222656 198.15625 35.535156 198.183594 35.847656 C 198.257812 36.8125 198.3125 37.777344 198.386719 38.742188 C 198.625 41.707031 198.890625 44.664062 199.257812 47.621094 C 200.34375 56.441406 200.746094 66.347656 201.769531 75.167969 C 201.796875 75.175781 201.824219 75.53125 201.828125 75.554688 C 201.886719 75.992188 201.957031 76.433594 202.015625 76.871094 C 202.269531 78.722656 202.390625 80.589844 202.515625 82.457031 C 202.777344 86.277344 203.230469 90.082031 203.273438 93.914062 C 203.296875 95.675781 203.347656 97.488281 202.964844 99.234375 C 202.503906 101.320312 201.605469 103.457031 200.34375 105.285156 C 200.019531 105.757812 199.65625 106.195312 199.238281 106.605469 C 199.179688 106.664062 198.921875 107 198.816406 106.898438 C 198.484375 106.582031 198.914062 105.324219 198.945312 104.964844 C 199.105469 103.222656 199.027344 101.476562 198.988281 99.734375 C 198.9375 97.777344 198.902344 95.820312 198.820312 93.863281 C 198.679688 90.625 198.453125 87.402344 198.140625 84.171875 C 198.320312 84.253906 198.09375 83.820312 198.074219 83.644531 C 198.046875 83.34375 198.011719 83.046875 197.976562 82.746094 C 197.871094 81.746094 197.773438 80.746094 197.679688 79.742188 C 197.394531 76.773438 197.089844 73.796875 196.921875 70.820312 C 196.410156 61.789062 195.640625 52.757812 194.75 43.75 C 194.824219 43.730469 194.734375 43.617188 194.730469 43.550781 C 194.714844 43.273438 194.6875 43 194.664062 42.726562 C 194.574219 41.636719 194.503906 40.546875 194.414062 39.460938 C 194.164062 36.347656 193.902344 33.238281 193.597656 30.128906 C 193.523438 29.355469 193.453125 28.578125 193.382812 27.804688 C 193.355469 27.472656 193.390625 26.941406 193.199219 26.636719 C 193.03125 26.371094 192.375 25.734375 192.109375 25.554688 Z M 192.109375 25.554688 " fill-opacity="1" fill-rule="evenodd"/><path fill="#000000" d="M 122.117188 129 C 122.105469 129.039062 122.25 128.835938 122.261719 128.8125 C 122.363281 128.648438 122.464844 128.480469 122.5625 128.316406 C 122.84375 127.847656 123.109375 127.371094 123.367188 126.894531 C 124.109375 125.527344 124.820312 124.148438 125.480469 122.746094 C 127.378906 118.734375 129.421875 114.425781 128.832031 109.90625 C 128.675781 108.707031 128.292969 107.449219 127.535156 106.46875 C 127.246094 106.097656 126.878906 105.65625 126.386719 105.542969 C 125.488281 105.332031 124.554688 106.160156 124.007812 106.730469 C 122.691406 108.101562 121.84375 109.886719 121.304688 111.660156 C 121.132812 112.222656 120.824219 113.132812 121.070312 113.71875 C 121.320312 114.3125 122.050781 113.113281 122.164062 112.933594 C 122.824219 111.914062 123.894531 110.015625 125.378906 111.285156 C 125.578125 111.457031 125.734375 111.675781 125.863281 111.902344 C 126.601562 113.226562 126.355469 114.917969 126.070312 116.324219 C 125.558594 118.878906 124.40625 121.214844 123.308594 123.578125 C 122.632812 125.027344 120.859375 128.445312 122.117188 129 Z M 122.117188 129 " fill-opacity="1" fill-rule="evenodd"/><path fill="#000000" d="M 92.195312 50.3125 C 92.339844 50.386719 93.035156 50.21875 93.214844 50.210938 C 94.113281 50.167969 95.019531 50.144531 95.921875 50.152344 C 98.75 50.175781 101.5625 50.433594 104.34375 50.886719 C 105.613281 51.09375 107.855469 51.269531 107.992188 52.800781 C 107.882812 52.75 107.972656 53.023438 107.945312 53.132812 C 107.890625 53.339844 107.824219 53.546875 107.753906 53.75 C 107.550781 54.355469 107.238281 54.925781 106.917969 55.484375 C 105.972656 57.148438 104.605469 58.625 103.320312 60.074219 C 102.277344 61.25 101.1875 62.375 100.070312 63.488281 C 99.554688 64 98.996094 64.730469 98.3125 65.070312 C 97.617188 65.414062 96.640625 65.449219 95.875 65.570312 C 94.472656 65.792969 93.082031 66.050781 91.691406 66.316406 C 90.515625 66.539062 89.347656 66.78125 88.164062 66.96875 C 87.746094 67.035156 87.136719 67.207031 86.714844 67.070312 C 86.265625 66.929688 87.199219 66.378906 87.304688 66.320312 C 88.390625 65.738281 89.550781 65.273438 90.667969 64.75 C 93.359375 63.484375 96.003906 62.078125 98.554688 60.585938 C 99.179688 60.214844 99.8125 59.851562 100.449219 59.5 C 100.535156 59.449219 101.042969 59.261719 101.0625 59.148438 C 101.132812 58.785156 99.960938 58.527344 99.753906 58.46875 C 98.128906 58.015625 96.375 57.949219 94.6875 57.953125 C 92.835938 57.957031 90.984375 58.109375 89.164062 58.402344 C 88.707031 58.476562 88.25 58.582031 87.792969 58.636719 C 87.675781 58.652344 87.425781 58.699219 87.347656 58.578125 C 87.238281 58.402344 87.390625 58.042969 87.46875 57.882812 C 87.757812 57.289062 88.109375 56.71875 88.472656 56.160156 C 88.816406 55.636719 89.152344 55.109375 89.484375 54.585938 C 90.03125 53.722656 91.648438 51.175781 92.195312 50.3125 Z M 92.195312 50.3125 " fill-opacity="1" fill-rule="evenodd"/><path fill="#000000" d="M 77.5 63.53125 C 77.53125 63.472656 77.261719 63.769531 77.234375 63.804688 C 77.050781 64.042969 76.863281 64.285156 76.679688 64.53125 C 76.160156 65.210938 75.671875 65.902344 75.199219 66.601562 C 73.832031 68.59375 72.519531 70.597656 71.300781 72.640625 C 67.804688 78.484375 64.039062 84.761719 65.125 91.347656 C 65.417969 93.09375 66.117188 94.925781 67.511719 96.355469 C 68.042969 96.898438 68.722656 97.539062 69.632812 97.707031 C 71.292969 98.011719 73.011719 96.804688 74.019531 95.972656 C 76.445312 93.976562 78.003906 91.378906 79 88.792969 C 79.316406 87.972656 79.886719 86.648438 79.4375 85.792969 C 78.976562 84.929688 77.628906 86.675781 77.417969 86.933594 C 76.199219 88.417969 74.226562 91.1875 71.492188 89.335938 C 71.121094 89.085938 70.832031 88.769531 70.597656 88.4375 C 69.238281 86.511719 69.691406 84.046875 70.214844 82 C 71.160156 78.277344 73.28125 74.871094 75.308594 71.433594 C 76.554688 69.320312 79.824219 64.34375 77.5 63.53125 Z M 77.5 63.53125 " fill-opacity="1" fill-rule="evenodd"/><path fill="#000000" d="M 156.0625 48.835938 C 156.050781 48.8125 156.046875 48.882812 156.035156 48.90625 C 156.015625 48.964844 155.992188 49.023438 155.96875 49.082031 C 155.921875 49.183594 155.714844 49.800781 155.539062 49.753906 C 155.222656 49.671875 154.878906 49.167969 154.648438 48.984375 C 154.132812 48.566406 153.554688 48.195312 152.988281 47.824219 C 152.703125 47.640625 152.300781 47.457031 152.148438 47.167969 C 151.996094 46.871094 152.015625 46.492188 152.003906 46.175781 C 151.96875 45.230469 152.0625 43.421875 153.4375 43.105469 C 154.457031 42.871094 155.492188 43.515625 156.199219 44.046875 C 157.519531 45.042969 158.351562 46.425781 159.019531 47.777344 C 159.875 49.503906 160.550781 51.300781 161.125 53.105469 C 161.136719 53.152344 161.152344 53.011719 161.164062 52.964844 C 161.1875 52.875 161.210938 52.785156 161.230469 52.695312 C 161.289062 52.445312 161.347656 52.191406 161.398438 51.9375 C 161.566406 51.136719 161.726562 50.335938 161.9375 49.542969 C 162.503906 47.429688 163.167969 45.367188 164.386719 43.441406 C 164.90625 42.621094 165.75 41.65625 167.015625 41.878906 C 167.734375 42.003906 168.105469 42.519531 168.519531 42.972656 C 169.050781 43.554688 169.742188 44.460938 169.660156 45.242188 C 169.609375 45.710938 169.320312 46.195312 169.109375 46.621094 C 168.929688 46.984375 168.726562 47.421875 168.375 47.695312 C 168.058594 47.9375 167.644531 47.328125 167.507812 47.167969 C 167.042969 46.625 166.03125 45.261719 165.109375 45.980469 C 164.566406 46.402344 164.308594 47.042969 164.078125 47.613281 C 163.660156 48.65625 163.347656 49.730469 163.046875 50.804688 C 163.027344 50.882812 162.957031 51.117188 162.941406 51.1875 C 162.828125 51.59375 162.710938 52 162.601562 52.410156 C 162.167969 54.011719 161.640625 55.601562 160.976562 57.144531 C 160.828125 57.492188 160.675781 57.835938 160.484375 58.167969 C 160.449219 58.222656 160.34375 58.472656 160.226562 58.445312 C 160.097656 58.417969 160.074219 58.078125 160.054688 57.996094 C 159.953125 57.550781 159.835938 57.109375 159.738281 56.664062 C 159.628906 56.191406 159.523438 55.71875 159.378906 55.253906 C 159.128906 54.453125 158.867188 53.644531 158.570312 52.855469 C 158.121094 51.675781 156.949219 49.511719 156.0625 48.835938 Z M 156.0625 48.835938 " fill-opacity="1" fill-rule="evenodd"/><path fill="#000000" d="M 107.375 73.53125 C 107.363281 73.507812 107.363281 73.578125 107.351562 73.601562 C 107.328125 73.660156 107.308594 73.71875 107.28125 73.777344 C 107.238281 73.878906 107.03125 74.496094 106.855469 74.453125 C 106.539062 74.367188 106.195312 73.867188 105.960938 73.679688 C 105.445312 73.261719 104.867188 72.890625 104.300781 72.519531 C 104.019531 72.335938 103.613281 72.152344 103.464844 71.863281 C 103.308594 71.566406 103.328125 71.191406 103.320312 70.871094 C 103.28125 69.925781 103.378906 68.121094 104.753906 67.804688 C 105.773438 67.570312 106.808594 68.210938 107.515625 68.746094 C 108.832031 69.738281 109.664062 71.121094 110.335938 72.476562 C 111.1875 74.199219 111.867188 75.996094 112.4375 77.800781 C 112.453125 77.847656 112.46875 77.707031 112.480469 77.664062 C 112.5 77.574219 112.523438 77.484375 112.546875 77.394531 C 112.605469 77.140625 112.660156 76.886719 112.714844 76.632812 C 112.882812 75.832031 113.039062 75.03125 113.253906 74.242188 C 113.816406 72.125 114.480469 70.0625 115.699219 68.140625 C 116.222656 67.316406 117.0625 66.355469 118.332031 66.574219 C 119.050781 66.699219 119.421875 67.214844 119.835938 67.667969 C 120.367188 68.253906 121.054688 69.15625 120.972656 69.9375 C 120.925781 70.40625 120.632812 70.890625 120.421875 71.316406 C 120.246094 71.679688 120.042969 72.117188 119.691406 72.390625 C 119.371094 72.636719 118.960938 72.027344 118.820312 71.863281 C 118.359375 71.320312 117.34375 69.957031 116.421875 70.679688 C 115.882812 71.101562 115.621094 71.738281 115.394531 72.308594 C 114.976562 73.351562 114.660156 74.429688 114.363281 75.5 C 114.339844 75.578125 114.273438 75.8125 114.253906 75.882812 C 114.144531 76.289062 114.023438 76.699219 113.914062 77.105469 C 113.484375 78.707031 112.953125 80.296875 112.292969 81.839844 C 112.140625 82.1875 111.988281 82.53125 111.796875 82.863281 C 111.765625 82.917969 111.65625 83.167969 111.542969 83.140625 C 111.410156 83.113281 111.390625 82.773438 111.371094 82.691406 C 111.269531 82.246094 111.152344 81.804688 111.050781 81.359375 C 110.945312 80.890625 110.839844 80.414062 110.695312 79.953125 C 110.445312 79.148438 110.183594 78.339844 109.882812 77.550781 C 109.4375 76.375 108.265625 74.207031 107.375 73.53125 Z M 107.375 73.53125 " fill-opacity="1" fill-rule="evenodd"/><path fill="#000000" d="M 178.898438 106.894531 C 178.832031 106.84375 178.671875 106.84375 178.59375 106.824219 C 178.347656 106.765625 178.101562 106.710938 177.855469 106.660156 C 176.667969 106.421875 175.398438 106.417969 174.226562 106.789062 C 173.867188 106.90625 173.527344 107.066406 173.226562 107.3125 C 173.058594 107.453125 172.839844 107.738281 172.605469 107.609375 C 172.367188 107.480469 172.460938 107.144531 172.519531 106.925781 C 172.679688 106.285156 172.988281 105.675781 173.316406 105.125 C 173.605469 104.644531 173.964844 104.195312 174.421875 103.902344 C 174.828125 103.644531 175.285156 103.53125 175.746094 103.449219 C 176.523438 103.316406 177.324219 103.304688 178.113281 103.375 C 178.132812 103.34375 178.25 103.359375 178.277344 103.359375 C 178.4375 103.359375 178.597656 103.367188 178.757812 103.378906 C 179.425781 103.425781 180.269531 103.558594 180.703125 104.1875 C 181.03125 104.667969 180.902344 105.257812 180.773438 105.792969 C 180.71875 106.003906 180.539062 106.847656 180.066406 107.699219 C 179.542969 108.636719 178.710938 109.589844 178.421875 109.898438 C 177.371094 111.023438 175.914062 112.160156 174.941406 113.359375 C 174.4375 113.980469 173.945312 114.757812 174.066406 115.625 C 174.027344 115.671875 174.125 115.867188 174.140625 115.910156 C 174.265625 116.199219 174.410156 116.433594 174.621094 116.660156 C 175.417969 117.5 176.695312 117.742188 177.75 117.78125 C 179.523438 117.847656 181.449219 117.429688 183.074219 116.667969 C 183.679688 116.378906 184.269531 116.066406 184.839844 115.699219 C 185.054688 115.558594 185.425781 115.21875 185.703125 115.265625 C 185.871094 115.292969 185.761719 115.605469 185.730469 115.707031 C 185.59375 116.152344 185.335938 116.515625 185.042969 116.859375 C 183.996094 118.105469 182.796875 119.234375 181.320312 119.808594 C 181.320312 119.808594 181.324219 119.8125 181.324219 119.8125 C 181.1875 119.855469 181.046875 119.953125 180.914062 120.011719 C 180.519531 120.183594 180.117188 120.347656 179.710938 120.464844 C 178.390625 120.851562 176.953125 120.878906 175.613281 120.585938 C 174.949219 120.441406 174.253906 120.195312 173.726562 119.703125 C 173.683594 119.664062 173.605469 119.558594 173.570312 119.511719 C 173.445312 119.347656 173.328125 119.1875 173.226562 119.011719 C 172.96875 118.5625 172.832031 118.058594 172.769531 117.539062 C 172.519531 115.375 173.324219 113.128906 174.550781 111.453125 C 175.03125 110.796875 175.609375 110.234375 176.167969 109.65625 C 176.839844 108.964844 178.210938 107.566406 178.898438 106.894531 Z M 178.898438 106.894531 " fill-opacity="1" fill-rule="evenodd"/></svg>