<svg xmlns="http://www.w3.org/2000/svg" xmlns:xlink="http://www.w3.org/1999/xlink" width="500" zoomAndPan="magnify" viewBox="0 0 375 157.92" height="200" preserveAspectRatio="xMidYMid meet" version="1.0"><defs><clipPath id="0a231049e3"><path d="M 355 72 L 374.902344 72 L 374.902344 79 L 355 79 Z M 355 72 " clip-rule="nonzero"/></clipPath><clipPath id="7fefc555f3"><path d="M 0.09375 77 L 20 77 L 20 84 L 0.09375 84 Z M 0.09375 77 " clip-rule="nonzero"/></clipPath><clipPath id="bd46f8c12b"><path d="M 127 123 L 140 123 L 140 139.992188 L 127 139.992188 Z M 127 123 " clip-rule="nonzero"/></clipPath><clipPath id="d27b4f6373"><path d="M 184 10.308594 L 196 10.308594 L 196 79 L 184 79 Z M 184 10.308594 " clip-rule="nonzero"/></clipPath><clipPath id="c1cc2cb047"><path d="M 63 10.308594 L 199 10.308594 L 199 127 L 63 127 Z M 63 10.308594 " clip-rule="nonzero"/></clipPath></defs><path fill="#000000" d="M 225.558594 42.636719 L 229.523438 37.675781 L 235.988281 42.738281 L 232.179688 47.75 Z M 225.558594 42.636719 " fill-opacity="1" fill-rule="evenodd"/><path fill="#000000" d="M 107.15625 72.417969 L 111.125 67.457031 L 117.589844 72.519531 L 113.78125 77.53125 Z M 107.15625 72.417969 " fill-opacity="1" fill-rule="evenodd"/><path fill="#000000" d="M 117.589844 72.582031 L 121.554688 67.621094 L 128.019531 72.683594 L 124.210938 77.695312 Z M 117.589844 72.582031 " fill-opacity="1" fill-rule="evenodd"/><path fill="#000000" d="M 96.726562 95.289062 L 100.691406 90.328125 L 107.160156 95.390625 L 103.351562 100.402344 Z M 96.726562 95.289062 " fill-opacity="1" fill-rule="evenodd"/><path fill="#000000" d="M 60.976562 77.617188 L 64.941406 72.65625 L 71.410156 77.71875 L 67.601562 82.734375 Z M 60.976562 77.617188 " fill-opacity="1" fill-rule="evenodd"/><path fill="#000000" d="M 71.40625 76.894531 L 75.375 71.933594 L 81.839844 76.992188 L 78.03125 82.007812 Z M 71.40625 76.894531 " fill-opacity="1" fill-rule="evenodd"/><path fill="#000000" d="M 315.292969 83.433594 C 315.402344 83.402344 315.835938 82.578125 315.921875 82.457031 C 316.625 81.445312 317.308594 80.414062 318.0625 79.441406 C 318.230469 79.21875 318.652344 78.402344 319 78.414062 C 319.378906 78.429688 319.417969 79.644531 319.460938 79.890625 C 319.753906 81.636719 319.988281 83.414062 320.019531 85.1875 C 320.074219 88.515625 319.765625 92.914062 316.820312 95.089844 C 312.1875 98.507812 305.734375 93.648438 305.734375 88.441406 C 305.742188 88.445312 304.695312 89.875 304.632812 89.984375 C 303.628906 91.707031 302.96875 93.605469 301.9375 95.308594 C 299.328125 99.621094 293.144531 101.492188 289.207031 97.613281 C 287.078125 95.519531 286.335938 91.875 286.464844 88.984375 C 285.433594 90.5625 284.257812 92.121094 282.765625 93.308594 C 282.503906 93.511719 280.714844 94.355469 280.714844 94.355469 C 280.714844 94.355469 281.039062 95.777344 281.09375 96.339844 C 281.230469 97.800781 281.398438 99.179688 281.230469 100.761719 C 281.207031 100.921875 281.078125 101.371094 281.035156 101.484375 C 280.730469 102.226562 280.292969 102.957031 279.832031 103.609375 C 277.765625 106.523438 275.03125 109.101562 272.453125 111.558594 C 271.085938 112.859375 269.691406 114.140625 268.238281 115.34375 C 261.527344 120.882812 251.605469 127.101562 242.773438 122.269531 C 241.515625 121.582031 240.402344 120.667969 239.464844 119.585938 C 238.273438 118.214844 237.367188 116.625 236.773438 114.917969 C 235.257812 110.574219 235.382812 105.746094 236.539062 101.339844 C 236.957031 99.757812 237.484375 98.160156 238.285156 96.726562 C 238.335938 96.644531 239.175781 95.296875 239.332031 95.585938 C 239.539062 95.957031 239.089844 96.90625 238.992188 97.261719 C 238.546875 98.875 238.074219 100.46875 237.835938 102.125 C 237.054688 107.539062 237.511719 113.425781 242.429688 116.722656 C 243.21875 117.25 244.085938 117.691406 244.984375 117.996094 C 248.207031 119.09375 251.730469 118.617188 254.917969 117.65625 C 261.613281 115.636719 267.445312 110.8125 272.75 106.449219 C 274.074219 105.363281 275.359375 104.234375 276.640625 103.09375 C 277.480469 102.347656 278.46875 101.574219 279.011719 100.566406 C 279.742188 99.203125 278.734375 95.515625 278.734375 95.515625 C 278.734375 95.515625 277.617188 96.164062 277.523438 96.207031 C 276.292969 96.769531 275.480469 97.015625 274.171875 97.382812 C 270.234375 98.484375 264.957031 98.347656 263.230469 93.882812 C 261.699219 89.929688 264.207031 85.238281 266.929688 82.445312 C 267.960938 81.386719 269.5625 79.875 271.199219 80.109375 C 275.765625 80.761719 277.855469 85.726562 279.742188 89.222656 C 279.738281 89.21875 280.03125 89.121094 280.105469 89.082031 C 280.394531 88.941406 280.671875 88.765625 280.9375 88.589844 C 281.703125 88.082031 282.445312 87.550781 283.179688 87.003906 C 284.570312 85.957031 285.824219 84.773438 287.144531 83.640625 C 287.351562 83.460938 288.125 82.59375 288.460938 82.742188 C 288.636719 82.816406 288.628906 83.214844 288.644531 83.367188 C 288.710938 84.015625 288.644531 84.671875 288.640625 85.324219 C 288.628906 87.472656 289 89.671875 290.367188 91.410156 C 292.4375 94.046875 296.273438 93.726562 298.910156 92.097656 C 302.953125 89.605469 304.253906 85.140625 306.21875 81.15625 C 306.289062 81.011719 306.472656 81.6875 306.484375 81.730469 C 306.679688 82.464844 306.808594 83.21875 307.011719 83.953125 C 307.546875 85.921875 308.113281 88.226562 310.171875 89.128906 C 310.898438 89.445312 311.707031 89.523438 312.496094 89.527344 C 313.074219 89.527344 313.648438 89.484375 314.21875 89.363281 C 314.621094 89.277344 314.992188 89.140625 315.355469 88.949219 C 317.582031 87.78125 316.128906 85.207031 315.292969 83.433594 Z M 274.128906 90.382812 C 272.746094 90.660156 270.769531 91.265625 269.34375 91.351562 C 268.789062 91.386719 268.105469 91.425781 267.617188 91.109375 C 267.09375 90.769531 267.09375 90.078125 267.261719 89.546875 C 267.609375 88.445312 268.445312 87.304688 269.523438 86.816406 C 271.300781 86.003906 273.191406 89.101562 274.128906 90.382812 Z M 274.128906 90.382812 " fill-opacity="1" fill-rule="evenodd"/><path fill="#000000" d="M 242.472656 82.714844 C 242.492188 82.722656 242.449219 82.847656 242.449219 82.859375 C 242.40625 83.035156 242.359375 83.210938 242.3125 83.386719 C 242.097656 84.199219 241.886719 85.011719 241.667969 85.820312 C 241.367188 86.945312 241.121094 88.078125 240.855469 89.210938 C 240.785156 89.496094 240.71875 89.785156 240.640625 90.070312 C 240.621094 90.140625 240.535156 90.3125 240.566406 90.382812 C 240.644531 90.589844 240.851562 90.773438 240.996094 90.933594 C 241.324219 91.289062 241.679688 91.609375 242.027344 91.949219 C 242.0625 91.902344 241.976562 92.066406 241.988281 92.125 C 242.023438 92.296875 242.066406 92.46875 242.113281 92.640625 C 242.230469 93.085938 242.371094 93.523438 242.527344 93.957031 C 242.988281 95.257812 243.46875 96.558594 243.964844 97.84375 C 245.457031 101.707031 247.546875 105.21875 249.175781 109.003906 C 249.171875 108.992188 248.605469 109.511719 248.566406 109.554688 C 248.199219 109.917969 247.859375 110.308594 247.503906 110.679688 C 246.445312 111.785156 245.285156 112.785156 244.128906 113.777344 C 240.414062 116.964844 236.902344 120.246094 232.65625 122.695312 C 231.539062 123.335938 230.433594 124.082031 229.28125 124.648438 C 226.503906 126.011719 223.355469 127.128906 220.273438 127.453125 C 219.242188 127.5625 218.191406 127.570312 217.152344 127.4375 C 213.023438 126.910156 209.082031 124.625 207.011719 120.867188 C 206.410156 119.78125 206 118.585938 205.71875 117.375 C 204.882812 113.789062 205.257812 110.109375 205.871094 106.519531 C 206.4375 103.195312 207.390625 100.179688 208.5625 97.046875 C 208.78125 96.460938 209.726562 94.578125 208.648438 94.226562 C 208.59375 94.207031 208.367188 94.699219 208.351562 94.734375 C 208.039062 95.3125 207.769531 95.914062 207.492188 96.511719 C 206.339844 99.003906 205.226562 101.535156 204.363281 104.148438 C 202.609375 109.453125 201.960938 115.15625 202.660156 120.71875 C 203.210938 125.085938 204.71875 129.003906 208.234375 131.726562 C 212.429688 134.976562 218.160156 135.609375 223.214844 134.328125 C 226.726562 133.4375 230.199219 131.582031 233.21875 129.566406 C 233.226562 129.570312 234.898438 128.386719 235.042969 128.277344 C 236.925781 126.882812 238.8125 125.476562 240.632812 123.996094 C 243.921875 121.324219 247.351562 118.355469 249.546875 114.636719 C 252.148438 110.226562 252.140625 104.566406 250.535156 99.839844 C 250.636719 99.851562 250.460938 99.636719 250.417969 99.542969 C 250.3125 99.3125 250.203125 99.089844 250.097656 98.867188 C 249.816406 98.269531 249.523438 97.679688 249.238281 97.085938 C 248.382812 95.296875 247.308594 93.542969 246.632812 91.667969 C 246.46875 91.21875 246.761719 91.207031 247.179688 91.445312 C 247.6875 91.742188 248.148438 92.144531 248.6875 92.378906 C 248.878906 92.464844 249.179688 92.523438 249.265625 92.257812 C 249.433594 91.726562 248.945312 91.039062 248.6875 90.628906 C 247.839844 89.28125 243.621094 84.136719 242.472656 82.714844 Z M 242.472656 82.714844 " fill-opacity="1" fill-rule="evenodd"/><path fill="#000000" d="M 255.59375 71.210938 C 255.585938 71.1875 255.582031 71.257812 255.570312 71.277344 C 255.550781 71.335938 255.527344 71.394531 255.503906 71.449219 C 255.460938 71.550781 255.257812 72.152344 255.085938 72.109375 C 254.78125 72.027344 254.445312 71.535156 254.21875 71.355469 C 253.714844 70.945312 253.152344 70.585938 252.601562 70.222656 C 252.328125 70.042969 251.933594 69.867188 251.785156 69.582031 C 251.636719 69.292969 251.65625 68.925781 251.644531 68.617188 C 251.609375 67.691406 251.703125 65.929688 253.042969 65.621094 C 254.035156 65.390625 255.042969 66.019531 255.730469 66.539062 C 257.015625 67.507812 257.824219 68.859375 258.476562 70.179688 C 259.308594 71.863281 259.96875 73.617188 260.527344 75.378906 C 260.539062 75.421875 260.554688 75.289062 260.566406 75.242188 C 260.585938 75.15625 260.609375 75.066406 260.628906 74.980469 C 260.6875 74.734375 260.742188 74.484375 260.792969 74.238281 C 260.957031 73.457031 261.113281 72.675781 261.320312 71.902344 C 261.867188 69.839844 262.515625 67.824219 263.703125 65.949219 C 264.210938 65.144531 265.03125 64.207031 266.261719 64.421875 C 266.964844 64.542969 267.324219 65.046875 267.730469 65.492188 C 268.246094 66.058594 268.917969 66.941406 268.839844 67.703125 C 268.789062 68.160156 268.507812 68.632812 268.300781 69.050781 C 268.128906 69.402344 267.929688 69.828125 267.585938 70.097656 C 267.277344 70.335938 266.875 69.742188 266.742188 69.582031 C 266.289062 69.050781 265.304688 67.722656 264.40625 68.425781 C 263.878906 68.835938 263.625 69.460938 263.402344 70.019531 C 262.996094 71.035156 262.691406 72.085938 262.398438 73.132812 C 262.378906 73.207031 262.3125 73.4375 262.292969 73.503906 C 262.1875 73.902344 262.070312 74.300781 261.964844 74.699219 C 261.542969 76.261719 261.027344 77.8125 260.382812 79.320312 C 260.238281 79.65625 260.089844 79.996094 259.902344 80.316406 C 259.871094 80.371094 259.765625 80.613281 259.652344 80.589844 C 259.523438 80.5625 259.503906 80.230469 259.484375 80.152344 C 259.386719 79.71875 259.273438 79.285156 259.175781 78.851562 C 259.070312 78.390625 258.96875 77.929688 258.828125 77.476562 C 258.585938 76.691406 258.328125 75.90625 258.039062 75.132812 C 257.601562 73.984375 256.460938 71.871094 255.59375 71.210938 Z M 255.59375 71.210938 " fill-opacity="1" fill-rule="evenodd"/><path fill="#000000" d="M 250.886719 42.539062 C 250.875 42.519531 250.871094 42.585938 250.863281 42.609375 C 250.839844 42.667969 250.820312 42.722656 250.792969 42.78125 C 250.753906 42.882812 250.550781 43.484375 250.378906 43.4375 C 250.070312 43.359375 249.734375 42.867188 249.511719 42.683594 C 249.007812 42.277344 248.445312 41.914062 247.894531 41.554688 C 247.617188 41.375 247.222656 41.195312 247.078125 40.914062 C 246.925781 40.625 246.945312 40.257812 246.933594 39.945312 C 246.902344 39.023438 246.992188 37.261719 248.332031 36.953125 C 249.324219 36.722656 250.332031 37.347656 251.023438 37.871094 C 252.304688 38.839844 253.117188 40.191406 253.769531 41.511719 C 254.597656 43.191406 255.257812 44.945312 255.816406 46.707031 C 255.832031 46.753906 255.84375 46.617188 255.855469 46.574219 C 255.878906 46.484375 255.902344 46.398438 255.921875 46.308594 C 255.976562 46.0625 256.035156 45.816406 256.085938 45.566406 C 256.25 44.789062 256.402344 44.007812 256.609375 43.234375 C 257.160156 41.171875 257.804688 39.15625 258.992188 37.277344 C 259.5 36.476562 260.320312 35.535156 261.554688 35.75 C 262.257812 35.871094 262.617188 36.378906 263.019531 36.820312 C 263.539062 37.390625 264.207031 38.269531 264.128906 39.035156 C 264.082031 39.492188 263.796875 39.964844 263.59375 40.378906 C 263.417969 40.734375 263.222656 41.160156 262.878906 41.425781 C 262.570312 41.667969 262.167969 41.070312 262.03125 40.914062 C 261.582031 40.382812 260.59375 39.054688 259.695312 39.757812 C 259.171875 40.167969 258.917969 40.792969 258.695312 41.347656 C 258.289062 42.367188 257.980469 43.417969 257.691406 44.460938 C 257.667969 44.539062 257.601562 44.769531 257.585938 44.835938 C 257.476562 45.234375 257.359375 45.632812 257.253906 46.03125 C 256.835938 47.589844 256.320312 49.144531 255.675781 50.648438 C 255.527344 50.988281 255.378906 51.324219 255.191406 51.648438 C 255.160156 51.703125 255.054688 51.945312 254.945312 51.921875 C 254.816406 51.894531 254.796875 51.5625 254.777344 51.480469 C 254.679688 51.046875 254.5625 50.617188 254.464844 50.183594 C 254.363281 49.722656 254.257812 49.261719 254.117188 48.804688 C 253.875 48.023438 253.621094 47.234375 253.328125 46.464844 C 252.894531 45.316406 251.75 43.199219 250.886719 42.539062 Z M 250.886719 42.539062 " fill-opacity="1" fill-rule="evenodd"/><path fill="#000000" d="M 121.539062 54.007812 C 121.527344 53.984375 121.523438 54.054688 121.515625 54.078125 C 121.492188 54.132812 121.472656 54.191406 121.445312 54.246094 C 121.402344 54.347656 121.199219 54.953125 121.03125 54.90625 C 120.722656 54.824219 120.386719 54.335938 120.160156 54.152344 C 119.65625 53.746094 119.097656 53.382812 118.542969 53.023438 C 118.269531 52.84375 117.875 52.664062 117.730469 52.382812 C 117.578125 52.089844 117.597656 51.722656 117.585938 51.414062 C 117.550781 50.488281 117.644531 48.726562 118.984375 48.417969 C 119.976562 48.191406 120.984375 48.816406 121.675781 49.335938 C 122.957031 50.304688 123.769531 51.65625 124.421875 52.976562 C 125.25 54.660156 125.910156 56.414062 126.46875 58.175781 C 126.480469 58.21875 126.496094 58.085938 126.507812 58.039062 C 126.53125 57.953125 126.550781 57.863281 126.574219 57.777344 C 126.628906 57.53125 126.683594 57.28125 126.738281 57.035156 C 126.898438 56.253906 127.054688 55.472656 127.261719 54.699219 C 127.8125 52.636719 128.457031 50.625 129.644531 48.746094 C 130.152344 47.945312 130.972656 47.003906 132.207031 47.21875 C 132.90625 47.339844 133.269531 47.84375 133.671875 48.289062 C 134.1875 48.855469 134.859375 49.738281 134.78125 50.5 C 134.734375 50.957031 134.449219 51.429688 134.242188 51.847656 C 134.070312 52.199219 133.875 52.628906 133.53125 52.894531 C 133.21875 53.132812 132.820312 52.539062 132.683594 52.378906 C 132.234375 51.851562 131.246094 50.519531 130.347656 51.222656 C 129.820312 51.636719 129.570312 52.257812 129.34375 52.816406 C 128.9375 53.835938 128.632812 54.882812 128.339844 55.929688 C 128.320312 56.007812 128.253906 56.234375 128.238281 56.304688 C 128.128906 56.703125 128.011719 57.097656 127.90625 57.496094 C 127.484375 59.058594 126.96875 60.609375 126.324219 62.117188 C 126.179688 62.453125 126.03125 62.792969 125.84375 63.117188 C 125.8125 63.167969 125.707031 63.410156 125.59375 63.386719 C 125.46875 63.359375 125.445312 63.027344 125.425781 62.949219 C 125.328125 62.515625 125.214844 62.082031 125.117188 61.648438 C 125.015625 61.1875 124.910156 60.726562 124.769531 60.273438 C 124.527344 59.488281 124.269531 58.703125 123.980469 57.929688 C 123.542969 56.78125 122.402344 54.667969 121.539062 54.007812 Z M 121.539062 54.007812 " fill-opacity="1" fill-rule="evenodd"/><path fill="#000000" d="M 244.851562 65.765625 C 244.921875 65.824219 245.003906 65.667969 245.085938 65.625 C 245.375 65.457031 245.660156 65.285156 245.945312 65.117188 C 247.121094 64.433594 248.296875 63.757812 249.5 63.117188 C 254.578125 60.40625 260.035156 57.953125 265.523438 56.046875 C 267.007812 55.53125 268.488281 55.011719 269.980469 54.519531 C 270.324219 54.40625 270.664062 54.28125 271.011719 54.1875 C 271.03125 54.179688 271.3125 54.09375 271.332031 54.140625 C 271.367188 54.214844 271.183594 54.441406 271.144531 54.5 C 270.941406 54.832031 270.730469 55.160156 270.527344 55.492188 C 270.210938 56.003906 270.003906 56.757812 269.59375 57.203125 C 269.386719 57.421875 268.730469 57.527344 268.457031 57.632812 C 267.554688 57.980469 266.65625 58.34375 265.761719 58.707031 C 260.09375 61.023438 254.554688 63.628906 249.007812 66.183594 C 247.691406 66.789062 246.363281 67.378906 245.070312 68.03125 C 244.898438 68.121094 244 68.730469 243.785156 68.621094 C 243.628906 68.542969 243.777344 68.160156 243.808594 68.058594 C 243.984375 67.511719 244.609375 66.292969 244.851562 65.765625 Z M 244.851562 65.765625 " fill-opacity="1" fill-rule="evenodd"/><path fill="#000000" d="M 84.808594 69.628906 C 84.878906 69.6875 84.964844 69.53125 85.042969 69.484375 C 85.332031 69.320312 85.617188 69.148438 85.902344 68.980469 C 87.078125 68.292969 88.253906 67.621094 89.457031 66.976562 C 94.535156 64.265625 99.992188 61.8125 105.480469 59.910156 C 106.964844 59.394531 108.445312 58.871094 109.9375 58.378906 C 110.28125 58.265625 110.621094 58.144531 110.96875 58.050781 C 110.988281 58.042969 111.269531 57.957031 111.289062 58.003906 C 111.324219 58.078125 111.140625 58.304688 111.101562 58.363281 C 110.898438 58.695312 110.6875 59.023438 110.484375 59.355469 C 110.167969 59.867188 109.960938 60.621094 109.550781 61.0625 C 109.347656 61.285156 108.691406 61.386719 108.414062 61.496094 C 107.511719 61.839844 106.613281 62.203125 105.71875 62.570312 C 100.050781 64.886719 94.511719 67.492188 88.964844 70.042969 C 87.648438 70.648438 86.320312 71.242188 85.027344 71.894531 C 84.855469 71.980469 83.957031 72.589844 83.742188 72.484375 C 83.589844 72.40625 83.734375 72.023438 83.769531 71.921875 C 83.941406 71.375 84.566406 70.152344 84.808594 69.628906 Z M 84.808594 69.628906 " fill-opacity="1" fill-rule="evenodd"/><path fill="#000000" d="M 90.222656 46.675781 C 90.402344 46.761719 90.621094 46.527344 90.820312 46.457031 C 91.558594 46.203125 92.289062 45.945312 93.027344 45.691406 C 96.035156 44.65625 99.046875 43.636719 102.125 42.664062 C 115.117188 38.5625 129.078125 34.851562 143.125 31.972656 C 146.925781 31.191406 150.71875 30.40625 154.535156 29.65625 C 155.410156 29.488281 156.28125 29.300781 157.171875 29.15625 C 157.226562 29.148438 157.9375 29.015625 157.996094 29.089844 C 158.082031 29.203125 157.609375 29.542969 157.515625 29.632812 C 156.988281 30.132812 156.453125 30.632812 155.929688 31.132812 C 155.125 31.90625 154.59375 33.046875 153.542969 33.71875 C 153.019531 34.050781 151.339844 34.210938 150.636719 34.371094 C 148.324219 34.894531 146.023438 35.445312 143.734375 35.996094 C 129.230469 39.5 115.058594 43.441406 100.863281 47.300781 C 97.492188 48.21875 94.089844 49.113281 90.785156 50.101562 C 90.347656 50.230469 88.039062 51.15625 87.492188 50.992188 C 87.101562 50.875 87.476562 50.296875 87.558594 50.144531 C 88.003906 49.3125 89.601562 47.46875 90.222656 46.675781 Z M 90.222656 46.675781 " fill-opacity="1" fill-rule="evenodd"/><path fill="#000000" d="M 290.671875 80.890625 C 290.574219 80.746094 291.003906 80.371094 291.050781 80.335938 C 291.574219 79.949219 292.125 79.59375 292.671875 79.230469 C 294.882812 77.765625 297.226562 76.492188 299.457031 75.054688 C 303.375 72.519531 306.992188 69.492188 310.449219 66.441406 C 312.253906 64.847656 314.316406 63.339844 315.765625 61.433594 C 315.585938 61.164062 315.25 60.953125 315 60.742188 C 314.425781 60.25 313.832031 59.777344 313.246094 59.292969 C 312.917969 59.019531 312.550781 58.757812 312.371094 58.371094 C 312.210938 58.023438 312.222656 57.628906 312.269531 57.261719 C 312.523438 55.292969 314.0625 53.238281 315.816406 52.136719 C 316.863281 51.476562 318.367188 51.304688 319.253906 52.308594 C 320.644531 53.886719 319.972656 56.121094 319.285156 57.855469 C 319.136719 58.222656 318.964844 58.578125 318.789062 58.9375 C 318.722656 59.078125 318.5625 59.28125 318.546875 59.441406 C 318.53125 59.625 318.980469 59.851562 319.105469 59.949219 C 319.542969 60.296875 320.035156 60.757812 320.234375 61.269531 C 320.496094 61.9375 319.9375 62.8125 319.617188 63.386719 C 319.527344 63.542969 319.304688 64.011719 319.042969 63.953125 C 318.753906 63.886719 318.46875 63.605469 318.265625 63.421875 C 317.816406 63.015625 317.417969 62.558594 316.960938 62.160156 C 316.960938 62.152344 316.75 62.386719 316.714844 62.425781 C 316.539062 62.628906 316.359375 62.828125 316.179688 63.027344 C 315.671875 63.59375 315.179688 64.171875 314.683594 64.746094 C 313.230469 66.414062 311.691406 68.042969 310.003906 69.511719 C 306.085938 72.917969 301.53125 75.636719 296.800781 77.972656 C 295.582031 78.578125 294.359375 79.175781 293.121094 79.738281 C 292.433594 80.046875 290.867188 81.1875 290.671875 80.890625 Z M 317.765625 58.824219 C 317.773438 58.824219 317.824219 58.601562 317.828125 58.585938 C 317.882812 58.3125 317.945312 58.039062 317.980469 57.761719 C 318.101562 56.769531 317.980469 55.472656 317.136719 54.753906 C 316.464844 54.175781 315.507812 54.246094 314.878906 54.855469 C 314.640625 55.089844 314.445312 55.390625 314.5 55.722656 C 314.566406 56.136719 314.914062 56.488281 315.210938 56.78125 C 315.777344 57.328125 317.148438 58.324219 317.765625 58.824219 Z M 317.765625 58.824219 " fill-opacity="1" fill-rule="evenodd"/><path fill="#000000" d="M 149.328125 72.609375 C 149.230469 72.46875 149.660156 72.089844 149.707031 72.058594 C 150.230469 71.671875 150.785156 71.3125 151.328125 70.953125 C 153.539062 69.488281 155.886719 68.214844 158.113281 66.773438 C 162.03125 64.242188 165.652344 61.214844 169.105469 58.164062 C 170.910156 56.566406 172.976562 55.0625 174.421875 53.15625 C 174.242188 52.886719 173.90625 52.675781 173.65625 52.460938 C 173.082031 51.972656 172.488281 51.5 171.902344 51.015625 C 171.574219 50.742188 171.207031 50.480469 171.027344 50.09375 C 170.867188 49.746094 170.878906 49.351562 170.925781 48.984375 C 171.179688 47.015625 172.71875 44.960938 174.472656 43.859375 C 175.523438 43.199219 177.023438 43.023438 177.910156 44.027344 C 179.300781 45.609375 178.628906 47.84375 177.941406 49.578125 C 177.792969 49.945312 177.621094 50.300781 177.445312 50.65625 C 177.378906 50.800781 177.21875 51.003906 177.203125 51.164062 C 177.1875 51.34375 177.636719 51.574219 177.761719 51.671875 C 178.199219 52.019531 178.691406 52.480469 178.890625 52.992188 C 179.152344 53.660156 178.597656 54.535156 178.273438 55.105469 C 178.183594 55.265625 177.960938 55.734375 177.699219 55.675781 C 177.414062 55.609375 177.125 55.328125 176.921875 55.144531 C 176.476562 54.734375 176.074219 54.28125 175.617188 53.882812 C 175.617188 53.871094 175.40625 54.105469 175.371094 54.148438 C 175.195312 54.347656 175.015625 54.546875 174.835938 54.75 C 174.328125 55.3125 173.835938 55.894531 173.339844 56.46875 C 171.886719 58.136719 170.347656 59.761719 168.660156 61.230469 C 164.742188 64.640625 160.1875 67.359375 155.457031 69.695312 C 154.242188 70.296875 153.015625 70.894531 151.777344 71.457031 C 151.089844 71.769531 149.527344 72.90625 149.328125 72.609375 Z M 176.421875 50.542969 C 176.429688 50.546875 176.480469 50.324219 176.484375 50.304688 C 176.539062 50.03125 176.601562 49.757812 176.636719 49.484375 C 176.757812 48.492188 176.636719 47.195312 175.792969 46.476562 C 175.121094 45.898438 174.164062 45.964844 173.535156 46.578125 C 173.296875 46.8125 173.101562 47.113281 173.15625 47.445312 C 173.222656 47.855469 173.570312 48.210938 173.871094 48.5 C 174.433594 49.050781 175.804688 50.042969 176.421875 50.542969 Z M 176.421875 50.542969 " fill-opacity="1" fill-rule="evenodd"/><path fill="#000000" d="M 215.398438 64.335938 C 215.398438 64.3125 215.382812 64.015625 215.386719 63.929688 C 215.417969 63.605469 215.46875 63.28125 215.507812 62.957031 C 215.609375 62.097656 215.664062 61.230469 215.792969 60.378906 C 215.851562 59.992188 215.902344 59.488281 216.417969 59.640625 C 217.214844 59.882812 217.953125 60.433594 218.667969 60.839844 C 219.945312 61.566406 221.207031 62.3125 222.511719 62.992188 C 223.023438 63.261719 223.550781 63.519531 224.0625 63.800781 C 224.152344 63.851562 224.457031 63.96875 224.441406 64.113281 C 224.425781 64.308594 223.957031 64.316406 223.828125 64.328125 C 223.507812 64.355469 222.066406 64.242188 221.902344 64.535156 C 221.625 65.03125 222.484375 66.027344 222.726562 66.382812 C 223.867188 68.027344 225.277344 69.460938 226.796875 70.765625 C 226.832031 70.761719 227.242188 70.007812 227.289062 69.941406 C 227.808594 69.171875 228.339844 68.410156 228.875 67.644531 C 230.765625 64.902344 232.734375 62.183594 234.78125 59.542969 C 235.269531 58.90625 235.773438 58.277344 236.292969 57.664062 C 236.464844 57.46875 236.691406 57.136719 236.976562 57.09375 C 237.414062 57.035156 237.179688 58.441406 237.152344 58.648438 C 236.953125 60.292969 235.84375 61.835938 235 63.210938 C 234.21875 64.480469 233.410156 65.726562 232.578125 66.964844 C 231.289062 68.890625 230.007812 70.832031 228.671875 72.734375 C 229.1875 73.132812 229.699219 73.976562 230.164062 74.476562 C 231.363281 75.753906 232.976562 77.15625 233.59375 78.839844 C 234.113281 80.261719 234.632812 81.566406 234.792969 83.058594 C 234.964844 84.777344 234.609375 86.867188 233.984375 88.519531 C 232.886719 91.414062 230.007812 93.996094 227.429688 95.601562 C 225.390625 96.875 222.515625 98.105469 220.046875 97.777344 C 216.6875 97.328125 216.617188 92.417969 216.757812 89.925781 C 216.796875 89.316406 216.863281 88.714844 216.964844 88.117188 C 217.113281 87.28125 217.316406 86.460938 217.578125 85.652344 C 217.867188 84.757812 218.214844 83.878906 218.609375 83.027344 C 219.976562 80.085938 221.753906 77.332031 223.8125 74.824219 C 221.09375 72.441406 219.265625 69.105469 217.175781 66.214844 C 216.996094 65.960938 216.78125 65.742188 216.445312 65.796875 C 216.359375 65.8125 215.765625 65.960938 215.566406 65.65625 C 215.320312 65.296875 215.46875 64.46875 215.398438 64.335938 Z M 226.070312 77.519531 C 225.878906 77.515625 225.503906 78.003906 225.386719 78.113281 C 224.734375 78.726562 224.121094 79.390625 223.511719 80.046875 C 223.042969 80.554688 222.585938 81.074219 222.144531 81.613281 C 221.765625 82.078125 221.390625 82.550781 221.046875 83.042969 C 219.613281 85.046875 217.59375 88.839844 220.351562 90.652344 C 223.230469 92.546875 226.925781 90.167969 229.175781 88.371094 C 230.269531 87.5 231.390625 86.53125 231.585938 85.078125 C 231.722656 84.074219 231.320312 83.164062 230.804688 82.328125 C 229.84375 80.765625 227.429688 78.742188 226.070312 77.519531 Z M 215.398438 64.335938 L 215.398438 64.332031 C 215.398438 64.335938 215.398438 64.335938 215.398438 64.335938 Z M 215.398438 64.335938 " fill-opacity="1" fill-rule="evenodd"/><path fill="#000000" d="M 215.125 42.636719 L 219.09375 37.675781 L 225.558594 42.738281 L 221.75 47.75 Z M 215.125 42.636719 " fill-opacity="1" fill-rule="evenodd"/><path fill="#000000" d="M 314.902344 100.539062 C 314.863281 100.441406 315.074219 100.03125 315.105469 99.933594 C 315.328125 99.289062 315.542969 98.644531 315.804688 98.015625 C 315.84375 97.929688 316.03125 97.335938 316.167969 97.359375 C 316.238281 97.367188 316.289062 97.511719 316.3125 97.566406 C 316.425781 97.808594 316.546875 98.046875 316.65625 98.289062 C 317.195312 99.472656 317.265625 100.871094 317.097656 102.152344 C 316.914062 103.578125 316.273438 105.050781 315.015625 105.746094 C 313.175781 106.769531 310.941406 105.328125 310.382812 103.386719 C 309.546875 103.832031 309.191406 105.011719 308.65625 105.898438 C 308.050781 106.894531 307.164062 107.5625 306.050781 107.773438 C 304.21875 108.117188 302.882812 106.695312 301.222656 106.238281 C 300.285156 105.980469 299.335938 106.21875 298.480469 106.652344 C 296.535156 107.628906 294.804688 109.128906 293.078125 110.46875 C 288.804688 113.785156 284.851562 117.550781 280.542969 120.808594 C 276.933594 123.542969 272.824219 125.195312 268.464844 126.269531 C 267.359375 126.542969 266.242188 126.824219 265.125 127.035156 C 265.019531 127.054688 264.164062 127.25 264.140625 127.027344 C 264.121094 126.78125 264.632812 126.53125 264.773438 126.4375 C 265.421875 126.007812 266.082031 125.601562 266.75 125.214844 C 269.582031 123.570312 272.488281 122.082031 275.324219 120.445312 C 280.746094 117.316406 285.835938 113.359375 290.800781 109.480469 C 293.46875 107.386719 296.144531 104.429688 299.421875 103.4375 C 302.003906 102.652344 304.144531 103.847656 306.699219 103.800781 C 306.699219 103.792969 307.027344 103.703125 307.042969 103.695312 C 307.242188 103.617188 307.433594 103.523438 307.617188 103.402344 C 308.222656 103.007812 308.773438 102.507812 309.253906 101.949219 C 309.667969 101.46875 309.984375 100.914062 310.332031 100.378906 C 310.53125 100.066406 310.746094 99.765625 310.957031 99.460938 C 311.105469 99.253906 311.25 99.039062 311.402344 98.832031 C 311.457031 98.761719 312.027344 97.996094 312.164062 98.234375 C 312.289062 98.453125 311.957031 99.136719 311.886719 99.347656 C 311.613281 100.160156 311.351562 101.042969 311.9375 101.773438 C 312.789062 102.835938 316.628906 103.324219 314.902344 100.539062 Z M 314.902344 100.539062 " fill-opacity="1" fill-rule="evenodd"/><path fill="#000000" d="M 222.941406 100.785156 C 222.953125 100.746094 222.8125 100.945312 222.800781 100.96875 C 222.699219 101.128906 222.601562 101.292969 222.507812 101.453125 C 222.230469 101.910156 221.972656 102.375 221.722656 102.84375 C 221.003906 104.175781 220.308594 105.519531 219.664062 106.890625 C 217.816406 110.804688 215.828125 115.007812 216.402344 119.421875 C 216.554688 120.589844 216.925781 121.816406 217.664062 122.773438 C 217.945312 123.136719 218.300781 123.566406 218.78125 123.679688 C 219.660156 123.882812 220.570312 123.074219 221.101562 122.519531 C 222.382812 121.183594 223.207031 119.441406 223.730469 117.707031 C 223.898438 117.160156 224.199219 116.273438 223.960938 115.699219 C 223.71875 115.121094 223.007812 116.292969 222.894531 116.464844 C 222.253906 117.457031 221.210938 119.3125 219.765625 118.074219 C 219.570312 117.90625 219.417969 117.695312 219.292969 117.472656 C 218.574219 116.179688 218.8125 114.53125 219.089844 113.160156 C 219.589844 110.664062 220.710938 108.382812 221.78125 106.078125 C 222.4375 104.664062 224.167969 101.328125 222.941406 100.785156 Z M 222.941406 100.785156 " fill-opacity="1" fill-rule="evenodd"/><path fill="#000000" d="M 286.71875 49.867188 C 286.863281 49.941406 287.539062 49.773438 287.710938 49.765625 C 288.589844 49.726562 289.46875 49.703125 290.347656 49.710938 C 293.105469 49.734375 295.84375 49.984375 298.554688 50.429688 C 299.789062 50.628906 301.972656 50.800781 302.105469 52.292969 C 302 52.242188 302.085938 52.511719 302.058594 52.621094 C 302.003906 52.820312 301.941406 53.023438 301.871094 53.222656 C 301.675781 53.8125 301.367188 54.367188 301.058594 54.914062 C 300.136719 56.539062 298.804688 57.976562 297.554688 59.394531 C 296.539062 60.542969 295.476562 61.636719 294.386719 62.722656 C 293.886719 63.226562 293.34375 63.9375 292.675781 64.265625 C 292 64.601562 291.050781 64.640625 290.304688 64.757812 C 288.941406 64.972656 287.585938 65.226562 286.230469 65.484375 C 285.085938 65.703125 283.945312 65.9375 282.792969 66.121094 C 282.386719 66.183594 281.792969 66.351562 281.382812 66.222656 C 280.949219 66.082031 281.855469 65.542969 281.960938 65.488281 C 283.015625 64.921875 284.144531 64.46875 285.230469 63.957031 C 287.855469 62.71875 290.429688 61.351562 292.910156 59.890625 C 293.523438 59.53125 294.136719 59.175781 294.757812 58.832031 C 294.84375 58.785156 295.335938 58.601562 295.355469 58.492188 C 295.421875 58.136719 294.285156 57.882812 294.082031 57.824219 C 292.5 57.382812 290.789062 57.320312 289.148438 57.324219 C 287.34375 57.328125 285.542969 57.476562 283.765625 57.761719 C 283.320312 57.832031 282.878906 57.933594 282.429688 57.992188 C 282.320312 58.003906 282.074219 58.050781 282 57.933594 C 281.890625 57.761719 282.042969 57.410156 282.117188 57.253906 C 282.398438 56.675781 282.742188 56.117188 283.097656 55.570312 C 283.429688 55.0625 283.753906 54.550781 284.082031 54.035156 C 284.613281 53.191406 286.1875 50.710938 286.71875 49.867188 Z M 286.71875 49.867188 " fill-opacity="1" fill-rule="evenodd"/><path fill="#000000" d="M 340.101562 64.824219 C 340.265625 64.023438 339.820312 62.957031 339.617188 62.199219 C 338.980469 59.808594 338.03125 57.511719 337.039062 55.238281 C 334.441406 49.296875 330.683594 43.957031 326.246094 39.09375 C 323.136719 35.691406 319.648438 32.398438 315.507812 30.101562 C 311.613281 27.941406 307.242188 26.480469 302.898438 25.339844 C 301.519531 24.976562 300.144531 24.648438 298.734375 24.410156 C 298.132812 24.304688 297.527344 24.15625 296.917969 24.109375 C 296.898438 24.105469 296.425781 24.101562 296.4375 24.136719 C 296.675781 24.714844 298.636719 25.582031 299.144531 25.941406 C 301.464844 27.566406 303.65625 29.351562 305.691406 31.289062 C 311.617188 36.960938 316.734375 43.535156 320.832031 50.492188 C 322.804688 53.847656 324.53125 57.367188 325.878906 60.988281 C 326.300781 62.132812 326.679688 63.289062 326.992188 64.464844 C 327.128906 64.960938 327.136719 65.792969 327.449219 66.21875 C 328.015625 66.992188 329.253906 67.433594 330.105469 67.839844 C 331.488281 68.492188 334.125 70.066406 334.125 70.066406 C 334.125 70.066406 335.582031 69.167969 336.164062 68.757812 C 337.4375 67.859375 339.214844 66.089844 340.101562 64.824219 Z M 340.101562 64.824219 " fill-opacity="1" fill-rule="evenodd"/><path fill="#000000" d="M 340.101562 85.699219 C 340.265625 86.5 339.820312 87.5625 339.617188 88.324219 C 338.980469 90.710938 338.03125 93.011719 337.039062 95.285156 C 334.441406 101.222656 330.683594 106.566406 326.246094 111.429688 C 323.136719 114.832031 319.648438 118.121094 315.507812 120.421875 C 311.613281 122.582031 307.242188 124.042969 302.898438 125.183594 C 301.519531 125.546875 300.144531 125.871094 298.734375 126.113281 C 298.132812 126.214844 297.527344 126.363281 296.917969 126.414062 C 296.898438 126.414062 296.425781 126.417969 296.4375 126.382812 C 296.675781 125.808594 298.636719 124.9375 299.144531 124.582031 C 301.464844 122.953125 303.65625 121.171875 305.691406 119.230469 C 311.617188 113.558594 316.734375 106.984375 320.832031 100.03125 C 322.804688 96.675781 324.53125 93.152344 325.878906 89.535156 C 326.300781 88.386719 326.679688 87.230469 326.992188 86.054688 C 327.128906 85.5625 327.136719 84.726562 327.449219 84.300781 C 328.015625 83.53125 329.253906 83.085938 330.105469 82.683594 C 331.488281 82.027344 334.125 80.453125 334.125 80.453125 C 334.125 80.453125 335.582031 81.355469 336.164062 81.761719 C 337.4375 82.664062 339.214844 84.433594 340.101562 85.699219 Z M 340.101562 85.699219 " fill-opacity="1" fill-rule="evenodd"/><path fill="#000000" d="M 349.917969 68.957031 L 349.867188 68.933594 C 349.597656 68.835938 349.359375 68.75 349.277344 68.703125 C 348.148438 68.070312 347.25 67.191406 346.566406 66.148438 C 345.730469 64.890625 345.339844 63.46875 344.800781 62.09375 C 344.207031 60.589844 343.441406 59.097656 342.378906 57.832031 C 341.644531 56.964844 340.796875 56.152344 339.878906 55.460938 C 339.574219 55.238281 339.273438 55.027344 338.953125 54.824219 C 338.929688 54.8125 338.617188 54.621094 338.457031 54.503906 C 338.363281 54.433594 338.308594 54.371094 338.273438 54.332031 C 338.164062 54.1875 338.164062 54.050781 338.175781 53.964844 C 338.191406 53.839844 338.25 53.734375 338.347656 53.648438 C 338.484375 53.53125 338.757812 53.429688 339.113281 53.414062 C 339.585938 53.394531 340.253906 53.488281 340.464844 53.496094 C 342.640625 53.582031 344.753906 54.25 346.691406 55.152344 C 349.324219 56.386719 351.414062 58.320312 352.84375 60.730469 C 353.207031 61.339844 353.484375 62.039062 353.796875 62.714844 C 354.078125 63.320312 354.386719 63.910156 354.851562 64.371094 C 355.253906 64.769531 355.773438 65.003906 356.308594 65.21875 C 356.9375 65.472656 357.589844 65.695312 358.15625 66.027344 C 359.816406 67 360.925781 68.710938 361.710938 70.351562 C 362.007812 70.980469 362.390625 71.730469 362.414062 72.429688 C 362.421875 72.625 362.300781 72.808594 362.105469 72.894531 C 360.496094 73.628906 358.828125 74.253906 357.179688 74.910156 C 356.761719 75.078125 356.265625 75.230469 355.800781 75.417969 C 356.125 75.5625 356.445312 75.699219 356.773438 75.839844 C 358.007812 76.375 359.25 76.890625 360.480469 77.449219 C 360.808594 77.601562 361.140625 77.753906 361.472656 77.910156 C 361.582031 77.960938 361.691406 78.011719 361.792969 78.070312 C 361.777344 78.058594 361.734375 78.042969 361.734375 78.042969 C 361.734375 78.042969 361.988281 78.152344 362.054688 78.214844 C 362.199219 78.355469 362.253906 78.527344 362.179688 78.746094 C 361.410156 81.015625 359.925781 83.324219 357.988281 84.863281 C 356.6875 85.898438 355.09375 86.492188 354.003906 87.769531 C 353.105469 88.8125 352.648438 90.109375 351.980469 91.277344 C 351.164062 92.699219 350.105469 93.996094 348.777344 95.03125 C 347.003906 96.40625 345.011719 97.140625 342.738281 97.328125 C 342.046875 97.382812 341.355469 97.417969 340.667969 97.433594 C 340.414062 97.4375 340.164062 97.433594 339.90625 97.417969 C 339.867188 97.414062 339.78125 97.402344 339.707031 97.390625 C 339.546875 97.417969 339.382812 97.378906 339.253906 97.28125 C 339.050781 97.121094 339.042969 96.953125 339.050781 96.871094 C 339.050781 96.675781 339.136719 96.492188 339.398438 96.398438 C 339.445312 96.382812 339.519531 96.363281 339.609375 96.363281 C 342.734375 95.429688 346.148438 93.0625 346.40625 89.761719 C 346.503906 88.535156 346.175781 87.363281 346.082031 86.148438 C 346.027344 85.476562 345.960938 84.71875 346.242188 84.078125 C 346.664062 83.105469 347.503906 82.496094 348.46875 82.035156 C 349.320312 81.632812 350.273438 81.347656 351.0625 80.96875 C 351.210938 80.894531 351.609375 80.730469 351.910156 80.523438 C 351.953125 80.496094 351.996094 80.457031 352.03125 80.421875 C 351.371094 79.824219 350.289062 79.445312 349.507812 79.078125 C 347.519531 78.148438 345.492188 77.300781 343.429688 76.523438 C 342.613281 76.21875 341.800781 75.894531 340.980469 75.613281 C 340.855469 75.570312 340.6875 75.492188 340.519531 75.429688 C 340.488281 75.417969 340.445312 75.40625 340.402344 75.398438 C 340.351562 75.453125 340.285156 75.523438 340.261719 75.546875 C 339.914062 75.890625 339.5625 76.238281 339.210938 76.574219 C 338.101562 77.636719 336.964844 78.667969 335.855469 79.726562 C 335.644531 79.921875 335.355469 80.3125 335.039062 80.613281 C 334.75 80.894531 334.429688 81.101562 334.136719 81.160156 C 333.949219 81.199219 333.675781 81.15625 333.378906 81.015625 C 333.011719 80.835938 332.5625 80.492188 332.382812 80.398438 C 330.835938 79.632812 329.328125 78.78125 327.816406 77.949219 C 326.980469 77.488281 326.164062 77 325.296875 76.585938 C 325.109375 76.496094 324.691406 76.359375 324.410156 76.195312 C 324.195312 76.066406 324.039062 75.914062 323.960938 75.769531 C 323.863281 75.585938 323.867188 75.394531 323.976562 75.207031 C 324.027344 75.109375 324.121094 75.007812 324.246094 74.921875 C 324.390625 74.816406 324.589844 74.726562 324.652344 74.691406 C 325.234375 74.367188 325.820312 74.042969 326.394531 73.699219 C 328.316406 72.546875 330.25 71.402344 332.203125 70.292969 C 332.675781 70.027344 333.148438 69.761719 333.617188 69.480469 C 333.648438 69.464844 333.839844 69.351562 333.910156 69.3125 C 333.972656 69.242188 334.046875 69.183594 334.144531 69.148438 C 334.328125 69.078125 334.53125 69.105469 334.6875 69.222656 C 336.148438 70.34375 338.320312 72.097656 339.765625 73.242188 C 340.128906 73.527344 340.507812 73.796875 340.859375 74.089844 C 340.882812 74.105469 340.945312 74.160156 340.996094 74.207031 C 341.039062 74.183594 341.078125 74.160156 341.117188 74.132812 C 341.300781 74.023438 341.488281 73.902344 341.632812 73.839844 C 342.613281 73.417969 343.550781 72.90625 344.480469 72.390625 C 345.347656 71.914062 346.148438 71.375 346.929688 70.785156 C 347.769531 70.148438 348.691406 69.578125 349.632812 69.085938 C 349.695312 69.050781 349.804688 69.007812 349.917969 68.957031 Z M 340.304688 54.496094 C 340.351562 54.5 340.390625 54.503906 340.425781 54.507812 C 342.441406 54.585938 344.40625 55.214844 346.207031 56.058594 C 348.652344 57.199219 350.582031 58.992188 351.90625 61.222656 C 352.632812 62.449219 353.027344 64.03125 354.070312 65.0625 C 354.574219 65.5625 355.214844 65.878906 355.882812 66.148438 C 356.464844 66.378906 357.0625 66.578125 357.582031 66.882812 C 359.0625 67.75 360.027344 69.300781 360.722656 70.765625 C 360.929688 71.183594 361.199219 71.664062 361.296875 72.140625 C 359.804688 72.800781 358.273438 73.378906 356.753906 73.980469 C 356 74.28125 355.011719 74.566406 354.351562 75.023438 C 354.179688 75.140625 354.132812 75.273438 354.121094 75.378906 C 354.105469 75.5 354.128906 75.617188 354.203125 75.730469 C 354.246094 75.789062 354.320312 75.867188 354.441406 75.925781 C 354.488281 75.949219 354.617188 75.988281 354.652344 76 C 354.777344 76.0625 354.898438 76.125 355.023438 76.183594 C 355.445312 76.382812 355.882812 76.570312 356.316406 76.757812 C 357.550781 77.289062 358.789062 77.804688 360.003906 78.355469 C 360.335938 78.503906 360.660156 78.65625 360.980469 78.808594 L 361.015625 78.828125 C 360.273438 80.796875 358.972656 82.757812 357.292969 84.09375 C 355.9375 85.171875 354.300781 85.808594 353.164062 87.136719 C 352.226562 88.226562 351.730469 89.578125 351.027344 90.800781 C 350.285156 92.109375 349.308594 93.304688 348.089844 94.253906 C 346.492188 95.492188 344.691406 96.152344 342.640625 96.320312 C 342.546875 96.328125 342.441406 96.335938 342.34375 96.34375 C 344.976562 94.96875 347.257812 92.691406 347.480469 89.839844 C 347.582031 88.558594 347.257812 87.339844 347.152344 86.074219 C 347.113281 85.550781 347.015625 84.960938 347.234375 84.460938 C 347.558594 83.722656 348.222656 83.285156 348.960938 82.9375 C 349.808594 82.53125 350.769531 82.246094 351.550781 81.863281 C 351.820312 81.738281 352.6875 81.34375 352.992188 80.929688 C 353.117188 80.761719 353.179688 80.585938 353.179688 80.414062 C 353.179688 80.222656 353.117188 80.023438 352.929688 79.835938 C 352.199219 79.097656 350.917969 78.609375 349.988281 78.171875 C 347.972656 77.234375 345.921875 76.375 343.835938 75.585938 C 343.191406 75.34375 342.546875 75.09375 341.898438 74.859375 C 341.960938 74.816406 342.027344 74.78125 342.082031 74.757812 C 343.09375 74.320312 344.0625 73.792969 345.03125 73.261719 C 345.9375 72.757812 346.78125 72.191406 347.605469 71.570312 C 348.398438 70.972656 349.265625 70.433594 350.160156 69.96875 C 350.324219 69.882812 350.730469 69.730469 350.96875 69.539062 C 351.1875 69.367188 351.304688 69.152344 351.316406 68.945312 C 351.328125 68.769531 351.253906 68.550781 351.019531 68.371094 C 350.730469 68.148438 349.980469 67.917969 349.828125 67.832031 C 348.851562 67.289062 348.078125 66.523438 347.480469 65.617188 C 346.6875 64.417969 346.324219 63.058594 345.8125 61.746094 C 345.183594 60.140625 344.355469 58.554688 343.226562 57.207031 C 342.4375 56.277344 341.535156 55.414062 340.546875 54.671875 C 340.464844 54.613281 340.386719 54.554688 340.304688 54.496094 Z M 334.332031 70.257812 C 335.769531 71.375 337.730469 72.953125 339.074219 74.015625 C 339.308594 74.199219 339.539062 74.375 339.773438 74.554688 C 339.660156 74.652344 339.535156 74.796875 339.484375 74.851562 C 339.136719 75.191406 338.792969 75.53125 338.445312 75.871094 C 337.335938 76.929688 336.195312 77.957031 335.085938 79.015625 C 334.878906 79.214844 334.582031 79.605469 334.269531 79.90625 C 334.167969 80.007812 334.070312 80.105469 333.964844 80.152344 C 333.882812 80.113281 333.664062 80.003906 333.527344 79.914062 C 333.257812 79.746094 333.011719 79.570312 332.886719 79.507812 C 331.351562 78.746094 329.859375 77.902344 328.363281 77.078125 C 327.507812 76.609375 326.671875 76.109375 325.789062 75.6875 C 325.679688 75.636719 325.503906 75.570312 325.3125 75.496094 C 325.875 75.1875 326.425781 74.878906 326.976562 74.550781 C 328.890625 73.402344 330.8125 72.265625 332.761719 71.160156 C 333.242188 70.886719 333.726562 70.617188 334.199219 70.332031 C 334.222656 70.320312 334.269531 70.292969 334.332031 70.257812 Z M 334.332031 70.257812 " fill-opacity="1" fill-rule="evenodd"/><g clip-path="url(#0a231049e3)"><path fill="#000000" d="M 374.695312 75.746094 L 362.054688 78.214844 L 355.464844 75.421875 L 362.089844 72.496094 Z M 374.695312 75.746094 " fill-opacity="1" fill-rule="evenodd"/></g><path fill="#000000" d="M 34.882812 70.019531 C 34.71875 69.21875 35.164062 68.152344 35.371094 67.394531 C 36.003906 65.003906 36.953125 62.703125 37.945312 60.429688 C 40.542969 54.492188 44.300781 49.148438 48.738281 44.289062 C 51.847656 40.882812 55.335938 37.59375 59.476562 35.296875 C 63.371094 33.132812 67.742188 31.671875 72.085938 30.53125 C 73.464844 30.171875 74.839844 29.84375 76.25 29.601562 C 76.851562 29.5 77.457031 29.351562 78.066406 29.300781 C 78.085938 29.300781 78.558594 29.296875 78.546875 29.332031 C 78.308594 29.90625 76.347656 30.777344 75.839844 31.132812 C 73.519531 32.761719 71.328125 34.542969 69.292969 36.484375 C 63.367188 42.15625 58.25 48.730469 54.152344 55.683594 C 52.179688 59.039062 50.453125 62.5625 49.105469 66.183594 C 48.683594 67.328125 48.304688 68.484375 47.992188 69.660156 C 47.855469 70.152344 47.847656 70.988281 47.535156 71.414062 C 46.96875 72.183594 45.730469 72.628906 44.878906 73.03125 C 43.496094 73.6875 40.859375 75.261719 40.859375 75.261719 C 40.859375 75.261719 39.402344 74.359375 38.820312 73.953125 C 37.546875 73.054688 35.769531 71.28125 34.882812 70.019531 Z M 34.882812 70.019531 " fill-opacity="1" fill-rule="evenodd"/><path fill="#000000" d="M 34.882812 90.890625 C 34.71875 91.691406 35.164062 92.757812 35.371094 93.515625 C 36.003906 95.90625 36.953125 98.203125 37.945312 100.480469 C 40.542969 106.417969 44.300781 111.757812 48.738281 116.621094 C 51.847656 120.027344 55.335938 123.316406 59.476562 125.613281 C 63.371094 127.777344 67.742188 129.234375 72.085938 130.375 C 73.464844 130.738281 74.839844 131.066406 76.25 131.308594 C 76.851562 131.410156 77.457031 131.558594 78.066406 131.605469 C 78.085938 131.609375 78.558594 131.613281 78.546875 131.578125 C 78.308594 131 76.347656 130.132812 75.839844 129.773438 C 73.519531 128.148438 71.328125 126.363281 69.292969 124.425781 C 63.367188 118.753906 58.25 112.179688 54.152344 105.222656 C 52.179688 101.871094 50.453125 98.347656 49.105469 94.726562 C 48.683594 93.582031 48.304688 92.425781 47.992188 91.25 C 47.855469 90.757812 47.847656 89.921875 47.535156 89.496094 C 46.96875 88.722656 45.730469 88.28125 44.878906 87.875 C 43.496094 87.222656 40.859375 85.648438 40.859375 85.648438 C 40.859375 85.648438 39.402344 86.546875 38.820312 86.957031 C 37.546875 87.855469 35.769531 89.628906 34.882812 90.890625 Z M 34.882812 90.890625 " fill-opacity="1" fill-rule="evenodd"/><path fill="#000000" d="M 25.066406 74.152344 L 25.117188 74.128906 C 25.386719 74.027344 25.625 73.941406 25.707031 73.894531 C 26.835938 73.265625 27.734375 72.386719 28.417969 71.339844 C 29.253906 70.082031 29.644531 68.664062 30.183594 67.289062 C 30.777344 65.78125 31.542969 64.289062 32.605469 63.027344 C 33.339844 62.15625 34.1875 61.347656 35.105469 60.65625 C 35.410156 60.433594 35.710938 60.21875 36.03125 60.019531 C 36.054688 60.003906 36.367188 59.816406 36.527344 59.695312 C 36.621094 59.628906 36.675781 59.5625 36.710938 59.523438 C 36.820312 59.378906 36.820312 59.246094 36.808594 59.160156 C 36.792969 59.035156 36.734375 58.929688 36.636719 58.84375 C 36.5 58.726562 36.226562 58.625 35.871094 58.609375 C 35.398438 58.589844 34.730469 58.679688 34.519531 58.691406 C 32.34375 58.777344 30.230469 59.441406 28.292969 60.347656 C 25.660156 61.582031 23.570312 63.515625 22.140625 65.925781 C 21.777344 66.535156 21.503906 67.234375 21.1875 67.910156 C 20.90625 68.515625 20.597656 69.101562 20.132812 69.5625 C 19.730469 69.960938 19.210938 70.199219 18.675781 70.414062 C 18.046875 70.664062 17.394531 70.886719 16.828125 71.21875 C 15.167969 72.195312 14.058594 73.90625 13.273438 75.542969 C 12.976562 76.171875 12.59375 76.921875 12.570312 77.621094 C 12.5625 77.820312 12.683594 78.003906 12.878906 78.089844 C 14.488281 78.820312 16.15625 79.449219 17.808594 80.105469 C 18.222656 80.269531 18.71875 80.421875 19.183594 80.609375 C 18.859375 80.757812 18.539062 80.894531 18.210938 81.035156 C 16.980469 81.570312 15.734375 82.085938 14.503906 82.640625 C 14.175781 82.792969 13.84375 82.945312 13.511719 83.105469 C 13.402344 83.15625 13.292969 83.207031 13.191406 83.261719 C 13.210938 83.253906 13.25 83.238281 13.25 83.238281 C 13.25 83.238281 12.996094 83.347656 12.929688 83.40625 C 12.785156 83.550781 12.730469 83.722656 12.804688 83.941406 C 13.574219 86.210938 15.058594 88.519531 16.996094 90.058594 C 18.296875 91.09375 19.890625 91.683594 20.980469 92.960938 C 21.878906 94.007812 22.335938 95.300781 23.003906 96.472656 C 23.820312 97.894531 24.878906 99.191406 26.207031 100.226562 C 27.980469 101.601562 29.972656 102.335938 32.246094 102.519531 C 32.9375 102.578125 33.628906 102.613281 34.316406 102.625 C 34.570312 102.628906 34.820312 102.628906 35.078125 102.609375 C 35.117188 102.609375 35.203125 102.59375 35.277344 102.582031 C 35.4375 102.613281 35.601562 102.574219 35.730469 102.476562 C 35.933594 102.316406 35.941406 102.148438 35.933594 102.0625 C 35.933594 101.871094 35.847656 101.6875 35.585938 101.589844 C 35.539062 101.574219 35.464844 101.554688 35.375 101.554688 C 32.25 100.625 28.835938 98.253906 28.578125 94.957031 C 28.480469 93.730469 28.808594 92.558594 28.902344 91.34375 C 28.957031 90.671875 29.023438 89.914062 28.742188 89.273438 C 28.320312 88.300781 27.480469 87.691406 26.515625 87.230469 C 25.664062 86.828125 24.710938 86.539062 23.921875 86.160156 C 23.773438 86.089844 23.375 85.925781 23.074219 85.714844 C 23.03125 85.6875 22.988281 85.648438 22.953125 85.617188 C 23.613281 85.019531 24.695312 84.636719 25.476562 84.269531 C 27.464844 83.34375 29.492188 82.496094 31.554688 81.71875 C 32.371094 81.410156 33.183594 81.089844 34.003906 80.804688 C 34.128906 80.765625 34.296875 80.6875 34.46875 80.625 C 34.496094 80.613281 34.542969 80.601562 34.582031 80.589844 C 34.632812 80.648438 34.699219 80.714844 34.722656 80.738281 C 35.074219 81.082031 35.421875 81.429688 35.773438 81.769531 C 36.882812 82.832031 38.019531 83.859375 39.128906 84.917969 C 39.339844 85.117188 39.628906 85.503906 39.945312 85.804688 C 40.234375 86.085938 40.554688 86.292969 40.847656 86.351562 C 41.035156 86.390625 41.308594 86.351562 41.605469 86.207031 C 41.972656 86.03125 42.421875 85.683594 42.601562 85.59375 C 44.148438 84.824219 45.65625 83.976562 47.167969 83.144531 C 48.003906 82.683594 48.820312 82.195312 49.6875 81.78125 C 49.875 81.691406 50.292969 81.554688 50.574219 81.386719 C 50.789062 81.261719 50.945312 81.109375 51.023438 80.960938 C 51.121094 80.777344 51.117188 80.589844 51.007812 80.398438 C 50.957031 80.304688 50.863281 80.203125 50.738281 80.113281 C 50.597656 80.011719 50.394531 79.917969 50.332031 79.882812 C 49.75 79.558594 49.164062 79.238281 48.589844 78.894531 C 46.667969 77.738281 44.734375 76.597656 42.78125 75.488281 C 42.308594 75.21875 41.835938 74.957031 41.367188 74.675781 C 41.335938 74.65625 41.144531 74.546875 41.074219 74.507812 C 41.011719 74.433594 40.9375 74.375 40.839844 74.339844 C 40.65625 74.269531 40.453125 74.300781 40.296875 74.417969 C 38.835938 75.539062 36.664062 77.292969 35.21875 78.4375 C 34.855469 78.722656 34.476562 78.988281 34.125 79.28125 C 34.101562 79.300781 34.039062 79.355469 33.988281 79.402344 C 33.945312 79.378906 33.90625 79.351562 33.867188 79.328125 C 33.683594 79.21875 33.496094 79.097656 33.351562 79.035156 C 32.371094 78.613281 31.433594 78.101562 30.503906 77.585938 C 29.636719 77.105469 28.835938 76.566406 28.054688 75.976562 C 27.214844 75.34375 26.292969 74.773438 25.351562 74.28125 C 25.289062 74.246094 25.179688 74.203125 25.066406 74.152344 Z M 34.679688 59.691406 C 34.632812 59.695312 34.59375 59.699219 34.558594 59.699219 C 32.542969 59.78125 30.578125 60.410156 28.777344 61.25 C 26.332031 62.394531 24.402344 64.1875 23.078125 66.417969 C 22.351562 67.640625 21.957031 69.222656 20.914062 70.257812 C 20.410156 70.757812 19.769531 71.070312 19.101562 71.339844 C 18.519531 71.574219 17.921875 71.769531 17.402344 72.074219 C 15.921875 72.945312 14.957031 74.496094 14.261719 75.957031 C 14.054688 76.378906 13.785156 76.859375 13.6875 77.332031 C 15.179688 77.992188 16.710938 78.570312 18.230469 79.175781 C 18.984375 79.476562 19.972656 79.757812 20.632812 80.21875 C 20.804688 80.332031 20.851562 80.46875 20.863281 80.574219 C 20.878906 80.691406 20.855469 80.808594 20.78125 80.921875 C 20.738281 80.984375 20.664062 81.0625 20.542969 81.121094 C 20.496094 81.140625 20.367188 81.183594 20.332031 81.195312 C 20.207031 81.253906 20.085938 81.316406 19.960938 81.375 C 19.539062 81.578125 19.101562 81.761719 18.667969 81.949219 C 17.433594 82.484375 16.195312 82.996094 14.980469 83.550781 C 14.648438 83.699219 14.324219 83.847656 14.003906 84.003906 L 13.96875 84.019531 C 14.710938 85.988281 16.011719 87.953125 17.691406 89.289062 C 19.046875 90.363281 20.683594 91 21.820312 92.328125 C 22.757812 93.421875 23.253906 94.769531 23.957031 95.996094 C 24.699219 97.300781 25.675781 98.496094 26.894531 99.449219 C 28.492188 100.6875 30.292969 101.347656 32.34375 101.515625 C 32.4375 101.523438 32.542969 101.53125 32.640625 101.539062 C 30.007812 100.164062 27.726562 97.882812 27.503906 95.03125 C 27.402344 93.753906 27.726562 92.53125 27.832031 91.265625 C 27.871094 90.746094 27.96875 90.152344 27.75 89.65625 C 27.425781 88.917969 26.761719 88.480469 26.023438 88.132812 C 25.175781 87.726562 24.214844 87.441406 23.433594 87.058594 C 23.164062 86.929688 22.296875 86.535156 21.992188 86.125 C 21.867188 85.957031 21.804688 85.78125 21.804688 85.605469 C 21.804688 85.414062 21.867188 85.21875 22.054688 85.027344 C 22.785156 84.292969 24.066406 83.800781 24.996094 83.367188 C 27.011719 82.425781 29.0625 81.566406 31.148438 80.78125 C 31.792969 80.539062 32.4375 80.285156 33.085938 80.050781 C 33.023438 80.011719 32.960938 79.976562 32.902344 79.953125 C 31.890625 79.515625 30.921875 78.988281 29.953125 78.457031 C 29.046875 77.953125 28.203125 77.386719 27.378906 76.765625 C 26.585938 76.167969 25.71875 75.628906 24.824219 75.164062 C 24.660156 75.074219 24.253906 74.921875 24.015625 74.734375 C 23.796875 74.558594 23.679688 74.347656 23.667969 74.140625 C 23.65625 73.964844 23.730469 73.746094 23.964844 73.5625 C 24.253906 73.34375 25.003906 73.113281 25.15625 73.027344 C 26.132812 72.480469 26.90625 71.714844 27.503906 70.808594 C 28.296875 69.609375 28.660156 68.25 29.171875 66.941406 C 29.800781 65.335938 30.628906 63.746094 31.757812 62.398438 C 32.546875 61.472656 33.449219 60.605469 34.4375 59.867188 C 34.519531 59.808594 34.597656 59.75 34.679688 59.691406 Z M 40.652344 75.453125 C 39.214844 76.566406 37.253906 78.148438 35.910156 79.207031 C 35.675781 79.390625 35.445312 79.566406 35.210938 79.746094 C 35.324219 79.847656 35.449219 79.988281 35.5 80.042969 C 35.847656 80.382812 36.191406 80.726562 36.539062 81.0625 C 37.648438 82.125 38.789062 83.152344 39.898438 84.210938 C 40.105469 84.410156 40.402344 84.796875 40.714844 85.101562 C 40.816406 85.203125 40.914062 85.300781 41.019531 85.347656 C 41.101562 85.304688 41.320312 85.195312 41.457031 85.109375 C 41.726562 84.9375 41.972656 84.765625 42.097656 84.699219 C 43.632812 83.9375 45.125 83.097656 46.621094 82.273438 C 47.476562 81.804688 48.3125 81.304688 49.195312 80.882812 C 49.304688 80.828125 49.480469 80.765625 49.671875 80.6875 C 49.109375 80.378906 48.558594 80.070312 48.007812 79.746094 C 46.09375 78.59375 44.171875 77.457031 42.222656 76.351562 C 41.742188 76.078125 41.257812 75.8125 40.785156 75.523438 C 40.761719 75.511719 40.714844 75.484375 40.652344 75.453125 Z M 40.652344 75.453125 " fill-opacity="1" fill-rule="evenodd"/><g clip-path="url(#7fefc555f3)"><path fill="#000000" d="M 0.289062 80.941406 L 12.929688 83.40625 L 19.519531 80.617188 L 12.894531 77.691406 Z M 0.289062 80.941406 " fill-opacity="1" fill-rule="evenodd"/></g><path fill="#000000" d="M 144.351562 41.589844 C 144.496094 41.660156 145.171875 41.496094 145.34375 41.488281 C 146.222656 41.445312 147.101562 41.421875 147.980469 41.429688 C 150.738281 41.457031 153.472656 41.707031 156.183594 42.148438 C 157.417969 42.351562 159.605469 42.523438 159.738281 44.015625 C 159.628906 43.964844 159.71875 44.234375 159.691406 44.339844 C 159.636719 44.542969 159.570312 44.742188 159.503906 44.941406 C 159.308594 45.53125 159 46.089844 158.691406 46.632812 C 157.769531 48.257812 156.4375 49.699219 155.1875 51.117188 C 154.171875 52.261719 153.109375 53.359375 152.019531 54.445312 C 151.519531 54.945312 150.972656 55.660156 150.308594 55.988281 C 149.628906 56.324219 148.683594 56.363281 147.9375 56.480469 C 146.570312 56.695312 145.21875 56.945312 143.863281 57.203125 C 142.71875 57.421875 141.578125 57.660156 140.425781 57.84375 C 140.019531 57.90625 139.425781 58.074219 139.015625 57.941406 C 138.578125 57.804688 139.488281 57.265625 139.589844 57.210938 C 140.644531 56.644531 141.777344 56.1875 142.863281 55.675781 C 145.488281 54.441406 148.0625 53.070312 150.542969 51.613281 C 151.15625 51.253906 151.769531 50.898438 152.390625 50.550781 C 152.476562 50.503906 152.96875 50.324219 152.988281 50.210938 C 153.054688 49.859375 151.914062 49.601562 151.714844 49.546875 C 150.132812 49.105469 148.421875 49.039062 146.777344 49.042969 C 144.976562 49.050781 143.175781 49.199219 141.398438 49.480469 C 140.953125 49.554688 140.511719 49.65625 140.0625 49.710938 C 139.949219 49.726562 139.707031 49.773438 139.632812 49.65625 C 139.523438 49.484375 139.675781 49.132812 139.75 48.976562 C 140.03125 48.394531 140.371094 47.839844 140.726562 47.292969 C 141.0625 46.78125 141.386719 46.269531 141.714844 45.757812 C 142.246094 44.914062 143.820312 42.429688 144.351562 41.589844 Z M 144.351562 41.589844 " fill-opacity="1" fill-rule="evenodd"/><path fill="#000000" d="M 197.839844 25.632812 C 198.15625 25.171875 198.316406 24.558594 198.554688 24.0625 C 199.128906 22.878906 199.730469 21.699219 200.480469 20.589844 C 200.464844 20.636719 200.589844 20.761719 200.613281 20.800781 C 200.734375 20.988281 200.835938 21.1875 200.941406 21.382812 C 201.40625 22.265625 201.890625 23.136719 202.347656 24.019531 C 203.53125 26.320312 204.78125 28.589844 205.90625 30.910156 C 206.199219 31.511719 206.484375 32.121094 206.734375 32.738281 C 206.964844 33.308594 207.195312 33.917969 207.097656 34.535156 C 207.082031 34.632812 207.066406 34.886719 206.953125 34.941406 C 206.890625 34.976562 206.785156 34.902344 206.742188 34.871094 C 206.550781 34.753906 206.375 34.617188 206.203125 34.484375 C 205.601562 34.015625 205.011719 33.542969 204.441406 33.046875 C 204.285156 32.914062 203.589844 32.316406 203.585938 32.878906 C 203.585938 32.933594 203.59375 32.992188 203.601562 33.046875 C 203.613281 33.128906 203.636719 33.207031 203.667969 33.285156 C 203.851562 33.238281 203.726562 33.605469 203.753906 33.769531 C 203.800781 34.046875 203.835938 34.328125 203.875 34.609375 C 203.996094 35.476562 204.097656 36.34375 204.214844 37.210938 C 204.589844 39.882812 204.984375 42.535156 205.472656 45.191406 C 206.925781 53.097656 207.816406 62.03125 209.210938 69.945312 C 209.234375 69.949219 209.28125 70.269531 209.285156 70.289062 C 209.363281 70.683594 209.445312 71.074219 209.523438 71.46875 C 209.851562 73.128906 210.058594 74.808594 210.273438 76.488281 C 210.710938 79.925781 211.324219 83.339844 211.570312 86.800781 C 211.679688 88.390625 211.824219 90.027344 211.570312 91.625 C 211.265625 93.53125 210.570312 95.511719 209.527344 97.230469 C 209.257812 97.671875 208.953125 98.089844 208.597656 98.480469 C 208.546875 98.539062 208.335938 98.855469 208.230469 98.769531 C 207.914062 98.503906 208.234375 97.34375 208.246094 97.015625 C 208.296875 95.433594 208.136719 93.859375 208.003906 92.289062 C 207.855469 90.523438 207.722656 88.757812 207.542969 86.992188 C 207.242188 84.074219 206.863281 81.171875 206.410156 78.269531 C 206.578125 78.339844 206.351562 77.957031 206.324219 77.800781 C 206.28125 77.53125 206.234375 77.261719 206.1875 76.992188 C 206.039062 76.09375 205.894531 75.195312 205.757812 74.296875 C 205.34375 71.625 204.910156 68.957031 204.597656 66.273438 C 203.65625 58.144531 202.476562 50.023438 201.195312 41.933594 C 201.261719 41.910156 201.175781 41.8125 201.167969 41.75 C 201.136719 41.503906 201.097656 41.257812 201.0625 41.011719 C 200.925781 40.03125 200.800781 39.050781 200.664062 38.074219 C 200.269531 35.273438 199.871094 32.480469 199.429688 29.6875 C 199.320312 28.992188 199.214844 28.292969 199.113281 27.597656 C 199.066406 27.300781 199.074219 26.816406 198.882812 26.550781 C 198.71875 26.320312 198.089844 25.78125 197.839844 25.632812 Z M 197.839844 25.632812 " fill-opacity="1" fill-rule="evenodd"/><g clip-path="url(#bd46f8c12b)"><path fill="#000000" d="M 133.386719 126.9375 C 133.324219 126.890625 133.179688 126.890625 133.109375 126.871094 C 132.886719 126.820312 132.664062 126.769531 132.441406 126.726562 C 131.363281 126.507812 130.214844 126.503906 129.15625 126.84375 C 128.832031 126.945312 128.519531 127.089844 128.25 127.316406 C 128.097656 127.445312 127.898438 127.699219 127.6875 127.585938 C 127.46875 127.46875 127.558594 127.164062 127.609375 126.964844 C 127.757812 126.386719 128.035156 125.835938 128.332031 125.335938 C 128.59375 124.902344 128.917969 124.492188 129.332031 124.230469 C 129.699219 123.996094 130.113281 123.890625 130.53125 123.820312 C 131.234375 123.699219 131.960938 123.6875 132.671875 123.75 C 132.691406 123.722656 132.796875 123.738281 132.824219 123.738281 C 132.96875 123.738281 133.113281 123.742188 133.257812 123.753906 C 133.859375 123.800781 134.625 123.917969 135.015625 124.484375 C 135.316406 124.921875 135.199219 125.457031 135.078125 125.941406 C 135.03125 126.132812 134.871094 126.894531 134.4375 127.664062 C 133.96875 128.511719 133.214844 129.375 132.949219 129.65625 C 132.003906 130.671875 130.683594 131.703125 129.800781 132.789062 C 129.347656 133.351562 128.902344 134.054688 129.011719 134.839844 C 128.972656 134.882812 129.0625 135.054688 129.078125 135.097656 C 129.191406 135.359375 129.320312 135.574219 129.511719 135.773438 C 130.234375 136.535156 131.386719 136.753906 132.34375 136.789062 C 133.949219 136.851562 135.691406 136.472656 137.160156 135.78125 C 137.710938 135.523438 138.246094 135.238281 138.761719 134.90625 C 138.957031 134.777344 139.292969 134.472656 139.542969 134.515625 C 139.695312 134.539062 139.59375 134.820312 139.566406 134.910156 C 139.445312 135.316406 139.210938 135.644531 138.945312 135.957031 C 138 137.085938 136.910156 138.105469 135.578125 138.628906 C 135.578125 138.625 135.578125 138.628906 135.578125 138.628906 C 135.453125 138.667969 135.328125 138.757812 135.207031 138.808594 C 134.851562 138.964844 134.488281 139.113281 134.117188 139.21875 C 132.925781 139.566406 131.621094 139.59375 130.410156 139.328125 C 129.808594 139.199219 129.179688 138.972656 128.703125 138.53125 C 128.664062 138.492188 128.59375 138.402344 128.558594 138.355469 C 128.449219 138.210938 128.339844 138.0625 128.25 137.902344 C 128.015625 137.5 127.890625 137.042969 127.835938 136.570312 C 127.609375 134.613281 128.339844 132.582031 129.449219 131.0625 C 129.882812 130.46875 130.40625 129.960938 130.914062 129.4375 C 131.519531 128.8125 132.761719 127.542969 133.386719 126.9375 Z M 133.386719 126.9375 " fill-opacity="1" fill-rule="evenodd"/></g><path fill="#000000" d="M 188.40625 105.457031 C 188.394531 105.425781 188.347656 105.476562 188.3125 105.476562 C 188.242188 105.472656 188.167969 105.460938 188.105469 105.417969 C 187.941406 105.3125 187.859375 105.082031 187.824219 104.902344 C 187.710938 104.308594 187.902344 103.683594 188.113281 103.132812 C 188.703125 101.589844 190.203125 99.75 192.015625 99.796875 C 192.183594 99.800781 192.382812 99.9375 192.519531 100.023438 C 192.886719 100.25 193.226562 100.507812 193.542969 100.800781 C 194.550781 101.730469 195.527344 102.695312 196.460938 103.695312 C 196.71875 103.96875 196.960938 104.25 197.1875 104.546875 C 197.292969 104.683594 197.429688 104.847656 197.453125 105.023438 C 197.480469 105.003906 197.453125 105.097656 197.445312 105.132812 C 197.4375 105.207031 197.421875 105.28125 197.402344 105.355469 C 197.355469 105.5625 197.300781 105.765625 197.226562 105.96875 C 197.007812 106.550781 196.75 107.210938 196.296875 107.652344 C 196.265625 107.683594 196.015625 107.691406 195.984375 107.691406 C 195.636719 107.714844 195.289062 107.71875 194.941406 107.734375 C 193.507812 107.789062 192.117188 107.886719 190.742188 108.332031 C 190.742188 108.324219 190.679688 108.347656 190.675781 108.347656 C 190.589844 108.378906 190.503906 108.410156 190.417969 108.441406 C 190.042969 108.578125 189.667969 108.714844 189.308594 108.890625 C 188.21875 109.421875 187.378906 110.460938 187.507812 111.71875 C 187.507812 111.683594 187.503906 111.796875 187.507812 111.835938 C 187.515625 111.917969 187.523438 111.996094 187.53125 112.078125 C 187.566406 112.3125 187.609375 112.542969 187.648438 112.777344 C 187.769531 113.464844 187.933594 114.140625 188.085938 114.820312 C 188.535156 116.839844 189.050781 118.835938 189.648438 120.816406 C 189.605469 120.855469 189.679688 121.042969 189.6875 121.085938 C 189.753906 121.402344 189.816406 121.71875 189.878906 122.039062 C 190.109375 123.285156 190.359375 124.527344 190.558594 125.78125 C 191 128.554688 191.269531 131.402344 190.882812 134.199219 C 190.785156 134.890625 190.59375 135.578125 190.179688 136.148438 C 190.039062 136.34375 189.742188 136.710938 189.480469 136.46875 C 189.140625 136.152344 189.613281 135.085938 189.660156 134.699219 C 189.863281 132.957031 189.976562 131.214844 189.789062 129.464844 C 189.613281 127.816406 189.0625 125.792969 188.6875 124.179688 C 188.5 123.371094 188.222656 122.523438 188.015625 121.71875 C 187.546875 119.886719 187.128906 118.050781 186.730469 116.203125 C 186.296875 114.1875 185.667969 111.894531 186.1875 109.839844 C 186.203125 109.785156 186.234375 109.667969 186.253906 109.613281 C 186.332031 109.40625 186.40625 109.195312 186.488281 108.984375 C 186.703125 108.421875 186.953125 107.886719 187.316406 107.402344 C 188.628906 105.664062 190.945312 105.015625 193 104.707031 C 193.007812 104.734375 192.960938 104.660156 192.941406 104.636719 C 192.902344 104.585938 192.855469 104.539062 192.816406 104.488281 C 192.699219 104.351562 192.582031 104.210938 192.460938 104.082031 C 192.082031 103.671875 191.675781 103.332031 191.121094 103.203125 C 190.53125 103.0625 189.757812 103.273438 189.335938 103.714844 C 188.984375 104.082031 188.570312 104.980469 188.40625 105.457031 Z M 188.40625 105.457031 " fill-opacity="1" fill-rule="evenodd"/><path fill="#000000" d="M 139.125 127.246094 C 139.144531 127.242188 139.714844 127.324219 139.746094 127.324219 C 140.425781 127.324219 141.097656 127.183594 141.765625 127.046875 C 144.273438 126.542969 146.824219 126.214844 149.265625 125.292969 C 149.300781 125.175781 150.082031 124.941406 150.328125 124.828125 C 151.425781 124.324219 152.515625 123.789062 153.605469 123.261719 C 155.738281 122.230469 157.855469 121.171875 159.960938 120.058594 C 161.46875 119.257812 163.039062 118.515625 164.414062 117.351562 C 165.722656 116.242188 167.175781 114.324219 167.15625 112.113281 C 167.15625 112.109375 167.15625 112.109375 167.15625 112.105469 L 167.15625 112.113281 C 167.167969 112.1875 167.398438 112.390625 167.433594 112.425781 C 167.75 112.761719 168.09375 113.089844 168.460938 113.332031 C 169.542969 114.058594 170.710938 114.558594 171.929688 114.632812 C 172.289062 114.652344 172.925781 114.734375 173.195312 114.324219 C 173.203125 114.367188 173.230469 114.246094 173.246094 114.207031 C 173.273438 114.128906 173.296875 114.054688 173.320312 113.976562 C 173.382812 113.757812 173.441406 113.539062 173.488281 113.316406 C 173.652344 112.59375 173.769531 111.863281 173.730469 111.105469 C 173.625 108.96875 172.375 106.03125 170.273438 106.148438 C 170.1875 106.238281 170.050781 106.292969 169.957031 106.363281 C 169.726562 106.539062 169.507812 106.746094 169.304688 106.96875 C 168.578125 107.765625 167.992188 108.796875 167.472656 109.832031 C 167.488281 109.828125 167.433594 109.960938 167.425781 109.980469 C 167.386719 110.09375 167.347656 110.207031 167.304688 110.320312 C 167.191406 110.648438 167.078125 110.972656 166.964844 111.296875 C 166.535156 112.554688 165.800781 113.320312 164.960938 114.089844 C 164.972656 113.957031 164.800781 114.242188 164.71875 114.316406 C 164.539062 114.480469 164.351562 114.625 164.164062 114.773438 C 163.585938 115.214844 162.992188 115.625 162.390625 116 C 160.574219 117.136719 158.703125 118.132812 156.8125 119.019531 C 150.96875 121.753906 145.046875 124.914062 139.125 127.246094 Z M 171.890625 111.707031 C 171.949219 111.445312 171.890625 111.109375 171.851562 110.851562 C 171.804688 110.527344 171.734375 110.183594 171.597656 109.902344 C 171.257812 109.21875 170.597656 109.019531 170.015625 109.089844 C 169.578125 109.140625 169.074219 109.265625 168.945312 109.90625 C 168.921875 110.015625 168.894531 110.179688 168.925781 110.289062 C 168.917969 110.304688 169.03125 110.40625 169.039062 110.414062 C 169.183594 110.550781 169.328125 110.671875 169.484375 110.773438 C 170.117188 111.199219 171.601562 111.75 171.890625 111.707031 Z M 171.890625 111.707031 " fill-opacity="1" fill-rule="evenodd"/><g clip-path="url(#d27b4f6373)"><path fill="#000000" d="M 191.667969 22.851562 C 191.65625 22.933594 192.289062 23.300781 192.378906 23.359375 C 193.03125 23.777344 193.722656 24.175781 194.421875 24.5 C 194.601562 24.582031 195.089844 24.894531 195.203125 24.5625 C 195.46875 23.738281 194.308594 21.957031 193.992188 21.257812 C 192.746094 18.484375 191.484375 15.683594 190.003906 13.027344 C 189.710938 12.496094 188.972656 10.679688 188.308594 10.480469 C 187.679688 10.289062 186.6875 11.578125 186.355469 11.945312 C 185.789062 12.5625 184.816406 13.460938 184.707031 14.351562 C 184.5625 15.519531 186.199219 17.382812 186.847656 18.265625 C 187.980469 19.792969 187.007812 22.207031 187.230469 24.136719 C 188.324219 33.597656 189.5 43.035156 190.964844 52.445312 C 192.304688 61.070312 194.507812 69.675781 195.089844 78.402344 " fill-opacity="1" fill-rule="evenodd"/></g><g clip-path="url(#c1cc2cb047)"><path fill="#000000" d="M 136.988281 83.488281 C 137 83.53125 136.988281 83.488281 136.988281 83.488281 C 136.867188 83.234375 135.945312 83.957031 135.875 84.039062 C 135.675781 84.292969 134.347656 85.628906 133.65625 86.425781 C 131.542969 88.859375 129.648438 91.683594 127.210938 93.796875 C 123.890625 96.664062 120.351562 99.871094 116.152344 101.355469 C 114.5625 101.917969 112.898438 102.1875 111.210938 102.238281 C 110.777344 102.25 109.398438 101.980469 109.066406 102.335938 C 108.636719 102.796875 108.527344 103.71875 108.355469 104.292969 C 107.933594 105.71875 107.5625 107.160156 107.121094 108.578125 C 108.082031 108.773438 109.269531 108.628906 110.25 108.691406 C 112.882812 108.851562 115.5 109.058594 118.125 109.261719 C 121.917969 109.550781 125.699219 109.953125 129.488281 110.296875 C 130.320312 110.371094 131.160156 110.425781 131.996094 110.503906 C 132.0625 110.507812 132.597656 110.503906 132.597656 110.628906 C 132.605469 110.902344 131.582031 111.203125 131.410156 111.273438 C 130.175781 111.777344 128.929688 112.242188 127.699219 112.757812 C 122.945312 114.75 117.164062 118.789062 111.726562 117.828125 C 109.707031 117.472656 108.25 116.308594 107.621094 114.332031 C 107.355469 113.496094 107.273438 112.636719 107.25 111.765625 C 107.246094 111.578125 107.273438 111.03125 106.949219 111.070312 C 106.375 111.140625 105.785156 112.128906 105.488281 112.539062 C 104.425781 113.980469 103.652344 115.617188 102.5625 117.027344 C 102.496094 116.855469 102.308594 117.285156 102.164062 117.398438 C 101.878906 117.632812 101.582031 117.84375 101.28125 118.054688 C 100.328125 118.714844 99.289062 119.207031 98.203125 119.59375 C 95.164062 120.679688 91.558594 120.988281 88.546875 119.640625 C 86.175781 118.582031 84.644531 116.296875 83.535156 114.046875 C 81.066406 109.050781 80.179688 102.375 80.070312 96.828125 C 79.839844 97.015625 80.46875 96.402344 80.667969 96.1875 C 81.023438 95.800781 81.378906 95.414062 81.726562 95.019531 C 82.808594 93.777344 84.003906 92.496094 84.800781 91.046875 C 84.949219 90.777344 85.449219 89.917969 85.15625 89.597656 C 84.816406 89.226562 83.640625 90.179688 83.402344 90.351562 C 81.765625 91.511719 80.261719 92.835938 78.769531 94.167969 C 78.503906 93.78125 78.488281 93 78.371094 92.539062 C 78.011719 91.097656 77.632812 89.648438 76.878906 88.351562 C 76.195312 87.183594 75.425781 87.464844 75.382812 88.789062 C 75.363281 89.21875 75.355469 89.652344 75.347656 90.085938 C 75.34375 90.886719 75.359375 91.6875 75.398438 92.488281 C 75.453125 93.707031 75.585938 94.921875 75.59375 96.140625 C 75.675781 96.074219 75.425781 96.273438 75.335938 96.335938 C 75.210938 96.433594 75.082031 96.527344 74.953125 96.617188 C 74.5625 96.894531 74.183594 97.183594 73.800781 97.476562 C 72.628906 98.378906 71.460938 99.285156 70.328125 100.234375 C 66.960938 103.058594 62.507812 107.832031 63.464844 112.734375 C 63.976562 115.359375 66.605469 116.328125 69.019531 115.90625 C 72.464844 115.304688 75.859375 112.53125 77.871094 109.738281 C 77.640625 110.269531 78.234375 111.617188 78.378906 112.097656 C 79.054688 114.328125 79.945312 116.503906 81.128906 118.515625 C 84.289062 123.875 91.441406 128.339844 97.625 125.191406 C 99.457031 124.257812 100.84375 122.726562 102.074219 121.113281 C 102.894531 120.03125 103.855469 118.726562 104.277344 117.40625 C 105.015625 119.457031 106.019531 122.140625 108.050781 123.265625 C 110.105469 124.410156 112.796875 123.808594 114.9375 123.273438 C 120.054688 121.988281 124.640625 119.300781 129.460938 117.238281 C 129.46875 117.253906 130.070312 117 130.109375 116.984375 C 130.863281 116.679688 131.613281 116.367188 132.367188 116.058594 C 134.414062 115.21875 136.535156 114.515625 138.6875 113.984375 C 141.242188 113.347656 143.824219 113.027344 146.453125 112.914062 C 148.714844 112.816406 151.777344 113.792969 152.65625 111.046875 C 152.828125 110.511719 152.9375 109.941406 153.039062 109.386719 C 153.175781 108.621094 153.316406 107.859375 153.492188 107.101562 C 153.515625 106.988281 153.730469 106.429688 153.648438 106.324219 C 153.390625 106 151.785156 106.210938 151.441406 106.199219 C 149.359375 106.148438 147.289062 106.082031 145.210938 106.039062 C 137.078125 105.867188 128.285156 104.777344 119.96875 103.746094 C 120.308594 103.390625 121.273438 103.121094 121.71875 102.847656 C 123.121094 101.980469 124.46875 101 125.746094 99.960938 C 128.984375 97.328125 131.558594 93.859375 133.722656 90.320312 C 133.746094 90.273438 133.773438 90.226562 133.804688 90.1875 C 133.777344 90.230469 133.75 90.273438 133.722656 90.320312 C 133.339844 91.105469 134 92.765625 134.214844 93.40625 C 135.21875 96.34375 136.878906 99.816406 140.132812 100.691406 C 145.863281 102.230469 150.40625 96.367188 152.453125 91.816406 C 152.453125 91.804688 152.460938 91.796875 152.464844 91.796875 L 152.453125 91.816406 C 152.4375 91.992188 152.726562 93.109375 152.738281 93.152344 C 153.164062 94.625 153.824219 95.988281 154.703125 97.246094 C 156.195312 99.386719 158.242188 100.984375 160.730469 101.789062 C 161.371094 101.996094 162.890625 102.550781 163.449219 101.890625 C 163.910156 101.34375 163.683594 100.222656 163.636719 99.578125 C 163.503906 97.597656 163.351562 95.535156 162.59375 93.675781 C 162.59375 93.675781 162.59375 93.671875 162.59375 93.671875 L 162.59375 93.675781 C 162.640625 93.773438 163.128906 93.835938 163.1875 93.847656 C 163.855469 93.960938 164.53125 93.929688 165.195312 93.859375 C 167.835938 93.574219 170.679688 92.535156 172.558594 90.609375 C 173.527344 89.613281 174.285156 88.429688 174.816406 87.148438 C 175.03125 86.636719 175.199219 86.101562 175.425781 85.597656 C 175.441406 85.558594 175.585938 85.164062 175.660156 85.191406 C 175.792969 85.242188 175.71875 86.339844 175.726562 86.460938 C 175.804688 87.828125 176.035156 89.207031 176.375 90.53125 C 177.222656 93.84375 179.554688 97.183594 183.046875 98.078125 C 183.679688 98.238281 184.816406 98.476562 185.382812 97.996094 C 185.972656 97.496094 186.003906 96.402344 186.125 95.703125 C 186.488281 93.558594 186.632812 91.25 186.34375 89.089844 C 187.230469 89.199219 195.589844 87.546875 197.515625 83.640625 C 199.773438 79.066406 198.53125 71.644531 197.539062 62.878906 C 196.140625 50.542969 193.539062 37.472656 192.707031 32.761719 C 192.277344 30.351562 191.828125 27.949219 191.351562 25.550781 C 191.136719 24.464844 190.527344 22.886719 190.714844 21.742188 C 190.753906 21.527344 191.574219 22.15625 191.652344 22.214844 C 192.417969 22.78125 193.144531 23.390625 193.894531 23.972656 C 193.96875 24.03125 194.582031 24.570312 194.585938 24.210938 C 194.601562 23.214844 193.730469 21.882812 193.347656 21.003906 C 192.230469 18.425781 190.957031 15.886719 189.632812 13.40625 C 189.394531 12.960938 188.316406 10.277344 187.675781 10.324219 C 187.207031 10.359375 186.664062 11.019531 186.355469 11.316406 C 185.910156 11.742188 184.910156 12.449219 184.785156 13.085938 C 184.679688 13.578125 185.246094 14.03125 185.394531 14.457031 C 185.707031 15.304688 185.789062 16.292969 185.882812 17.179688 C 185.988281 18.214844 186.097656 19.246094 186.230469 20.277344 C 186.355469 21.257812 186.492188 22.234375 186.644531 23.210938 C 186.824219 24.382812 187.027344 25.550781 187.242188 26.714844 C 189.328125 38.058594 191.492188 49.367188 193.128906 60.789062 C 193.882812 66.082031 195.011719 73.53125 195.011719 78.902344 C 194.996094 78.804688 194.941406 79.085938 194.902344 79.175781 C 194.820312 79.386719 194.71875 79.59375 194.613281 79.792969 C 194.28125 80.433594 193.832031 81.015625 193.316406 81.519531 C 191.667969 83.132812 189.800781 83.925781 187.519531 84.179688 C 185.046875 84.453125 182.492188 84.074219 180.507812 82.488281 C 179.71875 81.859375 179.066406 81.117188 178.382812 80.386719 C 178.195312 80.1875 177.828125 79.722656 177.496094 79.875 C 177.113281 80.050781 176.917969 80.671875 176.761719 81.019531 C 176.347656 81.945312 175.875 82.839844 175.308594 83.6875 C 173.902344 85.792969 171.808594 87.582031 169.46875 88.574219 C 166.246094 89.945312 162.070312 89.535156 158.988281 87.914062 C 158.042969 87.414062 157.152344 86.789062 156.445312 85.972656 C 156.054688 85.527344 155.6875 85.046875 155.351562 84.5625 C 155.246094 84.414062 155.117188 84.113281 154.902344 84.128906 C 154.507812 84.160156 153.527344 86.113281 153.363281 86.378906 C 152.847656 87.242188 152.300781 88.089844 151.683594 88.882812 C 149.804688 91.316406 147.078125 93.15625 143.96875 93.480469 C 143.296875 93.550781 142.613281 93.546875 141.953125 93.421875 C 137.4375 92.558594 136.578125 87.34375 136.988281 83.488281 Z M 76.613281 99.882812 C 76.140625 100.273438 74.855469 100.921875 74.339844 101.257812 C 73.128906 102.050781 71.964844 102.90625 70.859375 103.839844 C 70.09375 104.488281 69.367188 105.179688 68.730469 105.960938 C 67.910156 106.972656 66.402344 110.140625 68.652344 110.566406 C 69.664062 110.761719 71.265625 110.542969 72.875 109.765625 C 74.867188 108.796875 77.105469 106.929688 77.105469 106.929688 C 77.105469 106.929688 76.867188 101.578125 76.613281 99.882812 Z M 76.613281 99.882812 " fill-opacity="1" fill-rule="evenodd"/></g><path fill="#000000" d="M 73.136719 51.738281 C 73.152344 51.773438 73.125 51.664062 73.113281 51.628906 C 73.085938 51.554688 73.050781 51.480469 73.007812 51.410156 C 72.878906 51.191406 72.707031 50.960938 72.457031 51.140625 C 71.777344 51.617188 71.296875 52.722656 70.917969 53.457031 C 69.691406 55.832031 68.601562 58.273438 67.792969 60.855469 C 67.386719 62.152344 66.925781 63.542969 67.164062 64.933594 C 67.234375 65.355469 67.363281 65.773438 67.550781 66.160156 C 68.882812 68.9375 72.621094 68.667969 74.722656 67.164062 C 77.222656 65.371094 77.09375 60.996094 75.617188 58.566406 C 74.714844 57.078125 73.484375 55.808594 72.132812 54.8125 C 72.082031 54.886719 72.179688 54.636719 72.214844 54.554688 C 72.304688 54.359375 72.398438 54.167969 72.492188 53.980469 C 72.769531 53.425781 73.15625 52.1875 73.136719 51.738281 Z M 70.488281 58.410156 C 70.492188 58.398438 70.492188 58.394531 70.480469 58.40625 L 70.488281 58.410156 C 70.46875 58.441406 70.414062 58.519531 70.390625 58.554688 C 70.335938 58.660156 70.28125 58.761719 70.226562 58.867188 C 70.070312 59.167969 69.925781 59.476562 69.792969 59.789062 C 69.390625 60.734375 69.046875 62.132812 69.496094 63.128906 C 69.722656 63.621094 70.164062 63.875 70.625 64.027344 C 71.597656 64.359375 72.566406 64.148438 73.523438 63.847656 C 73.886719 63.734375 74.40625 63.605469 74.703125 63.328125 C 74.8125 63.226562 74.765625 63.054688 74.714844 62.929688 C 74.578125 62.558594 74.324219 62.246094 74.089844 61.945312 C 73.167969 60.742188 71.585938 59.421875 70.488281 58.410156 Z M 70.488281 58.410156 " fill-opacity="1" fill-rule="evenodd"/></svg>