<svg xmlns="http://www.w3.org/2000/svg" xmlns:xlink="http://www.w3.org/1999/xlink" width="500" zoomAndPan="magnify" viewBox="0 0 375 157.92" height="200" preserveAspectRatio="xMidYMid meet" version="1.0"><defs><clipPath id="5c302edd2c"><path d="M 257 107 L 310 107 L 310 141.351562 L 257 141.351562 Z M 257 107 " clip-rule="nonzero"/></clipPath><clipPath id="3be43b4c56"><path d="M 355 74 L 374.902344 74 L 374.902344 80 L 355 80 Z M 355 74 " clip-rule="nonzero"/></clipPath><clipPath id="34aea89e65"><path d="M 33 89 L 73 89 L 73 141.351562 L 33 141.351562 Z M 33 89 " clip-rule="nonzero"/></clipPath><clipPath id="f258882904"><path d="M 0.09375 80 L 20 80 L 20 86 L 0.09375 86 Z M 0.09375 80 " clip-rule="nonzero"/></clipPath></defs><path fill="#000000" d="M 118.53125 107.507812 C 118.5 107.492188 118.582031 107.464844 118.605469 107.441406 C 118.652344 107.394531 118.695312 107.347656 118.738281 107.300781 C 118.867188 107.148438 118.976562 106.984375 119.070312 106.8125 C 119.351562 106.277344 119.453125 105.730469 119.480469 105.144531 C 119.480469 105.144531 119.480469 105.117188 119.480469 105.117188 C 119.480469 105.078125 119.480469 105.042969 119.480469 105.007812 C 119.476562 104.871094 119.460938 104.738281 119.441406 104.605469 C 119.382812 104.214844 119.246094 103.75 118.875 103.503906 C 118.824219 103.472656 118.726562 103.441406 118.667969 103.429688 C 118.476562 103.375 118.285156 103.355469 118.082031 103.371094 C 117.285156 103.429688 116.625 103.894531 116.042969 104.351562 C 116.042969 104.402344 115.890625 104.515625 115.859375 104.550781 C 115.660156 104.753906 115.457031 104.957031 115.265625 105.167969 C 114.640625 105.859375 114.097656 106.621094 113.679688 107.429688 C 113.691406 107.433594 113.660156 107.449219 113.652344 107.464844 C 113.636719 107.488281 113.621094 107.519531 113.605469 107.546875 C 113.558594 107.636719 113.515625 107.730469 113.476562 107.824219 C 113.363281 108.09375 113.28125 108.371094 113.242188 108.65625 C 113.140625 109.433594 113.503906 110.203125 114.003906 110.820312 C 114.007812 110.820312 114.066406 110.902344 114.074219 110.90625 C 114.160156 111.007812 114.246094 111.101562 114.339844 111.199219 C 114.695312 111.570312 115.105469 111.894531 115.515625 112.21875 C 115.445312 112.386719 115.140625 112.589844 115.011719 112.730469 C 114.644531 113.132812 114.289062 113.550781 113.972656 113.992188 C 112.832031 115.589844 111.996094 117.429688 111.671875 119.3125 C 111.535156 120.09375 111.441406 121.011719 111.824219 121.753906 C 112.015625 122.121094 112.320312 122.421875 112.648438 122.695312 C 113.464844 123.375 114.773438 123.417969 115.871094 123.4375 C 118.371094 123.476562 120.796875 122.578125 122.730469 121.179688 C 123.257812 120.796875 123.683594 120.339844 124.121094 119.878906 C 124.4375 119.550781 124.777344 119.230469 125.046875 118.867188 C 125.191406 118.675781 125.347656 118.46875 125.433594 118.246094 C 125.460938 118.175781 125.507812 118.066406 125.441406 118.003906 C 125.382812 117.949219 125.28125 117.960938 125.207031 117.96875 C 124.984375 117.988281 124.761719 118.054688 124.550781 118.125 C 123.675781 118.40625 122.871094 118.835938 122.011719 119.15625 C 121.496094 119.34375 120.96875 119.507812 120.441406 119.65625 C 118.324219 120.253906 115.570312 120.71875 113.652344 119.386719 C 113.664062 119.394531 113.621094 119.34375 113.617188 119.339844 C 113.59375 119.304688 113.574219 119.265625 113.550781 119.230469 C 113.484375 119.109375 113.4375 118.980469 113.390625 118.851562 C 113.257812 118.476562 113.335938 118.0625 113.476562 117.695312 C 113.910156 116.558594 114.816406 115.570312 115.6875 114.6875 C 116.734375 113.636719 117.820312 112.570312 119.042969 111.6875 C 119.5625 111.3125 120.117188 110.964844 120.675781 110.640625 C 121.09375 110.402344 121.597656 110.15625 121.84375 109.753906 C 122.089844 109.351562 122.101562 108.863281 122.117188 108.417969 C 122.125 108.125 122.164062 107.742188 122.015625 107.46875 C 122.007812 107.453125 121.886719 107.457031 121.878906 107.457031 C 121.714844 107.472656 121.5625 107.511719 121.421875 107.585938 C 121.175781 107.714844 120.980469 107.894531 120.773438 108.070312 C 120.484375 108.316406 120.195312 108.5625 119.898438 108.796875 C 119.597656 109.03125 119.277344 109.28125 118.894531 109.402344 C 118.558594 109.507812 118.195312 109.511719 117.839844 109.488281 C 117.179688 109.449219 116.433594 109.328125 115.875 108.980469 C 115.382812 108.675781 115.070312 107.917969 115.351562 107.40625 C 115.539062 107.070312 115.929688 106.808594 116.265625 106.605469 C 116.542969 106.441406 116.886719 106.234375 117.234375 106.25 C 117.742188 106.269531 118 106.785156 118.195312 107.140625 C 118.253906 107.246094 118.433594 107.425781 118.53125 107.507812 Z M 118.53125 107.507812 " fill-opacity="1" fill-rule="evenodd"/><path fill="#000000" d="M 64.269531 52.53125 C 63.765625 52.925781 63.417969 53.550781 63.09375 54.136719 C 62.53125 55.160156 62.050781 56.234375 61.574219 57.308594 C 60.949219 58.71875 60.355469 60.160156 59.871094 61.636719 C 59.601562 62.457031 59.316406 63.320312 59.261719 64.199219 C 59.179688 65.480469 59.566406 66.96875 60.441406 67.859375 C 61.511719 68.949219 63.402344 69.207031 64.730469 68.609375 C 67.222656 67.492188 68.550781 63.972656 67.855469 61.167969 C 67.464844 59.59375 66.375 58.375 65.246094 57.390625 C 64.832031 57.027344 64.414062 56.683594 63.976562 56.359375 C 63.855469 56.269531 63.546875 56.105469 63.492188 55.933594 C 63.414062 55.675781 63.707031 55.234375 63.804688 55.023438 C 64.089844 54.417969 64.890625 52.792969 64.269531 52.53125 Z M 62.058594 59.324219 C 62.015625 59.3125 61.769531 59.757812 61.757812 59.785156 C 61.589844 60.140625 61.429688 60.5 61.3125 60.878906 C 60.9375 62.070312 60.671875 63.703125 61.871094 64.460938 C 62.898438 65.113281 64.203125 64.898438 65.261719 64.460938 C 65.574219 64.332031 66.339844 64.042969 66.242188 63.539062 C 66.144531 63.027344 65.71875 62.566406 65.414062 62.191406 C 64.535156 61.113281 63.171875 60.089844 62.058594 59.324219 Z M 62.058594 59.324219 " fill-opacity="1" fill-rule="evenodd"/><path fill="#000000" d="M 194.898438 21.714844 C 194.898438 21.714844 194.859375 21.640625 194.859375 21.640625 C 194.832031 21.582031 194.800781 21.523438 194.773438 21.46875 C 194.6875 21.300781 194.589844 21.140625 194.503906 20.972656 C 194.257812 20.511719 193.78125 19.855469 193.886719 19.320312 C 194.023438 18.621094 194.453125 17.902344 194.765625 17.253906 C 195.332031 16.09375 195.914062 14.933594 196.421875 13.75 C 196.40625 13.800781 196.929688 14.574219 196.972656 14.660156 C 197.46875 15.65625 197.898438 16.675781 198.34375 17.691406 C 199.226562 19.714844 199.960938 21.785156 200.746094 23.839844 C 201.367188 25.460938 202.078125 27.0625 202.582031 28.722656 C 202.84375 29.574219 203.007812 30.441406 202.96875 31.324219 C 202.957031 31.5 202.984375 32.039062 202.714844 32.09375 C 202.355469 32.164062 201.902344 31.394531 201.734375 31.199219 C 200.917969 30.238281 200.175781 29.242188 199.3125 28.316406 C 199.242188 28.535156 199.445312 29.003906 199.476562 29.21875 C 199.585938 29.964844 199.660156 30.714844 199.742188 31.464844 C 200.035156 34.046875 200.253906 36.628906 200.46875 39.21875 C 201.007812 45.765625 201.703125 52.320312 202.511719 58.847656 C 202.902344 62 203.484375 65.128906 203.792969 68.292969 C 203.722656 68.316406 203.785156 68.660156 203.785156 68.691406 C 203.808594 69.179688 203.832031 69.667969 203.851562 70.160156 C 203.9375 72.09375 204.105469 74.023438 204.207031 75.960938 C 204.523438 82 205.628906 88.523438 203.230469 94.339844 C 202.738281 95.535156 202.136719 96.703125 201.542969 97.859375 C 201.363281 98.207031 201.160156 98.871094 200.761719 99.078125 C 200.425781 99.25 200.4375 98 200.4375 97.902344 C 200.398438 96.53125 200.390625 95.160156 200.371094 93.789062 C 200.316406 90.460938 200.210938 87.136719 200.128906 83.8125 C 200.035156 80.140625 199.820312 76.480469 199.539062 72.8125 C 199.636719 72.96875 199.496094 72.453125 199.472656 72.277344 C 199.429688 71.886719 199.390625 71.496094 199.351562 71.109375 C 199.21875 69.859375 199.078125 68.609375 198.949219 67.363281 C 198.582031 63.839844 198.210938 60.320312 197.839844 56.796875 C 196.699219 45.957031 195.230469 32.523438 194.898438 21.714844 Z M 194.898438 21.714844 " fill-opacity="1" fill-rule="evenodd"/><path fill="#000000" d="M 247.902344 24.191406 C 247.964844 24.179688 247.875 24.3125 247.863281 24.375 C 247.839844 24.488281 247.816406 24.601562 247.785156 24.714844 C 247.726562 24.921875 247.558594 25.8125 247.195312 25.71875 C 247.015625 25.667969 246.851562 25.46875 246.730469 25.34375 C 246.429688 25.035156 246.148438 24.710938 245.847656 24.402344 C 245.324219 23.867188 244.722656 23.390625 244.085938 22.988281 C 243.746094 22.773438 243.238281 22.59375 243.003906 22.257812 C 242.644531 21.742188 242.855469 20.863281 242.890625 20.292969 C 242.988281 18.75 243.074219 16.070312 245.175781 15.890625 C 246.664062 15.761719 247.746094 16.929688 248.605469 17.949219 C 250.679688 20.414062 252.140625 23.527344 253.113281 26.542969 C 253.492188 27.710938 253.847656 28.882812 254.183594 30.058594 C 254.253906 30.304688 254.3125 30.566406 254.398438 30.808594 C 254.417969 30.859375 254.460938 31.003906 254.546875 30.988281 C 254.734375 30.953125 254.792969 30.394531 254.824219 30.265625 C 254.996094 29.488281 255.222656 28.71875 255.355469 27.933594 C 256.03125 23.863281 256.695312 21.28125 257.777344 18.191406 C 257.90625 17.820312 258.070312 17.324219 258.230469 16.976562 C 258.671875 16.011719 259.253906 15.0625 260.085938 14.367188 C 260.449219 14.0625 260.890625 13.78125 261.375 13.75 C 261.933594 13.710938 262.449219 13.96875 262.890625 14.273438 C 263.835938 14.921875 264.574219 15.847656 264.96875 16.898438 C 265.089844 17.21875 265.253906 17.574219 265.226562 17.921875 C 265.179688 18.59375 264.917969 19.257812 264.722656 19.898438 C 264.597656 20.300781 264.472656 20.707031 264.339844 21.109375 C 264.195312 21.542969 264.050781 21.980469 263.882812 22.40625 C 263.847656 22.496094 263.785156 22.738281 263.664062 22.757812 C 263.570312 22.773438 263.488281 22.628906 263.449219 22.566406 C 263.265625 22.296875 263.117188 22.003906 262.953125 21.71875 C 262.394531 20.75 261.21875 18.800781 259.832031 19.703125 C 258.652344 20.476562 258.070312 22.238281 257.644531 23.476562 C 256.589844 26.539062 256.019531 29.789062 255.601562 32.984375 C 255.59375 32.9375 255.578125 33.082031 255.5625 33.128906 C 255.535156 33.238281 255.503906 33.34375 255.476562 33.449219 C 255.382812 33.792969 255.285156 34.132812 255.183594 34.476562 C 254.816406 35.6875 254.402344 36.878906 253.734375 37.972656 C 253.578125 38.234375 253.410156 38.492188 253.207031 38.722656 C 253.175781 38.753906 253.023438 38.953125 252.960938 38.90625 C 252.765625 38.761719 252.839844 37.964844 252.824219 37.757812 C 252.738281 36.675781 252.613281 35.589844 252.414062 34.523438 C 251.777344 31.15625 249.847656 27.054688 247.902344 24.191406 Z M 247.902344 24.191406 " fill-opacity="1" fill-rule="evenodd"/><path fill="#000000" d="M 123.71875 63.140625 C 123.777344 63.128906 123.691406 63.238281 123.679688 63.285156 C 123.652344 63.378906 123.628906 63.472656 123.597656 63.566406 C 123.542969 63.734375 123.371094 64.457031 123.011719 64.375 C 122.832031 64.335938 122.667969 64.171875 122.546875 64.070312 C 122.246094 63.820312 121.960938 63.558594 121.664062 63.308594 C 121.140625 62.875 120.539062 62.488281 119.902344 62.164062 C 119.5625 61.988281 119.054688 61.84375 118.820312 61.570312 C 118.460938 61.148438 118.671875 60.433594 118.707031 59.972656 C 118.804688 58.71875 118.886719 56.542969 120.992188 56.398438 C 122.480469 56.292969 123.558594 57.242188 124.421875 58.070312 C 126.492188 60.070312 127.957031 62.597656 128.929688 65.050781 C 129.304688 65.996094 129.660156 66.945312 129.996094 67.902344 C 130.070312 68.101562 130.125 68.3125 130.214844 68.511719 C 130.234375 68.554688 130.277344 68.667969 130.363281 68.65625 C 130.546875 68.628906 130.609375 68.175781 130.636719 68.070312 C 130.8125 67.441406 131.039062 66.816406 131.171875 66.175781 C 131.847656 62.871094 132.511719 60.773438 133.59375 58.265625 C 133.722656 57.964844 133.886719 57.5625 134.042969 57.277344 C 134.488281 56.496094 135.070312 55.722656 135.902344 55.160156 C 136.261719 54.914062 136.707031 54.683594 137.191406 54.660156 C 137.75 54.628906 138.265625 54.835938 138.707031 55.082031 C 139.652344 55.609375 140.386719 56.363281 140.785156 57.214844 C 140.90625 57.476562 141.066406 57.765625 141.042969 58.046875 C 140.996094 58.589844 140.734375 59.132812 140.535156 59.652344 C 140.414062 59.980469 140.285156 60.308594 140.152344 60.632812 C 140.011719 60.988281 139.867188 61.34375 139.699219 61.691406 C 139.664062 61.761719 139.601562 61.957031 139.480469 61.976562 C 139.386719 61.988281 139.300781 61.867188 139.261719 61.820312 C 139.082031 61.597656 138.933594 61.359375 138.769531 61.132812 C 138.210938 60.34375 137.03125 58.757812 135.648438 59.492188 C 134.464844 60.121094 133.886719 61.554688 133.460938 62.558594 C 132.402344 65.046875 131.835938 67.683594 131.417969 70.277344 C 131.410156 70.242188 131.390625 70.359375 131.378906 70.394531 C 131.351562 70.484375 131.320312 70.570312 131.292969 70.65625 C 131.199219 70.9375 131.101562 71.210938 131 71.488281 C 130.632812 72.472656 130.21875 73.441406 129.550781 74.328125 C 129.394531 74.542969 129.226562 74.75 129.023438 74.9375 C 128.992188 74.964844 128.839844 75.125 128.777344 75.085938 C 128.582031 74.96875 128.652344 74.324219 128.636719 74.15625 C 128.554688 73.277344 128.429688 72.394531 128.230469 71.527344 C 127.59375 68.792969 125.660156 65.464844 123.71875 63.140625 Z M 123.71875 63.140625 " fill-opacity="1" fill-rule="evenodd"/><path fill="#000000" d="M 251.296875 64.492188 C 251.359375 64.480469 251.269531 64.613281 251.257812 64.675781 C 251.234375 64.789062 251.210938 64.902344 251.179688 65.015625 C 251.121094 65.222656 250.953125 66.113281 250.589844 66.015625 C 250.410156 65.96875 250.246094 65.765625 250.125 65.640625 C 249.824219 65.335938 249.542969 65.011719 249.242188 64.703125 C 248.71875 64.164062 248.117188 63.691406 247.480469 63.289062 C 247.140625 63.074219 246.632812 62.894531 246.398438 62.558594 C 246.039062 62.042969 246.25 61.164062 246.285156 60.59375 C 246.382812 59.046875 246.46875 56.371094 248.570312 56.191406 C 250.058594 56.0625 251.140625 57.230469 252 58.25 C 254.074219 60.710938 255.535156 63.828125 256.507812 66.84375 C 256.886719 68.011719 257.242188 69.179688 257.578125 70.359375 C 257.648438 70.605469 257.707031 70.863281 257.792969 71.109375 C 257.8125 71.160156 257.855469 71.300781 257.941406 71.289062 C 258.128906 71.253906 258.1875 70.695312 258.21875 70.566406 C 258.390625 69.789062 258.621094 69.019531 258.75 68.234375 C 259.425781 64.164062 260.09375 61.582031 261.171875 58.492188 C 261.300781 58.121094 261.464844 57.625 261.625 57.277344 C 262.066406 56.3125 262.648438 55.363281 263.480469 54.667969 C 263.84375 54.363281 264.285156 54.082031 264.769531 54.050781 C 265.328125 54.011719 265.84375 54.269531 266.289062 54.574219 C 267.230469 55.222656 267.96875 56.148438 268.363281 57.199219 C 268.484375 57.519531 268.648438 57.875 268.621094 58.222656 C 268.574219 58.894531 268.3125 59.558594 268.117188 60.199219 C 267.992188 60.601562 267.867188 61.007812 267.734375 61.410156 C 267.589844 61.84375 267.445312 62.28125 267.277344 62.707031 C 267.242188 62.792969 267.179688 63.039062 267.058594 63.058594 C 266.964844 63.074219 266.882812 62.929688 266.84375 62.867188 C 266.660156 62.597656 266.511719 62.304688 266.347656 62.019531 C 265.792969 61.050781 264.613281 59.101562 263.226562 60.003906 C 262.046875 60.773438 261.464844 62.539062 261.039062 63.777344 C 259.984375 66.839844 259.414062 70.089844 258.996094 73.285156 C 258.988281 73.238281 258.972656 73.382812 258.957031 73.429688 C 258.929688 73.539062 258.898438 73.644531 258.871094 73.75 C 258.777344 74.09375 258.679688 74.433594 258.578125 74.773438 C 258.210938 75.988281 257.796875 77.179688 257.132812 78.273438 C 256.972656 78.535156 256.804688 78.789062 256.601562 79.023438 C 256.570312 79.054688 256.417969 79.253906 256.355469 79.207031 C 256.160156 79.058594 256.234375 78.265625 256.21875 78.058594 C 256.132812 76.976562 256.011719 75.890625 255.808594 74.824219 C 255.171875 71.457031 253.242188 67.355469 251.296875 64.492188 Z M 251.296875 64.492188 " fill-opacity="1" fill-rule="evenodd"/><path fill="#000000" d="M 239.914062 51.765625 C 239.90625 51.75 241.125 51.066406 241.210938 51.019531 C 242.113281 50.5 243.019531 49.992188 243.925781 49.480469 C 246.757812 47.886719 249.632812 46.382812 252.507812 44.910156 C 257.523438 42.34375 262.714844 40.222656 267.914062 38.300781 C 269.207031 37.824219 270.5 37.34375 271.800781 36.894531 C 272 36.828125 272.78125 36.457031 272.9375 36.808594 C 273.148438 37.285156 272.277344 38.566406 272.09375 38.949219 C 271.796875 39.574219 271.542969 40.515625 271.117188 41.023438 C 270.617188 41.617188 269.832031 41.839844 269.191406 42.085938 C 268.105469 42.5 267.019531 42.910156 265.941406 43.34375 C 258.941406 46.140625 252.210938 49.578125 245.472656 53.191406 C 243.773438 54.101562 242.070312 55.097656 240.308594 55.832031 C 240.066406 55.933594 238.972656 56.523438 238.742188 56.210938 C 238.429688 55.792969 239.78125 52.179688 239.914062 51.765625 Z M 239.914062 51.765625 " fill-opacity="1" fill-rule="evenodd"/><path fill="#000000" d="M 81.96875 47.996094 C 81.960938 47.980469 83.179688 47.296875 83.265625 47.25 C 84.167969 46.734375 85.074219 46.222656 85.980469 45.710938 C 88.8125 44.117188 91.6875 42.613281 94.5625 41.140625 C 99.578125 38.574219 104.769531 36.453125 109.96875 34.535156 C 111.261719 34.058594 112.554688 33.574219 113.851562 33.128906 C 114.050781 33.058594 114.835938 32.6875 114.992188 33.039062 C 115.203125 33.515625 114.332031 34.796875 114.148438 35.179688 C 113.851562 35.808594 113.597656 36.75 113.171875 37.257812 C 112.671875 37.851562 111.886719 38.074219 111.246094 38.316406 C 110.160156 38.730469 109.074219 39.144531 107.996094 39.574219 C 100.996094 42.375 94.265625 45.8125 87.527344 49.421875 C 85.824219 50.332031 84.125 51.332031 82.363281 52.066406 C 82.121094 52.167969 81.027344 52.753906 80.792969 52.441406 C 80.484375 52.023438 81.832031 48.410156 81.96875 47.996094 Z M 81.96875 47.996094 " fill-opacity="1" fill-rule="evenodd"/><path fill="#000000" d="M 279.492188 46.328125 C 279.378906 46.015625 279.734375 45.207031 279.8125 44.921875 C 280.210938 43.535156 280.6875 42.191406 281.269531 40.898438 C 281.921875 39.457031 282.667969 38.074219 283.492188 36.761719 C 283.9375 36.046875 284.414062 35.25 285.054688 34.761719 C 286.152344 33.925781 287.648438 34.046875 288.886719 34.097656 C 291.394531 34.195312 293.90625 34.503906 296.390625 34.953125 C 297.992188 35.242188 299.6875 35.566406 301.238281 36.144531 C 301.710938 36.324219 302.5 36.585938 302.679688 37.226562 C 302.890625 37.988281 302.527344 38.945312 302.28125 39.625 C 301.664062 41.335938 300.84375 42.957031 300.027344 44.542969 C 298.738281 47.050781 297.207031 49.40625 295.578125 51.617188 C 294.414062 53.199219 293.1875 54.8125 291.605469 55.800781 C 289.675781 57.007812 287.421875 57.320312 285.308594 57.753906 C 283.730469 58.078125 282.15625 58.410156 280.574219 58.699219 C 280.195312 58.765625 279.332031 59.074219 278.972656 58.777344 C 278.714844 58.5625 279.667969 57.863281 279.75 57.796875 C 280.9375 56.867188 282.183594 56.046875 283.410156 55.195312 C 286.355469 53.144531 289.34375 51.175781 292.320312 49.191406 C 292.984375 48.75 293.660156 48.335938 294.289062 47.832031 C 294.414062 47.730469 294.890625 47.425781 294.804688 47.175781 C 294.695312 46.863281 294.074219 46.765625 293.847656 46.691406 C 292.664062 46.300781 291.421875 46.128906 290.199219 45.996094 C 289.171875 45.878906 288.140625 45.800781 287.109375 45.757812 C 285.121094 45.667969 281.46875 46.046875 279.492188 46.328125 Z M 279.492188 46.328125 " fill-opacity="1" fill-rule="evenodd"/><path fill="#000000" d="M 149.390625 55.210938 C 149.273438 54.96875 149.628906 54.347656 149.710938 54.132812 C 150.109375 53.066406 150.582031 52.03125 151.167969 51.039062 C 151.816406 49.929688 152.566406 48.867188 153.390625 47.859375 C 153.835938 47.3125 154.3125 46.703125 154.953125 46.328125 C 156.050781 45.683594 157.542969 45.777344 158.785156 45.8125 C 161.292969 45.890625 163.804688 46.128906 166.289062 46.472656 C 167.890625 46.695312 169.585938 46.941406 171.136719 47.390625 C 171.609375 47.527344 172.398438 47.726562 172.578125 48.21875 C 172.789062 48.804688 172.425781 49.539062 172.179688 50.0625 C 171.5625 51.375 170.742188 52.621094 169.925781 53.839844 C 168.632812 55.765625 167.105469 57.574219 165.476562 59.273438 C 164.3125 60.488281 163.085938 61.726562 161.5 62.488281 C 159.574219 63.414062 157.320312 63.65625 155.207031 63.988281 C 153.628906 64.234375 152.054688 64.492188 150.472656 64.710938 C 150.089844 64.765625 149.230469 65.003906 148.871094 64.773438 C 148.613281 64.609375 149.566406 64.074219 149.648438 64.019531 C 150.832031 63.308594 152.082031 62.675781 153.308594 62.023438 C 156.253906 60.449219 159.242188 58.933594 162.21875 57.410156 C 162.878906 57.070312 163.558594 56.75 164.1875 56.363281 C 164.3125 56.289062 164.789062 56.054688 164.703125 55.859375 C 164.59375 55.621094 163.96875 55.546875 163.746094 55.492188 C 162.558594 55.191406 161.320312 55.058594 160.097656 54.953125 C 159.070312 54.867188 158.039062 54.804688 157.007812 54.769531 C 155.019531 54.703125 151.367188 54.996094 149.390625 55.210938 Z M 149.390625 55.210938 " fill-opacity="1" fill-rule="evenodd"/><path fill="#000000" d="M 287.648438 71.632812 C 287.785156 71.289062 288.527344 70.875 288.785156 70.660156 C 289.878906 69.753906 290.980469 68.863281 292.082031 67.96875 C 295.96875 64.832031 299.953125 61.886719 303.683594 58.515625 C 306.277344 56.167969 308.8125 53.738281 311.195312 51.128906 C 311.78125 50.484375 312.378906 49.839844 312.882812 49.113281 C 313.007812 48.9375 313.363281 48.558594 313.347656 48.304688 C 313.339844 48.140625 313.097656 47.992188 313 47.902344 C 312.59375 47.539062 312.175781 47.1875 311.773438 46.820312 C 310.371094 45.550781 309.3125 44.230469 309.921875 42.125 C 310.078125 41.582031 310.28125 41.046875 310.53125 40.550781 C 311.601562 38.4375 314.730469 34.738281 316.957031 37.332031 C 318.351562 38.960938 317.414062 42.449219 316.855469 44.253906 C 316.722656 44.683594 316.121094 45.589844 316.140625 46.03125 C 316.144531 46.128906 316.472656 46.285156 316.539062 46.332031 C 316.910156 46.605469 317.320312 46.914062 317.597656 47.308594 C 318.332031 48.371094 317.375 50.25 316.765625 51.121094 C 316.203125 51.925781 315.394531 50.394531 314.933594 49.914062 C 314.835938 49.8125 314.433594 49.289062 314.285156 49.449219 C 313.378906 50.433594 312.707031 51.714844 311.835938 52.742188 C 308.089844 57.152344 304.054688 61.59375 299.390625 64.78125 C 296.6875 66.625 293.925781 68.378906 291.171875 70.132812 C 290.425781 70.609375 289.675781 71.085938 288.902344 71.5 C 288.632812 71.644531 287.960938 71.6875 287.648438 71.632812 Z M 315.207031 44.964844 C 315.175781 44.929688 315.273438 44.609375 315.285156 44.566406 C 315.363281 44.148438 315.449219 43.726562 315.46875 43.300781 C 315.523438 42.191406 315.277344 40.867188 314.507812 40.089844 C 313.707031 39.277344 312.796875 39.535156 312.144531 40.414062 C 312 40.605469 311.644531 41.066406 311.707031 41.355469 C 311.800781 41.765625 312.171875 42.210938 312.421875 42.496094 C 313.160156 43.339844 314.425781 44.175781 315.207031 44.964844 Z M 315.207031 44.964844 " fill-opacity="1" fill-rule="evenodd"/><path fill="#000000" d="M 124.03125 52.507812 C 124.199219 52.128906 125.105469 51.671875 125.414062 51.4375 C 126.742188 50.441406 128.082031 49.457031 129.421875 48.472656 C 134.144531 45.015625 138.984375 41.773438 143.515625 38.058594 C 146.667969 35.472656 149.75 32.800781 152.644531 29.921875 C 153.355469 29.214844 154.082031 28.503906 154.695312 27.703125 C 154.84375 27.507812 155.277344 27.09375 155.257812 26.8125 C 155.246094 26.632812 154.957031 26.46875 154.835938 26.371094 C 154.34375 25.96875 153.835938 25.582031 153.34375 25.179688 C 151.644531 23.78125 150.359375 22.328125 151.09375 20.007812 C 151.285156 19.40625 151.53125 18.816406 151.839844 18.269531 C 153.140625 15.941406 156.941406 11.871094 159.640625 14.726562 C 161.335938 16.523438 160.199219 20.363281 159.523438 22.351562 C 159.359375 22.828125 158.632812 23.824219 158.652344 24.308594 C 158.65625 24.414062 159.054688 24.589844 159.132812 24.640625 C 159.585938 24.941406 160.085938 25.28125 160.421875 25.71875 C 161.316406 26.886719 160.148438 28.953125 159.410156 29.914062 C 158.726562 30.800781 157.742188 29.113281 157.1875 28.585938 C 157.066406 28.472656 156.578125 27.898438 156.398438 28.074219 C 155.296875 29.15625 154.480469 30.566406 153.421875 31.699219 C 148.871094 36.558594 143.96875 41.453125 138.300781 44.960938 C 135.015625 46.992188 131.660156 48.925781 128.316406 50.855469 C 127.410156 51.378906 126.496094 51.90625 125.554688 52.363281 C 125.230469 52.519531 124.414062 52.570312 124.03125 52.507812 Z M 157.519531 23.132812 C 157.480469 23.097656 157.601562 22.746094 157.609375 22.691406 C 157.707031 22.234375 157.8125 21.769531 157.835938 21.300781 C 157.902344 20.078125 157.601562 18.621094 156.667969 17.761719 C 155.699219 16.871094 154.589844 17.15625 153.796875 18.121094 C 153.621094 18.332031 153.191406 18.84375 153.265625 19.15625 C 153.378906 19.609375 153.832031 20.101562 154.132812 20.417969 C 155.035156 21.34375 156.570312 22.265625 157.519531 23.132812 Z M 157.519531 23.132812 " fill-opacity="1" fill-rule="evenodd"/><path fill="#000000" d="M 93.121094 63.105469 C 93.289062 62.726562 94.191406 62.265625 94.503906 62.03125 C 95.832031 61.035156 97.171875 60.050781 98.511719 59.070312 C 103.230469 55.613281 108.074219 52.367188 112.605469 48.652344 C 115.757812 46.070312 118.835938 43.394531 121.730469 40.515625 C 122.445312 39.808594 123.171875 39.097656 123.785156 38.300781 C 123.933594 38.101562 124.367188 37.6875 124.347656 37.40625 C 124.335938 37.226562 124.042969 37.066406 123.925781 36.964844 C 123.429688 36.5625 122.925781 36.175781 122.433594 35.773438 C 120.730469 34.375 119.445312 32.921875 120.183594 30.601562 C 120.375 30.003906 120.621094 29.414062 120.925781 28.867188 C 122.226562 26.539062 126.027344 22.464844 128.730469 25.324219 C 130.425781 27.117188 129.285156 30.957031 128.609375 32.945312 C 128.449219 33.421875 127.71875 34.417969 127.738281 34.902344 C 127.742188 35.007812 128.144531 35.183594 128.222656 35.234375 C 128.675781 35.535156 129.175781 35.875 129.507812 36.3125 C 130.402344 37.480469 129.238281 39.550781 128.5 40.511719 C 127.816406 41.398438 126.832031 39.707031 126.273438 39.179688 C 126.15625 39.066406 125.664062 38.492188 125.484375 38.667969 C 124.386719 39.753906 123.570312 41.164062 122.511719 42.296875 C 117.960938 47.152344 113.058594 52.046875 107.390625 55.554688 C 104.105469 57.589844 100.75 59.519531 97.402344 61.453125 C 96.496094 61.972656 95.585938 62.503906 94.644531 62.957031 C 94.320312 63.113281 93.5 63.164062 93.121094 63.105469 Z M 126.609375 33.726562 C 126.566406 33.691406 126.6875 33.339844 126.699219 33.289062 C 126.796875 32.832031 126.898438 32.363281 126.925781 31.894531 C 126.992188 30.671875 126.691406 29.214844 125.757812 28.355469 C 124.785156 27.464844 123.675781 27.75 122.882812 28.714844 C 122.710938 28.925781 122.277344 29.4375 122.355469 29.753906 C 122.464844 30.203125 122.917969 30.699219 123.222656 31.011719 C 124.121094 31.9375 125.65625 32.859375 126.609375 33.726562 Z M 126.609375 33.726562 " fill-opacity="1" fill-rule="evenodd"/><path fill="#000000" d="M 220.921875 97.136719 C 220.90625 97.054688 220.847656 97.28125 220.8125 97.355469 C 220.746094 97.496094 220.679688 97.640625 220.617188 97.785156 C 220.40625 98.25 220.195312 98.710938 219.984375 99.179688 C 219.410156 100.441406 218.847656 101.710938 218.304688 102.992188 C 216.761719 106.644531 215.066406 110.871094 215.429688 115.042969 C 215.546875 116.402344 215.929688 118.703125 217.339844 119.050781 C 219.230469 119.523438 220.515625 116.730469 221.125 115.148438 C 221.277344 114.746094 221.414062 114.332031 221.53125 113.914062 C 221.691406 113.324219 221.921875 112.4375 221.785156 111.808594 C 221.675781 111.320312 221.210938 112.007812 221.113281 112.144531 C 220.660156 112.785156 220.308594 113.910156 219.65625 114.3125 C 218.84375 114.8125 218.097656 113.378906 217.859375 112.71875 C 216.546875 109.050781 218.691406 105.332031 219.984375 102.097656 C 220.480469 100.855469 221.191406 98.578125 220.921875 97.136719 Z M 220.921875 97.136719 " fill-opacity="1" fill-rule="evenodd"/><path fill="#000000" d="M 221.070312 55.765625 C 221.066406 55.722656 221.75 55.738281 221.847656 55.730469 C 222.148438 55.710938 224.304688 55.722656 224.230469 55.230469 C 224.140625 54.609375 222.921875 53.679688 222.554688 53.28125 C 221.003906 51.605469 219.359375 49.996094 217.664062 48.519531 C 217.539062 48.40625 215.777344 46.75 215.664062 46.851562 C 214.730469 47.730469 214.21875 50.464844 213.738281 51.71875 C 213.582031 52.097656 213.183594 52.800781 213.261719 53.253906 C 213.378906 53.957031 214.953125 53.914062 215.324219 54.777344 C 216.628906 57.789062 221.5625 64.675781 222.484375 65.441406 C 222.160156 66.835938 220.675781 69.195312 220.09375 70.453125 C 218 74.941406 214.847656 80.390625 215.664062 85.800781 C 215.894531 87.292969 216.308594 88.757812 216.914062 90.09375 C 217.3125 90.96875 217.804688 91.8125 218.367188 92.546875 C 218.816406 93.117188 219.3125 93.644531 219.878906 94.042969 C 223.347656 96.496094 226.660156 92.445312 229.121094 89.863281 C 231.410156 87.457031 234.101562 84.640625 235.15625 81.105469 C 236.523438 76.53125 234.5 72.601562 231.828125 69.410156 C 230.832031 68.222656 227.925781 66.308594 228.324219 64.300781 C 228.660156 62.648438 229.984375 61.121094 230.84375 59.84375 C 232.5 57.375 234.136719 54.894531 235.691406 52.339844 C 236.238281 51.449219 237.933594 48.855469 237.054688 47.613281 C 236.566406 46.914062 235.65625 47.953125 235.265625 48.320312 C 233.792969 49.699219 232.523438 51.410156 231.277344 53.0625 C 230.445312 54.152344 229.636719 55.253906 228.847656 56.382812 C 228.398438 57.015625 227.980469 57.667969 227.570312 58.328125 C 227.324219 58.730469 227.078125 59.132812 226.835938 59.539062 C 226.046875 60.863281 225.808594 61.398438 224.789062 60.300781 C 224.542969 60.035156 224.304688 59.753906 224.074219 59.472656 C 223.742188 59.054688 223.417969 58.621094 223.097656 58.191406 C 222.582031 57.5 220.652344 55.351562 220.144531 54.65625 Z M 225.125 69.796875 C 224.800781 70.460938 223.621094 71.628906 223.089844 72.34375 C 221.988281 73.816406 221.40625 75.519531 220.617188 77.253906 C 220.066406 78.46875 219.820312 79.804688 219.542969 81.152344 C 218.914062 84.152344 220.457031 87.347656 223.355469 87.070312 C 224.738281 86.9375 225.835938 86.121094 226.871094 85.117188 C 229.320312 82.742188 232.277344 79.671875 230.132812 75.683594 C 229.015625 73.589844 226.800781 71.234375 225.125 69.796875 Z M 225.125 69.796875 " fill-opacity="1" fill-rule="evenodd"/><path fill="#000000" d="M 314.246094 76.007812 C 315.132812 74.414062 316.363281 72.929688 317.539062 71.605469 C 317.726562 71.390625 318.429688 70.390625 318.765625 70.484375 C 319.703125 70.742188 320.164062 74.011719 320.28125 74.808594 C 320.4375 75.878906 320.445312 76.96875 320.359375 78.046875 C 320.015625 82.714844 318.613281 87.910156 315.628906 91.167969 C 313.90625 93.058594 311.558594 94.054688 309.390625 92.582031 C 308.574219 92.03125 307.839844 91.308594 307.175781 90.519531 C 306.011719 89.125 305.109375 87.378906 304.398438 85.613281 C 304.3125 85.421875 304.1875 85.964844 304.097656 86.148438 C 303.921875 86.503906 303.742188 86.859375 303.558594 87.210938 C 303.054688 88.191406 302.566406 89.175781 302.027344 90.132812 C 300.445312 92.949219 298.304688 96.1875 295.441406 97.234375 C 291.285156 98.75 287.011719 94.242188 285.691406 89.90625 C 285.207031 88.316406 285.160156 86.867188 285.136719 85.222656 C 285.144531 85.226562 283.769531 86.78125 283.664062 86.882812 C 282.027344 88.496094 280.339844 89.816406 278.453125 90.964844 C 278.382812 90.691406 278.84375 93.503906 278.84375 94.152344 C 278.84375 95.957031 278.859375 97.199219 278.339844 99.1875 C 278.144531 99.933594 276.78125 102.15625 276.46875 102.636719 C 274.175781 106.125 271.691406 109.375 268.953125 112.382812 C 261.226562 120.859375 250.132812 130.652344 239.367188 123.730469 C 237.949219 122.820312 236.621094 121.714844 235.519531 120.3125 C 234.039062 118.445312 232.988281 116.226562 232.382812 113.773438 C 230.894531 107.722656 231.992188 101.074219 233.535156 95.191406 C 233.96875 93.542969 234.511719 91.941406 235.164062 90.394531 C 235.210938 90.28125 235.65625 89.0625 235.867188 89.324219 C 236.1875 89.722656 235.804688 91.191406 235.742188 91.636719 C 235.433594 94.050781 235.09375 96.453125 234.832031 98.875 C 234.136719 105.464844 234.890625 112.699219 239.914062 116.761719 C 248.21875 123.476562 257.238281 114.785156 263.804688 109.160156 C 269.105469 104.621094 275.246094 99.777344 275.121094 91.328125 C 274.917969 91.390625 274.644531 91.816406 274.46875 91.953125 C 273.875 92.425781 273.226562 92.832031 272.585938 93.191406 C 270.410156 94.40625 268.078125 95.183594 265.667969 95.183594 C 264.628906 95.183594 263.574219 95.007812 262.582031 94.660156 C 261.785156 94.382812 261.023438 93.972656 260.332031 93.421875 C 255.121094 89.238281 258.835938 80.71875 261.734375 76.304688 C 263.140625 74.164062 265.347656 70.949219 267.945312 71.152344 C 270.460938 71.355469 272.816406 74.175781 274.246094 76.398438 C 275.546875 78.414062 276.34375 80.824219 277.019531 83.210938 C 276.957031 82.941406 277.496094 83.152344 277.726562 83.078125 C 278.125 82.953125 278.523438 82.78125 278.914062 82.597656 C 280.066406 82.046875 281.199219 81.308594 282.191406 80.425781 C 283.65625 79.125 284.800781 77.449219 286.046875 75.878906 C 286.339844 75.515625 287.042969 74.320312 287.570312 74.613281 C 288.546875 75.164062 288.554688 77.988281 288.6875 79.023438 C 289.140625 82.570312 289.125 86.550781 292.808594 87.308594 C 293.359375 87.421875 293.925781 87.445312 294.484375 87.394531 C 298.71875 87.015625 301.671875 82.769531 303.539062 78.660156 C 304.242188 77.101562 304.835938 75.480469 305.550781 73.933594 C 305.726562 73.570312 306.046875 72.648438 306.492188 72.664062 C 306.785156 72.671875 306.863281 73.191406 306.914062 73.441406 C 307.101562 74.433594 307.128906 75.476562 307.15625 76.492188 C 307.113281 76.371094 307.113281 76.75 307.101562 76.878906 C 307.078125 77.132812 307.046875 77.378906 307.039062 77.632812 C 307.003906 78.476562 307.066406 79.347656 307.210938 80.175781 C 307.652344 82.660156 309.058594 84.535156 311.230469 84.972656 C 314.882812 85.707031 315.601562 79.09375 314.246094 76.007812 Z M 270.140625 86.074219 C 270.125 86.125 269.777344 86.222656 269.734375 86.238281 C 269.328125 86.398438 268.917969 86.53125 268.496094 86.628906 C 267.164062 86.945312 264.410156 87.425781 263.894531 85.316406 C 263.378906 83.207031 265.550781 81.019531 267.226562 81.269531 C 268.554688 81.464844 269.882812 83.886719 270.140625 86.074219 Z M 270.140625 86.074219 " fill-opacity="1" fill-rule="evenodd"/><path fill="#000000" d="M 212.160156 29.597656 L 217.332031 22.328125 L 225.054688 28.519531 L 219.933594 36.050781 Z M 212.160156 29.597656 " fill-opacity="1" fill-rule="evenodd"/><path fill="#000000" d="M 74.304688 72.136719 L 79.476562 64.867188 L 87.199219 71.058594 L 82.078125 78.589844 Z M 74.304688 72.136719 " fill-opacity="1" fill-rule="evenodd"/><path fill="#000000" d="M 86.671875 71.035156 L 91.84375 63.765625 L 99.5625 69.957031 L 94.445312 77.488281 Z M 86.671875 71.035156 " fill-opacity="1" fill-rule="evenodd"/><path fill="#000000" d="M 225.050781 29.597656 L 230.222656 22.328125 L 237.941406 28.519531 L 232.824219 36.050781 Z M 225.050781 29.597656 " fill-opacity="1" fill-rule="evenodd"/><path fill="#000000" d="M 172.648438 110.636719 L 177.820312 103.367188 L 185.542969 109.558594 L 180.421875 117.089844 Z M 172.648438 110.636719 " fill-opacity="1" fill-rule="evenodd"/><g clip-path="url(#5c302edd2c)"><path fill="#000000" d="M 307.5 111.265625 C 307.449219 111.277344 307.609375 110.898438 307.628906 110.851562 C 307.714844 110.601562 307.796875 110.351562 307.886719 110.105469 C 308.101562 109.539062 308.328125 108.980469 308.539062 108.40625 C 308.554688 108.359375 308.691406 107.894531 308.773438 107.941406 C 308.847656 107.988281 308.875 108.226562 308.898438 108.3125 C 309.023438 108.730469 309.15625 109.144531 309.25 109.574219 C 309.660156 111.511719 309.640625 113.507812 308.90625 115.332031 C 308.382812 116.625 307.367188 117.5625 306.171875 117.707031 C 304.664062 117.890625 303.15625 116.414062 303.101562 114.539062 C 303.101562 114.53125 302.9375 114.695312 302.925781 114.710938 C 302.839844 114.828125 302.761719 114.953125 302.683594 115.078125 C 302.429688 115.480469 302.191406 115.898438 301.953125 116.320312 C 301.210938 117.644531 300.324219 119.222656 298.925781 119.511719 C 297.058594 119.902344 295.722656 118.105469 293.976562 117.820312 C 293.109375 117.675781 292.242188 118.019531 291.464844 118.460938 C 290.113281 119.230469 288.894531 120.332031 287.722656 121.441406 C 287.210938 121.925781 286.535156 122.546875 286.03125 123.023438 C 284.925781 124.078125 283.8125 125.125 282.691406 126.152344 C 278.59375 129.902344 274.660156 133.710938 270.097656 136.605469 C 270.171875 136.707031 269.898438 136.703125 269.800781 136.757812 C 269.558594 136.890625 269.316406 137.019531 269.074219 137.140625 C 268.375 137.496094 267.667969 137.832031 266.960938 138.164062 C 264.792969 139.179688 262.625 140.0625 260.367188 140.730469 C 259.636719 140.949219 258.890625 141.15625 258.140625 141.21875 C 258.03125 141.230469 257.398438 141.304688 257.40625 141.023438 C 257.414062 140.472656 258.589844 139.929688 258.882812 139.738281 C 260.457031 138.707031 262.074219 137.800781 263.664062 136.808594 C 267.371094 134.5 270.839844 131.683594 274.304688 128.878906 C 276.839844 126.828125 279.410156 124.839844 281.90625 122.714844 C 282.074219 122.570312 282.542969 122.171875 282.699219 122.042969 C 283.410156 121.445312 284.109375 120.832031 284.8125 120.222656 C 286.675781 118.597656 288.539062 116.941406 290.511719 115.523438 C 291.605469 114.734375 292.855469 113.894531 294.164062 113.910156 C 296.078125 113.933594 297.9375 116.035156 299.863281 114.976562 C 301.363281 114.152344 302.175781 112.171875 303.101562 110.632812 C 303.367188 110.191406 303.992188 108.824219 304.515625 108.769531 C 304.847656 108.738281 304.628906 109.734375 304.605469 109.90625 C 304.457031 111.039062 304.128906 112.707031 304.859375 113.644531 C 305.964844 115.0625 308.546875 113.589844 307.5 111.265625 Z M 307.5 111.265625 " fill-opacity="1" fill-rule="evenodd"/></g><path fill="#000000" d="M 247.390625 86.054688 C 247.386719 86.019531 247.441406 86.089844 247.46875 86.105469 C 247.515625 86.136719 247.5625 86.164062 247.609375 86.191406 C 247.773438 86.285156 247.941406 86.375 248.109375 86.460938 C 248.238281 86.527344 248.367188 86.59375 248.496094 86.65625 C 248.582031 86.699219 248.667969 86.738281 248.757812 86.78125 C 249.058594 86.917969 250.058594 87.433594 250.03125 86.691406 C 250.007812 86.148438 249.605469 85.59375 249.316406 85.183594 C 248.722656 84.332031 248.121094 83.480469 247.515625 82.632812 C 246.410156 81.082031 245.296875 79.539062 244.167969 78.011719 C 243.898438 77.652344 243.640625 77.285156 243.359375 76.9375 C 243.28125 76.839844 243.140625 76.621094 243.007812 76.617188 C 242.800781 76.613281 242.6875 77.113281 242.644531 77.257812 C 242.417969 78.015625 242.285156 78.808594 242.125 79.585938 C 241.871094 80.820312 241.578125 82.042969 241.261719 83.261719 C 241.125 83.773438 240.820312 84.488281 240.984375 85.027344 C 241.085938 85.363281 241.324219 85.617188 241.546875 85.859375 C 241.847656 86.1875 242.15625 86.507812 242.488281 86.796875 C 242.382812 87.085938 242.710938 87.820312 242.78125 88.089844 C 243.105469 89.316406 243.507812 90.515625 243.902344 91.71875 C 244.683594 94.105469 245.554688 96.457031 246.625 98.707031 C 247.792969 101.164062 249.160156 103.523438 250.261719 106.011719 C 250.179688 105.996094 249.835938 106.554688 249.785156 106.617188 C 249.222656 107.308594 248.648438 107.988281 248.066406 108.660156 C 245.84375 111.226562 243.464844 113.609375 240.949219 115.835938 C 237.183594 119.167969 232.871094 121.882812 228.464844 124.078125 C 224.066406 126.269531 219.199219 128.03125 214.296875 127.4375 C 214.253906 127.300781 214.023438 127.425781 213.890625 127.390625 C 213.425781 127.265625 212.960938 127.132812 212.507812 126.96875 C 210.789062 126.347656 209.136719 125.601562 207.691406 124.386719 C 203.578125 120.9375 202.402344 115.265625 202.417969 109.824219 C 202.429688 105.136719 203.394531 100.472656 204.84375 96.070312 C 205.429688 94.292969 206.050781 92.53125 206.648438 90.757812 C 206.6875 90.644531 207.21875 89.25 206.945312 89.246094 C 206.71875 89.246094 206.460938 89.640625 206.339844 89.804688 C 205.820312 90.535156 205.382812 91.34375 205.011719 92.167969 C 203.492188 95.558594 202.359375 99.214844 201.355469 102.816406 C 200.894531 104.46875 200.46875 106.132812 200.132812 107.820312 C 198.339844 116.855469 198.921875 129.261719 207.410156 134.136719 C 208.695312 134.875 210.089844 135.433594 211.507812 135.777344 C 221.8125 138.261719 231.113281 132.234375 238.761719 125.613281 C 238.695312 125.667969 238.910156 125.527344 238.980469 125.476562 C 239.121094 125.371094 239.257812 125.261719 239.398438 125.15625 C 239.839844 124.820312 240.277344 124.480469 240.714844 124.128906 C 241.996094 123.097656 243.214844 121.976562 244.390625 120.804688 C 248.113281 117.078125 251.484375 112.96875 252.527344 107.46875 C 252.609375 107.042969 252.6875 106.457031 252.710938 106.035156 C 252.785156 104.90625 252.804688 103.773438 252.773438 102.648438 C 252.675781 99.050781 251.402344 96.046875 250.042969 92.828125 C 249.164062 90.753906 248.417969 88.050781 247.390625 86.054688 Z M 247.390625 86.054688 " fill-opacity="1" fill-rule="evenodd"/><path fill="#000000" d="M 142.167969 109.089844 C 141.503906 108.730469 141.519531 107.976562 141.710938 107.316406 C 142.101562 105.96875 143.160156 104.734375 144.359375 103.90625 C 146.863281 102.183594 149.40625 105.035156 151.007812 106.574219 C 151.453125 107.003906 151.886719 107.445312 152.304688 107.898438 C 152.46875 108.082031 152.730469 108.296875 152.773438 108.542969 C 152.847656 108.949219 152.636719 109.414062 152.5 109.789062 C 152.40625 110.042969 152.304688 110.292969 152.191406 110.539062 C 152.0625 110.824219 151.851562 111.328125 151.527344 111.492188 C 151.332031 111.585938 150.96875 111.480469 150.761719 111.472656 C 150.152344 111.449219 149.542969 111.441406 148.929688 111.464844 C 148.414062 111.480469 147.898438 111.519531 147.386719 111.578125 C 144.972656 111.859375 141.035156 112.71875 141.128906 115.578125 C 141.089844 115.582031 141.136719 115.820312 141.140625 115.839844 C 141.1875 116.167969 141.242188 116.488281 141.304688 116.8125 C 141.574219 118.207031 141.96875 119.578125 142.363281 120.941406 C 143.765625 125.800781 145.21875 130.800781 145.054688 135.867188 C 145.011719 137.097656 144.839844 138.347656 144.382812 139.515625 C 144.273438 139.800781 144.058594 140.507812 143.640625 140.554688 C 143.378906 140.585938 143.484375 140.070312 143.5 139.960938 C 143.613281 139.222656 143.8125 138.5 143.875 137.753906 C 144.019531 135.976562 143.835938 134.132812 143.492188 132.382812 C 142.949219 129.625 142.230469 126.855469 141.429688 124.152344 C 140.921875 122.445312 140.472656 120.738281 140.101562 119 C 139.914062 118.121094 139.679688 117.25 139.597656 116.355469 C 139.421875 114.429688 139.886719 112.066406 141.308594 110.695312 C 142.019531 110.015625 142.957031 109.507812 143.902344 109.148438 C 144.78125 108.816406 145.75 108.691406 146.683594 108.550781 C 146.898438 108.519531 147.117188 108.492188 147.335938 108.472656 C 147.363281 108.46875 147.542969 108.476562 147.550781 108.445312 C 147.59375 108.296875 147.171875 107.941406 147.085938 107.851562 C 146.527344 107.257812 145.691406 106.808594 144.804688 106.894531 C 143.992188 106.980469 143.195312 107.492188 142.777344 108.125 C 142.585938 108.417969 142.371094 108.8125 142.167969 109.089844 Z M 142.167969 109.089844 " fill-opacity="1" fill-rule="evenodd"/><path fill="#000000" d="M 124.769531 94.34375 C 124.773438 94.335938 124.777344 94.332031 124.785156 94.328125 L 124.769531 94.34375 C 124.714844 94.453125 125.09375 95.074219 125.117188 95.109375 C 125.675781 95.964844 126.398438 96.734375 127.117188 97.457031 C 129.527344 99.871094 132.738281 102.113281 136.238281 102.285156 C 140.152344 102.480469 144.015625 101.050781 146.980469 98.515625 C 148.085938 97.570312 149.03125 96.503906 149.960938 95.394531 C 150.207031 95.101562 150.664062 94.3125 151.082031 94.234375 C 151.355469 94.179688 151.476562 94.871094 151.519531 95.023438 C 151.84375 96.191406 152.210938 97.292969 152.769531 98.375 C 154.214844 101.164062 156.40625 103.21875 159.257812 104.527344 C 159.890625 104.820312 160.96875 105.476562 161.707031 105.375 C 162.339844 105.289062 162.507812 104.289062 162.574219 103.800781 C 162.804688 102.050781 162.851562 100.234375 162.773438 98.46875 C 162.742188 97.867188 162.277344 96.710938 163.066406 96.488281 C 164.667969 96.03125 166.5625 96.191406 168.21875 95.996094 C 171.296875 95.632812 174.34375 94.972656 177.261719 93.910156 C 184.007812 91.445312 190.054688 87.328125 197 85.363281 C 200.730469 84.304688 204.144531 84.4375 207.921875 84.414062 C 208.527344 84.410156 208.835938 83.640625 209.082031 83.203125 C 209.804688 81.945312 210.445312 80.644531 211.113281 79.359375 C 211.269531 79.050781 212 78.007812 211.71875 77.644531 C 210.980469 76.695312 207.644531 77.007812 206.636719 76.945312 C 202.109375 76.648438 197.582031 76.34375 193.058594 76.011719 C 188.328125 75.667969 183.589844 75.457031 178.867188 75.027344 C 178.988281 74.9375 179.1875 74.738281 179.296875 74.65625 C 179.640625 74.386719 179.988281 74.121094 180.320312 73.832031 C 181.3125 72.949219 182.390625 71.917969 183.054688 70.75 C 183.757812 69.515625 184.921875 64.414062 184.507812 58.875 C 183.878906 50.429688 182.5 42.753906 181.917969 38.785156 C 181.199219 33.894531 180.628906 27.714844 179.300781 22.960938 C 180.257812 23.746094 181.578125 24.445312 182.703125 24.984375 C 182.929688 25.089844 183.667969 25.476562 183.867188 25.152344 C 184.253906 24.519531 182.972656 22.484375 182.703125 21.980469 C 181.132812 19 179.300781 16.097656 177.527344 13.226562 C 176.675781 11.839844 175.585938 8.683594 173.992188 10.980469 C 173.242188 12.070312 172.644531 13.273438 172.019531 14.4375 C 171.875 14.714844 171.351562 15.363281 171.539062 15.703125 C 172.207031 16.929688 174.011719 17.460938 174.386719 18.855469 C 175.089844 21.46875 174.6875 24.628906 175.144531 27.335938 C 176.6875 36.558594 178.679688 45.203125 180.089844 54.539062 C 180.730469 58.765625 181.523438 63.621094 181.621094 67.878906 C 181.621094 68.109375 180.652344 68.488281 180.445312 68.589844 C 179.085938 69.253906 177.570312 69.667969 176.117188 70.089844 C 173.113281 70.964844 170.171875 71.566406 167.066406 71.917969 C 165.851562 72.054688 163.445312 71.820312 162.394531 72.53125 C 161.167969 73.351562 160.488281 75.214844 159.816406 76.453125 C 159.335938 77.335938 157.929688 79.066406 158.132812 80.125 C 158.410156 81.5625 162.617188 80.714844 163.46875 80.679688 C 169.046875 80.429688 174.664062 80.46875 180.175781 81.4375 C 181.996094 81.757812 183.78125 82.160156 185.570312 82.609375 C 185.695312 82.644531 187.246094 82.976562 187.15625 83.148438 C 186.957031 83.53125 186.039062 83.824219 185.683594 84.011719 C 184.363281 84.710938 183.054688 85.425781 181.742188 86.125 C 175.777344 89.292969 169.621094 92.5625 162.726562 90.621094 C 160.8125 90.082031 159.003906 89.207031 157.324219 88.148438 C 156.382812 87.554688 155.246094 86.4375 154.03125 86.699219 C 151.796875 87.183594 150.296875 91.09375 148.769531 92.589844 C 144.410156 96.867188 136.957031 97.441406 132.359375 93.199219 C 131.019531 91.964844 133.144531 90.492188 134.117188 89.96875 C 135.769531 89.082031 137.492188 88.171875 139.226562 87.464844 C 139.78125 87.238281 141.074219 87.058594 141.488281 86.59375 C 141.957031 86.0625 141.917969 84.859375 141.992188 84.195312 C 142.074219 83.503906 142.445312 82.277344 141.902344 81.703125 C 140.585938 80.3125 136.847656 80.121094 135.125 79.820312 C 128.460938 78.660156 121.070312 78.175781 114.421875 79.667969 C 112.058594 80.199219 107.03125 81.320312 107.140625 84.589844 C 107.230469 87.097656 110 86.445312 111.890625 86.691406 C 115.039062 87.105469 117.664062 87.773438 119.519531 90.449219 C 119.445312 90.410156 118.539062 91.191406 118.4375 91.261719 C 117.210938 92.136719 115.886719 92.839844 114.503906 93.4375 C 110.5 95.183594 105.921875 95.941406 101.589844 95.078125 C 97.179688 94.199219 94.785156 90.667969 92.105469 87.410156 C 90.660156 85.652344 88.695312 84.3125 86.65625 85.992188 C 81.066406 90.59375 78.058594 98.261719 74.859375 104.546875 C 73.785156 106.664062 71.9375 111.523438 68.976562 111.601562 C 67.609375 111.640625 66.371094 110.460938 65.457031 109.585938 C 62.476562 106.75 61.105469 102.917969 60.878906 98.863281 C 60.769531 96.882812 60.84375 94.898438 60.792969 92.917969 C 60.789062 92.746094 60.78125 91.136719 60.378906 91.230469 C 59.957031 91.328125 59.769531 92.640625 59.695312 92.949219 C 59.230469 94.984375 59.148438 97.144531 59.210938 99.222656 C 59.246094 100.414062 59.359375 101.601562 59.554688 102.777344 C 60.410156 108.011719 63.84375 117.191406 70.914062 115.03125 C 73.027344 114.382812 74.703125 112.429688 75.886719 110.652344 C 78.527344 106.675781 79.734375 101.902344 82.492188 97.96875 C 83.714844 96.222656 85.605469 93.492188 87.964844 93.300781 C 89.933594 93.140625 91.671875 94.84375 92.996094 96.054688 C 94.804688 97.707031 96.722656 99.207031 98.953125 100.253906 C 106.949219 104.003906 118.613281 100.191406 124.769531 94.34375 Z M 121.292969 84.9375 C 121.554688 84.566406 122.761719 84.535156 123.144531 84.480469 C 125.109375 84.203125 127.15625 84.273438 129.105469 84.632812 C 129.652344 84.734375 130.1875 84.871094 130.710938 85.066406 C 130.808594 85.101562 131.132812 85.179688 131.1875 85.289062 C 131.238281 85.394531 130.710938 85.710938 130.652344 85.753906 C 129.96875 86.253906 129.257812 86.714844 128.5625 87.195312 C 127.945312 87.621094 127.324219 88.039062 126.722656 88.484375 C 126.527344 88.625 126.230469 88.953125 125.980469 88.976562 C 125.636719 89.015625 125.226562 88.597656 124.988281 88.40625 C 124.117188 87.710938 122.117188 85.6875 121.292969 84.9375 Z M 178.867188 75.027344 L 178.769531 75.015625 C 178.746094 75.09375 178.792969 75.082031 178.867188 75.027344 Z M 178.867188 75.027344 " fill-opacity="1" fill-rule="evenodd"/><path fill="#000000" d="M 302.152344 18.179688 C 302.179688 18.308594 302.386719 18.191406 302.5 18.214844 C 302.800781 18.273438 303.09375 18.34375 303.390625 18.414062 C 304.664062 18.726562 305.925781 19.128906 307.175781 19.554688 C 312.183594 21.265625 316.941406 23.769531 321.261719 27.171875 C 332.136719 35.726562 339.285156 50.214844 341.394531 65.09375 C 341.34375 65.113281 341.265625 65.324219 341.234375 65.371094 C 341.074219 65.636719 340.902344 65.890625 340.738281 66.15625 C 340.234375 66.972656 339.667969 67.753906 339.019531 68.425781 C 338.339844 69.132812 337.261719 70.082031 336.300781 70.121094 C 335.539062 70.152344 334.761719 69.550781 334.125 69.148438 C 332.765625 68.292969 331.433594 67.371094 330.171875 66.332031 C 330.207031 66.441406 330.058594 65.9375 330.039062 65.855469 C 329.949219 65.425781 329.851562 65 329.746094 64.570312 C 329.429688 63.25 329.101562 61.929688 328.773438 60.609375 C 327.777344 56.582031 326.257812 52.597656 324.671875 48.839844 C 320.039062 37.84375 310.566406 25.640625 302.152344 18.179688 Z M 302.152344 18.179688 " fill-opacity="1" fill-rule="evenodd"/><path fill="#000000" d="M 302.152344 134.847656 C 302.179688 134.714844 302.386719 134.835938 302.5 134.8125 C 302.800781 134.75 303.09375 134.683594 303.390625 134.609375 C 304.664062 134.300781 305.925781 133.894531 307.175781 133.46875 C 312.183594 131.761719 316.941406 129.257812 321.261719 125.855469 C 332.136719 117.300781 339.285156 102.8125 341.394531 87.933594 C 341.34375 87.914062 341.265625 87.699219 341.234375 87.652344 C 341.074219 87.390625 340.902344 87.132812 340.738281 86.871094 C 340.234375 86.054688 339.667969 85.273438 339.019531 84.597656 C 338.339844 83.890625 337.261719 82.941406 336.300781 82.90625 C 335.539062 82.875 334.761719 83.472656 334.125 83.875 C 332.765625 84.730469 331.433594 85.65625 330.171875 86.695312 C 330.207031 86.585938 330.058594 87.085938 330.039062 87.167969 C 329.949219 87.601562 329.851562 88.027344 329.746094 88.453125 C 329.429688 89.777344 329.101562 91.097656 328.773438 92.414062 C 327.777344 96.445312 326.257812 100.425781 324.671875 104.183594 C 320.039062 115.183594 310.566406 127.386719 302.152344 134.847656 Z M 302.152344 134.847656 " fill-opacity="1" fill-rule="evenodd"/><path fill="#000000" d="M 340.792969 52.554688 C 340.730469 52.53125 340.207031 52.332031 340.015625 52.207031 C 339.789062 52.058594 339.671875 51.863281 339.613281 51.71875 C 339.539062 51.53125 339.53125 51.339844 339.574219 51.152344 C 339.613281 50.992188 339.699219 50.769531 339.945312 50.617188 C 340 50.582031 340.109375 50.53125 340.257812 50.5 C 340.464844 50.457031 340.867188 50.421875 340.894531 50.421875 C 341.65625 50.386719 342.417969 50.453125 343.167969 50.574219 C 345.78125 51 348.375 52.113281 350.535156 53.863281 C 352.636719 55.5625 354.363281 57.855469 355.210938 60.679688 C 355.429688 61.414062 355.605469 62.171875 355.675781 62.945312 C 355.695312 63.113281 355.6875 63.316406 355.6875 63.519531 C 355.695312 63.582031 355.699219 63.675781 355.707031 63.746094 C 355.777344 63.769531 355.882812 63.796875 355.953125 63.8125 C 356.125 63.84375 356.277344 63.875 356.398438 63.914062 C 357.199219 64.179688 357.953125 64.625 358.621094 65.199219 C 360.839844 67.097656 362.171875 70.230469 362.632812 73.324219 C 362.71875 73.53125 362.722656 73.765625 362.609375 74.027344 C 362.59375 74.070312 362.523438 74.324219 362.171875 74.460938 C 362.113281 74.480469 362.058594 74.496094 361.996094 74.5 L 361.925781 74.519531 C 361.773438 74.578125 361.625 74.628906 361.472656 74.679688 C 360.96875 74.859375 360.464844 75.019531 359.953125 75.1875 C 359.082031 75.476562 358.203125 75.761719 357.324219 76.035156 L 357.597656 76.152344 C 359.152344 76.835938 360.644531 77.636719 362.15625 78.445312 C 362.5 78.632812 362.664062 79.101562 362.527344 79.515625 C 361.269531 83.25 359.304688 86.886719 356.132812 88.859375 C 355.867188 89.023438 355.367188 89.359375 355.15625 89.558594 C 354.175781 90.484375 353.609375 91.71875 353.128906 93.050781 C 352.664062 94.34375 352.230469 95.664062 351.53125 96.820312 C 349.980469 99.371094 347.335938 101.109375 344.691406 101.589844 C 343.851562 101.742188 342.992188 101.773438 342.140625 101.710938 C 341.996094 101.699219 341.789062 101.707031 341.597656 101.679688 C 341.363281 101.648438 341.152344 101.566406 340.988281 101.449219 C 340.644531 101.199219 340.574219 100.875 340.609375 100.550781 C 340.628906 100.398438 340.675781 100.226562 340.789062 100.0625 C 340.910156 99.875 341.1875 99.664062 341.253906 99.617188 C 341.695312 99.296875 342.15625 99.015625 342.605469 98.710938 C 343.640625 98.011719 344.640625 97.242188 345.410156 96.167969 C 346.378906 94.820312 346.851562 93.226562 346.890625 91.480469 C 346.90625 90.578125 346.820312 89.601562 346.828125 88.652344 C 346.839844 87.542969 346.996094 86.46875 347.496094 85.515625 C 348.375 83.859375 350.054688 82.945312 351.570312 82.3125 C 351.660156 82.273438 351.855469 82.210938 352.058594 82.128906 C 351.855469 81.910156 351.59375 81.738281 351.390625 81.574219 C 350.59375 80.9375 349.746094 80.375 348.890625 79.839844 C 348.148438 79.375 347.394531 78.929688 346.621094 78.53125 C 345.625 78.019531 344.589844 77.601562 343.5625 77.1875 C 343.445312 77.140625 343.0625 76.925781 342.898438 76.832031 C 342.867188 76.855469 342.835938 76.882812 342.800781 76.910156 C 342.65625 77.03125 342.519531 77.171875 342.398438 77.273438 C 341.832031 77.765625 341.289062 78.289062 340.746094 78.816406 C 340.214844 79.332031 339.6875 79.847656 339.15625 80.367188 C 338.488281 81.023438 337.828125 81.691406 337.179688 82.375 C 337.019531 82.546875 336.828125 82.796875 336.621094 82.988281 C 336.394531 83.199219 336.144531 83.351562 335.894531 83.410156 C 335.648438 83.46875 335.40625 83.429688 335.171875 83.316406 C 335 83.234375 334.835938 83.097656 334.6875 83 C 334.246094 82.707031 333.800781 82.417969 333.359375 82.113281 C 331.59375 80.882812 328.511719 78.484375 326.894531 77 C 326.691406 76.808594 326.597656 76.5625 326.621094 76.25 C 326.628906 76.125 326.667969 75.9375 326.796875 75.757812 C 326.871094 75.652344 327.042969 75.496094 327.050781 75.488281 C 327.308594 75.253906 327.578125 75.039062 327.847656 74.828125 C 328.425781 74.378906 329.007812 73.929688 329.597656 73.5 C 331.253906 72.28125 333.636719 70.515625 335.292969 69.234375 C 335.375 69.140625 335.511719 69.042969 335.738281 69.027344 C 335.910156 69.011719 336.078125 69.074219 336.21875 69.1875 C 336.234375 69.199219 336.253906 69.210938 336.261719 69.214844 C 336.328125 69.265625 336.394531 69.3125 336.460938 69.363281 C 336.652344 69.507812 336.832031 69.65625 337.019531 69.804688 C 337.523438 70.203125 338.03125 70.601562 338.539062 71.007812 C 339.953125 72.160156 341.425781 73.277344 342.792969 74.515625 C 343.554688 73.871094 344.4375 73.34375 345.21875 72.777344 C 346.757812 71.65625 348.296875 70.546875 349.839844 69.441406 C 349.292969 69.042969 348.773438 68.578125 348.367188 68.007812 C 347.796875 67.210938 347.535156 66.152344 347.226562 65.203125 C 346.703125 63.578125 346.277344 61.914062 345.742188 60.292969 C 344.984375 58.027344 343.976562 55.71875 342.46875 53.988281 C 341.972656 53.417969 341.417969 52.925781 340.792969 52.554688 Z M 342.988281 52.246094 C 345.367188 52.640625 347.726562 53.648438 349.699219 55.242188 C 351.546875 56.742188 353.085938 58.742188 353.828125 61.230469 C 354.015625 61.84375 354.164062 62.476562 354.222656 63.125 C 354.246094 63.335938 354.222656 63.609375 354.242188 63.863281 C 354.261719 64.171875 354.328125 64.460938 354.453125 64.695312 C 354.582031 64.945312 354.789062 65.144531 355.058594 65.277344 C 355.355469 65.421875 355.765625 65.457031 356 65.535156 C 356.632812 65.742188 357.222656 66.101562 357.753906 66.554688 C 359.539062 68.082031 360.636719 70.554688 361.101562 73.050781 L 361.046875 73.070312 C 360.550781 73.242188 360.050781 73.402344 359.554688 73.566406 C 358.398438 73.949219 357.242188 74.320312 356.078125 74.667969 C 355.910156 74.714844 355.429688 74.777344 355.097656 74.894531 C 354.769531 75.011719 354.539062 75.214844 354.425781 75.390625 C 354.308594 75.585938 354.261719 75.800781 354.304688 76.046875 C 354.324219 76.171875 354.378906 76.378906 354.574219 76.5625 C 354.695312 76.675781 355.457031 77.023438 355.511719 77.046875 C 356.035156 77.273438 356.558594 77.5 357.078125 77.726562 C 358.382812 78.300781 359.644531 78.960938 360.910156 79.636719 C 359.773438 82.75 358.09375 85.722656 355.4375 87.375 C 355.109375 87.578125 354.492188 88.003906 354.230469 88.25 C 353.058594 89.359375 352.355469 90.8125 351.777344 92.40625 C 351.359375 93.585938 350.976562 94.796875 350.335938 95.851562 C 349.007812 98.039062 346.730469 99.511719 344.46875 99.925781 C 344.15625 99.980469 343.84375 100.019531 343.53125 100.039062 C 344.644531 99.269531 345.699219 98.40625 346.535156 97.246094 C 347.71875 95.597656 348.300781 93.65625 348.347656 91.523438 C 348.367188 90.613281 348.277344 89.632812 348.289062 88.675781 C 348.296875 87.871094 348.378906 87.082031 348.746094 86.394531 C 349.449219 85.058594 350.851562 84.40625 352.066406 83.894531 C 352.300781 83.796875 353.046875 83.542969 353.378906 83.1875 C 353.742188 82.789062 353.855469 82.3125 353.625 81.765625 C 353.34375 81.105469 352.722656 80.589844 352.21875 80.1875 C 351.375 79.515625 350.484375 78.921875 349.585938 78.359375 C 348.8125 77.871094 348.023438 77.40625 347.214844 76.992188 C 346.179688 76.460938 345.113281 76.027344 344.046875 75.597656 C 344.035156 75.59375 344.023438 75.585938 344.011719 75.582031 C 344.652344 75.085938 345.363281 74.664062 345.996094 74.203125 C 347.890625 72.824219 349.792969 71.457031 351.703125 70.089844 C 351.90625 69.941406 352.035156 69.683594 352.042969 69.402344 C 352.054688 69.125 351.941406 68.855469 351.742188 68.691406 C 351.558594 68.535156 351.257812 68.445312 351.042969 68.308594 C 350.484375 67.941406 349.90625 67.515625 349.492188 66.9375 C 349.027344 66.28125 348.847656 65.390625 348.59375 64.613281 C 348.066406 62.984375 347.644531 61.3125 347.101562 59.6875 C 346.273438 57.207031 345.148438 54.6875 343.503906 52.792969 C 343.339844 52.601562 343.164062 52.421875 342.988281 52.246094 Z M 335.792969 70.875 C 335.925781 70.980469 336.058594 71.085938 336.191406 71.191406 C 336.695312 71.589844 337.199219 71.984375 337.695312 72.386719 C 339.050781 73.484375 340.449219 74.546875 341.757812 75.71875 C 341.671875 75.792969 341.59375 75.863281 341.523438 75.925781 C 340.933594 76.4375 340.371094 76.980469 339.808594 77.523438 C 339.277344 78.042969 338.746094 78.5625 338.214844 79.078125 C 337.53125 79.75 336.859375 80.433594 336.195312 81.128906 C 336.089844 81.242188 335.972656 81.390625 335.84375 81.53125 C 335.789062 81.59375 335.738281 81.671875 335.679688 81.71875 C 335.605469 81.667969 335.480469 81.582031 335.410156 81.535156 C 334.980469 81.25 334.542969 80.96875 334.117188 80.671875 C 332.628906 79.636719 330.191406 77.757812 328.535156 76.328125 L 328.667969 76.226562 C 329.234375 75.78125 329.804688 75.34375 330.386719 74.917969 C 331.945312 73.769531 334.152344 72.136719 335.792969 70.875 Z M 335.792969 70.875 " fill-opacity="1" fill-rule="evenodd"/><g clip-path="url(#3be43b4c56)"><path fill="#000000" d="M 374.464844 76.894531 L 362.609375 74.027344 L 355.472656 76.078125 L 361.660156 79.554688 Z M 374.464844 76.894531 " fill-opacity="1" fill-rule="evenodd"/></g><path fill="#000000" d="M 72.84375 24.570312 C 72.816406 24.699219 72.609375 24.582031 72.5 24.605469 C 72.199219 24.664062 71.90625 24.734375 71.609375 24.804688 C 70.332031 25.113281 69.070312 25.519531 67.824219 25.945312 C 62.8125 27.652344 58.058594 30.160156 53.734375 33.5625 C 42.859375 42.117188 35.710938 56.601562 33.601562 71.484375 C 33.652344 71.503906 33.730469 71.714844 33.761719 71.761719 C 33.921875 72.027344 34.09375 72.28125 34.257812 72.546875 C 34.765625 73.363281 35.332031 74.144531 35.976562 74.816406 C 36.660156 75.523438 37.734375 76.472656 38.695312 76.511719 C 39.457031 76.539062 40.238281 75.941406 40.871094 75.539062 C 42.230469 74.683594 43.5625 73.761719 44.824219 72.722656 C 44.789062 72.828125 44.941406 72.328125 44.957031 72.246094 C 45.046875 71.8125 45.144531 71.386719 45.25 70.960938 C 45.570312 69.640625 45.898438 68.320312 46.226562 67 C 47.222656 62.972656 48.738281 58.988281 50.324219 55.230469 C 54.957031 44.234375 64.429688 32.027344 72.84375 24.570312 Z M 72.84375 24.570312 " fill-opacity="1" fill-rule="evenodd"/><g clip-path="url(#34aea89e65)"><path fill="#000000" d="M 72.84375 141.238281 C 72.816406 141.105469 72.609375 141.222656 72.5 141.203125 C 72.199219 141.140625 71.90625 141.074219 71.609375 141 C 70.332031 140.691406 69.070312 140.285156 67.824219 139.859375 C 62.8125 138.152344 58.058594 135.644531 53.734375 132.242188 C 42.859375 123.6875 35.710938 109.203125 33.601562 94.320312 C 33.652344 94.300781 33.730469 94.089844 33.761719 94.042969 C 33.921875 93.78125 34.09375 93.523438 34.257812 93.261719 C 34.765625 92.441406 35.332031 91.660156 35.976562 90.988281 C 36.660156 90.28125 37.734375 89.332031 38.695312 89.292969 C 39.457031 89.265625 40.238281 89.863281 40.871094 90.265625 C 42.230469 91.121094 43.5625 92.042969 44.824219 93.082031 C 44.789062 92.976562 44.941406 93.476562 44.957031 93.558594 C 45.046875 93.992188 45.144531 94.417969 45.25 94.84375 C 45.570312 96.167969 45.898438 97.484375 46.226562 98.804688 C 47.222656 102.832031 48.738281 106.816406 50.324219 110.574219 C 54.957031 121.570312 64.429688 133.777344 72.84375 141.238281 Z M 72.84375 141.238281 " fill-opacity="1" fill-rule="evenodd"/></g><path fill="#000000" d="M 34.207031 58.945312 C 34.269531 58.921875 34.789062 58.722656 34.980469 58.597656 C 35.207031 58.449219 35.324219 58.253906 35.382812 58.109375 C 35.460938 57.921875 35.46875 57.730469 35.421875 57.542969 C 35.382812 57.382812 35.300781 57.160156 35.050781 57.007812 C 35 56.972656 34.886719 56.921875 34.742188 56.890625 C 34.535156 56.84375 34.128906 56.8125 34.105469 56.8125 C 33.34375 56.777344 32.582031 56.839844 31.828125 56.964844 C 29.214844 57.390625 26.625 58.5 24.464844 60.253906 C 22.359375 61.953125 20.632812 64.246094 19.785156 67.070312 C 19.570312 67.800781 19.390625 68.5625 19.320312 69.335938 C 19.304688 69.503906 19.308594 69.707031 19.308594 69.910156 C 19.304688 69.972656 19.300781 70.0625 19.289062 70.136719 C 19.21875 70.15625 19.113281 70.1875 19.042969 70.203125 C 18.875 70.234375 18.71875 70.265625 18.601562 70.304688 C 17.796875 70.566406 17.046875 71.015625 16.375 71.589844 C 14.15625 73.484375 12.824219 76.617188 12.363281 79.710938 C 12.28125 79.921875 12.277344 80.15625 12.386719 80.417969 C 12.40625 80.460938 12.476562 80.714844 12.824219 80.847656 C 12.882812 80.871094 12.941406 80.886719 13.003906 80.890625 L 13.074219 80.90625 C 13.222656 80.964844 13.375 81.019531 13.523438 81.070312 C 14.03125 81.25 14.535156 81.410156 15.042969 81.578125 C 15.917969 81.867188 16.792969 82.152344 17.675781 82.421875 L 17.398438 82.542969 C 15.84375 83.222656 14.351562 84.027344 12.84375 84.835938 C 12.496094 85.019531 12.332031 85.488281 12.472656 85.902344 C 13.726562 89.640625 15.695312 93.277344 18.867188 95.246094 C 19.132812 95.410156 19.632812 95.75 19.839844 95.945312 C 20.824219 96.875 21.390625 98.105469 21.867188 99.441406 C 22.332031 100.734375 22.765625 102.054688 23.464844 103.207031 C 25.015625 105.761719 27.660156 107.5 30.304688 107.980469 C 31.144531 108.132812 32.003906 108.160156 32.855469 108.097656 C 33 108.085938 33.210938 108.09375 33.398438 108.070312 C 33.632812 108.039062 33.847656 107.957031 34.011719 107.835938 C 34.351562 107.589844 34.421875 107.265625 34.386719 106.941406 C 34.371094 106.789062 34.320312 106.613281 34.210938 106.449219 C 34.085938 106.261719 33.8125 106.050781 33.746094 106.003906 C 33.300781 105.6875 32.839844 105.40625 32.390625 105.097656 C 31.359375 104.398438 30.355469 103.628906 29.585938 102.558594 C 28.617188 101.210938 28.148438 99.617188 28.109375 97.871094 C 28.089844 96.96875 28.179688 95.992188 28.167969 95.039062 C 28.15625 93.933594 28 92.855469 27.5 91.90625 C 26.625 90.246094 24.941406 89.335938 23.425781 88.699219 C 23.339844 88.660156 23.144531 88.601562 22.941406 88.519531 C 23.144531 88.300781 23.40625 88.128906 23.609375 87.964844 C 24.40625 87.324219 25.25 86.765625 26.105469 86.230469 C 26.851562 85.765625 27.601562 85.316406 28.378906 84.921875 C 29.375 84.410156 30.40625 83.992188 31.433594 83.578125 C 31.554688 83.53125 31.933594 83.3125 32.097656 83.222656 C 32.128906 83.246094 32.160156 83.273438 32.195312 83.300781 C 32.339844 83.421875 32.480469 83.558594 32.597656 83.664062 C 33.164062 84.15625 33.710938 84.679688 34.25 85.207031 C 34.78125 85.722656 35.308594 86.238281 35.839844 86.753906 C 36.507812 87.410156 37.167969 88.082031 37.820312 88.765625 C 37.980469 88.933594 38.167969 89.183594 38.378906 89.378906 C 38.601562 89.589844 38.851562 89.742188 39.105469 89.800781 C 39.347656 89.859375 39.589844 89.816406 39.824219 89.707031 C 40 89.621094 40.160156 89.488281 40.308594 89.390625 C 40.75 89.097656 41.199219 88.808594 41.636719 88.503906 C 43.402344 87.273438 46.484375 84.875 48.101562 83.386719 C 48.304688 83.199219 48.398438 82.953125 48.375 82.640625 C 48.367188 82.515625 48.328125 82.328125 48.199219 82.148438 C 48.125 82.042969 47.957031 81.886719 47.949219 81.878906 C 47.691406 81.644531 47.421875 81.429688 47.148438 81.21875 C 46.570312 80.765625 45.988281 80.320312 45.402344 79.886719 C 43.746094 78.671875 41.363281 76.90625 39.707031 75.625 C 39.621094 75.53125 39.484375 75.433594 39.257812 75.417969 C 39.085938 75.402344 38.917969 75.460938 38.78125 75.578125 C 38.761719 75.589844 38.746094 75.597656 38.734375 75.605469 C 38.667969 75.65625 38.601562 75.703125 38.535156 75.753906 C 38.347656 75.898438 38.164062 76.046875 37.980469 76.191406 C 37.472656 76.59375 36.964844 76.992188 36.460938 77.398438 C 35.042969 78.546875 33.574219 79.664062 32.203125 80.902344 C 31.441406 80.257812 30.5625 79.734375 29.777344 79.167969 C 28.242188 78.046875 26.699219 76.9375 25.160156 75.828125 C 25.703125 75.433594 26.226562 74.964844 26.628906 74.398438 C 27.199219 73.601562 27.460938 72.542969 27.769531 71.59375 C 28.292969 69.96875 28.71875 68.300781 29.253906 66.683594 C 30.011719 64.417969 31.023438 62.105469 32.527344 60.375 C 33.023438 59.804688 33.582031 59.316406 34.207031 58.945312 Z M 32.007812 58.636719 C 29.632812 59.027344 27.269531 60.039062 25.300781 61.632812 C 23.449219 63.132812 21.914062 65.132812 21.167969 67.621094 C 20.980469 68.234375 20.832031 68.867188 20.773438 69.515625 C 20.753906 69.722656 20.773438 70 20.757812 70.25 C 20.734375 70.5625 20.667969 70.851562 20.542969 71.085938 C 20.414062 71.335938 20.207031 71.535156 19.9375 71.667969 C 19.640625 71.808594 19.234375 71.847656 19 71.925781 C 18.363281 72.132812 17.777344 72.492188 17.246094 72.945312 C 15.460938 74.472656 14.363281 76.945312 13.898438 79.4375 L 13.949219 79.457031 C 14.445312 79.632812 14.945312 79.792969 15.441406 79.957031 C 16.597656 80.339844 17.753906 80.710938 18.917969 81.058594 C 19.085938 81.105469 19.570312 81.167969 19.902344 81.285156 C 20.230469 81.402344 20.460938 81.605469 20.570312 81.78125 C 20.691406 81.972656 20.734375 82.191406 20.695312 82.4375 C 20.671875 82.5625 20.621094 82.769531 20.425781 82.949219 C 20.300781 83.066406 19.539062 83.414062 19.484375 83.4375 C 18.964844 83.660156 18.441406 83.890625 17.917969 84.117188 C 16.617188 84.691406 15.355469 85.351562 14.085938 86.027344 C 15.226562 89.136719 16.902344 92.113281 19.5625 93.761719 C 19.886719 93.96875 20.503906 94.394531 20.765625 94.640625 C 21.9375 95.75 22.644531 97.199219 23.21875 98.796875 C 23.640625 99.976562 24.019531 101.1875 24.664062 102.242188 C 25.992188 104.429688 28.265625 105.902344 30.53125 106.3125 C 30.839844 106.371094 31.15625 106.40625 31.464844 106.425781 C 30.351562 105.660156 29.300781 104.796875 28.460938 103.636719 C 27.28125 101.988281 26.695312 100.046875 26.652344 97.914062 C 26.628906 97.003906 26.722656 96.023438 26.707031 95.066406 C 26.699219 94.261719 26.621094 93.472656 26.253906 92.78125 C 25.546875 91.449219 24.144531 90.796875 22.929688 90.285156 C 22.695312 90.1875 21.953125 89.933594 21.621094 89.578125 C 21.257812 89.179688 21.140625 88.699219 21.371094 88.152344 C 21.65625 87.492188 22.277344 86.980469 22.78125 86.578125 C 23.621094 85.90625 24.511719 85.308594 25.410156 84.75 C 26.1875 84.261719 26.972656 83.796875 27.785156 83.378906 C 28.816406 82.851562 29.882812 82.417969 30.949219 81.988281 C 30.964844 81.984375 30.972656 81.976562 30.984375 81.972656 C 30.34375 81.476562 29.636719 81.054688 29.003906 80.59375 C 27.105469 79.210938 25.203125 77.84375 23.292969 76.480469 C 23.089844 76.332031 22.960938 76.074219 22.953125 75.792969 C 22.945312 75.511719 23.054688 75.246094 23.253906 75.082031 C 23.441406 74.921875 23.742188 74.835938 23.953125 74.699219 C 24.511719 74.332031 25.09375 73.90625 25.503906 73.328125 C 25.96875 72.671875 26.148438 71.78125 26.402344 71 C 26.929688 69.371094 27.355469 67.699219 27.894531 66.078125 C 28.722656 63.59375 29.847656 61.078125 31.496094 59.183594 C 31.660156 58.992188 31.832031 58.808594 32.007812 58.636719 Z M 39.207031 77.265625 C 39.074219 77.371094 38.941406 77.476562 38.808594 77.582031 C 38.300781 77.980469 37.796875 78.375 37.300781 78.777344 C 35.945312 79.875 34.546875 80.9375 33.242188 82.109375 C 33.324219 82.183594 33.402344 82.253906 33.476562 82.316406 C 34.0625 82.828125 34.625 83.371094 35.1875 83.914062 C 35.71875 84.429688 36.25 84.949219 36.78125 85.46875 C 37.464844 86.136719 38.136719 86.820312 38.800781 87.519531 C 38.910156 87.632812 39.023438 87.777344 39.152344 87.921875 C 39.210938 87.984375 39.257812 88.0625 39.316406 88.109375 C 39.390625 88.058594 39.515625 87.972656 39.585938 87.925781 C 40.015625 87.640625 40.453125 87.359375 40.878906 87.0625 C 42.367188 86.027344 44.808594 84.144531 46.464844 82.71875 L 46.332031 82.617188 C 45.765625 82.171875 45.191406 81.734375 44.613281 81.308594 C 43.054688 80.160156 40.84375 78.527344 39.207031 77.265625 Z M 39.207031 77.265625 " fill-opacity="1" fill-rule="evenodd"/><g clip-path="url(#f258882904)"><path fill="#000000" d="M 0.53125 83.285156 L 12.386719 80.417969 L 19.523438 82.464844 L 13.339844 85.945312 Z M 0.53125 83.285156 " fill-opacity="1" fill-rule="evenodd"/></g></svg>