<svg xmlns="http://www.w3.org/2000/svg" xmlns:xlink="http://www.w3.org/1999/xlink" width="500" zoomAndPan="magnify" viewBox="0 0 375 149.999998" height="200" preserveAspectRatio="xMidYMid meet" version="1.0"><defs><clipPath id="35553db992"><path d="M 302 12.65625 L 342 12.65625 L 342 65 L 302 65 Z M 302 12.65625 " clip-rule="nonzero"/></clipPath><clipPath id="507f18175e"><path d="M 243 12.65625 L 267 12.65625 L 267 37 L 243 37 Z M 243 12.65625 " clip-rule="nonzero"/></clipPath><clipPath id="dc275fa1e0"><path d="M 137 119 L 172 119 L 172 137.15625 L 137 137.15625 Z M 137 119 " clip-rule="nonzero"/></clipPath></defs><g clip-path="url(#35553db992)"><path fill="#000000" d="M 302.21875 12.859375 C 302.246094 12.988281 302.457031 12.871094 302.566406 12.894531 C 302.867188 12.953125 303.160156 13.023438 303.457031 13.09375 C 304.734375 13.40625 305.996094 13.808594 307.246094 14.234375 C 312.257812 15.945312 317.019531 18.453125 321.34375 21.855469 C 332.226562 30.417969 339.378906 44.914062 341.488281 59.804688 C 341.441406 59.828125 341.359375 60.039062 341.328125 60.085938 C 341.171875 60.347656 340.996094 60.605469 340.832031 60.871094 C 340.328125 61.6875 339.761719 62.46875 339.113281 63.144531 C 338.433594 63.851562 337.355469 64.800781 336.394531 64.835938 C 335.628906 64.867188 334.851562 64.269531 334.21875 63.867188 C 332.855469 63.007812 331.523438 62.085938 330.257812 61.046875 C 330.296875 61.15625 330.144531 60.652344 330.125 60.570312 C 330.039062 60.136719 329.941406 59.710938 329.835938 59.285156 C 329.515625 57.960938 329.1875 56.640625 328.859375 55.320312 C 327.863281 51.289062 326.34375 47.304688 324.753906 43.542969 C 320.121094 32.535156 310.640625 20.324219 302.21875 12.859375 Z M 302.21875 12.859375 " fill-opacity="1" fill-rule="evenodd"/></g><path fill="#000000" d="M 302.21875 129.609375 C 302.246094 129.480469 302.457031 129.597656 302.566406 129.574219 C 302.867188 129.515625 303.160156 129.445312 303.457031 129.375 C 304.734375 129.0625 305.996094 128.660156 307.246094 128.234375 C 312.257812 126.523438 317.019531 124.015625 321.34375 120.609375 C 332.226562 112.050781 339.378906 97.550781 341.488281 82.660156 C 341.441406 82.640625 341.359375 82.429688 341.328125 82.382812 C 341.171875 82.117188 340.996094 81.863281 340.832031 81.597656 C 340.328125 80.78125 339.761719 80 339.113281 79.324219 C 338.433594 78.617188 337.355469 77.667969 336.394531 77.628906 C 335.628906 77.601562 334.851562 78.199219 334.21875 78.601562 C 332.855469 79.457031 331.523438 80.382812 330.257812 81.421875 C 330.296875 81.3125 330.144531 81.816406 330.125 81.898438 C 330.039062 82.332031 329.941406 82.757812 329.835938 83.183594 C 329.515625 84.507812 329.1875 85.828125 328.859375 87.148438 C 327.863281 91.179688 326.34375 95.164062 324.753906 98.925781 C 320.121094 109.929688 310.640625 122.144531 302.21875 129.609375 Z M 302.21875 129.609375 " fill-opacity="1" fill-rule="evenodd"/><path fill="#000000" d="M 340.886719 47.257812 C 340.824219 47.234375 340.300781 47.035156 340.109375 46.910156 C 339.886719 46.761719 339.765625 46.570312 339.707031 46.425781 C 339.632812 46.234375 339.625 46.042969 339.667969 45.855469 C 339.707031 45.695312 339.792969 45.472656 340.039062 45.320312 C 340.09375 45.285156 340.203125 45.234375 340.351562 45.203125 C 340.558594 45.15625 340.960938 45.125 340.988281 45.125 C 341.75 45.089844 342.511719 45.152344 343.265625 45.277344 C 345.882812 45.703125 348.472656 46.816406 350.636719 48.566406 C 352.742188 50.269531 354.46875 52.5625 355.316406 55.390625 C 355.535156 56.121094 355.710938 56.882812 355.78125 57.65625 C 355.800781 57.824219 355.796875 58.027344 355.796875 58.234375 C 355.800781 58.296875 355.804688 58.386719 355.8125 58.457031 C 355.882812 58.480469 355.988281 58.511719 356.0625 58.523438 C 356.230469 58.558594 356.382812 58.585938 356.503906 58.625 C 357.304688 58.890625 358.058594 59.339844 358.730469 59.914062 C 360.949219 61.808594 362.28125 64.945312 362.742188 68.042969 C 362.828125 68.25 362.832031 68.484375 362.722656 68.75 C 362.703125 68.789062 362.632812 69.042969 362.28125 69.179688 C 362.226562 69.203125 362.167969 69.214844 362.105469 69.222656 L 362.035156 69.238281 C 361.882812 69.296875 361.734375 69.347656 361.582031 69.402344 C 361.078125 69.578125 360.574219 69.742188 360.0625 69.90625 C 359.191406 70.199219 358.3125 70.484375 357.429688 70.753906 L 357.703125 70.875 C 359.261719 71.554688 360.753906 72.359375 362.265625 73.167969 C 362.609375 73.355469 362.773438 73.824219 362.636719 74.238281 C 361.378906 77.976562 359.410156 81.613281 356.238281 83.589844 C 355.972656 83.753906 355.472656 84.089844 355.261719 84.289062 C 354.28125 85.214844 353.710938 86.449219 353.234375 87.785156 C 352.769531 89.078125 352.332031 90.398438 351.632812 91.554688 C 350.082031 94.109375 347.4375 95.847656 344.792969 96.328125 C 343.949219 96.480469 343.089844 96.511719 342.238281 96.449219 C 342.09375 96.4375 341.882812 96.445312 341.691406 96.417969 C 341.457031 96.386719 341.246094 96.308594 341.082031 96.1875 C 340.742188 95.941406 340.667969 95.613281 340.707031 95.289062 C 340.722656 95.136719 340.773438 94.964844 340.882812 94.800781 C 341.007812 94.613281 341.28125 94.402344 341.347656 94.355469 C 341.789062 94.035156 342.25 93.753906 342.703125 93.445312 C 343.738281 92.746094 344.738281 91.976562 345.507812 90.902344 C 346.480469 89.554688 346.949219 87.960938 346.988281 86.214844 C 347.007812 85.308594 346.917969 84.335938 346.925781 83.382812 C 346.941406 82.273438 347.09375 81.195312 347.597656 80.242188 C 348.472656 78.585938 350.15625 77.671875 351.671875 77.035156 C 351.761719 76.996094 351.957031 76.9375 352.160156 76.855469 C 351.957031 76.636719 351.695312 76.464844 351.492188 76.296875 C 350.695312 75.660156 349.847656 75.097656 348.992188 74.566406 C 348.246094 74.097656 347.496094 73.652344 346.71875 73.253906 C 345.722656 72.742188 344.6875 72.324219 343.660156 71.910156 C 343.542969 71.863281 343.160156 71.644531 342.996094 71.554688 C 342.964844 71.578125 342.933594 71.605469 342.898438 71.632812 C 342.753906 71.753906 342.613281 71.890625 342.496094 71.996094 C 341.929688 72.488281 341.382812 73.011719 340.84375 73.539062 C 340.3125 74.054688 339.785156 74.570312 339.25 75.089844 C 338.582031 75.746094 337.921875 76.414062 337.269531 77.101562 C 337.109375 77.269531 336.921875 77.519531 336.710938 77.714844 C 336.484375 77.925781 336.238281 78.078125 335.984375 78.136719 C 335.742188 78.195312 335.496094 78.15625 335.261719 78.042969 C 335.089844 77.960938 334.925781 77.824219 334.78125 77.726562 C 334.335938 77.433594 333.890625 77.144531 333.449219 76.839844 C 331.683594 75.609375 328.597656 73.207031 326.980469 71.71875 C 326.777344 71.53125 326.683594 71.28125 326.707031 70.972656 C 326.714844 70.847656 326.753906 70.660156 326.882812 70.476562 C 326.957031 70.375 327.125 70.21875 327.136719 70.210938 C 327.390625 69.976562 327.664062 69.761719 327.933594 69.550781 C 328.511719 69.097656 329.09375 68.652344 329.683594 68.21875 C 331.339844 67 333.726562 65.234375 335.382812 63.953125 C 335.46875 63.855469 335.605469 63.757812 335.832031 63.742188 C 336.003906 63.730469 336.171875 63.789062 336.308594 63.902344 C 336.328125 63.914062 336.34375 63.925781 336.351562 63.933594 C 336.417969 63.980469 336.484375 64.03125 336.550781 64.082031 C 336.742188 64.222656 336.925781 64.371094 337.109375 64.519531 C 337.617188 64.921875 338.125 65.316406 338.632812 65.726562 C 340.050781 66.878906 341.519531 67.996094 342.890625 69.234375 C 343.652344 68.589844 344.535156 68.0625 345.320312 67.496094 C 346.855469 66.375 348.398438 65.265625 349.941406 64.15625 C 349.394531 63.757812 348.871094 63.292969 348.46875 62.722656 C 347.898438 61.925781 347.636719 60.867188 347.324219 59.914062 C 346.804688 58.289062 346.378906 56.625 345.839844 55.003906 C 345.082031 52.734375 344.074219 50.421875 342.566406 48.691406 C 342.070312 48.121094 341.511719 47.628906 340.886719 47.257812 Z M 343.085938 46.949219 C 345.464844 47.34375 347.828125 48.351562 349.800781 49.949219 C 351.652344 51.449219 353.1875 53.453125 353.933594 55.941406 C 354.121094 56.554688 354.269531 57.1875 354.328125 57.835938 C 354.351562 58.046875 354.328125 58.320312 354.347656 58.574219 C 354.367188 58.886719 354.433594 59.175781 354.558594 59.40625 C 354.6875 59.660156 354.894531 59.859375 355.164062 59.988281 C 355.460938 60.132812 355.871094 60.171875 356.105469 60.25 C 356.738281 60.457031 357.328125 60.816406 357.859375 61.269531 C 359.644531 62.796875 360.746094 65.273438 361.210938 67.769531 L 361.15625 67.789062 C 360.660156 67.960938 360.160156 68.121094 359.664062 68.285156 C 358.507812 68.667969 357.351562 69.042969 356.183594 69.386719 C 356.015625 69.4375 355.535156 69.496094 355.199219 69.613281 C 354.875 69.730469 354.644531 69.933594 354.53125 70.113281 C 354.414062 70.304688 354.367188 70.523438 354.40625 70.769531 C 354.429688 70.894531 354.484375 71.101562 354.679688 71.28125 C 354.800781 71.398438 355.566406 71.746094 355.617188 71.769531 C 356.140625 71.992188 356.664062 72.222656 357.1875 72.449219 C 358.488281 73.023438 359.753906 73.683594 361.019531 74.359375 C 359.882812 77.472656 358.203125 80.453125 355.542969 82.101562 C 355.214844 82.308594 354.597656 82.734375 354.335938 82.980469 C 353.164062 84.089844 352.457031 85.542969 351.882812 87.140625 C 351.460938 88.320312 351.078125 89.53125 350.4375 90.585938 C 349.109375 92.773438 346.828125 94.25 344.566406 94.664062 C 344.253906 94.71875 343.941406 94.757812 343.628906 94.777344 C 344.742188 94.007812 345.796875 93.140625 346.632812 91.980469 C 347.816406 90.335938 348.402344 88.390625 348.449219 86.257812 C 348.46875 85.34375 348.375 84.363281 348.390625 83.40625 C 348.398438 82.601562 348.476562 81.8125 348.847656 81.121094 C 349.550781 79.789062 350.957031 79.132812 352.167969 78.621094 C 352.40625 78.523438 353.148438 78.269531 353.480469 77.914062 C 353.84375 77.515625 353.960938 77.035156 353.730469 76.488281 C 353.445312 75.828125 352.824219 75.3125 352.320312 74.910156 C 351.476562 74.238281 350.585938 73.644531 349.6875 73.082031 C 348.914062 72.59375 348.125 72.128906 347.3125 71.710938 C 346.28125 71.183594 345.210938 70.75 344.144531 70.316406 C 344.128906 70.3125 344.121094 70.308594 344.109375 70.304688 C 344.75 69.804688 345.460938 69.382812 346.09375 68.921875 C 347.992188 67.542969 349.894531 66.171875 351.804688 64.804688 C 352.011719 64.65625 352.140625 64.402344 352.148438 64.121094 C 352.15625 63.839844 352.046875 63.570312 351.847656 63.40625 C 351.660156 63.25 351.359375 63.160156 351.144531 63.023438 C 350.585938 62.65625 350.007812 62.230469 349.59375 61.652344 C 349.128906 60.996094 348.949219 60.105469 348.695312 59.324219 C 348.167969 57.695312 347.742188 56.023438 347.203125 54.398438 C 346.375 51.914062 345.246094 49.394531 343.597656 47.496094 C 343.433594 47.308594 343.261719 47.125 343.085938 46.949219 Z M 335.882812 65.59375 C 336.015625 65.699219 336.148438 65.804688 336.28125 65.910156 C 336.789062 66.308594 337.292969 66.703125 337.789062 67.105469 C 339.144531 68.203125 340.546875 69.269531 341.851562 70.441406 C 341.769531 70.511719 341.6875 70.585938 341.617188 70.648438 C 341.027344 71.160156 340.464844 71.703125 339.902344 72.246094 C 339.371094 72.765625 338.839844 73.285156 338.308594 73.800781 C 337.625 74.472656 336.953125 75.15625 336.285156 75.855469 C 336.179688 75.964844 336.066406 76.113281 335.9375 76.257812 C 335.878906 76.320312 335.832031 76.398438 335.773438 76.445312 C 335.699219 76.394531 335.574219 76.304688 335.503906 76.261719 C 335.074219 75.976562 334.632812 75.695312 334.207031 75.394531 C 332.71875 74.359375 330.277344 72.476562 328.621094 71.046875 L 328.753906 70.945312 C 329.320312 70.503906 329.890625 70.066406 330.472656 69.640625 C 332.03125 68.492188 334.242188 66.855469 335.882812 65.59375 Z M 335.882812 65.59375 " fill-opacity="1" fill-rule="evenodd"/><path fill="#000000" d="M 374.585938 71.617188 L 362.722656 68.75 L 355.578125 70.796875 L 361.769531 74.28125 Z M 374.585938 71.617188 " fill-opacity="1" fill-rule="evenodd"/><path fill="#000000" d="M 72.746094 19.253906 C 72.71875 19.382812 72.511719 19.265625 72.398438 19.289062 C 72.097656 19.347656 71.804688 19.417969 71.507812 19.488281 C 70.234375 19.800781 68.96875 20.203125 67.71875 20.628906 C 62.707031 22.339844 57.949219 24.847656 53.621094 28.25 C 42.738281 36.8125 35.585938 51.308594 33.476562 66.199219 C 33.523438 66.21875 33.605469 66.433594 33.636719 66.480469 C 33.796875 66.742188 33.96875 67 34.132812 67.265625 C 34.636719 68.082031 35.203125 68.863281 35.851562 69.539062 C 36.535156 70.246094 37.609375 71.195312 38.574219 71.230469 C 39.335938 71.261719 40.113281 70.664062 40.75 70.261719 C 42.109375 69.402344 43.445312 68.480469 44.707031 67.441406 C 44.671875 67.546875 44.820312 67.046875 44.839844 66.964844 C 44.929688 66.53125 45.027344 66.105469 45.132812 65.679688 C 45.449219 64.355469 45.777344 63.035156 46.105469 61.714844 C 47.105469 57.683594 48.625 53.699219 50.210938 49.9375 C 54.847656 38.929688 64.324219 26.71875 72.746094 19.253906 Z M 72.746094 19.253906 " fill-opacity="1" fill-rule="evenodd"/><path fill="#000000" d="M 72.746094 136.003906 C 72.71875 135.875 72.511719 135.992188 72.398438 135.96875 C 72.097656 135.910156 71.804688 135.839844 71.507812 135.769531 C 70.234375 135.457031 68.96875 135.054688 67.71875 134.628906 C 62.707031 132.917969 57.949219 130.410156 53.621094 127.003906 C 42.738281 118.445312 35.585938 103.945312 33.476562 89.054688 C 33.523438 89.035156 33.605469 88.824219 33.636719 88.777344 C 33.796875 88.511719 33.96875 88.257812 34.132812 87.992188 C 34.636719 87.175781 35.203125 86.394531 35.851562 85.71875 C 36.535156 85.011719 37.609375 84.0625 38.574219 84.023438 C 39.335938 83.996094 40.113281 84.59375 40.75 84.996094 C 42.109375 85.851562 43.445312 86.777344 44.707031 87.816406 C 44.671875 87.707031 44.820312 88.210938 44.839844 88.292969 C 44.929688 88.726562 45.027344 89.152344 45.132812 89.578125 C 45.449219 90.902344 45.777344 92.222656 46.105469 93.542969 C 47.105469 97.574219 48.625 101.558594 50.210938 105.320312 C 54.847656 116.324219 64.324219 128.539062 72.746094 136.003906 Z M 72.746094 136.003906 " fill-opacity="1" fill-rule="evenodd"/><path fill="#000000" d="M 34.078125 53.652344 C 34.140625 53.628906 34.664062 53.429688 34.855469 53.304688 C 35.082031 53.15625 35.199219 52.964844 35.257812 52.816406 C 35.332031 52.628906 35.34375 52.4375 35.296875 52.25 C 35.257812 52.089844 35.175781 51.867188 34.925781 51.714844 C 34.871094 51.679688 34.761719 51.628906 34.617188 51.597656 C 34.40625 51.550781 34.003906 51.519531 33.976562 51.519531 C 33.214844 51.484375 32.453125 51.546875 31.699219 51.671875 C 29.085938 52.097656 26.492188 53.210938 24.328125 54.960938 C 22.222656 56.664062 20.496094 58.957031 19.648438 61.78125 C 19.433594 62.515625 19.253906 63.277344 19.183594 64.050781 C 19.167969 64.21875 19.171875 64.421875 19.171875 64.628906 C 19.167969 64.6875 19.164062 64.78125 19.152344 64.851562 C 19.082031 64.875 18.976562 64.90625 18.90625 64.917969 C 18.738281 64.953125 18.582031 64.980469 18.460938 65.019531 C 17.660156 65.285156 16.90625 65.734375 16.238281 66.308594 C 14.015625 68.203125 12.683594 71.339844 12.222656 74.4375 C 12.136719 74.644531 12.132812 74.878906 12.246094 75.140625 C 12.261719 75.183594 12.332031 75.4375 12.683594 75.574219 C 12.742188 75.597656 12.796875 75.609375 12.859375 75.617188 L 12.929688 75.632812 C 13.082031 75.691406 13.234375 75.742188 13.382812 75.796875 C 13.886719 75.972656 14.394531 76.136719 14.902344 76.300781 C 15.777344 76.59375 16.652344 76.875 17.535156 77.148438 L 17.261719 77.269531 C 15.707031 77.949219 14.210938 78.753906 12.699219 79.5625 C 12.355469 79.75 12.191406 80.21875 12.328125 80.632812 C 13.585938 84.371094 15.554688 88.007812 18.726562 89.984375 C 18.992188 90.148438 19.496094 90.484375 19.703125 90.683594 C 20.6875 91.609375 21.253906 92.84375 21.734375 94.179688 C 22.199219 95.472656 22.632812 96.792969 23.332031 97.949219 C 24.882812 100.503906 27.527344 102.242188 30.175781 102.722656 C 31.015625 102.875 31.875 102.90625 32.726562 102.84375 C 32.875 102.832031 33.082031 102.839844 33.273438 102.8125 C 33.507812 102.78125 33.71875 102.703125 33.882812 102.582031 C 34.226562 102.335938 34.296875 102.007812 34.261719 101.683594 C 34.242188 101.53125 34.195312 101.359375 34.082031 101.195312 C 33.960938 101.007812 33.683594 100.792969 33.617188 100.75 C 33.175781 100.429688 32.714844 100.148438 32.261719 99.839844 C 31.230469 99.140625 30.226562 98.371094 29.457031 97.296875 C 28.488281 95.949219 28.015625 94.355469 27.976562 92.609375 C 27.960938 91.703125 28.046875 90.730469 28.039062 89.777344 C 28.027344 88.667969 27.871094 87.589844 27.371094 86.636719 C 26.492188 84.980469 24.808594 84.066406 23.292969 83.429688 C 23.203125 83.390625 23.007812 83.332031 22.804688 83.246094 C 23.007812 83.03125 23.269531 82.859375 23.472656 82.691406 C 24.273438 82.054688 25.117188 81.492188 25.972656 80.960938 C 26.71875 80.492188 27.472656 80.046875 28.246094 79.648438 C 29.246094 79.136719 30.277344 78.71875 31.304688 78.304688 C 31.425781 78.257812 31.804688 78.039062 31.96875 77.949219 C 32 77.972656 32.03125 78 32.066406 78.027344 C 32.214844 78.148438 32.351562 78.285156 32.46875 78.390625 C 33.039062 78.882812 33.582031 79.40625 34.125 79.933594 C 34.65625 80.449219 35.183594 80.964844 35.714844 81.484375 C 36.382812 82.140625 37.042969 82.808594 37.695312 83.496094 C 37.855469 83.664062 38.046875 83.914062 38.253906 84.109375 C 38.480469 84.320312 38.726562 84.472656 38.980469 84.53125 C 39.222656 84.589844 39.46875 84.550781 39.703125 84.4375 C 39.875 84.351562 40.039062 84.21875 40.1875 84.121094 C 40.628906 83.828125 41.078125 83.539062 41.515625 83.234375 C 43.285156 82.003906 46.367188 79.601562 47.984375 78.113281 C 48.191406 77.925781 48.28125 77.675781 48.261719 77.367188 C 48.25 77.242188 48.210938 77.054688 48.082031 76.871094 C 48.007812 76.769531 47.839844 76.613281 47.832031 76.605469 C 47.574219 76.371094 47.304688 76.15625 47.03125 75.945312 C 46.453125 75.492188 45.871094 75.046875 45.28125 74.613281 C 43.625 73.394531 41.242188 71.628906 39.582031 70.347656 C 39.5 70.25 39.363281 70.152344 39.136719 70.136719 C 38.964844 70.125 38.792969 70.183594 38.65625 70.296875 C 38.640625 70.308594 38.621094 70.320312 38.613281 70.324219 C 38.546875 70.375 38.480469 70.425781 38.414062 70.476562 C 38.222656 70.617188 38.042969 70.765625 37.855469 70.914062 C 37.351562 71.316406 36.839844 71.710938 36.335938 72.121094 C 34.917969 73.269531 33.445312 74.390625 32.074219 75.628906 C 31.3125 74.984375 30.433594 74.457031 29.648438 73.890625 C 28.109375 72.769531 26.566406 71.660156 25.023438 70.550781 C 25.570312 70.152344 26.09375 69.6875 26.496094 69.117188 C 27.070312 68.320312 27.328125 67.261719 27.640625 66.308594 C 28.164062 64.683594 28.589844 63.015625 29.125 61.398438 C 29.882812 59.128906 30.894531 56.816406 32.398438 55.085938 C 32.894531 54.515625 33.453125 54.023438 34.078125 53.652344 Z M 31.882812 53.34375 C 29.5 53.738281 27.140625 54.746094 25.167969 56.34375 C 23.316406 57.84375 21.777344 59.847656 21.03125 62.335938 C 20.847656 62.949219 20.695312 63.582031 20.636719 64.230469 C 20.617188 64.441406 20.636719 64.714844 20.621094 64.96875 C 20.597656 65.28125 20.53125 65.570312 20.40625 65.800781 C 20.277344 66.054688 20.070312 66.253906 19.800781 66.382812 C 19.503906 66.527344 19.09375 66.566406 18.859375 66.644531 C 18.226562 66.851562 17.636719 67.210938 17.105469 67.664062 C 15.320312 69.191406 14.222656 71.667969 13.753906 74.164062 L 13.808594 74.183594 C 14.304688 74.355469 14.804688 74.515625 15.300781 74.679688 C 16.457031 75.0625 17.617188 75.4375 18.78125 75.78125 C 18.949219 75.832031 19.433594 75.890625 19.765625 76.007812 C 20.09375 76.125 20.324219 76.328125 20.433594 76.503906 C 20.554688 76.699219 20.597656 76.917969 20.558594 77.164062 C 20.535156 77.289062 20.484375 77.496094 20.289062 77.675781 C 20.164062 77.789062 19.402344 78.140625 19.347656 78.164062 C 18.824219 78.386719 18.300781 78.617188 17.78125 78.84375 C 16.476562 79.417969 15.214844 80.078125 13.945312 80.753906 C 15.085938 83.867188 16.765625 86.847656 19.421875 88.496094 C 19.75 88.703125 20.367188 89.128906 20.628906 89.375 C 21.804688 90.484375 22.507812 91.9375 23.085938 93.53125 C 23.503906 94.714844 23.886719 95.925781 24.527344 96.980469 C 25.859375 99.167969 28.136719 100.644531 30.402344 101.058594 C 30.710938 101.113281 31.027344 101.152344 31.335938 101.167969 C 30.222656 100.402344 29.167969 99.535156 28.332031 98.375 C 27.148438 96.730469 26.5625 94.785156 26.519531 92.648438 C 26.496094 91.738281 26.589844 90.757812 26.578125 89.800781 C 26.566406 88.996094 26.488281 88.207031 26.121094 87.515625 C 25.414062 86.179688 24.011719 85.527344 22.796875 85.015625 C 22.5625 84.917969 21.816406 84.664062 21.484375 84.308594 C 21.121094 83.910156 21.003906 83.429688 21.234375 82.882812 C 21.519531 82.222656 22.140625 81.707031 22.644531 81.304688 C 23.488281 80.632812 24.378906 80.039062 25.277344 79.476562 C 26.054688 78.988281 26.84375 78.523438 27.652344 78.105469 C 28.6875 77.574219 29.753906 77.144531 30.820312 76.710938 C 30.835938 76.707031 30.84375 76.703125 30.855469 76.695312 C 30.214844 76.199219 29.503906 75.777344 28.871094 75.316406 C 26.976562 73.9375 25.070312 72.566406 23.160156 71.199219 C 22.957031 71.050781 22.828125 70.796875 22.816406 70.515625 C 22.808594 70.234375 22.921875 69.964844 23.121094 69.800781 C 23.304688 69.644531 23.605469 69.554688 23.820312 69.417969 C 24.378906 69.050781 24.957031 68.625 25.371094 68.046875 C 25.835938 67.390625 26.019531 66.5 26.269531 65.71875 C 26.796875 64.089844 27.222656 62.417969 27.765625 60.792969 C 28.59375 58.308594 29.71875 55.789062 31.367188 53.890625 C 31.53125 53.699219 31.703125 53.519531 31.882812 53.34375 Z M 39.082031 71.988281 C 38.949219 72.089844 38.816406 72.199219 38.683594 72.304688 C 38.179688 72.703125 37.671875 73.097656 37.175781 73.5 C 35.820312 74.597656 34.421875 75.660156 33.113281 76.835938 C 33.199219 76.90625 33.277344 76.980469 33.347656 77.042969 C 33.9375 77.554688 34.5 78.097656 35.0625 78.640625 C 35.59375 79.160156 36.125 79.679688 36.660156 80.195312 C 37.339844 80.867188 38.015625 81.550781 38.679688 82.25 C 38.785156 82.359375 38.902344 82.507812 39.03125 82.652344 C 39.085938 82.714844 39.136719 82.792969 39.195312 82.839844 C 39.269531 82.789062 39.394531 82.699219 39.464844 82.65625 C 39.894531 82.371094 40.332031 82.089844 40.757812 81.789062 C 42.246094 80.753906 44.6875 78.871094 46.347656 77.441406 L 46.214844 77.339844 C 45.644531 76.898438 45.074219 76.460938 44.492188 76.035156 C 42.933594 74.886719 40.722656 73.25 39.082031 71.988281 Z M 39.082031 71.988281 " fill-opacity="1" fill-rule="evenodd"/><path fill="#000000" d="M 0.378906 78.011719 L 12.246094 75.140625 L 19.386719 77.191406 L 13.195312 80.671875 Z M 0.378906 78.011719 " fill-opacity="1" fill-rule="evenodd"/><path fill="#000000" d="M 79.996094 76.546875 C 79.492188 76.917969 79.148438 77.507812 78.824219 78.058594 C 78.261719 79.023438 77.78125 80.035156 77.308594 81.046875 C 76.683594 82.378906 76.089844 83.734375 75.609375 85.128906 C 75.339844 85.898438 75.054688 86.714844 74.996094 87.542969 C 74.917969 88.75 75.304688 90.152344 76.175781 90.992188 C 77.246094 92.019531 79.132812 92.261719 80.457031 91.699219 C 82.945312 90.644531 84.269531 87.332031 83.578125 84.6875 C 83.1875 83.203125 82.097656 82.054688 80.972656 81.125 C 80.558594 80.785156 80.140625 80.457031 79.703125 80.152344 C 79.582031 80.066406 79.273438 79.914062 79.222656 79.753906 C 79.144531 79.507812 79.433594 79.09375 79.53125 78.894531 C 79.816406 78.324219 80.617188 76.792969 79.996094 76.546875 Z M 77.792969 82.949219 C 77.75 82.9375 77.5 83.355469 77.488281 83.382812 C 77.324219 83.71875 77.164062 84.054688 77.046875 84.414062 C 76.671875 85.539062 76.40625 87.078125 77.601562 87.789062 C 78.628906 88.402344 79.929688 88.203125 80.988281 87.789062 C 81.300781 87.667969 82.0625 87.394531 81.964844 86.921875 C 81.867188 86.441406 81.445312 86.003906 81.140625 85.648438 C 80.261719 84.636719 78.898438 83.667969 77.792969 82.949219 Z M 77.792969 82.949219 " fill-opacity="1" fill-rule="evenodd"/><g clip-path="url(#507f18175e)"><path fill="#000000" d="M 248.941406 22.539062 C 249.003906 22.527344 248.917969 22.652344 248.902344 22.707031 C 248.878906 22.816406 248.855469 22.921875 248.824219 23.03125 C 248.765625 23.226562 248.597656 24.066406 248.238281 23.972656 C 248.058594 23.925781 247.894531 23.738281 247.773438 23.621094 C 247.472656 23.328125 247.191406 23.023438 246.890625 22.734375 C 246.371094 22.230469 245.769531 21.78125 245.132812 21.402344 C 244.792969 21.199219 244.289062 21.03125 244.054688 20.714844 C 243.695312 20.226562 243.90625 19.398438 243.941406 18.859375 C 244.039062 17.40625 244.121094 14.882812 246.222656 14.710938 C 247.707031 14.589844 248.785156 15.691406 249.644531 16.65625 C 251.714844 18.972656 253.171875 21.910156 254.144531 24.753906 C 254.519531 25.851562 254.875 26.957031 255.210938 28.066406 C 255.28125 28.300781 255.339844 28.542969 255.425781 28.773438 C 255.445312 28.820312 255.488281 28.957031 255.574219 28.941406 C 255.761719 28.910156 255.820312 28.382812 255.851562 28.261719 C 256.023438 27.527344 256.25 26.804688 256.382812 26.0625 C 257.058594 22.226562 257.722656 19.792969 258.796875 16.882812 C 258.929688 16.53125 259.09375 16.0625 259.25 15.734375 C 259.691406 14.824219 260.273438 13.933594 261.105469 13.277344 C 261.464844 12.992188 261.90625 12.726562 262.390625 12.695312 C 262.949219 12.660156 263.460938 12.898438 263.90625 13.1875 C 264.84375 13.800781 265.582031 14.671875 265.976562 15.664062 C 266.097656 15.964844 266.257812 16.296875 266.234375 16.628906 C 266.1875 17.257812 265.925781 17.886719 265.730469 18.492188 C 265.605469 18.871094 265.480469 19.253906 265.347656 19.628906 C 265.203125 20.039062 265.0625 20.453125 264.890625 20.855469 C 264.859375 20.9375 264.792969 21.167969 264.675781 21.1875 C 264.582031 21.199219 264.496094 21.0625 264.457031 21.003906 C 264.277344 20.75 264.128906 20.472656 263.964844 20.207031 C 263.410156 19.292969 262.234375 17.453125 260.851562 18.304688 C 259.671875 19.035156 259.089844 20.695312 258.667969 21.863281 C 257.613281 24.75 257.046875 27.8125 256.628906 30.824219 C 256.617188 30.78125 256.601562 30.914062 256.589844 30.960938 C 256.5625 31.0625 256.53125 31.160156 256.503906 31.261719 C 256.410156 31.585938 256.3125 31.90625 256.210938 32.226562 C 255.84375 33.371094 255.429688 34.496094 254.765625 35.523438 C 254.609375 35.769531 254.441406 36.011719 254.238281 36.230469 C 254.207031 36.261719 254.054688 36.449219 253.992188 36.40625 C 253.796875 36.265625 253.871094 35.519531 253.855469 35.324219 C 253.769531 34.304688 253.648438 33.28125 253.445312 32.273438 C 252.8125 29.097656 250.882812 25.234375 248.941406 22.539062 Z M 248.941406 22.539062 " fill-opacity="1" fill-rule="evenodd"/></g><path fill="#000000" d="M 252.332031 60.519531 C 252.394531 60.507812 252.304688 60.632812 252.292969 60.691406 C 252.269531 60.796875 252.246094 60.90625 252.214844 61.015625 C 252.15625 61.207031 251.988281 62.046875 251.628906 61.957031 C 251.449219 61.910156 251.285156 61.722656 251.160156 61.601562 C 250.863281 61.3125 250.578125 61.007812 250.28125 60.71875 C 249.761719 60.210938 249.160156 59.765625 248.523438 59.386719 C 248.183594 59.183594 247.675781 59.015625 247.441406 58.699219 C 247.085938 58.210938 247.292969 57.382812 247.332031 56.84375 C 247.429688 55.386719 247.511719 52.867188 249.609375 52.695312 C 251.097656 52.574219 252.175781 53.671875 253.03125 54.636719 C 255.101562 56.957031 256.5625 59.890625 257.535156 62.738281 C 257.910156 63.835938 258.265625 64.9375 258.597656 66.046875 C 258.671875 66.28125 258.726562 66.523438 258.816406 66.753906 C 258.835938 66.804688 258.878906 66.9375 258.960938 66.921875 C 259.148438 66.890625 259.210938 66.363281 259.238281 66.246094 C 259.410156 65.511719 259.640625 64.785156 259.769531 64.042969 C 260.445312 60.210938 261.109375 57.777344 262.1875 54.863281 C 262.316406 54.511719 262.480469 54.046875 262.636719 53.71875 C 263.078125 52.808594 263.664062 51.914062 264.492188 51.257812 C 264.851562 50.972656 265.292969 50.707031 265.78125 50.675781 C 266.335938 50.644531 266.851562 50.882812 267.292969 51.171875 C 268.234375 51.78125 268.96875 52.652344 269.363281 53.644531 C 269.484375 53.949219 269.648438 54.28125 269.625 54.609375 C 269.574219 55.242188 269.3125 55.871094 269.117188 56.472656 C 268.996094 56.851562 268.867188 57.234375 268.734375 57.613281 C 268.59375 58.023438 268.449219 58.4375 268.28125 58.839844 C 268.246094 58.917969 268.183594 59.148438 268.066406 59.167969 C 267.96875 59.183594 267.886719 59.046875 267.847656 58.988281 C 267.667969 58.730469 267.515625 58.457031 267.355469 58.191406 C 266.796875 57.273438 265.621094 55.4375 264.238281 56.289062 C 263.058594 57.015625 262.480469 58.679688 262.054688 59.84375 C 261 62.734375 260.433594 65.792969 260.015625 68.808594 C 260.007812 68.761719 259.992188 68.898438 259.976562 68.941406 C 259.949219 69.042969 259.921875 69.144531 259.890625 69.246094 C 259.796875 69.570312 259.699219 69.890625 259.597656 70.210938 C 259.230469 71.355469 258.820312 72.476562 258.15625 73.507812 C 257.996094 73.753906 257.828125 73.996094 257.625 74.210938 C 257.597656 74.246094 257.445312 74.433594 257.382812 74.386719 C 257.1875 74.25 257.257812 73.5 257.242188 73.304688 C 257.160156 72.285156 257.035156 71.261719 256.832031 70.257812 C 256.199219 67.082031 254.273438 63.21875 252.332031 60.519531 Z M 252.332031 60.519531 " fill-opacity="1" fill-rule="evenodd"/><path fill="#000000" d="M 135.628906 41.433594 C 135.691406 41.425781 135.605469 41.515625 135.589844 41.554688 C 135.566406 41.632812 135.542969 41.707031 135.511719 41.785156 C 135.453125 41.921875 135.285156 42.515625 134.925781 42.449219 C 134.746094 42.417969 134.582031 42.285156 134.460938 42.199219 C 134.160156 41.996094 133.878906 41.78125 133.578125 41.574219 C 133.058594 41.21875 132.457031 40.902344 131.820312 40.632812 C 131.480469 40.492188 130.976562 40.371094 130.742188 40.148438 C 130.382812 39.800781 130.59375 39.214844 130.628906 38.835938 C 130.726562 37.808594 130.808594 36.023438 132.910156 35.902344 C 134.394531 35.816406 135.472656 36.597656 136.332031 37.277344 C 138.402344 38.917969 139.859375 40.992188 140.832031 43 C 141.207031 43.777344 141.5625 44.558594 141.898438 45.34375 C 141.96875 45.507812 142.027344 45.679688 142.113281 45.84375 C 142.132812 45.875 142.175781 45.972656 142.261719 45.960938 C 142.449219 45.9375 142.507812 45.566406 142.539062 45.480469 C 142.710938 44.964844 142.9375 44.449219 143.070312 43.925781 C 143.746094 41.214844 144.410156 39.496094 145.484375 37.4375 C 145.617188 37.1875 145.78125 36.859375 145.9375 36.628906 C 146.378906 35.984375 146.960938 35.351562 147.792969 34.890625 C 148.152344 34.6875 148.59375 34.5 149.078125 34.476562 C 149.636719 34.453125 150.148438 34.625 150.59375 34.828125 C 151.53125 35.257812 152.269531 35.875 152.664062 36.574219 C 152.785156 36.789062 152.945312 37.027344 152.921875 37.257812 C 152.875 37.703125 152.613281 38.148438 152.417969 38.574219 C 152.292969 38.84375 152.167969 39.113281 152.035156 39.378906 C 151.890625 39.671875 151.75 39.960938 151.582031 40.246094 C 151.546875 40.304688 151.484375 40.464844 151.363281 40.480469 C 151.269531 40.492188 151.183594 40.394531 151.144531 40.351562 C 150.964844 40.171875 150.816406 39.976562 150.652344 39.789062 C 150.097656 39.140625 148.921875 37.84375 147.539062 38.445312 C 146.359375 38.957031 145.78125 40.132812 145.355469 40.957031 C 144.300781 43 143.734375 45.164062 143.316406 47.292969 C 143.308594 47.261719 143.289062 47.355469 143.277344 47.386719 C 143.25 47.460938 143.21875 47.53125 143.191406 47.601562 C 143.097656 47.832031 143 48.058594 142.898438 48.285156 C 142.53125 49.09375 142.117188 49.886719 141.453125 50.613281 C 141.296875 50.789062 141.128906 50.960938 140.925781 51.113281 C 140.894531 51.136719 140.742188 51.269531 140.679688 51.238281 C 140.484375 51.140625 140.558594 50.609375 140.542969 50.472656 C 140.457031 49.753906 140.335938 49.027344 140.132812 48.316406 C 139.5 46.074219 137.570312 43.34375 135.628906 41.433594 Z M 135.628906 41.433594 " fill-opacity="1" fill-rule="evenodd"/><path fill="#000000" d="M 240.972656 48.527344 C 240.960938 48.511719 242.179688 47.867188 242.261719 47.820312 C 243.164062 47.335938 244.070312 46.855469 244.972656 46.375 C 247.800781 44.871094 250.667969 43.453125 253.539062 42.066406 C 258.546875 39.644531 263.726562 37.648438 268.917969 35.835938 C 270.207031 35.386719 271.496094 34.933594 272.792969 34.511719 C 272.992188 34.449219 273.773438 34.097656 273.929688 34.429688 C 274.140625 34.878906 273.269531 36.085938 273.089844 36.445312 C 272.789062 37.039062 272.539062 37.925781 272.113281 38.402344 C 271.613281 38.964844 270.832031 39.175781 270.191406 39.402344 C 269.109375 39.792969 268.023438 40.183594 266.945312 40.589844 C 259.960938 43.226562 253.242188 46.46875 246.519531 49.871094 C 244.820312 50.726562 243.121094 51.667969 241.363281 52.359375 C 241.121094 52.457031 240.03125 53.011719 239.796875 52.714844 C 239.488281 52.320312 240.835938 48.914062 240.972656 48.527344 Z M 240.972656 48.527344 " fill-opacity="1" fill-rule="evenodd"/><path fill="#000000" d="M 184.710938 95.25 C 184.707031 95.238281 185.394531 94.757812 185.441406 94.726562 C 185.953125 94.363281 186.464844 94.003906 186.976562 93.644531 C 188.574219 92.523438 190.195312 91.464844 191.816406 90.425781 C 194.644531 88.617188 197.566406 87.105469 200.492188 85.730469 C 201.21875 85.386719 201.945312 85.042969 202.671875 84.722656 C 202.785156 84.671875 203.226562 84.410156 203.308594 84.644531 C 203.421875 84.964844 202.921875 85.84375 202.816406 86.101562 C 202.640625 86.53125 202.488281 87.171875 202.246094 87.523438 C 201.960938 87.929688 201.519531 88.09375 201.160156 88.265625 C 200.550781 88.5625 199.9375 88.859375 199.332031 89.167969 C 195.394531 91.164062 191.597656 93.589844 187.796875 96.128906 C 186.835938 96.769531 185.875 97.46875 184.886719 97.992188 C 184.746094 98.066406 184.132812 98.480469 184.003906 98.269531 C 183.835938 97.992188 184.632812 95.53125 184.710938 95.25 Z M 184.710938 95.25 " fill-opacity="1" fill-rule="evenodd"/><path fill="#000000" d="M 139.234375 68.816406 C 139.226562 68.800781 140.277344 68.203125 140.347656 68.160156 C 141.128906 67.707031 141.90625 67.257812 142.6875 66.8125 C 145.128906 65.414062 147.605469 64.09375 150.085938 62.800781 C 154.40625 60.546875 158.875 58.679688 163.355469 56.984375 C 164.46875 56.5625 165.578125 56.136719 166.699219 55.746094 C 166.871094 55.683594 167.542969 55.355469 167.675781 55.660156 C 167.855469 56.074219 167.101562 57.1875 166.945312 57.519531 C 166.683594 58.066406 166.460938 58.882812 166.09375 59.328125 C 165.664062 59.84375 164.988281 60.042969 164.433594 60.257812 C 163.5 60.621094 162.566406 60.988281 161.636719 61.367188 C 155.609375 63.832031 149.808594 66.851562 144.003906 70.019531 C 142.539062 70.820312 141.070312 71.695312 139.554688 72.339844 C 139.34375 72.429688 138.402344 72.945312 138.203125 72.675781 C 137.941406 72.316406 139.113281 69.175781 139.234375 68.816406 Z M 139.234375 68.816406 " fill-opacity="1" fill-rule="evenodd"/><path fill="#000000" d="M 96.773438 115.636719 C 96.765625 115.625 97.816406 115.027344 97.886719 114.984375 C 98.667969 114.53125 99.449219 114.082031 100.226562 113.636719 C 102.667969 112.238281 105.144531 110.917969 107.625 109.625 C 111.945312 107.371094 116.414062 105.503906 120.894531 103.808594 C 122.007812 103.386719 123.117188 102.960938 124.238281 102.566406 C 124.410156 102.507812 125.082031 102.179688 125.214844 102.484375 C 125.394531 102.898438 124.640625 104.011719 124.484375 104.34375 C 124.222656 104.890625 124.003906 105.707031 123.632812 106.152344 C 123.203125 106.667969 122.527344 106.867188 121.976562 107.082031 C 121.039062 107.445312 120.105469 107.808594 119.175781 108.191406 C 113.148438 110.65625 107.351562 113.675781 101.542969 116.84375 C 100.078125 117.644531 98.609375 118.519531 97.09375 119.164062 C 96.882812 119.253906 95.941406 119.769531 95.742188 119.5 C 95.480469 119.136719 96.65625 116 96.773438 115.636719 Z M 96.773438 115.636719 " fill-opacity="1" fill-rule="evenodd"/><path fill="#000000" d="M 280.480469 43.394531 C 280.367188 43.097656 280.722656 42.335938 280.804688 42.070312 C 281.199219 40.761719 281.675781 39.492188 282.253906 38.277344 C 282.90625 36.917969 283.652344 35.613281 284.472656 34.375 C 284.921875 33.703125 285.394531 32.953125 286.035156 32.496094 C 287.128906 31.707031 288.621094 31.820312 289.859375 31.867188 C 292.363281 31.957031 294.867188 32.25 297.347656 32.675781 C 298.945312 32.949219 300.640625 33.25 302.1875 33.796875 C 302.660156 33.964844 303.445312 34.214844 303.625 34.816406 C 303.835938 35.535156 303.472656 36.4375 303.226562 37.078125 C 302.609375 38.6875 301.792969 40.21875 300.976562 41.710938 C 299.691406 44.078125 298.164062 46.296875 296.539062 48.378906 C 295.375 49.867188 294.152344 51.386719 292.570312 52.324219 C 290.648438 53.460938 288.394531 53.753906 286.285156 54.164062 C 284.710938 54.464844 283.140625 54.78125 281.5625 55.050781 C 281.183594 55.117188 280.320312 55.40625 279.964844 55.125 C 279.707031 54.921875 280.65625 54.265625 280.742188 54.203125 C 281.921875 53.328125 283.171875 52.554688 284.394531 51.75 C 287.332031 49.820312 290.316406 47.960938 293.289062 46.09375 C 293.949219 45.675781 294.625 45.285156 295.253906 44.8125 C 295.378906 44.71875 295.851562 44.429688 295.765625 44.191406 C 295.65625 43.898438 295.035156 43.808594 294.808594 43.738281 C 293.628906 43.371094 292.386719 43.207031 291.171875 43.078125 C 290.144531 42.972656 289.113281 42.898438 288.085938 42.855469 C 286.101562 42.773438 282.457031 43.128906 280.480469 43.394531 Z M 280.480469 43.394531 " fill-opacity="1" fill-rule="evenodd"/><path fill="#000000" d="M 288.613281 67.246094 C 288.75 66.921875 289.492188 66.53125 289.746094 66.328125 C 290.839844 65.476562 291.9375 64.632812 293.039062 63.792969 C 296.917969 60.835938 300.894531 58.058594 304.617188 54.878906 C 307.207031 52.667969 309.738281 50.382812 312.113281 47.917969 C 312.699219 47.3125 313.296875 46.707031 313.800781 46.023438 C 313.921875 45.855469 314.277344 45.496094 314.261719 45.257812 C 314.253906 45.105469 314.015625 44.964844 313.914062 44.878906 C 313.511719 44.535156 313.09375 44.207031 312.691406 43.859375 C 311.292969 42.664062 310.238281 41.421875 310.84375 39.433594 C 311 38.921875 311.203125 38.417969 311.453125 37.949219 C 312.523438 35.957031 315.644531 32.472656 317.863281 34.917969 C 319.253906 36.453125 318.320312 39.742188 317.765625 41.441406 C 317.632812 41.847656 317.03125 42.699219 317.050781 43.113281 C 317.050781 43.207031 317.382812 43.355469 317.445312 43.402344 C 317.816406 43.65625 318.230469 43.949219 318.503906 44.320312 C 319.238281 45.324219 318.28125 47.089844 317.675781 47.914062 C 317.113281 48.671875 316.304688 47.226562 315.84375 46.773438 C 315.75 46.679688 315.34375 46.1875 315.199219 46.339844 C 314.292969 47.265625 313.625 48.472656 312.753906 49.441406 C 309.015625 53.597656 304.988281 57.785156 300.332031 60.785156 C 297.636719 62.527344 294.878906 64.179688 292.128906 65.832031 C 291.386719 66.277344 290.636719 66.730469 289.863281 67.121094 C 289.597656 67.253906 288.921875 67.296875 288.613281 67.246094 Z M 316.121094 42.109375 C 316.085938 42.078125 316.1875 41.777344 316.195312 41.734375 C 316.273438 41.34375 316.359375 40.941406 316.378906 40.542969 C 316.433594 39.496094 316.1875 38.25 315.421875 37.515625 C 314.625 36.75 313.710938 36.996094 313.058594 37.820312 C 312.917969 38.003906 312.5625 38.4375 312.625 38.707031 C 312.71875 39.09375 313.089844 39.515625 313.339844 39.785156 C 314.078125 40.578125 315.339844 41.367188 316.121094 42.109375 Z M 316.121094 42.109375 " fill-opacity="1" fill-rule="evenodd"/><path fill="#000000" d="M 133.292969 64.117188 C 133.429688 63.792969 134.171875 63.402344 134.425781 63.203125 C 135.519531 62.347656 136.617188 61.503906 137.71875 60.664062 C 141.597656 57.707031 145.574219 54.933594 149.296875 51.753906 C 151.886719 49.542969 154.417969 47.253906 156.792969 44.789062 C 157.378906 44.183594 157.976562 43.578125 158.480469 42.894531 C 158.601562 42.726562 158.957031 42.371094 158.945312 42.128906 C 158.933594 41.976562 158.695312 41.835938 158.597656 41.753906 C 158.191406 41.40625 157.773438 41.078125 157.371094 40.730469 C 155.972656 39.535156 154.917969 38.292969 155.523438 36.308594 C 155.679688 35.796875 155.882812 35.289062 156.132812 34.820312 C 157.203125 32.828125 160.324219 29.347656 162.542969 31.789062 C 163.9375 33.324219 163 36.613281 162.445312 38.3125 C 162.3125 38.71875 161.714844 39.570312 161.730469 39.988281 C 161.734375 40.078125 162.0625 40.230469 162.125 40.273438 C 162.496094 40.53125 162.910156 40.820312 163.183594 41.195312 C 163.917969 42.195312 162.960938 43.964844 162.355469 44.785156 C 161.792969 45.542969 160.984375 44.097656 160.527344 43.648438 C 160.429688 43.550781 160.027344 43.058594 159.878906 43.210938 C 158.976562 44.136719 158.304688 45.34375 157.433594 46.3125 C 153.699219 50.46875 149.667969 54.65625 145.015625 57.660156 C 142.316406 59.398438 139.558594 61.050781 136.808594 62.703125 C 136.066406 63.148438 135.316406 63.601562 134.542969 63.992188 C 134.277344 64.125 133.605469 64.167969 133.292969 64.117188 Z M 160.800781 38.980469 C 160.765625 38.949219 160.867188 38.648438 160.875 38.605469 C 160.953125 38.214844 161.039062 37.816406 161.058594 37.414062 C 161.117188 36.367188 160.867188 35.121094 160.101562 34.386719 C 159.304688 33.625 158.394531 33.867188 157.742188 34.691406 C 157.597656 34.875 157.242188 35.308594 157.308594 35.582031 C 157.398438 35.96875 157.769531 36.390625 158.019531 36.65625 C 158.757812 37.449219 160.019531 38.238281 160.800781 38.980469 Z M 160.800781 38.980469 " fill-opacity="1" fill-rule="evenodd"/><path fill="#000000" d="M 222.015625 91.28125 C 222 91.207031 221.941406 91.417969 221.90625 91.484375 C 221.839844 91.621094 221.777344 91.757812 221.710938 91.890625 C 221.503906 92.332031 221.289062 92.765625 221.078125 93.203125 C 220.507812 94.394531 219.945312 95.589844 219.402344 96.796875 C 217.863281 100.242188 216.171875 104.222656 216.535156 108.15625 C 216.652344 109.4375 217.035156 111.605469 218.441406 111.933594 C 220.328125 112.378906 221.609375 109.75 222.214844 108.253906 C 222.371094 107.875 222.507812 107.488281 222.621094 107.089844 C 222.785156 106.539062 223.015625 105.699219 222.875 105.109375 C 222.769531 104.648438 222.304688 105.296875 222.207031 105.425781 C 221.753906 106.03125 221.402344 107.089844 220.753906 107.46875 C 219.945312 107.941406 219.195312 106.589844 218.960938 105.96875 C 217.648438 102.507812 219.789062 99.003906 221.078125 95.957031 C 221.574219 94.785156 222.285156 92.640625 222.015625 91.28125 Z M 222.015625 91.28125 " fill-opacity="1" fill-rule="evenodd"/><path fill="#000000" d="M 112.789062 81.648438 C 112.773438 81.570312 112.714844 81.78125 112.679688 81.851562 C 112.613281 81.984375 112.550781 82.121094 112.484375 82.257812 C 112.277344 82.695312 112.0625 83.132812 111.851562 83.570312 C 111.28125 84.761719 110.71875 85.957031 110.175781 87.164062 C 108.636719 90.609375 106.945312 94.589844 107.308594 98.523438 C 107.425781 99.800781 107.808594 101.96875 109.214844 102.300781 C 111.101562 102.742188 112.382812 100.113281 112.992188 98.621094 C 113.144531 98.242188 113.28125 97.851562 113.394531 97.457031 C 113.558594 96.902344 113.789062 96.066406 113.652344 95.472656 C 113.542969 95.011719 113.078125 95.660156 112.980469 95.789062 C 112.527344 96.394531 112.175781 97.453125 111.527344 97.832031 C 110.71875 98.304688 109.96875 96.953125 109.734375 96.332031 C 108.421875 92.871094 110.5625 89.367188 111.851562 86.320312 C 112.347656 85.148438 113.058594 83.003906 112.789062 81.648438 Z M 112.789062 81.648438 " fill-opacity="1" fill-rule="evenodd"/><path fill="#000000" d="M 222.164062 52.296875 C 222.15625 52.253906 222.839844 52.269531 222.9375 52.261719 C 223.238281 52.242188 225.394531 52.253906 225.316406 51.789062 C 225.226562 51.203125 224.011719 50.328125 223.644531 49.953125 C 222.09375 48.371094 220.457031 46.855469 218.761719 45.464844 C 218.636719 45.359375 216.878906 43.796875 216.769531 43.894531 C 215.832031 44.71875 215.324219 47.296875 214.84375 48.480469 C 214.691406 48.839844 214.292969 49.5 214.371094 49.929688 C 214.488281 50.589844 216.058594 50.550781 216.425781 51.363281 C 217.730469 54.203125 222.652344 60.691406 223.574219 61.414062 C 223.253906 62.726562 221.765625 64.953125 221.1875 66.136719 C 219.097656 70.367188 215.953125 75.5 216.769531 80.601562 C 217 82.003906 217.410156 83.390625 218.015625 84.648438 C 218.414062 85.472656 218.902344 86.265625 219.464844 86.957031 C 219.914062 87.496094 220.40625 87.992188 220.972656 88.371094 C 224.4375 90.683594 227.742188 86.863281 230.195312 84.429688 C 232.484375 82.160156 235.167969 79.507812 236.21875 76.175781 C 237.585938 71.867188 235.566406 68.164062 232.902344 65.152344 C 231.90625 64.035156 229.003906 62.230469 229.402344 60.335938 C 229.738281 58.78125 231.0625 57.34375 231.917969 56.136719 C 233.570312 53.8125 235.203125 51.472656 236.757812 49.066406 C 237.300781 48.222656 238.996094 45.78125 238.117188 44.609375 C 237.628906 43.949219 236.722656 44.929688 236.332031 45.277344 C 234.859375 46.578125 233.59375 48.1875 232.351562 49.746094 C 231.519531 50.773438 230.710938 51.8125 229.925781 52.875 C 229.480469 53.472656 229.058594 54.085938 228.648438 54.710938 C 228.40625 55.085938 228.160156 55.464844 227.917969 55.847656 C 227.128906 57.097656 226.890625 57.605469 225.875 56.566406 C 225.628906 56.316406 225.394531 56.054688 225.164062 55.785156 C 224.828125 55.394531 224.507812 54.984375 224.1875 54.578125 C 223.671875 53.929688 221.746094 51.902344 221.238281 51.246094 Z M 226.207031 65.515625 C 225.886719 66.140625 224.710938 67.246094 224.179688 67.917969 C 223.078125 69.304688 222.5 70.914062 221.710938 72.546875 C 221.160156 73.691406 220.917969 74.953125 220.636719 76.21875 C 220.011719 79.046875 221.550781 82.058594 224.445312 81.796875 C 225.824219 81.675781 226.917969 80.902344 227.953125 79.957031 C 230.398438 77.71875 233.347656 74.824219 231.207031 71.066406 C 230.09375 69.09375 227.882812 66.875 226.207031 65.515625 Z M 226.207031 65.515625 " fill-opacity="1" fill-rule="evenodd"/><path fill="#000000" d="M 315.160156 71.371094 C 316.046875 69.871094 317.273438 68.46875 318.445312 67.222656 C 318.632812 67.019531 319.335938 66.078125 319.671875 66.164062 C 320.605469 66.40625 321.066406 69.492188 321.183594 70.242188 C 321.335938 71.25 321.34375 72.277344 321.261719 73.292969 C 320.917969 77.691406 319.515625 82.589844 316.539062 85.660156 C 314.816406 87.441406 312.476562 88.378906 310.3125 86.992188 C 309.5 86.472656 308.765625 85.792969 308.105469 85.046875 C 306.941406 83.734375 306.039062 82.085938 305.328125 80.425781 C 305.246094 80.242188 305.121094 80.753906 305.03125 80.929688 C 304.855469 81.265625 304.671875 81.597656 304.492188 81.929688 C 303.992188 82.855469 303.503906 83.785156 302.964844 84.683594 C 301.382812 87.339844 299.25 90.390625 296.390625 91.375 C 292.242188 92.808594 287.976562 88.558594 286.65625 84.472656 C 286.175781 82.972656 286.128906 81.605469 286.105469 80.058594 C 286.113281 80.058594 284.742188 81.527344 284.636719 81.621094 C 283.003906 83.140625 281.316406 84.386719 279.433594 85.46875 C 279.363281 85.210938 279.824219 87.859375 279.824219 88.472656 C 279.824219 90.171875 279.839844 91.34375 279.324219 93.21875 C 279.128906 93.921875 277.769531 96.019531 277.453125 96.46875 C 275.167969 99.757812 272.683594 102.820312 269.953125 105.65625 C 262.242188 113.644531 251.167969 122.875 240.425781 116.351562 C 239.007812 115.492188 237.683594 114.449219 236.582031 113.128906 C 235.105469 111.367188 234.058594 109.277344 233.453125 106.964844 C 231.96875 101.261719 233.0625 94.996094 234.601562 89.453125 C 235.035156 87.898438 235.578125 86.386719 236.226562 84.933594 C 236.277344 84.824219 236.722656 83.675781 236.933594 83.921875 C 237.253906 84.296875 236.867188 85.679688 236.804688 86.101562 C 236.5 88.375 236.15625 90.640625 235.898438 92.921875 C 235.203125 99.132812 235.957031 105.953125 240.96875 109.78125 C 249.257812 116.113281 258.261719 107.917969 264.8125 102.617188 C 270.105469 98.339844 276.234375 93.773438 276.109375 85.8125 C 275.90625 85.867188 275.632812 86.269531 275.460938 86.398438 C 274.867188 86.847656 274.21875 87.226562 273.578125 87.570312 C 271.410156 88.710938 269.082031 89.445312 266.675781 89.445312 C 265.636719 89.445312 264.582031 89.277344 263.59375 88.949219 C 262.796875 88.691406 262.039062 88.300781 261.347656 87.785156 C 256.148438 83.839844 259.855469 75.8125 262.75 71.648438 C 264.152344 69.632812 266.355469 66.601562 268.949219 66.796875 C 271.457031 66.984375 273.808594 69.644531 275.238281 71.742188 C 276.535156 73.636719 277.328125 75.910156 278.003906 78.160156 C 277.941406 77.90625 278.480469 78.105469 278.710938 78.035156 C 279.105469 77.914062 279.503906 77.757812 279.894531 77.582031 C 281.046875 77.066406 282.175781 76.367188 283.164062 75.539062 C 284.628906 74.308594 285.773438 72.730469 287.011719 71.25 C 287.304688 70.910156 288.011719 69.78125 288.53125 70.058594 C 289.507812 70.574219 289.515625 73.238281 289.648438 74.210938 C 290.101562 77.558594 290.089844 81.308594 293.761719 82.019531 C 294.3125 82.128906 294.878906 82.152344 295.4375 82.105469 C 299.660156 81.746094 302.609375 77.746094 304.472656 73.871094 C 305.175781 72.402344 305.769531 70.875 306.480469 69.417969 C 306.652344 69.074219 306.972656 68.207031 307.421875 68.21875 C 307.714844 68.226562 307.789062 68.714844 307.839844 68.953125 C 308.027344 69.890625 308.054688 70.871094 308.082031 71.828125 C 308.042969 71.714844 308.042969 72.070312 308.027344 72.191406 C 308.007812 72.429688 307.972656 72.664062 307.964844 72.90625 C 307.929688 73.699219 307.992188 74.519531 308.140625 75.296875 C 308.578125 77.640625 309.980469 79.40625 312.148438 79.820312 C 315.792969 80.511719 316.511719 74.28125 315.160156 71.371094 Z M 271.136719 80.859375 C 271.125 80.90625 270.773438 81 270.734375 81.015625 C 270.328125 81.164062 269.917969 81.289062 269.5 81.382812 C 268.167969 81.679688 265.421875 82.132812 264.90625 80.144531 C 264.386719 78.15625 266.558594 76.097656 268.230469 76.328125 C 269.554688 76.515625 270.878906 78.796875 271.136719 80.859375 Z M 271.136719 80.859375 " fill-opacity="1" fill-rule="evenodd"/><path fill="#000000" d="M 213.265625 27.636719 L 218.425781 20.785156 L 226.132812 26.617188 L 221.023438 33.71875 Z M 213.265625 27.636719 " fill-opacity="1" fill-rule="evenodd"/><path fill="#000000" d="M 105.171875 40.613281 L 109.425781 35.414062 L 115.777344 39.839844 L 111.566406 45.226562 Z M 105.171875 40.613281 " fill-opacity="1" fill-rule="evenodd"/><path fill="#000000" d="M 115.777344 39.671875 L 120.03125 34.472656 L 126.382812 38.898438 L 122.167969 44.285156 Z M 115.777344 39.671875 " fill-opacity="1" fill-rule="evenodd"/><path fill="#000000" d="M 226.128906 27.636719 L 231.292969 20.785156 L 238.996094 26.617188 L 233.886719 33.71875 Z M 226.128906 27.636719 " fill-opacity="1" fill-rule="evenodd"/><path fill="#000000" d="M 141.933594 98.714844 L 147.09375 91.863281 L 154.800781 97.699219 L 149.691406 104.796875 Z M 141.933594 98.714844 " fill-opacity="1" fill-rule="evenodd"/><path fill="#000000" d="M 199.367188 72.253906 C 199.300781 72.191406 199.351562 71.050781 199.304688 70.878906 C 199.039062 69.839844 198.175781 69.132812 197.128906 68.796875 C 194.484375 67.933594 191.4375 68.71875 188.765625 69.113281 C 186.882812 69.390625 184.875 69.5 183.214844 68.445312 C 181.136719 67.125 180.453125 64.4375 180.941406 62.226562 C 181.757812 58.527344 184.898438 54.152344 188.828125 52.929688 C 189.214844 52.808594 189.964844 52.945312 190.300781 53.035156 C 191.792969 53.441406 193.195312 54.148438 194.390625 55.085938 C 196.960938 57.09375 198.847656 59.816406 200.289062 62.625 C 201.347656 64.667969 202.222656 66.921875 202.351562 69.214844 C 202.378906 69.757812 202.460938 70.722656 202.410156 71.203125 C 202.175781 73.320312 201.257812 75.320312 199.777344 76.925781 C 197.910156 78.957031 195.390625 80.433594 192.851562 81.597656 C 188.578125 83.550781 183.9375 84.714844 179.292969 85.539062 C 177.96875 85.769531 176.003906 86.214844 174.722656 86.449219 C 171.363281 87.0625 168 87.613281 164.601562 88.015625 C 155.949219 89.046875 147.109375 89.542969 138.386719 89.394531 C 132.855469 89.300781 126.925781 89.023438 122.039062 86.292969 C 118.082031 84.085938 115.789062 80.191406 113.773438 76.511719 C 113.78125 76.523438 113.382812 76.890625 113.359375 76.914062 C 112.871094 77.367188 112.332031 77.769531 111.796875 78.171875 C 110.179688 79.382812 108.511719 80.421875 106.621094 81.214844 C 106.054688 81.449219 105.46875 81.652344 104.867188 81.800781 C 104.691406 81.84375 104.246094 81.835938 104.101562 81.945312 C 103.835938 82.144531 104.097656 83.445312 104.105469 83.722656 C 104.136719 85.269531 104.199219 86.84375 103.953125 88.378906 C 103.769531 89.527344 102.796875 90.738281 102.15625 91.683594 C 100.015625 94.835938 97.0625 97.425781 94.03125 99.8125 C 92.550781 100.976562 91.015625 102.074219 89.441406 103.128906 C 88.1875 103.972656 86.917969 104.792969 85.613281 105.5625 C 79.894531 108.925781 70.125 112.589844 64.5625 106.84375 C 63.75 106.007812 63.109375 105.023438 62.621094 103.992188 C 61.636719 101.914062 60.972656 99.621094 60.578125 97.378906 C 60.125 94.8125 59.957031 92.101562 60.375 89.519531 C 60.617188 88.007812 60.980469 86.375 61.621094 84.960938 C 61.726562 84.730469 62.125 83.71875 62.535156 83.816406 C 63.199219 83.976562 63 85.804688 62.992188 86.210938 C 62.941406 88.671875 62.648438 91.128906 62.855469 93.589844 C 63.546875 101.828125 72.152344 105.683594 79.886719 103.070312 C 83.429688 101.875 86.683594 100.011719 89.820312 98.078125 C 91.9375 96.769531 93.980469 95.378906 95.886719 93.808594 C 98.085938 92.003906 100.015625 89.839844 101.585938 87.519531 C 102.25 86.539062 101.824219 85.519531 101.507812 84.46875 C 101.488281 84.410156 101.253906 83.453125 101.171875 83.460938 C 99.890625 83.605469 98.207031 84.726562 96.996094 85.167969 C 93.277344 86.523438 86.519531 87.78125 85.460938 82.648438 C 85.308594 81.910156 85.328125 81.148438 85.417969 80.402344 C 85.566406 79.117188 85.894531 77.828125 86.351562 76.613281 C 86.957031 75.007812 87.753906 73.417969 88.890625 72.089844 C 92.246094 68.15625 97.292969 70.105469 100.191406 73.472656 C 100.871094 74.257812 101.445312 75.070312 101.972656 75.953125 C 102.074219 76.125 102.273438 76.738281 102.523438 76.777344 C 103.269531 76.90625 104.441406 76.285156 105.097656 76.039062 C 107.484375 75.148438 109.65625 73.925781 111.734375 72.523438 C 111.136719 71.726562 110.871094 70.417969 110.546875 69.507812 C 109.144531 65.582031 109.210938 61.519531 110.8125 57.652344 C 111.71875 55.46875 113.496094 52.558594 116.429688 53.457031 C 120.128906 54.59375 122.554688 58.976562 123.378906 62.308594 C 123.617188 63.273438 123.992188 64.417969 123.847656 65.425781 C 123.722656 66.28125 123.160156 67.132812 122.691406 67.855469 C 121.605469 69.527344 120.355469 71.164062 118.976562 72.636719 C 118.601562 73.035156 117.15625 73.96875 117.066406 74.539062 C 117.023438 74.832031 117.546875 75.28125 117.722656 75.476562 C 118.402344 76.230469 119.03125 77.019531 119.757812 77.734375 C 123.082031 81.007812 126.824219 82.902344 131.578125 83.390625 C 131.613281 83.492188 132.34375 83.503906 132.4375 83.515625 C 133.402344 83.621094 134.371094 83.683594 135.339844 83.742188 C 139.367188 83.980469 143.386719 83.910156 147.414062 83.742188 C 154.167969 83.464844 160.875 82.613281 167.550781 81.648438 C 172.886719 80.878906 178.226562 80.171875 183.375 78.578125 C 187.480469 77.304688 195.480469 74.03125 199.367188 72.253906 Z M 96.636719 78.230469 C 96.707031 78.246094 96.523438 78.3125 96.46875 78.351562 C 96.359375 78.429688 96.246094 78.503906 96.132812 78.574219 C 95.792969 78.792969 95.433594 78.992188 95.070312 79.179688 C 94.816406 79.308594 94.554688 79.4375 94.292969 79.558594 C 93.5 79.917969 91.554688 80.742188 91.003906 79.597656 C 90.808594 79.195312 90.910156 78.699219 91.015625 78.289062 C 91.28125 77.292969 92.113281 75.699219 93.402344 75.679688 C 94.460938 75.667969 96.101562 77.519531 96.636719 78.230469 Z M 114.589844 70.757812 C 114.621094 70.628906 114.210938 70.183594 114.148438 70.074219 C 113.734375 69.363281 113.382812 68.59375 113.089844 67.832031 C 112.375 65.992188 112.324219 63.65625 113.0625 61.808594 C 113.195312 61.476562 113.367188 61.160156 113.597656 60.875 C 115.214844 58.867188 117.792969 60.988281 119.007812 62.300781 C 119.28125 62.597656 119.535156 62.910156 119.796875 63.21875 C 120.179688 63.679688 120.566406 64.132812 120.933594 64.605469 C 121.058594 64.761719 121.3125 64.996094 121.28125 65.210938 C 121.203125 65.75 120.433594 66.332031 120.050781 66.679688 C 118.773438 67.839844 116.035156 69.785156 114.589844 70.757812 Z M 193.589844 62.601562 C 193.136719 62.539062 192.539062 62.742188 192.101562 62.8125 C 190.984375 62.992188 189.867188 63.195312 188.738281 63.289062 C 187.988281 63.355469 187.140625 63.402344 186.453125 63.042969 C 184.875 62.210938 186.53125 59.742188 187.683594 59.292969 C 189.449219 58.609375 192.742188 60.847656 193.589844 62.601562 Z M 193.589844 62.601562 " fill-opacity="1" fill-rule="evenodd"/><path fill="#000000" d="M 177.347656 108.078125 C 177.335938 108.078125 177.148438 107.726562 177.140625 107.707031 C 177.015625 107.449219 176.898438 107.183594 176.785156 106.917969 C 176.476562 106.210938 176.214844 105.488281 175.957031 104.765625 C 175.171875 102.566406 174.652344 100.332031 174.15625 98.0625 C 172.644531 91.101562 171.917969 83.992188 171.339844 76.917969 C 171.339844 76.9375 171.3125 76.625 171.308594 76.574219 C 171.300781 76.355469 171.289062 76.136719 171.28125 75.917969 C 171.253906 75.300781 171.238281 74.6875 171.21875 74.074219 C 171.152344 72.121094 171.089844 70.171875 171.046875 68.21875 C 170.917969 62.4375 170.097656 55.292969 169.691406 49.519531 C 169.496094 49.503906 169.0625 48.699219 168.953125 48.558594 C 168.671875 48.1875 168.320312 47.8125 168.222656 47.351562 C 167.960938 46.078125 169.285156 44.75 169.960938 43.765625 C 170.160156 43.480469 170.828125 42.089844 171.308594 42.1875 C 171.613281 42.25 171.835938 42.667969 171.957031 42.898438 C 172.367188 43.648438 172.710938 44.4375 173.0625 45.210938 C 174.265625 47.832031 175.640625 50.363281 176.933594 52.941406 C 177.261719 53.59375 178.300781 55.082031 178.046875 55.851562 C 177.882812 56.359375 176.675781 55.460938 176.496094 55.339844 C 175.992188 55.007812 175.519531 54.648438 175.050781 54.269531 C 174.960938 54.191406 174.679688 53.878906 174.53125 53.957031 C 174.253906 54.09375 174.308594 54.851562 174.308594 55.082031 C 174.300781 55.3125 174.308594 55.539062 174.308594 55.765625 C 174.3125 56.601562 174.34375 58.078125 174.378906 58.863281 C 174.523438 61.734375 174.796875 64.597656 174.988281 67.460938 C 175.617188 76.460938 176.46875 85.433594 178.101562 94.328125 C 178.765625 97.988281 179.589844 103.246094 183.160156 105.550781 C 182.917969 105.722656 183.746094 105.378906 184.035156 105.308594 C 184.628906 105.164062 185.21875 105.121094 185.816406 105.035156 C 187.726562 104.769531 189.757812 104.773438 191.511719 105.667969 C 195.433594 107.671875 196.773438 113.761719 195.195312 117.445312 C 193.867188 120.542969 190.34375 121.34375 187.25 120.15625 C 184.191406 118.976562 181.28125 115.78125 180.15625 112.828125 C 174.898438 114.964844 170.128906 119.039062 163.941406 118.445312 C 162.046875 118.261719 160.390625 117.253906 159.628906 115.578125 C 159.292969 114.839844 159.070312 114.050781 158.886719 113.265625 C 158.859375 113.136719 158.800781 112.507812 158.574219 112.5625 C 158.175781 112.660156 157.851562 113.191406 157.628906 113.476562 C 157.035156 114.226562 156.421875 114.960938 155.785156 115.671875 C 153.941406 117.730469 151.785156 119.808594 149.046875 120.75 C 146.855469 121.5 144.339844 120.894531 142.152344 119.90625 C 140.117188 118.984375 138.542969 117.273438 137.25 115.566406 C 133.734375 110.933594 132.578125 105.292969 131.667969 99.765625 C 131.339844 97.765625 131.09375 95.757812 130.886719 93.742188 C 130.636719 91.277344 130.449219 88.8125 130.277344 86.339844 C 130.082031 83.527344 129.894531 80.714844 129.703125 77.902344 C 129.4375 74.042969 129.035156 70.195312 128.519531 66.355469 C 128.015625 62.605469 127.378906 58.867188 126.519531 55.175781 C 126.1875 53.753906 126.019531 51.789062 125.199219 50.523438 C 124.648438 49.671875 124.191406 51.792969 123.859375 51.003906 C 123.257812 49.59375 123.964844 45.570312 125.722656 44.96875 C 127.140625 44.484375 128.085938 47.828125 128.324219 48.550781 C 129.78125 52.964844 130.828125 57.457031 131.652344 62.011719 C 133.210938 70.609375 134.503906 79.203125 135.339844 87.894531 C 135.921875 93.929688 135.859375 100.667969 138.320312 106.371094 C 138.914062 107.746094 139.726562 109.058594 140.800781 110.152344 C 141.65625 111.03125 142.652344 111.785156 143.746094 112.382812 C 150.042969 115.824219 156.820312 109.808594 160.257812 105.199219 C 160.164062 105.320312 160.515625 105.40625 160.5625 105.550781 C 160.703125 105.980469 160.753906 106.441406 160.851562 106.878906 C 161.246094 108.609375 161.054688 111.3125 163.460938 111.660156 C 168.085938 112.332031 173.316406 110.132812 177.347656 108.078125 Z M 185.824219 111.289062 C 185.921875 110.980469 186.929688 110.707031 187.203125 110.601562 C 188.574219 110.054688 190.964844 109.378906 191.765625 111.074219 C 192.242188 112.078125 191.804688 113.367188 191.191406 114.234375 C 190.886719 114.65625 190.484375 115.078125 189.898438 114.96875 C 189.324219 114.859375 188.597656 114.578125 188.1875 114.21875 C 187.324219 113.46875 186.34375 112.285156 185.824219 111.289062 Z M 177.347656 108.078125 Z M 177.347656 108.078125 " fill-opacity="1" fill-rule="evenodd"/><path fill="#000000" d="M 180.78125 39.144531 L 185.945312 32.292969 L 193.648438 38.128906 L 188.539062 45.226562 Z M 180.78125 39.144531 " fill-opacity="1" fill-rule="evenodd"/><path fill="#000000" d="M 308.425781 104.59375 C 308.371094 104.605469 308.53125 104.246094 308.550781 104.203125 C 308.636719 103.96875 308.71875 103.734375 308.8125 103.503906 C 309.023438 102.964844 309.25 102.441406 309.460938 101.902344 C 309.476562 101.855469 309.613281 101.417969 309.691406 101.464844 C 309.765625 101.503906 309.796875 101.730469 309.820312 101.8125 C 309.945312 102.203125 310.078125 102.59375 310.167969 103 C 310.578125 104.824219 310.558594 106.710938 309.824219 108.425781 C 309.304688 109.644531 308.292969 110.53125 307.097656 110.667969 C 305.59375 110.839844 304.089844 109.449219 304.035156 107.679688 C 304.035156 107.671875 303.871094 107.828125 303.859375 107.84375 C 303.773438 107.953125 303.695312 108.070312 303.613281 108.1875 C 303.359375 108.566406 303.125 108.960938 302.886719 109.359375 C 302.148438 110.605469 301.257812 112.09375 299.867188 112.367188 C 298.003906 112.734375 296.667969 111.042969 294.925781 110.773438 C 294.0625 110.636719 293.195312 110.960938 292.417969 111.378906 C 291.070312 112.101562 289.855469 113.140625 288.683594 114.183594 C 288.171875 114.640625 287.5 115.226562 286.996094 115.679688 C 285.890625 116.671875 284.78125 117.65625 283.660156 118.625 C 279.570312 122.160156 275.648438 125.75 271.09375 128.476562 C 271.167969 128.570312 270.894531 128.570312 270.796875 128.621094 C 270.554688 128.746094 270.316406 128.867188 270.074219 128.984375 C 269.375 129.316406 268.667969 129.632812 267.960938 129.945312 C 265.796875 130.902344 263.636719 131.734375 261.382812 132.367188 C 260.652344 132.570312 259.910156 132.765625 259.160156 132.828125 C 259.046875 132.835938 258.417969 132.90625 258.425781 132.640625 C 258.4375 132.125 259.609375 131.613281 259.902344 131.429688 C 261.46875 130.457031 263.085938 129.601562 264.671875 128.671875 C 268.375 126.492188 271.832031 123.839844 275.292969 121.195312 C 277.820312 119.265625 280.386719 117.386719 282.878906 115.386719 C 283.046875 115.25 283.515625 114.875 283.671875 114.75 C 284.382812 114.1875 285.078125 113.613281 285.777344 113.035156 C 287.636719 111.503906 289.496094 109.945312 291.464844 108.609375 C 292.558594 107.863281 293.808594 107.074219 295.113281 107.089844 C 297.023438 107.109375 298.878906 109.089844 300.800781 108.089844 C 302.300781 107.316406 303.109375 105.449219 304.035156 104 C 304.296875 103.582031 304.921875 102.292969 305.445312 102.242188 C 305.777344 102.210938 305.554688 103.152344 305.53125 103.3125 C 305.386719 104.378906 305.058594 105.953125 305.785156 106.835938 C 306.890625 108.175781 309.46875 106.785156 308.425781 104.59375 Z M 308.425781 104.59375 " fill-opacity="1" fill-rule="evenodd"/><path fill="#000000" d="M 248.429688 80.835938 C 248.425781 80.804688 248.484375 80.871094 248.511719 80.886719 C 248.558594 80.914062 248.605469 80.941406 248.652344 80.964844 C 248.816406 81.054688 248.980469 81.140625 249.152344 81.222656 C 249.277344 81.285156 249.40625 81.347656 249.535156 81.40625 C 249.621094 81.445312 249.707031 81.484375 249.796875 81.519531 C 250.097656 81.652344 251.09375 82.136719 251.066406 81.4375 C 251.042969 80.925781 250.644531 80.40625 250.355469 80.015625 C 249.757812 79.210938 249.160156 78.410156 248.558594 77.613281 C 247.453125 76.152344 246.34375 74.699219 245.214844 73.257812 C 244.945312 72.917969 244.6875 72.574219 244.40625 72.246094 C 244.328125 72.152344 244.191406 71.949219 244.058594 71.945312 C 243.851562 71.9375 243.738281 72.410156 243.695312 72.546875 C 243.46875 73.261719 243.335938 74.007812 243.175781 74.738281 C 242.925781 75.90625 242.632812 77.058594 242.3125 78.203125 C 242.179688 78.6875 241.871094 79.363281 242.039062 79.871094 C 242.140625 80.183594 242.378906 80.425781 242.601562 80.65625 C 242.902344 80.964844 243.207031 81.265625 243.539062 81.539062 C 243.433594 81.808594 243.761719 82.503906 243.832031 82.753906 C 244.15625 83.910156 244.554688 85.042969 244.949219 86.175781 C 245.730469 88.425781 246.597656 90.640625 247.667969 92.761719 C 248.832031 95.078125 250.199219 97.300781 251.296875 99.644531 C 251.214844 99.632812 250.871094 100.160156 250.820312 100.21875 C 250.261719 100.867188 249.6875 101.511719 249.105469 102.144531 C 246.886719 104.558594 244.511719 106.808594 242 108.90625 C 238.246094 112.046875 233.941406 114.605469 229.542969 116.671875 C 225.152344 118.738281 220.296875 120.402344 215.402344 119.839844 C 215.359375 119.710938 215.128906 119.828125 214.996094 119.796875 C 214.53125 119.679688 214.070312 119.554688 213.617188 119.398438 C 211.898438 118.8125 210.253906 118.109375 208.808594 116.964844 C 204.703125 113.714844 203.53125 108.371094 203.546875 103.242188 C 203.558594 98.820312 204.523438 94.425781 205.96875 90.277344 C 206.554688 88.605469 207.171875 86.941406 207.769531 85.273438 C 207.808594 85.164062 208.339844 83.847656 208.066406 83.847656 C 207.839844 83.847656 207.582031 84.214844 207.460938 84.375 C 206.941406 85.058594 206.503906 85.820312 206.136719 86.601562 C 204.621094 89.796875 203.488281 93.242188 202.484375 96.636719 C 202.023438 98.191406 201.601562 99.761719 201.265625 101.351562 C 199.476562 109.867188 200.058594 121.558594 208.527344 126.15625 C 209.8125 126.851562 211.203125 127.378906 212.621094 127.699219 C 222.902344 130.042969 232.183594 124.359375 239.820312 118.121094 C 239.753906 118.171875 239.96875 118.039062 240.035156 117.992188 C 240.175781 117.890625 240.316406 117.789062 240.457031 117.691406 C 240.894531 117.375 241.332031 117.050781 241.765625 116.722656 C 243.046875 115.75 244.265625 114.691406 245.4375 113.589844 C 249.152344 110.078125 252.515625 106.203125 253.558594 101.019531 C 253.640625 100.617188 253.71875 100.066406 253.742188 99.667969 C 253.816406 98.605469 253.835938 97.539062 253.804688 96.476562 C 253.707031 93.085938 252.433594 90.253906 251.078125 87.222656 C 250.203125 85.265625 249.457031 82.71875 248.429688 80.835938 Z M 248.429688 80.835938 " fill-opacity="1" fill-rule="evenodd"/><path fill="#000000" d="M 203.839844 37.78125 C 203.839844 37.78125 203.804688 37.726562 203.800781 37.726562 C 203.773438 37.683594 203.746094 37.644531 203.714844 37.601562 C 203.628906 37.484375 203.535156 37.371094 203.449219 37.253906 C 203.203125 36.925781 202.726562 36.457031 202.832031 36.078125 C 202.96875 35.578125 203.398438 35.066406 203.710938 34.609375 C 204.273438 33.785156 204.859375 32.960938 205.363281 32.117188 C 205.347656 32.152344 205.871094 32.703125 205.910156 32.765625 C 206.40625 33.472656 206.835938 34.199219 207.28125 34.921875 C 208.160156 36.359375 208.894531 37.828125 209.679688 39.289062 C 210.296875 40.441406 211.007812 41.578125 211.511719 42.757812 C 211.769531 43.363281 211.933594 43.980469 211.894531 44.609375 C 211.886719 44.734375 211.910156 45.117188 211.644531 45.152344 C 211.285156 45.207031 210.832031 44.660156 210.664062 44.519531 C 209.847656 43.835938 209.109375 43.128906 208.246094 42.472656 C 208.175781 42.625 208.378906 42.957031 208.410156 43.109375 C 208.519531 43.640625 208.59375 44.175781 208.679688 44.707031 C 208.96875 46.542969 209.1875 48.378906 209.402344 50.21875 C 209.941406 54.871094 210.632812 59.527344 211.441406 64.167969 C 211.828125 66.40625 212.410156 68.632812 212.71875 70.878906 C 212.652344 70.898438 212.710938 71.140625 212.710938 71.164062 C 212.734375 71.511719 212.757812 71.859375 212.777344 72.207031 C 212.863281 73.582031 213.03125 74.953125 213.132812 76.328125 C 213.449219 80.625 214.550781 85.257812 212.160156 89.390625 C 211.667969 90.242188 211.066406 91.070312 210.472656 91.894531 C 210.296875 92.140625 210.09375 92.613281 209.695312 92.757812 C 209.359375 92.882812 209.371094 91.992188 209.371094 91.925781 C 209.332031 90.949219 209.324219 89.972656 209.300781 89 C 209.25 86.636719 209.144531 84.273438 209.0625 81.910156 C 208.96875 79.300781 208.753906 76.699219 208.472656 74.09375 C 208.570312 74.203125 208.429688 73.839844 208.410156 73.710938 C 208.363281 73.433594 208.328125 73.160156 208.285156 72.882812 C 208.15625 71.996094 208.015625 71.105469 207.886719 70.21875 C 207.519531 67.714844 207.148438 65.214844 206.78125 62.710938 C 205.640625 55.007812 204.171875 45.460938 203.839844 37.78125 Z M 203.839844 37.78125 " fill-opacity="1" fill-rule="evenodd"/><g clip-path="url(#dc275fa1e0)"><path fill="#000000" d="M 164.621094 124.578125 C 164.597656 124.570312 164.644531 124.527344 164.65625 124.5 C 164.675781 124.453125 164.691406 124.40625 164.710938 124.359375 C 164.773438 124.21875 164.832031 124.078125 164.894531 123.9375 C 165.082031 123.515625 165.292969 123.109375 165.53125 122.71875 C 165.949219 122.035156 166.421875 121.371094 166.933594 120.769531 C 167.253906 120.390625 167.667969 119.976562 168.136719 119.832031 C 168.96875 119.582031 169.71875 120.179688 170.285156 120.832031 C 171.191406 121.871094 171.621094 123.222656 171.570312 124.652344 C 171.554688 125.042969 171.539062 125.480469 171.417969 125.855469 C 171.390625 125.933594 171.371094 126.027344 171.339844 126.101562 C 171.226562 126.371094 171.046875 126.6875 170.800781 126.832031 C 170.644531 126.925781 170.441406 126.933594 170.265625 126.933594 C 169.886719 126.925781 169.5 126.835938 169.128906 126.761719 C 168.046875 126.550781 167.019531 126.21875 166.054688 125.640625 C 165.730469 125.449219 165.382812 125.253906 165.105469 124.984375 C 165.101562 124.984375 165.082031 125.046875 165.082031 125.054688 C 165.066406 125.097656 165.050781 125.144531 165.035156 125.191406 C 164.992188 125.316406 164.945312 125.441406 164.902344 125.566406 C 164.765625 125.929688 164.625 126.292969 164.457031 126.640625 C 163.957031 127.667969 163.15625 128.449219 162.238281 129.015625 C 162.238281 129.042969 161.953125 129.183594 161.933594 129.195312 C 161.800781 129.273438 161.664062 129.351562 161.527344 129.429688 C 160.714844 129.898438 159.886719 130.339844 159.054688 130.757812 C 155.632812 132.484375 152.066406 134 148.515625 135.375 C 148.503906 135.28125 147.820312 135.597656 147.667969 135.65625 C 147.101562 135.867188 146.523438 136.082031 145.933594 136.210938 C 143.882812 136.65625 141.699219 136.917969 139.617188 137.183594 C 139.089844 137.253906 138.554688 137.289062 138.023438 137.292969 C 137.933594 137.292969 137.566406 137.34375 137.503906 137.25 C 137.457031 137.179688 137.882812 137.042969 137.910156 137.035156 C 138.429688 136.851562 138.957031 136.679688 139.476562 136.492188 C 140.855469 135.992188 142.230469 135.480469 143.597656 134.949219 C 145.863281 134.070312 148.121094 133.152344 150.402344 132.316406 C 152.203125 131.65625 154.25 130.777344 156.011719 130 C 156.125 129.949219 156.578125 129.757812 156.683594 129.714844 C 157.332031 129.441406 157.980469 129.152344 158.617188 128.847656 C 160.679688 127.859375 163.238281 126.648438 164.621094 124.578125 Z M 169.78125 124.480469 C 169.78125 124.480469 169.792969 124.414062 169.792969 124.414062 C 169.796875 124.367188 169.796875 124.324219 169.792969 124.277344 C 169.792969 124.144531 169.78125 124.007812 169.765625 123.875 C 169.71875 123.46875 169.605469 123.097656 169.347656 122.789062 C 169.238281 122.660156 169.117188 122.539062 168.972656 122.457031 C 168.621094 122.257812 168.167969 122.28125 167.78125 122.308594 C 167.429688 122.335938 167.070312 122.449219 166.886719 122.804688 C 166.835938 122.910156 166.820312 123.023438 166.816406 123.144531 C 166.816406 123.179688 166.804688 123.234375 166.820312 123.265625 C 166.847656 123.324219 166.949219 123.371094 166.996094 123.402344 C 167.148438 123.503906 167.300781 123.59375 167.460938 123.675781 C 167.730469 123.820312 168.007812 123.941406 168.289062 124.0625 C 168.753906 124.265625 169.28125 124.414062 169.78125 124.480469 Z M 169.78125 124.480469 " fill-opacity="1" fill-rule="evenodd"/></g><path fill="#000000" d="M 97.742188 41.148438 C 97.742188 41.125 97.789062 41.175781 97.8125 41.1875 C 97.851562 41.207031 97.894531 41.226562 97.933594 41.246094 C 98.074219 41.3125 98.21875 41.375 98.363281 41.4375 C 98.476562 41.484375 98.585938 41.53125 98.695312 41.574219 C 98.769531 41.605469 98.84375 41.632812 98.921875 41.660156 C 99.179688 41.757812 100.042969 42.121094 100.015625 41.597656 C 99.996094 41.214844 99.652344 40.828125 99.402344 40.535156 C 98.890625 39.9375 98.371094 39.339844 97.851562 38.742188 C 96.902344 37.652344 95.945312 36.566406 94.96875 35.492188 C 94.738281 35.238281 94.515625 34.980469 94.273438 34.734375 C 94.207031 34.667969 94.089844 34.511719 93.972656 34.511719 C 93.792969 34.503906 93.695312 34.855469 93.660156 34.960938 C 93.464844 35.492188 93.351562 36.050781 93.214844 36.597656 C 92.996094 37.46875 92.742188 38.328125 92.46875 39.183594 C 92.351562 39.546875 92.089844 40.046875 92.230469 40.429688 C 92.320312 40.664062 92.523438 40.84375 92.71875 41.011719 C 92.976562 41.246094 93.238281 41.46875 93.527344 41.671875 C 93.4375 41.875 93.71875 42.394531 93.777344 42.582031 C 94.058594 43.445312 94.402344 44.289062 94.742188 45.136719 C 95.414062 46.816406 96.164062 48.46875 97.085938 50.054688 C 98.089844 51.78125 99.269531 53.441406 100.214844 55.195312 C 100.144531 55.183594 99.847656 55.578125 99.804688 55.621094 C 99.320312 56.105469 98.828125 56.585938 98.328125 57.058594 C 96.410156 58.863281 94.367188 60.542969 92.199219 62.109375 C 88.960938 64.453125 85.25 66.363281 81.457031 67.90625 C 77.671875 69.449219 73.484375 70.691406 69.261719 70.273438 C 69.226562 70.175781 69.027344 70.261719 68.914062 70.238281 C 68.515625 70.152344 68.113281 70.058594 67.722656 69.941406 C 66.242188 69.503906 64.824219 68.976562 63.578125 68.125 C 60.039062 65.699219 59.027344 61.707031 59.042969 57.878906 C 59.054688 54.578125 59.882812 51.296875 61.128906 48.199219 C 61.632812 46.949219 62.167969 45.707031 62.683594 44.460938 C 62.714844 44.382812 63.171875 43.398438 62.9375 43.398438 C 62.742188 43.398438 62.519531 43.671875 62.417969 43.789062 C 61.96875 44.300781 61.59375 44.871094 61.273438 45.453125 C 59.964844 47.839844 58.992188 50.414062 58.125 52.945312 C 57.730469 54.109375 57.363281 55.28125 57.074219 56.464844 C 55.53125 62.824219 56.03125 71.554688 63.335938 74.988281 C 64.445312 75.507812 65.640625 75.898438 66.867188 76.140625 C 75.730469 77.890625 83.734375 73.648438 90.320312 68.988281 C 90.261719 69.027344 90.445312 68.925781 90.507812 68.890625 C 90.625 68.816406 90.746094 68.742188 90.867188 68.667969 C 91.246094 68.429688 91.625 68.191406 91.996094 67.945312 C 93.101562 67.21875 94.152344 66.429688 95.164062 65.605469 C 98.367188 62.980469 101.269531 60.089844 102.164062 56.21875 C 102.234375 55.917969 102.300781 55.507812 102.324219 55.210938 C 102.386719 54.417969 102.40625 53.621094 102.378906 52.828125 C 102.292969 50.292969 101.195312 48.179688 100.027344 45.917969 C 99.269531 44.457031 98.628906 42.554688 97.742188 41.148438 Z M 97.742188 41.148438 " fill-opacity="1" fill-rule="evenodd"/></svg>