<svg xmlns="http://www.w3.org/2000/svg" xmlns:xlink="http://www.w3.org/1999/xlink" width="500" zoomAndPan="magnify" viewBox="0 0 375 157.92" height="200" preserveAspectRatio="xMidYMid meet" version="1.0"><defs><clipPath id="a01f8d5e35"><path d="M 355 71 L 374.902344 71 L 374.902344 78 L 355 78 Z M 355 71 " clip-rule="nonzero"/></clipPath><clipPath id="3fca7f3c1c"><path d="M 0.09375 77 L 20 77 L 20 84 L 0.09375 84 Z M 0.09375 77 " clip-rule="nonzero"/></clipPath><clipPath id="412719bcde"><path d="M 242 11.011719 L 266 11.011719 L 266 37 L 242 37 Z M 242 11.011719 " clip-rule="nonzero"/></clipPath></defs><path fill="#000000" d="M 302.429688 15.53125 C 302.457031 15.660156 302.664062 15.542969 302.777344 15.566406 C 303.078125 15.625 303.371094 15.695312 303.667969 15.765625 C 304.945312 16.078125 306.210938 16.484375 307.464844 16.910156 C 312.484375 18.621094 317.25 21.132812 321.585938 24.542969 C 332.488281 33.117188 339.652344 47.640625 341.765625 62.554688 C 341.714844 62.578125 341.636719 62.789062 341.605469 62.835938 C 341.445312 63.101562 341.273438 63.355469 341.105469 63.621094 C 340.601562 64.441406 340.03125 65.222656 339.386719 65.898438 C 338.703125 66.605469 337.621094 67.558594 336.660156 67.597656 C 335.894531 67.625 335.113281 67.027344 334.480469 66.625 C 333.117188 65.765625 331.78125 64.839844 330.515625 63.796875 C 330.550781 63.90625 330.398438 63.40625 330.382812 63.320312 C 330.292969 62.890625 330.195312 62.460938 330.089844 62.035156 C 329.769531 60.707031 329.441406 59.386719 329.113281 58.0625 C 328.113281 54.023438 326.589844 50.03125 325.003906 46.265625 C 320.359375 35.242188 310.863281 23.007812 302.429688 15.53125 Z M 302.429688 15.53125 " fill-opacity="1" fill-rule="evenodd"/><path fill="#000000" d="M 302.429688 132.476562 C 302.457031 132.347656 302.664062 132.464844 302.777344 132.441406 C 303.078125 132.382812 303.371094 132.3125 303.667969 132.242188 C 304.945312 131.929688 306.210938 131.523438 307.464844 131.097656 C 312.484375 129.386719 317.25 126.875 321.585938 123.464844 C 332.488281 114.886719 339.652344 100.367188 341.765625 85.449219 C 341.714844 85.429688 341.636719 85.21875 341.605469 85.171875 C 341.445312 84.90625 341.273438 84.652344 341.105469 84.386719 C 340.601562 83.566406 340.03125 82.785156 339.386719 82.109375 C 338.703125 81.398438 337.621094 80.449219 336.660156 80.410156 C 335.894531 80.382812 335.113281 80.980469 334.480469 81.382812 C 333.117188 82.242188 331.78125 83.167969 330.515625 84.210938 C 330.550781 84.101562 330.398438 84.601562 330.382812 84.6875 C 330.292969 85.117188 330.195312 85.546875 330.089844 85.972656 C 329.769531 87.300781 329.441406 88.621094 329.113281 89.945312 C 328.113281 93.984375 326.589844 97.976562 325.003906 101.742188 C 320.359375 112.765625 310.863281 125 302.429688 132.476562 Z M 302.429688 132.476562 " fill-opacity="1" fill-rule="evenodd"/><path fill="#000000" d="M 341.160156 49.988281 C 341.097656 49.964844 340.574219 49.765625 340.382812 49.640625 C 340.15625 49.492188 340.039062 49.296875 339.980469 49.152344 C 339.90625 48.960938 339.894531 48.769531 339.941406 48.582031 C 339.980469 48.421875 340.0625 48.199219 340.3125 48.046875 C 340.367188 48.011719 340.476562 47.960938 340.625 47.929688 C 340.832031 47.882812 341.234375 47.851562 341.261719 47.847656 C 342.027344 47.8125 342.789062 47.878906 343.542969 48.003906 C 346.164062 48.429688 348.761719 49.542969 350.925781 51.300781 C 353.035156 53.003906 354.765625 55.300781 355.613281 58.132812 C 355.832031 58.867188 356.007812 59.628906 356.082031 60.40625 C 356.097656 60.574219 356.09375 60.773438 356.09375 60.980469 C 356.097656 61.042969 356.101562 61.132812 356.113281 61.207031 C 356.183594 61.226562 356.289062 61.257812 356.359375 61.273438 C 356.527344 61.304688 356.683594 61.335938 356.804688 61.375 C 357.609375 61.640625 358.363281 62.089844 359.03125 62.664062 C 361.257812 64.5625 362.59375 67.703125 363.054688 70.804688 C 363.136719 71.015625 363.144531 71.25 363.03125 71.511719 C 363.015625 71.554688 362.941406 71.808594 362.59375 71.945312 C 362.535156 71.96875 362.476562 71.980469 362.414062 71.988281 L 362.34375 72.003906 C 362.191406 72.0625 362.042969 72.113281 361.890625 72.167969 C 361.386719 72.34375 360.878906 72.507812 360.367188 72.675781 C 359.492188 72.964844 358.613281 73.25 357.730469 73.523438 L 358.007812 73.640625 C 359.566406 74.324219 361.0625 75.132812 362.574219 75.941406 C 362.921875 76.128906 363.085938 76.597656 362.949219 77.011719 C 361.6875 80.757812 359.714844 84.402344 356.539062 86.378906 C 356.269531 86.542969 355.769531 86.878906 355.5625 87.078125 C 354.574219 88.007812 354.007812 89.246094 353.527344 90.582031 C 353.0625 91.878906 352.625 93.199219 351.925781 94.359375 C 350.371094 96.914062 347.722656 98.660156 345.070312 99.140625 C 344.226562 99.292969 343.367188 99.324219 342.515625 99.261719 C 342.367188 99.25 342.160156 99.257812 341.96875 99.230469 C 341.734375 99.199219 341.519531 99.117188 341.355469 98.996094 C 341.015625 98.75 340.941406 98.425781 340.980469 98.101562 C 340.996094 97.945312 341.046875 97.773438 341.15625 97.609375 C 341.28125 97.421875 341.554688 97.207031 341.621094 97.160156 C 342.066406 96.839844 342.527344 96.558594 342.980469 96.253906 C 344.015625 95.550781 345.019531 94.78125 345.789062 93.707031 C 346.761719 92.355469 347.234375 90.757812 347.273438 89.007812 C 347.292969 88.101562 347.203125 87.125 347.210938 86.171875 C 347.222656 85.0625 347.378906 83.980469 347.882812 83.027344 C 348.761719 81.367188 350.445312 80.453125 351.964844 79.816406 C 352.054688 79.777344 352.25 79.71875 352.453125 79.632812 C 352.25 79.414062 351.988281 79.242188 351.785156 79.074219 C 350.984375 78.4375 350.136719 77.875 349.28125 77.339844 C 348.535156 76.875 347.78125 76.425781 347.003906 76.027344 C 346.003906 75.515625 344.96875 75.097656 343.941406 74.679688 C 343.820312 74.632812 343.4375 74.417969 343.273438 74.324219 C 343.242188 74.347656 343.210938 74.375 343.175781 74.402344 C 343.03125 74.523438 342.890625 74.664062 342.773438 74.765625 C 342.203125 75.257812 341.65625 75.785156 341.117188 76.3125 C 340.582031 76.828125 340.054688 77.347656 339.523438 77.867188 C 338.851562 78.523438 338.191406 79.195312 337.539062 79.878906 C 337.378906 80.050781 337.1875 80.300781 336.980469 80.496094 C 336.753906 80.707031 336.503906 80.859375 336.25 80.917969 C 336.007812 80.976562 335.761719 80.933594 335.527344 80.824219 C 335.355469 80.738281 335.191406 80.601562 335.042969 80.507812 C 334.601562 80.214844 334.152344 79.925781 333.710938 79.617188 C 331.941406 78.382812 328.851562 75.980469 327.230469 74.488281 C 327.027344 74.300781 326.933594 74.050781 326.957031 73.738281 C 326.964844 73.617188 327.003906 73.429688 327.132812 73.246094 C 327.207031 73.140625 327.378906 72.984375 327.386719 72.976562 C 327.644531 72.742188 327.914062 72.527344 328.183594 72.316406 C 328.765625 71.863281 329.347656 71.414062 329.9375 70.980469 C 331.597656 69.761719 333.988281 67.992188 335.648438 66.710938 C 335.730469 66.613281 335.871094 66.515625 336.09375 66.5 C 336.269531 66.484375 336.4375 66.546875 336.574219 66.660156 C 336.59375 66.671875 336.609375 66.683594 336.621094 66.6875 C 336.6875 66.738281 336.753906 66.789062 336.820312 66.839844 C 337.011719 66.980469 337.191406 67.128906 337.378906 67.277344 C 337.882812 67.679688 338.394531 68.078125 338.902344 68.484375 C 340.320312 69.640625 341.796875 70.757812 343.167969 72 C 343.929688 71.355469 344.8125 70.828125 345.601562 70.257812 C 347.140625 69.136719 348.683594 68.023438 350.230469 66.914062 C 349.683594 66.515625 349.160156 66.046875 348.757812 65.476562 C 348.183594 64.679688 347.921875 63.617188 347.609375 62.664062 C 347.085938 61.039062 346.660156 59.367188 346.125 57.746094 C 345.363281 55.472656 344.351562 53.15625 342.84375 51.421875 C 342.347656 50.851562 341.785156 50.359375 341.160156 49.988281 Z M 343.363281 49.679688 C 345.746094 50.074219 348.113281 51.085938 350.085938 52.683594 C 351.941406 54.183594 353.484375 56.191406 354.230469 58.683594 C 354.414062 59.296875 354.566406 59.933594 354.625 60.582031 C 354.648438 60.792969 354.625 61.066406 354.640625 61.320312 C 354.664062 61.632812 354.730469 61.925781 354.855469 62.15625 C 354.984375 62.410156 355.191406 62.609375 355.464844 62.738281 C 355.761719 62.882812 356.167969 62.921875 356.40625 63 C 357.039062 63.207031 357.628906 63.566406 358.164062 64.019531 C 359.953125 65.550781 361.050781 68.03125 361.519531 70.53125 L 361.464844 70.550781 C 360.96875 70.726562 360.464844 70.886719 359.96875 71.050781 C 358.808594 71.433594 357.652344 71.808594 356.484375 72.152344 C 356.316406 72.203125 355.832031 72.265625 355.5 72.382812 C 355.171875 72.5 354.941406 72.703125 354.828125 72.878906 C 354.707031 73.074219 354.664062 73.292969 354.703125 73.535156 C 354.726562 73.664062 354.78125 73.871094 354.976562 74.050781 C 355.097656 74.167969 355.863281 74.515625 355.917969 74.539062 C 356.441406 74.765625 356.964844 74.992188 357.488281 75.222656 C 358.792969 75.796875 360.058594 76.457031 361.328125 77.132812 C 360.1875 80.253906 358.503906 83.238281 355.839844 84.890625 C 355.511719 85.09375 354.894531 85.523438 354.632812 85.769531 C 353.457031 86.882812 352.75 88.335938 352.175781 89.933594 C 351.753906 91.117188 351.371094 92.332031 350.726562 93.386719 C 349.394531 95.582031 347.113281 97.058594 344.84375 97.472656 C 344.535156 97.527344 344.21875 97.566406 343.910156 97.585938 C 345.023438 96.816406 346.078125 95.949219 346.917969 94.785156 C 348.101562 93.136719 348.6875 91.1875 348.734375 89.050781 C 348.757812 88.136719 348.664062 87.15625 348.675781 86.195312 C 348.683594 85.390625 348.765625 84.601562 349.132812 83.90625 C 349.839844 82.570312 351.246094 81.914062 352.460938 81.402344 C 352.699219 81.304688 353.445312 81.050781 353.777344 80.695312 C 354.140625 80.296875 354.257812 79.816406 354.023438 79.265625 C 353.742188 78.605469 353.121094 78.089844 352.613281 77.6875 C 351.769531 77.011719 350.878906 76.417969 349.976562 75.855469 C 349.199219 75.367188 348.410156 74.898438 347.597656 74.484375 C 346.5625 73.949219 345.492188 73.515625 344.421875 73.085938 C 344.410156 73.082031 344.402344 73.078125 344.386719 73.070312 C 345.03125 72.574219 345.742188 72.148438 346.375 71.6875 C 348.277344 70.304688 350.183594 68.933594 352.097656 67.5625 C 352.304688 67.414062 352.429688 67.160156 352.441406 66.878906 C 352.449219 66.597656 352.339844 66.328125 352.136719 66.164062 C 351.953125 66.003906 351.648438 65.914062 351.4375 65.777344 C 350.878906 65.410156 350.296875 64.984375 349.882812 64.40625 C 349.417969 63.746094 349.234375 62.855469 348.980469 62.074219 C 348.453125 60.441406 348.027344 58.765625 347.488281 57.140625 C 346.65625 54.648438 345.527344 52.125 343.878906 50.226562 C 343.714844 50.035156 343.539062 49.851562 343.363281 49.679688 Z M 336.148438 68.351562 C 336.28125 68.457031 336.414062 68.5625 336.546875 68.667969 C 337.054688 69.070312 337.558594 69.464844 338.058594 69.871094 C 339.417969 70.96875 340.820312 72.035156 342.128906 73.207031 C 342.042969 73.28125 341.964844 73.351562 341.894531 73.417969 C 341.300781 73.925781 340.738281 74.472656 340.175781 75.019531 C 339.640625 75.535156 339.109375 76.054688 338.578125 76.574219 C 337.894531 77.246094 337.21875 77.933594 336.554688 78.632812 C 336.445312 78.742188 336.332031 78.890625 336.203125 79.035156 C 336.144531 79.097656 336.09375 79.175781 336.039062 79.222656 C 335.960938 79.171875 335.839844 79.085938 335.765625 79.039062 C 335.335938 78.753906 334.898438 78.46875 334.472656 78.171875 C 332.980469 77.132812 330.535156 75.25 328.875 73.816406 L 329.007812 73.714844 C 329.574219 73.269531 330.148438 72.832031 330.730469 72.40625 C 332.292969 71.253906 334.507812 69.617188 336.148438 68.351562 Z M 336.148438 68.351562 " fill-opacity="1" fill-rule="evenodd"/><g clip-path="url(#a01f8d5e35)"><path fill="#000000" d="M 374.914062 74.386719 L 363.03125 71.511719 L 355.875 73.566406 L 362.078125 77.054688 Z M 374.914062 74.386719 " fill-opacity="1" fill-rule="evenodd"/></g><path fill="#000000" d="M 72.570312 21.933594 C 72.542969 22.066406 72.335938 21.945312 72.222656 21.96875 C 71.921875 22.03125 71.628906 22.097656 71.332031 22.171875 C 70.054688 22.480469 68.789062 22.886719 67.535156 23.3125 C 62.515625 25.027344 57.75 27.539062 53.414062 30.949219 C 42.511719 39.523438 35.347656 54.046875 33.234375 68.960938 C 33.285156 68.980469 33.363281 69.195312 33.394531 69.242188 C 33.554688 69.503906 33.726562 69.761719 33.894531 70.027344 C 34.398438 70.84375 34.96875 71.628906 35.613281 72.304688 C 36.296875 73.011719 37.378906 73.960938 38.339844 74 C 39.105469 74.03125 39.886719 73.429688 40.519531 73.027344 C 41.882812 72.171875 43.21875 71.246094 44.484375 70.203125 C 44.449219 70.3125 44.601562 69.808594 44.617188 69.726562 C 44.707031 69.292969 44.804688 68.867188 44.910156 68.4375 C 45.230469 67.113281 45.558594 65.789062 45.886719 64.46875 C 46.886719 60.429688 48.410156 56.4375 49.996094 52.667969 C 54.640625 41.644531 64.136719 29.414062 72.570312 21.933594 Z M 72.570312 21.933594 " fill-opacity="1" fill-rule="evenodd"/><path fill="#000000" d="M 72.570312 138.882812 C 72.542969 138.75 72.335938 138.871094 72.222656 138.847656 C 71.921875 138.785156 71.628906 138.71875 71.332031 138.644531 C 70.054688 138.335938 68.789062 137.929688 67.535156 137.503906 C 62.515625 135.789062 57.75 133.277344 53.414062 129.867188 C 42.511719 121.292969 35.347656 106.769531 33.234375 91.855469 C 33.285156 91.835938 33.363281 91.621094 33.394531 91.578125 C 33.554688 91.3125 33.726562 91.054688 33.894531 90.789062 C 34.398438 89.972656 34.96875 89.1875 35.613281 88.511719 C 36.296875 87.804688 37.378906 86.855469 38.339844 86.816406 C 39.105469 86.785156 39.886719 87.386719 40.519531 87.789062 C 41.882812 88.648438 43.21875 89.574219 44.484375 90.613281 C 44.449219 90.503906 44.601562 91.007812 44.617188 91.089844 C 44.707031 91.523438 44.804688 91.949219 44.910156 92.378906 C 45.230469 93.703125 45.558594 95.027344 45.886719 96.351562 C 46.886719 100.386719 48.410156 104.378906 49.996094 108.148438 C 54.640625 119.171875 64.136719 131.402344 72.570312 138.882812 Z M 72.570312 138.882812 " fill-opacity="1" fill-rule="evenodd"/><path fill="#000000" d="M 33.839844 56.394531 C 33.902344 56.371094 34.425781 56.171875 34.617188 56.042969 C 34.84375 55.894531 34.960938 55.703125 35.019531 55.558594 C 35.09375 55.367188 35.105469 55.175781 35.058594 54.988281 C 35.019531 54.828125 34.9375 54.605469 34.6875 54.453125 C 34.632812 54.417969 34.523438 54.363281 34.375 54.332031 C 34.167969 54.289062 33.765625 54.257812 33.738281 54.253906 C 32.972656 54.21875 32.210938 54.285156 31.457031 54.40625 C 28.835938 54.835938 26.238281 55.949219 24.074219 57.703125 C 21.964844 59.410156 20.234375 61.707031 19.386719 64.535156 C 19.167969 65.273438 18.992188 66.035156 18.917969 66.808594 C 18.902344 66.976562 18.90625 67.179688 18.90625 67.386719 C 18.902344 67.449219 18.898438 67.539062 18.886719 67.609375 C 18.816406 67.632812 18.710938 67.664062 18.640625 67.675781 C 18.472656 67.710938 18.316406 67.742188 18.195312 67.78125 C 17.390625 68.042969 16.636719 68.492188 15.96875 69.066406 C 13.742188 70.96875 12.40625 74.109375 11.945312 77.210938 C 11.863281 77.417969 11.855469 77.652344 11.96875 77.917969 C 11.984375 77.960938 12.058594 78.214844 12.40625 78.351562 C 12.464844 78.371094 12.523438 78.386719 12.585938 78.390625 L 12.65625 78.410156 C 12.808594 78.46875 12.957031 78.519531 13.109375 78.574219 C 13.613281 78.75 14.121094 78.914062 14.632812 79.078125 C 15.507812 79.371094 16.386719 79.65625 17.269531 79.929688 L 16.992188 80.046875 C 15.433594 80.730469 13.9375 81.535156 12.425781 82.34375 C 12.078125 82.53125 11.914062 83.003906 12.050781 83.417969 C 13.3125 87.164062 15.285156 90.804688 18.460938 92.785156 C 18.730469 92.949219 19.230469 93.285156 19.4375 93.484375 C 20.425781 94.414062 20.992188 95.648438 21.472656 96.988281 C 21.9375 98.285156 22.375 99.605469 23.074219 100.761719 C 24.628906 103.320312 27.277344 105.0625 29.929688 105.546875 C 30.773438 105.699219 31.632812 105.726562 32.484375 105.664062 C 32.632812 105.652344 32.839844 105.660156 33.03125 105.636719 C 33.265625 105.601562 33.480469 105.523438 33.644531 105.402344 C 33.984375 105.15625 34.058594 104.828125 34.019531 104.503906 C 34.003906 104.351562 33.953125 104.175781 33.84375 104.011719 C 33.71875 103.824219 33.445312 103.613281 33.378906 103.566406 C 32.933594 103.246094 32.472656 102.964844 32.019531 102.660156 C 30.984375 101.957031 29.980469 101.1875 29.210938 100.109375 C 28.238281 98.761719 27.765625 97.164062 27.726562 95.414062 C 27.707031 94.507812 27.796875 93.53125 27.789062 92.574219 C 27.777344 91.464844 27.621094 90.386719 27.117188 89.433594 C 26.238281 87.773438 24.554688 86.855469 23.035156 86.21875 C 22.945312 86.179688 22.75 86.121094 22.546875 86.039062 C 22.75 85.820312 23.011719 85.648438 23.214844 85.480469 C 24.015625 84.84375 24.863281 84.277344 25.71875 83.746094 C 26.464844 83.277344 27.21875 82.828125 27.996094 82.433594 C 28.996094 81.917969 30.03125 81.5 31.058594 81.085938 C 31.179688 81.035156 31.5625 80.820312 31.726562 80.726562 C 31.757812 80.75 31.789062 80.78125 31.824219 80.808594 C 31.96875 80.929688 32.109375 81.066406 32.226562 81.171875 C 32.796875 81.664062 33.34375 82.191406 33.882812 82.71875 C 34.417969 83.234375 34.945312 83.753906 35.476562 84.269531 C 36.148438 84.929688 36.808594 85.597656 37.460938 86.285156 C 37.621094 86.457031 37.8125 86.707031 38.019531 86.898438 C 38.246094 87.113281 38.496094 87.265625 38.75 87.324219 C 38.992188 87.378906 39.238281 87.339844 39.472656 87.226562 C 39.644531 87.144531 39.808594 87.007812 39.957031 86.914062 C 40.398438 86.617188 40.847656 86.328125 41.289062 86.023438 C 43.058594 84.789062 46.148438 82.386719 47.769531 80.894531 C 47.972656 80.707031 48.066406 80.457031 48.042969 80.144531 C 48.035156 80.019531 47.996094 79.832031 47.867188 79.652344 C 47.792969 79.546875 47.621094 79.390625 47.613281 79.382812 C 47.355469 79.148438 47.085938 78.933594 46.816406 78.71875 C 46.234375 78.269531 45.652344 77.820312 45.0625 77.386719 C 43.402344 76.167969 41.011719 74.398438 39.351562 73.113281 C 39.269531 73.019531 39.128906 72.921875 38.90625 72.902344 C 38.730469 72.890625 38.5625 72.949219 38.425781 73.066406 C 38.40625 73.078125 38.390625 73.085938 38.378906 73.09375 C 38.3125 73.144531 38.246094 73.191406 38.179688 73.242188 C 37.988281 73.386719 37.808594 73.535156 37.621094 73.683594 C 37.117188 74.085938 36.605469 74.484375 36.097656 74.890625 C 34.679688 76.042969 33.203125 77.164062 31.832031 78.40625 C 31.070312 77.757812 30.1875 77.230469 29.398438 76.664062 C 27.859375 75.542969 26.316406 74.429688 24.769531 73.320312 C 25.316406 72.921875 25.839844 72.453125 26.242188 71.882812 C 26.816406 71.082031 27.078125 70.023438 27.390625 69.070312 C 27.914062 67.441406 28.339844 65.773438 28.875 64.152344 C 29.636719 61.878906 30.648438 59.5625 32.15625 57.828125 C 32.652344 57.257812 33.214844 56.765625 33.839844 56.394531 Z M 31.636719 56.085938 C 29.253906 56.476562 26.886719 57.488281 24.914062 59.089844 C 23.058594 60.589844 21.515625 62.597656 20.769531 65.089844 C 20.585938 65.703125 20.433594 66.339844 20.375 66.988281 C 20.351562 67.199219 20.375 67.472656 20.359375 67.726562 C 20.335938 68.039062 20.269531 68.328125 20.144531 68.5625 C 20.015625 68.8125 19.808594 69.015625 19.535156 69.144531 C 19.238281 69.289062 18.832031 69.328125 18.59375 69.40625 C 17.960938 69.613281 17.371094 69.972656 16.835938 70.425781 C 15.046875 71.957031 13.949219 74.4375 13.480469 76.9375 L 13.535156 76.957031 C 14.03125 77.128906 14.535156 77.289062 15.03125 77.457031 C 16.191406 77.839844 17.347656 78.210938 18.515625 78.558594 C 18.683594 78.609375 19.167969 78.667969 19.5 78.785156 C 19.828125 78.902344 20.058594 79.105469 20.171875 79.285156 C 20.292969 79.476562 20.335938 79.695312 20.296875 79.941406 C 20.273438 80.066406 20.21875 80.273438 20.023438 80.457031 C 19.902344 80.570312 19.136719 80.921875 19.082031 80.945312 C 18.558594 81.167969 18.035156 81.398438 17.511719 81.625 C 16.207031 82.199219 14.941406 82.863281 13.671875 83.539062 C 14.8125 86.660156 16.496094 89.640625 19.160156 91.296875 C 19.488281 91.5 20.105469 91.929688 20.367188 92.175781 C 21.542969 93.285156 22.25 94.742188 22.824219 96.339844 C 23.246094 97.523438 23.628906 98.738281 24.273438 99.792969 C 25.605469 101.984375 27.886719 103.464844 30.15625 103.875 C 30.464844 103.933594 30.78125 103.96875 31.089844 103.988281 C 29.976562 103.21875 28.921875 102.351562 28.082031 101.191406 C 26.898438 99.539062 26.3125 97.59375 26.265625 95.457031 C 26.242188 94.542969 26.335938 93.5625 26.324219 92.601562 C 26.316406 91.796875 26.234375 91.003906 25.867188 90.3125 C 25.160156 88.976562 23.753906 88.320312 22.539062 87.808594 C 22.300781 87.710938 21.554688 87.457031 21.222656 87.097656 C 20.859375 86.703125 20.742188 86.21875 20.976562 85.671875 C 21.257812 85.011719 21.878906 84.496094 22.386719 84.089844 C 23.230469 83.417969 24.121094 82.820312 25.023438 82.257812 C 25.800781 81.773438 26.589844 81.304688 27.402344 80.886719 C 28.4375 80.355469 29.507812 79.921875 30.578125 79.492188 C 30.589844 79.488281 30.597656 79.480469 30.613281 79.476562 C 29.96875 78.976562 29.257812 78.554688 28.625 78.09375 C 26.722656 76.710938 24.816406 75.339844 22.902344 73.96875 C 22.695312 73.820312 22.570312 73.5625 22.558594 73.28125 C 22.550781 73 22.660156 72.734375 22.863281 72.566406 C 23.046875 72.410156 23.351562 72.320312 23.5625 72.183594 C 24.121094 71.816406 24.703125 71.390625 25.117188 70.808594 C 25.582031 70.152344 25.765625 69.261719 26.019531 68.480469 C 26.546875 66.847656 26.972656 65.171875 27.511719 63.542969 C 28.34375 61.054688 29.472656 58.53125 31.121094 56.632812 C 31.285156 56.441406 31.460938 56.257812 31.636719 56.085938 Z M 38.851562 74.757812 C 38.71875 74.863281 38.585938 74.96875 38.453125 75.074219 C 37.945312 75.472656 37.441406 75.867188 36.941406 76.273438 C 35.582031 77.371094 34.179688 78.4375 32.871094 79.613281 C 32.957031 79.6875 33.035156 79.757812 33.105469 79.820312 C 33.699219 80.332031 34.261719 80.878906 34.824219 81.421875 C 35.359375 81.941406 35.890625 82.460938 36.421875 82.980469 C 37.105469 83.652344 37.78125 84.335938 38.445312 85.035156 C 38.554688 85.148438 38.667969 85.296875 38.796875 85.4375 C 38.855469 85.503906 38.90625 85.582031 38.960938 85.628906 C 39.039062 85.578125 39.160156 85.488281 39.234375 85.445312 C 39.664062 85.15625 40.101562 84.875 40.527344 84.578125 C 42.019531 83.539062 44.464844 81.65625 46.125 80.222656 L 45.992188 80.121094 C 45.425781 79.675781 44.851562 79.238281 44.269531 78.8125 C 42.707031 77.660156 40.492188 76.019531 38.851562 74.757812 Z M 38.851562 74.757812 " fill-opacity="1" fill-rule="evenodd"/><g clip-path="url(#3fca7f3c1c)"><path fill="#000000" d="M 0.0859375 80.792969 L 11.96875 77.917969 L 19.125 79.972656 L 12.921875 83.457031 Z M 0.0859375 80.792969 " fill-opacity="1" fill-rule="evenodd"/></g><g clip-path="url(#412719bcde)"><path fill="#000000" d="M 248.046875 21.558594 C 248.109375 21.546875 248.023438 21.679688 248.007812 21.738281 C 247.984375 21.855469 247.960938 21.96875 247.929688 22.082031 C 247.871094 22.289062 247.703125 23.183594 247.339844 23.085938 C 247.160156 23.035156 246.996094 22.835938 246.875 22.710938 C 246.574219 22.402344 246.289062 22.078125 245.988281 21.769531 C 245.464844 21.230469 244.863281 20.753906 244.222656 20.351562 C 243.882812 20.136719 243.371094 19.957031 243.136719 19.621094 C 242.777344 19.101562 242.988281 18.21875 243.027344 17.648438 C 243.125 16.101562 243.207031 13.417969 245.316406 13.234375 C 246.808594 13.105469 247.890625 14.277344 248.753906 15.300781 C 250.832031 17.769531 252.296875 20.890625 253.273438 23.914062 C 253.648438 25.085938 254.007812 26.257812 254.34375 27.4375 C 254.414062 27.6875 254.472656 27.945312 254.5625 28.1875 C 254.578125 28.242188 254.625 28.382812 254.707031 28.367188 C 254.894531 28.332031 254.957031 27.773438 254.984375 27.648438 C 255.160156 26.867188 255.386719 26.09375 255.519531 25.308594 C 256.199219 21.226562 256.863281 18.640625 257.945312 15.542969 C 258.078125 15.167969 258.242188 14.671875 258.398438 14.324219 C 258.84375 13.355469 259.429688 12.40625 260.261719 11.707031 C 260.625 11.40625 261.066406 11.121094 261.554688 11.089844 C 262.113281 11.054688 262.628906 11.308594 263.074219 11.613281 C 264.019531 12.265625 264.757812 13.191406 265.15625 14.246094 C 265.277344 14.566406 265.441406 14.921875 265.414062 15.273438 C 265.367188 15.945312 265.105469 16.613281 264.90625 17.253906 C 264.785156 17.65625 264.65625 18.0625 264.523438 18.464844 C 264.378906 18.902344 264.234375 19.339844 264.066406 19.769531 C 264.03125 19.855469 263.96875 20.097656 263.847656 20.121094 C 263.753906 20.136719 263.671875 19.988281 263.632812 19.929688 C 263.449219 19.65625 263.300781 19.363281 263.136719 19.078125 C 262.578125 18.105469 261.394531 16.152344 260.007812 17.058594 C 258.824219 17.832031 258.242188 19.601562 257.8125 20.839844 C 256.753906 23.910156 256.1875 27.167969 255.765625 30.371094 C 255.757812 30.324219 255.742188 30.46875 255.726562 30.515625 C 255.699219 30.625 255.667969 30.730469 255.640625 30.839844 C 255.546875 31.183594 255.449219 31.523438 255.347656 31.863281 C 254.976562 33.082031 254.5625 34.277344 253.894531 35.371094 C 253.738281 35.632812 253.570312 35.890625 253.367188 36.121094 C 253.335938 36.15625 253.183594 36.355469 253.121094 36.308594 C 252.921875 36.160156 252.996094 35.363281 252.980469 35.15625 C 252.898438 34.074219 252.773438 32.984375 252.570312 31.914062 C 251.933594 28.535156 249.996094 24.425781 248.046875 21.558594 Z M 248.046875 21.558594 " fill-opacity="1" fill-rule="evenodd"/></g><path fill="#000000" d="M 251.449219 61.957031 C 251.511719 61.941406 251.425781 62.074219 251.410156 62.136719 C 251.386719 62.25 251.363281 62.367188 251.332031 62.480469 C 251.273438 62.6875 251.105469 63.578125 250.746094 63.484375 C 250.5625 63.433594 250.398438 63.230469 250.277344 63.105469 C 249.976562 62.796875 249.691406 62.472656 249.390625 62.164062 C 248.867188 61.625 248.265625 61.152344 247.625 60.75 C 247.285156 60.535156 246.773438 60.355469 246.539062 60.015625 C 246.179688 59.5 246.390625 58.617188 246.429688 58.042969 C 246.527344 56.496094 246.609375 53.8125 248.71875 53.632812 C 250.210938 53.503906 251.292969 54.671875 252.15625 55.699219 C 254.234375 58.164062 255.699219 61.289062 256.675781 64.3125 C 257.054688 65.480469 257.410156 66.65625 257.746094 67.835938 C 257.816406 68.082031 257.875 68.34375 257.964844 68.585938 C 257.984375 68.636719 258.027344 68.78125 258.109375 68.765625 C 258.296875 68.730469 258.359375 68.171875 258.386719 68.042969 C 258.5625 67.265625 258.792969 66.492188 258.921875 65.703125 C 259.601562 61.625 260.265625 59.035156 261.347656 55.941406 C 261.480469 55.566406 261.644531 55.070312 261.804688 54.722656 C 262.246094 53.753906 262.832031 52.800781 263.664062 52.105469 C 264.027344 51.800781 264.46875 51.519531 264.957031 51.488281 C 265.515625 51.449219 266.03125 51.703125 266.476562 52.011719 C 267.421875 52.660156 268.160156 53.589844 268.558594 54.644531 C 268.679688 54.964844 268.84375 55.320312 268.816406 55.667969 C 268.769531 56.339844 268.507812 57.007812 268.3125 57.652344 C 268.1875 58.054688 268.058594 58.460938 267.925781 58.863281 C 267.785156 59.300781 267.640625 59.738281 267.46875 60.167969 C 267.433594 60.253906 267.371094 60.496094 267.253906 60.519531 C 267.15625 60.535156 267.074219 60.386719 267.035156 60.324219 C 266.851562 60.054688 266.703125 59.761719 266.539062 59.476562 C 265.980469 58.503906 264.796875 56.550781 263.410156 57.453125 C 262.226562 58.226562 261.644531 59.996094 261.214844 61.238281 C 260.15625 64.308594 259.589844 67.5625 259.167969 70.769531 C 259.160156 70.722656 259.144531 70.867188 259.132812 70.914062 C 259.101562 71.019531 259.074219 71.128906 259.042969 71.234375 C 258.949219 71.578125 258.851562 71.921875 258.75 72.261719 C 258.382812 73.476562 257.964844 74.671875 257.300781 75.769531 C 257.140625 76.03125 256.972656 76.285156 256.769531 76.519531 C 256.738281 76.550781 256.585938 76.75 256.523438 76.703125 C 256.328125 76.558594 256.398438 75.761719 256.382812 75.554688 C 256.300781 74.46875 256.175781 73.378906 255.972656 72.3125 C 255.335938 68.933594 253.398438 64.824219 251.449219 61.957031 Z M 251.449219 61.957031 " fill-opacity="1" fill-rule="evenodd"/><path fill="#000000" d="M 134.652344 64.941406 C 134.710938 64.929688 134.628906 65.039062 134.617188 65.089844 C 134.589844 65.183594 134.570312 65.277344 134.539062 65.371094 C 134.484375 65.542969 134.320312 66.273438 133.972656 66.195312 C 133.796875 66.152344 133.636719 65.988281 133.519531 65.886719 C 133.230469 65.632812 132.957031 65.367188 132.667969 65.113281 C 132.164062 64.671875 131.578125 64.28125 130.964844 63.949219 C 130.636719 63.773438 130.144531 63.625 129.917969 63.347656 C 129.570312 62.925781 129.773438 62.199219 129.808594 61.730469 C 129.902344 60.460938 129.984375 58.257812 132.019531 58.109375 C 133.457031 58.003906 134.5 58.964844 135.332031 59.804688 C 137.335938 61.828125 138.75 64.390625 139.691406 66.875 C 140.054688 67.835938 140.398438 68.796875 140.722656 69.765625 C 140.792969 69.96875 140.847656 70.183594 140.933594 70.382812 C 140.953125 70.425781 140.996094 70.542969 141.078125 70.53125 C 141.257812 70.503906 141.316406 70.042969 141.34375 69.9375 C 141.511719 69.296875 141.730469 68.664062 141.859375 68.015625 C 142.511719 64.667969 143.15625 62.542969 144.199219 60.003906 C 144.324219 59.695312 144.484375 59.289062 144.636719 59.003906 C 145.066406 58.207031 145.628906 57.429688 146.433594 56.855469 C 146.78125 56.605469 147.210938 56.375 147.679688 56.347656 C 148.21875 56.316406 148.714844 56.527344 149.144531 56.777344 C 150.054688 57.3125 150.769531 58.074219 151.152344 58.9375 C 151.269531 59.203125 151.425781 59.492188 151.402344 59.78125 C 151.355469 60.332031 151.101562 60.878906 150.914062 61.40625 C 150.792969 61.738281 150.671875 62.074219 150.542969 62.402344 C 150.40625 62.761719 150.265625 63.121094 150.101562 63.472656 C 150.070312 63.542969 150.007812 63.742188 149.894531 63.761719 C 149.800781 63.773438 149.71875 63.652344 149.683594 63.601562 C 149.507812 63.378906 149.363281 63.136719 149.207031 62.90625 C 148.664062 62.105469 147.527344 60.503906 146.1875 61.246094 C 145.042969 61.882812 144.484375 63.332031 144.070312 64.351562 C 143.050781 66.871094 142.5 69.542969 142.097656 72.175781 C 142.089844 72.136719 142.074219 72.253906 142.058594 72.292969 C 142.03125 72.382812 142.003906 72.46875 141.976562 72.558594 C 141.886719 72.839844 141.792969 73.121094 141.691406 73.398438 C 141.335938 74.398438 140.9375 75.378906 140.292969 76.277344 C 140.140625 76.492188 139.980469 76.703125 139.78125 76.894531 C 139.753906 76.921875 139.605469 77.085938 139.546875 77.046875 C 139.355469 76.925781 139.425781 76.273438 139.410156 76.101562 C 139.332031 75.210938 139.210938 74.320312 139.015625 73.441406 C 138.398438 70.667969 136.53125 67.296875 134.652344 64.941406 Z M 134.652344 64.941406 " fill-opacity="1" fill-rule="evenodd"/><path fill="#000000" d="M 240.042969 49.195312 C 240.035156 49.179688 241.253906 48.496094 241.339844 48.445312 C 242.246094 47.929688 243.152344 47.417969 244.0625 46.90625 C 246.902344 45.308594 249.78125 43.800781 252.664062 42.324219 C 257.695312 39.75 262.894531 37.625 268.109375 35.699219 C 269.40625 35.222656 270.699219 34.738281 272.003906 34.292969 C 272.203125 34.222656 272.988281 33.851562 273.144531 34.203125 C 273.355469 34.679688 272.484375 35.964844 272.300781 36.347656 C 272 36.976562 271.746094 37.921875 271.316406 38.429688 C 270.820312 39.027344 270.03125 39.25 269.390625 39.492188 C 268.300781 39.90625 267.214844 40.320312 266.128906 40.753906 C 259.117188 43.558594 252.367188 47.007812 245.613281 50.625 C 243.90625 51.539062 242.203125 52.539062 240.4375 53.273438 C 240.191406 53.375 239.097656 53.964844 238.863281 53.652344 C 238.554688 53.230469 239.90625 49.609375 240.042969 49.195312 Z M 240.042969 49.195312 " fill-opacity="1" fill-rule="evenodd"/><path fill="#000000" d="M 148.121094 51.261719 C 148.113281 51.246094 149.335938 50.558594 149.417969 50.511719 C 150.324219 49.996094 151.234375 49.480469 152.140625 48.972656 C 154.980469 47.371094 157.859375 45.863281 160.742188 44.390625 C 165.773438 41.816406 170.976562 39.691406 176.1875 37.765625 C 177.484375 37.289062 178.777344 36.804688 180.082031 36.355469 C 180.28125 36.289062 181.066406 35.914062 181.222656 36.265625 C 181.433594 36.746094 180.5625 38.03125 180.378906 38.414062 C 180.078125 39.042969 179.824219 39.984375 179.398438 40.496094 C 178.898438 41.089844 178.109375 41.3125 177.46875 41.558594 C 176.378906 41.972656 175.292969 42.386719 174.207031 42.820312 C 167.195312 45.625 160.449219 49.070312 153.691406 52.6875 C 151.988281 53.601562 150.28125 54.601562 148.515625 55.339844 C 148.273438 55.441406 147.175781 56.03125 146.945312 55.714844 C 146.632812 55.296875 147.984375 51.675781 148.121094 51.261719 Z M 148.121094 51.261719 " fill-opacity="1" fill-rule="evenodd"/><path fill="#000000" d="M 130.945312 47.28125 C 130.933594 47.265625 132.15625 46.582031 132.242188 46.535156 C 133.148438 46.015625 134.054688 45.503906 134.964844 44.992188 C 137.800781 43.394531 140.683594 41.886719 143.566406 40.410156 C 148.59375 37.839844 153.796875 35.710938 159.011719 33.789062 C 160.308594 33.308594 161.601562 32.824219 162.90625 32.378906 C 163.105469 32.308594 163.890625 31.9375 164.042969 32.289062 C 164.257812 32.769531 163.382812 34.050781 163.203125 34.433594 C 162.902344 35.0625 162.648438 36.007812 162.21875 36.515625 C 161.71875 37.113281 160.933594 37.335938 160.289062 37.582031 C 159.203125 37.996094 158.113281 38.40625 157.03125 38.839844 C 150.015625 41.644531 143.269531 45.09375 136.515625 48.710938 C 134.808594 49.625 133.101562 50.625 131.339844 51.359375 C 131.09375 51.460938 130 52.050781 129.765625 51.738281 C 129.457031 51.320312 130.808594 47.695312 130.945312 47.28125 Z M 130.945312 47.28125 " fill-opacity="1" fill-rule="evenodd"/><path fill="#000000" d="M 279.714844 43.746094 C 279.597656 43.433594 279.953125 42.621094 280.035156 42.335938 C 280.433594 40.945312 280.910156 39.597656 281.496094 38.304688 C 282.148438 36.855469 282.898438 35.472656 283.722656 34.15625 C 284.171875 33.4375 284.648438 32.644531 285.289062 32.152344 C 286.390625 31.3125 287.886719 31.4375 289.132812 31.484375 C 291.648438 31.582031 294.164062 31.894531 296.652344 32.34375 C 298.257812 32.636719 299.957031 32.957031 301.511719 33.539062 C 301.984375 33.71875 302.777344 33.980469 302.957031 34.621094 C 303.167969 35.386719 302.804688 36.347656 302.558594 37.027344 C 301.9375 38.742188 301.117188 40.367188 300.296875 41.957031 C 299.003906 44.472656 297.472656 46.832031 295.835938 49.046875 C 294.671875 50.632812 293.441406 52.25 291.855469 53.242188 C 289.921875 54.453125 287.660156 54.765625 285.542969 55.199219 C 283.960938 55.523438 282.382812 55.859375 280.796875 56.144531 C 280.417969 56.214844 279.550781 56.523438 279.195312 56.226562 C 278.933594 56.007812 279.890625 55.308594 279.972656 55.242188 C 281.160156 54.3125 282.414062 53.488281 283.640625 52.636719 C 286.59375 50.582031 289.589844 48.605469 292.574219 46.617188 C 293.238281 46.175781 293.917969 45.757812 294.546875 45.253906 C 294.671875 45.152344 295.148438 44.847656 295.0625 44.59375 C 294.953125 44.28125 294.328125 44.1875 294.101562 44.113281 C 292.914062 43.71875 291.671875 43.546875 290.449219 43.410156 C 289.417969 43.296875 288.382812 43.21875 287.351562 43.171875 C 285.355469 43.085938 281.695312 43.464844 279.714844 43.746094 Z M 279.714844 43.746094 " fill-opacity="1" fill-rule="evenodd"/><path fill="#000000" d="M 70.605469 58.933594 C 70.511719 58.753906 70.800781 58.285156 70.867188 58.121094 C 71.1875 57.316406 71.570312 56.539062 72.039062 55.789062 C 72.566406 54.953125 73.171875 54.152344 73.835938 53.394531 C 74.199219 52.980469 74.582031 52.519531 75.101562 52.234375 C 75.984375 51.75 77.191406 51.820312 78.195312 51.851562 C 80.222656 51.90625 82.25 52.085938 84.253906 52.347656 C 85.546875 52.515625 86.917969 52.703125 88.167969 53.039062 C 88.550781 53.140625 89.1875 53.292969 89.335938 53.664062 C 89.507812 54.105469 89.210938 54.660156 89.011719 55.054688 C 88.511719 56.042969 87.851562 56.984375 87.191406 57.902344 C 86.148438 59.355469 84.914062 60.71875 83.597656 62 C 82.65625 62.914062 81.667969 63.847656 80.390625 64.421875 C 78.832031 65.121094 77.011719 65.304688 75.304688 65.554688 C 74.027344 65.742188 72.757812 65.933594 71.480469 66.101562 C 71.171875 66.140625 70.476562 66.320312 70.1875 66.144531 C 69.976562 66.019531 70.746094 65.617188 70.816406 65.578125 C 71.773438 65.039062 72.78125 64.566406 73.769531 64.070312 C 76.148438 62.886719 78.5625 61.742188 80.96875 60.59375 C 81.503906 60.339844 82.050781 60.097656 82.558594 59.804688 C 82.660156 59.75 83.042969 59.570312 82.972656 59.425781 C 82.886719 59.246094 82.382812 59.191406 82.199219 59.148438 C 81.242188 58.921875 80.242188 58.820312 79.253906 58.742188 C 78.425781 58.675781 77.589844 58.628906 76.757812 58.605469 C 75.152344 58.554688 72.203125 58.773438 70.605469 58.933594 Z M 70.605469 58.933594 " fill-opacity="1" fill-rule="evenodd"/><path fill="#000000" d="M 287.886719 69.113281 C 288.027344 68.769531 288.773438 68.351562 289.027344 68.136719 C 290.125 67.230469 291.230469 66.335938 292.335938 65.441406 C 296.230469 62.292969 300.222656 59.34375 303.964844 55.960938 C 306.566406 53.609375 309.105469 51.175781 311.492188 48.558594 C 312.082031 47.914062 312.679688 47.265625 313.1875 46.539062 C 313.308594 46.359375 313.664062 45.980469 313.652344 45.726562 C 313.640625 45.5625 313.402344 45.414062 313.300781 45.324219 C 312.894531 44.957031 312.476562 44.609375 312.070312 44.242188 C 310.667969 42.96875 309.609375 41.644531 310.214844 39.535156 C 310.371094 38.988281 310.578125 38.453125 310.828125 37.953125 C 311.902344 35.835938 315.039062 32.128906 317.265625 34.730469 C 318.664062 36.363281 317.726562 39.859375 317.167969 41.667969 C 317.035156 42.101562 316.433594 43.007812 316.449219 43.445312 C 316.453125 43.542969 316.785156 43.703125 316.847656 43.75 C 317.222656 44.023438 317.632812 44.332031 317.910156 44.730469 C 318.648438 45.796875 317.6875 47.675781 317.078125 48.550781 C 316.511719 49.359375 315.699219 47.820312 315.242188 47.339844 C 315.144531 47.238281 314.738281 46.714844 314.589844 46.875 C 313.683594 47.863281 313.007812 49.144531 312.136719 50.175781 C 308.382812 54.597656 304.335938 59.050781 299.660156 62.242188 C 296.949219 64.09375 294.179688 65.851562 291.421875 67.609375 C 290.675781 68.082031 289.921875 68.566406 289.144531 68.980469 C 288.875 69.121094 288.203125 69.167969 287.886719 69.113281 Z M 315.515625 42.378906 C 315.480469 42.34375 315.582031 42.023438 315.589844 41.980469 C 315.671875 41.5625 315.757812 41.136719 315.777344 40.710938 C 315.832031 39.597656 315.585938 38.273438 314.8125 37.492188 C 314.011719 36.679688 313.097656 36.9375 312.441406 37.816406 C 312.300781 38.007812 311.945312 38.472656 312.007812 38.761719 C 312.097656 39.171875 312.472656 39.621094 312.722656 39.90625 C 313.464844 40.75 314.730469 41.589844 315.515625 42.378906 Z M 315.515625 42.378906 " fill-opacity="1" fill-rule="evenodd"/><path fill="#000000" d="M 108.875 57.722656 C 108.992188 57.46875 109.636719 57.15625 109.855469 57 C 110.796875 56.320312 111.746094 55.65625 112.699219 54.988281 C 116.046875 52.644531 119.480469 50.445312 122.695312 47.925781 C 124.933594 46.171875 127.117188 44.359375 129.167969 42.410156 C 129.675781 41.929688 130.191406 41.449219 130.625 40.90625 C 130.730469 40.773438 131.039062 40.492188 131.023438 40.300781 C 131.015625 40.179688 130.8125 40.070312 130.726562 40 C 130.375 39.730469 130.015625 39.46875 129.667969 39.191406 C 128.460938 38.246094 127.546875 37.257812 128.070312 35.6875 C 128.207031 35.28125 128.382812 34.878906 128.597656 34.507812 C 129.523438 32.929688 132.21875 30.171875 134.132812 32.109375 C 135.335938 33.324219 134.527344 35.929688 134.050781 37.277344 C 133.933594 37.597656 133.417969 38.273438 133.429688 38.601562 C 133.433594 38.675781 133.71875 38.792969 133.773438 38.828125 C 134.09375 39.03125 134.449219 39.261719 134.6875 39.558594 C 135.320312 40.351562 134.496094 41.753906 133.972656 42.40625 C 133.484375 43.007812 132.789062 41.859375 132.390625 41.503906 C 132.308594 41.425781 131.960938 41.035156 131.832031 41.15625 C 131.050781 41.890625 130.472656 42.847656 129.722656 43.617188 C 126.496094 46.910156 123.015625 50.226562 118.996094 52.605469 C 116.667969 53.984375 114.285156 55.292969 111.914062 56.605469 C 111.269531 56.957031 110.625 57.316406 109.957031 57.625 C 109.726562 57.730469 109.144531 57.765625 108.875 57.722656 Z M 132.628906 37.804688 C 132.601562 37.78125 132.6875 37.542969 132.695312 37.507812 C 132.761719 37.199219 132.835938 36.882812 132.851562 36.5625 C 132.902344 35.734375 132.6875 34.746094 132.023438 34.164062 C 131.335938 33.558594 130.550781 33.753906 129.988281 34.40625 C 129.863281 34.550781 129.558594 34.898438 129.613281 35.109375 C 129.691406 35.417969 130.011719 35.75 130.226562 35.964844 C 130.863281 36.59375 131.953125 37.21875 132.628906 37.804688 Z M 132.628906 37.804688 " fill-opacity="1" fill-rule="evenodd"/><path fill="#000000" d="M 221.003906 94.679688 C 220.988281 94.597656 220.925781 94.820312 220.894531 94.894531 C 220.828125 95.039062 220.761719 95.183594 220.699219 95.328125 C 220.488281 95.792969 220.273438 96.257812 220.0625 96.722656 C 219.488281 97.992188 218.921875 99.261719 218.378906 100.546875 C 216.835938 104.210938 215.132812 108.445312 215.5 112.628906 C 215.617188 113.988281 216 116.292969 217.414062 116.644531 C 219.308594 117.117188 220.59375 114.320312 221.207031 112.730469 C 221.359375 112.328125 221.496094 111.914062 221.613281 111.492188 C 221.773438 110.90625 222.007812 110.011719 221.867188 109.382812 C 221.761719 108.894531 221.292969 109.582031 221.195312 109.722656 C 220.738281 110.363281 220.386719 111.492188 219.734375 111.894531 C 218.921875 112.394531 218.171875 110.957031 217.933594 110.296875 C 216.617188 106.617188 218.765625 102.890625 220.0625 99.648438 C 220.558594 98.40625 221.273438 96.121094 221.003906 94.679688 Z M 221.003906 94.679688 " fill-opacity="1" fill-rule="evenodd"/><path fill="#000000" d="M 68.890625 57.765625 C 68.871094 57.660156 68.785156 57.949219 68.738281 58.046875 C 68.648438 58.230469 68.554688 58.414062 68.464844 58.601562 C 68.175781 59.199219 67.875 59.796875 67.582031 60.398438 C 66.785156 62.027344 65.996094 63.660156 65.242188 65.316406 C 63.09375 70.027344 60.730469 75.476562 61.234375 80.855469 C 61.402344 82.609375 61.933594 85.574219 63.898438 86.023438 C 66.53125 86.632812 68.324219 83.035156 69.171875 80.992188 C 69.386719 80.472656 69.578125 79.9375 69.738281 79.398438 C 69.964844 78.640625 70.289062 77.492188 70.09375 76.683594 C 69.945312 76.054688 69.296875 76.941406 69.160156 77.121094 C 68.523438 77.945312 68.035156 79.394531 67.128906 79.914062 C 65.996094 80.558594 64.953125 78.710938 64.621094 77.859375 C 62.789062 73.125 65.777344 68.332031 67.582031 64.160156 C 68.273438 62.558594 69.265625 59.625 68.890625 57.765625 Z M 68.890625 57.765625 " fill-opacity="1" fill-rule="evenodd"/><path fill="#000000" d="M 104.863281 91.214844 C 104.839844 91.113281 104.757812 91.402344 104.710938 91.496094 C 104.617188 91.679688 104.527344 91.867188 104.4375 92.050781 C 104.144531 92.652344 103.847656 93.246094 103.554688 93.847656 C 102.757812 95.476562 101.96875 97.113281 101.214844 98.765625 C 99.066406 103.476562 96.699219 108.925781 97.207031 114.308594 C 97.371094 116.058594 97.90625 119.023438 99.871094 119.476562 C 102.503906 120.082031 104.296875 116.484375 105.144531 114.441406 C 105.359375 113.921875 105.550781 113.386719 105.710938 112.847656 C 105.933594 112.089844 106.257812 110.945312 106.066406 110.132812 C 105.914062 109.503906 105.265625 110.390625 105.128906 110.570312 C 104.496094 111.394531 104.007812 112.847656 103.101562 113.363281 C 101.96875 114.007812 100.921875 112.160156 100.59375 111.308594 C 98.761719 106.578125 101.75 101.78125 103.554688 97.613281 C 104.246094 96.011719 105.238281 93.074219 104.863281 91.214844 Z M 104.863281 91.214844 " fill-opacity="1" fill-rule="evenodd"/><path fill="#000000" d="M 221.152344 53.207031 C 221.148438 53.164062 221.832031 53.179688 221.929688 53.171875 C 222.230469 53.152344 224.394531 53.164062 224.320312 52.671875 C 224.226562 52.046875 223.007812 51.117188 222.636719 50.714844 C 221.082031 49.035156 219.4375 47.421875 217.738281 45.941406 C 217.609375 45.832031 215.847656 44.171875 215.734375 44.273438 C 214.796875 45.148438 214.285156 47.894531 213.800781 49.148438 C 213.648438 49.53125 213.25 50.234375 213.324219 50.691406 C 213.445312 51.394531 215.019531 51.351562 215.390625 52.214844 C 216.699219 55.238281 221.644531 62.136719 222.570312 62.90625 C 222.246094 64.304688 220.753906 66.671875 220.171875 67.929688 C 218.074219 72.429688 214.914062 77.890625 215.734375 83.3125 C 215.964844 84.808594 216.378906 86.28125 216.988281 87.617188 C 217.386719 88.496094 217.875 89.339844 218.445312 90.074219 C 218.890625 90.648438 219.390625 91.175781 219.957031 91.578125 C 223.4375 94.035156 226.753906 89.972656 229.21875 87.382812 C 231.515625 84.972656 234.214844 82.148438 235.269531 78.609375 C 236.644531 74.023438 234.613281 70.082031 231.9375 66.882812 C 230.9375 65.691406 228.023438 63.773438 228.421875 61.761719 C 228.757812 60.109375 230.089844 58.578125 230.949219 57.292969 C 232.609375 54.820312 234.25 52.332031 235.808594 49.773438 C 236.355469 48.878906 238.058594 46.28125 237.175781 45.035156 C 236.683594 44.332031 235.773438 45.375 235.382812 45.742188 C 233.90625 47.125 232.632812 48.839844 231.382812 50.496094 C 230.550781 51.589844 229.738281 52.695312 228.949219 53.824219 C 228.5 54.460938 228.078125 55.113281 227.667969 55.777344 C 227.421875 56.175781 227.175781 56.582031 226.929688 56.988281 C 226.140625 58.316406 225.902344 58.855469 224.878906 57.753906 C 224.632812 57.484375 224.394531 57.207031 224.164062 56.921875 C 223.828125 56.503906 223.507812 56.070312 223.183594 55.636719 C 222.667969 54.945312 220.734375 52.792969 220.222656 52.09375 Z M 225.214844 67.269531 C 224.894531 67.9375 223.710938 69.109375 223.175781 69.824219 C 222.070312 71.300781 221.488281 73.007812 220.699219 74.746094 C 220.144531 75.964844 219.902344 77.304688 219.621094 78.652344 C 218.988281 81.664062 220.539062 84.863281 223.445312 84.585938 C 224.832031 84.453125 225.929688 83.636719 226.964844 82.628906 C 229.421875 80.25 232.386719 77.167969 230.234375 73.171875 C 229.117188 71.074219 226.894531 68.710938 225.214844 67.269531 Z M 225.214844 67.269531 " fill-opacity="1" fill-rule="evenodd"/><path fill="#000000" d="M 314.550781 73.496094 C 315.441406 71.898438 316.675781 70.410156 317.851562 69.085938 C 318.039062 68.871094 318.746094 67.867188 319.082031 67.960938 C 320.019531 68.21875 320.484375 71.496094 320.601562 72.292969 C 320.757812 73.367188 320.761719 74.460938 320.679688 75.542969 C 320.335938 80.21875 318.929688 85.429688 315.9375 88.695312 C 314.210938 90.585938 311.855469 91.585938 309.6875 90.113281 C 308.867188 89.558594 308.132812 88.835938 307.464844 88.042969 C 306.296875 86.648438 305.394531 84.894531 304.679688 83.125 C 304.59375 82.933594 304.46875 83.476562 304.378906 83.660156 C 304.203125 84.019531 304.019531 84.375 303.839844 84.726562 C 303.335938 85.710938 302.84375 86.699219 302.304688 87.65625 C 300.714844 90.480469 298.574219 93.722656 295.703125 94.773438 C 291.535156 96.296875 287.25 91.773438 285.925781 87.429688 C 285.441406 85.835938 285.394531 84.382812 285.375 82.734375 C 285.378906 82.738281 284 84.296875 283.894531 84.398438 C 282.257812 86.011719 280.5625 87.339844 278.671875 88.492188 C 278.601562 88.214844 279.0625 91.035156 279.0625 91.683594 C 279.0625 93.492188 279.078125 94.742188 278.558594 96.734375 C 278.363281 97.480469 277 99.710938 276.683594 100.1875 C 274.386719 103.6875 271.894531 106.945312 269.148438 109.960938 C 261.402344 118.457031 250.285156 128.273438 239.492188 121.335938 C 238.070312 120.421875 236.742188 119.3125 235.636719 117.910156 C 234.148438 116.035156 233.101562 113.8125 232.492188 111.351562 C 231 105.289062 232.097656 98.625 233.644531 92.726562 C 234.082031 91.074219 234.625 89.46875 235.277344 87.917969 C 235.328125 87.804688 235.773438 86.582031 235.984375 86.84375 C 236.308594 87.246094 235.921875 88.714844 235.859375 89.164062 C 235.550781 91.582031 235.207031 93.992188 234.949219 96.417969 C 234.25 103.023438 235.003906 110.277344 240.039062 114.347656 C 248.367188 121.082031 257.40625 112.367188 263.988281 106.730469 C 269.300781 102.179688 275.457031 97.324219 275.332031 88.855469 C 275.128906 88.914062 274.855469 89.34375 274.679688 89.480469 C 274.085938 89.957031 273.433594 90.359375 272.789062 90.722656 C 270.613281 91.941406 268.273438 92.71875 265.859375 92.71875 C 264.8125 92.71875 263.757812 92.542969 262.761719 92.195312 C 261.964844 91.917969 261.199219 91.503906 260.507812 90.953125 C 255.285156 86.757812 259.007812 78.21875 261.914062 73.792969 C 263.324219 71.648438 265.535156 68.425781 268.140625 68.632812 C 270.660156 68.832031 273.019531 71.660156 274.457031 73.890625 C 275.757812 75.90625 276.558594 78.328125 277.238281 80.71875 C 277.171875 80.449219 277.710938 80.65625 277.945312 80.585938 C 278.34375 80.457031 278.742188 80.289062 279.132812 80.101562 C 280.289062 79.550781 281.425781 78.8125 282.417969 77.929688 C 283.890625 76.621094 285.039062 74.945312 286.285156 73.371094 C 286.578125 73.003906 287.285156 71.804688 287.808594 72.101562 C 288.789062 72.648438 288.796875 75.484375 288.929688 76.519531 C 289.386719 80.078125 289.371094 84.066406 293.0625 84.824219 C 293.613281 84.9375 294.183594 84.960938 294.742188 84.910156 C 298.984375 84.53125 301.949219 80.277344 303.816406 76.152344 C 304.523438 74.59375 305.121094 72.96875 305.835938 71.421875 C 306.007812 71.054688 306.332031 70.132812 306.78125 70.144531 C 307.074219 70.152344 307.152344 70.671875 307.199219 70.925781 C 307.390625 71.921875 307.417969 72.964844 307.445312 73.980469 C 307.402344 73.863281 307.402344 74.242188 307.390625 74.371094 C 307.367188 74.625 307.332031 74.875 307.324219 75.128906 C 307.289062 75.972656 307.355469 76.847656 307.5 77.671875 C 307.941406 80.164062 309.351562 82.042969 311.527344 82.480469 C 315.191406 83.21875 315.910156 76.589844 314.550781 73.496094 Z M 270.339844 83.585938 C 270.324219 83.640625 269.976562 83.738281 269.933594 83.753906 C 269.527344 83.910156 269.113281 84.046875 268.695312 84.144531 C 267.355469 84.460938 264.597656 84.941406 264.078125 82.828125 C 263.5625 80.714844 265.738281 78.523438 267.417969 78.769531 C 268.75 78.96875 270.078125 81.394531 270.339844 83.585938 Z M 270.339844 83.585938 " fill-opacity="1" fill-rule="evenodd"/><path fill="#000000" d="M 212.222656 26.976562 L 217.40625 19.6875 L 225.144531 25.894531 L 220.011719 33.445312 Z M 212.222656 26.976562 " fill-opacity="1" fill-rule="evenodd"/><path fill="#000000" d="M 225.140625 26.976562 L 230.324219 19.6875 L 238.066406 25.894531 L 232.933594 33.445312 Z M 225.140625 26.976562 " fill-opacity="1" fill-rule="evenodd"/><path fill="#000000" d="M 116.796875 91.503906 L 120.855469 86.097656 L 126.917969 90.699219 L 122.898438 96.300781 Z M 116.796875 91.503906 " fill-opacity="1" fill-rule="evenodd"/><path fill="#000000" d="M 134.910156 86.402344 L 138.972656 80.996094 L 145.035156 85.601562 L 141.015625 91.199219 Z M 134.910156 86.402344 " fill-opacity="1" fill-rule="evenodd"/><path fill="#000000" d="M 76.523438 81.300781 L 80.585938 75.894531 L 86.648438 80.5 L 82.628906 86.097656 Z M 76.523438 81.300781 " fill-opacity="1" fill-rule="evenodd"/><path fill="#000000" d="M 156.339844 82.464844 L 160.398438 77.058594 L 166.460938 81.660156 L 162.441406 87.261719 Z M 156.339844 82.464844 " fill-opacity="1" fill-rule="evenodd"/><path fill="#000000" d="M 166.464844 82.464844 L 170.523438 77.058594 L 176.585938 81.660156 L 172.566406 87.261719 Z M 166.464844 82.464844 " fill-opacity="1" fill-rule="evenodd"/><path fill="#000000" d="M 307.789062 108.839844 C 307.734375 108.851562 307.898438 108.46875 307.917969 108.421875 C 308.003906 108.175781 308.085938 107.921875 308.179688 107.675781 C 308.390625 107.105469 308.621094 106.546875 308.832031 105.976562 C 308.847656 105.925781 308.980469 105.460938 309.0625 105.507812 C 309.140625 105.554688 309.167969 105.792969 309.191406 105.878906 C 309.316406 106.296875 309.449219 106.710938 309.542969 107.144531 C 309.953125 109.085938 309.933594 111.089844 309.195312 112.914062 C 308.671875 114.210938 307.65625 115.152344 306.457031 115.296875 C 304.945312 115.480469 303.4375 114.003906 303.378906 112.121094 C 303.378906 112.113281 303.214844 112.277344 303.203125 112.292969 C 303.117188 112.410156 303.039062 112.535156 302.960938 112.660156 C 302.703125 113.0625 302.464844 113.484375 302.230469 113.90625 C 301.488281 115.234375 300.59375 116.8125 299.195312 117.105469 C 297.324219 117.496094 295.984375 115.695312 294.234375 115.410156 C 293.363281 115.265625 292.492188 115.609375 291.714844 116.050781 C 290.359375 116.820312 289.140625 117.929688 287.964844 119.039062 C 287.453125 119.523438 286.773438 120.144531 286.269531 120.628906 C 285.160156 121.683594 284.046875 122.734375 282.917969 123.761719 C 278.8125 127.523438 274.871094 131.339844 270.296875 134.242188 C 270.371094 134.339844 270.097656 134.339844 269.996094 134.394531 C 269.757812 134.527344 269.515625 134.65625 269.273438 134.777344 C 268.570312 135.132812 267.863281 135.472656 267.152344 135.804688 C 264.980469 136.820312 262.804688 137.703125 260.542969 138.375 C 259.8125 138.59375 259.0625 138.804688 258.3125 138.867188 C 258.199219 138.875 257.566406 138.949219 257.574219 138.667969 C 257.585938 138.117188 258.761719 137.574219 259.054688 137.378906 C 260.632812 136.347656 262.253906 135.4375 263.847656 134.445312 C 267.566406 132.128906 271.039062 129.304688 274.515625 126.496094 C 277.054688 124.441406 279.632812 122.445312 282.132812 120.316406 C 282.300781 120.171875 282.773438 119.773438 282.929688 119.640625 C 283.640625 119.042969 284.34375 118.429688 285.046875 117.816406 C 286.914062 116.1875 288.78125 114.53125 290.757812 113.109375 C 291.855469 112.316406 293.109375 111.476562 294.421875 111.492188 C 296.339844 111.515625 298.207031 113.621094 300.136719 112.558594 C 301.640625 111.730469 302.453125 109.75 303.378906 108.207031 C 303.644531 107.765625 304.273438 106.390625 304.796875 106.339844 C 305.128906 106.304688 304.910156 107.304688 304.886719 107.476562 C 304.738281 108.613281 304.410156 110.285156 305.140625 111.222656 C 306.25 112.648438 308.839844 111.167969 307.789062 108.839844 Z M 307.789062 108.839844 " fill-opacity="1" fill-rule="evenodd"/><path fill="#000000" d="M 247.535156 83.566406 C 247.53125 83.535156 247.589844 83.605469 247.617188 83.621094 C 247.660156 83.648438 247.707031 83.675781 247.753906 83.703125 C 247.921875 83.800781 248.089844 83.890625 248.257812 83.976562 C 248.386719 84.042969 248.515625 84.109375 248.644531 84.171875 C 248.730469 84.214844 248.816406 84.253906 248.90625 84.296875 C 249.207031 84.433594 250.210938 84.953125 250.179688 84.207031 C 250.160156 83.664062 249.757812 83.109375 249.46875 82.695312 C 248.871094 81.839844 248.265625 80.988281 247.660156 80.140625 C 246.554688 78.585938 245.4375 77.039062 244.304688 75.507812 C 244.035156 75.148438 243.777344 74.777344 243.496094 74.429688 C 243.417969 74.332031 243.277344 74.113281 243.144531 74.109375 C 242.933594 74.105469 242.820312 74.605469 242.777344 74.75 C 242.550781 75.511719 242.417969 76.304688 242.257812 77.082031 C 242.003906 78.324219 241.710938 79.546875 241.390625 80.769531 C 241.257812 81.285156 240.949219 82 241.113281 82.539062 C 241.21875 82.875 241.457031 83.128906 241.679688 83.375 C 241.980469 83.703125 242.289062 84.023438 242.621094 84.3125 C 242.515625 84.601562 242.84375 85.339844 242.914062 85.609375 C 243.242188 86.835938 243.640625 88.039062 244.039062 89.246094 C 244.824219 91.636719 245.695312 93.996094 246.769531 96.253906 C 247.9375 98.714844 249.308594 101.078125 250.414062 103.574219 C 250.332031 103.558594 249.988281 104.117188 249.933594 104.179688 C 249.375 104.875 248.796875 105.554688 248.214844 106.230469 C 245.984375 108.800781 243.601562 111.191406 241.078125 113.421875 C 237.304688 116.761719 232.984375 119.480469 228.5625 121.683594 C 224.15625 123.878906 219.277344 125.648438 214.363281 125.050781 C 214.320312 124.910156 214.089844 125.039062 213.957031 125.003906 C 213.488281 124.878906 213.023438 124.746094 212.570312 124.582031 C 210.84375 123.960938 209.191406 123.207031 207.742188 121.992188 C 203.621094 118.535156 202.441406 112.851562 202.457031 107.398438 C 202.46875 102.695312 203.433594 98.019531 204.886719 93.609375 C 205.476562 91.828125 206.097656 90.0625 206.695312 88.285156 C 206.734375 88.171875 207.269531 86.769531 206.996094 86.769531 C 206.765625 86.769531 206.507812 87.164062 206.386719 87.328125 C 205.867188 88.058594 205.429688 88.871094 205.058594 89.699219 C 203.535156 93.097656 202.398438 96.761719 201.390625 100.371094 C 200.925781 102.027344 200.5 103.695312 200.164062 105.386719 C 198.367188 114.441406 198.949219 126.878906 207.460938 131.765625 C 208.75 132.507812 210.144531 133.066406 211.570312 133.410156 C 221.894531 135.902344 231.21875 129.859375 238.886719 123.222656 C 238.820312 123.277344 239.035156 123.136719 239.105469 123.085938 C 239.246094 122.980469 239.386719 122.871094 239.523438 122.765625 C 239.96875 122.429688 240.40625 122.085938 240.84375 121.734375 C 242.128906 120.699219 243.351562 119.578125 244.527344 118.402344 C 248.261719 114.667969 251.640625 110.546875 252.6875 105.035156 C 252.765625 104.605469 252.84375 104.019531 252.871094 103.597656 C 252.941406 102.46875 252.964844 101.332031 252.933594 100.203125 C 252.832031 96.59375 251.558594 93.582031 250.195312 90.359375 C 249.3125 88.277344 248.566406 85.566406 247.535156 83.566406 Z M 247.535156 83.566406 " fill-opacity="1" fill-rule="evenodd"/><path fill="#000000" d="M 189.171875 35.777344 C 189.171875 35.777344 189.132812 35.710938 189.128906 35.707031 C 189.101562 35.652344 189.070312 35.597656 189.042969 35.546875 C 188.953125 35.390625 188.855469 35.238281 188.765625 35.082031 C 188.511719 34.648438 188.027344 34.039062 188.113281 33.523438 C 188.230469 32.851562 188.628906 32.152344 188.914062 31.53125 C 189.433594 30.40625 189.972656 29.28125 190.433594 28.136719 C 190.417969 28.1875 190.953125 28.910156 190.996094 28.988281 C 191.507812 29.925781 191.957031 30.886719 192.417969 31.84375 C 193.335938 33.746094 194.113281 35.699219 194.9375 37.632812 C 195.589844 39.164062 196.328125 40.667969 196.871094 42.234375 C 197.148438 43.039062 197.332031 43.863281 197.316406 44.707031 C 197.316406 44.875 197.355469 45.386719 197.09375 45.445312 C 196.746094 45.527344 196.28125 44.804688 196.109375 44.621094 C 195.289062 43.730469 194.535156 42.804688 193.664062 41.945312 C 193.601562 42.152344 193.8125 42.59375 193.851562 42.800781 C 193.980469 43.507812 194.070312 44.222656 194.175781 44.933594 C 194.535156 47.386719 194.820312 49.84375 195.101562 52.304688 C 195.816406 58.535156 196.679688 64.761719 197.652344 70.960938 C 198.121094 73.957031 198.777344 76.925781 199.167969 79.933594 C 199.105469 79.957031 199.171875 80.28125 199.175781 80.316406 C 199.210938 80.78125 199.246094 81.246094 199.28125 81.710938 C 199.417969 83.554688 199.636719 85.390625 199.789062 87.230469 C 200.269531 92.984375 201.535156 99.171875 199.359375 104.785156 C 198.910156 105.941406 198.359375 107.070312 197.8125 108.191406 C 197.648438 108.527344 197.46875 109.167969 197.082031 109.375 C 196.761719 109.550781 196.738281 108.359375 196.730469 108.265625 C 196.65625 106.957031 196.609375 105.648438 196.550781 104.34375 C 196.40625 101.175781 196.207031 98.007812 196.03125 94.839844 C 195.839844 91.339844 195.523438 87.855469 195.144531 84.367188 C 195.246094 84.511719 195.09375 84.027344 195.066406 83.855469 C 195.011719 83.488281 194.964844 83.117188 194.914062 82.746094 C 194.75 81.558594 194.578125 80.375 194.417969 79.1875 C 193.960938 75.839844 193.496094 72.492188 193.035156 69.144531 C 191.617188 58.839844 189.800781 46.074219 189.171875 35.777344 Z M 189.171875 35.777344 " fill-opacity="1" fill-rule="evenodd"/><path fill="#000000" d="M 166.5 56.5 C 166.394531 56.339844 166.679688 55.847656 166.742188 55.703125 C 167.046875 54.96875 167.410156 54.246094 167.882812 53.570312 C 167.9375 53.492188 168.472656 52.679688 168.644531 52.859375 C 168.878906 53.105469 168.816406 53.703125 168.855469 53.992188 C 168.972656 54.8125 169.15625 55.605469 169.398438 56.402344 C 169.847656 57.894531 170.722656 59.257812 171.191406 60.734375 C 171.695312 62.3125 171.625 64.207031 170.945312 65.746094 C 170.292969 67.21875 168.96875 68.707031 166.832031 68.449219 C 165.199219 68.253906 163.78125 67.085938 163.011719 65.933594 C 162.742188 65.527344 162.542969 65.082031 162.386719 64.636719 C 162.371094 64.59375 162.308594 64.238281 162.257812 64.222656 C 162.238281 64.21875 162.203125 64.574219 162.203125 64.589844 C 162.183594 64.871094 162.164062 65.152344 162.125 65.429688 C 162.019531 66.191406 161.863281 66.980469 161.363281 67.640625 C 160.21875 69.164062 157.707031 69.636719 155.929688 68.601562 C 154.914062 68.007812 154.519531 67.035156 154.390625 66.046875 C 154.164062 64.304688 154.695312 62.574219 154.644531 60.832031 C 154.628906 60.324219 154.585938 59.789062 154.382812 59.308594 C 154.207031 58.890625 153.859375 58.628906 153.898438 58.160156 C 153.972656 57.332031 154.445312 56.53125 154.898438 55.808594 C 155.011719 55.625 155.230469 55.183594 155.535156 55.171875 C 155.835938 55.15625 155.984375 55.625 156.042969 55.796875 C 156.277344 56.5 156.378906 57.230469 156.421875 57.957031 C 156.527344 59.917969 155.988281 61.890625 156.238281 63.84375 C 156.363281 64.835938 156.953125 65.777344 158.238281 65.949219 C 160.078125 66.191406 161.085938 64.289062 161.492188 63.128906 C 161.929688 61.863281 161.785156 60.46875 161.296875 59.226562 C 160.796875 57.964844 159.976562 57.070312 160.402344 55.695312 C 160.601562 55.058594 160.871094 54.4375 161.257812 53.859375 C 161.371094 53.691406 161.539062 53.402344 161.777344 53.328125 C 162.097656 53.230469 162.390625 53.824219 162.484375 53.984375 C 162.949219 54.777344 163.195312 55.671875 163.46875 56.519531 C 163.644531 57.054688 163.757812 57.601562 163.835938 58.152344 C 164.152344 60.355469 164.195312 64.164062 167.664062 64.691406 C 168.917969 64.878906 169.601562 63.820312 169.351562 62.945312 C 168.71875 60.75 167.195312 58.410156 166.5 56.5 Z M 166.5 56.5 " fill-opacity="1" fill-rule="evenodd"/><path fill="#000000" d="M 131.734375 71.015625 C 132.046875 71.089844 131.242188 70.597656 130.972656 70.421875 C 130.417969 70.058594 129.789062 69.777344 129.164062 69.554688 C 127.253906 68.875 125.25 68.535156 123.226562 68.699219 C 117.476562 69.152344 112.308594 72.589844 107.882812 76.019531 C 98.976562 82.929688 92.472656 92.035156 84.617188 99.984375 C 80.867188 103.78125 76.464844 108.054688 71.371094 109.960938 C 67.453125 111.4375 62.433594 110.675781 60.976562 106.222656 C 60.292969 104.148438 60.496094 101.902344 60.871094 99.789062 C 61.503906 96.191406 62.863281 92.738281 64.386719 89.429688 C 64.9375 88.234375 65.574219 87.082031 66.160156 85.898438 C 66.214844 85.789062 66.75 84.734375 66.316406 84.71875 C 65.792969 84.703125 65.125 85.558594 64.824219 85.886719 C 63.609375 87.207031 62.539062 88.664062 61.585938 90.1875 C 58.652344 94.878906 56.851562 100.554688 56.714844 106.09375 C 56.664062 108.238281 56.789062 110.585938 57.824219 112.523438 C 60.953125 118.378906 69.546875 117.339844 74.5625 114.992188 C 79.050781 112.886719 82.917969 108.898438 86.222656 105.292969 C 91.933594 99.0625 97.019531 92.15625 103.214844 86.371094 C 107.726562 82.152344 113.203125 78.101562 119.269531 76.523438 C 121.679688 75.890625 124.1875 75.738281 126.625 76.308594 C 127.753906 76.570312 129.878906 77.910156 131 77.238281 C 132.136719 76.558594 132.984375 71.101562 131.734375 71.015625 Z M 131.734375 71.015625 " fill-opacity="1" fill-rule="evenodd"/><path fill="#000000" d="M 182.433594 60.453125 C 182.371094 60.382812 182.359375 60.371094 182.433594 60.453125 C 182.578125 60.609375 182.996094 61.0625 183.183594 61.246094 C 183.523438 61.582031 185.242188 63.050781 185.332031 61.828125 C 185.414062 60.65625 184.519531 59.382812 184.039062 58.382812 C 182.839844 55.886719 181.667969 53.375 180.398438 50.910156 C 180.035156 50.203125 179.300781 47.804688 178.507812 47.476562 C 177.933594 47.238281 177.128906 49.097656 176.964844 49.429688 C 175.871094 51.578125 175.09375 52.179688 176.957031 53.734375 C 177.050781 53.546875 177.050781 54.144531 177.078125 54.351562 C 177.132812 54.734375 177.195312 55.109375 177.253906 55.492188 C 177.472656 56.835938 177.722656 58.175781 177.964844 59.511719 C 178.683594 63.371094 179.398438 67.238281 180.035156 71.109375 C 181.824219 82.007812 184.769531 94.140625 183.332031 105.226562 C 182.996094 107.820312 182.238281 110.707031 179.792969 112.066406 C 175.015625 114.71875 170.199219 109.148438 170.757812 104.554688 C 170.761719 104.511719 170.367188 105.15625 170.34375 105.195312 C 170.082031 105.695312 169.839844 106.203125 169.578125 106.703125 C 168.800781 108.160156 168.054688 109.640625 167.03125 110.9375 C 165.78125 112.515625 164.304688 113.910156 162.691406 115.101562 C 161.726562 115.8125 160.675781 116.527344 159.476562 116.75 C 157.796875 117.0625 156.0625 116.636719 154.476562 116.097656 C 153.414062 115.730469 152.371094 115.300781 151.421875 114.695312 C 150.335938 113.996094 149.359375 113.171875 148.496094 112.207031 C 148.289062 111.980469 147.757812 111.550781 147.75 111.210938 C 147.738281 110.609375 149.214844 110.082031 149.613281 109.875 C 151.769531 108.765625 153.96875 107.722656 156.175781 106.703125 C 156.65625 106.484375 157.40625 106.296875 157.78125 105.902344 C 158.289062 105.355469 158.042969 103.699219 158.089844 103.007812 C 158.117188 102.605469 158.464844 101.664062 158.074219 101.378906 C 156.589844 100.304688 154.25 99.941406 152.535156 99.449219 C 146.824219 97.824219 140.46875 97.167969 134.632812 98.484375 C 132.761719 98.902344 130.910156 99.492188 129.175781 100.324219 C 128.660156 100.566406 127.667969 100.917969 127.363281 101.457031 C 127.210938 101.730469 127.375 102.191406 127.417969 102.472656 C 127.554688 103.359375 127.53125 104.613281 127.910156 105.425781 C 127.984375 105.585938 128.992188 105.003906 129.175781 104.960938 C 129.972656 104.785156 130.695312 105.117188 131.421875 105.410156 C 134.15625 106.496094 136.191406 108.390625 138.53125 110.070312 C 138.476562 110.605469 137.125 111.339844 136.757812 111.605469 C 134.738281 113.050781 132.625 114.167969 130.207031 114.792969 C 127.214844 115.570312 123.78125 115.816406 120.816406 114.773438 C 116.558594 113.269531 113.75 108.808594 112.617188 104.621094 C 112.457031 104.027344 112.019531 102.066406 111.941406 101.550781 C 111.46875 98.484375 111.070312 95.40625 110.671875 92.332031 C 109.082031 80.011719 108.035156 67.617188 106.378906 55.304688 C 105.886719 51.65625 105.5625 47.796875 104.398438 44.289062 C 104.027344 43.171875 103.195312 41.066406 101.632812 41.5 C 100.734375 41.746094 100.066406 42.664062 99.613281 43.410156 C 98.527344 45.226562 97.753906 47.359375 97.207031 49.394531 C 97.015625 50.105469 96.5 51.4375 96.835938 52.171875 C 97.058594 52.664062 97.628906 51.597656 97.699219 51.476562 C 98.1875 50.589844 98.570312 49.613281 99.15625 48.789062 C 99.363281 48.488281 99.773438 47.984375 100.144531 48.367188 C 101 49.234375 101.136719 51.203125 101.375 52.320312 C 102.1875 56.125 102.679688 60.003906 103.214844 63.851562 C 103.792969 68.019531 104.308594 72.1875 104.863281 76.359375 C 105.328125 79.871094 105.742188 83.390625 106.199219 86.90625 C 106.550781 89.613281 106.875 92.320312 107.242188 95.027344 C 107.816406 99.25 108.421875 103.484375 109.34375 107.648438 C 109.933594 110.308594 110.65625 113.191406 112.300781 115.417969 C 114.074219 117.8125 116.964844 119.519531 119.671875 120.652344 C 121.851562 121.558594 124.132812 121.875 126.457031 121.425781 C 126.484375 121.535156 127.195312 121.296875 127.253906 121.277344 C 128.246094 120.988281 129.210938 120.605469 130.167969 120.210938 C 133.9375 118.664062 137.574219 116.472656 140.734375 113.886719 C 141.058594 113.625 142.191406 115.136719 142.507812 115.386719 C 144.167969 116.699219 145.863281 117.960938 147.765625 118.898438 C 151.972656 120.976562 157.761719 122.027344 162.171875 120 C 165.25 118.578125 167.921875 115.707031 169.785156 112.917969 C 169.609375 113.207031 170.648438 114.945312 170.78125 115.210938 C 171.789062 117.25 173.355469 120.375 176 120.441406 C 177.742188 120.492188 179.375 119.472656 180.703125 118.445312 C 183.660156 116.15625 185.644531 113.066406 186.644531 109.492188 C 187.03125 109.398438 187.117188 107.078125 187.148438 106.703125 C 187.410156 103.710938 187.453125 100.730469 187.3125 97.730469 C 186.730469 85.21875 185.359375 72.613281 182.433594 60.453125 Z M 139.382812 104.039062 C 138.792969 103.84375 141.933594 103.636719 144.054688 103.777344 C 145.726562 103.878906 147.5 104.578125 147.699219 104.65625 C 147.960938 104.765625 148.21875 104.882812 148.464844 105.019531 C 148.640625 105.117188 148.84375 105.210938 149 105.332031 C 149.25 105.523438 144.984375 107.65625 144.261719 107.910156 C 143.945312 108.019531 143.492188 108.324219 143.144531 108.164062 C 142.664062 107.957031 139.625 104.460938 139.382812 104.039062 Z M 139.382812 104.039062 " fill-opacity="1" fill-rule="evenodd"/></svg>