<svg xmlns="http://www.w3.org/2000/svg" xmlns:xlink="http://www.w3.org/1999/xlink" width="500" zoomAndPan="magnify" viewBox="0 0 375 157.92" height="200" preserveAspectRatio="xMidYMid meet" version="1.0"><defs><clipPath id="44178d9bf8"><path d="M 355 60 L 374.902344 60 L 374.902344 66 L 355 66 Z M 355 60 " clip-rule="nonzero"/></clipPath><clipPath id="0ecd188f0d"><path d="M 0.09375 66 L 20 66 L 20 72 L 0.09375 72 Z M 0.09375 66 " clip-rule="nonzero"/></clipPath><clipPath id="9c4d09293f"><path d="M 242 1.875 L 266 1.875 L 266 27 L 242 27 Z M 242 1.875 " clip-rule="nonzero"/></clipPath></defs><path fill="#000000" d="M 302.453125 6.261719 C 302.480469 6.386719 302.691406 6.273438 302.800781 6.292969 C 303.101562 6.351562 303.394531 6.417969 303.695312 6.488281 C 304.972656 6.789062 306.238281 7.179688 307.488281 7.59375 C 312.507812 9.25 317.277344 11.679688 321.609375 14.980469 C 332.507812 23.273438 339.671875 37.320312 341.785156 51.746094 C 341.738281 51.765625 341.65625 51.972656 341.625 52.015625 C 341.46875 52.273438 341.292969 52.519531 341.128906 52.777344 C 340.625 53.570312 340.054688 54.328125 339.40625 54.980469 C 338.722656 55.664062 337.644531 56.585938 336.683594 56.621094 C 335.917969 56.652344 335.136719 56.070312 334.503906 55.679688 C 333.140625 54.851562 331.804688 53.957031 330.539062 52.949219 C 330.574219 53.054688 330.421875 52.566406 330.40625 52.488281 C 330.316406 52.070312 330.21875 51.65625 330.113281 51.242188 C 329.792969 49.960938 329.464844 48.679688 329.136719 47.402344 C 328.136719 43.496094 326.613281 39.632812 325.027344 35.988281 C 320.382812 25.328125 310.886719 13.492188 302.453125 6.261719 Z M 302.453125 6.261719 " fill-opacity="1" fill-rule="evenodd"/><path fill="#000000" d="M 302.453125 119.375 C 302.480469 119.25 302.691406 119.363281 302.800781 119.34375 C 303.101562 119.285156 303.394531 119.21875 303.695312 119.148438 C 304.972656 118.847656 306.238281 118.453125 307.488281 118.042969 C 312.507812 116.386719 317.277344 113.957031 321.609375 110.65625 C 332.507812 102.363281 339.671875 88.316406 341.785156 73.890625 C 341.738281 73.871094 341.65625 73.664062 341.625 73.617188 C 341.46875 73.363281 341.292969 73.113281 341.128906 72.859375 C 340.625 72.066406 340.054688 71.308594 339.40625 70.65625 C 338.722656 69.96875 337.644531 69.050781 336.683594 69.015625 C 335.917969 68.984375 335.136719 69.566406 334.503906 69.957031 C 333.140625 70.785156 331.804688 71.679688 330.539062 72.6875 C 330.574219 72.582031 330.421875 73.070312 330.40625 73.148438 C 330.316406 73.566406 330.21875 73.980469 330.113281 74.394531 C 329.792969 75.675781 329.464844 76.957031 329.136719 78.234375 C 328.136719 82.140625 326.613281 86.003906 325.027344 89.648438 C 320.382812 100.308594 310.886719 112.144531 302.453125 119.375 Z M 302.453125 119.375 " fill-opacity="1" fill-rule="evenodd"/><path fill="#000000" d="M 341.183594 39.589844 C 341.121094 39.570312 340.597656 39.375 340.40625 39.253906 C 340.179688 39.109375 340.058594 38.921875 340.003906 38.78125 C 339.925781 38.597656 339.917969 38.414062 339.960938 38.230469 C 340.003906 38.078125 340.085938 37.859375 340.335938 37.714844 C 340.386719 37.679688 340.5 37.628906 340.644531 37.597656 C 340.855469 37.554688 341.257812 37.523438 341.285156 37.523438 C 342.046875 37.488281 342.8125 37.550781 343.566406 37.667969 C 346.183594 38.082031 348.78125 39.160156 350.949219 40.859375 C 353.054688 42.507812 354.789062 44.730469 355.636719 47.46875 C 355.851562 48.179688 356.03125 48.917969 356.101562 49.667969 C 356.121094 49.828125 356.113281 50.023438 356.113281 50.222656 C 356.121094 50.285156 356.125 50.371094 356.132812 50.441406 C 356.203125 50.460938 356.308594 50.492188 356.382812 50.503906 C 356.550781 50.539062 356.707031 50.566406 356.824219 50.605469 C 357.628906 50.859375 358.382812 51.292969 359.054688 51.851562 C 361.277344 53.691406 362.613281 56.726562 363.074219 59.726562 C 363.160156 59.929688 363.164062 60.15625 363.050781 60.410156 C 363.035156 60.449219 362.964844 60.699219 362.613281 60.828125 C 362.554688 60.851562 362.496094 60.863281 362.4375 60.871094 L 362.363281 60.886719 C 362.214844 60.941406 362.0625 60.992188 361.910156 61.042969 C 361.40625 61.214844 360.898438 61.375 360.390625 61.535156 C 359.515625 61.816406 358.636719 62.09375 357.753906 62.355469 L 358.027344 62.46875 C 359.585938 63.132812 361.082031 63.910156 362.59375 64.691406 C 362.941406 64.875 363.105469 65.328125 362.96875 65.730469 C 361.707031 69.351562 359.738281 72.878906 356.558594 74.789062 C 356.292969 74.949219 355.789062 75.277344 355.582031 75.46875 C 354.597656 76.367188 354.027344 77.5625 353.550781 78.855469 C 353.082031 80.109375 352.648438 81.386719 351.945312 82.507812 C 350.394531 84.984375 347.742188 86.667969 345.09375 87.132812 C 344.25 87.28125 343.390625 87.3125 342.535156 87.25 C 342.390625 87.238281 342.183594 87.246094 341.992188 87.222656 C 341.753906 87.191406 341.542969 87.113281 341.378906 86.996094 C 341.035156 86.757812 340.964844 86.441406 341 86.128906 C 341.019531 85.980469 341.066406 85.8125 341.179688 85.652344 C 341.304688 85.46875 341.578125 85.265625 341.644531 85.21875 C 342.089844 84.910156 342.550781 84.636719 343.003906 84.34375 C 344.035156 83.664062 345.039062 82.917969 345.8125 81.878906 C 346.785156 80.570312 347.253906 79.027344 347.296875 77.332031 C 347.3125 76.457031 347.222656 75.511719 347.234375 74.589844 C 347.246094 73.515625 347.402344 72.472656 347.902344 71.546875 C 348.78125 69.941406 350.46875 69.058594 351.988281 68.441406 C 352.074219 68.402344 352.269531 68.347656 352.476562 68.265625 C 352.269531 68.054688 352.007812 67.886719 351.804688 67.726562 C 351.007812 67.109375 350.15625 66.5625 349.300781 66.046875 C 348.554688 65.597656 347.800781 65.164062 347.023438 64.777344 C 346.027344 64.28125 344.992188 63.878906 343.960938 63.476562 C 343.839844 63.429688 343.460938 63.21875 343.296875 63.128906 C 343.265625 63.152344 343.234375 63.179688 343.199219 63.207031 C 343.050781 63.324219 342.914062 63.457031 342.792969 63.558594 C 342.226562 64.035156 341.679688 64.542969 341.136719 65.054688 C 340.605469 65.554688 340.078125 66.054688 339.546875 66.554688 C 338.875 67.191406 338.214844 67.839844 337.5625 68.503906 C 337.402344 68.667969 337.210938 68.910156 337 69.097656 C 336.773438 69.304688 336.527344 69.453125 336.273438 69.507812 C 336.03125 69.5625 335.785156 69.523438 335.550781 69.417969 C 335.378906 69.335938 335.210938 69.203125 335.066406 69.109375 C 334.621094 68.828125 334.175781 68.546875 333.734375 68.25 C 331.964844 67.058594 328.875 64.734375 327.253906 63.289062 C 327.050781 63.109375 326.957031 62.867188 326.980469 62.566406 C 326.988281 62.445312 327.027344 62.265625 327.15625 62.085938 C 327.230469 61.988281 327.402344 61.835938 327.410156 61.828125 C 327.667969 61.601562 327.9375 61.394531 328.207031 61.1875 C 328.789062 60.75 329.371094 60.316406 329.960938 59.898438 C 331.621094 58.71875 334.011719 57.003906 335.671875 55.765625 C 335.753906 55.671875 335.890625 55.578125 336.117188 55.5625 C 336.292969 55.546875 336.460938 55.605469 336.597656 55.714844 C 336.617188 55.726562 336.632812 55.738281 336.640625 55.746094 C 336.707031 55.792969 336.773438 55.839844 336.84375 55.890625 C 337.03125 56.027344 337.214844 56.171875 337.402344 56.3125 C 337.90625 56.703125 338.417969 57.089844 338.921875 57.484375 C 340.34375 58.597656 341.816406 59.683594 343.1875 60.882812 C 343.953125 60.257812 344.835938 59.746094 345.621094 59.199219 C 347.160156 58.113281 348.707031 57.035156 350.25 55.960938 C 349.707031 55.578125 349.179688 55.125 348.777344 54.574219 C 348.203125 53.800781 347.941406 52.773438 347.632812 51.851562 C 347.109375 50.277344 346.683594 48.664062 346.144531 47.09375 C 345.386719 44.898438 344.375 42.65625 342.863281 40.980469 C 342.367188 40.425781 341.808594 39.949219 341.183594 39.589844 Z M 343.382812 39.292969 C 345.769531 39.671875 348.132812 40.652344 350.109375 42.199219 C 351.964844 43.648438 353.503906 45.589844 354.25 48 C 354.4375 48.597656 354.585938 49.210938 354.644531 49.839844 C 354.667969 50.042969 354.644531 50.308594 354.664062 50.554688 C 354.6875 50.855469 354.753906 51.136719 354.875 51.359375 C 355.003906 51.605469 355.214844 51.796875 355.484375 51.925781 C 355.78125 52.066406 356.191406 52.101562 356.425781 52.175781 C 357.058594 52.378906 357.652344 52.726562 358.183594 53.164062 C 359.972656 54.644531 361.074219 57.042969 361.539062 59.460938 L 361.484375 59.480469 C 360.988281 59.648438 360.488281 59.804688 359.988281 59.964844 C 358.832031 60.335938 357.671875 60.695312 356.503906 61.03125 C 356.335938 61.078125 355.851562 61.136719 355.519531 61.25 C 355.191406 61.363281 354.960938 61.5625 354.851562 61.730469 C 354.730469 61.917969 354.6875 62.132812 354.726562 62.367188 C 354.746094 62.492188 354.800781 62.691406 354.996094 62.867188 C 355.121094 62.976562 355.882812 63.316406 355.9375 63.339844 C 356.460938 63.554688 356.984375 63.777344 357.507812 64 C 358.8125 64.554688 360.078125 65.195312 361.347656 65.847656 C 360.207031 68.867188 358.523438 71.75 355.863281 73.351562 C 355.535156 73.546875 354.917969 73.964844 354.65625 74.203125 C 353.476562 75.277344 352.773438 76.683594 352.195312 78.230469 C 351.773438 79.375 351.390625 80.546875 350.75 81.570312 C 349.417969 83.691406 347.136719 85.121094 344.867188 85.519531 C 344.554688 85.574219 344.242188 85.609375 343.929688 85.628906 C 345.042969 84.886719 346.101562 84.046875 346.941406 82.921875 C 348.125 81.324219 348.710938 79.441406 348.753906 77.375 C 348.777344 76.492188 348.683594 75.542969 348.699219 74.613281 C 348.707031 73.835938 348.785156 73.070312 349.15625 72.398438 C 349.859375 71.105469 351.269531 70.472656 352.484375 69.976562 C 352.71875 69.882812 353.464844 69.636719 353.796875 69.292969 C 354.160156 68.90625 354.277344 68.441406 354.046875 67.910156 C 353.761719 67.273438 353.140625 66.773438 352.636719 66.382812 C 351.792969 65.730469 350.898438 65.15625 350 64.609375 C 349.222656 64.140625 348.429688 63.6875 347.617188 63.285156 C 346.585938 62.769531 345.515625 62.351562 344.445312 61.933594 C 344.433594 61.929688 344.421875 61.921875 344.410156 61.917969 C 345.054688 61.4375 345.765625 61.027344 346.398438 60.582031 C 348.296875 59.242188 350.207031 57.917969 352.121094 56.589844 C 352.324219 56.449219 352.453125 56.199219 352.460938 55.925781 C 352.46875 55.65625 352.359375 55.394531 352.160156 55.234375 C 351.972656 55.082031 351.671875 54.996094 351.457031 54.863281 C 350.898438 54.507812 350.316406 54.097656 349.90625 53.535156 C 349.4375 52.898438 349.257812 52.039062 349.003906 51.28125 C 348.476562 49.703125 348.050781 48.082031 347.507812 46.507812 C 346.679688 44.101562 345.550781 41.660156 343.898438 39.820312 C 343.734375 39.636719 343.5625 39.460938 343.382812 39.292969 Z M 336.171875 57.355469 C 336.304688 57.457031 336.4375 57.558594 336.570312 57.660156 C 337.078125 58.046875 337.582031 58.429688 338.082031 58.820312 C 339.4375 59.882812 340.839844 60.914062 342.152344 62.050781 C 342.066406 62.121094 341.988281 62.191406 341.914062 62.253906 C 341.324219 62.746094 340.761719 63.273438 340.199219 63.800781 C 339.664062 64.300781 339.132812 64.804688 338.597656 65.308594 C 337.917969 65.957031 337.242188 66.621094 336.574219 67.296875 C 336.46875 67.40625 336.355469 67.546875 336.226562 67.6875 C 336.167969 67.746094 336.117188 67.824219 336.0625 67.871094 C 335.984375 67.820312 335.859375 67.734375 335.789062 67.691406 C 335.359375 67.414062 334.917969 67.140625 334.492188 66.851562 C 333.003906 65.847656 330.558594 64.027344 328.898438 62.640625 L 329.03125 62.542969 C 329.597656 62.113281 330.171875 61.6875 330.75 61.273438 C 332.3125 60.160156 334.527344 58.578125 336.171875 57.355469 Z M 336.171875 57.355469 " fill-opacity="1" fill-rule="evenodd"/><g clip-path="url(#44178d9bf8)"><path fill="#000000" d="M 374.933594 63.191406 L 363.050781 60.410156 L 355.898438 62.398438 L 362.097656 65.769531 Z M 374.933594 63.191406 " fill-opacity="1" fill-rule="evenodd"/></g><path fill="#000000" d="M 72.59375 12.457031 C 72.566406 12.582031 72.359375 12.46875 72.25 12.488281 C 71.945312 12.546875 71.652344 12.613281 71.355469 12.683594 C 70.078125 12.984375 68.8125 13.378906 67.5625 13.789062 C 62.539062 15.445312 57.773438 17.875 53.441406 21.175781 C 42.539062 29.46875 35.375 43.515625 33.261719 57.941406 C 33.3125 57.960938 33.390625 58.167969 33.421875 58.214844 C 33.582031 58.46875 33.753906 58.71875 33.917969 58.972656 C 34.425781 59.765625 34.992188 60.523438 35.640625 61.175781 C 36.324219 61.863281 37.402344 62.78125 38.367188 62.816406 C 39.128906 62.847656 39.910156 62.265625 40.546875 61.875 C 41.910156 61.046875 43.246094 60.152344 44.511719 59.144531 C 44.476562 59.25 44.625 58.761719 44.644531 58.683594 C 44.734375 58.265625 44.832031 57.851562 44.9375 57.4375 C 45.257812 56.15625 45.585938 54.875 45.914062 53.597656 C 46.910156 49.691406 48.433594 45.828125 50.023438 42.183594 C 54.667969 31.523438 64.160156 19.6875 72.59375 12.457031 Z M 72.59375 12.457031 " fill-opacity="1" fill-rule="evenodd"/><path fill="#000000" d="M 72.59375 125.570312 C 72.566406 125.445312 72.359375 125.558594 72.25 125.539062 C 71.945312 125.480469 71.652344 125.414062 71.355469 125.34375 C 70.078125 125.042969 68.8125 124.652344 67.5625 124.238281 C 62.539062 122.582031 57.773438 120.152344 53.441406 116.851562 C 42.539062 108.558594 35.375 94.511719 33.261719 80.085938 C 33.3125 80.066406 33.390625 79.859375 33.421875 79.816406 C 33.582031 79.558594 33.753906 79.3125 33.917969 79.054688 C 34.425781 78.261719 34.992188 77.503906 35.640625 76.851562 C 36.324219 76.167969 37.402344 75.246094 38.367188 75.210938 C 39.128906 75.179688 39.910156 75.761719 40.546875 76.152344 C 41.910156 76.980469 43.246094 77.875 44.511719 78.882812 C 44.476562 78.777344 44.625 79.265625 44.644531 79.34375 C 44.734375 79.761719 44.832031 80.175781 44.9375 80.589844 C 45.257812 81.871094 45.585938 83.152344 45.914062 84.429688 C 46.910156 88.335938 48.433594 92.199219 50.023438 95.84375 C 54.667969 106.503906 64.160156 118.339844 72.59375 125.570312 Z M 72.59375 125.570312 " fill-opacity="1" fill-rule="evenodd"/><path fill="#000000" d="M 33.867188 45.785156 C 33.929688 45.765625 34.453125 45.570312 34.644531 45.449219 C 34.871094 45.304688 34.988281 45.117188 35.046875 44.976562 C 35.121094 44.792969 35.132812 44.609375 35.085938 44.425781 C 35.046875 44.273438 34.960938 44.058594 34.714844 43.910156 C 34.660156 43.875 34.550781 43.824219 34.402344 43.792969 C 34.195312 43.75 33.792969 43.71875 33.765625 43.71875 C 33 43.683594 32.238281 43.746094 31.484375 43.867188 C 28.863281 44.277344 26.265625 45.355469 24.101562 47.054688 C 21.992188 48.703125 20.261719 50.925781 19.414062 53.664062 C 19.195312 54.375 19.019531 55.113281 18.949219 55.863281 C 18.929688 56.023438 18.933594 56.21875 18.933594 56.417969 C 18.929688 56.480469 18.925781 56.566406 18.917969 56.636719 C 18.847656 56.65625 18.738281 56.6875 18.667969 56.699219 C 18.5 56.734375 18.34375 56.761719 18.222656 56.800781 C 17.421875 57.054688 16.667969 57.488281 15.996094 58.046875 C 13.773438 59.886719 12.4375 62.921875 11.976562 65.921875 C 11.890625 66.125 11.886719 66.351562 11.996094 66.605469 C 12.015625 66.648438 12.085938 66.894531 12.4375 67.023438 C 12.492188 67.046875 12.550781 67.058594 12.613281 67.066406 L 12.683594 67.082031 C 12.835938 67.136719 12.988281 67.1875 13.136719 67.238281 C 13.644531 67.410156 14.148438 67.570312 14.660156 67.730469 C 15.535156 68.011719 16.414062 68.289062 17.296875 68.550781 L 17.023438 68.667969 C 15.464844 69.328125 13.96875 70.105469 12.453125 70.886719 C 12.109375 71.070312 11.945312 71.523438 12.082031 71.925781 C 13.339844 75.546875 15.3125 79.074219 18.492188 80.984375 C 18.757812 81.144531 19.257812 81.472656 19.46875 81.664062 C 20.453125 82.5625 21.019531 83.757812 21.5 85.050781 C 21.964844 86.304688 22.402344 87.585938 23.101562 88.703125 C 24.65625 91.179688 27.304688 92.863281 29.957031 93.332031 C 30.800781 93.476562 31.660156 93.507812 32.511719 93.445312 C 32.660156 93.433594 32.867188 93.441406 33.058594 93.417969 C 33.292969 93.386719 33.507812 93.308594 33.671875 93.191406 C 34.011719 92.953125 34.082031 92.636719 34.046875 92.324219 C 34.03125 92.175781 33.980469 92.007812 33.871094 91.847656 C 33.746094 91.667969 33.472656 91.460938 33.40625 91.417969 C 32.960938 91.105469 32.5 90.832031 32.046875 90.539062 C 31.011719 89.859375 30.007812 89.113281 29.238281 88.074219 C 28.265625 86.765625 27.792969 85.222656 27.753906 83.53125 C 27.738281 82.652344 27.824219 81.707031 27.816406 80.785156 C 27.804688 79.710938 27.648438 78.667969 27.144531 77.742188 C 26.265625 76.136719 24.582031 75.253906 23.0625 74.636719 C 22.972656 74.601562 22.777344 74.542969 22.574219 74.460938 C 22.777344 74.25 23.039062 74.082031 23.246094 73.921875 C 24.042969 73.304688 24.890625 72.757812 25.746094 72.242188 C 26.492188 71.792969 27.25 71.359375 28.023438 70.972656 C 29.023438 70.476562 30.058594 70.074219 31.085938 69.671875 C 31.207031 69.625 31.589844 69.414062 31.753906 69.324219 C 31.785156 69.347656 31.816406 69.375 31.851562 69.402344 C 31.996094 69.519531 32.136719 69.652344 32.253906 69.753906 C 32.824219 70.230469 33.371094 70.738281 33.910156 71.25 C 34.445312 71.75 34.972656 72.25 35.503906 72.75 C 36.175781 73.386719 36.835938 74.035156 37.488281 74.699219 C 37.648438 74.863281 37.839844 75.105469 38.046875 75.292969 C 38.273438 75.5 38.523438 75.648438 38.777344 75.703125 C 39.019531 75.757812 39.265625 75.722656 39.5 75.613281 C 39.671875 75.53125 39.835938 75.398438 39.984375 75.308594 C 40.425781 75.023438 40.875 74.742188 41.316406 74.445312 C 43.085938 73.253906 46.175781 70.929688 47.796875 69.488281 C 48 69.304688 48.09375 69.0625 48.070312 68.761719 C 48.0625 68.640625 48.023438 68.460938 47.894531 68.285156 C 47.816406 68.183594 47.648438 68.03125 47.640625 68.023438 C 47.382812 67.796875 47.113281 67.589844 46.839844 67.382812 C 46.257812 66.945312 45.679688 66.511719 45.085938 66.09375 C 43.425781 64.914062 41.039062 63.203125 39.378906 61.960938 C 39.296875 61.867188 39.15625 61.773438 38.929688 61.757812 C 38.757812 61.742188 38.589844 61.800781 38.453125 61.914062 C 38.433594 61.921875 38.417969 61.933594 38.40625 61.941406 C 38.339844 61.988281 38.273438 62.035156 38.207031 62.085938 C 38.015625 62.222656 37.835938 62.367188 37.648438 62.507812 C 37.140625 62.898438 36.632812 63.285156 36.125 63.679688 C 34.707031 64.792969 33.230469 65.878906 31.859375 67.078125 C 31.097656 66.453125 30.214844 65.945312 29.429688 65.394531 C 27.886719 64.308594 26.34375 63.230469 24.796875 62.15625 C 25.34375 61.773438 25.867188 61.320312 26.273438 60.769531 C 26.84375 59.996094 27.105469 58.96875 27.417969 58.050781 C 27.941406 56.472656 28.367188 54.859375 28.902344 53.289062 C 29.664062 51.09375 30.675781 48.851562 32.183594 47.175781 C 32.679688 46.621094 33.242188 46.144531 33.867188 45.785156 Z M 31.664062 45.488281 C 29.28125 45.867188 26.914062 46.847656 24.941406 48.394531 C 23.085938 49.84375 21.542969 51.785156 20.796875 54.195312 C 20.613281 54.792969 20.460938 55.40625 20.402344 56.035156 C 20.382812 56.238281 20.402344 56.503906 20.386719 56.75 C 20.363281 57.050781 20.296875 57.332031 20.171875 57.554688 C 20.042969 57.800781 19.835938 57.992188 19.566406 58.121094 C 19.265625 58.261719 18.859375 58.296875 18.625 58.371094 C 17.988281 58.574219 17.398438 58.921875 16.867188 59.359375 C 15.078125 60.839844 13.976562 63.238281 13.511719 65.65625 L 13.5625 65.675781 C 14.0625 65.84375 14.5625 66 15.058594 66.160156 C 16.21875 66.53125 17.375 66.890625 18.542969 67.226562 C 18.710938 67.273438 19.195312 67.332031 19.53125 67.445312 C 19.859375 67.558594 20.089844 67.757812 20.199219 67.929688 C 20.320312 68.117188 20.363281 68.328125 20.324219 68.566406 C 20.300781 68.6875 20.25 68.886719 20.054688 69.0625 C 19.929688 69.171875 19.164062 69.511719 19.113281 69.535156 C 18.589844 69.75 18.066406 69.972656 17.539062 70.195312 C 16.234375 70.75 14.972656 71.390625 13.703125 72.042969 C 14.84375 75.0625 16.523438 77.945312 19.1875 79.546875 C 19.515625 79.742188 20.132812 80.160156 20.394531 80.398438 C 21.570312 81.472656 22.277344 82.878906 22.855469 84.425781 C 23.277344 85.570312 23.65625 86.746094 24.300781 87.765625 C 25.632812 89.886719 27.914062 91.316406 30.183594 91.714844 C 30.492188 91.769531 30.808594 91.804688 31.117188 91.824219 C 30.003906 91.082031 28.949219 90.242188 28.109375 89.117188 C 26.925781 87.523438 26.339844 85.640625 26.292969 83.570312 C 26.273438 82.6875 26.363281 81.738281 26.351562 80.808594 C 26.34375 80.03125 26.261719 79.265625 25.894531 78.59375 C 25.1875 77.300781 23.78125 76.667969 22.566406 76.171875 C 22.332031 76.078125 21.585938 75.832031 21.25 75.488281 C 20.886719 75.101562 20.773438 74.636719 21.003906 74.105469 C 21.285156 73.46875 21.910156 72.96875 22.414062 72.578125 C 23.257812 71.925781 24.148438 71.351562 25.050781 70.804688 C 25.828125 70.335938 26.617188 69.882812 27.429688 69.480469 C 28.464844 68.964844 29.535156 68.546875 30.605469 68.128906 C 30.617188 68.125 30.625 68.117188 30.640625 68.113281 C 29.996094 67.632812 29.285156 67.222656 28.652344 66.777344 C 26.75 65.4375 24.84375 64.113281 22.929688 62.789062 C 22.726562 62.644531 22.597656 62.394531 22.585938 62.121094 C 22.578125 61.851562 22.691406 61.589844 22.890625 61.429688 C 23.074219 61.277344 23.378906 61.191406 23.589844 61.058594 C 24.148438 60.707031 24.730469 60.292969 25.144531 59.730469 C 25.609375 59.09375 25.792969 58.234375 26.046875 57.476562 C 26.574219 55.898438 27 54.277344 27.542969 52.703125 C 28.371094 50.296875 29.5 47.855469 31.148438 46.015625 C 31.3125 45.832031 31.488281 45.65625 31.664062 45.488281 Z M 38.878906 63.550781 C 38.746094 63.652344 38.613281 63.753906 38.476562 63.855469 C 37.972656 64.242188 37.464844 64.625 36.96875 65.015625 C 35.609375 66.078125 34.207031 67.109375 32.898438 68.246094 C 32.984375 68.316406 33.0625 68.386719 33.132812 68.449219 C 33.722656 68.941406 34.289062 69.46875 34.851562 69.996094 C 35.382812 70.496094 35.917969 71 36.449219 71.503906 C 37.132812 72.152344 37.808594 72.816406 38.472656 73.492188 C 38.582031 73.601562 38.695312 73.742188 38.824219 73.882812 C 38.882812 73.941406 38.929688 74.019531 38.988281 74.066406 C 39.0625 74.015625 39.1875 73.929688 39.257812 73.886719 C 39.691406 73.609375 40.128906 73.335938 40.554688 73.046875 C 42.046875 72.042969 44.492188 70.222656 46.152344 68.835938 L 46.019531 68.738281 C 45.453125 68.308594 44.878906 67.882812 44.296875 67.46875 C 42.734375 66.359375 40.519531 64.773438 38.878906 63.550781 Z M 38.878906 63.550781 " fill-opacity="1" fill-rule="evenodd"/><g clip-path="url(#0ecd188f0d)"><path fill="#000000" d="M 0.113281 69.386719 L 11.996094 66.605469 L 19.152344 68.59375 L 12.949219 71.964844 Z M 0.113281 69.386719 " fill-opacity="1" fill-rule="evenodd"/></g><path fill="#000000" d="M 180.675781 115.316406 C 180.101562 115.195312 180.351562 114.316406 180.511719 113.929688 C 180.988281 112.777344 181.675781 111.585938 182.679688 110.976562 C 183.355469 110.5625 184.144531 110.441406 184.898438 110.359375 C 186.214844 110.21875 187.558594 110.257812 188.867188 110.464844 C 189.554688 110.570312 190.660156 110.695312 190.972656 111.5625 C 191.21875 112.238281 191.089844 112.917969 190.878906 113.570312 C 190.757812 113.949219 190.640625 114.335938 190.464844 114.6875 C 190.097656 115.441406 189.582031 116.105469 189.085938 116.746094 C 188.46875 117.539062 187.726562 118.175781 186.964844 118.785156 C 185.53125 119.921875 183.90625 120.953125 182.867188 122.609375 C 182.839844 122.609375 182.777344 122.75 182.765625 122.777344 C 182.664062 122.980469 182.570312 123.195312 182.507812 123.421875 C 182.238281 124.332031 182.539062 125.011719 183.199219 125.535156 C 185.042969 127.003906 187.410156 126.890625 189.539062 126.511719 C 189.613281 126.5 189.820312 126.457031 189.890625 126.441406 C 190.25 126.363281 190.605469 126.28125 190.964844 126.199219 C 192.460938 125.835938 193.964844 125.398438 195.378906 124.707031 C 195.832031 124.488281 196.269531 124.21875 196.730469 124.019531 C 196.871094 123.957031 197.121094 123.828125 197.273438 123.910156 C 197.574219 124.066406 197.207031 124.671875 197.109375 124.832031 C 196.609375 125.640625 195.839844 126.3125 195.164062 126.914062 C 192.867188 128.964844 189.875 129.9375 186.992188 129.894531 C 186.925781 129.972656 186.597656 129.902344 186.515625 129.902344 C 186.023438 129.878906 185.53125 129.851562 185.035156 129.816406 C 183.320312 129.695312 181.261719 128.742188 180.839844 126.585938 C 180.714844 125.941406 180.792969 125.277344 180.886719 124.632812 C 180.917969 124.441406 180.960938 124.15625 180.996094 123.976562 C 181.117188 123.398438 181.3125 122.449219 181.527344 121.910156 C 182.488281 119.5 184.269531 118.113281 186.105469 116.609375 C 186.742188 116.089844 187.378906 115.574219 188.003906 115.035156 C 188.152344 114.90625 188.296875 114.777344 188.445312 114.648438 C 188.484375 114.613281 188.585938 114.554688 188.597656 114.488281 C 188.613281 114.417969 188.433594 114.390625 188.402344 114.382812 C 188.132812 114.304688 187.859375 114.242188 187.585938 114.183594 C 186.453125 113.941406 185.324219 113.859375 184.171875 113.980469 C 183.136719 114.089844 182.007812 114.121094 180.675781 115.316406 Z M 180.675781 115.316406 " fill-opacity="1" fill-rule="evenodd"/><path fill="#000000" d="M 86.164062 41.554688 C 85.496094 41.1875 85.511719 40.429688 85.707031 39.765625 C 86.101562 38.40625 87.167969 37.160156 88.378906 36.324219 C 90.902344 34.585938 93.46875 37.460938 95.082031 39.015625 C 95.53125 39.449219 95.96875 39.894531 96.390625 40.351562 C 96.558594 40.535156 96.820312 40.753906 96.863281 41 C 96.9375 41.410156 96.726562 41.878906 96.589844 42.257812 C 96.492188 42.515625 96.390625 42.765625 96.277344 43.015625 C 96.148438 43.304688 95.9375 43.808594 95.609375 43.972656 C 95.410156 44.074219 95.042969 43.964844 94.835938 43.957031 C 94.21875 43.933594 93.605469 43.925781 92.988281 43.945312 C 92.46875 43.964844 91.949219 44.003906 91.429688 44.0625 C 88.996094 44.34375 85.027344 45.214844 85.121094 48.097656 C 85.082031 48.101562 85.128906 48.339844 85.132812 48.363281 C 85.175781 48.691406 85.234375 49.015625 85.296875 49.34375 C 85.570312 50.746094 85.964844 52.128906 86.363281 53.507812 C 87.777344 58.40625 89.242188 63.449219 89.078125 68.5625 C 89.039062 69.804688 88.859375 71.0625 88.402344 72.238281 C 88.289062 72.53125 88.074219 73.242188 87.652344 73.289062 C 87.390625 73.320312 87.492188 72.800781 87.511719 72.691406 C 87.625 71.941406 87.828125 71.214844 87.890625 70.460938 C 88.035156 68.671875 87.851562 66.8125 87.503906 65.046875 C 86.957031 62.265625 86.230469 59.472656 85.421875 56.746094 C 84.910156 55.023438 84.460938 53.304688 84.085938 51.546875 C 83.894531 50.664062 83.65625 49.78125 83.574219 48.878906 C 83.398438 46.941406 83.867188 44.554688 85.300781 43.171875 C 86.019531 42.484375 86.960938 41.976562 87.914062 41.613281 C 88.800781 41.277344 89.777344 41.152344 90.722656 41.011719 C 90.941406 40.976562 91.160156 40.949219 91.378906 40.929688 C 91.40625 40.925781 91.585938 40.933594 91.597656 40.902344 C 91.640625 40.753906 91.214844 40.394531 91.128906 40.304688 C 90.5625 39.707031 89.71875 39.25 88.828125 39.339844 C 88.007812 39.421875 87.203125 39.941406 86.78125 40.582031 C 86.589844 40.875 86.371094 41.273438 86.164062 41.554688 Z M 86.164062 41.554688 " fill-opacity="1" fill-rule="evenodd"/><path fill="#000000" d="M 140.140625 42.671875 C 139.632812 43.046875 139.285156 43.640625 138.960938 44.199219 C 138.394531 45.167969 137.910156 46.1875 137.429688 47.210938 C 136.800781 48.550781 136.207031 49.917969 135.71875 51.320312 C 135.449219 52.101562 135.160156 52.921875 135.101562 53.753906 C 135.019531 54.972656 135.414062 56.386719 136.289062 57.234375 C 137.367188 58.269531 139.269531 58.511719 140.605469 57.945312 C 143.113281 56.882812 144.449219 53.542969 143.75 50.878906 C 143.359375 49.382812 142.257812 48.226562 141.125 47.289062 C 140.707031 46.945312 140.285156 46.617188 139.847656 46.308594 C 139.722656 46.222656 139.414062 46.066406 139.359375 45.902344 C 139.28125 45.660156 139.574219 45.238281 139.671875 45.039062 C 139.960938 44.464844 140.765625 42.917969 140.140625 42.671875 Z M 137.917969 49.125 C 137.875 49.113281 137.625 49.539062 137.613281 49.5625 C 137.445312 49.902344 137.285156 50.242188 137.167969 50.601562 C 136.789062 51.734375 136.523438 53.285156 137.726562 54.003906 C 138.761719 54.625 140.074219 54.421875 141.140625 54.003906 C 141.453125 53.878906 142.222656 53.605469 142.125 53.128906 C 142.027344 52.644531 141.601562 52.203125 141.292969 51.847656 C 140.410156 50.828125 139.035156 49.851562 137.917969 49.125 Z M 137.917969 49.125 " fill-opacity="1" fill-rule="evenodd"/><path fill="#000000" d="M 198.464844 25.054688 C 198.464844 25.054688 198.425781 24.984375 198.421875 24.980469 C 198.394531 24.929688 198.363281 24.875 198.332031 24.820312 C 198.242188 24.664062 198.144531 24.511719 198.054688 24.355469 C 197.800781 23.917969 197.3125 23.300781 197.402344 22.785156 C 197.519531 22.109375 197.917969 21.40625 198.207031 20.777344 C 198.726562 19.648438 199.269531 18.519531 199.734375 17.367188 C 199.71875 17.414062 200.257812 18.144531 200.300781 18.222656 C 200.816406 19.164062 201.265625 20.132812 201.734375 21.09375 C 202.65625 23.007812 203.4375 24.972656 204.269531 26.921875 C 204.921875 28.460938 205.667969 29.976562 206.210938 31.550781 C 206.492188 32.359375 206.675781 33.1875 206.660156 34.039062 C 206.660156 34.207031 206.699219 34.722656 206.4375 34.78125 C 206.085938 34.863281 205.617188 34.136719 205.445312 33.953125 C 204.617188 33.058594 203.859375 32.121094 202.984375 31.261719 C 202.921875 31.46875 203.136719 31.914062 203.171875 32.117188 C 203.304688 32.832031 203.394531 33.550781 203.5 34.265625 C 203.859375 36.734375 204.148438 39.207031 204.433594 41.683594 C 205.152344 47.949219 206.019531 54.21875 206.996094 60.457031 C 207.46875 63.46875 208.132812 66.457031 208.523438 69.480469 C 208.457031 69.507812 208.527344 69.835938 208.53125 69.867188 C 208.566406 70.335938 208.601562 70.804688 208.636719 71.269531 C 208.777344 73.125 208.992188 74.972656 209.148438 76.828125 C 209.632812 82.613281 210.902344 88.839844 208.714844 94.488281 C 208.265625 95.652344 207.710938 96.789062 207.15625 97.914062 C 206.992188 98.253906 206.8125 98.898438 206.425781 99.105469 C 206.101562 99.28125 206.078125 98.082031 206.074219 97.988281 C 205.996094 96.675781 205.949219 95.359375 205.890625 94.042969 C 205.746094 90.855469 205.542969 87.667969 205.367188 84.480469 C 205.171875 80.957031 204.859375 77.453125 204.476562 73.941406 C 204.574219 74.089844 204.421875 73.601562 204.398438 73.429688 C 204.339844 73.058594 204.292969 72.6875 204.242188 72.3125 C 204.078125 71.121094 203.90625 69.925781 203.742188 68.730469 C 203.28125 65.363281 202.816406 61.996094 202.355469 58.628906 C 200.921875 48.261719 199.097656 35.414062 198.464844 25.054688 Z M 198.464844 25.054688 " fill-opacity="1" fill-rule="evenodd"/><path fill="#000000" d="M 159.929688 33.167969 C 159.820312 33.007812 160.109375 32.511719 160.171875 32.367188 C 160.476562 31.625 160.84375 30.898438 161.320312 30.21875 C 161.375 30.140625 161.914062 29.324219 162.085938 29.507812 C 162.324219 29.75 162.257812 30.355469 162.296875 30.644531 C 162.414062 31.46875 162.601562 32.265625 162.84375 33.070312 C 163.296875 34.574219 164.175781 35.941406 164.648438 37.425781 C 165.15625 39.015625 165.085938 40.925781 164.402344 42.46875 C 163.742188 43.953125 162.414062 45.449219 160.261719 45.191406 C 158.617188 44.996094 157.195312 43.820312 156.417969 42.660156 C 156.148438 42.25 155.945312 41.804688 155.789062 41.355469 C 155.773438 41.3125 155.710938 40.953125 155.65625 40.941406 C 155.640625 40.9375 155.605469 41.292969 155.605469 41.308594 C 155.582031 41.589844 155.5625 41.871094 155.527344 42.152344 C 155.421875 42.921875 155.261719 43.714844 154.757812 44.378906 C 153.605469 45.910156 151.078125 46.386719 149.292969 45.34375 C 148.273438 44.746094 147.871094 43.765625 147.742188 42.773438 C 147.515625 41.019531 148.050781 39.277344 147.996094 37.527344 C 147.984375 37.019531 147.941406 36.480469 147.734375 35.996094 C 147.558594 35.574219 147.207031 35.308594 147.25 34.835938 C 147.324219 34.003906 147.796875 33.199219 148.253906 32.472656 C 148.371094 32.289062 148.589844 31.84375 148.894531 31.828125 C 149.199219 31.816406 149.347656 32.289062 149.40625 32.460938 C 149.640625 33.167969 149.746094 33.902344 149.785156 34.632812 C 149.894531 36.605469 149.351562 38.59375 149.601562 40.558594 C 149.726562 41.554688 150.320312 42.503906 151.617188 42.675781 C 153.464844 42.921875 154.480469 41.003906 154.886719 39.835938 C 155.332031 38.5625 155.183594 37.164062 154.691406 35.914062 C 154.1875 34.640625 153.367188 33.742188 153.792969 32.359375 C 153.992188 31.71875 154.265625 31.09375 154.652344 30.511719 C 154.765625 30.339844 154.9375 30.050781 155.175781 29.976562 C 155.496094 29.878906 155.792969 30.476562 155.886719 30.636719 C 156.355469 31.433594 156.601562 32.335938 156.878906 33.1875 C 157.054688 33.726562 157.167969 34.273438 157.246094 34.828125 C 157.566406 37.046875 157.609375 40.882812 161.097656 41.410156 C 162.359375 41.601562 163.046875 40.535156 162.796875 39.652344 C 162.160156 37.445312 160.628906 35.089844 159.929688 33.167969 Z M 159.929688 33.167969 " fill-opacity="1" fill-rule="evenodd"/><g clip-path="url(#9c4d09293f)"><path fill="#000000" d="M 248.058594 12.09375 C 248.121094 12.082031 248.03125 12.210938 248.019531 12.269531 C 247.996094 12.382812 247.972656 12.492188 247.941406 12.601562 C 247.882812 12.804688 247.714844 13.667969 247.351562 13.574219 C 247.171875 13.523438 247.007812 13.332031 246.882812 13.207031 C 246.585938 12.910156 246.300781 12.597656 246 12.296875 C 245.476562 11.777344 244.871094 11.316406 244.234375 10.929688 C 243.894531 10.71875 243.382812 10.546875 243.148438 10.21875 C 242.789062 9.71875 243 8.867188 243.039062 8.3125 C 243.136719 6.816406 243.21875 4.21875 245.328125 4.042969 C 246.820312 3.917969 247.902344 5.050781 248.765625 6.042969 C 250.839844 8.429688 252.308594 11.449219 253.285156 14.375 C 253.660156 15.503906 254.015625 16.640625 254.355469 17.78125 C 254.425781 18.023438 254.484375 18.273438 254.570312 18.507812 C 254.589844 18.558594 254.632812 18.695312 254.71875 18.683594 C 254.90625 18.648438 254.96875 18.109375 254.996094 17.984375 C 255.167969 17.230469 255.398438 16.484375 255.53125 15.722656 C 256.207031 11.773438 256.875 9.269531 257.957031 6.277344 C 258.085938 5.914062 258.25 5.433594 258.410156 5.097656 C 258.851562 4.160156 259.4375 3.242188 260.273438 2.566406 C 260.632812 2.273438 261.078125 2 261.566406 1.96875 C 262.125 1.933594 262.640625 2.179688 263.085938 2.476562 C 264.027344 3.105469 264.769531 4.003906 265.164062 5.023438 C 265.285156 5.332031 265.449219 5.675781 265.425781 6.015625 C 265.375 6.664062 265.113281 7.3125 264.917969 7.933594 C 264.792969 8.324219 264.664062 8.714844 264.535156 9.105469 C 264.390625 9.527344 264.246094 9.949219 264.078125 10.363281 C 264.042969 10.449219 263.976562 10.683594 263.859375 10.707031 C 263.765625 10.71875 263.679688 10.578125 263.640625 10.519531 C 263.460938 10.253906 263.308594 9.972656 263.144531 9.699219 C 262.585938 8.753906 261.40625 6.867188 260.019531 7.742188 C 258.832031 8.488281 258.25 10.203125 257.824219 11.402344 C 256.765625 14.371094 256.195312 17.519531 255.777344 20.621094 C 255.769531 20.574219 255.75 20.714844 255.738281 20.761719 C 255.710938 20.863281 255.679688 20.96875 255.652344 21.070312 C 255.558594 21.402344 255.460938 21.734375 255.355469 22.0625 C 254.988281 23.242188 254.574219 24.398438 253.90625 25.457031 C 253.75 25.710938 253.582031 25.957031 253.375 26.179688 C 253.347656 26.214844 253.195312 26.40625 253.132812 26.359375 C 252.933594 26.21875 253.007812 25.449219 252.992188 25.25 C 252.90625 24.199219 252.78125 23.148438 252.582031 22.113281 C 251.945312 18.84375 250.007812 14.871094 248.058594 12.09375 Z M 248.058594 12.09375 " fill-opacity="1" fill-rule="evenodd"/></g><path fill="#000000" d="M 98.242188 66.066406 C 98.304688 66.058594 98.21875 66.160156 98.203125 66.203125 C 98.179688 66.289062 98.15625 66.375 98.125 66.460938 C 98.066406 66.617188 97.898438 67.28125 97.535156 67.210938 C 97.355469 67.171875 97.191406 67.023438 97.070312 66.929688 C 96.769531 66.699219 96.484375 66.457031 96.183594 66.226562 C 95.660156 65.824219 95.058594 65.46875 94.417969 65.167969 C 94.078125 65.003906 93.566406 64.871094 93.332031 64.621094 C 92.972656 64.230469 93.183594 63.574219 93.222656 63.144531 C 93.320312 61.988281 93.402344 59.984375 95.511719 59.847656 C 97.003906 59.75 98.085938 60.625 98.949219 61.390625 C 101.023438 63.234375 102.492188 65.570312 103.46875 67.828125 C 103.84375 68.703125 104.199219 69.578125 104.539062 70.460938 C 104.609375 70.648438 104.667969 70.839844 104.753906 71.023438 C 104.773438 71.0625 104.816406 71.167969 104.902344 71.15625 C 105.089844 71.132812 105.152344 70.714844 105.179688 70.617188 C 105.355469 70.035156 105.582031 69.457031 105.714844 68.871094 C 106.390625 65.820312 107.058594 63.886719 108.140625 61.574219 C 108.269531 61.292969 108.433594 60.921875 108.59375 60.660156 C 109.039062 59.9375 109.621094 59.226562 110.457031 58.707031 C 110.816406 58.480469 111.261719 58.269531 111.75 58.246094 C 112.308594 58.21875 112.824219 58.40625 113.269531 58.636719 C 114.210938 59.125 114.953125 59.816406 115.347656 60.605469 C 115.46875 60.84375 115.632812 61.109375 115.609375 61.371094 C 115.558594 61.871094 115.296875 62.371094 115.101562 62.851562 C 114.976562 63.152344 114.851562 63.457031 114.71875 63.757812 C 114.574219 64.082031 114.429688 64.410156 114.261719 64.730469 C 114.226562 64.796875 114.164062 64.976562 114.042969 64.996094 C 113.949219 65.003906 113.863281 64.894531 113.824219 64.851562 C 113.644531 64.648438 113.492188 64.425781 113.332031 64.214844 C 112.769531 63.488281 111.589844 62.027344 110.203125 62.703125 C 109.015625 63.28125 108.433594 64.605469 108.007812 65.53125 C 106.949219 67.828125 106.378906 70.261719 105.960938 72.65625 C 105.953125 72.617188 105.933594 72.726562 105.921875 72.761719 C 105.894531 72.84375 105.863281 72.921875 105.835938 73.003906 C 105.742188 73.261719 105.644531 73.515625 105.539062 73.769531 C 105.171875 74.679688 104.757812 75.570312 104.089844 76.390625 C 103.933594 76.585938 103.765625 76.777344 103.5625 76.953125 C 103.53125 76.976562 103.378906 77.125 103.316406 77.089844 C 103.117188 76.980469 103.191406 76.386719 103.175781 76.230469 C 103.09375 75.421875 102.96875 74.605469 102.765625 73.808594 C 102.128906 71.285156 100.191406 68.210938 98.242188 66.066406 Z M 98.242188 66.066406 " fill-opacity="1" fill-rule="evenodd"/><path fill="#000000" d="M 251.460938 51.167969 C 251.523438 51.15625 251.4375 51.285156 251.421875 51.34375 C 251.398438 51.457031 251.375 51.566406 251.34375 51.675781 C 251.285156 51.878906 251.117188 52.742188 250.753906 52.648438 C 250.574219 52.597656 250.410156 52.40625 250.289062 52.285156 C 249.988281 51.984375 249.703125 51.671875 249.402344 51.371094 C 248.878906 50.851562 248.277344 50.390625 247.636719 50.003906 C 247.296875 49.792969 246.785156 49.621094 246.550781 49.296875 C 246.191406 48.792969 246.402344 47.941406 246.441406 47.386719 C 246.539062 45.890625 246.621094 43.292969 248.730469 43.121094 C 250.222656 42.992188 251.304688 44.125 252.167969 45.117188 C 254.242188 47.503906 255.710938 50.523438 256.6875 53.449219 C 257.0625 54.582031 257.417969 55.714844 257.757812 56.855469 C 257.828125 57.097656 257.886719 57.347656 257.972656 57.582031 C 257.992188 57.632812 258.035156 57.773438 258.121094 57.757812 C 258.308594 57.722656 258.371094 57.183594 258.398438 57.058594 C 258.570312 56.304688 258.800781 55.558594 258.933594 54.796875 C 259.609375 50.851562 260.277344 48.347656 261.359375 45.351562 C 261.488281 44.988281 261.652344 44.507812 261.8125 44.171875 C 262.253906 43.234375 262.839844 42.316406 263.675781 41.640625 C 264.035156 41.347656 264.480469 41.074219 264.96875 41.042969 C 265.527344 41.007812 266.042969 41.253906 266.488281 41.550781 C 267.429688 42.179688 268.171875 43.078125 268.566406 44.097656 C 268.6875 44.410156 268.851562 44.75 268.828125 45.089844 C 268.777344 45.738281 268.515625 46.386719 268.320312 47.007812 C 268.195312 47.398438 268.066406 47.789062 267.9375 48.179688 C 267.792969 48.601562 267.648438 49.027344 267.480469 49.4375 C 267.445312 49.523438 267.378906 49.757812 267.261719 49.78125 C 267.167969 49.792969 267.082031 49.652344 267.042969 49.59375 C 266.863281 49.332031 266.710938 49.046875 266.546875 48.773438 C 265.988281 47.828125 264.808594 45.941406 263.421875 46.816406 C 262.234375 47.566406 261.652344 49.277344 261.226562 50.476562 C 260.167969 53.445312 259.597656 56.59375 259.179688 59.695312 C 259.171875 59.648438 259.152344 59.789062 259.140625 59.835938 C 259.113281 59.9375 259.082031 60.042969 259.054688 60.144531 C 258.960938 60.480469 258.863281 60.808594 258.757812 61.140625 C 258.390625 62.316406 257.976562 63.472656 257.308594 64.53125 C 257.152344 64.785156 256.984375 65.03125 256.78125 65.257812 C 256.75 65.289062 256.597656 65.480469 256.535156 65.4375 C 256.335938 65.292969 256.410156 64.523438 256.394531 64.324219 C 256.308594 63.273438 256.1875 62.222656 255.984375 61.1875 C 255.347656 57.921875 253.410156 53.945312 251.460938 51.167969 Z M 251.460938 51.167969 " fill-opacity="1" fill-rule="evenodd"/><path fill="#000000" d="M 240.054688 38.824219 C 240.046875 38.808594 241.269531 38.144531 241.355469 38.097656 C 242.257812 37.597656 243.167969 37.105469 244.074219 36.609375 C 246.914062 35.0625 249.796875 33.605469 252.679688 32.175781 C 257.707031 29.6875 262.90625 27.632812 268.121094 25.769531 C 269.417969 25.308594 270.710938 24.839844 272.011719 24.40625 C 272.214844 24.34375 272.996094 23.980469 273.152344 24.320312 C 273.363281 24.785156 272.492188 26.027344 272.308594 26.398438 C 272.011719 27.003906 271.757812 27.917969 271.328125 28.410156 C 270.828125 28.988281 270.042969 29.203125 269.398438 29.441406 C 268.3125 29.839844 267.222656 30.238281 266.140625 30.660156 C 259.128906 33.371094 252.382812 36.707031 245.625 40.207031 C 243.921875 41.089844 242.214844 42.058594 240.453125 42.769531 C 240.207031 42.867188 239.113281 43.4375 238.878906 43.132812 C 238.570312 42.726562 239.921875 39.226562 240.054688 38.824219 Z M 240.054688 38.824219 " fill-opacity="1" fill-rule="evenodd"/><path fill="#000000" d="M 136.3125 29.132812 C 136.304688 29.117188 137.523438 28.457031 137.609375 28.410156 C 138.515625 27.910156 139.421875 27.414062 140.332031 26.917969 C 143.167969 25.371094 146.050781 23.914062 148.933594 22.488281 C 153.960938 20 159.164062 17.941406 164.375 16.082031 C 165.671875 15.617188 166.964844 15.152344 168.269531 14.71875 C 168.46875 14.652344 169.253906 14.289062 169.410156 14.632812 C 169.621094 15.09375 168.75 16.335938 168.566406 16.707031 C 168.265625 17.316406 168.011719 18.226562 167.585938 18.71875 C 167.085938 19.296875 166.296875 19.511719 165.65625 19.75 C 164.566406 20.148438 163.480469 20.550781 162.398438 20.96875 C 155.382812 23.679688 148.636719 27.015625 141.882812 30.515625 C 140.175781 31.398438 138.46875 32.367188 136.707031 33.078125 C 136.460938 33.175781 135.367188 33.746094 135.132812 33.441406 C 134.824219 33.039062 136.175781 29.535156 136.3125 29.132812 Z M 136.3125 29.132812 " fill-opacity="1" fill-rule="evenodd"/><path fill="#000000" d="M 138.847656 140.21875 C 138.835938 140.203125 140.058594 139.542969 140.144531 139.496094 C 141.050781 138.996094 141.957031 138.5 142.867188 138.003906 C 145.703125 136.457031 148.585938 135 151.46875 133.570312 C 156.496094 131.082031 161.699219 129.027344 166.910156 127.164062 C 168.207031 126.703125 169.5 126.234375 170.804688 125.804688 C 171.003906 125.738281 171.789062 125.375 171.945312 125.714844 C 172.15625 126.179688 171.285156 127.421875 171.101562 127.792969 C 170.800781 128.398438 170.546875 129.3125 170.121094 129.804688 C 169.621094 130.382812 168.832031 130.597656 168.191406 130.835938 C 167.101562 131.234375 166.015625 131.636719 164.933594 132.054688 C 157.917969 134.765625 151.171875 138.101562 144.417969 141.601562 C 142.710938 142.484375 141.003906 143.453125 139.242188 144.164062 C 138.996094 144.261719 137.902344 144.832031 137.667969 144.527344 C 137.359375 144.121094 138.710938 140.621094 138.847656 140.21875 Z M 138.847656 140.21875 " fill-opacity="1" fill-rule="evenodd"/><path fill="#000000" d="M 279.734375 33.546875 C 279.621094 33.246094 279.976562 32.460938 280.058594 32.1875 C 280.453125 30.84375 280.929688 29.535156 281.515625 28.285156 C 282.167969 26.886719 282.921875 25.546875 283.742188 24.273438 C 284.191406 23.582031 284.667969 22.808594 285.3125 22.335938 C 286.410156 21.523438 287.910156 21.644531 289.152344 21.691406 C 291.667969 21.785156 294.183594 22.085938 296.671875 22.519531 C 298.277344 22.800781 299.976562 23.113281 301.53125 23.675781 C 302.003906 23.851562 302.796875 24.105469 302.976562 24.726562 C 303.1875 25.460938 302.824219 26.390625 302.578125 27.050781 C 301.957031 28.707031 301.136719 30.28125 300.316406 31.816406 C 299.023438 34.25 297.492188 36.535156 295.859375 38.679688 C 294.691406 40.210938 293.460938 41.773438 291.875 42.734375 C 289.945312 43.902344 287.683594 44.207031 285.5625 44.628906 C 283.984375 44.941406 282.402344 45.265625 280.816406 45.542969 C 280.4375 45.609375 279.574219 45.910156 279.214844 45.617188 C 278.957031 45.410156 279.910156 44.734375 279.996094 44.671875 C 281.183594 43.769531 282.433594 42.972656 283.660156 42.148438 C 286.613281 40.160156 289.609375 38.25 292.59375 36.324219 C 293.257812 35.898438 293.9375 35.496094 294.566406 35.007812 C 294.691406 34.910156 295.167969 34.613281 295.082031 34.371094 C 294.972656 34.070312 294.347656 33.976562 294.121094 33.902344 C 292.9375 33.523438 291.691406 33.359375 290.46875 33.226562 C 289.4375 33.113281 288.402344 33.039062 287.371094 32.996094 C 285.375 32.910156 281.71875 33.277344 279.734375 33.546875 Z M 279.734375 33.546875 " fill-opacity="1" fill-rule="evenodd"/><path fill="#000000" d="M 98.769531 43.03125 C 98.652344 42.847656 99.007812 42.371094 99.089844 42.203125 C 99.488281 41.382812 99.964844 40.585938 100.550781 39.824219 C 101.203125 38.972656 101.953125 38.15625 102.777344 37.378906 C 103.226562 36.957031 103.703125 36.488281 104.34375 36.199219 C 105.445312 35.703125 106.941406 35.777344 108.183594 35.804688 C 110.699219 35.863281 113.214844 36.046875 115.707031 36.3125 C 117.308594 36.484375 119.011719 36.675781 120.5625 37.015625 C 121.039062 37.121094 121.828125 37.277344 122.007812 37.65625 C 122.222656 38.105469 121.855469 38.671875 121.609375 39.074219 C 120.992188 40.082031 120.167969 41.039062 119.351562 41.976562 C 118.058594 43.460938 116.527344 44.851562 114.890625 46.15625 C 113.722656 47.089844 112.496094 48.042969 110.90625 48.628906 C 108.976562 49.34375 106.714844 49.527344 104.597656 49.785156 C 103.015625 49.972656 101.4375 50.171875 99.851562 50.339844 C 99.472656 50.382812 98.605469 50.5625 98.25 50.386719 C 97.988281 50.261719 98.945312 49.847656 99.027344 49.808594 C 100.214844 49.261719 101.46875 48.773438 102.695312 48.273438 C 105.648438 47.0625 108.644531 45.894531 111.628906 44.722656 C 112.289062 44.464844 112.972656 44.21875 113.601562 43.921875 C 113.726562 43.863281 114.203125 43.683594 114.117188 43.53125 C 114.007812 43.347656 113.382812 43.292969 113.15625 43.246094 C 111.96875 43.015625 110.722656 42.914062 109.503906 42.835938 C 108.46875 42.769531 107.4375 42.722656 106.402344 42.695312 C 104.410156 42.644531 100.75 42.867188 98.769531 43.03125 Z M 98.769531 43.03125 " fill-opacity="1" fill-rule="evenodd"/><path fill="#000000" d="M 179.015625 24.453125 C 178.914062 24.394531 180.304688 22.523438 180.414062 22.382812 C 180.648438 22.074219 182.539062 19.320312 182.929688 19.660156 C 183.90625 20.492188 184.347656 23.203125 184.800781 24.34375 C 186.160156 27.800781 188.390625 31.148438 189.355469 34.742188 C 189.8125 36.476562 186.199219 33.070312 186.253906 35.195312 C 186.519531 46.441406 190.558594 57.363281 190.671875 68.652344 C 190.726562 73.652344 190.433594 79.882812 186.632812 83.632812 C 185.5 84.742188 184.238281 85.644531 182.808594 86.324219 C 181.289062 87.039062 179.609375 87.648438 177.917969 87.6875 C 172.691406 87.808594 170.816406 81.730469 170.601562 77.53125 C 170.496094 77.46875 169.074219 79.179688 168.953125 79.308594 C 167.210938 81.1875 165.464844 83.09375 163.519531 84.765625 C 161.921875 86.148438 160.230469 87.433594 158.46875 88.601562 C 158.269531 88.730469 156.585938 89.554688 157.082031 89.9375 C 157.609375 90.34375 158.628906 90.261719 159.242188 90.316406 C 160.988281 90.484375 162.742188 90.574219 164.488281 90.707031 C 170.796875 91.210938 177.09375 91.992188 183.414062 92.34375 C 185.527344 92.460938 187.644531 92.539062 189.757812 92.664062 C 190.234375 92.691406 191.46875 92.511719 191.679688 93.109375 C 192.199219 94.5625 191.332031 97.097656 191.09375 98.574219 C 191.039062 98.964844 191.046875 99.890625 190.691406 100.167969 C 190.117188 100.601562 187.609375 99.960938 186.90625 99.976562 C 184.226562 100.027344 181.582031 100.675781 179.046875 101.492188 C 176.089844 102.4375 173.183594 103.582031 170.375 104.898438 C 163.457031 108.136719 154.371094 115.195312 146.425781 110.890625 C 146.382812 110.867188 146.296875 112.191406 146.28125 112.390625 C 146.207031 113.351562 146.132812 114.316406 146.097656 115.273438 C 145.953125 119.023438 145.773438 120.960938 142.972656 123.5625 C 141.40625 125.015625 139.773438 126.425781 138.128906 127.785156 C 131.214844 133.515625 119.738281 142.980469 110.378906 136.71875 C 103.585938 132.183594 104.121094 122.777344 106.148438 115.835938 C 106.703125 113.9375 107.4375 112.039062 108.410156 110.308594 C 108.570312 110.027344 109.097656 108.84375 109.511719 108.839844 C 109.820312 108.828125 109.476562 110.46875 109.457031 110.601562 C 109.167969 112.53125 108.910156 114.460938 108.761719 116.410156 C 108.386719 121.332031 108.296875 128.507812 114.050781 130.449219 C 117.058594 131.460938 120.175781 130.882812 123.140625 130.003906 C 128.460938 128.414062 133.773438 125.828125 138.136719 122.359375 C 140.042969 120.84375 143.515625 118.96875 143.714844 116.289062 C 143.921875 113.503906 143.382812 110.421875 142.214844 107.890625 C 140.78125 104.796875 137.683594 102.96875 141.386719 100.296875 C 141.960938 99.878906 142.941406 101.1875 143.308594 101.546875 C 145.101562 103.28125 146.789062 104.84375 149.394531 105.132812 C 154.695312 105.71875 160.136719 102.1875 164.742188 100.09375 C 166 99.519531 167.269531 98.96875 168.53125 98.390625 C 168.699219 98.3125 169.71875 97.980469 169.679688 97.695312 C 169.632812 97.359375 168.140625 97.382812 167.933594 97.371094 C 166.21875 97.234375 164.511719 97.078125 162.796875 96.941406 C 157.8125 96.546875 152.78125 96.113281 147.773438 96.144531 C 147.292969 96.144531 143.613281 96.570312 143.394531 96.019531 C 143.210938 95.558594 143.695312 94.691406 143.839844 94.25 C 144.382812 92.589844 145.007812 90.789062 145.800781 89.230469 C 146.417969 88.027344 149.484375 87.964844 150.632812 87.636719 C 154.253906 86.605469 157.664062 84.859375 160.621094 82.527344 C 163.832031 79.992188 166.6875 76.980469 169.289062 73.832031 C 169.730469 73.292969 171.167969 70.882812 172.023438 70.960938 C 172.59375 71.007812 172.902344 72.261719 173.039062 72.664062 C 173.65625 74.472656 174.035156 76.351562 175.015625 78.011719 C 178.773438 84.375 185.007812 79.277344 187.816406 75.0625 C 187.511719 74.210938 187.777344 72.792969 187.722656 71.894531 C 187.566406 69.3125 187.34375 66.722656 186.996094 64.164062 C 185.941406 56.367188 184.296875 48.667969 183.472656 40.835938 C 182.925781 35.609375 182.082031 28.898438 179.015625 24.453125 Z M 179.015625 24.453125 " fill-opacity="1" fill-rule="evenodd"/><path fill="#000000" d="M 126.96875 58.300781 C 126.9375 58.3125 127.144531 58.265625 127.242188 58.269531 C 127.472656 58.289062 127.703125 58.296875 127.933594 58.296875 C 128.332031 58.308594 130.632812 58.570312 130.519531 58.035156 C 130.355469 57.238281 129.511719 56.496094 129.003906 55.914062 C 127.75 54.492188 126.480469 53.074219 125.105469 51.769531 C 124.710938 51.394531 123.71875 50.125 123.082031 50.277344 C 121.511719 50.644531 121.085938 54.265625 120.996094 55.511719 C 120.835938 57.679688 122.683594 57.746094 123.40625 59.46875 C 123.863281 60.5625 123.832031 61.960938 124.058594 63.121094 C 124.402344 64.882812 125 66.605469 125.726562 68.242188 C 126.195312 69.300781 126.789062 70.320312 127.464844 71.253906 C 127.636719 71.492188 128.398438 72.175781 128.371094 72.488281 C 128.347656 72.753906 127.121094 72.816406 126.953125 72.847656 C 125.171875 73.160156 123.449219 73.703125 121.773438 74.378906 C 117.960938 75.917969 114.628906 78.375 111.492188 80.992188 C 105.921875 85.640625 101.289062 91.683594 95.21875 95.710938 C 92.847656 97.285156 89.75 98.878906 86.828125 98.0625 C 79.949219 96.132812 82.714844 86.910156 84.703125 82.390625 C 85.183594 81.304688 85.691406 80.230469 86.210938 79.160156 C 86.976562 77.59375 88.070312 75.949219 88.390625 74.210938 C 88.414062 74.074219 88.632812 72.617188 88.441406 72.554688 C 88.269531 72.492188 87.46875 74.289062 87.40625 74.417969 C 86.378906 76.503906 85.160156 78.472656 83.996094 80.488281 C 83.382812 81.550781 82.824219 82.636719 82.324219 83.753906 C 79.738281 89.5 77.359375 99.238281 84.503906 102.816406 C 89.492188 105.320312 95.28125 101.664062 99.464844 98.605469 C 106.898438 93.167969 111.722656 86.570312 119.402344 81.425781 C 124.164062 78.234375 131.175781 76.859375 136.308594 80.351562 C 136.324219 80.472656 136.878906 80.824219 136.976562 80.90625 C 137.324219 81.214844 138.742188 82.972656 139.214844 82.441406 C 139.566406 82.039062 139.644531 81.273438 139.738281 80.78125 C 140.027344 79.242188 140.726562 76.296875 139.972656 74.84375 C 139.511719 73.953125 138.421875 73.628906 137.582031 73.226562 C 136.160156 72.542969 134.785156 71.796875 133.472656 70.917969 C 129.605469 68.339844 127.617188 62.832031 126.96875 58.300781 Z M 126.96875 58.300781 " fill-opacity="1" fill-rule="evenodd"/><path fill="#000000" d="M 287.894531 58.085938 C 288.035156 57.753906 288.78125 57.347656 289.035156 57.140625 C 290.132812 56.265625 291.238281 55.398438 292.34375 54.53125 C 296.238281 51.488281 300.230469 48.636719 303.96875 45.363281 C 306.570312 43.089844 309.109375 40.734375 311.496094 38.203125 C 312.085938 37.578125 312.6875 36.953125 313.191406 36.25 C 313.3125 36.078125 313.671875 35.710938 313.65625 35.464844 C 313.644531 35.308594 313.40625 35.164062 313.308594 35.078125 C 312.902344 34.722656 312.484375 34.382812 312.078125 34.027344 C 310.671875 32.796875 309.613281 31.515625 310.222656 29.476562 C 310.378906 28.949219 310.582031 28.429688 310.832031 27.945312 C 311.90625 25.898438 315.042969 22.3125 317.269531 24.828125 C 318.667969 26.40625 317.730469 29.789062 317.171875 31.539062 C 317.039062 31.957031 316.4375 32.832031 316.453125 33.261719 C 316.457031 33.355469 316.789062 33.507812 316.851562 33.554688 C 317.226562 33.820312 317.640625 34.117188 317.914062 34.5 C 318.652344 35.53125 317.691406 37.351562 317.082031 38.195312 C 316.515625 38.976562 315.707031 37.492188 315.246094 37.027344 C 315.148438 36.925781 314.742188 36.421875 314.59375 36.578125 C 313.6875 37.53125 313.015625 38.773438 312.140625 39.769531 C 308.386719 44.042969 304.34375 48.351562 299.667969 51.441406 C 296.957031 53.230469 294.1875 54.929688 291.429688 56.628906 C 290.683594 57.089844 289.929688 57.554688 289.152344 57.957031 C 288.882812 58.09375 288.210938 58.136719 287.894531 58.085938 Z M 315.519531 32.226562 C 315.488281 32.195312 315.585938 31.882812 315.597656 31.839844 C 315.675781 31.4375 315.761719 31.027344 315.78125 30.613281 C 315.835938 29.539062 315.589844 28.253906 314.820312 27.5 C 314.015625 26.714844 313.101562 26.964844 312.449219 27.816406 C 312.304688 28 311.949219 28.449219 312.011719 28.726562 C 312.101562 29.125 312.476562 29.558594 312.726562 29.835938 C 313.46875 30.652344 314.734375 31.460938 315.519531 32.226562 Z M 315.519531 32.226562 " fill-opacity="1" fill-rule="evenodd"/><path fill="#000000" d="M 221.019531 82.816406 C 221.003906 82.734375 220.945312 82.953125 220.910156 83.023438 C 220.84375 83.164062 220.777344 83.304688 220.714844 83.441406 C 220.503906 83.894531 220.289062 84.34375 220.078125 84.792969 C 219.503906 86.019531 218.9375 87.246094 218.394531 88.492188 C 216.851562 92.035156 215.152344 96.128906 215.515625 100.175781 C 215.632812 101.492188 216.015625 103.722656 217.429688 104.0625 C 219.324219 104.519531 220.613281 101.8125 221.222656 100.277344 C 221.375 99.886719 221.511719 99.484375 221.628906 99.078125 C 221.789062 98.511719 222.023438 97.648438 221.882812 97.039062 C 221.777344 96.566406 221.308594 97.230469 221.210938 97.367188 C 220.753906 97.988281 220.402344 99.078125 219.753906 99.464844 C 218.9375 99.953125 218.1875 98.5625 217.949219 97.921875 C 216.632812 94.363281 218.78125 90.757812 220.078125 87.625 C 220.578125 86.417969 221.289062 84.210938 221.019531 82.816406 Z M 221.019531 82.816406 " fill-opacity="1" fill-rule="evenodd"/><path fill="#000000" d="M 221.167969 42.703125 C 221.160156 42.660156 221.847656 42.675781 221.945312 42.667969 C 222.246094 42.648438 224.410156 42.664062 224.332031 42.183594 C 224.242188 41.582031 223.023438 40.679688 222.652344 40.292969 C 221.097656 38.667969 219.453125 37.109375 217.75 35.675781 C 217.625 35.566406 215.859375 33.964844 215.75 34.0625 C 214.8125 34.910156 214.300781 37.5625 213.816406 38.777344 C 213.664062 39.148438 213.261719 39.828125 213.339844 40.269531 C 213.460938 40.949219 215.035156 40.910156 215.40625 41.746094 C 216.714844 44.667969 221.660156 51.339844 222.582031 52.082031 C 222.261719 53.4375 220.769531 55.726562 220.1875 56.941406 C 218.085938 61.296875 214.929688 66.578125 215.75 71.824219 C 215.980469 73.269531 216.394531 74.691406 217.003906 75.988281 C 217.402344 76.835938 217.890625 77.652344 218.457031 78.363281 C 218.90625 78.917969 219.402344 79.429688 219.972656 79.816406 C 223.449219 82.195312 226.769531 78.265625 229.234375 75.761719 C 231.53125 73.429688 234.226562 70.699219 235.285156 67.273438 C 236.65625 62.839844 234.625 59.027344 231.953125 55.933594 C 230.949219 54.78125 228.039062 52.921875 228.4375 50.976562 C 228.773438 49.378906 230.101562 47.898438 230.964844 46.65625 C 232.625 44.265625 234.261719 41.859375 235.824219 39.382812 C 236.371094 38.515625 238.070312 36.003906 237.1875 34.796875 C 236.699219 34.121094 235.789062 35.128906 235.394531 35.484375 C 233.917969 36.820312 232.644531 38.480469 231.398438 40.082031 C 230.566406 41.140625 229.753906 42.207031 228.960938 43.300781 C 228.511719 43.914062 228.09375 44.546875 227.679688 45.1875 C 227.433594 45.574219 227.191406 45.96875 226.945312 46.359375 C 226.152344 47.644531 225.914062 48.164062 224.894531 47.101562 C 224.648438 46.84375 224.410156 46.570312 224.179688 46.296875 C 223.84375 45.894531 223.519531 45.472656 223.199219 45.054688 C 222.679688 44.382812 220.75 42.300781 220.238281 41.625 Z M 225.230469 56.304688 C 224.90625 56.949219 223.722656 58.085938 223.191406 58.777344 C 222.085938 60.203125 221.503906 61.855469 220.714844 63.535156 C 220.160156 64.714844 219.914062 66.011719 219.636719 67.316406 C 219.003906 70.226562 220.550781 73.324219 223.457031 73.054688 C 224.84375 72.929688 225.945312 72.136719 226.980469 71.164062 C 229.4375 68.859375 232.398438 65.882812 230.25 62.015625 C 229.128906 59.988281 226.910156 57.703125 225.230469 56.304688 Z M 225.230469 56.304688 " fill-opacity="1" fill-rule="evenodd"/><path fill="#000000" d="M 314.558594 62.328125 C 315.445312 60.785156 316.679688 59.34375 317.855469 58.0625 C 318.042969 57.855469 318.75 56.882812 319.085938 56.972656 C 320.027344 57.222656 320.488281 60.394531 320.605469 61.167969 C 320.761719 62.203125 320.769531 63.261719 320.683594 64.308594 C 320.339844 68.832031 318.933594 73.871094 315.945312 77.03125 C 314.214844 78.859375 311.863281 79.824219 309.691406 78.402344 C 308.871094 77.863281 308.136719 77.164062 307.472656 76.398438 C 306.300781 75.046875 305.398438 73.351562 304.683594 71.644531 C 304.601562 71.457031 304.476562 71.984375 304.382812 72.160156 C 304.207031 72.507812 304.027344 72.847656 303.84375 73.191406 C 303.339844 74.144531 302.851562 75.097656 302.3125 76.023438 C 300.722656 78.753906 298.578125 81.894531 295.707031 82.910156 C 291.542969 84.382812 287.257812 80.007812 285.933594 75.804688 C 285.453125 74.265625 285.402344 72.859375 285.382812 71.265625 C 285.386719 71.269531 284.007812 72.777344 283.902344 72.875 C 282.265625 74.4375 280.570312 75.71875 278.679688 76.832031 C 278.609375 76.566406 279.074219 79.292969 279.074219 79.921875 C 279.074219 81.671875 279.085938 82.878906 278.570312 84.804688 C 278.371094 85.527344 277.007812 87.683594 276.691406 88.144531 C 274.394531 91.53125 271.902344 94.679688 269.15625 97.597656 C 261.414062 105.820312 250.296875 115.3125 239.507812 108.601562 C 238.085938 107.714844 236.753906 106.644531 235.648438 105.289062 C 234.164062 103.476562 233.113281 101.324219 232.503906 98.945312 C 231.011719 93.078125 232.113281 86.632812 233.660156 80.929688 C 234.09375 79.328125 234.640625 77.777344 235.289062 76.28125 C 235.339844 76.167969 235.789062 74.988281 236 75.238281 C 236.320312 75.628906 235.933594 77.050781 235.871094 77.480469 C 235.5625 79.820312 235.222656 82.152344 234.960938 84.5 C 234.261719 90.890625 235.019531 97.902344 240.050781 101.839844 C 248.378906 108.355469 257.417969 99.929688 263.996094 94.476562 C 269.3125 90.074219 275.464844 85.375 275.339844 77.183594 C 275.136719 77.242188 274.863281 77.65625 274.691406 77.789062 C 274.09375 78.25 273.441406 78.640625 272.800781 78.992188 C 270.621094 80.167969 268.28125 80.921875 265.867188 80.921875 C 264.824219 80.921875 263.765625 80.75 262.773438 80.414062 C 261.972656 80.144531 261.210938 79.746094 260.519531 79.214844 C 255.292969 75.15625 259.019531 66.898438 261.925781 62.617188 C 263.332031 60.539062 265.546875 57.421875 268.148438 57.621094 C 270.671875 57.816406 273.03125 60.550781 274.464844 62.710938 C 275.769531 64.660156 276.566406 67 277.246094 69.3125 C 277.183594 69.054688 277.722656 69.253906 277.953125 69.183594 C 278.351562 69.0625 278.75 68.898438 279.144531 68.71875 C 280.296875 68.1875 281.433594 67.46875 282.425781 66.613281 C 283.898438 65.351562 285.046875 63.730469 286.292969 62.207031 C 286.585938 61.855469 287.292969 60.691406 287.816406 60.980469 C 288.796875 61.511719 288.804688 64.25 288.9375 65.25 C 289.394531 68.695312 289.378906 72.550781 293.070312 73.285156 C 293.621094 73.394531 294.1875 73.417969 294.75 73.371094 C 298.992188 73.003906 301.953125 68.886719 303.824219 64.898438 C 304.53125 63.390625 305.125 61.820312 305.839844 60.320312 C 306.015625 59.964844 306.335938 59.074219 306.785156 59.085938 C 307.078125 59.09375 307.15625 59.597656 307.207031 59.84375 C 307.394531 60.804688 307.421875 61.816406 307.449219 62.796875 C 307.410156 62.683594 307.410156 63.046875 307.394531 63.175781 C 307.375 63.417969 307.339844 63.660156 307.332031 63.90625 C 307.296875 64.722656 307.359375 65.566406 307.507812 66.367188 C 307.949219 68.777344 309.355469 70.597656 311.53125 71.019531 C 315.195312 71.734375 315.914062 65.320312 314.558594 62.328125 Z M 270.347656 72.089844 C 270.335938 72.140625 269.984375 72.234375 269.941406 72.25 C 269.535156 72.402344 269.125 72.535156 268.703125 72.628906 C 267.367188 72.933594 264.605469 73.398438 264.089844 71.355469 C 263.570312 69.3125 265.75 67.1875 267.429688 67.429688 C 268.757812 67.621094 270.089844 69.96875 270.347656 72.089844 Z M 270.347656 72.089844 " fill-opacity="1" fill-rule="evenodd"/><path fill="#000000" d="M 212.234375 17.332031 L 217.417969 10.285156 L 225.160156 16.289062 L 220.027344 23.589844 Z M 212.234375 17.332031 " fill-opacity="1" fill-rule="evenodd"/><path fill="#000000" d="M 145.804688 58.644531 L 150.988281 51.59375 L 158.726562 57.597656 L 153.59375 64.898438 Z M 145.804688 58.644531 " fill-opacity="1" fill-rule="evenodd"/><path fill="#000000" d="M 158.511719 58.644531 L 163.695312 51.59375 L 171.433594 57.597656 L 166.300781 64.898438 Z M 158.511719 58.644531 " fill-opacity="1" fill-rule="evenodd"/><path fill="#000000" d="M 109.148438 99.007812 L 114.332031 91.957031 L 122.070312 97.960938 L 116.941406 105.261719 Z M 109.148438 99.007812 " fill-opacity="1" fill-rule="evenodd"/><path fill="#000000" d="M 122.066406 99.007812 L 127.25 91.957031 L 134.988281 97.960938 L 129.859375 105.261719 Z M 122.066406 99.007812 " fill-opacity="1" fill-rule="evenodd"/><path fill="#000000" d="M 225.152344 17.332031 L 230.335938 10.285156 L 238.078125 16.289062 L 232.945312 23.589844 Z M 225.152344 17.332031 " fill-opacity="1" fill-rule="evenodd"/><path fill="#000000" d="M 307.796875 96.519531 C 307.742188 96.53125 307.90625 96.160156 307.925781 96.117188 C 308.011719 95.875 308.09375 95.632812 308.1875 95.394531 C 308.398438 94.84375 308.628906 94.300781 308.835938 93.746094 C 308.855469 93.699219 308.988281 93.25 309.070312 93.296875 C 309.144531 93.339844 309.175781 93.574219 309.199219 93.652344 C 309.324219 94.058594 309.457031 94.460938 309.550781 94.878906 C 309.960938 96.757812 309.941406 98.695312 309.203125 100.460938 C 308.679688 101.714844 307.664062 102.625 306.464844 102.765625 C 304.953125 102.941406 303.445312 101.511719 303.386719 99.691406 C 303.386719 99.6875 303.222656 99.84375 303.210938 99.859375 C 303.125 99.972656 303.046875 100.09375 302.96875 100.214844 C 302.714844 100.605469 302.476562 101.011719 302.238281 101.417969 C 301.496094 102.703125 300.601562 104.230469 299.203125 104.515625 C 297.332031 104.890625 295.992188 103.152344 294.242188 102.875 C 293.375 102.734375 292.503906 103.070312 291.722656 103.496094 C 290.371094 104.238281 289.148438 105.308594 287.972656 106.386719 C 287.460938 106.851562 286.785156 107.457031 286.277344 107.921875 C 285.167969 108.941406 284.054688 109.957031 282.929688 110.953125 C 278.824219 114.589844 274.882812 118.28125 270.308594 121.089844 C 270.382812 121.1875 270.109375 121.183594 270.007812 121.234375 C 269.769531 121.367188 269.527344 121.488281 269.285156 121.609375 C 268.582031 121.953125 267.875 122.277344 267.164062 122.601562 C 264.992188 123.585938 262.820312 124.4375 260.554688 125.089844 C 259.824219 125.300781 259.078125 125.5 258.324219 125.5625 C 258.210938 125.574219 257.578125 125.644531 257.585938 125.371094 C 257.597656 124.839844 258.773438 124.3125 259.066406 124.125 C 260.644531 123.125 262.265625 122.246094 263.859375 121.285156 C 267.578125 119.046875 271.050781 116.316406 274.527344 113.59375 C 277.066406 111.609375 279.640625 109.679688 282.144531 107.621094 C 282.3125 107.480469 282.785156 107.09375 282.941406 106.96875 C 283.652344 106.386719 284.355469 105.796875 285.054688 105.203125 C 286.921875 103.628906 288.789062 102.023438 290.769531 100.648438 C 291.867188 99.878906 293.117188 99.070312 294.429688 99.082031 C 296.351562 99.105469 298.214844 101.144531 300.144531 100.117188 C 301.648438 99.316406 302.460938 97.398438 303.386719 95.90625 C 303.65625 95.476562 304.28125 94.148438 304.804688 94.097656 C 305.136719 94.066406 304.917969 95.03125 304.894531 95.199219 C 304.75 96.296875 304.417969 97.917969 305.148438 98.824219 C 306.257812 100.203125 308.847656 98.773438 307.796875 96.519531 Z M 307.796875 96.519531 " fill-opacity="1" fill-rule="evenodd"/><path fill="#000000" d="M 247.542969 72.066406 C 247.542969 72.035156 247.597656 72.101562 247.625 72.117188 C 247.671875 72.144531 247.71875 72.171875 247.765625 72.199219 C 247.929688 72.289062 248.097656 72.378906 248.269531 72.460938 C 248.394531 72.527344 248.523438 72.589844 248.652344 72.652344 C 248.742188 72.691406 248.828125 72.730469 248.914062 72.769531 C 249.21875 72.90625 250.21875 73.40625 250.191406 72.6875 C 250.167969 72.15625 249.765625 71.621094 249.476562 71.222656 C 248.878906 70.394531 248.277344 69.570312 247.671875 68.75 C 246.5625 67.246094 245.449219 65.75 244.3125 64.269531 C 244.046875 63.921875 243.785156 63.566406 243.503906 63.226562 C 243.425781 63.132812 243.289062 62.921875 243.152344 62.917969 C 242.945312 62.914062 242.832031 63.398438 242.789062 63.539062 C 242.5625 64.273438 242.425781 65.042969 242.269531 65.792969 C 242.015625 66.992188 241.722656 68.179688 241.402344 69.359375 C 241.265625 69.855469 240.957031 70.550781 241.125 71.070312 C 241.226562 71.394531 241.46875 71.644531 241.691406 71.878906 C 241.992188 72.199219 242.296875 72.507812 242.632812 72.789062 C 242.527344 73.066406 242.855469 73.78125 242.925781 74.039062 C 243.253906 75.230469 243.652344 76.390625 244.046875 77.558594 C 244.832031 79.871094 245.703125 82.152344 246.777344 84.335938 C 247.949219 86.714844 249.320312 89.003906 250.425781 91.417969 C 250.339844 91.402344 249.996094 91.945312 249.945312 92.003906 C 249.382812 92.675781 248.808594 93.335938 248.222656 93.984375 C 245.992188 96.472656 243.609375 98.785156 241.089844 100.941406 C 237.316406 104.175781 232.992188 106.804688 228.578125 108.933594 C 224.167969 111.058594 219.289062 112.769531 214.375 112.191406 C 214.335938 112.058594 214.101562 112.179688 213.96875 112.144531 C 213.503906 112.023438 213.039062 111.898438 212.582031 111.738281 C 210.859375 111.136719 209.203125 110.410156 207.753906 109.234375 C 203.632812 105.890625 202.457031 100.390625 202.472656 95.117188 C 202.484375 90.566406 203.449219 86.046875 204.902344 81.78125 C 205.488281 80.058594 206.113281 78.347656 206.710938 76.628906 C 206.75 76.519531 207.28125 75.164062 207.011719 75.164062 C 206.78125 75.164062 206.523438 75.542969 206.402344 75.707031 C 205.882812 76.410156 205.441406 77.195312 205.070312 77.996094 C 203.546875 81.285156 202.414062 84.828125 201.40625 88.320312 C 200.941406 89.921875 200.515625 91.535156 200.179688 93.171875 C 198.382812 101.929688 198.964844 113.957031 207.472656 118.6875 C 208.761719 119.402344 210.15625 119.945312 211.582031 120.277344 C 221.910156 122.6875 231.230469 116.84375 238.898438 110.421875 C 238.832031 110.476562 239.046875 110.339844 239.117188 110.289062 C 239.257812 110.1875 239.394531 110.082031 239.535156 109.980469 C 239.976562 109.65625 240.417969 109.324219 240.851562 108.984375 C 242.140625 107.984375 243.363281 106.898438 244.539062 105.757812 C 248.269531 102.148438 251.648438 98.164062 252.695312 92.832031 C 252.777344 92.414062 252.855469 91.847656 252.878906 91.441406 C 252.953125 90.347656 252.972656 89.25 252.941406 88.15625 C 252.84375 84.667969 251.566406 81.753906 250.203125 78.636719 C 249.324219 76.625 248.574219 74 247.542969 72.066406 Z M 247.542969 72.066406 " fill-opacity="1" fill-rule="evenodd"/></svg>