<svg xmlns="http://www.w3.org/2000/svg" xmlns:xlink="http://www.w3.org/1999/xlink" width="500" zoomAndPan="magnify" viewBox="0 0 375 149.999998" height="200" preserveAspectRatio="xMidYMid meet" version="1.0"><defs><clipPath id="75503f21aa"><path d="M 296 9.140625 L 341 9.140625 L 341 64 L 296 64 Z M 296 9.140625 " clip-rule="nonzero"/></clipPath></defs><path fill="#000000" d="M 218.449219 38.425781 L 222.4375 33.109375 L 228.945312 38.535156 L 225.113281 43.90625 Z M 218.449219 38.425781 " fill-opacity="1" fill-rule="evenodd"/><path fill="#000000" d="M 308.726562 82.15625 C 308.835938 82.121094 309.273438 81.238281 309.359375 81.105469 C 310.0625 80.023438 310.75 78.917969 311.507812 77.875 C 311.679688 77.636719 312.105469 76.757812 312.453125 76.773438 C 312.835938 76.792969 312.875 78.089844 312.917969 78.355469 C 313.210938 80.230469 313.445312 82.132812 313.480469 84.03125 C 313.535156 87.601562 313.222656 92.316406 310.257812 94.644531 C 305.597656 98.308594 299.109375 93.101562 299.109375 87.519531 C 299.113281 87.527344 298.0625 89.058594 298 89.175781 C 296.992188 91.019531 296.328125 93.054688 295.289062 94.878906 C 292.664062 99.503906 286.441406 101.507812 282.480469 97.351562 C 280.339844 95.105469 279.59375 91.199219 279.722656 88.101562 C 278.6875 89.792969 277.503906 91.464844 276 92.734375 C 275.738281 92.957031 273.9375 93.859375 273.9375 93.859375 C 273.9375 93.859375 274.265625 95.386719 274.320312 95.988281 C 274.457031 97.550781 274.625 99.03125 274.457031 100.726562 C 274.433594 100.898438 274.304688 101.378906 274.261719 101.5 C 273.957031 102.296875 273.511719 103.078125 273.050781 103.777344 C 270.96875 106.898438 268.21875 109.664062 265.625 112.296875 C 264.25 113.691406 262.847656 115.066406 261.386719 116.355469 C 254.636719 122.292969 244.652344 128.957031 235.769531 123.78125 C 234.5 123.039062 233.382812 122.0625 232.4375 120.902344 C 231.242188 119.433594 230.332031 117.730469 229.730469 115.898438 C 228.207031 111.246094 228.335938 106.070312 229.496094 101.34375 C 229.917969 99.652344 230.445312 97.9375 231.253906 96.402344 C 231.304688 96.3125 232.148438 94.867188 232.308594 95.175781 C 232.515625 95.578125 232.0625 96.59375 231.964844 96.976562 C 231.515625 98.703125 231.042969 100.414062 230.800781 102.1875 C 230.015625 107.988281 230.472656 114.300781 235.425781 117.832031 C 236.214844 118.398438 237.089844 118.871094 237.996094 119.199219 C 241.238281 120.375 244.777344 119.863281 247.988281 118.832031 C 254.722656 116.667969 260.589844 111.5 265.925781 106.820312 C 267.257812 105.65625 268.550781 104.449219 269.839844 103.226562 C 270.6875 102.425781 271.679688 101.597656 272.226562 100.515625 C 272.960938 99.054688 271.945312 95.101562 271.945312 95.101562 C 271.945312 95.101562 270.824219 95.800781 270.730469 95.84375 C 269.492188 96.445312 268.671875 96.710938 267.355469 97.101562 C 263.394531 98.285156 258.085938 98.136719 256.347656 93.351562 C 254.808594 89.113281 257.332031 84.089844 260.070312 81.09375 C 261.109375 79.960938 262.71875 78.339844 264.367188 78.589844 C 268.960938 79.289062 271.0625 84.609375 272.960938 88.355469 C 272.957031 88.355469 273.25 88.25 273.328125 88.207031 C 273.617188 88.054688 273.894531 87.867188 274.164062 87.679688 C 274.933594 87.136719 275.679688 86.5625 276.417969 85.976562 C 277.820312 84.859375 279.078125 83.585938 280.40625 82.375 C 280.613281 82.183594 281.394531 81.253906 281.734375 81.410156 C 281.90625 81.492188 281.902344 81.921875 281.917969 82.082031 C 281.984375 82.777344 281.917969 83.480469 281.914062 84.179688 C 281.902344 86.480469 282.273438 88.835938 283.648438 90.703125 C 285.734375 93.527344 289.589844 93.183594 292.242188 91.4375 C 296.308594 88.765625 297.621094 83.980469 299.59375 79.710938 C 299.667969 79.554688 299.851562 80.28125 299.863281 80.324219 C 300.058594 81.117188 300.191406 81.921875 300.390625 82.710938 C 300.933594 84.820312 301.5 87.289062 303.574219 88.257812 C 304.304688 88.597656 305.117188 88.679688 305.910156 88.683594 C 306.492188 88.6875 307.074219 88.636719 307.644531 88.507812 C 308.050781 88.414062 308.421875 88.269531 308.785156 88.066406 C 311.027344 86.816406 309.566406 84.050781 308.726562 82.15625 Z M 267.3125 89.601562 C 265.921875 89.902344 263.933594 90.546875 262.5 90.640625 C 261.941406 90.675781 261.253906 90.722656 260.765625 90.382812 C 260.234375 90.015625 260.234375 89.277344 260.402344 88.703125 C 260.753906 87.523438 261.59375 86.304688 262.679688 85.777344 C 264.46875 84.910156 266.367188 88.226562 267.3125 89.601562 Z M 267.3125 89.601562 " fill-opacity="1" fill-rule="evenodd"/><path fill="#000000" d="M 235.472656 81.378906 C 235.492188 81.390625 235.449219 81.523438 235.445312 81.535156 C 235.402344 81.726562 235.359375 81.914062 235.3125 82.101562 C 235.09375 82.972656 234.882812 83.839844 234.664062 84.710938 C 234.359375 85.914062 234.109375 87.128906 233.84375 88.34375 C 233.773438 88.652344 233.707031 88.960938 233.625 89.265625 C 233.605469 89.339844 233.523438 89.523438 233.550781 89.601562 C 233.632812 89.824219 233.839844 90.019531 233.984375 90.1875 C 234.316406 90.574219 234.671875 90.914062 235.023438 91.277344 C 235.058594 91.226562 234.972656 91.402344 234.984375 91.464844 C 235.019531 91.652344 235.0625 91.835938 235.109375 92.023438 C 235.226562 92.5 235.371094 92.964844 235.523438 93.429688 C 235.988281 94.828125 236.472656 96.21875 236.972656 97.597656 C 238.472656 101.738281 240.578125 105.503906 242.214844 109.558594 C 242.210938 109.546875 241.640625 110.105469 241.601562 110.148438 C 241.234375 110.539062 240.890625 110.957031 240.53125 111.355469 C 239.46875 112.539062 238.300781 113.609375 237.136719 114.675781 C 233.402344 118.09375 229.867188 121.605469 225.59375 124.230469 C 224.472656 124.917969 223.359375 125.71875 222.199219 126.328125 C 219.40625 127.789062 216.238281 128.984375 213.140625 129.332031 C 212.101562 129.449219 211.042969 129.457031 210 129.3125 C 205.847656 128.75 201.878906 126.300781 199.796875 122.273438 C 199.191406 121.109375 198.777344 119.828125 198.496094 118.53125 C 197.65625 114.6875 198.03125 110.746094 198.648438 106.894531 C 199.21875 103.335938 200.179688 100.101562 201.355469 96.742188 C 201.578125 96.113281 202.53125 94.09375 201.441406 93.71875 C 201.386719 93.699219 201.160156 94.226562 201.144531 94.265625 C 200.832031 94.886719 200.558594 95.527344 200.28125 96.167969 C 199.121094 98.839844 198 101.554688 197.132812 104.355469 C 195.367188 110.039062 194.714844 116.152344 195.417969 122.113281 C 195.972656 126.796875 197.488281 130.996094 201.027344 133.914062 C 205.25 137.398438 211.011719 138.074219 216.097656 136.703125 C 219.628906 135.75 223.125 133.757812 226.160156 131.597656 C 226.171875 131.601562 227.851562 130.332031 227.996094 130.21875 C 229.894531 128.722656 231.789062 127.214844 233.621094 125.628906 C 236.929688 122.765625 240.378906 119.582031 242.585938 115.597656 C 245.207031 110.867188 245.195312 104.804688 243.582031 99.734375 C 243.683594 99.75 243.507812 99.519531 243.464844 99.417969 C 243.359375 99.171875 243.25 98.933594 243.140625 98.691406 C 242.859375 98.054688 242.566406 97.421875 242.277344 96.785156 C 241.414062 94.867188 240.339844 92.984375 239.65625 90.976562 C 239.492188 90.496094 239.785156 90.480469 240.207031 90.742188 C 240.71875 91.054688 241.179688 91.488281 241.722656 91.742188 C 241.917969 91.832031 242.21875 91.894531 242.304688 91.609375 C 242.472656 91.042969 241.980469 90.304688 241.722656 89.863281 C 240.871094 88.417969 236.625 82.90625 235.472656 81.378906 Z M 235.472656 81.378906 " fill-opacity="1" fill-rule="evenodd"/><path fill="#000000" d="M 248.675781 69.054688 C 248.664062 69.03125 248.664062 69.101562 248.652344 69.125 C 248.632812 69.1875 248.609375 69.25 248.585938 69.308594 C 248.542969 69.417969 248.335938 70.0625 248.164062 70.015625 C 247.855469 69.929688 247.519531 69.402344 247.292969 69.207031 C 246.785156 68.769531 246.21875 68.382812 245.664062 67.996094 C 245.386719 67.804688 244.992188 67.613281 244.84375 67.308594 C 244.695312 66.996094 244.714844 66.605469 244.703125 66.273438 C 244.667969 65.28125 244.757812 63.390625 246.105469 63.0625 C 247.105469 62.816406 248.121094 63.488281 248.8125 64.046875 C 250.105469 65.085938 250.921875 66.535156 251.578125 67.949219 C 252.410156 69.753906 253.074219 71.632812 253.636719 73.519531 C 253.652344 73.566406 253.664062 73.421875 253.675781 73.375 C 253.699219 73.28125 253.722656 73.1875 253.742188 73.09375 C 253.800781 72.828125 253.855469 72.5625 253.90625 72.296875 C 254.070312 71.460938 254.226562 70.625 254.433594 69.796875 C 254.988281 67.585938 255.636719 65.425781 256.832031 63.414062 C 257.34375 62.554688 258.167969 61.546875 259.410156 61.773438 C 260.113281 61.90625 260.476562 62.445312 260.882812 62.921875 C 261.402344 63.53125 262.078125 64.476562 262 65.292969 C 261.953125 65.785156 261.667969 66.289062 261.460938 66.738281 C 261.285156 67.117188 261.085938 67.574219 260.742188 67.859375 C 260.429688 68.117188 260.027344 67.476562 259.890625 67.308594 C 259.4375 66.738281 258.445312 65.316406 257.539062 66.070312 C 257.011719 66.511719 256.757812 67.179688 256.53125 67.777344 C 256.121094 68.867188 255.816406 69.992188 255.523438 71.113281 C 255.5 71.195312 255.433594 71.441406 255.417969 71.511719 C 255.308594 71.941406 255.191406 72.367188 255.082031 72.792969 C 254.660156 74.464844 254.140625 76.128906 253.492188 77.746094 C 253.347656 78.105469 253.195312 78.46875 253.007812 78.816406 C 252.976562 78.871094 252.871094 79.132812 252.757812 79.105469 C 252.628906 79.078125 252.609375 78.71875 252.589844 78.636719 C 252.492188 78.171875 252.375 77.707031 252.277344 77.242188 C 252.175781 76.75 252.070312 76.253906 251.925781 75.769531 C 251.683594 74.929688 251.425781 74.085938 251.132812 73.257812 C 250.695312 72.027344 249.546875 69.761719 248.675781 69.054688 Z M 248.675781 69.054688 " fill-opacity="1" fill-rule="evenodd"/><path fill="#000000" d="M 243.941406 38.324219 C 243.929688 38.300781 243.925781 38.375 243.914062 38.398438 C 243.894531 38.457031 243.871094 38.519531 243.847656 38.582031 C 243.804688 38.6875 243.601562 39.335938 243.429688 39.289062 C 243.117188 39.199219 242.78125 38.675781 242.554688 38.480469 C 242.046875 38.042969 241.484375 37.652344 240.929688 37.265625 C 240.652344 37.074219 240.253906 36.882812 240.109375 36.582031 C 239.957031 36.269531 239.976562 35.875 239.964844 35.542969 C 239.929688 34.554688 240.023438 32.664062 241.371094 32.332031 C 242.367188 32.085938 243.382812 32.757812 244.078125 33.316406 C 245.367188 34.355469 246.183594 35.804688 246.839844 37.21875 C 247.675781 39.023438 248.339844 40.902344 248.898438 42.789062 C 248.914062 42.839844 248.929688 42.695312 248.9375 42.644531 C 248.960938 42.550781 248.984375 42.457031 249.003906 42.363281 C 249.0625 42.097656 249.117188 41.835938 249.171875 41.570312 C 249.335938 40.734375 249.488281 39.894531 249.699219 39.066406 C 250.25 36.855469 250.902344 34.695312 252.09375 32.683594 C 252.605469 31.824219 253.429688 30.816406 254.671875 31.046875 C 255.378906 31.175781 255.742188 31.71875 256.148438 32.191406 C 256.667969 32.800781 257.34375 33.746094 257.261719 34.566406 C 257.214844 35.054688 256.929688 35.5625 256.722656 36.007812 C 256.546875 36.386719 256.347656 36.84375 256.003906 37.128906 C 255.691406 37.386719 255.289062 36.75 255.152344 36.578125 C 254.699219 36.011719 253.707031 34.585938 252.800781 35.339844 C 252.273438 35.78125 252.019531 36.449219 251.792969 37.046875 C 251.382812 38.136719 251.078125 39.261719 250.785156 40.382812 C 250.761719 40.464844 250.695312 40.710938 250.679688 40.785156 C 250.570312 41.210938 250.453125 41.636719 250.347656 42.0625 C 249.921875 43.738281 249.40625 45.402344 248.757812 47.015625 C 248.609375 47.378906 248.460938 47.738281 248.273438 48.085938 C 248.238281 48.144531 248.132812 48.402344 248.019531 48.378906 C 247.890625 48.347656 247.871094 47.992188 247.851562 47.90625 C 247.753906 47.441406 247.640625 46.980469 247.539062 46.515625 C 247.4375 46.019531 247.332031 45.527344 247.191406 45.039062 C 246.945312 44.199219 246.691406 43.355469 246.394531 42.527344 C 245.957031 41.296875 244.808594 39.03125 243.941406 38.324219 Z M 243.941406 38.324219 " fill-opacity="1" fill-rule="evenodd"/><path fill="#000000" d="M 146.054688 31.226562 C 146.042969 31.203125 146.042969 31.273438 146.03125 31.300781 C 146.007812 31.359375 145.988281 31.421875 145.964844 31.484375 C 145.921875 31.589844 145.714844 32.238281 145.542969 32.1875 C 145.234375 32.101562 144.898438 31.574219 144.671875 31.378906 C 144.164062 30.945312 143.597656 30.554688 143.042969 30.167969 C 142.765625 29.976562 142.371094 29.785156 142.222656 29.480469 C 142.074219 29.171875 142.09375 28.777344 142.082031 28.445312 C 142.046875 27.453125 142.136719 25.566406 143.484375 25.234375 C 144.484375 24.988281 145.5 25.660156 146.191406 26.21875 C 147.484375 27.257812 148.300781 28.707031 148.957031 30.121094 C 149.789062 31.925781 150.453125 33.804688 151.015625 35.691406 C 151.03125 35.742188 151.042969 35.597656 151.054688 35.546875 C 151.078125 35.453125 151.101562 35.359375 151.121094 35.265625 C 151.179688 35 151.234375 34.734375 151.285156 34.472656 C 151.449219 33.632812 151.605469 32.796875 151.8125 31.96875 C 152.367188 29.757812 153.015625 27.597656 154.210938 25.585938 C 154.722656 24.726562 155.546875 23.71875 156.789062 23.949219 C 157.492188 24.078125 157.855469 24.621094 158.261719 25.09375 C 158.78125 25.703125 159.457031 26.648438 159.378906 27.46875 C 159.332031 27.957031 159.046875 28.464844 158.839844 28.910156 C 158.664062 29.289062 158.464844 29.746094 158.121094 30.03125 C 157.808594 30.289062 157.40625 29.652344 157.269531 29.480469 C 156.816406 28.914062 155.824219 27.488281 154.917969 28.242188 C 154.390625 28.683594 154.136719 29.351562 153.910156 29.949219 C 153.5 31.039062 153.195312 32.164062 152.898438 33.285156 C 152.878906 33.367188 152.8125 33.613281 152.796875 33.683594 C 152.6875 34.113281 152.570312 34.539062 152.460938 34.964844 C 152.039062 36.640625 151.519531 38.304688 150.871094 39.917969 C 150.726562 40.28125 150.574219 40.640625 150.386719 40.988281 C 150.355469 41.046875 150.25 41.304688 150.136719 41.28125 C 150.007812 41.25 149.988281 40.894531 149.96875 40.808594 C 149.871094 40.34375 149.753906 39.882812 149.65625 39.414062 C 149.554688 38.921875 149.449219 38.429688 149.304688 37.941406 C 149.0625 37.101562 148.804688 36.257812 148.511719 35.429688 C 148.074219 34.199219 146.925781 31.933594 146.054688 31.226562 Z M 146.054688 31.226562 " fill-opacity="1" fill-rule="evenodd"/><path fill="#000000" d="M 237.867188 63.214844 C 237.9375 63.277344 238.023438 63.109375 238.101562 63.0625 C 238.390625 62.882812 238.679688 62.699219 238.96875 62.519531 C 240.152344 61.785156 241.335938 61.0625 242.542969 60.375 C 247.652344 57.46875 253.140625 54.839844 258.664062 52.796875 C 260.15625 52.246094 261.648438 51.6875 263.148438 51.160156 C 263.492188 51.039062 263.835938 50.90625 264.183594 50.804688 C 264.207031 50.796875 264.484375 50.703125 264.507812 50.753906 C 264.542969 50.835938 264.355469 51.078125 264.320312 51.140625 C 264.113281 51.496094 263.902344 51.847656 263.695312 52.203125 C 263.378906 52.75 263.171875 53.558594 262.757812 54.035156 C 262.550781 54.273438 261.890625 54.382812 261.613281 54.496094 C 260.707031 54.871094 259.800781 55.257812 258.902344 55.652344 C 253.199219 58.132812 247.628906 60.925781 242.050781 63.660156 C 240.722656 64.308594 239.386719 64.945312 238.085938 65.644531 C 237.914062 65.738281 237.007812 66.390625 236.792969 66.273438 C 236.640625 66.191406 236.789062 65.78125 236.820312 65.675781 C 236.996094 65.085938 237.621094 63.777344 237.867188 63.214844 Z M 237.867188 63.214844 " fill-opacity="1" fill-rule="evenodd"/><path fill="#000000" d="M 283.964844 79.421875 C 283.867188 79.269531 284.300781 78.863281 284.347656 78.828125 C 284.875 78.414062 285.429688 78.03125 285.976562 77.640625 C 288.203125 76.074219 290.5625 74.707031 292.804688 73.164062 C 296.746094 70.449219 300.386719 67.207031 303.863281 63.9375 C 305.679688 62.226562 307.757812 60.609375 309.210938 58.566406 C 309.03125 58.28125 308.691406 58.050781 308.441406 57.824219 C 307.863281 57.300781 307.265625 56.792969 306.679688 56.273438 C 306.347656 55.980469 305.976562 55.699219 305.796875 55.285156 C 305.636719 54.914062 305.648438 54.492188 305.695312 54.097656 C 305.953125 51.988281 307.496094 49.785156 309.261719 48.605469 C 310.320312 47.898438 311.832031 47.710938 312.71875 48.785156 C 314.121094 50.480469 313.445312 52.875 312.753906 54.730469 C 312.605469 55.128906 312.433594 55.507812 312.253906 55.890625 C 312.183594 56.042969 312.023438 56.261719 312.011719 56.433594 C 311.996094 56.628906 312.449219 56.871094 312.570312 56.976562 C 313.011719 57.347656 313.507812 57.84375 313.710938 58.390625 C 313.972656 59.109375 313.410156 60.046875 313.085938 60.660156 C 312.996094 60.828125 312.773438 61.332031 312.511719 61.269531 C 312.21875 61.199219 311.933594 60.894531 311.730469 60.699219 C 311.277344 60.261719 310.875 59.773438 310.414062 59.347656 C 310.414062 59.335938 310.203125 59.585938 310.167969 59.628906 C 309.992188 59.847656 309.808594 60.0625 309.628906 60.277344 C 309.117188 60.882812 308.625 61.503906 308.121094 62.117188 C 306.664062 63.90625 305.113281 65.652344 303.414062 67.222656 C 299.472656 70.878906 294.890625 73.792969 290.132812 76.296875 C 288.90625 76.941406 287.675781 77.582031 286.429688 78.183594 C 285.738281 78.519531 284.164062 79.738281 283.964844 79.421875 Z M 311.222656 55.769531 C 311.230469 55.769531 311.28125 55.53125 311.285156 55.515625 C 311.34375 55.222656 311.40625 54.929688 311.441406 54.632812 C 311.5625 53.570312 311.4375 52.179688 310.59375 51.40625 C 309.914062 50.789062 308.953125 50.863281 308.320312 51.519531 C 308.082031 51.769531 307.886719 52.089844 307.9375 52.445312 C 308.007812 52.890625 308.355469 53.269531 308.65625 53.582031 C 309.222656 54.167969 310.601562 55.234375 311.222656 55.769531 Z M 311.222656 55.769531 " fill-opacity="1" fill-rule="evenodd"/><path fill="#000000" d="M 132.90625 84.132812 C 132.808594 83.980469 133.242188 83.578125 133.289062 83.539062 C 133.816406 83.128906 134.371094 82.742188 134.917969 82.355469 C 137.144531 80.785156 139.503906 79.421875 141.746094 77.878906 C 145.6875 75.164062 149.328125 71.917969 152.804688 68.648438 C 154.621094 66.9375 156.699219 65.324219 158.15625 63.28125 C 157.972656 62.992188 157.632812 62.765625 157.382812 62.539062 C 156.804688 62.015625 156.207031 61.507812 155.621094 60.988281 C 155.289062 60.695312 154.917969 60.414062 154.738281 60 C 154.578125 59.625 154.589844 59.203125 154.636719 58.8125 C 154.894531 56.699219 156.441406 54.5 158.203125 53.316406 C 159.261719 52.609375 160.773438 52.425781 161.664062 53.5 C 163.0625 55.195312 162.386719 57.589844 161.695312 59.445312 C 161.546875 59.839844 161.375 60.222656 161.195312 60.605469 C 161.128906 60.757812 160.96875 60.976562 160.953125 61.148438 C 160.9375 61.339844 161.390625 61.585938 161.511719 61.691406 C 161.957031 62.0625 162.449219 62.558594 162.652344 63.105469 C 162.914062 63.824219 162.351562 64.761719 162.027344 65.375 C 161.9375 65.542969 161.714844 66.046875 161.453125 65.980469 C 161.164062 65.910156 160.875 65.609375 160.671875 65.414062 C 160.21875 64.976562 159.816406 64.488281 159.355469 64.058594 C 159.355469 64.050781 159.144531 64.300781 159.109375 64.34375 C 158.933594 64.5625 158.75 64.773438 158.570312 64.988281 C 158.058594 65.59375 157.566406 66.214844 157.0625 66.832031 C 155.605469 68.621094 154.054688 70.363281 152.355469 71.9375 C 148.414062 75.589844 143.832031 78.503906 139.074219 81.007812 C 137.851562 81.65625 136.617188 82.296875 135.371094 82.898438 C 134.679688 83.234375 133.105469 84.453125 132.90625 84.132812 Z M 160.164062 60.484375 C 160.171875 60.484375 160.222656 60.246094 160.226562 60.226562 C 160.285156 59.933594 160.347656 59.640625 160.382812 59.347656 C 160.503906 58.285156 160.382812 56.894531 159.535156 56.121094 C 158.859375 55.503906 157.894531 55.578125 157.261719 56.234375 C 157.023438 56.484375 156.828125 56.804688 156.882812 57.160156 C 156.949219 57.601562 157.296875 57.980469 157.597656 58.292969 C 158.164062 58.882812 159.546875 59.949219 160.164062 60.484375 Z M 160.164062 60.484375 " fill-opacity="1" fill-rule="evenodd"/><path fill="#000000" d="M 208.226562 61.679688 C 208.226562 61.65625 208.210938 61.339844 208.21875 61.25 C 208.25 60.898438 208.300781 60.550781 208.335938 60.203125 C 208.441406 59.28125 208.496094 58.355469 208.625 57.441406 C 208.6875 57.027344 208.734375 56.484375 209.253906 56.652344 C 210.054688 56.910156 210.800781 57.5 211.519531 57.9375 C 212.800781 58.714844 214.074219 59.515625 215.382812 60.242188 C 215.902344 60.53125 216.429688 60.808594 216.945312 61.109375 C 217.035156 61.164062 217.34375 61.289062 217.328125 61.445312 C 217.308594 61.65625 216.839844 61.664062 216.710938 61.675781 C 216.386719 61.703125 214.9375 61.585938 214.773438 61.898438 C 214.492188 62.429688 215.355469 63.496094 215.601562 63.878906 C 216.746094 65.640625 218.167969 67.175781 219.695312 68.574219 C 219.734375 68.570312 220.140625 67.761719 220.191406 67.691406 C 220.714844 66.867188 221.25 66.050781 221.785156 65.230469 C 223.691406 62.289062 225.671875 59.375 227.730469 56.546875 C 228.21875 55.867188 228.726562 55.191406 229.25 54.535156 C 229.421875 54.320312 229.648438 53.964844 229.9375 53.921875 C 230.375 53.859375 230.140625 55.367188 230.113281 55.589844 C 229.910156 57.351562 228.796875 59.003906 227.945312 60.476562 C 227.160156 61.835938 226.347656 63.175781 225.511719 64.5 C 224.214844 66.566406 222.925781 68.644531 221.582031 70.683594 C 222.101562 71.113281 222.613281 72.015625 223.085938 72.550781 C 224.289062 73.921875 225.910156 75.425781 226.535156 77.226562 C 227.058594 78.753906 227.582031 80.148438 227.738281 81.75 C 227.914062 83.59375 227.554688 85.835938 226.925781 87.605469 C 225.824219 90.707031 222.925781 93.472656 220.332031 95.195312 C 218.28125 96.558594 215.390625 97.875 212.90625 97.527344 C 209.527344 97.046875 209.457031 91.78125 209.597656 89.109375 C 209.636719 88.460938 209.703125 87.8125 209.804688 87.171875 C 209.953125 86.277344 210.160156 85.398438 210.421875 84.53125 C 210.710938 83.574219 211.0625 82.632812 211.460938 81.714844 C 212.835938 78.566406 214.625 75.613281 216.691406 72.925781 C 213.957031 70.371094 212.121094 66.792969 210.019531 63.695312 C 209.839844 63.425781 209.621094 63.1875 209.28125 63.25 C 209.195312 63.265625 208.597656 63.421875 208.398438 63.097656 C 208.152344 62.714844 208.300781 61.824219 208.226562 61.679688 Z M 218.964844 75.8125 C 218.773438 75.8125 218.394531 76.332031 218.277344 76.449219 C 217.621094 77.109375 217.003906 77.816406 216.394531 78.523438 C 215.917969 79.070312 215.460938 79.625 215.019531 80.199219 C 214.636719 80.699219 214.257812 81.207031 213.910156 81.734375 C 212.46875 83.882812 210.4375 87.945312 213.210938 89.890625 C 216.109375 91.921875 219.824219 89.371094 222.089844 87.445312 C 223.1875 86.511719 224.316406 85.472656 224.515625 83.914062 C 224.652344 82.839844 224.246094 81.867188 223.726562 80.96875 C 222.761719 79.292969 220.332031 77.125 218.964844 75.8125 Z M 208.226562 61.679688 C 208.226562 61.683594 208.226562 61.683594 208.226562 61.679688 Z M 208.226562 61.679688 " fill-opacity="1" fill-rule="evenodd"/><path fill="#000000" d="M 207.957031 38.425781 L 211.945312 33.109375 L 218.449219 38.535156 L 214.621094 43.90625 Z M 207.957031 38.425781 " fill-opacity="1" fill-rule="evenodd"/><path fill="#000000" d="M 308.335938 100.484375 C 308.292969 100.378906 308.507812 99.941406 308.539062 99.835938 C 308.761719 99.144531 308.976562 98.453125 309.242188 97.78125 C 309.28125 97.6875 309.472656 97.054688 309.609375 97.074219 C 309.679688 97.082031 309.726562 97.238281 309.753906 97.300781 C 309.867188 97.558594 309.988281 97.8125 310.097656 98.074219 C 310.640625 99.339844 310.710938 100.839844 310.542969 102.210938 C 310.359375 103.742188 309.714844 105.320312 308.449219 106.066406 C 306.597656 107.160156 304.347656 105.617188 303.789062 103.539062 C 302.945312 104.011719 302.589844 105.277344 302.046875 106.226562 C 301.441406 107.296875 300.546875 108.015625 299.429688 108.238281 C 297.589844 108.605469 296.242188 107.082031 294.570312 106.59375 C 293.628906 106.316406 292.671875 106.570312 291.8125 107.035156 C 289.859375 108.085938 288.117188 109.691406 286.378906 111.128906 C 282.078125 114.683594 278.101562 118.71875 273.765625 122.210938 C 270.136719 125.140625 266.003906 126.914062 261.617188 128.0625 C 260.503906 128.355469 259.382812 128.660156 258.257812 128.882812 C 258.152344 128.90625 257.289062 129.117188 257.269531 128.875 C 257.246094 128.613281 257.761719 128.34375 257.90625 128.242188 C 258.554688 127.78125 259.222656 127.347656 259.894531 126.929688 C 262.742188 125.167969 265.667969 123.574219 268.515625 121.820312 C 273.972656 118.464844 279.089844 114.226562 284.085938 110.066406 C 286.773438 107.824219 289.464844 104.65625 292.757812 103.589844 C 295.359375 102.75 297.511719 104.03125 300.082031 103.980469 C 300.082031 103.972656 300.410156 103.875 300.429688 103.867188 C 300.628906 103.785156 300.820312 103.683594 301.003906 103.554688 C 301.613281 103.132812 302.171875 102.59375 302.652344 101.996094 C 303.066406 101.480469 303.386719 100.886719 303.734375 100.3125 C 303.9375 99.976562 304.152344 99.652344 304.367188 99.328125 C 304.515625 99.105469 304.660156 98.875 304.8125 98.65625 C 304.867188 98.582031 305.445312 97.757812 305.578125 98.011719 C 305.707031 98.246094 305.371094 98.980469 305.300781 99.207031 C 305.027344 100.078125 304.761719 101.023438 305.351562 101.808594 C 306.207031 102.945312 310.070312 103.46875 308.335938 100.484375 Z M 308.335938 100.484375 " fill-opacity="1" fill-rule="evenodd"/><path fill="#000000" d="M 215.828125 100.75 C 215.84375 100.710938 215.699219 100.921875 215.6875 100.949219 C 215.585938 101.121094 215.488281 101.292969 215.390625 101.46875 C 215.113281 101.957031 214.855469 102.457031 214.601562 102.957031 C 213.878906 104.386719 213.179688 105.828125 212.53125 107.292969 C 210.671875 111.488281 208.671875 115.996094 209.25 120.726562 C 209.40625 121.980469 209.777344 123.292969 210.519531 124.320312 C 210.800781 124.710938 211.164062 125.171875 211.644531 125.289062 C 212.527344 125.507812 213.441406 124.644531 213.976562 124.046875 C 215.265625 122.613281 216.09375 120.746094 216.625 118.890625 C 216.792969 118.300781 217.097656 117.351562 216.855469 116.738281 C 216.609375 116.117188 215.894531 117.371094 215.78125 117.558594 C 215.136719 118.621094 214.085938 120.609375 212.632812 119.28125 C 212.4375 119.101562 212.28125 118.875 212.160156 118.636719 C 211.4375 117.253906 211.675781 115.484375 211.953125 114.011719 C 212.457031 111.339844 213.585938 108.894531 214.664062 106.425781 C 215.324219 104.910156 217.0625 101.335938 215.828125 100.75 Z M 215.828125 100.75 " fill-opacity="1" fill-rule="evenodd"/><path fill="#000000" d="M 279.988281 46.175781 C 280.132812 46.253906 280.8125 46.074219 280.988281 46.066406 C 281.871094 46.023438 282.753906 46 283.640625 46.007812 C 286.410156 46.035156 289.164062 46.300781 291.894531 46.777344 C 293.136719 46.992188 295.332031 47.179688 295.46875 48.777344 C 295.359375 48.722656 295.449219 49.011719 295.417969 49.125 C 295.363281 49.34375 295.300781 49.558594 295.234375 49.769531 C 295.035156 50.402344 294.726562 51 294.414062 51.585938 C 293.484375 53.324219 292.148438 54.871094 290.886719 56.386719 C 289.867188 57.617188 288.800781 58.792969 287.703125 59.957031 C 287.199219 60.492188 286.652344 61.257812 285.980469 61.609375 C 285.300781 61.96875 284.34375 62.011719 283.59375 62.136719 C 282.222656 62.367188 280.859375 62.636719 279.496094 62.914062 C 278.34375 63.148438 277.199219 63.402344 276.039062 63.597656 C 275.628906 63.664062 275.03125 63.84375 274.617188 63.703125 C 274.179688 63.554688 275.09375 62.980469 275.199219 62.917969 C 276.261719 62.3125 277.398438 61.824219 278.492188 61.277344 C 281.128906 59.953125 283.71875 58.484375 286.21875 56.917969 C 286.832031 56.535156 287.449219 56.152344 288.074219 55.785156 C 288.160156 55.734375 288.65625 55.539062 288.675781 55.417969 C 288.742188 55.039062 287.597656 54.765625 287.394531 54.707031 C 285.804688 54.230469 284.082031 54.164062 282.429688 54.167969 C 280.617188 54.171875 278.804688 54.332031 277.019531 54.636719 C 276.570312 54.714844 276.125 54.824219 275.671875 54.882812 C 275.5625 54.898438 275.316406 54.945312 275.242188 54.820312 C 275.132812 54.636719 275.28125 54.261719 275.359375 54.09375 C 275.640625 53.472656 275.984375 52.875 276.34375 52.289062 C 276.679688 51.742188 277.007812 51.195312 277.332031 50.644531 C 277.867188 49.742188 279.453125 47.078125 279.988281 46.175781 Z M 279.988281 46.175781 " fill-opacity="1" fill-rule="evenodd"/><g clip-path="url(#75503f21aa)"><path fill="#000000" d="M 340.339844 57.722656 C 340.503906 56.769531 340.058594 55.5 339.851562 54.59375 C 339.21875 51.746094 338.265625 49.003906 337.273438 46.292969 C 334.667969 39.207031 330.90625 32.839844 326.460938 27.039062 C 323.347656 22.980469 319.851562 19.058594 315.707031 16.316406 C 311.804688 13.738281 307.429688 11.996094 303.074219 10.636719 C 301.695312 10.207031 300.316406 9.816406 298.90625 9.527344 C 298.304688 9.40625 297.699219 9.230469 297.085938 9.171875 C 297.070312 9.167969 296.59375 9.164062 296.605469 9.203125 C 296.84375 9.894531 298.808594 10.929688 299.316406 11.355469 C 301.640625 13.296875 303.835938 15.421875 305.871094 17.734375 C 311.808594 24.496094 316.9375 32.339844 321.039062 40.632812 C 323.015625 44.632812 324.742188 48.832031 326.09375 53.148438 C 326.515625 54.515625 326.894531 55.894531 327.210938 57.296875 C 327.347656 57.886719 327.351562 58.878906 327.667969 59.390625 C 328.234375 60.308594 329.476562 60.839844 330.328125 61.320312 C 331.710938 62.101562 334.355469 63.976562 334.355469 63.976562 C 334.355469 63.976562 335.8125 62.902344 336.398438 62.417969 C 337.671875 61.34375 339.453125 59.230469 340.339844 57.722656 Z M 340.339844 57.722656 " fill-opacity="1" fill-rule="evenodd"/></g><path fill="#000000" d="M 340.339844 82.617188 C 340.503906 83.570312 340.058594 84.839844 339.851562 85.746094 C 339.21875 88.59375 338.265625 91.335938 337.273438 94.046875 C 334.667969 101.132812 330.90625 107.5 326.460938 113.300781 C 323.347656 117.359375 319.851562 121.28125 315.707031 124.023438 C 311.804688 126.601562 307.429688 128.34375 303.074219 129.703125 C 301.695312 130.132812 300.316406 130.523438 298.90625 130.8125 C 298.304688 130.933594 297.699219 131.109375 297.085938 131.171875 C 297.070312 131.171875 296.59375 131.175781 296.605469 131.136719 C 296.84375 130.449219 298.808594 129.410156 299.316406 128.984375 C 301.640625 127.046875 303.835938 124.917969 305.871094 122.605469 C 311.808594 115.84375 316.9375 108 321.039062 99.707031 C 323.015625 95.707031 324.742188 91.507812 326.09375 87.191406 C 326.515625 85.824219 326.894531 84.445312 327.210938 83.042969 C 327.347656 82.453125 327.351562 81.460938 327.667969 80.949219 C 328.234375 80.03125 329.476562 79.503906 330.328125 79.019531 C 331.710938 78.238281 334.355469 76.363281 334.355469 76.363281 C 334.355469 76.363281 335.8125 77.4375 336.398438 77.921875 C 337.671875 78.996094 339.453125 81.109375 340.339844 82.617188 Z M 340.339844 82.617188 " fill-opacity="1" fill-rule="evenodd"/><path fill="#000000" d="M 350.171875 62.652344 L 350.121094 62.625 C 349.851562 62.507812 349.609375 62.402344 349.53125 62.347656 C 348.398438 61.597656 347.5 60.546875 346.8125 59.300781 C 345.976562 57.800781 345.582031 56.109375 345.046875 54.46875 C 344.449219 52.671875 343.683594 50.894531 342.621094 49.386719 C 341.882812 48.351562 341.035156 47.386719 340.113281 46.558594 C 339.8125 46.292969 339.507812 46.039062 339.1875 45.800781 C 339.164062 45.78125 338.851562 45.558594 338.691406 45.414062 C 338.597656 45.335938 338.542969 45.257812 338.507812 45.210938 C 338.398438 45.039062 338.398438 44.878906 338.410156 44.773438 C 338.425781 44.625 338.484375 44.5 338.582031 44.398438 C 338.71875 44.257812 338.992188 44.136719 339.347656 44.121094 C 339.824219 44.097656 340.492188 44.207031 340.703125 44.214844 C 342.882812 44.320312 345 45.113281 346.941406 46.191406 C 349.578125 47.664062 351.671875 49.96875 353.101562 52.84375 C 353.464844 53.570312 353.742188 54.402344 354.054688 55.210938 C 354.335938 55.929688 354.644531 56.632812 355.113281 57.183594 C 355.515625 57.65625 356.035156 57.9375 356.574219 58.195312 C 357.203125 58.496094 357.855469 58.761719 358.421875 59.15625 C 360.085938 60.320312 361.195312 62.359375 361.984375 64.316406 C 362.28125 65.0625 362.664062 65.957031 362.6875 66.792969 C 362.695312 67.027344 362.574219 67.246094 362.378906 67.351562 C 360.765625 68.222656 359.09375 68.972656 357.441406 69.753906 C 357.023438 69.949219 356.527344 70.132812 356.0625 70.355469 C 356.390625 70.527344 356.710938 70.695312 357.035156 70.863281 C 358.273438 71.5 359.519531 72.113281 360.75 72.777344 C 361.082031 72.960938 361.414062 73.140625 361.742188 73.332031 C 361.851562 73.390625 361.960938 73.453125 362.0625 73.519531 C 362.046875 73.507812 362.007812 73.488281 362.007812 73.488281 C 362.007812 73.488281 362.257812 73.617188 362.328125 73.691406 C 362.46875 73.863281 362.527344 74.066406 362.453125 74.324219 C 361.679688 77.03125 360.195312 79.785156 358.253906 81.621094 C 356.949219 82.855469 355.355469 83.5625 354.261719 85.085938 C 353.363281 86.332031 352.90625 87.875 352.238281 89.269531 C 351.417969 90.964844 350.359375 92.515625 349.027344 93.746094 C 347.253906 95.386719 345.257812 96.261719 342.980469 96.484375 C 342.289062 96.550781 341.597656 96.59375 340.90625 96.609375 C 340.652344 96.613281 340.402344 96.609375 340.144531 96.589844 C 340.101562 96.589844 340.019531 96.574219 339.941406 96.558594 C 339.78125 96.59375 339.617188 96.546875 339.492188 96.429688 C 339.285156 96.238281 339.28125 96.039062 339.285156 95.9375 C 339.285156 95.710938 339.371094 95.488281 339.632812 95.375 C 339.679688 95.355469 339.753906 95.335938 339.847656 95.332031 C 342.976562 94.222656 346.394531 91.398438 346.652344 87.464844 C 346.75 86 346.425781 84.601562 346.328125 83.152344 C 346.277344 82.351562 346.207031 81.449219 346.488281 80.6875 C 346.910156 79.527344 347.75 78.800781 348.71875 78.25 C 349.570312 77.769531 350.527344 77.429688 351.316406 76.976562 C 351.464844 76.890625 351.863281 76.691406 352.167969 76.445312 C 352.207031 76.410156 352.253906 76.367188 352.289062 76.324219 C 351.625 75.613281 350.542969 75.15625 349.757812 74.722656 C 347.769531 73.617188 345.738281 72.601562 343.671875 71.675781 C 342.855469 71.3125 342.042969 70.925781 341.21875 70.589844 C 341.09375 70.539062 340.925781 70.449219 340.753906 70.371094 C 340.726562 70.359375 340.679688 70.34375 340.640625 70.332031 C 340.589844 70.398438 340.519531 70.480469 340.5 70.507812 C 340.148438 70.921875 339.800781 71.332031 339.445312 71.738281 C 338.335938 73.003906 337.199219 74.230469 336.085938 75.492188 C 335.875 75.730469 335.585938 76.191406 335.269531 76.550781 C 334.976562 76.886719 334.65625 77.132812 334.367188 77.203125 C 334.175781 77.25 333.902344 77.203125 333.605469 77.03125 C 333.238281 76.820312 332.785156 76.40625 332.609375 76.296875 C 331.058594 75.382812 329.550781 74.371094 328.035156 73.378906 C 327.199219 72.828125 326.378906 72.246094 325.511719 71.75 C 325.320312 71.640625 324.902344 71.480469 324.625 71.285156 C 324.40625 71.132812 324.253906 70.949219 324.171875 70.773438 C 324.074219 70.558594 324.082031 70.328125 324.1875 70.105469 C 324.242188 69.992188 324.332031 69.871094 324.457031 69.765625 C 324.601562 69.640625 324.800781 69.53125 324.863281 69.488281 C 325.449219 69.101562 326.035156 68.71875 326.609375 68.308594 C 328.535156 66.929688 330.46875 65.570312 332.425781 64.246094 C 332.902344 63.929688 333.375 63.613281 333.84375 63.277344 C 333.875 63.257812 334.070312 63.125 334.136719 63.078125 C 334.199219 62.992188 334.273438 62.921875 334.371094 62.878906 C 334.554688 62.796875 334.761719 62.832031 334.914062 62.96875 C 336.378906 64.308594 338.554688 66.398438 340 67.761719 C 340.367188 68.105469 340.746094 68.421875 341.097656 68.773438 C 341.121094 68.792969 341.183594 68.859375 341.234375 68.914062 C 341.277344 68.886719 341.316406 68.855469 341.355469 68.828125 C 341.539062 68.695312 341.726562 68.550781 341.871094 68.476562 C 342.855469 67.972656 343.792969 67.363281 344.726562 66.75 C 345.59375 66.175781 346.394531 65.535156 347.179688 64.832031 C 348.019531 64.074219 348.941406 63.394531 349.886719 62.804688 C 349.949219 62.765625 350.058594 62.714844 350.171875 62.652344 Z M 340.542969 45.410156 C 340.589844 45.414062 340.628906 45.417969 340.664062 45.417969 C 342.683594 45.515625 344.652344 46.265625 346.453125 47.269531 C 348.902344 48.632812 350.835938 50.769531 352.164062 53.429688 C 352.890625 54.890625 353.285156 56.777344 354.332031 58.011719 C 354.832031 58.605469 355.472656 58.980469 356.144531 59.300781 C 356.726562 59.578125 357.328125 59.816406 357.847656 60.179688 C 359.328125 61.214844 360.296875 63.0625 360.996094 64.808594 C 361.199219 65.308594 361.46875 65.882812 361.566406 66.449219 C 360.074219 67.234375 358.539062 67.925781 357.019531 68.644531 C 356.265625 69.003906 355.273438 69.339844 354.609375 69.886719 C 354.4375 70.023438 354.394531 70.183594 354.382812 70.3125 C 354.363281 70.453125 354.386719 70.59375 354.460938 70.726562 C 354.507812 70.800781 354.582031 70.894531 354.703125 70.964844 C 354.746094 70.988281 354.878906 71.039062 354.914062 71.050781 C 355.039062 71.125 355.160156 71.199219 355.285156 71.269531 C 355.707031 71.507812 356.144531 71.730469 356.578125 71.953125 C 357.8125 72.589844 359.054688 73.203125 360.273438 73.863281 C 360.605469 74.039062 360.933594 74.21875 361.253906 74.402344 L 361.285156 74.421875 C 360.542969 76.769531 359.238281 79.113281 357.554688 80.703125 C 356.199219 81.988281 354.558594 82.746094 353.421875 84.332031 C 352.484375 85.632812 351.984375 87.242188 351.28125 88.703125 C 350.539062 90.261719 349.558594 91.6875 348.339844 92.820312 C 346.738281 94.296875 344.9375 95.082031 342.882812 95.285156 C 342.785156 95.292969 342.683594 95.304688 342.585938 95.3125 C 345.222656 93.671875 347.503906 90.953125 347.730469 87.554688 C 347.832031 86.027344 347.503906 84.574219 347.402344 83.0625 C 347.363281 82.441406 347.265625 81.734375 347.484375 81.144531 C 347.808594 80.261719 348.472656 79.742188 349.210938 79.324219 C 350.0625 78.839844 351.023438 78.5 351.808594 78.046875 C 352.078125 77.890625 352.945312 77.421875 353.25 76.929688 C 353.375 76.730469 353.4375 76.519531 353.4375 76.3125 C 353.4375 76.085938 353.375 75.851562 353.1875 75.625 C 352.453125 74.746094 351.171875 74.160156 350.238281 73.644531 C 348.222656 72.523438 346.167969 71.496094 344.078125 70.558594 C 343.433594 70.269531 342.785156 69.96875 342.140625 69.6875 C 342.203125 69.640625 342.265625 69.601562 342.324219 69.570312 C 343.335938 69.046875 344.308594 68.421875 345.273438 67.789062 C 346.183594 67.1875 347.03125 66.511719 347.855469 65.769531 C 348.648438 65.058594 349.519531 64.414062 350.410156 63.859375 C 350.578125 63.753906 350.984375 63.574219 351.222656 63.347656 C 351.441406 63.140625 351.5625 62.886719 351.574219 62.640625 C 351.585938 62.429688 351.511719 62.171875 351.277344 61.953125 C 350.984375 61.691406 350.234375 61.414062 350.078125 61.3125 C 349.101562 60.660156 348.328125 59.75 347.730469 58.667969 C 346.933594 57.238281 346.574219 55.617188 346.058594 54.054688 C 345.429688 52.140625 344.601562 50.246094 343.46875 48.640625 C 342.675781 47.53125 341.773438 46.5 340.785156 45.617188 C 340.703125 45.546875 340.625 45.476562 340.542969 45.410156 Z M 334.558594 64.203125 C 336 65.535156 337.964844 67.421875 339.308594 68.683594 C 339.542969 68.902344 339.777344 69.113281 340.011719 69.324219 C 339.898438 69.445312 339.773438 69.613281 339.71875 69.679688 C 339.371094 70.085938 339.027344 70.496094 338.679688 70.894531 C 337.570312 72.160156 336.425781 73.386719 335.316406 74.648438 C 335.109375 74.886719 334.8125 75.351562 334.496094 75.710938 C 334.394531 75.832031 334.296875 75.949219 334.195312 76.003906 C 334.109375 75.957031 333.890625 75.824219 333.753906 75.71875 C 333.484375 75.519531 333.238281 75.308594 333.113281 75.234375 C 331.574219 74.324219 330.082031 73.320312 328.582031 72.339844 C 327.722656 71.777344 326.890625 71.183594 326.003906 70.679688 C 325.894531 70.617188 325.714844 70.539062 325.527344 70.449219 C 326.089844 70.082031 326.644531 69.710938 327.191406 69.324219 C 329.109375 67.953125 331.035156 66.597656 332.988281 65.277344 C 333.46875 64.953125 333.953125 64.632812 334.429688 64.289062 C 334.453125 64.277344 334.496094 64.246094 334.558594 64.203125 Z M 334.558594 64.203125 " fill-opacity="1" fill-rule="evenodd"/><path fill="#000000" d="M 374.988281 70.75 L 362.328125 73.691406 L 355.726562 70.363281 L 362.363281 66.875 Z M 374.988281 70.75 " fill-opacity="1" fill-rule="evenodd"/><path fill="#000000" d="M 34.644531 63.917969 C 34.476562 62.964844 34.921875 61.695312 35.128906 60.789062 C 35.765625 57.941406 36.714844 55.199219 37.707031 52.484375 C 40.3125 45.402344 44.074219 39.035156 48.519531 33.234375 C 51.632812 29.175781 55.128906 25.253906 59.273438 22.511719 C 63.175781 19.933594 67.550781 18.191406 71.90625 16.832031 C 73.285156 16.398438 74.664062 16.011719 76.074219 15.722656 C 76.675781 15.601562 77.28125 15.425781 77.894531 15.363281 C 77.914062 15.363281 78.386719 15.359375 78.375 15.398438 C 78.136719 16.085938 76.171875 17.125 75.664062 17.550781 C 73.339844 19.488281 71.144531 21.617188 69.109375 23.929688 C 63.171875 30.691406 58.046875 38.535156 53.945312 46.828125 C 51.964844 50.828125 50.238281 55.027344 48.886719 59.34375 C 48.464844 60.710938 48.085938 62.089844 47.769531 63.492188 C 47.632812 64.078125 47.628906 65.074219 47.3125 65.585938 C 46.746094 66.503906 45.507812 67.03125 44.652344 67.515625 C 43.269531 68.292969 40.625 70.171875 40.625 70.171875 C 40.625 70.171875 39.167969 69.097656 38.585938 68.609375 C 37.308594 67.539062 35.53125 65.425781 34.644531 63.917969 Z M 34.644531 63.917969 " fill-opacity="1" fill-rule="evenodd"/><path fill="#000000" d="M 34.644531 88.808594 C 34.476562 89.765625 34.921875 91.035156 35.128906 91.941406 C 35.765625 94.789062 36.714844 97.53125 37.707031 100.242188 C 40.3125 107.324219 44.074219 113.695312 48.519531 119.496094 C 51.632812 123.554688 55.128906 127.476562 59.273438 130.21875 C 63.175781 132.792969 67.550781 134.535156 71.90625 135.898438 C 73.285156 136.328125 74.664062 136.71875 76.074219 137.003906 C 76.675781 137.128906 77.28125 137.304688 77.894531 137.363281 C 77.914062 137.367188 78.386719 137.371094 78.375 137.328125 C 78.136719 136.640625 76.171875 135.605469 75.664062 135.179688 C 73.339844 133.238281 71.144531 131.113281 69.109375 128.800781 C 63.171875 122.035156 58.046875 114.195312 53.945312 105.902344 C 51.964844 101.902344 50.238281 97.703125 48.886719 93.382812 C 48.464844 92.019531 48.085938 90.640625 47.769531 89.238281 C 47.632812 88.648438 47.628906 87.652344 47.3125 87.144531 C 46.746094 86.226562 45.507812 85.695312 44.652344 85.214844 C 43.269531 84.433594 40.625 82.558594 40.625 82.558594 C 40.625 82.558594 39.167969 83.632812 38.585938 84.117188 C 37.308594 85.191406 35.53125 87.300781 34.644531 88.808594 Z M 34.644531 88.808594 " fill-opacity="1" fill-rule="evenodd"/><path fill="#000000" d="M 24.808594 68.847656 L 24.859375 68.820312 C 25.128906 68.703125 25.371094 68.597656 25.449219 68.542969 C 26.582031 67.792969 27.480469 66.742188 28.167969 65.496094 C 29.003906 63.996094 29.398438 62.304688 29.933594 60.664062 C 30.53125 58.867188 31.296875 57.089844 32.359375 55.582031 C 33.097656 54.546875 33.945312 53.578125 34.867188 52.753906 C 35.167969 52.488281 35.472656 52.234375 35.792969 51.996094 C 35.816406 51.976562 36.128906 51.75 36.289062 51.609375 C 36.382812 51.53125 36.4375 51.453125 36.472656 51.40625 C 36.582031 51.230469 36.582031 51.074219 36.570312 50.96875 C 36.554688 50.820312 36.496094 50.695312 36.398438 50.59375 C 36.261719 50.453125 35.988281 50.332031 35.632812 50.316406 C 35.15625 50.289062 34.488281 50.398438 34.277344 50.410156 C 32.097656 50.515625 29.980469 51.308594 28.042969 52.386719 C 25.402344 53.859375 23.3125 56.164062 21.878906 59.039062 C 21.515625 59.765625 21.238281 60.597656 20.925781 61.402344 C 20.644531 62.125 20.335938 62.828125 19.867188 63.378906 C 19.464844 63.851562 18.945312 64.132812 18.40625 64.390625 C 17.777344 64.691406 17.125 64.957031 16.558594 65.351562 C 14.894531 66.511719 13.785156 68.554688 12.996094 70.507812 C 12.699219 71.257812 12.316406 72.152344 12.292969 72.988281 C 12.289062 73.222656 12.40625 73.441406 12.601562 73.546875 C 14.214844 74.417969 15.886719 75.164062 17.539062 75.949219 C 17.957031 76.144531 18.453125 76.328125 18.917969 76.550781 C 18.589844 76.722656 18.269531 76.890625 17.945312 77.054688 C 16.710938 77.695312 15.460938 78.308594 14.230469 78.972656 C 13.902344 79.152344 13.570312 79.335938 13.238281 79.523438 C 13.128906 79.585938 13.019531 79.644531 12.917969 79.714844 C 12.933594 79.703125 12.972656 79.683594 12.972656 79.683594 C 12.972656 79.683594 12.722656 79.8125 12.652344 79.886719 C 12.511719 80.058594 12.453125 80.261719 12.527344 80.519531 C 13.300781 83.226562 14.785156 85.980469 16.726562 87.816406 C 18.03125 89.050781 19.625 89.757812 20.71875 91.28125 C 21.617188 92.523438 22.074219 94.070312 22.746094 95.464844 C 23.5625 97.160156 24.621094 98.710938 25.953125 99.941406 C 27.726562 101.582031 29.722656 102.457031 32 102.679688 C 32.691406 102.746094 33.382812 102.789062 34.078125 102.804688 C 34.328125 102.808594 34.578125 102.804688 34.835938 102.785156 C 34.878906 102.785156 34.964844 102.765625 35.039062 102.753906 C 35.199219 102.789062 35.363281 102.742188 35.488281 102.625 C 35.695312 102.433594 35.699219 102.234375 35.695312 102.132812 C 35.695312 101.90625 35.609375 101.683594 35.347656 101.570312 C 35.300781 101.550781 35.226562 101.527344 35.132812 101.527344 C 32.003906 100.417969 28.585938 97.589844 28.328125 93.660156 C 28.230469 92.195312 28.554688 90.796875 28.652344 89.347656 C 28.703125 88.546875 28.773438 87.644531 28.492188 86.878906 C 28.070312 85.722656 27.230469 84.992188 26.261719 84.445312 C 25.410156 83.964844 24.453125 83.621094 23.664062 83.167969 C 23.515625 83.082031 23.117188 82.886719 22.8125 82.636719 C 22.773438 82.605469 22.726562 82.558594 22.691406 82.519531 C 23.355469 81.808594 24.4375 81.351562 25.222656 80.914062 C 27.210938 79.808594 29.242188 78.796875 31.308594 77.871094 C 32.125 77.503906 32.9375 77.121094 33.761719 76.785156 C 33.886719 76.734375 34.054688 76.644531 34.226562 76.566406 C 34.253906 76.554688 34.300781 76.539062 34.339844 76.527344 C 34.390625 76.59375 34.460938 76.675781 34.484375 76.703125 C 34.832031 77.113281 35.179688 77.527344 35.535156 77.933594 C 36.644531 79.199219 37.785156 80.425781 38.894531 81.6875 C 39.105469 81.925781 39.394531 82.386719 39.710938 82.746094 C 40.003906 83.082031 40.324219 83.328125 40.613281 83.398438 C 40.804688 83.445312 41.078125 83.398438 41.375 83.226562 C 41.742188 83.015625 42.195312 82.601562 42.371094 82.492188 C 43.921875 81.578125 45.429688 80.5625 46.949219 79.574219 C 47.78125 79.023438 48.601562 78.441406 49.46875 77.945312 C 49.660156 77.835938 50.078125 77.675781 50.355469 77.476562 C 50.574219 77.328125 50.730469 77.144531 50.808594 76.96875 C 50.90625 76.75 50.898438 76.523438 50.792969 76.300781 C 50.738281 76.1875 50.648438 76.0625 50.523438 75.960938 C 50.378906 75.835938 50.179688 75.726562 50.117188 75.683594 C 49.53125 75.296875 48.945312 74.910156 48.371094 74.503906 C 46.445312 73.125 44.511719 71.765625 42.554688 70.441406 C 42.078125 70.121094 41.605469 69.808594 41.136719 69.472656 C 41.105469 69.449219 40.914062 69.320312 40.84375 69.273438 C 40.78125 69.183594 40.707031 69.117188 40.609375 69.074219 C 40.425781 68.992188 40.21875 69.027344 40.066406 69.164062 C 38.601562 70.503906 36.425781 72.59375 34.980469 73.957031 C 34.613281 74.296875 34.238281 74.617188 33.882812 74.964844 C 33.859375 74.988281 33.796875 75.050781 33.746094 75.109375 C 33.703125 75.082031 33.664062 75.050781 33.625 75.019531 C 33.441406 74.890625 33.253906 74.746094 33.109375 74.671875 C 32.125 74.167969 31.1875 73.558594 30.253906 72.945312 C 29.386719 72.371094 28.585938 71.730469 27.800781 71.027344 C 26.960938 70.269531 26.039062 69.589844 25.09375 69 C 25.03125 68.960938 24.921875 68.910156 24.808594 68.847656 Z M 34.4375 51.605469 C 34.390625 51.609375 34.351562 51.613281 34.316406 51.613281 C 32.296875 51.710938 30.328125 52.460938 28.527344 53.464844 C 26.078125 54.828125 24.144531 56.964844 22.820312 59.625 C 22.09375 61.085938 21.699219 62.972656 20.652344 64.203125 C 20.148438 64.800781 19.507812 65.175781 18.835938 65.496094 C 18.253906 65.773438 17.652344 66.007812 17.132812 66.371094 C 15.652344 67.410156 14.683594 69.257812 13.984375 71.003906 C 13.78125 71.503906 13.511719 72.078125 13.414062 72.644531 C 14.90625 73.429688 16.441406 74.121094 17.960938 74.839844 C 18.71875 75.195312 19.707031 75.535156 20.371094 76.082031 C 20.542969 76.21875 20.585938 76.378906 20.597656 76.507812 C 20.617188 76.648438 20.59375 76.789062 20.519531 76.921875 C 20.472656 76.996094 20.398438 77.089844 20.277344 77.160156 C 20.234375 77.183594 20.101562 77.234375 20.066406 77.246094 C 19.941406 77.320312 19.820312 77.394531 19.695312 77.464844 C 19.273438 77.703125 18.835938 77.925781 18.402344 78.148438 C 17.167969 78.785156 15.925781 79.394531 14.707031 80.058594 C 14.375 80.234375 14.050781 80.414062 13.730469 80.597656 L 13.695312 80.617188 C 14.4375 82.964844 15.742188 85.308594 17.425781 86.898438 C 18.78125 88.183594 20.421875 88.941406 21.558594 90.527344 C 22.5 91.828125 22.996094 93.4375 23.699219 94.894531 C 24.441406 96.453125 25.421875 97.882812 26.640625 99.015625 C 28.242188 100.492188 30.042969 101.277344 32.097656 101.480469 C 32.195312 101.488281 32.296875 101.5 32.394531 101.507812 C 29.757812 99.867188 27.476562 97.148438 27.253906 93.75 C 27.148438 92.222656 27.476562 90.765625 27.578125 89.257812 C 27.617188 88.636719 27.714844 87.929688 27.496094 87.335938 C 27.171875 86.457031 26.507812 85.9375 25.769531 85.519531 C 24.917969 85.035156 23.957031 84.695312 23.171875 84.238281 C 22.90625 84.085938 22.035156 83.617188 21.730469 83.125 C 21.605469 82.925781 21.542969 82.714844 21.542969 82.507812 C 21.542969 82.28125 21.605469 82.042969 21.792969 81.820312 C 22.527344 80.941406 23.808594 80.355469 24.742188 79.835938 C 26.761719 78.71875 28.8125 77.691406 30.902344 76.753906 C 31.546875 76.464844 32.195312 76.164062 32.839844 75.882812 C 32.777344 75.835938 32.714844 75.792969 32.65625 75.765625 C 31.644531 75.242188 30.671875 74.617188 29.707031 73.980469 C 28.796875 73.378906 27.949219 72.707031 27.125 71.964844 C 26.332031 71.25 25.460938 70.609375 24.570312 70.054688 C 24.402344 69.949219 23.996094 69.769531 23.757812 69.542969 C 23.539062 69.335938 23.417969 69.082031 23.40625 68.832031 C 23.394531 68.625 23.472656 68.363281 23.707031 68.148438 C 23.996094 67.886719 24.746094 67.609375 24.902344 67.507812 C 25.878906 66.855469 26.652344 65.941406 27.253906 64.863281 C 28.046875 63.433594 28.40625 61.8125 28.921875 60.25 C 29.550781 58.335938 30.382812 56.441406 31.515625 54.835938 C 32.304688 53.726562 33.207031 52.695312 34.195312 51.8125 C 34.277344 51.742188 34.355469 51.671875 34.4375 51.605469 Z M 40.421875 70.398438 C 38.980469 71.730469 37.015625 73.613281 35.671875 74.878906 C 35.4375 75.097656 35.203125 75.304688 34.96875 75.519531 C 35.082031 75.640625 35.210938 75.808594 35.261719 75.875 C 35.609375 76.28125 35.953125 76.6875 36.300781 77.089844 C 37.410156 78.355469 38.554688 79.582031 39.664062 80.84375 C 39.871094 81.082031 40.167969 81.542969 40.484375 81.90625 C 40.585938 82.023438 40.683594 82.144531 40.785156 82.199219 C 40.871094 82.152344 41.089844 82.019531 41.226562 81.914062 C 41.496094 81.710938 41.742188 81.503906 41.867188 81.429688 C 43.40625 80.519531 44.898438 79.515625 46.398438 78.535156 C 47.257812 77.972656 48.089844 77.378906 48.976562 76.875 C 49.085938 76.8125 49.265625 76.734375 49.453125 76.644531 C 48.890625 76.277344 48.335938 75.90625 47.789062 75.515625 C 45.871094 74.148438 43.945312 72.789062 41.992188 71.472656 C 41.511719 71.148438 41.027344 70.828125 40.550781 70.484375 C 40.527344 70.472656 40.484375 70.4375 40.421875 70.398438 Z M 40.421875 70.398438 " fill-opacity="1" fill-rule="evenodd"/><path fill="#000000" d="M -0.0078125 76.945312 L 12.652344 79.886719 L 19.253906 76.558594 L 12.617188 73.070312 Z M -0.0078125 76.945312 " fill-opacity="1" fill-rule="evenodd"/><path fill="#000000" d="M 189.960938 28.921875 C 190.3125 28.464844 190.511719 27.847656 190.789062 27.355469 C 191.445312 26.179688 192.132812 25.011719 192.96875 23.917969 C 192.949219 23.964844 193.070312 24.101562 193.089844 24.144531 C 193.203125 24.34375 193.296875 24.550781 193.390625 24.757812 C 193.8125 25.6875 194.253906 26.609375 194.667969 27.542969 C 195.742188 29.964844 196.882812 32.363281 197.898438 34.804688 C 198.160156 35.441406 198.414062 36.082031 198.632812 36.726562 C 198.832031 37.324219 199.03125 37.964844 198.898438 38.589844 C 198.875 38.683594 198.84375 38.945312 198.722656 38.996094 C 198.65625 39.023438 198.554688 38.941406 198.511719 38.910156 C 198.324219 38.777344 198.152344 38.628906 197.984375 38.480469 C 197.398438 37.96875 196.824219 37.445312 196.269531 36.90625 C 196.117188 36.757812 195.441406 36.105469 195.40625 36.679688 C 195.402344 36.738281 195.402344 36.796875 195.410156 36.851562 C 195.417969 36.9375 195.4375 37.019531 195.460938 37.101562 C 195.652344 37.0625 195.503906 37.433594 195.519531 37.601562 C 195.550781 37.890625 195.574219 38.179688 195.597656 38.46875 C 195.667969 39.363281 195.714844 40.257812 195.785156 41.152344 C 196.007812 43.90625 196.253906 46.648438 196.59375 49.390625 C 197.601562 57.570312 197.972656 66.761719 198.921875 74.945312 C 198.949219 74.949219 198.976562 75.28125 198.976562 75.304688 C 199.035156 75.710938 199.097656 76.117188 199.152344 76.523438 C 199.386719 78.242188 199.5 79.972656 199.617188 81.703125 C 199.855469 85.246094 200.277344 88.777344 200.320312 92.332031 C 200.339844 93.96875 200.386719 95.652344 200.03125 97.269531 C 199.605469 99.203125 198.773438 101.183594 197.601562 102.882812 C 197.300781 103.320312 196.960938 103.722656 196.574219 104.105469 C 196.519531 104.160156 196.28125 104.472656 196.183594 104.378906 C 195.875 104.085938 196.273438 102.917969 196.304688 102.585938 C 196.453125 100.96875 196.378906 99.347656 196.34375 97.730469 C 196.296875 95.917969 196.265625 94.101562 196.1875 92.289062 C 196.058594 89.28125 195.847656 86.292969 195.558594 83.296875 C 195.722656 83.375 195.515625 82.96875 195.496094 82.808594 C 195.46875 82.527344 195.4375 82.25 195.40625 81.972656 C 195.308594 81.042969 195.214844 80.117188 195.128906 79.1875 C 194.867188 76.433594 194.582031 73.671875 194.425781 70.910156 C 193.949219 62.535156 193.238281 54.15625 192.414062 45.800781 C 192.480469 45.78125 192.398438 45.675781 192.394531 45.613281 C 192.378906 45.359375 192.351562 45.105469 192.332031 44.851562 C 192.25 43.839844 192.183594 42.828125 192.101562 41.820312 C 191.867188 38.933594 191.625 36.050781 191.34375 33.164062 C 191.273438 32.445312 191.207031 31.726562 191.144531 31.007812 C 191.117188 30.699219 191.152344 30.207031 190.972656 29.925781 C 190.816406 29.679688 190.210938 29.085938 189.960938 28.921875 Z M 189.960938 28.921875 " fill-opacity="1" fill-rule="evenodd"/><path fill="#000000" d="M 125.578125 140.714844 C 125.601562 140.710938 126.335938 140.808594 126.375 140.808594 C 127.246094 140.804688 128.113281 140.644531 128.96875 140.488281 C 132.191406 139.902344 135.464844 139.523438 138.601562 138.457031 C 138.644531 138.324219 139.648438 138.054688 139.964844 137.925781 C 141.375 137.339844 142.773438 136.722656 144.175781 136.113281 C 146.914062 134.921875 149.628906 133.703125 152.335938 132.414062 C 154.269531 131.492188 156.289062 130.632812 158.058594 129.289062 C 159.738281 128.007812 161.601562 125.792969 161.578125 123.238281 C 161.578125 123.238281 161.578125 123.234375 161.578125 123.230469 L 161.578125 123.238281 C 161.589844 123.324219 161.886719 123.5625 161.929688 123.601562 C 162.339844 123.988281 162.78125 124.367188 163.25 124.648438 C 164.640625 125.488281 166.140625 126.0625 167.707031 126.148438 C 168.167969 126.171875 168.988281 126.269531 169.335938 125.792969 C 169.34375 125.84375 169.378906 125.703125 169.398438 125.65625 C 169.433594 125.570312 169.464844 125.480469 169.492188 125.390625 C 169.574219 125.140625 169.648438 124.886719 169.710938 124.628906 C 169.921875 123.792969 170.070312 122.953125 170.023438 122.078125 C 169.886719 119.609375 168.277344 116.21875 165.578125 116.351562 C 165.46875 116.457031 165.292969 116.515625 165.171875 116.601562 C 164.878906 116.804688 164.597656 117.039062 164.335938 117.296875 C 163.402344 118.21875 162.648438 119.410156 161.980469 120.605469 C 162.003906 120.601562 161.933594 120.753906 161.925781 120.777344 C 161.871094 120.910156 161.820312 121.039062 161.769531 121.171875 C 161.625 121.546875 161.476562 121.921875 161.332031 122.300781 C 160.78125 123.753906 159.839844 124.632812 158.757812 125.519531 C 158.769531 125.371094 158.550781 125.699219 158.445312 125.785156 C 158.214844 125.972656 157.972656 126.144531 157.734375 126.3125 C 156.992188 126.824219 156.226562 127.292969 155.453125 127.730469 C 153.125 129.042969 150.722656 130.191406 148.292969 131.214844 C 140.789062 134.375 133.183594 138.023438 125.578125 140.714844 Z M 167.65625 122.773438 C 167.730469 122.46875 167.660156 122.082031 167.609375 121.78125 C 167.546875 121.40625 167.457031 121.011719 167.28125 120.6875 C 166.847656 119.898438 165.996094 119.664062 165.25 119.746094 C 164.6875 119.808594 164.039062 119.953125 163.871094 120.691406 C 163.84375 120.816406 163.808594 121.003906 163.847656 121.132812 C 163.839844 121.152344 163.984375 121.269531 163.996094 121.277344 C 164.179688 121.433594 164.367188 121.574219 164.566406 121.695312 C 165.378906 122.183594 167.285156 122.820312 167.65625 122.773438 Z M 167.65625 122.773438 " fill-opacity="1" fill-rule="evenodd"/><path fill="#000000" d="M 125.242188 25.511719 C 125.257812 25.546875 125.234375 25.441406 125.222656 25.410156 C 125.195312 25.335938 125.160156 25.265625 125.121094 25.203125 C 125 24.992188 124.835938 24.773438 124.597656 24.941406 C 123.949219 25.398438 123.492188 26.453125 123.128906 27.152344 C 121.960938 29.417969 120.921875 31.742188 120.152344 34.203125 C 119.765625 35.441406 119.324219 36.765625 119.550781 38.089844 C 119.617188 38.496094 119.742188 38.894531 119.917969 39.257812 C 121.1875 41.90625 124.753906 41.652344 126.757812 40.214844 C 129.136719 38.507812 129.015625 34.335938 127.605469 32.019531 C 126.746094 30.605469 125.574219 29.394531 124.289062 28.445312 C 124.238281 28.515625 124.332031 28.273438 124.367188 28.195312 C 124.449219 28.011719 124.539062 27.832031 124.632812 27.648438 C 124.894531 27.121094 125.261719 25.941406 125.242188 25.511719 Z M 122.71875 31.875 C 122.726562 31.863281 122.726562 31.859375 122.714844 31.871094 L 122.71875 31.875 C 122.703125 31.902344 122.648438 31.976562 122.628906 32.011719 C 122.574219 32.109375 122.519531 32.207031 122.46875 32.308594 C 122.320312 32.59375 122.183594 32.886719 122.058594 33.1875 C 121.671875 34.085938 121.34375 35.421875 121.773438 36.371094 C 121.988281 36.839844 122.410156 37.082031 122.851562 37.230469 C 123.777344 37.542969 124.699219 37.34375 125.609375 37.058594 C 125.957031 36.949219 126.457031 36.828125 126.734375 36.5625 C 126.839844 36.460938 126.796875 36.300781 126.75 36.179688 C 126.617188 35.828125 126.375 35.53125 126.152344 35.242188 C 125.273438 34.09375 123.765625 32.839844 122.71875 31.875 Z M 122.71875 31.875 " fill-opacity="1" fill-rule="evenodd"/><path fill="#000000" d="M 90.894531 73.605469 C 92.613281 71.910156 94.644531 71.167969 94.652344 71.0625 C 94.695312 70.039062 94.433594 67.816406 94.457031 66.789062 C 94.464844 66.53125 94.554688 65.785156 94.171875 65.71875 C 93.109375 65.53125 91.214844 67.851562 90.585938 68.464844 C 88.359375 70.644531 86.25 73.042969 84.820312 75.832031 C 84.15625 77.128906 83.496094 78.625 83.746094 80.121094 C 84.203125 82.871094 87.042969 83.03125 89.328125 82.75 C 89.921875 82.675781 91.890625 82.175781 91.710938 83.367188 C 91.226562 86.554688 86.789062 88.488281 84.195312 89.3125 C 83.09375 89.664062 81.984375 89.980469 80.867188 90.285156 C 80.742188 90.320312 79.925781 90.476562 80.039062 90.738281 C 80.164062 91.027344 80.753906 91.148438 81.011719 91.21875 C 82.078125 91.503906 83.210938 91.597656 84.308594 91.660156 C 89.808594 91.957031 93.488281 88.886719 95.746094 84.050781 C 96.109375 83.277344 96.46875 82.496094 96.757812 81.691406 C 96.917969 81.253906 97.046875 80.804688 97.105469 80.339844 C 97.476562 77.386719 93.941406 77.347656 91.839844 77.222656 C 91.179688 77.183594 89.320312 77.28125 89.15625 76.339844 C 88.984375 75.328125 90.269531 74.222656 90.894531 73.605469 Z M 90.894531 73.605469 " fill-opacity="1" fill-rule="evenodd"/><path fill="#000000" d="M 174.394531 108.667969 C 174.394531 108.667969 174.394531 108.664062 174.402344 108.667969 L 174.394531 108.667969 C 174.394531 108.703125 177.199219 113.1875 178.128906 114.027344 C 181.097656 116.707031 186.6875 119.003906 189.5 114.425781 C 194.226562 106.742188 183.746094 95.882812 175.777344 100.664062 C 174.042969 95.621094 173.472656 89.929688 172.703125 84.675781 C 171.1875 74.429688 169.464844 54.445312 168.976562 44.101562 C 169.597656 43.835938 172.53125 47.109375 173.359375 45.804688 C 173.878906 44.996094 172.855469 43.042969 172.582031 42.300781 C 171.355469 38.945312 169.972656 35.640625 168.613281 32.335938 C 168.441406 31.914062 167.304688 28.3125 166.628906 28.585938 C 166.03125 28.824219 165.605469 29.765625 165.300781 30.273438 C 164.503906 31.597656 161.597656 34.859375 162.417969 36.5 C 162.945312 37.5625 164.992188 38.460938 165.207031 39.597656 C 165.582031 41.609375 165.09375 44.128906 165.078125 46.167969 C 164.980469 57.730469 165.929688 69.15625 167.042969 80.644531 C 167.789062 88.28125 168.535156 96.726562 172.332031 103.5625 C 172.105469 103.984375 171.1875 104.203125 170.808594 104.394531 C 169.257812 105.175781 167.726562 105.859375 166.042969 106.296875 C 155.933594 108.925781 148.753906 98.351562 146.769531 89.976562 C 142.9375 73.8125 142.730469 56.828125 139.585938 40.519531 C 138.820312 36.542969 137.898438 32.636719 136.328125 28.890625 C 136.203125 28.59375 135.222656 25.738281 134.753906 25.777344 C 134.511719 25.796875 134.40625 26.890625 134.378906 27.035156 C 134.144531 28.226562 134.007812 29.4375 133.804688 30.632812 C 133.457031 32.714844 132.539062 35.148438 132.566406 37.253906 C 132.601562 39.746094 134.234375 42.894531 134.867188 45.300781 C 138.546875 59.230469 140.648438 73.640625 141.496094 88.015625 C 141.863281 94.257812 142.96875 101.941406 136.050781 104.640625 C 129.417969 107.226562 125.152344 102.839844 123.3125 96.742188 C 121.566406 90.964844 121.179688 84.570312 120.527344 78.597656 C 119.171875 66.191406 118.546875 53.808594 115.941406 41.566406 C 115.011719 37.214844 114.011719 32.851562 112.71875 28.59375 C 112.617188 28.25 111.863281 25.136719 111.332031 25.101562 C 111.238281 25.097656 111.125 26.347656 111.113281 26.421875 C 110.851562 28.160156 110.683594 29.902344 110.5 31.648438 C 110.199219 34.519531 109.09375 37.832031 109.308594 40.710938 C 109.410156 42.121094 110.269531 43.5625 110.730469 44.878906 C 111.535156 47.199219 112.230469 49.566406 112.746094 51.964844 C 114.0625 58.085938 115.070312 64.339844 115.945312 70.535156 C 117.308594 80.230469 118.015625 90.0625 118.015625 99.851562 C 117.054688 100.15625 115.746094 101.71875 114.910156 102.308594 C 112.417969 104.066406 109.804688 105.691406 107.136719 107.171875 C 96.507812 113.0625 81.019531 118.53125 69.128906 113.457031 C 63.152344 110.902344 60.375 105.351562 60.703125 99.050781 C 60.820312 96.804688 61.214844 94.589844 61.707031 92.402344 C 61.875 91.660156 62.039062 90.917969 62.167969 90.167969 C 62.226562 89.84375 62.632812 89.042969 62.339844 89.195312 C 61.882812 89.441406 61.464844 91.035156 61.277344 91.46875 C 60.214844 93.9375 59.457031 96.507812 58.851562 99.125 C 58.105469 102.375 57.515625 105.773438 58.019531 109.109375 C 59.296875 117.570312 67.5625 121.886719 75.34375 122.742188 C 86.65625 123.984375 100.335938 120.125 109.847656 113.972656 C 112.9375 111.972656 115.765625 109.316406 117.816406 106.257812 C 118.53125 105.1875 119.238281 104.089844 119.863281 102.957031 C 120.097656 102.53125 120.324219 102.097656 120.523438 101.652344 C 120.613281 101.460938 120.617188 100.949219 120.785156 101.074219 C 120.898438 101.164062 120.867188 102.246094 120.890625 102.398438 C 121.074219 103.527344 121.382812 104.652344 121.753906 105.734375 C 123.238281 110.089844 126.363281 112.75 131.125 112.445312 C 135.367188 112.175781 139.328125 109.847656 141.335938 106.066406 C 142.082031 104.667969 142.625 103.140625 143.0625 101.621094 C 143.105469 101.484375 143.59375 99.515625 143.679688 99.554688 C 144.054688 99.726562 144.480469 101.71875 144.65625 102.097656 C 145.464844 103.855469 146.640625 105.59375 148.054688 106.921875 C 154.910156 113.363281 166.480469 113.644531 174.394531 108.667969 Z M 178.464844 106.515625 C 178.523438 106.582031 178.621094 106.433594 178.699219 106.410156 C 178.851562 106.363281 179.011719 106.328125 179.164062 106.300781 C 179.648438 106.222656 180.136719 106.226562 180.621094 106.261719 C 182.210938 106.375 184.132812 106.777344 185.125 108.15625 C 185.773438 109.050781 185.792969 110.257812 185.40625 111.265625 C 185.207031 111.804688 184.886719 112.242188 184.246094 112.125 C 183.582031 112.003906 182.972656 111.539062 182.460938 111.121094 C 181.429688 110.28125 179.285156 107.566406 178.464844 106.515625 Z M 178.464844 106.515625 " fill-opacity="1" fill-rule="evenodd"/></svg>