<svg xmlns="http://www.w3.org/2000/svg" xmlns:xlink="http://www.w3.org/1999/xlink" width="500" zoomAndPan="magnify" viewBox="0 0 375 149.999998" height="200" preserveAspectRatio="xMidYMid meet" version="1.0"><defs><clipPath id="322477de0b"><path d="M 296 10.3125 L 341 10.3125 L 341 66 L 296 66 Z M 296 10.3125 " clip-rule="nonzero"/></clipPath></defs><path fill="#000000" d="M 159.726562 109.898438 C 159.714844 109.871094 159.667969 109.917969 159.632812 109.917969 C 159.5625 109.917969 159.488281 109.902344 159.425781 109.863281 C 159.261719 109.761719 159.179688 109.542969 159.144531 109.371094 C 159.03125 108.804688 159.222656 108.210938 159.433594 107.6875 C 160.023438 106.21875 161.519531 104.464844 163.335938 104.507812 C 163.5 104.511719 163.699219 104.644531 163.835938 104.722656 C 164.203125 104.9375 164.542969 105.183594 164.859375 105.464844 C 165.867188 106.351562 166.839844 107.269531 167.777344 108.222656 C 168.03125 108.484375 168.273438 108.75 168.5 109.03125 C 168.605469 109.160156 168.742188 109.320312 168.765625 109.488281 C 168.792969 109.46875 168.765625 109.554688 168.757812 109.589844 C 168.75 109.660156 168.730469 109.730469 168.714844 109.800781 C 168.667969 110 168.613281 110.195312 168.539062 110.386719 C 168.320312 110.941406 168.0625 111.570312 167.609375 111.992188 C 167.578125 112.023438 167.332031 112.027344 167.296875 112.03125 C 166.949219 112.050781 166.605469 112.054688 166.257812 112.066406 C 164.824219 112.121094 163.433594 112.214844 162.0625 112.636719 C 162.058594 112.628906 161.996094 112.652344 161.992188 112.652344 C 161.90625 112.683594 161.820312 112.710938 161.734375 112.742188 C 161.363281 112.875 160.988281 113.003906 160.628906 113.171875 C 159.539062 113.675781 158.699219 114.664062 158.828125 115.867188 C 158.828125 115.828125 158.824219 115.941406 158.828125 115.976562 C 158.835938 116.054688 158.84375 116.128906 158.851562 116.207031 C 158.886719 116.429688 158.929688 116.652344 158.96875 116.875 C 159.089844 117.527344 159.253906 118.171875 159.40625 118.820312 C 159.855469 120.746094 160.367188 122.644531 160.96875 124.53125 C 160.921875 124.570312 160.996094 124.75 161.007812 124.789062 C 161.074219 125.089844 161.136719 125.390625 161.195312 125.695312 C 161.425781 126.882812 161.679688 128.066406 161.878906 129.261719 C 162.316406 131.902344 162.589844 134.613281 162.199219 137.28125 C 162.105469 137.941406 161.914062 138.59375 161.5 139.136719 C 161.355469 139.324219 161.058594 139.671875 160.796875 139.441406 C 160.460938 139.140625 160.933594 138.125 160.976562 137.757812 C 161.183594 136.097656 161.296875 134.4375 161.109375 132.769531 C 160.933594 131.199219 160.382812 129.273438 160.007812 127.734375 C 159.820312 126.964844 159.542969 126.15625 159.335938 125.390625 C 158.867188 123.648438 158.449219 121.894531 158.050781 120.136719 C 157.621094 118.214844 156.988281 116.03125 157.511719 114.074219 C 157.523438 114.023438 157.554688 113.910156 157.574219 113.859375 C 157.652344 113.660156 157.730469 113.460938 157.808594 113.261719 C 158.023438 112.726562 158.277344 112.214844 158.640625 111.753906 C 159.949219 110.097656 162.261719 109.480469 164.316406 109.183594 C 164.324219 109.210938 164.277344 109.140625 164.257812 109.117188 C 164.214844 109.070312 164.171875 109.023438 164.132812 108.976562 C 164.015625 108.847656 163.898438 108.714844 163.777344 108.589844 C 163.398438 108.199219 162.992188 107.875 162.4375 107.75 C 161.847656 107.617188 161.078125 107.820312 160.652344 108.242188 C 160.304688 108.589844 159.890625 109.445312 159.726562 109.898438 Z M 159.726562 109.898438 " fill-opacity="1" fill-rule="evenodd"/><path fill="#000000" d="M 187.585938 29.988281 C 187.9375 29.535156 188.136719 28.917969 188.414062 28.425781 C 189.070312 27.25 189.757812 26.078125 190.59375 24.988281 C 190.570312 25.035156 190.691406 25.171875 190.714844 25.214844 C 190.828125 25.414062 190.921875 25.621094 191.015625 25.828125 C 191.4375 26.757812 191.878906 27.679688 192.292969 28.609375 C 193.363281 31.03125 194.507812 33.429688 195.519531 35.871094 C 195.78125 36.503906 196.035156 37.144531 196.253906 37.789062 C 196.453125 38.386719 196.652344 39.023438 196.515625 39.648438 C 196.496094 39.746094 196.464844 40.003906 196.34375 40.058594 C 196.277344 40.085938 196.175781 40.003906 196.132812 39.972656 C 195.945312 39.839844 195.773438 39.691406 195.605469 39.542969 C 195.019531 39.027344 194.445312 38.507812 193.890625 37.96875 C 193.738281 37.820312 193.066406 37.167969 193.027344 37.742188 C 193.023438 37.800781 193.027344 37.859375 193.03125 37.914062 C 193.039062 38 193.058594 38.082031 193.085938 38.164062 C 193.273438 38.125 193.125 38.496094 193.140625 38.664062 C 193.175781 38.953125 193.195312 39.242188 193.21875 39.53125 C 193.289062 40.425781 193.339844 41.320312 193.410156 42.210938 C 193.628906 44.964844 193.875 47.703125 194.214844 50.445312 C 195.222656 58.621094 195.59375 67.808594 196.542969 75.984375 C 196.566406 75.988281 196.59375 76.320312 196.597656 76.34375 C 196.652344 76.75 196.714844 77.15625 196.773438 77.5625 C 197.007812 79.28125 197.117188 81.007812 197.234375 82.738281 C 197.476562 86.28125 197.898438 89.808594 197.9375 93.363281 C 197.957031 94.996094 198.007812 96.675781 197.648438 98.292969 C 197.222656 100.226562 196.390625 102.207031 195.222656 103.90625 C 194.921875 104.339844 194.582031 104.746094 194.195312 105.128906 C 194.140625 105.183594 193.90625 105.496094 193.804688 105.398438 C 193.496094 105.109375 193.894531 103.941406 193.925781 103.605469 C 194.074219 101.992188 194.003906 100.371094 193.964844 98.757812 C 193.917969 96.941406 193.886719 95.128906 193.808594 93.316406 C 193.679688 90.3125 193.46875 87.324219 193.179688 84.328125 C 193.34375 84.40625 193.136719 84.003906 193.121094 83.84375 C 193.089844 83.5625 193.058594 83.285156 193.027344 83.007812 C 192.929688 82.082031 192.839844 81.152344 192.75 80.222656 C 192.488281 77.46875 192.203125 74.710938 192.046875 71.953125 C 191.574219 63.582031 190.859375 55.207031 190.039062 46.859375 C 190.105469 46.839844 190.023438 46.734375 190.019531 46.667969 C 190.003906 46.414062 189.976562 46.160156 189.957031 45.90625 C 189.875 44.898438 189.804688 43.886719 189.726562 42.878906 C 189.492188 39.992188 189.25 37.113281 188.96875 34.230469 C 188.898438 33.511719 188.832031 32.792969 188.769531 32.074219 C 188.742188 31.765625 188.777344 31.273438 188.597656 30.992188 C 188.445312 30.746094 187.835938 30.15625 187.585938 29.988281 Z M 187.585938 29.988281 " fill-opacity="1" fill-rule="evenodd"/><path fill="#000000" d="M 218.445312 39.550781 L 222.433594 34.238281 L 228.933594 39.660156 L 225.105469 45.027344 Z M 218.445312 39.550781 " fill-opacity="1" fill-rule="evenodd"/><path fill="#000000" d="M 308.667969 83.253906 C 308.777344 83.21875 309.214844 82.335938 309.300781 82.203125 C 310.003906 81.125 310.691406 80.015625 311.449219 78.972656 C 311.621094 78.738281 312.046875 77.859375 312.394531 77.875 C 312.777344 77.890625 312.8125 79.191406 312.859375 79.457031 C 313.152344 81.328125 313.386719 83.230469 313.417969 85.128906 C 313.472656 88.695312 313.164062 93.40625 310.203125 95.734375 C 305.542969 99.398438 299.058594 94.191406 299.058594 88.613281 C 299.0625 88.621094 298.011719 90.152344 297.953125 90.269531 C 296.941406 92.113281 296.277344 94.148438 295.242188 95.96875 C 292.617188 100.589844 286.398438 102.59375 282.4375 98.441406 C 280.300781 96.195312 279.554688 92.292969 279.683594 89.199219 C 278.648438 90.886719 277.464844 92.554688 275.964844 93.828125 C 275.703125 94.046875 273.902344 94.953125 273.902344 94.953125 C 273.902344 94.953125 274.230469 96.476562 274.285156 97.078125 C 274.421875 98.640625 274.589844 100.117188 274.421875 101.8125 C 274.398438 101.984375 274.269531 102.464844 274.226562 102.585938 C 273.917969 103.382812 273.476562 104.164062 273.015625 104.863281 C 270.9375 107.984375 268.1875 110.746094 265.597656 113.375 C 264.222656 114.769531 262.820312 116.144531 261.359375 117.433594 C 254.609375 123.363281 244.632812 130.027344 235.753906 124.851562 C 234.488281 124.113281 233.371094 123.136719 232.429688 121.976562 C 231.234375 120.507812 230.324219 118.804688 229.722656 116.976562 C 228.199219 112.324219 228.324219 107.152344 229.488281 102.433594 C 229.90625 100.738281 230.4375 99.023438 231.242188 97.488281 C 231.292969 97.402344 232.140625 95.957031 232.296875 96.265625 C 232.503906 96.667969 232.050781 97.683594 231.953125 98.066406 C 231.507812 99.789062 231.03125 101.5 230.792969 103.273438 C 230.007812 109.070312 230.464844 115.378906 235.410156 118.910156 C 236.203125 119.476562 237.074219 119.945312 237.980469 120.273438 C 241.21875 121.449219 244.761719 120.9375 247.96875 119.910156 C 254.699219 117.746094 260.5625 112.578125 265.894531 107.90625 C 267.226562 106.738281 268.519531 105.53125 269.804688 104.3125 C 270.652344 103.511719 271.644531 102.683594 272.191406 101.601562 C 272.925781 100.140625 271.910156 96.191406 271.910156 96.191406 C 271.910156 96.191406 270.789062 96.886719 270.695312 96.933594 C 269.457031 97.535156 268.640625 97.800781 267.324219 98.191406 C 263.363281 99.375 258.058594 99.226562 256.324219 94.445312 C 254.785156 90.207031 257.304688 85.183594 260.042969 82.191406 C 261.078125 81.058594 262.6875 79.441406 264.335938 79.691406 C 268.929688 80.390625 271.027344 85.703125 272.925781 89.449219 C 272.921875 89.449219 273.214844 89.34375 273.292969 89.304688 C 273.582031 89.148438 273.859375 88.960938 274.125 88.773438 C 274.894531 88.230469 275.644531 87.660156 276.378906 87.074219 C 277.78125 85.957031 279.039062 84.683594 280.367188 83.472656 C 280.574219 83.28125 281.351562 82.351562 281.691406 82.507812 C 281.867188 82.589844 281.859375 83.019531 281.878906 83.179688 C 281.941406 83.875 281.878906 84.578125 281.871094 85.277344 C 281.859375 87.578125 282.230469 89.929688 283.605469 91.792969 C 285.691406 94.621094 289.546875 94.273438 292.195312 92.53125 C 296.261719 89.859375 297.570312 85.078125 299.542969 80.8125 C 299.613281 80.65625 299.800781 81.378906 299.8125 81.425781 C 300.007812 82.214844 300.136719 83.019531 300.339844 83.808594 C 300.878906 85.917969 301.449219 88.382812 303.519531 89.351562 C 304.25 89.691406 305.0625 89.773438 305.855469 89.777344 C 306.4375 89.78125 307.015625 89.730469 307.589844 89.601562 C 307.992188 89.507812 308.363281 89.363281 308.730469 89.160156 C 310.972656 87.910156 309.507812 85.148438 308.667969 83.253906 Z M 267.28125 90.695312 C 265.890625 90.992188 263.90625 91.640625 262.46875 91.734375 C 261.914062 91.769531 261.226562 91.8125 260.734375 91.472656 C 260.207031 91.105469 260.207031 90.371094 260.375 89.796875 C 260.726562 88.617188 261.566406 87.398438 262.652344 86.875 C 264.441406 86.007812 266.335938 89.320312 267.28125 90.695312 Z M 267.28125 90.695312 " fill-opacity="1" fill-rule="evenodd"/><path fill="#000000" d="M 235.460938 82.480469 C 235.476562 82.488281 235.4375 82.625 235.433594 82.636719 C 235.390625 82.824219 235.34375 83.011719 235.296875 83.199219 C 235.082031 84.070312 234.871094 84.9375 234.652344 85.808594 C 234.347656 87.011719 234.097656 88.222656 233.832031 89.4375 C 233.761719 89.746094 233.695312 90.054688 233.613281 90.359375 C 233.59375 90.433594 233.511719 90.617188 233.539062 90.695312 C 233.621094 90.917969 233.828125 91.113281 233.972656 91.28125 C 234.304688 91.667969 234.660156 92.007812 235.011719 92.371094 C 235.046875 92.320312 234.960938 92.496094 234.972656 92.558594 C 235.007812 92.746094 235.050781 92.929688 235.097656 93.113281 C 235.214844 93.589844 235.359375 94.058594 235.511719 94.523438 C 235.976562 95.917969 236.460938 97.308594 236.960938 98.6875 C 238.457031 102.824219 240.5625 106.585938 242.199219 110.640625 C 242.195312 110.628906 241.625 111.1875 241.585938 111.230469 C 241.21875 111.621094 240.875 112.039062 240.515625 112.4375 C 239.453125 113.621094 238.285156 114.691406 237.125 115.753906 C 233.390625 119.167969 229.859375 122.679688 225.589844 125.304688 C 224.46875 125.992188 223.355469 126.789062 222.195312 127.398438 C 219.402344 128.859375 216.238281 130.054688 213.140625 130.402344 C 212.101562 130.519531 211.046875 130.527344 210 130.382812 C 205.851562 129.820312 201.886719 127.375 199.804688 123.347656 C 199.203125 122.183594 198.789062 120.902344 198.503906 119.605469 C 197.667969 115.765625 198.042969 111.828125 198.65625 107.976562 C 199.230469 104.417969 200.1875 101.1875 201.363281 97.832031 C 201.585938 97.203125 202.539062 95.1875 201.449219 94.808594 C 201.394531 94.789062 201.167969 95.320312 201.152344 95.355469 C 200.839844 95.976562 200.566406 96.621094 200.289062 97.257812 C 199.132812 99.929688 198.011719 102.640625 197.140625 105.441406 C 195.378906 111.121094 194.726562 117.230469 195.429688 123.1875 C 195.984375 127.867188 197.5 132.066406 201.035156 134.980469 C 205.253906 138.460938 211.015625 139.140625 216.09375 137.769531 C 219.625 136.816406 223.121094 134.828125 226.15625 132.667969 C 226.164062 132.671875 227.84375 131.402344 227.988281 131.285156 C 229.882812 129.792969 231.777344 128.285156 233.609375 126.699219 C 236.914062 123.839844 240.363281 120.65625 242.570312 116.675781 C 245.1875 111.949219 245.175781 105.886719 243.5625 100.824219 C 243.667969 100.835938 243.488281 100.609375 243.445312 100.503906 C 243.34375 100.261719 243.230469 100.023438 243.125 99.78125 C 242.84375 99.140625 242.546875 98.511719 242.261719 97.875 C 241.398438 95.957031 240.324219 94.078125 239.640625 92.070312 C 239.476562 91.589844 239.769531 91.574219 240.191406 91.835938 C 240.703125 92.148438 241.164062 92.582031 241.707031 92.832031 C 241.902344 92.921875 242.203125 92.984375 242.289062 92.703125 C 242.457031 92.132812 241.964844 91.398438 241.707031 90.957031 C 240.855469 89.511719 236.613281 84.003906 235.460938 82.480469 Z M 235.460938 82.480469 " fill-opacity="1" fill-rule="evenodd"/><path fill="#000000" d="M 248.65625 70.160156 C 248.644531 70.136719 248.640625 70.207031 248.632812 70.230469 C 248.609375 70.292969 248.589844 70.355469 248.5625 70.414062 C 248.519531 70.523438 248.316406 71.167969 248.144531 71.121094 C 247.835938 71.035156 247.5 70.507812 247.273438 70.3125 C 246.765625 69.875 246.199219 69.488281 245.644531 69.101562 C 245.371094 68.910156 244.972656 68.71875 244.828125 68.417969 C 244.675781 68.105469 244.695312 67.710938 244.683594 67.378906 C 244.648438 66.390625 244.742188 64.5 246.085938 64.171875 C 247.085938 63.925781 248.101562 64.597656 248.792969 65.15625 C 250.082031 66.195312 250.898438 67.640625 251.554688 69.054688 C 252.386719 70.859375 253.050781 72.734375 253.613281 74.621094 C 253.625 74.671875 253.640625 74.527344 253.652344 74.476562 C 253.675781 74.382812 253.695312 74.289062 253.71875 74.195312 C 253.773438 73.933594 253.832031 73.667969 253.882812 73.402344 C 254.046875 72.566406 254.203125 71.730469 254.410156 70.902344 C 254.960938 68.691406 255.613281 66.53125 256.808594 64.523438 C 257.316406 63.664062 258.140625 62.65625 259.382812 62.886719 C 260.085938 63.015625 260.449219 63.554688 260.855469 64.03125 C 261.375 64.640625 262.050781 65.585938 261.96875 66.402344 C 261.921875 66.890625 261.636719 67.398438 261.429688 67.84375 C 261.253906 68.222656 261.058594 68.679688 260.710938 68.964844 C 260.402344 69.222656 259.996094 68.585938 259.863281 68.414062 C 259.410156 67.847656 258.417969 66.421875 257.515625 67.175781 C 256.984375 67.617188 256.730469 68.285156 256.503906 68.882812 C 256.097656 69.972656 255.789062 71.097656 255.496094 72.214844 C 255.476562 72.300781 255.410156 72.542969 255.390625 72.617188 C 255.28125 73.042969 255.164062 73.46875 255.058594 73.894531 C 254.636719 75.570312 254.117188 77.230469 253.46875 78.84375 C 253.324219 79.207031 253.171875 79.570312 252.984375 79.914062 C 252.953125 79.972656 252.847656 80.230469 252.734375 80.207031 C 252.605469 80.175781 252.585938 79.820312 252.566406 79.738281 C 252.46875 79.269531 252.351562 78.808594 252.253906 78.34375 C 252.152344 77.851562 252.046875 77.355469 251.902344 76.871094 C 251.660156 76.03125 251.402344 75.1875 251.109375 74.359375 C 250.671875 73.128906 249.523438 70.867188 248.65625 70.160156 Z M 248.65625 70.160156 " fill-opacity="1" fill-rule="evenodd"/><path fill="#000000" d="M 243.921875 39.449219 C 243.910156 39.425781 243.90625 39.496094 243.898438 39.523438 C 243.875 39.582031 243.855469 39.644531 243.828125 39.707031 C 243.785156 39.8125 243.582031 40.460938 243.410156 40.410156 C 243.101562 40.324219 242.765625 39.796875 242.539062 39.601562 C 242.03125 39.167969 241.464844 38.777344 240.914062 38.390625 C 240.636719 38.199219 240.238281 38.007812 240.09375 37.707031 C 239.941406 37.394531 239.960938 37 239.949219 36.667969 C 239.914062 35.679688 240.007812 33.792969 241.351562 33.460938 C 242.351562 33.214844 243.367188 33.886719 244.058594 34.445312 C 245.347656 35.484375 246.164062 36.929688 246.820312 38.34375 C 247.652344 40.148438 248.316406 42.027344 248.878906 43.914062 C 248.894531 43.960938 248.90625 43.816406 248.917969 43.765625 C 248.941406 43.671875 248.964844 43.578125 248.984375 43.484375 C 249.039062 43.222656 249.097656 42.957031 249.148438 42.691406 C 249.3125 41.855469 249.46875 41.019531 249.675781 40.191406 C 250.230469 37.980469 250.878906 35.824219 252.074219 33.8125 C 252.582031 32.953125 253.40625 31.945312 254.648438 32.175781 C 255.351562 32.304688 255.714844 32.847656 256.121094 33.320312 C 256.640625 33.929688 257.316406 34.875 257.238281 35.691406 C 257.1875 36.179688 256.902344 36.6875 256.695312 37.132812 C 256.519531 37.511719 256.324219 37.96875 255.976562 38.253906 C 255.667969 38.511719 255.261719 37.875 255.128906 37.703125 C 254.675781 37.136719 253.683594 35.710938 252.78125 36.464844 C 252.25 36.90625 251.996094 37.574219 251.773438 38.171875 C 251.363281 39.261719 251.054688 40.386719 250.761719 41.507812 C 250.742188 41.589844 250.675781 41.835938 250.65625 41.90625 C 250.550781 42.332031 250.429688 42.757812 250.324219 43.1875 C 249.902344 44.859375 249.382812 46.523438 248.734375 48.132812 C 248.589844 48.496094 248.4375 48.859375 248.25 49.203125 C 248.21875 49.261719 248.113281 49.523438 248 49.496094 C 247.871094 49.46875 247.851562 49.109375 247.832031 49.027344 C 247.734375 48.5625 247.617188 48.097656 247.519531 47.632812 C 247.417969 47.140625 247.3125 46.644531 247.171875 46.160156 C 246.925781 45.320312 246.671875 44.476562 246.378906 43.652344 C 245.9375 42.421875 244.792969 40.15625 243.921875 39.449219 Z M 243.921875 39.449219 " fill-opacity="1" fill-rule="evenodd"/><path fill="#000000" d="M 96.621094 35.757812 C 96.609375 35.734375 96.605469 35.808594 96.597656 35.832031 C 96.574219 35.894531 96.554688 35.953125 96.527344 36.015625 C 96.484375 36.125 96.28125 36.769531 96.109375 36.722656 C 95.800781 36.636719 95.464844 36.109375 95.238281 35.914062 C 94.730469 35.476562 94.164062 35.089844 93.609375 34.703125 C 93.335938 34.507812 92.9375 34.320312 92.792969 34.015625 C 92.640625 33.707031 92.660156 33.3125 92.648438 32.980469 C 92.613281 31.988281 92.707031 30.101562 94.050781 29.769531 C 95.050781 29.527344 96.066406 30.195312 96.757812 30.753906 C 98.046875 31.792969 98.863281 33.242188 99.519531 34.65625 C 100.351562 36.457031 101.015625 38.335938 101.578125 40.222656 C 101.589844 40.269531 101.605469 40.125 101.617188 40.078125 C 101.640625 39.984375 101.660156 39.890625 101.683594 39.796875 C 101.738281 39.53125 101.796875 39.265625 101.847656 39 C 102.011719 38.167969 102.167969 37.328125 102.375 36.5 C 102.925781 34.292969 103.578125 32.132812 104.773438 30.121094 C 105.28125 29.261719 106.105469 28.257812 107.347656 28.484375 C 108.050781 28.617188 108.414062 29.15625 108.820312 29.632812 C 109.339844 30.242188 110.015625 31.183594 109.933594 32.003906 C 109.886719 32.492188 109.601562 32.996094 109.394531 33.445312 C 109.21875 33.824219 109.023438 34.28125 108.675781 34.566406 C 108.367188 34.820312 107.960938 34.183594 107.828125 34.015625 C 107.375 33.445312 106.382812 32.023438 105.476562 32.777344 C 104.949219 33.21875 104.695312 33.886719 104.46875 34.480469 C 104.0625 35.574219 103.753906 36.695312 103.460938 37.816406 C 103.441406 37.898438 103.375 38.144531 103.355469 38.21875 C 103.246094 38.644531 103.128906 39.070312 103.023438 39.496094 C 102.601562 41.167969 102.082031 42.832031 101.433594 44.445312 C 101.289062 44.808594 101.136719 45.167969 100.949219 45.515625 C 100.917969 45.574219 100.8125 45.832031 100.699219 45.804688 C 100.570312 45.777344 100.550781 45.421875 100.53125 45.335938 C 100.433594 44.871094 100.316406 44.410156 100.21875 43.945312 C 100.117188 43.449219 100.011719 42.957031 99.867188 42.46875 C 99.625 41.632812 99.367188 40.789062 99.074219 39.960938 C 98.636719 38.730469 97.488281 36.464844 96.621094 35.757812 Z M 96.621094 35.757812 " fill-opacity="1" fill-rule="evenodd"/><path fill="#000000" d="M 237.851562 64.324219 C 237.921875 64.386719 238.007812 64.222656 238.085938 64.171875 C 238.378906 63.992188 238.664062 63.808594 238.953125 63.628906 C 240.136719 62.898438 241.316406 62.175781 242.527344 61.488281 C 247.632812 58.582031 253.117188 55.953125 258.636719 53.914062 C 260.128906 53.363281 261.617188 52.804688 263.121094 52.277344 C 263.460938 52.15625 263.804688 52.023438 264.152344 51.921875 C 264.175781 51.914062 264.457031 51.820312 264.476562 51.875 C 264.511719 51.953125 264.328125 52.195312 264.289062 52.257812 C 264.082031 52.613281 263.871094 52.964844 263.667969 53.320312 C 263.351562 53.867188 263.140625 54.675781 262.726562 55.152344 C 262.523438 55.386719 261.863281 55.5 261.585938 55.613281 C 260.679688 55.984375 259.773438 56.375 258.875 56.765625 C 253.175781 59.246094 247.609375 62.035156 242.03125 64.769531 C 240.707031 65.417969 239.371094 66.054688 238.074219 66.753906 C 237.902344 66.84375 236.996094 67.5 236.78125 67.382812 C 236.625 67.300781 236.773438 66.890625 236.804688 66.78125 C 236.980469 66.195312 237.609375 64.886719 237.851562 64.324219 Z M 237.851562 64.324219 " fill-opacity="1" fill-rule="evenodd"/><path fill="#000000" d="M 132.746094 41.828125 C 132.816406 41.890625 132.902344 41.726562 132.980469 41.675781 C 133.269531 41.496094 133.558594 41.3125 133.847656 41.132812 C 135.027344 40.402344 136.210938 39.679688 137.421875 38.992188 C 142.527344 36.085938 148.011719 33.457031 153.53125 31.417969 C 155.023438 30.867188 156.511719 30.308594 158.011719 29.78125 C 158.355469 29.660156 158.699219 29.527344 159.046875 29.425781 C 159.070312 29.417969 159.351562 29.324219 159.371094 29.378906 C 159.40625 29.457031 159.21875 29.699219 159.183594 29.761719 C 158.976562 30.117188 158.765625 30.46875 158.5625 30.824219 C 158.246094 31.371094 158.035156 32.179688 157.621094 32.65625 C 157.417969 32.890625 156.757812 33.003906 156.480469 33.117188 C 155.570312 33.488281 154.667969 33.878906 153.769531 34.269531 C 148.070312 36.75 142.503906 39.539062 136.925781 42.273438 C 135.601562 42.921875 134.265625 43.558594 132.96875 44.257812 C 132.796875 44.347656 131.890625 45.003906 131.671875 44.886719 C 131.519531 44.804688 131.667969 44.394531 131.699219 44.285156 C 131.875 43.699219 132.5 42.390625 132.746094 41.828125 Z M 132.746094 41.828125 " fill-opacity="1" fill-rule="evenodd"/><path fill="#000000" d="M 88.550781 57.367188 C 88.621094 57.429688 88.703125 57.265625 88.785156 57.214844 C 89.074219 57.035156 89.359375 56.851562 89.652344 56.671875 C 90.832031 55.9375 92.015625 55.21875 93.226562 54.527344 C 98.328125 51.625 103.816406 48.996094 109.332031 46.957031 C 110.824219 46.40625 112.316406 45.847656 113.816406 45.320312 C 114.160156 45.199219 114.5 45.066406 114.851562 44.964844 C 114.875 44.957031 115.152344 44.863281 115.175781 44.914062 C 115.210938 44.996094 115.023438 45.238281 114.988281 45.300781 C 114.78125 45.65625 114.570312 46.007812 114.363281 46.363281 C 114.046875 46.910156 113.839844 47.71875 113.425781 48.191406 C 113.21875 48.429688 112.558594 48.542969 112.285156 48.65625 C 111.375 49.027344 110.472656 49.414062 109.570312 49.808594 C 103.875 52.289062 98.304688 55.078125 92.730469 57.8125 C 91.40625 58.460938 90.070312 59.097656 88.769531 59.792969 C 88.597656 59.886719 87.691406 60.542969 87.476562 60.425781 C 87.324219 60.34375 87.472656 59.933594 87.503906 59.824219 C 87.679688 59.238281 88.304688 57.929688 88.550781 57.367188 Z M 88.550781 57.367188 " fill-opacity="1" fill-rule="evenodd"/><path fill="#000000" d="M 283.921875 80.519531 C 283.824219 80.367188 284.257812 79.964844 284.304688 79.925781 C 284.832031 79.515625 285.386719 79.128906 285.933594 78.742188 C 288.160156 77.175781 290.515625 75.8125 292.753906 74.269531 C 296.695312 71.554688 300.335938 68.3125 303.808594 65.046875 C 305.625 63.335938 307.699219 61.722656 309.15625 59.679688 C 308.972656 59.394531 308.636719 59.164062 308.386719 58.9375 C 307.804688 58.414062 307.207031 57.90625 306.625 57.386719 C 306.292969 57.09375 305.921875 56.816406 305.742188 56.398438 C 305.582031 56.027344 305.589844 55.605469 305.640625 55.214844 C 305.894531 53.101562 307.441406 50.902344 309.203125 49.722656 C 310.261719 49.015625 311.769531 48.828125 312.660156 49.90625 C 314.0625 51.597656 313.382812 53.992188 312.691406 55.847656 C 312.546875 56.242188 312.371094 56.621094 312.195312 57.007812 C 312.125 57.15625 311.964844 57.375 311.953125 57.546875 C 311.9375 57.742188 312.386719 57.984375 312.511719 58.089844 C 312.953125 58.460938 313.445312 58.957031 313.648438 59.503906 C 313.910156 60.222656 313.351562 61.160156 313.027344 61.773438 C 312.9375 61.941406 312.714844 62.441406 312.453125 62.378906 C 312.160156 62.308594 311.875 62.007812 311.667969 61.808594 C 311.21875 61.375 310.816406 60.886719 310.355469 60.460938 C 310.355469 60.449219 310.144531 60.699219 310.109375 60.742188 C 309.933594 60.960938 309.75 61.171875 309.570312 61.386719 C 309.058594 61.992188 308.566406 62.613281 308.066406 63.226562 C 306.605469 65.015625 305.058594 66.757812 303.359375 68.332031 C 299.421875 71.980469 294.839844 74.894531 290.089844 77.398438 C 288.863281 78.042969 287.632812 78.683594 286.386719 79.285156 C 285.695312 79.621094 284.121094 80.839844 283.921875 80.519531 Z M 311.164062 56.882812 C 311.171875 56.886719 311.222656 56.648438 311.226562 56.628906 C 311.285156 56.335938 311.347656 56.042969 311.382812 55.746094 C 311.503906 54.6875 311.378906 53.296875 310.535156 52.523438 C 309.859375 51.90625 308.894531 51.980469 308.265625 52.636719 C 308.023438 52.886719 307.828125 53.207031 307.882812 53.5625 C 307.949219 54.007812 308.296875 54.382812 308.597656 54.695312 C 309.167969 55.285156 310.546875 56.347656 311.164062 56.882812 Z M 311.164062 56.882812 " fill-opacity="1" fill-rule="evenodd"/><path fill="#000000" d="M 208.230469 62.792969 C 208.230469 62.769531 208.214844 62.449219 208.222656 62.359375 C 208.253906 62.011719 208.304688 61.664062 208.339844 61.316406 C 208.445312 60.394531 208.5 59.46875 208.628906 58.554688 C 208.691406 58.140625 208.738281 57.597656 209.257812 57.765625 C 210.058594 58.023438 210.800781 58.613281 211.519531 59.050781 C 212.804688 59.828125 214.074219 60.628906 215.382812 61.355469 C 215.902344 61.644531 216.429688 61.917969 216.941406 62.21875 C 217.035156 62.273438 217.339844 62.402344 217.324219 62.554688 C 217.308594 62.765625 216.839844 62.773438 216.707031 62.785156 C 216.386719 62.8125 214.9375 62.695312 214.773438 63.007812 C 214.492188 63.539062 215.355469 64.605469 215.601562 64.988281 C 216.746094 66.746094 218.164062 68.285156 219.691406 69.683594 C 219.730469 69.675781 220.140625 68.867188 220.1875 68.800781 C 220.710938 67.972656 221.246094 67.15625 221.78125 66.339844 C 223.683594 63.398438 225.664062 60.484375 227.71875 57.660156 C 228.210938 56.980469 228.71875 56.304688 229.242188 55.648438 C 229.410156 55.4375 229.640625 55.082031 229.929688 55.039062 C 230.367188 54.972656 230.132812 56.480469 230.105469 56.703125 C 229.902344 58.464844 228.789062 60.117188 227.9375 61.589844 C 227.152344 62.945312 226.339844 64.285156 225.507812 65.609375 C 224.207031 67.675781 222.921875 69.75 221.578125 71.789062 C 222.097656 72.21875 222.609375 73.121094 223.078125 73.65625 C 224.285156 75.023438 225.90625 76.527344 226.527344 78.328125 C 227.050781 79.851562 227.574219 81.25 227.730469 82.847656 C 227.90625 84.691406 227.546875 86.929688 226.917969 88.699219 C 225.816406 91.800781 222.921875 94.5625 220.328125 96.285156 C 218.277344 97.648438 215.386719 98.964844 212.90625 98.613281 C 209.53125 98.136719 209.460938 92.875 209.601562 90.203125 C 209.640625 89.554688 209.703125 88.910156 209.808594 88.265625 C 209.957031 87.375 210.164062 86.492188 210.425781 85.628906 C 210.714844 84.671875 211.0625 83.730469 211.460938 82.8125 C 212.835938 79.664062 214.625 76.71875 216.691406 74.027344 C 213.960938 71.476562 212.121094 67.902344 210.019531 64.804688 C 209.839844 64.535156 209.625 64.296875 209.285156 64.359375 C 209.199219 64.375 208.601562 64.53125 208.402344 64.207031 C 208.15625 63.824219 208.304688 62.933594 208.230469 62.792969 Z M 218.960938 76.914062 C 218.769531 76.914062 218.394531 77.433594 218.273438 77.550781 C 217.621094 78.207031 217.003906 78.917969 216.390625 79.621094 C 215.917969 80.167969 215.460938 80.726562 215.015625 81.300781 C 214.636719 81.800781 214.257812 82.308594 213.910156 82.832031 C 212.46875 84.980469 210.441406 89.039062 213.210938 90.980469 C 216.109375 93.011719 219.824219 90.464844 222.085938 88.539062 C 223.183594 87.609375 224.3125 86.570312 224.507812 85.011719 C 224.644531 83.9375 224.242188 82.964844 223.722656 82.066406 C 222.757812 80.390625 220.328125 78.226562 218.960938 76.914062 Z M 208.230469 62.792969 L 208.230469 62.789062 C 208.230469 62.792969 208.230469 62.792969 208.230469 62.792969 Z M 208.230469 62.792969 " fill-opacity="1" fill-rule="evenodd"/><path fill="#000000" d="M 207.960938 39.550781 L 211.945312 34.238281 L 218.449219 39.660156 L 214.621094 45.027344 Z M 207.960938 39.550781 " fill-opacity="1" fill-rule="evenodd"/><path fill="#000000" d="M 142.074219 50.214844 L 146.0625 44.898438 L 152.566406 50.324219 L 148.734375 55.691406 Z M 142.074219 50.214844 " fill-opacity="1" fill-rule="evenodd"/><path fill="#000000" d="M 152.554688 50.214844 L 156.539062 44.898438 L 163.042969 50.324219 L 159.214844 55.691406 Z M 152.554688 50.214844 " fill-opacity="1" fill-rule="evenodd"/><path fill="#000000" d="M 308.277344 101.570312 C 308.238281 101.464844 308.449219 101.027344 308.484375 100.921875 C 308.703125 100.234375 308.917969 99.539062 309.183594 98.871094 C 309.222656 98.773438 309.414062 98.140625 309.550781 98.164062 C 309.621094 98.171875 309.671875 98.328125 309.695312 98.386719 C 309.8125 98.648438 309.929688 98.902344 310.039062 99.164062 C 310.582031 100.425781 310.652344 101.925781 310.484375 103.296875 C 310.300781 104.828125 309.65625 106.402344 308.390625 107.148438 C 306.542969 108.242188 304.292969 106.703125 303.734375 104.625 C 302.894531 105.097656 302.535156 106.359375 301.996094 107.308594 C 301.390625 108.378906 300.496094 109.097656 299.375 109.320312 C 297.539062 109.6875 296.191406 108.164062 294.523438 107.675781 C 293.582031 107.398438 292.625 107.65625 291.765625 108.117188 C 289.8125 109.167969 288.074219 110.773438 286.335938 112.207031 C 282.039062 115.761719 278.0625 119.792969 273.730469 123.28125 C 270.105469 126.210938 265.972656 127.984375 261.589844 129.132812 C 260.476562 129.425781 259.355469 129.730469 258.234375 129.953125 C 258.125 129.976562 257.265625 130.183594 257.242188 129.945312 C 257.21875 129.683594 257.734375 129.414062 257.878906 129.3125 C 258.53125 128.851562 259.195312 128.417969 259.867188 128 C 262.710938 126.242188 265.636719 124.648438 268.484375 122.894531 C 273.9375 119.542969 279.054688 115.304688 284.042969 111.148438 C 286.730469 108.90625 289.417969 105.738281 292.710938 104.675781 C 295.308594 103.835938 297.460938 105.113281 300.03125 105.066406 C 300.03125 105.054688 300.359375 104.957031 300.375 104.953125 C 300.578125 104.867188 300.769531 104.765625 300.953125 104.640625 C 301.5625 104.21875 302.117188 103.679688 302.597656 103.082031 C 303.015625 102.566406 303.332031 101.972656 303.683594 101.398438 C 303.882812 101.066406 304.097656 100.742188 304.3125 100.417969 C 304.460938 100.191406 304.605469 99.964844 304.757812 99.742188 C 304.8125 99.667969 305.390625 98.847656 305.523438 99.101562 C 305.648438 99.335938 305.316406 100.070312 305.246094 100.292969 C 304.972656 101.167969 304.707031 102.109375 305.296875 102.894531 C 306.152344 104.03125 310.011719 104.554688 308.277344 101.570312 Z M 308.277344 101.570312 " fill-opacity="1" fill-rule="evenodd"/><path fill="#000000" d="M 215.824219 101.839844 C 215.839844 101.796875 215.699219 102.011719 215.683594 102.035156 C 215.585938 102.207031 215.488281 102.382812 215.390625 102.554688 C 215.113281 103.042969 214.855469 103.542969 214.601562 104.042969 C 213.878906 105.472656 213.179688 106.910156 212.53125 108.378906 C 210.675781 112.570312 208.675781 117.074219 209.253906 121.800781 C 209.40625 123.054688 209.78125 124.367188 210.519531 125.394531 C 210.804688 125.78125 211.164062 126.242188 211.644531 126.363281 C 212.527344 126.582031 213.441406 125.714844 213.976562 125.121094 C 215.265625 123.6875 216.09375 121.824219 216.621094 119.964844 C 216.789062 119.378906 217.09375 118.429688 216.855469 117.816406 C 216.609375 117.195312 215.894531 118.449219 215.78125 118.632812 C 215.136719 119.699219 214.085938 121.683594 212.632812 120.359375 C 212.4375 120.179688 212.285156 119.949219 212.160156 119.714844 C 211.4375 118.332031 211.675781 116.5625 211.957031 115.09375 C 212.457031 112.421875 213.585938 109.976562 214.660156 107.507812 C 215.324219 105.992188 217.058594 102.421875 215.824219 101.839844 Z M 215.824219 101.839844 " fill-opacity="1" fill-rule="evenodd"/><path fill="#000000" d="M 95.800781 70.824219 C 95.824219 70.769531 95.589844 71.0625 95.570312 71.09375 C 95.40625 71.332031 95.246094 71.570312 95.085938 71.808594 C 94.632812 72.476562 94.207031 73.160156 93.792969 73.847656 C 92.605469 75.808594 91.460938 77.78125 90.398438 79.792969 C 87.351562 85.542969 84.074219 91.722656 85.019531 98.203125 C 85.273438 99.921875 85.882812 101.726562 87.097656 103.132812 C 87.5625 103.667969 88.152344 104.296875 88.945312 104.460938 C 90.390625 104.761719 91.890625 103.574219 92.769531 102.757812 C 94.882812 100.792969 96.238281 98.234375 97.105469 95.6875 C 97.382812 94.882812 97.878906 93.578125 97.488281 92.738281 C 97.085938 91.886719 95.910156 93.605469 95.726562 93.859375 C 94.667969 95.324219 92.949219 98.046875 90.5625 96.226562 C 90.242188 95.980469 89.992188 95.667969 89.785156 95.339844 C 88.601562 93.445312 88.996094 91.019531 89.453125 89.003906 C 90.277344 85.339844 92.125 81.988281 93.890625 78.601562 C 94.976562 76.523438 97.824219 71.625 95.800781 70.824219 Z M 95.800781 70.824219 " fill-opacity="1" fill-rule="evenodd"/><path fill="#000000" d="M 142.3125 59.597656 C 142.328125 59.558594 142.160156 59.761719 142.144531 59.785156 C 142.027344 59.949219 141.910156 60.117188 141.792969 60.285156 C 141.464844 60.75 141.15625 61.226562 140.855469 61.707031 C 139.996094 63.074219 139.167969 64.453125 138.394531 65.855469 C 136.1875 69.867188 133.808594 74.179688 134.496094 78.703125 C 134.675781 79.902344 135.121094 81.160156 136.003906 82.140625 C 136.339844 82.511719 136.765625 82.953125 137.339844 83.066406 C 138.390625 83.277344 139.476562 82.449219 140.113281 81.878906 C 141.644531 80.507812 142.628906 78.722656 143.257812 76.945312 C 143.460938 76.382812 143.820312 75.476562 143.535156 74.886719 C 143.242188 74.292969 142.390625 75.492188 142.257812 75.671875 C 141.492188 76.691406 140.242188 78.589844 138.515625 77.320312 C 138.28125 77.148438 138.097656 76.929688 137.953125 76.703125 C 137.09375 75.382812 137.378906 73.6875 137.707031 72.28125 C 138.308594 69.726562 139.648438 67.386719 140.925781 65.023438 C 141.714844 63.574219 143.78125 60.15625 142.3125 59.597656 Z M 142.3125 59.597656 " fill-opacity="1" fill-rule="evenodd"/><path fill="#000000" d="M 149.117188 89.820312 C 149.019531 89.835938 148.800781 90.089844 148.664062 90.152344 C 148.25 90.335938 147.804688 90.460938 147.371094 90.582031 C 146.019531 90.957031 144.621094 91.285156 143.21875 91.375 C 139.15625 91.628906 135.714844 90.273438 133.175781 87.09375 C 132.457031 86.195312 131.964844 84.765625 131.589844 83.726562 C 130.449219 80.597656 123.550781 30.355469 122.570312 26.28125 C 122.363281 25.414062 122.171875 24.542969 121.890625 23.699219 C 121.871094 23.628906 121.675781 22.941406 121.585938 22.957031 C 121.421875 22.992188 121.269531 24 121.238281 24.132812 C 120.945312 25.300781 120.648438 26.464844 120.375 27.636719 C 119.8125 30.019531 118.808594 32.808594 118.804688 35.277344 C 118.804688 37.675781 121.746094 54.765625 122.476562 60.75 C 123.613281 70.023438 124.90625 79.277344 126.320312 88.511719 C 126.566406 90.121094 126.824219 91.730469 127.097656 93.335938 C 127.855469 97.820312 128.421875 103.679688 132.644531 106.382812 C 132.667969 106.390625 132.683594 106.398438 132.691406 106.414062 L 132.644531 106.382812 C 132.480469 106.335938 132.003906 106.449219 131.933594 106.460938 C 131.121094 106.585938 130.320312 106.832031 129.546875 107.105469 C 126.335938 108.238281 123.273438 109.828125 120.304688 111.472656 C 112.539062 115.777344 106.277344 122.292969 98.546875 126.621094 C 95.3125 128.429688 90.335938 129.804688 86.980469 127.421875 C 84.773438 125.859375 84.460938 123.226562 85.03125 120.765625 C 86.097656 116.171875 89.15625 112.414062 91.585938 108.480469 C 92.46875 107.050781 93.410156 105.621094 93.882812 103.992188 C 93.992188 103.625 94.289062 102.777344 93.996094 102.421875 C 93.617188 101.964844 92.289062 103.738281 92.144531 103.917969 C 90.542969 105.917969 89.09375 108.050781 87.722656 110.214844 C 87 111.351562 86.328125 112.511719 85.710938 113.710938 C 82.667969 119.609375 79.222656 130.136719 87.082031 133.988281 C 93.007812 136.894531 98.289062 133.636719 103.070312 130.097656 C 110.109375 124.894531 116.90625 118.921875 124.785156 115 C 130.589844 112.109375 136.554688 111.636719 142.851562 112.90625 C 144.777344 113.292969 146.683594 113.804688 148.582031 114.308594 C 148.859375 114.382812 150.265625 115 150.527344 114.726562 C 150.820312 114.425781 150.789062 113.570312 150.804688 113.1875 C 150.867188 111.953125 151.222656 109.558594 150.28125 108.589844 C 149.316406 107.597656 147.425781 107.277344 146.195312 106.722656 C 143.167969 105.355469 139.792969 103.976562 137.289062 101.742188 C 135.960938 100.558594 134.722656 99.070312 133.890625 97.492188 C 133.796875 97.308594 133.121094 96.152344 133.359375 95.9375 C 133.414062 95.890625 134.101562 96.46875 134.167969 96.507812 C 134.769531 96.875 135.449219 97.121094 136.117188 97.34375 C 138.199219 98.027344 140.386719 98.445312 142.585938 98.316406 C 144.957031 98.171875 147.367188 97.558594 149.386719 96.285156 C 150.265625 95.734375 151.074219 95.078125 151.855469 94.398438 C 152.125 94.164062 152.511719 93.667969 152.914062 93.691406 C 153.636719 93.734375 154.433594 94.917969 154.953125 95.328125 C 156.183594 96.292969 157.613281 97.019531 159.128906 97.398438 C 167.371094 99.449219 175.410156 93.269531 178.199219 85.765625 C 178.515625 84.914062 178.503906 83.640625 178.535156 82.695312 C 178.613281 80.382812 178.484375 78.058594 178.25 75.757812 C 177.503906 68.398438 176.660156 61.015625 175.558594 53.699219 C 174.578125 47.195312 173.238281 39.34375 172.460938 32.8125 C 172.664062 32.507812 173.847656 34.023438 174.101562 34.277344 C 174.378906 34.550781 176.414062 36.582031 176.738281 36.03125 C 177.253906 35.160156 176.101562 32.925781 175.800781 32.140625 C 174.546875 28.851562 173.171875 25.625 171.726562 22.414062 C 171.425781 21.734375 170.761719 19.3125 170.003906 18.964844 C 169.398438 18.6875 168.089844 20.839844 167.824219 21.210938 C 167.289062 21.941406 165.910156 23.238281 165.800781 24.167969 C 165.652344 25.484375 167.1875 27.363281 167.773438 28.460938 C 167.660156 28.597656 167.8125 29.164062 167.824219 29.3125 C 167.886719 30.148438 167.949219 30.988281 168.027344 31.828125 C 168.378906 35.488281 168.863281 39.136719 169.289062 42.789062 C 169.703125 46.433594 170.273438 50.0625 170.796875 53.695312 C 171.210938 56.613281 171.628906 59.527344 172.074219 62.4375 C 172.949219 68.1875 173.914062 73.980469 174.066406 79.804688 C 174.101562 81.300781 174.164062 82.8125 174.035156 84.304688 C 173.996094 84.726562 174.058594 85.417969 173.824219 85.796875 C 173.441406 86.425781 172.488281 86.886719 171.902344 87.28125 C 169.8125 88.691406 167.460938 89.726562 164.953125 90.109375 C 162.5625 90.476562 160.121094 90.066406 158.085938 88.730469 C 157.863281 88.585938 158.453125 88.351562 158.640625 88.160156 C 159.046875 87.738281 159.425781 87.296875 159.796875 86.839844 C 160.960938 85.398438 162.097656 83.933594 162.710938 82.160156 C 163.914062 78.664062 162.363281 74.542969 161.0625 71.289062 C 160.574219 70.070312 159.859375 68.035156 158.371094 67.738281 C 157.550781 67.578125 156.710938 67.957031 156.003906 68.324219 C 154.210938 69.257812 152.6875 70.65625 151.320312 72.128906 C 148.855469 74.78125 145.980469 78.429688 145.96875 82.253906 C 145.964844 83.910156 146.546875 85.578125 147.234375 87.066406 C 147.707031 88.089844 148.328125 89.019531 149.117188 89.820312 Z M 149.117188 89.820312 C 149.132812 89.835938 149.152344 89.855469 149.167969 89.871094 C 149.164062 89.832031 149.144531 89.816406 149.117188 89.820312 Z M 153.914062 87.664062 C 152.703125 86.539062 150.414062 83.496094 150.382812 81.769531 C 150.347656 79.890625 151.585938 78.09375 152.726562 76.707031 C 153.449219 75.832031 154.816406 74.085938 156.125 74.207031 C 157.464844 74.332031 158.214844 76.28125 158.628906 77.324219 C 159.050781 78.386719 159.535156 79.71875 159.402344 80.882812 C 159.125 83.480469 155.996094 86.457031 153.914062 87.664062 Z M 153.914062 87.664062 " fill-opacity="1" fill-rule="evenodd"/><path fill="#000000" d="M 177.710938 123.171875 C 177.695312 123.210938 177.839844 123 177.851562 122.976562 C 177.953125 122.800781 178.050781 122.628906 178.148438 122.453125 C 178.421875 121.964844 178.683594 121.46875 178.933594 120.96875 C 179.660156 119.539062 180.355469 118.097656 181.003906 116.632812 C 182.863281 112.4375 184.859375 107.933594 184.285156 103.210938 C 184.128906 101.957031 183.757812 100.640625 183.015625 99.617188 C 182.734375 99.226562 182.375 98.765625 181.890625 98.648438 C 181.007812 98.429688 180.09375 99.292969 179.558594 99.890625 C 178.273438 101.320312 177.445312 103.1875 176.914062 105.042969 C 176.746094 105.632812 176.445312 106.582031 176.683594 107.195312 C 176.929688 107.8125 177.644531 106.5625 177.753906 106.375 C 178.402344 105.308594 179.449219 103.324219 180.902344 104.652344 C 181.101562 104.832031 181.253906 105.058594 181.378906 105.296875 C 182.101562 106.679688 181.859375 108.445312 181.582031 109.917969 C 181.078125 112.589844 179.953125 115.03125 178.875 117.5 C 178.214844 119.015625 176.476562 122.589844 177.710938 123.171875 Z M 177.710938 123.171875 " fill-opacity="1" fill-rule="evenodd"/><path fill="#000000" d="M 279.949219 47.296875 C 280.09375 47.371094 280.773438 47.195312 280.945312 47.1875 C 281.828125 47.144531 282.714844 47.117188 283.597656 47.128906 C 286.367188 47.152344 289.121094 47.421875 291.847656 47.894531 C 293.085938 48.113281 295.285156 48.296875 295.417969 49.894531 C 295.308594 49.839844 295.398438 50.128906 295.371094 50.242188 C 295.316406 50.460938 295.25 50.675781 295.183594 50.886719 C 294.984375 51.519531 294.675781 52.117188 294.367188 52.699219 C 293.4375 54.441406 292.101562 55.984375 290.839844 57.5 C 289.820312 58.730469 288.753906 59.902344 287.660156 61.066406 C 287.152344 61.605469 286.605469 62.367188 285.9375 62.71875 C 285.257812 63.078125 284.300781 63.121094 283.554688 63.246094 C 282.179688 63.476562 280.820312 63.746094 279.457031 64.023438 C 278.304688 64.257812 277.160156 64.511719 276 64.707031 C 275.589844 64.773438 274.996094 64.953125 274.582031 64.8125 C 274.144531 64.664062 275.058594 64.089844 275.160156 64.027344 C 276.222656 63.421875 277.359375 62.933594 278.453125 62.386719 C 281.089844 61.0625 283.679688 59.597656 286.175781 58.03125 C 286.789062 57.648438 287.40625 57.265625 288.03125 56.898438 C 288.117188 56.847656 288.613281 56.652344 288.632812 56.535156 C 288.699219 56.152344 287.554688 55.882812 287.351562 55.820312 C 285.761719 55.347656 284.039062 55.277344 282.390625 55.28125 C 280.578125 55.289062 278.765625 55.445312 276.980469 55.75 C 276.53125 55.828125 276.085938 55.9375 275.636719 56 C 275.523438 56.011719 275.277344 56.0625 275.203125 55.9375 C 275.09375 55.753906 275.246094 55.375 275.320312 55.210938 C 275.605469 54.585938 275.949219 53.992188 276.304688 53.40625 C 276.640625 52.859375 276.96875 52.3125 277.296875 51.761719 C 277.832031 50.859375 279.414062 48.199219 279.949219 47.296875 Z M 279.949219 47.296875 " fill-opacity="1" fill-rule="evenodd"/><path fill="#000000" d="M 106.785156 74.402344 C 106.925781 74.480469 107.605469 74.304688 107.78125 74.292969 C 108.664062 74.25 109.546875 74.226562 110.429688 74.234375 C 113.203125 74.261719 115.953125 74.527344 118.679688 75.003906 C 119.921875 75.21875 122.117188 75.40625 122.253906 77.003906 C 122.144531 76.949219 122.234375 77.238281 122.203125 77.351562 C 122.148438 77.566406 122.085938 77.78125 122.019531 77.996094 C 121.820312 78.628906 121.511719 79.222656 121.199219 79.808594 C 120.273438 81.550781 118.933594 83.09375 117.675781 84.609375 C 116.65625 85.839844 115.589844 87.011719 114.492188 88.175781 C 113.988281 88.710938 113.441406 89.476562 112.773438 89.828125 C 112.089844 90.1875 111.136719 90.226562 110.386719 90.355469 C 109.015625 90.585938 107.652344 90.855469 106.289062 91.132812 C 105.140625 91.367188 103.996094 91.617188 102.835938 91.8125 C 102.425781 91.882812 101.828125 92.0625 101.417969 91.921875 C 100.980469 91.773438 101.890625 91.195312 101.996094 91.136719 C 103.058594 90.53125 104.195312 90.042969 105.285156 89.496094 C 107.921875 88.171875 110.511719 86.703125 113.007812 85.140625 C 113.621094 84.757812 114.242188 84.375 114.863281 84.003906 C 114.953125 83.953125 115.445312 83.761719 115.464844 83.640625 C 115.53125 83.261719 114.386719 82.988281 114.183594 82.929688 C 112.59375 82.453125 110.875 82.386719 109.222656 82.390625 C 107.410156 82.394531 105.597656 82.554688 103.8125 82.859375 C 103.367188 82.9375 102.921875 83.046875 102.472656 83.105469 C 102.359375 83.121094 102.113281 83.167969 102.039062 83.042969 C 101.929688 82.859375 102.082031 82.484375 102.15625 82.316406 C 102.4375 81.695312 102.78125 81.097656 103.140625 80.515625 C 103.476562 79.96875 103.800781 79.417969 104.128906 78.867188 C 104.664062 77.964844 106.25 75.304688 106.785156 74.402344 Z M 106.785156 74.402344 " fill-opacity="1" fill-rule="evenodd"/><path fill="#000000" d="M 137.09375 16.289062 C 137.234375 16.367188 137.917969 16.191406 138.089844 16.179688 C 138.972656 16.136719 139.859375 16.113281 140.742188 16.121094 C 143.511719 16.148438 146.265625 16.414062 148.992188 16.890625 C 150.230469 17.105469 152.429688 17.292969 152.5625 18.890625 C 152.453125 18.835938 152.542969 19.125 152.515625 19.238281 C 152.460938 19.453125 152.394531 19.667969 152.328125 19.882812 C 152.128906 20.515625 151.820312 21.109375 151.511719 21.695312 C 150.582031 23.433594 149.246094 24.980469 147.984375 26.496094 C 146.964844 27.722656 145.898438 28.898438 144.804688 30.0625 C 144.296875 30.597656 143.75 31.359375 143.082031 31.714844 C 142.402344 32.074219 141.445312 32.113281 140.699219 32.238281 C 139.324219 32.472656 137.964844 32.742188 136.601562 33.019531 C 135.449219 33.253906 134.304688 33.503906 133.144531 33.699219 C 132.734375 33.769531 132.140625 33.949219 131.726562 33.808594 C 131.289062 33.660156 132.203125 33.082031 132.304688 33.023438 C 133.367188 32.417969 134.503906 31.929688 135.597656 31.378906 C 138.234375 30.058594 140.824219 28.589844 143.320312 27.027344 C 143.933594 26.644531 144.550781 26.261719 145.175781 25.890625 C 145.261719 25.839844 145.753906 25.644531 145.777344 25.527344 C 145.84375 25.148438 144.699219 24.875 144.496094 24.816406 C 142.90625 24.339844 141.183594 24.273438 139.535156 24.277344 C 137.722656 24.28125 135.910156 24.441406 134.125 24.746094 C 133.675781 24.820312 133.230469 24.933594 132.78125 24.992188 C 132.667969 25.007812 132.421875 25.054688 132.347656 24.929688 C 132.238281 24.746094 132.390625 24.371094 132.464844 24.203125 C 132.75 23.582031 133.09375 22.984375 133.449219 22.402344 C 133.785156 21.855469 134.113281 21.304688 134.441406 20.753906 C 134.976562 19.851562 136.558594 17.191406 137.09375 16.289062 Z M 137.09375 16.289062 " fill-opacity="1" fill-rule="evenodd"/><g clip-path="url(#322477de0b)"><path fill="#000000" d="M 340.261719 58.835938 C 340.429688 57.882812 339.980469 56.613281 339.777344 55.707031 C 339.140625 52.859375 338.191406 50.121094 337.199219 47.410156 C 334.597656 40.332031 330.835938 33.964844 326.394531 28.171875 C 323.28125 24.113281 319.789062 20.195312 315.644531 17.453125 C 311.746094 14.878906 307.371094 13.136719 303.023438 11.777344 C 301.644531 11.347656 300.265625 10.957031 298.855469 10.671875 C 298.253906 10.546875 297.648438 10.371094 297.035156 10.3125 C 297.019531 10.308594 296.542969 10.304688 296.554688 10.347656 C 296.796875 11.035156 298.757812 12.070312 299.265625 12.496094 C 301.585938 14.433594 303.78125 16.558594 305.816406 18.871094 C 311.75 25.628906 316.875 33.464844 320.972656 41.753906 C 322.953125 45.753906 324.679688 49.949219 326.027344 54.265625 C 326.449219 55.628906 326.828125 57.007812 327.140625 58.410156 C 327.277344 58.996094 327.285156 59.992188 327.597656 60.5 C 328.164062 61.417969 329.40625 61.949219 330.257812 62.429688 C 331.640625 63.210938 334.28125 65.085938 334.28125 65.085938 C 334.28125 65.085938 335.742188 64.011719 336.324219 63.527344 C 337.597656 62.453125 339.375 60.34375 340.261719 58.835938 Z M 340.261719 58.835938 " fill-opacity="1" fill-rule="evenodd"/></g><path fill="#000000" d="M 340.261719 83.714844 C 340.429688 84.667969 339.980469 85.9375 339.777344 86.84375 C 339.140625 89.6875 338.191406 92.429688 337.199219 95.140625 C 334.597656 102.21875 330.835938 108.582031 326.394531 114.378906 C 323.28125 118.433594 319.789062 122.355469 315.644531 125.09375 C 311.746094 127.671875 307.371094 129.410156 303.023438 130.769531 C 301.644531 131.203125 300.265625 131.589844 298.855469 131.878906 C 298.253906 132.003906 297.648438 132.179688 297.035156 132.238281 C 297.019531 132.238281 296.542969 132.242188 296.554688 132.203125 C 296.796875 131.515625 298.757812 130.480469 299.265625 130.054688 C 301.585938 128.117188 303.78125 125.988281 305.816406 123.679688 C 311.75 116.917969 316.875 109.082031 320.972656 100.792969 C 322.953125 96.796875 324.679688 92.597656 326.027344 88.285156 C 326.449219 86.917969 326.828125 85.542969 327.140625 84.140625 C 327.277344 83.550781 327.285156 82.558594 327.597656 82.046875 C 328.164062 81.128906 329.40625 80.601562 330.257812 80.121094 C 331.640625 79.339844 334.28125 77.464844 334.28125 77.464844 C 334.28125 77.464844 335.742188 78.539062 336.324219 79.023438 C 337.597656 80.097656 339.375 82.207031 340.261719 83.714844 Z M 340.261719 83.714844 " fill-opacity="1" fill-rule="evenodd"/><path fill="#000000" d="M 350.089844 63.761719 L 350.039062 63.734375 C 349.769531 63.617188 349.53125 63.511719 349.449219 63.457031 C 348.316406 62.707031 347.421875 61.660156 346.734375 60.414062 C 345.898438 58.914062 345.503906 57.222656 344.96875 55.582031 C 344.371094 53.789062 343.605469 52.007812 342.542969 50.503906 C 341.804688 49.46875 340.960938 48.503906 340.039062 47.679688 C 339.738281 47.414062 339.433594 47.160156 339.113281 46.921875 C 339.089844 46.902344 338.777344 46.675781 338.617188 46.535156 C 338.523438 46.453125 338.46875 46.378906 338.433594 46.332031 C 338.324219 46.15625 338.324219 45.996094 338.335938 45.894531 C 338.351562 45.746094 338.410156 45.621094 338.507812 45.519531 C 338.644531 45.378906 338.917969 45.257812 339.273438 45.242188 C 339.746094 45.214844 340.417969 45.324219 340.628906 45.335938 C 342.804688 45.4375 344.921875 46.234375 346.859375 47.3125 C 349.496094 48.78125 351.585938 51.085938 353.015625 53.960938 C 353.382812 54.683594 353.65625 55.515625 353.972656 56.324219 C 354.25 57.042969 354.5625 57.746094 355.03125 58.296875 C 355.429688 58.769531 355.949219 59.050781 356.488281 59.308594 C 357.117188 59.609375 357.769531 59.875 358.332031 60.269531 C 359.996094 61.429688 361.105469 63.46875 361.894531 65.421875 C 362.191406 66.171875 362.574219 67.066406 362.597656 67.898438 C 362.605469 68.136719 362.484375 68.351562 362.289062 68.457031 C 360.679688 69.328125 359.007812 70.078125 357.355469 70.859375 C 356.9375 71.054688 356.441406 71.238281 355.976562 71.460938 C 356.304688 71.632812 356.625 71.800781 356.949219 71.964844 C 358.183594 72.605469 359.429688 73.21875 360.660156 73.882812 C 360.992188 74.0625 361.324219 74.246094 361.65625 74.433594 C 361.765625 74.492188 361.871094 74.554688 361.976562 74.621094 C 361.957031 74.609375 361.917969 74.589844 361.917969 74.589844 C 361.917969 74.589844 362.167969 74.71875 362.238281 74.792969 C 362.382812 74.964844 362.4375 75.171875 362.363281 75.429688 C 361.59375 78.132812 360.105469 80.886719 358.167969 82.71875 C 356.863281 83.953125 355.269531 84.660156 354.175781 86.179688 C 353.28125 87.425781 352.824219 88.96875 352.152344 90.363281 C 351.335938 92.058594 350.277344 93.605469 348.945312 94.835938 C 347.175781 96.476562 345.179688 97.351562 342.902344 97.574219 C 342.210938 97.640625 341.519531 97.683594 340.828125 97.699219 C 340.578125 97.703125 340.324219 97.699219 340.066406 97.679688 C 340.027344 97.675781 339.941406 97.660156 339.867188 97.648438 C 339.707031 97.683594 339.542969 97.636719 339.417969 97.519531 C 339.210938 97.328125 339.203125 97.128906 339.210938 97.027344 C 339.210938 96.800781 339.296875 96.578125 339.558594 96.464844 C 339.605469 96.445312 339.679688 96.421875 339.769531 96.421875 C 342.898438 95.3125 346.316406 92.488281 346.574219 88.558594 C 346.671875 87.09375 346.34375 85.699219 346.25 84.25 C 346.195312 83.449219 346.128906 82.546875 346.40625 81.785156 C 346.832031 80.625 347.671875 79.898438 348.636719 79.351562 C 349.488281 78.867188 350.445312 78.527344 351.234375 78.074219 C 351.382812 77.988281 351.78125 77.792969 352.085938 77.542969 C 352.125 77.511719 352.171875 77.464844 352.207031 77.425781 C 351.542969 76.714844 350.460938 76.257812 349.679688 75.824219 C 347.6875 74.71875 345.660156 73.707031 343.59375 72.78125 C 342.777344 72.414062 341.964844 72.03125 341.144531 71.691406 C 341.015625 71.644531 340.851562 71.550781 340.679688 71.476562 C 340.652344 71.464844 340.605469 71.449219 340.566406 71.4375 C 340.515625 71.503906 340.445312 71.585938 340.421875 71.613281 C 340.074219 72.023438 339.726562 72.4375 339.371094 72.84375 C 338.261719 74.105469 337.125 75.332031 336.015625 76.59375 C 335.804688 76.832031 335.511719 77.292969 335.195312 77.652344 C 334.90625 77.988281 334.585938 78.234375 334.292969 78.304688 C 334.105469 78.351562 333.832031 78.304688 333.535156 78.132812 C 333.167969 77.921875 332.714844 77.507812 332.539062 77.398438 C 330.988281 76.484375 329.480469 75.472656 327.964844 74.480469 C 327.128906 73.933594 326.3125 73.347656 325.445312 72.855469 C 325.253906 72.746094 324.839844 72.585938 324.558594 72.386719 C 324.339844 72.238281 324.1875 72.054688 324.105469 71.878906 C 324.007812 71.660156 324.015625 71.433594 324.125 71.210938 C 324.175781 71.097656 324.265625 70.972656 324.390625 70.871094 C 324.535156 70.746094 324.734375 70.636719 324.796875 70.59375 C 325.382812 70.207031 325.96875 69.824219 326.542969 69.414062 C 328.46875 68.039062 330.402344 66.679688 332.355469 65.355469 C 332.832031 65.035156 333.304688 64.722656 333.773438 64.386719 C 333.800781 64.363281 333.996094 64.234375 334.066406 64.1875 C 334.128906 64.097656 334.203125 64.03125 334.300781 63.988281 C 334.484375 63.90625 334.6875 63.941406 334.84375 64.078125 C 336.304688 65.417969 338.480469 67.503906 339.925781 68.867188 C 340.289062 69.210938 340.667969 69.527344 341.023438 69.878906 C 341.046875 69.898438 341.109375 69.964844 341.160156 70.019531 C 341.199219 69.992188 341.238281 69.960938 341.28125 69.933594 C 341.464844 69.800781 341.652344 69.65625 341.792969 69.582031 C 342.777344 69.078125 343.714844 68.46875 344.648438 67.855469 C 345.515625 67.285156 346.316406 66.644531 347.101562 65.9375 C 347.941406 65.183594 348.859375 64.503906 349.804688 63.914062 C 349.867188 63.875 349.976562 63.824219 350.089844 63.761719 Z M 340.46875 46.527344 C 340.515625 46.535156 340.554688 46.539062 340.589844 46.539062 C 342.605469 46.636719 344.574219 47.386719 346.375 48.386719 C 348.820312 49.75 350.753906 51.886719 352.078125 54.546875 C 352.804688 56.003906 353.199219 57.890625 354.246094 59.121094 C 354.75 59.71875 355.390625 60.089844 356.058594 60.414062 C 356.640625 60.691406 357.242188 60.925781 357.761719 61.289062 C 359.242188 62.324219 360.207031 64.171875 360.90625 65.914062 C 361.113281 66.417969 361.382812 66.988281 361.476562 67.554688 C 359.984375 68.339844 358.453125 69.03125 356.933594 69.75 C 356.179688 70.109375 355.1875 70.445312 354.527344 70.992188 C 354.355469 71.128906 354.308594 71.289062 354.296875 71.417969 C 354.28125 71.558594 354.304688 71.699219 354.378906 71.832031 C 354.421875 71.90625 354.496094 72 354.617188 72.066406 C 354.664062 72.09375 354.792969 72.140625 354.828125 72.15625 C 354.953125 72.230469 355.074219 72.304688 355.199219 72.375 C 355.625 72.613281 356.058594 72.835938 356.492188 73.058594 C 357.726562 73.695312 358.96875 74.304688 360.1875 74.964844 C 360.519531 75.140625 360.84375 75.320312 361.164062 75.503906 L 361.199219 75.523438 C 360.453125 77.871094 359.152344 80.210938 357.46875 81.800781 C 356.117188 83.085938 354.476562 83.84375 353.335938 85.425781 C 352.398438 86.730469 351.902344 88.335938 351.199219 89.792969 C 350.457031 91.351562 349.476562 92.777344 348.261719 93.910156 C 346.660156 95.386719 344.859375 96.171875 342.804688 96.375 C 342.710938 96.382812 342.605469 96.394531 342.507812 96.402344 C 345.144531 94.761719 347.425781 92.046875 347.648438 88.648438 C 347.75 87.121094 347.425781 85.667969 347.324219 84.160156 C 347.28125 83.539062 347.1875 82.832031 347.402344 82.242188 C 347.730469 81.359375 348.390625 80.839844 349.128906 80.425781 C 349.980469 79.941406 350.941406 79.597656 351.726562 79.144531 C 351.992188 78.992188 352.863281 78.523438 353.164062 78.03125 C 353.292969 77.832031 353.355469 77.621094 353.355469 77.414062 C 353.355469 77.1875 353.292969 76.949219 353.101562 76.726562 C 352.371094 75.847656 351.089844 75.265625 350.160156 74.746094 C 348.140625 73.625 346.089844 72.601562 344 71.664062 C 343.355469 71.375 342.710938 71.074219 342.0625 70.792969 C 342.125 70.746094 342.1875 70.703125 342.246094 70.675781 C 343.257812 70.152344 344.230469 69.527344 345.195312 68.894531 C 346.105469 68.292969 346.953125 67.617188 347.773438 66.878906 C 348.570312 66.164062 349.4375 65.523438 350.328125 64.96875 C 350.496094 64.863281 350.902344 64.683594 351.140625 64.457031 C 351.359375 64.25 351.480469 63.996094 351.492188 63.75 C 351.503906 63.539062 351.425781 63.28125 351.191406 63.0625 C 350.902344 62.800781 350.152344 62.527344 350 62.421875 C 349.019531 61.773438 348.25 60.859375 347.648438 59.78125 C 346.855469 58.351562 346.492188 56.730469 345.980469 55.167969 C 345.351562 53.253906 344.523438 51.363281 343.390625 49.757812 C 342.601562 48.648438 341.699219 47.621094 340.707031 46.738281 C 340.628906 46.667969 340.546875 46.597656 340.46875 46.527344 Z M 334.488281 65.3125 C 335.929688 66.640625 337.890625 68.527344 339.234375 69.789062 C 339.46875 70.007812 339.703125 70.21875 339.9375 70.429688 C 339.820312 70.550781 339.695312 70.71875 339.644531 70.785156 C 339.296875 71.191406 338.953125 71.597656 338.605469 72 C 337.496094 73.261719 336.351562 74.488281 335.242188 75.75 C 335.035156 75.988281 334.738281 76.449219 334.425781 76.8125 C 334.324219 76.933594 334.226562 77.050781 334.121094 77.105469 C 334.035156 77.058594 333.820312 76.925781 333.683594 76.820312 C 333.414062 76.617188 333.167969 76.410156 333.042969 76.335938 C 331.503906 75.425781 330.011719 74.425781 328.515625 73.441406 C 327.65625 72.882812 326.820312 72.289062 325.9375 71.78125 C 325.828125 71.722656 325.648438 71.644531 325.460938 71.554688 C 326.019531 71.1875 326.574219 70.816406 327.125 70.429688 C 329.039062 69.058594 330.964844 67.703125 332.917969 66.386719 C 333.394531 66.058594 333.882812 65.738281 334.355469 65.398438 C 334.378906 65.382812 334.425781 65.351562 334.488281 65.3125 Z M 334.488281 65.3125 " fill-opacity="1" fill-rule="evenodd"/><path fill="#000000" d="M 374.890625 71.855469 L 362.238281 74.792969 L 355.640625 71.46875 L 362.273438 67.980469 Z M 374.890625 71.855469 " fill-opacity="1" fill-rule="evenodd"/><path fill="#000000" d="M 34.753906 65.027344 C 34.585938 64.074219 35.03125 62.804688 35.238281 61.898438 C 35.871094 59.050781 36.820312 56.3125 37.816406 53.601562 C 40.417969 46.523438 44.179688 40.15625 48.621094 34.363281 C 51.730469 30.304688 55.226562 26.382812 59.371094 23.644531 C 63.269531 21.070312 67.640625 19.328125 71.992188 17.96875 C 73.371094 17.539062 74.75 17.148438 76.160156 16.859375 C 76.761719 16.738281 77.367188 16.5625 77.976562 16.503906 C 77.996094 16.5 78.46875 16.496094 78.457031 16.539062 C 78.21875 17.226562 76.257812 18.261719 75.75 18.6875 C 73.429688 20.625 71.234375 22.75 69.195312 25.0625 C 63.261719 31.820312 58.140625 39.65625 54.042969 47.945312 C 52.0625 51.945312 50.335938 56.140625 48.988281 60.457031 C 48.566406 61.820312 48.1875 63.199219 47.871094 64.601562 C 47.734375 65.1875 47.730469 66.183594 47.414062 66.691406 C 46.847656 67.609375 45.609375 68.140625 44.757812 68.621094 C 43.375 69.402344 40.730469 71.277344 40.730469 71.277344 C 40.730469 71.277344 39.273438 70.203125 38.691406 69.714844 C 37.417969 68.644531 35.636719 66.535156 34.753906 65.027344 Z M 34.753906 65.027344 " fill-opacity="1" fill-rule="evenodd"/><path fill="#000000" d="M 34.753906 89.90625 C 34.585938 90.859375 35.03125 92.128906 35.238281 93.03125 C 35.871094 95.878906 36.820312 98.621094 37.816406 101.328125 C 40.417969 108.410156 44.179688 114.773438 48.621094 120.570312 C 51.730469 124.625 55.226562 128.546875 59.371094 131.285156 C 63.269531 133.863281 67.640625 135.601562 71.992188 136.960938 C 73.371094 137.394531 74.75 137.78125 76.160156 138.070312 C 76.761719 138.191406 77.367188 138.371094 77.976562 138.429688 C 77.996094 138.429688 78.46875 138.433594 78.457031 138.394531 C 78.21875 137.707031 76.257812 136.671875 75.75 136.246094 C 73.429688 134.304688 71.234375 132.179688 69.195312 129.871094 C 63.261719 123.109375 58.140625 115.273438 54.042969 106.984375 C 52.0625 102.988281 50.335938 98.789062 48.988281 94.476562 C 48.566406 93.109375 48.1875 91.730469 47.871094 90.332031 C 47.734375 89.742188 47.730469 88.75 47.414062 88.238281 C 46.847656 87.320312 45.609375 86.792969 44.757812 86.3125 C 43.375 85.53125 40.730469 83.65625 40.730469 83.65625 C 40.730469 83.65625 39.273438 84.726562 38.691406 85.214844 C 37.417969 86.285156 35.636719 88.398438 34.753906 89.90625 Z M 34.753906 89.90625 " fill-opacity="1" fill-rule="evenodd"/><path fill="#000000" d="M 24.925781 69.953125 L 24.976562 69.925781 C 25.246094 69.808594 25.484375 69.703125 25.566406 69.648438 C 26.695312 68.898438 27.59375 67.847656 28.28125 66.605469 C 29.117188 65.105469 29.511719 63.414062 30.046875 61.773438 C 30.640625 59.980469 31.40625 58.199219 32.472656 56.695312 C 33.207031 55.660156 34.054688 54.695312 34.976562 53.871094 C 35.277344 53.605469 35.582031 53.351562 35.902344 53.109375 C 35.925781 53.09375 36.238281 52.867188 36.398438 52.726562 C 36.492188 52.644531 36.546875 52.570312 36.582031 52.519531 C 36.691406 52.347656 36.691406 52.1875 36.679688 52.085938 C 36.660156 51.9375 36.605469 51.8125 36.507812 51.710938 C 36.371094 51.570312 36.097656 51.449219 35.742188 51.429688 C 35.265625 51.40625 34.597656 51.515625 34.386719 51.527344 C 32.207031 51.628906 30.09375 52.425781 28.15625 53.5 C 25.519531 54.972656 23.425781 57.277344 21.996094 60.148438 C 21.632812 60.875 21.359375 61.707031 21.042969 62.515625 C 20.761719 63.234375 20.453125 63.9375 19.984375 64.484375 C 19.585938 64.960938 19.066406 65.242188 18.527344 65.496094 C 17.898438 65.800781 17.246094 66.0625 16.679688 66.460938 C 15.015625 67.621094 13.910156 69.660156 13.121094 71.613281 C 12.820312 72.363281 12.4375 73.257812 12.417969 74.089844 C 12.410156 74.328125 12.53125 74.542969 12.726562 74.648438 C 14.335938 75.519531 16.007812 76.265625 17.660156 77.050781 C 18.074219 77.246094 18.574219 77.429688 19.035156 77.652344 C 18.710938 77.824219 18.390625 77.988281 18.066406 78.15625 C 16.828125 78.792969 15.582031 79.410156 14.355469 80.074219 C 14.023438 80.253906 13.691406 80.4375 13.359375 80.625 C 13.25 80.683594 13.140625 80.746094 13.039062 80.8125 C 13.054688 80.800781 13.097656 80.78125 13.097656 80.78125 C 13.097656 80.78125 12.84375 80.910156 12.777344 80.984375 C 12.632812 81.15625 12.574219 81.359375 12.652344 81.617188 C 13.421875 84.324219 14.910156 87.074219 16.847656 88.910156 C 18.148438 90.144531 19.746094 90.847656 20.835938 92.371094 C 21.734375 93.617188 22.191406 95.160156 22.859375 96.554688 C 23.679688 98.25 24.734375 99.796875 26.066406 101.027344 C 27.839844 102.667969 29.835938 103.542969 32.109375 103.765625 C 32.804688 103.832031 33.496094 103.875 34.1875 103.886719 C 34.4375 103.894531 34.691406 103.890625 34.945312 103.871094 C 34.988281 103.867188 35.074219 103.851562 35.148438 103.839844 C 35.308594 103.871094 35.472656 103.828125 35.597656 103.710938 C 35.804688 103.519531 35.808594 103.320312 35.804688 103.21875 C 35.804688 102.988281 35.71875 102.769531 35.457031 102.65625 C 35.410156 102.636719 35.335938 102.613281 35.242188 102.613281 C 32.117188 101.503906 28.699219 98.679688 28.441406 94.75 C 28.34375 93.285156 28.667969 91.890625 28.765625 90.441406 C 28.816406 89.640625 28.886719 88.738281 28.605469 87.976562 C 28.183594 86.816406 27.34375 86.089844 26.378906 85.542969 C 25.523438 85.058594 24.570312 84.71875 23.78125 84.265625 C 23.632812 84.179688 23.234375 83.984375 22.929688 83.734375 C 22.890625 83.703125 22.84375 83.65625 22.808594 83.617188 C 23.472656 82.90625 24.554688 82.449219 25.335938 82.015625 C 27.324219 80.910156 29.355469 79.898438 31.417969 78.972656 C 32.238281 78.605469 33.046875 78.21875 33.871094 77.882812 C 33.996094 77.835938 34.164062 77.742188 34.335938 77.667969 C 34.363281 77.652344 34.410156 77.640625 34.449219 77.628906 C 34.5 77.695312 34.570312 77.777344 34.59375 77.804688 C 34.941406 78.214844 35.289062 78.628906 35.644531 79.03125 C 36.753906 80.296875 37.890625 81.523438 39 82.785156 C 39.210938 83.023438 39.503906 83.484375 39.816406 83.84375 C 40.109375 84.179688 40.429688 84.425781 40.722656 84.496094 C 40.910156 84.542969 41.183594 84.492188 41.480469 84.324219 C 41.847656 84.113281 42.300781 83.699219 42.476562 83.589844 C 44.023438 82.675781 45.535156 81.664062 47.050781 80.671875 C 47.882812 80.121094 48.703125 79.539062 49.570312 79.046875 C 49.757812 78.9375 50.175781 78.777344 50.457031 78.578125 C 50.675781 78.429688 50.828125 78.246094 50.910156 78.070312 C 51.003906 77.851562 51 77.625 50.890625 77.398438 C 50.839844 77.289062 50.75 77.164062 50.621094 77.058594 C 50.480469 76.9375 50.28125 76.828125 50.21875 76.785156 C 49.632812 76.398438 49.042969 76.015625 48.472656 75.605469 C 46.546875 74.230469 44.613281 72.867188 42.660156 71.546875 C 42.183594 71.226562 41.710938 70.914062 41.242188 70.578125 C 41.210938 70.554688 41.019531 70.425781 40.949219 70.378906 C 40.886719 70.289062 40.8125 70.222656 40.714844 70.179688 C 40.53125 70.097656 40.328125 70.132812 40.171875 70.269531 C 38.707031 71.605469 36.535156 73.695312 35.089844 75.058594 C 34.722656 75.402344 34.347656 75.71875 33.992188 76.066406 C 33.96875 76.089844 33.90625 76.152344 33.855469 76.210938 C 33.816406 76.183594 33.773438 76.152344 33.734375 76.121094 C 33.550781 75.992188 33.363281 75.847656 33.21875 75.773438 C 32.238281 75.269531 31.300781 74.660156 30.367188 74.046875 C 29.5 73.476562 28.699219 72.832031 27.914062 72.128906 C 27.074219 71.375 26.152344 70.695312 25.210938 70.105469 C 25.148438 70.066406 25.039062 70.015625 24.925781 69.953125 Z M 34.546875 52.71875 C 34.5 52.726562 34.460938 52.726562 34.425781 52.730469 C 32.410156 52.824219 30.441406 53.578125 28.640625 54.578125 C 26.195312 55.941406 24.261719 58.078125 22.933594 60.734375 C 22.210938 62.195312 21.816406 64.082031 20.769531 65.3125 C 20.265625 65.90625 19.625 66.28125 18.957031 66.605469 C 18.375 66.882812 17.773438 67.117188 17.253906 67.480469 C 15.773438 68.515625 14.804688 70.363281 14.109375 72.105469 C 13.902344 72.609375 13.632812 73.179688 13.535156 73.746094 C 15.027344 74.53125 16.5625 75.222656 18.082031 75.941406 C 18.835938 76.296875 19.824219 76.636719 20.488281 77.183594 C 20.660156 77.320312 20.707031 77.480469 20.71875 77.609375 C 20.734375 77.75 20.710938 77.886719 20.636719 78.023438 C 20.589844 78.097656 20.515625 78.191406 20.398438 78.257812 C 20.351562 78.285156 20.21875 78.332031 20.183594 78.347656 C 20.058594 78.421875 19.941406 78.496094 19.8125 78.5625 C 19.390625 78.804688 18.957031 79.023438 18.523438 79.25 C 17.285156 79.882812 16.046875 80.496094 14.828125 81.15625 C 14.496094 81.332031 14.171875 81.511719 13.851562 81.695312 L 13.816406 81.714844 C 14.558594 84.0625 15.863281 86.402344 17.542969 87.992188 C 18.898438 89.277344 20.539062 90.035156 21.675781 91.617188 C 22.613281 92.921875 23.113281 94.527344 23.816406 95.984375 C 24.558594 97.542969 25.535156 98.96875 26.753906 100.101562 C 28.355469 101.578125 30.15625 102.363281 32.207031 102.566406 C 32.304688 102.574219 32.410156 102.585938 32.503906 102.59375 C 29.871094 100.953125 27.589844 98.238281 27.367188 94.839844 C 27.261719 93.3125 27.589844 91.859375 27.691406 90.351562 C 27.730469 89.730469 27.828125 89.023438 27.613281 88.429688 C 27.285156 87.550781 26.621094 87.03125 25.886719 86.613281 C 25.035156 86.132812 24.074219 85.789062 23.289062 85.335938 C 23.019531 85.183594 22.152344 84.714844 21.847656 84.222656 C 21.722656 84.019531 21.660156 83.8125 21.660156 83.605469 C 21.660156 83.378906 21.722656 83.140625 21.910156 82.917969 C 22.644531 82.039062 23.925781 81.453125 24.855469 80.9375 C 26.875 79.816406 28.925781 78.792969 31.011719 77.855469 C 31.660156 77.566406 32.304688 77.265625 32.953125 76.984375 C 32.886719 76.9375 32.824219 76.894531 32.769531 76.867188 C 31.757812 76.34375 30.785156 75.71875 29.820312 75.085938 C 28.910156 74.484375 28.0625 73.808594 27.238281 73.070312 C 26.445312 72.355469 25.578125 71.710938 24.683594 71.160156 C 24.519531 71.054688 24.113281 70.875 23.871094 70.648438 C 23.65625 70.441406 23.535156 70.1875 23.523438 69.9375 C 23.511719 69.730469 23.585938 69.472656 23.820312 69.253906 C 24.113281 68.992188 24.863281 68.714844 25.015625 68.613281 C 25.992188 67.964844 26.765625 67.050781 27.367188 65.972656 C 28.160156 64.542969 28.519531 62.921875 29.035156 61.359375 C 29.664062 59.445312 30.492188 57.554688 31.625 55.949219 C 32.414062 54.839844 33.316406 53.808594 34.304688 52.929688 C 34.386719 52.859375 34.464844 52.789062 34.546875 52.71875 Z M 40.527344 71.503906 C 39.085938 72.832031 37.125 74.71875 35.78125 75.980469 C 35.546875 76.199219 35.3125 76.40625 35.078125 76.621094 C 35.191406 76.742188 35.316406 76.910156 35.371094 76.976562 C 35.71875 77.382812 36.0625 77.789062 36.410156 78.191406 C 37.519531 79.453125 38.664062 80.679688 39.773438 81.941406 C 39.976562 82.179688 40.273438 82.640625 40.589844 83.003906 C 40.691406 83.121094 40.789062 83.242188 40.890625 83.296875 C 40.976562 83.246094 41.195312 83.117188 41.332031 83.011719 C 41.601562 82.808594 41.847656 82.601562 41.972656 82.527344 C 43.511719 81.617188 45.003906 80.617188 46.5 79.632812 C 47.359375 79.074219 48.191406 78.476562 49.078125 77.972656 C 49.1875 77.914062 49.363281 77.835938 49.554688 77.746094 C 48.992188 77.375 48.4375 77.007812 47.890625 76.617188 C 45.976562 75.25 44.046875 73.894531 42.097656 72.578125 C 41.617188 72.25 41.132812 71.929688 40.65625 71.589844 C 40.636719 71.574219 40.589844 71.542969 40.527344 71.503906 Z M 40.527344 71.503906 " fill-opacity="1" fill-rule="evenodd"/><path fill="#000000" d="M 0.125 78.046875 L 12.777344 80.984375 L 19.375 77.660156 L 12.742188 74.171875 Z M 0.125 78.046875 " fill-opacity="1" fill-rule="evenodd"/></svg>