<svg xmlns="http://www.w3.org/2000/svg" xmlns:xlink="http://www.w3.org/1999/xlink" width="500" zoomAndPan="magnify" viewBox="0 0 375 149.999998" height="200" preserveAspectRatio="xMidYMid meet" version="1.0"><defs><clipPath id="c33fcd8270"><path d="M 128 13.59375 L 208 13.59375 L 208 106 L 128 106 Z M 128 13.59375 " clip-rule="nonzero"/></clipPath></defs><path fill="#000000" d="M 180.019531 111.660156 C 179.941406 111.609375 179.761719 111.605469 179.667969 111.585938 C 179.390625 111.523438 179.109375 111.464844 178.832031 111.414062 C 177.476562 111.160156 176.027344 111.15625 174.695312 111.550781 C 174.285156 111.671875 173.894531 111.839844 173.554688 112.105469 C 173.363281 112.253906 173.113281 112.550781 172.847656 112.417969 C 172.574219 112.28125 172.683594 111.925781 172.75 111.691406 C 172.933594 111.015625 173.285156 110.371094 173.660156 109.789062 C 173.984375 109.28125 174.394531 108.804688 174.914062 108.492188 C 175.378906 108.222656 175.902344 108.097656 176.425781 108.015625 C 177.3125 107.871094 178.222656 107.859375 179.121094 107.933594 C 179.144531 107.902344 179.277344 107.921875 179.3125 107.921875 C 179.492188 107.917969 179.675781 107.925781 179.859375 107.9375 C 180.617188 107.992188 181.582031 108.128906 182.074219 108.792969 C 182.449219 109.300781 182.300781 109.929688 182.152344 110.496094 C 182.09375 110.71875 181.886719 111.609375 181.347656 112.511719 C 180.753906 113.503906 179.804688 114.511719 179.472656 114.84375 C 178.277344 116.03125 176.617188 117.234375 175.507812 118.503906 C 174.933594 119.160156 174.375 119.980469 174.511719 120.902344 C 174.464844 120.953125 174.578125 121.15625 174.597656 121.203125 C 174.738281 121.511719 174.902344 121.757812 175.144531 121.996094 C 176.050781 122.882812 177.503906 123.140625 178.710938 123.183594 C 180.730469 123.253906 182.921875 122.8125 184.773438 122.003906 C 185.464844 121.703125 186.136719 121.367188 186.785156 120.976562 C 187.03125 120.832031 187.457031 120.472656 187.769531 120.519531 C 187.960938 120.550781 187.835938 120.878906 187.800781 120.984375 C 187.644531 121.460938 187.351562 121.84375 187.019531 122.210938 C 185.828125 123.527344 184.457031 124.722656 182.777344 125.332031 C 182.777344 125.332031 182.78125 125.332031 182.78125 125.335938 C 182.625 125.378906 182.464844 125.484375 182.3125 125.542969 C 181.863281 125.726562 181.40625 125.898438 180.941406 126.023438 C 179.4375 126.433594 177.800781 126.460938 176.277344 126.152344 C 175.515625 126 174.726562 125.738281 174.125 125.21875 C 174.074219 125.175781 173.988281 125.066406 173.945312 125.011719 C 173.804688 124.84375 173.667969 124.671875 173.550781 124.484375 C 173.261719 124.011719 173.101562 123.476562 173.035156 122.925781 C 172.746094 120.636719 173.667969 118.261719 175.0625 116.484375 C 175.609375 115.789062 176.269531 115.195312 176.90625 114.585938 C 177.671875 113.851562 179.234375 112.371094 180.019531 111.660156 Z M 180.019531 111.660156 " fill-opacity="1" fill-rule="evenodd"/><path fill="#000000" d="M 93.40625 30.5 C 93.417969 30.53125 93.394531 30.429688 93.382812 30.398438 C 93.355469 30.324219 93.324219 30.257812 93.285156 30.191406 C 93.164062 29.988281 93 29.769531 92.765625 29.9375 C 92.125 30.386719 91.675781 31.425781 91.320312 32.117188 C 90.167969 34.347656 89.140625 36.640625 88.382812 39.066406 C 88 40.289062 87.566406 41.59375 87.789062 42.898438 C 87.859375 43.296875 87.980469 43.691406 88.152344 44.050781 C 89.40625 46.664062 92.917969 46.410156 94.894531 44.996094 C 97.242188 43.3125 97.121094 39.199219 95.734375 36.914062 C 94.886719 35.519531 93.730469 34.324219 92.460938 33.390625 C 92.414062 33.457031 92.503906 33.222656 92.539062 33.144531 C 92.621094 32.964844 92.710938 32.785156 92.800781 32.605469 C 93.0625 32.085938 93.421875 30.921875 93.40625 30.5 Z M 90.914062 36.769531 C 90.921875 36.761719 90.921875 36.757812 90.910156 36.765625 L 90.914062 36.769531 C 90.898438 36.796875 90.84375 36.871094 90.824219 36.90625 C 90.773438 37.003906 90.71875 37.101562 90.667969 37.199219 C 90.523438 37.484375 90.386719 37.773438 90.261719 38.066406 C 89.882812 38.953125 89.558594 40.269531 89.984375 41.207031 C 90.195312 41.667969 90.609375 41.902344 91.042969 42.050781 C 91.960938 42.359375 92.867188 42.164062 93.765625 41.882812 C 94.109375 41.773438 94.597656 41.652344 94.875 41.394531 C 94.980469 41.296875 94.933594 41.132812 94.890625 41.015625 C 94.757812 40.667969 94.519531 40.375 94.300781 40.089844 C 93.433594 38.960938 91.945312 37.722656 90.914062 36.769531 Z M 90.914062 36.769531 " fill-opacity="1" fill-rule="evenodd"/><path fill="#000000" d="M 190.0625 24.304688 C 190.410156 23.855469 190.609375 23.246094 190.878906 22.761719 C 191.527344 21.601562 192.203125 20.449219 193.027344 19.375 C 193.007812 19.417969 193.128906 19.550781 193.148438 19.59375 C 193.261719 19.792969 193.351562 19.996094 193.445312 20.203125 C 193.863281 21.117188 194.296875 22.027344 194.707031 22.945312 C 195.761719 25.335938 196.890625 27.699219 197.886719 30.105469 C 198.148438 30.734375 198.398438 31.363281 198.613281 32.003906 C 198.8125 32.589844 199.007812 33.21875 198.875 33.835938 C 198.851562 33.929688 198.820312 34.1875 198.703125 34.238281 C 198.636719 34.265625 198.535156 34.183594 198.492188 34.152344 C 198.308594 34.023438 198.140625 33.875 197.972656 33.730469 C 197.394531 33.222656 196.828125 32.710938 196.28125 32.175781 C 196.132812 32.03125 195.46875 31.386719 195.429688 31.957031 C 195.425781 32.011719 195.429688 32.070312 195.433594 32.125 C 195.445312 32.207031 195.460938 32.289062 195.488281 32.371094 C 195.675781 32.332031 195.527344 32.699219 195.542969 32.863281 C 195.574219 33.148438 195.597656 33.433594 195.621094 33.71875 C 195.6875 34.601562 195.738281 35.484375 195.808594 36.363281 C 196.023438 39.078125 196.265625 41.78125 196.601562 44.488281 C 197.597656 52.550781 197.964844 61.613281 198.898438 69.679688 C 198.925781 69.6875 198.949219 70.011719 198.953125 70.035156 C 199.007812 70.433594 199.070312 70.835938 199.125 71.238281 C 199.355469 72.933594 199.46875 74.636719 199.582031 76.34375 C 199.820312 79.839844 200.234375 83.320312 200.277344 86.824219 C 200.296875 88.4375 200.34375 90.09375 199.992188 91.691406 C 199.570312 93.597656 198.75 95.550781 197.597656 97.226562 C 197.300781 97.65625 196.964844 98.054688 196.585938 98.433594 C 196.53125 98.484375 196.296875 98.792969 196.199219 98.699219 C 195.894531 98.414062 196.285156 97.261719 196.316406 96.933594 C 196.464844 95.339844 196.394531 93.742188 196.355469 92.148438 C 196.308594 90.359375 196.28125 88.570312 196.203125 86.78125 C 196.074219 83.816406 195.867188 80.867188 195.582031 77.914062 C 195.746094 77.992188 195.539062 77.59375 195.523438 77.433594 C 195.492188 77.160156 195.460938 76.882812 195.433594 76.609375 C 195.335938 75.695312 195.242188 74.78125 195.15625 73.863281 C 194.898438 71.148438 194.621094 68.425781 194.464844 65.703125 C 193.996094 57.445312 193.292969 49.183594 192.480469 40.945312 C 192.550781 40.925781 192.464844 40.824219 192.460938 40.761719 C 192.449219 40.511719 192.421875 40.261719 192.402344 40.007812 C 192.320312 39.015625 192.253906 38.015625 192.171875 37.019531 C 191.941406 34.175781 191.707031 31.332031 191.425781 28.488281 C 191.355469 27.78125 191.292969 27.070312 191.230469 26.363281 C 191.203125 26.058594 191.238281 25.574219 191.0625 25.292969 C 190.910156 25.050781 190.308594 24.46875 190.0625 24.304688 Z M 190.0625 24.304688 " fill-opacity="1" fill-rule="evenodd"/><path fill="#000000" d="M 218.484375 42.246094 L 222.472656 37.21875 L 228.980469 42.347656 L 225.148438 47.425781 Z M 218.484375 42.246094 " fill-opacity="1" fill-rule="evenodd"/><path fill="#000000" d="M 308.765625 83.574219 C 308.875 83.539062 309.3125 82.707031 309.398438 82.582031 C 310.105469 81.558594 310.792969 80.511719 311.550781 79.527344 C 311.71875 79.300781 312.144531 78.472656 312.496094 78.488281 C 312.875 78.503906 312.914062 79.734375 312.957031 79.984375 C 313.253906 81.753906 313.488281 83.550781 313.519531 85.347656 C 313.574219 88.71875 313.265625 93.175781 310.300781 95.375 C 305.640625 98.839844 299.148438 93.917969 299.148438 88.640625 C 299.15625 88.648438 298.101562 90.097656 298.042969 90.207031 C 297.03125 91.953125 296.367188 93.875 295.328125 95.597656 C 292.703125 99.96875 286.480469 101.863281 282.519531 97.933594 C 280.378906 95.8125 279.632812 92.121094 279.761719 89.195312 C 278.726562 90.789062 277.542969 92.371094 276.039062 93.574219 C 275.777344 93.78125 273.976562 94.636719 273.976562 94.636719 C 273.976562 94.636719 274.304688 96.074219 274.359375 96.644531 C 274.496094 98.125 274.664062 99.523438 274.496094 101.125 C 274.472656 101.285156 274.34375 101.738281 274.300781 101.855469 C 273.992188 102.609375 273.550781 103.347656 273.085938 104.007812 C 271.007812 106.957031 268.257812 109.570312 265.664062 112.058594 C 264.289062 113.378906 262.886719 114.679688 261.421875 115.894531 C 254.671875 121.503906 244.6875 127.804688 235.804688 122.910156 C 234.539062 122.214844 233.417969 121.289062 232.472656 120.195312 C 231.277344 118.804688 230.367188 117.195312 229.765625 115.460938 C 228.246094 111.066406 228.371094 106.175781 229.53125 101.710938 C 229.953125 100.109375 230.480469 98.488281 231.289062 97.035156 C 231.339844 96.953125 232.183594 95.585938 232.34375 95.878906 C 232.550781 96.257812 232.097656 97.21875 232 97.582031 C 231.550781 99.210938 231.078125 100.828125 230.835938 102.503906 C 230.050781 107.988281 230.507812 113.953125 235.460938 117.289062 C 236.25 117.824219 237.125 118.269531 238.03125 118.582031 C 241.273438 119.695312 244.816406 119.210938 248.023438 118.238281 C 254.757812 116.191406 260.625 111.304688 265.964844 106.886719 C 267.296875 105.78125 268.589844 104.640625 269.878906 103.488281 C 270.722656 102.730469 271.71875 101.945312 272.261719 100.925781 C 273 99.542969 271.984375 95.808594 271.984375 95.808594 C 271.984375 95.808594 270.859375 96.46875 270.769531 96.511719 C 269.527344 97.078125 268.710938 97.328125 267.394531 97.699219 C 263.433594 98.820312 258.121094 98.675781 256.386719 94.15625 C 254.847656 90.148438 257.367188 85.398438 260.109375 82.570312 C 261.144531 81.5 262.753906 79.96875 264.402344 80.203125 C 269 80.867188 271.101562 85.890625 273 89.433594 C 272.996094 89.433594 273.289062 89.332031 273.367188 89.292969 C 273.65625 89.148438 273.933594 88.972656 274.199219 88.792969 C 274.96875 88.28125 275.71875 87.738281 276.453125 87.1875 C 277.859375 86.128906 279.117188 84.925781 280.445312 83.78125 C 280.652344 83.601562 281.433594 82.71875 281.769531 82.867188 C 281.945312 82.945312 281.941406 83.351562 281.957031 83.503906 C 282.023438 84.160156 281.957031 84.824219 281.953125 85.484375 C 281.941406 87.660156 282.3125 89.886719 283.6875 91.648438 C 285.773438 94.320312 289.628906 93.996094 292.28125 92.347656 C 296.347656 89.820312 297.660156 85.300781 299.636719 81.265625 C 299.707031 81.117188 299.890625 81.800781 299.902344 81.84375 C 300.097656 82.589844 300.230469 83.351562 300.433594 84.097656 C 300.972656 86.09375 301.539062 88.425781 303.613281 89.339844 C 304.34375 89.660156 305.160156 89.738281 305.949219 89.742188 C 306.535156 89.746094 307.113281 89.699219 307.6875 89.574219 C 308.089844 89.488281 308.460938 89.351562 308.828125 89.160156 C 311.070312 87.976562 309.605469 85.367188 308.765625 83.574219 Z M 267.351562 90.609375 C 265.960938 90.894531 263.972656 91.503906 262.535156 91.59375 C 261.980469 91.628906 261.292969 91.667969 260.800781 91.347656 C 260.273438 91 260.273438 90.304688 260.441406 89.761719 C 260.789062 88.648438 261.632812 87.492188 262.71875 86.996094 C 264.507812 86.175781 266.40625 89.3125 267.351562 90.609375 Z M 267.351562 90.609375 " fill-opacity="1" fill-rule="evenodd"/><path fill="#000000" d="M 235.507812 82.839844 C 235.527344 82.847656 235.484375 82.976562 235.480469 82.988281 C 235.4375 83.167969 235.394531 83.34375 235.347656 83.523438 C 235.128906 84.34375 234.917969 85.167969 234.699219 85.988281 C 234.394531 87.128906 234.144531 88.273438 233.878906 89.421875 C 233.808594 89.710938 233.742188 90.003906 233.660156 90.292969 C 233.640625 90.363281 233.558594 90.539062 233.585938 90.609375 C 233.667969 90.820312 233.875 91.007812 234.019531 91.167969 C 234.351562 91.527344 234.707031 91.851562 235.058594 92.195312 C 235.09375 92.148438 235.007812 92.316406 235.019531 92.375 C 235.054688 92.550781 235.097656 92.726562 235.144531 92.898438 C 235.261719 93.351562 235.40625 93.792969 235.558594 94.230469 C 236.023438 95.550781 236.511719 96.863281 237.007812 98.167969 C 238.507812 102.082031 240.613281 105.640625 242.25 109.472656 C 242.25 109.460938 241.675781 109.988281 241.636719 110.03125 C 241.269531 110.398438 240.929688 110.792969 240.566406 111.171875 C 239.503906 112.289062 238.335938 113.304688 237.171875 114.308594 C 233.4375 117.539062 229.902344 120.859375 225.628906 123.339844 C 224.507812 123.992188 223.394531 124.746094 222.234375 125.320312 C 219.441406 126.699219 216.273438 127.832031 213.171875 128.160156 C 212.132812 128.273438 211.078125 128.277344 210.03125 128.144531 C 205.878906 127.609375 201.914062 125.296875 199.828125 121.488281 C 199.226562 120.390625 198.8125 119.179688 198.527344 117.953125 C 197.6875 114.320312 198.0625 110.59375 198.679688 106.953125 C 199.253906 103.589844 200.210938 100.535156 201.390625 97.359375 C 201.609375 96.765625 202.5625 94.859375 201.476562 94.5 C 201.417969 94.484375 201.195312 94.984375 201.175781 95.019531 C 200.863281 95.605469 200.589844 96.214844 200.3125 96.816406 C 199.15625 99.34375 198.035156 101.90625 197.164062 104.554688 C 195.398438 109.925781 194.746094 115.703125 195.453125 121.335938 C 196.003906 125.761719 197.523438 129.734375 201.0625 132.492188 C 205.28125 135.78125 211.046875 136.425781 216.128906 135.125 C 219.664062 134.226562 223.160156 132.34375 226.195312 130.300781 C 226.207031 130.308594 227.886719 129.105469 228.03125 128.996094 C 229.925781 127.585938 231.824219 126.160156 233.65625 124.660156 C 236.964844 121.953125 240.414062 118.945312 242.621094 115.179688 C 245.242188 110.710938 245.230469 104.980469 243.617188 100.1875 C 243.722656 100.203125 243.542969 99.984375 243.5 99.886719 C 243.394531 99.65625 243.285156 99.429688 243.179688 99.203125 C 242.898438 98.597656 242.601562 98.003906 242.316406 97.402344 C 241.453125 95.585938 240.375 93.808594 239.691406 91.910156 C 239.527344 91.457031 239.820312 91.441406 240.242188 91.6875 C 240.753906 91.984375 241.214844 92.394531 241.757812 92.632812 C 241.953125 92.71875 242.253906 92.777344 242.339844 92.511719 C 242.507812 91.972656 242.015625 91.273438 241.757812 90.859375 C 240.910156 89.492188 236.660156 84.28125 235.507812 82.839844 Z M 235.507812 82.839844 " fill-opacity="1" fill-rule="evenodd"/><path fill="#000000" d="M 248.714844 71.191406 C 248.703125 71.167969 248.699219 71.238281 248.691406 71.257812 C 248.667969 71.316406 248.648438 71.375 248.621094 71.433594 C 248.578125 71.535156 248.375 72.144531 248.203125 72.101562 C 247.894531 72.019531 247.554688 71.519531 247.332031 71.335938 C 246.824219 70.921875 246.257812 70.554688 245.703125 70.191406 C 245.425781 70.007812 245.027344 69.828125 244.882812 69.542969 C 244.730469 69.25 244.75 68.875 244.738281 68.5625 C 244.703125 67.625 244.796875 65.839844 246.144531 65.527344 C 247.144531 65.296875 248.160156 65.929688 248.851562 66.457031 C 250.140625 67.441406 250.957031 68.808594 251.613281 70.148438 C 252.449219 71.851562 253.113281 73.628906 253.675781 75.410156 C 253.6875 75.457031 253.703125 75.320312 253.714844 75.273438 C 253.738281 75.1875 253.757812 75.097656 253.78125 75.007812 C 253.835938 74.757812 253.894531 74.507812 253.945312 74.257812 C 254.109375 73.46875 254.265625 72.675781 254.472656 71.890625 C 255.027344 69.800781 255.675781 67.761719 256.871094 65.859375 C 257.382812 65.046875 258.207031 64.097656 259.449219 64.3125 C 260.152344 64.4375 260.515625 64.945312 260.921875 65.394531 C 261.441406 65.972656 262.117188 66.867188 262.039062 67.636719 C 261.992188 68.101562 261.707031 68.578125 261.5 69 C 261.324219 69.359375 261.125 69.792969 260.78125 70.0625 C 260.46875 70.304688 260.0625 69.703125 259.929688 69.542969 C 259.476562 69.003906 258.480469 67.65625 257.578125 68.371094 C 257.050781 68.785156 256.792969 69.417969 256.570312 69.984375 C 256.160156 71.015625 255.851562 72.078125 255.558594 73.136719 C 255.539062 73.214844 255.472656 73.445312 255.453125 73.515625 C 255.347656 73.917969 255.226562 74.320312 255.121094 74.726562 C 254.699219 76.304688 254.179688 77.878906 253.53125 79.40625 C 253.386719 79.746094 253.234375 80.089844 253.046875 80.417969 C 253.015625 80.472656 252.910156 80.714844 252.796875 80.691406 C 252.667969 80.664062 252.648438 80.328125 252.628906 80.246094 C 252.527344 79.808594 252.414062 79.371094 252.316406 78.929688 C 252.210938 78.464844 252.105469 77.996094 251.964844 77.539062 C 251.722656 76.742188 251.464844 75.945312 251.171875 75.164062 C 250.734375 74 249.585938 71.859375 248.714844 71.191406 Z M 248.714844 71.191406 " fill-opacity="1" fill-rule="evenodd"/><path fill="#000000" d="M 243.976562 42.148438 C 243.964844 42.128906 243.960938 42.195312 243.953125 42.21875 C 243.929688 42.277344 243.910156 42.335938 243.882812 42.390625 C 243.839844 42.496094 243.636719 43.105469 243.464844 43.058594 C 243.15625 42.976562 242.820312 42.480469 242.59375 42.296875 C 242.085938 41.882812 241.519531 41.515625 240.964844 41.152344 C 240.6875 40.96875 240.292969 40.785156 240.144531 40.5 C 239.992188 40.207031 240.011719 39.835938 240 39.519531 C 239.964844 38.585938 240.058594 36.800781 241.40625 36.488281 C 242.40625 36.253906 243.421875 36.890625 244.113281 37.417969 C 245.40625 38.398438 246.21875 39.769531 246.878906 41.105469 C 247.710938 42.808594 248.375 44.585938 248.9375 46.371094 C 248.953125 46.417969 248.964844 46.28125 248.976562 46.234375 C 249 46.144531 249.023438 46.054688 249.042969 45.96875 C 249.101562 45.71875 249.15625 45.464844 249.207031 45.214844 C 249.371094 44.425781 249.527344 43.632812 249.734375 42.851562 C 250.289062 40.761719 250.9375 38.71875 252.132812 36.820312 C 252.644531 36.007812 253.46875 35.054688 254.710938 35.269531 C 255.414062 35.394531 255.777344 35.90625 256.183594 36.355469 C 256.703125 36.929688 257.378906 37.824219 257.300781 38.597656 C 257.253906 39.058594 256.96875 39.539062 256.761719 39.960938 C 256.585938 40.320312 256.386719 40.75 256.042969 41.019531 C 255.730469 41.261719 255.328125 40.660156 255.191406 40.5 C 254.738281 39.964844 253.746094 38.617188 252.839844 39.328125 C 252.3125 39.746094 252.058594 40.378906 251.832031 40.941406 C 251.421875 41.972656 251.117188 43.035156 250.820312 44.09375 C 250.800781 44.171875 250.734375 44.40625 250.71875 44.472656 C 250.609375 44.878906 250.492188 45.28125 250.382812 45.683594 C 249.960938 47.265625 249.441406 48.835938 248.792969 50.363281 C 248.648438 50.707031 248.496094 51.046875 248.308594 51.375 C 248.277344 51.429688 248.171875 51.675781 248.058594 51.652344 C 247.929688 51.625 247.910156 51.285156 247.890625 51.207031 C 247.792969 50.765625 247.675781 50.328125 247.578125 49.890625 C 247.472656 49.421875 247.371094 48.957031 247.226562 48.496094 C 246.984375 47.703125 246.726562 46.90625 246.433594 46.125 C 245.996094 44.960938 244.847656 42.816406 243.976562 42.148438 Z M 243.976562 42.148438 " fill-opacity="1" fill-rule="evenodd"/><path fill="#000000" d="M 149.128906 33.941406 C 149.117188 33.921875 149.113281 33.988281 149.105469 34.011719 C 149.082031 34.070312 149.0625 34.128906 149.035156 34.1875 C 148.992188 34.289062 148.789062 34.898438 148.617188 34.851562 C 148.308594 34.773438 147.96875 34.273438 147.742188 34.089844 C 147.238281 33.675781 146.671875 33.308594 146.117188 32.945312 C 145.839844 32.761719 145.441406 32.582031 145.296875 32.296875 C 145.144531 32 145.164062 31.628906 145.152344 31.316406 C 145.117188 30.378906 145.210938 28.59375 146.558594 28.28125 C 147.558594 28.050781 148.574219 28.683594 149.265625 29.210938 C 150.554688 30.191406 151.371094 31.5625 152.027344 32.898438 C 152.863281 34.605469 153.527344 36.378906 154.089844 38.164062 C 154.101562 38.210938 154.117188 38.074219 154.128906 38.027344 C 154.152344 37.9375 154.171875 37.851562 154.195312 37.761719 C 154.25 37.511719 154.308594 37.261719 154.359375 37.011719 C 154.523438 36.21875 154.679688 35.429688 154.886719 34.644531 C 155.441406 32.554688 156.089844 30.515625 157.285156 28.613281 C 157.796875 27.800781 158.621094 26.847656 159.863281 27.066406 C 160.566406 27.1875 160.929688 27.699219 161.335938 28.148438 C 161.855469 28.726562 162.53125 29.617188 162.453125 30.390625 C 162.40625 30.855469 162.121094 31.332031 161.910156 31.753906 C 161.738281 32.113281 161.539062 32.542969 161.195312 32.816406 C 160.882812 33.058594 160.476562 32.453125 160.34375 32.292969 C 159.886719 31.757812 158.894531 30.410156 157.992188 31.121094 C 157.464844 31.539062 157.207031 32.171875 156.984375 32.734375 C 156.574219 33.765625 156.265625 34.828125 155.972656 35.890625 C 155.953125 35.96875 155.886719 36.199219 155.867188 36.265625 C 155.761719 36.671875 155.640625 37.074219 155.535156 37.476562 C 155.113281 39.058594 154.59375 40.632812 153.945312 42.15625 C 153.796875 42.5 153.648438 42.84375 153.460938 43.167969 C 153.429688 43.222656 153.324219 43.46875 153.210938 43.445312 C 153.082031 43.417969 153.0625 43.078125 153.042969 43 C 152.941406 42.558594 152.828125 42.125 152.730469 41.683594 C 152.625 41.21875 152.519531 40.75 152.378906 40.289062 C 152.136719 39.496094 151.878906 38.699219 151.585938 37.917969 C 151.148438 36.753906 150 34.613281 149.128906 33.941406 Z M 149.128906 33.941406 " fill-opacity="1" fill-rule="evenodd"/><path fill="#000000" d="M 237.898438 65.675781 C 237.96875 65.734375 238.054688 65.578125 238.132812 65.53125 C 238.425781 65.363281 238.710938 65.1875 239 65.019531 C 240.183594 64.324219 241.367188 63.644531 242.578125 62.992188 C 247.683594 60.246094 253.175781 57.761719 258.695312 55.832031 C 260.191406 55.308594 261.679688 54.78125 263.183594 54.28125 C 263.527344 54.167969 263.867188 54.042969 264.21875 53.945312 C 264.238281 53.941406 264.519531 53.851562 264.542969 53.902344 C 264.574219 53.976562 264.390625 54.203125 264.355469 54.265625 C 264.148438 54.601562 263.9375 54.933594 263.730469 55.269531 C 263.414062 55.789062 263.203125 56.550781 262.792969 57 C 262.585938 57.222656 261.925781 57.328125 261.648438 57.4375 C 260.738281 57.789062 259.835938 58.15625 258.933594 58.527344 C 253.234375 60.875 247.660156 63.511719 242.082031 66.097656 C 240.757812 66.710938 239.417969 67.3125 238.121094 67.972656 C 237.949219 68.058594 237.039062 68.679688 236.824219 68.566406 C 236.671875 68.488281 236.820312 68.101562 236.851562 68 C 237.027344 67.445312 237.652344 66.207031 237.898438 65.675781 Z M 237.898438 65.675781 " fill-opacity="1" fill-rule="evenodd"/><path fill="#000000" d="M 102.136719 35.0625 C 102.207031 35.121094 102.292969 34.964844 102.371094 34.917969 C 102.660156 34.75 102.949219 34.574219 103.238281 34.402344 C 104.421875 33.710938 105.605469 33.027344 106.816406 32.378906 C 111.921875 29.632812 117.410156 27.144531 122.933594 25.21875 C 124.425781 24.695312 125.917969 24.167969 127.421875 23.667969 C 127.765625 23.554688 128.105469 23.429688 128.457031 23.332031 C 128.476562 23.328125 128.757812 23.238281 128.78125 23.285156 C 128.8125 23.363281 128.628906 23.589844 128.589844 23.648438 C 128.386719 23.984375 128.175781 24.320312 127.96875 24.65625 C 127.652344 25.171875 127.441406 25.9375 127.027344 26.386719 C 126.824219 26.609375 126.164062 26.714844 125.886719 26.824219 C 124.976562 27.175781 124.074219 27.542969 123.171875 27.914062 C 117.472656 30.257812 111.898438 32.898438 106.320312 35.484375 C 104.996094 36.097656 103.65625 36.699219 102.355469 37.355469 C 102.183594 37.445312 101.277344 38.0625 101.0625 37.953125 C 100.910156 37.875 101.058594 37.488281 101.089844 37.386719 C 101.265625 36.832031 101.890625 35.59375 102.136719 35.0625 Z M 102.136719 35.0625 " fill-opacity="1" fill-rule="evenodd"/><g clip-path="url(#c33fcd8270)"><path fill="#000000" d="M 172.40625 30.917969 C 172.238281 30.898438 172.675781 31.136719 172.804688 31.246094 C 173.066406 31.457031 173.324219 31.679688 173.570312 31.910156 C 174.398438 32.691406 175.195312 33.5 176.15625 34.125 C 176.300781 34.21875 177.101562 34.828125 177.207031 34.425781 C 177.523438 33.207031 176.351562 31.367188 175.847656 30.351562 C 174.269531 27.148438 172.617188 23.984375 171.058594 20.773438 C 170.59375 19.8125 169.808594 17.171875 168.800781 16.617188 C 168.132812 16.253906 166.867188 19.023438 166.675781 19.390625 C 165.28125 22.058594 164.707031 23.027344 167.074219 25.046875 C 166.832031 29.617188 171.828125 55.175781 173.273438 63.4375 C 174.042969 67.8125 175.105469 72.375 175.105469 76.84375 C 175.191406 76.828125 174.988281 76.96875 174.933594 77.023438 C 174.789062 77.164062 174.628906 77.285156 174.46875 77.40625 C 173.953125 77.769531 173.398438 78.089844 172.835938 78.378906 C 171.195312 79.230469 169.417969 79.9375 167.640625 80.441406 C 165.046875 81.175781 162.320312 81.464844 159.648438 81.761719 C 158.429688 81.894531 156.605469 81.730469 155.578125 82.527344 C 154.1875 83.597656 153.632812 85.566406 153 87.125 C 152.679688 87.910156 152.355469 88.695312 152.019531 89.472656 C 151.921875 89.691406 151.609375 90.15625 151.660156 90.410156 C 151.734375 90.75 153.878906 90.402344 154.113281 90.382812 C 156.941406 90.132812 159.777344 89.996094 162.617188 90.050781 C 168.734375 90.167969 174.441406 92.128906 180.414062 93.050781 C 179.925781 92.921875 178.398438 93.894531 177.953125 94.085938 C 175.695312 95.054688 173.429688 95.976562 171.144531 96.859375 C 167.871094 98.121094 164.371094 99.730469 160.820312 99.894531 C 155.140625 100.164062 149.292969 95.929688 146.636719 91.109375 C 144.183594 86.652344 143.773438 80.867188 142.886719 75.949219 C 141.257812 66.9375 141.246094 57.964844 140.433594 48.878906 C 139.9375 43.3125 138.925781 37.816406 137.71875 32.363281 C 136.660156 27.585938 135.488281 22.78125 133.925781 18.140625 C 133.527344 16.957031 133.136719 15.761719 132.621094 14.621094 C 132.546875 14.457031 132.324219 13.730469 132.117188 13.671875 C 131.914062 13.617188 131.28125 15.144531 131.203125 15.292969 C 130.507812 16.640625 129.882812 18.019531 129.199219 19.371094 C 128.96875 19.820312 128.324219 20.550781 128.285156 21.0625 C 128.25 21.546875 128.9375 22.492188 129.132812 22.921875 C 129.933594 24.675781 130.765625 26.417969 131.429688 28.230469 C 133.335938 33.464844 134.335938 39.089844 135.140625 44.582031 C 137.082031 57.8125 137.023438 71.277344 140.125 84.332031 C 141.511719 90.164062 143.15625 96.71875 147.699219 100.957031 C 157.1875 109.804688 170.523438 103.507812 180.738281 99.746094 C 183.386719 98.777344 186.042969 97.847656 188.726562 97 C 192.140625 95.9375 195.621094 94.984375 199.136719 94.300781 C 200.558594 94.023438 202.34375 94.164062 203.699219 93.699219 C 205.140625 93.199219 205.964844 90.195312 206.441406 88.941406 C 206.5625 88.621094 207.277344 87.4375 206.890625 87.152344 C 206.175781 86.636719 204.527344 86.929688 203.714844 86.910156 C 201.265625 86.867188 198.8125 86.789062 196.363281 86.679688 C 188.515625 86.332031 179.449219 86.1875 171.945312 83.476562 C 171.96875 83.496094 172.617188 83.050781 172.65625 83.019531 C 173.410156 82.511719 174.109375 81.917969 174.703125 81.226562 C 177.007812 78.546875 177.527344 75.332031 177.394531 71.890625 C 176.894531 58.691406 173.566406 44.394531 172.40625 30.917969 Z M 172.40625 30.917969 " fill-opacity="1" fill-rule="evenodd"/></g><path fill="#000000" d="M 125.015625 91.457031 C 124.972656 91.484375 124.582031 91.160156 124.546875 91.136719 C 124.265625 90.96875 123.957031 90.859375 123.640625 90.777344 C 122.097656 90.382812 120.367188 90.257812 118.777344 90.269531 C 115.902344 90.292969 112.523438 91.332031 109.792969 90.011719 C 108.0625 89.171875 107.269531 87.304688 107.039062 85.492188 C 106.570312 81.839844 107.875 78.050781 110.273438 75.273438 C 110.902344 74.546875 111.648438 73.878906 112.449219 73.359375 C 116.15625 70.957031 119.875 73.964844 122.238281 76.828125 C 126.609375 82.128906 129.746094 89.511719 126.652344 96.199219 C 123.101562 103.878906 112.507812 110.101562 104.757812 104.664062 C 101.335938 102.269531 98.015625 95.074219 92.941406 96.597656 C 90.910156 97.207031 89.402344 99.199219 88.21875 100.839844 C 85.464844 104.65625 83.59375 109.082031 81.523438 113.285156 C 80.359375 115.65625 78.742188 119.175781 75.695312 119.425781 C 68.734375 120.003906 66.121094 110.453125 65.761719 105.210938 C 65.679688 104.011719 65.632812 102.800781 65.648438 101.597656 C 65.667969 99.792969 65.496094 95.996094 66.925781 94.566406 C 67.347656 94.148438 67.464844 95.902344 67.476562 96.046875 C 67.636719 97.730469 67.589844 99.4375 67.640625 101.125 C 67.667969 101.988281 67.703125 102.847656 67.75 103.710938 C 67.953125 107.332031 68.695312 114.417969 73.382812 115.132812 C 77.316406 115.734375 79.875 111.691406 81.550781 108.789062 C 84.351562 103.945312 86.351562 98.59375 89.664062 94.050781 C 91.03125 92.179688 92.828125 89.84375 95.105469 89.03125 C 99.230469 87.566406 102.03125 94.058594 104.28125 96.421875 C 109.800781 102.21875 120.941406 101.421875 125.273438 94.476562 C 125.707031 93.777344 125.984375 92.007812 125.015625 91.457031 Z M 118.738281 83.902344 C 118.390625 83.90625 117.996094 83.792969 117.625 83.800781 C 116.546875 83.8125 115.460938 83.957031 114.398438 84.121094 C 113.710938 84.222656 112.773438 84.5 112.144531 84.046875 C 111.652344 83.695312 111.667969 82.953125 111.757812 82.421875 C 111.949219 81.246094 112.902344 79.742188 114.152344 79.488281 C 114.789062 79.359375 115.382812 79.707031 115.851562 80.113281 C 116.351562 80.542969 117.113281 81.136719 117.667969 81.898438 C 118.152344 82.574219 118.441406 83.40625 118.738281 83.902344 Z M 118.738281 83.902344 " fill-opacity="1" fill-rule="evenodd"/><path fill="#000000" d="M 145.878906 63.574219 C 145.941406 63.628906 146.015625 63.476562 146.085938 63.433594 C 146.335938 63.269531 146.585938 63.101562 146.839844 62.933594 C 147.867188 62.265625 148.898438 61.601562 149.953125 60.972656 C 154.402344 58.308594 159.183594 55.902344 163.992188 54.03125 C 165.292969 53.527344 166.59375 53.015625 167.902344 52.53125 C 168.199219 52.417969 168.496094 52.296875 168.800781 52.207031 C 168.820312 52.199219 169.066406 52.113281 169.085938 52.160156 C 169.113281 52.234375 168.953125 52.457031 168.921875 52.511719 C 168.742188 52.839844 168.558594 53.164062 168.378906 53.488281 C 168.101562 53.988281 167.917969 54.730469 167.558594 55.164062 C 167.378906 55.382812 166.804688 55.484375 166.566406 55.589844 C 165.773438 55.929688 164.984375 56.285156 164.203125 56.644531 C 159.234375 58.917969 154.382812 61.476562 149.523438 63.980469 C 148.367188 64.574219 147.203125 65.15625 146.070312 65.796875 C 145.921875 65.882812 145.132812 66.480469 144.945312 66.375 C 144.808594 66.296875 144.9375 65.921875 144.96875 65.824219 C 145.121094 65.285156 145.667969 64.089844 145.878906 63.574219 Z M 145.878906 63.574219 " fill-opacity="1" fill-rule="evenodd"/><path fill="#000000" d="M 284 80.996094 C 283.902344 80.851562 284.335938 80.46875 284.382812 80.433594 C 284.910156 80.042969 285.464844 79.679688 286.011719 79.316406 C 288.238281 77.832031 290.597656 76.542969 292.835938 75.082031 C 296.78125 72.515625 300.421875 69.449219 303.894531 66.359375 C 305.714844 64.742188 307.789062 63.21875 309.246094 61.289062 C 309.0625 61.015625 308.726562 60.800781 308.476562 60.585938 C 307.898438 60.089844 307.300781 59.609375 306.714844 59.117188 C 306.382812 58.84375 306.011719 58.578125 305.832031 58.183594 C 305.671875 57.832031 305.679688 57.433594 305.730469 57.0625 C 305.984375 55.066406 307.53125 52.988281 309.296875 51.871094 C 310.351562 51.203125 311.863281 51.027344 312.753906 52.042969 C 314.15625 53.644531 313.476562 55.90625 312.789062 57.660156 C 312.640625 58.035156 312.46875 58.394531 312.289062 58.757812 C 312.21875 58.902344 312.058594 59.109375 312.046875 59.269531 C 312.03125 59.453125 312.484375 59.683594 312.605469 59.785156 C 313.046875 60.136719 313.542969 60.601562 313.746094 61.121094 C 314.007812 61.800781 313.445312 62.6875 313.121094 63.265625 C 313.03125 63.425781 312.808594 63.898438 312.546875 63.839844 C 312.253906 63.773438 311.96875 63.488281 311.761719 63.300781 C 311.3125 62.886719 310.90625 62.425781 310.449219 62.023438 C 310.449219 62.015625 310.238281 62.25 310.203125 62.292969 C 310.027344 62.496094 309.84375 62.699219 309.664062 62.902344 C 309.152344 63.472656 308.65625 64.0625 308.15625 64.640625 C 306.695312 66.332031 305.148438 67.980469 303.449219 69.46875 C 299.507812 72.921875 294.921875 75.675781 290.167969 78.042969 C 288.941406 78.652344 287.710938 79.257812 286.464844 79.828125 C 285.773438 80.144531 284.199219 81.296875 284 80.996094 Z M 311.257812 58.640625 C 311.265625 58.644531 311.316406 58.417969 311.320312 58.402344 C 311.378906 58.125 311.441406 57.847656 311.472656 57.566406 C 311.597656 56.5625 311.472656 55.25 310.625 54.519531 C 309.949219 53.9375 308.988281 54.003906 308.355469 54.625 C 308.117188 54.863281 307.917969 55.164062 307.972656 55.5 C 308.042969 55.921875 308.390625 56.277344 308.691406 56.574219 C 309.257812 57.128906 310.636719 58.136719 311.257812 58.640625 Z M 311.257812 58.640625 " fill-opacity="1" fill-rule="evenodd"/><path fill="#000000" d="M 208.261719 64.222656 C 208.261719 64.203125 208.246094 63.902344 208.25 63.816406 C 208.285156 63.484375 208.332031 63.15625 208.371094 62.828125 C 208.476562 61.957031 208.53125 61.082031 208.660156 60.214844 C 208.722656 59.824219 208.769531 59.3125 209.289062 59.46875 C 210.089844 59.714844 210.832031 60.273438 211.554688 60.683594 C 212.835938 61.421875 214.109375 62.175781 215.417969 62.863281 C 215.9375 63.136719 216.464844 63.398438 216.980469 63.683594 C 217.070312 63.734375 217.378906 63.855469 217.359375 64 C 217.34375 64.199219 216.875 64.207031 216.746094 64.21875 C 216.421875 64.242188 214.96875 64.132812 214.808594 64.425781 C 214.527344 64.929688 215.390625 65.941406 215.636719 66.300781 C 216.78125 67.964844 218.203125 69.417969 219.730469 70.738281 C 219.769531 70.734375 220.175781 69.96875 220.226562 69.90625 C 220.75 69.125 221.285156 68.351562 221.820312 67.578125 C 223.726562 64.796875 225.707031 62.042969 227.765625 59.371094 C 228.253906 58.726562 228.761719 58.089844 229.285156 57.46875 C 229.457031 57.269531 229.683594 56.933594 229.972656 56.890625 C 230.410156 56.828125 230.175781 58.253906 230.148438 58.464844 C 229.949219 60.132812 228.832031 61.695312 227.980469 63.085938 C 227.195312 64.371094 226.382812 65.632812 225.546875 66.886719 C 224.25 68.839844 222.960938 70.804688 221.617188 72.730469 C 222.136719 73.136719 222.648438 73.992188 223.121094 74.496094 C 224.324219 75.792969 225.945312 77.214844 226.570312 78.914062 C 227.09375 80.359375 227.617188 81.679688 227.773438 83.191406 C 227.949219 84.933594 227.589844 87.050781 226.960938 88.722656 C 225.859375 91.65625 222.960938 94.269531 220.367188 95.894531 C 218.316406 97.1875 215.421875 98.429688 212.941406 98.097656 C 209.5625 97.648438 209.492188 92.671875 209.632812 90.148438 C 209.671875 89.53125 209.734375 88.921875 209.839844 88.316406 C 209.988281 87.46875 210.195312 86.636719 210.457031 85.820312 C 210.746094 84.914062 211.09375 84.023438 211.492188 83.15625 C 212.867188 80.179688 214.660156 77.390625 216.726562 74.851562 C 213.992188 72.4375 212.152344 69.054688 210.054688 66.128906 C 209.871094 65.871094 209.65625 65.648438 209.316406 65.707031 C 209.230469 65.71875 208.632812 65.871094 208.433594 65.5625 C 208.1875 65.199219 208.332031 64.359375 208.261719 64.222656 Z M 219 77.578125 C 218.808594 77.578125 218.429688 78.070312 218.3125 78.179688 C 217.65625 78.800781 217.039062 79.472656 216.429688 80.140625 C 215.953125 80.65625 215.496094 81.183594 215.050781 81.726562 C 214.671875 82.199219 214.292969 82.679688 213.945312 83.175781 C 212.503906 85.207031 210.472656 89.046875 213.246094 90.882812 C 216.144531 92.800781 219.859375 90.390625 222.125 88.570312 C 223.222656 87.691406 224.351562 86.707031 224.550781 85.234375 C 224.6875 84.222656 224.28125 83.300781 223.761719 82.453125 C 222.796875 80.867188 220.367188 78.820312 219 77.578125 Z M 208.261719 64.222656 C 208.261719 64.226562 208.261719 64.226562 208.261719 64.222656 Z M 208.261719 64.222656 " fill-opacity="1" fill-rule="evenodd"/><path fill="#000000" d="M 207.988281 42.246094 L 211.980469 37.21875 L 218.484375 42.347656 L 214.652344 47.425781 Z M 207.988281 42.246094 " fill-opacity="1" fill-rule="evenodd"/><path fill="#000000" d="M 104.398438 48.472656 L 108.386719 43.445312 L 114.894531 48.574219 L 111.0625 53.652344 Z M 104.398438 48.472656 " fill-opacity="1" fill-rule="evenodd"/><path fill="#000000" d="M 114.890625 48.472656 L 118.882812 43.445312 L 125.386719 48.574219 L 121.554688 53.652344 Z M 114.890625 48.472656 " fill-opacity="1" fill-rule="evenodd"/><path fill="#000000" d="M 82.484375 72.195312 L 86.472656 67.171875 L 92.980469 72.296875 L 89.148438 77.375 Z M 82.484375 72.195312 " fill-opacity="1" fill-rule="evenodd"/><path fill="#000000" d="M 92.976562 72.195312 L 96.964844 67.171875 L 103.472656 72.296875 L 99.640625 77.375 Z M 92.976562 72.195312 " fill-opacity="1" fill-rule="evenodd"/><path fill="#000000" d="M 308.378906 100.902344 C 308.339844 100.804688 308.550781 100.386719 308.582031 100.289062 C 308.804688 99.636719 309.019531 98.980469 309.285156 98.347656 C 309.324219 98.257812 309.515625 97.660156 309.652344 97.679688 C 309.722656 97.6875 309.773438 97.835938 309.796875 97.890625 C 309.914062 98.136719 310.03125 98.378906 310.140625 98.625 C 310.683594 99.820312 310.753906 101.238281 310.585938 102.535156 C 310.402344 103.980469 309.757812 105.472656 308.492188 106.175781 C 306.644531 107.210938 304.390625 105.753906 303.832031 103.789062 C 302.988281 104.238281 302.632812 105.429688 302.09375 106.328125 C 301.484375 107.339844 300.589844 108.019531 299.472656 108.230469 C 297.632812 108.578125 296.285156 107.136719 294.613281 106.675781 C 293.671875 106.414062 292.714844 106.65625 291.855469 107.09375 C 289.902344 108.085938 288.160156 109.601562 286.417969 110.960938 C 282.121094 114.320312 278.144531 118.132812 273.808594 121.433594 C 270.179688 124.203125 266.042969 125.878906 261.65625 126.96875 C 260.546875 127.242188 259.421875 127.53125 258.300781 127.742188 C 258.191406 127.761719 257.328125 127.960938 257.308594 127.734375 C 257.285156 127.484375 257.800781 127.230469 257.945312 127.132812 C 258.597656 126.699219 259.261719 126.289062 259.933594 125.898438 C 262.78125 124.230469 265.707031 122.726562 268.558594 121.066406 C 274.011719 117.898438 279.132812 113.886719 284.128906 109.957031 C 286.816406 107.839844 289.507812 104.84375 292.800781 103.835938 C 295.402344 103.042969 297.554688 104.253906 300.125 104.207031 C 300.125 104.199219 300.453125 104.105469 300.472656 104.097656 C 300.671875 104.019531 300.867188 103.925781 301.046875 103.804688 C 301.65625 103.402344 302.214844 102.894531 302.695312 102.332031 C 303.109375 101.84375 303.429688 101.285156 303.777344 100.742188 C 303.980469 100.421875 304.195312 100.117188 304.410156 99.8125 C 304.558594 99.597656 304.703125 99.382812 304.855469 99.175781 C 304.910156 99.101562 305.488281 98.324219 305.625 98.566406 C 305.75 98.789062 305.414062 99.484375 305.34375 99.695312 C 305.070312 100.519531 304.804688 101.410156 305.394531 102.152344 C 306.25 103.226562 310.113281 103.722656 308.378906 100.902344 Z M 308.378906 100.902344 " fill-opacity="1" fill-rule="evenodd"/><path fill="#000000" d="M 215.851562 101.144531 C 215.867188 101.109375 215.722656 101.308594 215.710938 101.332031 C 215.609375 101.496094 215.511719 101.660156 215.414062 101.824219 C 215.140625 102.285156 214.878906 102.757812 214.628906 103.230469 C 213.902344 104.582031 213.203125 105.941406 212.554688 107.328125 C 210.699219 111.292969 208.699219 115.554688 209.273438 120.023438 C 209.429688 121.207031 209.800781 122.449219 210.542969 123.421875 C 210.824219 123.789062 211.1875 124.222656 211.667969 124.335938 C 212.550781 124.542969 213.464844 123.726562 214 123.164062 C 215.292969 121.808594 216.121094 120.042969 216.648438 118.289062 C 216.816406 117.730469 217.121094 116.835938 216.878906 116.253906 C 216.636719 115.667969 215.917969 116.851562 215.808594 117.027344 C 215.160156 118.035156 214.109375 119.914062 212.65625 118.660156 C 212.460938 118.488281 212.308594 118.273438 212.183594 118.046875 C 211.460938 116.742188 211.699219 115.070312 211.976562 113.679688 C 212.480469 111.152344 213.609375 108.84375 214.6875 106.507812 C 215.347656 105.074219 217.085938 101.695312 215.851562 101.144531 Z M 215.851562 101.144531 " fill-opacity="1" fill-rule="evenodd"/><path fill="#000000" d="M 128.613281 131.113281 C 128.597656 131.152344 128.742188 130.949219 128.753906 130.929688 C 128.855469 130.765625 128.953125 130.601562 129.050781 130.433594 C 129.324219 129.972656 129.585938 129.503906 129.835938 129.027344 C 130.5625 127.679688 131.261719 126.316406 131.910156 124.929688 C 133.769531 120.964844 135.765625 116.707031 135.191406 112.238281 C 135.035156 111.050781 134.664062 109.808594 133.921875 108.839844 C 133.640625 108.46875 133.277344 108.035156 132.796875 107.921875 C 131.914062 107.714844 131 108.535156 130.464844 109.097656 C 129.175781 110.453125 128.347656 112.214844 127.816406 113.972656 C 127.648438 114.527344 127.34375 115.425781 127.585938 116.003906 C 127.828125 116.589844 128.546875 115.40625 128.65625 115.230469 C 129.304688 114.222656 130.355469 112.34375 131.808594 113.601562 C 132.003906 113.769531 132.15625 113.984375 132.28125 114.210938 C 133.003906 115.519531 132.765625 117.191406 132.488281 118.578125 C 131.984375 121.105469 130.855469 123.417969 129.777344 125.75 C 129.117188 127.183594 127.378906 130.5625 128.613281 131.113281 Z M 128.613281 131.113281 " fill-opacity="1" fill-rule="evenodd"/><path fill="#000000" d="M 280.015625 49.566406 C 280.160156 49.640625 280.839844 49.472656 281.015625 49.464844 C 281.898438 49.421875 282.785156 49.398438 283.667969 49.40625 C 286.441406 49.433594 289.195312 49.6875 291.921875 50.136719 C 293.164062 50.339844 295.363281 50.515625 295.496094 52.023438 C 295.386719 51.972656 295.476562 52.246094 295.449219 52.355469 C 295.394531 52.558594 295.328125 52.761719 295.261719 52.964844 C 295.0625 53.5625 294.753906 54.125 294.445312 54.679688 C 293.515625 56.324219 292.175781 57.785156 290.917969 59.21875 C 289.894531 60.378906 288.828125 61.488281 287.730469 62.589844 C 287.226562 63.097656 286.679688 63.820312 286.011719 64.152344 C 285.328125 64.492188 284.371094 64.53125 283.625 64.648438 C 282.25 64.867188 280.886719 65.125 279.523438 65.386719 C 278.371094 65.605469 277.226562 65.847656 276.066406 66.03125 C 275.65625 66.097656 275.058594 66.265625 274.648438 66.132812 C 274.210938 65.992188 275.125 65.445312 275.226562 65.390625 C 276.289062 64.816406 277.425781 64.355469 278.519531 63.835938 C 281.160156 62.585938 283.75 61.199219 286.246094 59.722656 C 286.859375 59.355469 287.480469 58.996094 288.101562 58.648438 C 288.191406 58.597656 288.683594 58.414062 288.707031 58.304688 C 288.773438 57.945312 287.625 57.6875 287.421875 57.628906 C 285.832031 57.179688 284.109375 57.117188 282.457031 57.121094 C 280.644531 57.125 278.832031 57.273438 277.046875 57.5625 C 276.597656 57.636719 276.152344 57.738281 275.703125 57.796875 C 275.589844 57.8125 275.34375 57.855469 275.269531 57.738281 C 275.160156 57.5625 275.3125 57.207031 275.386719 57.050781 C 275.671875 56.460938 276.011719 55.898438 276.371094 55.34375 C 276.707031 54.828125 277.035156 54.308594 277.363281 53.789062 C 277.898438 52.9375 279.480469 50.421875 280.015625 49.566406 Z M 280.015625 49.566406 " fill-opacity="1" fill-rule="evenodd"/><path fill="#000000" d="M 340.378906 60.484375 C 340.542969 59.582031 340.097656 58.382812 339.890625 57.527344 C 339.257812 54.835938 338.308594 52.242188 337.3125 49.679688 C 334.710938 42.984375 330.945312 36.964844 326.5 31.484375 C 323.386719 27.648438 319.890625 23.941406 315.746094 21.351562 C 311.84375 18.914062 307.46875 17.269531 303.113281 15.984375 C 301.734375 15.574219 300.355469 15.207031 298.941406 14.9375 C 298.34375 14.820312 297.734375 14.652344 297.125 14.597656 C 297.105469 14.59375 296.632812 14.589844 296.644531 14.628906 C 296.882812 15.28125 298.84375 16.261719 299.355469 16.664062 C 301.675781 18.496094 303.875 20.503906 305.910156 22.691406 C 311.847656 29.082031 316.976562 36.492188 321.078125 44.332031 C 323.054688 48.113281 324.785156 52.082031 326.132812 56.160156 C 326.558594 57.453125 326.933594 58.757812 327.25 60.082031 C 327.386719 60.636719 327.390625 61.578125 327.707031 62.058594 C 328.273438 62.925781 329.515625 63.425781 330.367188 63.882812 C 331.75 64.621094 334.394531 66.394531 334.394531 66.394531 C 334.394531 66.394531 335.851562 65.378906 336.4375 64.917969 C 337.710938 63.90625 339.492188 61.910156 340.378906 60.484375 Z M 340.378906 60.484375 " fill-opacity="1" fill-rule="evenodd"/><path fill="#000000" d="M 340.378906 84.011719 C 340.542969 84.910156 340.097656 86.113281 339.890625 86.96875 C 339.257812 89.660156 338.308594 92.25 337.3125 94.8125 C 334.710938 101.507812 330.945312 107.527344 326.5 113.007812 C 323.386719 116.84375 319.890625 120.550781 315.746094 123.140625 C 311.84375 125.578125 307.46875 127.222656 303.113281 128.511719 C 301.734375 128.917969 300.355469 129.285156 298.941406 129.558594 C 298.34375 129.675781 297.734375 129.839844 297.125 129.898438 C 297.105469 129.898438 296.632812 129.902344 296.644531 129.863281 C 296.882812 129.214844 298.84375 128.234375 299.355469 127.832031 C 301.675781 126 303.875 123.988281 305.910156 121.804688 C 311.847656 115.410156 316.976562 108 321.078125 100.164062 C 323.054688 96.382812 324.785156 92.414062 326.132812 88.332031 C 326.558594 87.042969 326.933594 85.738281 327.25 84.414062 C 327.386719 83.855469 327.390625 82.917969 327.707031 82.433594 C 328.273438 81.566406 329.515625 81.066406 330.367188 80.613281 C 331.75 79.875 334.394531 78.101562 334.394531 78.101562 C 334.394531 78.101562 335.851562 79.113281 336.4375 79.574219 C 337.710938 80.589844 339.492188 82.585938 340.378906 84.011719 Z M 340.378906 84.011719 " fill-opacity="1" fill-rule="evenodd"/><path fill="#000000" d="M 350.210938 65.140625 L 350.160156 65.117188 C 349.890625 65.003906 349.652344 64.90625 349.570312 64.855469 C 348.4375 64.144531 347.539062 63.152344 346.855469 61.976562 C 346.019531 60.558594 345.625 58.957031 345.085938 57.410156 C 344.492188 55.710938 343.726562 54.027344 342.660156 52.605469 C 341.921875 51.625 341.078125 50.714844 340.15625 49.933594 C 339.851562 49.683594 339.550781 49.441406 339.230469 49.214844 C 339.207031 49.199219 338.890625 48.984375 338.730469 48.851562 C 338.640625 48.777344 338.582031 48.703125 338.546875 48.660156 C 338.4375 48.496094 338.4375 48.34375 338.449219 48.246094 C 338.46875 48.105469 338.523438 47.988281 338.621094 47.890625 C 338.757812 47.757812 339.035156 47.644531 339.390625 47.628906 C 339.863281 47.605469 340.53125 47.707031 340.746094 47.71875 C 342.925781 47.816406 345.039062 48.566406 346.980469 49.585938 C 349.617188 50.976562 351.710938 53.15625 353.140625 55.871094 C 353.507812 56.558594 353.78125 57.347656 354.097656 58.109375 C 354.378906 58.789062 354.6875 59.453125 355.15625 59.972656 C 355.554688 60.421875 356.078125 60.6875 356.613281 60.929688 C 357.242188 61.214844 357.894531 61.464844 358.460938 61.839844 C 360.125 62.9375 361.238281 64.867188 362.027344 66.714844 C 362.324219 67.421875 362.707031 68.265625 362.730469 69.054688 C 362.734375 69.277344 362.613281 69.484375 362.421875 69.582031 C 360.808594 70.40625 359.136719 71.113281 357.484375 71.851562 C 357.066406 72.039062 356.566406 72.210938 356.105469 72.421875 C 356.429688 72.585938 356.75 72.742188 357.078125 72.898438 C 358.3125 73.503906 359.558594 74.085938 360.789062 74.710938 C 361.121094 74.882812 361.453125 75.054688 361.785156 75.234375 C 361.894531 75.292969 362.003906 75.347656 362.105469 75.410156 C 362.089844 75.402344 362.050781 75.382812 362.050781 75.382812 C 362.050781 75.382812 362.300781 75.503906 362.371094 75.574219 C 362.511719 75.738281 362.570312 75.929688 362.496094 76.175781 C 361.722656 78.734375 360.234375 81.335938 358.296875 83.070312 C 356.992188 84.238281 355.394531 84.902344 354.304688 86.34375 C 353.40625 87.519531 352.945312 88.980469 352.277344 90.296875 C 351.460938 91.902344 350.402344 93.363281 349.070312 94.527344 C 347.296875 96.078125 345.296875 96.90625 343.023438 97.117188 C 342.328125 97.179688 341.636719 97.21875 340.945312 97.234375 C 340.691406 97.238281 340.441406 97.234375 340.183594 97.21875 C 340.144531 97.214844 340.058594 97.199219 339.984375 97.1875 C 339.824219 97.21875 339.65625 97.175781 339.53125 97.066406 C 339.324219 96.886719 339.320312 96.695312 339.324219 96.601562 C 339.324219 96.382812 339.410156 96.175781 339.675781 96.066406 C 339.71875 96.050781 339.796875 96.027344 339.886719 96.027344 C 343.015625 94.980469 346.4375 92.308594 346.695312 88.589844 C 346.792969 87.207031 346.464844 85.886719 346.367188 84.519531 C 346.316406 83.761719 346.246094 82.90625 346.527344 82.183594 C 346.953125 81.089844 347.792969 80.402344 348.757812 79.882812 C 349.613281 79.429688 350.566406 79.105469 351.355469 78.679688 C 351.503906 78.597656 351.90625 78.410156 352.210938 78.175781 C 352.25 78.144531 352.292969 78.101562 352.328125 78.0625 C 351.664062 77.390625 350.585938 76.960938 349.800781 76.546875 C 347.808594 75.503906 345.777344 74.546875 343.714844 73.671875 C 342.894531 73.324219 342.082031 72.960938 341.257812 72.640625 C 341.132812 72.597656 340.96875 72.507812 340.796875 72.4375 C 340.765625 72.425781 340.722656 72.410156 340.683594 72.398438 C 340.628906 72.464844 340.5625 72.542969 340.539062 72.566406 C 340.191406 72.957031 339.839844 73.347656 339.484375 73.730469 C 338.375 74.925781 337.238281 76.085938 336.128906 77.277344 C 335.917969 77.5 335.625 77.9375 335.308594 78.277344 C 335.019531 78.59375 334.699219 78.828125 334.40625 78.894531 C 334.21875 78.9375 333.941406 78.894531 333.644531 78.730469 C 333.277344 78.53125 332.828125 78.140625 332.648438 78.039062 C 331.097656 77.171875 329.589844 76.214844 328.074219 75.277344 C 327.238281 74.757812 326.417969 74.207031 325.550781 73.742188 C 325.363281 73.636719 324.945312 73.484375 324.664062 73.300781 C 324.445312 73.15625 324.292969 72.984375 324.210938 72.820312 C 324.113281 72.613281 324.121094 72.398438 324.230469 72.183594 C 324.28125 72.078125 324.371094 71.960938 324.496094 71.863281 C 324.640625 71.746094 324.839844 71.644531 324.902344 71.605469 C 325.488281 71.238281 326.078125 70.875 326.648438 70.488281 C 328.578125 69.1875 330.511719 67.898438 332.464844 66.648438 C 332.941406 66.347656 333.417969 66.050781 333.886719 65.734375 C 333.914062 65.710938 334.109375 65.585938 334.175781 65.542969 C 334.238281 65.460938 334.316406 65.394531 334.410156 65.355469 C 334.59375 65.277344 334.800781 65.3125 334.957031 65.441406 C 336.417969 66.707031 338.59375 68.683594 340.042969 69.972656 C 340.40625 70.292969 340.785156 70.59375 341.140625 70.925781 C 341.164062 70.945312 341.226562 71.007812 341.277344 71.058594 C 341.316406 71.035156 341.355469 71.003906 341.398438 70.976562 C 341.578125 70.851562 341.769531 70.71875 341.910156 70.648438 C 342.894531 70.167969 343.832031 69.59375 344.765625 69.015625 C 345.636719 68.472656 346.4375 67.867188 347.21875 67.203125 C 348.0625 66.488281 348.984375 65.84375 349.925781 65.289062 C 349.988281 65.25 350.097656 65.199219 350.210938 65.140625 Z M 340.585938 48.847656 C 340.628906 48.851562 340.671875 48.855469 340.703125 48.855469 C 342.722656 48.945312 344.691406 49.65625 346.492188 50.605469 C 348.941406 51.890625 350.875 53.914062 352.203125 56.425781 C 352.929688 57.804688 353.324219 59.589844 354.371094 60.753906 C 354.875 61.316406 355.515625 61.671875 356.183594 61.976562 C 356.769531 62.238281 357.371094 62.460938 357.890625 62.804688 C 359.371094 63.785156 360.339844 65.53125 361.035156 67.179688 C 361.242188 67.652344 361.511719 68.195312 361.609375 68.730469 C 360.113281 69.472656 358.582031 70.125 357.058594 70.804688 C 356.304688 71.144531 355.316406 71.464844 354.652344 71.980469 C 354.480469 72.109375 354.433594 72.261719 354.421875 72.382812 C 354.40625 72.515625 354.429688 72.648438 354.503906 72.773438 C 354.550781 72.84375 354.625 72.929688 354.742188 72.996094 C 354.789062 73.023438 354.921875 73.066406 354.953125 73.082031 C 355.082031 73.148438 355.199219 73.21875 355.328125 73.285156 C 355.75 73.511719 356.183594 73.722656 356.621094 73.933594 C 357.855469 74.535156 359.097656 75.113281 360.316406 75.738281 C 360.648438 75.902344 360.972656 76.074219 361.292969 76.246094 L 361.328125 76.265625 C 360.585938 78.484375 359.28125 80.699219 357.597656 82.203125 C 356.242188 83.414062 354.601562 84.132812 353.460938 85.628906 C 352.523438 86.863281 352.027344 88.382812 351.324219 89.761719 C 350.578125 91.234375 349.601562 92.582031 348.382812 93.652344 C 346.78125 95.050781 344.976562 95.792969 342.925781 95.980469 C 342.828125 95.992188 342.722656 96 342.625 96.007812 C 345.265625 94.457031 347.546875 91.890625 347.769531 88.675781 C 347.871094 87.234375 347.546875 85.859375 347.445312 84.433594 C 347.402344 83.84375 347.304688 83.175781 347.523438 82.617188 C 347.851562 81.785156 348.511719 81.292969 349.25 80.898438 C 350.105469 80.441406 351.066406 80.117188 351.847656 79.6875 C 352.117188 79.546875 352.988281 79.101562 353.289062 78.636719 C 353.417969 78.445312 353.480469 78.246094 353.480469 78.054688 C 353.480469 77.835938 353.417969 77.613281 353.226562 77.402344 C 352.496094 76.570312 351.214844 76.019531 350.28125 75.527344 C 348.261719 74.46875 346.207031 73.5 344.121094 72.617188 C 343.472656 72.34375 342.828125 72.058594 342.179688 71.792969 C 342.242188 71.746094 342.304688 71.707031 342.363281 71.679688 C 343.375 71.1875 344.347656 70.59375 345.316406 69.996094 C 346.226562 69.425781 347.070312 68.789062 347.894531 68.089844 C 348.691406 67.414062 349.558594 66.804688 350.453125 66.28125 C 350.617188 66.183594 351.023438 66.011719 351.265625 65.800781 C 351.484375 65.601562 351.601562 65.363281 351.613281 65.128906 C 351.625 64.929688 351.550781 64.6875 351.316406 64.480469 C 351.023438 64.234375 350.277344 63.972656 350.121094 63.875 C 349.144531 63.261719 348.371094 62.398438 347.769531 61.378906 C 346.972656 60.023438 346.613281 58.492188 346.097656 57.015625 C 345.46875 55.207031 344.640625 53.417969 343.507812 51.898438 C 342.71875 50.851562 341.8125 49.878906 340.824219 49.042969 C 340.746094 48.976562 340.664062 48.910156 340.585938 48.847656 Z M 334.601562 66.609375 C 336.042969 67.867188 338.003906 69.648438 339.347656 70.839844 C 339.582031 71.050781 339.816406 71.246094 340.050781 71.449219 C 339.9375 71.5625 339.8125 71.722656 339.761719 71.785156 C 339.410156 72.167969 339.070312 72.554688 338.71875 72.933594 C 337.609375 74.128906 336.464844 75.289062 335.355469 76.480469 C 335.148438 76.703125 334.851562 77.140625 334.539062 77.484375 C 334.433594 77.597656 334.335938 77.707031 334.234375 77.757812 C 334.148438 77.714844 333.929688 77.589844 333.792969 77.492188 C 333.523438 77.300781 333.277344 77.105469 333.152344 77.03125 C 331.613281 76.171875 330.121094 75.226562 328.621094 74.296875 C 327.765625 73.765625 326.929688 73.203125 326.042969 72.726562 C 325.933594 72.667969 325.757812 72.597656 325.566406 72.511719 C 326.128906 72.164062 326.683594 71.8125 327.230469 71.445312 C 329.148438 70.152344 331.078125 68.867188 333.027344 67.625 C 333.507812 67.316406 333.992188 67.011719 334.46875 66.691406 C 334.492188 66.675781 334.539062 66.648438 334.601562 66.609375 Z M 334.601562 66.609375 " fill-opacity="1" fill-rule="evenodd"/><path fill="#000000" d="M 375.03125 72.796875 L 362.371094 75.574219 L 355.765625 72.429688 L 362.402344 69.132812 Z M 375.03125 72.796875 " fill-opacity="1" fill-rule="evenodd"/><path fill="#000000" d="M 34.664062 66.339844 C 34.5 65.4375 34.945312 64.234375 35.152344 63.378906 C 35.785156 60.6875 36.738281 58.097656 37.730469 55.535156 C 40.335938 48.839844 44.097656 42.820312 48.542969 37.339844 C 51.65625 33.503906 55.152344 29.796875 59.300781 27.207031 C 63.199219 24.769531 67.578125 23.125 71.929688 21.839844 C 73.308594 21.429688 74.6875 21.0625 76.101562 20.789062 C 76.703125 20.675781 77.308594 20.507812 77.921875 20.453125 C 77.9375 20.449219 78.414062 20.445312 78.402344 20.484375 C 78.160156 21.132812 76.199219 22.113281 75.6875 22.515625 C 73.367188 24.351562 71.171875 26.359375 69.132812 28.546875 C 63.195312 34.9375 58.070312 42.347656 53.96875 50.1875 C 51.988281 53.964844 50.261719 57.9375 48.910156 62.015625 C 48.488281 63.304688 48.109375 64.609375 47.796875 65.933594 C 47.65625 66.492188 47.652344 67.429688 47.335938 67.914062 C 46.769531 68.78125 45.53125 69.28125 44.675781 69.738281 C 43.292969 70.472656 40.648438 72.246094 40.648438 72.246094 C 40.648438 72.246094 39.191406 71.234375 38.605469 70.773438 C 37.332031 69.757812 35.550781 67.761719 34.664062 66.339844 Z M 34.664062 66.339844 " fill-opacity="1" fill-rule="evenodd"/><path fill="#000000" d="M 34.664062 89.863281 C 34.5 90.765625 34.945312 91.964844 35.152344 92.820312 C 35.785156 95.511719 36.738281 98.105469 37.730469 100.667969 C 40.335938 107.363281 44.097656 113.382812 48.542969 118.863281 C 51.65625 122.699219 55.152344 126.40625 59.300781 128.996094 C 63.199219 131.433594 67.578125 133.078125 71.929688 134.363281 C 73.308594 134.773438 74.6875 135.140625 76.101562 135.410156 C 76.703125 135.527344 77.308594 135.695312 77.921875 135.75 C 77.9375 135.753906 78.414062 135.757812 78.402344 135.71875 C 78.160156 135.066406 76.199219 134.085938 75.6875 133.683594 C 73.367188 131.851562 71.171875 129.84375 69.132812 127.65625 C 63.195312 121.265625 58.070312 113.855469 53.96875 106.015625 C 51.988281 102.234375 50.261719 98.265625 48.910156 94.1875 C 48.488281 92.894531 48.109375 91.589844 47.796875 90.265625 C 47.65625 89.710938 47.652344 88.769531 47.335938 88.289062 C 46.769531 87.421875 45.53125 86.921875 44.675781 86.464844 C 43.292969 85.726562 40.648438 83.953125 40.648438 83.953125 C 40.648438 83.953125 39.191406 84.96875 38.605469 85.429688 C 37.332031 86.441406 35.550781 88.4375 34.664062 89.863281 Z M 34.664062 89.863281 " fill-opacity="1" fill-rule="evenodd"/><path fill="#000000" d="M 24.832031 70.996094 L 24.882812 70.972656 C 25.152344 70.859375 25.390625 70.761719 25.472656 70.710938 C 26.605469 70 27.503906 69.007812 28.191406 67.832031 C 29.023438 66.414062 29.417969 64.8125 29.957031 63.261719 C 30.550781 61.566406 31.320312 59.882812 32.382812 58.460938 C 33.121094 57.480469 33.96875 56.566406 34.890625 55.789062 C 35.191406 55.535156 35.496094 55.296875 35.816406 55.070312 C 35.839844 55.054688 36.152344 54.839844 36.3125 54.707031 C 36.40625 54.628906 36.460938 54.558594 36.496094 54.511719 C 36.605469 54.347656 36.605469 54.199219 36.59375 54.101562 C 36.578125 53.960938 36.519531 53.839844 36.421875 53.746094 C 36.285156 53.613281 36.011719 53.5 35.65625 53.480469 C 35.179688 53.460938 34.511719 53.5625 34.300781 53.574219 C 32.121094 53.667969 30.003906 54.421875 28.0625 55.441406 C 25.425781 56.832031 23.332031 59.011719 21.902344 61.726562 C 21.535156 62.414062 21.261719 63.199219 20.945312 63.960938 C 20.667969 64.644531 20.359375 65.308594 19.890625 65.828125 C 19.488281 66.277344 18.96875 66.542969 18.429688 66.785156 C 17.800781 67.070312 17.148438 67.320312 16.582031 67.695312 C 14.917969 68.789062 13.808594 70.71875 13.019531 72.566406 C 12.722656 73.273438 12.335938 74.121094 12.316406 74.910156 C 12.308594 75.132812 12.429688 75.339844 12.625 75.4375 C 14.238281 76.261719 15.90625 76.96875 17.5625 77.707031 C 17.976562 77.894531 18.476562 78.066406 18.9375 78.277344 C 18.613281 78.441406 18.292969 78.597656 17.964844 78.753906 C 16.730469 79.359375 15.484375 79.9375 14.253906 80.566406 C 13.921875 80.738281 13.589844 80.910156 13.257812 81.089844 C 13.148438 81.144531 13.042969 81.203125 12.9375 81.265625 C 12.957031 81.253906 12.996094 81.238281 12.996094 81.238281 C 12.996094 81.238281 12.742188 81.359375 12.675781 81.429688 C 12.53125 81.589844 12.476562 81.785156 12.550781 82.027344 C 13.320312 84.585938 14.808594 87.1875 16.75 88.925781 C 18.050781 90.089844 19.648438 90.757812 20.742188 92.195312 C 21.640625 93.375 22.097656 94.835938 22.765625 96.152344 C 23.585938 97.753906 24.644531 99.21875 25.976562 100.382812 C 27.75 101.933594 29.746094 102.757812 32.023438 102.96875 C 32.714844 103.035156 33.40625 103.074219 34.097656 103.089844 C 34.351562 103.09375 34.601562 103.089844 34.859375 103.070312 C 34.898438 103.070312 34.984375 103.054688 35.058594 103.039062 C 35.21875 103.074219 35.386719 103.03125 35.511719 102.917969 C 35.71875 102.738281 35.722656 102.550781 35.71875 102.453125 C 35.71875 102.238281 35.632812 102.03125 35.371094 101.921875 C 35.324219 101.90625 35.25 101.882812 35.15625 101.882812 C 32.027344 100.832031 28.605469 98.160156 28.351562 94.445312 C 28.253906 93.0625 28.578125 91.742188 28.675781 90.371094 C 28.726562 89.613281 28.796875 88.761719 28.515625 88.039062 C 28.09375 86.945312 27.25 86.257812 26.285156 85.738281 C 25.433594 85.28125 24.476562 84.960938 23.6875 84.53125 C 23.539062 84.449219 23.136719 84.265625 22.835938 84.03125 C 22.796875 84 22.75 83.957031 22.714844 83.917969 C 23.378906 83.246094 24.460938 82.816406 25.242188 82.402344 C 27.234375 81.355469 29.265625 80.398438 31.332031 79.527344 C 32.148438 79.179688 32.960938 78.816406 33.785156 78.496094 C 33.910156 78.449219 34.078125 78.363281 34.25 78.292969 C 34.277344 78.28125 34.324219 78.265625 34.363281 78.253906 C 34.414062 78.316406 34.484375 78.394531 34.503906 78.421875 C 34.855469 78.808594 35.203125 79.199219 35.558594 79.582031 C 36.667969 80.777344 37.804688 81.9375 38.917969 83.132812 C 39.128906 83.355469 39.417969 83.792969 39.734375 84.132812 C 40.027344 84.449219 40.347656 84.679688 40.636719 84.75 C 40.828125 84.792969 41.101562 84.746094 41.398438 84.585938 C 41.765625 84.386719 42.21875 83.996094 42.394531 83.894531 C 43.945312 83.027344 45.457031 82.070312 46.972656 81.132812 C 47.804688 80.613281 48.625 80.0625 49.492188 79.59375 C 49.683594 79.492188 50.101562 79.339844 50.378906 79.152344 C 50.597656 79.011719 50.753906 78.839844 50.832031 78.671875 C 50.929688 78.464844 50.925781 78.25 50.816406 78.039062 C 50.765625 77.933594 50.671875 77.816406 50.546875 77.71875 C 50.402344 77.601562 50.203125 77.5 50.140625 77.457031 C 49.558594 77.09375 48.96875 76.726562 48.394531 76.339844 C 46.46875 75.039062 44.535156 73.753906 42.578125 72.503906 C 42.101562 72.203125 41.628906 71.90625 41.160156 71.589844 C 41.128906 71.566406 40.9375 71.441406 40.867188 71.398438 C 40.804688 71.316406 40.730469 71.25 40.632812 71.210938 C 40.449219 71.132812 40.242188 71.164062 40.089844 71.296875 C 38.625 72.5625 36.449219 74.535156 35.003906 75.824219 C 34.636719 76.148438 34.257812 76.449219 33.90625 76.777344 C 33.882812 76.800781 33.820312 76.859375 33.765625 76.914062 C 33.726562 76.886719 33.6875 76.859375 33.648438 76.832031 C 33.464844 76.707031 33.277344 76.570312 33.132812 76.5 C 32.148438 76.023438 31.210938 75.449219 30.277344 74.867188 C 29.410156 74.328125 28.605469 73.71875 27.824219 73.054688 C 26.984375 72.339844 26.0625 71.699219 25.117188 71.140625 C 25.054688 71.105469 24.945312 71.054688 24.832031 70.996094 Z M 34.460938 54.699219 C 34.414062 54.707031 34.375 54.707031 34.339844 54.710938 C 32.320312 54.800781 30.351562 55.511719 28.550781 56.457031 C 26.101562 57.746094 24.167969 59.765625 22.839844 62.28125 C 22.113281 63.660156 21.71875 65.441406 20.671875 66.609375 C 20.167969 67.171875 19.527344 67.527344 18.859375 67.828125 C 18.277344 68.09375 17.675781 68.316406 17.15625 68.65625 C 15.671875 69.636719 14.707031 71.382812 14.007812 73.03125 C 13.800781 73.507812 13.53125 74.050781 13.4375 74.582031 C 14.929688 75.328125 16.460938 75.980469 17.984375 76.660156 C 18.738281 76.996094 19.730469 77.316406 20.390625 77.832031 C 20.5625 77.964844 20.609375 78.113281 20.621094 78.234375 C 20.636719 78.367188 20.617188 78.5 20.542969 78.628906 C 20.496094 78.699219 20.421875 78.785156 20.300781 78.851562 C 20.253906 78.875 20.125 78.921875 20.089844 78.933594 C 19.964844 79.003906 19.84375 79.074219 19.71875 79.140625 C 19.292969 79.367188 18.859375 79.574219 18.425781 79.789062 C 17.1875 80.386719 15.949219 80.964844 14.730469 81.589844 C 14.398438 81.757812 14.070312 81.925781 13.75 82.101562 L 13.714844 82.121094 C 14.460938 84.339844 15.765625 86.550781 17.445312 88.054688 C 18.800781 89.269531 20.445312 89.988281 21.582031 91.484375 C 22.519531 92.714844 23.019531 94.234375 23.722656 95.613281 C 24.464844 97.085938 25.445312 98.4375 26.664062 99.507812 C 28.265625 100.902344 30.066406 101.644531 32.121094 101.835938 C 32.21875 101.84375 32.320312 101.855469 32.417969 101.863281 C 29.78125 100.3125 27.496094 97.742188 27.273438 94.53125 C 27.171875 93.085938 27.496094 91.710938 27.601562 90.285156 C 27.640625 89.699219 27.738281 89.03125 27.519531 88.472656 C 27.195312 87.640625 26.53125 87.148438 25.792969 86.753906 C 24.941406 86.296875 23.980469 85.972656 23.195312 85.542969 C 22.925781 85.398438 22.058594 84.953125 21.753906 84.488281 C 21.628906 84.300781 21.566406 84.101562 21.566406 83.90625 C 21.566406 83.691406 21.628906 83.46875 21.816406 83.257812 C 22.550781 82.425781 23.832031 81.875 24.761719 81.382812 C 26.78125 80.324219 28.835938 79.355469 30.925781 78.46875 C 31.570312 78.195312 32.21875 77.910156 32.863281 77.648438 C 32.800781 77.601562 32.738281 77.5625 32.679688 77.535156 C 31.667969 77.042969 30.695312 76.449219 29.730469 75.847656 C 28.820312 75.28125 27.972656 74.640625 27.148438 73.941406 C 26.351562 73.269531 25.484375 72.660156 24.589844 72.136719 C 24.425781 72.039062 24.019531 71.867188 23.777344 71.652344 C 23.5625 71.457031 23.441406 71.21875 23.429688 70.984375 C 23.417969 70.785156 23.492188 70.539062 23.726562 70.335938 C 24.019531 70.085938 24.769531 69.828125 24.921875 69.730469 C 25.902344 69.113281 26.671875 68.25 27.273438 67.230469 C 28.070312 65.878906 28.429688 64.347656 28.945312 62.871094 C 29.574219 61.0625 30.402344 59.269531 31.535156 57.753906 C 32.324219 56.707031 33.230469 55.730469 34.21875 54.898438 C 34.300781 54.832031 34.378906 54.765625 34.460938 54.699219 Z M 40.445312 72.460938 C 39.003906 73.71875 37.039062 75.503906 35.695312 76.695312 C 35.460938 76.902344 35.226562 77.101562 34.992188 77.304688 C 35.105469 77.417969 35.230469 77.574219 35.285156 77.636719 C 35.632812 78.023438 35.976562 78.40625 36.324219 78.785156 C 37.433594 79.980469 38.578125 81.140625 39.6875 82.332031 C 39.894531 82.558594 40.191406 82.996094 40.507812 83.335938 C 40.609375 83.449219 40.707031 83.5625 40.808594 83.613281 C 40.894531 83.570312 41.113281 83.445312 41.25 83.347656 C 41.519531 83.15625 41.765625 82.957031 41.890625 82.886719 C 43.429688 82.027344 44.921875 81.078125 46.421875 80.152344 C 47.28125 79.621094 48.117188 79.058594 49.003906 78.582031 C 49.109375 78.523438 49.289062 78.453125 49.476562 78.363281 C 48.917969 78.015625 48.359375 77.667969 47.8125 77.300781 C 45.894531 76.003906 43.96875 74.722656 42.015625 73.476562 C 41.535156 73.171875 41.050781 72.867188 40.574219 72.542969 C 40.550781 72.53125 40.507812 72.5 40.445312 72.460938 Z M 40.445312 72.460938 " fill-opacity="1" fill-rule="evenodd"/><path fill="#000000" d="M 0.015625 78.648438 L 12.675781 81.429688 L 19.277344 78.285156 L 12.640625 74.988281 Z M 0.015625 78.648438 " fill-opacity="1" fill-rule="evenodd"/></svg>