<svg xmlns="http://www.w3.org/2000/svg" xmlns:xlink="http://www.w3.org/1999/xlink" width="500" zoomAndPan="magnify" viewBox="0 0 375 157.92" height="200" preserveAspectRatio="xMidYMid meet" version="1.0"><defs><clipPath id="17499b3b2b"><path d="M 74 9.605469 L 203 9.605469 L 203 133 L 74 133 Z M 74 9.605469 " clip-rule="nonzero"/></clipPath><clipPath id="2ec4f788dc"><path d="M 253 106 L 310 106 L 310 140.039062 L 253 140.039062 Z M 253 106 " clip-rule="nonzero"/></clipPath><clipPath id="472ef93890"><path d="M 355 72 L 374.902344 72 L 374.902344 79 L 355 79 Z M 355 72 " clip-rule="nonzero"/></clipPath><clipPath id="fcfe371dcc"><path d="M 33 87 L 73 87 L 73 140.039062 L 33 140.039062 Z M 33 87 " clip-rule="nonzero"/></clipPath><clipPath id="0cabeed714"><path d="M 0.09375 78 L 20 78 L 20 85 L 0.09375 85 Z M 0.09375 78 " clip-rule="nonzero"/></clipPath></defs><path fill="#000000" d="M 243.511719 22.191406 C 243.574219 22.175781 243.484375 22.3125 243.46875 22.371094 C 243.441406 22.488281 243.417969 22.601562 243.382812 22.71875 C 243.324219 22.925781 243.144531 23.824219 242.761719 23.726562 C 242.570312 23.675781 242.394531 23.476562 242.265625 23.347656 C 241.945312 23.039062 241.644531 22.710938 241.324219 22.402344 C 240.769531 21.859375 240.128906 21.382812 239.453125 20.976562 C 239.089844 20.761719 238.550781 20.578125 238.300781 20.238281 C 237.917969 19.71875 238.140625 18.832031 238.179688 18.253906 C 238.285156 16.699219 238.375 14 240.609375 13.816406 C 242.195312 13.6875 243.34375 14.863281 244.257812 15.894531 C 246.464844 18.378906 248.019531 21.519531 249.054688 24.5625 C 249.453125 25.738281 249.832031 26.917969 250.191406 28.105469 C 250.265625 28.355469 250.328125 28.617188 250.421875 28.863281 C 250.441406 28.914062 250.488281 29.058594 250.578125 29.042969 C 250.777344 29.007812 250.839844 28.445312 250.871094 28.316406 C 251.054688 27.53125 251.300781 26.753906 251.4375 25.960938 C 252.160156 21.859375 252.867188 19.253906 254.015625 16.136719 C 254.152344 15.761719 254.328125 15.261719 254.496094 14.910156 C 254.964844 13.9375 255.585938 12.980469 256.472656 12.277344 C 256.855469 11.976562 257.324219 11.691406 257.84375 11.65625 C 258.4375 11.621094 258.984375 11.875 259.457031 12.183594 C 260.457031 12.839844 261.242188 13.773438 261.664062 14.832031 C 261.792969 15.15625 261.964844 15.515625 261.9375 15.867188 C 261.886719 16.542969 261.609375 17.214844 261.402344 17.859375 C 261.269531 18.265625 261.132812 18.675781 260.992188 19.078125 C 260.839844 19.519531 260.6875 19.960938 260.507812 20.390625 C 260.472656 20.476562 260.40625 20.722656 260.277344 20.746094 C 260.175781 20.761719 260.085938 20.613281 260.046875 20.550781 C 259.855469 20.277344 259.695312 19.980469 259.523438 19.695312 C 258.929688 18.714844 257.675781 16.75 256.203125 17.660156 C 254.945312 18.441406 254.328125 20.21875 253.871094 21.46875 C 252.75 24.558594 252.144531 27.835938 251.699219 31.058594 C 251.691406 31.011719 251.671875 31.15625 251.660156 31.203125 C 251.628906 31.3125 251.597656 31.417969 251.566406 31.527344 C 251.46875 31.875 251.363281 32.21875 251.253906 32.558594 C 250.863281 33.785156 250.425781 34.988281 249.714844 36.089844 C 249.546875 36.351562 249.371094 36.609375 249.152344 36.84375 C 249.121094 36.878906 248.960938 37.078125 248.894531 37.03125 C 248.683594 36.882812 248.761719 36.082031 248.746094 35.875 C 248.65625 34.78125 248.523438 33.6875 248.308594 32.609375 C 247.632812 29.210938 245.578125 25.078125 243.511719 22.191406 Z M 243.511719 22.191406 " fill-opacity="1" fill-rule="evenodd"/><path fill="#000000" d="M 113.636719 27.261719 C 113.703125 27.25 113.609375 27.367188 113.597656 27.421875 C 113.570312 27.523438 113.546875 27.625 113.511719 27.726562 C 113.449219 27.910156 113.269531 28.699219 112.886719 28.613281 C 112.695312 28.570312 112.519531 28.390625 112.390625 28.28125 C 112.070312 28.007812 111.769531 27.71875 111.453125 27.445312 C 110.898438 26.96875 110.257812 26.550781 109.578125 26.191406 C 109.214844 26 108.675781 25.84375 108.425781 25.542969 C 108.046875 25.085938 108.269531 24.304688 108.308594 23.796875 C 108.414062 22.425781 108.5 20.050781 110.738281 19.890625 C 112.324219 19.773438 113.46875 20.8125 114.386719 21.71875 C 116.589844 23.90625 118.148438 26.667969 119.183594 29.347656 C 119.582031 30.382812 119.960938 31.421875 120.316406 32.46875 C 120.394531 32.6875 120.453125 32.917969 120.546875 33.132812 C 120.570312 33.179688 120.613281 33.304688 120.703125 33.292969 C 120.902344 33.261719 120.96875 32.765625 121 32.652344 C 121.183594 31.960938 121.425781 31.277344 121.566406 30.582031 C 122.285156 26.96875 122.992188 24.675781 124.140625 21.933594 C 124.28125 21.601562 124.453125 21.164062 124.621094 20.855469 C 125.09375 19.996094 125.714844 19.15625 126.597656 18.539062 C 126.984375 18.269531 127.453125 18.019531 127.96875 17.988281 C 128.5625 17.957031 129.109375 18.183594 129.582031 18.453125 C 130.585938 19.03125 131.371094 19.851562 131.792969 20.785156 C 131.917969 21.070312 132.09375 21.382812 132.066406 21.695312 C 132.015625 22.289062 131.738281 22.878906 131.527344 23.449219 C 131.394531 23.808594 131.261719 24.167969 131.121094 24.523438 C 130.96875 24.910156 130.816406 25.296875 130.636719 25.675781 C 130.597656 25.753906 130.53125 25.96875 130.40625 25.988281 C 130.304688 26 130.214844 25.871094 130.171875 25.816406 C 129.980469 25.578125 129.820312 25.316406 129.648438 25.066406 C 129.054688 24.203125 127.800781 22.472656 126.328125 23.273438 C 125.070312 23.960938 124.453125 25.527344 124 26.625 C 122.875 29.34375 122.273438 32.226562 121.828125 35.066406 C 121.820312 35.023438 121.800781 35.152344 121.789062 35.195312 C 121.757812 35.289062 121.726562 35.382812 121.695312 35.480469 C 121.59375 35.785156 121.492188 36.085938 121.382812 36.386719 C 120.992188 37.464844 120.550781 38.523438 119.84375 39.492188 C 119.675781 39.726562 119.496094 39.953125 119.28125 40.15625 C 119.25 40.1875 119.085938 40.363281 119.019531 40.324219 C 118.8125 40.191406 118.886719 39.488281 118.871094 39.304688 C 118.785156 38.34375 118.652344 37.378906 118.4375 36.433594 C 117.761719 33.441406 115.707031 29.800781 113.636719 27.261719 Z M 113.636719 27.261719 " fill-opacity="1" fill-rule="evenodd"/><path fill="#000000" d="M 247.121094 62.835938 C 247.1875 62.824219 247.09375 62.957031 247.078125 63.019531 C 247.054688 63.132812 247.027344 63.25 246.996094 63.363281 C 246.933594 63.574219 246.753906 64.472656 246.371094 64.375 C 246.179688 64.324219 246.003906 64.121094 245.875 63.996094 C 245.554688 63.683594 245.253906 63.359375 244.9375 63.046875 C 244.378906 62.507812 243.738281 62.027344 243.0625 61.625 C 242.699219 61.40625 242.160156 61.226562 241.910156 60.886719 C 241.53125 60.363281 241.753906 59.476562 241.792969 58.902344 C 241.894531 57.34375 241.984375 54.644531 244.222656 54.460938 C 245.804688 54.332031 246.953125 55.511719 247.867188 56.539062 C 250.074219 59.023438 251.628906 62.164062 252.664062 65.207031 C 253.066406 66.382812 253.445312 67.566406 253.800781 68.753906 C 253.875 69.003906 253.9375 69.261719 254.03125 69.507812 C 254.050781 69.5625 254.097656 69.703125 254.1875 69.6875 C 254.386719 69.65625 254.453125 69.089844 254.484375 68.964844 C 254.667969 68.179688 254.910156 67.402344 255.050781 66.609375 C 255.769531 62.503906 256.476562 59.898438 257.625 56.785156 C 257.761719 56.410156 257.9375 55.90625 258.105469 55.558594 C 258.578125 54.585938 259.199219 53.628906 260.082031 52.925781 C 260.464844 52.621094 260.9375 52.335938 261.453125 52.304688 C 262.046875 52.265625 262.59375 52.523438 263.066406 52.832031 C 264.070312 53.488281 264.855469 54.417969 265.273438 55.480469 C 265.402344 55.804688 265.578125 56.160156 265.550781 56.511719 C 265.5 57.1875 265.21875 57.859375 265.011719 58.507812 C 264.878906 58.914062 264.746094 59.320312 264.605469 59.726562 C 264.453125 60.164062 264.300781 60.605469 264.121094 61.035156 C 264.082031 61.125 264.015625 61.371094 263.890625 61.390625 C 263.789062 61.40625 263.699219 61.257812 263.65625 61.199219 C 263.464844 60.921875 263.304688 60.628906 263.132812 60.34375 C 262.539062 59.363281 261.285156 57.398438 259.8125 58.308594 C 258.554688 59.085938 257.9375 60.867188 257.484375 62.113281 C 256.359375 65.203125 255.757812 68.480469 255.3125 71.703125 C 255.300781 71.65625 255.285156 71.800781 255.269531 71.851562 C 255.238281 71.957031 255.210938 72.066406 255.179688 72.175781 C 255.078125 72.519531 254.976562 72.863281 254.867188 73.207031 C 254.476562 74.429688 254.035156 75.632812 253.328125 76.734375 C 253.160156 77 252.980469 77.257812 252.765625 77.488281 C 252.734375 77.523438 252.570312 77.722656 252.503906 77.675781 C 252.292969 77.527344 252.371094 76.730469 252.355469 76.519531 C 252.265625 75.429688 252.132812 74.332031 251.917969 73.257812 C 251.242188 69.859375 249.1875 65.722656 247.121094 62.835938 Z M 247.121094 62.835938 " fill-opacity="1" fill-rule="evenodd"/><path fill="#000000" d="M 235.023438 49.996094 C 235.011719 49.976562 236.308594 49.289062 236.398438 49.242188 C 237.359375 48.722656 238.324219 48.207031 239.289062 47.691406 C 242.300781 46.082031 245.359375 44.566406 248.417969 43.082031 C 253.753906 40.492188 259.273438 38.351562 264.804688 36.417969 C 266.179688 35.9375 267.554688 35.449219 268.9375 35 C 269.148438 34.929688 269.980469 34.554688 270.148438 34.910156 C 270.371094 35.390625 269.445312 36.683594 269.253906 37.066406 C 268.933594 37.699219 268.664062 38.648438 268.210938 39.164062 C 267.679688 39.761719 266.847656 39.988281 266.164062 40.234375 C 265.007812 40.648438 263.855469 41.066406 262.707031 41.5 C 255.261719 44.324219 248.101562 47.792969 240.933594 51.433594 C 239.125 52.351562 237.3125 53.359375 235.441406 54.097656 C 235.183594 54.199219 234.019531 54.792969 233.773438 54.476562 C 233.445312 54.054688 234.878906 50.410156 235.023438 49.996094 Z M 235.023438 49.996094 " fill-opacity="1" fill-rule="evenodd"/><path fill="#000000" d="M 277.117188 44.507812 C 276.996094 44.195312 277.371094 43.378906 277.460938 43.089844 C 277.878906 41.691406 278.386719 40.335938 279.007812 39.03125 C 279.699219 37.578125 280.496094 36.183594 281.371094 34.859375 C 281.847656 34.140625 282.351562 33.335938 283.035156 32.84375 C 284.203125 32 285.789062 32.125 287.109375 32.171875 C 289.777344 32.269531 292.449219 32.585938 295.089844 33.039062 C 296.792969 33.332031 298.597656 33.65625 300.246094 34.242188 C 300.75 34.417969 301.589844 34.683594 301.78125 35.328125 C 302.007812 36.097656 301.617188 37.0625 301.355469 37.75 C 300.699219 39.472656 299.828125 41.109375 298.960938 42.707031 C 297.585938 45.238281 295.960938 47.613281 294.226562 49.84375 C 292.988281 51.4375 291.683594 53.0625 290 54.0625 C 287.949219 55.28125 285.550781 55.597656 283.300781 56.03125 C 281.625 56.359375 279.949219 56.695312 278.265625 56.984375 C 277.863281 57.054688 276.945312 57.363281 276.566406 57.0625 C 276.289062 56.847656 277.304688 56.144531 277.390625 56.078125 C 278.652344 55.140625 279.980469 54.3125 281.285156 53.453125 C 284.417969 51.386719 287.597656 49.398438 290.761719 47.394531 C 291.464844 46.953125 292.1875 46.53125 292.859375 46.023438 C 292.988281 45.925781 293.496094 45.617188 293.402344 45.363281 C 293.289062 45.050781 292.625 44.953125 292.386719 44.875 C 291.125 44.484375 289.804688 44.308594 288.507812 44.171875 C 287.414062 44.058594 286.316406 43.976562 285.21875 43.933594 C 283.101562 43.84375 279.222656 44.226562 277.117188 44.507812 Z M 277.117188 44.507812 " fill-opacity="1" fill-rule="evenodd"/><path fill="#000000" d="M 91.699219 56.449219 C 91.578125 56.230469 91.957031 55.652344 92.042969 55.449219 C 92.464844 54.460938 92.96875 53.5 93.589844 52.582031 C 94.28125 51.550781 95.078125 50.566406 95.953125 49.628906 C 96.429688 49.121094 96.9375 48.554688 97.617188 48.203125 C 98.785156 47.609375 100.375 47.695312 101.691406 47.730469 C 104.363281 47.800781 107.03125 48.019531 109.671875 48.339844 C 111.375 48.546875 113.183594 48.777344 114.828125 49.191406 C 115.332031 49.316406 116.171875 49.507812 116.363281 49.960938 C 116.589844 50.503906 116.203125 51.1875 115.941406 51.671875 C 115.28125 52.890625 114.410156 54.046875 113.542969 55.179688 C 112.171875 56.96875 110.542969 58.648438 108.808594 60.222656 C 107.570312 61.351562 106.265625 62.5 104.582031 63.207031 C 102.53125 64.066406 100.132812 64.292969 97.886719 64.601562 C 96.207031 64.828125 94.53125 65.066406 92.847656 65.273438 C 92.445312 65.320312 91.527344 65.542969 91.148438 65.328125 C 90.871094 65.175781 91.886719 64.679688 91.976562 64.628906 C 93.234375 63.96875 94.5625 63.382812 95.867188 62.773438 C 99 61.3125 102.179688 59.910156 105.347656 58.492188 C 106.050781 58.179688 106.773438 57.882812 107.441406 57.523438 C 107.574219 57.453125 108.078125 57.234375 107.988281 57.054688 C 107.871094 56.832031 107.207031 56.765625 106.96875 56.710938 C 105.707031 56.433594 104.386719 56.3125 103.089844 56.214844 C 101.996094 56.132812 100.898438 56.078125 99.800781 56.042969 C 97.6875 55.980469 93.804688 56.25 91.699219 56.449219 Z M 91.699219 56.449219 " fill-opacity="1" fill-rule="evenodd"/><path fill="#000000" d="M 285.785156 70.035156 C 285.933594 69.691406 286.722656 69.269531 286.996094 69.054688 C 288.160156 68.140625 289.332031 67.242188 290.503906 66.339844 C 294.636719 63.175781 298.875 60.207031 302.84375 56.804688 C 305.605469 54.4375 308.300781 51.988281 310.832031 49.355469 C 311.457031 48.707031 312.09375 48.054688 312.628906 47.324219 C 312.761719 47.144531 313.140625 46.761719 313.125 46.507812 C 313.113281 46.34375 312.859375 46.191406 312.753906 46.101562 C 312.324219 45.734375 311.878906 45.378906 311.449219 45.011719 C 309.957031 43.730469 308.832031 42.398438 309.476562 40.277344 C 309.644531 39.726562 309.863281 39.1875 310.128906 38.683594 C 311.269531 36.554688 314.597656 32.824219 316.960938 35.441406 C 318.445312 37.085938 317.445312 40.601562 316.855469 42.421875 C 316.714844 42.855469 316.074219 43.769531 316.09375 44.210938 C 316.097656 44.3125 316.449219 44.472656 316.515625 44.519531 C 316.914062 44.792969 317.351562 45.105469 317.644531 45.503906 C 318.425781 46.574219 317.40625 48.46875 316.757812 49.347656 C 316.160156 50.160156 315.300781 48.613281 314.8125 48.128906 C 314.707031 48.027344 314.277344 47.5 314.121094 47.664062 C 313.15625 48.65625 312.441406 49.945312 311.515625 50.984375 C 307.53125 55.429688 303.242188 59.910156 298.277344 63.125 C 295.402344 64.984375 292.464844 66.753906 289.535156 68.523438 C 288.742188 69 287.945312 69.484375 287.121094 69.902344 C 286.835938 70.046875 286.117188 70.089844 285.785156 70.035156 Z M 315.101562 43.136719 C 315.066406 43.105469 315.171875 42.78125 315.183594 42.734375 C 315.265625 42.316406 315.359375 41.890625 315.378906 41.460938 C 315.4375 40.339844 315.175781 39.003906 314.359375 38.21875 C 313.507812 37.402344 312.539062 37.664062 311.84375 38.546875 C 311.691406 38.742188 311.3125 39.207031 311.378906 39.496094 C 311.476562 39.910156 311.875 40.363281 312.140625 40.648438 C 312.925781 41.5 314.269531 42.34375 315.101562 43.136719 Z M 315.101562 43.136719 " fill-opacity="1" fill-rule="evenodd"/><path fill="#000000" d="M 214.8125 95.765625 C 214.796875 95.683594 214.734375 95.90625 214.695312 95.980469 C 214.625 96.125 214.558594 96.273438 214.488281 96.414062 C 214.265625 96.886719 214.039062 97.351562 213.816406 97.820312 C 213.207031 99.097656 212.605469 100.375 212.03125 101.667969 C 210.390625 105.351562 208.585938 109.613281 208.972656 113.824219 C 209.097656 115.195312 209.503906 117.511719 211.003906 117.867188 C 213.011719 118.339844 214.378906 115.527344 215.027344 113.929688 C 215.191406 113.523438 215.335938 113.105469 215.460938 112.683594 C 215.632812 112.089844 215.878906 111.195312 215.730469 110.5625 C 215.617188 110.066406 215.121094 110.761719 215.019531 110.902344 C 214.535156 111.546875 214.160156 112.679688 213.46875 113.085938 C 212.605469 113.589844 211.808594 112.144531 211.554688 111.480469 C 210.160156 107.777344 212.4375 104.027344 213.8125 100.765625 C 214.34375 99.511719 215.097656 97.214844 214.8125 95.765625 Z M 214.8125 95.765625 " fill-opacity="1" fill-rule="evenodd"/><path fill="#000000" d="M 86.390625 54.609375 C 86.351562 54.457031 86.203125 54.871094 86.121094 55.007812 C 85.960938 55.269531 85.804688 55.535156 85.648438 55.800781 C 85.140625 56.660156 84.621094 57.511719 84.109375 58.371094 C 82.722656 60.703125 81.347656 63.042969 80.035156 65.40625 C 76.289062 72.148438 72.171875 79.941406 73.054688 87.640625 C 73.34375 90.144531 74.269531 94.390625 77.691406 95.035156 C 82.277344 95.902344 85.398438 90.753906 86.875 87.832031 C 87.25 87.089844 87.582031 86.328125 87.863281 85.554688 C 88.253906 84.46875 88.820312 82.828125 88.480469 81.671875 C 88.21875 80.769531 87.09375 82.039062 86.855469 82.292969 C 85.75 83.476562 84.894531 85.550781 83.316406 86.289062 C 81.347656 87.214844 79.527344 84.570312 78.953125 83.351562 C 75.765625 76.582031 80.96875 69.722656 84.105469 63.757812 C 85.3125 61.464844 87.039062 57.265625 86.390625 54.609375 Z M 86.390625 54.609375 " fill-opacity="1" fill-rule="evenodd"/><path fill="#000000" d="M 149.214844 24.898438 C 149.175781 24.746094 149.03125 25.160156 148.949219 25.296875 C 148.789062 25.558594 148.628906 25.824219 148.472656 26.089844 C 147.964844 26.949219 147.445312 27.800781 146.9375 28.660156 C 145.546875 30.992188 144.171875 33.328125 142.859375 35.695312 C 139.117188 42.4375 135 50.230469 135.882812 57.929688 C 136.167969 60.433594 137.097656 64.679688 140.519531 65.324219 C 145.105469 66.191406 148.226562 61.042969 149.703125 58.121094 C 150.078125 57.378906 150.410156 56.617188 150.6875 55.839844 C 151.082031 54.757812 151.644531 53.117188 151.308594 51.960938 C 151.046875 51.058594 149.917969 52.328125 149.679688 52.582031 C 148.574219 53.765625 147.722656 55.839844 146.144531 56.578125 C 144.171875 57.503906 142.351562 54.859375 141.78125 53.640625 C 138.589844 46.871094 143.792969 40.011719 146.933594 34.046875 C 148.140625 31.753906 149.863281 27.554688 149.214844 24.898438 Z M 149.214844 24.898438 " fill-opacity="1" fill-rule="evenodd"/><path fill="#000000" d="M 177.898438 27.917969 C 178.140625 28.28125 178.207031 27.109375 178.371094 26.707031 C 178.804688 25.640625 179.28125 24.578125 179.800781 23.546875 C 179.882812 23.378906 180.300781 22.316406 180.613281 22.589844 C 181.75 23.585938 182.273438 25.503906 182.875 26.789062 C 184.214844 29.648438 185.621094 32.472656 186.96875 35.328125 C 187.640625 36.746094 190.65625 41.765625 186.796875 39.949219 C 186.441406 39.78125 186.113281 39.5625 185.785156 39.351562 C 185.761719 39.234375 184.355469 38.511719 184.347656 38.519531 C 184.167969 38.679688 184.527344 39.628906 184.574219 39.808594 C 184.890625 41.066406 185.222656 42.320312 185.53125 43.582031 C 186.800781 48.738281 188 53.910156 189.210938 59.078125 C 192.503906 73.164062 195.910156 86.863281 194.347656 101.40625 C 194.152344 103.230469 193.847656 107.292969 193.117188 108.949219 C 190.371094 115.171875 185.738281 120.246094 179.554688 123.699219 C 176.828125 125.21875 173.980469 126.375 170.867188 126.964844 C 170.578125 127.019531 167.945312 127.601562 167.917969 127 C 167.898438 126.488281 169.308594 125.683594 169.648438 125.425781 C 171.371094 124.132812 173.164062 122.914062 174.910156 121.644531 C 180.640625 117.472656 186.65625 112.53125 190.082031 106.375 C 190.089844 106.378906 190.039062 105.703125 190.035156 105.65625 C 190 105.253906 189.972656 104.851562 189.953125 104.449219 C 189.882812 103.117188 189.875 101.777344 189.839844 100.441406 C 189.734375 96.328125 189.777344 92.195312 189.457031 88.089844 C 188.484375 75.75 185.335938 63.632812 182.800781 51.515625 C 181.816406 46.820312 180.960938 42.101562 180.007812 37.398438 C 179.5625 35.191406 178.65625 30.0625 177.898438 27.917969 Z M 177.898438 27.917969 " fill-opacity="1" fill-rule="evenodd"/><g clip-path="url(#17499b3b2b)"><path fill="#000000" d="M 160.179688 35.304688 C 159.335938 29.558594 155.992188 16.492188 155.84375 16.339844 C 155.464844 15.9375 155.210938 15.714844 155.3125 15.136719 C 155.574219 13.691406 156.445312 12.269531 157.054688 10.933594 C 157.222656 10.570312 157.503906 9.578125 158.085938 9.636719 C 159.226562 9.75 160.425781 12.414062 160.914062 13.191406 C 162.867188 16.296875 164.570312 19.71875 166.148438 23.007812 C 166.558594 23.867188 167.816406 25.71875 167.683594 26.714844 C 167.648438 26.976562 166.84375 26.492188 166.757812 26.449219 C 166.230469 26.167969 163.894531 24.269531 163.859375 25.476562 C 163.765625 28.554688 164.78125 31.808594 165.242188 34.835938 C 166.546875 43.429688 168.476562 52.242188 168.824219 60.917969 C 169.054688 66.671875 168.773438 72.933594 162.945312 76.171875 C 162.800781 76.253906 163.289062 76.144531 163.460938 76.160156 C 163.785156 76.191406 164.109375 76.234375 164.433594 76.277344 C 165.367188 76.398438 166.300781 76.519531 167.238281 76.640625 C 170.136719 77.023438 173.027344 77.460938 175.921875 77.863281 C 182.570312 78.792969 189.265625 79.597656 195.972656 80.011719 C 197.453125 80.105469 198.929688 80.148438 200.410156 80.191406 C 200.761719 80.199219 201.8125 80.078125 202.03125 80.441406 C 202.265625 80.828125 201.65625 81.703125 201.5 82.042969 C 200.820312 83.519531 200.175781 85.023438 199.648438 86.554688 C 199.023438 86.199219 197.203125 86.601562 196.539062 86.640625 C 193.578125 86.824219 190.640625 87.25 187.738281 87.824219 C 182.492188 88.859375 177.96875 91.011719 173.15625 93.132812 C 167.976562 95.410156 162.753906 97.621094 157.316406 99.3125 C 153 100.652344 147.167969 102.414062 142.886719 100.003906 C 142.664062 100.222656 143.207031 102.425781 143.246094 102.785156 C 143.46875 104.894531 144.183594 108.375 142.800781 110.253906 C 140.597656 113.253906 136.953125 115.738281 133.972656 117.980469 C 124.378906 125.195312 110.234375 132.597656 97.574219 132.449219 C 87.175781 132.328125 77.199219 127.691406 74.84375 117.414062 C 73.941406 113.484375 74.15625 109.296875 74.757812 105.339844 C 75.253906 102.070312 75.980469 98.847656 77.53125 95.863281 C 78.015625 94.933594 78.515625 93.433594 79.480469 92.8125 C 80.042969 92.449219 79.625 94.648438 79.601562 94.773438 C 79.203125 96.796875 78.671875 98.785156 78.316406 100.816406 C 77.414062 105.96875 77.394531 111.261719 79.863281 116.046875 C 85.574219 127.113281 99.953125 126.203125 110.582031 122.703125 C 118.226562 120.1875 125.703125 116.925781 132.695312 113.078125 C 134.582031 112.042969 138.980469 110.445312 139.453125 108.089844 C 140.121094 104.753906 138.816406 100.46875 137.113281 97.597656 C 135.113281 94.21875 131.582031 91.179688 135.851562 87.519531 C 136.601562 86.875 138.285156 89.75 138.734375 90.222656 C 140.628906 92.222656 142.746094 93.503906 145.554688 94.035156 C 152.578125 95.371094 160.449219 91.621094 166.871094 89.367188 C 168.566406 88.769531 170.246094 88.125 171.949219 87.535156 C 172.316406 87.410156 175.175781 86.453125 175.292969 86 C 175.390625 85.632812 166.980469 84.40625 164.519531 83.925781 C 159.863281 83.023438 155.007812 83.242188 150.246094 83.25 C 148.328125 83.253906 144.710938 83.542969 142.910156 82.878906 C 142.148438 82.597656 143.113281 79.480469 143.246094 78.953125 C 144.222656 75.078125 150.410156 75.050781 153.796875 74.371094 C 157.945312 73.542969 162.664062 72.636719 166.066406 70.085938 C 165.402344 68.765625 165.429688 66.910156 165.183594 65.492188 C 164.59375 62.039062 164.097656 58.570312 163.511719 55.117188 C 162.386719 48.511719 161.148438 41.929688 160.179688 35.304688 Z M 160.179688 35.304688 " fill-opacity="1" fill-rule="evenodd"/></g><path fill="#000000" d="M 214.972656 54.035156 C 214.964844 53.992188 215.691406 54.007812 215.796875 54 C 216.117188 53.980469 218.410156 53.992188 218.332031 53.496094 C 218.234375 52.871094 216.941406 51.933594 216.546875 51.527344 C 214.898438 49.835938 213.152344 48.214844 211.34375 46.726562 C 211.210938 46.613281 209.339844 44.945312 209.21875 45.046875 C 208.222656 45.929688 207.683594 48.6875 207.167969 49.953125 C 207.007812 50.335938 206.582031 51.042969 206.664062 51.503906 C 206.789062 52.210938 208.460938 52.167969 208.855469 53.039062 C 210.246094 56.078125 215.492188 63.019531 216.472656 63.792969 C 216.128906 65.199219 214.546875 67.582031 213.929688 68.847656 C 211.703125 73.375 208.351562 78.871094 209.21875 84.328125 C 209.464844 85.832031 209.902344 87.3125 210.550781 88.65625 C 210.972656 89.539062 211.492188 90.390625 212.097656 91.128906 C 212.570312 91.707031 213.097656 92.238281 213.699219 92.640625 C 217.394531 95.117188 220.917969 91.027344 223.53125 88.425781 C 225.96875 85.996094 228.828125 83.15625 229.953125 79.59375 C 231.40625 74.980469 229.253906 71.015625 226.414062 67.796875 C 225.351562 66.597656 222.261719 64.667969 222.683594 62.644531 C 223.042969 60.976562 224.453125 59.4375 225.367188 58.144531 C 227.128906 55.660156 228.867188 53.15625 230.523438 50.582031 C 231.101562 49.679688 232.910156 47.066406 231.972656 45.8125 C 231.453125 45.105469 230.488281 46.15625 230.070312 46.527344 C 228.503906 47.917969 227.148438 49.640625 225.828125 51.308594 C 224.945312 52.410156 224.082031 53.519531 223.242188 54.65625 C 222.765625 55.296875 222.320312 55.953125 221.882812 56.621094 C 221.621094 57.023438 221.363281 57.429688 221.101562 57.839844 C 220.261719 59.175781 220.007812 59.71875 218.925781 58.609375 C 218.664062 58.339844 218.410156 58.058594 218.167969 57.773438 C 217.808594 57.355469 217.46875 56.917969 217.125 56.480469 C 216.578125 55.785156 214.527344 53.617188 213.984375 52.914062 Z M 219.28125 68.1875 C 218.9375 68.855469 217.683594 70.035156 217.117188 70.753906 C 215.945312 72.242188 215.328125 73.960938 214.488281 75.707031 C 213.902344 76.933594 213.640625 78.28125 213.34375 79.640625 C 212.675781 82.667969 214.316406 85.886719 217.402344 85.609375 C 218.871094 85.476562 220.039062 84.652344 221.140625 83.640625 C 223.746094 81.242188 226.890625 78.144531 224.609375 74.121094 C 223.421875 72.015625 221.066406 69.636719 219.28125 68.1875 Z M 219.28125 68.1875 " fill-opacity="1" fill-rule="evenodd"/><path fill="#000000" d="M 314.082031 74.453125 C 315.023438 72.84375 316.332031 71.34375 317.582031 70.011719 C 317.78125 69.796875 318.53125 68.785156 318.890625 68.878906 C 319.886719 69.136719 320.375 72.4375 320.5 73.242188 C 320.664062 74.320312 320.671875 75.417969 320.582031 76.507812 C 320.21875 81.214844 318.726562 86.457031 315.550781 89.742188 C 313.71875 91.644531 311.222656 92.652344 308.917969 91.167969 C 308.046875 90.609375 307.265625 89.882812 306.5625 89.085938 C 305.320312 87.679688 304.363281 85.917969 303.605469 84.140625 C 303.515625 83.945312 303.382812 84.492188 303.285156 84.679688 C 303.097656 85.039062 302.90625 85.394531 302.710938 85.75 C 302.175781 86.738281 301.65625 87.734375 301.085938 88.695312 C 299.398438 91.539062 297.125 94.804688 294.078125 95.859375 C 289.65625 97.390625 285.109375 92.839844 283.703125 88.46875 C 283.191406 86.867188 283.140625 85.402344 283.117188 83.746094 C 283.125 83.75 281.660156 85.320312 281.550781 85.421875 C 279.8125 87.042969 278.011719 88.378906 276.007812 89.539062 C 275.933594 89.257812 276.421875 92.09375 276.421875 92.75 C 276.421875 94.570312 276.4375 95.824219 275.886719 97.832031 C 275.679688 98.582031 274.230469 100.824219 273.898438 101.304688 C 271.460938 104.828125 268.8125 108.105469 265.902344 111.136719 C 257.683594 119.6875 245.882812 129.566406 234.433594 122.585938 C 232.925781 121.664062 231.511719 120.546875 230.339844 119.136719 C 228.761719 117.25 227.648438 115.015625 227 112.539062 C 225.417969 106.4375 226.585938 99.734375 228.226562 93.800781 C 228.6875 92.136719 229.269531 90.519531 229.960938 88.960938 C 230.011719 88.847656 230.488281 87.617188 230.710938 87.878906 C 231.050781 88.285156 230.644531 89.765625 230.574219 90.214844 C 230.25 92.648438 229.886719 95.070312 229.609375 97.515625 C 228.867188 104.160156 229.667969 111.457031 235.011719 115.554688 C 243.847656 122.328125 253.441406 113.5625 260.425781 107.890625 C 266.066406 103.3125 272.597656 98.421875 272.460938 89.902344 C 272.246094 89.964844 271.957031 90.394531 271.769531 90.53125 C 271.140625 91.011719 270.449219 91.417969 269.765625 91.785156 C 267.453125 93.007812 264.972656 93.792969 262.410156 93.792969 C 261.300781 93.792969 260.179688 93.613281 259.125 93.261719 C 258.277344 92.984375 257.46875 92.570312 256.730469 92.015625 C 251.1875 87.792969 255.140625 79.203125 258.226562 74.75 C 259.71875 72.589844 262.066406 69.347656 264.832031 69.554688 C 267.507812 69.757812 270.011719 72.601562 271.535156 74.847656 C 272.914062 76.875 273.761719 79.308594 274.484375 81.714844 C 274.417969 81.445312 274.988281 81.65625 275.234375 81.582031 C 275.65625 81.453125 276.082031 81.285156 276.496094 81.097656 C 277.722656 80.542969 278.925781 79.800781 279.980469 78.910156 C 281.542969 77.59375 282.761719 75.90625 284.082031 74.324219 C 284.394531 73.957031 285.148438 72.75 285.703125 73.046875 C 286.742188 73.597656 286.75 76.449219 286.894531 77.492188 C 287.375 81.070312 287.359375 85.085938 291.277344 85.847656 C 291.863281 85.960938 292.464844 85.988281 293.058594 85.9375 C 297.5625 85.554688 300.707031 81.273438 302.691406 77.125 C 303.441406 75.554688 304.074219 73.921875 304.832031 72.359375 C 305.015625 71.992188 305.359375 71.0625 305.832031 71.078125 C 306.144531 71.085938 306.226562 71.609375 306.277344 71.863281 C 306.480469 72.863281 306.507812 73.917969 306.539062 74.9375 C 306.496094 74.816406 306.496094 75.199219 306.480469 75.328125 C 306.457031 75.582031 306.421875 75.835938 306.414062 76.089844 C 306.375 76.941406 306.441406 77.820312 306.597656 78.652344 C 307.066406 81.160156 308.558594 83.050781 310.871094 83.492188 C 314.757812 84.234375 315.523438 77.5625 314.082031 74.453125 Z M 267.164062 84.601562 C 267.148438 84.65625 266.777344 84.753906 266.734375 84.769531 C 266.300781 84.929688 265.863281 85.066406 265.417969 85.164062 C 264 85.480469 261.070312 85.964844 260.519531 83.839844 C 259.972656 81.714844 262.28125 79.507812 264.066406 79.757812 C 265.476562 79.957031 266.890625 82.398438 267.164062 84.601562 Z M 267.164062 84.601562 " fill-opacity="1" fill-rule="evenodd"/><path fill="#000000" d="M 205.492188 27.644531 L 210.992188 20.3125 L 219.207031 26.554688 L 213.761719 34.152344 Z M 205.492188 27.644531 " fill-opacity="1" fill-rule="evenodd"/><path fill="#000000" d="M 219.203125 27.644531 L 224.703125 20.3125 L 232.914062 26.554688 L 227.46875 34.152344 Z M 219.203125 27.644531 " fill-opacity="1" fill-rule="evenodd"/><path fill="#000000" d="M 156.777344 113.316406 L 162.277344 105.984375 L 170.492188 112.230469 L 165.046875 119.824219 Z M 156.777344 113.316406 " fill-opacity="1" fill-rule="evenodd"/><path fill="#000000" d="M 106.425781 78.550781 L 111.929688 71.21875 L 120.140625 77.460938 L 114.695312 85.058594 Z M 106.425781 78.550781 " fill-opacity="1" fill-rule="evenodd"/><g clip-path="url(#2ec4f788dc)"><path fill="#000000" d="M 306.902344 110.011719 C 306.847656 110.023438 307.019531 109.640625 307.039062 109.59375 C 307.132812 109.34375 307.21875 109.089844 307.316406 108.84375 C 307.542969 108.269531 307.785156 107.707031 308.007812 107.128906 C 308.027344 107.078125 308.167969 106.609375 308.257812 106.660156 C 308.335938 106.707031 308.363281 106.949219 308.390625 107.03125 C 308.523438 107.453125 308.664062 107.871094 308.761719 108.304688 C 309.199219 110.257812 309.179688 112.273438 308.398438 114.113281 C 307.839844 115.417969 306.761719 116.363281 305.492188 116.507812 C 303.886719 116.695312 302.285156 115.207031 302.226562 113.3125 C 302.226562 113.304688 302.050781 113.472656 302.039062 113.488281 C 301.945312 113.605469 301.863281 113.730469 301.777344 113.855469 C 301.507812 114.261719 301.253906 114.683594 301.003906 115.109375 C 300.214844 116.445312 299.269531 118.035156 297.785156 118.332031 C 295.796875 118.722656 294.375 116.910156 292.519531 116.621094 C 291.597656 116.476562 290.671875 116.824219 289.847656 117.269531 C 288.40625 118.042969 287.113281 119.15625 285.867188 120.273438 C 285.320312 120.761719 284.601562 121.386719 284.066406 121.871094 C 282.890625 122.9375 281.707031 123.992188 280.511719 125.027344 C 276.15625 128.808594 271.972656 132.648438 267.121094 135.570312 C 267.195312 135.671875 266.90625 135.667969 266.800781 135.722656 C 266.546875 135.859375 266.289062 135.988281 266.03125 136.109375 C 265.285156 136.46875 264.535156 136.808594 263.78125 137.140625 C 261.476562 138.164062 259.171875 139.054688 256.769531 139.730469 C 255.992188 139.949219 255.199219 140.160156 254.398438 140.222656 C 254.28125 140.234375 253.609375 140.308594 253.617188 140.023438 C 253.628906 139.472656 254.878906 138.925781 255.191406 138.730469 C 256.863281 137.691406 258.582031 136.773438 260.273438 135.777344 C 264.21875 133.445312 267.90625 130.605469 271.59375 127.777344 C 274.289062 125.710938 277.023438 123.703125 279.679688 121.558594 C 279.859375 121.414062 280.359375 121.011719 280.523438 120.878906 C 281.28125 120.277344 282.023438 119.660156 282.769531 119.046875 C 284.75 117.40625 286.734375 115.738281 288.832031 114.304688 C 289.996094 113.507812 291.324219 112.664062 292.71875 112.679688 C 294.753906 112.703125 296.734375 114.824219 298.78125 113.753906 C 300.375 112.921875 301.242188 110.925781 302.226562 109.375 C 302.507812 108.929688 303.171875 107.546875 303.730469 107.496094 C 304.082031 107.460938 303.847656 108.464844 303.824219 108.640625 C 303.667969 109.78125 303.316406 111.464844 304.09375 112.410156 C 305.269531 113.84375 308.015625 112.355469 306.902344 110.011719 Z M 306.902344 110.011719 " fill-opacity="1" fill-rule="evenodd"/></g><path fill="#000000" d="M 242.964844 84.585938 C 242.960938 84.550781 243.019531 84.621094 243.050781 84.636719 C 243.097656 84.667969 243.148438 84.695312 243.199219 84.722656 C 243.375 84.816406 243.550781 84.910156 243.730469 84.996094 C 243.867188 85.0625 244.003906 85.128906 244.140625 85.191406 C 244.234375 85.234375 244.324219 85.277344 244.417969 85.316406 C 244.738281 85.457031 245.804688 85.976562 245.773438 85.226562 C 245.75 84.679688 245.320312 84.121094 245.015625 83.707031 C 244.378906 82.847656 243.738281 81.988281 243.097656 81.136719 C 241.921875 79.570312 240.738281 78.015625 239.535156 76.476562 C 239.25 76.113281 238.976562 75.738281 238.675781 75.390625 C 238.59375 75.292969 238.445312 75.070312 238.304688 75.066406 C 238.082031 75.0625 237.960938 75.566406 237.914062 75.714844 C 237.675781 76.476562 237.53125 77.277344 237.363281 78.058594 C 237.09375 79.308594 236.785156 80.539062 236.445312 81.769531 C 236.300781 82.285156 235.972656 83.007812 236.152344 83.550781 C 236.261719 83.886719 236.515625 84.144531 236.75 84.390625 C 237.070312 84.71875 237.394531 85.042969 237.75 85.335938 C 237.640625 85.625 237.988281 86.367188 238.0625 86.636719 C 238.410156 87.875 238.832031 89.085938 239.253906 90.296875 C 240.085938 92.703125 241.011719 95.074219 242.152344 97.347656 C 243.390625 99.824219 244.847656 102.203125 246.019531 104.710938 C 245.929688 104.699219 245.566406 105.261719 245.511719 105.324219 C 244.914062 106.019531 244.304688 106.707031 243.683594 107.386719 C 241.316406 109.972656 238.789062 112.378906 236.113281 114.621094 C 232.109375 117.984375 227.519531 120.71875 222.832031 122.933594 C 218.15625 125.144531 212.980469 126.921875 207.761719 126.324219 C 207.71875 126.183594 207.472656 126.3125 207.332031 126.277344 C 206.835938 126.152344 206.34375 126.019531 205.859375 125.851562 C 204.03125 125.226562 202.273438 124.46875 200.738281 123.246094 C 196.363281 119.769531 195.113281 114.050781 195.128906 108.558594 C 195.140625 103.828125 196.167969 99.125 197.710938 94.6875 C 198.332031 92.894531 198.992188 91.117188 199.628906 89.332031 C 199.667969 89.214844 200.234375 87.808594 199.945312 87.804688 C 199.703125 87.804688 199.425781 88.203125 199.300781 88.367188 C 198.75 89.101562 198.28125 89.917969 197.886719 90.753906 C 196.273438 94.171875 195.066406 97.859375 193.996094 101.492188 C 193.503906 103.15625 193.054688 104.835938 192.699219 106.539062 C 190.789062 115.648438 191.410156 128.160156 200.4375 133.082031 C 201.808594 133.828125 203.285156 134.390625 204.796875 134.734375 C 215.757812 137.242188 225.648438 131.160156 233.785156 124.484375 C 233.714844 124.539062 233.945312 124.398438 234.019531 124.347656 C 234.167969 124.238281 234.316406 124.128906 234.464844 124.023438 C 234.933594 123.683594 235.398438 123.339844 235.863281 122.988281 C 237.226562 121.945312 238.523438 120.816406 239.773438 119.632812 C 243.734375 115.875 247.320312 111.730469 248.429688 106.183594 C 248.515625 105.753906 248.597656 105.164062 248.625 104.738281 C 248.703125 103.601562 248.726562 102.457031 248.691406 101.320312 C 248.585938 97.691406 247.230469 94.664062 245.785156 91.417969 C 244.851562 89.324219 244.058594 86.597656 242.964844 84.585938 Z M 242.964844 84.585938 " fill-opacity="1" fill-rule="evenodd"/><path fill="#000000" d="M 302.359375 16.125 C 302.386719 16.257812 302.59375 16.136719 302.707031 16.160156 C 303.007812 16.222656 303.300781 16.289062 303.597656 16.363281 C 304.875 16.675781 306.140625 17.085938 307.390625 17.511719 C 312.410156 19.238281 317.171875 21.765625 321.503906 25.195312 C 332.398438 33.824219 339.558594 48.433594 341.671875 63.441406 C 341.621094 63.464844 341.542969 63.675781 341.511719 63.722656 C 341.351562 63.992188 341.179688 64.246094 341.015625 64.515625 C 340.507812 65.339844 339.941406 66.125 339.292969 66.804688 C 338.609375 67.519531 337.53125 68.476562 336.570312 68.515625 C 335.804688 68.542969 335.023438 67.941406 334.390625 67.535156 C 333.027344 66.671875 331.691406 65.738281 330.429688 64.691406 C 330.464844 64.800781 330.3125 64.296875 330.296875 64.210938 C 330.207031 63.777344 330.109375 63.347656 330.003906 62.917969 C 329.683594 61.582031 329.355469 60.253906 329.027344 58.921875 C 328.027344 54.859375 326.507812 50.84375 324.917969 47.050781 C 320.277344 35.957031 310.789062 23.648438 302.359375 16.125 Z M 302.359375 16.125 " fill-opacity="1" fill-rule="evenodd"/><path fill="#000000" d="M 302.359375 133.792969 C 302.386719 133.660156 302.59375 133.78125 302.707031 133.757812 C 303.007812 133.695312 303.300781 133.628906 303.597656 133.554688 C 304.875 133.242188 306.140625 132.835938 307.390625 132.40625 C 312.410156 130.679688 317.171875 128.15625 321.503906 124.722656 C 332.398438 116.09375 339.558594 101.484375 341.671875 86.476562 C 341.621094 86.457031 341.542969 86.242188 341.511719 86.195312 C 341.351562 85.929688 341.179688 85.671875 341.015625 85.40625 C 340.507812 84.582031 339.941406 83.792969 339.292969 83.113281 C 338.609375 82.398438 337.53125 81.445312 336.570312 81.40625 C 335.804688 81.375 335.023438 81.976562 334.390625 82.382812 C 333.027344 83.246094 331.691406 84.179688 330.429688 85.226562 C 330.464844 85.117188 330.3125 85.621094 330.296875 85.707031 C 330.207031 86.140625 330.109375 86.570312 330.003906 87 C 329.683594 88.335938 329.355469 89.667969 329.027344 90.996094 C 328.027344 95.058594 326.507812 99.078125 324.917969 102.867188 C 320.277344 113.960938 310.789062 126.269531 302.359375 133.792969 Z M 302.359375 133.792969 " fill-opacity="1" fill-rule="evenodd"/><path fill="#000000" d="M 341.066406 50.796875 C 341.003906 50.773438 340.480469 50.574219 340.292969 50.445312 C 340.066406 50.296875 339.945312 50.101562 339.886719 49.957031 C 339.8125 49.761719 339.804688 49.570312 339.847656 49.382812 C 339.886719 49.222656 339.972656 48.996094 340.21875 48.84375 C 340.273438 48.808594 340.382812 48.757812 340.53125 48.722656 C 340.738281 48.679688 341.144531 48.648438 341.167969 48.644531 C 341.933594 48.609375 342.695312 48.675781 343.449219 48.800781 C 346.066406 49.230469 348.664062 50.351562 350.828125 52.117188 C 352.933594 53.832031 354.664062 56.144531 355.511719 58.992188 C 355.730469 59.730469 355.90625 60.496094 355.976562 61.277344 C 355.996094 61.445312 355.992188 61.648438 355.992188 61.859375 C 355.996094 61.917969 356 62.011719 356.007812 62.082031 C 356.082031 62.105469 356.1875 62.136719 356.257812 62.152344 C 356.425781 62.183594 356.582031 62.214844 356.703125 62.253906 C 357.503906 62.519531 358.257812 62.972656 358.929688 63.550781 C 361.152344 65.464844 362.484375 68.625 362.949219 71.742188 C 363.03125 71.953125 363.035156 72.191406 362.925781 72.457031 C 362.90625 72.496094 362.835938 72.753906 362.484375 72.890625 C 362.429688 72.914062 362.371094 72.925781 362.308594 72.933594 L 362.238281 72.949219 C 362.085938 73.007812 361.9375 73.058594 361.785156 73.113281 C 361.28125 73.292969 360.773438 73.457031 360.261719 73.625 C 359.390625 73.914062 358.511719 74.203125 357.628906 74.476562 L 357.902344 74.597656 C 359.460938 75.285156 360.957031 76.09375 362.46875 76.910156 C 362.816406 77.097656 362.980469 77.570312 362.839844 77.988281 C 361.582031 81.757812 359.613281 85.421875 356.433594 87.414062 C 356.167969 87.578125 355.667969 87.917969 355.460938 88.117188 C 354.472656 89.050781 353.90625 90.296875 353.425781 91.640625 C 352.960938 92.945312 352.527344 94.277344 351.824219 95.441406 C 350.273438 98.015625 347.625 99.769531 344.976562 100.253906 C 344.132812 100.40625 343.273438 100.4375 342.421875 100.375 C 342.273438 100.363281 342.066406 100.371094 341.875 100.34375 C 341.640625 100.3125 341.425781 100.230469 341.261719 100.109375 C 340.921875 99.863281 340.851562 99.53125 340.886719 99.207031 C 340.902344 99.050781 340.953125 98.875 341.0625 98.710938 C 341.1875 98.523438 341.460938 98.308594 341.527344 98.261719 C 341.972656 97.941406 342.433594 97.65625 342.886719 97.347656 C 343.921875 96.644531 344.921875 95.867188 345.695312 94.785156 C 346.667969 93.425781 347.136719 91.820312 347.175781 90.058594 C 347.195312 89.144531 347.105469 88.164062 347.113281 87.203125 C 347.128906 86.085938 347.28125 85 347.785156 84.039062 C 348.664062 82.371094 350.347656 81.449219 351.867188 80.808594 C 351.953125 80.769531 352.148438 80.710938 352.355469 80.625 C 352.148438 80.40625 351.886719 80.230469 351.683594 80.066406 C 350.886719 79.421875 350.039062 78.855469 349.179688 78.316406 C 348.4375 77.847656 347.683594 77.398438 346.90625 76.996094 C 345.90625 76.480469 344.875 76.0625 343.84375 75.640625 C 343.726562 75.59375 343.34375 75.375 343.179688 75.28125 C 343.148438 75.304688 343.117188 75.335938 343.082031 75.363281 C 342.933594 75.484375 342.796875 75.625 342.679688 75.726562 C 342.109375 76.222656 341.5625 76.753906 341.023438 77.285156 C 340.492188 77.804688 339.960938 78.324219 339.429688 78.847656 C 338.761719 79.507812 338.097656 80.183594 337.449219 80.875 C 337.289062 81.042969 337.097656 81.296875 336.886719 81.492188 C 336.660156 81.707031 336.414062 81.859375 336.160156 81.917969 C 335.917969 81.976562 335.671875 81.9375 335.4375 81.820312 C 335.265625 81.738281 335.101562 81.601562 334.953125 81.503906 C 334.511719 81.210938 334.0625 80.917969 333.625 80.609375 C 331.851562 79.367188 328.765625 76.949219 327.144531 75.449219 C 326.941406 75.261719 326.847656 75.011719 326.871094 74.695312 C 326.878906 74.570312 326.917969 74.382812 327.046875 74.199219 C 327.125 74.09375 327.292969 73.9375 327.300781 73.929688 C 327.558594 73.691406 327.828125 73.476562 328.101562 73.261719 C 328.679688 72.808594 329.261719 72.355469 329.851562 71.921875 C 331.511719 70.691406 333.898438 68.914062 335.558594 67.621094 C 335.640625 67.523438 335.777344 67.425781 336.003906 67.410156 C 336.179688 67.398438 336.347656 67.457031 336.484375 67.570312 C 336.503906 67.582031 336.519531 67.59375 336.527344 67.601562 C 336.59375 67.652344 336.660156 67.699219 336.730469 67.75 C 336.917969 67.894531 337.101562 68.042969 337.289062 68.191406 C 337.792969 68.597656 338.304688 69 338.808594 69.410156 C 340.230469 70.570312 341.703125 71.695312 343.074219 72.945312 C 343.835938 72.292969 344.71875 71.765625 345.503906 71.191406 C 347.042969 70.0625 348.585938 68.945312 350.132812 67.828125 C 349.585938 67.425781 349.0625 66.957031 348.65625 66.382812 C 348.085938 65.578125 347.824219 64.511719 347.511719 63.554688 C 346.988281 61.914062 346.5625 60.234375 346.027344 58.601562 C 345.269531 56.316406 344.257812 53.984375 342.75 52.242188 C 342.25 51.667969 341.691406 51.171875 341.066406 50.796875 Z M 343.269531 50.488281 C 345.648438 50.882812 348.015625 51.898438 349.988281 53.507812 C 351.84375 55.019531 353.382812 57.039062 354.128906 59.546875 C 354.3125 60.164062 354.464844 60.804688 354.523438 61.457031 C 354.546875 61.667969 354.523438 61.945312 354.539062 62.199219 C 354.5625 62.515625 354.628906 62.804688 354.753906 63.039062 C 354.882812 63.292969 355.089844 63.496094 355.363281 63.628906 C 355.660156 63.773438 356.066406 63.8125 356.300781 63.890625 C 356.9375 64.097656 357.527344 64.460938 358.058594 64.917969 C 359.847656 66.457031 360.945312 68.953125 361.414062 71.46875 L 361.359375 71.488281 C 360.863281 71.664062 360.359375 71.824219 359.863281 71.988281 C 358.707031 72.375 357.546875 72.75 356.382812 73.097656 C 356.214844 73.148438 355.730469 73.210938 355.398438 73.328125 C 355.070312 73.445312 354.839844 73.652344 354.726562 73.828125 C 354.605469 74.023438 354.5625 74.242188 354.601562 74.492188 C 354.625 74.617188 354.679688 74.828125 354.875 75.007812 C 354.996094 75.125 355.761719 75.476562 355.8125 75.5 C 356.335938 75.726562 356.859375 75.957031 357.382812 76.1875 C 358.6875 76.765625 359.953125 77.429688 361.222656 78.113281 C 360.082031 81.25 358.398438 84.25 355.738281 85.914062 C 355.410156 86.121094 354.792969 86.550781 354.53125 86.800781 C 353.355469 87.917969 352.652344 89.382812 352.074219 90.992188 C 351.652344 92.179688 351.269531 93.402344 350.628906 94.464844 C 349.296875 96.671875 347.015625 98.160156 344.75 98.574219 C 344.4375 98.628906 344.125 98.667969 343.8125 98.6875 C 344.925781 97.914062 345.984375 97.042969 346.820312 95.871094 C 348.007812 94.210938 348.589844 92.253906 348.636719 90.101562 C 348.65625 89.183594 348.566406 88.195312 348.578125 87.226562 C 348.585938 86.417969 348.667969 85.621094 349.035156 84.925781 C 349.742188 83.582031 351.148438 82.921875 352.363281 82.40625 C 352.597656 82.304688 353.34375 82.054688 353.675781 81.691406 C 354.039062 81.292969 354.15625 80.808594 353.925781 80.257812 C 353.640625 79.59375 353.019531 79.070312 352.511719 78.667969 C 351.671875 77.988281 350.777344 77.390625 349.878906 76.824219 C 349.101562 76.332031 348.3125 75.863281 347.5 75.441406 C 346.464844 74.90625 345.398438 74.472656 344.328125 74.039062 C 344.316406 74.03125 344.304688 74.027344 344.292969 74.023438 C 344.9375 73.523438 345.644531 73.09375 346.28125 72.632812 C 348.179688 71.238281 350.085938 69.859375 352 68.480469 C 352.203125 68.332031 352.332031 68.074219 352.339844 67.789062 C 352.347656 67.507812 352.238281 67.238281 352.039062 67.070312 C 351.851562 66.914062 351.550781 66.824219 351.335938 66.683594 C 350.777344 66.316406 350.199219 65.886719 349.785156 65.300781 C 349.320312 64.640625 349.136719 63.746094 348.882812 62.957031 C 348.355469 61.316406 347.929688 59.628906 347.390625 57.992188 C 346.558594 55.488281 345.433594 52.949219 343.78125 51.035156 C 343.617188 50.84375 343.445312 50.660156 343.269531 50.488281 Z M 336.058594 69.273438 C 336.191406 69.378906 336.324219 69.488281 336.457031 69.59375 C 336.964844 69.996094 337.46875 70.394531 337.964844 70.800781 C 339.324219 71.90625 340.726562 72.980469 342.035156 74.160156 C 341.949219 74.234375 341.871094 74.304688 341.800781 74.371094 C 341.210938 74.882812 340.644531 75.433594 340.082031 75.980469 C 339.550781 76.503906 339.019531 77.027344 338.484375 77.550781 C 337.800781 78.222656 337.128906 78.914062 336.460938 79.617188 C 336.355469 79.730469 336.242188 79.878906 336.113281 80.023438 C 336.054688 80.085938 336.003906 80.164062 335.949219 80.214844 C 335.871094 80.160156 335.75 80.074219 335.675781 80.027344 C 335.246094 79.738281 334.808594 79.457031 334.382812 79.15625 C 332.890625 78.109375 330.445312 76.214844 328.789062 74.773438 L 328.921875 74.671875 C 329.488281 74.222656 330.0625 73.78125 330.640625 73.355469 C 332.203125 72.195312 334.417969 70.546875 336.058594 69.273438 Z M 336.058594 69.273438 " fill-opacity="1" fill-rule="evenodd"/><g clip-path="url(#472ef93890)"><path fill="#000000" d="M 374.800781 75.347656 L 362.925781 72.457031 L 355.773438 74.519531 L 361.972656 78.03125 Z M 374.800781 75.347656 " fill-opacity="1" fill-rule="evenodd"/></g><path fill="#000000" d="M 72.632812 22.570312 C 72.605469 22.703125 72.394531 22.582031 72.285156 22.605469 C 71.984375 22.667969 71.691406 22.734375 71.394531 22.808594 C 70.117188 23.121094 68.851562 23.527344 67.601562 23.957031 C 62.582031 25.683594 57.816406 28.207031 53.488281 31.640625 C 42.59375 40.269531 35.433594 54.878906 33.320312 69.886719 C 33.367188 69.90625 33.449219 70.121094 33.480469 70.167969 C 33.640625 70.433594 33.8125 70.691406 33.976562 70.960938 C 34.484375 71.785156 35.050781 72.570312 35.699219 73.25 C 36.382812 73.964844 37.460938 74.917969 38.421875 74.957031 C 39.183594 74.988281 39.964844 74.386719 40.601562 73.980469 C 41.960938 73.117188 43.296875 72.183594 44.5625 71.136719 C 44.527344 71.246094 44.675781 70.742188 44.695312 70.65625 C 44.785156 70.222656 44.882812 69.792969 44.988281 69.363281 C 45.308594 68.027344 45.636719 66.695312 45.964844 65.367188 C 46.960938 61.304688 48.484375 57.285156 50.070312 53.496094 C 54.710938 42.402344 64.203125 30.09375 72.632812 22.570312 Z M 72.632812 22.570312 " fill-opacity="1" fill-rule="evenodd"/><g clip-path="url(#fcfe371dcc)"><path fill="#000000" d="M 72.632812 140.238281 C 72.605469 140.105469 72.394531 140.226562 72.285156 140.203125 C 71.984375 140.140625 71.691406 140.074219 71.394531 140 C 70.117188 139.6875 68.851562 139.28125 67.601562 138.851562 C 62.582031 137.125 57.816406 134.601562 53.488281 131.167969 C 42.59375 122.539062 35.433594 107.929688 33.320312 92.921875 C 33.367188 92.902344 33.449219 92.6875 33.480469 92.640625 C 33.640625 92.375 33.8125 92.117188 33.976562 91.851562 C 34.484375 91.023438 35.050781 90.238281 35.699219 89.558594 C 36.382812 88.84375 37.460938 87.890625 38.421875 87.851562 C 39.183594 87.820312 39.964844 88.421875 40.601562 88.828125 C 41.960938 89.691406 43.296875 90.625 44.5625 91.671875 C 44.527344 91.5625 44.675781 92.066406 44.695312 92.152344 C 44.785156 92.585938 44.882812 93.015625 44.988281 93.445312 C 45.308594 94.78125 45.636719 96.113281 45.964844 97.441406 C 46.960938 101.503906 48.484375 105.523438 50.070312 109.3125 C 54.710938 120.40625 64.203125 132.714844 72.632812 140.238281 Z M 72.632812 140.238281 " fill-opacity="1" fill-rule="evenodd"/></g><path fill="#000000" d="M 33.921875 57.242188 C 33.984375 57.21875 34.507812 57.015625 34.699219 56.890625 C 34.925781 56.742188 35.046875 56.546875 35.105469 56.398438 C 35.179688 56.207031 35.1875 56.015625 35.144531 55.828125 C 35.105469 55.667969 35.019531 55.441406 34.769531 55.289062 C 34.71875 55.253906 34.605469 55.199219 34.460938 55.167969 C 34.253906 55.125 33.847656 55.089844 33.820312 55.089844 C 33.058594 55.054688 32.296875 55.121094 31.542969 55.242188 C 28.925781 55.671875 26.328125 56.792969 24.164062 58.5625 C 22.054688 60.277344 20.324219 62.585938 19.480469 65.433594 C 19.261719 66.175781 19.085938 66.941406 19.011719 67.722656 C 18.996094 67.890625 19 68.09375 19 68.300781 C 18.996094 68.363281 18.992188 68.457031 18.980469 68.527344 C 18.910156 68.550781 18.804688 68.582031 18.734375 68.59375 C 18.566406 68.628906 18.410156 68.660156 18.289062 68.699219 C 17.488281 68.964844 16.734375 69.417969 16.0625 69.996094 C 13.839844 71.90625 12.503906 75.066406 12.042969 78.1875 C 11.960938 78.398438 11.953125 78.632812 12.066406 78.898438 C 12.082031 78.941406 12.15625 79.199219 12.503906 79.335938 C 12.5625 79.355469 12.621094 79.371094 12.683594 79.375 L 12.753906 79.394531 C 12.902344 79.453125 13.054688 79.503906 13.207031 79.558594 C 13.710938 79.738281 14.21875 79.902344 14.726562 80.070312 C 15.601562 80.359375 16.480469 80.648438 17.363281 80.921875 L 17.085938 81.042969 C 15.53125 81.730469 14.035156 82.539062 12.523438 83.355469 C 12.175781 83.542969 12.011719 84.015625 12.148438 84.433594 C 13.410156 88.203125 15.378906 91.867188 18.554688 93.855469 C 18.820312 94.023438 19.324219 94.363281 19.53125 94.5625 C 20.515625 95.496094 21.085938 96.742188 21.5625 98.085938 C 22.03125 99.390625 22.464844 100.722656 23.164062 101.886719 C 24.71875 104.460938 27.367188 106.214844 30.015625 106.699219 C 30.859375 106.851562 31.71875 106.882812 32.570312 106.820312 C 32.71875 106.808594 32.925781 106.816406 33.117188 106.789062 C 33.351562 106.757812 33.5625 106.675781 33.726562 106.554688 C 34.070312 106.304688 34.140625 105.976562 34.105469 105.652344 C 34.085938 105.496094 34.039062 105.320312 33.929688 105.15625 C 33.804688 104.96875 33.527344 104.753906 33.460938 104.707031 C 33.019531 104.382812 32.558594 104.101562 32.105469 103.792969 C 31.070312 103.085938 30.070312 102.3125 29.296875 101.230469 C 28.324219 99.871094 27.855469 98.265625 27.816406 96.503906 C 27.796875 95.589844 27.886719 94.609375 27.875 93.648438 C 27.863281 92.53125 27.707031 91.445312 27.207031 90.484375 C 26.328125 88.8125 24.644531 87.894531 23.125 87.253906 C 23.035156 87.214844 22.839844 87.152344 22.636719 87.070312 C 22.839844 86.851562 23.101562 86.675781 23.308594 86.507812 C 24.105469 85.867188 24.953125 85.300781 25.808594 84.761719 C 26.554688 84.292969 27.308594 83.839844 28.085938 83.441406 C 29.082031 82.925781 30.117188 82.503906 31.148438 82.085938 C 31.265625 82.039062 31.648438 81.820312 31.8125 81.726562 C 31.84375 81.75 31.875 81.78125 31.910156 81.808594 C 32.054688 81.929688 32.195312 82.070312 32.3125 82.171875 C 32.882812 82.667969 33.425781 83.199219 33.96875 83.730469 C 34.5 84.25 35.027344 84.769531 35.5625 85.292969 C 36.230469 85.953125 36.890625 86.628906 37.542969 87.316406 C 37.703125 87.488281 37.894531 87.742188 38.101562 87.9375 C 38.328125 88.148438 38.578125 88.304688 38.832031 88.363281 C 39.074219 88.421875 39.316406 88.378906 39.554688 88.265625 C 39.726562 88.183594 39.890625 88.046875 40.035156 87.949219 C 40.480469 87.652344 40.929688 87.363281 41.367188 87.054688 C 43.136719 85.8125 46.226562 83.394531 47.84375 81.894531 C 48.050781 81.707031 48.140625 81.453125 48.121094 81.140625 C 48.109375 81.015625 48.070312 80.828125 47.941406 80.644531 C 47.867188 80.539062 47.699219 80.382812 47.691406 80.375 C 47.433594 80.136719 47.160156 79.921875 46.890625 79.707031 C 46.308594 79.25 45.730469 78.800781 45.140625 78.363281 C 43.480469 77.136719 41.09375 75.355469 39.433594 74.066406 C 39.347656 73.96875 39.210938 73.871094 38.984375 73.855469 C 38.8125 73.839844 38.644531 73.902344 38.507812 74.015625 C 38.488281 74.027344 38.472656 74.039062 38.460938 74.046875 C 38.394531 74.097656 38.328125 74.144531 38.261719 74.195312 C 38.070312 74.339844 37.890625 74.488281 37.703125 74.636719 C 37.199219 75.042969 36.6875 75.441406 36.183594 75.855469 C 34.761719 77.015625 33.289062 78.140625 31.917969 79.390625 C 31.15625 78.738281 30.273438 78.210938 29.488281 77.636719 C 27.949219 76.507812 26.402344 75.390625 24.859375 74.273438 C 25.40625 73.871094 25.929688 73.402344 26.332031 72.828125 C 26.90625 72.023438 27.167969 70.957031 27.476562 69.996094 C 28 68.359375 28.425781 66.679688 28.964844 65.046875 C 29.722656 62.761719 30.734375 60.429688 32.242188 58.683594 C 32.738281 58.109375 33.296875 57.613281 33.921875 57.242188 Z M 31.722656 56.929688 C 29.339844 57.328125 26.976562 58.34375 25.003906 59.953125 C 23.148438 61.464844 21.609375 63.484375 20.863281 65.992188 C 20.675781 66.609375 20.527344 67.25 20.46875 67.902344 C 20.445312 68.113281 20.46875 68.390625 20.449219 68.644531 C 20.429688 68.960938 20.363281 69.25 20.238281 69.484375 C 20.109375 69.738281 19.898438 69.941406 19.628906 70.074219 C 19.332031 70.21875 18.925781 70.253906 18.6875 70.332031 C 18.054688 70.542969 17.464844 70.90625 16.933594 71.359375 C 15.144531 72.902344 14.042969 75.394531 13.578125 77.914062 L 13.632812 77.933594 C 14.128906 78.109375 14.628906 78.269531 15.125 78.433594 C 16.285156 78.820312 17.441406 79.195312 18.609375 79.542969 C 18.777344 79.59375 19.261719 79.65625 19.59375 79.773438 C 19.921875 79.890625 20.152344 80.09375 20.265625 80.273438 C 20.382812 80.46875 20.429688 80.6875 20.386719 80.9375 C 20.367188 81.0625 20.3125 81.269531 20.117188 81.453125 C 19.992188 81.570312 19.230469 81.921875 19.175781 81.945312 C 18.652344 82.171875 18.128906 82.402344 17.605469 82.632812 C 16.300781 83.207031 15.039062 83.875 13.769531 84.554688 C 14.910156 87.695312 16.589844 90.695312 19.253906 92.359375 C 19.582031 92.566406 20.199219 92.996094 20.460938 93.246094 C 21.636719 94.363281 22.339844 95.828125 22.917969 97.433594 C 23.339844 98.625 23.71875 99.847656 24.363281 100.910156 C 25.695312 103.117188 27.972656 104.601562 30.242188 105.019531 C 30.550781 105.074219 30.867188 105.113281 31.175781 105.132812 C 30.0625 104.359375 29.007812 103.484375 28.167969 102.316406 C 26.984375 100.65625 26.398438 98.699219 26.355469 96.546875 C 26.332031 95.628906 26.425781 94.640625 26.414062 93.671875 C 26.402344 92.863281 26.324219 92.066406 25.957031 91.371094 C 25.25 90.027344 23.84375 89.367188 22.628906 88.851562 C 22.394531 88.75 21.648438 88.496094 21.316406 88.136719 C 20.953125 87.738281 20.835938 87.253906 21.066406 86.703125 C 21.351562 86.035156 21.972656 85.515625 22.476562 85.109375 C 23.320312 84.433594 24.210938 83.835938 25.113281 83.269531 C 25.890625 82.777344 26.679688 82.304688 27.492188 81.886719 C 28.523438 81.351562 29.59375 80.917969 30.664062 80.480469 C 30.675781 80.476562 30.683594 80.472656 30.699219 80.46875 C 30.054688 79.964844 29.34375 79.539062 28.710938 79.074219 C 26.8125 77.683594 24.90625 76.304688 22.992188 74.925781 C 22.789062 74.777344 22.660156 74.519531 22.652344 74.234375 C 22.640625 73.953125 22.753906 73.683594 22.953125 73.515625 C 23.140625 73.359375 23.441406 73.269531 23.652344 73.128906 C 24.210938 72.761719 24.792969 72.332031 25.207031 71.746094 C 25.671875 71.085938 25.855469 70.1875 26.105469 69.402344 C 26.632812 67.757812 27.0625 66.074219 27.601562 64.4375 C 28.429688 61.933594 29.558594 59.394531 31.207031 57.480469 C 31.371094 57.289062 31.546875 57.105469 31.722656 56.929688 Z M 38.933594 75.71875 C 38.800781 75.824219 38.667969 75.933594 38.53125 76.039062 C 38.027344 76.441406 37.523438 76.835938 37.023438 77.246094 C 35.667969 78.351562 34.265625 79.421875 32.957031 80.605469 C 33.039062 80.679688 33.121094 80.75 33.191406 80.816406 C 33.78125 81.328125 34.34375 81.878906 34.910156 82.425781 C 35.441406 82.949219 35.972656 83.472656 36.503906 83.992188 C 37.1875 84.667969 37.863281 85.359375 38.527344 86.0625 C 38.636719 86.175781 38.75 86.324219 38.878906 86.46875 C 38.9375 86.53125 38.984375 86.609375 39.042969 86.65625 C 39.117188 86.605469 39.242188 86.519531 39.3125 86.472656 C 39.746094 86.183594 40.183594 85.898438 40.609375 85.597656 C 42.101562 84.554688 44.542969 82.660156 46.203125 81.21875 L 46.070312 81.117188 C 45.503906 80.667969 44.929688 80.226562 44.347656 79.796875 C 42.789062 78.640625 40.574219 76.992188 38.933594 75.71875 Z M 38.933594 75.71875 " fill-opacity="1" fill-rule="evenodd"/><g clip-path="url(#0cabeed714)"><path fill="#000000" d="M 0.1875 81.792969 L 12.066406 78.898438 L 19.21875 80.964844 L 13.019531 84.476562 Z M 0.1875 81.792969 " fill-opacity="1" fill-rule="evenodd"/></g></svg>