<svg xmlns="http://www.w3.org/2000/svg" xmlns:xlink="http://www.w3.org/1999/xlink" width="500" zoomAndPan="magnify" viewBox="0 0 375 157.92" height="200" preserveAspectRatio="xMidYMid meet" version="1.0"><defs><clipPath id="a5cc14b5af"><path d="M 355 69 L 374.902344 69 L 374.902344 76 L 355 76 Z M 355 69 " clip-rule="nonzero"/></clipPath><clipPath id="fda19d1e7c"><path d="M 0.09375 76 L 20 76 L 20 83 L 0.09375 83 Z M 0.09375 76 " clip-rule="nonzero"/></clipPath><clipPath id="baaa64f54a"><path d="M 242 9.136719 L 266 9.136719 L 266 35 L 242 35 Z M 242 9.136719 " clip-rule="nonzero"/></clipPath></defs><path fill="#000000" d="M 302.363281 13.664062 C 302.390625 13.796875 302.597656 13.675781 302.710938 13.699219 C 303.011719 13.761719 303.304688 13.832031 303.601562 13.902344 C 304.878906 14.214844 306.144531 14.625 307.394531 15.054688 C 312.410156 16.777344 317.175781 19.304688 321.503906 22.734375 C 332.398438 31.363281 339.558594 45.972656 341.671875 60.980469 C 341.621094 61 341.542969 61.214844 341.511719 61.261719 C 341.351562 61.527344 341.179688 61.785156 341.015625 62.050781 C 340.507812 62.875 339.941406 63.664062 339.292969 64.34375 C 338.609375 65.054688 337.53125 66.011719 336.570312 66.050781 C 335.808594 66.082031 335.027344 65.476562 334.390625 65.070312 C 333.03125 64.207031 331.695312 63.277344 330.429688 62.230469 C 330.464844 62.335938 330.316406 61.832031 330.296875 61.75 C 330.207031 61.3125 330.109375 60.882812 330.003906 60.453125 C 329.683594 59.121094 329.355469 57.789062 329.027344 56.457031 C 328.03125 52.394531 326.507812 48.378906 324.921875 44.585938 C 320.28125 33.496094 310.792969 21.1875 302.363281 13.664062 Z M 302.363281 13.664062 " fill-opacity="1" fill-rule="evenodd"/><path fill="#000000" d="M 302.363281 131.324219 C 302.390625 131.195312 302.597656 131.3125 302.710938 131.289062 C 303.011719 131.230469 303.304688 131.160156 303.601562 131.085938 C 304.878906 130.773438 306.144531 130.367188 307.394531 129.9375 C 312.410156 128.214844 317.175781 125.6875 321.503906 122.257812 C 332.398438 113.628906 339.558594 99.019531 341.671875 84.011719 C 341.621094 83.992188 341.542969 83.777344 341.511719 83.730469 C 341.351562 83.464844 341.179688 83.207031 341.015625 82.941406 C 340.507812 82.117188 339.941406 81.328125 339.292969 80.648438 C 338.609375 79.933594 337.53125 78.980469 336.570312 78.941406 C 335.808594 78.910156 335.027344 79.515625 334.390625 79.917969 C 333.03125 80.78125 331.695312 81.714844 330.429688 82.761719 C 330.464844 82.652344 330.316406 83.15625 330.296875 83.242188 C 330.207031 83.675781 330.109375 84.105469 330.003906 84.535156 C 329.683594 85.871094 329.355469 87.203125 329.027344 88.53125 C 328.03125 92.59375 326.507812 96.609375 324.921875 100.402344 C 320.28125 111.492188 310.792969 123.800781 302.363281 131.324219 Z M 302.363281 131.324219 " fill-opacity="1" fill-rule="evenodd"/><path fill="#000000" d="M 341.066406 48.335938 C 341.007812 48.3125 340.484375 48.109375 340.292969 47.984375 C 340.066406 47.835938 339.945312 47.636719 339.886719 47.492188 C 339.8125 47.300781 339.804688 47.109375 339.847656 46.917969 C 339.886719 46.757812 339.972656 46.535156 340.222656 46.382812 C 340.273438 46.34375 340.386719 46.292969 340.53125 46.261719 C 340.738281 46.214844 341.144531 46.183594 341.171875 46.183594 C 341.933594 46.144531 342.695312 46.210938 343.449219 46.335938 C 346.066406 46.765625 348.664062 47.886719 350.828125 49.652344 C 352.933594 51.367188 354.664062 53.679688 355.511719 56.527344 C 355.730469 57.265625 355.90625 58.035156 355.976562 58.8125 C 355.996094 58.984375 355.992188 59.1875 355.992188 59.394531 C 355.996094 59.457031 356 59.546875 356.007812 59.621094 C 356.078125 59.640625 356.1875 59.671875 356.257812 59.6875 C 356.425781 59.71875 356.582031 59.75 356.699219 59.789062 C 357.503906 60.058594 358.257812 60.507812 358.929688 61.085938 C 361.148438 63 362.484375 66.160156 362.945312 69.277344 C 363.03125 69.488281 363.035156 69.726562 362.925781 69.992188 C 362.90625 70.03125 362.835938 70.289062 362.484375 70.425781 C 362.429688 70.449219 362.371094 70.460938 362.308594 70.46875 L 362.238281 70.484375 C 362.085938 70.542969 361.933594 70.597656 361.785156 70.648438 C 361.277344 70.828125 360.773438 70.992188 360.261719 71.160156 C 359.390625 71.453125 358.511719 71.738281 357.628906 72.011719 L 357.902344 72.132812 C 359.460938 72.820312 360.957031 73.628906 362.46875 74.445312 C 362.8125 74.632812 362.976562 75.105469 362.839844 75.523438 C 361.582031 79.292969 359.609375 82.957031 356.433594 84.945312 C 356.167969 85.113281 355.667969 85.453125 355.457031 85.652344 C 354.472656 86.585938 353.90625 87.832031 353.425781 89.175781 C 352.960938 90.480469 352.527344 91.808594 351.824219 92.976562 C 350.273438 95.546875 347.625 97.304688 344.976562 97.785156 C 344.132812 97.941406 343.273438 97.972656 342.421875 97.90625 C 342.273438 97.894531 342.066406 97.902344 341.875 97.878906 C 341.640625 97.84375 341.425781 97.765625 341.261719 97.644531 C 340.921875 97.394531 340.851562 97.066406 340.886719 96.738281 C 340.902344 96.585938 340.953125 96.410156 341.0625 96.246094 C 341.1875 96.054688 341.464844 95.84375 341.53125 95.796875 C 341.972656 95.472656 342.433594 95.191406 342.886719 94.882812 C 343.921875 94.175781 344.921875 93.402344 345.695312 92.320312 C 346.667969 90.960938 347.136719 89.355469 347.175781 87.59375 C 347.195312 86.679688 347.105469 85.699219 347.113281 84.738281 C 347.128906 83.621094 347.28125 82.535156 347.785156 81.574219 C 348.664062 79.90625 350.347656 78.984375 351.867188 78.34375 C 351.953125 78.304688 352.148438 78.246094 352.355469 78.160156 C 352.148438 77.941406 351.886719 77.765625 351.683594 77.601562 C 350.886719 76.957031 350.039062 76.390625 349.183594 75.851562 C 348.4375 75.382812 347.683594 74.933594 346.90625 74.53125 C 345.90625 74.015625 344.875 73.597656 343.84375 73.179688 C 343.726562 73.128906 343.34375 72.910156 343.179688 72.816406 C 343.148438 72.839844 343.117188 72.871094 343.082031 72.898438 C 342.9375 73.019531 342.796875 73.160156 342.679688 73.265625 C 342.109375 73.757812 341.566406 74.289062 341.023438 74.820312 C 340.492188 75.339844 339.964844 75.859375 339.429688 76.382812 C 338.761719 77.042969 338.101562 77.71875 337.449219 78.40625 C 337.289062 78.578125 337.097656 78.832031 336.890625 79.027344 C 336.664062 79.242188 336.414062 79.394531 336.160156 79.453125 C 335.917969 79.511719 335.675781 79.46875 335.4375 79.355469 C 335.265625 79.273438 335.101562 79.136719 334.957031 79.039062 C 334.511719 78.746094 334.0625 78.453125 333.625 78.144531 C 331.855469 76.902344 328.765625 74.484375 327.148438 72.984375 C 326.945312 72.796875 326.851562 72.546875 326.871094 72.230469 C 326.882812 72.105469 326.921875 71.917969 327.050781 71.734375 C 327.125 71.628906 327.292969 71.472656 327.304688 71.464844 C 327.558594 71.226562 327.832031 71.011719 328.101562 70.796875 C 328.683594 70.34375 329.265625 69.894531 329.855469 69.457031 C 331.511719 68.230469 333.898438 66.449219 335.558594 65.15625 C 335.644531 65.0625 335.78125 64.964844 336.007812 64.945312 C 336.179688 64.933594 336.347656 64.992188 336.484375 65.109375 C 336.503906 65.121094 336.519531 65.128906 336.53125 65.136719 C 336.597656 65.1875 336.664062 65.234375 336.730469 65.289062 C 336.921875 65.433594 337.101562 65.582031 337.289062 65.730469 C 337.792969 66.132812 338.304688 66.535156 338.808594 66.945312 C 340.230469 68.105469 341.703125 69.230469 343.074219 70.480469 C 343.835938 69.832031 344.71875 69.300781 345.503906 68.726562 C 347.042969 67.601562 348.585938 66.480469 350.132812 65.363281 C 349.585938 64.960938 349.0625 64.492188 348.660156 63.917969 C 348.085938 63.113281 347.824219 62.046875 347.515625 61.089844 C 346.992188 59.453125 346.566406 57.769531 346.027344 56.140625 C 345.269531 53.851562 344.257812 51.523438 342.75 49.777344 C 342.253906 49.203125 341.695312 48.707031 341.066406 48.335938 Z M 343.269531 48.023438 C 345.652344 48.417969 348.015625 49.4375 349.988281 51.046875 C 351.84375 52.554688 353.382812 54.574219 354.128906 57.082031 C 354.3125 57.699219 354.464844 58.339844 354.523438 58.992188 C 354.546875 59.207031 354.523438 59.480469 354.539062 59.738281 C 354.5625 60.050781 354.628906 60.34375 354.753906 60.578125 C 354.882812 60.832031 355.089844 61.03125 355.359375 61.164062 C 355.660156 61.308594 356.066406 61.347656 356.300781 61.425781 C 356.9375 61.636719 357.527344 61.996094 358.058594 62.453125 C 359.847656 63.992188 360.945312 66.488281 361.410156 69.003906 L 361.359375 69.023438 C 360.863281 69.199219 360.359375 69.359375 359.863281 69.523438 C 358.707031 69.910156 357.546875 70.285156 356.382812 70.636719 C 356.214844 70.683594 355.730469 70.746094 355.398438 70.863281 C 355.070312 70.984375 354.835938 71.1875 354.726562 71.363281 C 354.605469 71.558594 354.5625 71.78125 354.601562 72.027344 C 354.625 72.152344 354.679688 72.363281 354.875 72.546875 C 354.996094 72.660156 355.761719 73.011719 355.8125 73.035156 C 356.335938 73.261719 356.859375 73.492188 357.382812 73.722656 C 358.6875 74.300781 359.953125 74.964844 361.222656 75.648438 C 360.082031 78.785156 358.398438 81.785156 355.738281 83.449219 C 355.410156 83.65625 354.792969 84.085938 354.53125 84.335938 C 353.355469 85.453125 352.652344 86.917969 352.074219 88.523438 C 351.652344 89.714844 351.269531 90.9375 350.628906 92 C 349.296875 94.207031 347.015625 95.691406 344.75 96.109375 C 344.441406 96.164062 344.125 96.203125 343.8125 96.222656 C 344.925781 95.449219 345.984375 94.574219 346.820312 93.40625 C 348.007812 91.746094 348.59375 89.785156 348.636719 87.636719 C 348.660156 86.71875 348.566406 85.730469 348.578125 84.761719 C 348.585938 83.953125 348.667969 83.15625 349.035156 82.460938 C 349.742188 81.117188 351.148438 80.457031 352.363281 79.941406 C 352.597656 79.839844 353.34375 79.589844 353.675781 79.226562 C 354.039062 78.828125 354.15625 78.34375 353.925781 77.792969 C 353.640625 77.128906 353.019531 76.605469 352.511719 76.203125 C 351.671875 75.523438 350.777344 74.925781 349.878906 74.359375 C 349.101562 73.867188 348.3125 73.398438 347.5 72.980469 C 346.46875 72.441406 345.398438 72.007812 344.328125 71.574219 C 344.316406 71.570312 344.304688 71.5625 344.292969 71.558594 C 344.9375 71.058594 345.644531 70.632812 346.28125 70.167969 C 348.179688 68.773438 350.085938 67.394531 352 66.019531 C 352.203125 65.867188 352.332031 65.609375 352.339844 65.328125 C 352.347656 65.042969 352.238281 64.773438 352.039062 64.609375 C 351.851562 64.449219 351.550781 64.359375 351.335938 64.222656 C 350.777344 63.851562 350.199219 63.421875 349.785156 62.839844 C 349.320312 62.179688 349.136719 61.28125 348.882812 60.492188 C 348.355469 58.851562 347.929688 57.164062 347.390625 55.527344 C 346.558594 53.023438 345.433594 50.484375 343.78125 48.574219 C 343.617188 48.382812 343.445312 48.199219 343.269531 48.023438 Z M 336.058594 66.8125 C 336.191406 66.917969 336.324219 67.023438 336.460938 67.128906 C 336.964844 67.53125 337.46875 67.929688 337.96875 68.335938 C 339.324219 69.441406 340.726562 70.515625 342.035156 71.695312 C 341.949219 71.769531 341.871094 71.839844 341.800781 71.90625 C 341.210938 72.421875 340.648438 72.96875 340.082031 73.515625 C 339.550781 74.039062 339.019531 74.5625 338.488281 75.085938 C 337.804688 75.757812 337.128906 76.449219 336.464844 77.152344 C 336.355469 77.265625 336.242188 77.414062 336.113281 77.558594 C 336.054688 77.621094 336.007812 77.699219 335.949219 77.75 C 335.875 77.695312 335.75 77.609375 335.679688 77.5625 C 335.25 77.273438 334.808594 76.992188 334.382812 76.691406 C 332.890625 75.644531 330.449219 73.75 328.789062 72.308594 L 328.921875 72.207031 C 329.488281 71.757812 330.0625 71.320312 330.644531 70.890625 C 332.203125 69.730469 334.417969 68.082031 336.058594 66.8125 Z M 336.058594 66.8125 " fill-opacity="1" fill-rule="evenodd"/><g clip-path="url(#a5cc14b5af)"><path fill="#000000" d="M 374.800781 72.882812 L 362.925781 69.992188 L 355.773438 72.054688 L 361.972656 75.566406 Z M 374.800781 72.882812 " fill-opacity="1" fill-rule="evenodd"/></g><path fill="#000000" d="M 72.652344 20.109375 C 72.625 20.242188 72.414062 20.121094 72.304688 20.144531 C 72.003906 20.207031 71.710938 20.273438 71.414062 20.347656 C 70.136719 20.660156 68.871094 21.066406 67.621094 21.496094 C 62.601562 23.222656 57.839844 25.746094 53.507812 29.179688 C 42.613281 37.804688 35.453125 52.417969 33.34375 67.421875 C 33.390625 67.445312 33.472656 67.660156 33.503906 67.703125 C 33.664062 67.972656 33.835938 68.226562 34 68.496094 C 34.503906 69.320312 35.074219 70.105469 35.722656 70.785156 C 36.402344 71.5 37.480469 72.457031 38.445312 72.492188 C 39.207031 72.523438 39.988281 71.921875 40.621094 71.515625 C 41.984375 70.652344 43.320312 69.71875 44.585938 68.671875 C 44.546875 68.78125 44.699219 68.277344 44.71875 68.191406 C 44.804688 67.757812 44.902344 67.328125 45.011719 66.898438 C 45.328125 65.5625 45.65625 64.234375 45.984375 62.902344 C 46.984375 58.839844 48.503906 54.824219 50.09375 51.03125 C 54.734375 39.941406 64.222656 27.632812 72.652344 20.109375 Z M 72.652344 20.109375 " fill-opacity="1" fill-rule="evenodd"/><path fill="#000000" d="M 72.652344 137.769531 C 72.625 137.636719 72.414062 137.757812 72.304688 137.734375 C 72.003906 137.671875 71.710938 137.605469 71.414062 137.53125 C 70.136719 137.21875 68.871094 136.8125 67.621094 136.382812 C 62.601562 134.65625 57.839844 132.132812 53.507812 128.699219 C 42.613281 120.074219 35.453125 105.460938 33.34375 90.457031 C 33.390625 90.433594 33.472656 90.21875 33.503906 90.175781 C 33.664062 89.90625 33.835938 89.652344 34 89.382812 C 34.503906 88.558594 35.074219 87.773438 35.722656 87.09375 C 36.402344 86.378906 37.480469 85.421875 38.445312 85.382812 C 39.207031 85.355469 39.988281 85.957031 40.621094 86.363281 C 41.984375 87.226562 43.320312 88.160156 44.585938 89.207031 C 44.546875 89.097656 44.699219 89.601562 44.71875 89.6875 C 44.804688 90.121094 44.902344 90.550781 45.011719 90.980469 C 45.328125 92.316406 45.65625 93.644531 45.984375 94.976562 C 46.984375 99.039062 48.503906 103.054688 50.09375 106.847656 C 54.734375 117.9375 64.222656 130.246094 72.652344 137.769531 Z M 72.652344 137.769531 " fill-opacity="1" fill-rule="evenodd"/><path fill="#000000" d="M 33.945312 54.777344 C 34.007812 54.753906 34.53125 54.554688 34.722656 54.425781 C 34.949219 54.277344 35.070312 54.082031 35.125 53.9375 C 35.203125 53.746094 35.210938 53.554688 35.167969 53.363281 C 35.125 53.203125 35.042969 52.980469 34.792969 52.824219 C 34.742188 52.789062 34.628906 52.738281 34.484375 52.707031 C 34.273438 52.660156 33.871094 52.628906 33.84375 52.625 C 33.082031 52.589844 32.316406 52.65625 31.5625 52.78125 C 28.945312 53.210938 26.351562 54.332031 24.1875 56.097656 C 22.078125 57.8125 20.351562 60.125 19.503906 62.972656 C 19.285156 63.710938 19.109375 64.480469 19.035156 65.257812 C 19.019531 65.425781 19.023438 65.628906 19.023438 65.839844 C 19.019531 65.902344 19.015625 65.992188 19.003906 66.0625 C 18.933594 66.085938 18.828125 66.117188 18.757812 66.132812 C 18.589844 66.164062 18.433594 66.195312 18.3125 66.234375 C 17.511719 66.5 16.757812 66.953125 16.085938 67.53125 C 13.863281 69.441406 12.527344 72.601562 12.066406 75.722656 C 11.984375 75.933594 11.980469 76.167969 12.089844 76.433594 C 12.109375 76.476562 12.179688 76.734375 12.527344 76.871094 C 12.585938 76.890625 12.644531 76.90625 12.707031 76.910156 L 12.777344 76.929688 C 12.929688 76.988281 13.078125 77.039062 13.230469 77.09375 C 13.734375 77.273438 14.242188 77.4375 14.75 77.605469 C 15.625 77.894531 16.503906 78.183594 17.386719 78.457031 L 17.113281 78.578125 C 15.554688 79.265625 14.058594 80.074219 12.546875 80.890625 C 12.199219 81.078125 12.035156 81.550781 12.175781 81.96875 C 13.433594 85.734375 15.402344 89.402344 18.578125 91.390625 C 18.847656 91.554688 19.347656 91.894531 19.554688 92.097656 C 20.539062 93.03125 21.109375 94.273438 21.585938 95.621094 C 22.054688 96.925781 22.488281 98.253906 23.1875 99.417969 C 24.742188 101.992188 27.390625 103.746094 30.039062 104.230469 C 30.882812 104.386719 31.742188 104.414062 32.59375 104.351562 C 32.738281 104.339844 32.949219 104.347656 33.140625 104.320312 C 33.375 104.289062 33.585938 104.210938 33.75 104.089844 C 34.09375 103.839844 34.164062 103.511719 34.128906 103.183594 C 34.109375 103.03125 34.0625 102.855469 33.949219 102.6875 C 33.828125 102.5 33.550781 102.289062 33.484375 102.242188 C 33.042969 101.917969 32.578125 101.632812 32.128906 101.328125 C 31.09375 100.621094 30.089844 99.84375 29.320312 98.761719 C 28.347656 97.402344 27.878906 95.796875 27.839844 94.039062 C 27.820312 93.125 27.910156 92.144531 27.898438 91.183594 C 27.886719 90.066406 27.730469 88.980469 27.230469 88.019531 C 26.351562 86.347656 24.667969 85.429688 23.148438 84.789062 C 23.058594 84.75 22.863281 84.6875 22.660156 84.605469 C 22.863281 84.386719 23.125 84.210938 23.332031 84.042969 C 24.128906 83.402344 24.976562 82.835938 25.832031 82.296875 C 26.578125 81.828125 27.332031 81.375 28.109375 80.976562 C 29.105469 80.460938 30.140625 80.039062 31.167969 79.621094 C 31.289062 79.574219 31.671875 79.355469 31.835938 79.261719 C 31.867188 79.285156 31.898438 79.316406 31.933594 79.34375 C 32.078125 79.464844 32.214844 79.601562 32.335938 79.707031 C 32.902344 80.203125 33.449219 80.734375 33.992188 81.261719 C 34.523438 81.78125 35.050781 82.304688 35.582031 82.828125 C 36.253906 83.488281 36.914062 84.164062 37.566406 84.851562 C 37.726562 85.023438 37.917969 85.277344 38.125 85.472656 C 38.351562 85.683594 38.601562 85.839844 38.851562 85.898438 C 39.097656 85.957031 39.339844 85.914062 39.574219 85.800781 C 39.75 85.71875 39.914062 85.582031 40.058594 85.484375 C 40.503906 85.1875 40.949219 84.898438 41.390625 84.589844 C 43.160156 83.347656 46.246094 80.929688 47.867188 79.429688 C 48.070312 79.242188 48.164062 78.988281 48.140625 78.675781 C 48.132812 78.550781 48.09375 78.363281 47.964844 78.179688 C 47.890625 78.074219 47.71875 77.917969 47.710938 77.910156 C 47.453125 77.671875 47.183594 77.457031 46.914062 77.242188 C 46.332031 76.785156 45.75 76.335938 45.160156 75.898438 C 43.5 74.671875 41.113281 72.894531 39.457031 71.601562 C 39.371094 71.503906 39.234375 71.40625 39.007812 71.390625 C 38.835938 71.375 38.667969 71.4375 38.527344 71.550781 C 38.511719 71.5625 38.492188 71.574219 38.484375 71.582031 C 38.417969 71.632812 38.351562 71.679688 38.285156 71.730469 C 38.09375 71.875 37.914062 72.023438 37.726562 72.171875 C 37.21875 72.578125 36.710938 72.976562 36.203125 73.390625 C 34.785156 74.550781 33.3125 75.675781 31.941406 76.925781 C 31.179688 76.273438 30.296875 75.746094 29.511719 75.171875 C 27.972656 74.042969 26.425781 72.925781 24.882812 71.808594 C 25.429688 71.40625 25.953125 70.9375 26.355469 70.363281 C 26.929688 69.558594 27.191406 68.492188 27.5 67.535156 C 28.023438 65.894531 28.449219 64.214844 28.988281 62.582031 C 29.746094 60.296875 30.757812 57.96875 32.265625 56.222656 C 32.761719 55.648438 33.320312 55.152344 33.945312 54.777344 Z M 31.746094 54.46875 C 29.363281 54.863281 27 55.882812 25.027344 57.488281 C 23.171875 59 21.632812 61.019531 20.886719 63.527344 C 20.699219 64.144531 20.550781 64.785156 20.492188 65.4375 C 20.46875 65.648438 20.492188 65.925781 20.472656 66.179688 C 20.453125 66.496094 20.386719 66.785156 20.261719 67.019531 C 20.132812 67.273438 19.925781 67.476562 19.652344 67.609375 C 19.355469 67.753906 18.949219 67.792969 18.714844 67.871094 C 18.078125 68.078125 17.488281 68.441406 16.957031 68.898438 C 15.167969 70.4375 14.066406 72.933594 13.601562 75.449219 L 13.65625 75.46875 C 14.152344 75.644531 14.652344 75.804688 15.152344 75.96875 C 16.308594 76.355469 17.464844 76.730469 18.632812 77.078125 C 18.800781 77.128906 19.285156 77.191406 19.617188 77.308594 C 19.945312 77.425781 20.175781 77.628906 20.289062 77.808594 C 20.40625 78.003906 20.453125 78.222656 20.410156 78.472656 C 20.390625 78.597656 20.335938 78.804688 20.140625 78.988281 C 20.015625 79.105469 19.253906 79.457031 19.199219 79.480469 C 18.675781 79.707031 18.152344 79.9375 17.628906 80.167969 C 16.328125 80.742188 15.0625 81.410156 13.792969 82.089844 C 14.933594 85.230469 16.613281 88.230469 19.277344 89.894531 C 19.605469 90.101562 20.222656 90.53125 20.484375 90.78125 C 21.660156 91.898438 22.363281 93.359375 22.941406 94.96875 C 23.363281 96.160156 23.742188 97.382812 24.386719 98.445312 C 25.71875 100.648438 27.996094 102.136719 30.265625 102.550781 C 30.574219 102.609375 30.890625 102.644531 31.199219 102.664062 C 30.085938 101.890625 29.03125 101.019531 28.191406 99.851562 C 27.007812 98.191406 26.421875 96.230469 26.378906 94.078125 C 26.355469 93.160156 26.449219 92.171875 26.4375 91.207031 C 26.425781 90.398438 26.347656 89.601562 25.980469 88.90625 C 25.273438 87.558594 23.867188 86.902344 22.652344 86.386719 C 22.417969 86.285156 21.671875 86.03125 21.339844 85.671875 C 20.976562 85.273438 20.859375 84.789062 21.089844 84.238281 C 21.375 83.570312 21.996094 83.050781 22.5 82.644531 C 23.34375 81.96875 24.234375 81.367188 25.136719 80.800781 C 25.914062 80.3125 26.703125 79.839844 27.515625 79.421875 C 28.546875 78.886719 29.617188 78.453125 30.6875 78.015625 C 30.699219 78.011719 30.707031 78.007812 30.722656 78 C 30.078125 77.5 29.367188 77.074219 28.734375 76.609375 C 26.835938 75.21875 24.929688 73.839844 23.015625 72.460938 C 22.8125 72.3125 22.683594 72.054688 22.675781 71.769531 C 22.664062 71.488281 22.777344 71.21875 22.976562 71.050781 C 23.164062 70.894531 23.464844 70.804688 23.675781 70.664062 C 24.234375 70.296875 24.816406 69.867188 25.230469 69.28125 C 25.695312 68.621094 25.878906 67.726562 26.128906 66.9375 C 26.65625 65.296875 27.082031 63.609375 27.625 61.972656 C 28.453125 59.46875 29.582031 56.929688 31.230469 55.019531 C 31.394531 54.828125 31.570312 54.644531 31.746094 54.46875 Z M 38.953125 73.253906 C 38.820312 73.359375 38.6875 73.46875 38.554688 73.574219 C 38.050781 73.976562 37.542969 74.371094 37.046875 74.78125 C 35.691406 75.886719 34.289062 76.957031 32.980469 78.140625 C 33.0625 78.214844 33.144531 78.285156 33.214844 78.351562 C 33.804688 78.863281 34.367188 79.414062 34.929688 79.960938 C 35.464844 80.480469 35.996094 81.003906 36.527344 81.527344 C 37.210938 82.203125 37.886719 82.894531 38.550781 83.597656 C 38.65625 83.710938 38.773438 83.859375 38.902344 84 C 38.960938 84.066406 39.007812 84.144531 39.066406 84.191406 C 39.140625 84.140625 39.265625 84.050781 39.335938 84.007812 C 39.765625 83.71875 40.207031 83.433594 40.632812 83.132812 C 42.121094 82.089844 44.566406 80.195312 46.226562 78.753906 L 46.09375 78.652344 C 45.523438 78.203125 44.953125 77.761719 44.371094 77.332031 C 42.808594 76.175781 40.597656 74.527344 38.953125 73.253906 Z M 38.953125 73.253906 " fill-opacity="1" fill-rule="evenodd"/><g clip-path="url(#fda19d1e7c)"><path fill="#000000" d="M 0.214844 79.328125 L 12.089844 76.433594 L 19.242188 78.5 L 13.042969 82.007812 Z M 0.214844 79.328125 " fill-opacity="1" fill-rule="evenodd"/></g><path fill="#000000" d="M 177.917969 110.050781 C 177.269531 109.695312 177.285156 108.960938 177.472656 108.316406 C 177.851562 107 178.886719 105.796875 180.0625 104.984375 C 182.503906 103.300781 184.992188 106.085938 186.554688 107.59375 C 186.988281 108.011719 187.414062 108.445312 187.820312 108.886719 C 187.984375 109.0625 188.238281 109.277344 188.28125 109.515625 C 188.351562 109.910156 188.148438 110.363281 188.011719 110.734375 C 187.921875 110.980469 187.820312 111.222656 187.710938 111.464844 C 187.585938 111.746094 187.378906 112.234375 187.0625 112.394531 C 186.871094 112.488281 186.515625 112.386719 186.316406 112.378906 C 185.71875 112.351562 185.125 112.347656 184.527344 112.367188 C 184.019531 112.386719 183.519531 112.421875 183.015625 112.480469 C 180.660156 112.753906 176.8125 113.59375 176.90625 116.386719 C 176.867188 116.390625 176.914062 116.621094 176.914062 116.644531 C 176.960938 116.960938 177.015625 117.277344 177.078125 117.59375 C 177.339844 118.953125 177.722656 120.292969 178.109375 121.628906 C 179.480469 126.371094 180.898438 131.257812 180.738281 136.207031 C 180.699219 137.410156 180.527344 138.632812 180.082031 139.769531 C 179.972656 140.050781 179.765625 140.738281 179.355469 140.789062 C 179.101562 140.816406 179.203125 140.3125 179.21875 140.207031 C 179.332031 139.484375 179.527344 138.777344 179.585938 138.046875 C 179.730469 136.3125 179.550781 134.511719 179.214844 132.804688 C 178.683594 130.109375 177.980469 127.40625 177.195312 124.765625 C 176.703125 123.09375 176.265625 121.429688 175.902344 119.730469 C 175.71875 118.871094 175.488281 118.019531 175.40625 117.144531 C 175.234375 115.265625 175.691406 112.957031 177.082031 111.617188 C 177.773438 110.953125 178.6875 110.457031 179.613281 110.105469 C 180.46875 109.78125 181.417969 109.660156 182.332031 109.523438 C 182.542969 109.492188 182.753906 109.464844 182.96875 109.445312 C 182.992188 109.441406 183.167969 109.449219 183.175781 109.417969 C 183.21875 109.277344 182.808594 108.925781 182.722656 108.839844 C 182.175781 108.261719 181.359375 107.820312 180.496094 107.90625 C 179.703125 107.988281 178.921875 108.488281 178.515625 109.109375 C 178.328125 109.390625 178.117188 109.777344 177.917969 110.050781 Z M 177.917969 110.050781 " fill-opacity="1" fill-rule="evenodd"/><path fill="#000000" d="M 116.003906 74.980469 C 116.054688 74.996094 115.90625 76.636719 115.902344 76.765625 C 115.8125 78.367188 115.644531 79.972656 115.46875 81.566406 C 115.445312 81.804688 115.457031 82.820312 115.078125 82.882812 C 114.628906 82.953125 113.851562 82.023438 113.5625 81.773438 C 112.371094 80.757812 111.097656 79.664062 109.667969 79 C 105.757812 77.191406 101.441406 79.21875 98.152344 81.425781 C 95.824219 82.988281 93.714844 84.898438 91.804688 86.9375 C 90.410156 88.429688 89.109375 90.003906 87.828125 91.585938 C 86.910156 92.714844 86.007812 93.863281 85.097656 95.003906 C 81.242188 99.855469 76.15625 108.246094 68.757812 105.492188 C 67.789062 105.128906 66.875 104.628906 66.082031 103.964844 C 65.011719 103.078125 64.1875 101.90625 63.601562 100.652344 C 60.847656 94.761719 63.742188 86.972656 66.261719 81.472656 C 66.910156 80.058594 67.644531 78.660156 68.476562 77.339844 C 68.578125 77.179688 69.082031 76.238281 69.316406 76.25 C 69.421875 76.261719 69.234375 76.84375 69.222656 76.871094 C 68.964844 77.660156 68.601562 78.417969 68.289062 79.179688 C 67.492188 81.136719 66.695312 83.09375 66.054688 85.105469 C 65.753906 86.058594 65.496094 87.015625 65.261719 87.980469 C 65.042969 88.894531 64.84375 89.820312 64.71875 90.753906 C 64.175781 94.835938 64.667969 101.867188 70.40625 101.214844 C 76.113281 100.570312 79.976562 94.96875 83.195312 90.792969 C 88.433594 84.003906 93.957031 76.765625 102.0625 73.234375 C 102.917969 72.855469 103.796875 72.550781 104.699219 72.304688 C 108.527344 71.296875 114.148438 71.015625 116.003906 74.980469 Z M 116.003906 74.980469 " fill-opacity="1" fill-rule="evenodd"/><path fill="#000000" d="M 167.832031 22.835938 C 167.75 22.6875 168.558594 21.804688 168.640625 21.695312 C 169.375 20.75 170.050781 19.75 170.828125 18.839844 C 171.050781 18.574219 171.492188 18.003906 171.828125 18.457031 C 172.671875 19.605469 173.09375 21.265625 173.636719 22.5625 C 174.640625 24.953125 175.6875 27.324219 176.726562 29.699219 C 177.222656 30.839844 177.738281 31.984375 178.15625 33.160156 C 178.253906 33.4375 178.535156 34.070312 178.285156 34.347656 C 178.019531 34.636719 177.460938 34.261719 177.226562 34.113281 C 176.375 33.585938 175.679688 32.96875 174.949219 32.296875 C 174.890625 32.238281 174.546875 32.023438 174.492188 32.121094 C 174.347656 32.398438 174.464844 32.957031 174.480469 33.253906 C 174.558594 34.734375 174.757812 36.1875 174.980469 37.65625 C 175.5625 41.550781 176.195312 45.445312 176.878906 49.328125 C 178.894531 60.769531 181.480469 72.488281 181.125 84.171875 C 181.09375 85.1875 181.136719 86.4375 180.976562 87.410156 C 180.289062 91.558594 177.445312 95.320312 173.527344 96.941406 C 172.378906 97.414062 171.175781 97.546875 169.953125 97.667969 C 169.578125 97.703125 168.640625 97.597656 168.355469 97.898438 C 168.078125 98.195312 168.980469 99.347656 169.128906 99.570312 C 170.03125 100.949219 170.898438 102.441406 171.21875 104.078125 C 171.269531 104.332031 171.535156 105.570312 171.164062 105.738281 C 170.261719 106.164062 168.785156 105.996094 167.851562 105.871094 C 162.988281 105.230469 159.847656 99.730469 159.304688 95.242188 C 159.238281 95.207031 158.59375 96.390625 158.519531 96.5 C 157.996094 97.292969 157.425781 98.039062 156.847656 98.785156 C 155.042969 101.121094 152.90625 102.769531 149.890625 103.125 C 145.246094 103.683594 140.644531 100.855469 137.714844 97.460938 C 136.265625 95.78125 134.976562 93.554688 135.261719 91.25 C 135.285156 91.074219 135.039062 91.527344 134.925781 91.667969 C 134.675781 91.984375 134.425781 92.296875 134.167969 92.605469 C 133.488281 93.414062 132.785156 94.214844 132.078125 95.003906 C 130.019531 97.316406 127.878906 99.542969 125.59375 101.628906 C 124.324219 102.789062 123.027344 103.914062 121.691406 104.988281 C 120.566406 105.898438 119.417969 106.773438 118.214844 107.585938 C 112.570312 111.363281 102.363281 116.132812 97.277344 108.863281 C 94.097656 104.320312 95.335938 97.9375 97.445312 93.242188 C 98.019531 91.960938 98.601562 90.660156 99.355469 89.46875 C 99.457031 89.304688 100.027344 88.269531 100.316406 88.394531 C 100.539062 88.488281 100.441406 89.101562 100.429688 89.261719 C 100.363281 90.390625 100.214844 91.523438 100.121094 92.652344 C 99.808594 96.332031 98.640625 102.320312 101.359375 105.390625 C 103.9375 108.296875 108.859375 106.941406 111.929688 105.722656 C 116.996094 103.710938 121.375 100.257812 125.433594 96.691406 C 128.367188 94.113281 131.28125 91.421875 133.78125 88.417969 C 135.726562 86.074219 134.460938 82.871094 133.773438 80.179688 C 133.136719 77.675781 132.199219 75.269531 131.132812 72.925781 C 129.75 69.882812 128.15625 66.949219 126.445312 64.078125 C 125.828125 63.050781 124.367188 61.566406 124.175781 60.332031 C 123.964844 59.003906 124.683594 57.300781 125.035156 56.054688 C 125.292969 55.121094 125.480469 53.121094 126.21875 52.433594 C 126.640625 52.042969 127.582031 53.917969 127.726562 54.136719 C 129.226562 56.414062 130.496094 58.863281 131.683594 61.316406 C 134.785156 67.730469 135.945312 75.15625 137.613281 82.035156 C 138.515625 85.753906 139.308594 90.03125 141.898438 93.023438 C 145.921875 97.660156 153.140625 95.964844 156.828125 91.878906 C 157.777344 90.832031 158.550781 89.640625 159.195312 88.386719 C 159.289062 88.199219 159.675781 87.09375 159.9375 87.074219 C 160.179688 87.058594 160.707031 87.933594 160.871094 88.085938 C 161.738281 88.925781 162.789062 89.550781 163.929688 89.925781 C 168.875 91.539062 178.257812 90.949219 178.257812 84.140625 C 178.457031 83.980469 178.308594 83.347656 178.292969 83.140625 C 178.222656 82.277344 178.125 81.414062 178.035156 80.550781 C 177.628906 76.652344 176.914062 72.804688 176.238281 68.941406 C 174.628906 59.761719 172.582031 50.640625 171.28125 41.410156 C 170.847656 38.328125 170.496094 35.234375 170.144531 32.144531 C 169.945312 30.371094 169.941406 28.355469 169.363281 26.644531 C 169.042969 25.699219 168.332031 23.695312 167.832031 22.835938 Z M 167.832031 22.835938 " fill-opacity="1" fill-rule="evenodd"/><path fill="#000000" d="M 188.707031 26.894531 C 188.707031 26.894531 188.664062 26.824219 188.664062 26.820312 C 188.628906 26.765625 188.601562 26.710938 188.566406 26.65625 C 188.46875 26.5 188.363281 26.34375 188.265625 26.1875 C 187.992188 25.75 187.457031 25.125 187.574219 24.613281 C 187.730469 23.949219 188.207031 23.265625 188.558594 22.652344 C 189.1875 21.546875 189.84375 20.441406 190.410156 19.316406 C 190.390625 19.363281 190.976562 20.101562 191.023438 20.183594 C 191.578125 21.128906 192.058594 22.101562 192.554688 23.066406 C 193.539062 24.992188 194.363281 26.957031 195.238281 28.910156 C 195.933594 30.457031 196.726562 31.976562 197.292969 33.554688 C 197.582031 34.363281 197.765625 35.1875 197.71875 36.03125 C 197.710938 36.199219 197.738281 36.710938 197.441406 36.761719 C 197.039062 36.828125 196.53125 36.097656 196.34375 35.910156 C 195.429688 35 194.601562 34.050781 193.636719 33.171875 C 193.558594 33.375 193.785156 33.824219 193.820312 34.027344 C 193.945312 34.738281 194.023438 35.453125 194.121094 36.164062 C 194.445312 38.617188 194.691406 41.074219 194.929688 43.535156 C 195.535156 49.765625 196.308594 55.996094 197.210938 62.203125 C 197.644531 65.203125 198.296875 68.179688 198.640625 71.1875 C 198.566406 71.207031 198.632812 71.535156 198.632812 71.566406 C 198.660156 72.03125 198.683594 72.496094 198.707031 72.960938 C 198.804688 74.800781 198.988281 76.636719 199.101562 78.476562 C 199.457031 84.222656 200.691406 90.425781 198.015625 95.957031 C 197.464844 97.09375 196.792969 98.203125 196.128906 99.304688 C 195.929688 99.632812 195.703125 100.265625 195.257812 100.460938 C 194.882812 100.625 194.894531 99.4375 194.894531 99.34375 C 194.851562 98.039062 194.84375 96.734375 194.820312 95.433594 C 194.761719 92.269531 194.640625 89.109375 194.546875 85.945312 C 194.445312 82.453125 194.207031 78.972656 193.890625 75.484375 C 194 75.632812 193.84375 75.144531 193.820312 74.972656 C 193.765625 74.605469 193.726562 74.234375 193.679688 73.863281 C 193.535156 72.675781 193.378906 71.488281 193.230469 70.300781 C 192.824219 66.953125 192.410156 63.605469 191.996094 60.253906 C 190.71875 49.945312 189.074219 37.171875 188.707031 26.894531 Z M 188.707031 26.894531 " fill-opacity="1" fill-rule="evenodd"/><path fill="#000000" d="M 128.117188 37.3125 C 128.042969 37.195312 128.246094 36.835938 128.289062 36.730469 C 128.507812 36.1875 128.765625 35.660156 129.101562 35.164062 C 129.140625 35.109375 129.523438 34.511719 129.648438 34.644531 C 129.8125 34.824219 129.765625 35.261719 129.796875 35.476562 C 129.878906 36.074219 130.011719 36.65625 130.183594 37.242188 C 130.503906 38.335938 131.125 39.335938 131.460938 40.414062 C 131.820312 41.574219 131.769531 42.964844 131.285156 44.089844 C 130.820312 45.167969 129.878906 46.261719 128.355469 46.074219 C 127.191406 45.929688 126.179688 45.074219 125.632812 44.226562 C 125.441406 43.929688 125.296875 43.605469 125.1875 43.277344 C 125.175781 43.246094 125.132812 42.984375 125.09375 42.976562 C 125.082031 42.972656 125.054688 43.230469 125.054688 43.242188 C 125.039062 43.449219 125.027344 43.652344 125 43.859375 C 124.925781 44.417969 124.8125 44.996094 124.457031 45.480469 C 123.640625 46.597656 121.851562 46.941406 120.585938 46.183594 C 119.863281 45.746094 119.578125 45.035156 119.488281 44.3125 C 119.328125 43.03125 119.703125 41.765625 119.667969 40.488281 C 119.65625 40.117188 119.625 39.726562 119.480469 39.371094 C 119.355469 39.066406 119.109375 38.875 119.136719 38.527344 C 119.1875 37.921875 119.527344 37.335938 119.847656 36.804688 C 119.929688 36.671875 120.085938 36.347656 120.300781 36.335938 C 120.519531 36.328125 120.621094 36.671875 120.664062 36.796875 C 120.832031 37.3125 120.90625 37.847656 120.933594 38.378906 C 121.011719 39.816406 120.625 41.265625 120.800781 42.695312 C 120.894531 43.421875 121.3125 44.113281 122.230469 44.238281 C 123.539062 44.417969 124.257812 43.023438 124.546875 42.171875 C 124.863281 41.242188 124.757812 40.222656 124.40625 39.3125 C 124.050781 38.386719 123.46875 37.730469 123.773438 36.722656 C 123.914062 36.257812 124.105469 35.800781 124.382812 35.378906 C 124.460938 35.253906 124.582031 35.042969 124.753906 34.988281 C 124.980469 34.917969 125.1875 35.351562 125.253906 35.46875 C 125.585938 36.050781 125.761719 36.707031 125.957031 37.324219 C 126.082031 37.71875 126.164062 38.121094 126.21875 38.523438 C 126.445312 40.140625 126.476562 42.933594 128.945312 43.316406 C 129.839844 43.457031 130.328125 42.679688 130.148438 42.039062 C 129.699219 40.429688 128.613281 38.714844 128.117188 37.3125 Z M 128.117188 37.3125 " fill-opacity="1" fill-rule="evenodd"/><g clip-path="url(#baaa64f54a)"><path fill="#000000" d="M 248 19.730469 C 248.0625 19.714844 247.976562 19.851562 247.960938 19.910156 C 247.9375 20.027344 247.914062 20.140625 247.882812 20.257812 C 247.824219 20.464844 247.65625 21.363281 247.296875 21.265625 C 247.113281 21.214844 246.949219 21.015625 246.828125 20.886719 C 246.527344 20.578125 246.242188 20.25 245.941406 19.941406 C 245.421875 19.398438 244.816406 18.921875 244.179688 18.515625 C 243.839844 18.296875 243.328125 18.117188 243.09375 17.777344 C 242.734375 17.257812 242.945312 16.371094 242.984375 15.792969 C 243.082031 14.238281 243.164062 11.539062 245.269531 11.355469 C 246.761719 11.226562 247.84375 12.402344 248.707031 13.433594 C 250.78125 15.914062 252.246094 19.058594 253.222656 22.101562 C 253.601562 23.277344 253.957031 24.457031 254.292969 25.644531 C 254.363281 25.894531 254.421875 26.15625 254.507812 26.402344 C 254.527344 26.453125 254.570312 26.597656 254.65625 26.582031 C 254.84375 26.546875 254.90625 25.984375 254.933594 25.855469 C 255.109375 25.070312 255.335938 24.292969 255.46875 23.5 C 256.144531 19.394531 256.8125 16.792969 257.894531 13.675781 C 258.023438 13.300781 258.1875 12.800781 258.347656 12.449219 C 258.789062 11.476562 259.375 10.519531 260.207031 9.816406 C 260.570312 9.515625 261.011719 9.230469 261.5 9.195312 C 262.058594 9.160156 262.574219 9.417969 263.015625 9.726562 C 263.960938 10.378906 264.699219 11.3125 265.097656 12.371094 C 265.21875 12.695312 265.382812 13.054688 265.355469 13.40625 C 265.308594 14.082031 265.046875 14.753906 264.847656 15.398438 C 264.726562 15.804688 264.597656 16.214844 264.464844 16.617188 C 264.324219 17.058594 264.179688 17.5 264.007812 17.929688 C 263.976562 18.015625 263.910156 18.261719 263.792969 18.285156 C 263.695312 18.296875 263.613281 18.152344 263.574219 18.089844 C 263.394531 17.816406 263.242188 17.519531 263.078125 17.234375 C 262.519531 16.253906 261.339844 14.289062 259.953125 15.199219 C 258.769531 15.980469 258.1875 17.757812 257.761719 19.007812 C 256.703125 22.097656 256.132812 25.371094 255.714844 28.597656 C 255.707031 28.546875 255.6875 28.695312 255.675781 28.742188 C 255.648438 28.851562 255.617188 28.957031 255.589844 29.066406 C 255.496094 29.410156 255.398438 29.753906 255.296875 30.097656 C 254.925781 31.320312 254.511719 32.523438 253.84375 33.625 C 253.6875 33.890625 253.519531 34.148438 253.316406 34.378906 C 253.285156 34.414062 253.132812 34.617188 253.070312 34.566406 C 252.875 34.417969 252.945312 33.621094 252.929688 33.410156 C 252.847656 32.320312 252.722656 31.222656 252.519531 30.148438 C 251.882812 26.75 249.949219 22.617188 248 19.730469 Z M 248 19.730469 " fill-opacity="1" fill-rule="evenodd"/></g><path fill="#000000" d="M 140.21875 41.636719 C 140.277344 41.625 140.195312 41.746094 140.183594 41.800781 C 140.160156 41.902344 140.136719 42.003906 140.109375 42.105469 C 140.054688 42.292969 139.902344 43.089844 139.570312 43.003906 C 139.402344 42.957031 139.25 42.777344 139.140625 42.667969 C 138.863281 42.390625 138.601562 42.101562 138.324219 41.824219 C 137.84375 41.34375 137.289062 40.917969 136.703125 40.558594 C 136.390625 40.363281 135.921875 40.203125 135.707031 39.902344 C 135.375 39.4375 135.570312 38.648438 135.601562 38.136719 C 135.695312 36.753906 135.769531 34.351562 137.707031 34.1875 C 139.078125 34.074219 140.074219 35.121094 140.867188 36.039062 C 142.777344 38.246094 144.125 41.039062 145.019531 43.746094 C 145.367188 44.792969 145.695312 45.839844 146.003906 46.898438 C 146.070312 47.121094 146.121094 47.351562 146.203125 47.570312 C 146.222656 47.617188 146.261719 47.742188 146.339844 47.730469 C 146.511719 47.699219 146.566406 47.199219 146.59375 47.085938 C 146.753906 46.386719 146.964844 45.695312 147.085938 44.992188 C 147.707031 41.339844 148.320312 39.023438 149.316406 36.253906 C 149.433594 35.917969 149.585938 35.476562 149.730469 35.164062 C 150.140625 34.296875 150.675781 33.445312 151.445312 32.820312 C 151.773438 32.550781 152.183594 32.296875 152.632812 32.269531 C 153.144531 32.238281 153.617188 32.464844 154.027344 32.738281 C 154.894531 33.320312 155.574219 34.152344 155.9375 35.09375 C 156.050781 35.382812 156.199219 35.699219 156.179688 36.011719 C 156.132812 36.613281 155.890625 37.210938 155.710938 37.785156 C 155.597656 38.148438 155.480469 38.511719 155.359375 38.871094 C 155.226562 39.261719 155.09375 39.652344 154.9375 40.035156 C 154.90625 40.113281 154.847656 40.332031 154.738281 40.351562 C 154.652344 40.363281 154.574219 40.234375 154.539062 40.179688 C 154.371094 39.933594 154.234375 39.671875 154.085938 39.417969 C 153.570312 38.546875 152.484375 36.800781 151.210938 37.609375 C 150.121094 38.300781 149.585938 39.886719 149.191406 40.996094 C 148.21875 43.742188 147.695312 46.65625 147.3125 49.523438 C 147.304688 49.480469 147.289062 49.609375 147.277344 49.652344 C 147.25 49.75 147.222656 49.84375 147.195312 49.941406 C 147.109375 50.246094 147.019531 50.554688 146.925781 50.859375 C 146.585938 51.945312 146.207031 53.015625 145.59375 53.996094 C 145.445312 54.230469 145.292969 54.460938 145.105469 54.667969 C 145.078125 54.699219 144.9375 54.875 144.878906 54.832031 C 144.699219 54.703125 144.765625 53.992188 144.75 53.804688 C 144.675781 52.835938 144.558594 51.859375 144.375 50.902344 C 143.789062 47.882812 142.007812 44.203125 140.21875 41.636719 Z M 140.21875 41.636719 " fill-opacity="1" fill-rule="evenodd"/><path fill="#000000" d="M 251.402344 60.371094 C 251.464844 60.359375 251.375 60.496094 251.363281 60.554688 C 251.339844 60.671875 251.316406 60.785156 251.285156 60.902344 C 251.226562 61.109375 251.058594 62.007812 250.695312 61.910156 C 250.515625 61.859375 250.351562 61.65625 250.226562 61.53125 C 249.929688 61.21875 249.644531 60.894531 249.34375 60.582031 C 248.820312 60.042969 248.21875 59.5625 247.578125 59.160156 C 247.238281 58.941406 246.730469 58.761719 246.496094 58.421875 C 246.136719 57.902344 246.347656 57.015625 246.382812 56.4375 C 246.480469 54.882812 246.566406 52.179688 248.671875 52 C 250.164062 51.867188 251.246094 53.046875 252.105469 54.078125 C 254.183594 56.558594 255.648438 59.699219 256.625 62.746094 C 257 63.921875 257.355469 65.101562 257.691406 66.289062 C 257.765625 66.539062 257.820312 66.796875 257.910156 67.042969 C 257.929688 67.097656 257.972656 67.238281 258.058594 67.222656 C 258.246094 67.191406 258.304688 66.625 258.335938 66.5 C 258.507812 65.714844 258.738281 64.9375 258.867188 64.144531 C 259.546875 60.039062 260.210938 57.4375 261.292969 54.320312 C 261.425781 53.945312 261.589844 53.445312 261.746094 53.09375 C 262.191406 52.121094 262.773438 51.164062 263.609375 50.460938 C 263.96875 50.15625 264.414062 49.871094 264.898438 49.839844 C 265.457031 49.804688 265.972656 50.058594 266.417969 50.367188 C 267.363281 51.023438 268.101562 51.957031 268.496094 53.015625 C 268.617188 53.339844 268.78125 53.695312 268.757812 54.046875 C 268.707031 54.726562 268.445312 55.398438 268.25 56.042969 C 268.125 56.449219 268 56.855469 267.867188 57.261719 C 267.722656 57.699219 267.578125 58.140625 267.410156 58.574219 C 267.375 58.660156 267.3125 58.90625 267.191406 58.925781 C 267.097656 58.941406 267.011719 58.792969 266.972656 58.734375 C 266.792969 58.460938 266.644531 58.164062 266.480469 57.878906 C 265.921875 56.898438 264.742188 54.933594 263.355469 55.84375 C 262.167969 56.621094 261.589844 58.402344 261.160156 59.652344 C 260.101562 62.738281 259.535156 66.015625 259.113281 69.238281 C 259.105469 69.191406 259.089844 69.335938 259.078125 69.386719 C 259.046875 69.492188 259.019531 69.601562 258.988281 69.710938 C 258.894531 70.054688 258.796875 70.398438 258.695312 70.742188 C 258.328125 71.964844 257.914062 73.167969 257.246094 74.269531 C 257.089844 74.53125 256.921875 74.792969 256.714844 75.023438 C 256.6875 75.058594 256.535156 75.257812 256.472656 75.210938 C 256.273438 75.0625 256.347656 74.261719 256.332031 74.054688 C 256.25 72.964844 256.125 71.867188 255.921875 70.792969 C 255.285156 67.394531 253.347656 63.257812 251.402344 60.371094 Z M 251.402344 60.371094 " fill-opacity="1" fill-rule="evenodd"/><path fill="#000000" d="M 240.003906 47.53125 C 239.996094 47.515625 241.214844 46.828125 241.300781 46.777344 C 242.207031 46.257812 243.113281 45.742188 244.019531 45.226562 C 246.859375 43.617188 249.738281 42.101562 252.617188 40.617188 C 257.640625 38.03125 262.839844 35.890625 268.050781 33.953125 C 269.347656 33.472656 270.640625 32.988281 271.941406 32.535156 C 272.140625 32.46875 272.925781 32.09375 273.082031 32.445312 C 273.292969 32.929688 272.421875 34.21875 272.238281 34.605469 C 271.9375 35.238281 271.683594 36.1875 271.257812 36.699219 C 270.757812 37.300781 269.972656 37.523438 269.328125 37.769531 C 268.242188 38.1875 267.15625 38.601562 266.074219 39.039062 C 259.0625 41.859375 252.320312 45.328125 245.570312 48.96875 C 243.867188 49.886719 242.160156 50.894531 240.398438 51.632812 C 240.152344 51.738281 239.058594 52.332031 238.828125 52.015625 C 238.515625 51.59375 239.867188 47.949219 240.003906 47.53125 Z M 240.003906 47.53125 " fill-opacity="1" fill-rule="evenodd"/><path fill="#000000" d="M 104.691406 93.097656 C 104.683594 93.085938 105.660156 92.539062 105.730469 92.5 C 106.457031 92.085938 107.183594 91.675781 107.910156 91.269531 C 110.183594 89.988281 112.492188 88.785156 114.800781 87.605469 C 118.828125 85.550781 122.992188 83.851562 127.167969 82.316406 C 128.207031 81.933594 129.242188 81.550781 130.289062 81.191406 C 130.449219 81.136719 131.074219 80.839844 131.199219 81.121094 C 131.371094 81.503906 130.671875 82.53125 130.527344 82.835938 C 130.285156 83.339844 130.082031 84.09375 129.742188 84.503906 C 129.339844 84.980469 128.710938 85.15625 128.195312 85.351562 C 127.324219 85.683594 126.453125 86.015625 125.585938 86.359375 C 119.96875 88.601562 114.5625 91.355469 109.152344 94.246094 C 107.789062 94.976562 106.421875 95.773438 105.007812 96.363281 C 104.8125 96.441406 103.9375 96.914062 103.75 96.664062 C 103.5 96.328125 104.582031 93.429688 104.691406 93.097656 Z M 104.691406 93.097656 " fill-opacity="1" fill-rule="evenodd"/><path fill="#000000" d="M 103.1875 34.550781 C 103.179688 34.53125 104.398438 33.84375 104.484375 33.796875 C 105.390625 33.277344 106.296875 32.761719 107.203125 32.246094 C 110.042969 30.636719 112.921875 29.121094 115.800781 27.636719 C 120.828125 25.046875 126.027344 22.910156 131.234375 20.972656 C 132.53125 20.492188 133.824219 20.003906 135.125 19.554688 C 135.324219 19.484375 136.109375 19.109375 136.265625 19.464844 C 136.476562 19.945312 135.605469 21.238281 135.421875 21.625 C 135.121094 22.257812 134.867188 23.207031 134.441406 23.71875 C 133.941406 24.316406 133.15625 24.542969 132.515625 24.789062 C 131.425781 25.207031 130.339844 25.621094 129.257812 26.058594 C 122.246094 28.878906 115.503906 32.347656 108.753906 35.988281 C 107.050781 36.90625 105.34375 37.914062 103.582031 38.652344 C 103.339844 38.753906 102.246094 39.347656 102.011719 39.03125 C 101.703125 38.609375 103.050781 34.964844 103.1875 34.550781 Z M 103.1875 34.550781 " fill-opacity="1" fill-rule="evenodd"/><path fill="#000000" d="M 279.648438 42.046875 C 279.53125 41.730469 279.890625 40.914062 279.96875 40.628906 C 280.367188 39.230469 280.84375 37.871094 281.425781 36.570312 C 282.082031 35.117188 282.832031 33.722656 283.652344 32.398438 C 284.101562 31.675781 284.578125 30.875 285.222656 30.382812 C 286.320312 29.539062 287.816406 29.660156 289.058594 29.710938 C 291.574219 29.808594 294.085938 30.121094 296.574219 30.574219 C 298.179688 30.867188 299.878906 31.191406 301.429688 31.777344 C 301.90625 31.957031 302.695312 32.222656 302.875 32.867188 C 303.085938 33.636719 302.722656 34.601562 302.476562 35.285156 C 301.855469 37.011719 301.035156 38.648438 300.21875 40.246094 C 298.925781 42.777344 297.394531 45.152344 295.761719 47.378906 C 294.59375 48.972656 293.367188 50.601562 291.78125 51.601562 C 289.851562 52.816406 287.589844 53.132812 285.472656 53.570312 C 283.894531 53.894531 282.316406 54.230469 280.730469 54.519531 C 280.351562 54.589844 279.488281 54.902344 279.128906 54.601562 C 278.871094 54.382812 279.824219 53.679688 279.90625 53.613281 C 281.09375 52.675781 282.34375 51.847656 283.574219 50.988281 C 286.523438 48.921875 289.515625 46.933594 292.5 44.933594 C 293.160156 44.488281 293.839844 44.070312 294.472656 43.5625 C 294.597656 43.460938 295.074219 43.15625 294.984375 42.898438 C 294.878906 42.585938 294.253906 42.488281 294.027344 42.414062 C 292.839844 42.019531 291.597656 41.847656 290.375 41.710938 C 289.34375 41.59375 288.3125 41.515625 287.277344 41.46875 C 285.285156 41.382812 281.628906 41.761719 279.648438 42.046875 Z M 279.648438 42.046875 " fill-opacity="1" fill-rule="evenodd"/><path fill="#000000" d="M 68.640625 52.875 C 68.554688 52.671875 68.824219 52.132812 68.886719 51.945312 C 69.1875 51.023438 69.550781 50.128906 69.992188 49.273438 C 70.488281 48.316406 71.0625 47.398438 71.6875 46.527344 C 72.027344 46.050781 72.390625 45.523438 72.878906 45.199219 C 73.714844 44.644531 74.851562 44.726562 75.796875 44.757812 C 77.707031 44.820312 79.621094 45.027344 81.511719 45.328125 C 82.730469 45.519531 84.023438 45.734375 85.203125 46.117188 C 85.566406 46.234375 86.167969 46.410156 86.304688 46.835938 C 86.464844 47.339844 86.1875 47.976562 86 48.429688 C 85.527344 49.5625 84.902344 50.640625 84.28125 51.691406 C 83.300781 53.359375 82.136719 54.921875 80.894531 56.390625 C 80.007812 57.4375 79.070312 58.507812 77.867188 59.167969 C 76.398438 59.96875 74.679688 60.175781 73.070312 60.464844 C 71.867188 60.675781 70.667969 60.898438 69.464844 61.089844 C 69.175781 61.136719 68.519531 61.339844 68.246094 61.140625 C 68.046875 61 68.773438 60.535156 68.835938 60.492188 C 69.738281 59.875 70.691406 59.332031 71.625 58.765625 C 73.867188 57.40625 76.144531 56.09375 78.414062 54.777344 C 78.917969 54.484375 79.433594 54.210938 79.914062 53.875 C 80.007812 53.808594 80.371094 53.605469 80.304688 53.441406 C 80.222656 53.234375 79.746094 53.167969 79.574219 53.121094 C 78.671875 52.859375 77.726562 52.746094 76.796875 52.65625 C 76.015625 52.582031 75.226562 52.527344 74.441406 52.496094 C 72.925781 52.441406 70.148438 52.691406 68.640625 52.875 Z M 68.640625 52.875 " fill-opacity="1" fill-rule="evenodd"/><path fill="#000000" d="M 287.816406 67.570312 C 287.953125 67.226562 288.699219 66.804688 288.957031 66.589844 C 290.050781 65.675781 291.15625 64.777344 292.261719 63.878906 C 296.152344 60.710938 300.144531 57.742188 303.882812 54.339844 C 306.480469 51.972656 309.019531 49.523438 311.40625 46.890625 C 311.992188 46.242188 312.59375 45.59375 313.097656 44.859375 C 313.21875 44.679688 313.578125 44.300781 313.5625 44.042969 C 313.550781 43.878906 313.3125 43.730469 313.214844 43.640625 C 312.808594 43.269531 312.390625 42.917969 311.984375 42.546875 C 310.582031 41.269531 309.519531 39.9375 310.128906 37.8125 C 310.285156 37.265625 310.488281 36.722656 310.742188 36.222656 C 311.8125 34.089844 314.949219 30.363281 317.175781 32.980469 C 318.570312 34.621094 317.632812 38.140625 317.078125 39.960938 C 316.945312 40.394531 316.339844 41.304688 316.359375 41.75 C 316.363281 41.847656 316.691406 42.007812 316.757812 42.054688 C 317.128906 42.332031 317.542969 42.640625 317.816406 43.042969 C 318.554688 44.113281 317.59375 46.003906 316.984375 46.882812 C 316.421875 47.695312 315.609375 46.152344 315.148438 45.667969 C 315.050781 45.5625 314.648438 45.035156 314.5 45.199219 C 313.59375 46.191406 312.921875 47.484375 312.046875 48.519531 C 308.296875 52.96875 304.253906 57.449219 299.582031 60.660156 C 296.875 62.523438 294.105469 64.289062 291.347656 66.058594 C 290.601562 66.535156 289.847656 67.019531 289.074219 67.4375 C 288.804688 67.582031 288.128906 67.625 287.816406 67.570312 Z M 315.425781 40.675781 C 315.390625 40.640625 315.492188 40.320312 315.5 40.273438 C 315.578125 39.855469 315.664062 39.425781 315.6875 38.996094 C 315.742188 37.878906 315.492188 36.542969 314.722656 35.757812 C 313.921875 34.941406 313.007812 35.203125 312.355469 36.085938 C 312.210938 36.277344 311.855469 36.746094 311.917969 37.035156 C 312.011719 37.449219 312.382812 37.898438 312.632812 38.1875 C 313.375 39.035156 314.640625 39.878906 315.425781 40.675781 Z M 315.425781 40.675781 " fill-opacity="1" fill-rule="evenodd"/><path fill="#000000" d="M 135.523438 77.632812 C 135.660156 77.285156 136.40625 76.867188 136.660156 76.652344 C 137.757812 75.738281 138.859375 74.839844 139.964844 73.9375 C 143.859375 70.773438 147.847656 67.804688 151.585938 64.402344 C 154.1875 62.035156 156.726562 59.585938 159.109375 56.953125 C 159.699219 56.304688 160.296875 55.65625 160.800781 54.921875 C 160.925781 54.742188 161.28125 54.359375 161.265625 54.105469 C 161.257812 53.941406 161.019531 53.792969 160.917969 53.699219 C 160.511719 53.332031 160.09375 52.980469 159.6875 52.609375 C 158.285156 51.332031 157.226562 49.996094 157.835938 47.875 C 157.992188 47.324219 158.195312 46.785156 158.445312 46.285156 C 159.519531 44.152344 162.652344 40.425781 164.878906 43.039062 C 166.277344 44.683594 165.339844 48.199219 164.78125 50.019531 C 164.648438 50.457031 164.046875 51.367188 164.0625 51.8125 C 164.066406 51.910156 164.398438 52.070312 164.460938 52.117188 C 164.835938 52.390625 165.246094 52.703125 165.523438 53.101562 C 166.261719 54.175781 165.300781 56.066406 164.691406 56.945312 C 164.128906 57.757812 163.316406 56.210938 162.855469 55.726562 C 162.757812 55.625 162.351562 55.097656 162.203125 55.261719 C 161.296875 56.253906 160.625 57.542969 159.753906 58.582031 C 156 63.027344 151.960938 67.507812 147.285156 70.722656 C 144.578125 72.582031 141.8125 74.351562 139.054688 76.121094 C 138.308594 76.597656 137.554688 77.082031 136.777344 77.5 C 136.511719 77.644531 135.835938 77.6875 135.523438 77.632812 Z M 163.128906 50.738281 C 163.097656 50.703125 163.195312 50.378906 163.207031 50.332031 C 163.285156 49.914062 163.371094 49.488281 163.390625 49.058594 C 163.445312 47.941406 163.199219 46.605469 162.429688 45.820312 C 161.628906 45.003906 160.714844 45.261719 160.058594 46.148438 C 159.917969 46.339844 159.5625 46.808594 159.625 47.097656 C 159.714844 47.511719 160.089844 47.960938 160.339844 48.25 C 161.082031 49.097656 162.347656 49.941406 163.128906 50.738281 Z M 163.128906 50.738281 " fill-opacity="1" fill-rule="evenodd"/><path fill="#000000" d="M 220.976562 93.296875 C 220.960938 93.214844 220.898438 93.441406 220.867188 93.515625 C 220.800781 93.660156 220.734375 93.804688 220.667969 93.949219 C 220.460938 94.417969 220.246094 94.886719 220.035156 95.355469 C 219.460938 96.628906 218.894531 97.90625 218.355469 99.199219 C 216.808594 102.886719 215.109375 107.148438 215.476562 111.355469 C 215.59375 112.726562 215.976562 115.046875 217.386719 115.398438 C 219.28125 115.875 220.566406 113.058594 221.175781 111.460938 C 221.332031 111.054688 221.46875 110.636719 221.582031 110.214844 C 221.746094 109.621094 221.976562 108.726562 221.839844 108.09375 C 221.730469 107.597656 221.265625 108.292969 221.167969 108.433594 C 220.710938 109.078125 220.359375 110.214844 219.707031 110.617188 C 218.894531 111.125 218.144531 109.675781 217.910156 109.011719 C 216.59375 105.308594 218.738281 101.558594 220.035156 98.300781 C 220.53125 97.046875 221.242188 94.75 220.976562 93.296875 Z M 220.976562 93.296875 " fill-opacity="1" fill-rule="evenodd"/><path fill="#000000" d="M 168.886719 60.597656 C 168.871094 60.515625 168.808594 60.742188 168.777344 60.8125 C 168.710938 60.957031 168.644531 61.105469 168.582031 61.246094 C 168.371094 61.71875 168.15625 62.183594 167.945312 62.652344 C 167.375 63.929688 166.804688 65.207031 166.265625 66.5 C 164.71875 70.183594 163.019531 74.445312 163.386719 78.65625 C 163.503906 80.023438 163.886719 82.34375 165.296875 82.695312 C 167.191406 83.171875 168.476562 80.355469 169.085938 78.757812 C 169.242188 78.355469 169.378906 77.9375 169.496094 77.511719 C 169.65625 76.921875 169.890625 76.023438 169.75 75.390625 C 169.640625 74.898438 169.175781 75.59375 169.078125 75.730469 C 168.621094 76.378906 168.269531 77.511719 167.621094 77.917969 C 166.804688 78.421875 166.054688 76.976562 165.820312 76.3125 C 164.503906 72.609375 166.648438 68.859375 167.945312 65.597656 C 168.441406 64.34375 169.15625 62.046875 168.886719 60.597656 Z M 168.886719 60.597656 " fill-opacity="1" fill-rule="evenodd"/><path fill="#000000" d="M 66.824219 53.003906 C 66.800781 52.898438 66.707031 53.183594 66.65625 53.277344 C 66.554688 53.460938 66.457031 53.644531 66.359375 53.828125 C 66.039062 54.421875 65.710938 55.011719 65.390625 55.601562 C 64.515625 57.214844 63.652344 58.828125 62.824219 60.464844 C 60.464844 65.121094 57.875 70.507812 58.429688 75.828125 C 58.609375 77.558594 59.195312 80.488281 61.347656 80.933594 C 64.238281 81.535156 66.203125 77.976562 67.132812 75.957031 C 67.367188 75.445312 67.578125 74.917969 67.753906 74.382812 C 68 73.636719 68.355469 72.503906 68.144531 71.703125 C 67.976562 71.078125 67.269531 71.957031 67.117188 72.132812 C 66.421875 72.949219 65.882812 74.382812 64.890625 74.894531 C 63.648438 75.53125 62.503906 73.703125 62.144531 72.863281 C 60.136719 68.183594 63.410156 63.445312 65.386719 59.324219 C 66.148438 57.742188 67.234375 54.839844 66.824219 53.003906 Z M 66.824219 53.003906 " fill-opacity="1" fill-rule="evenodd"/><path fill="#000000" d="M 221.128906 51.574219 C 221.121094 51.527344 221.804688 51.542969 221.902344 51.535156 C 222.203125 51.515625 224.367188 51.53125 224.289062 51.03125 C 224.199219 50.40625 222.980469 49.46875 222.609375 49.066406 C 221.058594 47.375 219.414062 45.753906 217.710938 44.261719 C 217.585938 44.148438 215.824219 42.480469 215.710938 42.582031 C 214.773438 43.464844 214.261719 46.226562 213.78125 47.488281 C 213.625 47.875 213.226562 48.582031 213.304688 49.039062 C 213.421875 49.75 214.996094 49.703125 215.367188 50.574219 C 216.675781 53.613281 221.617188 60.554688 222.539062 61.328125 C 222.21875 62.734375 220.726562 65.117188 220.148438 66.382812 C 218.046875 70.910156 214.890625 76.402344 215.710938 81.863281 C 215.941406 83.363281 216.355469 84.847656 216.964844 86.191406 C 217.363281 87.074219 217.851562 87.925781 218.417969 88.664062 C 218.867188 89.242188 219.363281 89.773438 219.929688 90.175781 C 223.410156 92.652344 226.726562 88.5625 229.1875 85.957031 C 231.484375 83.53125 234.175781 80.691406 235.234375 77.128906 C 236.605469 72.515625 234.578125 68.550781 231.902344 65.332031 C 230.902344 64.132812 227.992188 62.203125 228.390625 60.179688 C 228.726562 58.515625 230.054688 56.972656 230.917969 55.683594 C 232.574219 53.195312 234.210938 50.695312 235.773438 48.117188 C 236.320312 47.214844 238.019531 44.605469 237.136719 43.347656 C 236.648438 42.644531 235.738281 43.691406 235.347656 44.0625 C 233.871094 45.453125 232.597656 47.179688 231.351562 48.84375 C 230.519531 49.945312 229.707031 51.054688 228.914062 52.195312 C 228.46875 52.832031 228.046875 53.488281 227.636719 54.15625 C 227.390625 54.558594 227.144531 54.964844 226.898438 55.375 C 226.109375 56.710938 225.871094 57.253906 224.851562 56.144531 C 224.605469 55.875 224.367188 55.59375 224.136719 55.308594 C 223.800781 54.890625 223.476562 54.453125 223.15625 54.015625 C 222.636719 53.320312 220.707031 51.15625 220.195312 50.449219 Z M 225.1875 65.722656 C 224.863281 66.390625 223.679688 67.570312 223.148438 68.289062 C 222.042969 69.777344 221.464844 71.496094 220.671875 73.242188 C 220.121094 74.46875 219.875 75.816406 219.59375 77.171875 C 218.964844 80.199219 220.511719 83.421875 223.414062 83.144531 C 224.800781 83.011719 225.898438 82.1875 226.933594 81.175781 C 229.390625 78.777344 232.351562 75.679688 230.203125 71.65625 C 229.082031 69.550781 226.863281 67.171875 225.1875 65.722656 Z M 225.1875 65.722656 " fill-opacity="1" fill-rule="evenodd"/><path fill="#000000" d="M 314.460938 71.984375 C 315.347656 70.378906 316.582031 68.878906 317.757812 67.546875 C 317.945312 67.332031 318.652344 66.320312 318.988281 66.414062 C 319.925781 66.671875 320.386719 69.972656 320.507812 70.777344 C 320.660156 71.855469 320.667969 72.953125 320.582031 74.042969 C 320.242188 78.75 318.832031 83.992188 315.847656 87.277344 C 314.117188 89.179688 311.765625 90.183594 309.597656 88.703125 C 308.777344 88.144531 308.042969 87.417969 307.378906 86.621094 C 306.210938 85.214844 305.308594 83.453125 304.59375 81.675781 C 304.511719 81.480469 304.382812 82.027344 304.292969 82.210938 C 304.117188 82.570312 303.9375 82.929688 303.753906 83.285156 C 303.25 84.273438 302.761719 85.265625 302.222656 86.230469 C 300.632812 89.070312 298.492188 92.335938 295.625 93.390625 C 291.460938 94.921875 287.175781 90.375 285.855469 86.003906 C 285.371094 84.402344 285.324219 82.9375 285.300781 81.28125 C 285.308594 81.285156 283.929688 82.851562 283.824219 82.957031 C 282.1875 84.578125 280.496094 85.910156 278.605469 87.070312 C 278.535156 86.792969 278.996094 89.628906 278.996094 90.285156 C 278.996094 92.105469 279.011719 93.359375 278.492188 95.363281 C 278.296875 96.113281 276.933594 98.359375 276.617188 98.839844 C 274.324219 102.359375 271.832031 105.636719 269.089844 108.671875 C 261.347656 117.222656 250.238281 127.097656 239.453125 120.117188 C 238.035156 119.195312 236.703125 118.082031 235.597656 116.667969 C 234.113281 114.785156 233.066406 112.546875 232.457031 110.070312 C 230.964844 103.972656 232.0625 97.265625 233.609375 91.332031 C 234.042969 89.667969 234.589844 88.054688 235.242188 86.496094 C 235.289062 86.382812 235.738281 85.152344 235.949219 85.414062 C 236.269531 85.816406 235.886719 87.296875 235.820312 87.746094 C 235.515625 90.179688 235.171875 92.605469 234.914062 95.046875 C 234.210938 101.691406 234.96875 108.988281 240 113.085938 C 248.320312 119.859375 257.351562 111.09375 263.929688 105.421875 C 269.242188 100.84375 275.394531 95.957031 275.265625 87.4375 C 275.0625 87.5 274.792969 87.925781 274.617188 88.066406 C 274.023438 88.546875 273.371094 88.953125 272.726562 89.316406 C 270.550781 90.542969 268.214844 91.324219 265.800781 91.324219 C 264.757812 91.324219 263.699219 91.148438 262.707031 90.796875 C 261.910156 90.519531 261.144531 90.101562 260.453125 89.546875 C 255.234375 85.328125 258.957031 76.738281 261.859375 72.285156 C 263.265625 70.125 265.476562 66.882812 268.082031 67.089844 C 270.601562 67.292969 272.957031 70.136719 274.390625 72.382812 C 275.695312 74.410156 276.492188 76.84375 277.171875 79.25 C 277.109375 78.980469 277.644531 79.191406 277.878906 79.117188 C 278.277344 78.988281 278.675781 78.820312 279.066406 78.632812 C 280.222656 78.078125 281.355469 77.332031 282.347656 76.445312 C 283.816406 75.128906 284.964844 73.441406 286.210938 71.859375 C 286.503906 71.492188 287.210938 70.285156 287.738281 70.582031 C 288.714844 71.132812 288.722656 73.984375 288.855469 75.027344 C 289.3125 78.605469 289.296875 82.621094 292.984375 83.382812 C 293.539062 83.496094 294.105469 83.519531 294.664062 83.46875 C 298.90625 83.089844 301.863281 78.808594 303.734375 74.660156 C 304.441406 73.089844 305.035156 71.457031 305.75 69.894531 C 305.921875 69.527344 306.246094 68.597656 306.691406 68.613281 C 306.988281 68.621094 307.0625 69.144531 307.113281 69.398438 C 307.300781 70.398438 307.328125 71.453125 307.359375 72.472656 C 307.316406 72.351562 307.316406 72.734375 307.300781 72.863281 C 307.28125 73.117188 307.246094 73.371094 307.238281 73.625 C 307.203125 74.476562 307.265625 75.355469 307.414062 76.1875 C 307.855469 78.695312 309.261719 80.585938 311.4375 81.027344 C 315.097656 81.769531 315.816406 75.097656 314.460938 71.984375 Z M 270.277344 82.136719 C 270.265625 82.191406 269.914062 82.289062 269.871094 82.304688 C 269.464844 82.464844 269.054688 82.601562 268.632812 82.699219 C 267.296875 83.015625 264.539062 83.5 264.023438 81.375 C 263.503906 79.246094 265.679688 77.039062 267.359375 77.292969 C 268.691406 77.488281 270.019531 79.933594 270.277344 82.136719 Z M 270.277344 82.136719 " fill-opacity="1" fill-rule="evenodd"/><path fill="#000000" d="M 212.199219 25.179688 L 217.382812 17.851562 L 225.117188 24.09375 L 219.988281 31.6875 Z M 212.199219 25.179688 " fill-opacity="1" fill-rule="evenodd"/><path fill="#000000" d="M 225.109375 25.179688 L 230.292969 17.851562 L 238.027344 24.09375 L 232.898438 31.6875 Z M 225.109375 25.179688 " fill-opacity="1" fill-rule="evenodd"/><path fill="#000000" d="M 95.511719 58.582031 L 99.914062 52.976562 L 106.492188 57.75 L 102.132812 63.558594 Z M 95.511719 58.582031 " fill-opacity="1" fill-rule="evenodd"/><path fill="#000000" d="M 106.492188 58.582031 L 110.894531 52.976562 L 117.472656 57.75 L 113.109375 63.558594 Z M 106.492188 58.582031 " fill-opacity="1" fill-rule="evenodd"/><path fill="#000000" d="M 98.90625 48.003906 L 103.308594 42.398438 L 109.886719 47.171875 L 105.527344 52.976562 Z M 98.90625 48.003906 " fill-opacity="1" fill-rule="evenodd"/><path fill="#000000" d="M 307.703125 107.542969 C 307.648438 107.558594 307.808594 107.171875 307.828125 107.125 C 307.917969 106.875 308 106.621094 308.089844 106.375 C 308.300781 105.800781 308.53125 105.238281 308.742188 104.664062 C 308.757812 104.613281 308.894531 104.144531 308.976562 104.195312 C 309.050781 104.238281 309.078125 104.480469 309.105469 104.566406 C 309.230469 104.984375 309.363281 105.40625 309.453125 105.839844 C 309.863281 107.792969 309.847656 109.808594 309.109375 111.644531 C 308.585938 112.949219 307.570312 113.898438 306.371094 114.042969 C 304.859375 114.226562 303.351562 112.738281 303.296875 110.847656 C 303.296875 110.839844 303.132812 111.003906 303.121094 111.019531 C 303.035156 111.136719 302.957031 111.261719 302.875 111.386719 C 302.621094 111.792969 302.382812 112.21875 302.144531 112.640625 C 301.402344 113.976562 300.511719 115.566406 299.113281 115.863281 C 297.242188 116.253906 295.902344 114.445312 294.15625 114.15625 C 293.289062 114.007812 292.417969 114.355469 291.640625 114.800781 C 290.285156 115.574219 289.066406 116.6875 287.890625 117.808594 C 287.378906 118.292969 286.703125 118.921875 286.195312 119.40625 C 285.085938 120.46875 283.976562 121.523438 282.851562 122.558594 C 278.746094 126.339844 274.804688 130.179688 270.238281 133.101562 C 270.308594 133.203125 270.035156 133.199219 269.9375 133.253906 C 269.695312 133.386719 269.453125 133.515625 269.210938 133.640625 C 268.507812 134 267.800781 134.339844 267.09375 134.671875 C 264.921875 135.695312 262.75 136.585938 260.488281 137.261719 C 259.757812 137.480469 259.011719 137.691406 258.257812 137.753906 C 258.148438 137.765625 257.515625 137.839844 257.519531 137.554688 C 257.53125 137 258.707031 136.453125 259.003906 136.257812 C 260.578125 135.21875 262.199219 134.304688 263.789062 133.308594 C 267.507812 130.976562 270.980469 128.136719 274.449219 125.308594 C 276.988281 123.242188 279.5625 121.234375 282.0625 119.089844 C 282.234375 118.945312 282.703125 118.542969 282.859375 118.414062 C 283.570312 117.808594 284.273438 117.195312 284.972656 116.578125 C 286.839844 114.9375 288.707031 113.269531 290.683594 111.839844 C 291.78125 111.042969 293.03125 110.195312 294.34375 110.210938 C 296.261719 110.234375 298.125 112.355469 300.054688 111.285156 C 301.554688 110.453125 302.371094 108.460938 303.296875 106.90625 C 303.5625 106.460938 304.1875 105.082031 304.710938 105.027344 C 305.046875 104.992188 304.824219 106 304.800781 106.171875 C 304.65625 107.316406 304.324219 109 305.054688 109.945312 C 306.164062 111.375 308.75 109.886719 307.703125 107.542969 Z M 307.703125 107.542969 " fill-opacity="1" fill-rule="evenodd"/><path fill="#000000" d="M 247.484375 82.117188 C 247.480469 82.085938 247.539062 82.15625 247.566406 82.171875 C 247.613281 82.199219 247.660156 82.226562 247.707031 82.253906 C 247.871094 82.351562 248.039062 82.441406 248.207031 82.53125 C 248.335938 82.597656 248.464844 82.664062 248.59375 82.726562 C 248.679688 82.769531 248.769531 82.808594 248.855469 82.851562 C 249.160156 82.992188 250.160156 83.511719 250.128906 82.761719 C 250.109375 82.214844 249.707031 81.65625 249.417969 81.242188 C 248.820312 80.378906 248.214844 79.523438 247.613281 78.667969 C 246.503906 77.105469 245.390625 75.550781 244.257812 74.007812 C 243.988281 73.648438 243.730469 73.273438 243.449219 72.925781 C 243.371094 72.828125 243.230469 72.605469 243.097656 72.601562 C 242.890625 72.597656 242.777344 73.101562 242.730469 73.246094 C 242.507812 74.011719 242.371094 74.8125 242.210938 75.59375 C 241.960938 76.839844 241.667969 78.074219 241.347656 79.300781 C 241.210938 79.820312 240.902344 80.539062 241.070312 81.085938 C 241.171875 81.421875 241.410156 81.675781 241.636719 81.921875 C 241.9375 82.253906 242.242188 82.578125 242.578125 82.871094 C 242.472656 83.15625 242.800781 83.902344 242.871094 84.171875 C 243.195312 85.410156 243.597656 86.617188 243.992188 87.832031 C 244.773438 90.238281 245.648438 92.609375 246.71875 94.878906 C 247.890625 97.355469 249.257812 99.738281 250.363281 102.246094 C 250.28125 102.230469 249.9375 102.792969 249.882812 102.855469 C 249.324219 103.554688 248.746094 104.242188 248.164062 104.917969 C 245.9375 107.503906 243.554688 109.910156 241.035156 112.15625 C 237.261719 115.515625 232.945312 118.253906 228.527344 120.464844 C 224.125 122.675781 219.25 124.453125 214.335938 123.855469 C 214.296875 123.714844 214.0625 123.84375 213.929688 123.808594 C 213.464844 123.683594 213 123.550781 212.542969 123.382812 C 210.824219 122.757812 209.167969 122 207.71875 120.777344 C 203.601562 117.300781 202.425781 111.582031 202.441406 106.09375 C 202.453125 101.363281 203.417969 96.660156 204.871094 92.222656 C 205.457031 90.429688 206.078125 88.652344 206.675781 86.863281 C 206.714844 86.75 207.246094 85.339844 206.976562 85.339844 C 206.746094 85.339844 206.488281 85.734375 206.367188 85.902344 C 205.847656 86.636719 205.410156 87.453125 205.039062 88.285156 C 203.515625 91.707031 202.382812 95.394531 201.375 99.023438 C 200.910156 100.691406 200.484375 102.367188 200.148438 104.070312 C 198.355469 113.179688 198.9375 125.691406 207.4375 130.613281 C 208.726562 131.355469 210.121094 131.921875 211.546875 132.265625 C 221.867188 134.773438 231.179688 128.691406 238.84375 122.015625 C 238.777344 122.070312 238.992188 121.929688 239.0625 121.878906 C 239.203125 121.769531 239.339844 121.660156 239.480469 121.554688 C 239.925781 121.214844 240.363281 120.871094 240.796875 120.519531 C 242.082031 119.476562 243.304688 118.347656 244.480469 117.164062 C 248.210938 113.40625 251.585938 109.265625 252.632812 103.71875 C 252.714844 103.285156 252.792969 102.695312 252.816406 102.269531 C 252.890625 101.132812 252.910156 99.992188 252.878906 98.851562 C 252.78125 95.226562 251.503906 92.195312 250.144531 88.953125 C 249.261719 86.859375 248.515625 84.132812 247.484375 82.117188 Z M 247.484375 82.117188 " fill-opacity="1" fill-rule="evenodd"/></svg>