<svg xmlns="http://www.w3.org/2000/svg" xmlns:xlink="http://www.w3.org/1999/xlink" width="500" zoomAndPan="magnify" viewBox="0 0 375 149.999998" height="200" preserveAspectRatio="xMidYMid meet" version="1.0"><defs><clipPath id="131416f16b"><path d="M 107 104 L 121 104 L 121 141.421875 L 107 141.421875 Z M 107 104 " clip-rule="nonzero"/></clipPath><clipPath id="443720bb49"><path d="M 302 8.671875 L 342 8.671875 L 342 62 L 302 62 Z M 302 8.671875 " clip-rule="nonzero"/></clipPath></defs><g clip-path="url(#131416f16b)"><path fill="#000000" d="M 110.3125 110.453125 C 109.664062 110.097656 109.675781 109.363281 109.863281 108.714844 C 110.246094 107.398438 111.28125 106.191406 112.457031 105.382812 C 114.902344 103.695312 117.390625 106.484375 118.957031 107.992188 C 119.390625 108.414062 119.816406 108.84375 120.222656 109.285156 C 120.386719 109.464844 120.640625 109.675781 120.683594 109.917969 C 120.753906 110.3125 120.550781 110.765625 120.414062 111.136719 C 120.324219 111.382812 120.222656 111.628906 120.113281 111.867188 C 119.988281 112.148438 119.785156 112.640625 119.464844 112.796875 C 119.273438 112.894531 118.917969 112.789062 118.71875 112.78125 C 118.121094 112.757812 117.523438 112.75 116.925781 112.769531 C 116.421875 112.789062 115.917969 112.824219 115.414062 112.882812 C 113.054688 113.15625 109.207031 114 109.296875 116.796875 C 109.257812 116.800781 109.304688 117.03125 109.308594 117.054688 C 109.351562 117.371094 109.410156 117.6875 109.46875 118.003906 C 109.730469 119.363281 110.117188 120.707031 110.503906 122.042969 C 111.875 126.792969 113.292969 131.679688 113.132812 136.636719 C 113.09375 137.839844 112.921875 139.0625 112.480469 140.203125 C 112.371094 140.484375 112.160156 141.171875 111.75 141.222656 C 111.5 141.25 111.597656 140.746094 111.617188 140.640625 C 111.726562 139.914062 111.921875 139.210938 111.980469 138.480469 C 112.125 136.742188 111.945312 134.941406 111.609375 133.230469 C 111.078125 130.535156 110.375 127.824219 109.589844 125.179688 C 109.09375 123.507812 108.65625 121.84375 108.292969 120.140625 C 108.109375 119.28125 107.878906 118.429688 107.796875 117.554688 C 107.625 115.671875 108.082031 113.363281 109.472656 112.023438 C 110.167969 111.355469 111.082031 110.859375 112.007812 110.507812 C 112.867188 110.183594 113.8125 110.0625 114.730469 109.925781 C 114.941406 109.894531 115.152344 109.863281 115.367188 109.847656 C 115.394531 109.84375 115.566406 109.851562 115.578125 109.820312 C 115.617188 109.675781 115.207031 109.328125 115.121094 109.238281 C 114.574219 108.660156 113.757812 108.21875 112.894531 108.304688 C 112.097656 108.386719 111.316406 108.886719 110.910156 109.507812 C 110.71875 109.792969 110.511719 110.179688 110.3125 110.453125 Z M 110.3125 110.453125 " fill-opacity="1" fill-rule="evenodd"/></g><path fill="#000000" d="M 247.605469 17.90625 C 247.660156 17.894531 247.582031 18.003906 247.570312 18.050781 C 247.546875 18.140625 247.523438 18.234375 247.496094 18.324219 C 247.445312 18.488281 247.289062 19.199219 246.960938 19.121094 C 246.796875 19.082031 246.644531 18.921875 246.53125 18.824219 C 246.257812 18.578125 246 18.320312 245.722656 18.074219 C 245.246094 17.644531 244.695312 17.265625 244.113281 16.945312 C 243.800781 16.773438 243.335938 16.628906 243.121094 16.363281 C 242.792969 15.949219 242.988281 15.246094 243.019531 14.789062 C 243.109375 13.558594 243.183594 11.421875 245.109375 11.277344 C 246.472656 11.171875 247.460938 12.105469 248.246094 12.921875 C 250.144531 14.886719 251.484375 17.375 252.375 19.785156 C 252.71875 20.714844 253.042969 21.648438 253.351562 22.589844 C 253.417969 22.785156 253.46875 22.992188 253.550781 23.1875 C 253.566406 23.230469 253.605469 23.34375 253.683594 23.332031 C 253.855469 23.304688 253.910156 22.859375 253.9375 22.757812 C 254.097656 22.132812 254.304688 21.519531 254.425781 20.890625 C 255.042969 17.640625 255.652344 15.582031 256.640625 13.113281 C 256.757812 12.816406 256.910156 12.421875 257.054688 12.144531 C 257.460938 11.371094 257.992188 10.613281 258.753906 10.058594 C 259.085938 9.816406 259.488281 9.59375 259.933594 9.566406 C 260.445312 9.539062 260.914062 9.742188 261.320312 9.984375 C 262.183594 10.503906 262.859375 11.242188 263.222656 12.082031 C 263.332031 12.335938 263.480469 12.621094 263.457031 12.898438 C 263.414062 13.433594 263.175781 13.964844 262.996094 14.476562 C 262.882812 14.800781 262.765625 15.121094 262.644531 15.441406 C 262.515625 15.789062 262.382812 16.140625 262.226562 16.480469 C 262.195312 16.550781 262.136719 16.742188 262.027344 16.761719 C 261.941406 16.773438 261.867188 16.65625 261.828125 16.609375 C 261.664062 16.390625 261.527344 16.15625 261.378906 15.929688 C 260.867188 15.15625 259.789062 13.597656 258.523438 14.320312 C 257.441406 14.9375 256.910156 16.347656 256.519531 17.335938 C 255.554688 19.78125 255.03125 22.375 254.648438 24.925781 C 254.640625 24.886719 254.628906 25.003906 254.617188 25.042969 C 254.589844 25.128906 254.5625 25.210938 254.535156 25.296875 C 254.449219 25.570312 254.359375 25.84375 254.265625 26.117188 C 253.929688 27.085938 253.550781 28.035156 252.941406 28.910156 C 252.796875 29.117188 252.644531 29.324219 252.460938 29.507812 C 252.433594 29.535156 252.292969 29.691406 252.234375 29.65625 C 252.054688 29.539062 252.121094 28.902344 252.105469 28.738281 C 252.03125 27.875 251.917969 27.007812 251.734375 26.15625 C 251.152344 23.464844 249.382812 20.191406 247.605469 17.90625 Z M 247.605469 17.90625 " fill-opacity="1" fill-rule="evenodd"/><path fill="#000000" d="M 131.074219 42.921875 C 131.128906 42.910156 131.050781 43.019531 131.039062 43.066406 C 131.015625 43.15625 130.992188 43.25 130.964844 43.339844 C 130.910156 43.503906 130.757812 44.214844 130.429688 44.136719 C 130.261719 44.097656 130.113281 43.9375 130 43.839844 C 129.726562 43.59375 129.46875 43.335938 129.191406 43.089844 C 128.714844 42.660156 128.164062 42.28125 127.582031 41.960938 C 127.269531 41.789062 126.804688 41.644531 126.589844 41.378906 C 126.261719 40.964844 126.457031 40.261719 126.488281 39.804688 C 126.578125 38.574219 126.652344 36.4375 128.578125 36.292969 C 129.941406 36.1875 130.929688 37.121094 131.714844 37.9375 C 133.613281 39.902344 134.953125 42.390625 135.84375 44.800781 C 136.1875 45.730469 136.511719 46.664062 136.820312 47.605469 C 136.882812 47.800781 136.9375 48.007812 137.019531 48.203125 C 137.035156 48.246094 137.074219 48.359375 137.152344 48.347656 C 137.324219 48.320312 137.378906 47.875 137.40625 47.773438 C 137.5625 47.148438 137.773438 46.535156 137.894531 45.90625 C 138.511719 42.65625 139.121094 40.597656 140.109375 38.128906 C 140.226562 37.832031 140.378906 37.4375 140.523438 37.160156 C 140.925781 36.386719 141.460938 35.628906 142.222656 35.074219 C 142.554688 34.832031 142.957031 34.609375 143.402344 34.582031 C 143.914062 34.554688 144.382812 34.757812 144.789062 35 C 145.652344 35.519531 146.328125 36.257812 146.6875 37.097656 C 146.800781 37.351562 146.949219 37.636719 146.925781 37.914062 C 146.882812 38.449219 146.644531 38.980469 146.464844 39.492188 C 146.351562 39.816406 146.234375 40.136719 146.113281 40.457031 C 145.980469 40.804688 145.851562 41.15625 145.695312 41.496094 C 145.664062 41.566406 145.605469 41.757812 145.496094 41.777344 C 145.410156 41.789062 145.332031 41.671875 145.296875 41.625 C 145.132812 41.40625 144.996094 41.171875 144.847656 40.945312 C 144.335938 40.171875 143.257812 38.613281 141.992188 39.335938 C 140.910156 39.953125 140.378906 41.363281 139.988281 42.351562 C 139.019531 44.796875 138.5 47.390625 138.117188 49.941406 C 138.109375 49.902344 138.09375 50.019531 138.082031 50.058594 C 138.058594 50.144531 138.03125 50.226562 138.003906 50.3125 C 137.917969 50.585938 137.828125 50.859375 137.734375 51.132812 C 137.398438 52.101562 137.019531 53.050781 136.410156 53.925781 C 136.265625 54.132812 136.113281 54.339844 135.925781 54.523438 C 135.898438 54.550781 135.761719 54.707031 135.703125 54.671875 C 135.523438 54.554688 135.589844 53.917969 135.574219 53.753906 C 135.5 52.890625 135.386719 52.023438 135.199219 51.171875 C 134.617188 48.480469 132.851562 45.207031 131.074219 42.921875 Z M 131.074219 42.921875 " fill-opacity="1" fill-rule="evenodd"/><path fill="#000000" d="M 251.449219 55.480469 C 251.511719 55.464844 251.425781 55.601562 251.410156 55.664062 C 251.386719 55.777344 251.363281 55.894531 251.332031 56.007812 C 251.273438 56.21875 251.105469 57.117188 250.742188 57.019531 C 250.5625 56.96875 250.398438 56.765625 250.277344 56.640625 C 249.976562 56.328125 249.691406 56 249.390625 55.691406 C 248.867188 55.148438 248.261719 54.671875 247.625 54.265625 C 247.28125 54.046875 246.773438 53.867188 246.539062 53.527344 C 246.179688 53.003906 246.390625 52.117188 246.425781 51.539062 C 246.523438 49.984375 246.609375 47.28125 248.71875 47.097656 C 250.210938 46.964844 251.292969 48.144531 252.15625 49.175781 C 254.234375 51.664062 255.703125 54.808594 256.675781 57.855469 C 257.054688 59.03125 257.410156 60.210938 257.746094 61.402344 C 257.820312 61.652344 257.878906 61.914062 257.964844 62.15625 C 257.984375 62.210938 258.027344 62.355469 258.113281 62.339844 C 258.300781 62.304688 258.363281 61.742188 258.390625 61.613281 C 258.5625 60.828125 258.792969 60.050781 258.925781 59.253906 C 259.601562 55.148438 260.269531 52.539062 261.351562 49.421875 C 261.484375 49.042969 261.648438 48.542969 261.804688 48.195312 C 262.25 47.21875 262.835938 46.261719 263.667969 45.558594 C 264.03125 45.253906 264.472656 44.96875 264.960938 44.9375 C 265.523438 44.898438 266.039062 45.15625 266.480469 45.464844 C 267.425781 46.121094 268.167969 47.054688 268.5625 48.117188 C 268.683594 48.441406 268.847656 48.796875 268.824219 49.148438 C 268.773438 49.824219 268.511719 50.5 268.316406 51.144531 C 268.191406 51.550781 268.066406 51.960938 267.933594 52.367188 C 267.789062 52.804688 267.644531 53.246094 267.476562 53.679688 C 267.441406 53.765625 267.375 54.011719 267.257812 54.03125 C 267.164062 54.046875 267.078125 53.898438 267.039062 53.839844 C 266.859375 53.566406 266.707031 53.269531 266.542969 52.984375 C 265.984375 52.003906 264.804688 50.035156 263.414062 50.945312 C 262.230469 51.726562 261.648438 53.507812 261.21875 54.757812 C 260.160156 57.847656 259.589844 61.128906 259.171875 64.355469 C 259.164062 64.308594 259.144531 64.453125 259.132812 64.5 C 259.105469 64.609375 259.074219 64.71875 259.046875 64.824219 C 258.953125 65.171875 258.855469 65.515625 258.75 65.859375 C 258.382812 67.085938 257.96875 68.289062 257.300781 69.390625 C 257.140625 69.65625 256.972656 69.914062 256.769531 70.148438 C 256.742188 70.179688 256.585938 70.382812 256.523438 70.332031 C 256.328125 70.1875 256.402344 69.386719 256.386719 69.175781 C 256.300781 68.082031 256.175781 66.988281 255.972656 65.910156 C 255.335938 62.507812 253.398438 58.371094 251.449219 55.480469 Z M 251.449219 55.480469 " fill-opacity="1" fill-rule="evenodd"/><path fill="#000000" d="M 240.039062 42.625 C 240.03125 42.609375 241.253906 41.917969 241.339844 41.871094 C 242.246094 41.351562 243.152344 40.835938 244.0625 40.320312 C 246.902344 38.707031 249.785156 37.191406 252.667969 35.703125 C 257.695312 33.113281 262.902344 30.972656 268.117188 29.035156 C 269.414062 28.550781 270.707031 28.066406 272.011719 27.613281 C 272.210938 27.546875 272.996094 27.171875 273.152344 27.523438 C 273.363281 28.007812 272.492188 29.300781 272.308594 29.6875 C 272.007812 30.320312 271.753906 31.269531 271.328125 31.78125 C 270.828125 32.382812 270.039062 32.605469 269.398438 32.855469 C 268.308594 33.269531 267.21875 33.6875 266.136719 34.125 C 259.121094 36.949219 252.371094 40.417969 245.613281 44.0625 C 243.90625 44.984375 242.199219 45.992188 240.4375 46.730469 C 240.191406 46.835938 239.097656 47.429688 238.863281 47.113281 C 238.550781 46.691406 239.90625 43.042969 240.039062 42.625 Z M 240.039062 42.625 " fill-opacity="1" fill-rule="evenodd"/><path fill="#000000" d="M 81.082031 77.871094 C 81.070312 77.855469 82.292969 77.164062 82.378906 77.117188 C 83.285156 76.59375 84.191406 76.078125 85.101562 75.5625 C 87.941406 73.953125 90.824219 72.433594 93.707031 70.949219 C 98.738281 68.359375 103.941406 66.21875 109.15625 64.277344 C 110.453125 63.796875 111.75 63.3125 113.050781 62.859375 C 113.25 62.792969 114.035156 62.414062 114.191406 62.769531 C 114.402344 63.253906 113.53125 64.546875 113.347656 64.929688 C 113.046875 65.5625 112.792969 66.515625 112.367188 67.027344 C 111.867188 67.628906 111.078125 67.851562 110.4375 68.097656 C 109.347656 68.515625 108.261719 68.933594 107.175781 69.367188 C 100.160156 72.191406 93.410156 75.664062 86.652344 79.308594 C 84.949219 80.230469 83.242188 81.238281 81.476562 81.976562 C 81.230469 82.078125 80.136719 82.675781 79.902344 82.355469 C 79.59375 81.933594 80.945312 78.289062 81.082031 77.871094 Z M 81.082031 77.871094 " fill-opacity="1" fill-rule="evenodd"/><path fill="#000000" d="M 162 128.371094 C 161.992188 128.355469 163.214844 127.667969 163.296875 127.617188 C 164.203125 127.097656 165.113281 126.582031 166.019531 126.066406 C 168.859375 124.457031 171.742188 122.9375 174.625 121.453125 C 179.65625 118.859375 184.859375 116.71875 190.078125 114.78125 C 191.371094 114.300781 192.667969 113.8125 193.96875 113.363281 C 194.171875 113.292969 194.957031 112.917969 195.109375 113.273438 C 195.324219 113.753906 194.449219 115.046875 194.265625 115.433594 C 193.96875 116.066406 193.714844 117.015625 193.285156 117.53125 C 192.785156 118.128906 192 118.355469 191.355469 118.601562 C 190.269531 119.019531 189.179688 119.433594 188.097656 119.871094 C 181.078125 122.695312 174.328125 126.167969 167.574219 129.8125 C 165.867188 130.730469 164.160156 131.738281 162.394531 132.480469 C 162.152344 132.582031 161.054688 133.175781 160.820312 132.859375 C 160.511719 132.4375 161.863281 128.789062 162 128.371094 Z M 162 128.371094 " fill-opacity="1" fill-rule="evenodd"/><path fill="#000000" d="M 127.628906 66.292969 C 127.617188 66.277344 128.839844 65.589844 128.925781 65.539062 C 129.832031 65.019531 130.738281 64.503906 131.648438 63.988281 C 134.488281 62.375 137.371094 60.859375 140.253906 59.371094 C 145.285156 56.78125 150.488281 54.640625 155.703125 52.703125 C 157 52.21875 158.296875 51.734375 159.597656 51.285156 C 159.796875 51.214844 160.582031 50.839844 160.738281 51.191406 C 160.949219 51.675781 160.078125 52.96875 159.894531 53.355469 C 159.59375 53.988281 159.339844 54.9375 158.914062 55.449219 C 158.414062 56.050781 157.625 56.273438 156.984375 56.523438 C 155.894531 56.9375 154.808594 57.355469 153.722656 57.792969 C 146.707031 60.617188 139.957031 64.089844 133.199219 67.730469 C 131.496094 68.652344 129.789062 69.660156 128.023438 70.398438 C 127.777344 70.503906 126.683594 71.097656 126.449219 70.78125 C 126.140625 70.359375 127.492188 66.710938 127.628906 66.292969 Z M 127.628906 66.292969 " fill-opacity="1" fill-rule="evenodd"/><path fill="#000000" d="M 279.726562 37.132812 C 279.609375 36.820312 279.96875 36.003906 280.046875 35.714844 C 280.445312 34.316406 280.921875 32.957031 281.507812 31.652344 C 282.160156 30.195312 282.914062 28.800781 283.734375 27.476562 C 284.183594 26.753906 284.664062 25.953125 285.304688 25.457031 C 286.40625 24.613281 287.902344 24.738281 289.144531 24.785156 C 291.664062 24.882812 294.179688 25.199219 296.667969 25.652344 C 298.273438 25.945312 299.976562 26.269531 301.53125 26.855469 C 302.003906 27.035156 302.796875 27.300781 302.976562 27.945312 C 303.191406 28.714844 302.824219 29.679688 302.578125 30.367188 C 301.957031 32.09375 301.136719 33.730469 300.316406 35.332031 C 299.023438 37.867188 297.488281 40.242188 295.855469 42.472656 C 294.6875 44.070312 293.457031 45.699219 291.871094 46.699219 C 289.9375 47.914062 287.675781 48.234375 285.558594 48.667969 C 283.976562 48.996094 282.394531 49.332031 280.808594 49.621094 C 280.429688 49.691406 279.5625 50.003906 279.207031 49.703125 C 278.945312 49.484375 279.902344 48.78125 279.984375 48.714844 C 281.171875 47.773438 282.425781 46.945312 283.65625 46.085938 C 286.605469 44.019531 289.605469 42.027344 292.589844 40.023438 C 293.253906 39.578125 293.933594 39.160156 294.566406 38.652344 C 294.691406 38.550781 295.167969 38.242188 295.078125 37.988281 C 294.972656 37.675781 294.347656 37.578125 294.121094 37.503906 C 292.933594 37.109375 291.6875 36.933594 290.464844 36.796875 C 289.433594 36.683594 288.398438 36.601562 287.363281 36.558594 C 285.371094 36.46875 281.710938 36.851562 279.726562 37.132812 Z M 279.726562 37.132812 " fill-opacity="1" fill-rule="evenodd"/><path fill="#000000" d="M 73.972656 45.160156 C 73.859375 44.921875 74.214844 44.3125 74.296875 44.097656 C 74.695312 43.046875 75.171875 42.03125 75.753906 41.054688 C 76.410156 39.960938 77.160156 38.914062 77.984375 37.921875 C 78.433594 37.382812 78.910156 36.78125 79.550781 36.414062 C 80.652344 35.78125 82.152344 35.871094 83.394531 35.910156 C 85.910156 35.980469 88.425781 36.21875 90.917969 36.558594 C 92.523438 36.777344 94.226562 37.019531 95.777344 37.457031 C 96.253906 37.59375 97.042969 37.792969 97.222656 38.277344 C 97.4375 38.851562 97.070312 39.578125 96.824219 40.089844 C 96.207031 41.382812 95.382812 42.609375 94.566406 43.808594 C 93.269531 45.707031 91.738281 47.488281 90.101562 49.160156 C 88.9375 50.355469 87.707031 51.578125 86.117188 52.328125 C 84.1875 53.238281 81.925781 53.476562 79.804688 53.804688 C 78.222656 54.046875 76.644531 54.300781 75.058594 54.515625 C 74.675781 54.570312 73.8125 54.800781 73.453125 54.578125 C 73.195312 54.414062 74.148438 53.886719 74.234375 53.835938 C 75.421875 53.132812 76.675781 52.511719 77.902344 51.867188 C 80.855469 50.316406 83.851562 48.828125 86.839844 47.324219 C 87.5 46.992188 88.183594 46.679688 88.8125 46.296875 C 88.9375 46.222656 89.414062 45.992188 89.328125 45.800781 C 89.21875 45.566406 88.59375 45.492188 88.367188 45.4375 C 87.179688 45.140625 85.933594 45.011719 84.710938 44.90625 C 83.679688 44.820312 82.644531 44.761719 81.613281 44.726562 C 79.617188 44.660156 75.957031 44.949219 73.972656 45.160156 Z M 73.972656 45.160156 " fill-opacity="1" fill-rule="evenodd"/><path fill="#000000" d="M 287.902344 62.6875 C 288.042969 62.339844 288.789062 61.917969 289.042969 61.703125 C 290.140625 60.789062 291.246094 59.886719 292.351562 58.988281 C 296.25 55.820312 300.242188 52.847656 303.984375 49.441406 C 306.585938 47.074219 309.128906 44.621094 311.515625 41.984375 C 312.105469 41.335938 312.703125 40.683594 313.210938 39.953125 C 313.332031 39.773438 313.691406 39.390625 313.675781 39.132812 C 313.664062 38.96875 313.425781 38.820312 313.328125 38.730469 C 312.917969 38.359375 312.5 38.007812 312.09375 37.636719 C 310.691406 36.355469 309.628906 35.023438 310.238281 32.894531 C 310.394531 32.347656 310.597656 31.808594 310.851562 31.304688 C 311.925781 29.171875 315.0625 25.441406 317.292969 28.058594 C 318.691406 29.703125 317.75 33.222656 317.191406 35.046875 C 317.058594 35.480469 316.457031 36.394531 316.472656 36.835938 C 316.476562 36.9375 316.808594 37.097656 316.875 37.144531 C 317.246094 37.417969 317.660156 37.730469 317.933594 38.128906 C 318.671875 39.203125 317.710938 41.097656 317.101562 41.976562 C 316.539062 42.789062 315.726562 41.242188 315.265625 40.757812 C 315.167969 40.65625 314.761719 40.128906 314.613281 40.289062 C 313.707031 41.285156 313.035156 42.578125 312.160156 43.613281 C 308.402344 48.066406 304.359375 52.550781 299.679688 55.765625 C 296.96875 57.628906 294.199219 59.402344 291.4375 61.171875 C 290.691406 61.648438 289.9375 62.132812 289.160156 62.550781 C 288.890625 62.695312 288.21875 62.742188 287.902344 62.6875 Z M 315.539062 35.761719 C 315.507812 35.726562 315.605469 35.40625 315.617188 35.359375 C 315.695312 34.941406 315.78125 34.511719 315.800781 34.082031 C 315.855469 32.960938 315.609375 31.625 314.839844 30.839844 C 314.035156 30.023438 313.121094 30.28125 312.464844 31.167969 C 312.324219 31.359375 311.96875 31.828125 312.03125 32.117188 C 312.121094 32.53125 312.496094 32.984375 312.746094 33.273438 C 313.488281 34.121094 314.753906 34.964844 315.539062 35.761719 Z M 315.539062 35.761719 " fill-opacity="1" fill-rule="evenodd"/><path fill="#000000" d="M 220.992188 88.4375 C 220.976562 88.355469 220.917969 88.582031 220.882812 88.65625 C 220.816406 88.800781 220.75 88.945312 220.6875 89.089844 C 220.476562 89.5625 220.261719 90.027344 220.050781 90.5 C 219.476562 91.773438 218.910156 93.054688 218.367188 94.347656 C 216.820312 98.039062 215.121094 102.304688 215.484375 106.515625 C 215.605469 107.886719 215.988281 110.210938 217.402344 110.5625 C 219.296875 111.039062 220.585938 108.21875 221.195312 106.621094 C 221.347656 106.214844 221.484375 105.796875 221.601562 105.375 C 221.765625 104.78125 221.996094 103.882812 221.855469 103.25 C 221.75 102.753906 221.285156 103.449219 221.183594 103.589844 C 220.726562 104.238281 220.375 105.371094 219.722656 105.777344 C 218.910156 106.28125 218.160156 104.835938 217.921875 104.167969 C 216.605469 100.464844 218.753906 96.710938 220.050781 93.445312 C 220.550781 92.191406 221.261719 89.894531 220.992188 88.4375 Z M 220.992188 88.4375 " fill-opacity="1" fill-rule="evenodd"/><path fill="#000000" d="M 138.988281 71.277344 C 138.972656 71.195312 138.910156 71.421875 138.878906 71.496094 C 138.8125 71.640625 138.746094 71.785156 138.679688 71.929688 C 138.472656 72.402344 138.257812 72.867188 138.046875 73.335938 C 137.472656 74.613281 136.90625 75.894531 136.363281 77.1875 C 134.816406 80.878906 133.117188 85.140625 133.480469 89.355469 C 133.597656 90.726562 133.984375 93.050781 135.394531 93.402344 C 137.289062 93.878906 138.578125 91.058594 139.1875 89.460938 C 139.34375 89.054688 139.480469 88.636719 139.597656 88.214844 C 139.757812 87.621094 139.992188 86.722656 139.851562 86.089844 C 139.742188 85.59375 139.277344 86.289062 139.179688 86.429688 C 138.722656 87.078125 138.371094 88.210938 137.71875 88.617188 C 136.90625 89.121094 136.152344 87.675781 135.917969 87.007812 C 134.601562 83.304688 136.75 79.550781 138.046875 76.285156 C 138.542969 75.03125 139.257812 72.730469 138.988281 71.277344 Z M 138.988281 71.277344 " fill-opacity="1" fill-rule="evenodd"/><path fill="#000000" d="M 221.144531 46.671875 C 221.136719 46.625 221.824219 46.640625 221.921875 46.636719 C 222.222656 46.613281 224.386719 46.628906 224.308594 46.128906 C 224.21875 45.503906 223 44.5625 222.628906 44.160156 C 221.074219 42.46875 219.429688 40.84375 217.726562 39.355469 C 217.601562 39.242188 215.835938 37.570312 215.722656 37.671875 C 214.785156 38.554688 214.273438 41.316406 213.789062 42.582031 C 213.636719 42.96875 213.234375 43.675781 213.3125 44.136719 C 213.433594 44.84375 215.007812 44.800781 215.378906 45.671875 C 216.6875 48.714844 221.632812 55.664062 222.558594 56.4375 C 222.238281 57.84375 220.746094 60.230469 220.164062 61.496094 C 218.0625 66.03125 214.902344 71.527344 215.722656 76.992188 C 215.953125 78.496094 216.367188 79.980469 216.976562 81.324219 C 217.375 82.210938 217.867188 83.0625 218.433594 83.800781 C 218.882812 84.378906 219.378906 84.910156 219.945312 85.3125 C 223.429688 87.792969 226.75 83.699219 229.214844 81.089844 C 231.511719 78.664062 234.207031 75.820312 235.265625 72.253906 C 236.640625 67.636719 234.609375 63.667969 231.933594 60.445312 C 230.929688 59.246094 228.015625 57.3125 228.414062 55.285156 C 228.75 53.621094 230.082031 52.078125 230.945312 50.785156 C 232.605469 48.296875 234.242188 45.789062 235.804688 43.210938 C 236.351562 42.308594 238.054688 39.695312 237.171875 38.4375 C 236.679688 37.734375 235.769531 38.78125 235.378906 39.152344 C 233.898438 40.546875 232.625 42.273438 231.378906 43.941406 C 230.542969 45.042969 229.730469 46.152344 228.941406 47.292969 C 228.492188 47.929688 228.070312 48.589844 227.660156 49.257812 C 227.414062 49.660156 227.167969 50.066406 226.921875 50.476562 C 226.132812 51.816406 225.894531 52.355469 224.871094 51.246094 C 224.625 50.980469 224.386719 50.695312 224.15625 50.410156 C 223.820312 49.992188 223.496094 49.554688 223.175781 49.117188 C 222.65625 48.421875 220.722656 46.25 220.210938 45.546875 Z M 225.207031 60.832031 C 224.886719 61.503906 223.699219 62.683594 223.167969 63.40625 C 222.0625 64.894531 221.480469 66.613281 220.6875 68.363281 C 220.136719 69.589844 219.890625 70.941406 219.609375 72.296875 C 218.980469 75.328125 220.527344 78.554688 223.433594 78.273438 C 224.820312 78.140625 225.921875 77.316406 226.957031 76.300781 C 229.417969 73.902344 232.378906 70.804688 230.230469 66.777344 C 229.109375 64.664062 226.886719 62.285156 225.207031 60.832031 Z M 225.207031 60.832031 " fill-opacity="1" fill-rule="evenodd"/><path fill="#000000" d="M 314.574219 67.105469 C 315.464844 65.496094 316.695312 63.996094 317.875 62.660156 C 318.0625 62.445312 318.769531 61.433594 319.105469 61.527344 C 320.046875 61.789062 320.507812 65.089844 320.625 65.894531 C 320.78125 66.972656 320.789062 68.074219 320.703125 69.164062 C 320.359375 73.875 318.953125 79.121094 315.960938 82.410156 C 314.230469 84.316406 311.878906 85.324219 309.707031 83.839844 C 308.886719 83.28125 308.152344 82.550781 307.484375 81.753906 C 306.316406 80.347656 305.414062 78.582031 304.699219 76.804688 C 304.613281 76.609375 304.488281 77.15625 304.394531 77.34375 C 304.222656 77.703125 304.039062 78.058594 303.855469 78.414062 C 303.351562 79.40625 302.863281 80.398438 302.324219 81.363281 C 300.734375 84.207031 298.589844 87.476562 295.71875 88.53125 C 291.550781 90.066406 287.261719 85.511719 285.9375 81.136719 C 285.457031 79.53125 285.40625 78.066406 285.386719 76.410156 C 285.390625 76.410156 284.011719 77.984375 283.90625 78.085938 C 282.269531 79.710938 280.574219 81.046875 278.683594 82.207031 C 278.613281 81.925781 279.074219 84.765625 279.074219 85.421875 C 279.074219 87.246094 279.089844 88.5 278.570312 90.507812 C 278.375 91.257812 277.007812 93.503906 276.691406 93.988281 C 274.394531 97.511719 271.902344 100.792969 269.15625 103.828125 C 261.40625 112.386719 250.285156 122.273438 239.488281 115.285156 C 238.066406 114.363281 236.738281 113.246094 235.628906 111.835938 C 234.144531 109.945312 233.09375 107.710938 232.484375 105.230469 C 230.992188 99.125 232.09375 92.414062 233.640625 86.472656 C 234.074219 84.808594 234.621094 83.191406 235.273438 81.628906 C 235.320312 81.515625 235.769531 80.285156 235.980469 80.546875 C 236.300781 80.953125 235.917969 82.433594 235.855469 82.882812 C 235.546875 85.320312 235.203125 87.746094 234.945312 90.191406 C 234.242188 96.84375 235 104.144531 240.035156 108.246094 C 248.363281 115.03125 257.40625 106.253906 263.992188 100.574219 C 269.308594 95.992188 275.464844 91.101562 275.339844 82.574219 C 275.136719 82.632812 274.863281 83.0625 274.6875 83.203125 C 274.09375 83.679688 273.441406 84.089844 272.796875 84.453125 C 270.621094 85.679688 268.28125 86.464844 265.863281 86.464844 C 264.820312 86.464844 263.761719 86.285156 262.765625 85.9375 C 261.96875 85.65625 261.203125 85.242188 260.511719 84.6875 C 255.285156 80.460938 259.011719 71.859375 261.917969 67.402344 C 263.328125 65.242188 265.539062 61.996094 268.148438 62.203125 C 270.667969 62.40625 273.027344 65.253906 274.464844 67.5 C 275.769531 69.53125 276.566406 71.96875 277.246094 74.375 C 277.183594 74.105469 277.722656 74.316406 277.953125 74.242188 C 278.351562 74.113281 278.75 73.945312 279.144531 73.757812 C 280.300781 73.203125 281.433594 72.457031 282.429688 71.566406 C 283.898438 70.25 285.050781 68.5625 286.296875 66.976562 C 286.589844 66.609375 287.296875 65.402344 287.824219 65.699219 C 288.804688 66.25 288.8125 69.105469 288.945312 70.148438 C 289.398438 73.730469 289.386719 77.75 293.078125 78.511719 C 293.628906 78.625 294.199219 78.652344 294.757812 78.601562 C 299.003906 78.21875 301.964844 73.933594 303.835938 69.78125 C 304.542969 68.210938 305.140625 66.574219 305.851562 65.011719 C 306.027344 64.644531 306.351562 63.714844 306.800781 63.726562 C 307.09375 63.738281 307.171875 64.261719 307.21875 64.515625 C 307.410156 65.519531 307.4375 66.570312 307.464844 67.59375 C 307.421875 67.472656 307.421875 67.855469 307.410156 67.984375 C 307.386719 68.238281 307.351562 68.492188 307.34375 68.746094 C 307.308594 69.597656 307.375 70.476562 307.519531 71.3125 C 307.960938 73.820312 309.371094 75.710938 311.546875 76.152344 C 315.210938 76.898438 315.933594 70.21875 314.574219 67.105469 Z M 270.347656 77.265625 C 270.332031 77.320312 269.980469 77.417969 269.941406 77.433594 C 269.535156 77.59375 269.121094 77.730469 268.699219 77.828125 C 267.363281 78.148438 264.601562 78.628906 264.082031 76.503906 C 263.566406 74.375 265.742188 72.164062 267.425781 72.414062 C 268.757812 72.613281 270.085938 75.058594 270.347656 77.265625 Z M 270.347656 77.265625 " fill-opacity="1" fill-rule="evenodd"/><path fill="#000000" d="M 212.207031 20.253906 L 217.394531 12.914062 L 225.136719 19.164062 L 220.003906 26.765625 Z M 212.207031 20.253906 " fill-opacity="1" fill-rule="evenodd"/><path fill="#000000" d="M 225.132812 20.253906 L 230.316406 12.914062 L 238.058594 19.164062 L 232.925781 26.765625 Z M 225.132812 20.253906 " fill-opacity="1" fill-rule="evenodd"/><path fill="#000000" d="M 164.453125 72.875 L 168.425781 66.890625 L 174.355469 71.988281 L 170.421875 78.183594 Z M 164.453125 72.875 " fill-opacity="1" fill-rule="evenodd"/><path fill="#000000" d="M 154.546875 72.875 L 158.519531 66.890625 L 164.449219 71.988281 L 160.519531 78.183594 Z M 154.546875 72.875 " fill-opacity="1" fill-rule="evenodd"/><path fill="#000000" d="M 52.914062 60.257812 L 56.886719 54.273438 L 62.816406 59.371094 L 58.882812 65.566406 Z M 52.914062 60.257812 " fill-opacity="1" fill-rule="evenodd"/><path fill="#000000" d="M 62.8125 58.476562 L 66.785156 52.496094 L 72.714844 57.589844 L 68.78125 63.789062 Z M 62.8125 58.476562 " fill-opacity="1" fill-rule="evenodd"/><path fill="#000000" d="M 135.199219 132.140625 L 139.171875 126.15625 L 145.101562 131.253906 L 141.171875 137.449219 Z M 135.199219 132.140625 " fill-opacity="1" fill-rule="evenodd"/><path fill="#000000" d="M 144.644531 131.199219 L 148.613281 125.214844 L 154.546875 130.308594 L 150.613281 136.507812 Z M 144.644531 131.199219 " fill-opacity="1" fill-rule="evenodd"/><path fill="#000000" d="M 307.808594 102.699219 C 307.757812 102.714844 307.917969 102.328125 307.9375 102.28125 C 308.023438 102.03125 308.105469 101.777344 308.199219 101.53125 C 308.410156 100.957031 308.640625 100.390625 308.851562 99.816406 C 308.867188 99.765625 309.003906 99.296875 309.085938 99.347656 C 309.160156 99.390625 309.1875 99.632812 309.210938 99.71875 C 309.335938 100.140625 309.46875 100.558594 309.5625 100.992188 C 309.972656 102.949219 309.957031 104.964844 309.21875 106.804688 C 308.695312 108.109375 307.675781 109.058594 306.476562 109.203125 C 304.964844 109.386719 303.453125 107.898438 303.398438 106.007812 C 303.398438 106 303.234375 106.164062 303.222656 106.179688 C 303.136719 106.296875 303.058594 106.421875 302.976562 106.546875 C 302.722656 106.953125 302.484375 107.378906 302.246094 107.800781 C 301.503906 109.140625 300.613281 110.730469 299.210938 111.027344 C 297.339844 111.417969 296 109.605469 294.25 109.316406 C 293.378906 109.171875 292.507812 109.519531 291.730469 109.964844 C 290.375 110.738281 289.152344 111.855469 287.976562 112.972656 C 287.464844 113.460938 286.785156 114.089844 286.28125 114.574219 C 285.171875 115.636719 284.058594 116.691406 282.929688 117.730469 C 278.824219 121.515625 274.878906 125.359375 270.304688 128.285156 C 270.378906 128.382812 270.101562 128.382812 270.003906 128.4375 C 269.765625 128.570312 269.523438 128.699219 269.28125 128.824219 C 268.574219 129.183594 267.867188 129.523438 267.15625 129.855469 C 264.984375 130.882812 262.8125 131.773438 260.546875 132.449219 C 259.816406 132.667969 259.066406 132.878906 258.3125 132.941406 C 258.203125 132.953125 257.570312 133.027344 257.578125 132.742188 C 257.585938 132.1875 258.765625 131.640625 259.058594 131.445312 C 260.636719 130.40625 262.257812 129.488281 263.851562 128.488281 C 267.570312 126.160156 271.046875 123.3125 274.523438 120.480469 C 277.0625 118.414062 279.640625 116.402344 282.144531 114.257812 C 282.3125 114.113281 282.785156 113.710938 282.941406 113.578125 C 283.652344 112.976562 284.355469 112.359375 285.058594 111.742188 C 286.925781 110.101562 288.792969 108.433594 290.773438 107 C 291.871094 106.199219 293.125 105.355469 294.4375 105.371094 C 296.355469 105.394531 298.222656 107.515625 300.152344 106.445312 C 301.65625 105.613281 302.472656 103.617188 303.398438 102.0625 C 303.664062 101.617188 304.292969 100.234375 304.816406 100.179688 C 305.148438 100.148438 304.929688 101.152344 304.90625 101.328125 C 304.757812 102.472656 304.429688 104.15625 305.160156 105.101562 C 306.269531 106.535156 308.859375 105.046875 307.808594 102.699219 Z M 307.808594 102.699219 " fill-opacity="1" fill-rule="evenodd"/><path fill="#000000" d="M 247.53125 77.25 C 247.527344 77.214844 247.582031 77.285156 247.613281 77.300781 C 247.65625 77.332031 247.703125 77.359375 247.75 77.386719 C 247.917969 77.480469 248.085938 77.574219 248.253906 77.660156 C 248.382812 77.726562 248.511719 77.792969 248.640625 77.855469 C 248.726562 77.898438 248.8125 77.941406 248.902344 77.980469 C 249.203125 78.121094 250.207031 78.640625 250.175781 77.890625 C 250.15625 77.34375 249.753906 76.785156 249.464844 76.371094 C 248.867188 75.507812 248.261719 74.652344 247.65625 73.796875 C 246.550781 72.230469 245.433594 70.671875 244.296875 69.128906 C 244.03125 68.765625 243.769531 68.394531 243.488281 68.042969 C 243.410156 67.949219 243.273438 67.726562 243.136719 67.722656 C 242.929688 67.714844 242.816406 68.21875 242.769531 68.367188 C 242.546875 69.132812 242.410156 69.933594 242.25 70.71875 C 242 71.964844 241.703125 73.199219 241.382812 74.429688 C 241.25 74.949219 240.941406 75.667969 241.109375 76.210938 C 241.210938 76.550781 241.449219 76.808594 241.671875 77.050781 C 241.976562 77.382812 242.28125 77.707031 242.617188 78 C 242.511719 78.289062 242.839844 79.035156 242.910156 79.304688 C 243.238281 80.542969 243.636719 81.753906 244.03125 82.964844 C 244.816406 85.375 245.6875 87.75 246.765625 90.023438 C 247.933594 92.5 249.304688 94.882812 250.410156 97.394531 C 250.328125 97.382812 249.984375 97.945312 249.929688 98.007812 C 249.371094 98.707031 248.792969 99.394531 248.210938 100.070312 C 245.980469 102.660156 243.59375 105.070312 241.070312 107.316406 C 237.296875 110.679688 232.972656 113.417969 228.554688 115.636719 C 224.144531 117.847656 219.265625 119.628906 214.347656 119.027344 C 214.304688 118.886719 214.074219 119.015625 213.941406 118.980469 C 213.476562 118.855469 213.007812 118.722656 212.554688 118.554688 C 210.828125 117.929688 209.171875 117.171875 207.722656 115.949219 C 203.601562 112.46875 202.421875 106.742188 202.4375 101.246094 C 202.449219 96.511719 203.417969 91.804688 204.871094 87.363281 C 205.457031 85.566406 206.078125 83.789062 206.679688 82 C 206.71875 81.882812 207.25 80.472656 206.976562 80.472656 C 206.75 80.472656 206.488281 80.867188 206.371094 81.035156 C 205.847656 81.769531 205.410156 82.585938 205.039062 83.421875 C 203.515625 86.84375 202.378906 90.535156 201.371094 94.171875 C 200.90625 95.839844 200.480469 97.519531 200.144531 99.222656 C 198.347656 108.34375 198.929688 120.867188 207.441406 125.792969 C 208.734375 126.539062 210.128906 127.101562 211.554688 127.449219 C 221.882812 129.957031 231.207031 123.871094 238.878906 117.183594 C 238.8125 117.242188 239.027344 117.097656 239.097656 117.050781 C 239.238281 116.941406 239.378906 116.832031 239.519531 116.726562 C 239.960938 116.386719 240.402344 116.042969 240.835938 115.6875 C 242.121094 114.644531 243.347656 113.515625 244.523438 112.332031 C 248.257812 108.570312 251.636719 104.421875 252.683594 98.871094 C 252.765625 98.4375 252.839844 97.847656 252.867188 97.421875 C 252.941406 96.28125 252.960938 95.140625 252.929688 94 C 252.832031 90.367188 251.554688 87.335938 250.191406 84.089844 C 249.308594 81.992188 248.5625 79.261719 247.53125 77.25 Z M 247.53125 77.25 " fill-opacity="1" fill-rule="evenodd"/><g clip-path="url(#443720bb49)"><path fill="#000000" d="M 302.464844 8.71875 C 302.492188 8.851562 302.699219 8.730469 302.8125 8.753906 C 303.113281 8.816406 303.40625 8.886719 303.703125 8.957031 C 304.984375 9.269531 306.25 9.679688 307.5 10.109375 C 312.523438 11.835938 317.292969 14.363281 321.625 17.796875 C 332.53125 26.433594 339.699219 41.0625 341.8125 56.082031 C 341.765625 56.105469 341.683594 56.320312 341.652344 56.363281 C 341.496094 56.632812 341.320312 56.890625 341.15625 57.15625 C 340.652344 57.980469 340.082031 58.769531 339.433594 59.449219 C 338.75 60.164062 337.671875 61.121094 336.707031 61.160156 C 335.941406 61.191406 335.160156 60.585938 334.527344 60.179688 C 333.164062 59.316406 331.828125 58.382812 330.5625 57.335938 C 330.597656 57.445312 330.445312 56.9375 330.429688 56.855469 C 330.339844 56.417969 330.242188 55.988281 330.136719 55.558594 C 329.816406 54.222656 329.488281 52.890625 329.15625 51.558594 C 328.160156 47.492188 326.636719 43.46875 325.046875 39.675781 C 320.402344 28.574219 310.902344 16.25 302.464844 8.71875 Z M 302.464844 8.71875 " fill-opacity="1" fill-rule="evenodd"/></g><path fill="#000000" d="M 302.464844 126.503906 C 302.492188 126.371094 302.699219 126.488281 302.8125 126.46875 C 303.113281 126.40625 303.40625 126.335938 303.703125 126.265625 C 304.984375 125.953125 306.25 125.542969 307.5 125.113281 C 312.523438 123.386719 317.292969 120.859375 321.625 117.425781 C 332.53125 108.789062 339.699219 94.160156 341.8125 79.140625 C 341.765625 79.117188 341.683594 78.902344 341.652344 78.859375 C 341.496094 78.589844 341.320312 78.332031 341.15625 78.066406 C 340.652344 77.242188 340.082031 76.453125 339.433594 75.773438 C 338.75 75.058594 337.671875 74.101562 336.707031 74.0625 C 335.941406 74.03125 335.160156 74.636719 334.527344 75.042969 C 333.164062 75.90625 331.828125 76.839844 330.5625 77.886719 C 330.597656 77.777344 330.445312 78.285156 330.429688 78.367188 C 330.339844 78.804688 330.242188 79.234375 330.136719 79.664062 C 329.816406 81 329.488281 82.332031 329.15625 83.664062 C 328.160156 87.730469 326.636719 91.753906 325.046875 95.546875 C 320.402344 106.648438 310.902344 118.972656 302.464844 126.503906 Z M 302.464844 126.503906 " fill-opacity="1" fill-rule="evenodd"/><path fill="#000000" d="M 341.210938 43.425781 C 341.148438 43.402344 340.625 43.199219 340.433594 43.074219 C 340.207031 42.925781 340.085938 42.730469 340.027344 42.582031 C 339.953125 42.390625 339.945312 42.199219 339.988281 42.007812 C 340.027344 41.847656 340.113281 41.625 340.363281 41.46875 C 340.414062 41.433594 340.527344 41.382812 340.671875 41.351562 C 340.882812 41.304688 341.285156 41.273438 341.3125 41.269531 C 342.074219 41.234375 342.839844 41.300781 343.59375 41.425781 C 346.214844 41.855469 348.8125 42.976562 350.980469 44.746094 C 353.089844 46.464844 354.820312 48.777344 355.667969 51.625 C 355.886719 52.367188 356.0625 53.136719 356.136719 53.917969 C 356.152344 54.085938 356.148438 54.289062 356.148438 54.496094 C 356.152344 54.558594 356.15625 54.652344 356.167969 54.722656 C 356.238281 54.746094 356.34375 54.777344 356.414062 54.789062 C 356.582031 54.824219 356.738281 54.855469 356.859375 54.894531 C 357.664062 55.160156 358.417969 55.613281 359.089844 56.191406 C 361.3125 58.105469 362.648438 61.269531 363.113281 64.390625 C 363.195312 64.601562 363.199219 64.839844 363.089844 65.105469 C 363.070312 65.144531 363 65.402344 362.648438 65.539062 C 362.59375 65.5625 362.535156 65.578125 362.472656 65.582031 L 362.402344 65.597656 C 362.25 65.65625 362.097656 65.710938 361.949219 65.765625 C 361.441406 65.941406 360.933594 66.105469 360.425781 66.273438 C 359.550781 66.566406 358.671875 66.855469 357.785156 67.128906 L 358.0625 67.25 C 359.621094 67.9375 361.117188 68.746094 362.632812 69.5625 C 362.976562 69.75 363.140625 70.222656 363.003906 70.644531 C 361.742188 74.414062 359.773438 78.085938 356.59375 80.074219 C 356.324219 80.242188 355.824219 80.582031 355.617188 80.78125 C 354.628906 81.71875 354.0625 82.960938 353.582031 84.308594 C 353.117188 85.617188 352.679688 86.945312 351.980469 88.113281 C 350.425781 90.6875 347.773438 92.445312 345.121094 92.929688 C 344.277344 93.082031 343.417969 93.113281 342.5625 93.050781 C 342.417969 93.039062 342.210938 93.046875 342.019531 93.019531 C 341.78125 92.988281 341.570312 92.90625 341.40625 92.785156 C 341.0625 92.535156 340.992188 92.207031 341.027344 91.882812 C 341.046875 91.726562 341.09375 91.550781 341.207031 91.386719 C 341.328125 91.195312 341.605469 90.984375 341.671875 90.9375 C 342.117188 90.613281 342.578125 90.328125 343.03125 90.023438 C 344.066406 89.316406 345.070312 88.539062 345.839844 87.457031 C 346.8125 86.09375 347.285156 84.488281 347.324219 82.726562 C 347.34375 81.8125 347.253906 80.828125 347.261719 79.867188 C 347.277344 78.75 347.429688 77.660156 347.933594 76.699219 C 348.8125 75.027344 350.5 74.105469 352.019531 73.464844 C 352.105469 73.425781 352.304688 73.367188 352.507812 73.28125 C 352.304688 73.0625 352.039062 72.886719 351.835938 72.722656 C 351.039062 72.078125 350.1875 71.511719 349.332031 70.972656 C 348.585938 70.503906 347.832031 70.050781 347.054688 69.652344 C 346.054688 69.132812 345.019531 68.714844 343.988281 68.292969 C 343.871094 68.246094 343.488281 68.027344 343.324219 67.933594 C 343.292969 67.957031 343.261719 67.988281 343.226562 68.015625 C 343.078125 68.136719 342.941406 68.277344 342.820312 68.378906 C 342.253906 68.878906 341.707031 69.40625 341.164062 69.9375 C 340.632812 70.457031 340.105469 70.980469 339.570312 71.503906 C 338.902344 72.164062 338.238281 72.839844 337.585938 73.53125 C 337.425781 73.703125 337.234375 73.953125 337.027344 74.148438 C 336.800781 74.363281 336.550781 74.519531 336.296875 74.578125 C 336.054688 74.632812 335.808594 74.59375 335.574219 74.480469 C 335.402344 74.398438 335.238281 74.257812 335.089844 74.164062 C 334.648438 73.867188 334.199219 73.574219 333.757812 73.269531 C 331.988281 72.023438 328.894531 69.605469 327.273438 68.101562 C 327.070312 67.914062 326.976562 67.660156 327 67.347656 C 327.007812 67.222656 327.046875 67.035156 327.175781 66.851562 C 327.253906 66.746094 327.421875 66.585938 327.429688 66.578125 C 327.6875 66.34375 327.960938 66.125 328.230469 65.914062 C 328.8125 65.457031 329.394531 65.007812 329.984375 64.570312 C 331.644531 63.339844 334.035156 61.558594 335.695312 60.265625 C 335.777344 60.167969 335.917969 60.070312 336.144531 60.054688 C 336.316406 60.039062 336.484375 60.101562 336.621094 60.214844 C 336.640625 60.226562 336.660156 60.238281 336.667969 60.246094 C 336.734375 60.296875 336.800781 60.34375 336.867188 60.394531 C 337.058594 60.539062 337.238281 60.691406 337.425781 60.839844 C 337.933594 61.242188 338.445312 61.644531 338.949219 62.054688 C 340.371094 63.214844 341.84375 64.34375 343.21875 65.59375 C 343.980469 64.945312 344.863281 64.414062 345.652344 63.839844 C 347.191406 62.710938 348.738281 61.589844 350.28125 60.472656 C 349.734375 60.070312 349.210938 59.601562 348.808594 59.027344 C 348.234375 58.222656 347.972656 57.152344 347.664062 56.195312 C 347.136719 54.554688 346.710938 52.871094 346.175781 51.238281 C 345.414062 48.949219 344.402344 46.617188 342.894531 44.871094 C 342.394531 44.296875 341.835938 43.796875 341.210938 43.425781 Z M 343.414062 43.113281 C 345.796875 43.511719 348.164062 44.527344 350.140625 46.140625 C 351.996094 47.652344 353.539062 49.671875 354.285156 52.183594 C 354.46875 52.800781 354.621094 53.441406 354.679688 54.097656 C 354.699219 54.308594 354.679688 54.585938 354.695312 54.839844 C 354.71875 55.152344 354.785156 55.445312 354.910156 55.679688 C 355.039062 55.933594 355.246094 56.136719 355.519531 56.269531 C 355.816406 56.414062 356.222656 56.453125 356.460938 56.53125 C 357.09375 56.742188 357.683594 57.101562 358.21875 57.558594 C 360.007812 59.101562 361.109375 61.597656 361.574219 64.117188 L 361.523438 64.136719 C 361.023438 64.3125 360.523438 64.472656 360.023438 64.636719 C 358.867188 65.023438 357.707031 65.402344 356.539062 65.75 C 356.371094 65.796875 355.886719 65.859375 355.554688 65.980469 C 355.226562 66.097656 354.992188 66.300781 354.882812 66.480469 C 354.761719 66.675781 354.71875 66.894531 354.757812 67.144531 C 354.78125 67.269531 354.832031 67.476562 355.03125 67.660156 C 355.152344 67.777344 355.917969 68.128906 355.972656 68.152344 C 356.496094 68.378906 357.019531 68.609375 357.542969 68.839844 C 358.847656 69.417969 360.113281 70.085938 361.382812 70.765625 C 360.242188 73.90625 358.558594 76.910156 355.894531 78.578125 C 355.566406 78.785156 354.949219 79.214844 354.6875 79.464844 C 353.511719 80.582031 352.804688 82.046875 352.226562 83.65625 C 351.804688 84.847656 351.421875 86.070312 350.78125 87.136719 C 349.449219 89.34375 347.164062 90.832031 344.894531 91.25 C 344.585938 91.304688 344.269531 91.34375 343.957031 91.363281 C 345.074219 90.585938 346.128906 89.714844 346.96875 88.542969 C 348.15625 86.882812 348.742188 84.921875 348.785156 82.765625 C 348.808594 81.847656 348.714844 80.859375 348.726562 79.890625 C 348.738281 79.082031 348.816406 78.285156 349.183594 77.585938 C 349.890625 76.242188 351.300781 75.582031 352.515625 75.066406 C 352.75 74.964844 353.496094 74.710938 353.832031 74.351562 C 354.195312 73.949219 354.308594 73.464844 354.078125 72.914062 C 353.792969 72.246094 353.171875 71.726562 352.667969 71.320312 C 351.824219 70.644531 350.929688 70.042969 350.027344 69.476562 C 349.253906 68.984375 348.460938 68.515625 347.648438 68.09375 C 346.613281 67.558594 345.542969 67.121094 344.472656 66.6875 C 344.460938 66.683594 344.453125 66.679688 344.4375 66.671875 C 345.082031 66.171875 345.792969 65.746094 346.429688 65.28125 C 348.328125 63.886719 350.238281 62.507812 352.152344 61.128906 C 352.355469 60.976562 352.484375 60.71875 352.492188 60.433594 C 352.503906 60.152344 352.390625 59.882812 352.191406 59.714844 C 352.003906 59.558594 351.703125 59.46875 351.488281 59.328125 C 350.929688 58.960938 350.347656 58.527344 349.9375 57.945312 C 349.46875 57.285156 349.289062 56.386719 349.035156 55.597656 C 348.507812 53.953125 348.078125 52.265625 347.539062 50.628906 C 346.707031 48.121094 345.578125 45.578125 343.925781 43.664062 C 343.761719 43.472656 343.589844 43.289062 343.414062 43.113281 Z M 336.195312 61.921875 C 336.328125 62.027344 336.464844 62.132812 336.597656 62.238281 C 337.101562 62.644531 337.609375 63.039062 338.105469 63.449219 C 339.464844 64.554688 340.867188 65.628906 342.179688 66.8125 C 342.09375 66.886719 342.015625 66.957031 341.941406 67.019531 C 341.351562 67.535156 340.789062 68.085938 340.222656 68.632812 C 339.691406 69.15625 339.160156 69.679688 338.625 70.203125 C 337.941406 70.878906 337.265625 71.570312 336.601562 72.273438 C 336.492188 72.386719 336.378906 72.535156 336.25 72.679688 C 336.191406 72.742188 336.144531 72.824219 336.085938 72.871094 C 336.011719 72.816406 335.886719 72.730469 335.816406 72.683594 C 335.382812 72.394531 334.945312 72.113281 334.519531 71.8125 C 333.027344 70.765625 330.578125 68.867188 328.917969 67.425781 L 329.050781 67.324219 C 329.621094 66.875 330.191406 66.433594 330.773438 66.003906 C 332.335938 64.84375 334.554688 63.195312 336.195312 61.921875 Z M 336.195312 61.921875 " fill-opacity="1" fill-rule="evenodd"/><path fill="#000000" d="M 374.976562 68 L 363.089844 65.105469 L 355.929688 67.171875 L 362.132812 70.683594 Z M 374.976562 68 " fill-opacity="1" fill-rule="evenodd"/><path fill="#000000" d="M 72.515625 15.171875 C 72.488281 15.304688 72.277344 15.183594 72.167969 15.207031 C 71.867188 15.265625 71.574219 15.335938 71.273438 15.410156 C 69.996094 15.722656 68.730469 16.128906 67.476562 16.558594 C 62.457031 18.285156 57.6875 20.816406 53.351562 24.25 C 42.445312 32.886719 35.277344 47.511719 33.164062 62.535156 C 33.214844 62.554688 33.292969 62.769531 33.324219 62.816406 C 33.484375 63.082031 33.660156 63.339844 33.824219 63.605469 C 34.328125 64.433594 34.898438 65.222656 35.546875 65.902344 C 36.230469 66.613281 37.308594 67.570312 38.273438 67.609375 C 39.035156 67.640625 39.816406 67.035156 40.453125 66.628906 C 41.816406 65.765625 43.152344 64.832031 44.417969 63.785156 C 44.382812 63.894531 44.535156 63.386719 44.550781 63.304688 C 44.640625 62.867188 44.738281 62.4375 44.84375 62.007812 C 45.164062 60.671875 45.492188 59.339844 45.820312 58.007812 C 46.820312 53.941406 48.34375 49.921875 49.933594 46.125 C 54.578125 35.023438 64.078125 22.703125 72.515625 15.171875 Z M 72.515625 15.171875 " fill-opacity="1" fill-rule="evenodd"/><path fill="#000000" d="M 72.515625 132.953125 C 72.488281 132.820312 72.277344 132.941406 72.167969 132.917969 C 71.867188 132.855469 71.574219 132.789062 71.273438 132.714844 C 69.996094 132.402344 68.730469 131.992188 67.476562 131.5625 C 62.457031 129.839844 57.6875 127.308594 53.351562 123.875 C 42.445312 115.238281 35.277344 100.613281 33.164062 85.589844 C 33.214844 85.570312 33.292969 85.355469 33.324219 85.308594 C 33.484375 85.042969 33.660156 84.785156 33.824219 84.515625 C 34.328125 83.691406 34.898438 82.902344 35.546875 82.222656 C 36.230469 81.507812 37.308594 80.550781 38.273438 80.511719 C 39.035156 80.484375 39.816406 81.085938 40.453125 81.492188 C 41.816406 82.359375 43.152344 83.289062 44.417969 84.339844 C 44.382812 84.230469 44.535156 84.734375 44.550781 84.820312 C 44.640625 85.253906 44.738281 85.683594 44.84375 86.117188 C 45.164062 87.453125 45.492188 88.785156 45.820312 90.117188 C 46.820312 94.183594 48.34375 98.203125 49.933594 101.996094 C 54.578125 113.101562 64.078125 125.421875 72.515625 132.953125 Z M 72.515625 132.953125 " fill-opacity="1" fill-rule="evenodd"/><path fill="#000000" d="M 33.769531 49.875 C 33.832031 49.851562 34.355469 49.652344 34.546875 49.523438 C 34.773438 49.375 34.894531 49.179688 34.949219 49.035156 C 35.027344 48.839844 35.035156 48.648438 34.992188 48.460938 C 34.949219 48.300781 34.867188 48.074219 34.617188 47.921875 C 34.5625 47.886719 34.453125 47.832031 34.304688 47.800781 C 34.097656 47.757812 33.695312 47.722656 33.667969 47.722656 C 32.902344 47.6875 32.140625 47.753906 31.382812 47.875 C 28.765625 48.308594 26.167969 49.429688 24 51.195312 C 21.890625 52.914062 20.160156 55.226562 19.308594 58.078125 C 19.09375 58.816406 18.914062 59.585938 18.84375 60.367188 C 18.828125 60.535156 18.832031 60.738281 18.832031 60.949219 C 18.828125 61.011719 18.820312 61.101562 18.8125 61.171875 C 18.742188 61.195312 18.636719 61.226562 18.5625 61.242188 C 18.394531 61.273438 18.238281 61.304688 18.121094 61.34375 C 17.316406 61.609375 16.5625 62.0625 15.890625 62.640625 C 13.667969 64.554688 12.328125 67.71875 11.867188 70.84375 C 11.785156 71.054688 11.777344 71.289062 11.890625 71.554688 C 11.90625 71.597656 11.980469 71.855469 12.328125 71.988281 C 12.386719 72.011719 12.445312 72.027344 12.507812 72.03125 L 12.578125 72.050781 C 12.730469 72.109375 12.878906 72.160156 13.03125 72.214844 C 13.539062 72.394531 14.042969 72.558594 14.554688 72.726562 C 15.429688 73.015625 16.308594 73.304688 17.191406 73.578125 L 16.917969 73.699219 C 15.359375 74.386719 13.863281 75.199219 12.347656 76.011719 C 12 76.203125 11.835938 76.675781 11.972656 77.09375 C 13.234375 80.867188 15.207031 84.535156 18.386719 86.527344 C 18.652344 86.691406 19.15625 87.03125 19.363281 87.230469 C 20.347656 88.167969 20.917969 89.414062 21.398438 90.761719 C 21.863281 92.066406 22.300781 93.398438 23 94.5625 C 24.554688 97.140625 27.207031 98.894531 29.855469 99.378906 C 30.699219 99.535156 31.5625 99.5625 32.414062 99.5 C 32.5625 99.488281 32.769531 99.496094 32.960938 99.472656 C 33.195312 99.4375 33.410156 99.359375 33.574219 99.238281 C 33.914062 98.988281 33.988281 98.660156 33.953125 98.332031 C 33.933594 98.175781 33.882812 98.003906 33.773438 97.835938 C 33.648438 97.648438 33.375 97.433594 33.308594 97.386719 C 32.863281 97.066406 32.402344 96.78125 31.949219 96.472656 C 30.914062 95.765625 29.910156 94.988281 29.136719 93.90625 C 28.164062 92.546875 27.695312 90.9375 27.65625 89.175781 C 27.636719 88.261719 27.726562 87.277344 27.714844 86.316406 C 27.703125 85.199219 27.546875 84.113281 27.046875 83.152344 C 26.167969 81.480469 24.480469 80.558594 22.960938 79.917969 C 22.871094 79.878906 22.675781 79.816406 22.472656 79.734375 C 22.675781 79.511719 22.9375 79.339844 23.144531 79.171875 C 23.941406 78.527344 24.789062 77.960938 25.648438 77.421875 C 26.394531 76.953125 27.148438 76.503906 27.925781 76.101562 C 28.925781 75.585938 29.960938 75.164062 30.988281 74.746094 C 31.109375 74.695312 31.492188 74.480469 31.65625 74.386719 C 31.6875 74.410156 31.71875 74.4375 31.753906 74.464844 C 31.898438 74.585938 32.039062 74.726562 32.15625 74.832031 C 32.726562 75.328125 33.273438 75.859375 33.8125 76.390625 C 34.347656 76.910156 34.875 77.429688 35.40625 77.953125 C 36.078125 78.613281 36.738281 79.289062 37.394531 79.980469 C 37.550781 80.152344 37.742188 80.40625 37.953125 80.601562 C 38.179688 80.816406 38.425781 80.96875 38.679688 81.027344 C 38.925781 81.085938 39.167969 81.042969 39.40625 80.929688 C 39.578125 80.847656 39.742188 80.710938 39.886719 80.613281 C 40.332031 80.316406 40.78125 80.027344 41.222656 79.71875 C 42.992188 78.476562 46.082031 76.054688 47.703125 74.554688 C 47.910156 74.363281 48 74.113281 47.980469 73.796875 C 47.96875 73.671875 47.929688 73.484375 47.800781 73.300781 C 47.726562 73.195312 47.558594 73.039062 47.546875 73.03125 C 47.292969 72.792969 47.019531 72.578125 46.75 72.363281 C 46.167969 71.90625 45.585938 71.457031 44.996094 71.019531 C 43.335938 69.792969 40.945312 68.007812 39.285156 66.71875 C 39.199219 66.621094 39.0625 66.523438 38.835938 66.503906 C 38.664062 66.492188 38.492188 66.550781 38.355469 66.667969 C 38.339844 66.679688 38.320312 66.691406 38.3125 66.695312 C 38.246094 66.746094 38.179688 66.796875 38.113281 66.847656 C 37.921875 66.992188 37.738281 67.140625 37.550781 67.289062 C 37.046875 67.695312 36.535156 68.09375 36.03125 68.507812 C 34.609375 69.667969 33.132812 70.796875 31.761719 72.046875 C 31 71.394531 30.113281 70.863281 29.328125 70.292969 C 27.789062 69.164062 26.242188 68.042969 24.695312 66.921875 C 25.242188 66.523438 25.765625 66.050781 26.171875 65.476562 C 26.746094 64.671875 27.007812 63.601562 27.316406 62.644531 C 27.839844 61.003906 28.265625 59.324219 28.804688 57.6875 C 29.5625 55.402344 30.578125 53.070312 32.085938 51.320312 C 32.582031 50.746094 33.144531 50.25 33.769531 49.875 Z M 31.566406 49.566406 C 29.183594 49.960938 26.816406 50.980469 24.839844 52.589844 C 22.984375 54.101562 21.441406 56.125 20.695312 58.632812 C 20.507812 59.253906 20.359375 59.894531 20.300781 60.546875 C 20.277344 60.757812 20.300781 61.035156 20.28125 61.292969 C 20.261719 61.605469 20.195312 61.898438 20.070312 62.132812 C 19.941406 62.386719 19.730469 62.585938 19.460938 62.71875 C 19.164062 62.863281 18.753906 62.902344 18.519531 62.980469 C 17.886719 63.191406 17.292969 63.550781 16.761719 64.007812 C 14.972656 65.550781 13.871094 68.046875 13.40625 70.566406 L 13.457031 70.585938 C 13.953125 70.761719 14.457031 70.921875 14.953125 71.089844 C 16.113281 71.476562 17.273438 71.851562 18.441406 72.199219 C 18.609375 72.25 19.09375 72.3125 19.425781 72.429688 C 19.753906 72.546875 19.984375 72.753906 20.097656 72.929688 C 20.214844 73.125 20.261719 73.347656 20.222656 73.59375 C 20.199219 73.71875 20.144531 73.929688 19.949219 74.113281 C 19.824219 74.226562 19.0625 74.582031 19.007812 74.605469 C 18.484375 74.828125 17.960938 75.058594 17.4375 75.289062 C 16.132812 75.867188 14.867188 76.535156 13.59375 77.21875 C 14.738281 80.359375 16.417969 83.363281 19.082031 85.027344 C 19.414062 85.234375 20.03125 85.667969 20.292969 85.914062 C 21.46875 87.03125 22.175781 88.5 22.75 90.109375 C 23.171875 91.300781 23.554688 92.523438 24.199219 93.585938 C 25.53125 95.792969 27.8125 97.285156 30.082031 97.699219 C 30.394531 97.757812 30.710938 97.792969 31.019531 97.8125 C 29.90625 97.039062 28.847656 96.164062 28.007812 94.996094 C 26.824219 93.332031 26.238281 91.371094 26.195312 89.21875 C 26.171875 88.300781 26.265625 87.308594 26.25 86.34375 C 26.242188 85.53125 26.164062 84.734375 25.792969 84.039062 C 25.085938 82.691406 23.679688 82.03125 22.464844 81.515625 C 22.226562 81.417969 21.480469 81.164062 21.148438 80.800781 C 20.785156 80.402344 20.667969 79.917969 20.898438 79.363281 C 21.183594 78.699219 21.804688 78.179688 22.3125 77.773438 C 23.15625 77.09375 24.046875 76.496094 24.949219 75.925781 C 25.726562 75.4375 26.519531 74.964844 27.332031 74.546875 C 28.363281 74.011719 29.433594 73.574219 30.503906 73.140625 C 30.519531 73.132812 30.527344 73.128906 30.539062 73.125 C 29.898438 72.621094 29.1875 72.195312 28.550781 71.730469 C 26.652344 70.335938 24.742188 68.957031 22.828125 67.578125 C 22.625 67.429688 22.496094 67.167969 22.484375 66.886719 C 22.476562 66.601562 22.585938 66.332031 22.789062 66.167969 C 22.972656 66.007812 23.277344 65.917969 23.488281 65.78125 C 24.046875 65.410156 24.628906 64.980469 25.042969 64.394531 C 25.507812 63.734375 25.691406 62.835938 25.945312 62.046875 C 26.472656 60.402344 26.898438 58.714844 27.441406 57.078125 C 28.273438 54.570312 29.398438 52.03125 31.050781 50.117188 C 31.214844 49.925781 31.390625 49.742188 31.566406 49.566406 Z M 38.78125 68.371094 C 38.648438 68.476562 38.515625 68.585938 38.382812 68.691406 C 37.875 69.09375 37.371094 69.492188 36.875 69.898438 C 35.515625 71.007812 34.109375 72.078125 32.800781 73.261719 C 32.886719 73.335938 32.964844 73.40625 33.035156 73.472656 C 33.628906 73.988281 34.191406 74.535156 34.753906 75.085938 C 35.289062 75.605469 35.820312 76.128906 36.355469 76.652344 C 37.039062 77.332031 37.710938 78.019531 38.378906 78.726562 C 38.484375 78.835938 38.601562 78.988281 38.730469 79.128906 C 38.789062 79.195312 38.835938 79.273438 38.894531 79.320312 C 38.96875 79.269531 39.09375 79.179688 39.164062 79.136719 C 39.59375 78.847656 40.035156 78.5625 40.460938 78.261719 C 41.953125 77.214844 44.398438 75.320312 46.0625 73.875 L 45.929688 73.773438 C 45.359375 73.324219 44.785156 72.882812 44.203125 72.453125 C 42.640625 71.296875 40.425781 69.644531 38.78125 68.371094 Z M 38.78125 68.371094 " fill-opacity="1" fill-rule="evenodd"/><path fill="#000000" d="M 0.00390625 74.449219 L 11.890625 71.554688 L 19.046875 73.621094 L 12.84375 77.136719 Z M 0.00390625 74.449219 " fill-opacity="1" fill-rule="evenodd"/><path fill="#000000" d="M 190.222656 27.917969 C 190.222656 27.917969 190.183594 27.847656 190.179688 27.847656 C 190.148438 27.792969 190.117188 27.738281 190.085938 27.683594 C 189.988281 27.523438 189.878906 27.371094 189.78125 27.214844 C 189.511719 26.773438 188.972656 26.148438 189.09375 25.640625 C 189.246094 24.972656 189.726562 24.289062 190.078125 23.671875 C 190.707031 22.566406 191.363281 21.464844 191.929688 20.335938 C 191.910156 20.382812 192.496094 21.121094 192.542969 21.203125 C 193.097656 22.148438 193.578125 23.121094 194.078125 24.089844 C 195.0625 26.015625 195.886719 27.984375 196.765625 29.941406 C 197.457031 31.488281 198.253906 33.007812 198.820312 34.589844 C 199.109375 35.398438 199.292969 36.222656 199.246094 37.066406 C 199.238281 37.234375 199.265625 37.746094 198.96875 37.796875 C 198.566406 37.867188 198.058594 37.132812 197.867188 36.945312 C 196.957031 36.035156 196.125 35.085938 195.160156 34.203125 C 195.082031 34.410156 195.308594 34.855469 195.34375 35.058594 C 195.46875 35.769531 195.546875 36.488281 195.644531 37.199219 C 195.96875 39.65625 196.214844 42.117188 196.453125 44.582031 C 197.058594 50.816406 197.835938 57.054688 198.738281 63.265625 C 199.171875 66.265625 199.824219 69.25 200.167969 72.257812 C 200.09375 72.28125 200.160156 72.609375 200.164062 72.640625 C 200.1875 73.105469 200.210938 73.570312 200.238281 74.035156 C 200.332031 75.878906 200.519531 77.714844 200.632812 79.558594 C 200.988281 85.308594 202.222656 91.519531 199.542969 97.054688 C 198.992188 98.191406 198.320312 99.304688 197.65625 100.40625 C 197.457031 100.738281 197.226562 101.367188 196.78125 101.5625 C 196.40625 101.730469 196.421875 100.539062 196.417969 100.445312 C 196.375 99.140625 196.367188 97.835938 196.34375 96.53125 C 196.285156 93.363281 196.164062 90.199219 196.074219 87.035156 C 195.96875 83.535156 195.730469 80.050781 195.414062 76.5625 C 195.523438 76.710938 195.367188 76.222656 195.34375 76.050781 C 195.289062 75.679688 195.25 75.308594 195.203125 74.941406 C 195.054688 73.75 194.898438 72.5625 194.753906 71.371094 C 194.34375 68.019531 193.929688 64.667969 193.515625 61.316406 C 192.238281 50.996094 190.59375 38.210938 190.222656 27.917969 Z M 190.222656 27.917969 " fill-opacity="1" fill-rule="evenodd"/><path fill="#000000" d="M 149.457031 97.117188 C 149.457031 97.113281 149.457031 97.101562 149.453125 97.09375 L 149.457031 97.117188 C 149.488281 97.644531 148.597656 97.804688 148.253906 98.21875 C 147.21875 99.464844 146.285156 100.800781 145.367188 102.128906 C 144.320312 103.636719 143.140625 105.136719 141.558594 106.125 C 133.871094 110.914062 125.699219 103.730469 123.730469 96.402344 C 121.671875 88.753906 122.0625 80.582031 121.730469 72.738281 C 121.339844 63.640625 120.234375 54.449219 118.339844 45.527344 C 117.480469 41.472656 116.5625 37.222656 114.367188 33.640625 C 114.171875 33.324219 112.519531 30.710938 111.921875 30.929688 C 110.871094 31.324219 110.035156 34.101562 109.609375 35.023438 C 109.230469 35.847656 108.214844 37.167969 108.214844 38.097656 C 108.214844 38.394531 109.234375 39.035156 109.429688 39.253906 C 110.4375 40.402344 111.394531 41.632812 112.113281 42.988281 C 113.539062 45.695312 114.421875 48.773438 115.0625 51.746094 C 117.101562 61.246094 117.5625 70.742188 118.054688 80.417969 C 118.449219 88.160156 118.722656 96.628906 121.96875 103.804688 C 123.21875 106.566406 124.953125 109.230469 127.402344 111.066406 C 133.777344 115.851562 141.871094 112.675781 146.121094 106.75 C 146.117188 106.726562 146.121094 106.722656 146.136719 106.726562 L 146.121094 106.75 C 146.144531 106.894531 146.574219 107.632812 146.632812 107.710938 C 147.132812 108.414062 147.71875 109.019531 148.363281 109.582031 C 150.496094 111.445312 152.769531 112.820312 155.703125 112.5 C 157.648438 112.292969 159.410156 111.492188 161.050781 110.453125 C 161.6875 110.050781 162.660156 108.925781 163.472656 108.925781 C 164.207031 108.925781 164.621094 109.746094 165.039062 110.214844 C 165.765625 111.03125 166.679688 111.664062 167.695312 112.066406 C 172.839844 114.082031 180.019531 112.40625 183.730469 108.375 C 188.9375 102.714844 187.253906 94.851562 186.632812 87.894531 C 185.363281 73.714844 183.210938 57.492188 181.121094 43.421875 C 181.949219 44.460938 183.324219 45.269531 184.367188 46.085938 C 184.523438 46.203125 185.257812 46.890625 185.507812 46.640625 C 185.722656 46.421875 185.25 45.539062 185.171875 45.332031 C 184.660156 44.019531 184.15625 42.703125 183.628906 41.402344 C 182.503906 38.625 181.261719 35.84375 179.976562 33.128906 C 179.777344 32.710938 179.015625 30.554688 178.429688 30.496094 C 177.96875 30.449219 177.429688 31.21875 177.160156 31.492188 C 176.058594 32.628906 174.714844 34.042969 174 35.457031 C 173.367188 36.707031 175.972656 38.191406 176.28125 39.371094 C 176.679688 40.875 176.4375 42.652344 176.523438 44.191406 C 176.667969 46.878906 177.125 49.554688 177.503906 52.21875 C 178.191406 57.042969 184.214844 96.839844 184.214844 102.386719 C 184.214844 102.96875 181.761719 104.097656 181.320312 104.347656 C 178.398438 106.011719 175.460938 106.679688 172.234375 105.507812 C 171.542969 105.257812 170.160156 104.914062 169.730469 104.253906 C 168.816406 102.824219 171.207031 100.101562 171.824219 98.988281 C 173.679688 95.652344 172.308594 92.496094 170.714844 89.355469 C 170.109375 88.160156 169.363281 86.367188 167.832031 86.230469 C 166.324219 86.101562 164.855469 87.144531 163.734375 88.019531 C 161.113281 90.074219 156.6875 94.746094 157.375 98.574219 C 157.644531 100.074219 158.445312 101.523438 159.210938 102.820312 C 159.570312 103.4375 160.269531 104.234375 159.824219 104.980469 C 157.820312 108.3125 152.195312 105.40625 150.691406 103.191406 C 149.515625 101.457031 149.636719 99.132812 149.457031 97.117188 Z M 164.34375 103.523438 C 163.011719 102.507812 160.3125 100.074219 160.03125 98.355469 C 159.890625 97.484375 160.347656 96.664062 160.859375 95.988281 C 161.953125 94.5625 163.859375 92.269531 165.871094 92.324219 C 167.746094 92.371094 168.910156 94.484375 169.421875 96.035156 C 169.636719 96.6875 169.816406 97.425781 169.601562 98.09375 C 168.976562 100.050781 166.027344 102.5 164.34375 103.523438 Z M 164.34375 103.523438 " fill-opacity="1" fill-rule="evenodd"/><path fill="#000000" d="M 100.382812 99.203125 C 100.394531 99.515625 102.40625 100.871094 102.625 101.027344 C 104.371094 102.269531 106.242188 103.425781 108.320312 104.023438 C 109.167969 104.265625 110.082031 104.488281 110.960938 104.292969 C 113.277344 103.777344 115.386719 100.835938 115.746094 98.617188 C 116.105469 96.414062 115.210938 94.085938 114.175781 92.1875 C 113.269531 90.515625 112.140625 88.804688 110.480469 87.816406 C 109.859375 87.445312 108.765625 87.058594 108.199219 87.101562 C 106.027344 87.265625 104.449219 89.429688 103 90.855469 C 98.304688 95.472656 94.597656 104.425781 86.296875 103.375 C 85.191406 103.234375 82.945312 102.878906 81.921875 102.445312 C 75.34375 99.636719 72.914062 92.484375 71.949219 86.019531 C 71.660156 84.070312 71.066406 82.082031 71.320312 80.109375 C 71.65625 77.515625 74.503906 75.898438 75.828125 73.820312 C 76.042969 73.492188 76.917969 71.78125 76.441406 71.363281 C 76.125 71.09375 75.128906 71.976562 74.925781 72.128906 C 73.570312 73.171875 72.273438 74.289062 71.015625 75.4375 C 70.609375 75.019531 70.371094 74.210938 70.144531 73.6875 C 69.636719 72.519531 69.132812 71.347656 68.484375 70.25 C 68.234375 69.820312 67.925781 69.109375 67.476562 68.84375 C 66.625 68.339844 66.632812 70.742188 66.644531 71.046875 C 66.742188 73.34375 67.152344 75.542969 67.722656 77.765625 C 67.339844 77.746094 66.625 78.476562 66.34375 78.675781 C 65.191406 79.511719 64.070312 80.410156 62.980469 81.324219 C 58.632812 84.980469 54.375 88.515625 55.113281 94.644531 C 55.242188 95.734375 55.269531 97.136719 55.996094 98.023438 C 56.792969 99 58.3125 98.828125 59.414062 98.683594 C 62.191406 98.304688 64.996094 97.242188 67.070312 95.3125 C 67.644531 94.78125 68.226562 94.1875 68.621094 93.507812 C 68.695312 93.382812 69.121094 92.265625 69.292969 92.292969 C 69.441406 92.316406 69.59375 92.816406 69.644531 92.925781 C 69.960938 93.621094 70.261719 94.324219 70.566406 95.027344 C 71.761719 97.78125 73.152344 100.398438 75.027344 102.753906 C 78.488281 107.113281 85.386719 108.644531 90.542969 106.859375 C 94.246094 105.566406 97.746094 102.039062 100.382812 99.203125 Z M 104.203125 95.011719 C 104.121094 94.699219 104.917969 94.128906 105.113281 93.992188 C 106.265625 93.1875 107.609375 93.0625 108.742188 93.976562 C 109.570312 94.644531 110.042969 95.792969 110.078125 96.839844 C 110.097656 97.351562 109.9375 97.960938 109.347656 98.042969 C 108.789062 98.125 108.132812 97.863281 107.632812 97.640625 C 106.484375 97.113281 104.871094 96.519531 103.921875 95.691406 Z M 67.882812 81.617188 C 67.515625 81.785156 60.699219 87.125 59.710938 88.097656 C 58.648438 89.132812 57.679688 90.441406 57.507812 91.957031 C 57.40625 92.839844 57.652344 93.667969 58.582031 93.914062 C 61.425781 94.679688 64.710938 92.1875 66.714844 90.480469 C 67.324219 89.960938 68.351562 89.328125 68.640625 88.539062 C 68.851562 87.964844 68.460938 87.242188 68.367188 86.679688 C 68.179688 85.542969 67.777344 82.425781 67.882812 81.617188 Z M 67.882812 81.617188 " fill-opacity="1" fill-rule="evenodd"/></svg>