<svg xmlns="http://www.w3.org/2000/svg" xmlns:xlink="http://www.w3.org/1999/xlink" width="500" zoomAndPan="magnify" viewBox="0 0 375 157.92" height="200" preserveAspectRatio="xMidYMid meet" version="1.0"><defs><clipPath id="9efd73d9d3"><path d="M 242 10.074219 L 266 10.074219 L 266 36 L 242 36 Z M 242 10.074219 " clip-rule="nonzero"/></clipPath><clipPath id="5a4b26c7f3"><path d="M 103 111 L 147 111 L 147 139.757812 L 103 139.757812 Z M 103 111 " clip-rule="nonzero"/></clipPath><clipPath id="0d193bff9f"><path d="M 355 71 L 374.902344 71 L 374.902344 77 L 355 77 Z M 355 71 " clip-rule="nonzero"/></clipPath><clipPath id="0abcd20aa2"><path d="M 0.09375 77 L 20 77 L 20 84 L 0.09375 84 Z M 0.09375 77 " clip-rule="nonzero"/></clipPath></defs><path fill="#000000" d="M 132.652344 39.574219 C 132.160156 39.957031 131.820312 40.570312 131.507812 41.144531 C 130.957031 42.144531 130.484375 43.191406 130.019531 44.242188 C 129.410156 45.621094 128.828125 47.03125 128.355469 48.472656 C 128.09375 49.273438 127.8125 50.121094 127.757812 50.976562 C 127.679688 52.230469 128.058594 53.6875 128.914062 54.554688 C 129.957031 55.621094 131.804688 55.871094 133.105469 55.289062 C 135.539062 54.195312 136.839844 50.757812 136.160156 48.019531 C 135.777344 46.476562 134.710938 45.289062 133.609375 44.324219 C 133.203125 43.96875 132.792969 43.632812 132.367188 43.316406 C 132.25 43.226562 131.945312 43.066406 131.894531 42.898438 C 131.816406 42.648438 132.101562 42.214844 132.199219 42.011719 C 132.476562 41.417969 133.261719 39.828125 132.652344 39.574219 Z M 130.492188 46.214844 C 130.453125 46.203125 130.210938 46.636719 130.199219 46.664062 C 130.035156 47.011719 129.878906 47.363281 129.765625 47.734375 C 129.398438 48.898438 129.136719 50.496094 130.308594 51.234375 C 131.3125 51.871094 132.589844 51.664062 133.625 51.234375 C 133.929688 51.105469 134.675781 50.824219 134.582031 50.335938 C 134.484375 49.835938 134.074219 49.382812 133.773438 49.015625 C 132.914062 47.964844 131.578125 46.960938 130.492188 46.214844 Z M 130.492188 46.214844 " fill-opacity="1" fill-rule="evenodd"/><path fill="#000000" d="M 182.4375 34.546875 C 182.445312 34.527344 183.300781 35.03125 183.371094 35.074219 C 184.152344 35.523438 184.921875 35.996094 185.703125 36.445312 C 185.773438 36.480469 186.421875 36.984375 186.457031 36.695312 C 186.558594 35.859375 185.378906 34.226562 185.039062 33.503906 C 183.804688 30.878906 182.234375 28.292969 180.601562 25.894531 C 180.179688 25.28125 179.671875 23.902344 178.96875 23.546875 C 178.007812 23.066406 176.015625 24.824219 175.8125 25.707031 C 175.667969 26.328125 176.15625 27.132812 176.386719 27.6875 C 176.929688 28.972656 177.039062 31.660156 177.25 33 C 177.898438 37.144531 178.433594 41.304688 179.085938 45.445312 C 181.476562 60.636719 186.066406 76.007812 184.957031 91.511719 C 184.964844 91.484375 184.882812 91.804688 184.863281 91.867188 C 184.777344 92.1875 184.691406 92.507812 184.585938 92.820312 C 184.269531 93.738281 183.851562 94.636719 183.347656 95.460938 C 181.9375 97.75 179.890625 99.496094 177.804688 101.152344 C 173.867188 104.28125 169.753906 107.210938 165.441406 109.808594 C 163.664062 110.882812 161.878906 111.933594 160.078125 112.964844 C 159.945312 113.039062 158.382812 113.84375 158.570312 114.089844 C 158.847656 114.453125 160.601562 113.910156 160.925781 113.839844 C 163.152344 113.367188 165.371094 112.761719 167.566406 112.148438 C 170.898438 111.207031 174.417969 110.234375 177.359375 108.34375 C 182.277344 105.171875 185.421875 99.28125 187.339844 93.914062 C 187.175781 94.105469 187.441406 93.425781 187.519531 93.1875 C 187.644531 92.78125 187.722656 92.347656 187.816406 91.933594 C 188.089844 90.714844 188.261719 89.464844 188.4375 88.230469 C 189.03125 84.117188 189.046875 80.050781 188.609375 75.921875 C 187.304688 63.546875 184.542969 46.808594 182.4375 34.546875 Z M 182.4375 34.546875 " fill-opacity="1" fill-rule="evenodd"/><path fill="#000000" d="M 122.03125 58.347656 C 121.925781 58.410156 122.277344 58.292969 122.402344 58.285156 C 122.675781 58.28125 122.949219 58.257812 123.222656 58.246094 C 123.582031 58.222656 126.179688 58.257812 126.144531 57.847656 C 126.113281 57.457031 125.042969 56.9375 124.761719 56.722656 C 123.355469 55.671875 121.980469 54.578125 120.617188 53.46875 C 120.429688 53.316406 119.289062 52.015625 119.050781 52.074219 C 118.667969 52.164062 118.472656 53.238281 118.386719 53.527344 C 118 54.859375 116.96875 56.871094 117.320312 58.269531 C 117.566406 59.238281 118.863281 59.394531 119.265625 60.433594 C 120.269531 63.03125 120.644531 65.882812 121.664062 68.519531 C 122.617188 70.960938 124.382812 73.386719 124.679688 76.046875 C 122.128906 77.511719 119.773438 79.667969 117.25 81.257812 C 115.144531 82.582031 112.972656 83.796875 110.777344 84.972656 C 100.347656 90.566406 85.546875 97.1875 74.839844 88.363281 C 73.683594 87.414062 72.585938 86.429688 71.683594 85.222656 C 68.460938 80.921875 69.507812 74.984375 70.539062 70.117188 C 70.921875 68.304688 71.386719 66.511719 71.675781 64.683594 C 71.703125 64.523438 72.011719 63.203125 71.714844 63.132812 C 71.378906 63.050781 70.753906 64.234375 70.632812 64.429688 C 69.691406 65.933594 68.949219 67.53125 68.398438 69.214844 C 66.265625 75.71875 66.320312 83.21875 69.066406 89.546875 C 73.777344 100.40625 87.304688 99.636719 96.867188 97.082031 C 105.238281 94.839844 112.863281 90.507812 119.570312 85.082031 C 121.851562 83.242188 125.332031 80.554688 126.121094 77.535156 C 126.597656 75.71875 126.714844 73.167969 126.476562 71.339844 C 125.949219 67.210938 123.757812 62.132812 122.03125 58.347656 Z M 122.03125 58.347656 " fill-opacity="1" fill-rule="evenodd"/><path fill="#000000" d="M 147.941406 80.164062 C 148.515625 80.441406 150.128906 80.191406 150.804688 80.230469 C 151.027344 80.234375 151.683594 80.339844 151.539062 79.933594 C 151.257812 79.117188 150.429688 78.472656 149.839844 77.886719 C 148.675781 76.726562 147.519531 75.546875 146.339844 74.40625 C 146.019531 74.09375 144.386719 72.265625 143.894531 72.808594 C 143.511719 73.226562 143.484375 73.960938 143.378906 74.488281 C 143.074219 76.046875 142.332031 78.59375 143.230469 80.058594 C 143.6875 80.808594 144.78125 80.703125 145.109375 81.488281 C 145.386719 82.164062 145.292969 83.011719 145.429688 83.71875 C 145.707031 85.144531 146.210938 86.453125 146.898438 87.730469 C 148.792969 91.265625 151.871094 94.304688 153.105469 98.171875 C 153.566406 99.625 154.023438 101.40625 153.390625 102.878906 C 151.628906 107 146.253906 104.183594 145.019531 101.207031 C 144.675781 100.378906 144.453125 99.519531 144.417969 98.621094 C 144.414062 98.460938 144.484375 97.785156 144.265625 97.707031 C 143.753906 97.53125 142.671875 99.707031 142.5 100.011719 C 141.375 101.988281 139.90625 105.710938 137.238281 105.890625 C 135.058594 106.046875 133.292969 104.195312 132.832031 102.175781 C 132.609375 101.199219 132.796875 100.289062 132.984375 99.324219 C 133.027344 99.109375 133.238281 98.5 132.839844 98.523438 C 131.613281 98.609375 130.609375 100.140625 129.894531 100.953125 C 128.003906 103.097656 126.507812 106.136719 123.625 107.074219 C 120.253906 108.183594 116.988281 107.023438 115.605469 103.621094 C 115.21875 102.671875 115.066406 101.683594 114.925781 100.683594 C 114.878906 100.347656 114.863281 99.679688 114.417969 99.613281 C 113.785156 99.519531 113 100.371094 112.585938 100.738281 C 111.105469 102.035156 109.8125 103.519531 108.394531 104.878906 C 105.902344 107.265625 102.273438 107.21875 99.125 106.382812 C 99.144531 106.175781 98.753906 106.210938 98.578125 106.105469 C 97.933594 105.722656 97.308594 105.320312 96.714844 104.855469 C 94.625 103.234375 92.914062 101.0625 91.863281 98.636719 C 88.933594 91.863281 88.867188 83.949219 88.449219 76.707031 C 88.039062 69.601562 87.589844 62.488281 86.707031 55.429688 C 85.859375 48.695312 84.976562 41.210938 81.585938 35.203125 C 80.660156 33.5625 79.597656 31.902344 78.265625 30.558594 C 78.140625 30.433594 77.121094 29.316406 76.921875 29.597656 C 76.445312 30.261719 76.53125 31.859375 76.402344 32.640625 C 76.203125 33.859375 75.214844 36.582031 75.816406 37.71875 C 76.085938 38.226562 76.925781 38.492188 77.363281 38.855469 C 78.328125 39.648438 79.207031 40.582031 79.84375 41.664062 C 80.816406 43.332031 81.15625 45.375 81.53125 47.238281 C 84.933594 64.054688 83.863281 81.707031 88.292969 98.292969 C 89.433594 102.5625 91.359375 107 94.933594 109.78125 C 100.433594 114.058594 109.097656 112.5625 112.371094 106.199219 C 112.378906 106.207031 112.570312 108.441406 112.632812 108.660156 C 113.140625 110.355469 114.378906 111.875 116.046875 112.515625 C 119.558594 113.871094 123.847656 111.820312 126.449219 109.515625 C 127.195312 108.851562 127.914062 108.113281 128.519531 107.3125 C 128.578125 107.230469 129.230469 106.082031 129.25 106.085938 C 129.742188 106.140625 129.5 107.046875 129.714844 107.488281 C 130.242188 108.574219 131.109375 109.804688 132.242188 110.285156 C 135.390625 111.625 138.265625 108.78125 139.980469 106.464844 C 140.265625 106.074219 140.792969 104.632812 141.15625 104.414062 C 141.265625 104.347656 142.261719 106.300781 142.347656 106.441406 C 143.125 107.691406 144.113281 108.828125 145.234375 109.78125 C 148.601562 112.625 152.289062 108.796875 154.054688 105.976562 C 154.117188 106.074219 154.519531 105.382812 154.539062 105.347656 C 154.882812 104.660156 155.070312 103.898438 155.261719 103.160156 C 155.800781 101.105469 155.835938 99.039062 155.347656 96.976562 C 154 91.3125 149.535156 85.679688 147.941406 80.164062 Z M 147.941406 80.164062 " fill-opacity="1" fill-rule="evenodd"/><path fill="#000000" d="M 191.582031 30.417969 C 191.582031 30.417969 191.539062 30.347656 191.539062 30.34375 C 191.507812 30.289062 191.476562 30.234375 191.441406 30.179688 C 191.347656 30.023438 191.238281 29.867188 191.140625 29.710938 C 190.867188 29.273438 190.332031 28.648438 190.453125 28.136719 C 190.605469 27.472656 191.085938 26.789062 191.433594 26.171875 C 192.066406 25.066406 192.71875 23.964844 193.285156 22.835938 C 193.269531 22.882812 193.855469 23.625 193.898438 23.703125 C 194.457031 24.652344 194.9375 25.621094 195.433594 26.589844 C 196.417969 28.515625 197.242188 30.484375 198.117188 32.4375 C 198.8125 33.984375 199.605469 35.503906 200.171875 37.082031 C 200.464844 37.894531 200.644531 38.71875 200.601562 39.558594 C 200.59375 39.726562 200.621094 40.238281 200.320312 40.289062 C 199.917969 40.359375 199.410156 39.628906 199.222656 39.4375 C 198.3125 38.527344 197.480469 37.578125 196.515625 36.699219 C 196.4375 36.90625 196.664062 37.351562 196.699219 37.554688 C 196.824219 38.265625 196.902344 38.980469 197 39.695312 C 197.324219 42.148438 197.570312 44.609375 197.808594 47.070312 C 198.414062 53.300781 199.191406 59.535156 200.089844 65.746094 C 200.527344 68.746094 201.179688 71.726562 201.523438 74.734375 C 201.449219 74.753906 201.515625 75.082031 201.515625 75.113281 C 201.542969 75.578125 201.566406 76.042969 201.589844 76.511719 C 201.6875 78.351562 201.871094 80.1875 201.984375 82.027344 C 202.339844 87.777344 203.574219 93.984375 200.894531 99.515625 C 200.34375 100.65625 199.675781 101.765625 199.011719 102.867188 C 198.808594 103.199219 198.582031 103.828125 198.136719 104.023438 C 197.761719 104.1875 197.777344 103 197.773438 102.90625 C 197.730469 101.601562 197.722656 100.296875 197.699219 98.992188 C 197.640625 95.828125 197.519531 92.664062 197.429688 89.503906 C 197.324219 86.007812 197.085938 82.523438 196.769531 79.035156 C 196.878906 79.183594 196.722656 78.695312 196.699219 78.523438 C 196.648438 78.15625 196.605469 77.785156 196.558594 77.414062 C 196.414062 76.226562 196.257812 75.039062 196.109375 73.847656 C 195.703125 70.5 195.289062 67.148438 194.871094 63.796875 C 193.597656 53.484375 191.953125 40.703125 191.582031 30.417969 Z M 191.582031 30.417969 " fill-opacity="1" fill-rule="evenodd"/><path fill="#000000" d="M 141.425781 39.128906 C 141.425781 39.128906 141.363281 39.089844 141.359375 39.089844 C 141.3125 39.058594 141.265625 39.027344 141.214844 39 C 141.070312 38.914062 140.921875 38.835938 140.777344 38.75 C 140.378906 38.511719 139.703125 38.238281 139.546875 37.78125 C 139.339844 37.183594 139.355469 36.433594 139.316406 35.796875 C 139.242188 34.648438 139.1875 33.492188 139.058594 32.351562 C 139.066406 32.398438 139.832031 32.742188 139.902344 32.785156 C 140.746094 33.3125 141.546875 33.886719 142.355469 34.449219 C 143.964844 35.574219 145.480469 36.804688 147.027344 38 C 148.25 38.945312 149.535156 39.828125 150.683594 40.851562 C 151.273438 41.378906 151.792969 41.960938 152.15625 42.65625 C 152.230469 42.792969 152.492188 43.1875 152.304688 43.355469 C 152.050781 43.578125 151.34375 43.207031 151.121094 43.136719 C 150.042969 42.789062 149.003906 42.378906 147.902344 42.082031 C 147.941406 42.277344 148.3125 42.539062 148.433594 42.6875 C 148.859375 43.207031 149.253906 43.742188 149.660156 44.273438 C 151.050781 46.101562 152.386719 47.964844 153.71875 49.832031 C 157.09375 54.5625 160.589844 59.222656 164.164062 63.8125 C 165.890625 66.027344 167.761719 68.136719 169.425781 70.398438 C 169.382812 70.445312 169.585938 70.679688 169.601562 70.707031 C 169.839844 71.066406 170.078125 71.429688 170.3125 71.789062 C 171.25 73.222656 172.25 74.613281 173.203125 76.039062 C 176.167969 80.488281 179.976562 84.929688 180.6875 90.480469 C 180.832031 91.625 180.878906 92.792969 180.925781 93.953125 C 180.941406 94.300781 181.078125 94.902344 180.851562 95.246094 C 180.664062 95.535156 180.113281 94.578125 180.066406 94.503906 C 179.421875 93.480469 178.796875 92.4375 178.164062 91.40625 C 176.628906 88.898438 175.050781 86.421875 173.492188 83.929688 C 171.765625 81.175781 169.949219 78.492188 168.078125 75.835938 C 168.226562 75.910156 167.882812 75.582031 167.785156 75.457031 C 167.574219 75.179688 167.371094 74.902344 167.164062 74.625 C 166.496094 73.738281 165.824219 72.851562 165.160156 71.960938 C 163.285156 69.453125 161.410156 66.949219 159.53125 64.445312 C 153.753906 56.730469 146.546875 47.199219 141.425781 39.128906 Z M 141.425781 39.128906 " fill-opacity="1" fill-rule="evenodd"/><g clip-path="url(#9efd73d9d3)"><path fill="#000000" d="M 248.035156 20.78125 C 248.09375 20.769531 248.007812 20.902344 247.996094 20.964844 C 247.96875 21.078125 247.945312 21.195312 247.914062 21.308594 C 247.855469 21.519531 247.6875 22.417969 247.328125 22.320312 C 247.148438 22.269531 246.980469 22.066406 246.859375 21.941406 C 246.558594 21.628906 246.273438 21.300781 245.972656 20.992188 C 245.453125 20.449219 244.847656 19.972656 244.210938 19.566406 C 243.867188 19.347656 243.359375 19.167969 243.125 18.828125 C 242.765625 18.308594 242.976562 17.421875 243.011719 16.84375 C 243.109375 15.285156 243.191406 12.585938 245.300781 12.402344 C 246.792969 12.273438 247.875 13.449219 248.738281 14.480469 C 250.816406 16.964844 252.28125 20.109375 253.257812 23.152344 C 253.632812 24.332031 253.992188 25.511719 254.328125 26.699219 C 254.398438 26.949219 254.457031 27.210938 254.546875 27.457031 C 254.5625 27.507812 254.609375 27.652344 254.691406 27.636719 C 254.878906 27.601562 254.941406 27.039062 254.96875 26.910156 C 255.144531 26.125 255.371094 25.347656 255.503906 24.554688 C 256.183594 20.449219 256.847656 17.84375 257.929688 14.726562 C 258.0625 14.347656 258.226562 13.847656 258.382812 13.5 C 258.828125 12.523438 259.414062 11.566406 260.246094 10.863281 C 260.605469 10.558594 261.050781 10.277344 261.539062 10.242188 C 262.097656 10.207031 262.613281 10.460938 263.058594 10.769531 C 264.003906 11.425781 264.742188 12.359375 265.136719 13.421875 C 265.257812 13.746094 265.421875 14.101562 265.398438 14.453125 C 265.347656 15.128906 265.085938 15.800781 264.890625 16.449219 C 264.765625 16.855469 264.640625 17.265625 264.507812 17.667969 C 264.363281 18.109375 264.21875 18.550781 264.050781 18.980469 C 264.015625 19.066406 263.953125 19.3125 263.832031 19.335938 C 263.738281 19.347656 263.652344 19.203125 263.613281 19.140625 C 263.433594 18.867188 263.28125 18.570312 263.121094 18.285156 C 262.558594 17.304688 261.378906 15.339844 259.992188 16.25 C 258.804688 17.027344 258.226562 18.808594 257.796875 20.058594 C 256.738281 23.148438 256.167969 26.425781 255.75 29.652344 C 255.742188 29.605469 255.726562 29.75 255.710938 29.796875 C 255.683594 29.90625 255.652344 30.011719 255.625 30.121094 C 255.53125 30.46875 255.433594 30.8125 255.332031 31.15625 C 254.960938 32.378906 254.546875 33.582031 253.878906 34.683594 C 253.722656 34.949219 253.554688 35.207031 253.351562 35.441406 C 253.320312 35.476562 253.167969 35.675781 253.105469 35.628906 C 252.90625 35.480469 252.980469 34.679688 252.964844 34.46875 C 252.882812 33.378906 252.757812 32.28125 252.554688 31.207031 C 251.917969 27.804688 249.980469 23.667969 248.035156 20.78125 Z M 248.035156 20.78125 " fill-opacity="1" fill-rule="evenodd"/></g><path fill="#000000" d="M 157.71875 27.371094 C 157.78125 27.359375 157.691406 27.492188 157.679688 27.554688 C 157.652344 27.671875 157.628906 27.785156 157.597656 27.902344 C 157.539062 28.109375 157.371094 29.007812 157.011719 28.910156 C 156.832031 28.859375 156.664062 28.65625 156.542969 28.53125 C 156.242188 28.21875 155.957031 27.894531 155.660156 27.582031 C 155.136719 27.042969 154.53125 26.5625 153.894531 26.160156 C 153.550781 25.941406 153.042969 25.761719 152.808594 25.421875 C 152.449219 24.898438 152.660156 24.011719 152.695312 23.433594 C 152.792969 21.878906 152.878906 19.175781 154.984375 18.992188 C 156.476562 18.863281 157.558594 20.042969 158.421875 21.074219 C 160.5 23.558594 161.964844 26.699219 162.941406 29.746094 C 163.320312 30.921875 163.675781 32.101562 164.011719 33.289062 C 164.082031 33.539062 164.140625 33.800781 164.230469 34.046875 C 164.25 34.097656 164.292969 34.242188 164.375 34.226562 C 164.5625 34.191406 164.625 33.628906 164.652344 33.5 C 164.828125 32.714844 165.054688 31.941406 165.1875 31.144531 C 165.867188 27.039062 166.53125 24.433594 167.613281 21.316406 C 167.746094 20.941406 167.910156 20.441406 168.066406 20.089844 C 168.511719 19.117188 169.097656 18.160156 169.929688 17.457031 C 170.292969 17.152344 170.734375 16.867188 171.222656 16.835938 C 171.78125 16.796875 172.296875 17.054688 172.742188 17.363281 C 173.6875 18.015625 174.425781 18.949219 174.820312 20.011719 C 174.945312 20.335938 175.105469 20.691406 175.082031 21.046875 C 175.035156 21.722656 174.769531 22.394531 174.574219 23.039062 C 174.449219 23.445312 174.324219 23.855469 174.191406 24.257812 C 174.046875 24.699219 173.902344 25.140625 173.734375 25.570312 C 173.699219 25.660156 173.636719 25.902344 173.515625 25.925781 C 173.421875 25.941406 173.335938 25.792969 173.296875 25.730469 C 173.117188 25.457031 172.964844 25.164062 172.804688 24.878906 C 172.246094 23.894531 171.0625 21.929688 169.675781 22.839844 C 168.488281 23.621094 167.910156 25.402344 167.480469 26.648438 C 166.421875 29.742188 165.855469 33.019531 165.433594 36.242188 C 165.425781 36.195312 165.410156 36.34375 165.394531 36.390625 C 165.367188 36.5 165.339844 36.605469 165.308594 36.714844 C 165.214844 37.058594 165.117188 37.402344 165.015625 37.746094 C 164.648438 38.972656 164.230469 40.175781 163.566406 41.277344 C 163.40625 41.539062 163.238281 41.800781 163.035156 42.03125 C 163.003906 42.066406 162.851562 42.265625 162.789062 42.21875 C 162.59375 42.070312 162.664062 41.269531 162.648438 41.0625 C 162.566406 39.96875 162.441406 38.875 162.238281 37.796875 C 161.601562 34.398438 159.664062 30.261719 157.71875 27.371094 Z M 157.71875 27.371094 " fill-opacity="1" fill-rule="evenodd"/><path fill="#000000" d="M 251.4375 61.445312 C 251.496094 61.433594 251.410156 61.566406 251.398438 61.628906 C 251.371094 61.742188 251.347656 61.859375 251.316406 61.972656 C 251.257812 62.183594 251.089844 63.082031 250.730469 62.984375 C 250.550781 62.933594 250.382812 62.730469 250.261719 62.605469 C 249.960938 62.292969 249.675781 61.96875 249.375 61.65625 C 248.855469 61.117188 248.25 60.636719 247.613281 60.230469 C 247.269531 60.015625 246.761719 59.835938 246.527344 59.496094 C 246.167969 58.972656 246.378906 58.085938 246.414062 57.507812 C 246.511719 55.953125 246.597656 53.25 248.703125 53.066406 C 250.195312 52.9375 251.277344 54.117188 252.140625 55.148438 C 254.21875 57.632812 255.683594 60.773438 256.660156 63.820312 C 257.039062 64.996094 257.394531 66.175781 257.730469 67.363281 C 257.800781 67.613281 257.859375 67.875 257.949219 68.121094 C 257.964844 68.171875 258.011719 68.316406 258.09375 68.300781 C 258.28125 68.265625 258.34375 67.703125 258.371094 67.574219 C 258.546875 66.789062 258.773438 66.011719 258.90625 65.21875 C 259.585938 61.113281 260.25 58.507812 261.332031 55.390625 C 261.464844 55.015625 261.628906 54.515625 261.785156 54.164062 C 262.230469 53.191406 262.816406 52.234375 263.648438 51.53125 C 264.011719 51.226562 264.453125 50.941406 264.941406 50.90625 C 265.5 50.871094 266.015625 51.128906 266.460938 51.4375 C 267.40625 52.089844 268.144531 53.023438 268.539062 54.085938 C 268.660156 54.410156 268.824219 54.765625 268.800781 55.117188 C 268.75 55.796875 268.488281 56.46875 268.292969 57.113281 C 268.167969 57.519531 268.042969 57.929688 267.910156 58.332031 C 267.765625 58.773438 267.621094 59.214844 267.453125 59.644531 C 267.417969 59.730469 267.355469 59.976562 267.234375 60 C 267.140625 60.015625 267.054688 59.867188 267.015625 59.804688 C 266.835938 59.53125 266.683594 59.234375 266.523438 58.953125 C 265.960938 57.96875 264.78125 56.003906 263.394531 56.914062 C 262.207031 57.695312 261.628906 59.476562 261.199219 60.722656 C 260.140625 63.816406 259.570312 67.09375 259.152344 70.316406 C 259.144531 70.269531 259.128906 70.414062 259.113281 70.464844 C 259.085938 70.570312 259.054688 70.679688 259.027344 70.789062 C 258.933594 71.132812 258.835938 71.476562 258.734375 71.820312 C 258.363281 73.046875 257.949219 74.246094 257.285156 75.351562 C 257.125 75.613281 256.957031 75.871094 256.753906 76.105469 C 256.722656 76.140625 256.570312 76.339844 256.507812 76.292969 C 256.3125 76.144531 256.382812 75.34375 256.367188 75.136719 C 256.285156 74.042969 256.160156 72.949219 255.957031 71.871094 C 255.320312 68.472656 253.382812 64.335938 251.4375 61.445312 Z M 251.4375 61.445312 " fill-opacity="1" fill-rule="evenodd"/><path fill="#000000" d="M 240.03125 48.597656 C 240.023438 48.582031 241.246094 47.894531 241.328125 47.84375 C 242.234375 47.324219 243.144531 46.808594 244.050781 46.292969 C 246.890625 44.683594 249.769531 43.164062 252.652344 41.679688 C 257.679688 39.089844 262.882812 36.949219 268.09375 35.011719 C 269.390625 34.53125 270.683594 34.046875 271.984375 33.59375 C 272.1875 33.527344 272.96875 33.152344 273.125 33.503906 C 273.335938 33.988281 272.464844 35.28125 272.28125 35.664062 C 271.984375 36.296875 271.730469 37.246094 271.300781 37.761719 C 270.800781 38.359375 270.015625 38.585938 269.375 38.832031 C 268.285156 39.25 267.199219 39.664062 266.113281 40.101562 C 259.101562 42.925781 252.355469 46.394531 245.601562 50.035156 C 243.898438 50.957031 242.191406 51.960938 240.425781 52.703125 C 240.183594 52.804688 239.089844 53.398438 238.855469 53.082031 C 238.542969 52.660156 239.894531 49.015625 240.03125 48.597656 Z M 240.03125 48.597656 " fill-opacity="1" fill-rule="evenodd"/><path fill="#000000" d="M 159.125 126.828125 C 159.117188 126.8125 160.335938 126.125 160.421875 126.074219 C 161.328125 125.554688 162.234375 125.039062 163.144531 124.523438 C 165.980469 122.914062 168.863281 121.398438 171.746094 119.914062 C 176.773438 117.324219 181.976562 115.183594 187.1875 113.246094 C 188.484375 112.765625 189.777344 112.277344 191.078125 111.828125 C 191.28125 111.757812 192.0625 111.382812 192.21875 111.738281 C 192.429688 112.21875 191.558594 113.511719 191.375 113.898438 C 191.078125 114.527344 190.824219 115.480469 190.394531 115.992188 C 189.894531 116.589844 189.109375 116.816406 188.464844 117.0625 C 187.378906 117.480469 186.289062 117.894531 185.207031 118.332031 C 178.195312 121.15625 171.449219 124.625 164.695312 128.269531 C 162.988281 129.1875 161.285156 130.195312 159.519531 130.933594 C 159.277344 131.035156 158.179688 131.632812 157.949219 131.3125 C 157.636719 130.890625 158.988281 127.246094 159.125 126.828125 Z M 159.125 126.828125 " fill-opacity="1" fill-rule="evenodd"/><path fill="#000000" d="M 279.695312 43.109375 C 279.582031 42.792969 279.9375 41.980469 280.019531 41.691406 C 280.417969 40.292969 280.894531 38.933594 281.476562 37.632812 C 282.128906 36.175781 282.882812 34.78125 283.707031 33.457031 C 284.152344 32.734375 284.632812 31.933594 285.273438 31.441406 C 286.371094 30.597656 287.871094 30.71875 289.113281 30.769531 C 291.628906 30.867188 294.144531 31.179688 296.632812 31.632812 C 298.238281 31.925781 299.9375 32.25 301.492188 32.835938 C 301.964844 33.015625 302.753906 33.28125 302.933594 33.925781 C 303.148438 34.695312 302.785156 35.660156 302.535156 36.347656 C 301.917969 38.070312 301.09375 39.707031 300.277344 41.308594 C 298.984375 43.839844 297.453125 46.21875 295.816406 48.445312 C 294.652344 50.042969 293.421875 51.667969 291.835938 52.667969 C 289.90625 53.886719 287.644531 54.203125 285.523438 54.640625 C 283.945312 54.964844 282.367188 55.300781 280.78125 55.589844 C 280.398438 55.660156 279.535156 55.972656 279.175781 55.671875 C 278.917969 55.453125 279.871094 54.75 279.957031 54.683594 C 281.144531 53.746094 282.394531 52.917969 283.625 52.058594 C 286.574219 49.988281 289.570312 48 292.554688 46 C 293.21875 45.554688 293.898438 45.132812 294.527344 44.625 C 294.652344 44.527344 295.128906 44.21875 295.042969 43.964844 C 294.933594 43.648438 294.308594 43.550781 294.082031 43.476562 C 292.898438 43.082031 291.652344 42.910156 290.429688 42.773438 C 289.398438 42.65625 288.363281 42.578125 287.332031 42.53125 C 285.335938 42.445312 281.679688 42.828125 279.695312 43.109375 Z M 279.695312 43.109375 " fill-opacity="1" fill-rule="evenodd"/><path fill="#000000" d="M 92.132812 39.640625 C 92.019531 39.386719 92.375 38.71875 92.457031 38.484375 C 92.851562 37.339844 93.328125 36.230469 93.914062 35.167969 C 94.566406 33.976562 95.316406 32.835938 96.140625 31.753906 C 96.589844 31.167969 97.066406 30.511719 97.710938 30.109375 C 98.808594 29.417969 100.304688 29.519531 101.550781 29.558594 C 104.0625 29.640625 106.578125 29.894531 109.070312 30.265625 C 110.671875 30.503906 112.375 30.769531 113.925781 31.25 C 114.402344 31.394531 115.191406 31.613281 115.371094 32.140625 C 115.585938 32.765625 115.21875 33.558594 114.972656 34.117188 C 114.351562 35.527344 113.53125 36.863281 112.714844 38.171875 C 111.421875 40.238281 109.886719 42.179688 108.253906 44.003906 C 107.085938 45.304688 105.859375 46.636719 104.273438 47.453125 C 102.339844 48.445312 100.078125 48.707031 97.960938 49.0625 C 96.382812 49.328125 94.800781 49.605469 93.214844 49.839844 C 92.835938 49.898438 91.972656 50.152344 91.613281 49.90625 C 91.355469 49.726562 92.308594 49.152344 92.394531 49.097656 C 93.578125 48.332031 94.832031 47.65625 96.058594 46.953125 C 99.011719 45.265625 102.007812 43.636719 104.992188 42.003906 C 105.652344 41.640625 106.335938 41.296875 106.964844 40.882812 C 107.089844 40.800781 107.566406 40.550781 107.480469 40.339844 C 107.371094 40.085938 106.746094 40.003906 106.519531 39.945312 C 105.332031 39.621094 104.089844 39.480469 102.867188 39.367188 C 101.835938 39.273438 100.800781 39.207031 99.769531 39.171875 C 97.773438 39.097656 94.117188 39.410156 92.132812 39.640625 Z M 92.132812 39.640625 " fill-opacity="1" fill-rule="evenodd"/><path fill="#000000" d="M 287.871094 68.648438 C 288.007812 68.300781 288.753906 67.882812 289.011719 67.667969 C 290.105469 66.753906 291.210938 65.851562 292.316406 64.953125 C 296.210938 61.785156 300.203125 58.816406 303.941406 55.410156 C 306.542969 53.042969 309.082031 50.59375 311.472656 47.957031 C 312.058594 47.308594 312.660156 46.660156 313.164062 45.925781 C 313.289062 45.746094 313.644531 45.363281 313.628906 45.109375 C 313.621094 44.945312 313.378906 44.792969 313.28125 44.703125 C 312.875 44.335938 312.457031 43.980469 312.050781 43.613281 C 310.644531 42.332031 309.585938 41 310.195312 38.875 C 310.351562 38.324219 310.554688 37.785156 310.808594 37.285156 C 311.878906 35.152344 315.015625 31.421875 317.246094 34.039062 C 318.640625 35.683594 317.703125 39.199219 317.144531 41.023438 C 317.011719 41.457031 316.410156 42.371094 316.425781 42.8125 C 316.429688 42.910156 316.761719 43.074219 316.824219 43.121094 C 317.199219 43.394531 317.613281 43.707031 317.886719 44.105469 C 318.625 45.175781 317.664062 47.070312 317.054688 47.949219 C 316.492188 48.761719 315.679688 47.214844 315.21875 46.730469 C 315.121094 46.628906 314.714844 46.101562 314.566406 46.265625 C 313.660156 47.257812 312.988281 48.550781 312.113281 49.585938 C 308.359375 54.035156 304.316406 58.519531 299.640625 61.734375 C 296.929688 63.597656 294.164062 65.367188 291.402344 67.136719 C 290.65625 67.613281 289.902344 68.097656 289.125 68.515625 C 288.859375 68.660156 288.183594 68.703125 287.871094 68.648438 Z M 315.492188 41.738281 C 315.460938 41.703125 315.558594 41.382812 315.570312 41.335938 C 315.648438 40.917969 315.734375 40.488281 315.753906 40.058594 C 315.808594 38.941406 315.5625 37.605469 314.792969 36.816406 C 313.992188 36 313.074219 36.261719 312.421875 37.144531 C 312.277344 37.339844 311.921875 37.808594 311.984375 38.097656 C 312.078125 38.511719 312.449219 38.960938 312.699219 39.25 C 313.441406 40.097656 314.707031 40.941406 315.492188 41.738281 Z M 315.492188 41.738281 " fill-opacity="1" fill-rule="evenodd"/><path fill="#000000" d="M 223.355469 92.972656 C 223.335938 92.890625 223.277344 93.117188 223.242188 93.191406 C 223.175781 93.335938 223.113281 93.480469 223.046875 93.625 C 222.835938 94.097656 222.625 94.5625 222.414062 95.03125 C 221.839844 96.308594 221.273438 97.585938 220.730469 98.878906 C 219.183594 102.566406 217.484375 106.832031 217.847656 111.042969 C 217.96875 112.414062 218.351562 114.734375 219.761719 115.085938 C 221.65625 115.5625 222.945312 112.746094 223.554688 111.148438 C 223.710938 110.742188 223.847656 110.324219 223.960938 109.898438 C 224.125 109.308594 224.355469 108.410156 224.21875 107.777344 C 224.109375 107.285156 223.644531 107.976562 223.546875 108.117188 C 223.089844 108.765625 222.738281 109.898438 222.085938 110.304688 C 221.273438 110.808594 220.519531 109.363281 220.285156 108.695312 C 218.96875 104.992188 221.117188 101.242188 222.410156 97.976562 C 222.910156 96.726562 223.621094 94.425781 223.355469 92.972656 Z M 223.355469 92.972656 " fill-opacity="1" fill-rule="evenodd"/><path fill="#000000" d="M 168.640625 74.9375 C 168.621094 74.855469 168.5625 75.082031 168.527344 75.15625 C 168.460938 75.300781 168.398438 75.445312 168.332031 75.589844 C 168.121094 76.058594 167.910156 76.527344 167.699219 76.996094 C 167.125 78.269531 166.558594 79.550781 166.015625 80.84375 C 164.46875 84.53125 162.769531 88.792969 163.132812 93.003906 C 163.253906 94.375 163.636719 96.695312 165.046875 97.050781 C 166.941406 97.523438 168.230469 94.707031 168.839844 93.109375 C 168.996094 92.703125 169.132812 92.285156 169.246094 91.863281 C 169.410156 91.269531 169.640625 90.375 169.503906 89.742188 C 169.394531 89.246094 168.929688 89.941406 168.832031 90.082031 C 168.375 90.726562 168.023438 91.863281 167.371094 92.265625 C 166.558594 92.773438 165.804688 91.324219 165.570312 90.660156 C 164.253906 86.957031 166.402344 83.203125 167.695312 79.941406 C 168.195312 78.6875 168.90625 76.390625 168.640625 74.9375 Z M 168.640625 74.9375 " fill-opacity="1" fill-rule="evenodd"/><path fill="#000000" d="M 221.144531 52.640625 C 221.136719 52.597656 221.824219 52.613281 221.921875 52.605469 C 222.222656 52.585938 224.386719 52.597656 224.308594 52.101562 C 224.21875 51.472656 223 50.535156 222.628906 50.132812 C 221.074219 48.441406 219.429688 46.820312 217.726562 45.328125 C 217.601562 45.214844 215.839844 43.542969 215.726562 43.644531 C 214.789062 44.53125 214.277344 47.292969 213.792969 48.554688 C 213.640625 48.941406 213.242188 49.648438 213.316406 50.105469 C 213.4375 50.816406 215.011719 50.773438 215.382812 51.644531 C 216.691406 54.683594 221.636719 61.628906 222.558594 62.402344 C 222.238281 63.808594 220.746094 66.191406 220.164062 67.460938 C 218.066406 71.992188 214.90625 77.484375 215.726562 82.945312 C 215.957031 84.449219 216.371094 85.933594 216.980469 87.277344 C 217.378906 88.164062 217.867188 89.011719 218.4375 89.753906 C 218.882812 90.332031 219.378906 90.863281 219.949219 91.265625 C 223.425781 93.742188 226.746094 89.652344 229.210938 87.046875 C 231.507812 84.617188 234.203125 81.773438 235.257812 78.210938 C 236.632812 73.59375 234.601562 69.628906 231.925781 66.40625 C 230.925781 65.210938 228.011719 63.277344 228.414062 61.253906 C 228.75 59.585938 230.078125 58.046875 230.941406 56.753906 C 232.597656 54.265625 234.238281 51.761719 235.796875 49.183594 C 236.34375 48.28125 238.046875 45.667969 237.164062 44.414062 C 236.671875 43.707031 235.765625 44.757812 235.371094 45.128906 C 233.894531 46.519531 232.621094 48.246094 231.375 49.910156 C 230.539062 51.011719 229.730469 52.125 228.9375 53.261719 C 228.488281 53.902344 228.070312 54.558594 227.65625 55.226562 C 227.410156 55.628906 227.167969 56.035156 226.921875 56.445312 C 226.128906 57.78125 225.890625 58.324219 224.871094 57.214844 C 224.625 56.949219 224.386719 56.664062 224.15625 56.378906 C 223.820312 55.960938 223.496094 55.523438 223.175781 55.085938 C 222.65625 54.390625 220.726562 52.222656 220.214844 51.519531 Z M 225.207031 66.796875 C 224.882812 67.46875 223.699219 68.648438 223.167969 69.367188 C 222.0625 70.855469 221.480469 72.574219 220.691406 74.324219 C 220.136719 75.546875 219.890625 76.898438 219.613281 78.253906 C 218.980469 81.285156 220.527344 84.507812 223.433594 84.230469 C 224.820312 84.09375 225.917969 83.269531 226.957031 82.257812 C 229.414062 79.859375 232.375 76.761719 230.226562 72.738281 C 229.105469 70.628906 226.886719 68.25 225.207031 66.796875 Z M 225.207031 66.796875 " fill-opacity="1" fill-rule="evenodd"/><path fill="#000000" d="M 314.527344 73.066406 C 315.417969 71.457031 316.648438 69.957031 317.824219 68.625 C 318.015625 68.40625 318.722656 67.398438 319.058594 67.492188 C 319.996094 67.75 320.457031 71.050781 320.578125 71.855469 C 320.730469 72.933594 320.738281 74.035156 320.652344 75.125 C 320.3125 79.832031 318.902344 85.078125 315.914062 88.363281 C 314.183594 90.269531 311.832031 91.273438 309.660156 89.789062 C 308.84375 89.230469 308.109375 88.503906 307.441406 87.707031 C 306.273438 86.300781 305.371094 84.539062 304.65625 82.757812 C 304.570312 82.5625 304.445312 83.113281 304.355469 83.296875 C 304.179688 83.65625 303.996094 84.015625 303.816406 84.367188 C 303.3125 85.359375 302.820312 86.355469 302.28125 87.316406 C 300.695312 90.160156 298.550781 93.425781 295.679688 94.480469 C 291.515625 96.015625 287.230469 91.464844 285.90625 87.089844 C 285.421875 85.488281 285.375 84.023438 285.355469 82.363281 C 285.359375 82.367188 283.980469 83.9375 283.875 84.039062 C 282.238281 85.664062 280.542969 87 278.652344 88.160156 C 278.582031 87.878906 279.046875 90.71875 279.046875 91.371094 C 279.046875 93.195312 279.058594 94.449219 278.542969 96.457031 C 278.34375 97.207031 276.980469 99.453125 276.664062 99.933594 C 274.367188 103.457031 271.875 106.734375 269.132812 109.769531 C 261.386719 118.324219 250.269531 128.207031 239.480469 121.222656 C 238.058594 120.300781 236.730469 119.183594 235.625 117.773438 C 234.140625 115.886719 233.089844 113.648438 232.480469 111.171875 C 230.988281 105.066406 232.089844 98.359375 233.636719 92.421875 C 234.070312 90.757812 234.617188 89.140625 235.265625 87.582031 C 235.316406 87.46875 235.765625 86.238281 235.972656 86.5 C 236.296875 86.90625 235.910156 88.386719 235.847656 88.835938 C 235.539062 91.269531 235.195312 93.695312 234.9375 96.140625 C 234.238281 102.789062 234.992188 110.085938 240.027344 114.1875 C 248.351562 120.964844 257.390625 112.195312 263.972656 106.519531 C 269.285156 101.9375 275.441406 97.050781 275.3125 88.523438 C 275.109375 88.585938 274.835938 89.015625 274.664062 89.152344 C 274.066406 89.632812 273.417969 90.039062 272.773438 90.40625 C 270.59375 91.632812 268.257812 92.414062 265.839844 92.414062 C 264.796875 92.414062 263.742188 92.238281 262.746094 91.886719 C 261.949219 91.605469 261.183594 91.191406 260.492188 90.636719 C 255.269531 86.414062 258.992188 77.820312 261.898438 73.363281 C 263.308594 71.203125 265.519531 67.960938 268.125 68.167969 C 270.644531 68.371094 273.003906 71.214844 274.4375 73.460938 C 275.742188 75.492188 276.539062 77.925781 277.21875 80.332031 C 277.15625 80.0625 277.695312 80.273438 277.925781 80.199219 C 278.324219 80.070312 278.722656 79.902344 279.117188 79.714844 C 280.269531 79.160156 281.40625 78.414062 282.398438 77.523438 C 283.871094 76.210938 285.019531 74.523438 286.265625 72.9375 C 286.558594 72.570312 287.265625 71.363281 287.789062 71.660156 C 288.769531 72.210938 288.777344 75.066406 288.910156 76.105469 C 289.367188 79.6875 289.351562 83.703125 293.042969 84.464844 C 293.59375 84.582031 294.160156 84.605469 294.722656 84.554688 C 298.964844 84.175781 301.925781 79.890625 303.796875 75.738281 C 304.503906 74.171875 305.097656 72.535156 305.8125 70.972656 C 305.988281 70.605469 306.308594 69.675781 306.757812 69.691406 C 307.050781 69.699219 307.128906 70.222656 307.175781 70.476562 C 307.367188 71.480469 307.394531 72.53125 307.421875 73.554688 C 307.378906 73.433594 307.378906 73.8125 307.367188 73.945312 C 307.34375 74.199219 307.308594 74.449219 307.300781 74.707031 C 307.269531 75.558594 307.332031 76.4375 307.476562 77.269531 C 307.917969 79.777344 309.324219 81.667969 311.503906 82.109375 C 315.164062 82.851562 315.886719 76.179688 314.527344 73.066406 Z M 270.320312 83.222656 C 270.308594 83.273438 269.957031 83.371094 269.914062 83.390625 C 269.511719 83.550781 269.097656 83.683594 268.675781 83.785156 C 267.339844 84.101562 264.582031 84.585938 264.0625 82.460938 C 263.542969 80.332031 265.722656 78.125 267.402344 78.375 C 268.734375 78.574219 270.0625 81.015625 270.320312 83.222656 Z M 270.320312 83.222656 " fill-opacity="1" fill-rule="evenodd"/><path fill="#000000" d="M 212.214844 26.234375 L 217.398438 18.902344 L 225.136719 25.148438 L 220.003906 32.746094 Z M 212.214844 26.234375 " fill-opacity="1" fill-rule="evenodd"/><path fill="#000000" d="M 133.464844 63.855469 L 138.644531 56.519531 L 146.382812 62.765625 L 141.253906 70.367188 Z M 133.464844 63.855469 " fill-opacity="1" fill-rule="evenodd"/><path fill="#000000" d="M 94.128906 60.835938 L 99.3125 53.503906 L 107.050781 59.75 L 101.921875 67.347656 Z M 94.128906 60.835938 " fill-opacity="1" fill-rule="evenodd"/><path fill="#000000" d="M 225.132812 26.234375 L 230.3125 18.902344 L 238.050781 25.148438 L 232.921875 32.746094 Z M 225.132812 26.234375 " fill-opacity="1" fill-rule="evenodd"/><path fill="#000000" d="M 307.765625 108.640625 C 307.710938 108.65625 307.875 108.269531 307.894531 108.222656 C 307.980469 107.972656 308.0625 107.722656 308.15625 107.472656 C 308.367188 106.898438 308.597656 106.335938 308.804688 105.757812 C 308.824219 105.710938 308.957031 105.242188 309.039062 105.289062 C 309.117188 105.335938 309.144531 105.578125 309.167969 105.660156 C 309.292969 106.082031 309.425781 106.5 309.519531 106.9375 C 309.929688 108.890625 309.910156 110.90625 309.171875 112.746094 C 308.648438 114.050781 307.632812 115 306.433594 115.144531 C 304.921875 115.328125 303.414062 113.839844 303.359375 111.945312 C 303.359375 111.9375 303.191406 112.105469 303.183594 112.121094 C 303.097656 112.238281 303.015625 112.363281 302.9375 112.488281 C 302.683594 112.894531 302.445312 113.320312 302.207031 113.742188 C 301.464844 115.078125 300.570312 116.671875 299.175781 116.964844 C 297.300781 117.359375 295.960938 115.546875 294.210938 115.257812 C 293.34375 115.113281 292.472656 115.460938 291.695312 115.902344 C 290.339844 116.679688 289.121094 117.792969 287.945312 118.910156 C 287.429688 119.398438 286.753906 120.023438 286.246094 120.507812 C 285.140625 121.574219 284.027344 122.628906 282.902344 123.664062 C 278.792969 127.449219 274.851562 131.292969 270.28125 134.214844 C 270.355469 134.3125 270.078125 134.3125 269.980469 134.367188 C 269.742188 134.5 269.5 134.628906 269.257812 134.753906 C 268.550781 135.113281 267.84375 135.449219 267.136719 135.785156 C 264.964844 136.808594 262.789062 137.699219 260.527344 138.375 C 259.796875 138.59375 259.046875 138.804688 258.296875 138.867188 C 258.183594 138.878906 257.550781 138.953125 257.558594 138.667969 C 257.570312 138.117188 258.746094 137.566406 259.039062 137.375 C 260.617188 136.332031 262.238281 135.417969 263.832031 134.417969 C 267.550781 132.089844 271.023438 129.246094 274.496094 126.414062 C 277.035156 124.347656 279.613281 122.339844 282.113281 120.195312 C 282.28125 120.050781 282.753906 119.648438 282.910156 119.515625 C 283.625 118.914062 284.324219 118.296875 285.027344 117.679688 C 286.894531 116.039062 288.761719 114.371094 290.738281 112.9375 C 291.835938 112.140625 293.089844 111.296875 294.402344 111.3125 C 296.320312 111.335938 298.183594 113.457031 300.113281 112.386719 C 301.617188 111.554688 302.429688 109.558594 303.359375 108.003906 C 303.625 107.558594 304.25 106.179688 304.773438 106.125 C 305.109375 106.089844 304.886719 107.097656 304.863281 107.269531 C 304.71875 108.414062 304.386719 110.097656 305.117188 111.042969 C 306.226562 112.476562 308.816406 110.988281 307.765625 108.640625 Z M 307.765625 108.640625 " fill-opacity="1" fill-rule="evenodd"/><g clip-path="url(#5a4b26c7f3)"><path fill="#000000" d="M 144.722656 114.390625 C 144.679688 114.402344 144.808594 114.082031 144.824219 114.042969 C 144.898438 113.832031 144.964844 113.621094 145.039062 113.417969 C 145.214844 112.9375 145.402344 112.46875 145.574219 111.988281 C 145.589844 111.945312 145.699219 111.554688 145.769531 111.597656 C 145.828125 111.632812 145.851562 111.835938 145.875 111.90625 C 145.976562 112.257812 146.085938 112.605469 146.160156 112.96875 C 146.5 114.597656 146.484375 116.277344 145.878906 117.808594 C 145.449219 118.898438 144.613281 119.6875 143.628906 119.808594 C 142.386719 119.960938 141.148438 118.722656 141.101562 117.144531 C 141.101562 117.136719 140.96875 117.277344 140.957031 117.289062 C 140.886719 117.386719 140.824219 117.492188 140.757812 117.597656 C 140.546875 117.933594 140.351562 118.289062 140.15625 118.640625 C 139.546875 119.753906 138.816406 121.082031 137.667969 121.328125 C 136.132812 121.652344 135.03125 120.144531 133.59375 119.902344 C 132.882812 119.78125 132.167969 120.070312 131.527344 120.441406 C 130.414062 121.085938 129.414062 122.015625 128.449219 122.949219 C 128.027344 123.355469 127.472656 123.875 127.054688 124.28125 C 126.144531 125.167969 125.234375 126.046875 124.308594 126.910156 C 120.9375 130.066406 117.703125 133.265625 113.949219 135.703125 C 114.007812 135.785156 113.78125 135.785156 113.703125 135.828125 C 113.503906 135.941406 113.304688 136.050781 113.105469 136.152344 C 112.527344 136.449219 111.949219 136.734375 111.367188 137.011719 C 109.582031 137.867188 107.800781 138.609375 105.941406 139.171875 C 105.339844 139.355469 104.726562 139.527344 104.109375 139.582031 C 104.015625 139.589844 103.5 139.652344 103.503906 139.414062 C 103.511719 138.953125 104.480469 138.496094 104.71875 138.335938 C 106.015625 137.46875 107.34375 136.703125 108.652344 135.875 C 111.707031 133.929688 114.558594 131.5625 117.410156 129.203125 C 119.492188 127.480469 121.609375 125.804688 123.664062 124.019531 C 123.800781 123.898438 124.1875 123.5625 124.316406 123.453125 C 124.902344 122.949219 125.476562 122.4375 126.054688 121.921875 C 127.585938 120.558594 129.121094 119.164062 130.742188 117.972656 C 131.644531 117.308594 132.671875 116.601562 133.75 116.617188 C 135.324219 116.636719 136.855469 118.402344 138.4375 117.511719 C 139.671875 116.816406 140.34375 115.152344 141.101562 113.859375 C 141.320312 113.488281 141.835938 112.335938 142.265625 112.292969 C 142.539062 112.265625 142.359375 113.101562 142.339844 113.246094 C 142.21875 114.199219 141.949219 115.605469 142.546875 116.390625 C 143.457031 117.585938 145.582031 116.34375 144.722656 114.390625 Z M 144.722656 114.390625 " fill-opacity="1" fill-rule="evenodd"/></g><path fill="#000000" d="M 247.515625 83.203125 C 247.515625 83.167969 247.570312 83.238281 247.597656 83.257812 C 247.644531 83.285156 247.691406 83.3125 247.738281 83.339844 C 247.902344 83.4375 248.070312 83.527344 248.242188 83.617188 C 248.367188 83.683594 248.496094 83.75 248.625 83.8125 C 248.714844 83.855469 248.800781 83.894531 248.886719 83.9375 C 249.191406 84.078125 250.191406 84.597656 250.164062 83.847656 C 250.140625 83.296875 249.738281 82.742188 249.449219 82.324219 C 248.851562 81.464844 248.25 80.605469 247.644531 79.753906 C 246.539062 78.1875 245.421875 76.632812 244.289062 75.089844 C 244.019531 74.726562 243.757812 74.355469 243.476562 74.003906 C 243.398438 73.90625 243.261719 73.6875 243.125 73.683594 C 242.917969 73.675781 242.804688 74.179688 242.761719 74.328125 C 242.535156 75.09375 242.402344 75.890625 242.242188 76.675781 C 241.988281 77.921875 241.695312 79.15625 241.375 80.386719 C 241.238281 80.902344 240.933594 81.625 241.097656 82.167969 C 241.203125 82.503906 241.441406 82.761719 241.664062 83.007812 C 241.964844 83.339844 242.269531 83.664062 242.605469 83.953125 C 242.5 84.242188 242.828125 84.988281 242.898438 85.257812 C 243.226562 86.496094 243.625 87.707031 244.019531 88.917969 C 244.804688 91.328125 245.675781 93.699219 246.75 95.972656 C 247.921875 98.449219 249.292969 100.832031 250.398438 103.339844 C 250.3125 103.324219 249.96875 103.890625 249.917969 103.953125 C 249.355469 104.648438 248.78125 105.335938 248.195312 106.015625 C 245.964844 108.601562 243.582031 111.011719 241.0625 113.253906 C 237.289062 116.621094 232.96875 119.355469 228.550781 121.570312 C 224.144531 123.78125 219.265625 125.5625 214.351562 124.964844 C 214.308594 124.820312 214.078125 124.949219 213.945312 124.914062 C 213.480469 124.789062 213.011719 124.65625 212.558594 124.488281 C 210.835938 123.863281 209.179688 123.109375 207.730469 121.882812 C 203.609375 118.40625 202.433594 112.683594 202.449219 107.191406 C 202.460938 102.457031 203.425781 97.75 204.878906 93.3125 C 205.464844 91.519531 206.089844 89.742188 206.6875 87.953125 C 206.726562 87.835938 207.257812 86.425781 206.984375 86.425781 C 206.757812 86.425781 206.496094 86.820312 206.378906 86.988281 C 205.859375 87.722656 205.417969 88.539062 205.046875 89.375 C 203.523438 92.796875 202.390625 96.484375 201.378906 100.117188 C 200.917969 101.785156 200.492188 103.464844 200.15625 105.167969 C 198.359375 114.28125 198.941406 126.800781 207.449219 131.722656 C 208.738281 132.46875 210.132812 133.03125 211.558594 133.378906 C 221.882812 135.886719 231.203125 129.800781 238.871094 123.121094 C 238.804688 123.175781 239.019531 123.035156 239.089844 122.984375 C 239.230469 122.875 239.371094 122.769531 239.507812 122.660156 C 239.953125 122.320312 240.390625 121.976562 240.828125 121.625 C 242.113281 120.582031 243.335938 119.453125 244.511719 118.269531 C 248.246094 114.507812 251.621094 110.363281 252.667969 104.8125 C 252.75 104.382812 252.828125 103.792969 252.851562 103.367188 C 252.925781 102.226562 252.945312 101.085938 252.914062 99.949219 C 252.816406 96.316406 251.539062 93.285156 250.175781 90.039062 C 249.296875 87.945312 248.546875 85.21875 247.515625 83.203125 Z M 247.515625 83.203125 " fill-opacity="1" fill-rule="evenodd"/><path fill="#000000" d="M 302.425781 14.714844 C 302.453125 14.847656 302.660156 14.726562 302.769531 14.75 C 303.074219 14.8125 303.367188 14.882812 303.664062 14.953125 C 304.941406 15.265625 306.207031 15.675781 307.457031 16.105469 C 312.476562 17.828125 317.246094 20.355469 321.578125 23.789062 C 332.476562 32.421875 339.640625 47.039062 341.753906 62.054688 C 341.703125 62.074219 341.625 62.289062 341.59375 62.335938 C 341.433594 62.601562 341.261719 62.859375 341.097656 63.128906 C 340.589844 63.953125 340.023438 64.742188 339.375 65.421875 C 338.691406 66.132812 337.613281 67.089844 336.648438 67.128906 C 335.886719 67.160156 335.105469 66.554688 334.46875 66.148438 C 333.109375 65.285156 331.773438 64.351562 330.507812 63.304688 C 330.542969 63.414062 330.390625 62.910156 330.375 62.824219 C 330.285156 62.390625 330.1875 61.960938 330.082031 61.527344 C 329.761719 60.195312 329.433594 58.863281 329.105469 57.53125 C 328.105469 53.46875 326.582031 49.449219 324.992188 45.65625 C 320.351562 34.558594 310.859375 22.242188 302.425781 14.714844 Z M 302.425781 14.714844 " fill-opacity="1" fill-rule="evenodd"/><path fill="#000000" d="M 302.425781 132.4375 C 302.453125 132.308594 302.660156 132.425781 302.769531 132.402344 C 303.074219 132.34375 303.367188 132.273438 303.664062 132.199219 C 304.941406 131.886719 306.207031 131.480469 307.457031 131.050781 C 312.476562 129.324219 317.246094 126.796875 321.578125 123.363281 C 332.476562 114.734375 339.640625 100.113281 341.753906 85.097656 C 341.703125 85.078125 341.625 84.863281 341.59375 84.820312 C 341.433594 84.550781 341.261719 84.292969 341.097656 84.027344 C 340.589844 83.203125 340.023438 82.414062 339.375 81.734375 C 338.691406 81.023438 337.613281 80.066406 336.648438 80.027344 C 335.886719 79.996094 335.105469 80.601562 334.46875 81.003906 C 333.109375 81.871094 331.773438 82.800781 330.507812 83.847656 C 330.542969 83.738281 330.390625 84.246094 330.375 84.328125 C 330.285156 84.765625 330.1875 85.195312 330.082031 85.625 C 329.761719 86.960938 329.433594 88.292969 329.105469 89.625 C 328.105469 93.6875 326.582031 97.707031 324.992188 101.5 C 320.351562 112.597656 310.859375 124.910156 302.425781 132.4375 Z M 302.425781 132.4375 " fill-opacity="1" fill-rule="evenodd"/><path fill="#000000" d="M 341.148438 49.402344 C 341.085938 49.378906 340.5625 49.179688 340.375 49.050781 C 340.148438 48.902344 340.027344 48.707031 339.96875 48.5625 C 339.894531 48.371094 339.886719 48.179688 339.929688 47.988281 C 339.96875 47.828125 340.054688 47.605469 340.300781 47.449219 C 340.355469 47.414062 340.464844 47.363281 340.613281 47.332031 C 340.820312 47.285156 341.226562 47.253906 341.253906 47.25 C 342.015625 47.214844 342.777344 47.28125 343.535156 47.40625 C 346.152344 47.835938 348.75 48.957031 350.914062 50.722656 C 353.023438 52.441406 354.753906 54.75 355.601562 57.601562 C 355.820312 58.339844 355.996094 59.109375 356.066406 59.890625 C 356.085938 60.058594 356.082031 60.261719 356.082031 60.46875 C 356.085938 60.53125 356.089844 60.625 356.097656 60.695312 C 356.167969 60.71875 356.277344 60.75 356.347656 60.761719 C 356.515625 60.796875 356.671875 60.828125 356.789062 60.867188 C 357.59375 61.132812 358.347656 61.582031 359.019531 62.164062 C 361.242188 64.078125 362.578125 67.238281 363.039062 70.359375 C 363.125 70.570312 363.128906 70.804688 363.019531 71.070312 C 363 71.113281 362.929688 71.371094 362.578125 71.507812 C 362.519531 71.53125 362.464844 71.542969 362.402344 71.546875 L 362.332031 71.566406 C 362.179688 71.625 362.027344 71.675781 361.878906 71.730469 C 361.371094 71.910156 360.867188 72.074219 360.355469 72.242188 C 359.480469 72.53125 358.601562 72.820312 357.71875 73.09375 L 357.992188 73.214844 C 359.550781 73.902344 361.046875 74.714844 362.5625 75.527344 C 362.90625 75.714844 363.070312 76.1875 362.933594 76.605469 C 361.671875 80.378906 359.703125 84.046875 356.523438 86.035156 C 356.257812 86.199219 355.757812 86.542969 355.546875 86.742188 C 354.5625 87.675781 353.996094 88.921875 353.515625 90.265625 C 353.050781 91.574219 352.613281 92.902344 351.914062 94.070312 C 350.359375 96.644531 347.710938 98.398438 345.058594 98.882812 C 344.21875 99.035156 343.355469 99.066406 342.503906 99.003906 C 342.355469 98.992188 342.148438 99 341.957031 98.972656 C 341.722656 98.941406 341.507812 98.859375 341.34375 98.738281 C 341.003906 98.492188 340.933594 98.160156 340.96875 97.835938 C 340.984375 97.679688 341.035156 97.503906 341.144531 97.339844 C 341.269531 97.152344 341.542969 96.9375 341.613281 96.890625 C 342.054688 96.566406 342.515625 96.285156 342.96875 95.976562 C 344.003906 95.269531 345.007812 94.492188 345.777344 93.410156 C 346.75 92.050781 347.222656 90.445312 347.261719 88.683594 C 347.28125 87.769531 347.191406 86.789062 347.199219 85.828125 C 347.210938 84.710938 347.367188 83.621094 347.871094 82.660156 C 348.75 80.992188 350.433594 80.070312 351.953125 79.429688 C 352.042969 79.390625 352.238281 79.328125 352.441406 79.246094 C 352.238281 79.027344 351.976562 78.851562 351.769531 78.683594 C 350.972656 78.042969 350.125 77.476562 349.269531 76.9375 C 348.523438 76.46875 347.769531 76.015625 346.992188 75.617188 C 345.992188 75.097656 344.957031 74.679688 343.929688 74.261719 C 343.808594 74.210938 343.425781 73.992188 343.261719 73.898438 C 343.230469 73.925781 343.199219 73.953125 343.164062 73.980469 C 343.019531 74.101562 342.882812 74.242188 342.761719 74.347656 C 342.191406 74.84375 341.648438 75.371094 341.105469 75.902344 C 340.574219 76.421875 340.042969 76.945312 339.511719 77.464844 C 338.84375 78.128906 338.179688 78.804688 337.527344 79.492188 C 337.367188 79.664062 337.175781 79.917969 336.96875 80.113281 C 336.742188 80.328125 336.492188 80.480469 336.242188 80.539062 C 335.996094 80.597656 335.753906 80.554688 335.515625 80.441406 C 335.34375 80.359375 335.179688 80.222656 335.035156 80.125 C 334.589844 79.828125 334.140625 79.539062 333.703125 79.230469 C 331.929688 77.988281 328.84375 75.570312 327.222656 74.066406 C 327.019531 73.878906 326.925781 73.628906 326.945312 73.3125 C 326.957031 73.1875 326.996094 73 327.125 72.816406 C 327.199219 72.710938 327.367188 72.554688 327.378906 72.546875 C 327.636719 72.308594 327.90625 72.09375 328.175781 71.878906 C 328.757812 71.421875 329.339844 70.972656 329.929688 70.535156 C 331.589844 69.308594 333.976562 67.527344 335.636719 66.234375 C 335.722656 66.140625 335.859375 66.042969 336.085938 66.023438 C 336.257812 66.011719 336.425781 66.070312 336.566406 66.1875 C 336.582031 66.199219 336.601562 66.207031 336.609375 66.214844 C 336.675781 66.265625 336.742188 66.3125 336.808594 66.367188 C 337 66.511719 337.183594 66.660156 337.367188 66.808594 C 337.875 67.214844 338.382812 67.613281 338.890625 68.023438 C 340.3125 69.183594 341.785156 70.3125 343.15625 71.5625 C 343.917969 70.910156 344.800781 70.382812 345.589844 69.808594 C 347.128906 68.679688 348.671875 67.558594 350.21875 66.441406 C 349.671875 66.039062 349.148438 65.570312 348.742188 64.996094 C 348.171875 64.191406 347.910156 63.125 347.597656 62.164062 C 347.074219 60.527344 346.648438 58.84375 346.113281 57.210938 C 345.351562 54.925781 344.339844 52.59375 342.832031 50.847656 C 342.335938 50.273438 341.777344 49.777344 341.148438 49.402344 Z M 343.351562 49.09375 C 345.734375 49.488281 348.101562 50.507812 350.074219 52.117188 C 351.929688 53.628906 353.472656 55.648438 354.214844 58.15625 C 354.402344 58.777344 354.554688 59.417969 354.613281 60.070312 C 354.632812 60.28125 354.613281 60.558594 354.628906 60.8125 C 354.652344 61.125 354.71875 61.417969 354.84375 61.652344 C 354.972656 61.90625 355.179688 62.109375 355.449219 62.238281 C 355.746094 62.386719 356.15625 62.421875 356.390625 62.5 C 357.027344 62.710938 357.617188 63.074219 358.148438 63.527344 C 359.9375 65.070312 361.039062 67.566406 361.503906 70.082031 L 361.453125 70.105469 C 360.953125 70.277344 360.453125 70.441406 359.957031 70.605469 C 358.796875 70.992188 357.636719 71.367188 356.472656 71.714844 C 356.300781 71.765625 355.820312 71.828125 355.484375 71.945312 C 355.15625 72.0625 354.925781 72.269531 354.816406 72.445312 C 354.695312 72.640625 354.652344 72.859375 354.691406 73.109375 C 354.714844 73.234375 354.765625 73.445312 354.960938 73.628906 C 355.085938 73.742188 355.851562 74.09375 355.902344 74.117188 C 356.425781 74.34375 356.949219 74.574219 357.472656 74.804688 C 358.78125 75.382812 360.042969 76.050781 361.3125 76.730469 C 360.171875 79.871094 358.492188 82.871094 355.828125 84.539062 C 355.5 84.742188 354.882812 85.175781 354.621094 85.421875 C 353.445312 86.542969 352.738281 88.007812 352.160156 89.617188 C 351.738281 90.808594 351.359375 92.027344 350.714844 93.09375 C 349.382812 95.296875 347.101562 96.785156 344.832031 97.203125 C 344.523438 97.257812 344.207031 97.296875 343.898438 97.316406 C 345.011719 96.542969 346.066406 95.667969 346.90625 94.5 C 348.089844 92.835938 348.675781 90.878906 348.722656 88.726562 C 348.742188 87.808594 348.652344 86.820312 348.664062 85.851562 C 348.671875 85.042969 348.753906 84.246094 349.121094 83.546875 C 349.828125 82.203125 351.234375 81.542969 352.449219 81.027344 C 352.683594 80.925781 353.429688 80.675781 353.765625 80.3125 C 354.128906 79.914062 354.242188 79.429688 354.011719 78.878906 C 353.726562 78.210938 353.105469 77.691406 352.601562 77.285156 C 351.757812 76.609375 350.867188 76.007812 349.964844 75.441406 C 349.1875 74.949219 348.398438 74.480469 347.585938 74.0625 C 346.550781 73.527344 345.480469 73.089844 344.414062 72.65625 C 344.398438 72.648438 344.390625 72.644531 344.375 72.640625 C 345.019531 72.140625 345.730469 71.710938 346.363281 71.246094 C 348.265625 69.855469 350.171875 68.476562 352.085938 67.097656 C 352.289062 66.945312 352.417969 66.6875 352.429688 66.40625 C 352.4375 66.121094 352.324219 65.851562 352.125 65.6875 C 351.941406 65.527344 351.636719 65.4375 351.425781 65.300781 C 350.867188 64.929688 350.285156 64.5 349.871094 63.914062 C 349.40625 63.253906 349.222656 62.355469 348.96875 61.570312 C 348.441406 59.925781 348.015625 58.238281 347.476562 56.601562 C 346.644531 54.097656 345.515625 51.554688 343.867188 49.644531 C 343.703125 49.453125 343.527344 49.269531 343.351562 49.09375 Z M 336.140625 67.890625 C 336.273438 67.996094 336.40625 68.101562 336.539062 68.207031 C 337.042969 68.609375 337.550781 69.007812 338.046875 69.417969 C 339.40625 70.523438 340.808594 71.59375 342.117188 72.777344 C 342.03125 72.851562 341.953125 72.921875 341.882812 72.988281 C 341.292969 73.503906 340.726562 74.050781 340.164062 74.601562 C 339.632812 75.121094 339.097656 75.644531 338.566406 76.167969 C 337.882812 76.84375 337.207031 77.53125 336.542969 78.238281 C 336.4375 78.351562 336.320312 78.5 336.191406 78.640625 C 336.132812 78.707031 336.085938 78.785156 336.027344 78.832031 C 335.953125 78.78125 335.828125 78.691406 335.757812 78.648438 C 335.328125 78.359375 334.886719 78.074219 334.460938 77.773438 C 332.96875 76.730469 330.523438 74.832031 328.863281 73.390625 L 328.996094 73.289062 C 329.566406 72.839844 330.136719 72.398438 330.71875 71.96875 C 332.28125 70.8125 334.496094 69.160156 336.140625 67.890625 Z M 336.140625 67.890625 " fill-opacity="1" fill-rule="evenodd"/><g clip-path="url(#0d193bff9f)"><path fill="#000000" d="M 374.898438 73.964844 L 363.019531 71.070312 L 355.863281 73.136719 L 362.0625 76.648438 Z M 374.898438 73.964844 " fill-opacity="1" fill-rule="evenodd"/></g><path fill="#000000" d="M 72.589844 21.164062 C 72.5625 21.296875 72.355469 21.175781 72.242188 21.199219 C 71.941406 21.261719 71.648438 21.328125 71.351562 21.402344 C 70.074219 21.714844 68.808594 22.121094 67.558594 22.550781 C 62.535156 24.277344 57.769531 26.804688 53.4375 30.238281 C 42.539062 38.871094 35.375 53.488281 33.261719 68.503906 C 33.308594 68.523438 33.390625 68.738281 33.421875 68.785156 C 33.582031 69.050781 33.753906 69.308594 33.917969 69.574219 C 34.425781 70.398438 34.992188 71.1875 35.640625 71.867188 C 36.324219 72.582031 37.402344 73.539062 38.367188 73.578125 C 39.128906 73.605469 39.910156 73.003906 40.542969 72.597656 C 41.90625 71.734375 43.242188 70.800781 44.507812 69.753906 C 44.472656 69.863281 44.625 69.355469 44.640625 69.273438 C 44.730469 68.835938 44.828125 68.40625 44.933594 67.976562 C 45.253906 66.640625 45.582031 65.3125 45.910156 63.980469 C 46.910156 59.914062 48.433594 55.894531 50.019531 52.101562 C 54.664062 41.007812 64.15625 28.691406 72.589844 21.164062 Z M 72.589844 21.164062 " fill-opacity="1" fill-rule="evenodd"/><path fill="#000000" d="M 72.589844 138.886719 C 72.5625 138.753906 72.355469 138.875 72.242188 138.851562 C 71.941406 138.789062 71.648438 138.71875 71.351562 138.648438 C 70.074219 138.335938 68.808594 137.925781 67.558594 137.496094 C 62.535156 135.773438 57.769531 133.246094 53.4375 129.8125 C 42.539062 121.179688 35.375 106.5625 33.261719 91.546875 C 33.308594 91.527344 33.390625 91.3125 33.421875 91.265625 C 33.582031 91 33.753906 90.742188 33.917969 90.472656 C 34.425781 89.648438 34.992188 88.863281 35.640625 88.183594 C 36.324219 87.46875 37.402344 86.511719 38.367188 86.472656 C 39.128906 86.441406 39.910156 87.046875 40.542969 87.453125 C 41.90625 88.316406 43.242188 89.25 44.507812 90.296875 C 44.472656 90.1875 44.625 90.691406 44.640625 90.777344 C 44.730469 91.210938 44.828125 91.640625 44.933594 92.074219 C 45.253906 93.40625 45.582031 94.738281 45.910156 96.070312 C 46.910156 100.136719 48.433594 104.152344 50.019531 107.945312 C 54.664062 119.042969 64.15625 131.359375 72.589844 138.886719 Z M 72.589844 138.886719 " fill-opacity="1" fill-rule="evenodd"/><path fill="#000000" d="M 33.863281 55.851562 C 33.925781 55.828125 34.449219 55.625 34.640625 55.5 C 34.867188 55.351562 34.988281 55.15625 35.046875 55.007812 C 35.121094 54.816406 35.128906 54.625 35.085938 54.4375 C 35.046875 54.277344 34.960938 54.050781 34.710938 53.898438 C 34.660156 53.863281 34.546875 53.808594 34.402344 53.777344 C 34.191406 53.730469 33.789062 53.699219 33.761719 53.699219 C 33 53.664062 32.234375 53.726562 31.480469 53.851562 C 28.863281 54.28125 26.265625 55.402344 24.101562 57.171875 C 21.992188 58.886719 20.261719 61.199219 19.414062 64.046875 C 19.195312 64.789062 19.019531 65.554688 18.949219 66.335938 C 18.929688 66.507812 18.933594 66.710938 18.933594 66.917969 C 18.929688 66.980469 18.925781 67.070312 18.917969 67.144531 C 18.84375 67.164062 18.738281 67.195312 18.667969 67.210938 C 18.5 67.242188 18.34375 67.273438 18.222656 67.3125 C 17.421875 67.578125 16.664062 68.03125 15.996094 68.609375 C 13.773438 70.523438 12.4375 73.6875 11.972656 76.808594 C 11.890625 77.015625 11.886719 77.253906 11.996094 77.519531 C 12.015625 77.5625 12.085938 77.816406 12.4375 77.953125 C 12.492188 77.976562 12.550781 77.992188 12.613281 77.996094 L 12.683594 78.015625 C 12.835938 78.070312 12.988281 78.125 13.136719 78.179688 C 13.644531 78.355469 14.148438 78.519531 14.660156 78.6875 C 15.535156 78.980469 16.414062 79.269531 17.296875 79.542969 L 17.019531 79.664062 C 15.464844 80.351562 13.96875 81.160156 12.453125 81.976562 C 12.109375 82.164062 11.945312 82.636719 12.082031 83.054688 C 13.339844 86.824219 15.3125 90.492188 18.488281 92.484375 C 18.757812 92.648438 19.257812 92.988281 19.464844 93.1875 C 20.453125 94.125 21.019531 95.367188 21.5 96.714844 C 21.964844 98.019531 22.398438 99.351562 23.101562 100.515625 C 24.65625 103.089844 27.304688 104.847656 29.953125 105.332031 C 30.796875 105.484375 31.660156 105.515625 32.511719 105.449219 C 32.65625 105.441406 32.867188 105.445312 33.058594 105.421875 C 33.292969 105.386719 33.503906 105.308594 33.667969 105.1875 C 34.011719 104.9375 34.082031 104.609375 34.046875 104.28125 C 34.027344 104.128906 33.980469 103.953125 33.871094 103.789062 C 33.746094 103.597656 33.46875 103.386719 33.402344 103.339844 C 32.960938 103.015625 32.496094 102.730469 32.046875 102.425781 C 31.011719 101.71875 30.007812 100.941406 29.234375 99.859375 C 28.261719 98.5 27.792969 96.890625 27.753906 95.128906 C 27.734375 94.21875 27.824219 93.234375 27.816406 92.273438 C 27.800781 91.15625 27.648438 90.070312 27.144531 89.109375 C 26.265625 87.4375 24.578125 86.515625 23.0625 85.875 C 22.972656 85.835938 22.777344 85.777344 22.574219 85.691406 C 22.777344 85.472656 23.039062 85.300781 23.242188 85.132812 C 24.042969 84.488281 24.890625 83.921875 25.746094 83.382812 C 26.492188 82.914062 27.246094 82.464844 28.023438 82.0625 C 29.023438 81.546875 30.058594 81.125 31.085938 80.707031 C 31.207031 80.660156 31.589844 80.441406 31.753906 80.347656 C 31.78125 80.371094 31.8125 80.402344 31.851562 80.425781 C 31.996094 80.550781 32.132812 80.6875 32.253906 80.792969 C 32.820312 81.289062 33.367188 81.820312 33.910156 82.351562 C 34.441406 82.871094 34.96875 83.390625 35.503906 83.914062 C 36.171875 84.574219 36.835938 85.25 37.488281 85.941406 C 37.644531 86.113281 37.835938 86.367188 38.046875 86.558594 C 38.273438 86.773438 38.519531 86.929688 38.773438 86.988281 C 39.019531 87.042969 39.261719 87.003906 39.496094 86.890625 C 39.671875 86.808594 39.835938 86.667969 39.980469 86.574219 C 40.425781 86.277344 40.875 85.988281 41.3125 85.679688 C 43.082031 84.4375 46.171875 82.015625 47.792969 80.515625 C 47.996094 80.324219 48.089844 80.074219 48.066406 79.761719 C 48.058594 79.636719 48.019531 79.445312 47.890625 79.265625 C 47.816406 79.160156 47.644531 79 47.636719 78.992188 C 47.378906 78.757812 47.109375 78.539062 46.839844 78.328125 C 46.257812 77.871094 45.675781 77.421875 45.085938 76.984375 C 43.425781 75.757812 41.039062 73.976562 39.378906 72.683594 C 39.292969 72.585938 39.15625 72.488281 38.929688 72.472656 C 38.757812 72.457031 38.585938 72.519531 38.449219 72.632812 C 38.433594 72.644531 38.414062 72.65625 38.40625 72.664062 C 38.339844 72.714844 38.273438 72.761719 38.207031 72.8125 C 38.015625 72.957031 37.832031 73.105469 37.644531 73.253906 C 37.140625 73.660156 36.628906 74.0625 36.125 74.472656 C 34.703125 75.632812 33.230469 76.761719 31.859375 78.007812 C 31.09375 77.359375 30.210938 76.828125 29.425781 76.257812 C 27.886719 75.128906 26.339844 74.007812 24.796875 72.890625 C 25.34375 72.488281 25.867188 72.019531 26.269531 71.445312 C 26.84375 70.640625 27.105469 69.570312 27.414062 68.613281 C 27.941406 66.972656 28.367188 65.292969 28.902344 63.660156 C 29.660156 61.371094 30.671875 59.042969 32.183594 57.296875 C 32.679688 56.722656 33.238281 56.222656 33.863281 55.851562 Z M 31.664062 55.539062 C 29.28125 55.9375 26.914062 56.953125 24.9375 58.5625 C 23.082031 60.074219 21.542969 62.097656 20.796875 64.605469 C 20.613281 65.222656 20.460938 65.863281 20.402344 66.515625 C 20.382812 66.726562 20.402344 67.003906 20.386719 67.261719 C 20.363281 67.574219 20.296875 67.867188 20.171875 68.101562 C 20.042969 68.355469 19.835938 68.554688 19.5625 68.6875 C 19.265625 68.832031 18.859375 68.871094 18.625 68.949219 C 17.988281 69.160156 17.398438 69.519531 16.867188 69.976562 C 15.078125 71.519531 13.976562 74.015625 13.511719 76.53125 L 13.5625 76.550781 C 14.0625 76.726562 14.5625 76.886719 15.058594 77.054688 C 16.21875 77.4375 17.375 77.816406 18.542969 78.164062 C 18.710938 78.214844 19.195312 78.273438 19.527344 78.394531 C 19.855469 78.511719 20.089844 78.714844 20.199219 78.894531 C 20.320312 79.089844 20.363281 79.308594 20.324219 79.558594 C 20.300781 79.683594 20.246094 79.890625 20.050781 80.074219 C 19.929688 80.191406 19.164062 80.542969 19.113281 80.566406 C 18.585938 80.792969 18.0625 81.023438 17.539062 81.253906 C 16.234375 81.832031 14.96875 82.496094 13.699219 83.179688 C 14.839844 86.316406 16.523438 89.320312 19.1875 90.984375 C 19.515625 91.191406 20.132812 91.625 20.394531 91.871094 C 21.570312 92.988281 22.277344 94.453125 22.851562 96.0625 C 23.273438 97.253906 23.65625 98.476562 24.300781 99.539062 C 25.632812 101.746094 27.914062 103.234375 30.179688 103.648438 C 30.492188 103.707031 30.808594 103.742188 31.117188 103.761719 C 30.003906 102.988281 28.945312 102.117188 28.109375 100.945312 C 26.921875 99.285156 26.335938 97.324219 26.292969 95.171875 C 26.269531 94.253906 26.363281 93.265625 26.351562 92.300781 C 26.339844 91.488281 26.261719 90.691406 25.894531 89.996094 C 25.1875 88.648438 23.78125 87.992188 22.566406 87.476562 C 22.328125 87.375 21.582031 87.121094 21.25 86.761719 C 20.886719 86.359375 20.769531 85.875 21.003906 85.324219 C 21.285156 84.660156 21.90625 84.140625 22.414062 83.734375 C 23.257812 83.054688 24.148438 82.457031 25.050781 81.890625 C 25.828125 81.398438 26.617188 80.925781 27.429688 80.507812 C 28.464844 79.972656 29.53125 79.535156 30.601562 79.101562 C 30.617188 79.097656 30.625 79.09375 30.636719 79.085938 C 29.996094 78.585938 29.285156 78.160156 28.648438 77.695312 C 26.75 76.300781 24.839844 74.921875 22.929688 73.542969 C 22.722656 73.394531 22.59375 73.136719 22.585938 72.851562 C 22.578125 72.570312 22.6875 72.300781 22.886719 72.132812 C 23.074219 71.972656 23.375 71.882812 23.589844 71.746094 C 24.148438 71.378906 24.730469 70.949219 25.144531 70.363281 C 25.609375 69.703125 25.792969 68.804688 26.042969 68.015625 C 26.574219 66.375 27 64.6875 27.539062 63.050781 C 28.371094 60.542969 29.496094 58.003906 31.148438 56.089844 C 31.3125 55.898438 31.484375 55.714844 31.664062 55.539062 Z M 38.875 74.339844 C 38.742188 74.441406 38.609375 74.550781 38.476562 74.65625 C 37.96875 75.058594 37.464844 75.457031 36.96875 75.863281 C 35.609375 76.96875 34.207031 78.042969 32.898438 79.226562 C 32.980469 79.300781 33.0625 79.371094 33.132812 79.433594 C 33.722656 79.949219 34.285156 80.5 34.851562 81.046875 C 35.382812 81.570312 35.914062 82.09375 36.449219 82.617188 C 37.132812 83.292969 37.804688 83.980469 38.472656 84.683594 C 38.578125 84.796875 38.695312 84.945312 38.824219 85.089844 C 38.878906 85.152344 38.929688 85.234375 38.988281 85.28125 C 39.0625 85.230469 39.1875 85.140625 39.257812 85.097656 C 39.6875 84.808594 40.128906 84.523438 40.554688 84.222656 C 42.042969 83.175781 44.492188 81.28125 46.152344 79.839844 L 46.015625 79.734375 C 45.449219 79.289062 44.875 78.847656 44.296875 78.417969 C 42.734375 77.257812 40.519531 75.609375 38.875 74.339844 Z M 38.875 74.339844 " fill-opacity="1" fill-rule="evenodd"/><g clip-path="url(#0abcd20aa2)"><path fill="#000000" d="M 0.113281 80.414062 L 11.996094 77.519531 L 19.152344 79.585938 L 12.949219 83.097656 Z M 0.113281 80.414062 " fill-opacity="1" fill-rule="evenodd"/></g><path fill="#000000" d="M 133.929688 23.824219 C 133.925781 23.628906 134.777344 22.90625 134.90625 22.710938 C 135.757812 21.421875 135.863281 19.472656 134.085938 18.894531 C 132.984375 18.535156 131.859375 19.078125 130.941406 19.664062 C 129.082031 20.839844 127.242188 22.492188 126.128906 24.410156 C 125.050781 26.273438 125.503906 28.132812 127.371094 29.269531 C 127.683594 29.457031 129.160156 29.71875 129.214844 30.109375 C 129.265625 30.457031 128.855469 30.828125 128.632812 31.035156 C 127.988281 31.644531 127.300781 32.207031 126.648438 32.8125 C 126.484375 32.960938 125.941406 33.351562 125.929688 33.617188 C 125.929688 33.652344 126.445312 33.789062 126.507812 33.8125 C 127.347656 34.125 127.976562 33.746094 128.734375 33.320312 C 131.695312 31.671875 134.5625 29.8125 137.449219 28.03125 C 137.417969 27.871094 138.226562 27.207031 138.339844 27.085938 C 139.175781 26.203125 139.320312 25.765625 139.199219 24.527344 C 139.179688 24.316406 139.210938 23.8125 139.039062 23.652344 C 138.902344 23.523438 138.582031 23.792969 138.480469 23.863281 C 137.949219 24.230469 137.414062 24.582031 136.863281 24.917969 C 135.140625 25.976562 133.101562 27.089844 131.03125 26.480469 C 130.648438 26.367188 130.277344 26.21875 129.9375 26.019531 C 128.886719 25.386719 128.128906 24 129.527344 23.261719 C 130.441406 22.777344 133.042969 22.695312 133.929688 23.824219 Z M 133.929688 23.824219 " fill-opacity="1" fill-rule="evenodd"/></svg>