<svg xmlns="http://www.w3.org/2000/svg" xmlns:xlink="http://www.w3.org/1999/xlink" width="500" zoomAndPan="magnify" viewBox="0 0 375 149.999998" height="200" preserveAspectRatio="xMidYMid meet" version="1.0"><defs><clipPath id="26af32b799"><path d="M 174 104 L 186 104 L 186 136.875 L 174 136.875 Z M 174 104 " clip-rule="nonzero"/></clipPath><clipPath id="94c88d8a78"><path d="M 296 13.125 L 341 13.125 L 341 60 L 296 60 Z M 296 13.125 " clip-rule="nonzero"/></clipPath></defs><g clip-path="url(#26af32b799)"><path fill="#000000" d="M 177.132812 109.042969 C 177.121094 109.015625 177.078125 109.0625 177.046875 109.058594 C 176.984375 109.058594 176.917969 109.046875 176.859375 109.007812 C 176.714844 108.914062 176.644531 108.710938 176.613281 108.546875 C 176.511719 108.019531 176.679688 107.464844 176.867188 106.972656 C 177.394531 105.601562 178.726562 103.964844 180.34375 104.003906 C 180.492188 104.007812 180.667969 104.132812 180.789062 104.207031 C 181.117188 104.40625 181.421875 104.636719 181.703125 104.898438 C 182.601562 105.726562 183.46875 106.585938 184.300781 107.476562 C 184.527344 107.71875 184.746094 107.96875 184.949219 108.234375 C 185.042969 108.355469 185.164062 108.5 185.183594 108.660156 C 185.207031 108.640625 185.183594 108.722656 185.175781 108.753906 C 185.167969 108.820312 185.152344 108.886719 185.136719 108.953125 C 185.097656 109.136719 185.046875 109.320312 184.980469 109.496094 C 184.789062 110.015625 184.554688 110.601562 184.15625 111 C 184.125 111.027344 183.902344 111.03125 183.875 111.03125 C 183.566406 111.050781 183.257812 111.058594 182.949219 111.070312 C 181.671875 111.117188 180.433594 111.207031 179.210938 111.601562 C 179.207031 111.59375 179.152344 111.617188 179.152344 111.617188 C 179.074219 111.640625 178.996094 111.671875 178.917969 111.699219 C 178.589844 111.824219 178.253906 111.945312 177.933594 112.097656 C 176.964844 112.570312 176.214844 113.496094 176.328125 114.617188 C 176.332031 114.582031 176.324219 114.6875 176.328125 114.722656 C 176.335938 114.792969 176.34375 114.863281 176.351562 114.9375 C 176.382812 115.144531 176.421875 115.351562 176.457031 115.558594 C 176.5625 116.171875 176.710938 116.773438 176.84375 117.378906 C 177.242188 119.175781 177.703125 120.949219 178.234375 122.714844 C 178.195312 122.75 178.261719 122.917969 178.269531 122.953125 C 178.332031 123.234375 178.386719 123.519531 178.441406 123.800781 C 178.644531 124.910156 178.871094 126.015625 179.046875 127.132812 C 179.4375 129.601562 179.679688 132.136719 179.335938 134.628906 C 179.25 135.242188 179.078125 135.855469 178.710938 136.363281 C 178.582031 136.535156 178.320312 136.863281 178.085938 136.644531 C 177.785156 136.367188 178.207031 135.414062 178.246094 135.070312 C 178.425781 133.519531 178.527344 131.96875 178.363281 130.410156 C 178.207031 128.945312 177.714844 127.144531 177.378906 125.707031 C 177.214844 124.988281 176.96875 124.234375 176.785156 123.515625 C 176.363281 121.886719 175.992188 120.25 175.640625 118.609375 C 175.253906 116.8125 174.691406 114.773438 175.15625 112.941406 C 175.167969 112.894531 175.195312 112.792969 175.214844 112.742188 C 175.28125 112.554688 175.351562 112.371094 175.421875 112.183594 C 175.613281 111.683594 175.839844 111.203125 176.160156 110.777344 C 177.328125 109.226562 179.390625 108.652344 181.21875 108.375 C 181.226562 108.402344 181.1875 108.332031 181.167969 108.3125 C 181.128906 108.269531 181.089844 108.226562 181.054688 108.179688 C 180.949219 108.058594 180.847656 107.9375 180.738281 107.816406 C 180.402344 107.453125 180.042969 107.152344 179.546875 107.035156 C 179.019531 106.910156 178.335938 107.097656 177.957031 107.492188 C 177.644531 107.820312 177.277344 108.621094 177.132812 109.042969 Z M 177.132812 109.042969 " fill-opacity="1" fill-rule="evenodd"/></g><path fill="#000000" d="M 192.777344 27.578125 C 193.082031 27.15625 193.257812 26.578125 193.496094 26.117188 C 194.0625 25.023438 194.660156 23.929688 195.382812 22.914062 C 195.367188 22.957031 195.472656 23.082031 195.492188 23.121094 C 195.589844 23.308594 195.667969 23.503906 195.75 23.699219 C 196.121094 24.566406 196.503906 25.425781 196.867188 26.296875 C 197.800781 28.5625 198.796875 30.800781 199.679688 33.082031 C 199.90625 33.675781 200.128906 34.273438 200.320312 34.878906 C 200.496094 35.4375 200.667969 36.035156 200.550781 36.617188 C 200.53125 36.707031 200.507812 36.949219 200.402344 36.996094 C 200.34375 37.023438 200.253906 36.949219 200.214844 36.917969 C 200.054688 36.792969 199.90625 36.65625 199.757812 36.515625 C 199.25 36.035156 198.75 35.546875 198.265625 35.042969 C 198.132812 34.90625 197.546875 34.292969 197.515625 34.832031 C 197.511719 34.886719 197.515625 34.941406 197.519531 34.992188 C 197.527344 35.070312 197.542969 35.148438 197.566406 35.226562 C 197.730469 35.1875 197.601562 35.535156 197.617188 35.691406 C 197.644531 35.960938 197.664062 36.230469 197.683594 36.503906 C 197.746094 37.335938 197.789062 38.171875 197.851562 39.007812 C 198.046875 41.578125 198.265625 44.140625 198.5625 46.703125 C 199.449219 54.339844 199.785156 62.925781 200.621094 70.566406 C 200.640625 70.570312 200.664062 70.878906 200.667969 70.902344 C 200.71875 71.28125 200.773438 71.660156 200.820312 72.039062 C 201.027344 73.644531 201.125 75.261719 201.230469 76.878906 C 201.445312 80.1875 201.816406 83.484375 201.855469 86.804688 C 201.875 88.332031 201.917969 89.902344 201.609375 91.410156 C 201.242188 93.21875 200.523438 95.070312 199.507812 96.652344 C 199.246094 97.058594 198.953125 97.4375 198.617188 97.792969 C 198.570312 97.84375 198.363281 98.136719 198.277344 98.046875 C 198.011719 97.773438 198.355469 96.683594 198.378906 96.371094 C 198.507812 94.863281 198.441406 93.351562 198.40625 91.839844 C 198.367188 90.144531 198.335938 88.453125 198.265625 86.757812 C 198.148438 83.949219 197.960938 81.15625 197.707031 78.359375 C 197.851562 78.433594 197.671875 78.054688 197.65625 77.902344 C 197.628906 77.644531 197.601562 77.382812 197.574219 77.125 C 197.488281 76.257812 197.40625 75.390625 197.328125 74.523438 C 197.097656 71.949219 196.847656 69.371094 196.710938 66.792969 C 196.285156 58.972656 195.65625 51.144531 194.929688 43.34375 C 194.988281 43.324219 194.914062 43.226562 194.914062 43.167969 C 194.898438 42.929688 194.875 42.695312 194.859375 42.457031 C 194.785156 41.511719 194.726562 40.570312 194.652344 39.625 C 194.445312 36.929688 194.234375 34.238281 193.984375 31.542969 C 193.921875 30.871094 193.863281 30.199219 193.808594 29.527344 C 193.785156 29.242188 193.8125 28.78125 193.660156 28.515625 C 193.523438 28.285156 192.992188 27.734375 192.777344 27.578125 Z M 192.777344 27.578125 " fill-opacity="1" fill-rule="evenodd"/><path fill="#000000" d="M 76.5 33.101562 C 76.539062 32.601562 76.394531 32.054688 76.363281 31.5625 C 76.285156 30.390625 76.230469 29.207031 76.324219 28.015625 C 76.332031 28.058594 76.484375 28.101562 76.519531 28.121094 C 76.695312 28.214844 76.863281 28.324219 77.03125 28.433594 C 77.78125 28.914062 78.539062 29.382812 79.28125 29.871094 C 81.210938 31.144531 83.183594 32.363281 85.078125 33.679688 C 85.570312 34.023438 86.0625 34.371094 86.527344 34.746094 C 86.957031 35.085938 87.402344 35.460938 87.601562 35.984375 C 87.628906 36.066406 87.730469 36.269531 87.667969 36.367188 C 87.632812 36.417969 87.519531 36.40625 87.472656 36.402344 C 87.273438 36.394531 87.078125 36.363281 86.882812 36.335938 C 86.210938 36.234375 85.546875 36.121094 84.882812 35.988281 C 84.703125 35.949219 83.902344 35.789062 84.148438 36.230469 C 84.171875 36.273438 84.203125 36.316406 84.234375 36.355469 C 84.28125 36.414062 84.332031 36.464844 84.390625 36.511719 C 84.511719 36.394531 84.578125 36.738281 84.667969 36.851562 C 84.828125 37.046875 84.980469 37.25 85.136719 37.453125 C 85.609375 38.074219 86.070312 38.707031 86.546875 39.332031 C 88.011719 41.246094 89.488281 43.140625 91.039062 44.996094 C 95.648438 50.523438 100.277344 57.089844 104.847656 62.648438 C 104.867188 62.640625 105.042969 62.867188 105.054688 62.882812 C 105.289062 63.15625 105.527344 63.421875 105.761719 63.695312 C 106.746094 64.847656 107.648438 66.0625 108.554688 67.277344 C 110.410156 69.765625 112.390625 72.15625 114.105469 74.746094 C 114.894531 75.9375 115.726562 77.148438 116.230469 78.503906 C 116.835938 80.121094 117.167969 81.96875 117.121094 83.765625 C 117.105469 84.226562 117.050781 84.683594 116.949219 85.148438 C 116.9375 85.214844 116.910156 85.554688 116.792969 85.53125 C 116.429688 85.460938 116.167969 84.417969 116.03125 84.15625 C 115.375 82.902344 114.554688 81.746094 113.761719 80.582031 C 112.867188 79.269531 111.984375 77.953125 111.066406 76.660156 C 109.550781 74.515625 107.976562 72.421875 106.347656 70.359375 C 106.503906 70.335938 106.164062 70.140625 106.074219 70.027344 C 105.917969 69.835938 105.765625 69.648438 105.609375 69.460938 C 105.097656 68.824219 104.589844 68.1875 104.085938 67.546875 C 102.589844 65.648438 101.074219 63.757812 99.652344 61.804688 C 95.335938 55.882812 90.847656 50.070312 86.289062 44.328125 C 86.328125 44.28125 86.214844 44.246094 86.183594 44.203125 C 86.050781 44.023438 85.914062 43.847656 85.777344 43.671875 C 85.238281 42.96875 84.710938 42.257812 84.171875 41.554688 C 82.632812 39.546875 81.09375 37.546875 79.519531 35.5625 C 79.128906 35.070312 78.738281 34.574219 78.351562 34.074219 C 78.1875 33.863281 77.976562 33.484375 77.714844 33.359375 C 77.484375 33.253906 76.761719 33.105469 76.5 33.101562 Z M 76.5 33.101562 " fill-opacity="1" fill-rule="evenodd"/><path fill="#000000" d="M 178.078125 39.4375 C 178.074219 39.414062 178.074219 39.398438 178.085938 39.390625 L 178.078125 39.4375 C 178.136719 39.660156 178.988281 40.472656 179.085938 40.585938 C 179.285156 40.816406 179.480469 41.050781 179.679688 41.28125 C 179.867188 41.496094 181.351562 43.304688 181.640625 42.910156 C 182.097656 42.292969 180.921875 40.15625 180.695312 39.605469 C 179.539062 36.773438 178.042969 34.097656 176.589844 31.410156 C 176.273438 30.820312 175.734375 29.117188 175.085938 28.8125 C 174.464844 28.523438 173.527344 30.257812 173.265625 30.609375 C 172.785156 31.269531 172.019531 32.035156 171.867188 32.863281 C 171.625 34.160156 173.308594 35.476562 174.015625 36.417969 C 174.109375 36.171875 173.992188 36.9375 173.972656 37.199219 C 173.941406 37.632812 173.917969 38.070312 173.898438 38.507812 C 173.832031 39.921875 173.804688 41.332031 173.777344 42.746094 C 173.699219 46.742188 173.761719 50.726562 173.972656 54.71875 C 174.636719 67.164062 176.5625 79.488281 180.554688 91.324219 C 180.167969 91.277344 178.851562 92.433594 178.507812 92.605469 C 176.796875 93.476562 175.039062 94.070312 173.136719 94.355469 C 171.203125 94.648438 169.515625 94.285156 168.105469 92.863281 C 167.523438 92.28125 167.082031 91.609375 166.644531 90.921875 C 166.558594 90.789062 166.332031 90.230469 166.121094 90.257812 C 165.851562 90.292969 165.589844 90.707031 165.4375 90.894531 C 164.96875 91.460938 163.398438 92.898438 163.550781 93.683594 C 163.652344 94.183594 164.191406 94.769531 164.4375 95.210938 C 164.984375 96.199219 165.507812 97.222656 165.910156 98.28125 C 166.960938 101.0625 167.304688 104.117188 167.496094 107.070312 C 167.410156 107.035156 166.347656 108.085938 166.257812 108.15625 C 164.761719 109.332031 163.191406 110.414062 161.652344 111.523438 C 156.773438 115.03125 150.335938 119.507812 144.042969 119.492188 C 137.925781 119.476562 135.648438 114.226562 135.503906 108.863281 C 135.449219 106.855469 135.730469 104.890625 136.171875 102.9375 C 136.328125 102.238281 136.488281 101.542969 136.660156 100.847656 C 136.675781 100.789062 136.867188 100.1875 136.773438 100.175781 C 136.496094 100.144531 136.109375 101.132812 136.027344 101.300781 C 135.324219 102.773438 134.8125 104.359375 134.371094 105.929688 C 132.859375 111.308594 132.9375 118.011719 137.640625 121.84375 C 144.269531 127.246094 153.269531 122.1875 159.050781 118.09375 C 160.210938 117.273438 161.34375 116.417969 162.453125 115.539062 C 164.59375 113.839844 167.777344 111.664062 169.050781 109.117188 C 169.980469 107.261719 169.457031 104.246094 169.316406 102.28125 C 169.300781 102.007812 168.855469 99.796875 169.09375 99.632812 C 169.25 99.523438 169.800781 99.742188 169.972656 99.757812 C 170.839844 99.84375 171.734375 99.75 172.597656 99.652344 C 174.988281 99.382812 177.164062 98.707031 179.320312 97.644531 C 180.160156 97.230469 180.980469 96.761719 181.75 96.21875 C 181.882812 96.128906 182.4375 95.558594 182.609375 95.589844 C 182.75 95.617188 182.949219 96.28125 183.003906 96.390625 C 183.167969 96.703125 184.03125 98.925781 185.757812 100.296875 C 188.390625 102.378906 192.417969 103.660156 194.164062 102.4375 C 195.554688 101.46875 195.621094 97.257812 195.628906 95.820312 C 195.636719 94.738281 195.597656 93.648438 195.359375 92.589844 C 194.414062 88.371094 190.246094 88.101562 186.605469 88.585938 C 186.671875 88.632812 186.449219 88.566406 186.371094 88.578125 C 186.175781 88.601562 185.984375 88.636719 185.792969 88.679688 C 185.230469 88.808594 184.5625 88.929688 184.0625 89.234375 C 183.984375 88.507812 183.460938 87.597656 183.269531 86.875 C 182.652344 84.554688 182.019531 82.238281 181.519531 79.890625 C 179.804688 71.894531 178.496094 63.636719 177.78125 55.488281 C 177.394531 51.050781 177.347656 43.890625 178.078125 39.4375 Z M 187.183594 94.550781 C 187.476562 94.347656 188.828125 94.335938 189.175781 94.339844 C 190.363281 94.351562 192.382812 94.527344 192.972656 95.765625 C 193.707031 97.300781 191.578125 97.664062 190.585938 97.375 C 190.117188 97.242188 189.679688 97.019531 189.265625 96.757812 C 188.625 96.351562 187.683594 95.121094 187.183594 94.550781 Z M 187.183594 94.550781 " fill-opacity="1" fill-rule="evenodd"/><path fill="#000000" d="M 164.429688 80.269531 C 164.425781 80.269531 164.808594 79.511719 164.828125 79.441406 C 164.933594 79.125 165.042969 78.808594 165.164062 78.496094 C 165.460938 77.730469 165.785156 76.976562 166.101562 76.214844 C 166.15625 76.085938 166.367188 75.339844 166.617188 75.558594 C 167.269531 76.125 167.398438 77.945312 167.558594 78.722656 C 168.15625 81.648438 168.894531 85.648438 166.550781 88.035156 C 164.394531 90.230469 160.429688 90.492188 158.421875 87.96875 C 157.8125 87.203125 157.414062 86.269531 157.160156 85.328125 C 157.121094 85.175781 157.070312 84.546875 156.800781 84.589844 C 156.332031 84.671875 155.855469 85.878906 155.660156 86.222656 C 154.742188 87.828125 153.824219 89.445312 152.65625 90.882812 C 151.945312 91.757812 151.125 92.609375 150.136719 93.175781 C 149.609375 93.476562 149.019531 93.679688 148.417969 93.78125 C 143.949219 94.523438 141.46875 89.976562 141.273438 86.175781 C 140.71875 87.386719 139.660156 88.539062 138.765625 89.535156 C 135.6875 92.960938 131.417969 95.777344 126.945312 92.929688 C 124.226562 91.199219 122.84375 88.300781 122.019531 85.292969 C 121.753906 84.324219 121.539062 83.339844 121.351562 82.351562 C 121.332031 82.25 121.011719 80.742188 120.972656 80.765625 C 120.640625 80.980469 120.535156 82.570312 120.460938 82.917969 C 120.050781 84.9375 119.511719 86.894531 118.683594 88.785156 C 116.867188 92.933594 113.21875 96.039062 109.472656 98.414062 C 106.417969 100.355469 102.996094 102.179688 99.34375 102.601562 C 98.464844 102.703125 97.585938 102.691406 96.703125 102.628906 C 96.597656 102.621094 95.9375 102.644531 95.898438 102.5 C 95.816406 102.199219 97.824219 101.269531 98.019531 101.160156 C 100.425781 99.800781 102.808594 98.378906 105.109375 96.847656 C 111.328125 92.710938 117.71875 87.082031 119.503906 79.5 C 119.523438 79.503906 119.484375 78.34375 119.476562 78.226562 C 119.414062 77.261719 119.339844 76.296875 119.242188 75.335938 C 118.960938 72.527344 118.679688 69.714844 118.253906 66.925781 C 117.027344 58.878906 115.882812 50.808594 114.417969 42.800781 C 113.746094 39.140625 112.582031 35.550781 112.058594 31.867188 C 111.695312 29.328125 112.394531 26.488281 112.820312 23.992188 C 112.863281 23.757812 113.0625 21.765625 113.4375 21.824219 C 113.953125 21.90625 114.214844 23.695312 114.300781 24.042969 C 114.890625 26.511719 115.351562 29.023438 115.8125 31.519531 C 117.792969 42.234375 119.242188 53.058594 120.753906 63.847656 C 121 65.585938 121.234375 67.328125 121.492188 69.070312 C 121.699219 70.460938 121.902344 71.855469 122.132812 73.246094 C 123.125 79.210938 125.191406 90.261719 133.828125 87.925781 C 136.175781 87.289062 138.160156 85.742188 139.875 84.070312 C 140.457031 83.503906 141.738281 81.535156 142.59375 81.394531 C 142.8125 81.359375 143.023438 81.964844 143.085938 82.09375 C 143.539062 83.003906 143.898438 83.945312 144.472656 84.789062 C 145.886719 86.859375 148.132812 87.140625 150.378906 86.273438 C 152.570312 85.425781 154.417969 83.792969 155.675781 81.824219 C 156.074219 81.195312 156.886719 78.609375 157.691406 78.410156 C 158.355469 78.242188 158.996094 80.394531 159.214844 80.8125 C 160.457031 83.179688 162.398438 85.464844 165.085938 83.488281 C 165.074219 83.625 165.136719 83.222656 165.15625 83.089844 C 165.191406 82.816406 165.207031 82.542969 165.199219 82.265625 C 165.1875 81.472656 164.859375 81.203125 164.429688 80.269531 Z M 164.429688 80.269531 " fill-opacity="1" fill-rule="evenodd"/><path fill="#000000" d="M 103.09375 79.246094 C 103.023438 78.898438 103.230469 78.335938 103.289062 77.996094 C 103.484375 76.894531 103.605469 75.699219 104 74.648438 C 104.152344 74.25 104.558594 73.585938 105.078125 73.820312 C 106.003906 74.242188 106.515625 75.886719 106.929688 76.726562 C 108.605469 80.136719 109.203125 83.585938 107.554688 87.132812 C 107.449219 87.113281 107.035156 87.574219 106.953125 87.640625 C 106.402344 88.085938 105.785156 88.457031 105.179688 88.816406 C 102.847656 90.207031 100.414062 91.265625 97.816406 92.050781 C 95.410156 92.78125 92.96875 93.367188 90.5 93.816406 C 88.5625 94.171875 86.609375 94.433594 84.652344 94.640625 C 83.238281 94.789062 81.816406 94.894531 80.394531 94.96875 C 73.289062 95.335938 63.15625 94.550781 60.753906 86.308594 C 60.394531 85.085938 60.234375 83.800781 60.265625 82.527344 C 60.289062 81.523438 60.449219 80.539062 60.722656 79.578125 C 61.027344 78.507812 61.457031 77.464844 62.078125 76.539062 C 62.113281 76.484375 62.601562 75.765625 62.6875 75.839844 C 62.796875 75.933594 62.613281 76.46875 62.589844 76.570312 C 62.398438 77.433594 62.25 78.300781 62.214844 79.183594 C 62.117188 81.632812 62.613281 84.074219 64.222656 85.984375 C 67.167969 89.464844 71.882812 90.199219 76.179688 90.527344 C 84.4375 91.15625 92.710938 89.234375 100.484375 86.566406 C 101.785156 86.117188 103.109375 85.683594 104.351562 85.078125 C 104.746094 84.882812 105.46875 84.628906 105.714844 84.21875 C 106.121094 83.550781 105.929688 82.558594 105.71875 81.863281 C 105.570312 81.378906 105.351562 80.914062 105.09375 80.476562 C 104.703125 79.8125 103.761719 79.617188 103.09375 79.246094 Z M 103.09375 79.246094 " fill-opacity="1" fill-rule="evenodd"/><path fill="#000000" d="M 220.730469 37.417969 L 224.546875 32.652344 L 230.773438 37.515625 L 227.105469 42.328125 Z M 220.730469 37.417969 " fill-opacity="1" fill-rule="evenodd"/><path fill="#000000" d="M 307.121094 76.605469 C 307.226562 76.574219 307.644531 75.78125 307.730469 75.664062 C 308.402344 74.695312 309.0625 73.703125 309.785156 72.769531 C 309.949219 72.554688 310.355469 71.769531 310.691406 71.785156 C 311.054688 71.796875 311.09375 72.964844 311.132812 73.203125 C 311.417969 74.878906 311.640625 76.585938 311.671875 78.285156 C 311.722656 81.484375 311.425781 85.710938 308.589844 87.796875 C 304.128906 91.082031 297.921875 86.414062 297.921875 81.414062 C 297.925781 81.417969 296.917969 82.792969 296.859375 82.894531 C 295.894531 84.550781 295.257812 86.375 294.265625 88.007812 C 291.75 92.152344 285.796875 93.949219 282.007812 90.222656 C 279.957031 88.210938 279.242188 84.710938 279.367188 81.9375 C 278.375 83.449219 277.242188 84.945312 275.804688 86.085938 C 275.554688 86.285156 273.832031 87.097656 273.832031 87.097656 C 273.832031 87.097656 274.144531 88.460938 274.199219 89 C 274.328125 90.402344 274.492188 91.730469 274.328125 93.246094 C 274.308594 93.402344 274.183594 93.832031 274.140625 93.941406 C 273.847656 94.65625 273.425781 95.355469 272.980469 95.984375 C 270.992188 98.78125 268.359375 101.257812 265.878906 103.617188 C 264.5625 104.867188 263.21875 106.101562 261.820312 107.253906 C 255.359375 112.574219 245.804688 118.546875 237.304688 113.90625 C 236.089844 113.246094 235.019531 112.367188 234.117188 111.332031 C 232.972656 110.011719 232.101562 108.484375 231.527344 106.84375 C 230.070312 102.675781 230.191406 98.035156 231.300781 93.804688 C 231.703125 92.285156 232.210938 90.75 232.984375 89.371094 C 233.03125 89.292969 233.839844 88 233.992188 88.273438 C 234.191406 88.632812 233.757812 89.546875 233.664062 89.886719 C 233.234375 91.433594 232.78125 92.96875 232.550781 94.558594 C 231.796875 99.757812 232.238281 105.414062 236.972656 108.578125 C 237.730469 109.085938 238.566406 109.507812 239.433594 109.804688 C 242.535156 110.859375 245.925781 110.398438 248.996094 109.476562 C 255.441406 107.535156 261.058594 102.902344 266.164062 98.710938 C 267.441406 97.664062 268.675781 96.582031 269.910156 95.488281 C 270.71875 94.769531 271.671875 94.027344 272.191406 93.058594 C 272.898438 91.75 271.925781 88.207031 271.925781 88.207031 C 271.925781 88.207031 270.851562 88.832031 270.761719 88.875 C 269.574219 89.414062 268.792969 89.648438 267.535156 90 C 263.742188 91.0625 258.660156 90.929688 257 86.640625 C 255.527344 82.84375 257.9375 78.339844 260.5625 75.65625 C 261.554688 74.636719 263.09375 73.1875 264.671875 73.410156 C 269.070312 74.039062 271.078125 78.804688 272.898438 82.164062 C 272.890625 82.160156 273.175781 82.066406 273.246094 82.03125 C 273.523438 81.894531 273.789062 81.726562 274.046875 81.554688 C 274.78125 81.070312 275.5 80.558594 276.203125 80.03125 C 277.546875 79.027344 278.753906 77.890625 280.019531 76.800781 C 280.21875 76.632812 280.964844 75.796875 281.289062 75.9375 C 281.457031 76.011719 281.453125 76.394531 281.46875 76.539062 C 281.53125 77.164062 281.46875 77.792969 281.460938 78.417969 C 281.453125 80.484375 281.808594 82.59375 283.125 84.265625 C 285.117188 86.796875 288.8125 86.488281 291.351562 84.925781 C 295.242188 82.53125 296.496094 78.242188 298.386719 74.414062 C 298.453125 74.277344 298.628906 74.925781 298.640625 74.964844 C 298.828125 75.675781 298.953125 76.394531 299.148438 77.101562 C 299.664062 78.996094 300.207031 81.207031 302.191406 82.074219 C 302.890625 82.378906 303.671875 82.453125 304.429688 82.457031 C 304.988281 82.457031 305.539062 82.414062 306.089844 82.296875 C 306.476562 82.214844 306.832031 82.082031 307.179688 81.902344 C 309.328125 80.78125 307.925781 78.304688 307.121094 76.605469 Z M 267.492188 83.277344 C 266.160156 83.546875 264.257812 84.125 262.886719 84.210938 C 262.351562 84.242188 261.695312 84.28125 261.222656 83.976562 C 260.71875 83.648438 260.71875 82.988281 260.878906 82.472656 C 261.214844 81.417969 262.019531 80.324219 263.058594 79.851562 C 264.769531 79.074219 266.589844 82.046875 267.492188 83.277344 Z M 267.492188 83.277344 " fill-opacity="1" fill-rule="evenodd"/><path fill="#000000" d="M 237.019531 75.914062 C 237.039062 75.921875 237 76.042969 236.996094 76.054688 C 236.957031 76.222656 236.914062 76.390625 236.867188 76.558594 C 236.660156 77.339844 236.457031 78.117188 236.246094 78.898438 C 235.957031 79.976562 235.71875 81.066406 235.460938 82.152344 C 235.398438 82.429688 235.332031 82.707031 235.253906 82.980469 C 235.238281 83.046875 235.15625 83.210938 235.183594 83.28125 C 235.257812 83.480469 235.457031 83.65625 235.597656 83.808594 C 235.917969 84.152344 236.257812 84.457031 236.589844 84.785156 C 236.625 84.738281 236.542969 84.894531 236.554688 84.953125 C 236.585938 85.121094 236.628906 85.285156 236.671875 85.449219 C 236.789062 85.878906 236.925781 86.296875 237.070312 86.714844 C 237.515625 87.964844 237.980469 89.210938 238.457031 90.449219 C 239.890625 94.15625 241.90625 97.53125 243.476562 101.164062 C 243.472656 101.15625 242.925781 101.65625 242.886719 101.695312 C 242.535156 102.046875 242.207031 102.417969 241.863281 102.777344 C 240.84375 103.835938 239.726562 104.796875 238.613281 105.75 C 235.039062 108.8125 231.660156 111.960938 227.570312 114.316406 C 226.496094 114.933594 225.429688 115.648438 224.320312 116.191406 C 221.648438 117.503906 218.617188 118.574219 215.648438 118.886719 C 214.65625 118.992188 213.644531 119 212.644531 118.871094 C 208.671875 118.363281 204.875 116.171875 202.878906 112.5625 C 202.304688 111.515625 201.90625 110.367188 201.636719 109.207031 C 200.832031 105.761719 201.191406 102.230469 201.78125 98.777344 C 202.328125 95.585938 203.246094 92.691406 204.375 89.679688 C 204.585938 89.117188 205.496094 87.308594 204.457031 86.96875 C 204.402344 86.953125 204.1875 87.425781 204.167969 87.460938 C 203.871094 88.015625 203.609375 88.59375 203.34375 89.167969 C 202.234375 91.5625 201.164062 93.992188 200.332031 96.503906 C 198.640625 101.597656 198.019531 107.074219 198.691406 112.417969 C 199.222656 116.613281 200.671875 120.378906 204.058594 122.992188 C 208.097656 126.113281 213.613281 126.722656 218.480469 125.492188 C 221.859375 124.636719 225.207031 122.855469 228.113281 120.917969 C 228.121094 120.921875 229.730469 119.78125 229.867188 119.679688 C 231.683594 118.339844 233.496094 116.988281 235.25 115.566406 C 238.414062 113 241.71875 110.148438 243.832031 106.578125 C 246.335938 102.339844 246.328125 96.90625 244.78125 92.363281 C 244.882812 92.375 244.710938 92.171875 244.667969 92.078125 C 244.570312 91.859375 244.464844 91.644531 244.363281 91.425781 C 244.09375 90.855469 243.808594 90.289062 243.535156 89.71875 C 242.710938 88 241.679688 86.3125 241.027344 84.515625 C 240.871094 84.082031 241.148438 84.070312 241.550781 84.300781 C 242.042969 84.582031 242.484375 84.972656 243.003906 85.199219 C 243.191406 85.277344 243.476562 85.335938 243.558594 85.082031 C 243.722656 84.570312 243.25 83.910156 243.003906 83.515625 C 242.191406 82.21875 238.125 77.28125 237.019531 75.914062 Z M 237.019531 75.914062 " fill-opacity="1" fill-rule="evenodd"/><path fill="#000000" d="M 249.660156 64.867188 C 249.648438 64.84375 249.648438 64.910156 249.636719 64.933594 C 249.617188 64.988281 249.597656 65.042969 249.574219 65.097656 C 249.53125 65.191406 249.335938 65.773438 249.171875 65.730469 C 248.875 65.652344 248.550781 65.179688 248.335938 65.003906 C 247.851562 64.613281 247.308594 64.265625 246.78125 63.917969 C 246.515625 63.746094 246.132812 63.574219 245.992188 63.304688 C 245.847656 63.023438 245.867188 62.671875 245.855469 62.375 C 245.824219 61.488281 245.910156 59.792969 247.203125 59.496094 C 248.15625 59.277344 249.128906 59.878906 249.792969 60.378906 C 251.027344 61.308594 251.808594 62.609375 252.4375 63.875 C 253.234375 65.492188 253.871094 67.175781 254.40625 68.867188 C 254.421875 68.910156 254.433594 68.78125 254.445312 68.738281 C 254.46875 68.65625 254.488281 68.570312 254.507812 68.484375 C 254.5625 68.25 254.617188 68.011719 254.667969 67.773438 C 254.824219 67.023438 254.972656 66.273438 255.171875 65.53125 C 255.699219 63.550781 256.324219 61.613281 257.464844 59.8125 C 257.957031 59.042969 258.742188 58.136719 259.929688 58.34375 C 260.605469 58.460938 260.953125 58.945312 261.34375 59.371094 C 261.839844 59.917969 262.488281 60.765625 262.410156 61.496094 C 262.363281 61.9375 262.09375 62.390625 261.894531 62.789062 C 261.726562 63.128906 261.535156 63.539062 261.207031 63.796875 C 260.910156 64.027344 260.523438 63.453125 260.390625 63.300781 C 259.957031 62.792969 259.007812 61.515625 258.144531 62.191406 C 257.636719 62.585938 257.394531 63.1875 257.179688 63.722656 C 256.785156 64.699219 256.492188 65.707031 256.210938 66.710938 C 256.191406 66.785156 256.128906 67.003906 256.109375 67.070312 C 256.007812 67.453125 255.894531 67.835938 255.792969 68.21875 C 255.386719 69.71875 254.890625 71.207031 254.269531 72.65625 C 254.128906 72.980469 253.988281 73.304688 253.808594 73.613281 C 253.777344 73.667969 253.675781 73.898438 253.566406 73.875 C 253.445312 73.851562 253.425781 73.53125 253.40625 73.453125 C 253.3125 73.039062 253.203125 72.621094 253.105469 72.207031 C 253.007812 71.761719 252.90625 71.320312 252.769531 70.882812 C 252.539062 70.132812 252.292969 69.375 252.011719 68.632812 C 251.59375 67.53125 250.492188 65.5 249.660156 64.867188 Z M 249.660156 64.867188 " fill-opacity="1" fill-rule="evenodd"/><path fill="#000000" d="M 245.128906 37.328125 C 245.117188 37.308594 245.113281 37.371094 245.105469 37.394531 C 245.082031 37.449219 245.0625 37.503906 245.039062 37.558594 C 244.996094 37.65625 244.800781 38.234375 244.636719 38.191406 C 244.34375 38.113281 244.019531 37.640625 243.800781 37.464844 C 243.316406 37.074219 242.777344 36.726562 242.246094 36.378906 C 241.980469 36.207031 241.601562 36.035156 241.460938 35.765625 C 241.316406 35.484375 241.332031 35.132812 241.324219 34.835938 C 241.289062 33.949219 241.378906 32.253906 242.667969 31.957031 C 243.625 31.738281 244.59375 32.339844 245.257812 32.839844 C 246.492188 33.773438 247.273438 35.070312 247.902344 36.339844 C 248.699219 37.953125 249.335938 39.640625 249.875 41.332031 C 249.886719 41.375 249.902344 41.246094 249.910156 41.199219 C 249.933594 41.117188 249.953125 41.03125 249.972656 40.949219 C 250.027344 40.710938 250.082031 40.472656 250.132812 40.234375 C 250.289062 39.488281 250.4375 38.734375 250.636719 37.992188 C 251.167969 36.011719 251.789062 34.078125 252.933594 32.273438 C 253.421875 31.503906 254.210938 30.601562 255.398438 30.804688 C 256.074219 30.921875 256.421875 31.40625 256.808594 31.832031 C 257.304688 32.378906 257.953125 33.226562 257.875 33.960938 C 257.832031 34.398438 257.558594 34.851562 257.359375 35.253906 C 257.191406 35.59375 257.003906 36 256.671875 36.257812 C 256.375 36.488281 255.988281 35.917969 255.859375 35.765625 C 255.421875 35.253906 254.472656 33.976562 253.609375 34.652344 C 253.101562 35.050781 252.859375 35.648438 252.644531 36.183594 C 252.253906 37.160156 251.957031 38.167969 251.675781 39.171875 C 251.65625 39.246094 251.59375 39.46875 251.578125 39.53125 C 251.472656 39.914062 251.359375 40.296875 251.257812 40.679688 C 250.855469 42.179688 250.355469 43.671875 249.738281 45.117188 C 249.597656 45.441406 249.453125 45.765625 249.273438 46.078125 C 249.242188 46.128906 249.140625 46.359375 249.035156 46.335938 C 248.910156 46.3125 248.890625 45.992188 248.871094 45.917969 C 248.777344 45.5 248.667969 45.085938 248.574219 44.667969 C 248.472656 44.226562 248.375 43.78125 248.238281 43.347656 C 248.003906 42.59375 247.757812 41.835938 247.476562 41.097656 C 247.058594 39.992188 245.960938 37.960938 245.128906 37.328125 Z M 245.128906 37.328125 " fill-opacity="1" fill-rule="evenodd"/><path fill="#000000" d="M 98.738281 44.976562 C 98.730469 44.957031 98.726562 45.011719 98.71875 45.027344 C 98.703125 45.070312 98.6875 45.117188 98.667969 45.160156 C 98.632812 45.234375 98.476562 45.699219 98.34375 45.664062 C 98.105469 45.601562 97.847656 45.226562 97.671875 45.085938 C 97.285156 44.773438 96.847656 44.496094 96.421875 44.21875 C 96.210938 44.082031 95.90625 43.945312 95.792969 43.730469 C 95.675781 43.507812 95.691406 43.226562 95.683594 42.988281 C 95.65625 42.28125 95.726562 40.929688 96.761719 40.691406 C 97.53125 40.519531 98.308594 40.996094 98.84375 41.398438 C 99.835938 42.140625 100.460938 43.175781 100.96875 44.1875 C 101.609375 45.476562 102.121094 46.820312 102.550781 48.167969 C 102.5625 48.203125 102.574219 48.097656 102.582031 48.0625 C 102.597656 47.996094 102.617188 47.929688 102.632812 47.863281 C 102.675781 47.671875 102.71875 47.484375 102.757812 47.292969 C 102.886719 46.695312 103.003906 46.097656 103.164062 45.503906 C 103.589844 43.925781 104.089844 42.382812 105.007812 40.945312 C 105.402344 40.328125 106.035156 39.609375 106.988281 39.773438 C 107.53125 39.867188 107.8125 40.253906 108.125 40.59375 C 108.523438 41.027344 109.042969 41.703125 108.980469 42.289062 C 108.945312 42.636719 108.726562 43 108.566406 43.320312 C 108.429688 43.589844 108.277344 43.917969 108.011719 44.121094 C 107.773438 44.304688 107.464844 43.851562 107.359375 43.726562 C 107.007812 43.320312 106.246094 42.304688 105.550781 42.84375 C 105.144531 43.15625 104.949219 43.636719 104.777344 44.0625 C 104.460938 44.84375 104.226562 45.644531 104 46.445312 C 103.984375 46.507812 103.933594 46.679688 103.917969 46.734375 C 103.835938 47.039062 103.746094 47.34375 103.664062 47.648438 C 103.339844 48.84375 102.9375 50.035156 102.441406 51.1875 C 102.328125 51.445312 102.214844 51.707031 102.070312 51.953125 C 102.042969 51.992188 101.964844 52.179688 101.875 52.160156 C 101.777344 52.140625 101.761719 51.886719 101.746094 51.824219 C 101.671875 51.492188 101.582031 51.160156 101.507812 50.828125 C 101.425781 50.476562 101.347656 50.121094 101.238281 49.777344 C 101.050781 49.175781 100.851562 48.570312 100.625 47.980469 C 100.289062 47.101562 99.40625 45.480469 98.738281 44.976562 Z M 98.738281 44.976562 " fill-opacity="1" fill-rule="evenodd"/><path fill="#000000" d="M 239.3125 59.632812 C 239.378906 59.6875 239.460938 59.539062 239.539062 59.496094 C 239.816406 59.335938 240.089844 59.167969 240.367188 59.007812 C 241.5 58.351562 242.632812 57.703125 243.789062 57.085938 C 248.679688 54.480469 253.929688 52.125 259.214844 50.296875 C 260.644531 49.800781 262.070312 49.300781 263.507812 48.828125 C 263.835938 48.71875 264.164062 48.601562 264.5 48.507812 C 264.519531 48.503906 264.789062 48.421875 264.808594 48.464844 C 264.84375 48.539062 264.664062 48.753906 264.628906 48.808594 C 264.433594 49.128906 264.230469 49.445312 264.035156 49.765625 C 263.730469 50.253906 263.53125 50.976562 263.132812 51.40625 C 262.9375 51.617188 262.304688 51.71875 262.042969 51.820312 C 261.171875 52.152344 260.304688 52.5 259.445312 52.851562 C 253.988281 55.078125 248.65625 57.578125 243.316406 60.03125 C 242.050781 60.613281 240.769531 61.183594 239.523438 61.808594 C 239.359375 61.890625 238.492188 62.476562 238.285156 62.375 C 238.140625 62.300781 238.28125 61.929688 238.3125 61.835938 C 238.480469 61.308594 239.078125 60.136719 239.3125 59.632812 Z M 239.3125 59.632812 " fill-opacity="1" fill-rule="evenodd"/><path fill="#000000" d="M 134.308594 64.664062 C 134.375 64.71875 134.457031 64.570312 134.53125 64.523438 C 134.808594 64.363281 135.085938 64.199219 135.363281 64.039062 C 136.492188 63.382812 137.625 62.734375 138.785156 62.117188 C 143.671875 59.511719 148.925781 57.15625 154.210938 55.328125 C 155.636719 54.832031 157.066406 54.332031 158.503906 53.855469 C 158.832031 53.75 159.160156 53.628906 159.492188 53.539062 C 159.515625 53.535156 159.78125 53.449219 159.804688 53.496094 C 159.835938 53.566406 159.65625 53.785156 159.621094 53.839844 C 159.425781 54.160156 159.222656 54.476562 159.027344 54.792969 C 158.722656 55.285156 158.523438 56.007812 158.128906 56.433594 C 157.929688 56.648438 157.300781 56.746094 157.035156 56.847656 C 156.164062 57.183594 155.300781 57.53125 154.4375 57.882812 C 148.980469 60.109375 143.648438 62.609375 138.3125 65.0625 C 137.042969 65.644531 135.761719 66.210938 134.519531 66.839844 C 134.355469 66.921875 133.488281 67.507812 133.28125 67.402344 C 133.132812 67.328125 133.273438 66.960938 133.304688 66.863281 C 133.472656 66.339844 134.074219 65.167969 134.308594 64.664062 Z M 134.308594 64.664062 " fill-opacity="1" fill-rule="evenodd"/><path fill="#000000" d="M 91.230469 35.640625 C 91.273438 35.691406 91.324219 35.554688 91.371094 35.515625 C 91.546875 35.367188 91.71875 35.21875 91.890625 35.070312 C 92.597656 34.472656 93.308594 33.878906 94.035156 33.316406 C 97.09375 30.945312 100.382812 28.792969 103.691406 27.125 C 104.585938 26.675781 105.480469 26.21875 106.378906 25.789062 C 106.585938 25.6875 106.789062 25.582031 107 25.496094 C 107.011719 25.492188 107.179688 25.417969 107.191406 25.457031 C 107.214844 25.523438 107.101562 25.71875 107.082031 25.773438 C 106.957031 26.0625 106.832031 26.351562 106.707031 26.640625 C 106.519531 27.089844 106.390625 27.75 106.144531 28.136719 C 106.019531 28.332031 105.625 28.421875 105.460938 28.515625 C 104.914062 28.820312 104.375 29.136719 103.835938 29.457031 C 100.417969 31.488281 97.078125 33.769531 93.738281 36.003906 C 92.941406 36.535156 92.140625 37.050781 91.363281 37.625 C 91.261719 37.699219 90.71875 38.234375 90.589844 38.140625 C 90.496094 38.070312 90.585938 37.734375 90.605469 37.648438 C 90.707031 37.167969 91.085938 36.097656 91.230469 35.640625 Z M 91.230469 35.640625 " fill-opacity="1" fill-rule="evenodd"/><path fill="#000000" d="M 283.429688 74.160156 C 283.335938 74.019531 283.75 73.660156 283.796875 73.625 C 284.300781 73.257812 284.832031 72.910156 285.355469 72.5625 C 287.484375 71.15625 289.742188 69.933594 291.886719 68.550781 C 295.660156 66.117188 299.144531 63.210938 302.46875 60.28125 C 304.210938 58.746094 306.195312 57.300781 307.589844 55.472656 C 307.414062 55.210938 307.09375 55.007812 306.855469 54.804688 C 306.296875 54.335938 305.726562 53.878906 305.164062 53.414062 C 304.847656 53.152344 304.496094 52.902344 304.324219 52.527344 C 304.167969 52.195312 304.179688 51.816406 304.222656 51.464844 C 304.46875 49.574219 305.949219 47.597656 307.636719 46.539062 C 308.648438 45.90625 310.09375 45.742188 310.945312 46.703125 C 312.289062 48.222656 311.640625 50.371094 310.976562 52.03125 C 310.835938 52.386719 310.671875 52.726562 310.503906 53.070312 C 310.433594 53.207031 310.28125 53.402344 310.269531 53.558594 C 310.253906 53.730469 310.6875 53.949219 310.804688 54.042969 C 311.226562 54.378906 311.699219 54.820312 311.894531 55.3125 C 312.144531 55.957031 311.609375 56.796875 311.296875 57.34375 C 311.210938 57.496094 310.996094 57.949219 310.746094 57.890625 C 310.46875 57.828125 310.195312 57.558594 310 57.378906 C 309.566406 56.988281 309.179688 56.550781 308.738281 56.167969 C 308.738281 56.160156 308.539062 56.382812 308.503906 56.421875 C 308.335938 56.617188 308.160156 56.808594 307.988281 57 C 307.5 57.542969 307.027344 58.101562 306.546875 58.652344 C 305.148438 60.253906 303.667969 61.816406 302.042969 63.226562 C 298.269531 66.5 293.882812 69.113281 289.332031 71.359375 C 288.160156 71.9375 286.980469 72.511719 285.789062 73.050781 C 285.128906 73.351562 283.621094 74.441406 283.429688 74.160156 Z M 309.515625 52.960938 C 309.519531 52.964844 309.570312 52.75 309.574219 52.734375 C 309.628906 52.472656 309.6875 52.207031 309.722656 51.945312 C 309.839844 50.992188 309.722656 49.746094 308.910156 49.054688 C 308.261719 48.5 307.339844 48.566406 306.738281 49.152344 C 306.507812 49.378906 306.320312 49.664062 306.371094 49.984375 C 306.4375 50.382812 306.769531 50.722656 307.058594 51 C 307.601562 51.527344 308.921875 52.484375 309.515625 52.960938 Z M 309.515625 52.960938 " fill-opacity="1" fill-rule="evenodd"/><path fill="#000000" d="M 133.222656 53.429688 C 133.121094 53.261719 133.574219 52.828125 133.621094 52.789062 C 134.171875 52.34375 134.75 51.929688 135.320312 51.511719 C 137.636719 49.820312 140.09375 48.351562 142.425781 46.691406 C 146.535156 43.761719 150.324219 40.269531 153.941406 36.746094 C 155.835938 34.90625 158 33.164062 159.515625 30.964844 C 159.324219 30.65625 158.972656 30.410156 158.714844 30.164062 C 158.109375 29.601562 157.488281 29.054688 156.878906 28.492188 C 156.53125 28.179688 156.148438 27.875 155.960938 27.429688 C 155.792969 27.027344 155.800781 26.574219 155.851562 26.148438 C 156.121094 23.875 157.730469 21.503906 159.566406 20.230469 C 160.667969 19.46875 162.242188 19.269531 163.167969 20.425781 C 164.628906 22.253906 163.921875 24.832031 163.203125 26.832031 C 163.046875 27.257812 162.867188 27.667969 162.683594 28.082031 C 162.609375 28.246094 162.445312 28.480469 162.429688 28.664062 C 162.414062 28.875 162.882812 29.136719 163.011719 29.25 C 163.472656 29.652344 163.988281 30.183594 164.199219 30.777344 C 164.472656 31.546875 163.886719 32.558594 163.550781 33.21875 C 163.457031 33.402344 163.222656 33.941406 162.949219 33.875 C 162.648438 33.796875 162.347656 33.472656 162.136719 33.261719 C 161.664062 32.789062 161.246094 32.265625 160.765625 31.804688 C 160.765625 31.792969 160.546875 32.0625 160.511719 32.109375 C 160.324219 32.34375 160.136719 32.574219 159.949219 32.804688 C 159.414062 33.457031 158.902344 34.125 158.378906 34.789062 C 156.859375 36.714844 155.246094 38.59375 153.476562 40.289062 C 149.375 44.226562 144.601562 47.363281 139.648438 50.0625 C 138.371094 50.757812 137.089844 51.449219 135.789062 52.097656 C 135.070312 52.457031 133.429688 53.769531 133.222656 53.429688 Z M 161.609375 27.949219 C 161.617188 27.953125 161.671875 27.695312 161.675781 27.675781 C 161.734375 27.359375 161.796875 27.042969 161.835938 26.726562 C 161.960938 25.582031 161.835938 24.082031 160.953125 23.253906 C 160.246094 22.585938 159.246094 22.664062 158.585938 23.371094 C 158.335938 23.640625 158.132812 23.988281 158.191406 24.371094 C 158.261719 24.847656 158.621094 25.257812 158.9375 25.59375 C 159.527344 26.226562 160.964844 27.375 161.609375 27.949219 Z M 161.609375 27.949219 " fill-opacity="1" fill-rule="evenodd"/><path fill="#000000" d="M 210.949219 58.257812 C 210.949219 58.238281 210.933594 57.953125 210.9375 57.871094 C 210.96875 57.558594 211.015625 57.246094 211.054688 56.933594 C 211.152344 56.109375 211.203125 55.277344 211.332031 54.457031 C 211.386719 54.085938 211.433594 53.601562 211.929688 53.75 C 212.699219 53.980469 213.410156 54.511719 214.097656 54.902344 C 215.324219 55.601562 216.542969 56.316406 217.796875 56.96875 C 218.292969 57.226562 218.796875 57.476562 219.289062 57.746094 C 219.378906 57.792969 219.671875 57.90625 219.65625 58.042969 C 219.640625 58.234375 219.191406 58.242188 219.066406 58.25 C 218.757812 58.277344 217.367188 58.171875 217.210938 58.449219 C 216.945312 58.925781 217.769531 59.886719 218.003906 60.226562 C 219.101562 61.804688 220.460938 63.183594 221.921875 64.4375 C 221.957031 64.429688 222.351562 63.707031 222.398438 63.644531 C 222.898438 62.90625 223.410156 62.171875 223.921875 61.4375 C 225.746094 58.804688 227.640625 56.191406 229.609375 53.65625 C 230.082031 53.046875 230.566406 52.441406 231.066406 51.851562 C 231.230469 51.664062 231.449219 51.34375 231.726562 51.304688 C 232.144531 51.246094 231.917969 52.597656 231.890625 52.796875 C 231.699219 54.378906 230.632812 55.859375 229.820312 57.179688 C 229.066406 58.398438 228.289062 59.59375 227.488281 60.785156 C 226.246094 62.636719 225.015625 64.5 223.730469 66.324219 C 224.226562 66.710938 224.714844 67.519531 225.164062 68 C 226.320312 69.226562 227.871094 70.574219 228.464844 72.1875 C 228.96875 73.558594 229.46875 74.808594 229.621094 76.242188 C 229.789062 77.894531 229.441406 79.902344 228.84375 81.488281 C 227.789062 84.269531 225.015625 86.75 222.535156 88.289062 C 220.570312 89.515625 217.800781 90.695312 215.425781 90.378906 C 212.191406 89.949219 212.125 85.234375 212.261719 82.839844 C 212.296875 82.253906 212.359375 81.675781 212.457031 81.101562 C 212.597656 80.300781 212.796875 79.511719 213.046875 78.738281 C 213.324219 77.878906 213.660156 77.03125 214.039062 76.210938 C 215.355469 73.386719 217.070312 70.746094 219.050781 68.335938 C 216.433594 66.046875 214.671875 62.839844 212.660156 60.0625 C 212.488281 59.820312 212.28125 59.609375 211.957031 59.664062 C 211.875 59.675781 211.304688 59.820312 211.109375 59.527344 C 210.875 59.183594 211.015625 58.386719 210.949219 58.257812 Z M 221.222656 70.921875 C 221.039062 70.921875 220.679688 71.386719 220.5625 71.492188 C 219.9375 72.082031 219.347656 72.71875 218.761719 73.351562 C 218.308594 73.839844 217.871094 74.339844 217.445312 74.855469 C 217.082031 75.300781 216.71875 75.757812 216.386719 76.226562 C 215.007812 78.15625 213.0625 81.796875 215.71875 83.535156 C 218.492188 85.355469 222.046875 83.070312 224.214844 81.347656 C 225.265625 80.511719 226.347656 79.578125 226.535156 78.183594 C 226.664062 77.21875 226.277344 76.347656 225.78125 75.542969 C 224.855469 74.039062 222.535156 72.097656 221.222656 70.921875 Z M 210.949219 58.257812 Z M 210.949219 58.257812 " fill-opacity="1" fill-rule="evenodd"/><path fill="#000000" d="M 210.6875 37.417969 L 214.503906 32.652344 L 220.730469 37.515625 L 217.066406 42.328125 Z M 210.6875 37.417969 " fill-opacity="1" fill-rule="evenodd"/><path fill="#000000" d="M 72.183594 74.53125 L 76 69.765625 L 82.226562 74.628906 L 78.558594 79.445312 Z M 72.183594 74.53125 " fill-opacity="1" fill-rule="evenodd"/><path fill="#000000" d="M 80.203125 74.53125 L 84.023438 69.765625 L 90.246094 74.628906 L 86.582031 79.445312 Z M 80.203125 74.53125 " fill-opacity="1" fill-rule="evenodd"/><path fill="#000000" d="M 306.75 93.035156 C 306.710938 92.941406 306.914062 92.546875 306.945312 92.453125 C 307.160156 91.835938 307.363281 91.214844 307.621094 90.613281 C 307.65625 90.527344 307.835938 89.957031 307.96875 89.976562 C 308.035156 89.988281 308.082031 90.125 308.109375 90.179688 C 308.21875 90.414062 308.332031 90.640625 308.4375 90.875 C 308.957031 92.007812 309.023438 93.351562 308.863281 94.582031 C 308.6875 95.953125 308.070312 97.367188 306.859375 98.035156 C 305.089844 99.015625 302.9375 97.636719 302.398438 95.769531 C 301.59375 96.195312 301.25 97.328125 300.734375 98.179688 C 300.152344 99.136719 299.296875 99.78125 298.226562 99.984375 C 296.464844 100.3125 295.179688 98.945312 293.578125 98.507812 C 292.679688 98.261719 291.761719 98.488281 290.941406 98.90625 C 289.070312 99.84375 287.402344 101.285156 285.738281 102.570312 C 281.625 105.757812 277.816406 109.375 273.667969 112.503906 C 270.195312 115.128906 266.242188 116.71875 262.042969 117.75 C 260.976562 118.011719 259.90625 118.285156 258.828125 118.484375 C 258.726562 118.503906 257.902344 118.691406 257.882812 118.476562 C 257.859375 118.242188 258.351562 118 258.492188 117.910156 C 259.113281 117.496094 259.75 117.105469 260.394531 116.734375 C 263.117188 115.15625 265.917969 113.726562 268.644531 112.15625 C 273.867188 109.148438 278.765625 105.347656 283.542969 101.621094 C 286.117188 99.613281 288.691406 96.769531 291.84375 95.816406 C 294.332031 95.066406 296.390625 96.210938 298.855469 96.167969 C 298.855469 96.160156 299.167969 96.070312 299.183594 96.066406 C 299.375 95.992188 299.5625 95.898438 299.734375 95.785156 C 300.316406 95.40625 300.851562 94.921875 301.3125 94.390625 C 301.710938 93.925781 302.015625 93.394531 302.347656 92.878906 C 302.542969 92.578125 302.746094 92.289062 302.953125 92 C 303.09375 91.796875 303.234375 91.59375 303.378906 91.394531 C 303.433594 91.328125 303.984375 90.589844 304.113281 90.820312 C 304.234375 91.027344 303.914062 91.6875 303.847656 91.890625 C 303.585938 92.671875 303.332031 93.515625 303.894531 94.21875 C 304.714844 95.238281 308.410156 95.710938 306.75 93.035156 Z M 306.75 93.035156 " fill-opacity="1" fill-rule="evenodd"/><path fill="#000000" d="M 158.960938 98.265625 C 158.945312 98.21875 159.023438 98.015625 159.035156 97.96875 C 159.117188 97.652344 159.195312 97.335938 159.292969 97.03125 C 159.308594 96.984375 159.378906 96.695312 159.429688 96.707031 C 159.453125 96.710938 159.472656 96.78125 159.480469 96.808594 C 159.523438 96.929688 159.570312 97.042969 159.609375 97.164062 C 159.808594 97.742188 159.832031 98.429688 159.773438 99.058594 C 159.703125 99.757812 159.46875 100.476562 159.003906 100.820312 C 158.324219 101.320312 157.496094 100.617188 157.289062 99.664062 C 156.980469 99.882812 156.847656 100.457031 156.652344 100.894531 C 156.429688 101.382812 156.101562 101.710938 155.6875 101.8125 C 155.011719 101.980469 154.515625 101.285156 153.902344 101.0625 C 153.558594 100.933594 153.207031 101.050781 152.890625 101.261719 C 152.171875 101.742188 151.53125 102.476562 150.890625 103.136719 C 149.3125 104.761719 147.851562 106.609375 146.257812 108.207031 C 144.925781 109.546875 143.40625 110.359375 141.792969 110.882812 C 141.386719 111.019531 140.972656 111.15625 140.558594 111.257812 C 140.519531 111.269531 140.203125 111.367188 140.195312 111.253906 C 140.1875 111.136719 140.375 111.011719 140.429688 110.964844 C 140.667969 110.753906 140.914062 110.554688 141.160156 110.367188 C 142.207031 109.558594 143.28125 108.832031 144.328125 108.027344 C 146.332031 106.492188 148.214844 104.554688 150.050781 102.648438 C 151.039062 101.625 152.027344 100.175781 153.238281 99.6875 C 154.191406 99.304688 154.984375 99.886719 155.929688 99.867188 C 155.929688 99.863281 156.050781 99.816406 156.054688 99.8125 C 156.128906 99.777344 156.199219 99.730469 156.265625 99.671875 C 156.492188 99.476562 156.695312 99.230469 156.871094 98.957031 C 157.027344 98.722656 157.144531 98.449219 157.269531 98.1875 C 157.34375 98.035156 157.425781 97.886719 157.503906 97.738281 C 157.558594 97.636719 157.609375 97.53125 157.667969 97.429688 C 157.6875 97.394531 157.898438 97.019531 157.949219 97.136719 C 157.996094 97.242188 157.871094 97.578125 157.847656 97.683594 C 157.746094 98.082031 157.648438 98.511719 157.863281 98.871094 C 158.179688 99.390625 159.597656 99.632812 158.960938 98.265625 Z M 158.960938 98.265625 " fill-opacity="1" fill-rule="evenodd"/><path fill="#000000" d="M 218.222656 93.273438 C 218.234375 93.234375 218.097656 93.425781 218.085938 93.449219 C 217.992188 93.601562 217.898438 93.757812 217.804688 93.914062 C 217.539062 94.351562 217.292969 94.800781 217.050781 95.25 C 216.355469 96.527344 215.6875 97.820312 215.066406 99.136719 C 213.289062 102.894531 211.375 106.933594 211.929688 111.171875 C 212.074219 112.296875 212.433594 113.472656 213.140625 114.394531 C 213.414062 114.742188 213.757812 115.15625 214.21875 115.261719 C 215.0625 115.460938 215.9375 114.683594 216.453125 114.148438 C 217.683594 112.863281 218.476562 111.191406 218.984375 109.527344 C 219.144531 109 219.4375 108.148438 219.207031 107.597656 C 218.972656 107.042969 218.285156 108.167969 218.179688 108.332031 C 217.558594 109.289062 216.554688 111.070312 215.164062 109.878906 C 214.976562 109.71875 214.828125 109.511719 214.710938 109.300781 C 214.019531 108.0625 214.25 106.476562 214.515625 105.15625 C 214.996094 102.761719 216.074219 100.570312 217.105469 98.355469 C 217.738281 97 219.402344 93.792969 218.222656 93.273438 Z M 218.222656 93.273438 " fill-opacity="1" fill-rule="evenodd"/><path fill="#000000" d="M 192.40625 56.410156 C 192.417969 56.375 192.28125 56.5625 192.269531 56.585938 C 192.175781 56.738281 192.078125 56.894531 191.988281 57.050781 C 191.722656 57.492188 191.476562 57.9375 191.234375 58.386719 C 190.539062 59.667969 189.871094 60.957031 189.25 62.273438 C 187.472656 66.03125 185.558594 70.070312 186.109375 74.308594 C 186.257812 75.433594 186.617188 76.613281 187.324219 77.53125 C 187.59375 77.878906 187.941406 78.292969 188.402344 78.402344 C 189.246094 78.597656 190.121094 77.820312 190.632812 77.285156 C 191.867188 76 192.660156 74.328125 193.167969 72.664062 C 193.328125 72.136719 193.617188 71.285156 193.386719 70.734375 C 193.15625 70.179688 192.46875 71.304688 192.363281 71.46875 C 191.742188 72.425781 190.738281 74.207031 189.347656 73.015625 C 189.160156 72.855469 189.011719 72.652344 188.894531 72.4375 C 188.203125 71.199219 188.433594 69.613281 188.699219 68.292969 C 189.179688 65.898438 190.257812 63.707031 191.289062 61.496094 C 191.921875 60.136719 193.585938 56.933594 192.40625 56.410156 Z M 192.40625 56.410156 " fill-opacity="1" fill-rule="evenodd"/><path fill="#000000" d="M 279.621094 44.363281 C 279.757812 44.433594 280.40625 44.273438 280.574219 44.265625 C 281.417969 44.226562 282.265625 44.203125 283.113281 44.210938 C 285.765625 44.234375 288.402344 44.476562 291.011719 44.902344 C 292.199219 45.09375 294.304688 45.261719 294.429688 46.695312 C 294.328125 46.644531 294.414062 46.90625 294.386719 47.007812 C 294.332031 47.199219 294.273438 47.394531 294.207031 47.585938 C 294.015625 48.152344 293.722656 48.683594 293.425781 49.210938 C 292.535156 50.769531 291.253906 52.152344 290.050781 53.515625 C 289.070312 54.617188 288.050781 55.667969 287 56.710938 C 286.519531 57.195312 285.996094 57.878906 285.355469 58.195312 C 284.699219 58.515625 283.789062 58.550781 283.070312 58.664062 C 281.757812 58.871094 280.453125 59.113281 279.148438 59.363281 C 278.046875 59.574219 276.949219 59.800781 275.839844 59.976562 C 275.445312 60.035156 274.875 60.195312 274.480469 60.070312 C 274.0625 59.9375 274.9375 59.421875 275.035156 59.367188 C 276.050781 58.824219 277.140625 58.386719 278.1875 57.894531 C 280.710938 56.707031 283.191406 55.390625 285.582031 53.992188 C 286.167969 53.644531 286.761719 53.304688 287.355469 52.972656 C 287.441406 52.925781 287.914062 52.753906 287.933594 52.644531 C 287.996094 52.304688 286.902344 52.0625 286.707031 52.007812 C 285.183594 51.582031 283.539062 51.519531 281.957031 51.523438 C 280.222656 51.527344 278.484375 51.671875 276.777344 51.945312 C 276.347656 52.015625 275.921875 52.113281 275.488281 52.167969 C 275.382812 52.179688 275.148438 52.222656 275.074219 52.109375 C 274.972656 51.945312 275.117188 51.609375 275.1875 51.460938 C 275.460938 50.902344 275.789062 50.367188 276.128906 49.84375 C 276.453125 49.351562 276.765625 48.859375 277.078125 48.367188 C 277.589844 47.558594 279.105469 45.171875 279.621094 44.363281 Z M 279.621094 44.363281 " fill-opacity="1" fill-rule="evenodd"/><path fill="#000000" d="M 73.386719 50.765625 C 73.496094 50.816406 74.015625 50.695312 74.152344 50.691406 C 74.824219 50.660156 75.503906 50.644531 76.179688 50.648438 C 78.300781 50.667969 80.410156 50.851562 82.496094 51.179688 C 83.445312 51.328125 85.128906 51.453125 85.230469 52.554688 C 85.148438 52.519531 85.214844 52.71875 85.195312 52.796875 C 85.152344 52.945312 85.105469 53.09375 85.050781 53.238281 C 84.898438 53.675781 84.664062 54.085938 84.425781 54.488281 C 83.714844 55.6875 82.691406 56.75 81.726562 57.792969 C 80.945312 58.640625 80.128906 59.449219 79.289062 60.25 C 78.902344 60.621094 78.484375 61.144531 77.972656 61.390625 C 77.449219 61.636719 76.71875 61.664062 76.148438 61.75 C 75.09375 61.910156 74.054688 62.097656 73.007812 62.285156 C 72.128906 62.449219 71.25 62.621094 70.363281 62.757812 C 70.050781 62.804688 69.59375 62.929688 69.277344 62.832031 C 68.941406 62.730469 69.640625 62.332031 69.722656 62.289062 C 70.535156 61.871094 71.40625 61.535156 72.242188 61.160156 C 74.261719 60.246094 76.242188 59.238281 78.152344 58.160156 C 78.625 57.894531 79.097656 57.632812 79.574219 57.378906 C 79.640625 57.34375 80.019531 57.210938 80.035156 57.128906 C 80.085938 56.867188 79.210938 56.679688 79.054688 56.636719 C 77.835938 56.308594 76.519531 56.261719 75.253906 56.265625 C 73.867188 56.269531 72.480469 56.378906 71.113281 56.589844 C 70.769531 56.640625 70.429688 56.71875 70.085938 56.757812 C 70 56.769531 69.8125 56.800781 69.753906 56.714844 C 69.667969 56.589844 69.785156 56.328125 69.84375 56.214844 C 70.058594 55.789062 70.324219 55.375 70.597656 54.972656 C 70.851562 54.597656 71.105469 54.21875 71.355469 53.839844 C 71.765625 53.21875 72.976562 51.386719 73.386719 50.765625 Z M 73.386719 50.765625 " fill-opacity="1" fill-rule="evenodd"/><path fill="#000000" d="M 128.429688 23.996094 C 128.566406 24.066406 129.21875 23.90625 129.386719 23.898438 C 130.230469 23.859375 131.078125 23.839844 131.925781 23.84375 C 134.578125 23.867188 137.214844 24.109375 139.824219 24.535156 C 141.011719 24.726562 143.117188 24.894531 143.242188 26.328125 C 143.140625 26.277344 143.226562 26.539062 143.199219 26.640625 C 143.144531 26.835938 143.082031 27.027344 143.019531 27.21875 C 142.828125 27.785156 142.535156 28.320312 142.238281 28.84375 C 141.347656 30.402344 140.066406 31.789062 138.859375 33.148438 C 137.882812 34.25 136.863281 35.300781 135.8125 36.347656 C 135.332031 36.828125 134.808594 37.511719 134.167969 37.828125 C 133.511719 38.148438 132.601562 38.1875 131.882812 38.300781 C 130.566406 38.503906 129.265625 38.746094 127.960938 38.996094 C 126.859375 39.207031 125.761719 39.433594 124.652344 39.609375 C 124.257812 39.671875 123.6875 39.832031 123.292969 39.703125 C 122.875 39.570312 123.75 39.054688 123.847656 39 C 124.863281 38.457031 125.953125 38.019531 127 37.527344 C 129.523438 36.339844 132.003906 35.027344 134.390625 33.625 C 134.980469 33.28125 135.570312 32.9375 136.167969 32.605469 C 136.253906 32.5625 136.726562 32.386719 136.746094 32.28125 C 136.808594 31.9375 135.714844 31.695312 135.519531 31.640625 C 133.996094 31.214844 132.347656 31.152344 130.769531 31.160156 C 129.03125 31.164062 127.296875 31.304688 125.589844 31.578125 C 125.160156 31.648438 124.734375 31.746094 124.300781 31.800781 C 124.195312 31.8125 123.960938 31.855469 123.886719 31.746094 C 123.78125 31.578125 123.929688 31.242188 124 31.09375 C 124.273438 30.535156 124.601562 30 124.941406 29.476562 C 125.261719 28.984375 125.578125 28.492188 125.890625 28 C 126.402344 27.191406 127.917969 24.804688 128.429688 23.996094 Z M 128.429688 23.996094 " fill-opacity="1" fill-rule="evenodd"/><g clip-path="url(#94c88d8a78)"><path fill="#000000" d="M 340.238281 53.777344 C 340.402344 52.980469 339.957031 51.914062 339.75 51.15625 C 339.117188 48.773438 338.167969 46.476562 337.171875 44.203125 C 334.574219 38.273438 330.8125 32.9375 326.371094 28.082031 C 323.261719 24.683594 319.769531 21.398438 315.625 19.101562 C 311.726562 16.941406 307.355469 15.484375 303.007812 14.34375 C 301.628906 13.984375 300.25 13.65625 298.839844 13.414062 C 298.238281 13.3125 297.632812 13.164062 297.023438 13.117188 C 297.003906 13.113281 296.53125 13.109375 296.542969 13.144531 C 296.78125 13.722656 298.742188 14.589844 299.25 14.945312 C 301.570312 16.570312 303.765625 18.351562 305.800781 20.289062 C 311.734375 25.953125 316.855469 32.519531 320.953125 39.464844 C 322.929688 42.816406 324.65625 46.332031 326.003906 49.949219 C 326.429688 51.09375 326.804688 52.246094 327.121094 53.421875 C 327.257812 53.914062 327.261719 54.746094 327.578125 55.171875 C 328.144531 55.945312 329.382812 56.386719 330.234375 56.789062 C 331.617188 57.445312 334.257812 59.015625 334.257812 59.015625 C 334.257812 59.015625 335.714844 58.117188 336.300781 57.707031 C 337.574219 56.808594 339.351562 55.042969 340.238281 53.777344 Z M 340.238281 53.777344 " fill-opacity="1" fill-rule="evenodd"/></g><path fill="#000000" d="M 340.238281 74.625 C 340.402344 75.425781 339.957031 76.488281 339.75 77.246094 C 339.117188 79.632812 338.167969 81.929688 337.171875 84.199219 C 334.574219 90.132812 330.8125 95.464844 326.371094 100.324219 C 323.261719 103.722656 319.769531 107.007812 315.625 109.304688 C 311.726562 111.460938 307.355469 112.921875 303.007812 114.058594 C 301.628906 114.421875 300.25 114.746094 298.839844 114.988281 C 298.238281 115.089844 297.632812 115.238281 297.023438 115.289062 C 297.003906 115.289062 296.53125 115.292969 296.542969 115.261719 C 296.78125 114.683594 298.742188 113.816406 299.25 113.457031 C 301.570312 111.835938 303.765625 110.054688 305.800781 108.117188 C 311.734375 102.453125 316.855469 95.886719 320.953125 88.941406 C 322.929688 85.589844 324.65625 82.070312 326.003906 78.457031 C 326.429688 77.3125 326.804688 76.15625 327.121094 74.984375 C 327.257812 74.492188 327.261719 73.65625 327.578125 73.230469 C 328.144531 72.460938 329.382812 72.015625 330.234375 71.613281 C 331.617188 70.960938 334.257812 69.390625 334.257812 69.390625 C 334.257812 69.390625 335.714844 70.289062 336.300781 70.695312 C 337.574219 71.59375 339.351562 73.363281 340.238281 74.625 Z M 340.238281 74.625 " fill-opacity="1" fill-rule="evenodd"/><path fill="#000000" d="M 350.0625 57.90625 L 350.011719 57.882812 C 349.742188 57.785156 349.5 57.699219 349.421875 57.652344 C 348.289062 57.023438 347.394531 56.144531 346.707031 55.101562 C 345.871094 53.84375 345.476562 52.425781 344.941406 51.054688 C 344.347656 49.550781 343.582031 48.058594 342.515625 46.796875 C 341.78125 45.929688 340.933594 45.121094 340.015625 44.429688 C 339.710938 44.207031 339.40625 43.996094 339.089844 43.792969 C 339.066406 43.777344 338.75 43.589844 338.589844 43.46875 C 338.5 43.402344 338.441406 43.339844 338.40625 43.300781 C 338.300781 43.15625 338.300781 43.019531 338.3125 42.933594 C 338.328125 42.808594 338.386719 42.703125 338.480469 42.621094 C 338.621094 42.503906 338.894531 42.402344 339.25 42.386719 C 339.722656 42.367188 340.390625 42.457031 340.601562 42.464844 C 342.78125 42.550781 344.894531 43.21875 346.832031 44.121094 C 349.46875 45.351562 351.558594 47.285156 352.988281 49.691406 C 353.355469 50.300781 353.628906 50.996094 353.941406 51.671875 C 354.222656 52.277344 354.53125 52.867188 355 53.324219 C 355.398438 53.722656 355.921875 53.957031 356.457031 54.171875 C 357.085938 54.425781 357.738281 54.648438 358.304688 54.980469 C 359.964844 55.953125 361.074219 57.660156 361.863281 59.296875 C 362.160156 59.925781 362.542969 60.675781 362.566406 61.375 C 362.574219 61.570312 362.453125 61.753906 362.257812 61.839844 C 360.648438 62.570312 358.976562 63.199219 357.324219 63.855469 C 356.910156 64.019531 356.410156 64.171875 355.949219 64.359375 C 356.273438 64.503906 356.59375 64.640625 356.921875 64.78125 C 358.15625 65.316406 359.402344 65.832031 360.628906 66.386719 C 360.960938 66.539062 361.292969 66.691406 361.625 66.847656 C 361.734375 66.898438 361.839844 66.949219 361.945312 67.007812 C 361.925781 67 361.886719 66.980469 361.886719 66.980469 C 361.886719 66.980469 362.136719 67.089844 362.207031 67.152344 C 362.351562 67.296875 362.40625 67.464844 362.332031 67.683594 C 361.5625 69.949219 360.074219 72.253906 358.136719 73.792969 C 356.835938 74.828125 355.238281 75.417969 354.148438 76.691406 C 353.25 77.738281 352.792969 79.03125 352.125 80.199219 C 351.308594 81.621094 350.25 82.914062 348.917969 83.949219 C 347.148438 85.320312 345.152344 86.054688 342.878906 86.242188 C 342.1875 86.296875 341.496094 86.332031 340.804688 86.34375 C 340.550781 86.347656 340.300781 86.347656 340.042969 86.328125 C 340.003906 86.328125 339.917969 86.3125 339.84375 86.300781 C 339.683594 86.332031 339.515625 86.292969 339.390625 86.195312 C 339.183594 86.035156 339.179688 85.867188 339.183594 85.785156 C 339.183594 85.589844 339.269531 85.40625 339.535156 85.3125 C 339.578125 85.296875 339.652344 85.277344 339.746094 85.277344 C 342.871094 84.347656 346.289062 81.980469 346.546875 78.6875 C 346.644531 77.460938 346.316406 76.289062 346.222656 75.078125 C 346.167969 74.40625 346.101562 73.648438 346.382812 73.007812 C 346.804688 72.039062 347.644531 71.429688 348.609375 70.96875 C 349.460938 70.566406 350.417969 70.28125 351.203125 69.902344 C 351.351562 69.828125 351.753906 69.664062 352.054688 69.457031 C 352.097656 69.429688 352.140625 69.390625 352.175781 69.355469 C 351.511719 68.761719 350.433594 68.378906 349.648438 68.015625 C 347.660156 67.089844 345.632812 66.238281 343.570312 65.464844 C 342.75 65.15625 341.941406 64.835938 341.117188 64.554688 C 340.992188 64.511719 340.824219 64.433594 340.652344 64.371094 C 340.625 64.359375 340.578125 64.347656 340.539062 64.339844 C 340.488281 64.394531 340.417969 64.464844 340.398438 64.488281 C 340.046875 64.832031 339.699219 65.175781 339.34375 65.515625 C 338.238281 66.574219 337.097656 67.605469 335.992188 68.660156 C 335.777344 68.859375 335.488281 69.246094 335.171875 69.546875 C 334.882812 69.828125 334.5625 70.035156 334.269531 70.09375 C 334.082031 70.132812 333.808594 70.09375 333.511719 69.949219 C 333.144531 69.773438 332.691406 69.425781 332.515625 69.335938 C 330.964844 68.566406 329.457031 67.71875 327.941406 66.890625 C 327.109375 66.429688 326.292969 65.941406 325.421875 65.527344 C 325.234375 65.4375 324.816406 65.300781 324.535156 65.136719 C 324.320312 65.007812 324.164062 64.855469 324.085938 64.710938 C 323.988281 64.527344 323.992188 64.335938 324.101562 64.148438 C 324.152344 64.054688 324.246094 63.949219 324.371094 63.863281 C 324.515625 63.757812 324.714844 63.667969 324.777344 63.632812 C 325.359375 63.308594 325.949219 62.984375 326.519531 62.644531 C 328.445312 61.488281 330.378906 60.351562 332.332031 59.242188 C 332.808594 58.976562 333.28125 58.710938 333.75 58.429688 C 333.777344 58.414062 333.972656 58.300781 334.042969 58.261719 C 334.105469 58.191406 334.179688 58.132812 334.277344 58.097656 C 334.457031 58.027344 334.664062 58.054688 334.820312 58.171875 C 336.28125 59.292969 338.453125 61.042969 339.898438 62.1875 C 340.265625 62.472656 340.644531 62.738281 340.996094 63.03125 C 341.019531 63.050781 341.082031 63.101562 341.132812 63.152344 C 341.175781 63.128906 341.214844 63.101562 341.253906 63.078125 C 341.4375 62.964844 341.625 62.847656 341.769531 62.785156 C 342.75 62.363281 343.6875 61.851562 344.621094 61.335938 C 345.488281 60.859375 346.289062 60.320312 347.074219 59.730469 C 347.914062 59.097656 348.832031 58.527344 349.777344 58.035156 C 349.839844 58 349.949219 57.957031 350.0625 57.90625 Z M 340.441406 43.464844 C 340.488281 43.46875 340.527344 43.472656 340.5625 43.472656 C 342.582031 43.554688 344.546875 44.183594 346.347656 45.023438 C 348.792969 46.164062 350.726562 47.957031 352.050781 50.183594 C 352.777344 51.40625 353.171875 52.984375 354.21875 54.019531 C 354.71875 54.515625 355.359375 54.832031 356.027344 55.101562 C 356.613281 55.332031 357.210938 55.53125 357.730469 55.835938 C 359.210938 56.703125 360.179688 58.25 360.875 59.710938 C 361.082031 60.132812 361.351562 60.613281 361.445312 61.085938 C 359.957031 61.746094 358.421875 62.320312 356.902344 62.925781 C 356.148438 63.222656 355.160156 63.507812 354.496094 63.964844 C 354.324219 64.082031 354.28125 64.214844 354.269531 64.320312 C 354.25 64.441406 354.273438 64.558594 354.347656 64.667969 C 354.394531 64.730469 354.46875 64.808594 354.589844 64.867188 C 354.632812 64.890625 354.765625 64.929688 354.800781 64.941406 C 354.925781 65.003906 355.046875 65.066406 355.171875 65.125 C 355.59375 65.324219 356.027344 65.507812 356.464844 65.695312 C 357.699219 66.230469 358.9375 66.742188 360.15625 67.296875 C 360.488281 67.441406 360.8125 67.59375 361.132812 67.746094 L 361.167969 67.761719 C 360.425781 69.730469 359.121094 71.691406 357.441406 73.023438 C 356.085938 74.097656 354.445312 74.734375 353.308594 76.0625 C 352.371094 77.152344 351.875 78.5 351.171875 79.722656 C 350.425781 81.027344 349.449219 82.222656 348.234375 83.171875 C 346.632812 84.410156 344.832031 85.066406 342.78125 85.234375 C 342.683594 85.242188 342.582031 85.25 342.484375 85.257812 C 345.117188 83.886719 347.398438 81.609375 347.621094 78.761719 C 347.722656 77.484375 347.398438 76.265625 347.296875 75 C 347.253906 74.480469 347.160156 73.890625 347.375 73.390625 C 347.703125 72.65625 348.363281 72.21875 349.101562 71.871094 C 349.953125 71.464844 350.914062 71.179688 351.695312 70.796875 C 351.964844 70.667969 352.832031 70.277344 353.136719 69.863281 C 353.261719 69.695312 353.324219 69.519531 353.324219 69.347656 C 353.324219 69.15625 353.261719 68.960938 353.074219 68.769531 C 352.34375 68.035156 351.0625 67.546875 350.128906 67.109375 C 348.113281 66.171875 346.0625 65.3125 343.976562 64.527344 C 343.328125 64.285156 342.683594 64.035156 342.039062 63.800781 C 342.101562 63.757812 342.164062 63.726562 342.21875 63.699219 C 343.230469 63.261719 344.203125 62.738281 345.167969 62.207031 C 346.078125 61.703125 346.925781 61.136719 347.746094 60.519531 C 348.542969 59.921875 349.410156 59.382812 350.300781 58.917969 C 350.46875 58.832031 350.875 58.679688 351.113281 58.488281 C 351.332031 58.316406 351.449219 58.105469 351.460938 57.894531 C 351.472656 57.71875 351.398438 57.503906 351.164062 57.320312 C 350.875 57.101562 350.125 56.871094 349.96875 56.785156 C 348.992188 56.238281 348.222656 55.472656 347.621094 54.570312 C 346.828125 53.371094 346.46875 52.015625 345.953125 50.707031 C 345.324219 49.101562 344.496094 47.515625 343.363281 46.171875 C 342.574219 45.242188 341.671875 44.378906 340.683594 43.640625 C 340.601562 43.582031 340.523438 43.523438 340.441406 43.464844 Z M 334.464844 59.207031 C 335.90625 60.320312 337.863281 61.898438 339.207031 62.957031 C 339.441406 63.140625 339.675781 63.316406 339.910156 63.496094 C 339.796875 63.597656 339.671875 63.738281 339.621094 63.792969 C 339.269531 64.132812 338.929688 64.472656 338.578125 64.808594 C 337.472656 65.867188 336.328125 66.898438 335.21875 67.953125 C 335.011719 68.152344 334.714844 68.539062 334.402344 68.84375 C 334.296875 68.941406 334.203125 69.042969 334.097656 69.085938 C 334.011719 69.046875 333.796875 68.9375 333.660156 68.851562 C 333.390625 68.679688 333.144531 68.507812 333.019531 68.445312 C 331.480469 67.683594 329.988281 66.84375 328.492188 66.019531 C 327.632812 65.550781 326.800781 65.050781 325.914062 64.628906 C 325.804688 64.578125 325.628906 64.511719 325.441406 64.4375 C 326 64.128906 326.554688 63.820312 327.101562 63.492188 C 329.019531 62.34375 330.945312 61.210938 332.894531 60.105469 C 333.371094 59.832031 333.859375 59.5625 334.332031 59.277344 C 334.355469 59.265625 334.402344 59.238281 334.464844 59.207031 Z M 334.464844 59.207031 " fill-opacity="1" fill-rule="evenodd"/><path fill="#000000" d="M 374.855469 64.6875 L 362.207031 67.152344 L 355.613281 64.363281 L 362.242188 61.441406 Z M 374.855469 64.6875 " fill-opacity="1" fill-rule="evenodd"/><path fill="#000000" d="M 34.808594 58.964844 C 34.644531 58.167969 35.089844 57.101562 35.296875 56.34375 C 35.929688 53.960938 36.878906 51.664062 37.875 49.390625 C 40.472656 43.460938 44.234375 38.125 48.675781 33.269531 C 51.785156 29.871094 55.277344 26.585938 59.421875 24.289062 C 63.316406 22.128906 67.691406 20.671875 72.039062 19.53125 C 73.417969 19.171875 74.792969 18.84375 76.207031 18.605469 C 76.808594 18.5 77.414062 18.351562 78.023438 18.304688 C 78.042969 18.300781 78.515625 18.296875 78.503906 18.332031 C 78.265625 18.910156 76.304688 19.777344 75.796875 20.132812 C 73.476562 21.757812 71.28125 23.539062 69.246094 25.476562 C 63.3125 31.140625 58.191406 37.707031 54.09375 44.652344 C 52.117188 48.003906 50.390625 51.519531 49.042969 55.136719 C 48.617188 56.28125 48.242188 57.433594 47.925781 58.609375 C 47.789062 59.101562 47.785156 59.933594 47.46875 60.363281 C 46.902344 61.132812 45.664062 61.574219 44.8125 61.976562 C 43.429688 62.632812 40.789062 64.203125 40.789062 64.203125 C 40.789062 64.203125 39.332031 63.304688 38.746094 62.898438 C 37.472656 61.996094 35.695312 60.230469 34.808594 58.964844 Z M 34.808594 58.964844 " fill-opacity="1" fill-rule="evenodd"/><path fill="#000000" d="M 34.808594 79.8125 C 34.644531 80.613281 35.089844 81.675781 35.296875 82.433594 C 35.929688 84.820312 36.878906 87.117188 37.875 89.386719 C 40.472656 95.320312 44.234375 100.65625 48.675781 105.511719 C 51.785156 108.910156 55.277344 112.195312 59.421875 114.492188 C 63.316406 116.648438 67.691406 118.109375 72.039062 119.246094 C 73.417969 119.609375 74.792969 119.933594 76.207031 120.175781 C 76.808594 120.277344 77.414062 120.425781 78.023438 120.476562 C 78.042969 120.476562 78.515625 120.480469 78.503906 120.449219 C 78.265625 119.871094 76.304688 119.003906 75.796875 118.648438 C 73.476562 117.023438 71.28125 115.242188 69.246094 113.304688 C 63.3125 107.640625 58.191406 101.074219 54.09375 94.128906 C 52.117188 90.777344 50.390625 87.257812 49.042969 83.644531 C 48.617188 82.5 48.242188 81.34375 47.925781 80.171875 C 47.789062 79.679688 47.785156 78.84375 47.46875 78.417969 C 46.902344 77.648438 45.664062 77.207031 44.8125 76.800781 C 43.429688 76.148438 40.789062 74.578125 40.789062 74.578125 C 40.789062 74.578125 39.332031 75.476562 38.746094 75.882812 C 37.472656 76.78125 35.695312 78.550781 34.808594 79.8125 Z M 34.808594 79.8125 " fill-opacity="1" fill-rule="evenodd"/><path fill="#000000" d="M 24.984375 63.09375 L 25.035156 63.074219 C 25.304688 62.972656 25.546875 62.886719 25.625 62.839844 C 26.757812 62.210938 27.652344 61.332031 28.339844 60.289062 C 29.175781 59.03125 29.570312 57.613281 30.105469 56.242188 C 30.699219 54.738281 31.464844 53.246094 32.527344 51.984375 C 33.265625 51.117188 34.113281 50.308594 35.03125 49.617188 C 35.335938 49.394531 35.636719 49.183594 35.957031 48.980469 C 35.980469 48.964844 36.296875 48.777344 36.457031 48.660156 C 36.546875 48.589844 36.605469 48.527344 36.640625 48.488281 C 36.746094 48.34375 36.746094 48.207031 36.734375 48.121094 C 36.71875 47.996094 36.660156 47.890625 36.5625 47.808594 C 36.425781 47.691406 36.152344 47.589844 35.796875 47.574219 C 35.324219 47.554688 34.65625 47.644531 34.445312 47.652344 C 32.265625 47.742188 30.152344 48.40625 28.214844 49.308594 C 25.578125 50.542969 23.488281 52.472656 22.058594 54.878906 C 21.691406 55.488281 21.417969 56.1875 21.105469 56.859375 C 20.824219 57.464844 20.515625 58.054688 20.046875 58.511719 C 19.648438 58.910156 19.125 59.144531 18.589844 59.363281 C 17.960938 59.613281 17.308594 59.835938 16.742188 60.167969 C 15.078125 61.140625 13.972656 62.847656 13.183594 64.488281 C 12.886719 65.113281 12.503906 65.863281 12.480469 66.5625 C 12.472656 66.757812 12.59375 66.941406 12.789062 67.027344 C 14.398438 67.757812 16.070312 68.386719 17.71875 69.042969 C 18.136719 69.207031 18.636719 69.359375 19.097656 69.546875 C 18.773438 69.691406 18.453125 69.828125 18.125 69.96875 C 16.890625 70.503906 15.644531 71.019531 14.417969 71.574219 C 14.085938 71.726562 13.753906 71.878906 13.421875 72.039062 C 13.3125 72.089844 13.207031 72.136719 13.101562 72.195312 C 13.121094 72.1875 13.160156 72.167969 13.160156 72.167969 C 13.160156 72.167969 12.910156 72.277344 12.839844 72.339844 C 12.695312 72.484375 12.640625 72.65625 12.714844 72.871094 C 13.484375 75.136719 14.972656 77.445312 16.910156 78.980469 C 18.210938 80.015625 19.808594 80.605469 20.898438 81.882812 C 21.796875 82.925781 22.253906 84.21875 22.921875 85.386719 C 23.738281 86.808594 24.796875 88.101562 26.128906 89.136719 C 27.898438 90.507812 29.894531 91.242188 32.167969 91.429688 C 32.859375 91.484375 33.550781 91.519531 34.242188 91.53125 C 34.496094 91.535156 34.746094 91.535156 35.003906 91.519531 C 35.042969 91.515625 35.128906 91.503906 35.203125 91.492188 C 35.363281 91.519531 35.53125 91.480469 35.65625 91.382812 C 35.863281 91.222656 35.867188 91.054688 35.863281 90.972656 C 35.863281 90.78125 35.777344 90.59375 35.511719 90.5 C 35.46875 90.484375 35.394531 90.464844 35.300781 90.464844 C 32.175781 89.535156 28.757812 87.167969 28.5 83.875 C 28.402344 82.648438 28.730469 81.476562 28.824219 80.265625 C 28.878906 79.59375 28.945312 78.835938 28.664062 78.195312 C 28.242188 77.226562 27.402344 76.617188 26.4375 76.15625 C 25.585938 75.753906 24.628906 75.46875 23.84375 75.089844 C 23.691406 75.015625 23.292969 74.851562 22.988281 74.644531 C 22.949219 74.617188 22.90625 74.578125 22.871094 74.542969 C 23.53125 73.949219 24.613281 73.566406 25.394531 73.203125 C 27.386719 72.277344 29.414062 71.425781 31.476562 70.652344 C 32.296875 70.347656 33.105469 70.023438 33.929688 69.742188 C 34.054688 69.699219 34.222656 69.625 34.390625 69.558594 C 34.421875 69.546875 34.46875 69.535156 34.507812 69.527344 C 34.558594 69.582031 34.625 69.652344 34.648438 69.675781 C 35 70.019531 35.347656 70.363281 35.703125 70.703125 C 36.808594 71.761719 37.949219 72.792969 39.054688 73.847656 C 39.269531 74.046875 39.558594 74.433594 39.875 74.734375 C 40.164062 75.015625 40.484375 75.222656 40.777344 75.28125 C 40.964844 75.320312 41.238281 75.28125 41.535156 75.136719 C 41.902344 74.960938 42.355469 74.613281 42.53125 74.523438 C 44.082031 73.753906 45.589844 72.90625 47.105469 72.078125 C 47.9375 71.617188 48.753906 71.128906 49.625 70.714844 C 49.8125 70.625 50.230469 70.488281 50.511719 70.324219 C 50.726562 70.195312 50.882812 70.042969 50.960938 69.898438 C 51.058594 69.714844 51.054688 69.523438 50.945312 69.335938 C 50.894531 69.242188 50.800781 69.136719 50.675781 69.050781 C 50.53125 68.945312 50.332031 68.855469 50.269531 68.820312 C 49.6875 68.496094 49.097656 68.171875 48.527344 67.832031 C 46.601562 66.679688 44.667969 65.539062 42.714844 64.429688 C 42.238281 64.164062 41.765625 63.898438 41.296875 63.617188 C 41.269531 63.601562 41.074219 63.488281 41.003906 63.449219 C 40.941406 63.378906 40.867188 63.320312 40.769531 63.285156 C 40.589844 63.214844 40.382812 63.242188 40.226562 63.359375 C 38.765625 64.480469 36.59375 66.230469 35.148438 67.375 C 34.78125 67.660156 34.402344 67.925781 34.050781 68.21875 C 34.027344 68.238281 33.964844 68.292969 33.914062 68.339844 C 33.871094 68.316406 33.832031 68.289062 33.792969 68.265625 C 33.609375 68.152344 33.421875 68.035156 33.277344 67.972656 C 32.296875 67.550781 31.359375 67.039062 30.425781 66.527344 C 29.558594 66.046875 28.757812 65.507812 27.972656 64.917969 C 27.132812 64.285156 26.214844 63.714844 25.269531 63.222656 C 25.207031 63.191406 25.097656 63.144531 24.984375 63.09375 Z M 34.605469 48.652344 C 34.558594 48.65625 34.519531 48.660156 34.484375 48.660156 C 32.464844 48.742188 30.5 49.371094 28.699219 50.210938 C 26.253906 51.351562 24.320312 53.144531 22.996094 55.371094 C 22.269531 56.59375 21.875 58.171875 20.828125 59.207031 C 20.328125 59.703125 19.6875 60.019531 19.019531 60.289062 C 18.433594 60.519531 17.835938 60.71875 17.316406 61.023438 C 15.835938 61.890625 14.867188 63.4375 14.171875 64.898438 C 13.964844 65.320312 13.695312 65.800781 13.601562 66.273438 C 15.089844 66.933594 16.625 67.507812 18.144531 68.113281 C 18.898438 68.410156 19.886719 68.695312 20.550781 69.152344 C 20.722656 69.269531 20.765625 69.402344 20.777344 69.507812 C 20.796875 69.628906 20.773438 69.746094 20.699219 69.859375 C 20.652344 69.917969 20.578125 69.996094 20.457031 70.054688 C 20.414062 70.078125 20.28125 70.117188 20.246094 70.128906 C 20.121094 70.191406 20 70.253906 19.875 70.3125 C 19.453125 70.511719 19.019531 70.695312 18.582031 70.882812 C 17.347656 71.417969 16.109375 71.929688 14.890625 72.484375 C 14.558594 72.632812 14.234375 72.78125 13.914062 72.933594 L 13.878906 72.953125 C 14.621094 74.917969 15.925781 76.878906 17.605469 78.210938 C 18.960938 79.289062 20.601562 79.921875 21.738281 81.25 C 22.675781 82.339844 23.171875 83.6875 23.875 84.910156 C 24.617188 86.214844 25.597656 87.410156 26.8125 88.359375 C 28.414062 89.597656 30.214844 90.253906 32.265625 90.421875 C 32.363281 90.433594 32.464844 90.441406 32.5625 90.445312 C 29.929688 89.074219 27.648438 86.796875 27.425781 83.949219 C 27.324219 82.671875 27.648438 81.453125 27.75 80.1875 C 27.792969 79.667969 27.886719 79.078125 27.671875 78.578125 C 27.34375 77.84375 26.683594 77.40625 25.945312 77.058594 C 25.09375 76.652344 24.132812 76.367188 23.351562 75.984375 C 23.082031 75.859375 22.210938 75.464844 21.910156 75.050781 C 21.785156 74.882812 21.722656 74.707031 21.722656 74.535156 C 21.722656 74.34375 21.785156 74.148438 21.972656 73.957031 C 22.703125 73.222656 23.984375 72.734375 24.917969 72.296875 C 26.933594 71.359375 28.984375 70.5 31.070312 69.714844 C 31.71875 69.472656 32.363281 69.222656 33.007812 68.988281 C 32.945312 68.949219 32.882812 68.914062 32.828125 68.890625 C 31.816406 68.449219 30.84375 67.925781 29.878906 67.394531 C 28.96875 66.890625 28.121094 66.324219 27.300781 65.707031 C 26.503906 65.109375 25.636719 64.570312 24.746094 64.105469 C 24.578125 64.019531 24.171875 63.867188 23.933594 63.675781 C 23.714844 63.503906 23.597656 63.292969 23.585938 63.082031 C 23.574219 62.90625 23.648438 62.691406 23.882812 62.507812 C 24.171875 62.289062 24.921875 62.058594 25.078125 61.972656 C 26.054688 61.425781 26.824219 60.664062 27.425781 59.757812 C 28.21875 58.558594 28.578125 57.203125 29.09375 55.894531 C 29.722656 54.289062 30.550781 52.703125 31.683594 51.359375 C 32.472656 50.429688 33.375 49.566406 34.363281 48.828125 C 34.445312 48.769531 34.523438 48.710938 34.605469 48.652344 Z M 40.582031 64.394531 C 39.140625 65.507812 37.183594 67.085938 35.839844 68.144531 C 35.605469 68.328125 35.371094 68.503906 35.136719 68.683594 C 35.25 68.785156 35.375 68.925781 35.425781 68.980469 C 35.777344 69.320312 36.117188 69.664062 36.46875 70 C 37.574219 71.058594 38.71875 72.085938 39.828125 73.140625 C 40.035156 73.339844 40.332031 73.726562 40.644531 74.03125 C 40.75 74.128906 40.84375 74.230469 40.949219 74.273438 C 41.035156 74.234375 41.25 74.125 41.386719 74.039062 C 41.65625 73.867188 41.902344 73.695312 42.027344 73.632812 C 43.566406 72.871094 45.058594 72.03125 46.554688 71.207031 C 47.414062 70.738281 48.246094 70.238281 49.132812 69.816406 C 49.242188 69.765625 49.417969 69.699219 49.605469 69.625 C 49.046875 69.316406 48.492188 69.007812 47.945312 68.679688 C 46.027344 67.53125 44.101562 66.398438 42.152344 65.292969 C 41.675781 65.019531 41.1875 64.753906 40.714844 64.464844 C 40.691406 64.453125 40.644531 64.425781 40.582031 64.394531 Z M 40.582031 64.394531 " fill-opacity="1" fill-rule="evenodd"/><path fill="#000000" d="M 0.191406 69.875 L 12.839844 72.339844 L 19.433594 69.550781 L 12.804688 66.628906 Z M 0.191406 69.875 " fill-opacity="1" fill-rule="evenodd"/><path fill="#000000" d="M 119.324219 119.003906 C 119.308594 119.039062 119.445312 118.847656 119.457031 118.824219 C 119.550781 118.667969 119.644531 118.511719 119.738281 118.351562 C 120 117.910156 120.246094 117.457031 120.488281 117.003906 C 121.175781 115.707031 121.835938 114.398438 122.453125 113.066406 C 124.21875 109.257812 126.117188 105.167969 125.570312 100.875 C 125.425781 99.738281 125.070312 98.542969 124.367188 97.613281 C 124.097656 97.257812 123.753906 96.839844 123.296875 96.734375 C 122.457031 96.535156 121.589844 97.320312 121.082031 97.859375 C 119.855469 99.160156 119.070312 100.855469 118.566406 102.542969 C 118.40625 103.078125 118.117188 103.9375 118.347656 104.496094 C 118.578125 105.058594 119.257812 103.921875 119.367188 103.75 C 119.980469 102.785156 120.976562 100.980469 122.359375 102.1875 C 122.542969 102.347656 122.691406 102.554688 122.808594 102.773438 C 123.496094 104.027344 123.265625 105.632812 123.003906 106.96875 C 122.523438 109.394531 121.453125 111.613281 120.429688 113.855469 C 119.800781 115.230469 118.152344 118.472656 119.324219 119.003906 Z M 119.324219 119.003906 " fill-opacity="1" fill-rule="evenodd"/></svg>