<svg xmlns="http://www.w3.org/2000/svg" xmlns:xlink="http://www.w3.org/1999/xlink" width="500" zoomAndPan="magnify" viewBox="0 0 375 149.999998" height="200" preserveAspectRatio="xMidYMid meet" version="1.0"><path fill="#000000" d="M 343.695312 59.460938 C 343.867188 58.632812 343.410156 57.53125 343.199219 56.742188 C 342.550781 54.273438 341.578125 51.894531 340.5625 49.542969 C 337.902344 43.398438 334.054688 37.871094 329.515625 32.84375 C 326.335938 29.320312 322.761719 25.917969 318.523438 23.539062 C 314.539062 21.304688 310.066406 19.792969 305.617188 18.613281 C 304.207031 18.238281 302.800781 17.902344 301.355469 17.652344 C 300.742188 17.546875 300.121094 17.390625 299.496094 17.339844 C 299.480469 17.339844 298.992188 17.335938 299.003906 17.371094 C 299.25 17.96875 301.257812 18.867188 301.777344 19.238281 C 304.148438 20.917969 306.394531 22.765625 308.476562 24.769531 C 314.542969 30.636719 319.78125 37.4375 323.972656 44.632812 C 325.996094 48.101562 327.761719 51.746094 329.140625 55.492188 C 329.574219 56.675781 329.957031 57.875 330.28125 59.089844 C 330.421875 59.597656 330.425781 60.460938 330.746094 60.90625 C 331.328125 61.703125 332.59375 62.160156 333.464844 62.578125 C 334.878906 63.253906 337.582031 64.882812 337.582031 64.882812 C 337.582031 64.882812 339.070312 63.953125 339.667969 63.53125 C 340.972656 62.597656 342.789062 60.765625 343.695312 59.460938 Z M 343.695312 59.460938 " fill-opacity="1" fill-rule="evenodd"/><path fill="#000000" d="M 343.695312 81.050781 C 343.867188 81.878906 343.410156 82.980469 343.199219 83.769531 C 342.550781 86.238281 341.578125 88.617188 340.5625 90.96875 C 337.902344 97.113281 334.054688 102.640625 329.515625 107.667969 C 326.335938 111.191406 322.761719 114.59375 318.523438 116.972656 C 314.539062 119.207031 310.066406 120.71875 305.617188 121.898438 C 304.207031 122.273438 302.800781 122.609375 301.355469 122.859375 C 300.742188 122.964844 300.121094 123.121094 299.496094 123.171875 C 299.480469 123.171875 298.992188 123.175781 299.003906 123.140625 C 299.25 122.542969 301.257812 121.644531 301.777344 121.273438 C 304.148438 119.59375 306.394531 117.746094 308.476562 115.742188 C 314.542969 109.875 319.78125 103.074219 323.972656 95.878906 C 325.996094 92.410156 327.761719 88.765625 329.140625 85.019531 C 329.574219 83.835938 329.957031 82.640625 330.28125 81.421875 C 330.421875 80.914062 330.425781 80.050781 330.746094 79.609375 C 331.328125 78.808594 332.59375 78.351562 333.464844 77.933594 C 334.878906 77.257812 337.582031 75.628906 337.582031 75.628906 C 337.582031 75.628906 339.070312 76.558594 339.667969 76.980469 C 340.972656 77.914062 342.789062 79.746094 343.695312 81.050781 Z M 343.695312 81.050781 " fill-opacity="1" fill-rule="evenodd"/><path fill="#000000" d="M 353.746094 63.734375 L 353.691406 63.710938 C 353.417969 63.609375 353.171875 63.519531 353.089844 63.472656 C 351.933594 62.820312 351.015625 61.910156 350.3125 60.828125 C 349.460938 59.527344 349.054688 58.058594 348.507812 56.636719 C 347.898438 55.078125 347.117188 53.535156 346.027344 52.226562 C 345.273438 51.328125 344.410156 50.492188 343.46875 49.773438 C 343.160156 49.542969 342.847656 49.324219 342.519531 49.117188 C 342.496094 49.101562 342.175781 48.90625 342.011719 48.78125 C 341.917969 48.710938 341.859375 48.644531 341.824219 48.605469 C 341.714844 48.453125 341.714844 48.316406 341.726562 48.226562 C 341.742188 48.097656 341.800781 47.988281 341.902344 47.902344 C 342.042969 47.78125 342.324219 47.675781 342.683594 47.660156 C 343.171875 47.636719 343.855469 47.734375 344.070312 47.742188 C 346.296875 47.832031 348.460938 48.519531 350.441406 49.457031 C 353.136719 50.734375 355.277344 52.734375 356.738281 55.226562 C 357.113281 55.855469 357.390625 56.578125 357.714844 57.277344 C 358 57.90625 358.316406 58.511719 358.796875 58.988281 C 359.203125 59.402344 359.738281 59.644531 360.285156 59.867188 C 360.929688 60.128906 361.59375 60.359375 362.175781 60.703125 C 363.875 61.710938 365.007812 63.480469 365.816406 65.175781 C 366.121094 65.828125 366.511719 66.601562 366.535156 67.324219 C 366.539062 67.53125 366.417969 67.71875 366.21875 67.808594 C 364.570312 68.566406 362.863281 69.214844 361.175781 69.894531 C 360.746094 70.066406 360.238281 70.222656 359.765625 70.417969 C 360.097656 70.566406 360.425781 70.710938 360.757812 70.855469 C 362.023438 71.410156 363.296875 71.941406 364.554688 72.519531 C 364.890625 72.675781 365.230469 72.835938 365.570312 72.996094 C 365.683594 73.050781 365.792969 73.101562 365.898438 73.160156 C 365.878906 73.152344 365.839844 73.132812 365.839844 73.132812 C 365.839844 73.132812 366.097656 73.246094 366.167969 73.3125 C 366.3125 73.460938 366.371094 73.636719 366.296875 73.859375 C 365.507812 76.210938 363.988281 78.597656 362.003906 80.191406 C 360.671875 81.261719 359.039062 81.875 357.925781 83.195312 C 357.007812 84.273438 356.539062 85.617188 355.855469 86.824219 C 355.019531 88.296875 353.9375 89.640625 352.574219 90.707031 C 350.761719 92.128906 348.722656 92.890625 346.398438 93.082031 C 345.691406 93.140625 344.980469 93.179688 344.273438 93.191406 C 344.015625 93.195312 343.761719 93.191406 343.496094 93.175781 C 343.457031 93.171875 343.367188 93.160156 343.292969 93.148438 C 343.128906 93.175781 342.960938 93.136719 342.832031 93.035156 C 342.621094 92.871094 342.613281 92.695312 342.621094 92.609375 C 342.621094 92.410156 342.707031 92.21875 342.976562 92.121094 C 343.023438 92.105469 343.101562 92.085938 343.191406 92.085938 C 346.390625 91.121094 349.886719 88.667969 350.148438 85.257812 C 350.25 83.988281 349.914062 82.777344 349.816406 81.519531 C 349.765625 80.824219 349.695312 80.039062 349.980469 79.378906 C 350.414062 78.371094 351.273438 77.742188 352.261719 77.265625 C 353.132812 76.847656 354.105469 76.550781 354.914062 76.160156 C 355.066406 76.085938 355.476562 75.914062 355.785156 75.699219 C 355.824219 75.671875 355.871094 75.628906 355.90625 75.59375 C 355.230469 74.980469 354.125 74.582031 353.324219 74.203125 C 351.289062 73.246094 349.214844 72.367188 347.105469 71.5625 C 346.269531 71.246094 345.4375 70.910156 344.597656 70.621094 C 344.46875 70.578125 344.296875 70.496094 344.121094 70.433594 C 344.09375 70.417969 344.046875 70.40625 344.007812 70.398438 C 343.953125 70.457031 343.882812 70.527344 343.859375 70.550781 C 343.503906 70.90625 343.148438 71.265625 342.785156 71.617188 C 341.648438 72.714844 340.488281 73.777344 339.351562 74.875 C 339.136719 75.078125 338.839844 75.480469 338.515625 75.792969 C 338.21875 76.082031 337.890625 76.296875 337.59375 76.359375 C 337.398438 76.398438 337.121094 76.355469 336.816406 76.207031 C 336.441406 76.023438 335.980469 75.667969 335.796875 75.574219 C 334.214844 74.777344 332.671875 73.898438 331.121094 73.039062 C 330.269531 72.5625 329.433594 72.054688 328.542969 71.628906 C 328.351562 71.535156 327.925781 71.394531 327.636719 71.222656 C 327.414062 71.089844 327.257812 70.933594 327.175781 70.78125 C 327.078125 70.589844 327.082031 70.394531 327.195312 70.199219 C 327.246094 70.101562 327.339844 69.996094 327.46875 69.90625 C 327.613281 69.796875 327.820312 69.703125 327.882812 69.664062 C 328.480469 69.328125 329.082031 68.996094 329.667969 68.640625 C 331.636719 67.445312 333.613281 66.265625 335.613281 65.117188 C 336.097656 64.839844 336.582031 64.570312 337.0625 64.277344 C 337.089844 64.257812 337.289062 64.144531 337.359375 64.105469 C 337.421875 64.027344 337.5 63.96875 337.597656 63.929688 C 337.785156 63.859375 337.996094 63.890625 338.15625 64.011719 C 339.652344 65.171875 341.871094 66.984375 343.351562 68.167969 C 343.726562 68.464844 344.109375 68.742188 344.472656 69.042969 C 344.496094 69.0625 344.5625 69.117188 344.613281 69.167969 C 344.65625 69.144531 344.695312 69.117188 344.738281 69.089844 C 344.921875 68.976562 345.117188 68.851562 345.261719 68.789062 C 346.269531 68.347656 347.226562 67.820312 348.179688 67.289062 C 349.066406 66.792969 349.886719 66.234375 350.6875 65.625 C 351.546875 64.96875 352.488281 64.378906 353.453125 63.867188 C 353.515625 63.832031 353.628906 63.789062 353.746094 63.734375 Z M 343.90625 48.777344 C 343.953125 48.78125 343.996094 48.785156 344.027344 48.785156 C 346.09375 48.871094 348.105469 49.519531 349.945312 50.390625 C 352.445312 51.574219 354.421875 53.429688 355.777344 55.734375 C 356.523438 57 356.925781 58.636719 357.996094 59.707031 C 358.507812 60.222656 359.164062 60.550781 359.847656 60.828125 C 360.445312 61.070312 361.058594 61.273438 361.589844 61.589844 C 363.105469 62.488281 364.089844 64.089844 364.804688 65.605469 C 365.015625 66.039062 365.289062 66.535156 365.390625 67.027344 C 363.863281 67.710938 362.296875 68.308594 360.742188 68.933594 C 359.96875 69.242188 358.960938 69.539062 358.28125 70.011719 C 358.105469 70.128906 358.058594 70.269531 358.046875 70.378906 C 358.03125 70.5 358.054688 70.625 358.128906 70.738281 C 358.175781 70.804688 358.25 70.882812 358.375 70.945312 C 358.421875 70.96875 358.554688 71.007812 358.589844 71.019531 C 358.71875 71.085938 358.84375 71.148438 358.972656 71.210938 C 359.402344 71.417969 359.847656 71.609375 360.292969 71.804688 C 361.554688 72.355469 362.824219 72.886719 364.066406 73.460938 C 364.40625 73.613281 364.742188 73.769531 365.066406 73.929688 L 365.101562 73.945312 C 364.34375 75.980469 363.011719 78.011719 361.292969 79.394531 C 359.90625 80.507812 358.226562 81.167969 357.066406 82.539062 C 356.105469 83.671875 355.597656 85.066406 354.878906 86.332031 C 354.117188 87.683594 353.121094 88.921875 351.875 89.902344 C 350.238281 91.1875 348.394531 91.867188 346.296875 92.042969 C 346.199219 92.050781 346.09375 92.058594 345.992188 92.066406 C 348.6875 90.644531 351.019531 88.285156 351.25 85.335938 C 351.355469 84.011719 351.019531 82.75 350.914062 81.441406 C 350.875 80.898438 350.773438 80.289062 350.996094 79.773438 C 351.332031 79.011719 352.007812 78.558594 352.761719 78.199219 C 353.632812 77.777344 354.617188 77.480469 355.417969 77.085938 C 355.691406 76.953125 356.578125 76.546875 356.890625 76.121094 C 357.019531 75.945312 357.082031 75.765625 357.082031 75.585938 C 357.082031 75.386719 357.019531 75.183594 356.824219 74.988281 C 356.078125 74.226562 354.769531 73.71875 353.816406 73.269531 C 351.75 72.296875 349.652344 71.40625 347.519531 70.59375 C 346.859375 70.34375 346.199219 70.082031 345.539062 69.839844 C 345.601562 69.796875 345.667969 69.761719 345.722656 69.738281 C 346.757812 69.285156 347.753906 68.738281 348.742188 68.1875 C 349.671875 67.667969 350.535156 67.082031 351.378906 66.4375 C 352.191406 65.820312 353.078125 65.261719 353.992188 64.78125 C 354.160156 64.691406 354.574219 64.535156 354.820312 64.335938 C 355.042969 64.15625 355.164062 63.9375 355.175781 63.722656 C 355.1875 63.542969 355.113281 63.316406 354.871094 63.128906 C 354.574219 62.902344 353.808594 62.660156 353.652344 62.574219 C 352.652344 62.007812 351.863281 61.214844 351.25 60.28125 C 350.4375 59.039062 350.066406 57.632812 349.542969 56.277344 C 348.898438 54.617188 348.050781 52.972656 346.894531 51.578125 C 346.085938 50.617188 345.164062 49.722656 344.152344 48.957031 C 344.070312 48.898438 343.988281 48.835938 343.90625 48.777344 Z M 337.792969 65.082031 C 339.265625 66.234375 341.269531 67.871094 342.644531 68.964844 C 342.882812 69.15625 343.125 69.339844 343.363281 69.523438 C 343.246094 69.628906 343.117188 69.773438 343.066406 69.832031 C 342.707031 70.183594 342.355469 70.539062 342 70.886719 C 340.867188 71.980469 339.699219 73.046875 338.5625 74.140625 C 338.351562 74.347656 338.050781 74.75 337.726562 75.0625 C 337.621094 75.167969 337.523438 75.269531 337.417969 75.316406 C 337.332031 75.273438 337.109375 75.160156 336.96875 75.070312 C 336.691406 74.894531 336.441406 74.714844 336.3125 74.648438 C 334.742188 73.859375 333.214844 72.988281 331.683594 72.136719 C 330.804688 71.652344 329.953125 71.136719 329.046875 70.699219 C 328.9375 70.644531 328.753906 70.578125 328.5625 70.5 C 329.132812 70.179688 329.703125 69.859375 330.261719 69.519531 C 332.222656 68.332031 334.191406 67.15625 336.183594 66.011719 C 336.675781 65.730469 337.171875 65.453125 337.65625 65.15625 C 337.679688 65.144531 337.726562 65.117188 337.792969 65.082031 Z M 337.792969 65.082031 " fill-opacity="1" fill-rule="evenodd"/><path fill="#000000" d="M 379.101562 70.761719 L 366.167969 73.3125 L 359.421875 70.425781 L 366.203125 67.398438 Z M 379.101562 70.761719 " fill-opacity="1" fill-rule="evenodd"/><path fill="#000000" d="M 31.308594 64.832031 C 31.136719 64.003906 31.59375 62.902344 31.804688 62.117188 C 32.453125 59.644531 33.425781 57.265625 34.441406 54.914062 C 37.101562 48.769531 40.949219 43.246094 45.488281 38.214844 C 48.667969 34.695312 52.242188 31.292969 56.480469 28.914062 C 60.464844 26.675781 64.9375 25.167969 69.386719 23.988281 C 70.796875 23.613281 72.203125 23.273438 73.648438 23.023438 C 74.261719 22.917969 74.882812 22.765625 75.507812 22.714844 C 75.523438 22.710938 76.011719 22.707031 76 22.742188 C 75.753906 23.339844 73.746094 24.242188 73.226562 24.609375 C 70.855469 26.292969 68.609375 28.136719 66.527344 30.144531 C 60.460938 36.011719 55.222656 42.8125 51.03125 50.007812 C 49.007812 53.476562 47.242188 57.121094 45.863281 60.863281 C 45.429688 62.050781 45.046875 63.246094 44.722656 64.460938 C 44.582031 64.972656 44.578125 65.835938 44.257812 66.277344 C 43.675781 67.074219 42.410156 67.535156 41.539062 67.953125 C 40.125 68.628906 37.421875 70.257812 37.421875 70.257812 C 37.421875 70.257812 35.933594 69.324219 35.335938 68.902344 C 34.03125 67.972656 32.214844 66.140625 31.308594 64.832031 Z M 31.308594 64.832031 " fill-opacity="1" fill-rule="evenodd"/><path fill="#000000" d="M 31.308594 86.425781 C 31.136719 87.253906 31.59375 88.355469 31.804688 89.140625 C 32.453125 91.613281 33.425781 93.992188 34.441406 96.34375 C 37.101562 102.488281 40.949219 108.011719 45.488281 113.042969 C 48.667969 116.5625 52.242188 119.96875 56.480469 122.34375 C 60.464844 124.582031 64.9375 126.089844 69.386719 127.273438 C 70.796875 127.644531 72.203125 127.984375 73.648438 128.234375 C 74.261719 128.339844 74.882812 128.492188 75.507812 128.542969 C 75.523438 128.546875 76.011719 128.550781 76 128.515625 C 75.753906 127.917969 73.746094 127.019531 73.226562 126.648438 C 70.855469 124.964844 68.609375 123.121094 66.527344 121.117188 C 60.460938 115.246094 55.222656 108.445312 51.03125 101.25 C 49.007812 97.78125 47.242188 94.136719 45.863281 90.394531 C 45.429688 89.207031 45.046875 88.011719 44.722656 86.796875 C 44.582031 86.285156 44.578125 85.421875 44.257812 84.980469 C 43.675781 84.183594 42.410156 83.722656 41.539062 83.304688 C 40.125 82.628906 37.421875 81.003906 37.421875 81.003906 C 37.421875 81.003906 35.933594 81.933594 35.335938 82.355469 C 34.03125 83.285156 32.214844 85.117188 31.308594 86.425781 Z M 31.308594 86.425781 " fill-opacity="1" fill-rule="evenodd"/><path fill="#000000" d="M 21.257812 69.109375 L 21.3125 69.085938 C 21.585938 68.980469 21.832031 68.890625 21.914062 68.84375 C 23.070312 68.191406 23.988281 67.28125 24.691406 66.203125 C 25.542969 64.902344 25.949219 63.429688 26.496094 62.007812 C 27.105469 60.453125 27.886719 58.90625 28.976562 57.601562 C 29.730469 56.703125 30.59375 55.863281 31.535156 55.148438 C 31.847656 54.917969 32.15625 54.699219 32.484375 54.488281 C 32.507812 54.472656 32.828125 54.277344 32.992188 54.15625 C 33.085938 54.085938 33.144531 54.019531 33.179688 53.976562 C 33.289062 53.828125 33.289062 53.6875 33.277344 53.597656 C 33.261719 53.46875 33.203125 53.359375 33.101562 53.273438 C 32.960938 53.152344 32.683594 53.046875 32.320312 53.03125 C 31.835938 53.011719 31.148438 53.105469 30.933594 53.113281 C 28.707031 53.203125 26.542969 53.894531 24.5625 54.828125 C 21.867188 56.105469 19.726562 58.105469 18.265625 60.597656 C 17.890625 61.230469 17.613281 61.953125 17.289062 62.652344 C 17.003906 63.277344 16.6875 63.886719 16.207031 64.363281 C 15.800781 64.773438 15.269531 65.019531 14.71875 65.242188 C 14.074219 65.503906 13.410156 65.734375 12.828125 66.074219 C 11.128906 67.082031 9.996094 68.855469 9.1875 70.550781 C 8.882812 71.199219 8.492188 71.976562 8.46875 72.699219 C 8.464844 72.90625 8.585938 73.09375 8.785156 73.183594 C 10.433594 73.9375 12.140625 74.589844 13.828125 75.269531 C 14.257812 75.4375 14.765625 75.597656 15.238281 75.789062 C 14.90625 75.941406 14.578125 76.085938 14.246094 76.230469 C 12.980469 76.78125 11.707031 77.316406 10.449219 77.890625 C 10.113281 78.046875 9.773438 78.207031 9.433594 78.371094 C 9.324219 78.421875 9.210938 78.476562 9.105469 78.535156 C 9.125 78.523438 9.164062 78.507812 9.164062 78.507812 C 9.164062 78.507812 8.90625 78.621094 8.835938 78.683594 C 8.691406 78.832031 8.632812 79.011719 8.707031 79.234375 C 9.496094 81.582031 11.019531 83.96875 13 85.5625 C 14.332031 86.632812 15.964844 87.246094 17.078125 88.566406 C 17.996094 89.648438 18.464844 90.988281 19.148438 92.199219 C 19.984375 93.667969 21.066406 95.011719 22.429688 96.082031 C 24.242188 97.503906 26.28125 98.261719 28.609375 98.457031 C 29.316406 98.515625 30.023438 98.550781 30.730469 98.5625 C 30.988281 98.566406 31.242188 98.566406 31.507812 98.546875 C 31.546875 98.546875 31.636719 98.53125 31.710938 98.519531 C 31.875 98.550781 32.042969 98.511719 32.171875 98.410156 C 32.382812 98.242188 32.390625 98.070312 32.382812 97.984375 C 32.382812 97.785156 32.296875 97.59375 32.027344 97.492188 C 31.980469 97.476562 31.90625 97.457031 31.8125 97.457031 C 28.613281 96.496094 25.117188 94.042969 24.855469 90.632812 C 24.753906 89.359375 25.089844 88.148438 25.1875 86.890625 C 25.242188 86.195312 25.308594 85.414062 25.023438 84.75 C 24.589844 83.746094 23.730469 83.113281 22.746094 82.636719 C 21.875 82.21875 20.898438 81.925781 20.089844 81.53125 C 19.9375 81.457031 19.527344 81.285156 19.21875 81.070312 C 19.179688 81.042969 19.132812 81.003906 19.097656 80.96875 C 19.773438 80.351562 20.878906 79.957031 21.679688 79.578125 C 23.714844 78.617188 25.789062 77.738281 27.898438 76.9375 C 28.734375 76.617188 29.566406 76.285156 30.40625 75.992188 C 30.535156 75.949219 30.707031 75.871094 30.882812 75.804688 C 30.910156 75.792969 30.957031 75.78125 31 75.769531 C 31.050781 75.828125 31.121094 75.898438 31.144531 75.921875 C 31.5 76.28125 31.859375 76.636719 32.21875 76.988281 C 33.355469 78.085938 34.515625 79.152344 35.652344 80.246094 C 35.867188 80.453125 36.164062 80.851562 36.488281 81.164062 C 36.785156 81.457031 37.113281 81.667969 37.410156 81.730469 C 37.605469 81.769531 37.882812 81.730469 38.1875 81.582031 C 38.5625 81.398438 39.023438 81.039062 39.207031 80.945312 C 40.789062 80.148438 42.332031 79.273438 43.882812 78.410156 C 44.734375 77.933594 45.570312 77.429688 46.460938 77 C 46.652344 76.90625 47.078125 76.765625 47.367188 76.59375 C 47.589844 76.464844 47.746094 76.304688 47.828125 76.152344 C 47.925781 75.964844 47.921875 75.765625 47.808594 75.570312 C 47.757812 75.472656 47.664062 75.367188 47.535156 75.277344 C 47.390625 75.167969 47.183594 75.074219 47.121094 75.039062 C 46.523438 74.703125 45.921875 74.367188 45.335938 74.011719 C 43.367188 72.820312 41.390625 71.640625 39.394531 70.492188 C 38.90625 70.214844 38.421875 69.941406 37.941406 69.652344 C 37.914062 69.632812 37.714844 69.515625 37.644531 69.476562 C 37.582031 69.402344 37.503906 69.339844 37.40625 69.304688 C 37.21875 69.234375 37.007812 69.261719 36.851562 69.382812 C 35.351562 70.542969 33.132812 72.355469 31.652344 73.539062 C 31.277344 73.835938 30.894531 74.113281 30.53125 74.414062 C 30.507812 74.4375 30.441406 74.492188 30.390625 74.539062 C 30.347656 74.515625 30.308594 74.488281 30.269531 74.464844 C 30.082031 74.347656 29.886719 74.226562 29.742188 74.160156 C 28.734375 73.722656 27.777344 73.195312 26.824219 72.660156 C 25.9375 72.164062 25.117188 71.609375 24.316406 70.996094 C 23.457031 70.34375 22.515625 69.75 21.550781 69.242188 C 21.488281 69.207031 21.375 69.160156 21.257812 69.109375 Z M 31.097656 54.148438 C 31.050781 54.15625 31.011719 54.15625 30.976562 54.160156 C 28.910156 54.242188 26.902344 54.894531 25.058594 55.765625 C 22.558594 56.945312 20.582031 58.800781 19.226562 61.109375 C 18.484375 62.375 18.078125 64.011719 17.007812 65.082031 C 16.496094 65.597656 15.839844 65.921875 15.15625 66.203125 C 14.558594 66.441406 13.945312 66.644531 13.414062 66.960938 C 11.902344 67.859375 10.914062 69.464844 10.199219 70.976562 C 9.988281 71.414062 9.714844 71.910156 9.613281 72.402344 C 11.140625 73.082031 12.707031 73.679688 14.261719 74.304688 C 15.035156 74.617188 16.046875 74.910156 16.722656 75.382812 C 16.898438 75.503906 16.945312 75.640625 16.957031 75.753906 C 16.972656 75.875 16.949219 75.996094 16.875 76.113281 C 16.828125 76.175781 16.753906 76.257812 16.628906 76.316406 C 16.582031 76.339844 16.449219 76.382812 16.414062 76.394531 C 16.285156 76.457031 16.160156 76.523438 16.035156 76.582031 C 15.601562 76.789062 15.15625 76.984375 14.710938 77.175781 C 13.449219 77.726562 12.179688 78.257812 10.9375 78.832031 C 10.597656 78.984375 10.265625 79.140625 9.9375 79.300781 L 9.902344 79.316406 C 10.660156 81.355469 11.992188 83.386719 13.710938 84.765625 C 15.097656 85.878906 16.777344 86.539062 17.9375 87.914062 C 18.898438 89.042969 19.40625 90.4375 20.125 91.703125 C 20.886719 93.054688 21.886719 94.292969 23.128906 95.277344 C 24.765625 96.558594 26.609375 97.242188 28.707031 97.414062 C 28.804688 97.421875 28.910156 97.433594 29.011719 97.4375 C 26.316406 96.015625 23.984375 93.660156 23.753906 90.707031 C 23.648438 89.382812 23.984375 88.121094 24.089844 86.8125 C 24.128906 86.273438 24.230469 85.660156 24.007812 85.148438 C 23.671875 84.382812 22.996094 83.933594 22.242188 83.570312 C 21.371094 83.152344 20.386719 82.855469 19.585938 82.460938 C 19.3125 82.328125 18.425781 81.921875 18.113281 81.492188 C 17.984375 81.320312 17.921875 81.136719 17.921875 80.957031 C 17.921875 80.761719 17.984375 80.554688 18.179688 80.359375 C 18.925781 79.597656 20.238281 79.089844 21.1875 78.640625 C 23.253906 77.667969 25.351562 76.78125 27.484375 75.96875 C 28.144531 75.714844 28.804688 75.457031 29.464844 75.210938 C 29.402344 75.171875 29.339844 75.132812 29.28125 75.109375 C 28.246094 74.65625 27.25 74.113281 26.261719 73.5625 C 25.332031 73.039062 24.46875 72.453125 23.625 71.8125 C 22.8125 71.195312 21.925781 70.636719 21.015625 70.15625 C 20.84375 70.066406 20.429688 69.90625 20.183594 69.710938 C 19.960938 69.53125 19.839844 69.3125 19.828125 69.097656 C 19.816406 68.914062 19.890625 68.691406 20.132812 68.5 C 20.429688 68.273438 21.195312 68.035156 21.351562 67.945312 C 22.351562 67.382812 23.140625 66.589844 23.753906 65.652344 C 24.566406 64.410156 24.9375 63.003906 25.460938 61.648438 C 26.105469 59.988281 26.953125 58.34375 28.109375 56.953125 C 28.917969 55.992188 29.839844 55.097656 30.851562 54.332031 C 30.933594 54.269531 31.015625 54.210938 31.097656 54.148438 Z M 37.210938 70.453125 C 35.738281 71.609375 33.734375 73.242188 32.359375 74.339844 C 32.121094 74.53125 31.882812 74.710938 31.640625 74.898438 C 31.757812 75 31.886719 75.148438 31.941406 75.203125 C 32.296875 75.554688 32.648438 75.910156 33.003906 76.257812 C 34.136719 77.355469 35.304688 78.421875 36.441406 79.515625 C 36.652344 79.71875 36.953125 80.121094 37.277344 80.433594 C 37.382812 80.539062 37.480469 80.640625 37.585938 80.6875 C 37.675781 80.648438 37.894531 80.535156 38.035156 80.445312 C 38.3125 80.269531 38.5625 80.085938 38.691406 80.023438 C 40.265625 79.234375 41.789062 78.363281 43.320312 77.511719 C 44.199219 77.023438 45.050781 76.507812 45.957031 76.070312 C 46.070312 76.015625 46.25 75.949219 46.441406 75.871094 C 45.871094 75.550781 45.300781 75.230469 44.742188 74.894531 C 42.785156 73.703125 40.8125 72.527344 38.820312 71.386719 C 38.328125 71.101562 37.832031 70.824219 37.347656 70.527344 C 37.324219 70.515625 37.277344 70.488281 37.210938 70.453125 Z M 37.210938 70.453125 " fill-opacity="1" fill-rule="evenodd"/><path fill="#000000" d="M -4.097656 76.132812 L 8.835938 78.683594 L 15.582031 75.796875 L 8.800781 72.769531 Z M -4.097656 76.132812 " fill-opacity="1" fill-rule="evenodd"/><path fill="#000000" d="M 150.484375 53.152344 C 150.445312 53.308594 149.804688 53.820312 149.699219 53.960938 C 149.285156 54.492188 148.835938 55.058594 148.925781 55.710938 C 149.058594 56.6875 149.707031 57.667969 150.246094 58.53125 C 150.578125 59.054688 151.050781 59.691406 150.992188 60.304688 C 150.945312 60.769531 150.59375 61.273438 149.941406 61.292969 C 149.644531 61.300781 149.3125 61.207031 149.042969 61.113281 C 148.496094 60.921875 148.054688 60.496094 147.777344 60.082031 C 147.273438 59.320312 147.203125 58.390625 147.097656 57.550781 C 146.984375 56.636719 146.8125 55.710938 146.429688 54.84375 C 146.253906 54.441406 146.019531 54.054688 145.730469 53.699219 C 145.695312 53.652344 145.503906 53.382812 145.414062 53.40625 C 145.285156 53.445312 145.183594 53.632812 145.121094 53.71875 C 144.925781 53.992188 144.757812 54.277344 144.585938 54.554688 C 144.429688 54.804688 144.066406 55.164062 144.054688 55.449219 C 144.035156 55.894531 144.484375 56.398438 144.660156 56.804688 C 145.050781 57.699219 145.339844 58.703125 145.171875 59.65625 C 145.019531 60.488281 144.207031 61.976562 142.859375 61.746094 C 142.058594 61.605469 141.808594 60.902344 141.738281 60.332031 C 141.566406 58.976562 142 57.621094 141.820312 56.257812 C 141.800781 56.136719 141.78125 56.011719 141.753906 55.890625 C 141.726562 55.777344 141.695312 55.664062 141.65625 55.550781 C 141.5625 55.269531 141.273438 54.339844 140.757812 54.703125 C 140.289062 55.03125 140.046875 55.605469 139.777344 56.042969 C 139.640625 56.273438 139.457031 56.515625 139.503906 56.785156 C 139.539062 56.976562 139.683594 57.144531 139.777344 57.324219 C 139.933594 57.621094 140.042969 57.941406 140.066406 58.269531 C 140.136719 59.328125 139.953125 60.40625 139.945312 61.46875 C 139.941406 62.273438 140.042969 63.191406 140.660156 63.855469 C 141.503906 64.765625 143.289062 64.648438 144.230469 63.917969 C 145.183594 63.179688 145.578125 62.023438 145.796875 61 C 145.765625 61.046875 145.933594 61.273438 145.960938 61.316406 C 146.164062 61.660156 146.367188 61.996094 146.636719 62.308594 C 147.582031 63.402344 150.140625 64.363281 151.394531 63.035156 C 151.691406 62.71875 151.917969 62.359375 152.085938 61.988281 C 152.601562 60.863281 152.582031 59.636719 152.210938 58.488281 C 151.738281 57.03125 150.773438 54.648438 150.484375 53.152344 Z M 150.484375 53.152344 " fill-opacity="1" fill-rule="evenodd"/><path fill="#000000" d="M 191.628906 30.890625 C 191.941406 30.453125 192.117188 29.867188 192.363281 29.394531 C 192.945312 28.273438 193.550781 27.15625 194.292969 26.117188 C 194.277344 26.160156 194.382812 26.289062 194.402344 26.332031 C 194.503906 26.523438 194.585938 26.722656 194.667969 26.917969 C 195.046875 27.808594 195.441406 28.6875 195.808594 29.578125 C 196.765625 31.894531 197.785156 34.183594 198.6875 36.519531 C 198.921875 37.125 199.148438 37.738281 199.34375 38.355469 C 199.519531 38.925781 199.699219 39.535156 199.578125 40.132812 C 199.558594 40.226562 199.535156 40.472656 199.425781 40.523438 C 199.367188 40.550781 199.277344 40.472656 199.238281 40.441406 C 199.070312 40.316406 198.917969 40.171875 198.769531 40.03125 C 198.246094 39.539062 197.734375 39.039062 197.242188 38.523438 C 197.105469 38.382812 196.507812 37.757812 196.476562 38.308594 C 196.472656 38.363281 196.472656 38.417969 196.476562 38.472656 C 196.488281 38.550781 196.503906 38.632812 196.527344 38.710938 C 196.695312 38.671875 196.5625 39.027344 196.578125 39.183594 C 196.605469 39.460938 196.625 39.738281 196.648438 40.015625 C 196.710938 40.871094 196.757812 41.722656 196.820312 42.578125 C 197.019531 45.207031 197.242188 47.828125 197.546875 50.449219 C 198.453125 58.261719 198.796875 67.039062 199.648438 74.855469 C 199.671875 74.859375 199.695312 75.175781 199.699219 75.199219 C 199.75 75.585938 199.804688 75.972656 199.855469 76.363281 C 200.066406 78.003906 200.167969 79.65625 200.273438 81.3125 C 200.492188 84.695312 200.871094 88.070312 200.914062 91.464844 C 200.933594 93.027344 200.976562 94.632812 200.664062 96.175781 C 200.285156 98.023438 199.550781 99.917969 198.511719 101.535156 C 198.246094 101.953125 197.945312 102.339844 197.601562 102.703125 C 197.550781 102.753906 197.34375 103.054688 197.253906 102.960938 C 196.980469 102.683594 197.332031 101.566406 197.359375 101.25 C 197.488281 99.707031 197.421875 98.160156 197.386719 96.617188 C 197.34375 94.882812 197.3125 93.148438 197.242188 91.414062 C 197.121094 88.542969 196.929688 85.6875 196.671875 82.824219 C 196.816406 82.902344 196.632812 82.515625 196.617188 82.359375 C 196.589844 82.09375 196.5625 81.828125 196.535156 81.5625 C 196.445312 80.675781 196.363281 79.789062 196.285156 78.902344 C 196.046875 76.269531 195.792969 73.636719 195.648438 70.996094 C 195.21875 62.996094 194.570312 54.992188 193.828125 47.011719 C 193.890625 46.996094 193.816406 46.894531 193.8125 46.832031 C 193.796875 46.589844 193.773438 46.347656 193.757812 46.105469 C 193.679688 45.140625 193.621094 44.175781 193.546875 43.210938 C 193.335938 40.453125 193.117188 37.699219 192.863281 34.945312 C 192.800781 34.257812 192.738281 33.570312 192.683594 32.882812 C 192.65625 32.589844 192.6875 32.121094 192.527344 31.847656 C 192.390625 31.613281 191.851562 31.046875 191.628906 30.890625 Z M 191.628906 30.890625 " fill-opacity="1" fill-rule="evenodd"/><path fill="#000000" d="M 221.464844 42.511719 L 225.371094 37.578125 L 231.738281 42.613281 L 227.988281 47.601562 Z M 221.464844 42.511719 " fill-opacity="1" fill-rule="evenodd"/><path fill="#000000" d="M 134.359375 129.265625 L 138.261719 124.332031 L 144.628906 129.367188 L 140.878906 134.355469 Z M 134.359375 129.265625 " fill-opacity="1" fill-rule="evenodd"/><path fill="#000000" d="M 152.238281 84.917969 L 156.144531 79.980469 L 162.511719 85.019531 L 158.761719 90.003906 Z M 152.238281 84.917969 " fill-opacity="1" fill-rule="evenodd"/><path fill="#000000" d="M 309.828125 83.105469 C 309.933594 83.074219 310.363281 82.253906 310.445312 82.128906 C 311.136719 81.125 311.808594 80.097656 312.550781 79.128906 C 312.71875 78.910156 313.132812 78.097656 313.476562 78.109375 C 313.851562 78.125 313.886719 79.332031 313.929688 79.578125 C 314.21875 81.316406 314.449219 83.082031 314.480469 84.847656 C 314.535156 88.160156 314.230469 92.535156 311.328125 94.699219 C 306.765625 98.097656 300.414062 93.265625 300.414062 88.082031 C 300.421875 88.089844 299.390625 89.511719 299.332031 89.621094 C 298.34375 91.332031 297.691406 93.222656 296.675781 94.914062 C 294.105469 99.207031 288.015625 101.070312 284.136719 97.210938 C 282.042969 95.128906 281.3125 91.5 281.441406 88.625 C 280.425781 90.195312 279.265625 91.746094 277.796875 92.925781 C 277.539062 93.128906 275.777344 93.96875 275.777344 93.96875 C 275.777344 93.96875 276.097656 95.382812 276.152344 95.945312 C 276.285156 97.398438 276.449219 98.769531 276.285156 100.34375 C 276.265625 100.5 276.136719 100.949219 276.09375 101.0625 C 275.792969 101.800781 275.359375 102.527344 274.90625 103.175781 C 272.871094 106.074219 270.179688 108.640625 267.640625 111.082031 C 266.296875 112.378906 264.921875 113.65625 263.492188 114.851562 C 256.882812 120.359375 247.113281 126.546875 238.417969 121.742188 C 237.175781 121.054688 236.082031 120.148438 235.15625 119.074219 C 233.988281 117.707031 233.097656 116.125 232.507812 114.425781 C 231.019531 110.105469 231.140625 105.300781 232.277344 100.917969 C 232.691406 99.34375 233.207031 97.753906 234 96.328125 C 234.046875 96.246094 234.875 94.90625 235.03125 95.191406 C 235.234375 95.5625 234.789062 96.507812 234.695312 96.863281 C 234.253906 98.464844 233.789062 100.050781 233.554688 101.699219 C 232.785156 107.085938 233.234375 112.945312 238.082031 116.222656 C 238.855469 116.746094 239.710938 117.183594 240.597656 117.492188 C 243.769531 118.582031 247.234375 118.105469 250.378906 117.152344 C 256.96875 115.140625 262.710938 110.34375 267.9375 106 C 269.238281 104.917969 270.503906 103.796875 271.765625 102.664062 C 272.59375 101.921875 273.566406 101.148438 274.101562 100.148438 C 274.820312 98.792969 273.828125 95.121094 273.828125 95.121094 C 273.828125 95.121094 272.726562 95.769531 272.636719 95.8125 C 271.425781 96.371094 270.621094 96.613281 269.335938 96.980469 C 265.457031 98.078125 260.257812 97.941406 258.5625 93.5 C 257.054688 89.5625 259.523438 84.898438 262.203125 82.121094 C 263.21875 81.066406 264.796875 79.5625 266.410156 79.796875 C 270.90625 80.445312 272.960938 85.382812 274.820312 88.859375 C 274.816406 88.859375 275.105469 88.761719 275.179688 88.722656 C 275.460938 88.582031 275.734375 88.40625 275.996094 88.230469 C 276.75 87.730469 277.480469 87.195312 278.203125 86.652344 C 279.574219 85.613281 280.808594 84.433594 282.109375 83.308594 C 282.3125 83.132812 283.074219 82.265625 283.40625 82.414062 C 283.578125 82.488281 283.570312 82.886719 283.585938 83.035156 C 283.652344 83.683594 283.585938 84.335938 283.582031 84.984375 C 283.570312 87.121094 283.933594 89.308594 285.28125 91.039062 C 287.320312 93.660156 291.097656 93.339844 293.695312 91.722656 C 297.675781 89.242188 298.957031 84.800781 300.890625 80.835938 C 300.960938 80.691406 301.140625 81.363281 301.152344 81.40625 C 301.34375 82.140625 301.472656 82.886719 301.671875 83.621094 C 302.199219 85.578125 302.753906 87.871094 304.785156 88.769531 C 305.5 89.085938 306.296875 89.160156 307.070312 89.164062 C 307.640625 89.167969 308.207031 89.121094 308.769531 89 C 309.164062 88.914062 309.527344 88.777344 309.886719 88.589844 C 312.082031 87.429688 310.648438 84.867188 309.828125 83.105469 Z M 269.292969 90.015625 C 267.929688 90.292969 265.984375 90.894531 264.582031 90.980469 C 264.035156 91.015625 263.363281 91.054688 262.882812 90.738281 C 262.363281 90.398438 262.363281 89.714844 262.53125 89.183594 C 262.871094 88.085938 263.695312 86.957031 264.757812 86.46875 C 266.511719 85.660156 268.367188 88.738281 269.292969 90.015625 Z M 269.292969 90.015625 " fill-opacity="1" fill-rule="evenodd"/><path fill="#000000" d="M 238.128906 82.382812 C 238.144531 82.390625 238.105469 82.519531 238.101562 82.53125 C 238.058594 82.703125 238.015625 82.878906 237.96875 83.054688 C 237.757812 83.859375 237.550781 84.667969 237.335938 85.476562 C 237.039062 86.59375 236.796875 87.722656 236.535156 88.847656 C 236.46875 89.132812 236.402344 89.421875 236.320312 89.703125 C 236.300781 89.773438 236.222656 89.941406 236.25 90.015625 C 236.328125 90.222656 236.53125 90.40625 236.671875 90.5625 C 237 90.917969 237.347656 91.234375 237.6875 91.574219 C 237.722656 91.527344 237.640625 91.6875 237.652344 91.746094 C 237.683594 91.921875 237.726562 92.089844 237.773438 92.261719 C 237.890625 92.707031 238.027344 93.140625 238.179688 93.570312 C 238.632812 94.867188 239.109375 96.15625 239.597656 97.4375 C 241.0625 101.28125 243.125 104.777344 244.730469 108.539062 C 244.726562 108.53125 244.167969 109.046875 244.125 109.089844 C 243.769531 109.453125 243.433594 109.839844 243.082031 110.210938 C 242.039062 111.308594 240.898438 112.300781 239.757812 113.289062 C 236.101562 116.460938 232.644531 119.722656 228.460938 122.160156 C 227.363281 122.800781 226.273438 123.542969 225.136719 124.105469 C 222.402344 125.460938 219.300781 126.570312 216.269531 126.898438 C 215.253906 127.003906 214.21875 127.011719 213.195312 126.878906 C 209.132812 126.355469 205.25 124.082031 203.207031 120.34375 C 202.617188 119.261719 202.210938 118.074219 201.9375 116.867188 C 201.113281 113.300781 201.480469 109.640625 202.085938 106.066406 C 202.644531 102.761719 203.585938 99.761719 204.738281 96.644531 C 204.953125 96.058594 205.886719 94.1875 204.820312 93.835938 C 204.765625 93.820312 204.546875 94.308594 204.527344 94.34375 C 204.222656 94.921875 203.953125 95.519531 203.683594 96.113281 C 202.550781 98.59375 201.453125 101.109375 200.601562 103.710938 C 198.875 108.988281 198.238281 114.660156 198.925781 120.195312 C 199.464844 124.539062 200.953125 128.441406 204.414062 131.148438 C 208.546875 134.382812 214.1875 135.011719 219.164062 133.738281 C 222.621094 132.851562 226.042969 131.003906 229.015625 129 C 229.023438 129.003906 230.667969 127.824219 230.8125 127.71875 C 232.667969 126.328125 234.523438 124.929688 236.316406 123.457031 C 239.554688 120.800781 242.929688 117.84375 245.09375 114.144531 C 247.65625 109.757812 247.644531 104.128906 246.066406 99.421875 C 246.167969 99.433594 245.992188 99.222656 245.949219 99.125 C 245.847656 98.902344 245.742188 98.679688 245.636719 98.453125 C 245.359375 97.859375 245.070312 97.273438 244.789062 96.683594 C 243.945312 94.902344 242.890625 93.15625 242.222656 91.292969 C 242.0625 90.847656 242.351562 90.832031 242.761719 91.074219 C 243.261719 91.367188 243.714844 91.765625 244.246094 92 C 244.4375 92.085938 244.730469 92.144531 244.816406 91.882812 C 244.980469 91.351562 244.5 90.667969 244.246094 90.257812 C 243.414062 88.917969 239.257812 83.800781 238.128906 82.382812 Z M 238.128906 82.382812 " fill-opacity="1" fill-rule="evenodd"/><path fill="#000000" d="M 251.054688 70.941406 C 251.046875 70.921875 251.042969 70.988281 251.03125 71.011719 C 251.011719 71.066406 250.992188 71.125 250.964844 71.179688 C 250.921875 71.28125 250.722656 71.882812 250.554688 71.835938 C 250.253906 71.757812 249.921875 71.269531 249.699219 71.085938 C 249.203125 70.679688 248.652344 70.320312 248.109375 69.960938 C 247.835938 69.78125 247.449219 69.605469 247.304688 69.324219 C 247.15625 69.035156 247.175781 68.667969 247.164062 68.359375 C 247.128906 67.441406 247.222656 65.6875 248.539062 65.382812 C 249.519531 65.152344 250.511719 65.777344 251.191406 66.296875 C 252.453125 67.257812 253.25 68.605469 253.894531 69.917969 C 254.710938 71.589844 255.363281 73.335938 255.910156 75.089844 C 255.925781 75.132812 255.9375 75 255.949219 74.953125 C 255.972656 74.867188 255.992188 74.78125 256.011719 74.691406 C 256.070312 74.445312 256.125 74.199219 256.175781 73.953125 C 256.335938 73.179688 256.488281 72.402344 256.691406 71.632812 C 257.234375 69.578125 257.871094 67.574219 259.039062 65.707031 C 259.539062 64.910156 260.34375 63.972656 261.558594 64.1875 C 262.25 64.308594 262.605469 64.808594 263.003906 65.25 C 263.511719 65.816406 264.175781 66.695312 264.097656 67.453125 C 264.050781 67.910156 263.769531 68.378906 263.566406 68.792969 C 263.394531 69.144531 263.203125 69.570312 262.863281 69.835938 C 262.558594 70.074219 262.164062 69.480469 262.03125 69.324219 C 261.585938 68.796875 260.617188 67.472656 259.730469 68.171875 C 259.214844 68.582031 258.964844 69.203125 258.742188 69.757812 C 258.34375 70.769531 258.042969 71.8125 257.753906 72.855469 C 257.734375 72.929688 257.667969 73.160156 257.652344 73.226562 C 257.546875 73.621094 257.429688 74.015625 257.328125 74.414062 C 256.914062 75.96875 256.40625 77.511719 255.769531 79.011719 C 255.625 79.347656 255.480469 79.683594 255.296875 80.003906 C 255.265625 80.058594 255.160156 80.296875 255.050781 80.273438 C 254.925781 80.246094 254.90625 79.917969 254.886719 79.839844 C 254.789062 79.40625 254.675781 78.976562 254.582031 78.542969 C 254.480469 78.085938 254.375 77.628906 254.238281 77.175781 C 254 76.398438 253.746094 75.613281 253.460938 74.847656 C 253.03125 73.703125 251.90625 71.597656 251.054688 70.941406 Z M 251.054688 70.941406 " fill-opacity="1" fill-rule="evenodd"/><path fill="#000000" d="M 246.417969 42.417969 C 246.40625 42.398438 246.40625 42.464844 246.394531 42.488281 C 246.375 42.542969 246.351562 42.601562 246.328125 42.65625 C 246.285156 42.757812 246.085938 43.359375 245.917969 43.3125 C 245.617188 43.234375 245.285156 42.746094 245.0625 42.5625 C 244.566406 42.15625 244.015625 41.796875 243.472656 41.4375 C 243.199219 41.257812 242.8125 41.082031 242.667969 40.800781 C 242.519531 40.511719 242.539062 40.144531 242.527344 39.839844 C 242.492188 38.917969 242.585938 37.164062 243.902344 36.859375 C 244.882812 36.628906 245.875 37.253906 246.554688 37.773438 C 247.816406 38.738281 248.613281 40.082031 249.257812 41.394531 C 250.074219 43.070312 250.722656 44.8125 251.273438 46.566406 C 251.289062 46.609375 251.300781 46.476562 251.3125 46.429688 C 251.335938 46.34375 251.355469 46.257812 251.375 46.167969 C 251.433594 45.925781 251.488281 45.679688 251.539062 45.433594 C 251.699219 44.65625 251.851562 43.878906 252.054688 43.109375 C 252.597656 41.054688 253.230469 39.050781 254.402344 37.183594 C 254.902344 36.386719 255.707031 35.453125 256.921875 35.664062 C 257.613281 35.785156 257.96875 36.285156 258.367188 36.730469 C 258.875 37.292969 259.535156 38.171875 259.457031 38.929688 C 259.414062 39.386719 259.132812 39.855469 258.929688 40.269531 C 258.757812 40.621094 258.566406 41.046875 258.226562 41.3125 C 257.921875 41.550781 257.527344 40.957031 257.394531 40.800781 C 256.949219 40.273438 255.976562 38.949219 255.09375 39.648438 C 254.578125 40.058594 254.328125 40.679688 254.105469 41.234375 C 253.707031 42.246094 253.40625 43.289062 253.117188 44.332031 C 253.097656 44.40625 253.03125 44.636719 253.015625 44.703125 C 252.910156 45.097656 252.792969 45.496094 252.6875 45.890625 C 252.277344 47.445312 251.769531 48.988281 251.132812 50.488281 C 250.988281 50.824219 250.84375 51.160156 250.660156 51.480469 C 250.628906 51.535156 250.523438 51.777344 250.414062 51.75 C 250.289062 51.726562 250.265625 51.394531 250.25 51.316406 C 250.152344 50.882812 250.039062 50.453125 249.941406 50.023438 C 249.84375 49.5625 249.738281 49.105469 249.601562 48.652344 C 249.363281 47.875 249.109375 47.089844 248.824219 46.324219 C 248.394531 45.179688 247.269531 43.074219 246.417969 42.417969 Z M 246.417969 42.417969 " fill-opacity="1" fill-rule="evenodd"/><path fill="#000000" d="M 125.570312 64.609375 C 125.5625 64.589844 125.558594 64.648438 125.550781 64.667969 C 125.535156 64.714844 125.519531 64.765625 125.5 64.8125 C 125.46875 64.898438 125.3125 65.410156 125.183594 65.371094 C 124.949219 65.304688 124.691406 64.886719 124.519531 64.730469 C 124.136719 64.386719 123.707031 64.078125 123.289062 63.773438 C 123.078125 63.621094 122.777344 63.46875 122.667969 63.230469 C 122.550781 62.984375 122.566406 62.671875 122.558594 62.410156 C 122.53125 61.628906 122.601562 60.132812 123.625 59.871094 C 124.378906 59.675781 125.148438 60.207031 125.675781 60.648438 C 126.652344 61.472656 127.269531 62.617188 127.765625 63.738281 C 128.398438 65.164062 128.902344 66.648438 129.328125 68.144531 C 129.339844 68.179688 129.347656 68.066406 129.359375 68.027344 C 129.375 67.953125 129.390625 67.878906 129.40625 67.804688 C 129.449219 67.597656 129.492188 67.386719 129.53125 67.175781 C 129.65625 66.515625 129.773438 65.851562 129.933594 65.195312 C 130.351562 63.449219 130.84375 61.742188 131.75 60.148438 C 132.136719 59.46875 132.761719 58.671875 133.699219 58.855469 C 134.234375 58.957031 134.511719 59.382812 134.816406 59.761719 C 135.210938 60.242188 135.722656 60.992188 135.664062 61.636719 C 135.625 62.023438 135.410156 62.425781 135.253906 62.777344 C 135.121094 63.078125 134.972656 63.441406 134.710938 63.664062 C 134.472656 63.867188 134.167969 63.363281 134.066406 63.230469 C 133.71875 62.78125 132.96875 61.652344 132.285156 62.25 C 131.882812 62.597656 131.691406 63.128906 131.519531 63.601562 C 131.210938 64.464844 130.976562 65.351562 130.753906 66.238281 C 130.738281 66.304688 130.6875 66.5 130.675781 66.554688 C 130.59375 66.894531 130.503906 67.230469 130.421875 67.566406 C 130.101562 68.890625 129.710938 70.207031 129.21875 71.484375 C 129.109375 71.773438 128.996094 72.058594 128.851562 72.332031 C 128.828125 72.378906 128.746094 72.582031 128.664062 72.5625 C 128.566406 72.539062 128.550781 72.257812 128.535156 72.191406 C 128.460938 71.824219 128.371094 71.457031 128.296875 71.089844 C 128.21875 70.699219 128.140625 70.304688 128.03125 69.921875 C 127.847656 69.257812 127.652344 68.589844 127.429688 67.9375 C 127.097656 66.960938 126.230469 65.167969 125.570312 64.609375 Z M 125.570312 64.609375 " fill-opacity="1" fill-rule="evenodd"/><path fill="#000000" d="M 240.472656 65.523438 C 240.542969 65.582031 240.625 65.425781 240.703125 65.382812 C 240.988281 65.214844 241.269531 65.042969 241.550781 64.875 C 242.707031 64.195312 243.867188 63.523438 245.050781 62.886719 C 250.050781 60.1875 255.421875 57.746094 260.828125 55.851562 C 262.289062 55.339844 263.75 54.820312 265.21875 54.332031 C 265.554688 54.21875 265.890625 54.097656 266.234375 54.003906 C 266.253906 53.996094 266.527344 53.910156 266.550781 53.957031 C 266.582031 54.03125 266.402344 54.253906 266.367188 54.3125 C 266.164062 54.644531 265.957031 54.972656 265.753906 55.300781 C 265.445312 55.808594 265.242188 56.558594 264.835938 57 C 264.636719 57.222656 263.988281 57.324219 263.71875 57.429688 C 262.828125 57.777344 261.945312 58.136719 261.0625 58.5 C 255.480469 60.804688 250.027344 63.398438 244.566406 65.9375 C 243.269531 66.539062 241.960938 67.128906 240.6875 67.777344 C 240.519531 67.863281 239.632812 68.46875 239.421875 68.363281 C 239.269531 68.285156 239.417969 67.90625 239.449219 67.804688 C 239.621094 67.257812 240.234375 66.046875 240.472656 65.523438 Z M 240.472656 65.523438 " fill-opacity="1" fill-rule="evenodd"/><path fill="#000000" d="M 127.382812 46.28125 C 127.472656 46.355469 127.585938 46.15625 127.691406 46.097656 C 128.074219 45.882812 128.453125 45.664062 128.839844 45.449219 C 130.398438 44.574219 131.964844 43.710938 133.5625 42.890625 C 140.308594 39.425781 147.558594 36.292969 154.847656 33.871094 C 156.816406 33.214844 158.785156 32.550781 160.769531 31.925781 C 161.222656 31.78125 161.671875 31.625 162.132812 31.503906 C 162.164062 31.496094 162.53125 31.386719 162.5625 31.449219 C 162.605469 31.546875 162.359375 31.835938 162.3125 31.910156 C 162.035156 32.335938 161.757812 32.761719 161.484375 33.1875 C 161.0625 33.84375 160.78125 34.816406 160.234375 35.386719 C 159.960938 35.671875 159.09375 35.800781 158.726562 35.9375 C 157.527344 36.378906 156.332031 36.839844 155.144531 37.308594 C 147.617188 40.261719 140.257812 43.585938 132.890625 46.84375 C 131.140625 47.617188 129.375 48.375 127.65625 49.207031 C 127.429688 49.320312 126.230469 50.101562 125.949219 49.960938 C 125.746094 49.859375 125.945312 49.363281 125.988281 49.234375 C 126.222656 48.527344 127.054688 46.957031 127.382812 46.28125 Z M 127.382812 46.28125 " fill-opacity="1" fill-rule="evenodd"/><path fill="#000000" d="M 122.1875 85.5625 C 122.28125 85.636719 122.394531 85.4375 122.5 85.378906 C 122.882812 85.164062 123.261719 84.945312 123.644531 84.730469 C 125.207031 83.855469 126.773438 82.992188 128.371094 82.171875 C 135.117188 78.703125 142.367188 75.574219 149.65625 73.152344 C 151.625 72.496094 153.59375 71.832031 155.574219 71.207031 C 156.027344 71.0625 156.480469 70.90625 156.941406 70.785156 C 156.96875 70.777344 157.339844 70.667969 157.367188 70.730469 C 157.414062 70.828125 157.167969 71.113281 157.117188 71.191406 C 156.84375 71.617188 156.566406 72.042969 156.292969 72.46875 C 155.871094 73.125 155.589844 74.097656 155.042969 74.667969 C 154.769531 74.953125 153.898438 75.082031 153.535156 75.214844 C 152.335938 75.660156 151.140625 76.121094 149.953125 76.589844 C 142.425781 79.542969 135.066406 82.867188 127.699219 86.125 C 125.949219 86.898438 124.179688 87.65625 122.464844 88.488281 C 122.238281 88.597656 121.039062 89.382812 120.757812 89.238281 C 120.554688 89.136719 120.75 88.644531 120.792969 88.515625 C 121.027344 87.808594 121.863281 86.238281 122.1875 85.5625 Z M 122.1875 85.5625 " fill-opacity="1" fill-rule="evenodd"/><path fill="#000000" d="M 170.300781 50.753906 C 170.582031 51.199219 174.015625 52.125 174.019531 52.085938 C 174.0625 50.835938 172.878906 49.199219 172.328125 48.15625 C 171.015625 45.695312 169.691406 43.226562 168.273438 40.824219 C 167.78125 39.992188 167.246094 38.4375 166.464844 37.832031 C 165.75 37.277344 164.769531 40.046875 164.597656 40.410156 C 163.359375 43.027344 163.453125 43.683594 165.351562 45.703125 C 165.410156 45.519531 165.335938 46.09375 165.347656 46.285156 C 165.375 46.757812 165.40625 47.230469 165.453125 47.703125 C 165.59375 49.117188 165.777344 50.527344 165.964844 51.9375 C 166.523438 56.191406 167.28125 60.4375 168.214844 64.621094 C 170.53125 74.980469 172.863281 85.644531 173.378906 96.269531 C 173.597656 100.832031 174.546875 104.667969 170.253906 107.210938 C 169.539062 107.632812 168.824219 108.007812 168.003906 108.175781 C 164.871094 108.8125 160.867188 107.785156 159.210938 104.832031 C 158.617188 103.773438 158.335938 102.546875 158.21875 101.347656 C 158.199219 101.136719 158.308594 99.652344 158.054688 99.648438 C 157.0625 99.625 156.136719 101.746094 155.710938 102.386719 C 154.195312 104.683594 152.445312 108.546875 149.46875 109.15625 C 146.035156 109.863281 144.390625 106.210938 143.773438 103.46875 C 143.675781 103.027344 143.601562 99.855469 143.167969 99.867188 C 142.46875 99.886719 141.757812 100.996094 141.355469 101.445312 C 139.875 103.113281 138.34375 104.738281 136.820312 106.363281 C 132.367188 111.109375 124.378906 109.140625 121.222656 103.8125 C 117.511719 97.546875 117.34375 88.824219 116.710938 81.78125 C 115.671875 70.28125 114.378906 58.84375 112.230469 47.488281 C 111.351562 42.847656 110.277344 38.296875 108.316406 33.980469 C 108.097656 33.503906 106.800781 30.28125 106.054688 30.375 C 104.867188 30.523438 104.035156 33.585938 103.644531 34.484375 C 103.246094 35.398438 102.589844 36.558594 102.667969 37.589844 C 102.714844 38.183594 103.472656 38.695312 103.804688 39.144531 C 104.59375 40.214844 105.300781 41.363281 105.917969 42.542969 C 107.128906 44.859375 107.773438 47.324219 108.34375 49.867188 C 111.425781 63.679688 111.980469 77.960938 113.578125 91.980469 C 114.417969 99.339844 115.621094 108.753906 121.796875 113.777344 C 126.664062 117.738281 133.300781 114.824219 137.359375 111.089844 C 138.445312 110.09375 139.414062 108.960938 140.328125 107.808594 C 140.476562 107.617188 140.917969 106.769531 141.199219 106.75 C 141.320312 106.742188 142.257812 109.835938 142.375 110.082031 C 143.320312 112.015625 144.839844 113.832031 147.078125 114.171875 C 149.628906 114.554688 151.859375 113.171875 153.5 111.34375 C 153.828125 110.976562 155 108.609375 155.429688 108.558594 C 155.875 108.511719 157.53125 110.941406 157.925781 111.273438 C 159.898438 112.921875 162.40625 114.058594 165.015625 113.714844 C 166.699219 113.496094 168.25 112.769531 169.644531 111.824219 C 177.324219 106.609375 177 96.757812 176.667969 88.4375 C 176.585938 86.378906 176.421875 84.324219 176.191406 82.277344 C 175.902344 79.703125 175.519531 77.140625 175.0625 74.589844 C 173.730469 67.128906 172.109375 58.105469 170.300781 50.753906 Z M 170.300781 50.753906 " fill-opacity="1" fill-rule="evenodd"/><path fill="#000000" d="M 102.480469 19.636719 C 104.246094 19.546875 104.875 16.738281 103.371094 15.734375 C 102.261719 14.992188 100.832031 15.273438 99.691406 15.789062 C 97.519531 16.773438 95.695312 18.554688 94.359375 20.503906 C 93.929688 21.128906 93.425781 21.882812 93.304688 22.652344 C 93.0625 24.199219 94.789062 25.355469 95.980469 25.890625 C 96.398438 26.078125 98.203125 26.3125 98.355469 26.761719 C 98.464844 27.089844 98.082031 27.449219 97.890625 27.660156 C 97.339844 28.265625 96.75 28.84375 96.257812 29.503906 C 96.175781 29.609375 95.53125 30.433594 95.714844 30.570312 C 95.910156 30.71875 96.476562 30.402344 96.644531 30.328125 C 97.523438 29.929688 98.367188 29.445312 99.203125 28.964844 C 101.578125 27.601562 104.003906 26.320312 106.363281 24.933594 C 107.429688 24.308594 108.714844 23.292969 108.539062 21.894531 C 108.394531 20.730469 107.347656 21.566406 106.667969 21.898438 C 104.9375 22.746094 102.855469 23.636719 100.890625 23.363281 C 99.066406 23.113281 97.914062 22.09375 99.125 19.648438 C 99.597656 18.695312 102.199219 18.96875 102.480469 19.636719 Z M 102.480469 19.636719 " fill-opacity="1" fill-rule="evenodd"/><path fill="#000000" d="M 285.59375 80.566406 C 285.5 80.421875 285.921875 80.046875 285.96875 80.011719 C 286.484375 79.628906 287.027344 79.273438 287.5625 78.914062 C 289.742188 77.457031 292.050781 76.191406 294.242188 74.757812 C 298.101562 72.238281 301.667969 69.226562 305.066406 66.191406 C 306.847656 64.601562 308.878906 63.105469 310.304688 61.207031 C 310.125 60.941406 309.796875 60.730469 309.550781 60.519531 C 308.984375 60.03125 308.398438 59.5625 307.824219 59.078125 C 307.5 58.808594 307.140625 58.546875 306.964844 58.160156 C 306.804688 57.816406 306.816406 57.425781 306.863281 57.058594 C 307.113281 55.097656 308.628906 53.054688 310.355469 51.960938 C 311.386719 51.304688 312.867188 51.128906 313.738281 52.128906 C 315.109375 53.703125 314.445312 55.925781 313.769531 57.648438 C 313.625 58.015625 313.457031 58.367188 313.285156 58.722656 C 313.214844 58.863281 313.058594 59.066406 313.042969 59.226562 C 313.03125 59.40625 313.472656 59.632812 313.59375 59.730469 C 314.027344 60.078125 314.507812 60.535156 314.707031 61.046875 C 314.964844 61.710938 314.414062 62.582031 314.097656 63.152344 C 314.007812 63.308594 313.789062 63.773438 313.535156 63.714844 C 313.25 63.648438 312.96875 63.371094 312.769531 63.1875 C 312.324219 62.78125 311.929688 62.328125 311.480469 61.929688 C 311.480469 61.921875 311.273438 62.15625 311.242188 62.195312 C 311.066406 62.394531 310.890625 62.59375 310.710938 62.792969 C 310.210938 63.355469 309.726562 63.933594 309.238281 64.503906 C 307.808594 66.164062 306.292969 67.78125 304.628906 69.242188 C 300.773438 72.632812 296.285156 75.339844 291.632812 77.664062 C 290.429688 78.261719 289.226562 78.859375 288.003906 79.417969 C 287.332031 79.726562 285.789062 80.859375 285.59375 80.566406 Z M 312.273438 58.609375 C 312.28125 58.613281 312.332031 58.390625 312.335938 58.375 C 312.390625 58.101562 312.453125 57.828125 312.484375 57.554688 C 312.605469 56.570312 312.484375 55.277344 311.65625 54.5625 C 310.992188 53.988281 310.050781 54.054688 309.433594 54.664062 C 309.199219 54.898438 309.007812 55.195312 309.058594 55.527344 C 309.125 55.9375 309.464844 56.289062 309.761719 56.578125 C 310.316406 57.125 311.667969 58.113281 312.273438 58.609375 Z M 312.273438 58.609375 " fill-opacity="1" fill-rule="evenodd"/><path fill="#000000" d="M 211.460938 64.101562 C 211.460938 64.078125 211.445312 63.78125 211.449219 63.699219 C 211.484375 63.375 211.53125 63.050781 211.566406 62.726562 C 211.667969 61.875 211.722656 61.011719 211.851562 60.164062 C 211.910156 59.777344 211.957031 59.277344 212.464844 59.429688 C 213.25 59.671875 213.976562 60.21875 214.683594 60.625 C 215.9375 61.347656 217.183594 62.089844 218.464844 62.765625 C 218.972656 63.035156 219.492188 63.289062 219.992188 63.566406 C 220.082031 63.617188 220.382812 63.738281 220.367188 63.878906 C 220.351562 64.074219 219.890625 64.082031 219.761719 64.09375 C 219.449219 64.121094 218.027344 64.011719 217.867188 64.300781 C 217.59375 64.792969 218.4375 65.785156 218.679688 66.140625 C 219.800781 67.773438 221.1875 69.203125 222.683594 70.5 C 222.722656 70.492188 223.121094 69.746094 223.171875 69.679688 C 223.683594 68.914062 224.207031 68.15625 224.730469 67.394531 C 226.59375 64.664062 228.535156 61.957031 230.546875 59.332031 C 231.027344 58.703125 231.527344 58.074219 232.039062 57.464844 C 232.203125 57.269531 232.429688 56.9375 232.710938 56.898438 C 233.140625 56.839844 232.910156 58.238281 232.882812 58.445312 C 232.683594 60.082031 231.59375 61.617188 230.761719 62.984375 C 229.992188 64.242188 229.195312 65.484375 228.378906 66.714844 C 227.109375 68.636719 225.847656 70.566406 224.53125 72.457031 C 225.039062 72.855469 225.542969 73.691406 226.003906 74.191406 C 227.183594 75.460938 228.769531 76.859375 229.378906 78.53125 C 229.890625 79.945312 230.402344 81.242188 230.558594 82.726562 C 230.730469 84.441406 230.378906 86.519531 229.761719 88.164062 C 228.683594 91.042969 225.847656 93.609375 223.308594 95.207031 C 221.300781 96.476562 218.46875 97.699219 216.039062 97.371094 C 212.734375 96.929688 212.664062 92.039062 212.800781 89.5625 C 212.839844 88.957031 212.902344 88.355469 213.003906 87.761719 C 213.148438 86.933594 213.351562 86.113281 213.609375 85.3125 C 213.890625 84.421875 214.234375 83.546875 214.625 82.695312 C 215.96875 79.773438 217.722656 77.035156 219.746094 74.539062 C 217.070312 72.167969 215.269531 68.847656 213.214844 65.96875 C 213.039062 65.71875 212.824219 65.5 212.492188 65.554688 C 212.40625 65.570312 211.824219 65.71875 211.628906 65.414062 C 211.386719 65.058594 211.53125 64.230469 211.460938 64.101562 Z M 221.96875 77.21875 C 221.78125 77.214844 221.414062 77.699219 221.296875 77.808594 C 220.65625 78.417969 220.050781 79.078125 219.453125 79.734375 C 218.988281 80.238281 218.539062 80.757812 218.105469 81.289062 C 217.734375 81.753906 217.363281 82.226562 217.023438 82.710938 C 215.613281 84.710938 213.625 88.480469 216.339844 90.285156 C 219.175781 92.167969 222.8125 89.800781 225.03125 88.015625 C 226.105469 87.148438 227.210938 86.183594 227.402344 84.738281 C 227.535156 83.742188 227.140625 82.835938 226.632812 82.003906 C 225.6875 80.445312 223.308594 78.4375 221.96875 77.21875 Z M 211.460938 64.101562 L 211.460938 64.097656 C 211.460938 64.101562 211.460938 64.101562 211.460938 64.101562 Z M 211.460938 64.101562 " fill-opacity="1" fill-rule="evenodd"/><path fill="#000000" d="M 211.195312 42.511719 L 215.097656 37.578125 L 221.46875 42.613281 L 217.71875 47.601562 Z M 211.195312 42.511719 " fill-opacity="1" fill-rule="evenodd"/><path fill="#000000" d="M 309.445312 100.125 C 309.40625 100.027344 309.613281 99.617188 309.648438 99.523438 C 309.863281 98.882812 310.074219 98.238281 310.335938 97.613281 C 310.371094 97.527344 310.558594 96.9375 310.695312 96.960938 C 310.761719 96.96875 310.808594 97.113281 310.835938 97.167969 C 310.949219 97.410156 311.0625 97.644531 311.171875 97.886719 C 311.703125 99.0625 311.769531 100.457031 311.605469 101.726562 C 311.425781 103.148438 310.796875 104.613281 309.554688 105.304688 C 307.746094 106.320312 305.546875 104.890625 304.996094 102.960938 C 304.171875 103.402344 303.820312 104.574219 303.292969 105.453125 C 302.699219 106.445312 301.824219 107.113281 300.730469 107.324219 C 298.929688 107.664062 297.609375 106.25 295.976562 105.792969 C 295.054688 105.539062 294.117188 105.773438 293.277344 106.207031 C 291.363281 107.179688 289.65625 108.667969 287.953125 110.003906 C 283.746094 113.304688 279.855469 117.050781 275.613281 120.289062 C 272.058594 123.011719 268.011719 124.65625 263.71875 125.726562 C 262.632812 125.996094 261.53125 126.277344 260.433594 126.488281 C 260.328125 126.507812 259.484375 126.703125 259.464844 126.476562 C 259.441406 126.234375 259.945312 125.984375 260.085938 125.890625 C 260.722656 125.464844 261.375 125.058594 262.03125 124.671875 C 264.820312 123.039062 267.683594 121.558594 270.472656 119.929688 C 275.8125 116.816406 280.824219 112.878906 285.710938 109.019531 C 288.34375 106.9375 290.976562 103.996094 294.203125 103.007812 C 296.746094 102.226562 298.851562 103.414062 301.371094 103.371094 C 301.371094 103.359375 301.691406 103.269531 301.707031 103.265625 C 301.90625 103.1875 302.09375 103.09375 302.269531 102.976562 C 302.867188 102.582031 303.414062 102.082031 303.882812 101.527344 C 304.292969 101.046875 304.601562 100.5 304.945312 99.964844 C 305.144531 99.652344 305.351562 99.351562 305.5625 99.050781 C 305.707031 98.84375 305.847656 98.632812 306 98.425781 C 306.054688 98.355469 306.617188 97.59375 306.75 97.832031 C 306.871094 98.046875 306.546875 98.730469 306.476562 98.9375 C 306.207031 99.75 305.949219 100.625 306.527344 101.351562 C 307.363281 102.410156 311.144531 102.894531 309.445312 100.125 Z M 309.445312 100.125 " fill-opacity="1" fill-rule="evenodd"/><path fill="#000000" d="M 218.898438 100.367188 C 218.914062 100.328125 218.773438 100.527344 218.761719 100.546875 C 218.664062 100.710938 218.566406 100.871094 218.472656 101.03125 C 218.203125 101.488281 217.949219 101.949219 217.703125 102.414062 C 216.992188 103.742188 216.308594 105.078125 215.675781 106.441406 C 213.855469 110.335938 211.898438 114.519531 212.464844 118.90625 C 212.613281 120.070312 212.980469 121.292969 213.703125 122.246094 C 213.980469 122.605469 214.332031 123.035156 214.804688 123.144531 C 215.671875 123.347656 216.566406 122.542969 217.089844 121.992188 C 218.351562 120.660156 219.160156 118.929688 219.679688 117.203125 C 219.84375 116.65625 220.140625 115.777344 219.90625 115.207031 C 219.667969 114.628906 218.964844 115.792969 218.855469 115.964844 C 218.222656 116.957031 217.195312 118.800781 215.773438 117.566406 C 215.582031 117.402344 215.429688 117.191406 215.308594 116.96875 C 214.601562 115.683594 214.835938 114.042969 215.109375 112.675781 C 215.601562 110.195312 216.707031 107.925781 217.757812 105.632812 C 218.40625 104.226562 220.109375 100.90625 218.898438 100.367188 Z M 218.898438 100.367188 " fill-opacity="1" fill-rule="evenodd"/><path fill="#000000" d="M 281.695312 49.703125 C 281.835938 49.773438 282.503906 49.609375 282.675781 49.601562 C 283.539062 49.5625 284.40625 49.539062 285.269531 49.546875 C 287.984375 49.570312 290.679688 49.820312 293.347656 50.261719 C 294.5625 50.460938 296.714844 50.632812 296.847656 52.117188 C 296.742188 52.066406 296.828125 52.335938 296.800781 52.441406 C 296.746094 52.640625 296.683594 52.839844 296.617188 53.039062 C 296.421875 53.625 296.121094 54.179688 295.816406 54.722656 C 294.90625 56.339844 293.597656 57.773438 292.363281 59.179688 C 291.363281 60.324219 290.320312 61.414062 289.246094 62.492188 C 288.753906 62.992188 288.21875 63.699219 287.5625 64.027344 C 286.894531 64.363281 285.960938 64.398438 285.226562 64.515625 C 283.882812 64.730469 282.550781 64.980469 281.214844 65.238281 C 280.085938 65.457031 278.964844 65.691406 277.828125 65.871094 C 277.429688 65.9375 276.84375 66.101562 276.441406 65.972656 C 276.011719 65.835938 276.90625 65.300781 277.007812 65.242188 C 278.046875 64.679688 279.160156 64.226562 280.230469 63.71875 C 282.8125 62.488281 285.347656 61.125 287.792969 59.675781 C 288.394531 59.316406 289 58.964844 289.609375 58.621094 C 289.695312 58.574219 290.179688 58.390625 290.199219 58.28125 C 290.265625 57.929688 289.144531 57.675781 288.945312 57.621094 C 287.390625 57.179688 285.703125 57.117188 284.085938 57.121094 C 282.3125 57.125 280.539062 57.273438 278.789062 57.554688 C 278.351562 57.625 277.914062 57.730469 277.472656 57.785156 C 277.363281 57.800781 277.125 57.84375 277.050781 57.726562 C 276.941406 57.554688 277.089844 57.207031 277.164062 57.054688 C 277.441406 56.476562 277.777344 55.921875 278.128906 55.378906 C 278.457031 54.871094 278.777344 54.359375 279.097656 53.847656 C 279.621094 53.011719 281.171875 50.539062 281.695312 49.703125 Z M 281.695312 49.703125 " fill-opacity="1" fill-rule="evenodd"/><path fill="#000000" d="M 187.210938 125.742188 C 187.199219 125.777344 187.335938 125.582031 187.351562 125.558594 C 187.445312 125.398438 187.542969 125.238281 187.636719 125.074219 C 187.90625 124.621094 188.15625 124.160156 188.402344 123.695312 C 189.105469 122.367188 189.785156 121.027344 190.414062 119.667969 C 192.21875 115.773438 194.164062 111.589844 193.601562 107.199219 C 193.453125 106.035156 193.089844 104.816406 192.371094 103.863281 C 192.09375 103.5 191.746094 103.074219 191.277344 102.960938 C 190.417969 102.757812 189.53125 103.5625 189.011719 104.117188 C 187.757812 105.445312 186.953125 107.179688 186.4375 108.902344 C 186.273438 109.449219 185.980469 110.332031 186.214844 110.902344 C 186.449219 111.476562 187.148438 110.3125 187.253906 110.140625 C 187.882812 109.152344 188.902344 107.308594 190.316406 108.539062 C 190.507812 108.707031 190.65625 108.917969 190.777344 109.140625 C 191.480469 110.421875 191.246094 112.066406 190.976562 113.429688 C 190.484375 115.910156 189.390625 118.179688 188.34375 120.472656 C 187.703125 121.882812 186.011719 125.199219 187.210938 125.742188 Z M 187.210938 125.742188 " fill-opacity="1" fill-rule="evenodd"/></svg>