<svg xmlns="http://www.w3.org/2000/svg" xmlns:xlink="http://www.w3.org/1999/xlink" width="500" zoomAndPan="magnify" viewBox="0 0 375 149.999998" height="200" preserveAspectRatio="xMidYMid meet" version="1.0"><defs><clipPath id="45999ce858"><path d="M 181 113 L 190 113 L 190 136.59375 L 181 136.59375 Z M 181 113 " clip-rule="nonzero"/></clipPath><clipPath id="14b2b2e541"><path d="M 296 13.59375 L 341 13.59375 L 341 62 L 296 62 Z M 296 13.59375 " clip-rule="nonzero"/></clipPath></defs><path fill="#000000" d="M 174.191406 54.484375 C 174.152344 54.644531 173.511719 55.15625 173.402344 55.296875 C 172.988281 55.828125 172.539062 56.398438 172.628906 57.054688 C 172.761719 58.035156 173.410156 59.015625 173.953125 59.882812 C 174.285156 60.410156 174.757812 61.050781 174.699219 61.664062 C 174.65625 62.128906 174.300781 62.632812 173.648438 62.652344 C 173.351562 62.660156 173.015625 62.566406 172.746094 62.472656 C 172.199219 62.28125 171.753906 61.855469 171.476562 61.4375 C 170.96875 60.675781 170.902344 59.746094 170.792969 58.898438 C 170.679688 57.980469 170.507812 57.054688 170.125 56.183594 C 169.945312 55.78125 169.714844 55.390625 169.421875 55.035156 C 169.386719 54.988281 169.195312 54.71875 169.105469 54.742188 C 168.976562 54.777344 168.871094 54.96875 168.808594 55.054688 C 168.617188 55.328125 168.449219 55.613281 168.273438 55.894531 C 168.117188 56.144531 167.753906 56.503906 167.742188 56.792969 C 167.722656 57.238281 168.171875 57.742188 168.347656 58.152344 C 168.738281 59.050781 169.03125 60.058594 168.859375 61.011719 C 168.710938 61.847656 167.894531 63.34375 166.542969 63.109375 C 165.738281 62.96875 165.488281 62.265625 165.414062 61.691406 C 165.242188 60.332031 165.675781 58.96875 165.496094 57.601562 C 165.480469 57.480469 165.457031 57.355469 165.429688 57.234375 C 165.40625 57.121094 165.375 57.003906 165.335938 56.890625 C 165.238281 56.609375 164.949219 55.679688 164.433594 56.042969 C 163.964844 56.371094 163.714844 56.949219 163.449219 57.386719 C 163.308594 57.617188 163.125 57.863281 163.175781 58.128906 C 163.210938 58.324219 163.355469 58.492188 163.449219 58.671875 C 163.605469 58.972656 163.714844 59.292969 163.738281 59.621094 C 163.808594 60.683594 163.625 61.765625 163.617188 62.832031 C 163.613281 63.636719 163.714844 64.558594 164.332031 65.226562 C 165.179688 66.140625 166.972656 66.023438 167.917969 65.289062 C 168.875 64.546875 169.269531 63.386719 169.488281 62.363281 C 169.457031 62.410156 169.625 62.636719 169.652344 62.679688 C 169.855469 63.023438 170.058594 63.359375 170.332031 63.675781 C 171.28125 64.773438 173.847656 65.738281 175.105469 64.402344 C 175.402344 64.085938 175.628906 63.726562 175.800781 63.351562 C 176.316406 62.222656 176.296875 60.996094 175.921875 59.839844 C 175.449219 58.378906 174.484375 55.988281 174.191406 54.484375 Z M 174.191406 54.484375 " fill-opacity="1" fill-rule="evenodd"/><path fill="#000000" d="M 117.1875 30.558594 C 117.203125 30.589844 117.179688 30.492188 117.167969 30.457031 C 117.140625 30.390625 117.109375 30.324219 117.074219 30.261719 C 116.953125 30.058594 116.796875 29.851562 116.566406 30.011719 C 115.945312 30.449219 115.507812 31.457031 115.160156 32.132812 C 114.042969 34.300781 113.046875 36.53125 112.308594 38.886719 C 111.9375 40.074219 111.515625 41.34375 111.730469 42.613281 C 111.796875 43 111.914062 43.382812 112.082031 43.730469 C 113.300781 46.273438 116.71875 46.027344 118.636719 44.648438 C 120.917969 43.015625 120.800781 39.015625 119.453125 36.796875 C 118.628906 35.4375 117.503906 34.277344 116.273438 33.367188 C 116.226562 33.433594 116.3125 33.207031 116.347656 33.128906 C 116.429688 32.953125 116.515625 32.78125 116.601562 32.605469 C 116.855469 32.101562 117.203125 30.96875 117.1875 30.558594 Z M 114.769531 36.65625 C 114.773438 36.644531 114.773438 36.640625 114.761719 36.652344 L 114.769531 36.65625 C 114.753906 36.683594 114.699219 36.753906 114.679688 36.785156 C 114.628906 36.878906 114.578125 36.976562 114.527344 37.074219 C 114.386719 37.347656 114.257812 37.628906 114.132812 37.914062 C 113.765625 38.777344 113.449219 40.054688 113.863281 40.964844 C 114.066406 41.414062 114.472656 41.644531 114.894531 41.789062 C 115.785156 42.089844 116.667969 41.898438 117.539062 41.621094 C 117.871094 41.519531 118.347656 41.402344 118.617188 41.148438 C 118.71875 41.054688 118.675781 40.898438 118.632812 40.78125 C 118.503906 40.441406 118.273438 40.160156 118.058594 39.882812 C 117.214844 38.785156 115.769531 37.578125 114.769531 36.65625 Z M 114.769531 36.65625 " fill-opacity="1" fill-rule="evenodd"/><path fill="#000000" d="M 190.007812 31.691406 C 190.34375 31.257812 190.535156 30.664062 190.800781 30.191406 C 191.429688 29.066406 192.089844 27.945312 192.890625 26.898438 C 192.871094 26.945312 192.988281 27.074219 193.007812 27.113281 C 193.117188 27.304688 193.203125 27.503906 193.292969 27.703125 C 193.699219 28.59375 194.125 29.476562 194.519531 30.371094 C 195.546875 32.691406 196.644531 34.992188 197.613281 37.332031 C 197.867188 37.941406 198.109375 38.554688 198.320312 39.175781 C 198.511719 39.746094 198.703125 40.359375 198.570312 40.957031 C 198.550781 41.050781 198.523438 41.296875 198.40625 41.347656 C 198.34375 41.375 198.242188 41.296875 198.203125 41.265625 C 198.023438 41.140625 197.859375 40.996094 197.699219 40.855469 C 197.136719 40.363281 196.585938 39.863281 196.050781 39.34375 C 195.90625 39.203125 195.261719 38.574219 195.226562 39.128906 C 195.222656 39.183594 195.222656 39.238281 195.230469 39.292969 C 195.238281 39.375 195.253906 39.453125 195.28125 39.53125 C 195.460938 39.496094 195.320312 39.851562 195.335938 40.011719 C 195.367188 40.289062 195.386719 40.566406 195.410156 40.84375 C 195.476562 41.699219 195.523438 42.558594 195.589844 43.414062 C 195.800781 46.054688 196.039062 48.679688 196.363281 51.3125 C 197.328125 59.148438 197.6875 67.957031 198.597656 75.800781 C 198.621094 75.804688 198.644531 76.121094 198.648438 76.144531 C 198.703125 76.535156 198.761719 76.921875 198.816406 77.3125 C 199.042969 78.960938 199.148438 80.617188 199.261719 82.277344 C 199.492188 85.675781 199.894531 89.058594 199.933594 92.464844 C 199.953125 94.03125 200 95.644531 199.660156 97.195312 C 199.25 99.046875 198.453125 100.949219 197.328125 102.574219 C 197.042969 102.992188 196.71875 103.382812 196.347656 103.746094 C 196.292969 103.800781 196.066406 104.101562 195.972656 104.007812 C 195.675781 103.730469 196.058594 102.609375 196.085938 102.289062 C 196.230469 100.742188 196.160156 99.1875 196.125 97.640625 C 196.078125 95.898438 196.050781 94.160156 195.972656 92.421875 C 195.851562 89.539062 195.648438 86.675781 195.371094 83.804688 C 195.53125 83.878906 195.332031 83.492188 195.3125 83.335938 C 195.285156 83.070312 195.253906 82.800781 195.226562 82.535156 C 195.132812 81.644531 195.042969 80.757812 194.960938 79.867188 C 194.710938 77.226562 194.4375 74.582031 194.285156 71.933594 C 193.832031 63.90625 193.148438 55.875 192.359375 47.871094 C 192.425781 47.851562 192.34375 47.75 192.339844 47.6875 C 192.324219 47.445312 192.300781 47.203125 192.28125 46.957031 C 192.199219 45.992188 192.136719 45.019531 192.058594 44.054688 C 191.835938 41.285156 191.605469 38.523438 191.332031 35.757812 C 191.265625 35.070312 191.203125 34.382812 191.140625 33.691406 C 191.113281 33.398438 191.148438 32.925781 190.976562 32.652344 C 190.828125 32.417969 190.246094 31.851562 190.007812 31.691406 Z M 190.007812 31.691406 " fill-opacity="1" fill-rule="evenodd"/><path fill="#000000" d="M 98.746094 85.523438 C 98.71875 85.566406 98.996094 85.484375 99.011719 85.476562 C 99.164062 85.390625 99.304688 85.261719 99.410156 85.128906 C 99.742188 84.707031 99.964844 84.175781 100.066406 83.664062 C 100.277344 82.601562 100.027344 80.90625 98.617188 80.707031 C 98.402344 80.675781 98.175781 80.703125 97.964844 80.746094 C 97.265625 80.886719 96.625 81.230469 96.042969 81.613281 C 94.769531 82.445312 93.644531 83.605469 92.808594 84.835938 C 92.359375 85.496094 91.871094 86.265625 91.898438 87.078125 C 91.957031 88.8125 93.441406 90.050781 94.988281 90.75 C 94.980469 90.734375 94.863281 90.851562 94.859375 90.855469 C 94.78125 90.925781 94.703125 90.996094 94.621094 91.066406 C 94.394531 91.269531 94.171875 91.476562 93.953125 91.6875 C 93.277344 92.339844 92.6875 93.046875 92.183594 93.828125 C 91.863281 94.328125 91.5625 94.835938 91.277344 95.355469 C 90.230469 97.273438 88.679688 100.003906 90.082031 102.109375 C 90.074219 102.109375 90.160156 102.257812 90.171875 102.269531 C 90.257812 102.375 90.34375 102.484375 90.441406 102.582031 C 90.738281 102.894531 91.132812 103.128906 91.527344 103.308594 C 92.742188 103.863281 94.117188 104.054688 95.453125 104.019531 C 99.1875 103.917969 102.988281 102.691406 105.796875 100.347656 C 106.425781 99.824219 107.054688 99.277344 107.585938 98.664062 C 107.777344 98.441406 108.089844 98.121094 108.097656 97.8125 C 108.109375 97.292969 107.269531 97.511719 106.984375 97.628906 C 105.679688 98.160156 104.429688 98.753906 103.066406 99.15625 C 101.152344 99.714844 99.214844 100.042969 97.210938 100.09375 C 96.25 100.121094 95.253906 100.117188 94.308594 99.929688 C 93.285156 99.722656 91.898438 99.289062 91.804688 98.121094 C 91.785156 97.878906 91.851562 97.636719 91.921875 97.40625 C 91.871094 97.445312 91.96875 97.292969 91.996094 97.238281 C 92.058594 97.113281 92.125 96.992188 92.195312 96.875 C 92.386719 96.546875 92.609375 96.238281 92.847656 95.9375 C 93.570312 95.039062 94.46875 94.324219 95.355469 93.578125 C 96.90625 92.269531 98.46875 90.964844 100.253906 89.949219 C 101.449219 89.269531 103.054688 88.839844 103.390625 87.402344 C 103.492188 86.949219 103.539062 86.4375 103.507812 85.976562 C 103.496094 85.832031 103.464844 85.585938 103.292969 85.527344 C 103.03125 85.4375 102.6875 85.65625 102.480469 85.777344 C 101.882812 86.132812 101.320312 86.539062 100.722656 86.890625 C 100.136719 87.242188 99.492188 87.640625 98.804688 87.773438 C 98.136719 87.902344 97.433594 87.789062 96.769531 87.699219 C 96.097656 87.609375 95.371094 87.429688 94.828125 87.015625 C 94.316406 86.628906 94.316406 85.925781 94.652344 85.433594 C 95.09375 84.78125 95.832031 84.195312 96.671875 84.105469 C 97.214844 84.050781 97.589844 84.101562 97.933594 84.335938 C 98.246094 84.550781 98.660156 85.363281 98.746094 85.523438 Z M 98.746094 85.523438 " fill-opacity="1" fill-rule="evenodd"/><path fill="#000000" d="M 217.300781 39.761719 L 221.191406 34.808594 L 227.53125 39.859375 L 223.796875 44.867188 Z M 217.300781 39.761719 " fill-opacity="1" fill-rule="evenodd"/><path fill="#000000" d="M 305.3125 80.492188 C 305.421875 80.460938 305.847656 79.636719 305.929688 79.511719 C 306.617188 78.507812 307.289062 77.476562 308.027344 76.503906 C 308.191406 76.28125 308.609375 75.464844 308.949219 75.480469 C 309.320312 75.496094 309.359375 76.707031 309.402344 76.953125 C 309.6875 78.699219 309.917969 80.46875 309.949219 82.238281 C 310 85.5625 309.699219 89.957031 306.808594 92.125 C 302.265625 95.539062 295.9375 90.6875 295.9375 85.488281 C 295.945312 85.496094 294.917969 86.921875 294.859375 87.03125 C 293.875 88.75 293.226562 90.644531 292.214844 92.34375 C 289.65625 96.652344 283.589844 98.519531 279.726562 94.644531 C 277.640625 92.554688 276.910156 88.914062 277.039062 86.03125 C 276.027344 87.605469 274.875 89.160156 273.410156 90.347656 C 273.15625 90.550781 271.398438 91.394531 271.398438 91.394531 C 271.398438 91.394531 271.71875 92.8125 271.773438 93.375 C 271.90625 94.832031 272.070312 96.210938 271.90625 97.789062 C 271.882812 97.949219 271.757812 98.394531 271.714844 98.511719 C 271.414062 99.253906 270.984375 99.980469 270.53125 100.632812 C 268.503906 103.539062 265.824219 106.117188 263.296875 108.566406 C 261.957031 109.867188 260.585938 111.148438 259.160156 112.347656 C 252.578125 117.875 242.847656 124.085938 234.1875 119.261719 C 232.953125 118.574219 231.859375 117.664062 230.941406 116.585938 C 229.773438 115.214844 228.886719 113.628906 228.300781 111.921875 C 226.816406 107.585938 226.9375 102.765625 228.074219 98.367188 C 228.480469 96.789062 229 95.191406 229.785156 93.761719 C 229.832031 93.679688 230.660156 92.332031 230.8125 92.621094 C 231.015625 92.992188 230.574219 93.941406 230.476562 94.296875 C 230.042969 95.902344 229.578125 97.5 229.34375 99.148438 C 228.578125 104.554688 229.023438 110.433594 233.851562 113.722656 C 234.621094 114.25 235.472656 114.691406 236.355469 114.996094 C 239.515625 116.09375 242.96875 115.613281 246.097656 114.65625 C 252.664062 112.640625 258.386719 107.824219 263.589844 103.46875 C 264.886719 102.382812 266.148438 101.253906 267.402344 100.121094 C 268.226562 99.371094 269.195312 98.601562 269.730469 97.59375 C 270.445312 96.234375 269.457031 92.550781 269.457031 92.550781 C 269.457031 92.550781 268.363281 93.199219 268.269531 93.242188 C 267.0625 93.804688 266.265625 94.050781 264.984375 94.414062 C 261.121094 95.515625 255.941406 95.378906 254.25 90.921875 C 252.75 86.972656 255.207031 82.292969 257.878906 79.503906 C 258.890625 78.445312 260.460938 76.9375 262.066406 77.171875 C 266.546875 77.824219 268.59375 82.777344 270.445312 86.269531 C 270.441406 86.265625 270.730469 86.167969 270.804688 86.128906 C 271.085938 85.988281 271.355469 85.8125 271.617188 85.636719 C 272.367188 85.132812 273.097656 84.597656 273.816406 84.050781 C 275.183594 83.011719 276.410156 81.824219 277.703125 80.695312 C 277.90625 80.519531 278.667969 79.648438 278.996094 79.796875 C 279.167969 79.875 279.164062 80.273438 279.179688 80.421875 C 279.242188 81.070312 279.179688 81.726562 279.171875 82.378906 C 279.164062 84.523438 279.523438 86.714844 280.863281 88.453125 C 282.898438 91.085938 286.660156 90.761719 289.246094 89.140625 C 293.210938 86.648438 294.488281 82.195312 296.414062 78.214844 C 296.480469 78.070312 296.664062 78.746094 296.671875 78.789062 C 296.863281 79.523438 296.992188 80.273438 297.1875 81.007812 C 297.714844 82.976562 298.269531 85.273438 300.292969 86.175781 C 301.003906 86.492188 301.796875 86.570312 302.570312 86.574219 C 303.136719 86.574219 303.703125 86.53125 304.261719 86.40625 C 304.65625 86.324219 305.015625 86.183594 305.371094 85.996094 C 307.558594 84.832031 306.132812 82.257812 305.3125 80.492188 Z M 264.941406 87.429688 C 263.582031 87.707031 261.648438 88.308594 260.246094 88.394531 C 259.703125 88.429688 259.035156 88.46875 258.554688 88.152344 C 258.039062 87.8125 258.039062 87.125 258.203125 86.589844 C 258.542969 85.492188 259.363281 84.355469 260.421875 83.867188 C 262.167969 83.058594 264.019531 86.148438 264.941406 87.429688 Z M 264.941406 87.429688 " fill-opacity="1" fill-rule="evenodd"/><path fill="#000000" d="M 233.898438 79.769531 C 233.914062 79.777344 233.875 79.902344 233.871094 79.914062 C 233.828125 80.089844 233.785156 80.265625 233.738281 80.441406 C 233.527344 81.25 233.320312 82.0625 233.109375 82.871094 C 232.8125 83.992188 232.570312 85.125 232.308594 86.253906 C 232.242188 86.542969 232.175781 86.828125 232.097656 87.113281 C 232.078125 87.183594 231.996094 87.355469 232.023438 87.425781 C 232.101562 87.632812 232.304688 87.816406 232.445312 87.972656 C 232.769531 88.332031 233.117188 88.648438 233.457031 88.988281 C 233.496094 88.941406 233.410156 89.105469 233.421875 89.164062 C 233.453125 89.339844 233.496094 89.511719 233.542969 89.679688 C 233.660156 90.125 233.796875 90.5625 233.949219 90.996094 C 234.402344 92.292969 234.875 93.589844 235.359375 94.875 C 236.820312 98.730469 238.875 102.238281 240.472656 106.015625 C 240.46875 106.003906 239.910156 106.523438 239.871094 106.566406 C 239.515625 106.929688 239.179688 107.316406 238.832031 107.691406 C 237.792969 108.792969 236.65625 109.789062 235.519531 110.78125 C 231.878906 113.964844 228.433594 117.238281 224.265625 119.683594 C 223.175781 120.324219 222.089844 121.066406 220.957031 121.632812 C 218.234375 122.996094 215.144531 124.109375 212.125 124.433594 C 211.109375 124.542969 210.082031 124.550781 209.0625 124.417969 C 205.015625 123.890625 201.148438 121.613281 199.113281 117.859375 C 198.527344 116.773438 198.125 115.582031 197.847656 114.371094 C 197.027344 110.792969 197.394531 107.121094 197.996094 103.535156 C 198.554688 100.21875 199.488281 97.207031 200.636719 94.078125 C 200.851562 93.492188 201.78125 91.613281 200.71875 91.261719 C 200.667969 91.242188 200.445312 91.734375 200.429688 91.769531 C 200.125 92.347656 199.859375 92.949219 199.589844 93.542969 C 198.457031 96.03125 197.367188 98.5625 196.519531 101.167969 C 194.796875 106.464844 194.164062 112.15625 194.847656 117.710938 C 195.386719 122.070312 196.867188 125.984375 200.316406 128.703125 C 204.433594 131.945312 210.050781 132.578125 215.007812 131.300781 C 218.453125 130.410156 221.859375 128.558594 224.820312 126.546875 C 224.828125 126.550781 226.46875 125.367188 226.609375 125.257812 C 228.457031 123.867188 230.304688 122.460938 232.09375 120.984375 C 235.316406 118.316406 238.679688 115.351562 240.832031 111.640625 C 243.386719 107.234375 243.378906 101.585938 241.800781 96.867188 C 241.902344 96.878906 241.730469 96.664062 241.6875 96.570312 C 241.585938 96.34375 241.480469 96.117188 241.375 95.894531 C 241.101562 95.300781 240.8125 94.710938 240.53125 94.117188 C 239.691406 92.332031 238.640625 90.578125 237.976562 88.707031 C 237.816406 88.261719 238.101562 88.246094 238.511719 88.488281 C 239.011719 88.78125 239.460938 89.183594 239.992188 89.417969 C 240.179688 89.503906 240.476562 89.5625 240.558594 89.296875 C 240.722656 88.769531 240.242188 88.082031 239.992188 87.671875 C 239.160156 86.324219 235.023438 81.191406 233.898438 79.769531 Z M 233.898438 79.769531 " fill-opacity="1" fill-rule="evenodd"/><path fill="#000000" d="M 246.773438 68.289062 C 246.761719 68.265625 246.757812 68.332031 246.75 68.355469 C 246.730469 68.414062 246.707031 68.46875 246.683594 68.527344 C 246.640625 68.628906 246.441406 69.230469 246.273438 69.183594 C 245.972656 69.105469 245.644531 68.613281 245.421875 68.429688 C 244.929688 68.023438 244.378906 67.664062 243.835938 67.304688 C 243.566406 67.125 243.179688 66.945312 243.039062 66.664062 C 242.890625 66.375 242.910156 66.007812 242.898438 65.699219 C 242.863281 64.773438 242.953125 63.015625 244.269531 62.707031 C 245.242188 62.480469 246.230469 63.105469 246.90625 63.625 C 248.164062 64.59375 248.960938 65.941406 249.601562 67.257812 C 250.414062 68.9375 251.0625 70.691406 251.609375 72.449219 C 251.621094 72.492188 251.636719 72.359375 251.648438 72.3125 C 251.667969 72.226562 251.691406 72.136719 251.710938 72.050781 C 251.765625 71.804688 251.820312 71.558594 251.875 71.308594 C 252.03125 70.53125 252.183594 69.75 252.386719 68.980469 C 252.925781 66.917969 253.558594 64.910156 254.726562 63.035156 C 255.222656 62.234375 256.027344 61.296875 257.238281 61.507812 C 257.925781 61.628906 258.277344 62.132812 258.675781 62.578125 C 259.179688 63.144531 259.839844 64.023438 259.761719 64.785156 C 259.714844 65.242188 259.4375 65.714844 259.234375 66.128906 C 259.066406 66.484375 258.871094 66.910156 258.535156 67.175781 C 258.230469 67.414062 257.835938 66.820312 257.707031 66.664062 C 257.261719 66.132812 256.296875 64.804688 255.414062 65.507812 C 254.898438 65.917969 254.648438 66.542969 254.429688 67.097656 C 254.03125 68.113281 253.730469 69.160156 253.445312 70.207031 C 253.425781 70.28125 253.359375 70.511719 253.34375 70.578125 C 253.238281 70.976562 253.125 71.371094 253.019531 71.769531 C 252.609375 73.328125 252.101562 74.878906 251.46875 76.382812 C 251.328125 76.722656 251.179688 77.058594 250.996094 77.378906 C 250.964844 77.433594 250.863281 77.675781 250.753906 77.652344 C 250.628906 77.625 250.605469 77.292969 250.589844 77.214844 C 250.492188 76.78125 250.378906 76.351562 250.285156 75.917969 C 250.183594 75.457031 250.082031 74.996094 249.941406 74.542969 C 249.703125 73.761719 249.453125 72.972656 249.167969 72.203125 C 248.742188 71.058594 247.621094 68.945312 246.773438 68.289062 Z M 246.773438 68.289062 " fill-opacity="1" fill-rule="evenodd"/><path fill="#000000" d="M 242.15625 39.664062 C 242.144531 39.644531 242.140625 39.710938 242.132812 39.734375 C 242.109375 39.789062 242.089844 39.847656 242.066406 39.90625 C 242.023438 40.003906 241.824219 40.605469 241.65625 40.5625 C 241.355469 40.480469 241.027344 39.992188 240.804688 39.808594 C 240.3125 39.402344 239.761719 39.039062 239.21875 38.679688 C 238.949219 38.5 238.5625 38.324219 238.417969 38.042969 C 238.273438 37.75 238.289062 37.382812 238.28125 37.074219 C 238.246094 36.152344 238.335938 34.394531 239.648438 34.085938 C 240.625 33.855469 241.613281 34.480469 242.289062 35 C 243.546875 35.96875 244.34375 37.320312 244.980469 38.636719 C 245.796875 40.316406 246.445312 42.066406 246.992188 43.824219 C 247.003906 43.871094 247.019531 43.734375 247.03125 43.691406 C 247.050781 43.601562 247.074219 43.515625 247.09375 43.429688 C 247.148438 43.183594 247.203125 42.933594 247.253906 42.6875 C 247.414062 41.910156 247.566406 41.128906 247.769531 40.355469 C 248.308594 38.296875 248.941406 36.285156 250.105469 34.410156 C 250.605469 33.609375 251.410156 32.671875 252.617188 32.886719 C 253.304688 33.007812 253.660156 33.511719 254.058594 33.953125 C 254.5625 34.523438 255.222656 35.402344 255.144531 36.164062 C 255.097656 36.621094 254.820312 37.09375 254.617188 37.507812 C 254.445312 37.859375 254.253906 38.285156 253.917969 38.554688 C 253.613281 38.792969 253.21875 38.199219 253.085938 38.039062 C 252.644531 37.511719 251.675781 36.183594 250.796875 36.886719 C 250.28125 37.296875 250.03125 37.917969 249.8125 38.476562 C 249.414062 39.492188 249.113281 40.539062 248.828125 41.582031 C 248.808594 41.660156 248.742188 41.890625 248.726562 41.957031 C 248.621094 42.355469 248.503906 42.75 248.402344 43.148438 C 247.988281 44.707031 247.484375 46.257812 246.851562 47.761719 C 246.707031 48.097656 246.5625 48.4375 246.378906 48.757812 C 246.347656 48.8125 246.246094 49.054688 246.136719 49.03125 C 246.007812 49.003906 245.988281 48.671875 245.96875 48.59375 C 245.875 48.160156 245.761719 47.726562 245.664062 47.292969 C 245.566406 46.835938 245.460938 46.375 245.324219 45.921875 C 245.085938 45.136719 244.835938 44.351562 244.550781 43.582031 C 244.125 42.433594 243.003906 40.324219 242.15625 39.664062 Z M 242.15625 39.664062 " fill-opacity="1" fill-rule="evenodd"/><path fill="#000000" d="M 236.230469 62.851562 C 236.296875 62.90625 236.382812 62.753906 236.460938 62.707031 C 236.742188 62.539062 237.023438 62.367188 237.304688 62.199219 C 238.457031 61.519531 239.613281 60.84375 240.792969 60.203125 C 245.769531 57.496094 251.121094 55.046875 256.507812 53.144531 C 257.960938 52.632812 259.414062 52.113281 260.878906 51.617188 C 261.214844 51.507812 261.546875 51.382812 261.886719 51.289062 C 261.910156 51.28125 262.183594 51.195312 262.203125 51.242188 C 262.238281 51.320312 262.054688 51.542969 262.019531 51.601562 C 261.820312 51.933594 261.613281 52.261719 261.414062 52.59375 C 261.105469 53.101562 260.898438 53.855469 260.496094 54.296875 C 260.296875 54.519531 259.652344 54.621094 259.382812 54.726562 C 258.496094 55.074219 257.617188 55.4375 256.738281 55.804688 C 251.179688 58.117188 245.75 60.714844 240.308594 63.265625 C 239.015625 63.867188 237.710938 64.460938 236.445312 65.109375 C 236.277344 65.199219 235.394531 65.808594 235.183594 65.699219 C 235.035156 65.621094 235.179688 65.238281 235.210938 65.140625 C 235.378906 64.589844 235.992188 63.375 236.230469 62.851562 Z M 236.230469 62.851562 " fill-opacity="1" fill-rule="evenodd"/><path fill="#000000" d="M 124.664062 45.84375 C 124.734375 45.898438 124.816406 45.746094 124.894531 45.699219 C 125.175781 45.53125 125.457031 45.363281 125.738281 45.191406 C 126.890625 44.511719 128.046875 43.835938 129.226562 43.195312 C 134.203125 40.488281 139.554688 38.039062 144.941406 36.136719 C 146.394531 35.625 147.847656 35.105469 149.3125 34.613281 C 149.648438 34.5 149.980469 34.375 150.324219 34.28125 C 150.34375 34.277344 150.617188 34.1875 150.636719 34.238281 C 150.671875 34.3125 150.488281 34.535156 150.453125 34.59375 C 150.253906 34.925781 150.046875 35.253906 149.847656 35.585938 C 149.539062 36.09375 149.335938 36.847656 148.929688 37.289062 C 148.730469 37.511719 148.085938 37.617188 147.816406 37.722656 C 146.929688 38.066406 146.050781 38.429688 145.171875 38.796875 C 139.613281 41.109375 134.183594 43.707031 128.742188 46.257812 C 127.449219 46.863281 126.144531 47.453125 124.878906 48.105469 C 124.710938 48.191406 123.828125 48.800781 123.617188 48.691406 C 123.46875 48.613281 123.613281 48.230469 123.644531 48.132812 C 123.8125 47.585938 124.425781 46.367188 124.664062 45.84375 Z M 124.664062 45.84375 " fill-opacity="1" fill-rule="evenodd"/><path fill="#000000" d="M 151.757812 45.84375 C 151.824219 45.898438 151.910156 45.746094 151.988281 45.699219 C 152.269531 45.53125 152.550781 45.363281 152.832031 45.191406 C 153.984375 44.511719 155.140625 43.835938 156.320312 43.195312 C 161.296875 40.488281 166.648438 38.039062 172.035156 36.136719 C 173.488281 35.625 174.941406 35.105469 176.40625 34.613281 C 176.742188 34.5 177.074219 34.375 177.414062 34.28125 C 177.4375 34.277344 177.710938 34.1875 177.730469 34.238281 C 177.765625 34.3125 177.582031 34.535156 177.546875 34.59375 C 177.347656 34.925781 177.140625 35.253906 176.941406 35.585938 C 176.632812 36.09375 176.429688 36.847656 176.023438 37.289062 C 175.824219 37.511719 175.179688 37.617188 174.910156 37.722656 C 174.023438 38.066406 173.144531 38.429688 172.265625 38.796875 C 166.707031 41.109375 161.277344 43.707031 155.835938 46.257812 C 154.542969 46.863281 153.238281 47.453125 151.972656 48.105469 C 151.804688 48.191406 150.921875 48.800781 150.710938 48.691406 C 150.5625 48.613281 150.707031 48.230469 150.738281 48.132812 C 150.90625 47.585938 151.519531 46.367188 151.757812 45.84375 Z M 151.757812 45.84375 " fill-opacity="1" fill-rule="evenodd"/><path fill="#000000" d="M 281.167969 77.941406 C 281.074219 77.800781 281.496094 77.425781 281.542969 77.390625 C 282.054688 77.003906 282.597656 76.648438 283.132812 76.285156 C 285.300781 74.824219 287.601562 73.554688 289.785156 72.117188 C 293.628906 69.585938 297.179688 66.566406 300.566406 63.519531 C 302.335938 61.925781 304.363281 60.421875 305.78125 58.519531 C 305.605469 58.25 305.273438 58.039062 305.03125 57.828125 C 304.464844 57.339844 303.882812 56.867188 303.3125 56.382812 C 302.988281 56.109375 302.628906 55.847656 302.453125 55.460938 C 302.296875 55.117188 302.304688 54.722656 302.351562 54.355469 C 302.601562 52.390625 304.109375 50.339844 305.832031 49.238281 C 306.859375 48.582031 308.335938 48.40625 309.203125 49.410156 C 310.566406 50.988281 309.90625 53.21875 309.234375 54.945312 C 309.089844 55.316406 308.921875 55.667969 308.75 56.027344 C 308.679688 56.167969 308.523438 56.371094 308.511719 56.53125 C 308.496094 56.710938 308.9375 56.941406 309.058594 57.039062 C 309.488281 57.382812 309.96875 57.84375 310.167969 58.355469 C 310.421875 59.023438 309.875 59.898438 309.558594 60.46875 C 309.472656 60.625 309.253906 61.09375 308.996094 61.035156 C 308.714844 60.96875 308.433594 60.6875 308.234375 60.503906 C 307.792969 60.097656 307.402344 59.644531 306.953125 59.246094 C 306.953125 59.234375 306.75 59.46875 306.714844 59.507812 C 306.539062 59.710938 306.363281 59.910156 306.1875 60.109375 C 305.6875 60.675781 305.207031 61.253906 304.71875 61.828125 C 303.296875 63.492188 301.785156 65.117188 300.128906 66.582031 C 296.289062 69.984375 291.820312 72.699219 287.183594 75.03125 C 285.988281 75.632812 284.789062 76.230469 283.570312 76.792969 C 282.898438 77.101562 281.363281 78.238281 281.167969 77.941406 Z M 307.742188 55.914062 C 307.75 55.914062 307.800781 55.691406 307.804688 55.675781 C 307.859375 55.402344 307.917969 55.128906 307.953125 54.855469 C 308.074219 53.863281 307.953125 52.570312 307.125 51.851562 C 306.46875 51.273438 305.527344 51.34375 304.914062 51.953125 C 304.679688 52.1875 304.488281 52.488281 304.542969 52.816406 C 304.605469 53.230469 304.945312 53.582031 305.238281 53.875 C 305.792969 54.421875 307.136719 55.414062 307.742188 55.914062 Z M 307.742188 55.914062 " fill-opacity="1" fill-rule="evenodd"/><path fill="#000000" d="M 207.335938 61.421875 C 207.335938 61.398438 207.320312 61.101562 207.328125 61.019531 C 207.359375 60.691406 207.40625 60.371094 207.445312 60.042969 C 207.546875 59.1875 207.597656 58.324219 207.726562 57.472656 C 207.785156 57.085938 207.832031 56.582031 208.335938 56.738281 C 209.121094 56.976562 209.84375 57.527344 210.546875 57.933594 C 211.796875 58.660156 213.035156 59.40625 214.3125 60.082031 C 214.820312 60.351562 215.335938 60.609375 215.835938 60.886719 C 215.925781 60.9375 216.222656 61.054688 216.207031 61.199219 C 216.191406 61.398438 215.734375 61.40625 215.605469 61.414062 C 215.292969 61.441406 213.875 61.332031 213.71875 61.621094 C 213.445312 62.117188 214.285156 63.113281 214.527344 63.46875 C 215.644531 65.109375 217.027344 66.539062 218.515625 67.84375 C 218.554688 67.835938 218.953125 67.085938 219 67.019531 C 219.511719 66.25 220.03125 65.492188 220.554688 64.726562 C 222.410156 61.988281 224.34375 59.273438 226.347656 56.636719 C 226.828125 56.003906 227.324219 55.375 227.832031 54.761719 C 228 54.566406 228.222656 54.234375 228.503906 54.195312 C 228.929688 54.132812 228.699219 55.539062 228.671875 55.746094 C 228.476562 57.386719 227.390625 58.929688 226.5625 60.300781 C 225.796875 61.566406 225.003906 62.8125 224.1875 64.046875 C 222.921875 65.972656 221.667969 67.90625 220.359375 69.808594 C 220.863281 70.207031 221.363281 71.046875 221.820312 71.546875 C 222.996094 72.824219 224.578125 74.222656 225.183594 75.902344 C 225.695312 77.324219 226.203125 78.625 226.359375 80.113281 C 226.53125 81.832031 226.179688 83.917969 225.566406 85.570312 C 224.492188 88.457031 221.667969 91.035156 219.140625 92.636719 C 217.136719 93.910156 214.320312 95.136719 211.898438 94.808594 C 208.605469 94.363281 208.535156 89.457031 208.671875 86.96875 C 208.710938 86.363281 208.773438 85.761719 208.875 85.164062 C 209.019531 84.332031 209.222656 83.511719 209.476562 82.707031 C 209.757812 81.8125 210.097656 80.933594 210.488281 80.082031 C 211.828125 77.148438 213.574219 74.398438 215.589844 71.894531 C 212.925781 69.515625 211.132812 66.183594 209.082031 63.296875 C 208.90625 63.046875 208.695312 62.824219 208.363281 62.882812 C 208.28125 62.894531 207.699219 63.042969 207.503906 62.742188 C 207.261719 62.382812 207.40625 61.554688 207.335938 61.421875 Z M 217.804688 74.585938 C 217.617188 74.582031 217.25 75.070312 217.132812 75.175781 C 216.496094 75.789062 215.894531 76.453125 215.296875 77.109375 C 214.835938 77.617188 214.386719 78.136719 213.957031 78.671875 C 213.585938 79.136719 213.21875 79.609375 212.875 80.097656 C 211.472656 82.101562 209.492188 85.886719 212.195312 87.695312 C 215.019531 89.585938 218.644531 87.210938 220.851562 85.417969 C 221.921875 84.550781 223.023438 83.582031 223.214844 82.128906 C 223.347656 81.128906 222.953125 80.222656 222.449219 79.386719 C 221.507812 77.824219 219.140625 75.808594 217.804688 74.585938 Z M 207.335938 61.421875 Z M 207.335938 61.421875 " fill-opacity="1" fill-rule="evenodd"/><path fill="#000000" d="M 207.070312 39.761719 L 210.960938 34.808594 L 217.304688 39.859375 L 213.566406 44.867188 Z M 207.070312 39.761719 " fill-opacity="1" fill-rule="evenodd"/><path fill="#000000" d="M 150.640625 58.246094 L 154.53125 53.292969 L 160.871094 58.347656 L 157.136719 63.351562 Z M 150.640625 58.246094 " fill-opacity="1" fill-rule="evenodd"/><path fill="#000000" d="M 167.503906 88.824219 L 171.390625 83.871094 L 177.734375 88.925781 L 174 93.929688 Z M 167.503906 88.824219 " fill-opacity="1" fill-rule="evenodd"/><path fill="#000000" d="M 85.941406 47.589844 L 89.011719 43.675781 L 94.015625 47.667969 L 91.070312 51.621094 Z M 85.941406 47.589844 " fill-opacity="1" fill-rule="evenodd"/><path fill="#000000" d="M 93.34375 47.589844 L 96.414062 43.675781 L 101.421875 47.667969 L 98.472656 51.621094 Z M 93.34375 47.589844 " fill-opacity="1" fill-rule="evenodd"/><path fill="#000000" d="M 127.757812 74.003906 C 128.199219 74.851562 130.082031 69.910156 130.867188 68.761719 C 131.46875 67.886719 132.085938 67.023438 132.722656 66.175781 C 134.644531 63.609375 137.4375 61.078125 137.496094 57.648438 C 137.523438 56.269531 137.265625 54.582031 135.785156 54.050781 C 134.296875 53.511719 132.507812 53.980469 131.058594 54.410156 C 127.832031 55.359375 124.746094 56.753906 121.644531 58.035156 C 113.363281 61.449219 104.273438 64.832031 95.144531 63.933594 C 90.0625 63.433594 83.660156 61.691406 81.730469 56.375 C 80.945312 54.203125 80.875 51.773438 81.242188 49.507812 C 81.359375 48.777344 81.515625 48.035156 81.773438 47.335938 C 81.90625 46.976562 82.574219 46.257812 82.191406 46.257812 C 81.683594 46.257812 80.855469 47.613281 80.617188 47.957031 C 79.226562 49.964844 78.222656 52.59375 77.941406 55.011719 C 77.78125 56.386719 77.976562 57.78125 78.269531 59.128906 C 80.714844 70.261719 95.464844 70.1875 104.492188 69.007812 C 106.734375 68.714844 108.953125 68.265625 111.144531 67.695312 C 114 66.953125 116.789062 65.992188 119.527344 64.90625 C 123.175781 63.457031 126.691406 61.742188 130.253906 60.105469 C 130.835938 59.835938 132.980469 58.542969 133.449219 59.578125 C 133.9375 60.644531 132.796875 62.339844 132.3125 63.207031 C 130.8125 65.882812 126.566406 71.734375 127.757812 74.003906 Z M 127.757812 74.003906 " fill-opacity="1" fill-rule="evenodd"/><path fill="#000000" d="M 182.511719 54.007812 C 182.445312 53.945312 182.664062 54.097656 182.730469 54.152344 C 182.898438 54.285156 183.0625 54.410156 183.238281 54.53125 C 183.503906 54.722656 185.371094 56.179688 185.445312 55.765625 C 185.582031 54.988281 184.996094 53.859375 184.75 53.160156 C 183.996094 51.015625 183.003906 48.953125 182.105469 46.863281 C 181.90625 46.402344 181.269531 44.261719 180.644531 44.171875 C 180.054688 44.085938 179.121094 45.28125 178.757812 45.636719 C 178.246094 46.132812 176.941406 47.074219 176.804688 47.816406 C 176.730469 48.222656 177.214844 48.84375 177.410156 49.167969 C 178.019531 50.175781 178.621094 51.191406 179.285156 52.160156 C 179.0625 52.007812 179.296875 52.699219 179.316406 52.964844 C 179.355469 53.546875 179.402344 54.132812 179.453125 54.714844 C 179.605469 56.519531 179.804688 58.335938 180.042969 60.128906 C 180.753906 65.449219 181.625 70.730469 182.578125 76.007812 C 183.503906 81.125 184.484375 86.230469 185.34375 91.355469 C 185.917969 94.785156 186.632812 98.820312 185.582031 102.230469 C 184.554688 105.566406 180.683594 107.515625 177.527344 105.546875 C 175.722656 104.410156 174.859375 102.351562 174.882812 100.28125 C 174.828125 100.46875 174.195312 100.945312 174.054688 101.125 C 173.382812 102.003906 172.691406 102.859375 172 103.71875 C 170.839844 105.160156 169.765625 106.570312 168.136719 107.511719 C 167.332031 107.980469 166.410156 108.257812 165.492188 108.398438 C 159.300781 109.363281 155.753906 103.824219 154.347656 98.558594 C 153.390625 94.96875 153.140625 91.199219 152.679688 87.519531 C 151.449219 77.636719 151.15625 67.472656 149.121094 57.714844 C 148.425781 54.375 147.496094 51.03125 145.679688 48.105469 C 145.449219 47.738281 144.253906 45.640625 143.566406 45.824219 C 143.328125 45.886719 143.222656 46.691406 143.175781 46.875 C 142.910156 47.902344 142.675781 48.933594 142.449219 49.96875 C 142.292969 50.679688 142.042969 51.601562 142.300781 52.316406 C 142.769531 53.605469 144.265625 54.699219 144.9375 55.9375 C 146.164062 58.207031 146.695312 60.890625 147.121094 63.410156 C 148.226562 69.976562 148.894531 76.601562 149.496094 83.234375 C 150.039062 89.253906 150.484375 95.378906 152.207031 101.203125 C 153.824219 106.660156 156.898438 112.855469 163.265625 113.425781 C 166.171875 113.679688 168.957031 112.285156 170.957031 110.246094 C 171.617188 109.570312 172.222656 108.804688 172.6875 107.976562 C 172.761719 107.839844 173.046875 107.066406 173.21875 107.03125 C 173.34375 107.011719 173.796875 108.160156 173.847656 108.257812 C 174.214844 108.933594 174.699219 109.589844 175.269531 110.109375 C 177.074219 111.785156 179.734375 111.820312 181.933594 110.992188 C 187.839844 108.765625 189.09375 101.453125 189.046875 95.90625 C 188.964844 86.300781 186.128906 76.671875 184.320312 67.289062 C 183.558594 63.359375 182.515625 58.03125 182.511719 54.007812 Z M 182.511719 54.007812 " fill-opacity="1" fill-rule="evenodd"/><path fill="#000000" d="M 161.601562 76.398438 C 161.53125 76.347656 161.765625 76.433594 161.847656 76.460938 C 162.050781 76.53125 162.253906 76.605469 162.453125 76.6875 C 162.847656 76.839844 164.640625 77.6875 164.355469 76.515625 C 163.960938 74.902344 162.414062 73.054688 161.433594 71.753906 C 161.101562 71.308594 160.65625 70.535156 160.140625 70.277344 C 159.152344 69.785156 158.117188 71.144531 157.492188 71.71875 C 157.261719 71.929688 156.722656 72.253906 156.738281 72.617188 C 156.777344 73.332031 158.140625 73.652344 158.378906 74.488281 C 159.074219 76.949219 159.550781 78.9375 160.636719 81.363281 C 161.75 83.84375 163.621094 87.007812 163.753906 89.816406 C 163.925781 89.847656 163.542969 90.09375 163.421875 90.222656 C 163.164062 90.507812 162.871094 90.757812 162.578125 91.007812 C 161.78125 91.683594 160.960938 92.332031 160.128906 92.976562 C 157.546875 94.957031 154.898438 96.804688 152.101562 98.484375 C 144.523438 103.035156 136.644531 107.050781 128.371094 110.175781 C 125.207031 111.371094 122 112.398438 118.761719 113.371094 C 118.003906 113.59375 117.226562 113.8125 116.507812 114.148438 C 116.375 114.207031 115.949219 114.382812 116.011719 114.605469 C 116.105469 114.9375 116.992188 114.949219 117.230469 114.964844 C 118.40625 115.070312 119.59375 115.058594 120.773438 115.035156 C 126.03125 114.949219 131.144531 113.625 136.191406 112.253906 C 143.410156 110.285156 149.664062 105.203125 155.890625 101.195312 C 159.585938 98.820312 164.839844 95.605469 165.652344 90.828125 C 166.433594 86.234375 163.390625 80.402344 161.601562 76.398438 Z M 161.601562 76.398438 " fill-opacity="1" fill-rule="evenodd"/><path fill="#000000" d="M 141.175781 83.339844 C 138.929688 82.320312 135.914062 82.019531 133.484375 82.074219 C 131.542969 82.121094 129.605469 82.449219 127.757812 83.050781 C 126.210938 83.554688 124.679688 84.179688 123.25 84.949219 C 122.726562 85.234375 121.902344 85.574219 121.542969 86.089844 C 120.996094 86.871094 121.671875 88.90625 121.882812 89.683594 C 122.863281 93.246094 125.25 96.441406 128.644531 98.015625 C 132.117188 99.632812 135.800781 98.433594 139.109375 96.972656 C 141.613281 95.875 144.679688 94.527344 146.679688 92.578125 C 146.78125 92.480469 146.621094 92.855469 146.585938 92.996094 C 146.503906 93.308594 146.429688 93.625 146.347656 93.941406 C 146.128906 94.796875 145.917969 95.667969 145.65625 96.515625 C 145.316406 97.605469 144.464844 97.878906 143.464844 98.402344 C 142.207031 99.066406 140.933594 99.699219 139.65625 100.332031 C 132.898438 103.6875 123.769531 107.261719 116.917969 102.089844 C 116.367188 101.671875 115.359375 100.242188 115.066406 99.726562 C 113.453125 96.875 112.527344 93.617188 111.867188 90.429688 C 109.257812 77.8125 109.757812 64.761719 107.058594 52.15625 C 106.847656 51.171875 106.609375 50.195312 106.339844 49.222656 C 105.464844 46.070312 103.355469 42.984375 104.136719 39.664062 C 104.226562 39.285156 104.386719 37.421875 104.75 37.265625 C 104.902344 37.203125 105.132812 37.664062 105.175781 37.746094 C 105.589844 38.457031 105.90625 39.226562 106.230469 39.984375 C 107.679688 43.390625 108.957031 46.984375 109.777344 50.597656 C 112.117188 60.949219 112.203125 71.640625 113.398438 82.148438 C 113.925781 86.796875 114.292969 93.300781 117.625 96.984375 C 118.390625 97.828125 119.335938 98.457031 120.351562 98.957031 C 120.433594 98.996094 121.140625 99.398438 121.210938 99.242188 C 121.289062 99.054688 120.878906 98.578125 120.792969 98.441406 C 120.292969 97.660156 119.824219 96.855469 119.421875 96.015625 C 118.21875 93.507812 117.535156 90.742188 117.859375 87.957031 C 118.339844 83.789062 123.890625 79.609375 129.222656 78.808594 C 132.460938 78.324219 136.371094 80.472656 136.835938 80.640625 C 138.324219 81.183594 139.976562 82.277344 141.175781 83.339844 Z M 141.175781 83.339844 " fill-opacity="1" fill-rule="evenodd"/><path fill="#000000" d="M 304.929688 97.570312 C 304.890625 97.472656 305.097656 97.0625 305.128906 96.964844 C 305.347656 96.324219 305.554688 95.679688 305.816406 95.050781 C 305.851562 94.964844 306.039062 94.375 306.171875 94.394531 C 306.238281 94.402344 306.289062 94.546875 306.3125 94.601562 C 306.425781 94.84375 306.542969 95.082031 306.648438 95.324219 C 307.179688 96.503906 307.246094 97.902344 307.082031 99.179688 C 306.902344 100.605469 306.273438 102.074219 305.039062 102.769531 C 303.238281 103.789062 301.042969 102.351562 300.496094 100.414062 C 299.675781 100.859375 299.328125 102.035156 298.800781 102.917969 C 298.210938 103.914062 297.339844 104.582031 296.246094 104.792969 C 294.453125 105.132812 293.140625 103.714844 291.511719 103.261719 C 290.59375 103.003906 289.664062 103.242188 288.824219 103.671875 C 286.917969 104.648438 285.21875 106.144531 283.523438 107.484375 C 279.332031 110.796875 275.457031 114.554688 271.230469 117.804688 C 267.691406 120.535156 263.660156 122.1875 259.382812 123.257812 C 258.300781 123.53125 257.207031 123.8125 256.109375 124.023438 C 256.003906 124.042969 255.167969 124.238281 255.144531 124.015625 C 255.125 123.769531 255.625 123.519531 255.765625 123.425781 C 256.402344 122.996094 257.050781 122.59375 257.703125 122.203125 C 260.480469 120.5625 263.332031 119.078125 266.113281 117.445312 C 271.429688 114.320312 276.421875 110.371094 281.289062 106.496094 C 283.910156 104.40625 286.535156 101.453125 289.746094 100.464844 C 292.28125 99.683594 294.378906 100.875 296.886719 100.828125 C 296.886719 100.816406 297.207031 100.726562 297.222656 100.722656 C 297.417969 100.644531 297.605469 100.550781 297.785156 100.429688 C 298.378906 100.035156 298.921875 99.535156 299.390625 98.980469 C 299.796875 98.496094 300.105469 97.945312 300.445312 97.410156 C 300.644531 97.097656 300.851562 96.796875 301.0625 96.496094 C 301.207031 96.285156 301.347656 96.070312 301.496094 95.867188 C 301.550781 95.796875 302.113281 95.03125 302.246094 95.269531 C 302.367188 95.484375 302.042969 96.171875 301.972656 96.378906 C 301.707031 97.191406 301.445312 98.070312 302.023438 98.804688 C 302.855469 99.863281 306.621094 100.351562 304.929688 97.570312 Z M 304.929688 97.570312 " fill-opacity="1" fill-rule="evenodd"/><path fill="#000000" d="M 214.742188 97.8125 C 214.753906 97.777344 214.617188 97.972656 214.605469 97.996094 C 214.507812 98.15625 214.410156 98.320312 214.316406 98.480469 C 214.046875 98.9375 213.792969 99.402344 213.546875 99.867188 C 212.839844 101.199219 212.160156 102.542969 211.527344 103.90625 C 209.714844 107.816406 207.765625 112.015625 208.328125 116.417969 C 208.480469 117.585938 208.84375 118.8125 209.566406 119.765625 C 209.84375 120.128906 210.191406 120.558594 210.664062 120.671875 C 211.523438 120.875 212.414062 120.066406 212.9375 119.511719 C 214.195312 118.175781 215.003906 116.4375 215.519531 114.710938 C 215.683594 114.160156 215.976562 113.277344 215.742188 112.703125 C 215.503906 112.125 214.808594 113.292969 214.699219 113.46875 C 214.066406 114.460938 213.042969 116.3125 211.625 115.074219 C 211.4375 114.90625 211.285156 114.695312 211.164062 114.472656 C 210.460938 113.183594 210.695312 111.535156 210.964844 110.167969 C 211.457031 107.675781 212.554688 105.398438 213.605469 103.097656 C 214.25 101.6875 215.945312 98.355469 214.742188 97.8125 Z M 214.742188 97.8125 " fill-opacity="1" fill-rule="evenodd"/><g clip-path="url(#45999ce858)"><path fill="#000000" d="M 182.539062 136.339844 C 182.527344 136.378906 182.664062 136.179688 182.675781 136.160156 C 182.773438 135.996094 182.871094 135.835938 182.964844 135.671875 C 183.234375 135.21875 183.488281 134.753906 183.734375 134.285156 C 184.441406 132.957031 185.121094 131.613281 185.753906 130.246094 C 187.566406 126.339844 189.515625 122.140625 188.953125 117.734375 C 188.800781 116.566406 188.4375 115.34375 187.714844 114.386719 C 187.4375 114.023438 187.089844 113.59375 186.617188 113.484375 C 185.757812 113.28125 184.867188 114.085938 184.34375 114.640625 C 183.085938 115.976562 182.277344 117.714844 181.761719 119.445312 C 181.597656 119.992188 181.304688 120.878906 181.539062 121.449219 C 181.777344 122.027344 182.472656 120.859375 182.582031 120.6875 C 183.214844 119.695312 184.238281 117.84375 185.652344 119.082031 C 185.84375 119.25 185.996094 119.460938 186.117188 119.679688 C 186.820312 120.96875 186.585938 122.617188 186.316406 123.988281 C 185.824219 126.476562 184.726562 128.753906 183.675781 131.054688 C 183.03125 132.46875 181.335938 135.796875 182.539062 136.339844 Z M 182.539062 136.339844 " fill-opacity="1" fill-rule="evenodd"/></g><path fill="#000000" d="M 277.285156 46.976562 C 277.425781 47.046875 278.089844 46.882812 278.257812 46.871094 C 279.121094 46.832031 279.984375 46.808594 280.84375 46.816406 C 283.546875 46.84375 286.230469 47.089844 288.890625 47.535156 C 290.101562 47.734375 292.246094 47.90625 292.375 49.398438 C 292.269531 49.347656 292.355469 49.617188 292.328125 49.722656 C 292.273438 49.925781 292.210938 50.125 292.144531 50.324219 C 291.953125 50.914062 291.652344 51.464844 291.347656 52.011719 C 290.441406 53.632812 289.140625 55.070312 287.910156 56.484375 C 286.914062 57.632812 285.875 58.726562 284.804688 59.808594 C 284.3125 60.308594 283.78125 61.019531 283.128906 61.351562 C 282.460938 61.683594 281.53125 61.722656 280.800781 61.839844 C 279.460938 62.054688 278.132812 62.304688 276.804688 62.566406 C 275.683594 62.78125 274.566406 63.019531 273.433594 63.199219 C 273.035156 63.265625 272.453125 63.433594 272.050781 63.300781 C 271.625 63.164062 272.515625 62.625 272.617188 62.570312 C 273.652344 62.003906 274.761719 61.550781 275.824219 61.039062 C 278.398438 59.804688 280.921875 58.4375 283.359375 56.980469 C 283.957031 56.621094 284.558594 56.265625 285.167969 55.921875 C 285.253906 55.875 285.734375 55.695312 285.757812 55.582031 C 285.820312 55.230469 284.703125 54.976562 284.503906 54.917969 C 282.957031 54.476562 281.277344 54.414062 279.667969 54.417969 C 277.898438 54.421875 276.128906 54.570312 274.390625 54.855469 C 273.953125 54.925781 273.519531 55.03125 273.078125 55.085938 C 272.96875 55.097656 272.730469 55.144531 272.65625 55.027344 C 272.550781 54.855469 272.699219 54.503906 272.773438 54.351562 C 273.046875 53.769531 273.382812 53.214844 273.730469 52.667969 C 274.058594 52.160156 274.378906 51.648438 274.699219 51.136719 C 275.21875 50.292969 276.765625 47.816406 277.285156 46.976562 Z M 277.285156 46.976562 " fill-opacity="1" fill-rule="evenodd"/><g clip-path="url(#14b2b2e541)"><path fill="#000000" d="M 340.070312 55.84375 C 340.234375 55.011719 339.789062 53.90625 339.582031 53.117188 C 338.949219 50.640625 338 48.253906 337.007812 45.890625 C 334.410156 39.726562 330.652344 34.183594 326.214844 29.132812 C 323.109375 25.601562 319.621094 22.1875 315.480469 19.800781 C 311.585938 17.558594 307.21875 16.039062 302.871094 14.855469 C 301.496094 14.480469 300.121094 14.140625 298.710938 13.890625 C 298.109375 13.785156 297.503906 13.632812 296.894531 13.578125 C 296.878906 13.578125 296.402344 13.574219 296.414062 13.609375 C 296.65625 14.207031 298.613281 15.109375 299.121094 15.480469 C 301.4375 17.167969 303.632812 19.019531 305.664062 21.035156 C 311.59375 26.921875 316.707031 33.746094 320.800781 40.964844 C 322.777344 44.449219 324.503906 48.105469 325.851562 51.863281 C 326.273438 53.050781 326.648438 54.25 326.964844 55.472656 C 327.101562 55.984375 327.105469 56.851562 327.421875 57.292969 C 327.984375 58.09375 329.226562 58.554688 330.074219 58.972656 C 331.457031 59.652344 334.09375 61.285156 334.09375 61.285156 C 334.09375 61.285156 335.550781 60.351562 336.132812 59.929688 C 337.40625 58.992188 339.183594 57.15625 340.070312 55.84375 Z M 340.070312 55.84375 " fill-opacity="1" fill-rule="evenodd"/></g><path fill="#000000" d="M 340.070312 77.511719 C 340.234375 78.339844 339.789062 79.449219 339.582031 80.234375 C 338.949219 82.714844 338 85.101562 337.007812 87.460938 C 334.410156 93.628906 330.652344 99.171875 326.214844 104.21875 C 323.109375 107.753906 319.621094 111.167969 315.480469 113.554688 C 311.585938 115.796875 307.21875 117.3125 302.871094 118.5 C 301.496094 118.875 300.121094 119.210938 298.710938 119.464844 C 298.109375 119.570312 297.503906 119.722656 296.894531 119.773438 C 296.878906 119.777344 296.402344 119.78125 296.414062 119.746094 C 296.65625 119.144531 298.613281 118.242188 299.121094 117.875 C 301.4375 116.183594 303.632812 114.332031 305.664062 112.320312 C 311.59375 106.433594 316.707031 99.609375 320.800781 92.386719 C 322.777344 88.90625 324.503906 85.25 325.851562 81.492188 C 326.273438 80.304688 326.648438 79.101562 326.964844 77.882812 C 327.101562 77.371094 327.105469 76.503906 327.421875 76.0625 C 327.984375 75.261719 329.226562 74.800781 330.074219 74.382812 C 331.457031 73.703125 334.09375 72.070312 334.09375 72.070312 C 334.09375 72.070312 335.550781 73.003906 336.132812 73.425781 C 337.40625 74.359375 339.183594 76.199219 340.070312 77.511719 Z M 340.070312 77.511719 " fill-opacity="1" fill-rule="evenodd"/><path fill="#000000" d="M 349.882812 60.132812 L 349.832031 60.109375 C 349.5625 60.007812 349.324219 59.917969 349.246094 59.867188 C 348.113281 59.214844 347.21875 58.300781 346.53125 57.21875 C 345.699219 55.910156 345.304688 54.4375 344.769531 53.011719 C 344.175781 51.445312 343.410156 49.898438 342.347656 48.585938 C 341.609375 47.683594 340.765625 46.84375 339.847656 46.125 C 339.542969 45.894531 339.242188 45.671875 338.921875 45.464844 C 338.898438 45.449219 338.582031 45.253906 338.425781 45.128906 C 338.332031 45.058594 338.277344 44.992188 338.242188 44.953125 C 338.132812 44.800781 338.132812 44.660156 338.144531 44.570312 C 338.160156 44.441406 338.21875 44.332031 338.316406 44.246094 C 338.453125 44.121094 338.726562 44.015625 339.082031 44 C 339.554688 43.980469 340.222656 44.074219 340.433594 44.085938 C 342.609375 44.175781 344.722656 44.867188 346.65625 45.804688 C 349.289062 47.085938 351.378906 49.09375 352.808594 51.59375 C 353.171875 52.226562 353.445312 52.953125 353.761719 53.65625 C 354.042969 54.285156 354.347656 54.894531 354.816406 55.371094 C 355.21875 55.785156 355.738281 56.03125 356.273438 56.253906 C 356.902344 56.515625 357.554688 56.746094 358.117188 57.089844 C 359.78125 58.101562 360.886719 59.878906 361.675781 61.582031 C 361.972656 62.234375 362.355469 63.011719 362.378906 63.738281 C 362.382812 63.941406 362.265625 64.132812 362.070312 64.222656 C 360.460938 64.980469 358.792969 65.632812 357.140625 66.316406 C 356.726562 66.484375 356.226562 66.644531 355.765625 66.839844 C 356.089844 66.988281 356.410156 67.132812 356.734375 67.277344 C 357.96875 67.835938 359.214844 68.371094 360.441406 68.949219 C 360.773438 69.105469 361.105469 69.265625 361.4375 69.429688 C 361.542969 69.480469 361.652344 69.535156 361.753906 69.59375 C 361.738281 69.582031 361.699219 69.566406 361.699219 69.566406 C 361.699219 69.566406 361.949219 69.679688 362.019531 69.742188 C 362.160156 69.890625 362.21875 70.070312 362.144531 70.292969 C 361.371094 72.652344 359.886719 75.046875 357.953125 76.644531 C 356.652344 77.71875 355.058594 78.335938 353.96875 79.660156 C 353.070312 80.746094 352.613281 82.089844 351.945312 83.304688 C 351.128906 84.78125 350.074219 86.128906 348.742188 87.199219 C 346.972656 88.625 344.980469 89.390625 342.707031 89.582031 C 342.015625 89.640625 341.324219 89.679688 340.632812 89.691406 C 340.382812 89.695312 340.132812 89.691406 339.875 89.675781 C 339.835938 89.671875 339.75 89.660156 339.675781 89.648438 C 339.515625 89.675781 339.347656 89.636719 339.222656 89.535156 C 339.019531 89.371094 339.011719 89.195312 339.019531 89.109375 C 339.019531 88.910156 339.101562 88.71875 339.367188 88.617188 C 339.410156 88.601562 339.484375 88.582031 339.578125 88.582031 C 342.699219 87.613281 346.117188 85.15625 346.371094 81.730469 C 346.46875 80.457031 346.144531 79.242188 346.046875 77.980469 C 345.996094 77.28125 345.925781 76.496094 346.207031 75.832031 C 346.628906 74.820312 347.46875 74.1875 348.433594 73.710938 C 349.285156 73.292969 350.238281 72.996094 351.027344 72.601562 C 351.175781 72.527344 351.574219 72.355469 351.878906 72.136719 C 351.917969 72.109375 351.960938 72.070312 351.996094 72.035156 C 351.335938 71.417969 350.253906 71.019531 349.472656 70.640625 C 347.484375 69.675781 345.457031 68.792969 343.398438 67.988281 C 342.582031 67.671875 341.769531 67.335938 340.949219 67.042969 C 340.820312 67 340.65625 66.917969 340.484375 66.855469 C 340.457031 66.839844 340.410156 66.828125 340.371094 66.816406 C 340.320312 66.878906 340.25 66.949219 340.226562 66.972656 C 339.878906 67.332031 339.53125 67.691406 339.175781 68.042969 C 338.070312 69.144531 336.933594 70.210938 335.824219 71.3125 C 335.613281 71.515625 335.324219 71.917969 335.007812 72.230469 C 334.71875 72.523438 334.398438 72.738281 334.105469 72.800781 C 333.917969 72.839844 333.644531 72.800781 333.347656 72.648438 C 332.980469 72.464844 332.53125 72.105469 332.355469 72.011719 C 330.804688 71.214844 329.300781 70.332031 327.785156 69.46875 C 326.953125 68.992188 326.136719 68.484375 325.269531 68.054688 C 325.078125 67.960938 324.664062 67.820312 324.382812 67.648438 C 324.164062 67.515625 324.011719 67.355469 323.929688 67.203125 C 323.835938 67.015625 323.839844 66.816406 323.949219 66.621094 C 324 66.523438 324.089844 66.414062 324.21875 66.324219 C 324.359375 66.214844 324.558594 66.121094 324.621094 66.085938 C 325.203125 65.746094 325.792969 65.414062 326.363281 65.054688 C 328.289062 63.859375 330.21875 62.671875 332.171875 61.523438 C 332.644531 61.242188 333.121094 60.96875 333.585938 60.679688 C 333.617188 60.660156 333.808594 60.542969 333.878906 60.503906 C 333.941406 60.429688 334.015625 60.367188 334.113281 60.332031 C 334.296875 60.257812 334.5 60.289062 334.65625 60.410156 C 336.117188 61.574219 338.285156 63.394531 339.730469 64.582031 C 340.097656 64.878906 340.472656 65.15625 340.828125 65.460938 C 340.851562 65.480469 340.914062 65.535156 340.964844 65.585938 C 341.003906 65.5625 341.042969 65.53125 341.085938 65.507812 C 341.265625 65.394531 341.457031 65.269531 341.597656 65.203125 C 342.582031 64.765625 343.515625 64.234375 344.449219 63.699219 C 345.316406 63.203125 346.117188 62.644531 346.898438 62.03125 C 347.738281 61.371094 348.65625 60.777344 349.597656 60.269531 C 349.660156 60.234375 349.769531 60.1875 349.882812 60.132812 Z M 340.273438 45.125 C 340.320312 45.128906 340.359375 45.132812 340.394531 45.132812 C 342.410156 45.214844 344.375 45.871094 346.171875 46.742188 C 348.617188 47.929688 350.546875 49.789062 351.871094 52.105469 C 352.597656 53.378906 352.992188 55.019531 354.035156 56.09375 C 354.539062 56.609375 355.175781 56.9375 355.84375 57.21875 C 356.429688 57.457031 357.027344 57.664062 357.546875 57.980469 C 359.027344 58.882812 359.992188 60.492188 360.6875 62.007812 C 360.894531 62.445312 361.160156 62.945312 361.257812 63.4375 C 359.769531 64.121094 358.238281 64.722656 356.71875 65.351562 C 355.964844 65.660156 354.976562 65.957031 354.316406 66.429688 C 354.144531 66.550781 354.097656 66.691406 354.085938 66.800781 C 354.070312 66.925781 354.09375 67.046875 354.167969 67.164062 C 354.210938 67.226562 354.285156 67.308594 354.40625 67.367188 C 354.453125 67.390625 354.582031 67.433594 354.617188 67.445312 C 354.742188 67.507812 354.863281 67.574219 354.988281 67.632812 C 355.410156 67.84375 355.84375 68.035156 356.28125 68.230469 C 357.511719 68.785156 358.753906 69.316406 359.96875 69.890625 C 360.300781 70.046875 360.625 70.203125 360.945312 70.363281 L 360.980469 70.378906 C 360.238281 72.421875 358.933594 74.460938 357.257812 75.847656 C 355.902344 76.964844 354.265625 77.625 353.128906 79.003906 C 352.191406 80.136719 351.695312 81.539062 350.992188 82.808594 C 350.25 84.164062 349.273438 85.40625 348.058594 86.394531 C 346.457031 87.679688 344.660156 88.363281 342.609375 88.539062 C 342.511719 88.546875 342.410156 88.554688 342.3125 88.5625 C 344.945312 87.136719 347.222656 84.769531 347.445312 81.808594 C 347.546875 80.480469 347.222656 79.214844 347.121094 77.902344 C 347.082031 77.359375 346.984375 76.746094 347.199219 76.230469 C 347.527344 75.460938 348.1875 75.007812 348.925781 74.644531 C 349.777344 74.226562 350.734375 73.929688 351.515625 73.53125 C 351.785156 73.398438 352.652344 72.988281 352.957031 72.5625 C 353.082031 72.386719 353.144531 72.203125 353.144531 72.027344 C 353.144531 71.828125 353.082031 71.621094 352.894531 71.425781 C 352.164062 70.660156 350.882812 70.152344 349.953125 69.699219 C 347.9375 68.726562 345.886719 67.832031 343.804688 67.015625 C 343.15625 66.765625 342.511719 66.503906 341.867188 66.257812 C 341.929688 66.21875 341.992188 66.179688 342.050781 66.15625 C 343.058594 65.703125 344.03125 65.15625 344.996094 64.601562 C 345.902344 64.078125 346.75 63.492188 347.570312 62.847656 C 348.367188 62.226562 349.234375 61.667969 350.125 61.183594 C 350.289062 61.09375 350.695312 60.933594 350.933594 60.738281 C 351.152344 60.558594 351.273438 60.339844 351.28125 60.121094 C 351.292969 59.941406 351.21875 59.714844 350.984375 59.523438 C 350.695312 59.296875 349.945312 59.058594 349.792969 58.96875 C 348.816406 58.402344 348.046875 57.605469 347.445312 56.667969 C 346.652344 55.421875 346.292969 54.007812 345.777344 52.648438 C 345.152344 50.984375 344.324219 49.335938 343.191406 47.9375 C 342.402344 46.972656 341.5 46.074219 340.515625 45.304688 C 340.433594 45.246094 340.355469 45.183594 340.273438 45.125 Z M 334.300781 61.484375 C 335.738281 62.640625 337.699219 64.285156 339.039062 65.382812 C 339.273438 65.574219 339.507812 65.757812 339.742188 65.941406 C 339.628906 66.046875 339.503906 66.195312 339.453125 66.25 C 339.101562 66.605469 338.761719 66.960938 338.414062 67.308594 C 337.304688 68.410156 336.164062 69.476562 335.054688 70.574219 C 334.847656 70.78125 334.550781 71.1875 334.238281 71.5 C 334.136719 71.605469 334.039062 71.707031 333.9375 71.753906 C 333.851562 71.714844 333.632812 71.601562 333.496094 71.507812 C 333.226562 71.332031 332.980469 71.152344 332.855469 71.085938 C 331.320312 70.292969 329.832031 69.421875 328.335938 68.566406 C 327.476562 68.078125 326.644531 67.558594 325.757812 67.121094 C 325.648438 67.066406 325.472656 67 325.285156 66.921875 C 325.84375 66.601562 326.398438 66.277344 326.945312 65.941406 C 328.859375 64.746094 330.785156 63.566406 332.730469 62.417969 C 333.210938 62.136719 333.695312 61.855469 334.167969 61.558594 C 334.191406 61.546875 334.238281 61.519531 334.300781 61.484375 Z M 334.300781 61.484375 " fill-opacity="1" fill-rule="evenodd"/><path fill="#000000" d="M 374.65625 67.183594 L 362.019531 69.742188 L 355.429688 66.847656 L 362.050781 63.808594 Z M 374.65625 67.183594 " fill-opacity="1" fill-rule="evenodd"/><path fill="#000000" d="M 34.925781 61.234375 C 34.757812 60.402344 35.203125 59.296875 35.410156 58.511719 C 36.042969 56.03125 36.992188 53.644531 37.984375 51.285156 C 40.582031 45.117188 44.339844 39.574219 48.777344 34.527344 C 51.882812 30.992188 55.371094 27.578125 59.511719 25.191406 C 63.40625 22.949219 67.773438 21.433594 72.121094 20.246094 C 73.496094 19.871094 74.871094 19.535156 76.285156 19.28125 C 76.882812 19.175781 77.488281 19.023438 78.097656 18.96875 C 78.117188 18.96875 78.589844 18.964844 78.578125 19 C 78.339844 19.597656 76.378906 20.503906 75.871094 20.871094 C 73.554688 22.5625 71.359375 24.414062 69.328125 26.425781 C 63.402344 32.3125 58.285156 39.136719 54.191406 46.359375 C 52.214844 49.839844 50.492188 53.496094 49.144531 57.253906 C 48.71875 58.441406 48.34375 59.644531 48.03125 60.863281 C 47.894531 61.375 47.886719 62.242188 47.574219 62.683594 C 47.007812 63.484375 45.769531 63.945312 44.917969 64.363281 C 43.535156 65.042969 40.898438 66.675781 40.898438 66.675781 C 40.898438 66.675781 39.441406 65.742188 38.859375 65.320312 C 37.585938 64.386719 35.808594 62.546875 34.925781 61.234375 Z M 34.925781 61.234375 " fill-opacity="1" fill-rule="evenodd"/><path fill="#000000" d="M 34.925781 82.902344 C 34.757812 83.734375 35.203125 84.839844 35.410156 85.628906 C 36.042969 88.105469 36.992188 90.496094 37.984375 92.855469 C 40.582031 99.019531 44.339844 104.5625 48.777344 109.613281 C 51.882812 113.144531 55.371094 116.558594 59.511719 118.945312 C 63.40625 121.191406 67.773438 122.707031 72.121094 123.890625 C 73.496094 124.265625 74.871094 124.605469 76.285156 124.855469 C 76.882812 124.960938 77.488281 125.117188 78.097656 125.167969 C 78.117188 125.167969 78.589844 125.171875 78.578125 125.136719 C 78.339844 124.539062 76.378906 123.636719 75.871094 123.265625 C 73.554688 121.578125 71.359375 119.726562 69.328125 117.710938 C 63.402344 111.824219 58.285156 105 54.191406 97.78125 C 52.214844 94.296875 50.492188 90.640625 49.144531 86.882812 C 48.71875 85.695312 48.34375 84.496094 48.03125 83.273438 C 47.894531 82.761719 47.886719 81.894531 47.574219 81.453125 C 47.007812 80.652344 45.769531 80.191406 44.917969 79.773438 C 43.535156 79.09375 40.898438 77.460938 40.898438 77.460938 C 40.898438 77.460938 39.441406 78.394531 38.859375 78.816406 C 37.585938 79.753906 35.808594 81.589844 34.925781 82.902344 Z M 34.925781 82.902344 " fill-opacity="1" fill-rule="evenodd"/><path fill="#000000" d="M 25.109375 65.523438 L 25.160156 65.503906 C 25.429688 65.398438 25.667969 65.308594 25.75 65.261719 C 26.878906 64.605469 27.777344 63.691406 28.460938 62.609375 C 29.292969 61.304688 29.6875 59.828125 30.226562 58.402344 C 30.820312 56.839844 31.585938 55.289062 32.648438 53.980469 C 33.382812 53.074219 34.226562 52.234375 35.148438 51.515625 C 35.449219 51.285156 35.753906 51.066406 36.074219 50.855469 C 36.09375 50.839844 36.410156 50.644531 36.570312 50.519531 C 36.660156 50.449219 36.71875 50.382812 36.753906 50.34375 C 36.859375 50.191406 36.859375 50.054688 36.847656 49.964844 C 36.832031 49.832031 36.773438 49.722656 36.679688 49.636719 C 36.542969 49.515625 36.265625 49.410156 35.914062 49.394531 C 35.4375 49.371094 34.769531 49.46875 34.558594 49.476562 C 32.382812 49.566406 30.269531 50.257812 28.335938 51.195312 C 25.703125 52.476562 23.613281 54.484375 22.1875 56.988281 C 21.820312 57.617188 21.546875 58.34375 21.230469 59.046875 C 20.953125 59.675781 20.644531 60.285156 20.175781 60.765625 C 19.777344 61.175781 19.257812 61.421875 18.71875 61.644531 C 18.089844 61.90625 17.441406 62.136719 16.875 62.484375 C 15.214844 63.492188 14.105469 65.269531 13.316406 66.972656 C 13.019531 67.625 12.636719 68.402344 12.617188 69.128906 C 12.609375 69.335938 12.730469 69.523438 12.925781 69.613281 C 14.535156 70.375 16.203125 71.023438 17.851562 71.707031 C 18.269531 71.878906 18.765625 72.035156 19.226562 72.230469 C 18.902344 72.382812 18.582031 72.527344 18.257812 72.671875 C 17.023438 73.226562 15.777344 73.761719 14.550781 74.339844 C 14.21875 74.496094 13.890625 74.65625 13.558594 74.820312 C 13.449219 74.871094 13.339844 74.925781 13.238281 74.984375 C 13.253906 74.972656 13.296875 74.957031 13.296875 74.957031 C 13.296875 74.957031 13.042969 75.070312 12.976562 75.132812 C 12.832031 75.28125 12.773438 75.460938 12.847656 75.6875 C 13.621094 78.042969 15.105469 80.4375 17.039062 82.039062 C 18.34375 83.113281 19.9375 83.726562 21.027344 85.050781 C 21.921875 86.136719 22.378906 87.480469 23.046875 88.695312 C 23.863281 90.171875 24.921875 91.519531 26.25 92.589844 C 28.019531 94.019531 30.015625 94.78125 32.285156 94.976562 C 32.976562 95.035156 33.667969 95.070312 34.359375 95.082031 C 34.609375 95.085938 34.863281 95.085938 35.117188 95.066406 C 35.160156 95.066406 35.246094 95.050781 35.320312 95.039062 C 35.480469 95.070312 35.644531 95.027344 35.769531 94.925781 C 35.976562 94.761719 35.980469 94.585938 35.976562 94.5 C 35.976562 94.300781 35.890625 94.109375 35.628906 94.007812 C 35.582031 93.992188 35.507812 93.972656 35.417969 93.972656 C 32.292969 93.007812 28.878906 90.546875 28.621094 87.125 C 28.523438 85.847656 28.847656 84.632812 28.945312 83.371094 C 28.996094 82.671875 29.066406 81.886719 28.785156 81.222656 C 28.363281 80.214844 27.523438 79.582031 26.558594 79.101562 C 25.707031 78.683594 24.753906 78.386719 23.96875 77.992188 C 23.820312 77.917969 23.417969 77.746094 23.117188 77.53125 C 23.078125 77.503906 23.03125 77.460938 22.996094 77.425781 C 23.660156 76.808594 24.738281 76.410156 25.519531 76.03125 C 27.507812 75.066406 29.535156 74.1875 31.597656 73.382812 C 32.414062 73.0625 33.222656 72.726562 34.046875 72.433594 C 34.171875 72.390625 34.335938 72.3125 34.507812 72.246094 C 34.535156 72.234375 34.582031 72.21875 34.621094 72.210938 C 34.671875 72.269531 34.742188 72.339844 34.765625 72.363281 C 35.113281 72.722656 35.460938 73.082031 35.816406 73.433594 C 36.921875 74.535156 38.058594 75.605469 39.167969 76.703125 C 39.378906 76.910156 39.671875 77.3125 39.984375 77.625 C 40.273438 77.914062 40.59375 78.128906 40.886719 78.191406 C 41.074219 78.230469 41.347656 78.191406 41.644531 78.042969 C 42.011719 77.855469 42.460938 77.496094 42.640625 77.402344 C 44.1875 76.605469 45.695312 75.722656 47.207031 74.859375 C 48.042969 74.382812 48.859375 73.875 49.726562 73.445312 C 49.914062 73.351562 50.332031 73.210938 50.609375 73.039062 C 50.828125 72.90625 50.980469 72.75 51.0625 72.59375 C 51.160156 72.40625 51.152344 72.207031 51.042969 72.011719 C 50.992188 71.914062 50.902344 71.808594 50.777344 71.714844 C 50.632812 71.609375 50.433594 71.511719 50.371094 71.476562 C 49.789062 71.140625 49.199219 70.804688 48.628906 70.449219 C 46.703125 69.25 44.773438 68.066406 42.820312 66.914062 C 42.347656 66.636719 41.875 66.363281 41.40625 66.070312 C 41.378906 66.050781 41.183594 65.933594 41.113281 65.894531 C 41.050781 65.820312 40.976562 65.757812 40.878906 65.722656 C 40.699219 65.648438 40.492188 65.679688 40.339844 65.800781 C 38.875 66.964844 36.707031 68.785156 35.261719 69.972656 C 34.898438 70.269531 34.519531 70.546875 34.164062 70.851562 C 34.144531 70.871094 34.078125 70.925781 34.027344 70.976562 C 33.988281 70.953125 33.949219 70.925781 33.910156 70.898438 C 33.726562 70.785156 33.539062 70.660156 33.394531 70.59375 C 32.414062 70.15625 31.476562 69.625 30.546875 69.089844 C 29.675781 68.59375 28.878906 68.035156 28.09375 67.421875 C 27.257812 66.765625 26.335938 66.171875 25.394531 65.660156 C 25.332031 65.625 25.222656 65.578125 25.109375 65.523438 Z M 34.71875 50.515625 C 34.671875 50.519531 34.632812 50.523438 34.597656 50.523438 C 32.582031 50.609375 30.621094 51.261719 28.820312 52.136719 C 26.375 53.320312 24.445312 55.183594 23.121094 57.496094 C 22.398438 58.769531 22.003906 60.410156 20.957031 61.484375 C 20.457031 62.003906 19.816406 62.328125 19.148438 62.609375 C 18.566406 62.851562 17.964844 63.054688 17.445312 63.371094 C 15.96875 64.273438 15.003906 65.882812 14.304688 67.402344 C 14.101562 67.835938 13.832031 68.335938 13.734375 68.828125 C 15.226562 69.515625 16.753906 70.113281 18.273438 70.742188 C 19.027344 71.050781 20.015625 71.347656 20.679688 71.824219 C 20.847656 71.941406 20.894531 72.082031 20.90625 72.191406 C 20.921875 72.316406 20.902344 72.4375 20.828125 72.554688 C 20.78125 72.617188 20.707031 72.699219 20.585938 72.757812 C 20.542969 72.78125 20.410156 72.824219 20.375 72.835938 C 20.25 72.898438 20.128906 72.964844 20.003906 73.027344 C 19.582031 73.234375 19.148438 73.425781 18.714844 73.621094 C 17.480469 74.175781 16.242188 74.707031 15.023438 75.28125 C 14.695312 75.4375 14.367188 75.59375 14.046875 75.753906 L 14.015625 75.769531 C 14.757812 77.8125 16.058594 79.851562 17.738281 81.238281 C 19.089844 82.355469 20.730469 83.015625 21.867188 84.394531 C 22.800781 85.53125 23.300781 86.929688 24 88.199219 C 24.742188 89.558594 25.71875 90.796875 26.9375 91.785156 C 28.535156 93.070312 30.335938 93.753906 32.382812 93.929688 C 32.480469 93.9375 32.582031 93.945312 32.679688 93.953125 C 30.046875 92.527344 27.769531 90.160156 27.546875 87.199219 C 27.445312 85.871094 27.769531 84.605469 27.871094 83.292969 C 27.914062 82.75 28.011719 82.136719 27.792969 81.621094 C 27.46875 80.855469 26.804688 80.398438 26.070312 80.039062 C 25.21875 79.617188 24.257812 79.320312 23.476562 78.921875 C 23.207031 78.789062 22.339844 78.382812 22.039062 77.953125 C 21.910156 77.777344 21.847656 77.597656 21.847656 77.417969 C 21.847656 77.21875 21.910156 77.011719 22.101562 76.816406 C 22.832031 76.050781 24.109375 75.542969 25.039062 75.09375 C 27.054688 74.117188 29.105469 73.222656 31.191406 72.40625 C 31.835938 72.15625 32.480469 71.894531 33.125 71.648438 C 33.0625 71.609375 33 71.574219 32.945312 71.546875 C 31.933594 71.09375 30.960938 70.546875 29.996094 69.996094 C 29.089844 69.472656 28.246094 68.882812 27.421875 68.238281 C 26.628906 67.617188 25.761719 67.058594 24.871094 66.574219 C 24.703125 66.484375 24.296875 66.328125 24.058594 66.128906 C 23.839844 65.949219 23.722656 65.730469 23.710938 65.511719 C 23.699219 65.332031 23.773438 65.105469 24.007812 64.917969 C 24.296875 64.6875 25.046875 64.449219 25.199219 64.359375 C 26.175781 63.792969 26.949219 62.996094 27.546875 62.058594 C 28.339844 60.8125 28.699219 59.402344 29.214844 58.039062 C 29.84375 56.375 30.671875 54.726562 31.800781 53.328125 C 32.589844 52.363281 33.492188 51.464844 34.480469 50.699219 C 34.558594 50.636719 34.640625 50.574219 34.71875 50.515625 Z M 40.691406 66.875 C 39.253906 68.035156 37.292969 69.675781 35.953125 70.773438 C 35.71875 70.964844 35.484375 71.148438 35.25 71.335938 C 35.363281 71.4375 35.492188 71.585938 35.542969 71.640625 C 35.890625 71.996094 36.234375 72.351562 36.582031 72.699219 C 37.6875 73.800781 38.832031 74.871094 39.9375 75.96875 C 40.144531 76.175781 40.441406 76.578125 40.753906 76.890625 C 40.859375 76.996094 40.953125 77.097656 41.058594 77.144531 C 41.144531 77.105469 41.359375 76.992188 41.496094 76.898438 C 41.765625 76.722656 42.011719 76.542969 42.136719 76.476562 C 43.671875 75.6875 45.164062 74.8125 46.660156 73.957031 C 47.515625 73.46875 48.347656 72.949219 49.234375 72.511719 C 49.34375 72.457031 49.519531 72.390625 49.707031 72.3125 C 49.148438 71.992188 48.59375 71.671875 48.046875 71.332031 C 46.132812 70.136719 44.210938 68.957031 42.261719 67.8125 C 41.78125 67.527344 41.296875 67.25 40.824219 66.949219 C 40.800781 66.9375 40.753906 66.910156 40.691406 66.875 Z M 40.691406 66.875 " fill-opacity="1" fill-rule="evenodd"/><path fill="#000000" d="M 0.339844 72.574219 L 12.976562 75.132812 L 19.566406 72.238281 L 12.941406 69.199219 Z M 0.339844 72.574219 " fill-opacity="1" fill-rule="evenodd"/></svg>