<svg xmlns="http://www.w3.org/2000/svg" xmlns:xlink="http://www.w3.org/1999/xlink" width="500" zoomAndPan="magnify" viewBox="0 0 375 149.999998" height="200" preserveAspectRatio="xMidYMid meet" version="1.0"><defs><clipPath id="106f0f592e"><path d="M 296 22.265625 L 341 22.265625 L 341 64 L 296 64 Z M 296 22.265625 " clip-rule="nonzero"/></clipPath></defs><path fill="#000000" d="M 186.554688 107.277344 C 186.503906 107.175781 186.5 107.035156 186.484375 106.921875 C 186.421875 106.390625 186.589844 105.972656 186.855469 105.539062 C 187.128906 105.09375 187.414062 104.566406 187.816406 104.242188 C 188.296875 103.867188 188.984375 103.964844 189.375 104.433594 C 189.492188 104.574219 189.601562 104.730469 189.675781 104.898438 C 189.851562 105.292969 189.917969 105.71875 189.941406 106.15625 C 190.019531 107.695312 189.578125 109.253906 189.050781 110.664062 C 189.039062 110.707031 189.027344 110.75 189.015625 110.789062 C 189.082031 110.707031 189.1875 110.648438 189.273438 110.585938 C 189.421875 110.476562 189.574219 110.367188 189.726562 110.257812 C 190.402344 109.769531 191.121094 109.265625 191.957031 109.296875 C 192.164062 109.304688 192.382812 109.351562 192.585938 109.394531 C 193.085938 109.503906 193.578125 109.679688 193.941406 110.085938 C 194.085938 110.246094 194.1875 110.539062 194.230469 110.746094 C 194.386719 111.472656 194.152344 112.355469 193.773438 112.957031 C 193.640625 113.167969 193.464844 113.347656 193.304688 113.53125 C 193.035156 113.839844 192.75 114.132812 192.433594 114.375 C 191.691406 114.941406 190.761719 115.171875 189.894531 115.445312 C 189.179688 115.667969 188.441406 115.828125 187.71875 116.03125 C 187.582031 116.070312 187.414062 116.132812 187.28125 116.164062 C 186.992188 116.238281 186.699219 116.3125 186.40625 116.367188 C 185.375 116.566406 184.296875 116.78125 183.246094 116.738281 C 182.289062 116.703125 181.394531 116.054688 180.550781 115.558594 C 180.492188 115.523438 180.433594 115.484375 180.375 115.449219 C 180.324219 115.417969 180.273438 115.382812 180.222656 115.351562 C 180.175781 115.320312 180.132812 115.292969 180.089844 115.261719 C 180.0625 115.242188 180.035156 115.222656 180.007812 115.203125 C 179.914062 115.136719 179.804688 115.0625 179.738281 114.960938 C 179.726562 114.941406 179.679688 114.871094 179.703125 114.847656 C 179.730469 114.816406 179.792969 114.828125 179.828125 114.828125 C 179.863281 114.828125 179.894531 114.828125 179.929688 114.832031 C 180.078125 114.84375 180.234375 114.824219 180.382812 114.816406 C 180.691406 114.804688 181.003906 114.785156 181.316406 114.78125 C 182.492188 114.769531 183.707031 114.742188 184.855469 114.4375 C 184.886719 114.429688 184.921875 114.421875 184.953125 114.414062 C 185.089844 114.386719 185.195312 114.246094 185.3125 114.160156 C 185.574219 113.972656 185.824219 113.773438 186.074219 113.566406 C 186.335938 113.347656 186.609375 113.140625 186.863281 112.910156 C 187.078125 112.710938 187.277344 112.484375 187.464844 112.25 C 187.535156 112.15625 187.652344 112.03125 187.714844 111.941406 C 187.933594 111.621094 188.277344 110.851562 188.417969 110.484375 C 188.972656 109.039062 189.433594 108.167969 189.105469 106.714844 C 189.070312 106.558594 188.996094 106.417969 188.914062 106.289062 C 188.859375 106.210938 188.796875 106.136719 188.722656 106.078125 C 188.15625 105.644531 187.445312 106.113281 187.019531 106.554688 C 186.929688 106.652344 186.59375 107.121094 186.554688 107.277344 Z M 186.804688 114.328125 C 186.789062 114.160156 186.949219 113.988281 187.035156 113.871094 C 187.3125 113.507812 187.660156 113.222656 188.003906 112.941406 C 188.566406 112.480469 189.160156 112.050781 189.792969 111.707031 C 190.164062 111.507812 190.578125 111.320312 190.996094 111.296875 C 191.289062 111.28125 191.582031 111.367188 191.863281 111.449219 C 192.109375 111.523438 192.367188 111.59375 192.601562 111.707031 C 192.71875 111.769531 192.835938 111.847656 192.929688 111.953125 C 192.960938 111.988281 193.007812 112.046875 193 112.101562 C 192.984375 112.242188 192.757812 112.398438 192.667969 112.476562 C 192.261719 112.820312 191.738281 113.023438 191.253906 113.195312 C 190.714844 113.382812 190.164062 113.554688 189.617188 113.714844 C 188.777344 113.957031 187.675781 114.269531 186.804688 114.328125 Z M 186.804688 114.328125 " fill-opacity="1" fill-rule="evenodd"/><path fill="#000000" d="M 205.289062 54.925781 C 205.351562 55.175781 205.605469 55.402344 205.769531 55.589844 C 206.199219 56.097656 206.652344 56.601562 207.152344 57.03125 C 207.289062 57.148438 207.933594 57.738281 208.070312 57.351562 C 208.167969 57.09375 208.023438 56.746094 207.9375 56.5 C 207.691406 55.761719 207.347656 55.058594 207.011719 54.359375 C 206.132812 52.550781 205.152344 50.789062 204.21875 49.007812 C 203.933594 48.460938 203.652344 47.914062 203.390625 47.359375 C 203.257812 47.082031 203.132812 46.726562 202.933594 46.488281 C 202.695312 46.203125 202.28125 46.425781 202.050781 46.609375 C 201.636719 46.933594 201.273438 47.34375 200.917969 47.734375 C 200.703125 47.96875 200.460938 48.1875 200.347656 48.492188 C 199.855469 49.839844 201.0625 51.371094 201.769531 52.421875 C 202.371094 53.316406 202.199219 54.796875 202.367188 55.835938 C 202.804688 58.535156 203.304688 61.214844 203.679688 63.921875 C 204.777344 71.878906 207.136719 80.214844 205.792969 88.296875 C 205.527344 89.886719 203.867188 90.917969 202.371094 91.578125 C 200.273438 92.492188 197.445312 92.042969 195.65625 90.636719 C 194.769531 89.9375 194.125 89.132812 193.601562 88.144531 C 193.40625 87.769531 193.226562 87.082031 192.675781 87.167969 C 192.15625 87.246094 191.761719 87.9375 191.472656 88.308594 C 190.714844 89.289062 190.015625 90.277344 189.117188 91.136719 C 188.285156 91.933594 187.316406 92.578125 186.355469 93.207031 C 184.28125 94.566406 182.355469 95.5 179.867188 95.671875 C 181.335938 93.761719 183.34375 91.714844 183.382812 89.140625 C 183.398438 87.804688 182.433594 86.75 181.589844 85.828125 C 179.617188 83.683594 176.519531 81.609375 173.472656 82.265625 C 170.554688 82.898438 167.957031 84.800781 165.621094 86.550781 C 161.402344 89.710938 157.519531 93.269531 154.675781 97.730469 C 153.285156 97.863281 151.65625 97.445312 150.441406 96.789062 C 151.152344 95.6875 152.195312 94.816406 152.675781 93.550781 C 152.9375 92.851562 152.925781 92.042969 152.917969 91.308594 C 152.898438 89.679688 152.617188 88.0625 152.261719 86.46875 C 152.058594 85.546875 151.769531 84.613281 151.332031 83.773438 C 151.109375 83.34375 150.808594 82.898438 150.28125 82.84375 C 149.820312 82.792969 149.335938 82.984375 148.925781 83.171875 C 147.757812 83.699219 146.769531 84.566406 145.871094 85.460938 C 144.8125 86.523438 143.777344 87.664062 143.039062 88.976562 C 141.445312 91.804688 141.902344 95.007812 143.207031 97.847656 C 142.734375 98.269531 141.875 98.355469 141.273438 98.476562 C 139.617188 98.796875 137.773438 99.09375 136.125 98.554688 C 135.535156 98.359375 134.285156 97.960938 134.191406 97.230469 C 134.109375 96.617188 134.570312 96.097656 134.976562 95.695312 C 135.617188 95.070312 136.21875 94.394531 136.773438 93.667969 C 137.226562 93.074219 137.707031 90.816406 137.277344 88.757812 C 136.75 86.238281 135.027344 84.246094 134.871094 84.148438 C 133.203125 83.097656 130.894531 85.035156 129.789062 86.074219 C 127.519531 88.199219 125.621094 90.851562 126.070312 94.105469 C 126.203125 95.039062 126.488281 95.933594 126.851562 96.800781 C 126.382812 97.527344 125.390625 97.933594 124.617188 98.222656 C 122.164062 99.140625 119.519531 99.105469 117.757812 96.929688 C 115.070312 93.613281 115.324219 88.328125 114.796875 84.320312 C 114.621094 82.980469 114.40625 81.636719 114.066406 80.328125 C 113.9375 79.824219 113.863281 79.246094 113.355469 78.980469 C 112.292969 78.429688 111.5 79.839844 111.03125 80.578125 C 109.628906 82.804688 109.5 85.785156 107.503906 87.65625 C 106.058594 89.011719 103.949219 88.519531 102.699219 87.175781 C 102.34375 86.796875 101.734375 85.609375 101.125 85.664062 C 99.914062 85.769531 99.800781 87.742188 100.070312 88.546875 C 100.886719 91.019531 102.722656 92.835938 102.964844 95.363281 C 103.351562 99.292969 98.980469 102.226562 96.242188 103.972656 C 88.511719 108.90625 77.597656 111.429688 69.003906 107.015625 C 64.703125 104.808594 65.535156 99.441406 66.410156 95.464844 C 66.679688 94.25 66.996094 93.042969 67.328125 91.847656 C 67.355469 91.734375 67.742188 90.699219 67.582031 90.621094 C 67.4375 90.539062 67.015625 91.363281 66.972656 91.4375 C 66.445312 92.382812 66.03125 93.386719 65.640625 94.390625 C 64.195312 98.105469 62.8125 102.65625 64.230469 106.589844 C 65.992188 111.472656 72.125 113.402344 76.773438 113.910156 C 79.335938 114.1875 82.058594 114.1875 84.609375 113.839844 C 90.691406 113.011719 96.015625 109.71875 100.527344 105.679688 C 102.855469 103.589844 105.132812 100.867188 105.605469 97.667969 C 105.960938 95.257812 105.257812 93.246094 104.257812 91.105469 C 104.640625 91.136719 105.011719 91.421875 105.375 91.53125 C 105.980469 91.714844 106.65625 91.730469 107.285156 91.710938 C 107.707031 91.695312 108.132812 91.65625 108.53125 91.511719 C 109.480469 91.175781 110.023438 90.308594 110.363281 89.40625 C 110.957031 87.808594 111.007812 86.050781 111.878906 84.5625 C 112.085938 85.816406 111.910156 87.09375 111.867188 88.355469 C 111.773438 91.183594 111.625 94.113281 112.527344 96.839844 C 112.9375 98.0625 113.582031 99.242188 114.476562 100.183594 C 118.199219 104.089844 125.0625 103.679688 128.957031 100.34375 C 129.949219 99.492188 130.875 101.03125 131.695312 101.535156 C 132.582031 102.078125 133.734375 102.316406 134.726562 102.59375 C 138.71875 103.707031 143.015625 102.9375 146.121094 100.070312 C 146.496094 100.242188 146.820312 100.582031 147.175781 100.789062 C 147.976562 101.261719 148.902344 101.644531 149.804688 101.855469 C 150.359375 101.984375 150.929688 102.011719 151.496094 101.933594 C 151.613281 101.914062 152.066406 101.757812 152.15625 101.882812 C 152.265625 102.046875 152.105469 102.367188 152.042969 102.523438 C 151.867188 102.976562 151.617188 103.421875 151.546875 103.910156 C 151.519531 104.101562 151.496094 104.359375 151.675781 104.484375 C 151.828125 104.59375 152.015625 104.472656 152.136719 104.382812 C 152.507812 104.132812 152.804688 103.796875 153.140625 103.511719 C 153.414062 103.273438 153.597656 102.890625 153.820312 102.609375 C 156.019531 102.824219 158.25 102.84375 160.457031 102.867188 C 164.820312 102.925781 169.21875 102.710938 173.472656 101.671875 C 176.617188 100.90625 179.742188 100.046875 182.738281 98.761719 C 186.054688 97.34375 188.617188 95.160156 190.957031 92.472656 C 190.429688 93.226562 190.484375 94.578125 190.578125 95.425781 C 190.886719 98.199219 192.238281 100.660156 194.484375 102.3125 C 195.355469 102.953125 196.324219 103.601562 197.390625 103.851562 C 197.761719 103.941406 198.257812 104.027344 198.5625 103.742188 C 198.847656 103.480469 198.957031 103.027344 199.054688 102.671875 C 199.398438 101.457031 199.234375 100.074219 199.160156 98.832031 C 199.089844 97.683594 198.984375 96.484375 198.558594 95.40625 C 202.574219 95.628906 206.574219 93.464844 207.90625 89.597656 C 208.203125 88.730469 208.28125 87.640625 208.339844 86.75 C 208.46875 84.78125 208.5 82.800781 208.382812 80.832031 C 207.957031 73.664062 206.1875 62.039062 205.289062 54.925781 Z M 155.550781 98.734375 C 156.339844 97.40625 157.578125 96.257812 158.601562 95.132812 C 161.070312 92.410156 163.957031 90.035156 167.097656 88.210938 C 168.734375 87.261719 170.546875 86.359375 172.453125 86.257812 C 175.066406 86.117188 177.460938 87.804688 179.089844 89.792969 C 179.453125 90.238281 180.570312 91.558594 180.183594 92.246094 C 179.6875 93.121094 178.367188 93.746094 177.542969 94.207031 C 174.9375 95.675781 172.101562 96.808594 169.175781 97.328125 C 166.121094 97.871094 160.367188 98.839844 155.550781 98.734375 Z M 131.351562 96.410156 C 129.503906 95.472656 127.371094 93.152344 128.042969 91.273438 C 128.332031 90.449219 128.828125 89.675781 129.386719 88.972656 C 130.003906 88.195312 131.011719 87.105469 132.152344 86.929688 C 133.226562 86.765625 134.078125 88.105469 134.488281 88.777344 C 134.933594 89.503906 135.382812 90.285156 135.441406 91.128906 C 135.546875 92.632812 132.539062 95.460938 131.351562 96.410156 Z M 147.386719 96.148438 C 145.746094 95.21875 143.84375 92.894531 144.445312 91.011719 C 144.699219 90.191406 145.140625 89.417969 145.636719 88.714844 C 146.1875 87.933594 147.085938 86.84375 148.101562 86.667969 C 149.054688 86.503906 149.8125 87.84375 150.179688 88.519531 C 150.574219 89.246094 150.972656 90.023438 151.027344 90.867188 C 151.121094 92.378906 148.441406 95.199219 147.386719 96.148438 Z M 147.386719 96.148438 " fill-opacity="1" fill-rule="evenodd"/><path fill="#000000" d="M 211.316406 42.222656 C 211.542969 41.886719 211.65625 41.449219 211.828125 41.09375 C 212.238281 40.246094 212.671875 39.398438 213.210938 38.601562 C 213.199219 38.636719 213.289062 38.726562 213.304688 38.753906 C 213.390625 38.890625 213.464844 39.03125 213.539062 39.171875 C 213.871094 39.804688 214.21875 40.429688 214.546875 41.0625 C 215.394531 42.710938 216.292969 44.339844 217.101562 46.003906 C 217.308594 46.4375 217.515625 46.871094 217.691406 47.316406 C 217.859375 47.722656 218.023438 48.160156 217.953125 48.605469 C 217.941406 48.671875 217.933594 48.855469 217.847656 48.894531 C 217.804688 48.917969 217.730469 48.863281 217.699219 48.84375 C 217.5625 48.761719 217.4375 48.664062 217.3125 48.566406 C 216.882812 48.230469 216.460938 47.890625 216.046875 47.535156 C 215.9375 47.441406 215.441406 47.011719 215.4375 47.414062 C 215.4375 47.457031 215.441406 47.496094 215.445312 47.535156 C 215.457031 47.59375 215.472656 47.652344 215.496094 47.707031 C 215.625 47.671875 215.535156 47.9375 215.554688 48.050781 C 215.589844 48.253906 215.617188 48.457031 215.644531 48.65625 C 215.730469 49.277344 215.800781 49.902344 215.886719 50.523438 C 216.152344 52.4375 216.4375 54.339844 216.789062 56.242188 C 217.832031 61.914062 218.46875 68.320312 219.46875 73.996094 C 219.488281 73.996094 219.519531 74.226562 219.523438 74.242188 C 219.578125 74.523438 219.636719 74.804688 219.695312 75.085938 C 219.929688 76.277344 220.078125 77.480469 220.230469 78.6875 C 220.546875 81.152344 220.984375 83.601562 221.160156 86.082031 C 221.242188 87.222656 221.34375 88.394531 221.160156 89.539062 C 220.941406 90.90625 220.445312 92.328125 219.695312 93.5625 C 219.503906 93.878906 219.285156 94.175781 219.027344 94.457031 C 218.992188 94.496094 218.839844 94.726562 218.765625 94.664062 C 218.539062 94.472656 218.769531 93.640625 218.777344 93.40625 C 218.816406 92.273438 218.699219 91.140625 218.605469 90.015625 C 218.496094 88.75 218.402344 87.484375 218.273438 86.21875 C 218.058594 84.125 217.789062 82.046875 217.460938 79.964844 C 217.582031 80.011719 217.417969 79.738281 217.398438 79.625 C 217.367188 79.433594 217.335938 79.242188 217.300781 79.046875 C 217.195312 78.402344 217.09375 77.757812 216.992188 77.113281 C 216.695312 75.199219 216.386719 73.285156 216.160156 71.359375 C 215.484375 65.53125 214.640625 59.707031 213.722656 53.90625 C 213.769531 53.890625 213.707031 53.820312 213.703125 53.777344 C 213.679688 53.601562 213.652344 53.425781 213.628906 53.246094 C 213.527344 52.546875 213.4375 51.84375 213.339844 51.140625 C 213.058594 49.132812 212.769531 47.128906 212.457031 45.128906 C 212.375 44.628906 212.300781 44.128906 212.226562 43.628906 C 212.195312 43.414062 212.199219 43.070312 212.0625 42.878906 C 211.945312 42.714844 211.496094 42.324219 211.316406 42.222656 Z M 211.316406 42.222656 " fill-opacity="1" fill-rule="evenodd"/><path fill="#000000" d="M 153.472656 47.132812 C 153.648438 46.851562 153.738281 46.480469 153.871094 46.179688 C 154.191406 45.460938 154.527344 44.746094 154.949219 44.074219 C 154.941406 44.101562 155.011719 44.175781 155.027344 44.203125 C 155.09375 44.316406 155.152344 44.4375 155.210938 44.558594 C 155.480469 45.09375 155.753906 45.625 156.015625 46.167969 C 156.695312 47.566406 157.410156 48.953125 158.054688 50.367188 C 158.222656 50.734375 158.386719 51.105469 158.53125 51.484375 C 158.660156 51.832031 158.792969 52.203125 158.742188 52.578125 C 158.734375 52.636719 158.726562 52.789062 158.660156 52.824219 C 158.625 52.84375 158.566406 52.800781 158.539062 52.78125 C 158.433594 52.710938 158.332031 52.625 158.234375 52.542969 C 157.894531 52.257812 157.558594 51.964844 157.234375 51.664062 C 157.144531 51.582031 156.75 51.214844 156.75 51.558594 C 156.75 51.59375 156.753906 51.625 156.757812 51.660156 C 156.765625 51.710938 156.777344 51.757812 156.796875 51.804688 C 156.898438 51.777344 156.828125 52 156.84375 52.097656 C 156.871094 52.269531 156.894531 52.441406 156.917969 52.613281 C 156.988281 53.140625 157.046875 53.667969 157.121094 54.195312 C 157.339844 55.820312 157.574219 57.4375 157.855469 59.054688 C 158.707031 63.871094 159.238281 69.304688 160.054688 74.125 C 160.070312 74.125 160.09375 74.320312 160.097656 74.335938 C 160.144531 74.574219 160.191406 74.8125 160.238281 75.050781 C 160.429688 76.0625 160.550781 77.085938 160.679688 78.109375 C 160.9375 80.199219 161.296875 82.28125 161.445312 84.382812 C 161.515625 85.355469 161.601562 86.347656 161.464844 87.320312 C 161.296875 88.476562 160.910156 89.679688 160.324219 90.722656 C 160.175781 90.992188 160.003906 91.242188 159.804688 91.480469 C 159.773438 91.515625 159.65625 91.707031 159.597656 91.65625 C 159.417969 91.492188 159.59375 90.785156 159.597656 90.585938 C 159.625 89.625 159.527344 88.667969 159.445312 87.710938 C 159.355469 86.636719 159.273438 85.5625 159.167969 84.488281 C 158.988281 82.710938 158.765625 80.945312 158.5 79.179688 C 158.59375 79.222656 158.464844 78.988281 158.449219 78.890625 C 158.421875 78.726562 158.394531 78.566406 158.367188 78.402344 C 158.28125 77.855469 158.195312 77.308594 158.117188 76.757812 C 157.871094 75.132812 157.617188 73.507812 157.433594 71.875 C 156.871094 66.925781 156.179688 61.984375 155.425781 57.058594 C 155.464844 57.042969 155.414062 56.984375 155.410156 56.949219 C 155.390625 56.796875 155.367188 56.648438 155.347656 56.496094 C 155.265625 55.902344 155.191406 55.304688 155.113281 54.707031 C 154.878906 53.003906 154.644531 51.304688 154.386719 49.601562 C 154.320312 49.179688 154.257812 48.753906 154.199219 48.332031 C 154.171875 48.148438 154.171875 47.855469 154.066406 47.695312 C 153.972656 47.554688 153.613281 47.222656 153.472656 47.132812 Z M 153.472656 47.132812 " fill-opacity="1" fill-rule="evenodd"/><path fill="#000000" d="M 204.507812 105.300781 C 204.496094 105.28125 204.460938 105.316406 204.4375 105.316406 C 204.382812 105.3125 204.328125 105.304688 204.277344 105.273438 C 204.15625 105.195312 204.09375 105.035156 204.070312 104.902344 C 203.984375 104.476562 204.125 104.03125 204.285156 103.636719 C 204.730469 102.53125 205.855469 101.210938 207.222656 101.242188 C 207.347656 101.246094 207.496094 101.34375 207.597656 101.40625 C 207.875 101.566406 208.132812 101.753906 208.371094 101.964844 C 209.128906 102.628906 209.863281 103.320312 210.566406 104.039062 C 210.757812 104.234375 210.941406 104.4375 211.113281 104.648438 C 211.191406 104.746094 211.292969 104.863281 211.3125 104.992188 C 211.332031 104.976562 211.308594 105.042969 211.304688 105.066406 C 211.296875 105.121094 211.285156 105.175781 211.273438 105.226562 C 211.238281 105.375 211.195312 105.523438 211.140625 105.667969 C 210.976562 106.085938 210.78125 106.558594 210.441406 106.878906 C 210.417969 106.898438 210.230469 106.902344 210.207031 106.90625 C 209.945312 106.921875 209.683594 106.925781 209.421875 106.933594 C 208.34375 106.972656 207.296875 107.046875 206.265625 107.363281 C 206.261719 107.355469 206.214844 107.375 206.214844 107.375 C 206.148438 107.394531 206.082031 107.417969 206.019531 107.441406 C 205.738281 107.542969 205.457031 107.640625 205.1875 107.761719 C 204.367188 108.144531 203.734375 108.890625 203.832031 109.792969 C 203.832031 109.765625 203.828125 109.847656 203.828125 109.875 C 203.835938 109.933594 203.839844 109.992188 203.851562 110.050781 C 203.875 110.214844 203.90625 110.382812 203.9375 110.550781 C 204.027344 111.042969 204.152344 111.527344 204.265625 112.015625 C 204.601562 113.464844 204.992188 114.894531 205.441406 116.316406 C 205.40625 116.34375 205.464844 116.480469 205.46875 116.507812 C 205.519531 116.734375 205.570312 116.964844 205.613281 117.191406 C 205.785156 118.085938 205.976562 118.976562 206.125 119.875 C 206.457031 121.863281 206.660156 123.90625 206.367188 125.914062 C 206.296875 126.410156 206.152344 126.902344 205.839844 127.308594 C 205.734375 127.449219 205.511719 127.714844 205.3125 127.539062 C 205.058594 127.3125 205.414062 126.546875 205.449219 126.269531 C 205.601562 125.023438 205.6875 123.773438 205.546875 122.515625 C 205.414062 121.332031 205 119.886719 204.71875 118.726562 C 204.578125 118.148438 204.367188 117.539062 204.214844 116.960938 C 203.859375 115.648438 203.546875 114.332031 203.246094 113.007812 C 202.921875 111.5625 202.445312 109.917969 202.839844 108.441406 C 202.847656 108.40625 202.875 108.320312 202.886719 108.285156 C 202.945312 108.132812 203.003906 107.980469 203.0625 107.832031 C 203.222656 107.429688 203.414062 107.042969 203.6875 106.699219 C 204.675781 105.449219 206.417969 104.984375 207.960938 104.761719 C 207.96875 104.785156 207.933594 104.730469 207.917969 104.714844 C 207.886719 104.679688 207.855469 104.644531 207.824219 104.609375 C 207.734375 104.507812 207.648438 104.410156 207.554688 104.316406 C 207.269531 104.023438 206.964844 103.777344 206.550781 103.683594 C 206.105469 103.585938 205.523438 103.734375 205.207031 104.054688 C 204.941406 104.316406 204.632812 104.960938 204.507812 105.300781 Z M 204.507812 105.300781 " fill-opacity="1" fill-rule="evenodd"/><path fill="#000000" d="M 233.6875 47.382812 L 236.753906 43.339844 L 241.753906 47.464844 L 238.808594 51.546875 Z M 233.6875 47.382812 " fill-opacity="1" fill-rule="evenodd"/><path fill="#000000" d="M 143.28125 74.230469 L 146.347656 70.1875 L 151.347656 74.3125 L 148.402344 78.394531 Z M 143.28125 74.230469 " fill-opacity="1" fill-rule="evenodd"/><path fill="#000000" d="M 128.839844 75.316406 L 131.90625 71.273438 L 136.90625 75.398438 L 133.964844 79.484375 Z M 128.839844 75.316406 " fill-opacity="1" fill-rule="evenodd"/><path fill="#000000" d="M 82.566406 91.597656 L 85.632812 87.558594 L 90.632812 91.683594 L 87.6875 95.765625 Z M 82.566406 91.597656 " fill-opacity="1" fill-rule="evenodd"/><path fill="#000000" d="M 102.167969 112.578125 L 105.234375 108.535156 L 110.234375 112.660156 L 107.292969 116.746094 Z M 102.167969 112.578125 " fill-opacity="1" fill-rule="evenodd"/><path fill="#000000" d="M 110.234375 112.578125 L 113.300781 108.535156 L 118.300781 112.660156 L 115.355469 116.746094 Z M 110.234375 112.578125 " fill-opacity="1" fill-rule="evenodd"/><path fill="#000000" d="M 303.070312 80.625 C 303.15625 80.597656 303.492188 79.925781 303.558594 79.824219 C 304.101562 79.003906 304.628906 78.164062 305.210938 77.371094 C 305.339844 77.1875 305.667969 76.523438 305.9375 76.535156 C 306.230469 76.546875 306.261719 77.535156 306.292969 77.738281 C 306.519531 79.160156 306.699219 80.605469 306.726562 82.050781 C 306.765625 84.761719 306.527344 88.347656 304.25 90.117188 C 300.667969 92.90625 295.679688 88.945312 295.679688 84.703125 C 295.6875 84.707031 294.875 85.871094 294.828125 85.960938 C 294.054688 87.363281 293.542969 88.910156 292.746094 90.296875 C 290.726562 93.8125 285.945312 95.335938 282.902344 92.175781 C 281.257812 90.472656 280.683594 87.5 280.78125 85.144531 C 279.984375 86.429688 279.074219 87.699219 277.921875 88.667969 C 277.71875 88.835938 276.335938 89.523438 276.335938 89.523438 C 276.335938 89.523438 276.585938 90.683594 276.628906 91.140625 C 276.734375 92.328125 276.863281 93.453125 276.734375 94.742188 C 276.71875 94.871094 276.617188 95.238281 276.582031 95.332031 C 276.347656 95.9375 276.007812 96.53125 275.652344 97.0625 C 274.054688 99.4375 271.941406 101.539062 269.949219 103.539062 C 268.890625 104.597656 267.8125 105.644531 266.6875 106.625 C 261.5 111.136719 253.828125 116.203125 247 112.265625 C 246.027344 111.707031 245.167969 110.960938 244.441406 110.082031 C 243.523438 108.964844 242.820312 107.667969 242.359375 106.277344 C 241.191406 102.738281 241.285156 98.804688 242.179688 95.214844 C 242.503906 93.925781 242.910156 92.621094 243.53125 91.453125 C 243.570312 91.386719 244.21875 90.289062 244.339844 90.523438 C 244.5 90.828125 244.152344 91.601562 244.074219 91.890625 C 243.730469 93.203125 243.367188 94.503906 243.183594 95.851562 C 242.578125 100.261719 242.929688 105.0625 246.734375 107.746094 C 247.34375 108.175781 248.015625 108.535156 248.710938 108.785156 C 251.203125 109.679688 253.925781 109.289062 256.390625 108.507812 C 261.566406 106.863281 266.078125 102.933594 270.179688 99.375 C 271.203125 98.488281 272.195312 97.570312 273.1875 96.644531 C 273.835938 96.035156 274.601562 95.402344 275.019531 94.582031 C 275.585938 93.472656 274.804688 90.464844 274.804688 90.464844 C 274.804688 90.464844 273.941406 90.996094 273.871094 91.03125 C 272.917969 91.488281 272.289062 91.6875 271.277344 91.988281 C 268.230469 92.886719 264.152344 92.773438 262.816406 89.136719 C 261.632812 85.914062 263.570312 82.09375 265.679688 79.816406 C 266.476562 78.957031 267.710938 77.722656 268.980469 77.914062 C 272.511719 78.445312 274.125 82.488281 275.585938 85.339844 C 275.582031 85.335938 275.808594 85.257812 275.867188 85.226562 C 276.089844 85.109375 276.300781 84.96875 276.507812 84.824219 C 277.097656 84.410156 277.675781 83.976562 278.242188 83.53125 C 279.320312 82.679688 280.289062 81.714844 281.308594 80.792969 C 281.464844 80.648438 282.066406 79.9375 282.324219 80.058594 C 282.460938 80.121094 282.457031 80.445312 282.46875 80.566406 C 282.519531 81.097656 282.46875 81.632812 282.464844 82.164062 C 282.457031 83.914062 282.742188 85.703125 283.796875 87.121094 C 285.402344 89.269531 288.367188 89.007812 290.40625 87.683594 C 293.53125 85.652344 294.535156 82.015625 296.054688 78.765625 C 296.109375 78.648438 296.25 79.199219 296.261719 79.234375 C 296.410156 79.835938 296.511719 80.445312 296.667969 81.046875 C 297.082031 82.652344 297.519531 84.527344 299.113281 85.261719 C 299.675781 85.523438 300.300781 85.585938 300.90625 85.585938 C 301.355469 85.589844 301.800781 85.550781 302.242188 85.453125 C 302.550781 85.382812 302.835938 85.273438 303.117188 85.117188 C 304.84375 84.167969 303.71875 82.066406 303.070312 80.625 Z M 271.242188 86.285156 C 270.175781 86.511719 268.648438 87.003906 267.542969 87.074219 C 267.117188 87.101562 266.589844 87.136719 266.210938 86.878906 C 265.804688 86.597656 265.804688 86.039062 265.933594 85.601562 C 266.203125 84.707031 266.847656 83.777344 267.683594 83.378906 C 269.058594 82.71875 270.519531 85.238281 271.242188 86.285156 Z M 271.242188 86.285156 " fill-opacity="1" fill-rule="evenodd"/><path fill="#000000" d="M 246.773438 80.035156 C 246.789062 80.042969 246.753906 80.148438 246.753906 80.15625 C 246.71875 80.300781 246.6875 80.441406 246.648438 80.585938 C 246.484375 81.246094 246.320312 81.90625 246.152344 82.570312 C 245.917969 83.484375 245.726562 84.40625 245.519531 85.328125 C 245.46875 85.5625 245.417969 85.800781 245.355469 86.03125 C 245.339844 86.085938 245.277344 86.226562 245.296875 86.285156 C 245.359375 86.457031 245.519531 86.605469 245.628906 86.734375 C 245.886719 87.023438 246.160156 87.285156 246.425781 87.5625 C 246.457031 87.523438 246.390625 87.65625 246.398438 87.703125 C 246.425781 87.847656 246.457031 87.988281 246.492188 88.125 C 246.585938 88.488281 246.695312 88.84375 246.8125 89.199219 C 247.171875 90.257812 247.542969 91.316406 247.925781 92.367188 C 249.078125 95.511719 250.695312 98.375 251.957031 101.457031 C 251.953125 101.449219 251.515625 101.875 251.484375 101.90625 C 251.203125 102.203125 250.9375 102.519531 250.664062 102.824219 C 249.84375 103.722656 248.945312 104.539062 248.054688 105.347656 C 245.183594 107.945312 242.46875 110.617188 239.183594 112.613281 C 238.320312 113.136719 237.464844 113.742188 236.570312 114.207031 C 234.425781 115.316406 231.992188 116.226562 229.609375 116.492188 C 228.808594 116.582031 228 116.585938 227.195312 116.476562 C 224.003906 116.046875 220.957031 114.1875 219.351562 111.125 C 218.890625 110.238281 218.570312 109.265625 218.355469 108.277344 C 217.707031 105.355469 217.996094 102.359375 218.472656 99.433594 C 218.910156 96.726562 219.648438 94.269531 220.554688 91.714844 C 220.722656 91.238281 221.453125 89.703125 220.617188 89.417969 C 220.578125 89.402344 220.402344 89.804688 220.390625 89.832031 C 220.148438 90.304688 219.9375 90.792969 219.726562 91.277344 C 218.835938 93.3125 217.976562 95.375 217.304688 97.503906 C 215.949219 101.824219 215.449219 106.472656 215.988281 111.003906 C 216.414062 114.5625 217.582031 117.753906 220.300781 119.972656 C 223.546875 122.621094 227.972656 123.136719 231.882812 122.09375 C 234.597656 121.367188 237.285156 119.855469 239.617188 118.214844 C 239.625 118.21875 240.917969 117.25 241.027344 117.164062 C 242.484375 116.027344 243.941406 114.882812 245.351562 113.675781 C 247.894531 111.496094 250.546875 109.078125 252.242188 106.046875 C 254.253906 102.453125 254.246094 97.84375 253.003906 93.992188 C 253.085938 94 252.949219 93.828125 252.914062 93.746094 C 252.835938 93.5625 252.75 93.382812 252.667969 93.199219 C 252.453125 92.710938 252.226562 92.230469 252.003906 91.75 C 251.339844 90.289062 250.511719 88.859375 249.988281 87.332031 C 249.863281 86.96875 250.089844 86.957031 250.410156 87.152344 C 250.804688 87.390625 251.160156 87.722656 251.578125 87.914062 C 251.726562 87.980469 251.960938 88.027344 252.023438 87.8125 C 252.15625 87.382812 251.777344 86.820312 251.578125 86.484375 C 250.925781 85.386719 247.660156 81.195312 246.773438 80.035156 Z M 246.773438 80.035156 " fill-opacity="1" fill-rule="evenodd"/><path fill="#000000" d="M 256.917969 70.664062 C 256.910156 70.648438 256.90625 70.703125 256.898438 70.722656 C 256.882812 70.769531 256.867188 70.816406 256.847656 70.859375 C 256.8125 70.941406 256.65625 71.433594 256.523438 71.398438 C 256.285156 71.332031 256.027344 70.929688 255.851562 70.78125 C 255.464844 70.449219 255.027344 70.15625 254.601562 69.863281 C 254.390625 69.714844 254.085938 69.570312 253.972656 69.339844 C 253.855469 69.101562 253.871094 68.804688 253.863281 68.550781 C 253.835938 67.796875 253.90625 66.363281 254.941406 66.109375 C 255.710938 65.925781 256.488281 66.433594 257.023438 66.859375 C 258.015625 67.648438 258.640625 68.75 259.144531 69.824219 C 259.789062 71.195312 260.296875 72.625 260.730469 74.0625 C 260.738281 74.097656 260.75 73.988281 260.757812 73.949219 C 260.777344 73.878906 260.792969 73.808594 260.808594 73.734375 C 260.855469 73.535156 260.898438 73.332031 260.9375 73.132812 C 261.0625 72.496094 261.183594 71.859375 261.34375 71.230469 C 261.765625 69.550781 262.265625 67.90625 263.183594 66.378906 C 263.578125 65.722656 264.210938 64.957031 265.164062 65.132812 C 265.707031 65.230469 265.988281 65.644531 266.300781 66.003906 C 266.699219 66.46875 267.21875 67.1875 267.15625 67.808594 C 267.121094 68.179688 266.902344 68.566406 266.742188 68.90625 C 266.605469 69.191406 266.453125 69.539062 266.1875 69.757812 C 265.949219 69.953125 265.640625 69.46875 265.535156 69.339844 C 265.1875 68.90625 264.421875 67.824219 263.730469 68.398438 C 263.324219 68.730469 263.125 69.238281 262.953125 69.695312 C 262.640625 70.523438 262.402344 71.378906 262.175781 72.230469 C 262.160156 72.292969 262.109375 72.480469 262.097656 72.535156 C 262.011719 72.859375 261.921875 73.183594 261.839844 73.507812 C 261.515625 74.78125 261.117188 76.046875 260.617188 77.273438 C 260.507812 77.546875 260.390625 77.824219 260.246094 78.085938 C 260.222656 78.128906 260.140625 78.328125 260.054688 78.308594 C 259.957031 78.285156 259.9375 78.015625 259.925781 77.949219 C 259.847656 77.597656 259.761719 77.246094 259.683594 76.890625 C 259.605469 76.515625 259.523438 76.140625 259.414062 75.769531 C 259.226562 75.132812 259.03125 74.492188 258.804688 73.863281 C 258.46875 72.925781 257.585938 71.203125 256.917969 70.664062 Z M 256.917969 70.664062 " fill-opacity="1" fill-rule="evenodd"/><path fill="#000000" d="M 253.277344 47.304688 C 253.269531 47.289062 253.265625 47.34375 253.257812 47.363281 C 253.242188 47.40625 253.226562 47.453125 253.207031 47.5 C 253.171875 47.582031 253.015625 48.074219 252.882812 48.039062 C 252.644531 47.972656 252.386719 47.570312 252.210938 47.421875 C 251.824219 47.089844 251.386719 46.796875 250.960938 46.503906 C 250.75 46.355469 250.445312 46.210938 250.332031 45.980469 C 250.214844 45.742188 250.230469 45.445312 250.222656 45.191406 C 250.195312 44.4375 250.265625 43.003906 251.300781 42.75 C 252.070312 42.566406 252.847656 43.074219 253.382812 43.5 C 254.375 44.289062 255 45.390625 255.503906 46.464844 C 256.148438 47.835938 256.65625 49.265625 257.089844 50.703125 C 257.097656 50.738281 257.109375 50.628906 257.121094 50.589844 C 257.136719 50.519531 257.152344 50.449219 257.167969 50.375 C 257.214844 50.175781 257.257812 49.972656 257.296875 49.773438 C 257.421875 49.136719 257.542969 48.5 257.703125 47.871094 C 258.125 46.1875 258.625 44.546875 259.542969 43.019531 C 259.9375 42.363281 260.570312 41.597656 261.523438 41.773438 C 262.066406 41.871094 262.347656 42.285156 262.660156 42.644531 C 263.058594 43.109375 263.578125 43.828125 263.515625 44.449219 C 263.480469 44.820312 263.261719 45.207031 263.101562 45.546875 C 262.964844 45.832031 262.8125 46.179688 262.546875 46.398438 C 262.308594 46.59375 262 46.109375 261.894531 45.980469 C 261.546875 45.546875 260.78125 44.464844 260.089844 45.039062 C 259.683594 45.371094 259.484375 45.878906 259.3125 46.335938 C 259 47.164062 258.761719 48.019531 258.539062 48.871094 C 258.519531 48.933594 258.46875 49.121094 258.457031 49.175781 C 258.375 49.5 258.28125 49.824219 258.199219 50.148438 C 257.875 51.421875 257.476562 52.6875 256.976562 53.914062 C 256.867188 54.1875 256.75 54.464844 256.605469 54.726562 C 256.582031 54.769531 256.5 54.96875 256.414062 54.949219 C 256.316406 54.925781 256.296875 54.65625 256.285156 54.589844 C 256.207031 54.238281 256.121094 53.886719 256.042969 53.53125 C 255.964844 53.15625 255.882812 52.78125 255.773438 52.410156 C 255.585938 51.773438 255.390625 51.128906 255.164062 50.503906 C 254.828125 49.566406 253.945312 47.84375 253.277344 47.304688 Z M 253.277344 47.304688 " fill-opacity="1" fill-rule="evenodd"/><path fill="#000000" d="M 137.070312 55.441406 C 137.0625 55.421875 137.058594 55.476562 137.054688 55.496094 C 137.035156 55.542969 137.019531 55.589844 137 55.636719 C 136.96875 55.71875 136.808594 56.210938 136.679688 56.171875 C 136.441406 56.105469 136.179688 55.707031 136.007812 55.558594 C 135.617188 55.226562 135.183594 54.929688 134.757812 54.636719 C 134.542969 54.488281 134.238281 54.34375 134.125 54.113281 C 134.011719 53.878906 134.023438 53.578125 134.015625 53.328125 C 133.988281 52.574219 134.058594 51.136719 135.097656 50.886719 C 135.863281 50.699219 136.644531 51.210938 137.175781 51.632812 C 138.167969 52.425781 138.796875 53.527344 139.300781 54.601562 C 139.941406 55.972656 140.453125 57.402344 140.882812 58.835938 C 140.894531 58.871094 140.90625 58.761719 140.914062 58.726562 C 140.929688 58.652344 140.949219 58.582031 140.964844 58.511719 C 141.007812 58.308594 141.050781 58.109375 141.089844 57.90625 C 141.21875 57.273438 141.335938 56.632812 141.496094 56.003906 C 141.921875 54.324219 142.421875 52.683594 143.339844 51.152344 C 143.734375 50.5 144.367188 49.734375 145.320312 49.90625 C 145.863281 50.007812 146.140625 50.417969 146.453125 50.78125 C 146.851562 51.242188 147.371094 51.960938 147.308594 52.582031 C 147.273438 52.957031 147.054688 53.339844 146.894531 53.679688 C 146.761719 53.96875 146.609375 54.316406 146.34375 54.53125 C 146.105469 54.726562 145.792969 54.242188 145.6875 54.113281 C 145.339844 53.683594 144.578125 52.597656 143.882812 53.171875 C 143.476562 53.507812 143.28125 54.015625 143.109375 54.46875 C 142.792969 55.300781 142.558594 56.152344 142.332031 57.003906 C 142.316406 57.070312 142.265625 57.253906 142.25 57.308594 C 142.167969 57.636719 142.078125 57.957031 141.996094 58.285156 C 141.671875 59.554688 141.269531 60.820312 140.773438 62.046875 C 140.660156 62.324219 140.546875 62.597656 140.402344 62.863281 C 140.375 62.90625 140.296875 63.101562 140.207031 63.082031 C 140.109375 63.0625 140.09375 62.789062 140.078125 62.726562 C 140.003906 62.371094 139.914062 62.019531 139.839844 61.667969 C 139.757812 61.292969 139.679688 60.914062 139.570312 60.546875 C 139.382812 59.90625 139.183594 59.265625 138.960938 58.636719 C 138.621094 57.699219 137.738281 55.976562 137.070312 55.441406 Z M 137.070312 55.441406 " fill-opacity="1" fill-rule="evenodd"/><path fill="#000000" d="M 248.609375 66.226562 C 248.664062 66.273438 248.730469 66.148438 248.792969 66.109375 C 249.015625 65.972656 249.234375 65.832031 249.457031 65.695312 C 250.367188 65.140625 251.277344 64.589844 252.207031 64.066406 C 256.132812 61.859375 260.351562 59.859375 264.59375 58.304688 C 265.742188 57.886719 266.886719 57.460938 268.042969 57.058594 C 268.304688 56.96875 268.570312 56.867188 268.835938 56.789062 C 268.855469 56.785156 269.070312 56.714844 269.085938 56.753906 C 269.113281 56.816406 268.96875 57 268.941406 57.046875 C 268.78125 57.316406 268.621094 57.585938 268.464844 57.855469 C 268.21875 58.269531 268.058594 58.886719 267.742188 59.246094 C 267.582031 59.425781 267.074219 59.511719 266.863281 59.597656 C 266.164062 59.882812 265.46875 60.175781 264.777344 60.476562 C 260.394531 62.363281 256.113281 64.484375 251.824219 66.5625 C 250.808594 67.058594 249.777344 67.539062 248.78125 68.070312 C 248.648438 68.144531 247.953125 68.640625 247.785156 68.550781 C 247.667969 68.488281 247.78125 68.175781 247.804688 68.09375 C 247.941406 67.648438 248.421875 66.652344 248.609375 66.226562 Z M 248.609375 66.226562 " fill-opacity="1" fill-rule="evenodd"/><path fill="#000000" d="M 162.699219 57.78125 C 162.761719 57.828125 162.835938 57.699219 162.90625 57.664062 C 163.164062 57.527344 163.417969 57.386719 163.675781 57.25 C 164.722656 56.695312 165.773438 56.144531 166.84375 55.621094 C 171.375 53.410156 176.238281 51.414062 181.132812 49.859375 C 182.457031 49.441406 183.78125 49.015625 185.109375 48.613281 C 185.414062 48.523438 185.71875 48.421875 186.027344 48.34375 C 186.046875 48.339844 186.296875 48.269531 186.316406 48.308594 C 186.347656 48.371094 186.179688 48.550781 186.148438 48.601562 C 185.964844 48.871094 185.777344 49.140625 185.597656 49.410156 C 185.316406 49.824219 185.128906 50.441406 184.765625 50.800781 C 184.582031 50.980469 183.996094 51.066406 183.75 51.152344 C 182.945312 51.4375 182.144531 51.730469 181.347656 52.03125 C 176.292969 53.917969 171.351562 56.039062 166.40625 58.117188 C 165.230469 58.613281 164.046875 59.09375 162.894531 59.625 C 162.742188 59.695312 161.9375 60.195312 161.746094 60.105469 C 161.609375 60.042969 161.742188 59.730469 161.769531 59.648438 C 161.925781 59.203125 162.480469 58.207031 162.699219 57.78125 Z M 162.699219 57.78125 " fill-opacity="1" fill-rule="evenodd"/><path fill="#000000" d="M 129.855469 116.214844 C 129.917969 116.261719 129.992188 116.132812 130.0625 116.097656 C 130.320312 115.960938 130.574219 115.820312 130.832031 115.683594 C 131.878906 115.125 132.929688 114.578125 134.003906 114.054688 C 138.53125 111.84375 143.394531 109.84375 148.292969 108.292969 C 149.613281 107.875 150.9375 107.449219 152.265625 107.046875 C 152.570312 106.957031 152.875 106.855469 153.183594 106.777344 C 153.203125 106.773438 153.453125 106.703125 153.472656 106.742188 C 153.503906 106.800781 153.339844 106.984375 153.304688 107.035156 C 153.121094 107.304688 152.9375 107.570312 152.753906 107.84375 C 152.472656 108.257812 152.285156 108.871094 151.921875 109.234375 C 151.738281 109.414062 151.152344 109.5 150.90625 109.585938 C 150.101562 109.867188 149.300781 110.164062 148.503906 110.460938 C 143.449219 112.351562 138.507812 114.472656 133.5625 116.550781 C 132.390625 117.046875 131.203125 117.527344 130.050781 118.058594 C 129.898438 118.128906 129.09375 118.628906 128.902344 118.539062 C 128.765625 118.476562 128.898438 118.164062 128.925781 118.082031 C 129.082031 117.636719 129.636719 116.640625 129.855469 116.214844 Z M 129.855469 116.214844 " fill-opacity="1" fill-rule="evenodd"/><path fill="#000000" d="M 154.488281 118.019531 C 154.550781 118.066406 154.628906 117.941406 154.699219 117.902344 C 154.957031 117.765625 155.210938 117.625 155.464844 117.488281 C 156.515625 116.933594 157.5625 116.382812 158.636719 115.859375 C 163.164062 113.652344 168.03125 111.652344 172.925781 110.097656 C 174.25 109.679688 175.570312 109.253906 176.902344 108.851562 C 177.207031 108.761719 177.507812 108.660156 177.820312 108.582031 C 177.839844 108.578125 178.085938 108.507812 178.105469 108.546875 C 178.136719 108.609375 177.972656 108.792969 177.941406 108.839844 C 177.757812 109.109375 177.570312 109.378906 177.386719 109.648438 C 177.109375 110.0625 176.921875 110.679688 176.554688 111.039062 C 176.371094 111.21875 175.789062 111.304688 175.542969 111.390625 C 174.738281 111.675781 173.933594 111.96875 173.136719 112.269531 C 168.082031 114.15625 163.144531 116.277344 158.199219 118.355469 C 157.023438 118.851562 155.835938 119.332031 154.6875 119.863281 C 154.535156 119.9375 153.730469 120.433594 153.539062 120.34375 C 153.402344 120.28125 153.53125 119.96875 153.5625 119.886719 C 153.714844 119.441406 154.273438 118.445312 154.488281 118.019531 Z M 154.488281 118.019531 " fill-opacity="1" fill-rule="evenodd"/><path fill="#000000" d="M 284.039062 78.546875 C 283.964844 78.429688 284.296875 78.125 284.332031 78.097656 C 284.738281 77.78125 285.164062 77.488281 285.585938 77.195312 C 287.296875 76.003906 289.109375 74.964844 290.832031 73.792969 C 293.863281 71.726562 296.660156 69.261719 299.332031 66.777344 C 300.726562 65.476562 302.324219 64.25 303.441406 62.695312 C 303.300781 62.476562 303.042969 62.304688 302.851562 62.128906 C 302.40625 61.730469 301.945312 61.347656 301.496094 60.949219 C 301.242188 60.726562 300.957031 60.515625 300.820312 60.199219 C 300.695312 59.917969 300.703125 59.597656 300.738281 59.296875 C 300.9375 57.691406 302.125 56.019531 303.480469 55.121094 C 304.292969 54.582031 305.453125 54.441406 306.136719 55.257812 C 307.214844 56.546875 306.695312 58.367188 306.164062 59.777344 C 306.050781 60.078125 305.917969 60.367188 305.78125 60.660156 C 305.726562 60.777344 305.605469 60.941406 305.59375 61.070312 C 305.582031 61.21875 305.929688 61.40625 306.023438 61.484375 C 306.363281 61.769531 306.742188 62.144531 306.898438 62.5625 C 307.101562 63.105469 306.667969 63.820312 306.421875 64.285156 C 306.351562 64.414062 306.179688 64.796875 305.976562 64.746094 C 305.753906 64.695312 305.53125 64.464844 305.375 64.316406 C 305.03125 63.984375 304.71875 63.613281 304.363281 63.289062 C 304.367188 63.28125 304.203125 63.46875 304.175781 63.503906 C 304.039062 63.667969 303.902344 63.832031 303.761719 63.992188 C 303.367188 64.453125 302.988281 64.925781 302.605469 65.394531 C 301.484375 66.753906 300.292969 68.078125 298.988281 69.277344 C 295.957031 72.050781 292.433594 74.269531 288.78125 76.171875 C 287.835938 76.664062 286.890625 77.148438 285.933594 77.609375 C 285.402344 77.863281 284.191406 78.789062 284.039062 78.546875 Z M 304.988281 60.566406 C 304.992188 60.570312 305.03125 60.386719 305.035156 60.375 C 305.082031 60.152344 305.128906 59.929688 305.152344 59.703125 C 305.25 58.894531 305.152344 57.839844 304.503906 57.253906 C 303.984375 56.78125 303.242188 56.835938 302.757812 57.335938 C 302.574219 57.527344 302.421875 57.769531 302.464844 58.042969 C 302.515625 58.378906 302.785156 58.667969 303.015625 58.902344 C 303.453125 59.351562 304.511719 60.160156 304.988281 60.566406 Z M 304.988281 60.566406 " fill-opacity="1" fill-rule="evenodd"/><path fill="#000000" d="M 225.832031 65.0625 C 225.832031 65.042969 225.820312 64.800781 225.824219 64.730469 C 225.851562 64.464844 225.886719 64.203125 225.917969 63.9375 C 225.996094 63.238281 226.039062 62.53125 226.140625 61.835938 C 226.1875 61.523438 226.222656 61.109375 226.621094 61.238281 C 227.238281 61.433594 227.808594 61.882812 228.363281 62.214844 C 229.347656 62.808594 230.328125 63.414062 231.332031 63.96875 C 231.730469 64.1875 232.136719 64.398438 232.53125 64.625 C 232.605469 64.667969 232.839844 64.761719 232.828125 64.878906 C 232.8125 65.039062 232.453125 65.046875 232.351562 65.054688 C 232.105469 65.078125 230.988281 64.988281 230.863281 65.222656 C 230.648438 65.628906 231.3125 66.441406 231.5 66.730469 C 232.382812 68.070312 233.472656 69.238281 234.648438 70.300781 C 234.675781 70.296875 234.992188 69.683594 235.027344 69.628906 C 235.429688 69.003906 235.84375 68.382812 236.253906 67.757812 C 237.71875 65.523438 239.238281 63.308594 240.820312 61.15625 C 241.199219 60.640625 241.589844 60.125 241.992188 59.625 C 242.121094 59.464844 242.296875 59.195312 242.519531 59.164062 C 242.855469 59.113281 242.675781 60.257812 242.652344 60.429688 C 242.5 61.769531 241.644531 63.027344 240.988281 64.144531 C 240.382812 65.179688 239.757812 66.195312 239.117188 67.203125 C 238.121094 68.773438 237.128906 70.355469 236.097656 71.90625 C 236.496094 72.230469 236.890625 72.917969 237.25 73.324219 C 238.179688 74.367188 239.425781 75.507812 239.902344 76.878906 C 240.304688 78.039062 240.707031 79.101562 240.828125 80.316406 C 240.964844 81.71875 240.6875 83.421875 240.203125 84.769531 C 239.355469 87.125 237.128906 89.226562 235.136719 90.539062 C 233.558594 91.574219 231.335938 92.574219 229.429688 92.308594 C 226.832031 91.945312 226.777344 87.941406 226.886719 85.914062 C 226.917969 85.417969 226.964844 84.925781 227.046875 84.4375 C 227.160156 83.757812 227.320312 83.089844 227.519531 82.433594 C 227.742188 81.703125 228.011719 80.988281 228.316406 80.289062 C 229.375 77.894531 230.75 75.652344 232.339844 73.609375 C 230.238281 71.667969 228.824219 68.949219 227.210938 66.59375 C 227.070312 66.386719 226.902344 66.207031 226.644531 66.253906 C 226.578125 66.265625 226.121094 66.386719 225.964844 66.136719 C 225.773438 65.84375 225.886719 65.167969 225.832031 65.0625 Z M 234.085938 75.804688 C 233.9375 75.800781 233.648438 76.199219 233.554688 76.289062 C 233.050781 76.789062 232.578125 77.328125 232.109375 77.863281 C 231.742188 78.277344 231.390625 78.703125 231.050781 79.140625 C 230.757812 79.519531 230.46875 79.90625 230.199219 80.304688 C 229.09375 81.9375 227.53125 85.027344 229.664062 86.503906 C 231.890625 88.046875 234.746094 86.109375 236.488281 84.644531 C 237.332031 83.9375 238.199219 83.148438 238.351562 81.960938 C 238.457031 81.144531 238.144531 80.40625 237.746094 79.722656 C 237.003906 78.449219 235.136719 76.800781 234.085938 75.804688 Z M 225.832031 65.0625 L 225.832031 65.058594 C 225.832031 65.0625 225.832031 65.0625 225.832031 65.0625 Z M 225.832031 65.0625 " fill-opacity="1" fill-rule="evenodd"/><path fill="#000000" d="M 225.625 47.382812 L 228.691406 43.339844 L 233.691406 47.464844 L 230.746094 51.546875 Z M 225.625 47.382812 " fill-opacity="1" fill-rule="evenodd"/><path fill="#000000" d="M 302.773438 94.5625 C 302.742188 94.484375 302.90625 94.148438 302.929688 94.070312 C 303.101562 93.542969 303.265625 93.019531 303.472656 92.507812 C 303.5 92.433594 303.644531 91.953125 303.753906 91.96875 C 303.804688 91.976562 303.84375 92.09375 303.863281 92.140625 C 303.953125 92.339844 304.042969 92.53125 304.128906 92.730469 C 304.546875 93.691406 304.597656 94.832031 304.46875 95.875 C 304.328125 97.039062 303.832031 98.238281 302.859375 98.804688 C 301.4375 99.636719 299.710938 98.464844 299.277344 96.882812 C 298.632812 97.246094 298.355469 98.203125 297.941406 98.925781 C 297.476562 99.738281 296.789062 100.285156 295.929688 100.457031 C 294.515625 100.734375 293.480469 99.578125 292.195312 99.207031 C 291.472656 98.996094 290.738281 99.191406 290.074219 99.542969 C 288.574219 100.339844 287.234375 101.5625 285.898438 102.652344 C 282.59375 105.355469 279.535156 108.421875 276.207031 111.078125 C 273.414062 113.304688 270.238281 114.652344 266.867188 115.527344 C 266.011719 115.75 265.152344 115.980469 264.285156 116.152344 C 264.203125 116.167969 263.542969 116.328125 263.527344 116.144531 C 263.507812 115.945312 263.902344 115.738281 264.015625 115.664062 C 264.515625 115.3125 265.027344 114.984375 265.542969 114.667969 C 267.730469 113.328125 269.980469 112.117188 272.171875 110.78125 C 276.363281 108.234375 280.296875 105.007812 284.136719 101.847656 C 286.203125 100.140625 288.269531 97.730469 290.800781 96.921875 C 292.800781 96.285156 294.453125 97.257812 296.429688 97.21875 C 296.429688 97.210938 296.683594 97.140625 296.695312 97.132812 C 296.851562 97.070312 297 96.992188 297.140625 96.894531 C 297.605469 96.574219 298.035156 96.164062 298.40625 95.710938 C 298.726562 95.316406 298.96875 94.867188 299.238281 94.433594 C 299.394531 94.175781 299.558594 93.929688 299.722656 93.683594 C 299.835938 93.515625 299.949219 93.339844 300.066406 93.171875 C 300.109375 93.113281 300.550781 92.488281 300.65625 92.683594 C 300.753906 92.863281 300.496094 93.421875 300.441406 93.589844 C 300.230469 94.253906 300.027344 94.972656 300.480469 95.566406 C 301.136719 96.433594 304.105469 96.832031 302.773438 94.5625 Z M 302.773438 94.5625 " fill-opacity="1" fill-rule="evenodd"/><path fill="#000000" d="M 231.667969 94.761719 C 231.679688 94.730469 231.566406 94.890625 231.558594 94.910156 C 231.480469 95.042969 231.40625 95.171875 231.332031 95.304688 C 231.121094 95.675781 230.921875 96.054688 230.726562 96.4375 C 230.167969 97.523438 229.632812 98.621094 229.132812 99.734375 C 227.707031 102.921875 226.167969 106.351562 226.613281 109.945312 C 226.730469 110.898438 227.015625 111.898438 227.585938 112.675781 C 227.804688 112.972656 228.082031 113.324219 228.453125 113.414062 C 229.128906 113.582031 229.832031 112.921875 230.246094 112.46875 C 231.234375 111.378906 231.871094 109.960938 232.277344 108.550781 C 232.410156 108.101562 232.640625 107.378906 232.457031 106.914062 C 232.269531 106.441406 231.71875 107.394531 231.632812 107.535156 C 231.136719 108.347656 230.328125 109.855469 229.210938 108.847656 C 229.0625 108.710938 228.941406 108.539062 228.847656 108.355469 C 228.292969 107.304688 228.476562 105.960938 228.691406 104.84375 C 229.078125 102.808594 229.945312 100.953125 230.769531 99.074219 C 231.28125 97.921875 232.617188 95.203125 231.667969 94.761719 Z M 231.667969 94.761719 " fill-opacity="1" fill-rule="evenodd"/><path fill="#000000" d="M 197.902344 66.039062 C 197.914062 66.007812 197.800781 66.171875 197.792969 66.1875 C 197.714844 66.320312 197.640625 66.453125 197.566406 66.585938 C 197.355469 66.957031 197.15625 67.335938 196.960938 67.714844 C 196.402344 68.800781 195.867188 69.898438 195.367188 71.011719 C 193.941406 74.203125 192.402344 77.628906 192.847656 81.222656 C 192.964844 82.175781 193.25 83.175781 193.820312 83.957031 C 194.039062 84.253906 194.316406 84.601562 194.6875 84.695312 C 195.363281 84.859375 196.066406 84.199219 196.480469 83.75 C 197.46875 82.660156 198.105469 81.238281 198.511719 79.828125 C 198.644531 79.378906 198.875 78.660156 198.691406 78.191406 C 198.503906 77.71875 197.953125 78.671875 197.867188 78.8125 C 197.371094 79.625 196.5625 81.136719 195.445312 80.125 C 195.296875 79.988281 195.175781 79.816406 195.082031 79.636719 C 194.527344 78.582031 194.710938 77.238281 194.925781 76.121094 C 195.3125 74.089844 196.179688 72.230469 197.003906 70.351562 C 197.515625 69.199219 198.851562 66.480469 197.902344 66.039062 Z M 197.902344 66.039062 " fill-opacity="1" fill-rule="evenodd"/><path fill="#000000" d="M 280.984375 53.269531 C 281.09375 53.328125 281.617188 53.191406 281.75 53.1875 C 282.429688 53.152344 283.109375 53.132812 283.789062 53.140625 C 285.917969 53.160156 288.035156 53.363281 290.132812 53.726562 C 291.085938 53.890625 292.777344 54.03125 292.878906 55.246094 C 292.796875 55.207031 292.863281 55.425781 292.84375 55.511719 C 292.800781 55.675781 292.75 55.839844 292.699219 56 C 292.546875 56.484375 292.308594 56.933594 292.070312 57.378906 C 291.355469 58.703125 290.328125 59.878906 289.359375 61.03125 C 288.574219 61.964844 287.753906 62.859375 286.910156 63.746094 C 286.523438 64.152344 286.101562 64.730469 285.589844 65 C 285.0625 65.273438 284.332031 65.304688 283.753906 65.402344 C 282.699219 65.578125 281.652344 65.78125 280.605469 65.992188 C 279.71875 66.171875 278.839844 66.363281 277.945312 66.511719 C 277.632812 66.5625 277.171875 66.699219 276.855469 66.59375 C 276.519531 66.480469 277.222656 66.042969 277.300781 65.996094 C 278.117188 65.535156 278.992188 65.164062 279.832031 64.746094 C 281.859375 63.742188 283.851562 62.625 285.769531 61.4375 C 286.242188 61.144531 286.71875 60.851562 287.199219 60.574219 C 287.265625 60.535156 287.644531 60.386719 287.660156 60.296875 C 287.710938 60.007812 286.832031 59.800781 286.675781 59.753906 C 285.453125 59.394531 284.128906 59.339844 282.859375 59.34375 C 281.464844 59.347656 280.074219 59.46875 278.699219 59.699219 C 278.355469 59.757812 278.011719 59.84375 277.667969 59.886719 C 277.582031 59.898438 277.390625 59.9375 277.335938 59.839844 C 277.25 59.699219 277.367188 59.414062 277.425781 59.289062 C 277.644531 58.816406 277.90625 58.359375 278.179688 57.917969 C 278.4375 57.5 278.691406 57.082031 278.941406 56.664062 C 279.355469 55.980469 280.570312 53.957031 280.984375 53.269531 Z M 280.984375 53.269531 " fill-opacity="1" fill-rule="evenodd"/><path fill="#000000" d="M 104.691406 62.011719 C 104.800781 62.070312 105.324219 61.933594 105.457031 61.929688 C 106.136719 61.894531 106.816406 61.878906 107.496094 61.882812 C 109.628906 61.902344 111.746094 62.105469 113.839844 62.46875 C 114.796875 62.632812 116.484375 62.773438 116.585938 63.988281 C 116.503906 63.949219 116.570312 64.167969 116.550781 64.253906 C 116.507812 64.417969 116.457031 64.582031 116.40625 64.742188 C 116.253906 65.226562 116.015625 65.675781 115.777344 66.121094 C 115.0625 67.445312 114.035156 68.621094 113.066406 69.773438 C 112.28125 70.707031 111.460938 71.601562 110.621094 72.488281 C 110.230469 72.894531 109.8125 73.476562 109.296875 73.742188 C 108.773438 74.015625 108.039062 74.046875 107.464844 74.144531 C 106.40625 74.320312 105.359375 74.523438 104.3125 74.734375 C 103.425781 74.914062 102.546875 75.105469 101.65625 75.253906 C 101.339844 75.304688 100.882812 75.441406 100.5625 75.335938 C 100.226562 75.222656 100.929688 74.785156 101.011719 74.738281 C 101.824219 74.277344 102.699219 73.90625 103.539062 73.488281 C 105.566406 72.484375 107.558594 71.367188 109.476562 70.179688 C 109.949219 69.886719 110.425781 69.59375 110.90625 69.316406 C 110.972656 69.277344 111.351562 69.128906 111.367188 69.039062 C 111.417969 68.75 110.539062 68.542969 110.382812 68.496094 C 109.160156 68.136719 107.835938 68.082031 106.566406 68.085938 C 105.175781 68.089844 103.78125 68.210938 102.40625 68.441406 C 102.0625 68.5 101.722656 68.585938 101.375 68.628906 C 101.289062 68.640625 101.101562 68.679688 101.042969 68.582031 C 100.957031 68.445312 101.074219 68.15625 101.132812 68.03125 C 101.351562 67.558594 101.613281 67.105469 101.890625 66.660156 C 102.148438 66.242188 102.398438 65.828125 102.652344 65.40625 C 103.0625 64.722656 104.28125 62.699219 104.691406 62.011719 Z M 104.691406 62.011719 " fill-opacity="1" fill-rule="evenodd"/><g clip-path="url(#106f0f592e)"><path fill="#000000" d="M 340.121094 59.230469 C 340.289062 58.503906 339.84375 57.535156 339.636719 56.84375 C 339.003906 54.675781 338.054688 52.589844 337.058594 50.523438 C 334.460938 45.128906 330.703125 40.277344 326.265625 35.863281 C 323.15625 32.773438 319.667969 29.785156 315.527344 27.699219 C 311.628906 25.734375 307.261719 24.40625 302.914062 23.371094 C 301.539062 23.042969 300.160156 22.746094 298.75 22.527344 C 298.152344 22.433594 297.546875 22.300781 296.933594 22.253906 C 296.917969 22.253906 296.441406 22.25 296.453125 22.28125 C 296.695312 22.804688 298.652344 23.59375 299.160156 23.917969 C 301.480469 25.394531 303.675781 27.015625 305.707031 28.777344 C 311.636719 33.925781 316.753906 39.898438 320.851562 46.214844 C 322.824219 49.261719 324.550781 52.457031 325.898438 55.746094 C 326.320312 56.785156 326.699219 57.835938 327.011719 58.902344 C 327.148438 59.351562 327.15625 60.109375 327.46875 60.496094 C 328.035156 61.199219 329.273438 61.601562 330.125 61.96875 C 331.507812 62.5625 334.148438 63.992188 334.148438 63.992188 C 334.148438 63.992188 335.605469 63.171875 336.1875 62.804688 C 337.460938 61.984375 339.238281 60.378906 340.121094 59.230469 Z M 340.121094 59.230469 " fill-opacity="1" fill-rule="evenodd"/></g><path fill="#000000" d="M 340.121094 78.183594 C 340.289062 78.914062 339.84375 79.878906 339.636719 80.570312 C 339.003906 82.738281 338.054688 84.828125 337.058594 86.890625 C 334.460938 92.285156 330.703125 97.136719 326.265625 101.550781 C 323.15625 104.644531 319.667969 107.628906 315.527344 109.71875 C 311.628906 111.679688 307.261719 113.007812 302.914062 114.042969 C 301.539062 114.371094 300.160156 114.667969 298.75 114.886719 C 298.152344 114.980469 297.546875 115.113281 296.933594 115.160156 C 296.917969 115.160156 296.441406 115.164062 296.453125 115.132812 C 296.695312 114.609375 298.652344 113.820312 299.160156 113.496094 C 301.480469 112.019531 303.675781 110.398438 305.707031 108.636719 C 311.636719 103.488281 316.753906 97.515625 320.851562 91.199219 C 322.824219 88.15625 324.550781 84.957031 325.898438 81.667969 C 326.320312 80.628906 326.699219 79.578125 327.011719 78.511719 C 327.148438 78.0625 327.15625 77.304688 327.46875 76.917969 C 328.035156 76.21875 329.273438 75.8125 330.125 75.445312 C 331.507812 74.851562 334.148438 73.425781 334.148438 73.425781 C 334.148438 73.425781 335.605469 74.242188 336.1875 74.613281 C 337.460938 75.429688 339.238281 77.039062 340.121094 78.183594 Z M 340.121094 78.183594 " fill-opacity="1" fill-rule="evenodd"/><path fill="#000000" d="M 349.941406 62.984375 L 349.890625 62.960938 C 349.621094 62.871094 349.378906 62.792969 349.300781 62.75 C 348.167969 62.179688 347.273438 61.378906 346.585938 60.429688 C 345.753906 59.289062 345.359375 58 344.824219 56.75 C 344.230469 55.382812 343.464844 54.027344 342.402344 52.882812 C 341.664062 52.089844 340.820312 51.355469 339.898438 50.726562 C 339.597656 50.523438 339.292969 50.332031 338.972656 50.148438 C 338.949219 50.136719 338.636719 49.964844 338.476562 49.855469 C 338.386719 49.792969 338.328125 49.734375 338.292969 49.699219 C 338.183594 49.570312 338.183594 49.445312 338.195312 49.367188 C 338.214844 49.253906 338.269531 49.160156 338.367188 49.082031 C 338.503906 48.976562 338.78125 48.882812 339.132812 48.871094 C 339.609375 48.851562 340.277344 48.933594 340.488281 48.941406 C 342.664062 49.019531 344.777344 49.625 346.714844 50.449219 C 349.347656 51.566406 351.4375 53.324219 352.863281 55.511719 C 353.230469 56.066406 353.503906 56.699219 353.820312 57.3125 C 354.097656 57.863281 354.40625 58.398438 354.875 58.816406 C 355.273438 59.179688 355.796875 59.394531 356.332031 59.589844 C 356.960938 59.816406 357.613281 60.019531 358.175781 60.320312 C 359.839844 61.207031 360.949219 62.761719 361.734375 64.25 C 362.03125 64.820312 362.414062 65.5 362.4375 66.136719 C 362.445312 66.316406 362.324219 66.480469 362.128906 66.558594 C 360.519531 67.222656 358.851562 67.792969 357.199219 68.390625 C 356.785156 68.539062 356.285156 68.679688 355.824219 68.847656 C 356.148438 68.980469 356.46875 69.105469 356.792969 69.234375 C 358.027344 69.71875 359.273438 70.1875 360.5 70.695312 C 360.832031 70.832031 361.164062 70.972656 361.496094 71.113281 C 361.605469 71.160156 361.710938 71.207031 361.816406 71.257812 C 361.796875 71.25 361.757812 71.234375 361.757812 71.234375 C 361.757812 71.234375 362.007812 71.332031 362.078125 71.390625 C 362.222656 71.519531 362.277344 71.675781 362.203125 71.871094 C 361.433594 73.933594 359.949219 76.03125 358.011719 77.429688 C 356.710938 78.367188 355.117188 78.90625 354.023438 80.066406 C 353.128906 81.015625 352.671875 82.191406 352.003906 83.253906 C 351.1875 84.542969 350.128906 85.722656 348.796875 86.660156 C 347.027344 87.910156 345.035156 88.578125 342.761719 88.746094 C 342.070312 88.796875 341.378906 88.832031 340.6875 88.839844 C 340.4375 88.84375 340.183594 88.84375 339.925781 88.828125 C 339.886719 88.824219 339.800781 88.8125 339.726562 88.804688 C 339.566406 88.828125 339.402344 88.792969 339.277344 88.707031 C 339.070312 88.558594 339.066406 88.40625 339.070312 88.332031 C 339.070312 88.15625 339.15625 87.988281 339.417969 87.902344 C 339.464844 87.886719 339.539062 87.871094 339.628906 87.871094 C 342.753906 87.023438 346.171875 84.871094 346.425781 81.878906 C 346.523438 80.761719 346.199219 79.699219 346.101562 78.59375 C 346.050781 77.984375 345.980469 77.296875 346.261719 76.714844 C 346.683594 75.832031 347.523438 75.277344 348.488281 74.859375 C 349.339844 74.492188 350.292969 74.234375 351.082031 73.890625 C 351.230469 73.824219 351.632812 73.675781 351.933594 73.484375 C 351.972656 73.460938 352.019531 73.425781 352.054688 73.394531 C 351.390625 72.851562 350.3125 72.503906 349.527344 72.171875 C 347.542969 71.332031 345.515625 70.558594 343.453125 69.855469 C 342.636719 69.578125 341.824219 69.28125 341 69.027344 C 340.875 68.988281 340.710938 68.917969 340.539062 68.863281 C 340.511719 68.851562 340.464844 68.839844 340.425781 68.832031 C 340.371094 68.882812 340.304688 68.945312 340.28125 68.964844 C 339.933594 69.277344 339.585938 69.59375 339.230469 69.902344 C 338.121094 70.863281 336.984375 71.800781 335.878906 72.761719 C 335.667969 72.941406 335.375 73.292969 335.0625 73.566406 C 334.769531 73.824219 334.449219 74.007812 334.160156 74.0625 C 333.96875 74.097656 333.695312 74.0625 333.398438 73.933594 C 333.035156 73.769531 332.582031 73.457031 332.40625 73.375 C 330.855469 72.675781 329.347656 71.90625 327.835938 71.148438 C 327 70.730469 326.183594 70.289062 325.316406 69.910156 C 325.128906 69.828125 324.710938 69.707031 324.429688 69.554688 C 324.214844 69.441406 324.058594 69.300781 323.980469 69.167969 C 323.882812 69 323.886719 68.828125 323.996094 68.65625 C 324.046875 68.570312 324.140625 68.476562 324.265625 68.398438 C 324.410156 68.304688 324.609375 68.222656 324.671875 68.1875 C 325.253906 67.894531 325.84375 67.601562 326.414062 67.289062 C 328.339844 66.242188 330.269531 65.203125 332.222656 64.195312 C 332.695312 63.953125 333.171875 63.714844 333.640625 63.460938 C 333.667969 63.441406 333.863281 63.339844 333.929688 63.304688 C 333.992188 63.238281 334.066406 63.1875 334.164062 63.15625 C 334.347656 63.09375 334.550781 63.117188 334.707031 63.222656 C 336.167969 64.242188 338.339844 65.835938 339.785156 66.875 C 340.148438 67.132812 340.527344 67.375 340.882812 67.640625 C 340.902344 67.660156 340.96875 67.707031 341.019531 67.75 C 341.058594 67.730469 341.097656 67.707031 341.136719 67.683594 C 341.320312 67.582031 341.507812 67.476562 341.652344 67.417969 C 342.636719 67.035156 343.570312 66.570312 344.503906 66.101562 C 345.371094 65.667969 346.171875 65.179688 346.953125 64.640625 C 347.792969 64.066406 348.710938 63.546875 349.65625 63.101562 C 349.71875 63.070312 349.828125 63.03125 349.941406 62.984375 Z M 340.328125 49.851562 C 340.371094 49.855469 340.414062 49.859375 340.449219 49.859375 C 342.464844 49.933594 344.429688 50.503906 346.226562 51.269531 C 348.671875 52.304688 350.601562 53.933594 351.929688 55.960938 C 352.652344 57.070312 353.046875 58.507812 354.09375 59.445312 C 354.59375 59.902344 355.234375 60.1875 355.902344 60.429688 C 356.484375 60.640625 357.085938 60.820312 357.605469 61.097656 C 359.085938 61.886719 360.050781 63.296875 360.746094 64.625 C 360.953125 65.003906 361.222656 65.441406 361.320312 65.875 C 359.828125 66.472656 358.296875 66.996094 356.777344 67.546875 C 356.023438 67.816406 355.035156 68.078125 354.371094 68.492188 C 354.203125 68.597656 354.15625 68.71875 354.144531 68.816406 C 354.128906 68.921875 354.148438 69.03125 354.222656 69.132812 C 354.269531 69.1875 354.34375 69.257812 354.464844 69.3125 C 354.511719 69.332031 354.640625 69.367188 354.675781 69.378906 C 354.800781 69.433594 354.921875 69.492188 355.046875 69.542969 C 355.46875 69.726562 355.902344 69.894531 356.335938 70.066406 C 357.570312 70.550781 358.8125 71.015625 360.027344 71.519531 C 360.359375 71.652344 360.683594 71.789062 361.003906 71.929688 L 361.039062 71.945312 C 360.296875 73.734375 358.992188 75.515625 357.316406 76.730469 C 355.960938 77.707031 354.320312 78.285156 353.183594 79.492188 C 352.25 80.484375 351.75 81.707031 351.046875 82.820312 C 350.304688 84.007812 349.328125 85.09375 348.113281 85.957031 C 346.511719 87.082031 344.714844 87.679688 342.664062 87.832031 C 342.566406 87.839844 342.464844 87.847656 342.367188 87.855469 C 345 86.605469 347.277344 84.535156 347.5 81.945312 C 347.605469 80.785156 347.277344 79.675781 347.175781 78.527344 C 347.136719 78.050781 347.039062 77.515625 347.257812 77.0625 C 347.582031 76.394531 348.242188 75.996094 348.980469 75.679688 C 349.832031 75.3125 350.792969 75.050781 351.574219 74.703125 C 351.84375 74.589844 352.710938 74.230469 353.011719 73.855469 C 353.140625 73.703125 353.203125 73.542969 353.203125 73.386719 C 353.203125 73.210938 353.140625 73.03125 352.949219 72.863281 C 352.21875 72.191406 350.941406 71.746094 350.007812 71.351562 C 347.992188 70.5 345.941406 69.71875 343.855469 69.003906 C 343.210938 68.785156 342.566406 68.554688 341.921875 68.339844 C 341.984375 68.304688 342.046875 68.273438 342.105469 68.25 C 343.113281 67.851562 344.085938 67.375 345.050781 66.894531 C 345.960938 66.433594 346.804688 65.921875 347.628906 65.355469 C 348.421875 64.8125 349.289062 64.324219 350.179688 63.902344 C 350.347656 63.824219 350.75 63.683594 350.992188 63.511719 C 351.207031 63.355469 351.328125 63.160156 351.339844 62.972656 C 351.351562 62.8125 351.277344 62.617188 351.042969 62.449219 C 350.75 62.25 350.003906 62.039062 349.847656 61.960938 C 348.871094 61.464844 348.101562 60.769531 347.5 59.949219 C 346.707031 58.859375 346.347656 57.625 345.832031 56.433594 C 345.207031 54.976562 344.378906 53.535156 343.246094 52.3125 C 342.457031 51.46875 341.554688 50.683594 340.566406 50.011719 C 340.488281 49.957031 340.40625 49.902344 340.328125 49.851562 Z M 334.351562 64.164062 C 335.792969 65.175781 337.75 66.613281 339.09375 67.574219 C 339.328125 67.742188 339.5625 67.902344 339.796875 68.066406 C 339.683594 68.15625 339.554688 68.285156 339.503906 68.335938 C 339.15625 68.644531 338.8125 68.953125 338.464844 69.261719 C 337.355469 70.222656 336.214844 71.15625 335.105469 72.117188 C 334.902344 72.300781 334.605469 72.652344 334.289062 72.925781 C 334.1875 73.019531 334.089844 73.109375 333.988281 73.148438 C 333.902344 73.113281 333.683594 73.011719 333.546875 72.933594 C 333.277344 72.78125 333.035156 72.621094 332.90625 72.5625 C 331.371094 71.871094 329.878906 71.105469 328.382812 70.359375 C 327.527344 69.933594 326.691406 69.480469 325.808594 69.09375 C 325.699219 69.046875 325.523438 68.988281 325.332031 68.921875 C 325.894531 68.640625 326.449219 68.359375 326.996094 68.0625 C 328.910156 67.019531 330.835938 65.984375 332.78125 64.980469 C 333.261719 64.734375 333.746094 64.488281 334.222656 64.230469 C 334.246094 64.21875 334.289062 64.195312 334.351562 64.164062 Z M 334.351562 64.164062 " fill-opacity="1" fill-rule="evenodd"/><path fill="#000000" d="M 374.71875 69.148438 L 362.078125 71.390625 L 355.488281 68.855469 L 362.113281 66.199219 Z M 374.71875 69.148438 " fill-opacity="1" fill-rule="evenodd"/><path fill="#000000" d="M 34.882812 63.945312 C 34.71875 63.21875 35.164062 62.253906 35.367188 61.5625 C 36.003906 59.394531 36.949219 57.304688 37.945312 55.242188 C 40.542969 49.847656 44.300781 44.996094 48.742188 40.582031 C 51.847656 37.488281 55.335938 34.5 59.480469 32.414062 C 63.375 30.453125 67.742188 29.125 72.089844 28.089844 C 73.46875 27.761719 74.84375 27.464844 76.253906 27.246094 C 76.855469 27.152344 77.460938 27.015625 78.070312 26.972656 C 78.089844 26.96875 78.5625 26.96875 78.550781 27 C 78.3125 27.523438 76.351562 28.3125 75.84375 28.636719 C 73.523438 30.113281 71.332031 31.734375 69.296875 33.492188 C 63.367188 38.644531 58.25 44.617188 54.15625 50.929688 C 52.179688 53.976562 50.453125 57.175781 49.105469 60.464844 C 48.683594 61.503906 48.304688 62.554688 47.992188 63.621094 C 47.855469 64.070312 47.847656 64.828125 47.535156 65.214844 C 46.96875 65.914062 45.730469 66.316406 44.878906 66.683594 C 43.496094 67.28125 40.859375 68.707031 40.859375 68.707031 C 40.859375 68.707031 39.402344 67.890625 38.820312 67.519531 C 37.546875 66.703125 35.769531 65.09375 34.882812 63.945312 Z M 34.882812 63.945312 " fill-opacity="1" fill-rule="evenodd"/><path fill="#000000" d="M 34.882812 82.902344 C 34.71875 83.628906 35.164062 84.597656 35.367188 85.285156 C 36.003906 87.457031 36.949219 89.542969 37.945312 91.609375 C 40.542969 97.003906 44.300781 101.851562 48.742188 106.269531 C 51.847656 109.359375 55.335938 112.347656 59.480469 114.433594 C 63.375 116.398438 67.742188 117.722656 72.089844 118.761719 C 73.46875 119.089844 74.84375 119.386719 76.253906 119.605469 C 76.855469 119.699219 77.460938 119.832031 78.070312 119.878906 C 78.089844 119.878906 78.5625 119.882812 78.550781 119.851562 C 78.3125 119.328125 76.351562 118.535156 75.84375 118.214844 C 73.523438 116.734375 71.332031 115.117188 69.296875 113.355469 C 63.367188 108.203125 58.25 102.234375 54.15625 95.917969 C 52.179688 92.871094 50.453125 89.671875 49.105469 86.386719 C 48.683594 85.34375 48.304688 84.296875 47.992188 83.226562 C 47.855469 82.78125 47.847656 82.023438 47.535156 81.632812 C 46.96875 80.933594 45.730469 80.53125 44.878906 80.164062 C 43.496094 79.570312 40.859375 78.140625 40.859375 78.140625 C 40.859375 78.140625 39.402344 78.957031 38.820312 79.328125 C 37.546875 80.144531 35.769531 81.753906 34.882812 82.902344 Z M 34.882812 82.902344 " fill-opacity="1" fill-rule="evenodd"/><path fill="#000000" d="M 25.066406 67.699219 L 25.117188 67.679688 C 25.382812 67.589844 25.625 67.511719 25.703125 67.46875 C 26.835938 66.898438 27.730469 66.097656 28.417969 65.148438 C 29.25 64.007812 29.644531 62.71875 30.183594 61.46875 C 30.777344 60.101562 31.542969 58.746094 32.605469 57.597656 C 33.339844 56.808594 34.1875 56.074219 35.105469 55.445312 C 35.410156 55.242188 35.710938 55.050781 36.03125 54.867188 C 36.054688 54.855469 36.367188 54.679688 36.527344 54.574219 C 36.621094 54.511719 36.675781 54.453125 36.710938 54.417969 C 36.820312 54.285156 36.820312 54.164062 36.808594 54.085938 C 36.792969 53.972656 36.734375 53.875 36.636719 53.800781 C 36.5 53.691406 36.226562 53.601562 35.871094 53.585938 C 35.398438 53.570312 34.730469 53.652344 34.519531 53.660156 C 32.339844 53.738281 30.226562 54.34375 28.292969 55.164062 C 25.660156 56.285156 23.566406 58.042969 22.140625 60.230469 C 21.773438 60.78125 21.5 61.417969 21.1875 62.03125 C 20.90625 62.582031 20.597656 63.117188 20.128906 63.535156 C 19.730469 63.894531 19.210938 64.109375 18.671875 64.304688 C 18.042969 64.535156 17.394531 64.738281 16.828125 65.039062 C 15.164062 65.921875 14.058594 67.476562 13.269531 68.964844 C 12.972656 69.535156 12.589844 70.21875 12.566406 70.851562 C 12.5625 71.03125 12.679688 71.199219 12.875 71.277344 C 14.484375 71.941406 16.152344 72.511719 17.804688 73.109375 C 18.222656 73.257812 18.71875 73.394531 19.179688 73.566406 C 18.855469 73.699219 18.535156 73.824219 18.210938 73.953125 C 16.976562 74.4375 15.730469 74.90625 14.503906 75.410156 C 14.171875 75.550781 13.839844 75.6875 13.507812 75.832031 C 13.402344 75.878906 13.292969 75.921875 13.191406 75.976562 C 13.207031 75.96875 13.246094 75.953125 13.246094 75.953125 C 13.246094 75.953125 12.996094 76.050781 12.925781 76.105469 C 12.785156 76.238281 12.726562 76.394531 12.800781 76.589844 C 13.570312 78.652344 15.058594 80.746094 16.992188 82.144531 C 18.296875 83.085938 19.890625 83.625 20.980469 84.78125 C 21.878906 85.730469 22.335938 86.910156 23.003906 87.96875 C 23.820312 89.261719 24.875 90.441406 26.207031 91.378906 C 27.976562 92.628906 29.972656 93.292969 32.246094 93.464844 C 32.9375 93.515625 33.625 93.546875 34.316406 93.558594 C 34.570312 93.5625 34.820312 93.558594 35.078125 93.546875 C 35.117188 93.542969 35.203125 93.53125 35.277344 93.519531 C 35.4375 93.546875 35.601562 93.511719 35.730469 93.421875 C 35.933594 93.277344 35.941406 93.125 35.933594 93.046875 C 35.933594 92.875 35.847656 92.707031 35.585938 92.621094 C 35.539062 92.605469 35.464844 92.585938 35.375 92.585938 C 32.25 91.742188 28.835938 89.589844 28.578125 86.59375 C 28.480469 85.480469 28.804688 84.414062 28.902344 83.3125 C 28.953125 82.703125 29.023438 82.015625 28.742188 81.433594 C 28.320312 80.550781 27.480469 79.996094 26.515625 79.578125 C 25.664062 79.210938 24.710938 78.953125 23.921875 78.605469 C 23.773438 78.542969 23.375 78.390625 23.070312 78.203125 C 23.03125 78.179688 22.984375 78.144531 22.953125 78.113281 C 23.613281 77.570312 24.691406 77.222656 25.476562 76.890625 C 27.464844 76.046875 29.492188 75.277344 31.554688 74.574219 C 32.371094 74.292969 33.179688 74 34.003906 73.742188 C 34.128906 73.707031 34.296875 73.636719 34.464844 73.578125 C 34.496094 73.570312 34.539062 73.558594 34.582031 73.546875 C 34.632812 73.601562 34.699219 73.664062 34.722656 73.683594 C 35.070312 73.996094 35.421875 74.3125 35.773438 74.617188 C 36.882812 75.582031 38.019531 76.515625 39.128906 77.480469 C 39.339844 77.660156 39.628906 78.011719 39.945312 78.285156 C 40.234375 78.539062 40.554688 78.726562 40.847656 78.78125 C 41.035156 78.816406 41.308594 78.78125 41.605469 78.648438 C 41.972656 78.488281 42.421875 78.175781 42.601562 78.09375 C 44.148438 77.394531 45.65625 76.621094 47.167969 75.867188 C 48.003906 75.449219 48.820312 75.003906 49.6875 74.628906 C 49.878906 74.546875 50.292969 74.421875 50.574219 74.273438 C 50.792969 74.15625 50.945312 74.019531 51.023438 73.886719 C 51.121094 73.71875 51.117188 73.546875 51.007812 73.375 C 50.957031 73.289062 50.867188 73.195312 50.738281 73.117188 C 50.597656 73.019531 50.398438 72.9375 50.335938 72.90625 C 49.75 72.613281 49.164062 72.320312 48.59375 72.007812 C 46.667969 70.957031 44.738281 69.921875 42.78125 68.914062 C 42.308594 68.671875 41.835938 68.433594 41.367188 68.175781 C 41.335938 68.160156 41.144531 68.058594 41.074219 68.023438 C 41.011719 67.957031 40.9375 67.90625 40.839844 67.871094 C 40.65625 67.808594 40.453125 67.835938 40.296875 67.941406 C 38.835938 68.960938 36.664062 70.550781 35.21875 71.589844 C 34.855469 71.851562 34.476562 72.09375 34.125 72.359375 C 34.101562 72.378906 34.039062 72.425781 33.988281 72.46875 C 33.945312 72.449219 33.90625 72.421875 33.867188 72.402344 C 33.683594 72.300781 33.496094 72.191406 33.351562 72.136719 C 32.371094 71.75 31.433594 71.285156 30.503906 70.820312 C 29.632812 70.382812 28.835938 69.894531 28.050781 69.359375 C 27.210938 68.785156 26.292969 68.265625 25.351562 67.816406 C 25.289062 67.785156 25.179688 67.746094 25.066406 67.699219 Z M 34.679688 54.570312 C 34.632812 54.574219 34.59375 54.574219 34.558594 54.578125 C 32.542969 54.648438 30.578125 55.222656 28.777344 55.984375 C 26.332031 57.023438 24.402344 58.652344 23.078125 60.675781 C 22.351562 61.789062 21.957031 63.226562 20.910156 64.164062 C 20.410156 64.617188 19.769531 64.902344 19.101562 65.148438 C 18.519531 65.359375 17.917969 65.539062 17.398438 65.816406 C 15.917969 66.605469 14.953125 68.011719 14.257812 69.339844 C 14.050781 69.722656 13.785156 70.160156 13.6875 70.589844 C 15.175781 71.191406 16.707031 71.714844 18.226562 72.261719 C 18.980469 72.535156 19.96875 72.792969 20.632812 73.210938 C 20.804688 73.3125 20.847656 73.4375 20.859375 73.53125 C 20.878906 73.640625 20.855469 73.746094 20.78125 73.851562 C 20.734375 73.90625 20.660156 73.976562 20.539062 74.027344 C 20.496094 74.050781 20.363281 74.085938 20.328125 74.097656 C 20.203125 74.152344 20.082031 74.210938 19.957031 74.261719 C 19.535156 74.445312 19.101562 74.613281 18.667969 74.785156 C 17.433594 75.269531 16.195312 75.734375 14.976562 76.238281 C 14.644531 76.371094 14.320312 76.507812 14 76.648438 L 13.964844 76.664062 C 14.707031 78.449219 16.011719 80.234375 17.691406 81.445312 C 19.042969 82.425781 20.683594 83.003906 21.820312 84.207031 C 22.757812 85.199219 23.253906 86.425781 23.957031 87.535156 C 24.699219 88.722656 25.675781 89.808594 26.890625 90.671875 C 28.492188 91.796875 30.289062 92.398438 32.339844 92.550781 C 32.4375 92.558594 32.542969 92.566406 32.636719 92.570312 C 30.003906 91.324219 27.726562 89.253906 27.503906 86.664062 C 27.402344 85.5 27.726562 84.394531 27.828125 83.242188 C 27.871094 82.769531 27.964844 82.234375 27.75 81.78125 C 27.421875 81.109375 26.761719 80.714844 26.023438 80.394531 C 25.171875 80.027344 24.214844 79.769531 23.429688 79.421875 C 23.164062 79.304688 22.292969 78.949219 21.992188 78.574219 C 21.867188 78.421875 21.804688 78.261719 21.804688 78.105469 C 21.804688 77.929688 21.867188 77.75 22.054688 77.578125 C 22.785156 76.910156 24.066406 76.464844 24.996094 76.070312 C 27.011719 75.214844 29.0625 74.433594 31.148438 73.722656 C 31.792969 73.5 32.4375 73.273438 33.085938 73.058594 C 33.019531 73.023438 32.957031 72.992188 32.902344 72.96875 C 31.890625 72.570312 30.917969 72.09375 29.953125 71.609375 C 29.046875 71.152344 28.199219 70.636719 27.378906 70.074219 C 26.582031 69.53125 25.714844 69.042969 24.824219 68.617188 C 24.660156 68.539062 24.253906 68.402344 24.011719 68.230469 C 23.796875 68.070312 23.675781 67.878906 23.664062 67.691406 C 23.652344 67.53125 23.726562 67.332031 23.960938 67.167969 C 24.253906 66.96875 25 66.757812 25.15625 66.679688 C 26.132812 66.183594 26.902344 65.488281 27.503906 64.667969 C 28.296875 63.578125 28.65625 62.34375 29.171875 61.152344 C 29.800781 59.695312 30.628906 58.253906 31.757812 57.027344 C 32.546875 56.183594 33.449219 55.398438 34.4375 54.726562 C 34.519531 54.675781 34.597656 54.621094 34.679688 54.570312 Z M 40.652344 68.882812 C 39.214844 69.894531 37.253906 71.332031 35.910156 72.292969 C 35.675781 72.460938 35.441406 72.617188 35.207031 72.78125 C 35.324219 72.875 35.449219 73 35.5 73.050781 C 35.847656 73.359375 36.191406 73.671875 36.539062 73.976562 C 37.648438 74.941406 38.789062 75.875 39.898438 76.835938 C 40.105469 77.015625 40.402344 77.371094 40.714844 77.644531 C 40.816406 77.734375 40.914062 77.824219 41.019531 77.867188 C 41.105469 77.832031 41.320312 77.730469 41.457031 77.652344 C 41.726562 77.496094 41.972656 77.339844 42.097656 77.28125 C 43.632812 76.589844 45.125 75.824219 46.621094 75.078125 C 47.476562 74.648438 48.3125 74.195312 49.199219 73.8125 C 49.304688 73.765625 49.484375 73.707031 49.671875 73.636719 C 49.113281 73.355469 48.558594 73.078125 48.007812 72.78125 C 46.097656 71.734375 44.171875 70.703125 42.222656 69.699219 C 41.742188 69.453125 41.257812 69.207031 40.785156 68.949219 C 40.761719 68.9375 40.714844 68.914062 40.652344 68.882812 Z M 40.652344 68.882812 " fill-opacity="1" fill-rule="evenodd"/><path fill="#000000" d="M 0.285156 73.867188 L 12.925781 76.105469 L 19.519531 73.574219 L 12.890625 70.914062 Z M 0.285156 73.867188 " fill-opacity="1" fill-rule="evenodd"/><path fill="#000000" d="M 170.328125 75.339844 C 170.246094 75.222656 170.613281 74.90625 170.65625 74.878906 C 171.105469 74.554688 171.578125 74.253906 172.046875 73.949219 C 173.945312 72.722656 175.957031 71.65625 177.867188 70.449219 C 181.230469 68.328125 184.339844 65.789062 187.304688 63.234375 C 188.851562 61.894531 190.625 60.632812 191.867188 59.035156 C 191.710938 58.8125 191.425781 58.632812 191.210938 58.457031 C 190.714844 58.046875 190.207031 57.648438 189.707031 57.242188 C 189.421875 57.011719 189.109375 56.792969 188.953125 56.46875 C 188.816406 56.179688 188.824219 55.847656 188.867188 55.542969 C 189.085938 53.890625 190.40625 52.167969 191.910156 51.246094 C 192.8125 50.691406 194.101562 50.546875 194.859375 51.386719 C 196.054688 52.714844 195.476562 54.585938 194.886719 56.039062 C 194.761719 56.347656 194.613281 56.644531 194.464844 56.945312 C 194.402344 57.0625 194.265625 57.234375 194.253906 57.367188 C 194.242188 57.519531 194.628906 57.710938 194.734375 57.792969 C 195.109375 58.082031 195.53125 58.46875 195.703125 58.898438 C 195.929688 59.460938 195.449219 60.195312 195.171875 60.671875 C 195.097656 60.804688 194.90625 61.199219 194.683594 61.148438 C 194.433594 61.09375 194.1875 60.855469 194.015625 60.703125 C 193.628906 60.359375 193.285156 59.980469 192.890625 59.644531 C 192.890625 59.636719 192.714844 59.832031 192.683594 59.867188 C 192.53125 60.035156 192.375 60.203125 192.222656 60.371094 C 191.785156 60.847656 191.363281 61.332031 190.9375 61.8125 C 189.691406 63.210938 188.371094 64.574219 186.921875 65.804688 C 183.558594 68.660156 179.648438 70.941406 175.589844 72.898438 C 174.546875 73.402344 173.496094 73.902344 172.429688 74.375 C 171.84375 74.636719 170.5 75.589844 170.328125 75.339844 Z M 193.582031 56.847656 C 193.589844 56.847656 193.632812 56.664062 193.636719 56.648438 C 193.6875 56.421875 193.738281 56.191406 193.769531 55.960938 C 193.871094 55.128906 193.769531 54.042969 193.042969 53.4375 C 192.46875 52.957031 191.644531 53.011719 191.109375 53.523438 C 190.902344 53.722656 190.734375 53.972656 190.78125 54.25 C 190.839844 54.597656 191.136719 54.894531 191.394531 55.136719 C 191.878906 55.597656 193.054688 56.429688 193.582031 56.847656 Z M 193.582031 56.847656 " fill-opacity="1" fill-rule="evenodd"/></svg>