<svg xmlns="http://www.w3.org/2000/svg" xmlns:xlink="http://www.w3.org/1999/xlink" width="500" zoomAndPan="magnify" viewBox="0 0 375 149.999998" height="200" preserveAspectRatio="xMidYMid meet" version="1.0"><defs><clipPath id="a1ad408d97"><path d="M 129 124 L 158 124 L 158 139.03125 L 129 139.03125 Z M 129 124 " clip-rule="nonzero"/></clipPath><clipPath id="36691a0c93"><path d="M 155 124 L 184 124 L 184 139.03125 L 155 139.03125 Z M 155 124 " clip-rule="nonzero"/></clipPath><clipPath id="be99f1c11e"><path d="M 296 10.78125 L 341 10.78125 L 341 58 L 296 58 Z M 296 10.78125 " clip-rule="nonzero"/></clipPath></defs><path fill="#000000" d="M 187.34375 31.1875 C 187.675781 30.757812 187.863281 30.175781 188.125 29.710938 C 188.742188 28.601562 189.390625 27.5 190.179688 26.472656 C 190.160156 26.515625 190.273438 26.640625 190.296875 26.683594 C 190.402344 26.871094 190.488281 27.066406 190.578125 27.261719 C 190.976562 28.140625 191.390625 29.007812 191.78125 29.886719 C 192.792969 32.167969 193.871094 34.429688 194.824219 36.730469 C 195.070312 37.328125 195.3125 37.933594 195.515625 38.542969 C 195.707031 39.105469 195.894531 39.707031 195.765625 40.296875 C 195.746094 40.386719 195.71875 40.628906 195.601562 40.679688 C 195.539062 40.707031 195.445312 40.628906 195.402344 40.597656 C 195.226562 40.476562 195.066406 40.335938 194.90625 40.195312 C 194.351562 39.710938 193.8125 39.21875 193.289062 38.710938 C 193.144531 38.570312 192.511719 37.953125 192.476562 38.5 C 192.472656 38.550781 192.472656 38.605469 192.480469 38.660156 C 192.488281 38.738281 192.503906 38.816406 192.53125 38.894531 C 192.707031 38.859375 192.566406 39.207031 192.582031 39.363281 C 192.613281 39.636719 192.632812 39.910156 192.65625 40.183594 C 192.722656 41.027344 192.769531 41.871094 192.835938 42.710938 C 193.042969 45.308594 193.273438 47.890625 193.59375 50.476562 C 194.546875 58.183594 194.894531 66.847656 195.789062 74.558594 C 195.816406 74.5625 195.839844 74.875 195.84375 74.894531 C 195.894531 75.277344 195.953125 75.664062 196.007812 76.046875 C 196.226562 77.667969 196.332031 79.296875 196.445312 80.929688 C 196.671875 84.269531 197.066406 87.59375 197.105469 90.945312 C 197.125 92.488281 197.171875 94.070312 196.835938 95.597656 C 196.433594 97.417969 195.648438 99.289062 194.542969 100.886719 C 194.261719 101.296875 193.941406 101.679688 193.578125 102.039062 C 193.527344 102.09375 193.304688 102.386719 193.207031 102.296875 C 192.917969 102.023438 193.292969 100.921875 193.324219 100.605469 C 193.460938 99.085938 193.394531 97.554688 193.359375 96.035156 C 193.316406 94.324219 193.285156 92.613281 193.210938 90.902344 C 193.089844 88.070312 192.890625 85.25 192.617188 82.429688 C 192.773438 82.503906 192.578125 82.121094 192.5625 81.96875 C 192.535156 81.707031 192.503906 81.445312 192.476562 81.183594 C 192.382812 80.308594 192.296875 79.433594 192.214844 78.558594 C 191.96875 75.960938 191.699219 73.359375 191.550781 70.753906 C 191.105469 62.863281 190.433594 54.964844 189.65625 47.09375 C 189.722656 47.074219 189.640625 46.976562 189.636719 46.914062 C 189.625 46.675781 189.601562 46.4375 189.578125 46.195312 C 189.5 45.246094 189.4375 44.292969 189.359375 43.339844 C 189.140625 40.621094 188.914062 37.902344 188.648438 35.183594 C 188.582031 34.507812 188.519531 33.828125 188.460938 33.152344 C 188.433594 32.859375 188.46875 32.398438 188.296875 32.128906 C 188.152344 31.898438 187.578125 31.339844 187.34375 31.1875 Z M 187.34375 31.1875 " fill-opacity="1" fill-rule="evenodd"/><path fill="#000000" d="M 143.816406 56.695312 C 143.90625 56.179688 143.800781 55.632812 143.8125 55.132812 C 143.835938 53.945312 143.890625 52.738281 144.109375 51.507812 C 144.113281 51.554688 144.277344 51.582031 144.3125 51.601562 C 144.5 51.679688 144.671875 51.773438 144.84375 51.867188 C 145.625 52.289062 146.414062 52.691406 147.1875 53.121094 C 149.191406 54.230469 151.242188 55.285156 153.203125 56.445312 C 153.714844 56.746094 154.21875 57.054688 154.695312 57.390625 C 155.136719 57.699219 155.59375 58.039062 155.761719 58.554688 C 155.785156 58.632812 155.875 58.832031 155.796875 58.9375 C 155.753906 58.992188 155.628906 58.992188 155.578125 58.996094 C 155.363281 59.003906 155.148438 58.996094 154.9375 58.984375 C 154.207031 58.945312 153.484375 58.898438 152.769531 58.824219 C 152.574219 58.804688 151.707031 58.714844 151.9375 59.144531 C 151.960938 59.1875 151.988281 59.226562 152.019531 59.261719 C 152.0625 59.316406 152.117188 59.363281 152.175781 59.410156 C 152.320312 59.277344 152.359375 59.621094 152.449219 59.726562 C 152.605469 59.914062 152.757812 60.105469 152.90625 60.296875 C 153.371094 60.886719 153.816406 61.488281 154.28125 62.078125 C 155.710938 63.894531 157.15625 65.6875 158.683594 67.433594 C 163.230469 72.632812 167.699219 78.894531 172.195312 84.128906 C 172.222656 84.121094 172.390625 84.335938 172.40625 84.351562 C 172.636719 84.605469 172.871094 84.855469 173.101562 85.113281 C 174.078125 86.191406 174.957031 87.347656 175.835938 88.503906 C 177.640625 90.863281 179.59375 93.117188 181.230469 95.59375 C 181.988281 96.734375 182.789062 97.890625 183.214844 99.226562 C 183.726562 100.824219 183.914062 102.683594 183.6875 104.523438 C 183.628906 104.996094 183.527344 105.46875 183.371094 105.953125 C 183.347656 106.023438 183.289062 106.371094 183.160156 106.363281 C 182.765625 106.328125 182.578125 105.285156 182.453125 105.03125 C 181.851562 103.8125 181.058594 102.710938 180.296875 101.597656 C 179.4375 100.34375 178.589844 99.082031 177.707031 97.847656 C 176.238281 95.804688 174.710938 93.816406 173.109375 91.867188 C 173.289062 91.832031 172.929688 91.664062 172.839844 91.558594 C 172.691406 91.378906 172.535156 91.199219 172.386719 91.023438 C 171.882812 90.421875 171.386719 89.820312 170.894531 89.214844 C 169.425781 87.421875 167.941406 85.636719 166.558594 83.777344 C 162.375 78.144531 157.984375 72.640625 153.515625 67.21875 C 153.566406 67.164062 153.445312 67.136719 153.414062 67.097656 C 153.289062 66.925781 153.152344 66.761719 153.019531 66.59375 C 152.492188 65.929688 151.980469 65.253906 151.453125 64.589844 C 149.953125 62.6875 148.445312 60.789062 146.902344 58.917969 C 146.519531 58.449219 146.140625 57.980469 145.761719 57.507812 C 145.597656 57.304688 145.40625 56.941406 145.125 56.839844 C 144.882812 56.753906 144.101562 56.671875 143.816406 56.695312 Z M 143.816406 56.695312 " fill-opacity="1" fill-rule="evenodd"/><path fill="#000000" d="M 210.824219 38.414062 L 214.820312 33.398438 L 221.332031 38.515625 L 217.496094 43.582031 Z M 210.824219 38.414062 " fill-opacity="1" fill-rule="evenodd"/><path fill="#000000" d="M 138.113281 80.082031 L 142.105469 75.066406 L 148.621094 80.183594 L 144.785156 85.253906 Z M 138.113281 80.082031 " fill-opacity="1" fill-rule="evenodd"/><path fill="#000000" d="M 87.308594 85.542969 L 91.304688 80.527344 L 97.820312 85.644531 L 93.980469 90.714844 Z M 87.308594 85.542969 " fill-opacity="1" fill-rule="evenodd"/><path fill="#000000" d="M 97.816406 85.542969 L 101.8125 80.527344 L 108.328125 85.644531 L 104.492188 90.714844 Z M 97.816406 85.542969 " fill-opacity="1" fill-rule="evenodd"/><path fill="#000000" d="M 87.308594 32.996094 L 91.304688 27.980469 L 97.820312 33.101562 L 93.980469 38.167969 Z M 87.308594 32.996094 " fill-opacity="1" fill-rule="evenodd"/><path fill="#000000" d="M 97.816406 32.996094 L 101.8125 27.980469 L 108.328125 33.101562 L 104.492188 38.167969 Z M 97.816406 32.996094 " fill-opacity="1" fill-rule="evenodd"/><path fill="#000000" d="M 120.152344 96.113281 L 122.949219 91.921875 L 127.507812 96.195312 L 124.824219 100.429688 Z M 120.152344 96.113281 " fill-opacity="1" fill-rule="evenodd"/><path fill="#000000" d="M 127.503906 96.113281 L 130.300781 91.921875 L 134.859375 96.195312 L 132.175781 100.429688 Z M 127.503906 96.113281 " fill-opacity="1" fill-rule="evenodd"/><path fill="#000000" d="M 122.542969 87.601562 L 125.335938 83.410156 L 129.894531 87.6875 L 127.210938 91.921875 Z M 122.542969 87.601562 " fill-opacity="1" fill-rule="evenodd"/><path fill="#000000" d="M 301.234375 79.664062 C 301.34375 79.632812 301.78125 78.800781 301.867188 78.675781 C 302.574219 77.65625 303.261719 76.609375 304.023438 75.625 C 304.191406 75.402344 304.617188 74.574219 304.96875 74.589844 C 305.351562 74.605469 305.390625 75.832031 305.433594 76.082031 C 305.726562 77.847656 305.960938 79.644531 305.996094 81.4375 C 306.050781 84.800781 305.738281 89.25 302.769531 91.449219 C 298.101562 94.90625 291.605469 89.992188 291.605469 84.726562 C 291.609375 84.734375 290.554688 86.179688 290.496094 86.289062 C 289.484375 88.027344 288.816406 89.949219 287.777344 91.667969 C 285.148438 96.03125 278.917969 97.921875 274.949219 94 C 272.808594 91.882812 272.058594 88.199219 272.191406 85.277344 C 271.152344 86.871094 269.964844 88.445312 268.460938 89.648438 C 268.199219 89.855469 266.394531 90.710938 266.394531 90.710938 C 266.394531 90.710938 266.722656 92.144531 266.777344 92.714844 C 266.914062 94.191406 267.085938 95.585938 266.914062 97.183594 C 266.894531 97.347656 266.761719 97.800781 266.71875 97.914062 C 266.414062 98.667969 265.96875 99.40625 265.503906 100.066406 C 263.421875 103.007812 260.667969 105.617188 258.070312 108.101562 C 256.695312 109.417969 255.289062 110.714844 253.824219 111.929688 C 247.0625 117.53125 237.066406 123.816406 228.167969 118.933594 C 226.898438 118.238281 225.78125 117.3125 224.832031 116.21875 C 223.636719 114.832031 222.722656 113.226562 222.121094 111.5 C 220.597656 107.109375 220.722656 102.226562 221.886719 97.769531 C 222.308594 96.171875 222.839844 94.554688 223.648438 93.105469 C 223.695312 93.019531 224.542969 91.660156 224.703125 91.949219 C 224.910156 92.328125 224.457031 93.289062 224.359375 93.648438 C 223.910156 95.273438 223.433594 96.890625 223.195312 98.5625 C 222.40625 104.035156 222.867188 109.992188 227.824219 113.324219 C 228.617188 113.855469 229.492188 114.300781 230.398438 114.613281 C 233.644531 115.722656 237.191406 115.238281 240.40625 114.265625 C 247.152344 112.226562 253.027344 107.347656 258.371094 102.9375 C 259.707031 101.835938 261 100.695312 262.289062 99.546875 C 263.136719 98.789062 264.132812 98.007812 264.679688 96.984375 C 265.417969 95.609375 264.402344 91.878906 264.402344 91.878906 C 264.402344 91.878906 263.273438 92.539062 263.183594 92.578125 C 261.941406 93.148438 261.121094 93.398438 259.804688 93.765625 C 255.835938 94.882812 250.519531 94.742188 248.78125 90.230469 C 247.238281 86.230469 249.761719 81.488281 252.507812 78.664062 C 253.546875 77.59375 255.15625 76.066406 256.808594 76.304688 C 261.410156 76.964844 263.515625 81.980469 265.417969 85.515625 C 265.410156 85.515625 265.707031 85.414062 265.785156 85.375 C 266.074219 85.230469 266.351562 85.054688 266.621094 84.875 C 267.390625 84.367188 268.140625 83.824219 268.878906 83.273438 C 270.28125 82.214844 271.542969 81.015625 272.871094 79.871094 C 273.082031 79.691406 273.863281 78.8125 274.199219 78.960938 C 274.375 79.039062 274.371094 79.445312 274.386719 79.59375 C 274.453125 80.253906 274.386719 80.917969 274.382812 81.574219 C 274.371094 83.746094 274.742188 85.96875 276.121094 87.726562 C 278.207031 90.394531 282.070312 90.070312 284.726562 88.425781 C 288.800781 85.902344 290.113281 81.390625 292.089844 77.359375 C 292.160156 77.214844 292.347656 77.898438 292.359375 77.941406 C 292.554688 78.683594 292.6875 79.445312 292.886719 80.1875 C 293.429688 82.179688 294 84.507812 296.074219 85.421875 C 296.808594 85.742188 297.621094 85.820312 298.414062 85.824219 C 299 85.828125 299.578125 85.78125 300.152344 85.65625 C 300.558594 85.570312 300.929688 85.433594 301.296875 85.242188 C 303.542969 84.0625 302.078125 81.457031 301.234375 79.664062 Z M 259.761719 86.691406 C 258.367188 86.972656 256.378906 87.582031 254.9375 87.671875 C 254.382812 87.707031 253.691406 87.746094 253.203125 87.425781 C 252.671875 87.078125 252.671875 86.382812 252.839844 85.84375 C 253.191406 84.730469 254.03125 83.578125 255.121094 83.085938 C 256.914062 82.265625 258.816406 85.394531 259.761719 86.691406 Z M 259.761719 86.691406 " fill-opacity="1" fill-rule="evenodd"/><path fill="#000000" d="M 227.871094 78.9375 C 227.890625 78.945312 227.847656 79.074219 227.847656 79.085938 C 227.804688 79.261719 227.757812 79.441406 227.710938 79.617188 C 227.496094 80.4375 227.28125 81.257812 227.0625 82.078125 C 226.761719 83.214844 226.507812 84.359375 226.242188 85.503906 C 226.171875 85.796875 226.105469 86.085938 226.023438 86.375 C 226.003906 86.445312 225.921875 86.617188 225.949219 86.691406 C 226.027344 86.902344 226.238281 87.085938 226.382812 87.246094 C 226.714844 87.609375 227.070312 87.929688 227.421875 88.273438 C 227.460938 88.226562 227.371094 88.394531 227.382812 88.453125 C 227.417969 88.628906 227.460938 88.800781 227.507812 88.976562 C 227.628906 89.425781 227.769531 89.867188 227.925781 90.304688 C 228.390625 91.621094 228.875 92.933594 229.375 94.238281 C 230.875 98.140625 232.984375 101.695312 234.625 105.519531 C 234.621094 105.507812 234.050781 106.035156 234.011719 106.078125 C 233.644531 106.445312 233.300781 106.839844 232.941406 107.214844 C 231.875 108.332031 230.707031 109.34375 229.539062 110.347656 C 225.796875 113.570312 222.261719 116.886719 217.980469 119.363281 C 216.859375 120.011719 215.742188 120.765625 214.578125 121.339844 C 211.78125 122.71875 208.609375 123.84375 205.507812 124.175781 C 204.464844 124.285156 203.410156 124.292969 202.359375 124.15625 C 198.203125 123.625 194.230469 121.316406 192.140625 117.515625 C 191.539062 116.417969 191.125 115.207031 190.839844 113.984375 C 190 110.359375 190.375 106.640625 190.992188 103.007812 C 191.566406 99.648438 192.527344 96.597656 193.707031 93.429688 C 193.925781 92.835938 194.882812 90.929688 193.792969 90.578125 C 193.738281 90.558594 193.511719 91.058594 193.492188 91.089844 C 193.179688 91.675781 192.90625 92.285156 192.628906 92.886719 C 191.46875 95.410156 190.347656 97.96875 189.472656 100.613281 C 187.707031 105.972656 187.054688 111.742188 187.757812 117.363281 C 188.3125 121.78125 189.832031 125.746094 193.378906 128.496094 C 197.605469 131.78125 203.375 132.421875 208.46875 131.128906 C 212.007812 130.226562 215.507812 128.351562 218.546875 126.3125 C 218.558594 126.316406 220.242188 125.117188 220.386719 125.011719 C 222.285156 123.601562 224.183594 122.175781 226.019531 120.679688 C 229.332031 117.980469 232.789062 114.976562 235 111.214844 C 237.621094 106.753906 237.613281 101.035156 235.992188 96.253906 C 236.097656 96.265625 235.917969 96.050781 235.875 95.953125 C 235.773438 95.722656 235.660156 95.496094 235.554688 95.269531 C 235.273438 94.664062 234.976562 94.070312 234.691406 93.46875 C 233.824219 91.660156 232.746094 89.886719 232.0625 87.992188 C 231.898438 87.535156 232.191406 87.523438 232.613281 87.765625 C 233.125 88.0625 233.589844 88.472656 234.132812 88.710938 C 234.328125 88.796875 234.628906 88.855469 234.714844 88.589844 C 234.882812 88.050781 234.390625 87.355469 234.132812 86.9375 C 233.28125 85.574219 229.027344 80.375 227.871094 78.9375 Z M 227.871094 78.9375 " fill-opacity="1" fill-rule="evenodd"/><path fill="#000000" d="M 241.089844 67.308594 C 241.078125 67.285156 241.078125 67.355469 241.066406 67.375 C 241.042969 67.433594 241.023438 67.492188 241 67.550781 C 240.957031 67.652344 240.75 68.261719 240.578125 68.214844 C 240.269531 68.132812 239.929688 67.636719 239.703125 67.453125 C 239.195312 67.042969 238.628906 66.675781 238.074219 66.308594 C 237.796875 66.128906 237.398438 65.949219 237.253906 65.664062 C 237.101562 65.367188 237.121094 64.996094 237.109375 64.683594 C 237.074219 63.75 237.167969 61.96875 238.515625 61.65625 C 239.519531 61.425781 240.535156 62.058594 241.226562 62.585938 C 242.519531 63.5625 243.335938 64.929688 243.996094 66.265625 C 244.832031 67.96875 245.496094 69.742188 246.058594 71.519531 C 246.070312 71.566406 246.085938 71.429688 246.097656 71.382812 C 246.121094 71.296875 246.140625 71.207031 246.164062 71.117188 C 246.21875 70.867188 246.277344 70.617188 246.328125 70.367188 C 246.492188 69.578125 246.648438 68.789062 246.855469 68.007812 C 247.410156 65.921875 248.0625 63.882812 249.257812 61.988281 C 249.769531 61.175781 250.597656 60.226562 251.839844 60.441406 C 252.546875 60.566406 252.910156 61.074219 253.316406 61.523438 C 253.835938 62.097656 254.511719 62.988281 254.433594 63.761719 C 254.386719 64.222656 254.101562 64.703125 253.890625 65.121094 C 253.714844 65.480469 253.519531 65.910156 253.171875 66.179688 C 252.863281 66.421875 252.457031 65.820312 252.320312 65.660156 C 251.867188 65.125 250.871094 63.78125 249.96875 64.492188 C 249.4375 64.910156 249.183594 65.539062 248.957031 66.101562 C 248.546875 67.132812 248.238281 68.191406 247.945312 69.25 C 247.925781 69.328125 247.859375 69.558594 247.839844 69.628906 C 247.730469 70.03125 247.613281 70.433594 247.507812 70.835938 C 247.082031 72.414062 246.5625 73.984375 245.914062 75.507812 C 245.765625 75.847656 245.617188 76.191406 245.429688 76.515625 C 245.398438 76.570312 245.292969 76.816406 245.179688 76.792969 C 245.050781 76.765625 245.027344 76.429688 245.007812 76.347656 C 244.910156 75.910156 244.796875 75.472656 244.695312 75.035156 C 244.59375 74.566406 244.488281 74.101562 244.347656 73.644531 C 244.101562 72.851562 243.84375 72.054688 243.550781 71.273438 C 243.113281 70.113281 241.960938 67.972656 241.089844 67.308594 Z M 241.089844 67.308594 " fill-opacity="1" fill-rule="evenodd"/><path fill="#000000" d="M 236.347656 38.320312 C 236.335938 38.296875 236.332031 38.363281 236.324219 38.386719 C 236.300781 38.445312 236.28125 38.503906 236.253906 38.5625 C 236.210938 38.664062 236.007812 39.273438 235.835938 39.226562 C 235.523438 39.144531 235.1875 38.648438 234.960938 38.464844 C 234.453125 38.050781 233.886719 37.6875 233.332031 37.320312 C 233.054688 37.140625 232.65625 36.957031 232.507812 36.671875 C 232.359375 36.378906 232.375 36.007812 232.367188 35.695312 C 232.332031 34.761719 232.421875 32.976562 233.773438 32.667969 C 234.773438 32.433594 235.789062 33.070312 236.484375 33.59375 C 237.777344 34.574219 238.59375 35.941406 239.25 37.277344 C 240.085938 38.976562 240.75 40.75 241.3125 42.53125 C 241.328125 42.578125 241.34375 42.441406 241.351562 42.394531 C 241.375 42.308594 241.398438 42.21875 241.417969 42.128906 C 241.476562 41.878906 241.53125 41.628906 241.585938 41.378906 C 241.75 40.589844 241.902344 39.800781 242.113281 39.019531 C 242.667969 36.933594 243.316406 34.894531 244.515625 32.996094 C 245.027344 32.1875 245.851562 31.238281 247.09375 31.453125 C 247.800781 31.574219 248.164062 32.085938 248.570312 32.535156 C 249.09375 33.109375 249.769531 34 249.6875 34.773438 C 249.640625 35.234375 249.355469 35.710938 249.148438 36.132812 C 248.972656 36.492188 248.773438 36.921875 248.429688 37.191406 C 248.117188 37.433594 247.710938 36.832031 247.574219 36.671875 C 247.121094 36.136719 246.128906 34.792969 245.222656 35.503906 C 244.691406 35.917969 244.4375 36.550781 244.210938 37.113281 C 243.800781 38.144531 243.496094 39.203125 243.199219 40.261719 C 243.179688 40.339844 243.113281 40.570312 243.097656 40.640625 C 242.988281 41.042969 242.871094 41.445312 242.761719 41.847656 C 242.339844 43.425781 241.820312 44.996094 241.167969 46.519531 C 241.023438 46.859375 240.875 47.203125 240.683594 47.527344 C 240.652344 47.582031 240.546875 47.828125 240.433594 47.804688 C 240.304688 47.777344 240.285156 47.4375 240.265625 47.359375 C 240.167969 46.921875 240.050781 46.484375 239.953125 46.042969 C 239.847656 45.578125 239.742188 45.113281 239.601562 44.652344 C 239.355469 43.863281 239.101562 43.066406 238.808594 42.285156 C 238.367188 41.125 237.21875 38.984375 236.347656 38.320312 Z M 236.347656 38.320312 " fill-opacity="1" fill-rule="evenodd"/><path fill="#000000" d="M 112.308594 73.773438 C 112.300781 73.75 112.296875 73.820312 112.285156 73.84375 C 112.265625 73.898438 112.242188 73.957031 112.21875 74.015625 C 112.175781 74.117188 111.96875 74.726562 111.796875 74.679688 C 111.488281 74.601562 111.148438 74.101562 110.921875 73.917969 C 110.417969 73.507812 109.851562 73.140625 109.292969 72.777344 C 109.015625 72.59375 108.621094 72.414062 108.472656 72.128906 C 108.320312 71.835938 108.339844 71.460938 108.328125 71.148438 C 108.292969 70.214844 108.386719 68.433594 109.738281 68.121094 C 110.738281 67.890625 111.753906 68.523438 112.449219 69.050781 C 113.738281 70.03125 114.558594 71.394531 115.214844 72.730469 C 116.050781 74.433594 116.714844 76.207031 117.277344 77.988281 C 117.292969 78.03125 117.304688 77.894531 117.316406 77.851562 C 117.339844 77.761719 117.363281 77.671875 117.382812 77.582031 C 117.441406 77.335938 117.496094 77.085938 117.546875 76.835938 C 117.714844 76.046875 117.867188 75.253906 118.078125 74.472656 C 118.628906 72.386719 119.28125 70.351562 120.476562 68.453125 C 120.992188 67.640625 121.816406 66.691406 123.058594 66.90625 C 123.765625 67.03125 124.128906 67.539062 124.535156 67.988281 C 125.054688 68.5625 125.730469 69.457031 125.652344 70.226562 C 125.605469 70.6875 125.320312 71.167969 125.113281 71.585938 C 124.9375 71.945312 124.738281 72.375 124.390625 72.644531 C 124.082031 72.886719 123.675781 72.289062 123.539062 72.125 C 123.085938 71.589844 122.089844 70.246094 121.1875 70.957031 C 120.65625 71.375 120.402344 72.003906 120.175781 72.566406 C 119.765625 73.597656 119.457031 74.65625 119.164062 75.714844 C 119.144531 75.792969 119.078125 76.023438 119.058594 76.09375 C 118.949219 76.496094 118.832031 76.898438 118.726562 77.300781 C 118.304688 78.878906 117.78125 80.449219 117.132812 81.972656 C 116.988281 82.3125 116.835938 82.65625 116.648438 82.980469 C 116.617188 83.035156 116.511719 83.28125 116.398438 83.257812 C 116.269531 83.230469 116.25 82.894531 116.230469 82.8125 C 116.128906 82.375 116.015625 81.9375 115.917969 81.5 C 115.8125 81.035156 115.707031 80.566406 115.566406 80.109375 C 115.320312 79.316406 115.0625 78.519531 114.769531 77.738281 C 114.332031 76.578125 113.179688 74.441406 112.308594 73.773438 Z M 112.308594 73.773438 " fill-opacity="1" fill-rule="evenodd"/><path fill="#000000" d="M 230.265625 61.796875 C 230.335938 61.855469 230.421875 61.699219 230.503906 61.652344 C 230.792969 61.484375 231.082031 61.308594 231.371094 61.140625 C 232.554688 60.449219 233.742188 59.765625 234.953125 59.117188 C 240.066406 56.375 245.566406 53.894531 251.09375 51.96875 C 252.589844 51.449219 254.082031 50.921875 255.585938 50.421875 C 255.929688 50.308594 256.273438 50.183594 256.625 50.085938 C 256.644531 50.082031 256.925781 49.992188 256.949219 50.042969 C 256.984375 50.117188 256.796875 50.34375 256.761719 50.40625 C 256.554688 50.738281 256.34375 51.074219 256.136719 51.410156 C 255.820312 51.925781 255.609375 52.6875 255.195312 53.136719 C 254.988281 53.359375 254.328125 53.464844 254.050781 53.570312 C 253.140625 53.921875 252.234375 54.289062 251.335938 54.660156 C 245.625 57 240.042969 59.636719 234.457031 62.214844 C 233.128906 62.828125 231.789062 63.429688 230.488281 64.085938 C 230.316406 64.175781 229.410156 64.792969 229.191406 64.683594 C 229.039062 64.605469 229.1875 64.21875 229.21875 64.117188 C 229.394531 63.5625 230.023438 62.328125 230.265625 61.796875 Z M 230.265625 61.796875 " fill-opacity="1" fill-rule="evenodd"/><g clip-path="url(#a1ad408d97)"><path fill="#000000" d="M 131.039062 136.183594 C 131.109375 136.242188 131.195312 136.085938 131.277344 136.039062 C 131.566406 135.871094 131.855469 135.699219 132.144531 135.527344 C 133.328125 134.835938 134.515625 134.152344 135.726562 133.503906 C 140.839844 130.761719 146.339844 128.28125 151.867188 126.355469 C 153.363281 125.835938 154.859375 125.308594 156.359375 124.808594 C 156.703125 124.695312 157.046875 124.570312 157.398438 124.476562 C 157.421875 124.46875 157.699219 124.382812 157.722656 124.429688 C 157.757812 124.507812 157.570312 124.734375 157.535156 124.792969 C 157.328125 125.128906 157.117188 125.460938 156.910156 125.796875 C 156.59375 126.3125 156.382812 127.074219 155.96875 127.523438 C 155.761719 127.746094 155.101562 127.851562 154.824219 127.960938 C 153.914062 128.3125 153.007812 128.679688 152.109375 129.046875 C 146.398438 131.390625 140.816406 134.023438 135.230469 136.605469 C 133.902344 137.21875 132.5625 137.816406 131.261719 138.476562 C 131.089844 138.5625 130.183594 139.179688 129.964844 139.070312 C 129.8125 138.992188 129.960938 138.605469 129.992188 138.503906 C 130.167969 137.949219 130.796875 136.714844 131.039062 136.183594 Z M 131.039062 136.183594 " fill-opacity="1" fill-rule="evenodd"/></g><path fill="#000000" d="M 79.679688 66.941406 C 79.722656 66.980469 79.773438 66.875 79.820312 66.84375 C 79.996094 66.726562 80.167969 66.609375 80.339844 66.492188 C 81.046875 66.019531 81.753906 65.554688 82.480469 65.109375 C 85.535156 63.234375 88.820312 61.539062 92.121094 60.222656 C 93.015625 59.867188 93.90625 59.503906 94.804688 59.164062 C 95.011719 59.085938 95.214844 59 95.425781 58.9375 C 95.4375 58.929688 95.605469 58.871094 95.617188 58.90625 C 95.636719 58.957031 95.527344 59.113281 95.503906 59.152344 C 95.382812 59.382812 95.257812 59.609375 95.132812 59.839844 C 94.945312 60.191406 94.816406 60.710938 94.570312 61.019531 C 94.449219 61.171875 94.054688 61.246094 93.886719 61.316406 C 93.34375 61.558594 92.804688 61.808594 92.265625 62.0625 C 88.855469 63.664062 85.519531 65.464844 82.183594 67.230469 C 81.390625 67.648438 80.589844 68.058594 79.8125 68.507812 C 79.710938 68.570312 79.167969 68.992188 79.039062 68.914062 C 78.945312 68.863281 79.035156 68.597656 79.054688 68.527344 C 79.160156 68.148438 79.535156 67.304688 79.679688 66.941406 Z M 79.679688 66.941406 " fill-opacity="1" fill-rule="evenodd"/><path fill="#000000" d="M 181.59375 56.191406 C 181.917969 56.734375 184.171875 58.003906 184.734375 58.246094 C 184.910156 58.320312 185.429688 58.492188 185.414062 58.132812 C 185.363281 57.121094 184.238281 55.871094 183.742188 55.042969 C 182.710938 53.316406 181.660156 51.597656 180.539062 49.925781 C 180.039062 49.183594 179.535156 48.242188 178.867188 47.636719 C 178.484375 47.292969 178.042969 47.699219 177.773438 47.980469 C 177.105469 48.664062 176.230469 49.472656 175.957031 50.421875 C 175.597656 51.671875 176.960938 52.304688 177.742188 53.015625 C 177.691406 53.980469 178.070312 55.167969 178.191406 56.128906 C 178.480469 58.40625 178.792969 60.679688 179.105469 62.949219 C 180.351562 71.914062 181.992188 80.8125 183.128906 89.792969 C 183.742188 94.625 184.851562 99.972656 183.980469 104.84375 C 183.359375 105.160156 182.671875 107.179688 182.265625 107.769531 C 180.6875 110.046875 178.855469 112.144531 176.726562 113.925781 C 173.261719 116.824219 169.167969 119.164062 165.125 121.15625 C 163.851562 121.78125 162.5625 122.378906 161.257812 122.9375 C 160.796875 123.128906 160.332031 123.3125 159.871094 123.492188 C 159.84375 123.503906 159.257812 123.734375 159.300781 123.777344 C 159.507812 123.988281 161.132812 123.503906 161.390625 123.457031 C 163.714844 123.054688 166.03125 122.589844 168.296875 121.917969 C 173.234375 120.464844 180.039062 118.285156 183.03125 113.664062 C 185.101562 110.457031 186.367188 106.148438 186.839844 102.441406 C 186.804688 102.425781 186.449219 89.5 181.59375 56.191406 Z M 181.59375 56.191406 " fill-opacity="1" fill-rule="evenodd"/><path fill="#000000" d="M 95.058594 116.46875 C 95.058594 116.46875 95.0625 116.46875 95.0625 116.46875 L 95.058594 116.46875 C 95.050781 116.5 95.558594 116.917969 95.597656 116.953125 C 95.949219 117.210938 96.273438 117.5 96.617188 117.761719 C 98.179688 118.972656 99.960938 119.792969 101.890625 120.242188 C 107.027344 121.429688 111.828125 118.855469 115.441406 115.382812 C 115.761719 115.511719 116.585938 117.148438 116.882812 117.472656 C 118.355469 119.0625 120.496094 120.386719 122.703125 120.5 C 124.785156 120.605469 126.539062 119.5625 127.953125 118.121094 C 128.371094 117.695312 129.222656 116.277344 129.808594 116.105469 C 130.128906 116.015625 130.734375 117.058594 130.910156 117.242188 C 131.730469 118.109375 132.839844 118.933594 134.0625 119.050781 C 136.027344 119.238281 137.972656 118.09375 139.347656 116.800781 C 139.789062 116.390625 140.460938 115.152344 141.039062 114.96875 C 141.320312 114.878906 141.675781 115.542969 141.789062 115.707031 C 142.417969 116.65625 143.027344 117.652344 144.074219 118.195312 C 147.5625 120.007812 151.683594 116.953125 152.976562 113.808594 C 155.855469 106.808594 149.292969 100.164062 147.0625 94.09375 C 147.664062 94.265625 149.925781 95.144531 148.777344 93.632812 C 148.648438 93.460938 148.515625 93.300781 148.371094 93.140625 C 148.144531 92.890625 147.90625 92.636719 147.660156 92.398438 C 146.347656 91.101562 144.425781 89.386719 142.625 88.796875 C 142.023438 88.597656 141.898438 89.636719 141.808594 90.011719 C 141.480469 91.382812 141.695312 91.671875 142.792969 92.519531 C 143.667969 93.195312 143.050781 94.808594 143.457031 95.921875 C 144.632812 99.117188 146.6875 102.195312 148.519531 105.050781 C 149.769531 106.996094 152 109.511719 151.171875 112.035156 C 150.261719 114.808594 146.140625 116.753906 143.867188 114.421875 C 142.4375 112.960938 142.46875 110.726562 142.980469 108.871094 C 142.191406 109.460938 141.539062 109.886719 140.953125 110.8125 C 139.992188 112.328125 139.46875 114.101562 137.648438 114.796875 C 137.109375 115 136.519531 115.113281 135.945312 115.140625 C 135.433594 115.164062 134.933594 115.109375 134.445312 114.957031 C 131.648438 114.113281 131.816406 110.992188 133.121094 108.929688 C 132.871094 108.921875 132.445312 109.398438 132.285156 109.546875 C 131.59375 110.199219 130.929688 110.886719 130.273438 111.574219 C 128.25 113.699219 126.207031 116.738281 123.136719 117.363281 C 120.007812 118.003906 118.273438 115.113281 118.265625 112.332031 C 118.261719 111.40625 118.480469 110.566406 118.671875 109.675781 C 118.714844 109.472656 118.773438 109.050781 118.476562 109.007812 C 118.03125 108.941406 117.425781 109.324219 117.042969 109.503906 C 115.667969 110.148438 114.40625 111.03125 113.199219 111.941406 C 111.445312 113.265625 109.730469 114.898438 107.628906 115.648438 C 105 116.585938 101.296875 115.675781 99.414062 113.585938 C 99.464844 113.601562 100.089844 112.765625 100.140625 112.699219 C 100.925781 111.652344 101.625 110.507812 102.152344 109.316406 C 103.550781 106.171875 102.753906 103.015625 101.207031 100.097656 C 100.757812 99.25 100.292969 98.214844 99.601562 97.535156 C 97.660156 95.613281 94.453125 99.328125 93.382812 100.660156 C 91.628906 102.839844 89.191406 106.261719 89.507812 109.296875 C 89.675781 110.882812 90.511719 112.375 91.207031 113.785156 C 91.191406 113.773438 89.941406 114.402344 89.847656 114.4375 C 88.441406 114.976562 86.925781 115.554688 85.40625 115.605469 C 81.113281 115.761719 78.496094 112.371094 76.816406 108.828125 C 76.859375 108.996094 76.640625 108.527344 76.585938 108.367188 C 76.460938 108.019531 76.351562 107.675781 76.257812 107.316406 C 75.953125 106.148438 75.746094 104.949219 75.550781 103.761719 C 75.007812 100.460938 74.746094 97.144531 74.558594 93.8125 C 73.929688 82.796875 73.320312 71.136719 69.976562 60.542969 C 69.164062 57.984375 67.992188 55.339844 66.132812 53.355469 C 65.878906 53.082031 64.636719 51.75 64.136719 51.996094 C 63.902344 52.117188 63.980469 52.84375 63.964844 53.046875 C 63.875 54.152344 63.859375 55.253906 63.84375 56.363281 C 63.835938 57.089844 63.550781 58.496094 63.929688 59.160156 C 64.128906 59.511719 64.917969 59.78125 65.234375 60.078125 C 65.996094 60.789062 66.621094 61.664062 67.117188 62.574219 C 68.308594 64.765625 68.734375 67.246094 69.160156 69.679688 C 70.761719 78.839844 70.839844 88.164062 71.621094 97.410156 C 72.078125 102.851562 72.5 108.726562 74.851562 113.738281 C 75.625 115.386719 76.636719 116.980469 77.992188 118.210938 C 83.296875 123.011719 90.652344 121.671875 95.058594 116.46875 Z M 95.582031 111.984375 C 95.566406 112.042969 95.097656 111.53125 95.050781 111.492188 C 94.976562 111.433594 94.902344 111.375 94.832031 111.308594 C 94.605469 111.113281 94.402344 110.886719 94.207031 110.65625 C 93.621094 109.953125 93.015625 109.128906 92.925781 108.191406 C 92.746094 106.359375 94.160156 104.570312 95.429688 103.40625 C 95.933594 102.945312 96.667969 102.289062 97.417969 102.382812 C 98.390625 102.507812 98.820312 103.796875 99.078125 104.574219 C 99.433594 105.667969 99.71875 106.9375 99.351562 108.0625 C 98.910156 109.414062 96.675781 111.175781 95.582031 111.984375 Z M 95.582031 111.984375 " fill-opacity="1" fill-rule="evenodd"/><path fill="#000000" d="M 105.648438 59.773438 C 105.746094 59.476562 104.921875 58.90625 104.773438 58.792969 C 103.589844 57.886719 102.382812 57.238281 100.894531 57.019531 C 99.375 56.796875 97.847656 56.894531 96.324219 56.980469 C 95.136719 57.046875 93.804688 57.109375 92.722656 56.527344 C 91.035156 55.613281 90.429688 53.6875 90.515625 51.875 C 90.652344 48.9375 92.289062 45.734375 94.914062 44.25 C 97.855469 42.59375 100.855469 44.878906 102.773438 47.074219 C 106.492188 51.316406 108.972656 57.238281 106.765625 62.785156 C 106.957031 62.828125 106.535156 63.09375 106.40625 63.246094 C 106.101562 63.609375 105.785156 63.960938 105.453125 64.300781 C 104.425781 65.34375 103.308594 66.304688 102.210938 67.269531 C 98.796875 70.261719 95.011719 72.738281 91.128906 75.070312 C 89.386719 76.113281 87.609375 77.089844 85.808594 78.015625 C 77.949219 82.0625 67.558594 85.449219 60.125 78.585938 C 58.910156 77.464844 57.925781 76.101562 57.289062 74.582031 C 56.457031 72.59375 55.8125 70.484375 55.515625 68.34375 C 54.964844 64.363281 55.148438 60.039062 56.300781 56.175781 C 56.558594 55.308594 56.828125 54.417969 57.25 53.609375 C 57.332031 53.460938 57.617188 52.851562 57.875 52.925781 C 58.265625 53.03125 58.035156 54.242188 58.015625 54.472656 C 57.875 56.3125 57.777344 58.144531 57.800781 59.992188 C 57.859375 64.59375 58.238281 69.765625 61.332031 73.457031 C 65.144531 78.003906 71.429688 78.34375 76.726562 76.777344 C 83.625 74.746094 89.871094 71.285156 95.917969 67.464844 C 99.160156 65.414062 103.199219 62.792969 105.648438 59.773438 Z M 100.050781 51.921875 C 99.796875 52.019531 96.816406 52.09375 95.820312 52.203125 C 95.410156 52.246094 94.808594 52.363281 94.496094 52.003906 C 94.238281 51.707031 94.238281 51.269531 94.292969 50.90625 C 94.425781 50.015625 95.046875 48.851562 96.042969 48.734375 C 97.257812 48.585938 99.386719 51.082031 100.050781 51.921875 Z M 100.050781 51.921875 " fill-opacity="1" fill-rule="evenodd"/><g clip-path="url(#36691a0c93)"><path fill="#000000" d="M 157.132812 136.183594 C 157.203125 136.242188 157.289062 136.085938 157.371094 136.039062 C 157.660156 135.871094 157.949219 135.699219 158.238281 135.527344 C 159.421875 134.835938 160.609375 134.152344 161.820312 133.503906 C 166.933594 130.761719 172.433594 128.28125 177.960938 126.355469 C 179.457031 125.835938 180.953125 125.308594 182.453125 124.808594 C 182.796875 124.695312 183.140625 124.570312 183.492188 124.476562 C 183.511719 124.46875 183.792969 124.382812 183.816406 124.429688 C 183.851562 124.507812 183.664062 124.734375 183.628906 124.792969 C 183.421875 125.128906 183.210938 125.460938 183.003906 125.796875 C 182.6875 126.3125 182.476562 127.074219 182.0625 127.523438 C 181.855469 127.746094 181.195312 127.851562 180.917969 127.960938 C 180.007812 128.3125 179.101562 128.679688 178.203125 129.046875 C 172.492188 131.390625 166.910156 134.023438 161.324219 136.605469 C 159.996094 137.21875 158.65625 137.816406 157.355469 138.476562 C 157.183594 138.5625 156.277344 139.179688 156.058594 139.070312 C 155.90625 138.992188 156.054688 138.605469 156.085938 138.503906 C 156.261719 137.949219 156.890625 136.714844 157.132812 136.183594 Z M 157.132812 136.183594 " fill-opacity="1" fill-rule="evenodd"/></g><path fill="#000000" d="M 276.433594 77.089844 C 276.339844 76.945312 276.773438 76.5625 276.820312 76.527344 C 277.347656 76.140625 277.902344 75.777344 278.449219 75.410156 C 280.679688 73.929688 283.042969 72.644531 285.285156 71.1875 C 289.234375 68.625 292.882812 65.566406 296.363281 62.480469 C 298.183594 60.867188 300.261719 59.34375 301.71875 57.417969 C 301.539062 57.144531 301.199219 56.929688 300.949219 56.714844 C 300.367188 56.222656 299.769531 55.742188 299.183594 55.253906 C 298.851562 54.976562 298.480469 54.710938 298.300781 54.320312 C 298.140625 53.96875 298.148438 53.570312 298.199219 53.199219 C 298.453125 51.207031 300.003906 49.128906 301.769531 48.015625 C 302.828125 47.347656 304.34375 47.175781 305.234375 48.1875 C 306.636719 49.785156 305.957031 52.046875 305.265625 53.796875 C 305.117188 54.171875 304.945312 54.53125 304.769531 54.890625 C 304.699219 55.035156 304.539062 55.242188 304.523438 55.402344 C 304.507812 55.585938 304.960938 55.816406 305.085938 55.914062 C 305.527344 56.265625 306.019531 56.734375 306.222656 57.25 C 306.488281 57.925781 305.925781 58.8125 305.601562 59.390625 C 305.511719 59.550781 305.285156 60.023438 305.023438 59.964844 C 304.734375 59.898438 304.445312 59.613281 304.242188 59.425781 C 303.789062 59.015625 303.382812 58.554688 302.921875 58.152344 C 302.921875 58.140625 302.710938 58.378906 302.675781 58.417969 C 302.5 58.625 302.316406 58.824219 302.136719 59.027344 C 301.625 59.597656 301.128906 60.183594 300.628906 60.765625 C 299.167969 62.453125 297.613281 64.097656 295.914062 65.582031 C 291.964844 69.027344 287.375 71.777344 282.613281 74.140625 C 281.386719 74.75 280.152344 75.355469 278.902344 75.921875 C 278.210938 76.238281 276.636719 77.386719 276.433594 77.089844 Z M 303.734375 54.777344 C 303.742188 54.777344 303.792969 54.550781 303.796875 54.535156 C 303.855469 54.257812 303.917969 53.984375 303.949219 53.703125 C 304.074219 52.703125 303.949219 51.390625 303.101562 50.660156 C 302.425781 50.078125 301.460938 50.148438 300.828125 50.765625 C 300.585938 51.003906 300.390625 51.304688 300.445312 51.640625 C 300.511719 52.058594 300.863281 52.417969 301.164062 52.710938 C 301.730469 53.265625 303.113281 54.269531 303.734375 54.777344 Z M 303.734375 54.777344 " fill-opacity="1" fill-rule="evenodd"/><path fill="#000000" d="M 200.585938 60.351562 C 200.585938 60.328125 200.570312 60.027344 200.578125 59.945312 C 200.609375 59.613281 200.660156 59.285156 200.695312 58.957031 C 200.800781 58.089844 200.855469 57.214844 200.988281 56.351562 C 201.046875 55.960938 201.097656 55.449219 201.613281 55.605469 C 202.417969 55.851562 203.160156 56.40625 203.882812 56.820312 C 205.167969 57.554688 206.441406 58.308594 207.753906 58.996094 C 208.273438 59.265625 208.800781 59.527344 209.316406 59.8125 C 209.410156 59.863281 209.714844 59.980469 209.699219 60.128906 C 209.683594 60.328125 209.210938 60.335938 209.082031 60.34375 C 208.757812 60.371094 207.304688 60.261719 207.140625 60.554688 C 206.863281 61.054688 207.726562 62.066406 207.972656 62.425781 C 209.121094 64.085938 210.539062 65.535156 212.070312 66.855469 C 212.109375 66.847656 212.519531 66.085938 212.570312 66.023438 C 213.09375 65.242188 213.628906 64.472656 214.164062 63.699219 C 216.070312 60.925781 218.054688 58.175781 220.117188 55.507812 C 220.609375 54.863281 221.117188 54.226562 221.640625 53.609375 C 221.8125 53.410156 222.039062 53.074219 222.332031 53.03125 C 222.769531 52.972656 222.53125 54.394531 222.503906 54.605469 C 222.304688 56.265625 221.1875 57.828125 220.335938 59.214844 C 219.546875 60.496094 218.734375 61.757812 217.898438 63.011719 C 216.597656 64.960938 215.308594 66.921875 213.960938 68.84375 C 214.480469 69.25 214.996094 70.101562 215.464844 70.605469 C 216.671875 71.898438 218.296875 73.316406 218.917969 75.015625 C 219.445312 76.457031 219.96875 77.773438 220.128906 79.285156 C 220.300781 81.023438 219.941406 83.136719 219.3125 84.808594 C 218.210938 87.734375 215.308594 90.34375 212.710938 91.96875 C 210.65625 93.253906 207.757812 94.496094 205.273438 94.167969 C 201.886719 93.714844 201.816406 88.746094 201.960938 86.226562 C 201.996094 85.613281 202.0625 85.003906 202.167969 84.398438 C 202.316406 83.554688 202.523438 82.722656 202.785156 81.910156 C 203.074219 81.003906 203.425781 80.113281 203.824219 79.25 C 205.199219 76.28125 206.992188 73.496094 209.066406 70.957031 C 206.328125 68.550781 204.484375 65.175781 202.378906 62.25 C 202.199219 61.996094 201.980469 61.773438 201.640625 61.832031 C 201.554688 61.84375 200.960938 61.996094 200.757812 61.6875 C 200.511719 61.324219 200.660156 60.484375 200.585938 60.351562 Z M 211.339844 73.683594 C 211.148438 73.679688 210.769531 74.171875 210.648438 74.285156 C 209.992188 74.902344 209.375 75.574219 208.765625 76.238281 C 208.289062 76.753906 207.828125 77.28125 207.386719 77.820312 C 207.003906 78.292969 206.628906 78.773438 206.277344 79.269531 C 204.835938 81.296875 202.800781 85.128906 205.578125 86.960938 C 208.480469 88.878906 212.203125 86.472656 214.46875 84.65625 C 215.570312 83.777344 216.699219 82.796875 216.898438 81.324219 C 217.035156 80.3125 216.628906 79.394531 216.109375 78.546875 C 215.144531 76.964844 212.710938 74.921875 211.339844 73.683594 Z M 200.585938 60.351562 Z M 200.585938 60.351562 " fill-opacity="1" fill-rule="evenodd"/><path fill="#000000" d="M 200.3125 38.414062 L 204.308594 33.398438 L 210.824219 38.515625 L 206.988281 43.582031 Z M 200.3125 38.414062 " fill-opacity="1" fill-rule="evenodd"/><path fill="#000000" d="M 300.84375 96.964844 C 300.804688 96.867188 301.015625 96.449219 301.050781 96.351562 C 301.273438 95.703125 301.488281 95.046875 301.753906 94.414062 C 301.792969 94.324219 301.984375 93.726562 302.121094 93.746094 C 302.191406 93.757812 302.242188 93.902344 302.265625 93.960938 C 302.382812 94.203125 302.5 94.445312 302.613281 94.691406 C 303.15625 95.882812 303.222656 97.300781 303.054688 98.59375 C 302.871094 100.039062 302.226562 101.523438 300.957031 102.230469 C 299.105469 103.261719 296.855469 101.808594 296.292969 99.84375 C 295.449219 100.292969 295.089844 101.484375 294.550781 102.382812 C 293.941406 103.390625 293.046875 104.066406 291.925781 104.28125 C 290.082031 104.625 288.734375 103.1875 287.0625 102.726562 C 286.117188 102.464844 285.160156 102.707031 284.300781 103.144531 C 282.339844 104.132812 280.597656 105.648438 278.855469 107.003906 C 274.550781 110.359375 270.566406 114.164062 266.226562 117.460938 C 262.589844 120.222656 258.449219 121.894531 254.058594 122.984375 C 252.945312 123.257812 251.820312 123.542969 250.695312 123.757812 C 250.585938 123.777344 249.722656 123.976562 249.703125 123.746094 C 249.679688 123.5 250.195312 123.246094 250.339844 123.148438 C 250.992188 122.71875 251.660156 122.304688 252.332031 121.914062 C 255.183594 120.253906 258.113281 118.75 260.96875 117.09375 C 266.429688 113.929688 271.558594 109.925781 276.558594 106.003906 C 279.25 103.890625 281.945312 100.898438 285.246094 99.894531 C 287.851562 99.101562 290.003906 100.308594 292.582031 100.261719 C 292.582031 100.253906 292.910156 100.164062 292.925781 100.15625 C 293.128906 100.078125 293.320312 99.980469 293.503906 99.859375 C 294.113281 99.460938 294.671875 98.953125 295.152344 98.390625 C 295.570312 97.902344 295.890625 97.34375 296.238281 96.804688 C 296.441406 96.488281 296.65625 96.179688 296.871094 95.875 C 297.019531 95.664062 297.164062 95.445312 297.320312 95.238281 C 297.375 95.167969 297.949219 94.390625 298.085938 94.632812 C 298.210938 94.855469 297.878906 95.546875 297.808594 95.757812 C 297.53125 96.582031 297.265625 97.472656 297.859375 98.210938 C 298.714844 99.285156 302.582031 99.78125 300.84375 96.964844 Z M 300.84375 96.964844 " fill-opacity="1" fill-rule="evenodd"/><path fill="#000000" d="M 208.1875 97.207031 C 208.203125 97.171875 208.058594 97.371094 208.046875 97.394531 C 207.945312 97.554688 207.847656 97.722656 207.75 97.886719 C 207.472656 98.347656 207.214844 98.816406 206.960938 99.289062 C 206.234375 100.636719 205.535156 101.996094 204.886719 103.378906 C 203.027344 107.339844 201.023438 111.589844 201.601562 116.050781 C 201.753906 117.234375 202.128906 118.476562 202.871094 119.441406 C 203.152344 119.808594 203.515625 120.246094 204 120.359375 C 204.882812 120.5625 205.796875 119.746094 206.335938 119.183594 C 207.625 117.832031 208.457031 116.070312 208.984375 114.320312 C 209.152344 113.765625 209.457031 112.867188 209.21875 112.289062 C 208.972656 111.703125 208.253906 112.886719 208.144531 113.0625 C 207.496094 114.066406 206.445312 115.941406 204.988281 114.691406 C 204.792969 114.519531 204.636719 114.304688 204.511719 114.082031 C 203.789062 112.777344 204.03125 111.105469 204.308594 109.71875 C 204.8125 107.199219 205.941406 104.890625 207.019531 102.5625 C 207.683594 101.128906 209.421875 97.757812 208.1875 97.207031 Z M 208.1875 97.207031 " fill-opacity="1" fill-rule="evenodd"/><path fill="#000000" d="M 162.679688 90.71875 C 162.695312 90.679688 162.550781 90.878906 162.539062 90.902344 C 162.4375 91.066406 162.339844 91.230469 162.242188 91.394531 C 161.964844 91.855469 161.707031 92.324219 161.453125 92.796875 C 160.726562 94.148438 160.027344 95.507812 159.378906 96.890625 C 157.519531 100.847656 155.515625 105.101562 156.09375 109.5625 C 156.246094 110.746094 156.621094 111.984375 157.363281 112.953125 C 157.644531 113.320312 158.007812 113.753906 158.492188 113.867188 C 159.375 114.074219 160.289062 113.257812 160.828125 112.695312 C 162.117188 111.34375 162.945312 109.582031 163.476562 107.828125 C 163.644531 107.273438 163.949219 106.378906 163.707031 105.800781 C 163.464844 105.214844 162.746094 106.398438 162.636719 106.570312 C 161.988281 107.578125 160.9375 109.453125 159.480469 108.199219 C 159.285156 108.03125 159.128906 107.816406 159.003906 107.589844 C 158.28125 106.285156 158.523438 104.617188 158.800781 103.230469 C 159.304688 100.707031 160.433594 98.402344 161.511719 96.070312 C 162.175781 94.640625 163.914062 91.269531 162.679688 90.71875 Z M 162.679688 90.71875 " fill-opacity="1" fill-rule="evenodd"/><path fill="#000000" d="M 272.449219 45.71875 C 272.589844 45.792969 273.273438 45.625 273.449219 45.617188 C 274.332031 45.574219 275.21875 45.554688 276.105469 45.5625 C 278.878906 45.585938 281.640625 45.839844 284.371094 46.285156 C 285.613281 46.488281 287.816406 46.664062 287.949219 48.171875 C 287.839844 48.121094 287.929688 48.394531 287.902344 48.503906 C 287.847656 48.707031 287.78125 48.910156 287.714844 49.109375 C 287.515625 49.707031 287.207031 50.269531 286.894531 50.820312 C 285.964844 52.464844 284.625 53.921875 283.363281 55.351562 C 282.339844 56.511719 281.269531 57.621094 280.171875 58.71875 C 279.667969 59.226562 279.121094 59.945312 278.449219 60.277344 C 277.765625 60.617188 276.808594 60.65625 276.058594 60.773438 C 274.683594 60.992188 273.320312 61.246094 271.953125 61.507812 C 270.800781 61.730469 269.652344 61.96875 268.492188 62.152344 C 268.082031 62.21875 267.484375 62.386719 267.070312 62.253906 C 266.632812 62.113281 267.546875 61.570312 267.652344 61.515625 C 268.714844 60.941406 269.855469 60.480469 270.949219 59.964844 C 273.589844 58.714844 276.183594 57.328125 278.6875 55.855469 C 279.300781 55.492188 279.921875 55.132812 280.546875 54.78125 C 280.632812 54.734375 281.128906 54.550781 281.148438 54.4375 C 281.214844 54.082031 280.066406 53.824219 279.863281 53.765625 C 278.273438 53.320312 276.546875 53.253906 274.894531 53.257812 C 273.078125 53.261719 271.261719 53.414062 269.472656 53.699219 C 269.023438 53.773438 268.578125 53.878906 268.125 53.933594 C 268.015625 53.949219 267.769531 53.992188 267.691406 53.875 C 267.582031 53.703125 267.734375 53.347656 267.808594 53.191406 C 268.09375 52.601562 268.4375 52.039062 268.796875 51.488281 C 269.132812 50.972656 269.460938 50.453125 269.789062 49.933594 C 270.324219 49.082031 271.910156 46.570312 272.449219 45.71875 Z M 272.449219 45.71875 " fill-opacity="1" fill-rule="evenodd"/><path fill="#000000" d="M 158.796875 34.917969 C 158.941406 34.992188 159.621094 34.824219 159.796875 34.816406 C 160.679688 34.773438 161.566406 34.75 162.453125 34.757812 C 165.230469 34.785156 167.988281 35.035156 170.71875 35.484375 C 171.964844 35.6875 174.164062 35.863281 174.296875 37.371094 C 174.191406 37.320312 174.277344 37.59375 174.25 37.703125 C 174.195312 37.90625 174.132812 38.109375 174.0625 38.308594 C 173.863281 38.90625 173.554688 39.46875 173.246094 40.019531 C 172.3125 41.664062 170.972656 43.121094 169.710938 44.550781 C 168.691406 45.710938 167.621094 46.820312 166.523438 47.917969 C 166.015625 48.425781 165.46875 49.144531 164.800781 49.476562 C 164.117188 49.816406 163.160156 49.855469 162.410156 49.972656 C 161.035156 50.191406 159.667969 50.445312 158.304688 50.707031 C 157.152344 50.929688 156.003906 51.167969 154.839844 51.351562 C 154.429688 51.417969 153.832031 51.585938 153.417969 51.453125 C 152.980469 51.3125 153.898438 50.769531 154 50.714844 C 155.0625 50.140625 156.203125 49.679688 157.296875 49.164062 C 159.941406 47.914062 162.535156 46.527344 165.035156 45.054688 C 165.652344 44.691406 166.269531 44.332031 166.894531 43.980469 C 166.984375 43.933594 167.476562 43.75 167.5 43.636719 C 167.566406 43.28125 166.417969 43.023438 166.214844 42.964844 C 164.621094 42.519531 162.898438 42.453125 161.242188 42.457031 C 159.425781 42.460938 157.609375 42.613281 155.824219 42.898438 C 155.375 42.972656 154.929688 43.078125 154.476562 43.132812 C 154.363281 43.148438 154.117188 43.191406 154.042969 43.074219 C 153.933594 42.902344 154.085938 42.546875 154.160156 42.390625 C 154.445312 41.800781 154.789062 41.238281 155.144531 40.6875 C 155.480469 40.171875 155.808594 39.652344 156.136719 39.132812 C 156.675781 38.28125 158.261719 35.769531 158.796875 34.917969 Z M 158.796875 34.917969 " fill-opacity="1" fill-rule="evenodd"/><path fill="#000000" d="M 122.609375 43.292969 C 122.75 43.363281 123.433594 43.195312 123.609375 43.1875 C 124.492188 43.148438 125.378906 43.125 126.265625 43.132812 C 129.039062 43.15625 131.800781 43.410156 134.53125 43.859375 C 135.773438 44.0625 137.976562 44.234375 138.109375 45.746094 C 138 45.695312 138.089844 45.964844 138.0625 46.074219 C 138.007812 46.277344 137.941406 46.480469 137.875 46.679688 C 137.675781 47.277344 137.367188 47.839844 137.054688 48.394531 C 136.125 50.035156 134.785156 51.492188 133.523438 52.925781 C 132.5 54.085938 131.429688 55.191406 130.332031 56.289062 C 129.828125 56.796875 129.28125 57.515625 128.609375 57.851562 C 127.925781 58.191406 126.96875 58.226562 126.21875 58.347656 C 124.84375 58.5625 123.480469 58.820312 122.113281 59.082031 C 120.960938 59.300781 119.8125 59.539062 118.652344 59.726562 C 118.242188 59.789062 117.644531 59.957031 117.230469 59.824219 C 116.792969 59.6875 117.707031 59.140625 117.8125 59.085938 C 118.875 58.511719 120.015625 58.050781 121.109375 57.535156 C 123.75 56.285156 126.34375 54.902344 128.847656 53.425781 C 129.460938 53.0625 130.082031 52.703125 130.707031 52.355469 C 130.792969 52.304688 131.289062 52.121094 131.308594 52.011719 C 131.375 51.652344 130.226562 51.394531 130.023438 51.335938 C 128.433594 50.890625 126.707031 50.824219 125.054688 50.828125 C 123.238281 50.835938 121.421875 50.984375 119.632812 51.273438 C 119.183594 51.34375 118.738281 51.449219 118.285156 51.503906 C 118.175781 51.519531 117.929688 51.566406 117.851562 51.445312 C 117.742188 51.273438 117.894531 50.917969 117.972656 50.761719 C 118.253906 50.171875 118.597656 49.609375 118.957031 49.058594 C 119.292969 48.542969 119.621094 48.023438 119.949219 47.503906 C 120.484375 46.652344 122.070312 44.144531 122.609375 43.292969 Z M 122.609375 43.292969 " fill-opacity="1" fill-rule="evenodd"/><g clip-path="url(#be99f1c11e)"><path fill="#000000" d="M 340.335938 52.394531 C 340.503906 51.578125 340.058594 50.492188 339.851562 49.714844 C 339.214844 47.277344 338.265625 44.929688 337.269531 42.609375 C 334.667969 36.546875 330.902344 31.09375 326.460938 26.128906 C 323.347656 22.65625 319.851562 19.296875 315.703125 16.953125 C 311.804688 14.746094 307.425781 13.253906 303.074219 12.089844 C 301.695312 11.71875 300.316406 11.386719 298.902344 11.140625 C 298.300781 11.035156 297.695312 10.886719 297.082031 10.835938 C 297.066406 10.832031 296.59375 10.828125 296.601562 10.863281 C 296.84375 11.453125 298.804688 12.339844 299.316406 12.703125 C 301.636719 14.363281 303.835938 16.1875 305.871094 18.164062 C 311.808594 23.953125 316.933594 30.664062 321.035156 37.765625 C 323.015625 41.1875 324.742188 44.785156 326.09375 48.480469 C 326.515625 49.648438 326.894531 50.828125 327.207031 52.027344 C 327.347656 52.53125 327.351562 53.386719 327.667969 53.820312 C 328.234375 54.605469 329.472656 55.058594 330.328125 55.472656 C 331.710938 56.140625 334.355469 57.746094 334.355469 57.746094 C 334.355469 57.746094 335.8125 56.828125 336.394531 56.410156 C 337.671875 55.492188 339.449219 53.683594 340.335938 52.394531 Z M 340.335938 52.394531 " fill-opacity="1" fill-rule="evenodd"/></g><path fill="#000000" d="M 340.335938 73.703125 C 340.503906 74.519531 340.058594 75.605469 339.851562 76.382812 C 339.214844 78.820312 338.265625 81.167969 337.269531 83.488281 C 334.667969 89.550781 330.902344 95.003906 326.460938 99.964844 C 323.347656 103.441406 319.851562 106.796875 315.703125 109.144531 C 311.804688 111.351562 307.425781 112.84375 303.074219 114.007812 C 301.695312 114.375 300.316406 114.710938 298.902344 114.957031 C 298.300781 115.0625 297.695312 115.210938 297.082031 115.261719 C 297.066406 115.265625 296.59375 115.269531 296.601562 115.234375 C 296.84375 114.644531 298.804688 113.757812 299.316406 113.390625 C 301.636719 111.730469 303.835938 109.910156 305.871094 107.933594 C 311.808594 102.140625 316.933594 95.429688 321.035156 88.332031 C 323.015625 84.90625 324.742188 81.3125 326.09375 77.617188 C 326.515625 76.449219 326.894531 75.265625 327.207031 74.066406 C 327.347656 73.5625 327.351562 72.710938 327.667969 72.277344 C 328.234375 71.488281 329.472656 71.035156 330.328125 70.625 C 331.710938 69.957031 334.355469 68.351562 334.355469 68.351562 C 334.355469 68.351562 335.8125 69.269531 336.394531 69.683594 C 337.671875 70.605469 339.449219 72.410156 340.335938 73.703125 Z M 340.335938 73.703125 " fill-opacity="1" fill-rule="evenodd"/><path fill="#000000" d="M 350.171875 56.613281 L 350.121094 56.589844 C 349.851562 56.488281 349.609375 56.402344 349.53125 56.351562 C 348.398438 55.710938 347.5 54.8125 346.8125 53.746094 C 345.976562 52.460938 345.582031 51.011719 345.046875 49.609375 C 344.449219 48.070312 343.683594 46.546875 342.621094 45.257812 C 341.882812 44.371094 341.035156 43.546875 340.113281 42.839844 C 339.8125 42.609375 339.507812 42.394531 339.1875 42.1875 C 339.164062 42.175781 338.851562 41.980469 338.691406 41.859375 C 338.597656 41.789062 338.539062 41.722656 338.507812 41.683594 C 338.398438 41.535156 338.398438 41.398438 338.410156 41.3125 C 338.425781 41.183594 338.484375 41.074219 338.582031 40.988281 C 338.71875 40.871094 338.992188 40.765625 339.347656 40.75 C 339.824219 40.730469 340.492188 40.824219 340.703125 40.832031 C 342.882812 40.921875 345 41.601562 346.9375 42.523438 C 349.574219 43.785156 351.667969 45.757812 353.101562 48.21875 C 353.464844 48.839844 353.742188 49.550781 354.054688 50.242188 C 354.335938 50.859375 354.644531 51.460938 355.113281 51.929688 C 355.515625 52.335938 356.035156 52.578125 356.570312 52.796875 C 357.203125 53.054688 357.855469 53.28125 358.421875 53.621094 C 360.085938 54.617188 361.195312 56.363281 361.984375 58.035156 C 362.28125 58.675781 362.664062 59.445312 362.6875 60.15625 C 362.691406 60.359375 362.574219 60.546875 362.378906 60.636719 C 360.765625 61.382812 359.09375 62.023438 357.441406 62.691406 C 357.023438 62.859375 356.527344 63.015625 356.0625 63.207031 C 356.390625 63.355469 356.710938 63.496094 357.035156 63.640625 C 358.269531 64.1875 359.519531 64.710938 360.75 65.28125 C 361.078125 65.4375 361.410156 65.59375 361.742188 65.753906 C 361.851562 65.804688 361.960938 65.855469 362.0625 65.914062 C 362.046875 65.90625 362.007812 65.886719 362.007812 65.886719 C 362.007812 65.886719 362.257812 66 362.328125 66.0625 C 362.46875 66.210938 362.527344 66.382812 362.453125 66.605469 C 361.679688 68.921875 360.191406 71.28125 358.253906 72.851562 C 356.949219 73.90625 355.355469 74.511719 354.261719 75.816406 C 353.363281 76.882812 352.90625 78.203125 352.234375 79.398438 C 351.417969 80.847656 350.359375 82.175781 349.027344 83.230469 C 347.253906 84.632812 345.257812 85.382812 342.980469 85.574219 C 342.289062 85.628906 341.597656 85.667969 340.902344 85.679688 C 340.652344 85.683594 340.398438 85.679688 340.144531 85.664062 C 340.101562 85.660156 340.015625 85.648438 339.941406 85.636719 C 339.78125 85.664062 339.617188 85.625 339.492188 85.527344 C 339.285156 85.363281 339.277344 85.191406 339.285156 85.105469 C 339.285156 84.910156 339.371094 84.722656 339.632812 84.625 C 339.679688 84.609375 339.753906 84.589844 339.84375 84.585938 C 342.972656 83.636719 346.394531 81.21875 346.652344 77.851562 C 346.75 76.597656 346.425781 75.402344 346.328125 74.164062 C 346.273438 73.476562 346.207031 72.703125 346.488281 72.050781 C 346.910156 71.058594 347.75 70.433594 348.71875 69.964844 C 349.570312 69.550781 350.527344 69.261719 351.316406 68.875 C 351.464844 68.800781 351.863281 68.632812 352.167969 68.417969 C 352.207031 68.390625 352.253906 68.351562 352.289062 68.316406 C 351.625 67.707031 350.542969 67.316406 349.757812 66.945312 C 347.769531 65.996094 345.738281 65.128906 343.671875 64.339844 C 342.855469 64.023438 342.042969 63.695312 341.21875 63.40625 C 341.09375 63.363281 340.925781 63.285156 340.753906 63.222656 C 340.726562 63.210938 340.679688 63.195312 340.640625 63.1875 C 340.589844 63.246094 340.519531 63.316406 340.496094 63.339844 C 340.148438 63.691406 339.800781 64.042969 339.445312 64.390625 C 338.335938 65.472656 337.195312 66.523438 336.085938 67.605469 C 335.875 67.808594 335.582031 68.203125 335.269531 68.511719 C 334.976562 68.796875 334.65625 69.007812 334.363281 69.070312 C 334.175781 69.109375 333.902344 69.066406 333.605469 68.921875 C 333.238281 68.742188 332.785156 68.386719 332.609375 68.292969 C 331.058594 67.507812 329.546875 66.644531 328.03125 65.792969 C 327.195312 65.324219 326.378906 64.824219 325.507812 64.402344 C 325.320312 64.308594 324.902344 64.171875 324.621094 64 C 324.40625 63.871094 324.25 63.714844 324.171875 63.566406 C 324.074219 63.378906 324.078125 63.183594 324.1875 62.992188 C 324.238281 62.894531 324.332031 62.792969 324.457031 62.703125 C 324.601562 62.59375 324.800781 62.503906 324.863281 62.464844 C 325.445312 62.132812 326.035156 61.804688 326.609375 61.453125 C 328.535156 60.277344 330.46875 59.109375 332.425781 57.980469 C 332.902344 57.707031 333.375 57.4375 333.84375 57.148438 C 333.871094 57.128906 334.066406 57.015625 334.136719 56.976562 C 334.199219 56.902344 334.273438 56.84375 334.371094 56.808594 C 334.554688 56.738281 334.757812 56.765625 334.914062 56.886719 C 336.378906 58.03125 338.550781 59.820312 340 60.988281 C 340.367188 61.28125 340.742188 61.550781 341.097656 61.851562 C 341.121094 61.871094 341.183594 61.925781 341.234375 61.972656 C 341.273438 61.949219 341.316406 61.921875 341.355469 61.898438 C 341.539062 61.785156 341.726562 61.664062 341.871094 61.601562 C 342.855469 61.167969 343.792969 60.644531 344.726562 60.121094 C 345.59375 59.632812 346.394531 59.082031 347.179688 58.480469 C 348.019531 57.832031 348.941406 57.25 349.886719 56.746094 C 349.949219 56.710938 350.054688 56.667969 350.171875 56.613281 Z M 340.542969 41.855469 C 340.589844 41.859375 340.628906 41.859375 340.664062 41.863281 C 342.683594 41.945312 344.652344 42.585938 346.453125 43.445312 C 348.902344 44.613281 350.835938 46.441406 352.160156 48.71875 C 352.886719 49.96875 353.28125 51.582031 354.328125 52.640625 C 354.832031 53.148438 355.472656 53.46875 356.144531 53.746094 C 356.726562 53.984375 357.328125 54.183594 357.847656 54.496094 C 359.328125 55.382812 360.296875 56.964844 360.996094 58.457031 C 361.199219 58.886719 361.46875 59.378906 361.566406 59.863281 C 360.074219 60.535156 358.539062 61.125 357.019531 61.742188 C 356.261719 62.046875 355.273438 62.339844 354.609375 62.804688 C 354.4375 62.925781 354.394531 63.0625 354.382812 63.167969 C 354.363281 63.289062 354.386719 63.410156 354.460938 63.527344 C 354.507812 63.589844 354.582031 63.667969 354.703125 63.726562 C 354.746094 63.75 354.878906 63.792969 354.914062 63.804688 C 355.039062 63.867188 355.160156 63.929688 355.285156 63.988281 C 355.707031 64.195312 356.144531 64.382812 356.578125 64.574219 C 357.8125 65.121094 359.054688 65.644531 360.273438 66.210938 C 360.605469 66.359375 360.929688 66.511719 361.25 66.671875 L 361.285156 66.6875 C 360.542969 68.699219 359.238281 70.703125 357.554688 72.0625 C 356.199219 73.164062 354.558594 73.8125 353.421875 75.167969 C 352.480469 76.285156 351.984375 77.660156 351.28125 78.910156 C 350.535156 80.246094 349.558594 81.464844 348.339844 82.4375 C 346.738281 83.699219 344.9375 84.375 342.882812 84.546875 C 342.785156 84.554688 342.683594 84.5625 342.585938 84.570312 C 345.222656 83.164062 347.503906 80.839844 347.726562 77.929688 C 347.832031 76.621094 347.503906 75.375 347.402344 74.085938 C 347.363281 73.550781 347.265625 72.949219 347.480469 72.441406 C 347.808594 71.6875 348.472656 71.242188 349.210938 70.882812 C 350.0625 70.472656 351.023438 70.179688 351.808594 69.789062 C 352.074219 69.660156 352.945312 69.257812 353.25 68.835938 C 353.375 68.664062 353.4375 68.484375 353.4375 68.308594 C 353.4375 68.113281 353.375 67.910156 353.1875 67.71875 C 352.453125 66.964844 351.171875 66.464844 350.238281 66.019531 C 348.21875 65.0625 346.167969 64.183594 344.078125 63.382812 C 343.433594 63.132812 342.785156 62.875 342.140625 62.636719 C 342.203125 62.597656 342.265625 62.558594 342.320312 62.535156 C 343.335938 62.089844 344.308594 61.550781 345.273438 61.007812 C 346.183594 60.492188 347.03125 59.914062 347.855469 59.28125 C 348.648438 58.671875 349.519531 58.121094 350.410156 57.644531 C 350.578125 57.558594 350.984375 57.402344 351.222656 57.207031 C 351.441406 57.03125 351.5625 56.816406 351.574219 56.601562 C 351.582031 56.421875 351.507812 56.199219 351.273438 56.015625 C 350.984375 55.789062 350.234375 55.554688 350.078125 55.46875 C 349.101562 54.910156 348.328125 54.128906 347.726562 53.203125 C 346.933594 51.980469 346.574219 50.589844 346.058594 49.253906 C 345.429688 47.613281 344.597656 45.992188 343.464844 44.621094 C 342.675781 43.671875 341.773438 42.789062 340.785156 42.03125 C 340.703125 41.972656 340.625 41.914062 340.542969 41.855469 Z M 334.558594 57.941406 C 336 59.082031 337.964844 60.695312 339.308594 61.777344 C 339.542969 61.964844 339.777344 62.144531 340.011719 62.324219 C 339.898438 62.429688 339.769531 62.574219 339.71875 62.628906 C 339.371094 62.976562 339.027344 63.328125 338.679688 63.667969 C 337.570312 64.75 336.425781 65.800781 335.316406 66.882812 C 335.109375 67.085938 334.8125 67.480469 334.496094 67.789062 C 334.394531 67.894531 334.296875 67.996094 334.191406 68.042969 C 334.109375 68 333.890625 67.886719 333.753906 67.800781 C 333.484375 67.625 333.238281 67.449219 333.113281 67.382812 C 331.574219 66.605469 330.082031 65.746094 328.582031 64.90625 C 327.722656 64.425781 326.886719 63.914062 326 63.484375 C 325.894531 63.429688 325.714844 63.367188 325.527344 63.289062 C 326.085938 62.972656 326.640625 62.65625 327.191406 62.324219 C 329.109375 61.148438 331.035156 59.988281 332.984375 58.859375 C 333.464844 58.582031 333.953125 58.308594 334.429688 58.015625 C 334.449219 58.003906 334.496094 57.976562 334.558594 57.941406 Z M 334.558594 57.941406 " fill-opacity="1" fill-rule="evenodd"/><path fill="#000000" d="M 374.988281 63.546875 L 362.328125 66.0625 L 355.726562 63.214844 L 362.363281 60.226562 Z M 374.988281 63.546875 " fill-opacity="1" fill-rule="evenodd"/><path fill="#000000" d="M 34.636719 57.695312 C 34.46875 56.878906 34.914062 55.792969 35.121094 55.015625 C 35.757812 52.578125 36.707031 50.230469 37.699219 47.910156 C 40.304688 41.847656 44.066406 36.394531 48.511719 31.433594 C 51.625 27.957031 55.121094 24.601562 59.269531 22.253906 C 63.167969 20.046875 67.546875 18.558594 71.898438 17.390625 C 73.277344 17.023438 74.65625 16.691406 76.070312 16.441406 C 76.667969 16.339844 77.277344 16.1875 77.886719 16.136719 C 77.90625 16.136719 78.378906 16.132812 78.367188 16.167969 C 78.128906 16.753906 76.167969 17.644531 75.65625 18.007812 C 73.335938 19.667969 71.136719 21.488281 69.101562 23.46875 C 63.164062 29.257812 58.039062 35.96875 53.9375 43.066406 C 51.957031 46.492188 50.230469 50.085938 48.878906 53.78125 C 48.457031 54.949219 48.078125 56.132812 47.761719 57.332031 C 47.625 57.835938 47.621094 58.6875 47.304688 59.121094 C 46.738281 59.910156 45.5 60.363281 44.644531 60.773438 C 43.261719 61.441406 40.617188 63.046875 40.617188 63.046875 C 40.617188 63.046875 39.160156 62.128906 38.578125 61.714844 C 37.300781 60.796875 35.523438 58.988281 34.636719 57.695312 Z M 34.636719 57.695312 " fill-opacity="1" fill-rule="evenodd"/><path fill="#000000" d="M 34.636719 79.003906 C 34.46875 79.820312 34.914062 80.910156 35.121094 81.683594 C 35.757812 84.121094 36.707031 86.46875 37.699219 88.789062 C 40.304688 94.851562 44.066406 100.304688 48.511719 105.269531 C 51.625 108.742188 55.121094 112.101562 59.269531 114.445312 C 63.167969 116.652344 67.546875 118.144531 71.898438 119.308594 C 73.277344 119.679688 74.65625 120.011719 76.070312 120.257812 C 76.667969 120.363281 77.277344 120.511719 77.886719 120.566406 C 77.90625 120.566406 78.378906 120.570312 78.367188 120.535156 C 78.128906 119.945312 76.167969 119.058594 75.65625 118.695312 C 73.335938 117.035156 71.136719 115.214844 69.101562 113.234375 C 63.164062 107.445312 58.039062 100.734375 53.9375 93.632812 C 51.957031 90.210938 50.230469 86.613281 48.878906 82.917969 C 48.457031 81.75 48.078125 80.570312 47.761719 79.371094 C 47.625 78.867188 47.621094 78.015625 47.304688 77.578125 C 46.738281 76.792969 45.5 76.339844 44.644531 75.925781 C 43.261719 75.257812 40.617188 73.652344 40.617188 73.652344 C 40.617188 73.652344 39.160156 74.570312 38.578125 74.988281 C 37.300781 75.90625 35.523438 77.714844 34.636719 79.003906 Z M 34.636719 79.003906 " fill-opacity="1" fill-rule="evenodd"/><path fill="#000000" d="M 24.800781 61.914062 L 24.851562 61.894531 C 25.121094 61.792969 25.363281 61.703125 25.441406 61.65625 C 26.574219 61.011719 27.472656 60.113281 28.160156 59.046875 C 28.996094 57.765625 29.390625 56.316406 29.925781 54.910156 C 30.523438 53.375 31.289062 51.851562 32.351562 50.5625 C 33.089844 49.671875 33.9375 48.847656 34.859375 48.140625 C 35.160156 47.914062 35.464844 47.695312 35.785156 47.492188 C 35.808594 47.476562 36.121094 47.28125 36.28125 47.160156 C 36.375 47.09375 36.429688 47.027344 36.464844 46.984375 C 36.574219 46.839844 36.574219 46.703125 36.5625 46.613281 C 36.546875 46.484375 36.488281 46.378906 36.390625 46.292969 C 36.253906 46.171875 35.980469 46.066406 35.625 46.050781 C 35.148438 46.03125 34.480469 46.125 34.269531 46.136719 C 32.089844 46.222656 29.972656 46.902344 28.035156 47.824219 C 25.394531 49.085938 23.300781 51.058594 21.871094 53.519531 C 21.507812 54.140625 21.230469 54.855469 20.917969 55.542969 C 20.636719 56.164062 20.328125 56.761719 19.859375 57.234375 C 19.457031 57.640625 18.9375 57.878906 18.398438 58.101562 C 17.769531 58.359375 17.117188 58.585938 16.550781 58.925781 C 14.886719 59.917969 13.777344 61.664062 12.988281 63.339844 C 12.691406 63.980469 12.308594 64.746094 12.285156 65.460938 C 12.277344 65.660156 12.398438 65.847656 12.59375 65.9375 C 14.207031 66.683594 15.878906 67.324219 17.53125 67.996094 C 17.949219 68.160156 18.445312 68.320312 18.910156 68.511719 C 18.582031 68.65625 18.261719 68.800781 17.9375 68.941406 C 16.699219 69.488281 15.453125 70.015625 14.222656 70.582031 C 13.890625 70.738281 13.558594 70.894531 13.226562 71.054688 C 13.121094 71.109375 13.011719 71.160156 12.90625 71.21875 C 12.925781 71.207031 12.964844 71.191406 12.964844 71.191406 C 12.964844 71.191406 12.714844 71.300781 12.644531 71.367188 C 12.5 71.511719 12.445312 71.6875 12.519531 71.90625 C 13.292969 74.226562 14.777344 76.582031 16.71875 78.152344 C 18.023438 79.210938 19.617188 79.8125 20.710938 81.117188 C 21.609375 82.183594 22.066406 83.507812 22.734375 84.699219 C 23.554688 86.152344 24.613281 87.476562 25.945312 88.53125 C 27.71875 89.933594 29.714844 90.683594 31.992188 90.875 C 32.683594 90.933594 33.375 90.96875 34.070312 90.980469 C 34.320312 90.984375 34.570312 90.984375 34.828125 90.964844 C 34.871094 90.964844 34.957031 90.949219 35.03125 90.9375 C 35.191406 90.96875 35.355469 90.929688 35.480469 90.828125 C 35.6875 90.664062 35.691406 90.492188 35.6875 90.40625 C 35.6875 90.210938 35.601562 90.023438 35.339844 89.925781 C 35.292969 89.910156 35.21875 89.890625 35.125 89.890625 C 31.996094 88.941406 28.578125 86.519531 28.320312 83.152344 C 28.222656 81.898438 28.546875 80.703125 28.644531 79.464844 C 28.695312 78.777344 28.765625 78.003906 28.484375 77.351562 C 28.0625 76.359375 27.222656 75.738281 26.253906 75.265625 C 25.402344 74.855469 24.445312 74.5625 23.65625 74.175781 C 23.507812 74.101562 23.109375 73.933594 22.804688 73.71875 C 22.765625 73.691406 22.71875 73.652344 22.683594 73.617188 C 23.347656 73.011719 24.429688 72.621094 25.214844 72.246094 C 27.203125 71.300781 29.234375 70.433594 31.300781 69.640625 C 32.117188 69.328125 32.929688 68.996094 33.753906 68.707031 C 33.878906 68.667969 34.046875 68.589844 34.21875 68.523438 C 34.246094 68.511719 34.292969 68.5 34.332031 68.488281 C 34.382812 68.546875 34.453125 68.617188 34.476562 68.640625 C 34.824219 68.992188 35.171875 69.347656 35.527344 69.691406 C 36.636719 70.773438 37.777344 71.828125 38.886719 72.90625 C 39.097656 73.109375 39.386719 73.503906 39.703125 73.8125 C 39.996094 74.101562 40.316406 74.308594 40.605469 74.371094 C 40.796875 74.410156 41.070312 74.371094 41.367188 74.222656 C 41.734375 74.042969 42.1875 73.6875 42.363281 73.597656 C 43.914062 72.8125 45.425781 71.945312 46.941406 71.097656 C 47.773438 70.625 48.59375 70.128906 49.460938 69.703125 C 49.652344 69.609375 50.070312 69.472656 50.347656 69.304688 C 50.566406 69.175781 50.722656 69.019531 50.800781 68.867188 C 50.898438 68.679688 50.894531 68.488281 50.785156 68.292969 C 50.734375 68.199219 50.640625 68.09375 50.515625 68.003906 C 50.371094 67.898438 50.171875 67.804688 50.109375 67.769531 C 49.527344 67.4375 48.9375 67.105469 48.363281 66.757812 C 46.4375 65.578125 44.503906 64.414062 42.546875 63.28125 C 42.070312 63.007812 41.597656 62.738281 41.128906 62.453125 C 41.097656 62.433594 40.90625 62.320312 40.835938 62.28125 C 40.773438 62.203125 40.699219 62.144531 40.601562 62.109375 C 40.417969 62.039062 40.210938 62.070312 40.058594 62.1875 C 38.59375 63.332031 36.417969 65.121094 34.972656 66.289062 C 34.605469 66.582031 34.230469 66.855469 33.875 67.152344 C 33.851562 67.171875 33.789062 67.226562 33.738281 67.273438 C 33.695312 67.253906 33.65625 67.226562 33.617188 67.199219 C 33.433594 67.085938 33.246094 66.964844 33.101562 66.902344 C 32.117188 66.46875 31.179688 65.949219 30.246094 65.421875 C 29.378906 64.933594 28.578125 64.382812 27.792969 63.78125 C 26.953125 63.132812 26.03125 62.550781 25.085938 62.046875 C 25.023438 62.011719 24.914062 61.96875 24.800781 61.914062 Z M 34.429688 47.15625 C 34.382812 47.160156 34.34375 47.164062 34.308594 47.164062 C 32.289062 47.246094 30.320312 47.890625 28.519531 48.75 C 26.070312 49.914062 24.136719 51.746094 22.808594 54.023438 C 22.082031 55.273438 21.6875 56.886719 20.640625 57.941406 C 20.140625 58.453125 19.5 58.773438 18.828125 59.046875 C 18.246094 59.285156 17.644531 59.488281 17.125 59.796875 C 15.640625 60.683594 14.675781 62.265625 13.976562 63.761719 C 13.773438 64.191406 13.503906 64.679688 13.40625 65.164062 C 14.898438 65.839844 16.433594 66.429688 17.953125 67.046875 C 18.707031 67.351562 19.699219 67.640625 20.363281 68.109375 C 20.535156 68.226562 20.578125 68.363281 20.589844 68.472656 C 20.609375 68.59375 20.585938 68.710938 20.511719 68.828125 C 20.464844 68.890625 20.390625 68.96875 20.269531 69.03125 C 20.226562 69.050781 20.09375 69.09375 20.058594 69.105469 C 19.933594 69.167969 19.8125 69.230469 19.6875 69.292969 C 19.261719 69.496094 18.828125 69.6875 18.394531 69.878906 C 17.160156 70.421875 15.917969 70.945312 14.699219 71.511719 C 14.367188 71.664062 14.039062 71.816406 13.71875 71.972656 L 13.6875 71.988281 C 14.429688 74 15.734375 76.003906 17.414062 77.367188 C 18.773438 78.464844 20.414062 79.117188 21.550781 80.472656 C 22.488281 81.585938 22.988281 82.964844 23.691406 84.210938 C 24.433594 85.546875 25.414062 86.769531 26.632812 87.738281 C 28.234375 89.003906 30.035156 89.675781 32.089844 89.847656 C 32.1875 89.855469 32.289062 89.863281 32.386719 89.871094 C 29.75 88.46875 27.46875 86.140625 27.242188 83.230469 C 27.140625 81.925781 27.46875 80.679688 27.570312 79.386719 C 27.609375 78.855469 27.707031 78.25 27.488281 77.742188 C 27.164062 76.988281 26.5 76.542969 25.761719 76.1875 C 24.910156 75.773438 23.949219 75.480469 23.164062 75.089844 C 22.894531 74.960938 22.027344 74.558594 21.722656 74.136719 C 21.597656 73.964844 21.535156 73.785156 21.535156 73.609375 C 21.535156 73.414062 21.597656 73.210938 21.785156 73.019531 C 22.519531 72.269531 23.800781 71.765625 24.734375 71.324219 C 26.75 70.363281 28.804688 69.484375 30.894531 68.683594 C 31.539062 68.4375 32.1875 68.179688 32.832031 67.9375 C 32.769531 67.898438 32.707031 67.863281 32.648438 67.835938 C 31.636719 67.390625 30.664062 66.851562 29.699219 66.3125 C 28.789062 65.796875 27.941406 65.21875 27.117188 64.585938 C 26.324219 63.972656 25.453125 63.421875 24.5625 62.949219 C 24.394531 62.859375 23.988281 62.703125 23.75 62.511719 C 23.53125 62.332031 23.410156 62.117188 23.398438 61.90625 C 23.386719 61.726562 23.460938 61.503906 23.695312 61.316406 C 23.988281 61.09375 24.738281 60.855469 24.894531 60.769531 C 25.871094 60.210938 26.644531 59.429688 27.242188 58.507812 C 28.039062 57.28125 28.398438 55.894531 28.914062 54.554688 C 29.542969 52.917969 30.371094 51.296875 31.503906 49.921875 C 32.296875 48.972656 33.199219 48.089844 34.1875 47.335938 C 34.269531 47.273438 34.347656 47.214844 34.429688 47.15625 Z M 40.414062 63.242188 C 38.972656 64.382812 37.007812 65.996094 35.664062 67.078125 C 35.429688 67.265625 35.195312 67.445312 34.960938 67.628906 C 35.074219 67.730469 35.199219 67.875 35.253906 67.929688 C 35.601562 68.277344 35.945312 68.628906 36.292969 68.972656 C 37.402344 70.054688 38.546875 71.105469 39.65625 72.183594 C 39.863281 72.386719 40.160156 72.785156 40.476562 73.09375 C 40.578125 73.195312 40.675781 73.296875 40.777344 73.34375 C 40.863281 73.304688 41.082031 73.191406 41.21875 73.101562 C 41.488281 72.929688 41.734375 72.75 41.859375 72.683594 C 43.398438 71.90625 44.890625 71.046875 46.390625 70.207031 C 47.25 69.726562 48.082031 69.21875 48.96875 68.785156 C 49.078125 68.734375 49.257812 68.667969 49.445312 68.589844 C 48.886719 68.273438 48.328125 67.957031 47.78125 67.625 C 45.863281 66.453125 43.9375 65.292969 41.984375 64.164062 C 41.503906 63.882812 41.019531 63.609375 40.542969 63.316406 C 40.519531 63.304688 40.476562 63.277344 40.414062 63.242188 Z M 40.414062 63.242188 " fill-opacity="1" fill-rule="evenodd"/><path fill="#000000" d="M -0.015625 68.847656 L 12.644531 71.367188 L 19.246094 68.515625 L 12.609375 65.53125 Z M -0.015625 68.847656 " fill-opacity="1" fill-rule="evenodd"/></svg>