<svg xmlns="http://www.w3.org/2000/svg" xmlns:xlink="http://www.w3.org/1999/xlink" width="500" zoomAndPan="magnify" viewBox="0 0 375 149.999998" height="200" preserveAspectRatio="xMidYMid meet" version="1.0"><defs><clipPath id="133e7dd282"><path d="M 302 13.359375 L 342 13.359375 L 342 62 L 302 62 Z M 302 13.359375 " clip-rule="nonzero"/></clipPath><clipPath id="8a1b151743"><path d="M 33 13.359375 L 73 13.359375 L 73 62 L 33 62 Z M 33 13.359375 " clip-rule="nonzero"/></clipPath><clipPath id="6fc10b0aef"><path d="M 246 98 L 315 98 L 315 136.359375 L 246 136.359375 Z M 246 98 " clip-rule="nonzero"/></clipPath></defs><g clip-path="url(#133e7dd282)"><path fill="#000000" d="M 302.222656 13.4375 C 301.972656 13.375 302.738281 13.484375 302.992188 13.53125 C 303.480469 13.625 303.964844 13.734375 304.453125 13.828125 C 305.855469 14.101562 307.226562 14.445312 308.582031 14.925781 C 312.675781 16.367188 316.601562 18.53125 320.199219 21.0625 C 328.90625 27.191406 335.425781 36.390625 339.027344 46.878906 C 339.902344 49.433594 340.660156 52.039062 341.273438 54.679688 C 341.492188 55.628906 342.023438 56.980469 341.609375 57.945312 C 340.890625 59.628906 338.992188 60.691406 337.664062 61.726562 C 337.835938 61.945312 337.136719 61.796875 336.871094 61.847656 C 336.335938 61.949219 335.753906 61.71875 335.257812 61.515625 C 333.863281 60.945312 332.46875 59.707031 331.144531 58.890625 C 330.078125 58.234375 330.023438 56.601562 329.703125 55.425781 C 329.015625 52.90625 328.140625 50.441406 327.203125 48.019531 C 322.375 35.539062 312.128906 21.78125 302.222656 13.4375 Z M 302.222656 13.4375 " fill-opacity="1" fill-rule="evenodd"/></g><path fill="#000000" d="M 302.222656 122.644531 C 301.972656 122.707031 302.738281 122.601562 302.992188 122.554688 C 303.480469 122.457031 303.964844 122.351562 304.453125 122.253906 C 305.855469 121.984375 307.226562 121.640625 308.582031 121.160156 C 312.675781 119.714844 316.601562 117.554688 320.199219 115.023438 C 328.90625 108.894531 335.425781 99.695312 339.027344 89.203125 C 339.902344 86.648438 340.660156 84.046875 341.273438 81.402344 C 341.492188 80.453125 342.023438 79.101562 341.609375 78.140625 C 340.890625 76.457031 338.992188 75.394531 337.664062 74.355469 C 337.835938 74.140625 337.136719 74.289062 336.871094 74.238281 C 336.335938 74.136719 335.753906 74.367188 335.257812 74.570312 C 333.863281 75.140625 332.46875 76.378906 331.144531 77.191406 C 330.078125 77.851562 330.023438 79.480469 329.703125 80.660156 C 329.015625 83.179688 328.140625 85.644531 327.203125 88.066406 C 322.375 100.546875 312.128906 114.304688 302.222656 122.644531 Z M 302.222656 122.644531 " fill-opacity="1" fill-rule="evenodd"/><path fill="#000000" d="M 350.902344 61.292969 C 350.75 61.207031 350.605469 61.128906 350.523438 61.070312 C 349.699219 60.484375 348.992188 59.804688 348.417969 58.933594 C 346.425781 55.90625 345.746094 52.128906 343.753906 49.082031 C 343.089844 48.0625 342.269531 47.183594 341.359375 46.425781 C 340.949219 46.085938 340.507812 45.792969 340.097656 45.453125 C 340.003906 45.375 339.773438 45.171875 339.6875 45.015625 C 339.550781 44.765625 339.5625 44.519531 339.65625 44.3125 C 339.722656 44.167969 339.84375 43.988281 340.140625 43.902344 C 341.378906 43.550781 343.105469 44.082031 344.261719 44.46875 C 347.507812 45.546875 350.71875 47.5625 352.710938 50.59375 C 353.246094 51.40625 353.628906 52.335938 354.023438 53.257812 C 354.378906 54.085938 354.742188 54.90625 355.277344 55.59375 C 355.644531 56.066406 356.121094 56.394531 356.613281 56.691406 C 357.1875 57.035156 357.789062 57.34375 358.328125 57.726562 C 359.878906 58.839844 360.886719 60.59375 361.609375 62.402344 C 361.84375 62.984375 362.058594 63.582031 362.230469 64.1875 C 362.300781 64.429688 362.355469 64.679688 362.398438 64.929688 C 362.410156 64.996094 362.410156 65.175781 362.410156 65.285156 C 362.414062 65.335938 362.414062 65.386719 362.40625 65.441406 C 362.347656 65.832031 362.117188 65.957031 361.921875 65.992188 C 360.445312 66.570312 358.980469 67.160156 357.523438 67.78125 L 357.433594 67.816406 C 358.371094 68.3125 359.300781 68.820312 360.234375 69.328125 C 360.4375 69.433594 360.976562 69.605469 361.332031 69.8125 C 361.628906 69.980469 361.824219 70.203125 361.910156 70.402344 C 361.980469 70.578125 362.007812 70.824219 361.96875 71.101562 C 361.917969 71.433594 361.761719 71.839844 361.703125 72.035156 C 361.339844 73.273438 360.796875 74.492188 360.148438 75.585938 C 359.542969 76.605469 358.824219 77.53125 357.949219 78.292969 C 356.800781 79.289062 355.453125 80.019531 354.527344 81.285156 C 353.882812 82.160156 353.503906 83.191406 353.105469 84.214844 C 352.660156 85.359375 352.195312 86.492188 351.421875 87.464844 C 349.4375 89.964844 346.558594 91.597656 343.507812 91.859375 C 342.8125 91.917969 342.097656 91.964844 341.402344 91.910156 C 341.300781 91.902344 340.871094 91.875 340.675781 91.777344 C 340.445312 91.660156 340.332031 91.472656 340.285156 91.285156 C 340.234375 91.082031 340.253906 90.792969 340.511719 90.554688 C 340.632812 90.445312 341.015625 90.269531 341.082031 90.242188 C 341.515625 90.019531 341.917969 89.753906 342.320312 89.46875 C 343.363281 88.726562 344.269531 87.777344 345.007812 86.6875 C 345.640625 85.75 346.199219 84.710938 346.632812 83.652344 C 346.765625 83.328125 346.902344 82.992188 346.988281 82.644531 C 347 82.597656 347.023438 82.40625 347.050781 82.289062 C 346.996094 81.21875 346.828125 80.140625 346.878906 79.132812 C 346.945312 77.921875 347.300781 76.800781 348.390625 75.863281 C 349.496094 74.910156 350.804688 74.382812 352.046875 73.703125 C 352.125 73.660156 352.289062 73.566406 352.421875 73.492188 C 351.984375 72.964844 351.242188 72.574219 350.71875 72.25 C 349.050781 71.210938 347.238281 70.4375 345.457031 69.667969 C 344.660156 69.328125 343.863281 69.003906 343.050781 68.722656 C 342.730469 68.613281 342.410156 68.503906 342.085938 68.414062 L 342.019531 68.394531 C 340.730469 69.847656 339.214844 71.105469 337.824219 72.433594 C 337.445312 72.800781 337.054688 73.15625 336.671875 73.523438 C 336.636719 73.570312 336.476562 73.757812 336.390625 73.832031 C 336.308594 73.90625 336.234375 73.949219 336.179688 73.972656 C 335.941406 74.078125 335.75 74.011719 335.625 73.929688 C 333.851562 72.777344 332.101562 71.59375 330.359375 70.386719 C 329.777344 69.984375 329.203125 69.570312 328.617188 69.175781 C 328.429688 69.050781 328.238281 68.925781 328.046875 68.804688 C 327.976562 68.761719 327.910156 68.71875 327.84375 68.671875 C 327.726562 68.628906 327.625 68.542969 327.554688 68.433594 C 327.386719 68.171875 327.441406 67.964844 327.464844 67.867188 C 327.511719 67.691406 327.605469 67.535156 327.78125 67.453125 C 330.421875 65.125 333.320312 63.253906 336.191406 61.296875 C 336.417969 61.140625 336.707031 61.164062 336.910156 61.351562 C 337.53125 61.925781 339.757812 63.972656 340.378906 64.542969 C 340.957031 65.070312 341.53125 65.601562 342.109375 66.125 C 342.246094 66.25 342.394531 66.40625 342.550781 66.546875 C 342.640625 66.625 342.726562 66.703125 342.820312 66.742188 C 342.867188 66.726562 343.082031 66.664062 343.207031 66.601562 C 343.488281 66.46875 343.761719 66.292969 343.917969 66.210938 C 345.398438 65.4375 346.644531 64.234375 347.992188 63.230469 C 348.847656 62.59375 349.738281 61.996094 350.648438 61.441406 C 350.707031 61.402344 350.800781 61.355469 350.902344 61.292969 Z M 341.769531 45.132812 C 342.523438 45.242188 343.304688 45.519531 343.90625 45.71875 C 346.902344 46.710938 349.878906 48.554688 351.722656 51.351562 C 352.757812 52.929688 353.199219 54.960938 354.347656 56.4375 C 355.214844 57.550781 356.558594 58.03125 357.65625 58.816406 C 359.007812 59.789062 359.863281 61.339844 360.492188 62.921875 C 360.710938 63.460938 360.910156 64.015625 361.074219 64.574219 C 361.105469 64.683594 361.132812 64.792969 361.15625 64.902344 C 359.789062 65.4375 358.429688 65.988281 357.078125 66.5625 C 356.953125 66.613281 356.125 66.882812 355.808594 67.105469 C 355.476562 67.332031 355.402344 67.644531 355.414062 67.835938 C 355.425781 68.070312 355.558594 68.28125 355.753906 68.386719 C 357.074219 69.074219 358.378906 69.789062 359.691406 70.496094 C 359.828125 70.570312 360.117188 70.671875 360.402344 70.792969 C 360.507812 70.835938 360.644531 70.910156 360.742188 70.964844 C 360.6875 71.15625 360.582031 71.519531 360.546875 71.640625 C 360.214844 72.773438 359.71875 73.882812 359.125 74.878906 C 358.589844 75.78125 357.960938 76.601562 357.1875 77.273438 C 355.96875 78.328125 354.558594 79.128906 353.574219 80.472656 C 352.867188 81.445312 352.429688 82.574219 351.988281 83.710938 C 351.589844 84.726562 351.191406 85.746094 350.503906 86.613281 C 348.722656 88.851562 346.144531 90.320312 343.410156 90.554688 C 343.253906 90.570312 343.097656 90.582031 342.941406 90.59375 L 342.984375 90.5625 C 344.15625 89.730469 345.164062 88.675781 345.988281 87.457031 C 346.671875 86.445312 347.273438 85.324219 347.742188 84.183594 C 347.902344 83.789062 348.0625 83.382812 348.167969 82.964844 C 348.175781 82.929688 348.199219 82.777344 348.210938 82.703125 C 348.253906 82.605469 348.277344 82.492188 348.269531 82.378906 C 348.234375 81.507812 348.105469 80.625 348.085938 79.78125 C 348.058594 78.707031 348.210938 77.695312 349.148438 76.882812 C 350.1875 75.988281 351.421875 75.507812 352.59375 74.871094 C 352.8125 74.753906 353.230469 74.5625 353.460938 74.316406 C 353.617188 74.152344 353.71875 73.957031 353.75 73.753906 C 353.792969 73.527344 353.765625 73.277344 353.605469 73.007812 C 353.117188 72.207031 352.066406 71.578125 351.328125 71.117188 C 349.609375 70.046875 347.742188 69.246094 345.90625 68.453125 C 345.257812 68.175781 344.609375 67.910156 343.949219 67.667969 C 344.148438 67.558594 344.328125 67.449219 344.449219 67.386719 C 345.984375 66.585938 347.285156 65.347656 348.679688 64.308594 C 349.507812 63.691406 350.363281 63.113281 351.242188 62.582031 C 351.421875 62.46875 351.8125 62.261719 352.035156 62.015625 C 352.234375 61.796875 352.335938 61.539062 352.335938 61.28125 C 352.335938 61.015625 352.222656 60.742188 351.992188 60.511719 C 351.757812 60.285156 351.355469 60.097656 351.195312 59.980469 C 350.496094 59.484375 349.890625 58.914062 349.40625 58.175781 C 347.414062 55.152344 346.734375 51.375 344.746094 48.328125 C 344.011719 47.203125 343.109375 46.226562 342.097656 45.390625 C 341.992188 45.300781 341.882812 45.214844 341.769531 45.132812 Z M 336.460938 62.660156 C 337.328125 63.457031 339.058594 65.046875 339.59375 65.539062 C 340.171875 66.070312 340.746094 66.601562 341.328125 67.128906 L 341.394531 67.1875 C 341.363281 67.222656 341.339844 67.253906 341.320312 67.285156 C 340.015625 68.800781 338.449219 70.089844 337.019531 71.457031 C 336.636719 71.824219 336.242188 72.183594 335.859375 72.554688 C 334.230469 71.488281 332.621094 70.394531 331.015625 69.285156 C 330.429688 68.882812 329.851562 68.464844 329.257812 68.066406 L 329.117188 67.972656 C 331.445312 66.003906 333.960938 64.359375 336.460938 62.660156 Z M 336.460938 62.660156 " fill-opacity="1" fill-rule="evenodd"/><path fill="#000000" d="M 374.742188 68.480469 L 362.40625 65.441406 L 356.765625 67.863281 L 361.445312 70.273438 Z M 374.742188 68.480469 " fill-opacity="1" fill-rule="evenodd"/><g clip-path="url(#8a1b151743)"><path fill="#000000" d="M 72.777344 13.4375 C 73.027344 13.375 72.261719 13.484375 72.011719 13.53125 C 71.523438 13.625 71.035156 13.734375 70.546875 13.828125 C 69.144531 14.101562 67.773438 14.445312 66.417969 14.925781 C 62.324219 16.367188 58.402344 18.53125 54.800781 21.0625 C 46.09375 27.191406 39.574219 36.390625 35.972656 46.878906 C 35.097656 49.433594 34.339844 52.039062 33.730469 54.679688 C 33.507812 55.628906 32.976562 56.980469 33.390625 57.945312 C 34.109375 59.628906 36.007812 60.691406 37.339844 61.726562 C 37.164062 61.945312 37.863281 61.796875 38.128906 61.847656 C 38.664062 61.949219 39.246094 61.71875 39.742188 61.515625 C 41.140625 60.945312 42.535156 59.707031 43.855469 58.890625 C 44.925781 58.234375 44.976562 56.601562 45.296875 55.425781 C 45.984375 52.90625 46.859375 50.441406 47.796875 48.019531 C 52.625 35.539062 62.871094 21.78125 72.777344 13.4375 Z M 72.777344 13.4375 " fill-opacity="1" fill-rule="evenodd"/></g><path fill="#000000" d="M 72.777344 122.644531 C 73.027344 122.707031 72.261719 122.601562 72.011719 122.554688 C 71.523438 122.457031 71.035156 122.351562 70.546875 122.253906 C 69.144531 121.984375 67.773438 121.640625 66.417969 121.160156 C 62.324219 119.714844 58.402344 117.554688 54.800781 115.023438 C 46.09375 108.894531 39.574219 99.695312 35.972656 89.203125 C 35.097656 86.648438 34.339844 84.046875 33.730469 81.402344 C 33.507812 80.453125 32.976562 79.101562 33.390625 78.140625 C 34.109375 76.457031 36.007812 75.394531 37.339844 74.355469 C 37.164062 74.140625 37.863281 74.289062 38.128906 74.238281 C 38.664062 74.136719 39.246094 74.367188 39.742188 74.570312 C 41.140625 75.140625 42.535156 76.378906 43.855469 77.191406 C 44.925781 77.851562 44.976562 79.480469 45.296875 80.660156 C 45.984375 83.179688 46.859375 85.644531 47.796875 88.066406 C 52.625 100.546875 62.871094 114.304688 72.777344 122.644531 Z M 72.777344 122.644531 " fill-opacity="1" fill-rule="evenodd"/><path fill="#000000" d="M 24.097656 61.292969 C 24.25 61.207031 24.394531 61.128906 24.476562 61.070312 C 25.300781 60.484375 26.011719 59.804688 26.582031 58.933594 C 28.574219 55.90625 29.257812 52.128906 31.246094 49.082031 C 31.910156 48.0625 32.730469 47.183594 33.644531 46.425781 C 34.050781 46.085938 34.492188 45.792969 34.902344 45.453125 C 34.996094 45.375 35.230469 45.171875 35.3125 45.015625 C 35.449219 44.765625 35.4375 44.519531 35.34375 44.3125 C 35.28125 44.167969 35.15625 43.988281 34.859375 43.902344 C 33.621094 43.550781 31.894531 44.082031 30.738281 44.46875 C 27.492188 45.546875 24.285156 47.5625 22.292969 50.59375 C 21.753906 51.40625 21.371094 52.335938 20.976562 53.257812 C 20.621094 54.085938 20.257812 54.90625 19.722656 55.59375 C 19.355469 56.066406 18.878906 56.394531 18.386719 56.691406 C 17.8125 57.035156 17.210938 57.34375 16.675781 57.726562 C 15.121094 58.839844 14.113281 60.59375 13.390625 62.402344 C 13.160156 62.984375 12.941406 63.582031 12.769531 64.1875 C 12.699219 64.429688 12.644531 64.679688 12.601562 64.929688 C 12.589844 64.996094 12.589844 65.175781 12.589844 65.285156 C 12.585938 65.335938 12.585938 65.386719 12.597656 65.441406 C 12.652344 65.832031 12.882812 65.957031 13.078125 65.992188 C 14.554688 66.570312 16.019531 67.160156 17.480469 67.78125 L 17.566406 67.816406 C 16.632812 68.3125 15.699219 68.820312 14.765625 69.328125 C 14.566406 69.433594 14.023438 69.605469 13.667969 69.8125 C 13.371094 69.980469 13.175781 70.203125 13.09375 70.402344 C 13.019531 70.578125 12.992188 70.824219 13.03125 71.101562 C 13.082031 71.433594 13.238281 71.839844 13.296875 72.035156 C 13.660156 73.273438 14.203125 74.492188 14.851562 75.585938 C 15.457031 76.605469 16.179688 77.53125 17.054688 78.292969 C 18.199219 79.289062 19.546875 80.019531 20.476562 81.285156 C 21.117188 82.160156 21.496094 83.191406 21.894531 84.214844 C 22.339844 85.359375 22.808594 86.492188 23.578125 87.464844 C 25.5625 89.964844 28.441406 91.597656 31.496094 91.859375 C 32.191406 91.917969 32.90625 91.964844 33.601562 91.910156 C 33.699219 91.902344 34.132812 91.875 34.324219 91.777344 C 34.554688 91.660156 34.671875 91.472656 34.714844 91.285156 C 34.765625 91.082031 34.746094 90.792969 34.488281 90.554688 C 34.367188 90.445312 33.984375 90.269531 33.917969 90.242188 C 33.488281 90.019531 33.082031 89.753906 32.683594 89.46875 C 31.636719 88.726562 30.730469 87.777344 29.992188 86.6875 C 29.359375 85.75 28.804688 84.710938 28.367188 83.652344 C 28.234375 83.328125 28.097656 82.992188 28.011719 82.644531 C 28.003906 82.597656 27.976562 82.40625 27.949219 82.289062 C 28.003906 81.21875 28.171875 80.140625 28.121094 79.132812 C 28.054688 77.921875 27.699219 76.800781 26.609375 75.863281 C 25.503906 74.910156 24.199219 74.382812 22.953125 73.703125 C 22.875 73.660156 22.710938 73.566406 22.578125 73.492188 C 23.015625 72.964844 23.757812 72.574219 24.28125 72.25 C 25.949219 71.210938 27.761719 70.4375 29.546875 69.667969 C 30.339844 69.328125 31.136719 69.003906 31.949219 68.722656 C 32.269531 68.613281 32.589844 68.503906 32.914062 68.414062 L 32.980469 68.394531 C 34.273438 69.847656 35.789062 71.105469 37.175781 72.433594 C 37.558594 72.800781 37.945312 73.15625 38.328125 73.523438 C 38.363281 73.570312 38.527344 73.757812 38.609375 73.832031 C 38.691406 73.90625 38.765625 73.949219 38.820312 73.972656 C 39.058594 74.078125 39.25 74.011719 39.378906 73.929688 C 41.148438 72.777344 42.898438 71.59375 44.640625 70.386719 C 45.222656 69.984375 45.796875 69.570312 46.382812 69.175781 C 46.570312 69.050781 46.761719 68.925781 46.953125 68.804688 C 47.023438 68.761719 47.089844 68.71875 47.15625 68.671875 C 47.273438 68.628906 47.375 68.542969 47.445312 68.433594 C 47.613281 68.171875 47.558594 67.964844 47.535156 67.867188 C 47.488281 67.691406 47.394531 67.535156 47.21875 67.453125 C 44.578125 65.125 41.683594 63.253906 38.8125 61.296875 C 38.582031 61.140625 38.292969 61.164062 38.089844 61.351562 C 37.472656 61.925781 35.242188 63.972656 34.621094 64.542969 C 34.046875 65.070312 33.46875 65.601562 32.890625 66.125 C 32.753906 66.25 32.605469 66.40625 32.449219 66.546875 C 32.359375 66.625 32.273438 66.703125 32.179688 66.742188 C 32.132812 66.726562 31.921875 66.664062 31.792969 66.601562 C 31.515625 66.46875 31.238281 66.292969 31.082031 66.210938 C 29.601562 65.4375 28.355469 64.234375 27.007812 63.230469 C 26.152344 62.59375 25.261719 61.996094 24.355469 61.441406 C 24.292969 61.402344 24.199219 61.355469 24.097656 61.292969 Z M 33.230469 45.132812 C 32.476562 45.242188 31.695312 45.519531 31.09375 45.71875 C 28.097656 46.710938 25.121094 48.554688 23.28125 51.351562 C 22.242188 52.929688 21.800781 54.960938 20.652344 56.4375 C 19.785156 57.550781 18.441406 58.03125 17.347656 58.816406 C 15.992188 59.789062 15.136719 61.339844 14.507812 62.921875 C 14.289062 63.460938 14.089844 64.015625 13.925781 64.574219 C 13.898438 64.683594 13.867188 64.792969 13.84375 64.902344 C 15.210938 65.4375 16.570312 65.988281 17.921875 66.5625 C 18.046875 66.613281 18.875 66.882812 19.191406 67.105469 C 19.523438 67.332031 19.597656 67.644531 19.585938 67.835938 C 19.574219 68.070312 19.441406 68.28125 19.246094 68.386719 C 17.925781 69.074219 16.621094 69.789062 15.308594 70.496094 C 15.171875 70.570312 14.886719 70.671875 14.597656 70.792969 C 14.492188 70.835938 14.355469 70.910156 14.257812 70.964844 C 14.3125 71.15625 14.417969 71.519531 14.453125 71.640625 C 14.785156 72.773438 15.28125 73.882812 15.875 74.878906 C 16.410156 75.78125 17.039062 76.601562 17.816406 77.273438 C 19.03125 78.328125 20.441406 79.128906 21.425781 80.472656 C 22.136719 81.445312 22.570312 82.574219 23.011719 83.710938 C 23.410156 84.726562 23.8125 85.746094 24.496094 86.613281 C 26.277344 88.851562 28.855469 90.320312 31.589844 90.554688 C 31.746094 90.570312 31.902344 90.582031 32.058594 90.59375 L 32.015625 90.5625 C 30.847656 89.730469 29.835938 88.675781 29.011719 87.457031 C 28.328125 86.445312 27.730469 85.324219 27.261719 84.183594 C 27.097656 83.789062 26.9375 83.382812 26.835938 82.964844 C 26.824219 82.929688 26.800781 82.777344 26.792969 82.703125 C 26.746094 82.605469 26.726562 82.492188 26.730469 82.378906 C 26.765625 81.507812 26.894531 80.625 26.914062 79.78125 C 26.941406 78.707031 26.792969 77.695312 25.851562 76.882812 C 24.8125 75.988281 23.578125 75.507812 22.40625 74.871094 C 22.1875 74.753906 21.769531 74.5625 21.539062 74.316406 C 21.382812 74.152344 21.285156 73.957031 21.25 73.753906 C 21.207031 73.527344 21.234375 73.277344 21.398438 73.007812 C 21.882812 72.207031 22.933594 71.578125 23.671875 71.117188 C 25.390625 70.046875 27.257812 69.246094 29.097656 68.453125 C 29.746094 68.175781 30.394531 67.910156 31.050781 67.667969 C 30.851562 67.558594 30.671875 67.449219 30.554688 67.386719 C 29.015625 66.585938 27.714844 65.347656 26.320312 64.308594 C 25.492188 63.691406 24.636719 63.113281 23.757812 62.582031 C 23.578125 62.46875 23.1875 62.261719 22.964844 62.015625 C 22.765625 61.796875 22.664062 61.539062 22.664062 61.28125 C 22.664062 61.015625 22.777344 60.742188 23.011719 60.511719 C 23.242188 60.285156 23.644531 60.097656 23.804688 59.980469 C 24.503906 59.484375 25.109375 58.914062 25.59375 58.175781 C 27.585938 55.152344 28.265625 51.375 30.253906 48.328125 C 30.988281 47.203125 31.894531 46.226562 32.902344 45.390625 C 33.007812 45.300781 33.117188 45.214844 33.230469 45.132812 Z M 38.542969 62.660156 C 37.675781 63.457031 35.941406 65.046875 35.40625 65.539062 C 34.828125 66.070312 34.253906 66.601562 33.671875 67.128906 L 33.605469 67.1875 C 33.636719 67.222656 33.660156 67.253906 33.679688 67.285156 C 34.984375 68.800781 36.550781 70.089844 37.980469 71.457031 C 38.367188 71.824219 38.757812 72.183594 39.140625 72.554688 C 40.769531 71.488281 42.378906 70.394531 43.984375 69.285156 C 44.570312 68.882812 45.152344 68.464844 45.742188 68.066406 L 45.882812 67.972656 C 43.554688 66.003906 41.039062 64.359375 38.542969 62.660156 Z M 38.542969 62.660156 " fill-opacity="1" fill-rule="evenodd"/><path fill="#000000" d="M 0.261719 68.480469 L 12.597656 65.441406 L 18.234375 67.863281 L 13.554688 70.273438 Z M 0.261719 68.480469 " fill-opacity="1" fill-rule="evenodd"/><path fill="#000000" d="M 162.933594 59.203125 C 162.824219 59.175781 162.300781 59.933594 162.25 60.003906 C 161.804688 60.628906 161.394531 61.3125 161.207031 62.046875 C 161.015625 62.78125 161.234375 63.542969 161.488281 64.238281 C 161.941406 65.460938 162.632812 66.597656 163.046875 67.832031 C 163.234375 68.382812 163.773438 69.628906 162.902344 69.917969 C 161.257812 70.460938 159.683594 68.785156 159.335938 67.480469 C 159.15625 66.808594 159.214844 66.109375 159.148438 65.421875 C 159.105469 64.972656 159.027344 64.523438 158.921875 64.082031 C 158.761719 63.421875 158.550781 62.773438 158.320312 62.128906 C 158.09375 61.511719 157.855469 60.898438 157.578125 60.300781 C 157.535156 60.210938 157.394531 59.8125 157.269531 59.789062 C 157.125 59.757812 156.867188 60.351562 156.828125 60.429688 C 156.449219 61.179688 155.878906 62.078125 155.714844 62.890625 C 155.671875 63.113281 155.878906 63.382812 155.988281 63.5625 C 156.253906 64.007812 156.511719 64.46875 156.710938 64.941406 C 157.386719 66.535156 157.1875 68.40625 156.503906 69.972656 C 156.132812 70.8125 155.085938 71.492188 154.039062 71.089844 C 153.089844 70.722656 152.832031 69.761719 152.8125 68.910156 C 152.765625 67.144531 153.183594 65.417969 153.015625 63.640625 C 152.957031 63.007812 152.796875 62.382812 152.585938 61.78125 C 152.558594 61.707031 152.402344 61.203125 152.242188 61.261719 C 152.042969 61.335938 151.90625 61.738281 151.824219 61.894531 C 151.496094 62.5 151.242188 63.136719 150.976562 63.769531 C 150.8125 64.160156 150.480469 64.671875 150.503906 65.109375 C 150.519531 65.378906 150.808594 65.320312 150.902344 65.542969 C 151.085938 65.964844 151.089844 66.453125 151.097656 66.902344 C 151.117188 68.4375 150.996094 69.992188 151.261719 71.519531 C 151.429688 72.476562 151.796875 73.441406 152.640625 74.070312 C 153.542969 74.738281 154.917969 74.636719 155.855469 74.101562 C 157.210938 73.328125 158.253906 71.582031 158.035156 70.105469 C 157.96875 70.171875 158.183594 70.53125 158.210938 70.589844 C 158.464844 71.097656 158.765625 71.578125 159.179688 71.992188 C 160.410156 73.214844 163.074219 73.980469 164.222656 72.277344 C 164.941406 71.222656 165.054688 69.855469 165.054688 68.640625 C 165.054688 67.1875 164.8125 65.738281 164.417969 64.332031 C 163.996094 62.804688 163.152344 60.773438 162.933594 59.203125 Z M 162.933594 59.203125 " fill-opacity="1" fill-rule="evenodd"/><path fill="#000000" d="M 195.261719 110.703125 C 194.691406 111.40625 195.253906 107.308594 195.226562 106.417969 C 195.125 102.433594 194.707031 98.46875 194.316406 94.5 C 192.882812 80.023438 190.191406 64.40625 188.6875 49.9375 C 188.46875 49.847656 188.5 48.945312 188.476562 48.785156 C 188.3125 47.503906 188.140625 46.222656 188.019531 44.941406 C 187.761719 42.199219 187.671875 39.4375 187.269531 36.707031 C 187.210938 36.300781 187.140625 35.8125 186.828125 35.472656 C 186.582031 35.199219 185.960938 35 186.003906 34.628906 C 186.082031 33.953125 186.523438 33.230469 186.824219 32.59375 C 187.027344 32.164062 187.234375 31.734375 187.460938 31.308594 C 187.578125 31.09375 187.699219 30.882812 187.84375 30.675781 C 187.941406 30.539062 188.054688 30.40625 188.175781 30.277344 C 189.023438 29.371094 189.359375 30.546875 189.648438 31.144531 C 190.132812 32.136719 190.59375 33.132812 191.054688 34.132812 C 191.636719 35.398438 192.28125 36.648438 192.921875 37.894531 C 193.714844 39.433594 194.492188 40.972656 195.085938 42.5625 C 195.304688 43.144531 195.738281 43.953125 195.578125 44.578125 C 195.472656 44.972656 194.5 44.265625 194.375 44.175781 C 193.703125 43.695312 193.117188 43.152344 192.53125 42.617188 C 192.492188 42.578125 192.089844 42.152344 191.960938 42.210938 C 191.820312 42.269531 192 43.136719 192.011719 43.238281 C 192.046875 43.558594 192.085938 43.878906 192.125 44.195312 C 192.191406 44.679688 192.257812 45.160156 192.316406 45.640625 C 192.339844 45.863281 192.429688 46.410156 192.453125 46.605469 C 192.582031 47.667969 192.71875 48.734375 192.832031 49.800781 C 193.261719 53.871094 193.710938 57.9375 194.234375 62 C 195.320312 70.355469 196.492188 78.703125 197.523438 87.0625 C 198.136719 92.058594 199.257812 97.140625 198.644531 102.1875 C 198.34375 104.628906 195.828125 110 195.261719 110.703125 Z M 195.261719 110.703125 " fill-opacity="1" fill-rule="evenodd"/><path fill="#000000" d="M 142.066406 104.59375 C 141.519531 105.121094 142.089844 102.082031 142.074219 101.421875 C 142.019531 98.472656 141.664062 95.542969 141.332031 92.605469 C 140.121094 81.90625 137.730469 70.367188 136.449219 59.675781 C 136.246094 59.609375 136.285156 58.9375 136.265625 58.824219 C 136.121094 57.875 135.972656 56.929688 135.871094 55.980469 C 135.652344 53.953125 135.597656 51.910156 135.242188 49.890625 C 135.191406 49.59375 135.128906 49.234375 134.835938 48.980469 C 134.605469 48.78125 134.019531 48.640625 134.0625 48.363281 C 134.144531 47.863281 134.574219 47.324219 134.863281 46.851562 C 135.058594 46.53125 135.257812 46.210938 135.480469 45.894531 C 135.589844 45.734375 135.707031 45.578125 135.847656 45.425781 C 135.941406 45.320312 136.050781 45.222656 136.167969 45.125 C 136.980469 44.445312 137.285156 45.316406 137.554688 45.753906 C 138 46.480469 138.429688 47.21875 138.855469 47.953125 C 139.390625 48.882812 139.988281 49.800781 140.585938 50.71875 C 141.320312 51.851562 142.042969 52.984375 142.585938 54.15625 C 142.789062 54.585938 143.191406 55.179688 143.03125 55.644531 C 142.929688 55.9375 142.011719 55.421875 141.898438 55.355469 C 141.269531 55.007812 140.71875 54.609375 140.167969 54.21875 C 140.128906 54.191406 139.753906 53.878906 139.632812 53.921875 C 139.496094 53.96875 139.660156 54.609375 139.667969 54.683594 C 139.699219 54.917969 139.730469 55.15625 139.769531 55.390625 C 139.824219 55.746094 139.882812 56.101562 139.933594 56.460938 C 139.953125 56.625 140.035156 57.027344 140.050781 57.171875 C 140.164062 57.957031 140.285156 58.746094 140.378906 59.53125 C 140.746094 62.542969 141.128906 65.550781 141.585938 68.550781 C 142.527344 74.726562 143.554688 80.894531 144.445312 87.074219 C 144.976562 90.765625 145.988281 94.515625 145.355469 98.261719 C 145.046875 100.066406 142.609375 104.066406 142.066406 104.59375 Z M 142.066406 104.59375 " fill-opacity="1" fill-rule="evenodd"/><g clip-path="url(#6fc10b0aef)"><path fill="#000000" d="M 313.304688 98.503906 C 313.230469 98.480469 313.019531 98.835938 312.988281 98.875 C 312.683594 99.269531 312.417969 99.691406 312.140625 100.105469 C 311.859375 100.519531 311.371094 101.101562 311.441406 101.640625 C 311.597656 102.847656 313.21875 104.710938 311.109375 105.199219 C 309.296875 105.625 307.175781 103.867188 307.304688 102.03125 C 307.355469 101.355469 307.605469 100.726562 307.792969 100.085938 C 307.824219 99.972656 307.964844 99.535156 307.753906 99.503906 C 307.207031 99.429688 306.351562 100.871094 306.105469 101.203125 C 304.832031 102.894531 303.796875 105.128906 301.828125 106.140625 C 299.976562 107.085938 297.746094 106.226562 295.863281 105.792969 C 294.386719 105.453125 292.964844 105.503906 291.515625 105.953125 C 289.527344 106.566406 287.3125 108.492188 285.6875 109.664062 C 281.292969 112.832031 277.15625 116.34375 272.878906 119.664062 C 269.324219 122.421875 265.628906 125.054688 261.835938 127.464844 C 258.050781 129.871094 254.316406 132.328125 250.308594 134.355469 C 249.382812 134.824219 248.445312 135.261719 247.523438 135.746094 C 247.332031 135.847656 246.597656 136.042969 246.550781 136.308594 C 246.496094 136.605469 247.304688 136.59375 247.445312 136.605469 C 248.519531 136.664062 249.617188 136.324219 250.644531 136.0625 C 254.605469 135.0625 259.222656 133.628906 262.824219 131.667969 C 265.496094 130.214844 267.746094 127.945312 270.082031 126.019531 C 273.609375 123.121094 277.191406 120.300781 280.75 117.441406 C 283.625 115.132812 286.492188 112.695312 289.792969 111.003906 C 290.992188 110.386719 292.375 109.796875 293.753906 109.917969 C 294.75 110.007812 295.691406 110.625 296.601562 111.007812 C 298.644531 111.855469 300.902344 112.070312 302.78125 110.675781 C 303.382812 110.234375 303.898438 109.683594 304.351562 109.089844 C 304.894531 108.378906 305.371094 107.601562 305.683594 106.761719 C 305.171875 106.996094 306.835938 108.296875 306.964844 108.375 C 308.378906 109.230469 310.378906 110.199219 311.757812 109.046875 C 316.089844 105.425781 313.828125 101.273438 313.304688 98.503906 Z M 313.304688 98.503906 " fill-opacity="1" fill-rule="evenodd"/></g><path fill="#000000" d="M 249.226562 35.394531 C 248.84375 35.515625 248.890625 36.332031 248.3125 36.3125 C 247.742188 36.292969 247.007812 35.484375 246.636719 35.195312 C 245.441406 34.265625 244.601562 33.652344 244.636719 32.234375 C 244.65625 31.402344 244.90625 29.792969 246.179688 29.527344 C 246.601562 29.4375 247.039062 29.566406 247.445312 29.644531 C 247.761719 29.710938 248.074219 29.792969 248.347656 29.9375 C 248.738281 30.144531 249.09375 30.429688 249.402344 30.710938 C 249.9375 31.191406 250.363281 31.734375 250.757812 32.289062 C 251.429688 33.238281 252.035156 34.195312 252.523438 35.214844 C 253.25 36.730469 253.84375 38.289062 254.40625 39.84375 C 255.265625 37.203125 255.941406 34.519531 257.132812 31.949219 C 257.675781 30.78125 258.265625 29.40625 259.460938 28.535156 C 260.714844 27.625 262 28.414062 262.8125 29.328125 C 263.28125 29.855469 263.910156 30.609375 263.960938 31.273438 C 264.019531 31.988281 263.472656 32.824219 263.085938 33.453125 C 262.984375 33.617188 262.761719 34.074219 262.480469 34.105469 C 262.246094 34.136719 261.78125 33.574219 261.660156 33.457031 C 260.882812 32.714844 259.621094 31.316406 258.539062 32.59375 C 258.34375 32.824219 258.203125 33.078125 258.070312 33.332031 C 257.855469 33.742188 257.667969 34.167969 257.511719 34.597656 C 256.476562 37.4375 256.011719 40.382812 255.019531 43.230469 C 254.777344 43.921875 254.496094 44.640625 254.042969 45.269531 C 253.953125 45.394531 253.734375 45.78125 253.492188 45.757812 C 253.230469 45.730469 253.136719 45.332031 253.082031 45.183594 C 252.832031 44.507812 252.691406 43.808594 252.550781 43.117188 C 252.035156 40.523438 251.121094 37.609375 249.226562 35.394531 Z M 249.226562 35.394531 " fill-opacity="1" fill-rule="evenodd"/><path fill="#000000" d="M 78.082031 73.253906 C 77.769531 73.351562 77.808594 74.027344 77.335938 74.011719 C 76.871094 73.996094 76.273438 73.324219 75.96875 73.085938 C 74.992188 72.320312 74.308594 71.8125 74.335938 70.640625 C 74.355469 69.953125 74.558594 68.621094 75.597656 68.402344 C 75.941406 68.328125 76.296875 68.433594 76.628906 68.5 C 76.886719 68.550781 77.140625 68.621094 77.363281 68.738281 C 77.683594 68.910156 77.976562 69.148438 78.226562 69.378906 C 78.664062 69.777344 79.007812 70.226562 79.332031 70.6875 C 79.882812 71.46875 80.375 72.261719 80.773438 73.105469 C 81.367188 74.355469 81.847656 75.644531 82.308594 76.929688 C 83.011719 74.746094 83.5625 72.527344 84.535156 70.40625 C 84.976562 69.441406 85.457031 68.300781 86.433594 67.582031 C 87.457031 66.828125 88.507812 67.480469 89.171875 68.238281 C 89.550781 68.671875 90.0625 69.296875 90.105469 69.84375 C 90.152344 70.4375 89.707031 71.128906 89.390625 71.644531 C 89.308594 71.78125 89.128906 72.160156 88.898438 72.1875 C 88.707031 72.210938 88.328125 71.746094 88.226562 71.648438 C 87.59375 71.039062 86.566406 69.882812 85.683594 70.9375 C 85.523438 71.125 85.40625 71.335938 85.300781 71.546875 C 85.125 71.886719 84.972656 72.238281 84.84375 72.59375 C 84 74.941406 83.621094 77.375 82.808594 79.730469 C 82.613281 80.300781 82.382812 80.894531 82.015625 81.414062 C 81.941406 81.519531 81.761719 81.839844 81.5625 81.820312 C 81.347656 81.796875 81.273438 81.46875 81.226562 81.34375 C 81.027344 80.785156 80.910156 80.210938 80.796875 79.636719 C 80.375 77.492188 79.628906 75.082031 78.082031 73.253906 Z M 78.082031 73.253906 " fill-opacity="1" fill-rule="evenodd"/><path fill="#000000" d="M 156.738281 82.898438 C 156.523438 82.972656 156.550781 83.484375 156.222656 83.46875 C 155.902344 83.457031 155.488281 82.953125 155.277344 82.773438 C 154.605469 82.195312 154.128906 81.808594 154.152344 80.925781 C 154.164062 80.40625 154.304688 79.402344 155.023438 79.234375 C 155.257812 79.179688 155.503906 79.257812 155.734375 79.308594 C 155.914062 79.347656 156.089844 79.398438 156.242188 79.488281 C 156.464844 79.617188 156.664062 79.796875 156.839844 79.972656 C 157.140625 80.273438 157.378906 80.613281 157.601562 80.960938 C 157.980469 81.550781 158.324219 82.148438 158.597656 82.785156 C 159.007812 83.730469 159.34375 84.703125 159.660156 85.675781 C 160.144531 84.027344 160.527344 82.351562 161.199219 80.746094 C 161.503906 80.019531 161.835938 79.160156 162.511719 78.617188 C 163.21875 78.046875 163.945312 78.539062 164.402344 79.109375 C 164.667969 79.4375 165.019531 79.910156 165.050781 80.324219 C 165.082031 80.769531 164.773438 81.292969 164.554688 81.683594 C 164.5 81.789062 164.371094 82.070312 164.214844 82.09375 C 164.082031 82.113281 163.820312 81.761719 163.75 81.6875 C 163.316406 81.226562 162.601562 80.351562 161.992188 81.148438 C 161.882812 81.292969 161.800781 81.449219 161.726562 81.609375 C 161.605469 81.867188 161.5 82.132812 161.414062 82.398438 C 160.828125 84.175781 160.566406 86.011719 160.007812 87.789062 C 159.871094 88.222656 159.710938 88.671875 159.457031 89.0625 C 159.40625 89.144531 159.28125 89.382812 159.144531 89.367188 C 158.996094 89.351562 158.945312 89.101562 158.914062 89.007812 C 158.773438 88.585938 158.691406 88.152344 158.613281 87.71875 C 158.324219 86.101562 157.808594 84.28125 156.738281 82.898438 Z M 156.738281 82.898438 " fill-opacity="1" fill-rule="evenodd"/><path fill="#000000" d="M 249.792969 65.472656 C 249.449219 65.570312 249.492188 66.253906 248.980469 66.234375 C 248.472656 66.21875 247.820312 65.546875 247.488281 65.304688 C 246.425781 64.535156 245.679688 64.023438 245.710938 62.84375 C 245.730469 62.148438 245.953125 60.8125 247.085938 60.589844 C 247.457031 60.515625 247.847656 60.621094 248.207031 60.6875 C 248.488281 60.742188 248.765625 60.808594 249.011719 60.929688 C 249.355469 61.101562 249.675781 61.339844 249.949219 61.574219 C 250.421875 61.972656 250.800781 62.425781 251.152344 62.890625 C 251.75 63.679688 252.289062 64.476562 252.722656 65.324219 C 253.367188 66.585938 253.894531 67.878906 254.394531 69.175781 C 255.160156 66.976562 255.761719 64.742188 256.820312 62.605469 C 257.300781 61.632812 257.824219 60.488281 258.886719 59.765625 C 260.003906 59.003906 261.144531 59.660156 261.867188 60.425781 C 262.285156 60.863281 262.84375 61.488281 262.890625 62.042969 C 262.9375 62.636719 262.453125 63.335938 262.109375 63.855469 C 262.019531 63.992188 261.820312 64.371094 261.570312 64.402344 C 261.363281 64.425781 260.953125 63.957031 260.84375 63.859375 C 260.152344 63.242188 259.03125 62.078125 258.070312 63.140625 C 257.898438 63.332031 257.769531 63.542969 257.652344 63.753906 C 257.464844 64.097656 257.296875 64.453125 257.15625 64.808594 C 256.238281 67.171875 255.824219 69.625 254.941406 71.992188 C 254.726562 72.570312 254.476562 73.167969 254.074219 73.691406 C 253.992188 73.796875 253.800781 74.117188 253.582031 74.097656 C 253.347656 74.074219 253.269531 73.742188 253.21875 73.617188 C 252.996094 73.054688 252.871094 72.476562 252.746094 71.898438 C 252.289062 69.742188 251.476562 67.316406 249.792969 65.472656 Z M 249.792969 65.472656 " fill-opacity="1" fill-rule="evenodd"/><path fill="#000000" d="M 206.785156 35.359375 L 211.238281 29.949219 L 217.304688 35.449219 L 212.949219 40.878906 Z M 206.785156 35.359375 " fill-opacity="1" fill-rule="evenodd"/><path fill="#000000" d="M 90.113281 48.871094 L 93.976562 44.5625 L 99.246094 48.941406 L 95.464844 53.265625 Z M 90.113281 48.871094 " fill-opacity="1" fill-rule="evenodd"/><path fill="#000000" d="M 98.199219 48.871094 L 102.066406 44.5625 L 107.335938 48.941406 L 103.550781 53.265625 Z M 98.199219 48.871094 " fill-opacity="1" fill-rule="evenodd"/><path fill="#000000" d="M 217.304688 34.542969 L 221.757812 29.132812 L 227.824219 34.632812 L 223.46875 40.066406 Z M 217.304688 34.542969 " fill-opacity="1" fill-rule="evenodd"/><path fill="#000000" d="M 237.277344 55.898438 L 236.28125 59.601562 L 269.644531 48.488281 L 272.292969 43.855469 C 272.292969 43.855469 237.582031 55.710938 237.277344 55.898438 Z M 237.277344 55.898438 " fill-opacity="1" fill-rule="evenodd"/><path fill="#000000" d="M 144.125 48.699219 L 143.109375 52.304688 L 177.042969 41.492188 L 179.734375 36.988281 C 179.734375 36.988281 144.433594 48.519531 144.125 48.699219 Z M 144.125 48.699219 " fill-opacity="1" fill-rule="evenodd"/><path fill="#000000" d="M 81.957031 121.273438 L 80.941406 124.878906 L 114.871094 114.066406 L 117.566406 109.558594 C 117.566406 109.558594 82.265625 121.089844 81.957031 121.273438 Z M 81.957031 121.273438 " fill-opacity="1" fill-rule="evenodd"/><path fill="#000000" d="M 216.105469 97.625 C 216 97.429688 215.871094 97.839844 215.78125 97.988281 C 215.503906 98.457031 215.238281 98.9375 214.992188 99.417969 C 214.289062 100.800781 213.558594 102.171875 212.941406 103.585938 C 211.207031 107.546875 209 111.644531 209.644531 116.042969 C 209.851562 117.457031 210.300781 119.714844 212.167969 120.023438 C 214.5625 120.425781 215.875 117.578125 216.566406 115.964844 C 216.730469 115.585938 216.890625 115.207031 217.007812 114.8125 C 217.199219 114.160156 217.445312 113.308594 217.21875 112.636719 C 216.988281 111.949219 216.28125 112.96875 216.121094 113.207031 C 215.582031 113.996094 214.785156 115.554688 213.582031 114.703125 C 213.429688 114.597656 213.296875 114.476562 213.179688 114.339844 C 213.011719 114.144531 212.875 113.925781 212.761719 113.699219 C 212.140625 112.453125 212.257812 110.886719 212.539062 109.578125 C 213.128906 106.824219 214.578125 104.289062 215.648438 101.679688 C 216.164062 100.421875 217.238281 98.296875 216.105469 97.625 C 216.003906 97.5625 216.488281 97.476562 216.417969 97.386719 " fill-opacity="1" fill-rule="evenodd"/><path fill="#000000" d="M 238.128906 85.457031 C 238.257812 85.492188 239.074219 85.386719 239.175781 85.460938 C 239.152344 85.261719 239.578125 85.472656 239.78125 85.476562 C 240.128906 85.480469 241.847656 85.65625 241.742188 85.03125 C 241.648438 84.4375 240.894531 83.796875 240.523438 83.359375 C 239.277344 81.902344 237.886719 80.542969 236.460938 79.261719 C 236.214844 79.039062 234.863281 77.546875 234.492188 77.761719 C 233.746094 78.203125 233.839844 80.136719 233.746094 80.847656 C 233.671875 81.410156 233.59375 81.96875 233.503906 82.527344 C 233.457031 82.839844 233.402344 83.148438 233.332031 83.453125 C 233.050781 84.726562 232.859375 84.796875 233.589844 85.882812 C 233.722656 86.085938 233.859375 86.285156 233.996094 86.488281 C 234.230469 86.832031 234.457031 87.171875 234.707031 87.503906 C 234.714844 87.5 235.023438 88.03125 235.039062 88.0625 C 235.246094 88.449219 235.445312 88.84375 235.636719 89.238281 C 236.222656 90.425781 236.839844 91.589844 237.484375 92.746094 C 238.28125 94.171875 239.058594 95.597656 239.949219 96.964844 C 241.0625 98.671875 242.480469 100.605469 242.636719 102.703125 C 242.730469 102.601562 242.558594 102.972656 242.527344 103.109375 C 242.457031 103.421875 242.335938 103.71875 242.191406 104.007812 C 241.796875 104.835938 241.3125 105.617188 240.78125 106.367188 C 239.113281 108.726562 236.980469 110.636719 234.671875 112.363281 C 228.007812 117.359375 219.78125 122.570312 211.316406 123.699219 C 205.082031 124.53125 198.710938 122.949219 197.195312 116.148438 C 196.542969 113.1875 196.410156 110.175781 196.730469 107.171875 C 196.847656 105.996094 197 104.816406 197.207031 103.652344 C 197.226562 103.535156 197.53125 102.492188 197.273438 102.523438 C 196.792969 102.582031 196.339844 103.378906 196.105469 103.722656 C 195.148438 105.152344 194.710938 106.902344 194.519531 108.589844 C 193.855469 114.3125 194.011719 121.449219 197.746094 126.183594 C 202.300781 131.953125 209.632812 131.773438 215.992188 129.496094 C 221.988281 127.351562 227.359375 123.796875 232.476562 120.09375 C 237.769531 116.257812 243.328125 111.628906 245.554688 105.277344 C 248.117188 97.949219 241.054688 91.507812 238.128906 85.457031 Z M 238.128906 85.457031 " fill-opacity="1" fill-rule="evenodd"/><path fill="#000000" d="M 125.601562 65.277344 C 125.726562 65.3125 126.5625 65.207031 126.664062 65.28125 C 126.640625 65.089844 127.074219 65.292969 127.277344 65.296875 C 127.632812 65.300781 129.378906 65.46875 129.273438 64.863281 C 129.175781 64.289062 128.410156 63.660156 128.035156 63.238281 C 126.769531 61.820312 125.351562 60.496094 123.902344 59.25 C 123.652344 59.035156 122.277344 57.582031 121.898438 57.792969 C 121.140625 58.222656 121.238281 60.101562 121.140625 60.792969 C 121.066406 61.339844 120.988281 61.886719 120.894531 62.429688 C 120.847656 62.730469 120.792969 63.03125 120.71875 63.332031 C 120.433594 64.570312 120.238281 64.636719 120.980469 65.691406 C 121.117188 65.890625 121.253906 66.085938 121.394531 66.28125 C 121.632812 66.617188 121.863281 66.945312 122.121094 67.269531 C 122.125 67.265625 122.441406 67.78125 122.453125 67.8125 C 122.667969 68.1875 122.867188 68.574219 123.0625 68.957031 C 123.660156 70.113281 124.285156 71.246094 124.941406 72.371094 C 125.75 73.753906 126.542969 75.144531 127.449219 76.472656 C 128.582031 78.136719 130.023438 80.015625 130.179688 82.054688 C 130.277344 81.957031 130.101562 82.316406 130.070312 82.449219 C 130 82.753906 129.878906 83.042969 129.730469 83.324219 C 129.328125 84.132812 128.835938 84.890625 128.296875 85.621094 C 126.597656 87.914062 124.429688 89.773438 122.082031 91.453125 C 115.304688 96.3125 106.9375 101.382812 98.328125 102.480469 C 91.988281 103.289062 85.507812 101.75 83.96875 95.136719 C 83.304688 92.257812 83.171875 89.328125 83.492188 86.402344 C 83.617188 85.257812 83.769531 84.109375 83.980469 82.980469 C 84 82.863281 84.308594 81.847656 84.046875 81.878906 C 83.5625 81.9375 83.097656 82.714844 82.859375 83.046875 C 81.886719 84.4375 81.445312 86.140625 81.25 87.785156 C 80.574219 93.347656 80.730469 100.292969 84.527344 104.898438 C 89.160156 110.511719 96.617188 110.335938 103.085938 108.121094 C 109.183594 106.03125 114.648438 102.578125 119.851562 98.972656 C 125.234375 95.242188 130.886719 90.738281 133.152344 84.558594 C 135.753906 77.429688 128.574219 71.164062 125.601562 65.277344 Z M 125.601562 65.277344 " fill-opacity="1" fill-rule="evenodd"/><path fill="#000000" d="M 107.414062 80.390625 C 107.644531 80.320312 109.265625 79.0625 108.476562 77.46875 C 107.777344 76.054688 106.847656 75.878906 105.25 75.386719 C 101.855469 74.339844 97.226562 76.746094 94.277344 74.363281 C 90.210938 71.078125 94.480469 64.539062 97.886719 62.574219 C 101.554688 60.453125 104.398438 62.574219 106.628906 65.445312 C 110.15625 69.980469 111.890625 75.777344 110.835938 81.40625 C 110.769531 81.414062 110.449219 82.027344 110.402344 82.089844 C 109.929688 82.742188 109.40625 83.363281 108.84375 83.953125 C 106.824219 86.058594 104.519531 87.84375 102.066406 89.476562 C 92.203125 96.054688 80.792969 103.097656 68.269531 101.125 C 66.695312 100.871094 65.175781 100.449219 63.71875 99.820312 C 55.902344 96.488281 55.039062 88.457031 55.867188 81.179688 C 56.171875 78.523438 56.808594 75.730469 57.984375 73.296875 C 58.265625 72.714844 58.84375 71.269531 59.65625 71.140625 C 60.199219 71.0625 59.941406 72.453125 59.925781 72.652344 C 59.777344 74.609375 59.492188 76.539062 59.359375 78.496094 C 59.027344 83.324219 59.492188 89.109375 63.289062 92.738281 C 67.519531 96.777344 73.820312 96.886719 79.285156 95.566406 C 86.578125 93.808594 93.339844 90.355469 99.519531 86.316406 C 102.257812 84.527344 105.078125 82.671875 107.414062 80.390625 Z M 104.367188 71.039062 C 104.375 71.125 104.195312 71 104.113281 70.976562 C 103.957031 70.9375 103.804688 70.898438 103.648438 70.875 C 103.140625 70.789062 102.617188 70.796875 102.101562 70.796875 C 101.003906 70.789062 98.582031 71.292969 98.035156 70.027344 C 97.398438 68.5625 99.140625 66.796875 100.675781 67.109375 C 102.082031 67.394531 103.816406 69.890625 104.367188 71.039062 Z M 104.367188 71.039062 " fill-opacity="1" fill-rule="evenodd"/><path fill="#000000" d="M 176.761719 57.476562 C 176.792969 57.53125 177.625 58.207031 177.710938 58.277344 C 178.144531 58.605469 180.457031 60.382812 180.320312 58.875 C 180.195312 57.546875 179.347656 56.179688 178.667969 55.046875 C 177.414062 52.964844 176.007812 50.960938 174.609375 48.957031 C 174.046875 48.144531 173.003906 45.71875 171.730469 46.800781 C 171.359375 47.125 171.058594 47.515625 170.761719 47.902344 C 170.425781 48.335938 169.996094 48.796875 169.839844 49.332031 C 169.644531 49.992188 170.976562 50.753906 171.667969 52.609375 C 172.578125 55.054688 172.96875 58.722656 173.121094 59.957031 C 174.46875 70.742188 176.65625 81.390625 177.1875 92.265625 C 177.308594 94.789062 177.375 97.320312 177.433594 99.851562 C 177.457031 100.847656 177.707031 102.40625 177.054688 103.277344 C 175.242188 105.707031 170.6875 106.460938 167.84375 107.066406 C 167.996094 106.601562 168.851562 106.035156 169.171875 105.644531 C 170.324219 104.253906 171.726562 102.53125 171.835938 100.683594 C 171.941406 98.820312 170.660156 97.25 169.398438 95.96875 C 166.398438 92.925781 162.269531 90.679688 157.828125 91.667969 C 154.21875 92.472656 150.980469 94.421875 148.046875 96.519531 C 142.75 100.292969 138.015625 105.070312 134.320312 110.3125 C 133.722656 109.777344 132.007812 109.582031 131.238281 109.179688 C 128.980469 107.976562 126.980469 106.191406 125.753906 104.007812 C 125.378906 103.339844 124.84375 101.621094 124.679688 101 C 123.890625 97.996094 123.324219 94.9375 122.824219 91.890625 C 120.859375 79.953125 120.664062 67.785156 118.371094 55.894531 C 117.753906 52.679688 116.714844 49.410156 114.824219 46.660156 C 114.367188 45.992188 113.601562 44.585938 112.75 44.304688 C 112.089844 44.074219 111.957031 45.261719 111.851562 45.640625 C 111.382812 47.34375 110.953125 49.066406 110.675781 50.816406 C 110.378906 52.710938 112.945312 54.519531 113.5625 56.335938 C 114.902344 60.320312 115.335938 64.777344 115.804688 68.910156 C 116.859375 78.160156 117.675781 87.464844 119.371094 96.628906 C 120.359375 101.972656 121.320312 108.519531 125.519531 112.574219 C 127.207031 114.203125 129.367188 115.339844 131.53125 116.277344 C 137.089844 118.679688 143.832031 116.480469 149.894531 115.914062 C 155.683594 115.371094 161.515625 114.609375 167.125 113.109375 C 172.867188 111.570312 178.882812 109.140625 180.972656 103.363281 C 180.988281 103.527344 181.035156 103.042969 181.050781 102.875 C 181.097656 102.46875 181.140625 102.058594 181.179688 101.644531 C 181.273438 100.621094 181.3125 99.589844 181.332031 98.5625 C 181.402344 95.183594 181.3125 91.796875 181.0625 88.425781 C 180.304688 78.128906 178.265625 67.667969 176.761719 57.476562 Z M 137.261719 111.113281 C 137.175781 110.804688 138.324219 109.707031 138.492188 109.5 C 139.789062 107.929688 141.207031 106.445312 142.648438 104.992188 C 146.359375 101.273438 151.167969 97.871094 156.601562 97.03125 C 159.148438 96.628906 162.21875 97.117188 164.019531 99.042969 C 165.050781 100.140625 165.671875 101.738281 164.621094 103.035156 C 163.777344 104.078125 162.894531 104.96875 161.667969 105.484375 C 159.195312 106.539062 156.050781 107.71875 153.421875 108.308594 C 150.09375 109.054688 140.707031 111.449219 137.261719 111.113281 Z M 137.261719 111.113281 " fill-opacity="1" fill-rule="evenodd"/><path fill="#000000" d="M 284.855469 77.675781 C 284.867188 77.761719 284.96875 77.96875 284.988281 78.027344 C 285.070312 78.355469 285.160156 78.683594 285.238281 79.011719 C 285.484375 79.996094 285.746094 80.960938 286.042969 81.933594 C 287.035156 85.25 289.667969 88.03125 293.386719 87.730469 C 297.613281 87.386719 300.8125 84.03125 302.65625 80.488281 C 303.320312 79.199219 303.820312 77.863281 304.300781 76.492188 C 304.398438 76.222656 304.640625 75.210938 304.988281 75.121094 C 305.1875 75.074219 305.277344 75.71875 305.300781 75.824219 C 305.492188 76.59375 305.5625 77.390625 305.664062 78.171875 C 305.953125 80.320312 306.484375 82.710938 308.5625 83.847656 C 310.082031 84.675781 312.054688 84.867188 313.730469 84.472656 C 314.304688 84.335938 315.25 84.113281 315.453125 83.464844 C 315.589844 83.03125 315.902344 82.277344 315.828125 81.847656 C 315.632812 80.660156 314.335938 79.09375 314.078125 77.917969 C 314.066406 77.910156 315.691406 76.070312 315.855469 75.894531 C 316.582031 75.089844 317.320312 74.28125 318.078125 73.503906 C 318.242188 73.335938 318.695312 72.699219 318.996094 72.761719 C 319.226562 72.808594 319.203125 73.386719 319.214844 73.542969 C 319.269531 74.515625 319.214844 75.496094 319.226562 76.46875 C 319.289062 80.121094 319.191406 84.199219 317.277344 87.445312 C 316.8125 88.234375 316.210938 88.929688 315.546875 89.558594 C 310.929688 93.9375 305.832031 89.417969 302.859375 85.5625 C 302.839844 85.539062 302.667969 85.929688 302.65625 85.957031 C 302.542969 86.195312 302.433594 86.429688 302.316406 86.660156 C 301.960938 87.382812 301.5625 88.082031 301.136719 88.765625 C 299.773438 90.996094 298.191406 92.84375 295.582031 93.628906 C 291.808594 94.769531 287.136719 93.949219 284.800781 90.550781 C 283.75 89.015625 283.523438 87.328125 282.949219 85.621094 C 282.695312 85.542969 281.589844 86.507812 281.375 86.640625 C 279.769531 87.621094 278.210938 88.621094 276.546875 89.5 C 276.34375 89.335938 276.625 90.011719 276.664062 90.269531 C 276.742188 90.804688 276.816406 91.339844 276.882812 91.878906 C 277.0625 93.417969 277.246094 94.957031 277.132812 96.507812 C 277.164062 96.519531 276.859375 97.164062 276.851562 97.183594 C 276.402344 98.042969 275.917969 98.890625 275.414062 99.71875 C 273.148438 103.40625 270.402344 106.804688 267.308594 109.84375 C 265.453125 111.671875 263.515625 113.429688 261.410156 114.976562 C 259.984375 116.027344 258.464844 116.984375 256.898438 117.820312 C 249.3125 121.882812 235.078125 125.050781 230.621094 114.929688 C 228.15625 109.320312 228.660156 102.488281 230.101562 96.675781 C 230.453125 95.238281 230.824219 93.769531 231.460938 92.417969 C 231.554688 92.21875 231.832031 91.347656 232.125 91.324219 C 232.429688 91.300781 232.085938 93.035156 232.074219 93.121094 C 231.65625 95.285156 231.167969 97.449219 230.96875 99.644531 C 230.476562 105.074219 232.058594 111.445312 237.605469 113.734375 C 248.308594 118.144531 260.316406 109.894531 267.828125 103.007812 C 269.640625 101.34375 271.3125 99.605469 272.921875 97.753906 C 273.636719 96.933594 274.769531 95.671875 274.929688 94.523438 C 275.082031 93.5 274.632812 92.511719 274.332031 91.5625 C 274.003906 91.554688 273.523438 91.90625 273.21875 92.027344 C 272.375 92.371094 271.519531 92.710938 270.660156 93.039062 C 267.8125 94.132812 264.316406 94.988281 261.34375 93.90625 C 260.570312 93.628906 259.855469 93.253906 259.238281 92.714844 C 254.59375 88.691406 258.464844 82.4375 261.605469 78.871094 C 263.253906 77.003906 265.363281 74.972656 268.085938 75.640625 C 269.894531 76.082031 271.269531 77.601562 272.335938 79.035156 C 273.535156 80.667969 274.289062 82.363281 275.007812 84.234375 C 274.992188 84.246094 274.992188 84.257812 275.015625 84.257812 L 275.007812 84.234375 C 275.0625 84.179688 275.363281 84.046875 275.386719 84.035156 C 275.648438 83.917969 275.90625 83.789062 276.15625 83.65625 C 276.898438 83.277344 277.617188 82.859375 278.339844 82.441406 C 280.699219 81.082031 282.941406 79.613281 284.855469 77.675781 C 284.851562 77.640625 284.855469 77.625 284.886719 77.644531 Z M 269.730469 86.144531 C 269.707031 86.121094 268.488281 86.554688 268.457031 86.5625 C 267.984375 86.730469 267.476562 86.832031 266.980469 86.898438 C 265.550781 87.09375 263.40625 87.359375 262.355469 86.125 C 261.128906 84.691406 262.695312 82.710938 264.238281 82.460938 C 266.148438 82.15625 268.851562 84.257812 269.730469 86.144531 Z M 269.730469 86.144531 " fill-opacity="1" fill-rule="evenodd"/><path fill="#000000" d="M 282.402344 77.453125 C 282.503906 77.414062 282.800781 77.042969 282.855469 76.992188 C 283.308594 76.585938 283.796875 76.214844 284.300781 75.863281 C 286.207031 74.535156 288.339844 73.507812 290.230469 72.152344 C 296.296875 67.789062 302.351562 63.289062 307.855469 58.332031 C 309.199219 57.121094 310.503906 55.871094 311.835938 54.648438 C 312.433594 54.105469 313.460938 53.421875 313.8125 52.695312 C 313.960938 52.390625 312.976562 51.914062 312.792969 51.78125 C 311.734375 51.015625 310.738281 50.148438 310.003906 49.105469 C 308.789062 47.382812 309.417969 45.796875 310.46875 44.132812 C 311.480469 42.527344 312.757812 41.050781 314.652344 40.273438 C 316.261719 39.613281 317.914062 40.601562 318.542969 41.992188 C 319.386719 43.84375 318.910156 46.097656 318.277344 47.941406 C 318.089844 48.488281 317.871094 49.035156 317.554688 49.53125 C 317.453125 49.691406 317.023438 50.0625 317.007812 50.242188 C 316.996094 50.359375 317.523438 50.683594 317.613281 50.753906 C 318.148438 51.164062 318.863281 51.570312 319.113281 52.199219 C 319.472656 53.109375 318.96875 54.324219 318.476562 55.109375 C 318.363281 55.292969 318.039062 55.914062 317.730469 55.875 C 317.394531 55.835938 317.082031 55.503906 316.835938 55.316406 C 316.234375 54.851562 315.660156 54.359375 315.078125 53.878906 C 314.28125 54.652344 313.660156 55.679688 312.921875 56.511719 C 310.917969 58.761719 308.824219 61.019531 306.554688 63.050781 C 302.820312 66.394531 298.171875 68.941406 293.902344 71.664062 C 290.734375 73.679688 286.222656 76.546875 282.402344 77.453125 C 282.398438 77.453125 282.394531 77.457031 282.390625 77.457031 Z M 316.015625 49.28125 C 316.132812 48.71875 316.347656 48.183594 316.429688 47.609375 C 316.585938 46.464844 316.277344 45.238281 315.464844 44.34375 C 315.039062 43.871094 314.453125 43.476562 313.78125 43.390625 C 312.859375 43.269531 311.851562 44.019531 311.824219 44.878906 C 311.804688 45.40625 312.203125 45.878906 312.5625 46.253906 C 313.378906 47.101562 315.058594 48.5625 316.015625 49.28125 Z M 316.015625 49.28125 " fill-opacity="1" fill-rule="evenodd"/><path fill="#000000" d="M 273.316406 49.460938 C 273.394531 49.582031 274.117188 49.359375 274.285156 49.324219 C 274.667969 49.242188 275.058594 49.171875 275.449219 49.109375 C 276.65625 48.910156 277.867188 48.761719 279.097656 48.699219 C 282.875 48.5 287.289062 48.574219 290.824219 49.824219 C 290.941406 49.671875 290.476562 50.050781 290.304688 50.164062 C 289.914062 50.425781 289.503906 50.664062 289.089844 50.898438 C 287.9375 51.550781 286.78125 52.203125 285.570312 52.785156 C 282.160156 54.417969 278.597656 55.84375 275.261719 57.582031 C 274.46875 58 273.632812 58.382812 272.875 58.839844 C 272.792969 58.890625 272.179688 59.238281 272.289062 59.367188 C 272.554688 59.683594 273.953125 59.398438 274.28125 59.359375 C 276.386719 59.109375 278.449219 58.679688 280.519531 58.28125 C 282.648438 57.878906 285.40625 57.847656 287.355469 56.996094 C 288.34375 56.566406 289.152344 55.546875 289.855469 54.871094 C 291.578125 53.210938 293.226562 51.5 294.898438 49.804688 C 296.714844 47.960938 299.597656 45.339844 299.640625 42.820312 C 299.683594 40.242188 294.40625 40.394531 292.304688 40.242188 C 291.589844 40.191406 290.878906 40.117188 290.167969 40.058594 C 287.636719 39.847656 285.046875 39.734375 282.503906 39.8125 C 281.601562 39.839844 280.363281 39.714844 279.519531 40.042969 C 278.335938 40.496094 277.703125 41.597656 277.050781 42.453125 C 275.527344 44.460938 274.328125 47.242188 273.316406 49.460938 Z M 273.316406 49.460938 " fill-opacity="1" fill-rule="evenodd"/><path fill="#000000" d="M 63.410156 59.453125 C 63.464844 59.542969 63.984375 59.378906 64.101562 59.355469 C 64.378906 59.292969 64.65625 59.242188 64.933594 59.195312 C 65.796875 59.050781 66.660156 58.9375 67.542969 58.890625 C 70.242188 58.746094 73.398438 58.800781 75.925781 59.722656 C 76.007812 59.609375 75.675781 59.890625 75.554688 59.972656 C 75.277344 60.164062 74.980469 60.339844 74.6875 60.515625 C 73.863281 60.996094 73.035156 61.480469 72.171875 61.90625 C 69.734375 63.113281 67.183594 64.167969 64.800781 65.449219 C 64.234375 65.757812 63.636719 66.039062 63.097656 66.378906 C 63.035156 66.414062 62.597656 66.671875 62.675781 66.765625 C 62.867188 67 63.867188 66.789062 64.097656 66.761719 C 65.605469 66.578125 67.082031 66.257812 68.558594 65.96875 C 70.078125 65.667969 72.050781 65.644531 73.445312 65.015625 C 74.152344 64.699219 74.730469 63.945312 75.234375 63.449219 C 76.464844 62.222656 77.644531 60.957031 78.835938 59.707031 C 80.136719 58.347656 82.195312 56.410156 82.226562 54.550781 C 82.257812 52.648438 78.484375 52.761719 76.984375 52.648438 C 76.472656 52.613281 75.964844 52.558594 75.457031 52.511719 C 73.648438 52.359375 71.796875 52.273438 69.980469 52.332031 C 69.332031 52.351562 68.449219 52.257812 67.84375 52.5 C 66.996094 52.835938 66.542969 53.648438 66.082031 54.28125 C 64.988281 55.765625 64.132812 57.816406 63.410156 59.453125 Z M 63.410156 59.453125 " fill-opacity="1" fill-rule="evenodd"/><path fill="#000000" d="M 218.152344 67.449219 C 218.152344 67.34375 219.273438 65.894531 219.296875 65.855469 C 219.523438 65.550781 219.761719 65.257812 220.007812 64.964844 C 220.785156 64.019531 221.550781 63.066406 222.304688 62.105469 C 224.191406 59.695312 226.210938 57.394531 228.1875 55.054688 C 228.640625 54.515625 229.109375 53.976562 229.621094 53.496094 C 229.683594 53.441406 230.082031 53.011719 230.195312 53.132812 C 230.371094 53.320312 230.148438 53.980469 230.101562 54.183594 C 229.878906 55.199219 229.527344 56.199219 229.113281 57.148438 C 227.347656 61.191406 224.003906 64.5 221.359375 67.984375 C 220.738281 68.03125 220.964844 68.847656 221.199219 69.109375 C 222.121094 70.140625 223.109375 71.066406 223.957031 72.175781 C 226.109375 75.003906 227.355469 77.671875 227.457031 81.285156 C 227.5 82.699219 227.433594 84.109375 227.09375 85.484375 C 226.09375 89.523438 222.777344 92.160156 219.34375 94.214844 C 217.375 95.386719 214.851562 96.699219 212.480469 96.492188 C 209.390625 96.21875 208.136719 93.515625 207.726562 90.789062 C 206.894531 85.273438 209.035156 80.1875 211.917969 75.570312 C 212.648438 74.402344 213.425781 73.257812 214.230469 72.132812 C 214.546875 71.6875 215.167969 71.140625 215.324219 70.605469 C 215.378906 70.40625 214.984375 70.359375 214.851562 70.199219 C 214.34375 69.59375 213.847656 68.976562 213.332031 68.371094 C 211.589844 66.320312 209.824219 64.296875 208.054688 62.269531 C 207.613281 61.765625 206.613281 61.808594 206.335938 61.199219 C 205.566406 59.503906 206.402344 56.957031 206.695312 55.226562 C 206.769531 54.792969 206.804688 53.328125 207.527344 53.367188 C 208.125 53.402344 208.957031 54.128906 209.453125 54.421875 C 211.191406 55.449219 212.851562 56.644531 214.480469 57.835938 C 214.90625 58.152344 216.167969 58.980469 216.125 59.625 C 216.109375 59.921875 215.59375 59.96875 215.378906 59.992188 C 214.851562 60.054688 213.515625 59.886719 213.117188 60.273438 C 212.75 60.628906 213.332031 61.539062 213.503906 61.859375 C 214.265625 63.28125 216.945312 66.371094 218.152344 67.449219 C 218.160156 67.453125 218.160156 67.453125 218.160156 67.453125 Z M 217.746094 74.191406 C 217.429688 74.269531 217.117188 74.71875 216.910156 74.921875 C 216.335938 75.488281 215.777344 76.070312 215.238281 76.671875 C 214.730469 77.238281 214.246094 77.828125 213.796875 78.441406 C 213.386719 78.996094 213.007812 79.570312 212.648438 80.15625 C 211.261719 82.4375 209.3125 87.550781 213.007812 88.933594 C 216.5625 90.265625 220.257812 87.074219 222.660156 84.917969 C 223.472656 84.1875 225.035156 82.992188 224.980469 81.769531 C 224.945312 80.890625 224.226562 80.03125 223.699219 79.363281 C 222.289062 77.5625 219.667969 75.460938 217.746094 74.191406 Z M 217.746094 74.191406 " fill-opacity="1" fill-rule="evenodd"/></svg>