<svg xmlns="http://www.w3.org/2000/svg" xmlns:xlink="http://www.w3.org/1999/xlink" width="500" zoomAndPan="magnify" viewBox="0 0 375 149.999998" height="200" preserveAspectRatio="xMidYMid meet" version="1.0"><defs><clipPath id="7335474a71"><path d="M 231 97 L 292 97 L 292 131.25 L 231 131.25 Z M 231 97 " clip-rule="nonzero"/></clipPath><clipPath id="fd625f35b0"><path d="M 128 18.75 L 161 18.75 L 161 33 L 128 33 Z M 128 18.75 " clip-rule="nonzero"/></clipPath></defs><path fill="#000000" d="M 173.34375 44.847656 C 172.957031 44.863281 173.835938 45.382812 174.105469 45.632812 C 174.398438 45.910156 176.761719 47.855469 176.96875 47.09375 C 177.246094 46.082031 176.492188 44.742188 176.117188 43.828125 C 175.015625 41.121094 173.585938 38.492188 172.128906 35.929688 C 171.847656 35.4375 170.929688 33.015625 170.246094 32.859375 C 169.75 32.742188 168.867188 34.515625 168.671875 34.804688 C 168.210938 35.496094 166.855469 36.78125 166.839844 37.613281 C 166.820312 38.558594 168.515625 39.796875 169.136719 40.472656 C 168.996094 40.597656 169.15625 41.277344 169.167969 41.429688 C 169.242188 42.417969 169.355469 43.398438 169.476562 44.378906 C 170.003906 48.554688 170.90625 52.660156 171.863281 56.769531 C 174.109375 66.449219 176.230469 76.277344 177.402344 86.117188 C 178.019531 91.320312 178.886719 96.617188 177.585938 101.785156 C 177.246094 101.605469 177.207031 102.417969 176.96875 102.707031 C 176.515625 103.257812 176.019531 103.785156 175.527344 104.304688 C 174.011719 105.910156 172.386719 107.4375 170.707031 108.894531 C 167.910156 111.3125 164.878906 113.539062 161.84375 115.703125 C 161.019531 116.289062 160.179688 116.859375 159.371094 117.460938 C 159.234375 117.566406 158.566406 117.949219 158.535156 118.128906 C 158.523438 118.164062 160.839844 117.8125 160.960938 117.785156 C 163.527344 117.242188 166.125 116.550781 168.515625 115.546875 C 171.546875 114.277344 174.992188 112.671875 177.316406 110.445312 C 179.71875 108.140625 181.320312 104.183594 181.796875 101.082031 C 182.097656 99.140625 181.960938 96.902344 181.949219 94.941406 C 181.9375 90.972656 181.78125 86.996094 181.34375 83.046875 C 179.949219 70.496094 176.449219 57.128906 173.34375 44.847656 Z M 173.34375 44.847656 " fill-opacity="1" fill-rule="evenodd"/><path fill="#000000" d="M 148.339844 104.207031 C 148.382812 104.226562 148.246094 104.207031 148.203125 104.195312 C 148.125 104.171875 148.054688 104.109375 148 104.0625 C 147.796875 103.894531 147.613281 103.691406 147.464844 103.488281 C 147.320312 103.292969 147.203125 103.070312 147.003906 102.910156 C 146.484375 102.5 145.699219 102.714844 145.152344 102.953125 C 144.839844 103.089844 144.550781 103.265625 144.300781 103.46875 C 144.0625 103.660156 143.832031 103.878906 143.6875 104.128906 C 143.113281 105.105469 144.121094 105.964844 145.03125 106.414062 C 145.007812 106.394531 145.070312 106.460938 145.101562 106.476562 C 145.179688 106.511719 145.261719 106.539062 145.34375 106.566406 C 145.578125 106.644531 145.820312 106.703125 146.066406 106.746094 C 146.832031 106.882812 147.683594 106.859375 148.425781 106.640625 C 149.789062 106.234375 150.757812 105.292969 151.886719 104.574219 C 152.394531 104.253906 153.140625 103.902344 153.1875 104.730469 C 153.222656 105.34375 152.992188 106.019531 152.804688 106.609375 C 152.71875 106.882812 152.636719 107.199219 152.425781 107.421875 C 151.988281 107.882812 151.285156 108.179688 150.710938 108.488281 C 149.84375 108.949219 148.992188 109.425781 148.1875 109.960938 C 146.894531 110.828125 145.75 111.878906 144.609375 112.882812 C 143.304688 114.035156 141.945312 115.25 141.050781 116.667969 C 140.980469 116.777344 140.890625 117.0625 140.859375 117.171875 C 140.703125 117.746094 140.726562 118.257812 141.160156 118.742188 C 142.257812 119.972656 144.203125 120.171875 145.914062 120.183594 C 147.570312 120.195312 149.175781 119.914062 150.765625 119.558594 C 152.179688 119.242188 153.5625 118.882812 154.863281 118.316406 C 155.613281 117.992188 156.359375 117.65625 157.148438 117.410156 C 157.34375 117.347656 157.773438 117.167969 157.964844 117.328125 C 158.160156 117.496094 157.941406 117.847656 157.828125 117.996094 C 157.390625 118.574219 156.789062 119.085938 156.242188 119.589844 C 155.769531 120.027344 155.253906 120.4375 154.703125 120.800781 C 154.496094 120.933594 154.085938 121.203125 153.890625 121.3125 C 153.15625 121.722656 152.40625 122.105469 151.636719 122.46875 C 149.289062 123.574219 146.851562 124.054688 144.164062 124.039062 C 142.480469 124.03125 140.65625 123.671875 139.453125 122.605469 C 138.253906 121.546875 138.5 119.957031 138.765625 118.636719 C 139.058594 117.183594 139.679688 115.769531 140.40625 114.433594 C 141.292969 112.800781 142.410156 111.117188 143.972656 109.867188 C 143.699219 109.851562 143.296875 109.574219 143.082031 109.449219 C 142.199219 108.925781 141.527344 108.175781 141.117188 107.339844 C 140.230469 105.546875 141.378906 103.875 142.617188 102.433594 C 143.160156 101.796875 143.734375 101.179688 144.382812 100.617188 C 145.203125 99.90625 146.398438 99.109375 147.621094 99.039062 C 148.589844 98.984375 149.265625 99.65625 149.460938 100.40625 C 149.59375 100.917969 149.53125 101.488281 149.421875 102 C 149.269531 102.730469 148.820312 103.574219 148.339844 104.207031 Z M 148.339844 104.207031 " fill-opacity="1" fill-rule="evenodd"/><path fill="#000000" d="M 192.179688 96.515625 C 191.6875 97.148438 192.167969 93.464844 192.148438 92.667969 C 192.0625 89.089844 191.703125 85.535156 191.367188 81.96875 C 190.136719 68.976562 187.828125 54.960938 186.535156 41.976562 C 186.347656 41.894531 186.375 41.082031 186.355469 40.941406 C 186.214844 39.792969 186.066406 38.644531 185.960938 37.492188 C 185.738281 35.03125 185.664062 32.550781 185.316406 30.101562 C 185.265625 29.738281 185.207031 29.300781 184.9375 28.992188 C 184.726562 28.746094 184.195312 28.570312 184.230469 28.234375 C 184.296875 27.628906 184.679688 26.980469 184.9375 26.410156 C 185.109375 26.023438 185.285156 25.636719 185.484375 25.257812 C 185.582031 25.066406 185.683594 24.875 185.8125 24.691406 C 185.894531 24.566406 185.992188 24.445312 186.097656 24.332031 C 186.824219 23.515625 187.109375 24.574219 187.359375 25.109375 C 187.777344 26 188.171875 26.894531 188.566406 27.792969 C 189.066406 28.929688 189.621094 30.046875 190.171875 31.167969 C 190.851562 32.546875 191.519531 33.929688 192.027344 35.355469 C 192.214844 35.878906 192.589844 36.605469 192.449219 37.167969 C 192.359375 37.519531 191.523438 36.886719 191.417969 36.804688 C 190.84375 36.375 190.339844 35.886719 189.835938 35.40625 C 189.800781 35.371094 189.457031 34.988281 189.34375 35.039062 C 189.226562 35.09375 189.378906 35.871094 189.386719 35.960938 C 189.417969 36.25 189.449219 36.535156 189.488281 36.824219 C 189.542969 37.253906 189.597656 37.6875 189.648438 38.121094 C 189.671875 38.320312 189.75 38.808594 189.765625 38.984375 C 189.878906 39.941406 189.996094 40.894531 190.09375 41.851562 C 190.460938 45.507812 190.847656 49.15625 191.296875 52.804688 C 192.226562 60.300781 193.234375 67.792969 194.117188 75.296875 C 194.648438 79.78125 195.609375 84.339844 195.082031 88.871094 C 194.824219 91.0625 192.664062 95.882812 192.179688 96.515625 Z M 192.179688 96.515625 " fill-opacity="1" fill-rule="evenodd"/><path fill="#000000" d="M 174.96875 101.890625 C 174.828125 102.675781 173.539062 99.195312 173.148438 98.5 C 171.402344 95.375 169.429688 92.394531 167.46875 89.402344 C 160.328125 78.480469 151.75 67.15625 144.554688 56.269531 C 144.351562 56.28125 143.996094 55.554688 143.914062 55.4375 C 143.253906 54.488281 142.585938 53.539062 141.957031 52.566406 C 140.613281 50.492188 139.390625 48.335938 137.941406 46.328125 C 137.730469 46.03125 137.472656 45.671875 137.089844 45.523438 C 136.789062 45.40625 136.238281 45.5 136.113281 45.183594 C 135.886719 44.617188 135.921875 43.867188 135.882812 43.242188 C 135.859375 42.816406 135.835938 42.394531 135.832031 41.96875 C 135.828125 41.75 135.832031 41.53125 135.859375 41.3125 C 135.875 41.164062 135.90625 41.011719 135.941406 40.863281 C 136.207031 39.800781 136.953125 40.605469 137.421875 40.960938 C 138.207031 41.554688 138.976562 42.160156 139.742188 42.773438 C 140.710938 43.542969 141.722656 44.277344 142.734375 45.011719 C 143.976562 45.914062 145.214844 46.828125 146.328125 47.851562 C 146.738281 48.226562 147.410156 48.695312 147.546875 49.257812 C 147.632812 49.609375 146.59375 49.441406 146.464844 49.417969 C 145.753906 49.304688 145.082031 49.105469 144.414062 48.917969 C 144.367188 48.902344 143.882812 48.726562 143.808594 48.820312 C 143.726562 48.925781 144.226562 49.542969 144.277344 49.617188 C 144.4375 49.855469 144.597656 50.097656 144.765625 50.332031 C 145.015625 50.691406 145.265625 51.046875 145.511719 51.40625 C 145.625 51.570312 145.921875 51.96875 146.019531 52.113281 C 146.5625 52.910156 147.113281 53.699219 147.644531 54.5 C 149.675781 57.5625 151.71875 60.613281 153.816406 63.628906 C 158.132812 69.828125 162.515625 75.988281 166.792969 82.210938 C 169.351562 85.933594 172.328125 89.519531 173.972656 93.777344 C 174.769531 95.832031 175.105469 101.101562 174.96875 101.890625 Z M 174.96875 101.890625 " fill-opacity="1" fill-rule="evenodd"/><path fill="#000000" d="M 302.296875 22.972656 C 302.046875 22.910156 302.8125 23.015625 303.066406 23.0625 C 303.554688 23.15625 304.039062 23.261719 304.527344 23.355469 C 305.933594 23.621094 307.300781 23.957031 308.660156 24.429688 C 312.757812 25.84375 316.683594 27.960938 320.285156 30.441406 C 329 36.441406 335.523438 45.453125 339.125 55.730469 C 340.003906 58.230469 340.761719 60.78125 341.375 63.371094 C 341.59375 64.300781 342.125 65.625 341.710938 66.566406 C 340.992188 68.214844 339.09375 69.257812 337.761719 70.273438 C 337.933594 70.484375 337.234375 70.339844 336.96875 70.386719 C 336.433594 70.488281 335.851562 70.261719 335.355469 70.0625 C 333.957031 69.503906 332.5625 68.292969 331.238281 67.496094 C 330.167969 66.847656 330.117188 65.25 329.796875 64.097656 C 329.109375 61.628906 328.234375 59.21875 327.292969 56.84375 C 322.464844 44.621094 312.207031 31.144531 302.296875 22.972656 Z M 302.296875 22.972656 " fill-opacity="1" fill-rule="evenodd"/><path fill="#000000" d="M 302.296875 129.929688 C 302.046875 129.992188 302.8125 129.886719 303.066406 129.839844 C 303.554688 129.75 304.039062 129.640625 304.527344 129.550781 C 305.933594 129.28125 307.300781 128.945312 308.660156 128.476562 C 312.757812 127.0625 316.683594 124.945312 320.285156 122.464844 C 329 116.460938 335.523438 107.449219 339.125 97.175781 C 340.003906 94.671875 340.761719 92.121094 341.375 89.535156 C 341.59375 88.605469 342.125 87.28125 341.710938 86.335938 C 340.992188 84.6875 339.09375 83.648438 337.761719 82.632812 C 337.933594 82.417969 337.234375 82.5625 336.96875 82.515625 C 336.433594 82.417969 335.851562 82.644531 335.355469 82.839844 C 333.957031 83.398438 332.5625 84.613281 331.238281 85.410156 C 330.167969 86.054688 330.117188 87.652344 329.796875 88.804688 C 329.109375 91.273438 328.234375 93.6875 327.292969 96.0625 C 322.464844 108.285156 312.207031 121.761719 302.296875 129.929688 Z M 302.296875 129.929688 " fill-opacity="1" fill-rule="evenodd"/><path fill="#000000" d="M 351.007812 69.847656 C 350.855469 69.761719 350.714844 69.6875 350.632812 69.628906 C 349.808594 69.054688 349.097656 68.390625 348.523438 67.535156 C 346.53125 64.570312 345.847656 60.867188 343.855469 57.882812 C 343.191406 56.890625 342.375 56.027344 341.457031 55.285156 C 341.050781 54.953125 340.609375 54.664062 340.199219 54.332031 C 340.101562 54.253906 339.871094 54.058594 339.785156 53.902344 C 339.652344 53.65625 339.664062 53.417969 339.757812 53.214844 C 339.820312 53.074219 339.945312 52.894531 340.242188 52.8125 C 341.480469 52.46875 343.207031 52.988281 344.363281 53.367188 C 347.613281 54.421875 350.824219 56.398438 352.820312 59.367188 C 353.355469 60.164062 353.738281 61.074219 354.132812 61.976562 C 354.488281 62.789062 354.851562 63.59375 355.386719 64.265625 C 355.757812 64.726562 356.230469 65.046875 356.726562 65.339844 C 357.300781 65.675781 357.902344 65.976562 358.441406 66.355469 C 359.992188 67.445312 361 69.160156 361.722656 70.933594 C 361.957031 71.503906 362.175781 72.089844 362.347656 72.683594 C 362.417969 72.917969 362.472656 73.164062 362.515625 73.40625 C 362.527344 73.476562 362.527344 73.648438 362.523438 73.753906 C 362.53125 73.804688 362.53125 73.859375 362.519531 73.910156 C 362.464844 74.292969 362.230469 74.417969 362.035156 74.449219 C 360.5625 75.015625 359.09375 75.59375 357.632812 76.199219 L 357.546875 76.234375 C 358.484375 76.722656 359.417969 77.222656 360.351562 77.714844 C 360.550781 77.820312 361.09375 77.988281 361.449219 78.191406 C 361.742188 78.359375 361.941406 78.574219 362.023438 78.769531 C 362.097656 78.941406 362.125 79.183594 362.085938 79.453125 C 362.035156 79.777344 361.875 80.179688 361.820312 80.367188 C 361.453125 81.582031 360.914062 82.773438 360.261719 83.847656 C 359.65625 84.84375 358.9375 85.753906 358.0625 86.496094 C 356.914062 87.472656 355.5625 88.1875 354.636719 89.429688 C 353.996094 90.285156 353.613281 91.296875 353.214844 92.300781 C 352.769531 93.417969 352.300781 94.53125 351.53125 95.480469 C 349.542969 97.929688 346.664062 99.53125 343.609375 99.789062 C 342.914062 99.84375 342.199219 99.886719 341.5 99.835938 C 341.402344 99.828125 340.96875 99.804688 340.777344 99.707031 C 340.546875 99.589844 340.429688 99.40625 340.386719 99.226562 C 340.335938 99.023438 340.355469 98.742188 340.613281 98.507812 C 340.734375 98.402344 341.117188 98.230469 341.183594 98.199219 C 341.613281 97.984375 342.019531 97.722656 342.421875 97.445312 C 343.46875 96.714844 344.375 95.789062 345.113281 94.71875 C 345.746094 93.804688 346.300781 92.785156 346.738281 91.746094 C 346.871094 91.429688 347.007812 91.097656 347.09375 90.761719 C 347.101562 90.710938 347.128906 90.527344 347.15625 90.414062 C 347.101562 89.363281 346.933594 88.308594 346.984375 87.320312 C 347.050781 86.132812 347.40625 85.035156 348.496094 84.117188 C 349.601562 83.183594 350.910156 82.667969 352.15625 82.003906 C 352.234375 81.960938 352.398438 81.871094 352.53125 81.796875 C 352.09375 81.28125 351.351562 80.898438 350.828125 80.578125 C 349.160156 79.5625 347.34375 78.804688 345.558594 78.050781 C 344.765625 77.714844 343.964844 77.402344 343.152344 77.125 C 342.832031 77.015625 342.511719 76.910156 342.1875 76.820312 L 342.121094 76.800781 C 340.828125 78.222656 339.3125 79.457031 337.921875 80.761719 C 337.542969 81.117188 337.152344 81.46875 336.769531 81.828125 C 336.734375 81.871094 336.574219 82.054688 336.488281 82.128906 C 336.40625 82.199219 336.332031 82.246094 336.277344 82.265625 C 336.039062 82.367188 335.847656 82.304688 335.71875 82.222656 C 333.945312 81.097656 332.199219 79.933594 330.453125 78.753906 C 329.871094 78.359375 329.296875 77.957031 328.710938 77.570312 C 328.519531 77.445312 328.332031 77.320312 328.136719 77.203125 C 328.070312 77.164062 328.003906 77.121094 327.9375 77.074219 C 327.820312 77.03125 327.714844 76.949219 327.644531 76.839844 C 327.476562 76.585938 327.53125 76.382812 327.558594 76.289062 C 327.605469 76.113281 327.699219 75.960938 327.871094 75.878906 C 330.515625 73.597656 333.414062 71.769531 336.289062 69.847656 C 336.515625 69.699219 336.804688 69.722656 337.007812 69.902344 C 337.628906 70.464844 339.859375 72.472656 340.480469 73.03125 C 341.054688 73.546875 341.632812 74.066406 342.210938 74.582031 C 342.347656 74.699219 342.496094 74.855469 342.652344 74.992188 C 342.742188 75.070312 342.828125 75.144531 342.921875 75.183594 C 342.96875 75.167969 343.183594 75.109375 343.308594 75.046875 C 343.589844 74.914062 343.863281 74.746094 344.023438 74.664062 C 345.5 73.90625 346.75 72.726562 348.097656 71.746094 C 348.957031 71.121094 349.84375 70.535156 350.753906 69.992188 C 350.816406 69.957031 350.910156 69.90625 351.007812 69.847656 Z M 341.871094 54.015625 C 342.625 54.125 343.40625 54.394531 344.007812 54.589844 C 347.007812 55.566406 349.988281 57.367188 351.828125 60.105469 C 352.867188 61.652344 353.308594 63.640625 354.457031 65.089844 C 355.324219 66.183594 356.671875 66.652344 357.765625 67.421875 C 359.121094 68.371094 359.976562 69.890625 360.609375 71.441406 C 360.824219 71.96875 361.027344 72.511719 361.1875 73.0625 C 361.21875 73.167969 361.246094 73.273438 361.269531 73.382812 C 359.90625 73.90625 358.542969 74.445312 357.191406 75.007812 C 357.066406 75.058594 356.238281 75.324219 355.917969 75.539062 C 355.589844 75.761719 355.515625 76.066406 355.523438 76.253906 C 355.539062 76.488281 355.667969 76.691406 355.867188 76.792969 C 357.1875 77.46875 358.492188 78.167969 359.804688 78.859375 C 359.941406 78.933594 360.230469 79.035156 360.519531 79.152344 C 360.621094 79.195312 360.761719 79.265625 360.855469 79.320312 C 360.800781 79.507812 360.695312 79.863281 360.664062 79.984375 C 360.332031 81.089844 359.832031 82.179688 359.242188 83.15625 C 358.707031 84.035156 358.074219 84.839844 357.296875 85.5 C 356.082031 86.535156 354.667969 87.316406 353.683594 88.632812 C 352.976562 89.585938 352.539062 90.691406 352.097656 91.804688 C 351.699219 92.800781 351.296875 93.800781 350.609375 94.644531 C 348.828125 96.839844 346.25 98.28125 343.511719 98.511719 C 343.355469 98.523438 343.199219 98.535156 343.042969 98.546875 L 343.089844 98.515625 C 344.257812 97.703125 345.269531 96.667969 346.09375 95.472656 C 346.777344 94.484375 347.378906 93.386719 347.847656 92.265625 C 348.007812 91.882812 348.167969 91.480469 348.273438 91.074219 C 348.285156 91.039062 348.304688 90.886719 348.316406 90.816406 C 348.359375 90.71875 348.382812 90.613281 348.378906 90.5 C 348.339844 89.644531 348.210938 88.78125 348.191406 87.953125 C 348.164062 86.90625 348.316406 85.910156 349.253906 85.117188 C 350.292969 84.242188 351.53125 83.769531 352.703125 83.148438 C 352.921875 83.03125 353.339844 82.84375 353.570312 82.605469 C 353.730469 82.441406 353.828125 82.25 353.863281 82.050781 C 353.902344 81.832031 353.875 81.585938 353.714844 81.320312 C 353.226562 80.535156 352.175781 79.921875 351.433594 79.46875 C 349.714844 78.421875 347.847656 77.636719 346.007812 76.859375 C 345.359375 76.589844 344.710938 76.328125 344.050781 76.089844 C 344.25 75.984375 344.429688 75.878906 344.550781 75.816406 C 346.089844 75.03125 347.390625 73.820312 348.785156 72.800781 C 349.613281 72.195312 350.472656 71.632812 351.351562 71.109375 C 351.53125 71 351.921875 70.796875 352.144531 70.554688 C 352.34375 70.339844 352.445312 70.085938 352.445312 69.835938 C 352.445312 69.574219 352.332031 69.304688 352.097656 69.082031 C 351.867188 68.859375 351.464844 68.675781 351.300781 68.558594 C 350.605469 68.074219 350 67.515625 349.511719 66.792969 C 347.519531 63.832031 346.839844 60.128906 344.851562 57.148438 C 344.117188 56.046875 343.210938 55.089844 342.199219 54.269531 C 342.09375 54.183594 341.984375 54.097656 341.871094 54.015625 Z M 336.558594 71.183594 C 337.425781 71.964844 339.15625 73.523438 339.695312 74.007812 C 340.273438 74.523438 340.847656 75.042969 341.429688 75.5625 L 341.496094 75.621094 C 341.464844 75.652344 341.441406 75.6875 341.421875 75.71875 C 340.117188 77.199219 338.546875 78.460938 337.117188 79.800781 C 336.734375 80.164062 336.339844 80.515625 335.957031 80.878906 C 334.328125 79.835938 332.714844 78.761719 331.109375 77.675781 C 330.523438 77.28125 329.941406 76.871094 329.351562 76.480469 L 329.210938 76.390625 C 331.539062 74.460938 334.054688 72.847656 336.558594 71.183594 Z M 336.558594 71.183594 " fill-opacity="1" fill-rule="evenodd"/><path fill="#000000" d="M 374.867188 76.886719 L 362.519531 73.910156 L 356.878906 76.28125 L 361.5625 78.644531 Z M 374.867188 76.886719 " fill-opacity="1" fill-rule="evenodd"/><path fill="#000000" d="M 72.695312 22.972656 C 72.945312 22.910156 72.179688 23.015625 71.929688 23.0625 C 71.441406 23.15625 70.953125 23.261719 70.464844 23.355469 C 69.0625 23.621094 67.691406 23.957031 66.332031 24.429688 C 62.238281 25.84375 58.308594 27.960938 54.707031 30.441406 C 45.996094 36.441406 39.46875 45.453125 35.867188 55.730469 C 34.988281 58.230469 34.230469 60.78125 33.621094 63.371094 C 33.398438 64.300781 32.867188 65.625 33.28125 66.566406 C 34 68.214844 35.898438 69.257812 37.230469 70.273438 C 37.058594 70.484375 37.757812 70.339844 38.023438 70.386719 C 38.558594 70.488281 39.140625 70.261719 39.636719 70.0625 C 41.035156 69.503906 42.429688 68.292969 43.753906 67.496094 C 44.824219 66.847656 44.875 65.25 45.195312 64.097656 C 45.886719 61.628906 46.757812 59.21875 47.699219 56.84375 C 52.53125 44.621094 62.785156 31.144531 72.695312 22.972656 Z M 72.695312 22.972656 " fill-opacity="1" fill-rule="evenodd"/><path fill="#000000" d="M 72.695312 129.929688 C 72.945312 129.992188 72.179688 129.886719 71.929688 129.839844 C 71.441406 129.75 70.953125 129.640625 70.464844 129.550781 C 69.0625 129.28125 67.691406 128.945312 66.332031 128.476562 C 62.238281 127.0625 58.308594 124.945312 54.707031 122.464844 C 45.996094 116.460938 39.46875 107.449219 35.867188 97.175781 C 34.988281 94.671875 34.230469 92.121094 33.621094 89.535156 C 33.398438 88.605469 32.867188 87.28125 33.28125 86.335938 C 34 84.6875 35.898438 83.648438 37.230469 82.632812 C 37.058594 82.417969 37.757812 82.5625 38.023438 82.515625 C 38.558594 82.417969 39.140625 82.644531 39.636719 82.839844 C 41.035156 83.398438 42.429688 84.613281 43.753906 85.410156 C 44.824219 86.054688 44.875 87.652344 45.195312 88.804688 C 45.886719 91.273438 46.757812 93.6875 47.699219 96.0625 C 52.53125 108.285156 62.785156 121.761719 72.695312 129.929688 Z M 72.695312 129.929688 " fill-opacity="1" fill-rule="evenodd"/><path fill="#000000" d="M 23.984375 69.847656 C 24.136719 69.761719 24.277344 69.6875 24.359375 69.628906 C 25.183594 69.054688 25.894531 68.390625 26.46875 67.535156 C 28.464844 64.570312 29.144531 60.867188 31.136719 57.882812 C 31.800781 56.890625 32.621094 56.027344 33.535156 55.285156 C 33.941406 54.953125 34.382812 54.664062 34.792969 54.332031 C 34.890625 54.253906 35.121094 54.058594 35.207031 53.902344 C 35.339844 53.65625 35.332031 53.417969 35.234375 53.214844 C 35.171875 53.074219 35.046875 52.894531 34.75 52.8125 C 33.511719 52.46875 31.785156 52.988281 30.628906 53.367188 C 27.378906 54.421875 24.167969 56.398438 22.175781 59.367188 C 21.636719 60.164062 21.253906 61.074219 20.859375 61.976562 C 20.503906 62.789062 20.140625 63.59375 19.605469 64.265625 C 19.234375 64.726562 18.761719 65.046875 18.265625 65.339844 C 17.691406 65.675781 17.089844 65.976562 16.554688 66.355469 C 15 67.445312 13.992188 69.160156 13.269531 70.933594 C 13.035156 71.503906 12.820312 72.089844 12.644531 72.683594 C 12.574219 72.917969 12.519531 73.164062 12.476562 73.40625 C 12.464844 73.476562 12.464844 73.648438 12.46875 73.753906 C 12.460938 73.804688 12.464844 73.859375 12.472656 73.910156 C 12.527344 74.292969 12.761719 74.417969 12.957031 74.449219 C 14.429688 75.015625 15.898438 75.59375 17.359375 76.199219 L 17.445312 76.234375 C 16.511719 76.722656 15.578125 77.222656 14.644531 77.714844 C 14.441406 77.820312 13.898438 77.988281 13.542969 78.191406 C 13.25 78.359375 13.050781 78.574219 12.96875 78.769531 C 12.894531 78.941406 12.867188 79.183594 12.910156 79.453125 C 12.957031 79.777344 13.117188 80.179688 13.175781 80.367188 C 13.539062 81.582031 14.078125 82.773438 14.730469 83.847656 C 15.335938 84.84375 16.054688 85.753906 16.933594 86.496094 C 18.078125 87.472656 19.429688 88.1875 20.355469 89.429688 C 21 90.285156 21.378906 91.296875 21.777344 92.300781 C 22.222656 93.417969 22.691406 94.53125 23.460938 95.480469 C 25.449219 97.929688 28.328125 99.53125 31.382812 99.789062 C 32.078125 99.84375 32.796875 99.886719 33.492188 99.835938 C 33.589844 99.828125 34.023438 99.804688 34.21875 99.707031 C 34.445312 99.589844 34.5625 99.40625 34.605469 99.226562 C 34.65625 99.023438 34.640625 98.742188 34.378906 98.507812 C 34.261719 98.402344 33.875 98.230469 33.808594 98.199219 C 33.378906 97.984375 32.972656 97.722656 32.574219 97.445312 C 31.523438 96.714844 30.621094 95.789062 29.878906 94.71875 C 29.246094 93.804688 28.691406 92.785156 28.253906 91.746094 C 28.121094 91.429688 27.984375 91.097656 27.898438 90.761719 C 27.890625 90.710938 27.863281 90.527344 27.835938 90.414062 C 27.890625 89.363281 28.0625 88.308594 28.007812 87.320312 C 27.941406 86.132812 27.585938 85.035156 26.496094 84.117188 C 25.390625 83.183594 24.082031 82.667969 22.835938 82.003906 C 22.757812 81.960938 22.59375 81.871094 22.460938 81.796875 C 22.898438 81.28125 23.640625 80.898438 24.164062 80.578125 C 25.832031 79.5625 27.648438 78.804688 29.433594 78.050781 C 30.226562 77.714844 31.027344 77.402344 31.839844 77.125 C 32.160156 77.015625 32.480469 76.910156 32.804688 76.820312 L 32.871094 76.800781 C 34.164062 78.222656 35.679688 79.457031 37.070312 80.761719 C 37.449219 81.117188 37.839844 81.46875 38.222656 81.828125 C 38.257812 81.871094 38.421875 82.054688 38.503906 82.128906 C 38.585938 82.199219 38.660156 82.246094 38.714844 82.265625 C 38.953125 82.367188 39.144531 82.304688 39.273438 82.222656 C 41.046875 81.097656 42.796875 79.933594 44.539062 78.753906 C 45.121094 78.359375 45.695312 77.957031 46.285156 77.570312 C 46.472656 77.445312 46.664062 77.320312 46.855469 77.203125 C 46.921875 77.164062 46.988281 77.121094 47.054688 77.074219 C 47.175781 77.03125 47.277344 76.949219 47.347656 76.839844 C 47.515625 76.585938 47.460938 76.382812 47.433594 76.289062 C 47.386719 76.113281 47.292969 75.960938 47.121094 75.878906 C 44.476562 73.597656 41.578125 71.769531 38.707031 69.847656 C 38.476562 69.699219 38.1875 69.722656 37.984375 69.902344 C 37.363281 70.464844 35.132812 72.472656 34.511719 73.03125 C 33.9375 73.546875 33.359375 74.066406 32.78125 74.582031 C 32.644531 74.699219 32.496094 74.855469 32.339844 74.992188 C 32.25 75.070312 32.164062 75.144531 32.070312 75.183594 C 32.023438 75.167969 31.808594 75.109375 31.683594 75.046875 C 31.402344 74.914062 31.128906 74.746094 30.972656 74.664062 C 29.492188 73.90625 28.242188 72.726562 26.894531 71.746094 C 26.035156 71.121094 25.148438 70.535156 24.238281 69.992188 C 24.175781 69.957031 24.085938 69.90625 23.984375 69.847656 Z M 33.121094 54.015625 C 32.367188 54.125 31.585938 54.394531 30.984375 54.589844 C 27.984375 55.566406 25.003906 57.367188 23.164062 60.105469 C 22.125 61.652344 21.683594 63.640625 20.535156 65.089844 C 19.667969 66.183594 18.320312 66.652344 17.226562 67.421875 C 15.871094 68.371094 15.015625 69.890625 14.382812 71.441406 C 14.167969 71.96875 13.964844 72.511719 13.804688 73.0625 C 13.773438 73.167969 13.746094 73.273438 13.722656 73.382812 C 15.089844 73.90625 16.449219 74.445312 17.800781 75.007812 C 17.929688 75.058594 18.753906 75.324219 19.074219 75.539062 C 19.402344 75.761719 19.476562 76.066406 19.46875 76.253906 C 19.453125 76.488281 19.324219 76.691406 19.128906 76.792969 C 17.804688 77.46875 16.5 78.167969 15.1875 78.859375 C 15.050781 78.933594 14.761719 79.035156 14.472656 79.152344 C 14.371094 79.195312 14.230469 79.265625 14.136719 79.320312 C 14.191406 79.507812 14.296875 79.863281 14.332031 79.984375 C 14.664062 81.089844 15.160156 82.179688 15.753906 83.15625 C 16.289062 84.035156 16.917969 84.839844 17.695312 85.5 C 18.910156 86.535156 20.324219 87.316406 21.308594 88.632812 C 22.019531 89.585938 22.453125 90.691406 22.894531 91.804688 C 23.292969 92.800781 23.695312 93.800781 24.382812 94.644531 C 26.164062 96.839844 28.742188 98.28125 31.480469 98.511719 C 31.636719 98.523438 31.792969 98.535156 31.949219 98.546875 L 31.90625 98.515625 C 30.734375 97.703125 29.722656 96.667969 28.898438 95.472656 C 28.21875 94.484375 27.617188 93.386719 27.144531 92.265625 C 26.984375 91.882812 26.824219 91.480469 26.71875 91.074219 C 26.710938 91.039062 26.6875 90.886719 26.675781 90.816406 C 26.632812 90.71875 26.609375 90.613281 26.617188 90.5 C 26.652344 89.644531 26.78125 88.78125 26.800781 87.953125 C 26.828125 86.90625 26.675781 85.910156 25.738281 85.117188 C 24.699219 84.242188 23.460938 83.769531 22.289062 83.148438 C 22.070312 83.03125 21.652344 82.84375 21.421875 82.605469 C 21.265625 82.441406 21.164062 82.25 21.132812 82.050781 C 21.089844 81.832031 21.117188 81.585938 21.277344 81.320312 C 21.765625 80.535156 22.816406 79.921875 23.558594 79.46875 C 25.277344 78.421875 27.144531 77.636719 28.984375 76.859375 C 29.632812 76.589844 30.28125 76.328125 30.941406 76.089844 C 30.742188 75.984375 30.5625 75.878906 30.441406 75.816406 C 28.90625 75.03125 27.601562 73.820312 26.207031 72.800781 C 25.378906 72.195312 24.519531 71.632812 23.644531 71.109375 C 23.460938 71 23.070312 70.796875 22.847656 70.554688 C 22.648438 70.339844 22.550781 70.085938 22.550781 69.835938 C 22.546875 69.574219 22.660156 69.304688 22.894531 69.082031 C 23.125 68.859375 23.527344 68.675781 23.691406 68.558594 C 24.386719 68.074219 24.996094 67.515625 25.480469 66.792969 C 27.472656 63.832031 28.152344 60.128906 30.140625 57.148438 C 30.875 56.046875 31.78125 55.089844 32.792969 54.269531 C 32.898438 54.183594 33.007812 54.097656 33.121094 54.015625 Z M 38.433594 71.183594 C 37.566406 71.964844 35.835938 73.523438 35.296875 74.007812 C 34.71875 74.523438 34.144531 75.042969 33.5625 75.5625 L 33.496094 75.621094 C 33.527344 75.652344 33.550781 75.6875 33.574219 75.71875 C 34.875 77.199219 36.445312 78.460938 37.875 79.800781 C 38.261719 80.164062 38.652344 80.515625 39.035156 80.878906 C 40.664062 79.835938 42.277344 78.761719 43.882812 77.675781 C 44.46875 77.28125 45.050781 76.871094 45.640625 76.480469 L 45.78125 76.390625 C 43.453125 74.460938 40.9375 72.847656 38.433594 71.183594 Z M 38.433594 71.183594 " fill-opacity="1" fill-rule="evenodd"/><path fill="#000000" d="M 0.128906 76.886719 L 12.472656 73.910156 L 18.113281 76.28125 L 13.429688 78.644531 Z M 0.128906 76.886719 " fill-opacity="1" fill-rule="evenodd"/><g clip-path="url(#7335474a71)"><path fill="#000000" d="M 290.367188 97.15625 C 290.300781 97.136719 290.117188 97.453125 290.085938 97.488281 C 289.816406 97.839844 289.585938 98.21875 289.339844 98.589844 C 289.089844 98.960938 288.660156 99.480469 288.722656 99.960938 C 288.859375 101.042969 290.289062 102.710938 288.425781 103.148438 C 286.824219 103.527344 284.949219 101.957031 285.066406 100.3125 C 285.113281 99.707031 285.332031 99.144531 285.496094 98.570312 C 285.527344 98.472656 285.652344 98.078125 285.460938 98.050781 C 284.980469 97.984375 284.222656 99.273438 284.003906 99.570312 C 282.882812 101.085938 281.96875 103.082031 280.226562 103.988281 C 278.59375 104.835938 276.621094 104.0625 274.957031 103.675781 C 273.652344 103.375 272.394531 103.417969 271.117188 103.820312 C 269.363281 104.371094 267.40625 106.09375 265.96875 107.140625 C 262.085938 109.976562 258.429688 113.113281 254.652344 116.085938 C 251.511719 118.554688 248.246094 120.90625 244.894531 123.0625 C 241.550781 125.214844 238.253906 127.414062 234.710938 129.226562 C 233.894531 129.644531 233.066406 130.039062 232.25 130.472656 C 232.082031 130.5625 231.433594 130.738281 231.394531 130.972656 C 231.34375 131.242188 232.058594 131.230469 232.183594 131.238281 C 233.128906 131.292969 234.101562 130.988281 235.007812 130.753906 C 238.507812 129.859375 242.585938 128.578125 245.765625 126.824219 C 248.128906 125.523438 250.117188 123.492188 252.179688 121.769531 C 255.296875 119.179688 258.460938 116.65625 261.605469 114.097656 C 264.144531 112.03125 266.679688 109.851562 269.59375 108.339844 C 270.65625 107.785156 271.875 107.257812 273.09375 107.367188 C 273.972656 107.445312 274.804688 108 275.609375 108.339844 C 277.414062 109.101562 279.410156 109.292969 281.070312 108.046875 C 281.601562 107.652344 282.054688 107.15625 282.457031 106.628906 C 282.933594 105.992188 283.355469 105.292969 283.632812 104.542969 C 283.179688 104.753906 284.652344 105.914062 284.765625 105.988281 C 286.015625 106.753906 287.785156 107.617188 289 106.585938 C 292.824219 103.351562 290.828125 99.632812 290.367188 97.15625 Z M 290.367188 97.15625 " fill-opacity="1" fill-rule="evenodd"/></g><path fill="#000000" d="M 231.628906 38.289062 C 231.289062 38.398438 231.332031 39.128906 230.820312 39.109375 C 230.316406 39.09375 229.667969 38.367188 229.339844 38.109375 C 228.285156 37.28125 227.542969 36.730469 227.574219 35.464844 C 227.59375 34.71875 227.8125 33.28125 228.9375 33.039062 C 229.308594 32.960938 229.695312 33.074219 230.054688 33.148438 C 230.332031 33.203125 230.609375 33.277344 230.851562 33.40625 C 231.195312 33.59375 231.511719 33.847656 231.785156 34.097656 C 232.253906 34.527344 232.632812 35.015625 232.980469 35.511719 C 233.574219 36.363281 234.109375 37.21875 234.539062 38.128906 C 235.183594 39.484375 235.707031 40.878906 236.203125 42.269531 C 236.964844 39.90625 237.5625 37.507812 238.613281 35.207031 C 239.09375 34.164062 239.613281 32.933594 240.667969 32.15625 C 241.777344 31.339844 242.914062 32.042969 243.632812 32.863281 C 244.046875 33.335938 244.601562 34.007812 244.644531 34.601562 C 244.695312 35.242188 244.214844 35.992188 243.871094 36.550781 C 243.78125 36.699219 243.585938 37.105469 243.335938 37.136719 C 243.128906 37.164062 242.722656 36.660156 242.613281 36.554688 C 241.925781 35.894531 240.8125 34.644531 239.855469 35.785156 C 239.683594 35.988281 239.558594 36.21875 239.441406 36.441406 C 239.253906 36.8125 239.085938 37.191406 238.949219 37.578125 C 238.035156 40.117188 237.625 42.753906 236.746094 45.296875 C 236.53125 45.917969 236.285156 46.558594 235.886719 47.121094 C 235.804688 47.238281 235.609375 47.582031 235.394531 47.558594 C 235.164062 47.539062 235.082031 47.179688 235.035156 47.046875 C 234.8125 46.441406 234.6875 45.816406 234.566406 45.199219 C 234.109375 42.878906 233.304688 40.269531 231.628906 38.289062 Z M 231.628906 38.289062 " fill-opacity="1" fill-rule="evenodd"/><path fill="#000000" d="M 155.753906 51.042969 C 155.417969 51.148438 155.457031 51.878906 154.945312 51.863281 C 154.445312 51.84375 153.792969 51.121094 153.464844 50.863281 C 152.410156 50.03125 151.667969 49.484375 151.699219 48.214844 C 151.71875 47.472656 151.941406 46.03125 153.066406 45.792969 C 153.433594 45.714844 153.820312 45.828125 154.179688 45.898438 C 154.460938 45.957031 154.734375 46.03125 154.976562 46.160156 C 155.324219 46.34375 155.636719 46.601562 155.910156 46.851562 C 156.382812 47.28125 156.757812 47.769531 157.105469 48.265625 C 157.703125 49.113281 158.234375 49.972656 158.667969 50.882812 C 159.308594 52.238281 159.832031 53.628906 160.332031 55.023438 C 161.089844 52.660156 161.6875 50.257812 162.738281 47.960938 C 163.21875 46.917969 163.738281 45.683594 164.796875 44.90625 C 165.90625 44.089844 167.039062 44.796875 167.757812 45.617188 C 168.171875 46.085938 168.726562 46.761719 168.773438 47.355469 C 168.824219 47.996094 168.339844 48.746094 167.996094 49.304688 C 167.910156 49.453125 167.710938 49.859375 167.464844 49.890625 C 167.257812 49.917969 166.847656 49.414062 166.738281 49.308594 C 166.054688 48.644531 164.9375 47.394531 163.980469 48.539062 C 163.8125 48.742188 163.683594 48.96875 163.570312 49.195312 C 163.378906 49.566406 163.214844 49.945312 163.074219 50.328125 C 162.160156 52.871094 161.75 55.503906 160.871094 58.050781 C 160.660156 58.671875 160.410156 59.3125 160.011719 59.875 C 159.929688 59.988281 159.738281 60.332031 159.523438 60.3125 C 159.289062 60.289062 159.210938 59.929688 159.160156 59.796875 C 158.941406 59.195312 158.816406 58.570312 158.691406 57.949219 C 158.238281 55.632812 157.429688 53.023438 155.753906 51.042969 Z M 155.753906 51.042969 " fill-opacity="1" fill-rule="evenodd"/><path fill="#000000" d="M 235.730469 62.800781 C 235.429688 62.886719 235.464844 63.496094 235.011719 63.480469 C 234.566406 63.46875 233.988281 62.863281 233.695312 62.648438 C 232.757812 61.957031 232.097656 61.5 232.125 60.445312 C 232.140625 59.828125 232.339844 58.628906 233.339844 58.429688 C 233.667969 58.363281 234.011719 58.457031 234.332031 58.519531 C 234.578125 58.566406 234.824219 58.625 235.039062 58.734375 C 235.34375 58.890625 235.625 59.101562 235.867188 59.308594 C 236.285156 59.667969 236.621094 60.074219 236.929688 60.488281 C 237.460938 61.195312 237.933594 61.90625 238.316406 62.664062 C 238.890625 63.792969 239.355469 64.953125 239.796875 66.113281 C 240.472656 64.144531 241.003906 62.148438 241.9375 60.234375 C 242.363281 59.367188 242.828125 58.339844 243.765625 57.691406 C 244.75 57.011719 245.761719 57.601562 246.398438 58.28125 C 246.765625 58.675781 247.257812 59.234375 247.300781 59.730469 C 247.34375 60.261719 246.914062 60.886719 246.609375 61.351562 C 246.53125 61.476562 246.355469 61.8125 246.136719 61.839844 C 245.953125 61.863281 245.589844 61.441406 245.492188 61.355469 C 244.882812 60.804688 243.894531 59.765625 243.042969 60.714844 C 242.890625 60.882812 242.777344 61.074219 242.675781 61.261719 C 242.507812 61.570312 242.359375 61.886719 242.234375 62.207031 C 241.425781 64.320312 241.058594 66.511719 240.277344 68.632812 C 240.089844 69.148438 239.867188 69.679688 239.511719 70.148438 C 239.441406 70.246094 239.269531 70.53125 239.078125 70.511719 C 238.871094 70.496094 238.800781 70.195312 238.753906 70.085938 C 238.5625 69.582031 238.449219 69.0625 238.339844 68.546875 C 237.933594 66.617188 237.21875 64.445312 235.730469 62.800781 Z M 235.730469 62.800781 " fill-opacity="1" fill-rule="evenodd"/><path fill="#000000" d="M 197.738281 35.863281 L 201.667969 31.023438 L 207.027344 35.941406 L 203.179688 40.804688 Z M 197.738281 35.863281 " fill-opacity="1" fill-rule="evenodd"/><path fill="#000000" d="M 207.03125 35.128906 L 210.964844 30.289062 L 216.324219 35.210938 L 212.476562 40.070312 Z M 207.03125 35.128906 " fill-opacity="1" fill-rule="evenodd"/><path fill="#000000" d="M 224.6875 55.933594 L 223.804688 59.25 L 253.28125 49.308594 L 255.617188 45.164062 C 255.617188 45.164062 224.957031 55.765625 224.6875 55.933594 Z M 224.6875 55.933594 " fill-opacity="1" fill-rule="evenodd"/><g clip-path="url(#fd625f35b0)"><path fill="#000000" d="M 129.292969 29.542969 L 128.410156 32.855469 L 157.886719 22.914062 L 160.222656 18.769531 C 160.222656 18.769531 129.5625 29.375 129.292969 29.542969 Z M 129.292969 29.542969 " fill-opacity="1" fill-rule="evenodd"/></g><path fill="#000000" d="M 205.96875 91.5625 C 205.875 91.386719 205.757812 91.753906 205.679688 91.890625 C 205.433594 92.308594 205.199219 92.738281 204.980469 93.167969 C 204.359375 94.402344 203.71875 95.628906 203.171875 96.894531 C 201.640625 100.441406 199.6875 104.105469 200.257812 108.039062 C 200.441406 109.304688 200.839844 111.324219 202.488281 111.601562 C 204.605469 111.960938 205.761719 109.410156 206.375 107.96875 C 206.519531 107.628906 206.660156 107.289062 206.761719 106.9375 C 206.933594 106.355469 207.152344 105.59375 206.949219 104.992188 C 206.746094 104.378906 206.121094 105.289062 205.980469 105.5 C 205.503906 106.207031 204.800781 107.601562 203.734375 106.839844 C 203.601562 106.746094 203.484375 106.636719 203.382812 106.515625 C 203.234375 106.339844 203.113281 106.144531 203.011719 105.941406 C 202.464844 104.828125 202.566406 103.425781 202.816406 102.253906 C 203.339844 99.792969 204.617188 97.523438 205.5625 95.191406 C 206.019531 94.066406 206.96875 92.164062 205.96875 91.5625 C 205.878906 91.507812 206.304688 91.433594 206.242188 91.351562 " fill-opacity="1" fill-rule="evenodd"/><path fill="#000000" d="M 85.328125 55.617188 C 85.136719 55.28125 84.898438 55.984375 84.734375 56.242188 C 84.230469 57.046875 83.75 57.871094 83.300781 58.699219 C 82.027344 61.066406 80.703125 63.417969 79.582031 65.84375 C 76.433594 72.644531 72.425781 79.675781 73.597656 87.222656 C 73.972656 89.648438 74.792969 93.523438 78.175781 94.054688 C 82.527344 94.742188 84.90625 89.855469 86.164062 87.089844 C 86.460938 86.4375 86.75 85.785156 86.964844 85.109375 C 87.3125 83.992188 87.757812 82.53125 87.34375 81.375 C 86.925781 80.199219 85.644531 81.945312 85.355469 82.351562 C 84.378906 83.707031 82.929688 86.382812 80.742188 84.925781 C 80.46875 84.746094 80.230469 84.53125 80.015625 84.300781 C 79.710938 83.960938 79.460938 83.585938 79.253906 83.199219 C 78.128906 81.058594 78.339844 78.371094 78.851562 76.125 C 79.925781 71.402344 82.554688 67.050781 84.496094 62.574219 C 85.433594 60.417969 87.382812 56.769531 85.328125 55.617188 C 85.144531 55.515625 86.019531 55.367188 85.890625 55.210938 " fill-opacity="1" fill-rule="evenodd"/><path fill="#000000" d="M 140.242188 77.234375 C 140.765625 75.972656 143.585938 74.277344 144.683594 73.699219 C 148.640625 71.621094 153.171875 70.097656 157.667969 69.925781 C 159.011719 69.878906 160.378906 69.898438 161.707031 70.125 C 162.226562 70.214844 162.742188 70.335938 163.242188 70.484375 C 163.285156 70.5 163.875 70.722656 163.886719 70.6875 C 163.917969 70.589844 163.53125 70.316406 163.476562 70.265625 C 162.988281 69.828125 162.453125 69.449219 161.917969 69.074219 C 159.726562 67.558594 157.238281 66.082031 154.574219 65.660156 C 148.332031 64.664062 141.679688 70.25 138.394531 75.074219 C 138.339844 75 138.214844 75.597656 138.214844 75.605469 C 138.140625 75.964844 138.074219 76.324219 138.03125 76.683594 C 137.898438 77.839844 137.90625 79.003906 137.988281 80.160156 C 138.222656 83.527344 139.203125 88.386719 142.289062 90.417969 C 142.445312 90.523438 141.273438 90.558594 141.207031 90.558594 C 140.53125 90.503906 139.835938 90.375 139.199219 90.136719 C 137.183594 89.375 135.699219 87.992188 134.515625 86.214844 C 131.136719 81.121094 129.882812 74.644531 128.765625 68.75 C 129.078125 68.777344 128.628906 68.136719 128.566406 67.832031 C 128.4375 67.167969 128.324219 66.507812 128.210938 65.84375 C 127.859375 63.824219 127.554688 61.792969 127.265625 59.769531 C 126.058594 51.25 125.238281 42.691406 123.90625 34.195312 C 123.601562 32.253906 123.175781 30.355469 122.558594 28.488281 C 122.519531 28.367188 122.007812 26.808594 121.804688 26.914062 C 121.410156 27.125 121.332031 28.707031 121.269531 29.066406 C 120.855469 31.449219 120.492188 33.847656 120.0625 36.230469 C 119.800781 37.683594 119.289062 39.265625 119.378906 40.761719 C 119.601562 44.335938 121.164062 48.066406 121.863281 51.582031 C 123.109375 57.832031 123.96875 64.332031 124.296875 70.703125 C 124.636719 77.304688 122.828125 84.332031 117.734375 88.878906 C 116.164062 90.285156 114.398438 91.335938 112.476562 92.179688 C 111.605469 92.5625 110.144531 92.808594 109.460938 93.5 C 108.53125 94.445312 108.492188 96.023438 108.128906 97.230469 C 107.9375 97.1875 108.519531 97.265625 108.714844 97.28125 C 109.035156 97.300781 109.351562 97.316406 109.671875 97.328125 C 110.804688 97.386719 111.9375 97.476562 113.066406 97.5625 C 116.941406 97.84375 120.902344 97.992188 124.71875 98.769531 C 125.511719 98.929688 128.421875 99.261719 127.496094 100.652344 C 125.421875 103.769531 121.195312 106.140625 118.09375 107.972656 C 111.546875 111.847656 104.152344 115.300781 96.558594 116.375 C 92.75 116.910156 88.613281 116.8125 85.09375 115.097656 C 79.394531 112.320312 78.296875 105.730469 78.609375 99.988281 C 78.71875 98.0625 78.992188 96.136719 79.464844 94.269531 C 79.539062 93.972656 80.132812 91.484375 80.125 91.484375 C 79.5 91.800781 79.019531 92.789062 78.695312 93.351562 C 77.59375 95.257812 76.785156 97.316406 76.238281 99.445312 C 73.832031 108.820312 78.328125 118.667969 87.636719 121.945312 C 99.605469 126.171875 112.789062 118.503906 122.140625 111.597656 C 126.550781 108.339844 131.429688 104.707031 130.863281 98.65625 C 130.5 94.753906 128.226562 93.351562 124.609375 92.753906 C 123.355469 92.539062 122.089844 92.414062 120.832031 92.265625 C 120.566406 92.238281 119.640625 92.257812 119.582031 91.871094 C 119.507812 91.40625 120.105469 90.769531 120.34375 90.433594 C 120.683594 89.953125 123.289062 88.175781 124.757812 85.832031 C 126.246094 83.449219 126.59375 80.484375 126.726562 78.828125 C 127.019531 79.789062 126.964844 80.953125 127.21875 81.945312 C 128.386719 86.46875 130.082031 91.566406 134.15625 94.269531 C 142.003906 99.480469 152.929688 96.207031 160.632812 92.46875 C 163.414062 91.121094 167.492188 89.269531 169.371094 86.65625 C 170.292969 85.375 170.746094 83.46875 171.109375 81.945312 C 171.210938 81.515625 169.984375 82.558594 169.847656 82.660156 C 168.894531 83.351562 167.894531 83.984375 166.886719 84.597656 C 164.097656 86.292969 161.171875 87.933594 157.972656 88.691406 C 149.941406 90.585938 141.3125 85.789062 140.242188 77.234375 Z M 140.242188 77.234375 " fill-opacity="1" fill-rule="evenodd"/><path fill="#000000" d="M 98.652344 53.449219 C 98.539062 53.527344 98.707031 53.175781 98.753906 53.039062 C 98.824219 52.828125 98.902344 52.617188 98.988281 52.40625 C 99.222656 51.800781 99.492188 51.207031 99.757812 50.605469 C 100.402344 49.167969 100.808594 47.617188 102.214844 49.28125 C 102.410156 49.507812 102.597656 49.738281 102.78125 49.980469 C 106.375 54.621094 107.964844 61.019531 107.449219 66.824219 C 107.332031 68.171875 107.117188 69.519531 106.765625 70.824219 C 106.679688 71.140625 106.515625 72.070312 106.167969 72.242188 C 105.96875 72.347656 105.84375 70.238281 105.839844 70.109375 C 105.753906 68.523438 105.621094 66.945312 105.386719 65.363281 C 104.71875 60.941406 101.65625 56.808594 98.652344 53.449219 Z M 98.652344 53.449219 " fill-opacity="1" fill-rule="evenodd"/><path fill="#000000" d="M 225.425781 80.671875 C 225.539062 80.703125 226.261719 80.609375 226.351562 80.675781 C 226.332031 80.5 226.707031 80.6875 226.886719 80.691406 C 227.191406 80.691406 228.710938 80.851562 228.621094 80.292969 C 228.535156 79.761719 227.871094 79.1875 227.542969 78.796875 C 226.441406 77.492188 225.210938 76.277344 223.953125 75.128906 C 223.734375 74.933594 222.542969 73.597656 222.214844 73.789062 C 221.554688 74.183594 221.636719 75.914062 221.554688 76.550781 C 221.488281 77.050781 221.421875 77.554688 221.34375 78.054688 C 221.300781 78.332031 221.253906 78.609375 221.1875 78.882812 C 220.941406 80.019531 220.769531 80.085938 221.414062 81.054688 C 221.53125 81.234375 221.652344 81.414062 221.773438 81.597656 C 221.980469 81.902344 222.183594 82.207031 222.402344 82.503906 C 222.410156 82.5 222.683594 82.976562 222.695312 83.003906 C 222.878906 83.347656 223.054688 83.703125 223.222656 84.054688 C 223.742188 85.121094 224.285156 86.160156 224.855469 87.195312 C 225.558594 88.46875 226.246094 89.746094 227.035156 90.96875 C 228.015625 92.496094 229.269531 94.222656 229.40625 96.101562 C 229.492188 96.007812 229.339844 96.34375 229.3125 96.464844 C 229.25 96.746094 229.144531 97.007812 229.015625 97.269531 C 228.667969 98.007812 228.238281 98.707031 227.769531 99.378906 C 226.292969 101.488281 224.414062 103.195312 222.371094 104.742188 C 216.484375 109.210938 209.21875 113.875 201.738281 114.882812 C 196.230469 115.628906 190.601562 114.210938 189.265625 108.128906 C 188.6875 105.480469 188.570312 102.785156 188.851562 100.097656 C 188.957031 99.046875 189.089844 97.988281 189.273438 96.949219 C 189.289062 96.84375 189.558594 95.910156 189.332031 95.941406 C 188.910156 95.992188 188.507812 96.707031 188.300781 97.011719 C 187.457031 98.292969 187.070312 99.859375 186.902344 101.367188 C 186.316406 106.484375 186.453125 112.871094 189.75 117.105469 C 193.773438 122.269531 200.253906 122.109375 205.871094 120.070312 C 211.167969 118.148438 215.914062 114.972656 220.433594 111.65625 C 225.109375 108.226562 230.019531 104.085938 231.988281 98.402344 C 234.25 91.847656 228.011719 86.085938 225.425781 80.671875 Z M 225.425781 80.671875 " fill-opacity="1" fill-rule="evenodd"/><path fill="#000000" d="M 266.707031 73.710938 C 266.71875 73.789062 266.808594 73.972656 266.824219 74.027344 C 266.898438 74.320312 266.976562 74.613281 267.046875 74.910156 C 267.261719 75.789062 267.496094 76.652344 267.753906 77.519531 C 268.632812 80.488281 270.957031 82.976562 274.246094 82.707031 C 277.976562 82.398438 280.804688 79.398438 282.433594 76.226562 C 283.019531 75.074219 283.460938 73.878906 283.886719 72.65625 C 283.96875 72.410156 284.1875 71.507812 284.492188 71.429688 C 284.667969 71.382812 284.746094 71.964844 284.769531 72.054688 C 284.9375 72.746094 285 73.457031 285.089844 74.15625 C 285.34375 76.078125 285.8125 78.21875 287.648438 79.234375 C 288.992188 79.976562 290.734375 80.144531 292.214844 79.792969 C 292.722656 79.671875 293.558594 79.472656 293.738281 78.890625 C 293.859375 78.503906 294.132812 77.828125 294.070312 77.441406 C 293.894531 76.378906 292.75 74.980469 292.523438 73.929688 C 292.511719 73.921875 293.949219 72.277344 294.089844 72.117188 C 294.734375 71.398438 295.386719 70.675781 296.058594 69.980469 C 296.199219 69.828125 296.601562 69.261719 296.867188 69.316406 C 297.074219 69.359375 297.050781 69.875 297.0625 70.015625 C 297.109375 70.882812 297.0625 71.761719 297.074219 72.632812 C 297.125 75.898438 297.039062 79.550781 295.347656 82.449219 C 294.9375 83.15625 294.410156 83.78125 293.820312 84.34375 C 289.742188 88.261719 285.238281 84.214844 282.613281 80.769531 C 282.59375 80.746094 282.441406 81.097656 282.433594 81.121094 C 282.332031 81.332031 282.234375 81.542969 282.128906 81.75 C 281.820312 82.398438 281.464844 83.019531 281.089844 83.636719 C 279.882812 85.628906 278.488281 87.28125 276.183594 87.984375 C 272.847656 89.003906 268.722656 88.269531 266.660156 85.230469 C 265.730469 83.855469 265.527344 82.34375 265.019531 80.820312 C 264.800781 80.75 263.820312 81.613281 263.632812 81.730469 C 262.214844 82.609375 260.835938 83.503906 259.367188 84.289062 C 259.1875 84.140625 259.433594 84.75 259.472656 84.976562 C 259.539062 85.457031 259.605469 85.9375 259.660156 86.417969 C 259.820312 87.796875 259.984375 89.171875 259.882812 90.558594 C 259.910156 90.570312 259.640625 91.144531 259.636719 91.164062 C 259.238281 91.933594 258.8125 92.691406 258.367188 93.429688 C 256.363281 96.730469 253.9375 99.769531 251.203125 102.488281 C 249.566406 104.125 247.855469 105.695312 245.992188 107.082031 C 244.734375 108.019531 243.394531 108.875 242.007812 109.625 C 235.304688 113.257812 222.730469 116.09375 218.792969 107.039062 C 216.617188 102.019531 217.0625 95.910156 218.335938 90.710938 C 218.644531 89.421875 218.972656 88.109375 219.535156 86.898438 C 219.617188 86.722656 219.863281 85.941406 220.121094 85.921875 C 220.390625 85.898438 220.089844 87.453125 220.078125 87.53125 C 219.707031 89.464844 219.273438 91.402344 219.101562 93.367188 C 218.667969 98.222656 220.0625 103.921875 224.960938 105.96875 C 234.417969 109.914062 245.027344 102.535156 251.664062 96.375 C 253.265625 94.886719 254.742188 93.328125 256.164062 91.671875 C 256.796875 90.941406 257.796875 89.808594 257.9375 88.785156 C 258.070312 87.867188 257.675781 86.984375 257.410156 86.136719 C 257.121094 86.128906 256.695312 86.441406 256.425781 86.550781 C 255.683594 86.859375 254.925781 87.164062 254.164062 87.457031 C 251.648438 88.433594 248.5625 89.199219 245.933594 88.234375 C 245.253906 87.984375 244.617188 87.648438 244.074219 87.167969 C 239.972656 83.566406 243.394531 77.972656 246.167969 74.78125 C 247.621094 73.113281 249.488281 71.292969 251.890625 71.890625 C 253.488281 72.289062 254.703125 73.644531 255.644531 74.929688 C 256.707031 76.386719 257.375 77.90625 258.007812 79.578125 C 257.992188 79.589844 257.992188 79.597656 258.011719 79.597656 L 258.007812 79.578125 C 258.054688 79.53125 258.320312 79.414062 258.339844 79.402344 C 258.574219 79.292969 258.800781 79.179688 259.023438 79.0625 C 259.675781 78.722656 260.3125 78.347656 260.953125 77.976562 C 263.035156 76.761719 265.015625 75.449219 266.707031 73.710938 C 266.703125 73.679688 266.707031 73.667969 266.734375 73.683594 Z M 253.34375 81.289062 C 253.324219 81.265625 252.246094 81.65625 252.21875 81.664062 C 251.800781 81.8125 251.351562 81.902344 250.914062 81.964844 C 249.652344 82.140625 247.757812 82.375 246.828125 81.269531 C 245.746094 79.988281 247.128906 78.214844 248.492188 77.996094 C 250.179688 77.722656 252.570312 79.601562 253.34375 81.289062 Z M 253.34375 81.289062 " fill-opacity="1" fill-rule="evenodd"/><path fill="#000000" d="M 264.554688 73.515625 C 264.640625 73.484375 264.90625 73.148438 264.953125 73.105469 C 265.355469 72.742188 265.785156 72.410156 266.230469 72.097656 C 267.914062 70.90625 269.800781 69.988281 271.46875 68.773438 C 276.828125 64.875 282.179688 60.84375 287.039062 56.410156 C 288.230469 55.328125 289.378906 54.210938 290.558594 53.117188 C 291.085938 52.628906 291.992188 52.023438 292.304688 51.371094 C 292.4375 51.097656 291.566406 50.671875 291.40625 50.554688 C 290.46875 49.867188 289.589844 49.089844 288.941406 48.15625 C 287.867188 46.617188 288.421875 45.199219 289.351562 43.710938 C 290.246094 42.273438 291.371094 40.953125 293.046875 40.257812 C 294.46875 39.667969 295.929688 40.550781 296.484375 41.796875 C 297.230469 43.453125 296.808594 45.46875 296.25 47.117188 C 296.082031 47.605469 295.890625 48.097656 295.613281 48.539062 C 295.523438 48.683594 295.144531 49.015625 295.128906 49.175781 C 295.117188 49.28125 295.582031 49.570312 295.664062 49.632812 C 296.136719 50 296.765625 50.363281 296.988281 50.929688 C 297.308594 51.738281 296.859375 52.824219 296.425781 53.527344 C 296.328125 53.695312 296.039062 54.25 295.769531 54.214844 C 295.46875 54.179688 295.195312 53.882812 294.976562 53.714844 C 294.445312 53.300781 293.9375 52.859375 293.421875 52.429688 C 292.71875 53.121094 292.167969 54.042969 291.515625 54.78125 C 289.746094 56.796875 287.898438 58.816406 285.894531 60.632812 C 282.59375 63.625 278.484375 65.902344 274.714844 68.335938 C 271.914062 70.144531 267.929688 72.707031 264.554688 73.515625 C 264.550781 73.519531 264.546875 73.519531 264.542969 73.519531 Z M 294.253906 48.316406 C 294.355469 47.816406 294.546875 47.335938 294.617188 46.820312 C 294.757812 45.796875 294.480469 44.699219 293.765625 43.898438 C 293.390625 43.476562 292.871094 43.125 292.277344 43.046875 C 291.460938 42.9375 290.574219 43.609375 290.546875 44.378906 C 290.53125 44.847656 290.882812 45.273438 291.199219 45.605469 C 291.921875 46.367188 293.40625 47.675781 294.253906 48.316406 Z M 294.253906 48.316406 " fill-opacity="1" fill-rule="evenodd"/><path fill="#000000" d="M 257.277344 52.574219 C 257.34375 52.6875 257.984375 52.488281 258.132812 52.453125 C 258.472656 52.378906 258.816406 52.316406 259.160156 52.261719 C 260.226562 52.085938 261.296875 51.949219 262.382812 51.894531 C 265.71875 51.714844 269.621094 51.78125 272.742188 52.902344 C 272.847656 52.765625 272.4375 53.101562 272.285156 53.203125 C 271.941406 53.4375 271.578125 53.652344 271.210938 53.863281 C 270.191406 54.445312 269.171875 55.027344 268.101562 55.546875 C 265.089844 57.007812 261.941406 58.285156 258.996094 59.84375 C 258.292969 60.214844 257.558594 60.554688 256.886719 60.964844 C 256.8125 61.011719 256.273438 61.324219 256.367188 61.4375 C 256.605469 61.71875 257.839844 61.464844 258.128906 61.433594 C 259.988281 61.207031 261.8125 60.820312 263.640625 60.46875 C 265.519531 60.105469 267.957031 60.078125 269.679688 59.316406 C 270.554688 58.933594 271.269531 58.019531 271.886719 57.414062 C 273.410156 55.929688 274.867188 54.398438 276.34375 52.882812 C 277.949219 51.234375 280.492188 48.890625 280.53125 46.636719 C 280.570312 44.328125 275.90625 44.46875 274.050781 44.332031 C 273.421875 44.285156 272.792969 44.21875 272.164062 44.164062 C 269.925781 43.976562 267.640625 43.875 265.394531 43.945312 C 264.597656 43.96875 263.503906 43.859375 262.757812 44.148438 C 261.710938 44.558594 261.148438 45.539062 260.578125 46.304688 C 259.230469 48.105469 258.167969 50.589844 257.277344 52.574219 Z M 257.277344 52.574219 " fill-opacity="1" fill-rule="evenodd"/><path fill="#000000" d="M 148.886719 34.730469 C 148.933594 34.816406 149.347656 34.664062 149.445312 34.636719 C 149.667969 34.582031 149.890625 34.535156 150.113281 34.488281 C 150.808594 34.351562 151.503906 34.25 152.210938 34.203125 C 154.382812 34.066406 156.917969 34.117188 158.949219 34.984375 C 159.019531 34.878906 158.75 35.140625 158.652344 35.21875 C 158.429688 35.398438 158.191406 35.5625 157.953125 35.726562 C 157.292969 36.179688 156.628906 36.628906 155.933594 37.03125 C 153.972656 38.160156 151.921875 39.148438 150.007812 40.351562 C 149.550781 40.636719 149.070312 40.902344 148.636719 41.21875 C 148.585938 41.253906 148.234375 41.496094 148.296875 41.585938 C 148.449219 41.800781 149.253906 41.605469 149.441406 41.578125 C 150.652344 41.40625 151.839844 41.109375 153.027344 40.835938 C 154.25 40.554688 155.835938 40.535156 156.957031 39.945312 C 157.527344 39.648438 157.992188 38.941406 158.394531 38.472656 C 159.382812 37.328125 160.332031 36.140625 161.292969 34.96875 C 162.335938 33.695312 163.992188 31.882812 164.015625 30.140625 C 164.042969 28.355469 161.007812 28.460938 159.800781 28.359375 C 159.390625 28.320312 158.984375 28.269531 158.574219 28.230469 C 157.117188 28.085938 155.632812 28.003906 154.171875 28.058594 C 153.648438 28.078125 152.9375 27.992188 152.453125 28.21875 C 151.773438 28.535156 151.410156 29.292969 151.035156 29.886719 C 150.160156 31.273438 149.46875 33.199219 148.886719 34.730469 Z M 148.886719 34.730469 " fill-opacity="1" fill-rule="evenodd"/><path fill="#000000" d="M 212.160156 60.386719 C 212.160156 60.292969 213.148438 58.996094 213.167969 58.960938 C 213.371094 58.691406 213.582031 58.425781 213.796875 58.164062 C 214.484375 57.320312 215.164062 56.46875 215.828125 55.605469 C 217.492188 53.449219 219.28125 51.390625 221.023438 49.300781 C 221.425781 48.820312 221.835938 48.335938 222.292969 47.90625 C 222.34375 47.859375 222.699219 47.472656 222.800781 47.582031 C 222.953125 47.75 222.757812 48.339844 222.714844 48.523438 C 222.519531 49.429688 222.207031 50.324219 221.84375 51.175781 C 220.285156 54.789062 217.328125 57.75 214.992188 60.867188 C 214.445312 60.910156 214.644531 61.636719 214.851562 61.871094 C 215.664062 62.792969 216.535156 63.621094 217.285156 64.613281 C 219.191406 67.148438 220.289062 69.53125 220.378906 72.765625 C 220.417969 74.03125 220.359375 75.289062 220.058594 76.523438 C 219.175781 80.136719 216.246094 82.492188 213.210938 84.328125 C 211.472656 85.378906 209.242188 86.550781 207.148438 86.367188 C 204.417969 86.125 203.3125 83.703125 202.949219 81.265625 C 202.210938 76.335938 204.105469 71.78125 206.652344 67.652344 C 207.296875 66.605469 207.984375 65.585938 208.691406 64.578125 C 208.972656 64.179688 209.523438 63.691406 209.660156 63.210938 C 209.707031 63.035156 209.359375 62.992188 209.242188 62.847656 C 208.792969 62.304688 208.355469 61.753906 207.898438 61.210938 C 206.363281 59.378906 204.800781 57.566406 203.238281 55.753906 C 202.847656 55.304688 201.964844 55.34375 201.722656 54.796875 C 201.039062 53.28125 201.78125 51.003906 202.039062 49.453125 C 202.101562 49.066406 202.132812 47.753906 202.773438 47.792969 C 203.300781 47.820312 204.035156 48.472656 204.476562 48.734375 C 206.007812 49.65625 207.476562 50.722656 208.914062 51.789062 C 209.289062 52.070312 210.40625 52.8125 210.367188 53.386719 C 210.351562 53.652344 209.898438 53.695312 209.707031 53.71875 C 209.242188 53.773438 208.0625 53.625 207.710938 53.96875 C 207.386719 54.289062 207.898438 55.101562 208.054688 55.386719 C 208.722656 56.660156 211.09375 59.421875 212.160156 60.386719 C 212.164062 60.390625 212.164062 60.394531 212.164062 60.390625 Z M 211.800781 66.417969 C 211.519531 66.488281 211.246094 66.890625 211.0625 67.074219 C 210.554688 67.582031 210.0625 68.097656 209.585938 68.636719 C 209.136719 69.144531 208.707031 69.675781 208.3125 70.222656 C 207.949219 70.71875 207.613281 71.230469 207.296875 71.753906 C 206.070312 73.796875 204.347656 78.371094 207.613281 79.609375 C 210.753906 80.796875 214.019531 77.945312 216.140625 76.015625 C 216.859375 75.359375 218.238281 74.292969 218.191406 73.199219 C 218.160156 72.410156 217.523438 71.644531 217.058594 71.046875 C 215.8125 69.4375 213.496094 67.554688 211.800781 66.417969 Z M 211.800781 66.417969 " fill-opacity="1" fill-rule="evenodd"/></svg>