<svg xmlns="http://www.w3.org/2000/svg" xmlns:xlink="http://www.w3.org/1999/xlink" width="500" zoomAndPan="magnify" viewBox="0 0 375 149.999998" height="200" preserveAspectRatio="xMidYMid meet" version="1.0"><defs><clipPath id="f71bc4444f"><path d="M 185 17.8125 L 196 17.8125 L 196 100 L 185 100 Z M 185 17.8125 " clip-rule="nonzero"/></clipPath></defs><path fill="#000000" d="M 305.472656 22.867188 C 305.273438 22.78125 305.90625 22.84375 306.121094 22.859375 C 306.601562 22.898438 307.078125 22.957031 307.550781 23.023438 C 308.953125 23.222656 310.316406 23.566406 311.664062 23.96875 C 315.59375 25.140625 319.414062 26.921875 322.867188 29.023438 C 330.894531 33.914062 336.824219 41.480469 340.574219 49.667969 C 341.988281 52.753906 343.496094 56.082031 343.496094 59.503906 C 343.515625 59.515625 343.324219 59.742188 343.316406 59.75 C 343.082031 60.03125 342.824219 60.289062 342.554688 60.535156 C 341.425781 61.550781 340.152344 62.367188 338.714844 62.941406 C 338.597656 62.988281 338.382812 62.914062 338.277344 62.882812 C 337.863281 62.769531 337.464844 62.613281 337.066406 62.453125 C 335.363281 61.765625 333.808594 60.777344 332.34375 59.722656 C 331.933594 59.425781 332.046875 58.71875 331.902344 58.246094 C 331.53125 57.046875 331.152344 55.851562 330.765625 54.65625 C 329.945312 52.136719 328.8125 49.6875 327.53125 47.34375 C 327.359375 47.320312 327.414062 47.039062 327.339844 46.890625 C 327.109375 46.449219 326.867188 46.015625 326.621094 45.582031 C 325.554688 43.695312 324.386719 41.863281 323.148438 40.074219 C 319.140625 34.277344 311.488281 26.964844 305.472656 22.867188 Z M 305.472656 22.867188 " fill-opacity="1" fill-rule="evenodd"/><path fill="#000000" d="M 305.472656 112.359375 C 305.273438 112.441406 305.90625 112.378906 306.121094 112.363281 C 306.601562 112.324219 307.078125 112.269531 307.550781 112.199219 C 308.953125 112 310.316406 111.65625 311.664062 111.253906 C 315.59375 110.082031 319.414062 108.304688 322.867188 106.199219 C 330.894531 101.308594 336.824219 93.742188 340.574219 85.558594 C 341.988281 82.46875 343.496094 79.140625 343.496094 75.71875 C 343.515625 75.710938 343.324219 75.480469 343.316406 75.472656 C 343.082031 75.191406 342.824219 74.933594 342.554688 74.691406 C 341.425781 73.671875 340.152344 72.855469 338.714844 72.28125 C 338.597656 72.234375 338.382812 72.308594 338.277344 72.339844 C 337.863281 72.453125 337.464844 72.609375 337.066406 72.769531 C 335.363281 73.457031 333.808594 74.445312 332.34375 75.503906 C 331.933594 75.796875 332.046875 76.507812 331.902344 76.976562 C 331.53125 78.175781 331.152344 79.371094 330.765625 80.566406 C 329.945312 83.085938 328.8125 85.535156 327.53125 87.878906 C 327.359375 87.902344 327.414062 88.1875 327.339844 88.332031 C 327.109375 88.773438 326.867188 89.207031 326.621094 89.644531 C 325.554688 91.527344 324.386719 93.359375 323.148438 95.152344 C 319.140625 100.945312 311.488281 108.261719 305.472656 112.359375 Z M 305.472656 112.359375 " fill-opacity="1" fill-rule="evenodd"/><path fill="#000000" d="M 351.757812 62.109375 C 351.695312 62.074219 351.628906 62.042969 351.574219 62.019531 C 351.277344 61.886719 350.996094 61.777344 350.914062 61.726562 C 350.039062 61.195312 349.324219 60.425781 348.777344 59.601562 C 347.945312 58.34375 347.460938 56.941406 346.972656 55.539062 C 346.519531 54.234375 346.058594 52.925781 345.246094 51.769531 C 344.648438 50.917969 343.769531 50.238281 342.871094 49.679688 C 342.703125 49.574219 342.40625 49.484375 342.152344 49.378906 C 341.875 49.257812 341.632812 49.121094 341.492188 48.976562 C 341.304688 48.785156 341.308594 48.601562 341.324219 48.492188 C 341.347656 48.316406 341.441406 48.15625 341.640625 48.050781 C 341.695312 48.023438 341.773438 47.992188 341.871094 47.976562 C 341.945312 47.96875 342.21875 47.992188 342.261719 47.996094 C 342.460938 47.992188 342.660156 48.003906 342.859375 48.007812 C 343.484375 48.023438 344.113281 48.039062 344.734375 48.125 C 346.609375 48.375 348.445312 48.976562 350.089844 49.863281 C 352.105469 50.949219 353.917969 52.5625 354.957031 54.523438 C 355.242188 55.054688 355.417969 55.683594 355.617188 56.296875 C 355.785156 56.808594 355.96875 57.308594 356.296875 57.695312 C 356.480469 57.910156 356.738281 57.988281 357 58.058594 C 357.261719 58.128906 357.535156 58.179688 357.796875 58.253906 C 358.570312 58.476562 359.304688 58.828125 359.9375 59.292969 C 361.136719 60.179688 361.9375 61.433594 362.65625 62.667969 C 362.902344 63.085938 363.121094 63.515625 363.335938 63.945312 C 363.410156 64.089844 363.484375 64.234375 363.546875 64.386719 C 363.59375 64.492188 363.664062 64.789062 363.664062 64.832031 C 363.6875 65.25 363.351562 65.375 363.25 65.410156 C 363.246094 65.410156 363.226562 65.417969 363.203125 65.421875 C 361.71875 66.164062 360.007812 66.597656 358.425781 67.082031 C 358.25 67.136719 358.066406 67.191406 357.890625 67.246094 L 357.902344 67.25 C 359.105469 67.707031 360.367188 68.054688 361.621094 68.371094 C 361.726562 68.398438 362.480469 68.511719 362.796875 68.625 C 363.132812 68.738281 363.269531 68.957031 363.308594 69.070312 C 363.34375 69.179688 363.363281 69.347656 363.3125 69.542969 C 363.238281 69.84375 362.960938 70.34375 362.902344 70.480469 C 362.375 71.691406 361.652344 72.796875 360.773438 73.808594 C 359.984375 74.714844 359.007812 75.417969 358.035156 76.117188 C 357.136719 76.761719 356.242188 77.398438 355.527344 78.234375 C 354.644531 79.265625 354.152344 80.515625 353.472656 81.65625 C 352.527344 83.242188 351.253906 84.640625 349.535156 85.53125 C 348.171875 86.234375 346.679688 86.546875 345.140625 86.683594 C 344.585938 86.734375 344.03125 86.773438 343.476562 86.8125 C 343.402344 86.820312 343.003906 86.808594 342.933594 86.808594 C 342.660156 86.84375 342.394531 86.710938 342.277344 86.472656 C 342.148438 86.203125 342.253906 85.890625 342.519531 85.738281 C 342.550781 85.722656 342.597656 85.695312 342.667969 85.675781 C 343.417969 85.457031 344.097656 85.019531 344.714844 84.574219 C 346.394531 83.355469 347.929688 81.550781 348.304688 79.554688 C 348.4375 78.84375 348.371094 78.097656 348.359375 77.359375 C 348.347656 76.503906 348.40625 75.65625 348.789062 74.863281 C 349.441406 73.519531 351.105469 72.722656 352.453125 72.128906 C 352.714844 72.015625 352.976562 71.90625 353.242188 71.804688 C 351.464844 70.710938 349.503906 69.84375 347.585938 69.027344 C 346.8125 68.699219 346.03125 68.382812 345.257812 68.050781 C 344.988281 67.9375 344.71875 67.820312 344.449219 67.710938 C 343.265625 68.851562 341.960938 69.898438 340.730469 70.988281 C 340.363281 71.316406 339.996094 71.648438 339.632812 71.980469 C 339.570312 72.039062 339.449219 72.191406 339.339844 72.289062 C 339.195312 72.410156 339.050781 72.480469 338.941406 72.507812 C 338.777344 72.546875 338.605469 72.523438 338.464844 72.441406 C 336.5625 71.359375 334.617188 70.324219 332.671875 69.304688 C 332.015625 68.957031 331.355469 68.609375 330.691406 68.269531 C 330.484375 68.164062 330.277344 68.054688 330.070312 67.953125 L 329.910156 67.878906 C 329.84375 67.863281 329.777344 67.832031 329.714844 67.792969 C 329.523438 67.664062 329.429688 67.441406 329.464844 67.226562 C 329.5 67.039062 329.605469 66.894531 329.800781 66.804688 L 329.804688 66.800781 C 330.453125 66.472656 331.042969 66.019531 331.660156 65.644531 C 332.78125 64.957031 333.914062 64.285156 335.050781 63.625 C 335.523438 63.351562 336 63.085938 336.472656 62.808594 L 337.578125 62.164062 C 337.632812 62.101562 337.710938 62.046875 337.792969 62.011719 C 337.980469 61.933594 338.191406 61.949219 338.367188 62.046875 C 340.082031 63.011719 341.722656 63.984375 343.40625 65 C 343.847656 65.269531 344.292969 65.527344 344.742188 65.789062 L 344.804688 65.820312 C 344.828125 65.832031 344.851562 65.84375 344.875 65.855469 L 344.957031 65.898438 C 346.671875 64.929688 348.84375 64.007812 350.410156 62.917969 C 350.652344 62.75 351.058594 62.542969 351.433594 62.3125 C 351.546875 62.246094 351.660156 62.175781 351.757812 62.109375 Z M 344.351562 49.246094 C 344.417969 49.253906 344.488281 49.261719 344.554688 49.269531 C 346.28125 49.503906 347.960938 50.054688 349.472656 50.871094 C 351.28125 51.84375 352.914062 53.28125 353.851562 55.039062 C 354.105469 55.515625 354.253906 56.082031 354.433594 56.636719 C 354.648438 57.289062 354.90625 57.925781 355.328125 58.421875 C 355.632812 58.777344 356.019531 58.980469 356.445312 59.113281 C 356.761719 59.210938 357.105469 59.269531 357.433594 59.363281 C 358.0625 59.542969 358.65625 59.828125 359.175781 60.207031 C 360.242188 60.992188 360.929688 62.125 361.570312 63.222656 C 361.804688 63.621094 362.011719 64.027344 362.214844 64.433594 C 362.234375 64.476562 362.257812 64.519531 362.277344 64.5625 C 360.941406 65.175781 359.4375 65.550781 358.039062 65.980469 C 357.554688 66.128906 357.0625 66.273438 356.605469 66.492188 C 356.511719 66.539062 356.300781 66.640625 356.183594 66.753906 C 356.011719 66.917969 355.945312 67.113281 355.964844 67.308594 C 355.980469 67.476562 356.078125 67.679688 356.304688 67.847656 C 356.589844 68.054688 357.277344 68.265625 357.4375 68.328125 C 358.691406 68.796875 359.996094 69.160156 361.296875 69.492188 C 361.347656 69.503906 361.667969 69.570312 361.945312 69.625 C 361.863281 69.800781 361.777344 69.988281 361.753906 70.046875 C 361.277344 71.148438 360.613281 72.152344 359.8125 73.074219 C 359.085938 73.914062 358.179688 74.554688 357.28125 75.199219 C 356.304688 75.898438 355.335938 76.601562 354.558594 77.511719 C 353.636719 78.589844 353.105469 79.894531 352.390625 81.089844 C 351.554688 82.484375 350.449219 83.730469 348.9375 84.515625 C 347.863281 85.070312 346.6875 85.34375 345.484375 85.484375 C 347.390625 84.097656 349.097656 82.027344 349.523438 79.753906 C 349.671875 78.972656 349.609375 78.15625 349.601562 77.34375 C 349.589844 76.65625 349.609375 75.976562 349.917969 75.34375 C 350.453125 74.242188 351.871094 73.664062 352.980469 73.179688 C 353.378906 73.003906 353.78125 72.839844 354.199219 72.710938 C 354.222656 72.703125 354.714844 72.582031 354.8125 72.546875 C 355.246094 72.394531 355.234375 72.019531 355.226562 71.964844 C 355.21875 71.792969 355.128906 71.632812 354.980469 71.53125 C 352.890625 70.070312 350.464844 68.976562 348.09375 67.972656 C 347.324219 67.644531 346.546875 67.328125 345.773438 66.996094 L 345.566406 66.910156 C 347.3125 65.914062 349.542969 64.964844 351.148438 63.847656 C 351.429688 63.652344 351.941406 63.410156 352.351562 63.128906 C 352.738281 62.867188 353.039062 62.5625 353.164062 62.261719 C 353.265625 62.027344 353.242188 61.730469 352.949219 61.457031 C 352.804688 61.324219 352.546875 61.175781 352.269531 61.046875 C 351.980469 60.910156 351.667969 60.800781 351.589844 60.75 C 350.863281 60.3125 350.28125 59.671875 349.832031 58.988281 C 349.050781 57.8125 348.609375 56.496094 348.152344 55.179688 C 347.664062 53.773438 347.15625 52.375 346.28125 51.128906 C 345.769531 50.40625 345.089844 49.78125 344.351562 49.246094 Z M 338.085938 63.242188 C 339.664062 64.136719 341.175781 65.035156 342.734375 65.976562 C 343.101562 66.199219 343.472656 66.414062 343.839844 66.628906 C 342.597656 67.867188 341.191406 68.980469 339.878906 70.148438 C 339.503906 70.480469 339.128906 70.816406 338.761719 71.15625 C 338.746094 71.171875 338.726562 71.191406 338.703125 71.21875 C 336.914062 70.214844 335.097656 69.246094 333.277344 68.292969 C 332.625 67.953125 331.976562 67.609375 331.324219 67.269531 C 331.664062 67.050781 332 66.820312 332.335938 66.613281 C 333.449219 65.933594 334.574219 65.265625 335.703125 64.609375 C 336.175781 64.335938 336.65625 64.070312 337.128906 63.792969 C 337.179688 63.761719 337.710938 63.472656 338.085938 63.242188 Z M 330.453125 67.789062 L 330.371094 67.832031 C 330.347656 67.84375 330.324219 67.855469 330.300781 67.863281 C 330.355469 67.84375 330.410156 67.820312 330.453125 67.789062 Z M 344.902344 67.179688 C 344.890625 67.226562 344.867188 67.269531 344.839844 67.3125 C 344.867188 67.269531 344.886719 67.226562 344.902344 67.179688 Z M 363.601562 64.613281 C 363.609375 64.617188 363.609375 64.628906 363.613281 64.636719 Z M 363.59375 64.59375 L 363.59375 64.597656 Z M 363.59375 64.59375 " fill-opacity="1" fill-rule="evenodd"/><path fill="#000000" d="M 374.890625 67.847656 L 363.3125 69.542969 L 356.996094 67.394531 L 363.039062 65.054688 Z M 374.890625 67.847656 " fill-opacity="1" fill-rule="evenodd"/><path fill="#000000" d="M 69.519531 24.796875 C 69.71875 24.710938 69.089844 24.773438 68.871094 24.789062 C 68.390625 24.828125 67.914062 24.886719 67.441406 24.953125 C 66.039062 25.152344 64.675781 25.496094 63.328125 25.898438 C 59.398438 27.070312 55.578125 28.851562 52.125 30.953125 C 44.097656 35.84375 38.167969 43.410156 34.417969 51.597656 C 33.007812 54.683594 31.496094 58.011719 31.496094 61.433594 C 31.476562 61.445312 31.667969 61.671875 31.675781 61.679688 C 31.910156 61.960938 32.167969 62.21875 32.441406 62.464844 C 33.566406 63.480469 34.839844 64.296875 36.277344 64.871094 C 36.398438 64.917969 36.609375 64.84375 36.714844 64.8125 C 37.132812 64.699219 37.527344 64.542969 37.925781 64.382812 C 39.628906 63.695312 41.1875 62.707031 42.652344 61.652344 C 43.058594 61.355469 42.945312 60.648438 43.09375 60.175781 C 43.464844 58.976562 43.839844 57.78125 44.226562 56.585938 C 45.046875 54.066406 46.179688 51.617188 47.460938 49.273438 C 47.632812 49.25 47.578125 48.96875 47.652344 48.820312 C 47.882812 48.378906 48.128906 47.945312 48.371094 47.511719 C 49.4375 45.625 50.605469 43.792969 51.84375 42.003906 C 55.851562 36.207031 63.503906 28.894531 69.519531 24.796875 Z M 69.519531 24.796875 " fill-opacity="1" fill-rule="evenodd"/><path fill="#000000" d="M 69.519531 114.285156 C 69.71875 114.371094 69.089844 114.308594 68.871094 114.292969 C 68.390625 114.253906 67.914062 114.195312 67.441406 114.128906 C 66.039062 113.929688 64.675781 113.585938 63.328125 113.183594 C 59.398438 112.011719 55.578125 110.230469 52.125 108.128906 C 44.097656 103.238281 38.167969 95.671875 34.417969 87.484375 C 33.007812 84.398438 31.496094 81.070312 31.496094 77.648438 C 31.476562 77.636719 31.667969 77.410156 31.675781 77.402344 C 31.910156 77.121094 32.167969 76.863281 32.441406 76.617188 C 33.566406 75.601562 34.839844 74.785156 36.277344 74.210938 C 36.398438 74.164062 36.609375 74.238281 36.714844 74.269531 C 37.132812 74.382812 37.527344 74.539062 37.925781 74.699219 C 39.628906 75.386719 41.1875 76.375 42.652344 77.429688 C 43.058594 77.726562 42.945312 78.433594 43.09375 78.90625 C 43.464844 80.105469 43.839844 81.300781 44.226562 82.496094 C 45.046875 85.015625 46.179688 87.460938 47.460938 89.808594 C 47.632812 89.832031 47.578125 90.113281 47.652344 90.261719 C 47.882812 90.703125 48.128906 91.136719 48.371094 91.570312 C 49.4375 93.457031 50.605469 95.289062 51.84375 97.078125 C 55.851562 102.875 63.503906 110.1875 69.519531 114.285156 Z M 69.519531 114.285156 " fill-opacity="1" fill-rule="evenodd"/><path fill="#000000" d="M 23.238281 64.039062 C 23.300781 64.003906 23.363281 63.972656 23.417969 63.949219 C 23.714844 63.816406 23.996094 63.707031 24.078125 63.65625 C 24.953125 63.125 25.667969 62.355469 26.214844 61.53125 C 27.046875 60.273438 27.53125 58.871094 28.019531 57.46875 C 28.476562 56.164062 28.933594 54.855469 29.746094 53.699219 C 30.34375 52.847656 31.222656 52.167969 32.125 51.609375 C 32.292969 51.503906 32.585938 51.414062 32.839844 51.308594 C 33.121094 51.1875 33.359375 51.050781 33.5 50.90625 C 33.6875 50.714844 33.6875 50.53125 33.667969 50.421875 C 33.644531 50.246094 33.554688 50.085938 33.351562 49.980469 C 33.296875 49.953125 33.21875 49.921875 33.121094 49.90625 C 33.050781 49.898438 32.773438 49.921875 32.734375 49.925781 C 32.53125 49.921875 32.332031 49.933594 32.132812 49.9375 C 31.507812 49.953125 30.878906 49.96875 30.257812 50.054688 C 28.382812 50.304688 26.550781 50.90625 24.902344 51.792969 C 22.886719 52.878906 21.074219 54.492188 20.035156 56.453125 C 19.75 56.984375 19.574219 57.613281 19.375 58.226562 C 19.207031 58.738281 19.023438 59.238281 18.695312 59.625 C 18.511719 59.839844 18.257812 59.917969 17.992188 59.988281 C 17.730469 60.058594 17.460938 60.109375 17.195312 60.183594 C 16.421875 60.40625 15.6875 60.757812 15.054688 61.222656 C 13.855469 62.109375 13.054688 63.363281 12.335938 64.597656 C 12.089844 65.015625 11.871094 65.445312 11.65625 65.875 C 11.582031 66.019531 11.507812 66.164062 11.445312 66.316406 C 11.402344 66.421875 11.332031 66.71875 11.328125 66.761719 C 11.304688 67.179688 11.640625 67.304688 11.742188 67.339844 C 11.746094 67.339844 11.765625 67.347656 11.789062 67.351562 C 13.273438 68.09375 14.984375 68.527344 16.566406 69.011719 C 16.746094 69.066406 16.925781 69.121094 17.101562 69.175781 L 17.089844 69.179688 C 15.886719 69.636719 14.625 69.984375 13.371094 70.300781 C 13.265625 70.328125 12.515625 70.441406 12.195312 70.554688 C 11.859375 70.667969 11.722656 70.886719 11.683594 71 C 11.648438 71.109375 11.632812 71.277344 11.679688 71.472656 C 11.753906 71.773438 12.03125 72.273438 12.089844 72.410156 C 12.617188 73.621094 13.339844 74.726562 14.21875 75.738281 C 15.007812 76.644531 15.984375 77.347656 16.957031 78.046875 C 17.855469 78.691406 18.75 79.328125 19.464844 80.164062 C 20.347656 81.195312 20.839844 82.445312 21.523438 83.585938 C 22.46875 85.171875 23.742188 86.570312 25.457031 87.460938 C 26.820312 88.164062 28.316406 88.476562 29.851562 88.613281 C 30.40625 88.664062 30.960938 88.703125 31.515625 88.742188 C 31.59375 88.75 31.988281 88.738281 32.0625 88.738281 C 32.332031 88.773438 32.601562 88.640625 32.714844 88.402344 C 32.84375 88.132812 32.742188 87.820312 32.472656 87.667969 C 32.441406 87.652344 32.394531 87.625 32.324219 87.605469 C 31.574219 87.386719 30.894531 86.949219 30.277344 86.503906 C 28.597656 85.285156 27.0625 83.480469 26.691406 81.484375 C 26.558594 80.773438 26.621094 80.027344 26.632812 79.289062 C 26.644531 78.433594 26.585938 77.585938 26.203125 76.792969 C 25.550781 75.449219 23.890625 74.652344 22.539062 74.058594 C 22.277344 73.945312 22.019531 73.835938 21.753906 73.734375 C 23.527344 72.640625 25.488281 71.773438 27.40625 70.957031 C 28.183594 70.628906 28.960938 70.3125 29.734375 69.980469 C 30.003906 69.867188 30.273438 69.75 30.542969 69.640625 C 31.726562 70.78125 33.03125 71.828125 34.261719 72.917969 C 34.632812 73.246094 34.996094 73.578125 35.359375 73.910156 C 35.421875 73.96875 35.542969 74.121094 35.65625 74.21875 C 35.796875 74.339844 35.941406 74.410156 36.054688 74.4375 C 36.214844 74.476562 36.386719 74.453125 36.527344 74.371094 C 38.429688 73.289062 40.375 72.253906 42.320312 71.234375 C 42.980469 70.886719 43.640625 70.539062 44.304688 70.199219 C 44.507812 70.09375 44.714844 69.984375 44.921875 69.882812 L 45.082031 69.808594 C 45.152344 69.792969 45.214844 69.761719 45.277344 69.722656 C 45.46875 69.59375 45.566406 69.371094 45.527344 69.15625 C 45.492188 68.96875 45.390625 68.824219 45.195312 68.734375 L 45.1875 68.730469 C 44.542969 68.402344 43.949219 67.949219 43.332031 67.574219 C 42.210938 66.886719 41.078125 66.214844 39.941406 65.554688 C 39.46875 65.28125 38.992188 65.015625 38.519531 64.738281 L 37.414062 64.09375 C 37.359375 64.03125 37.28125 63.976562 37.199219 63.941406 C 37.011719 63.863281 36.800781 63.878906 36.628906 63.976562 C 34.910156 64.941406 33.273438 65.914062 31.585938 66.929688 C 31.144531 67.199219 30.699219 67.457031 30.25 67.71875 L 30.1875 67.75 C 30.164062 67.761719 30.140625 67.773438 30.117188 67.785156 L 30.035156 67.828125 C 28.320312 66.859375 26.152344 65.9375 24.582031 64.847656 C 24.339844 64.679688 23.933594 64.472656 23.558594 64.242188 C 23.449219 64.175781 23.335938 64.105469 23.238281 64.039062 Z M 30.640625 51.175781 C 30.574219 51.183594 30.507812 51.191406 30.4375 51.199219 C 28.714844 51.433594 27.03125 51.984375 25.519531 52.800781 C 23.714844 53.773438 22.078125 55.210938 21.144531 56.96875 C 20.886719 57.445312 20.738281 58.011719 20.558594 58.566406 C 20.34375 59.21875 20.085938 59.855469 19.664062 60.351562 C 19.359375 60.707031 18.972656 60.910156 18.546875 61.042969 C 18.230469 61.140625 17.886719 61.199219 17.558594 61.292969 C 16.929688 61.472656 16.335938 61.757812 15.816406 62.136719 C 14.75 62.921875 14.0625 64.054688 13.421875 65.152344 C 13.1875 65.550781 12.984375 65.957031 12.777344 66.363281 C 12.757812 66.40625 12.734375 66.449219 12.714844 66.492188 C 14.050781 67.105469 15.554688 67.480469 16.953125 67.910156 C 17.4375 68.058594 17.929688 68.203125 18.386719 68.421875 C 18.480469 68.46875 18.691406 68.570312 18.8125 68.683594 C 18.980469 68.847656 19.046875 69.042969 19.027344 69.238281 C 19.011719 69.40625 18.917969 69.609375 18.6875 69.777344 C 18.402344 69.984375 17.714844 70.195312 17.554688 70.257812 C 16.304688 70.726562 14.996094 71.089844 13.699219 71.421875 C 13.644531 71.433594 13.324219 71.5 13.046875 71.554688 C 13.128906 71.730469 13.214844 71.917969 13.238281 71.976562 C 13.714844 73.078125 14.378906 74.082031 15.179688 75.003906 C 15.90625 75.84375 16.8125 76.484375 17.710938 77.128906 C 18.6875 77.828125 19.65625 78.53125 20.433594 79.441406 C 21.355469 80.519531 21.886719 81.824219 22.601562 83.019531 C 23.4375 84.414062 24.542969 85.660156 26.054688 86.445312 C 27.132812 87 28.304688 87.273438 29.507812 87.414062 C 27.601562 86.027344 25.894531 83.957031 25.46875 81.683594 C 25.320312 80.902344 25.382812 80.085938 25.394531 79.273438 C 25.402344 78.585938 25.382812 77.90625 25.074219 77.273438 C 24.539062 76.171875 23.121094 75.59375 22.011719 75.109375 C 21.613281 74.933594 21.214844 74.769531 20.792969 74.640625 C 20.769531 74.632812 20.277344 74.511719 20.179688 74.476562 C 19.75 74.324219 19.757812 73.949219 19.765625 73.894531 C 19.773438 73.722656 19.863281 73.5625 20.011719 73.460938 C 22.101562 72 24.527344 70.90625 26.898438 69.902344 C 27.671875 69.574219 28.449219 69.257812 29.21875 68.925781 L 29.429688 68.839844 C 27.679688 67.84375 25.449219 66.894531 23.847656 65.777344 C 23.566406 65.582031 23.050781 65.339844 22.640625 65.058594 C 22.257812 64.796875 21.957031 64.492188 21.828125 64.191406 C 21.726562 63.957031 21.753906 63.660156 22.046875 63.386719 C 22.1875 63.253906 22.445312 63.105469 22.722656 62.976562 C 23.011719 62.839844 23.324219 62.730469 23.40625 62.679688 C 24.128906 62.242188 24.710938 61.601562 25.164062 60.917969 C 25.941406 59.742188 26.382812 58.425781 26.839844 57.109375 C 27.328125 55.703125 27.835938 54.304688 28.714844 53.058594 C 29.222656 52.335938 29.902344 51.710938 30.640625 51.175781 Z M 36.90625 65.171875 C 35.328125 66.066406 33.816406 66.964844 32.257812 67.90625 C 31.894531 68.128906 31.523438 68.34375 31.152344 68.558594 C 32.394531 69.796875 33.800781 70.910156 35.117188 72.078125 C 35.488281 72.410156 35.863281 72.746094 36.230469 73.085938 C 36.246094 73.101562 36.265625 73.121094 36.292969 73.148438 C 38.078125 72.144531 39.894531 71.175781 41.714844 70.222656 C 42.367188 69.882812 43.015625 69.539062 43.667969 69.199219 C 43.332031 68.980469 42.996094 68.75 42.65625 68.542969 C 41.542969 67.863281 40.417969 67.195312 39.289062 66.539062 C 38.816406 66.265625 38.335938 66 37.863281 65.722656 C 37.8125 65.691406 37.28125 65.402344 36.90625 65.171875 Z M 44.542969 69.71875 L 44.621094 69.761719 C 44.648438 69.773438 44.667969 69.785156 44.691406 69.792969 C 44.636719 69.773438 44.585938 69.75 44.542969 69.71875 Z M 30.089844 69.109375 C 30.101562 69.15625 30.128906 69.199219 30.152344 69.242188 C 30.128906 69.199219 30.105469 69.15625 30.089844 69.109375 Z M 11.390625 66.542969 C 11.382812 66.546875 11.382812 66.558594 11.378906 66.566406 Z M 11.398438 66.523438 L 11.398438 66.527344 Z M 11.398438 66.523438 " fill-opacity="1" fill-rule="evenodd"/><path fill="#000000" d="M 0.105469 69.777344 L 11.679688 71.472656 L 18 69.324219 L 11.953125 66.984375 Z M 0.105469 69.777344 " fill-opacity="1" fill-rule="evenodd"/><path fill="#000000" d="M 267.097656 88.875 C 266.984375 88.9375 266.648438 89.082031 266.507812 89.148438 C 266.070312 89.355469 265.621094 89.539062 265.167969 89.71875 C 263.835938 90.253906 262.507812 90.757812 261.078125 91.023438 C 256.816406 91.820312 249.910156 91.476562 249.710938 86.125 C 249.578125 82.507812 252.292969 78.496094 255.121094 76.203125 C 256.296875 75.257812 257.671875 74.386719 259.273438 74.355469 C 260.578125 74.328125 261.859375 74.859375 262.960938 75.476562 C 265.335938 76.804688 267.507812 79.824219 268.742188 82.210938 C 268.730469 82.195312 268.953125 82.148438 268.988281 82.136719 C 269.125 82.097656 269.265625 82.058594 269.40625 82.015625 C 269.808594 81.898438 270.199219 81.757812 270.589844 81.613281 C 271.808594 81.167969 272.996094 80.65625 274.128906 80.039062 C 275.804688 79.117188 277.367188 78.003906 278.742188 76.710938 C 279.128906 76.34375 279.503906 75.960938 279.882812 75.585938 C 279.945312 75.519531 280.140625 75.261719 280.261719 75.289062 C 280.429688 75.328125 280.394531 75.75 280.40625 75.855469 C 280.4375 76.476562 280.441406 77.101562 280.5 77.722656 C 280.632812 79.191406 281.078125 80.511719 281.78125 81.824219 C 281.679688 81.902344 282.113281 82.4375 282.15625 82.492188 C 282.675781 83.175781 283.417969 83.722656 284.136719 84.21875 C 286.207031 85.652344 289.109375 86.191406 291.328125 84.699219 C 294.167969 82.789062 295.253906 79.257812 296.390625 76.332031 C 296.707031 75.511719 297.03125 74.644531 297.554688 73.914062 C 297.738281 73.65625 298.007812 73.292969 298.375 73.28125 C 298.660156 73.273438 298.851562 73.535156 298.972656 73.742188 C 299.320312 74.316406 299.503906 74.988281 299.660156 75.625 C 300.21875 77.847656 300 80.921875 302.34375 82.285156 C 304.007812 83.253906 305.90625 83.332031 307.511719 82.242188 C 307.722656 82.097656 308.476562 81.660156 308.550781 81.382812 C 308.65625 80.96875 308.480469 80.433594 308.367188 80.042969 C 308.125 79.234375 307.253906 77.417969 306.855469 76.667969 C 307.882812 75.96875 308.828125 74.898438 309.332031 74.324219 C 309.988281 73.570312 310.671875 72.828125 311.328125 72.074219 C 311.421875 71.964844 311.765625 71.410156 311.9375 71.402344 C 312.339844 71.382812 312.496094 73.191406 312.535156 73.402344 C 312.886719 75.597656 312.832031 77.757812 312.527344 79.953125 C 312.117188 82.921875 311.222656 86.246094 308.539062 88.132812 C 304.0625 91.285156 298.238281 87.621094 297.152344 83.109375 C 297.136719 83.058594 296.964844 83.523438 296.953125 83.542969 C 296.828125 83.839844 296.707031 84.140625 296.5625 84.433594 C 296.125 85.328125 295.574219 86.167969 295.011719 86.996094 C 293.355469 89.460938 291.210938 91.507812 288.113281 92.277344 C 286.371094 92.714844 284.292969 92.824219 282.558594 92.261719 C 278.613281 90.992188 277.476562 86.230469 278.335938 82.816406 C 276.757812 84.046875 274.851562 85.019531 273.101562 86.03125 C 271.738281 86.824219 270.285156 87.796875 268.730469 88.234375 C 268.652344 88.113281 268.804688 88.507812 268.835938 88.644531 C 268.886719 88.882812 268.929688 89.125 268.976562 89.367188 C 269.121094 90.152344 269.226562 90.941406 269.339844 91.730469 C 269.6875 94.191406 268.660156 95.457031 267.164062 97.457031 C 262.820312 103.273438 256.984375 108.472656 250.710938 112.445312 C 250.816406 112.140625 250.175781 112.84375 249.894531 113.027344 C 249.367188 113.367188 248.824219 113.683594 248.273438 113.984375 C 246.527344 114.917969 244.671875 115.734375 242.78125 116.375 C 237.324219 118.222656 231.363281 116.671875 227.25 112.941406 C 222.496094 108.632812 221.988281 100.667969 223.085938 94.96875 C 223.539062 92.605469 224.421875 90.382812 225.652344 88.28125 C 225.71875 88.167969 226.824219 86.371094 226.972656 86.574219 C 227.476562 87.285156 226.203125 90.253906 226.03125 90.984375 C 225.222656 94.570312 224.441406 98.503906 225.523438 102.109375 C 226.074219 103.957031 227.234375 105.542969 228.746094 106.816406 C 238.121094 114.726562 250.523438 106.351562 258.757812 100.898438 C 261.039062 99.390625 263.222656 97.777344 265.222656 95.945312 C 265.957031 95.269531 267.105469 94.425781 267.476562 93.476562 C 268.035156 92.03125 267.597656 90.277344 267.097656 88.875 C 267.144531 88.847656 267.15625 88.832031 267.089844 88.847656 Z M 262.113281 82.898438 C 261.199219 83.363281 259.878906 83.816406 258.898438 84.167969 C 258.296875 84.378906 257.691406 84.53125 257.058594 84.613281 C 256.636719 84.667969 256.179688 84.691406 255.757812 84.589844 C 254.035156 84.183594 254.167969 82.363281 255.019531 81.261719 C 256.195312 79.742188 258.410156 79.574219 260.011719 80.5625 C 260.636719 80.945312 261.792969 82.273438 262.113281 82.898438 Z M 262.113281 82.898438 " fill-opacity="1" fill-rule="evenodd"/><path fill="#000000" d="M 229.707031 76.917969 C 229.828125 77.269531 229.53125 78.003906 229.46875 78.351562 C 229.234375 79.617188 228.984375 80.875 228.714844 82.132812 C 228.605469 82.671875 228.25 83.417969 228.484375 83.964844 C 228.777344 84.667969 229.835938 84.296875 230.191406 84.847656 C 230.644531 85.550781 230.8125 86.5625 231.121094 87.332031 C 231.722656 88.835938 232.457031 90.246094 233.320312 91.632812 C 234.746094 93.910156 237.371094 96.171875 237.980469 98.824219 C 237.746094 98.828125 237.835938 99.25 237.722656 99.445312 C 237.390625 100.070312 237.007812 100.660156 236.601562 101.246094 C 235.109375 103.410156 233.136719 105.152344 230.9375 106.691406 C 228.207031 108.605469 225.304688 110.277344 222.359375 111.890625 C 215.574219 115.609375 207.734375 119.492188 199.679688 117.355469 C 193.304688 115.664062 191.800781 108.792969 192.613281 103.328125 C 192.902344 101.351562 193.386719 99.394531 194.011719 97.484375 C 194.261719 96.695312 194.558594 95.914062 194.789062 95.117188 C 194.816406 95.019531 195.023438 94.449219 194.746094 94.488281 C 194.105469 94.578125 193.492188 95.90625 193.234375 96.339844 C 191.851562 98.664062 191.105469 101.246094 190.710938 103.871094 C 189.527344 111.777344 191.28125 123.738281 201.589844 125.128906 C 213.664062 126.761719 224.632812 118.613281 232.933594 111.5 C 236.273438 108.636719 240.710938 104.839844 241.515625 100.421875 C 242.316406 96.03125 240.523438 91.722656 237.957031 88.117188 C 237.082031 86.886719 235.210938 85.523438 234.695312 84.136719 C 234.445312 83.476562 236.347656 82.90625 236.792969 82.691406 C 236.992188 82.59375 237.546875 82.40625 237.371094 82.117188 C 236.976562 81.460938 236.039062 81.050781 235.417969 80.625 C 233.898438 79.59375 231.144531 78.042969 229.707031 76.917969 Z M 229.707031 76.917969 " fill-opacity="1" fill-rule="evenodd"/><path fill="#000000" d="M 209.261719 57.824219 C 209.648438 58.117188 212.371094 58.019531 212.050781 57.199219 C 211.839844 56.660156 211.03125 56.164062 210.585938 55.804688 C 209.109375 54.632812 207.503906 53.539062 205.890625 52.539062 C 205.628906 52.375 204.082031 51.199219 203.761719 51.570312 C 203.121094 52.320312 203.402344 54.425781 203.347656 55.328125 C 203.316406 55.929688 202.898438 57.3125 203.289062 57.84375 C 203.726562 58.4375 204.640625 58.21875 204.957031 58.980469 C 205.355469 59.925781 205.539062 60.886719 206.042969 61.808594 C 207.265625 64.042969 209.164062 65.945312 211.121094 67.636719 C 211 67.597656 210.28125 68.699219 210.214844 68.789062 C 209.261719 70.082031 208.339844 71.394531 207.464844 72.738281 C 204.878906 76.714844 204.453125 81.105469 205.175781 85.671875 C 205.691406 88.964844 207.550781 91.347656 211.40625 90.804688 C 214 90.4375 215.921875 88.839844 217.691406 87.148438 C 222.027344 83 224.710938 76.996094 222.25 71.234375 C 221.574219 69.660156 219.777344 68.570312 218.347656 67.648438 C 217.863281 67.335938 216.710938 66.875 216.902344 66.195312 C 217.246094 64.984375 218.613281 63.777344 219.40625 62.808594 C 221.234375 60.554688 223.078125 58.308594 224.722656 55.933594 C 225.269531 55.144531 227.261719 52.996094 226.4375 51.945312 C 225.296875 50.480469 223.257812 53.136719 222.628906 53.800781 C 222.328125 54.117188 222.039062 54.4375 221.75 54.757812 C 221.433594 55.113281 221.117188 55.46875 220.800781 55.828125 C 220.46875 56.203125 220.144531 56.582031 219.816406 56.960938 C 219.074219 57.8125 218.339844 58.675781 217.613281 59.539062 C 216.886719 60.40625 216.171875 61.285156 215.464844 62.171875 C 215.242188 62.449219 214.917969 63.089844 214.535156 63.21875 C 214.136719 63.359375 213.367188 62.554688 213.121094 62.34375 C 211.898438 61.296875 210.363281 58.980469 209.261719 57.824219 Z M 213.378906 70.46875 C 211.628906 72.464844 209.863281 74.484375 208.4375 76.699219 C 207.496094 78.160156 206.71875 79.929688 207.175781 81.660156 C 207.5625 83.082031 209.84375 83.160156 211.085938 83.203125 C 214.851562 83.324219 218.667969 80.390625 220.667969 77.621094 C 220.558594 77.492188 220.527344 77.035156 220.457031 76.867188 C 220.199219 76.265625 219.890625 75.707031 219.515625 75.164062 C 218.242188 73.332031 215.3125 71.632812 213.378906 70.46875 Z M 213.378906 70.46875 " fill-opacity="1" fill-rule="evenodd"/><path fill="#000000" d="M 201.203125 35.816406 L 206.21875 30.371094 L 213.730469 36.15625 L 208.929688 41.445312 Z M 201.203125 35.816406 " fill-opacity="1" fill-rule="evenodd"/><path fill="#000000" d="M 213.195312 35.816406 L 218.210938 30.371094 L 225.722656 36.15625 L 220.925781 41.445312 Z M 213.195312 35.816406 " fill-opacity="1" fill-rule="evenodd"/><path fill="#000000" d="M 153.960938 99.515625 L 157.476562 95.460938 L 162.738281 99.769531 L 159.378906 103.703125 Z M 153.960938 99.515625 " fill-opacity="1" fill-rule="evenodd"/><path fill="#000000" d="M 141.207031 62.734375 L 144.722656 58.683594 L 149.984375 62.988281 L 146.621094 66.921875 Z M 141.207031 62.734375 " fill-opacity="1" fill-rule="evenodd"/><path fill="#000000" d="M 85.285156 110.054688 L 88.800781 106.003906 L 94.0625 110.308594 L 90.699219 114.242188 Z M 85.285156 110.054688 " fill-opacity="1" fill-rule="evenodd"/><path fill="#000000" d="M 94.058594 110.054688 L 97.574219 106.003906 L 102.835938 110.308594 L 99.472656 114.242188 Z M 94.058594 110.054688 " fill-opacity="1" fill-rule="evenodd"/><path fill="#000000" d="M 48.261719 59.160156 L 51.773438 55.109375 L 57.039062 59.414062 L 53.675781 63.347656 Z M 48.261719 59.160156 " fill-opacity="1" fill-rule="evenodd"/><path fill="#000000" d="M 58.640625 59.160156 L 62.15625 55.109375 L 67.417969 59.414062 L 64.058594 63.347656 Z M 58.640625 59.160156 " fill-opacity="1" fill-rule="evenodd"/><path fill="#000000" d="M 149.574219 62.734375 L 153.089844 58.683594 L 158.351562 62.988281 L 154.992188 66.921875 Z M 149.574219 62.734375 " fill-opacity="1" fill-rule="evenodd"/><path fill="#000000" d="M 143.582031 54.496094 L 147.097656 50.445312 L 152.359375 54.75 L 148.996094 58.683594 Z M 143.582031 54.496094 " fill-opacity="1" fill-rule="evenodd"/><path fill="#000000" d="M 305.992188 53.664062 C 305.992188 53.664062 291.597656 67.386719 283.578125 71.113281 C 283.578125 71.113281 283.917969 72.226562 294.328125 65.476562 C 294.328125 65.476562 302.410156 60.453125 307.039062 54.386719 C 307.039062 54.386719 308.546875 55.578125 308.9375 55.894531 C 308.9375 55.894531 310.773438 53.980469 309.9375 53.082031 L 308.613281 51.925781 C 308.613281 51.925781 311.273438 46.351562 308.917969 45.023438 C 308.917969 45.023438 306.105469 43.121094 303.125 48.285156 C 303.125 48.285156 301.910156 50.421875 303.695312 51.84375 Z M 304.75 48.558594 C 304.75 48.558594 304.984375 46.667969 306.660156 47.039062 C 306.660156 47.039062 308.5625 47.609375 307.742188 51.148438 C 307.742188 51.148438 305.71875 50.097656 304.75 48.558594 Z M 304.75 48.558594 " fill-opacity="1" fill-rule="evenodd"/><path fill="#000000" d="M 270.679688 51.15625 C 270.679688 51.15625 275.613281 41.816406 277.648438 40.804688 C 277.648438 40.804688 296.492188 40.582031 298.011719 43.386719 C 298.011719 43.386719 299.566406 48.007812 284.953125 59.859375 L 269.464844 62.140625 C 269.464844 62.140625 266.4375 63.097656 277.769531 57.453125 L 288.863281 51.859375 C 288.863281 51.859375 282.054688 49.148438 270.679688 51.15625 Z M 270.679688 51.15625 " fill-opacity="1" fill-rule="evenodd"/><path fill="#000000" d="M 232.585938 58.761719 L 231.242188 62.195312 L 259.8125 50.640625 L 261.636719 46.804688 Z M 232.585938 58.761719 " fill-opacity="1" fill-rule="evenodd"/><path fill="#000000" d="M 129.726562 47.007812 L 128.382812 50.445312 L 156.953125 38.890625 L 158.777344 35.050781 Z M 129.726562 47.007812 " fill-opacity="1" fill-rule="evenodd"/><path fill="#000000" d="M 82.773438 71.183594 L 81.6875 74.617188 L 104.800781 63.0625 L 106.273438 59.226562 Z M 82.773438 71.183594 " fill-opacity="1" fill-rule="evenodd"/><path fill="#000000" d="M 242.015625 68.46875 L 241.292969 69.566406 L 238.5625 67.125 C 238.5625 67.125 237.734375 62.386719 240.65625 63.507812 C 240.65625 63.507812 245.011719 65.386719 246.429688 72.5625 C 246.429688 72.5625 248.566406 61.464844 251.664062 62.238281 C 251.664062 62.238281 253.960938 62.652344 254.425781 64.886719 L 252.886719 67.582031 C 252.886719 67.582031 250.617188 62.507812 248.90625 68.082031 C 248.90625 68.082031 247.003906 77.019531 245.871094 77.539062 C 245.871094 77.539062 245.785156 78.742188 244.335938 72.542969 C 244.335938 72.542969 242.546875 68.453125 242.015625 68.46875 Z M 242.015625 68.46875 " fill-opacity="1" fill-rule="evenodd"/><path fill="#000000" d="M 242.015625 39.351562 L 241.292969 40.449219 L 238.5625 38.007812 C 238.5625 38.007812 237.734375 33.269531 240.65625 34.390625 C 240.65625 34.390625 245.011719 36.269531 246.429688 43.445312 C 246.429688 43.445312 248.566406 32.347656 251.664062 33.121094 C 251.664062 33.121094 253.960938 33.535156 254.425781 35.769531 L 252.886719 38.464844 C 252.886719 38.464844 250.617188 33.390625 248.90625 38.964844 C 248.90625 38.964844 247.003906 47.902344 245.871094 48.421875 C 245.871094 48.421875 245.785156 49.625 244.335938 43.421875 C 244.335938 43.421875 242.546875 39.335938 242.015625 39.351562 Z M 242.015625 39.351562 " fill-opacity="1" fill-rule="evenodd"/><path fill="#000000" d="M 85.246094 49 L 84.523438 50.097656 L 81.792969 47.65625 C 81.792969 47.65625 80.964844 42.917969 83.886719 44.039062 C 83.886719 44.039062 88.242188 45.917969 89.660156 53.09375 C 89.660156 53.09375 91.792969 41.996094 94.894531 42.769531 C 94.894531 42.769531 97.191406 43.183594 97.65625 45.417969 L 96.117188 48.113281 C 96.117188 48.113281 93.847656 43.039062 92.136719 48.613281 C 92.136719 48.613281 90.234375 57.550781 89.097656 58.070312 C 89.097656 58.070312 89.011719 59.273438 87.566406 53.070312 C 87.566406 53.070312 85.777344 48.980469 85.246094 49 Z M 85.246094 49 " fill-opacity="1" fill-rule="evenodd"/><path fill="#000000" d="M 62.992188 95.089844 L 62.269531 96.1875 L 59.539062 93.746094 C 59.539062 93.746094 58.710938 89.007812 61.632812 90.128906 C 61.632812 90.128906 65.988281 92.007812 67.402344 99.183594 C 67.402344 99.183594 69.539062 88.085938 72.640625 88.859375 C 72.640625 88.859375 74.933594 89.273438 75.398438 91.507812 L 73.863281 94.203125 C 73.863281 94.203125 71.589844 89.128906 69.878906 94.703125 C 69.878906 94.703125 67.980469 103.640625 66.84375 104.160156 C 66.84375 104.160156 66.757812 105.363281 65.3125 99.164062 C 65.3125 99.164062 63.523438 95.074219 62.992188 95.089844 Z M 62.992188 95.089844 " fill-opacity="1" fill-rule="evenodd"/><path fill="#000000" d="M 156.285156 122.207031 C 156.253906 122.109375 156.269531 122.074219 156.367188 122.148438 L 156.285156 122.207031 C 156.363281 122.445312 156.734375 123.0625 156.90625 123.3125 C 157.425781 124.078125 158.070312 124.773438 158.691406 125.460938 C 160.515625 127.484375 162.507812 129.015625 165.09375 129.921875 C 171.523438 132.175781 181.679688 129.578125 182.808594 121.882812 C 182.730469 122.15625 182.859375 121.308594 182.902344 121.027344 C 182.984375 120.488281 183.011719 119.933594 183.050781 119.386719 C 183.152344 117.855469 183.179688 116.324219 183.246094 114.792969 C 183.453125 110.03125 182.765625 104.863281 182.089844 100.152344 C 179.75 83.757812 177.332031 66.683594 174.550781 53.246094 C 174.570312 53.289062 175.40625 54.328125 175.75 54.644531 C 176.101562 54.96875 178.46875 57.449219 178.96875 56.894531 C 179.464844 56.34375 178.34375 53.992188 178.164062 53.441406 C 177.167969 50.433594 175.898438 47.558594 174.632812 44.660156 C 174.304688 43.914062 173.839844 42.210938 172.984375 41.898438 C 171.648438 41.40625 167.785156 44.429688 167.910156 45.804688 C 168.027344 47.050781 170.058594 48.414062 170.816406 49.363281 C 170.394531 49.777344 171.265625 52.75 171.34375 53.296875 C 171.972656 57.917969 172.78125 62.507812 173.464844 67.121094 C 176.089844 84.792969 179.890625 102.109375 178.933594 120.097656 C 179.070312 119.964844 178.703125 120.402344 178.578125 120.542969 C 178.285156 120.878906 177.9375 121.160156 177.59375 121.441406 C 176.570312 122.285156 175.445312 122.953125 174.191406 123.394531 C 171.425781 124.371094 165.277344 123.484375 163.390625 120.804688 C 162.703125 119.824219 166.875 118.128906 167.382812 117.894531 C 168.964844 117.164062 170.546875 116.453125 172.21875 115.945312 C 172.609375 115.828125 173.8125 115.734375 174.058594 115.316406 C 174.617188 114.371094 174.0625 112.332031 173.976562 111.308594 C 173.925781 110.6875 174.074219 109.171875 173.613281 108.640625 C 172.398438 107.230469 168.476562 107.097656 166.863281 106.78125 C 159.765625 105.390625 152.511719 105.425781 145.550781 107.523438 C 143.308594 108.199219 141.089844 109.113281 139.144531 110.429688 C 138.882812 110.605469 137.652344 111.347656 137.691406 111.8125 C 137.929688 114.683594 141.808594 113.453125 143.554688 113.859375 C 146.375 114.515625 149.257812 116.902344 150.871094 119.3125 C 150.914062 119.28125 150.589844 119.527344 150.535156 119.566406 C 150.253906 119.777344 149.957031 119.964844 149.65625 120.148438 C 148.710938 120.714844 147.734375 121.238281 146.761719 121.757812 C 143.832031 123.324219 140.464844 124.195312 137.144531 124.285156 C 128.425781 124.523438 122.953125 117.183594 121.097656 109.386719 C 119.015625 100.632812 118.777344 91.515625 118.195312 82.570312 C 117.566406 72.933594 116.605469 63.222656 114.640625 53.757812 C 113.722656 49.339844 112.15625 44.980469 109.046875 41.621094 C 108.851562 41.410156 106.519531 38.816406 106.109375 39.078125 C 105.8125 39.265625 105.699219 40.507812 105.617188 40.820312 C 105.300781 42.0625 103.921875 45.074219 104.394531 46.296875 C 104.652344 46.96875 106.097656 47.410156 106.652344 47.828125 C 107.863281 48.738281 108.738281 49.980469 109.457031 51.304688 C 112.441406 56.804688 113.203125 63.683594 113.835938 69.796875 C 114.53125 76.519531 115.042969 83.25 115.183594 90.007812 C 115.359375 98.582031 115.207031 107.328125 117.769531 115.613281 C 118.699219 118.628906 119.992188 121.75 121.890625 124.289062 C 127.484375 131.789062 136.914062 131.417969 144.78125 128.273438 C 148.753906 126.683594 152.746094 124.628906 156.285156 122.207031 Z M 153.753906 112.515625 C 153.972656 112.300781 154.457031 112.238281 154.742188 112.175781 C 155.683594 111.96875 156.652344 111.898438 157.613281 111.847656 C 159.257812 111.765625 161.066406 111.695312 162.652344 112.230469 C 162.9375 112.328125 164.492188 112.886719 164.492188 112.886719 C 164.492188 112.886719 163.269531 114.125 162.980469 114.429688 C 161.902344 115.574219 160.734375 116.625 159.554688 117.660156 C 159.382812 117.8125 158.089844 118.675781 158.089844 118.675781 C 158.089844 118.675781 157.066406 117.472656 156.933594 117.257812 C 156.054688 115.863281 154.824219 113.773438 153.753906 112.515625 Z M 153.753906 112.515625 " fill-opacity="1" fill-rule="evenodd"/><path fill="#000000" d="M 167.058594 82.417969 C 167.003906 82.394531 167.324219 81.894531 167.347656 81.851562 C 167.644531 81.328125 167.921875 80.789062 168.207031 80.257812 C 168.636719 79.464844 169.046875 78.65625 169.519531 77.890625 C 169.640625 77.699219 169.890625 77.125 170.160156 77.09375 C 170.363281 77.066406 170.542969 77.613281 170.605469 77.746094 C 171.015625 78.601562 171.359375 79.449219 171.617188 80.359375 C 172.625 83.871094 172.4375 88.285156 170.363281 91.402344 C 169.796875 92.253906 169.097656 93.046875 168.246094 93.621094 C 163.929688 96.550781 159.3125 92.160156 158.753906 87.808594 C 158.734375 87.667969 158.585938 88.046875 158.507812 88.167969 C 158.335938 88.425781 158.148438 88.671875 157.957031 88.914062 C 157.386719 89.636719 156.789062 90.335938 156.160156 91.007812 C 154.34375 92.957031 152.476562 94.800781 150.011719 95.910156 C 145.234375 98.054688 138.71875 95.050781 139.589844 89.226562 C 139.519531 89.179688 139.191406 89.515625 139.136719 89.554688 C 138.601562 89.964844 138.039062 90.339844 137.484375 90.722656 C 135.113281 92.359375 132.671875 94.03125 130.078125 95.292969 C 121.871094 99.277344 111.601562 97.75 106.769531 89.523438 C 106.574219 89.472656 105.730469 90.550781 105.589844 90.6875 C 104.46875 91.769531 103.289062 92.824219 102.085938 93.816406 C 98.5625 96.726562 94.523438 99.375 89.738281 98.675781 C 84.019531 97.839844 79.410156 92.453125 77.503906 87.285156 C 76.757812 85.261719 76.128906 83.179688 75.648438 81.078125 C 75.578125 80.78125 75.464844 79.300781 75.136719 79.160156 C 74.738281 78.988281 72.292969 81.757812 71.976562 82.046875 C 69.589844 84.230469 66.484375 86.464844 63.101562 86.421875 C 57.730469 86.359375 56.695312 82 58.457031 77.761719 C 60.929688 71.816406 65.878906 67.425781 71.222656 64.054688 C 70.957031 63.910156 71.152344 62.195312 71.148438 61.898438 C 71.140625 59.984375 71.289062 58.074219 71.609375 56.183594 C 71.683594 55.738281 71.726562 54.691406 72.210938 54.441406 C 72.605469 54.238281 73.042969 55.292969 73.148438 55.523438 C 73.503906 56.285156 74.648438 59.707031 74.648438 59.707031 C 74.648438 59.707031 77.765625 57.640625 78.445312 57.164062 C 78.675781 57.003906 79.554688 56.261719 79.847656 56.636719 C 80.210938 57.101562 79.414062 58.164062 79.191406 58.523438 C 78.34375 59.871094 75.648438 63.523438 75.648438 63.523438 C 75.648438 63.523438 76.054688 67.804688 76.316406 69.847656 C 77.03125 75.398438 78.121094 81.804688 81.804688 86.246094 C 89.539062 95.558594 102.890625 90.625 107.230469 80.601562 C 107.433594 80.125 107.390625 81.628906 107.542969 82.125 C 107.855469 83.144531 108.234375 84.121094 108.75 85.054688 C 110.289062 87.828125 112.445312 89.8125 115.613281 90.480469 C 124.742188 92.398438 134.835938 87.636719 141.164062 81.25 C 141.3125 81.316406 141.246094 82.0625 141.253906 82.175781 C 141.296875 83.105469 141.46875 84.007812 141.699219 84.910156 C 142.464844 87.9375 144.078125 90.222656 147.628906 90.589844 C 151.765625 91.019531 154.675781 88.382812 156.09375 84.882812 C 156.496094 83.894531 157.128906 80.695312 158.339844 80.296875 C 159.253906 79.996094 160.304688 81.46875 160.65625 82.097656 C 161.839844 84.203125 163.035156 87.253906 165.5 88.195312 C 166.742188 88.671875 168.707031 88.472656 169.027344 87.296875 C 169.425781 85.851562 167.953125 83.242188 167.058594 82.417969 Z M 71.972656 67.257812 C 72.011719 67.402344 68.867188 69.453125 68.21875 69.894531 C 65.769531 71.546875 63.453125 73.785156 61.65625 76.152344 C 61.195312 76.761719 60.191406 77.875 60.488281 78.742188 C 60.875 79.859375 63.09375 79.570312 63.921875 79.453125 C 66.3125 79.105469 68.660156 78.203125 70.757812 77.011719 C 71.476562 76.601562 72.421875 76.164062 72.980469 75.53125 C 73.519531 74.917969 73.367188 73.980469 73.222656 73.25 C 72.917969 71.683594 72.335938 68.816406 71.972656 67.257812 Z M 71.972656 67.257812 " fill-opacity="1" fill-rule="evenodd"/><path fill="#000000" d="M 211.980469 91.914062 C 211.878906 91.878906 211.285156 92.925781 211.238281 93 C 210.398438 94.40625 209.554688 95.808594 208.765625 97.238281 C 206.761719 100.871094 204.628906 104.542969 203.992188 108.585938 C 203.71875 110.316406 203.621094 112.265625 204.480469 113.890625 C 205.429688 115.6875 207.902344 116.554688 209.722656 115.160156 C 211.378906 113.890625 212.367188 111.84375 212.824219 109.992188 C 212.976562 109.371094 213.222656 108.621094 213.097656 107.984375 C 213.066406 107.824219 212.96875 107.402344 212.6875 107.578125 C 211.453125 108.351562 211.117188 111.84375 208.828125 110.496094 C 208.574219 110.347656 208.34375 110.167969 208.144531 109.964844 C 207.835938 109.65625 207.609375 109.296875 207.433594 108.917969 C 206.726562 107.425781 206.894531 105.753906 207.382812 104.230469 C 208.210938 101.636719 209.746094 99.1875 211.019531 96.742188 C 211.738281 95.367188 213.488281 92.476562 211.980469 91.914062 Z M 211.980469 91.914062 " fill-opacity="1" fill-rule="evenodd"/><path fill="#000000" d="M 131.898438 54.566406 C 131.796875 54.53125 131.203125 55.578125 131.15625 55.652344 C 130.316406 57.058594 129.472656 58.460938 128.6875 59.890625 C 126.679688 63.523438 124.546875 67.195312 123.910156 71.238281 C 123.636719 72.96875 123.539062 74.917969 124.398438 76.542969 C 125.351562 78.339844 127.820312 79.207031 129.640625 77.8125 C 131.296875 76.542969 132.285156 74.496094 132.746094 72.644531 C 132.898438 72.023438 133.140625 71.273438 133.015625 70.636719 C 132.984375 70.476562 132.886719 70.054688 132.605469 70.230469 C 131.371094 71.003906 131.035156 74.496094 128.746094 73.148438 C 128.492188 73 128.261719 72.816406 128.0625 72.617188 C 127.753906 72.304688 127.527344 71.949219 127.351562 71.570312 C 126.644531 70.078125 126.816406 68.402344 127.300781 66.882812 C 128.128906 64.289062 129.664062 61.839844 130.9375 59.394531 C 131.65625 58.019531 133.40625 55.128906 131.898438 54.566406 Z M 131.898438 54.566406 " fill-opacity="1" fill-rule="evenodd"/><path fill="#000000" d="M 302.140625 94.304688 C 302.195312 94.304688 302.089844 94.402344 302.0625 94.449219 C 302 94.566406 301.921875 94.671875 301.851562 94.785156 C 301.667969 95.09375 301.335938 95.46875 301.261719 95.820312 C 301.183594 96.167969 301.808594 96.453125 301.644531 96.894531 C 301.539062 97.175781 301.210938 97.296875 300.949219 97.367188 C 300.269531 97.554688 299.378906 97.359375 299.015625 96.714844 C 298.738281 96.222656 298.996094 95.679688 299.230469 95.226562 C 299.28125 95.128906 299.519531 94.761719 299.34375 94.675781 C 299.03125 94.519531 298.511719 95.390625 298.390625 95.554688 C 297.753906 96.40625 297.015625 97.816406 295.910156 98.15625 C 295.039062 98.429688 294.058594 97.933594 293.222656 97.757812 C 292.316406 97.570312 291.347656 97.675781 290.480469 97.980469 C 288.308594 98.753906 286.375 100.226562 284.5625 101.605469 C 282.136719 103.460938 279.285156 105.347656 276.722656 107.015625 C 276.808594 107.035156 276.566406 107.09375 276.488281 107.136719 C 276.328125 107.230469 276.164062 107.320312 276 107.410156 C 275.492188 107.695312 274.976562 107.980469 274.464844 108.269531 C 272.808594 109.214844 271.089844 110.085938 269.371094 110.910156 C 268.675781 111.242188 267.980469 111.5625 267.285156 111.894531 C 267.234375 111.917969 266.597656 112.207031 266.769531 112.355469 C 266.882812 112.449219 267.277344 112.355469 267.40625 112.339844 C 268.066406 112.265625 268.714844 112.058594 269.355469 111.894531 C 272.257812 111.160156 274.789062 110.359375 277.3125 108.695312 C 280.292969 106.730469 283.101562 104.519531 286.007812 102.453125 C 287.585938 101.335938 289.296875 99.964844 291.179688 99.386719 C 292.828125 98.882812 294.078125 100.691406 295.738281 100.199219 C 296.558594 99.953125 297.164062 99.171875 297.636719 98.507812 C 297.695312 98.429688 298.054688 97.734375 298.167969 97.753906 C 298.242188 97.761719 298.320312 98.015625 298.335938 98.070312 C 298.4375 98.367188 298.539062 98.671875 298.738281 98.917969 C 299.253906 99.539062 300.300781 99.636719 301.039062 99.453125 C 302.886719 98.992188 302.945312 95.53125 302.140625 94.304688 Z M 302.140625 94.304688 " fill-opacity="1" fill-rule="evenodd"/><g clip-path="url(#f71bc4444f)"><path fill="#000000" d="M 185.03125 23.066406 L 187.6875 17.789062 C 187.6875 17.789062 195.6875 32.675781 194.191406 34.824219 C 194.191406 34.824219 192.605469 33.828125 190.964844 31.707031 C 190.964844 31.707031 191.636719 40.738281 193.011719 52.101562 C 195.371094 71.605469 198.234375 98.21875 191.945312 99.582031 C 191.945312 99.582031 193.003906 89.695312 190.808594 75.5 C 190.808594 75.5 186.71875 26.992188 185.03125 23.066406 Z M 185.03125 23.066406 " fill-opacity="1" fill-rule="evenodd"/></g></svg>