<svg xmlns="http://www.w3.org/2000/svg" xmlns:xlink="http://www.w3.org/1999/xlink" width="500" zoomAndPan="magnify" viewBox="0 0 375 149.999998" height="200" preserveAspectRatio="xMidYMid meet" version="1.0"><defs><clipPath id="a81d883f67"><path d="M 31 88 L 70 88 L 70 130.171875 L 31 130.171875 Z M 31 88 " clip-rule="nonzero"/></clipPath><clipPath id="f7461aa935"><path d="M 191 19.921875 L 202 19.921875 L 202 97 L 191 97 Z M 191 19.921875 " clip-rule="nonzero"/></clipPath></defs><path fill="#000000" d="M 305.46875 34.59375 C 305.273438 34.507812 305.902344 34.574219 306.121094 34.589844 C 306.601562 34.628906 307.078125 34.6875 307.550781 34.761719 C 308.949219 34.96875 310.316406 35.328125 311.664062 35.746094 C 315.59375 36.972656 319.414062 38.828125 322.867188 41.023438 C 330.894531 46.128906 336.824219 54.023438 340.570312 62.570312 C 341.984375 65.796875 343.496094 69.265625 343.496094 72.839844 C 343.515625 72.851562 343.324219 73.089844 343.316406 73.097656 C 343.082031 73.390625 342.824219 73.660156 342.550781 73.914062 C 341.425781 74.976562 340.152344 75.828125 338.714844 76.425781 C 338.59375 76.476562 338.378906 76.398438 338.273438 76.367188 C 337.859375 76.25 337.460938 76.085938 337.066406 75.917969 C 335.363281 75.199219 333.804688 74.167969 332.339844 73.066406 C 331.933594 72.757812 332.046875 72.019531 331.898438 71.527344 C 331.527344 70.277344 331.152344 69.027344 330.765625 67.78125 C 329.945312 65.148438 328.8125 62.59375 327.53125 60.148438 C 327.359375 60.121094 327.414062 59.828125 327.339844 59.675781 C 327.109375 59.214844 326.863281 58.757812 326.621094 58.304688 C 325.554688 56.339844 324.386719 54.425781 323.148438 52.554688 C 319.140625 46.507812 311.488281 38.871094 305.46875 34.59375 Z M 305.46875 34.59375 " fill-opacity="1" fill-rule="evenodd"/><path fill="#000000" d="M 305.46875 128.007812 C 305.273438 128.09375 305.902344 128.03125 306.121094 128.011719 C 306.601562 127.972656 307.078125 127.914062 307.550781 127.84375 C 308.949219 127.632812 310.316406 127.277344 311.664062 126.855469 C 315.59375 125.628906 319.414062 123.773438 322.867188 121.582031 C 330.894531 116.476562 336.824219 108.578125 340.570312 100.03125 C 341.984375 96.808594 343.496094 93.335938 343.496094 89.765625 C 343.515625 89.753906 343.324219 89.511719 343.316406 89.503906 C 343.082031 89.214844 342.824219 88.945312 342.550781 88.6875 C 341.425781 87.628906 340.152344 86.773438 338.714844 86.175781 C 338.59375 86.125 338.378906 86.203125 338.273438 86.234375 C 337.859375 86.355469 337.460938 86.519531 337.066406 86.683594 C 335.363281 87.402344 333.804688 88.433594 332.339844 89.539062 C 331.933594 89.84375 332.046875 90.585938 331.898438 91.078125 C 331.527344 92.328125 331.152344 93.574219 330.765625 94.820312 C 329.945312 97.453125 328.8125 100.007812 327.53125 102.457031 C 327.359375 102.480469 327.414062 102.777344 327.339844 102.929688 C 327.109375 103.390625 326.863281 103.84375 326.621094 104.296875 C 325.554688 106.265625 324.386719 108.179688 323.148438 110.046875 C 319.140625 116.09375 311.488281 123.730469 305.46875 128.007812 Z M 305.46875 128.007812 " fill-opacity="1" fill-rule="evenodd"/><path fill="#000000" d="M 351.753906 75.558594 C 351.691406 75.523438 351.628906 75.488281 351.574219 75.464844 C 351.277344 75.328125 350.996094 75.210938 350.914062 75.15625 C 350.039062 74.605469 349.324219 73.800781 348.777344 72.941406 C 347.945312 71.628906 347.460938 70.164062 346.972656 68.703125 C 346.515625 67.335938 346.058594 65.972656 345.242188 64.765625 C 344.648438 63.878906 343.769531 63.167969 342.867188 62.582031 C 342.699219 62.476562 342.40625 62.382812 342.152344 62.269531 C 341.871094 62.144531 341.628906 62 341.492188 61.851562 C 341.304688 61.648438 341.304688 61.460938 341.320312 61.34375 C 341.347656 61.160156 341.4375 60.996094 341.640625 60.882812 C 341.695312 60.855469 341.773438 60.824219 341.871094 60.808594 C 341.941406 60.800781 342.21875 60.824219 342.257812 60.828125 C 342.460938 60.824219 342.660156 60.832031 342.859375 60.839844 C 343.484375 60.855469 344.113281 60.875 344.730469 60.960938 C 346.609375 61.226562 348.441406 61.851562 350.089844 62.777344 C 352.105469 63.910156 353.917969 65.59375 354.957031 67.640625 C 355.242188 68.195312 355.417969 68.851562 355.617188 69.492188 C 355.785156 70.023438 355.964844 70.546875 356.296875 70.953125 C 356.476562 71.175781 356.734375 71.257812 357 71.332031 C 357.261719 71.402344 357.53125 71.457031 357.792969 71.535156 C 358.570312 71.765625 359.304688 72.132812 359.9375 72.621094 C 361.136719 73.542969 361.9375 74.851562 362.65625 76.140625 C 362.902344 76.578125 363.121094 77.023438 363.335938 77.476562 C 363.410156 77.625 363.480469 77.777344 363.542969 77.933594 C 363.589844 78.046875 363.660156 78.355469 363.664062 78.398438 C 363.683594 78.835938 363.351562 78.96875 363.25 79.003906 C 363.242188 79.007812 363.226562 79.011719 363.199219 79.019531 C 361.71875 79.792969 360.007812 80.242188 358.425781 80.75 C 358.246094 80.808594 358.066406 80.863281 357.890625 80.921875 L 357.898438 80.925781 C 359.105469 81.402344 360.363281 81.765625 361.617188 82.09375 C 361.726562 82.125 362.476562 82.242188 362.796875 82.359375 C 363.128906 82.480469 363.269531 82.707031 363.304688 82.824219 C 363.34375 82.941406 363.359375 83.113281 363.3125 83.316406 C 363.234375 83.632812 362.960938 84.152344 362.898438 84.296875 C 362.375 85.5625 361.652344 86.714844 360.773438 87.769531 C 359.984375 88.71875 359.007812 89.453125 358.03125 90.183594 C 357.136719 90.851562 356.238281 91.519531 355.523438 92.390625 C 354.644531 93.46875 354.152344 94.773438 353.46875 95.964844 C 352.523438 97.617188 351.25 99.078125 349.535156 100.007812 C 348.171875 100.742188 346.675781 101.070312 345.136719 101.210938 C 344.585938 101.261719 344.03125 101.304688 343.476562 101.347656 C 343.398438 101.351562 343.003906 101.339844 342.929688 101.339844 C 342.660156 101.378906 342.390625 101.238281 342.277344 100.988281 C 342.148438 100.710938 342.25 100.382812 342.519531 100.222656 C 342.550781 100.207031 342.597656 100.179688 342.667969 100.160156 C 343.414062 99.929688 344.097656 99.472656 344.714844 99.007812 C 346.390625 97.734375 347.929688 95.855469 348.300781 93.769531 C 348.433594 93.027344 348.371094 92.25 348.359375 91.480469 C 348.347656 90.582031 348.40625 89.699219 348.789062 88.871094 C 349.441406 87.46875 351.101562 86.636719 352.453125 86.015625 C 352.714844 85.898438 352.972656 85.785156 353.238281 85.679688 C 351.460938 84.539062 349.5 83.632812 347.582031 82.78125 C 346.808594 82.4375 346.03125 82.109375 345.257812 81.761719 C 344.988281 81.640625 344.71875 81.523438 344.449219 81.40625 C 343.265625 82.597656 341.957031 83.6875 340.730469 84.828125 C 340.359375 85.167969 339.996094 85.515625 339.632812 85.863281 C 339.570312 85.921875 339.449219 86.082031 339.335938 86.183594 C 339.195312 86.3125 339.050781 86.386719 338.9375 86.414062 C 338.777344 86.453125 338.605469 86.425781 338.464844 86.34375 C 336.5625 85.214844 334.617188 84.132812 332.671875 83.070312 C 332.011719 82.707031 331.351562 82.34375 330.6875 81.988281 C 330.484375 81.878906 330.277344 81.765625 330.070312 81.660156 L 329.910156 81.582031 C 329.839844 81.5625 329.777344 81.535156 329.714844 81.492188 C 329.523438 81.355469 329.425781 81.125 329.464844 80.898438 C 329.5 80.707031 329.601562 80.554688 329.796875 80.457031 L 329.804688 80.457031 C 330.449219 80.113281 331.039062 79.640625 331.660156 79.246094 C 332.78125 78.53125 333.910156 77.828125 335.050781 77.140625 C 335.523438 76.855469 336 76.578125 336.472656 76.289062 L 337.578125 75.617188 C 337.632812 75.550781 337.710938 75.496094 337.792969 75.457031 C 337.980469 75.378906 338.191406 75.390625 338.363281 75.492188 C 340.082031 76.503906 341.71875 77.515625 343.40625 78.578125 C 343.847656 78.855469 344.292969 79.125 344.738281 79.402344 L 344.800781 79.433594 C 344.828125 79.445312 344.851562 79.457031 344.875 79.46875 L 344.957031 79.515625 C 346.671875 78.503906 348.839844 77.539062 350.410156 76.402344 C 350.648438 76.226562 351.054688 76.011719 351.433594 75.773438 C 351.542969 75.699219 351.65625 75.628906 351.753906 75.558594 Z M 344.351562 62.132812 C 344.417969 62.140625 344.484375 62.148438 344.554688 62.160156 C 346.277344 62.402344 347.960938 62.976562 349.472656 63.828125 C 351.277344 64.84375 352.914062 66.34375 353.847656 68.179688 C 354.101562 68.675781 354.253906 69.269531 354.433594 69.847656 C 354.648438 70.53125 354.90625 71.191406 355.328125 71.707031 C 355.632812 72.082031 356.019531 72.292969 356.441406 72.429688 C 356.761719 72.535156 357.105469 72.59375 357.433594 72.695312 C 358.058594 72.882812 358.65625 73.175781 359.171875 73.574219 C 360.242188 74.394531 360.929688 75.574219 361.570312 76.722656 C 361.804688 77.136719 362.007812 77.558594 362.214844 77.988281 C 362.234375 78.03125 362.253906 78.074219 362.277344 78.121094 C 360.9375 78.757812 359.4375 79.152344 358.039062 79.601562 C 357.554688 79.757812 357.0625 79.90625 356.605469 80.132812 C 356.511719 80.183594 356.300781 80.289062 356.179688 80.40625 C 356.011719 80.578125 355.945312 80.78125 355.964844 80.988281 C 355.980469 81.160156 356.074219 81.375 356.300781 81.546875 C 356.589844 81.765625 357.277344 81.988281 357.4375 82.050781 C 358.6875 82.542969 359.992188 82.917969 361.292969 83.265625 C 361.347656 83.277344 361.667969 83.347656 361.945312 83.402344 C 361.863281 83.585938 361.777344 83.785156 361.75 83.84375 C 361.273438 84.992188 360.613281 86.042969 359.8125 87.003906 C 359.082031 87.878906 358.179688 88.546875 357.28125 89.222656 C 356.304688 89.953125 355.335938 90.6875 354.558594 91.636719 C 353.632812 92.761719 353.105469 94.125 352.390625 95.371094 C 351.554688 96.828125 350.449219 98.128906 348.933594 98.945312 C 347.859375 99.527344 346.6875 99.8125 345.480469 99.957031 C 347.390625 98.511719 349.09375 96.347656 349.523438 93.976562 C 349.667969 93.164062 349.609375 92.308594 349.597656 91.464844 C 349.589844 90.746094 349.609375 90.035156 349.914062 89.375 C 350.453125 88.222656 351.871094 87.621094 352.980469 87.113281 C 353.378906 86.929688 353.777344 86.757812 354.199219 86.625 C 354.222656 86.617188 354.710938 86.488281 354.8125 86.453125 C 355.242188 86.296875 355.234375 85.90625 355.226562 85.847656 C 355.21875 85.667969 355.125 85.5 354.980469 85.394531 C 352.890625 83.867188 350.464844 82.726562 348.09375 81.679688 C 347.320312 81.335938 346.542969 81.007812 345.773438 80.660156 L 345.5625 80.570312 C 347.308594 79.53125 349.542969 78.539062 351.144531 77.375 C 351.425781 77.171875 351.9375 76.917969 352.351562 76.621094 C 352.734375 76.351562 353.035156 76.035156 353.164062 75.714844 C 353.261719 75.472656 353.238281 75.160156 352.945312 74.878906 C 352.804688 74.738281 352.546875 74.582031 352.269531 74.449219 C 351.980469 74.308594 351.667969 74.195312 351.585938 74.140625 C 350.863281 73.683594 350.277344 73.011719 349.828125 72.300781 C 349.050781 71.074219 348.609375 69.699219 348.148438 68.328125 C 347.664062 66.859375 347.15625 65.398438 346.277344 64.097656 C 345.769531 63.34375 345.089844 62.691406 344.351562 62.132812 Z M 338.085938 76.742188 C 339.660156 77.675781 341.175781 78.613281 342.734375 79.59375 C 343.097656 79.828125 343.46875 80.050781 343.839844 80.277344 C 342.597656 81.566406 341.191406 82.730469 339.875 83.949219 C 339.503906 84.296875 339.128906 84.648438 338.761719 85.003906 C 338.746094 85.015625 338.726562 85.039062 338.699219 85.066406 C 336.914062 84.019531 335.09375 83.007812 333.277344 82.015625 C 332.625 81.65625 331.976562 81.300781 331.324219 80.949219 C 331.660156 80.71875 331.996094 80.476562 332.335938 80.261719 C 333.449219 79.550781 334.574219 78.855469 335.703125 78.171875 C 336.175781 77.882812 336.65625 77.605469 337.125 77.316406 C 337.179688 77.285156 337.710938 76.980469 338.085938 76.742188 Z M 330.449219 81.488281 L 330.371094 81.535156 C 330.34375 81.546875 330.324219 81.554688 330.296875 81.5625 C 330.355469 81.542969 330.40625 81.519531 330.449219 81.488281 Z M 344.902344 80.851562 C 344.890625 80.898438 344.863281 80.945312 344.835938 80.992188 C 344.863281 80.945312 344.886719 80.898438 344.902344 80.851562 Z M 363.601562 78.171875 C 363.605469 78.179688 363.609375 78.1875 363.613281 78.195312 Z M 363.59375 78.152344 L 363.59375 78.15625 Z M 363.59375 78.152344 " fill-opacity="1" fill-rule="evenodd"/><path fill="#000000" d="M 374.886719 81.546875 L 363.3125 83.316406 L 356.992188 81.078125 L 363.039062 78.632812 Z M 374.886719 81.546875 " fill-opacity="1" fill-rule="evenodd"/><path fill="#000000" d="M 69.523438 36.609375 C 69.71875 36.523438 69.089844 36.585938 68.871094 36.605469 C 68.394531 36.644531 67.917969 36.703125 67.441406 36.773438 C 66.042969 36.984375 64.675781 37.339844 63.332031 37.761719 C 59.402344 38.984375 55.578125 40.84375 52.125 43.035156 C 44.097656 48.140625 38.167969 56.039062 34.421875 64.585938 C 33.007812 67.808594 31.5 71.28125 31.5 74.851562 C 31.476562 74.863281 31.667969 75.105469 31.675781 75.113281 C 31.910156 75.402344 32.171875 75.671875 32.441406 75.929688 C 33.566406 76.988281 34.839844 77.84375 36.277344 78.441406 C 36.398438 78.492188 36.613281 78.410156 36.71875 78.382812 C 37.132812 78.261719 37.53125 78.097656 37.925781 77.933594 C 39.628906 77.214844 41.1875 76.183594 42.652344 75.078125 C 43.0625 74.773438 42.945312 74.03125 43.09375 73.539062 C 43.464844 72.289062 43.839844 71.039062 44.226562 69.796875 C 45.050781 67.164062 46.179688 64.609375 47.460938 62.160156 C 47.632812 62.136719 47.578125 61.839844 47.65625 61.6875 C 47.882812 61.226562 48.128906 60.773438 48.371094 60.320312 C 49.4375 58.351562 50.605469 56.4375 51.84375 54.570312 C 55.851562 48.523438 63.503906 40.886719 69.523438 36.609375 Z M 69.523438 36.609375 " fill-opacity="1" fill-rule="evenodd"/><g clip-path="url(#a81d883f67)"><path fill="#000000" d="M 69.523438 130.019531 C 69.71875 130.109375 69.089844 130.042969 68.871094 130.027344 C 68.394531 129.988281 67.917969 129.925781 67.441406 129.855469 C 66.042969 129.648438 64.675781 129.289062 63.332031 128.871094 C 59.402344 127.644531 55.578125 125.789062 52.125 123.59375 C 44.097656 118.488281 38.167969 110.589844 34.421875 102.046875 C 33.007812 98.820312 31.5 95.347656 31.5 91.777344 C 31.476562 91.765625 31.667969 91.527344 31.675781 91.519531 C 31.910156 91.226562 32.171875 90.957031 32.441406 90.703125 C 33.566406 89.640625 34.839844 88.789062 36.277344 88.1875 C 36.398438 88.140625 36.613281 88.21875 36.71875 88.25 C 37.132812 88.367188 37.53125 88.53125 37.925781 88.699219 C 39.628906 89.417969 41.1875 90.449219 42.652344 91.550781 C 43.0625 91.859375 42.945312 92.597656 43.09375 93.089844 C 43.464844 94.339844 43.839844 95.589844 44.226562 96.835938 C 45.050781 99.46875 46.179688 102.019531 47.460938 104.46875 C 47.632812 104.496094 47.578125 104.789062 47.65625 104.941406 C 47.882812 105.402344 48.128906 105.859375 48.371094 106.308594 C 49.4375 108.277344 50.605469 110.191406 51.84375 112.058594 C 55.851562 118.105469 63.503906 125.742188 69.523438 130.019531 Z M 69.523438 130.019531 " fill-opacity="1" fill-rule="evenodd"/></g><path fill="#000000" d="M 23.238281 77.570312 C 23.300781 77.535156 23.367188 77.503906 23.417969 77.480469 C 23.71875 77.34375 23.996094 77.226562 24.082031 77.171875 C 24.957031 76.617188 25.671875 75.816406 26.21875 74.953125 C 27.046875 73.644531 27.535156 72.179688 28.019531 70.714844 C 28.476562 69.351562 28.933594 67.988281 29.75 66.777344 C 30.34375 65.894531 31.226562 65.179688 32.125 64.597656 C 32.292969 64.488281 32.585938 64.394531 32.84375 64.28125 C 33.121094 64.160156 33.363281 64.015625 33.5 63.863281 C 33.691406 63.664062 33.6875 63.476562 33.671875 63.355469 C 33.648438 63.175781 33.554688 63.007812 33.355469 62.898438 C 33.296875 62.867188 33.222656 62.835938 33.125 62.824219 C 33.050781 62.8125 32.773438 62.835938 32.734375 62.839844 C 32.535156 62.839844 32.332031 62.847656 32.136719 62.851562 C 31.507812 62.871094 30.882812 62.886719 30.261719 62.972656 C 28.382812 63.238281 26.550781 63.867188 24.902344 64.792969 C 22.886719 65.925781 21.078125 67.605469 20.035156 69.652344 C 19.753906 70.207031 19.578125 70.863281 19.375 71.503906 C 19.207031 72.039062 19.027344 72.5625 18.695312 72.964844 C 18.515625 73.191406 18.257812 73.273438 17.996094 73.34375 C 17.730469 73.417969 17.460938 73.472656 17.199219 73.550781 C 16.421875 73.78125 15.691406 74.144531 15.054688 74.636719 C 13.855469 75.558594 13.058594 76.867188 12.335938 78.15625 C 12.089844 78.59375 11.875 79.039062 11.65625 79.488281 C 11.582031 79.640625 11.511719 79.792969 11.449219 79.949219 C 11.402344 80.0625 11.332031 80.367188 11.328125 80.414062 C 11.308594 80.851562 11.644531 80.984375 11.742188 81.019531 C 11.75 81.019531 11.769531 81.027344 11.792969 81.03125 C 13.273438 81.804688 14.984375 82.257812 16.566406 82.765625 C 16.746094 82.820312 16.925781 82.878906 17.101562 82.9375 L 17.09375 82.941406 C 15.886719 83.414062 14.628906 83.777344 13.375 84.109375 C 13.269531 84.136719 12.515625 84.253906 12.195312 84.371094 C 11.863281 84.496094 11.722656 84.71875 11.6875 84.839844 C 11.648438 84.953125 11.632812 85.128906 11.679688 85.332031 C 11.757812 85.644531 12.035156 86.167969 12.09375 86.3125 C 12.617188 87.574219 13.339844 88.726562 14.21875 89.785156 C 15.011719 90.734375 15.984375 91.464844 16.960938 92.195312 C 17.855469 92.867188 18.753906 93.535156 19.46875 94.40625 C 20.347656 95.480469 20.839844 96.785156 21.523438 97.976562 C 22.46875 99.628906 23.742188 101.09375 25.457031 102.019531 C 26.820312 102.757812 28.316406 103.082031 29.855469 103.226562 C 30.40625 103.277344 30.960938 103.320312 31.519531 103.359375 C 31.59375 103.367188 31.988281 103.355469 32.0625 103.355469 C 32.332031 103.390625 32.601562 103.253906 32.71875 103.003906 C 32.84375 102.726562 32.742188 102.394531 32.472656 102.238281 C 32.445312 102.222656 32.394531 102.195312 32.324219 102.171875 C 31.578125 101.945312 30.894531 101.488281 30.28125 101.023438 C 28.601562 99.75 27.066406 97.867188 26.691406 95.78125 C 26.558594 95.039062 26.625 94.261719 26.632812 93.492188 C 26.644531 92.597656 26.589844 91.710938 26.203125 90.886719 C 25.550781 89.484375 23.890625 88.648438 22.539062 88.03125 C 22.277344 87.914062 22.019531 87.796875 21.753906 87.695312 C 23.53125 86.554688 25.492188 85.644531 27.410156 84.796875 C 28.183594 84.453125 28.964844 84.121094 29.734375 83.777344 C 30.007812 83.65625 30.273438 83.535156 30.546875 83.421875 C 31.730469 84.609375 33.035156 85.703125 34.265625 86.839844 C 34.632812 87.183594 34.996094 87.527344 35.359375 87.878906 C 35.421875 87.9375 35.546875 88.097656 35.65625 88.199219 C 35.796875 88.328125 35.941406 88.398438 36.054688 88.425781 C 36.21875 88.46875 36.386719 88.441406 36.527344 88.359375 C 38.433594 87.226562 40.375 86.148438 42.320312 85.085938 C 42.980469 84.722656 43.640625 84.359375 44.304688 84.003906 C 44.511719 83.890625 44.714844 83.777344 44.925781 83.675781 L 45.085938 83.597656 C 45.152344 83.578125 45.21875 83.546875 45.277344 83.503906 C 45.46875 83.371094 45.566406 83.140625 45.527344 82.914062 C 45.492188 82.722656 45.390625 82.570312 45.195312 82.472656 L 45.191406 82.472656 C 44.542969 82.128906 43.953125 81.65625 43.335938 81.261719 C 42.214844 80.546875 41.082031 79.84375 39.945312 79.15625 C 39.46875 78.871094 38.992188 78.589844 38.523438 78.304688 L 37.417969 77.632812 C 37.359375 77.5625 37.285156 77.507812 37.199219 77.472656 C 37.011719 77.390625 36.800781 77.40625 36.628906 77.507812 C 34.910156 78.515625 33.273438 79.53125 31.589844 80.59375 C 31.148438 80.871094 30.699219 81.140625 30.253906 81.414062 L 30.191406 81.445312 C 30.167969 81.460938 30.140625 81.472656 30.117188 81.484375 L 30.035156 81.527344 C 28.320312 80.515625 26.152344 79.554688 24.585938 78.417969 C 24.34375 78.242188 23.9375 78.027344 23.558594 77.785156 C 23.449219 77.714844 23.335938 77.644531 23.238281 77.570312 Z M 30.644531 64.148438 C 30.574219 64.152344 30.507812 64.164062 30.441406 64.171875 C 28.714844 64.414062 27.03125 64.992188 25.519531 65.839844 C 23.714844 66.859375 22.078125 68.355469 21.144531 70.191406 C 20.890625 70.691406 20.742188 71.285156 20.558594 71.859375 C 20.34375 72.542969 20.089844 73.203125 19.664062 73.722656 C 19.359375 74.09375 18.976562 74.304688 18.550781 74.445312 C 18.234375 74.550781 17.890625 74.609375 17.5625 74.707031 C 16.933594 74.894531 16.335938 75.191406 15.820312 75.585938 C 14.753906 76.40625 14.066406 77.589844 13.421875 78.738281 C 13.191406 79.152344 12.984375 79.574219 12.777344 80 C 12.757812 80.046875 12.738281 80.089844 12.714844 80.132812 C 14.054688 80.773438 15.558594 81.167969 16.953125 81.613281 C 17.4375 81.769531 17.933594 81.917969 18.386719 82.148438 C 18.480469 82.195312 18.691406 82.300781 18.8125 82.421875 C 18.984375 82.59375 19.046875 82.796875 19.027344 83 C 19.011719 83.175781 18.917969 83.386719 18.691406 83.5625 C 18.402344 83.78125 17.714844 84 17.554688 84.0625 C 16.304688 84.554688 15 84.933594 13.699219 85.277344 C 13.644531 85.292969 13.324219 85.359375 13.050781 85.417969 C 13.128906 85.601562 13.21875 85.796875 13.242188 85.855469 C 13.71875 87.007812 14.382812 88.058594 15.179688 89.019531 C 15.910156 89.894531 16.8125 90.5625 17.710938 91.234375 C 18.6875 91.964844 19.65625 92.699219 20.433594 93.648438 C 21.359375 94.777344 21.890625 96.136719 22.605469 97.386719 C 23.4375 98.84375 24.542969 100.144531 26.058594 100.960938 C 27.132812 101.542969 28.304688 101.828125 29.511719 101.972656 C 27.605469 100.523438 25.898438 98.363281 25.46875 95.992188 C 25.324219 95.175781 25.382812 94.320312 25.394531 93.476562 C 25.40625 92.757812 25.382812 92.046875 25.078125 91.386719 C 24.539062 90.238281 23.121094 89.632812 22.015625 89.128906 C 21.617188 88.945312 21.214844 88.773438 20.796875 88.640625 C 20.769531 88.632812 20.28125 88.503906 20.179688 88.46875 C 19.75 88.308594 19.761719 87.917969 19.765625 87.859375 C 19.773438 87.679688 19.867188 87.515625 20.011719 87.410156 C 22.101562 85.882812 24.53125 84.742188 26.898438 83.695312 C 27.671875 83.351562 28.449219 83.019531 29.222656 82.675781 L 29.429688 82.582031 C 27.683594 81.542969 25.449219 80.554688 23.847656 79.390625 C 23.566406 79.183594 23.054688 78.929688 22.640625 78.636719 C 22.257812 78.363281 21.957031 78.046875 21.828125 77.730469 C 21.730469 77.484375 21.753906 77.175781 22.046875 76.890625 C 22.191406 76.753906 22.445312 76.597656 22.722656 76.460938 C 23.011719 76.324219 23.324219 76.207031 23.40625 76.15625 C 24.128906 75.699219 24.714844 75.027344 25.164062 74.316406 C 25.945312 73.089844 26.386719 71.710938 26.84375 70.339844 C 27.332031 68.875 27.835938 67.414062 28.714844 66.113281 C 29.222656 65.359375 29.902344 64.707031 30.644531 64.148438 Z M 36.90625 78.753906 C 35.332031 79.6875 33.816406 80.628906 32.261719 81.609375 C 31.894531 81.839844 31.523438 82.066406 31.15625 82.292969 C 32.394531 83.582031 33.800781 84.746094 35.117188 85.960938 C 35.492188 86.3125 35.863281 86.660156 36.234375 87.019531 C 36.246094 87.03125 36.269531 87.054688 36.292969 87.082031 C 38.082031 86.03125 39.898438 85.023438 41.714844 84.027344 C 42.367188 83.671875 43.019531 83.3125 43.671875 82.960938 C 43.332031 82.730469 42.996094 82.492188 42.65625 82.273438 C 41.542969 81.5625 40.421875 80.867188 39.289062 80.183594 C 38.816406 79.898438 38.335938 79.617188 37.867188 79.332031 C 37.816406 79.296875 37.285156 78.996094 36.90625 78.753906 Z M 44.542969 83.503906 L 44.625 83.546875 C 44.648438 83.558594 44.667969 83.570312 44.695312 83.578125 C 44.636719 83.558594 44.585938 83.535156 44.542969 83.503906 Z M 30.089844 82.867188 C 30.105469 82.914062 30.128906 82.960938 30.15625 83.003906 C 30.128906 82.960938 30.105469 82.914062 30.089844 82.867188 Z M 11.390625 80.183594 C 11.386719 80.191406 11.382812 80.203125 11.378906 80.210938 Z M 11.398438 80.167969 L 11.398438 80.171875 Z M 11.398438 80.167969 " fill-opacity="1" fill-rule="evenodd"/><path fill="#000000" d="M 0.105469 83.5625 L 11.679688 85.332031 L 18 83.089844 L 11.953125 80.648438 Z M 0.105469 83.5625 " fill-opacity="1" fill-rule="evenodd"/><g clip-path="url(#f7461aa935)"><path fill="#000000" d="M 191.558594 24.84375 L 194.054688 19.925781 C 194.054688 19.925781 201.574219 33.796875 200.167969 35.800781 C 200.167969 35.800781 198.675781 34.875 197.136719 32.898438 C 197.136719 32.898438 197.765625 41.3125 199.054688 51.902344 C 201.277344 70.078125 203.964844 94.878906 198.054688 96.148438 C 198.054688 96.148438 199.050781 86.9375 196.988281 73.707031 C 196.988281 73.707031 193.144531 28.503906 191.558594 24.84375 Z M 191.558594 24.84375 " fill-opacity="1" fill-rule="evenodd"/></g><path fill="#000000" d="M 266.347656 92.0625 C 266.246094 92.125 265.929688 92.261719 265.796875 92.328125 C 265.382812 92.53125 264.964844 92.707031 264.539062 92.882812 C 263.285156 93.40625 262.039062 93.898438 260.695312 94.15625 C 256.691406 94.925781 250.199219 94.59375 250.011719 89.386719 C 249.890625 85.867188 252.4375 81.96875 255.097656 79.738281 C 256.199219 78.816406 257.492188 77.972656 258.996094 77.941406 C 260.226562 77.914062 261.429688 78.433594 262.464844 79.03125 C 264.695312 80.320312 266.734375 83.257812 267.894531 85.582031 C 267.882812 85.566406 268.09375 85.519531 268.125 85.511719 C 268.253906 85.46875 268.390625 85.433594 268.519531 85.390625 C 268.898438 85.277344 269.265625 85.140625 269.632812 85 C 270.773438 84.566406 271.894531 84.070312 272.957031 83.46875 C 274.53125 82.570312 276 81.488281 277.289062 80.230469 C 277.65625 79.875 278.007812 79.503906 278.363281 79.136719 C 278.425781 79.070312 278.605469 78.820312 278.722656 78.847656 C 278.878906 78.886719 278.84375 79.296875 278.855469 79.398438 C 278.882812 80.003906 278.890625 80.609375 278.945312 81.214844 C 279.066406 82.644531 279.488281 83.925781 280.148438 85.203125 C 280.050781 85.28125 280.457031 85.800781 280.5 85.855469 C 280.988281 86.519531 281.6875 87.050781 282.359375 87.535156 C 284.304688 88.925781 287.03125 89.453125 289.117188 88.003906 C 291.785156 86.144531 292.804688 82.710938 293.875 79.863281 C 294.171875 79.066406 294.480469 78.222656 294.96875 77.511719 C 295.140625 77.261719 295.394531 76.90625 295.742188 76.894531 C 296.007812 76.886719 296.1875 77.144531 296.300781 77.34375 C 296.628906 77.902344 296.800781 78.554688 296.949219 79.175781 C 297.472656 81.335938 297.265625 84.328125 299.46875 85.652344 C 301.03125 86.59375 302.816406 86.671875 304.324219 85.613281 C 304.523438 85.472656 305.230469 85.046875 305.300781 84.777344 C 305.398438 84.371094 305.234375 83.851562 305.128906 83.472656 C 304.898438 82.683594 304.082031 80.921875 303.707031 80.1875 C 304.671875 79.507812 305.5625 78.46875 306.035156 77.910156 C 306.652344 77.175781 307.296875 76.457031 307.910156 75.71875 C 308 75.613281 308.320312 75.074219 308.484375 75.066406 C 308.859375 75.050781 309.007812 76.808594 309.042969 77.011719 C 309.375 79.148438 309.324219 81.25 309.039062 83.386719 C 308.652344 86.269531 307.808594 89.507812 305.289062 91.34375 C 301.082031 94.40625 295.613281 90.84375 294.59375 86.453125 C 294.578125 86.40625 294.414062 86.855469 294.40625 86.878906 C 294.285156 87.167969 294.171875 87.460938 294.039062 87.742188 C 293.628906 88.613281 293.105469 89.429688 292.578125 90.238281 C 291.023438 92.632812 289.007812 94.625 286.097656 95.375 C 284.457031 95.796875 282.507812 95.902344 280.878906 95.359375 C 277.171875 94.121094 276.101562 89.492188 276.910156 86.167969 C 275.429688 87.367188 273.636719 88.3125 271.992188 89.300781 C 270.710938 90.066406 269.34375 91.015625 267.882812 91.441406 C 267.808594 91.320312 267.953125 91.707031 267.984375 91.839844 C 268.03125 92.070312 268.074219 92.308594 268.117188 92.542969 C 268.25 93.304688 268.347656 94.074219 268.457031 94.84375 C 268.785156 97.234375 267.820312 98.464844 266.414062 100.414062 C 262.328125 106.070312 256.847656 111.128906 250.953125 114.988281 C 251.050781 114.691406 250.449219 115.378906 250.1875 115.554688 C 249.691406 115.886719 249.179688 116.195312 248.660156 116.484375 C 247.023438 117.394531 245.28125 118.1875 243.503906 118.8125 C 238.375 120.609375 232.773438 119.101562 228.910156 115.472656 C 224.441406 111.28125 223.960938 103.535156 224.996094 97.988281 C 225.421875 95.691406 226.25 93.53125 227.410156 91.488281 C 227.46875 91.378906 228.507812 89.625 228.644531 89.824219 C 229.121094 90.519531 227.921875 93.402344 227.765625 94.117188 C 227.003906 97.601562 226.269531 101.429688 227.285156 104.9375 C 227.804688 106.734375 228.894531 108.277344 230.3125 109.515625 C 239.121094 117.207031 250.773438 109.0625 258.511719 103.761719 C 260.65625 102.289062 262.710938 100.722656 264.585938 98.941406 C 265.28125 98.28125 266.359375 97.460938 266.707031 96.539062 C 267.230469 95.136719 266.820312 93.425781 266.347656 92.0625 C 266.394531 92.035156 266.402344 92.023438 266.34375 92.035156 Z M 261.667969 86.25 C 260.808594 86.703125 259.566406 87.144531 258.644531 87.484375 C 258.082031 87.691406 257.511719 87.839844 256.917969 87.917969 C 256.523438 87.972656 256.09375 87.992188 255.695312 87.898438 C 254.078125 87.503906 254.199219 85.730469 255.003906 84.65625 C 256.105469 83.179688 258.1875 83.015625 259.691406 83.976562 C 260.28125 84.351562 261.363281 85.644531 261.667969 86.25 Z M 261.667969 86.25 " fill-opacity="1" fill-rule="evenodd"/><path fill="#000000" d="M 231.214844 80.429688 C 231.328125 80.773438 231.050781 81.492188 230.992188 81.828125 C 230.773438 83.058594 230.539062 84.285156 230.285156 85.507812 C 230.179688 86.027344 229.847656 86.753906 230.066406 87.285156 C 230.34375 87.972656 231.339844 87.609375 231.671875 88.144531 C 232.097656 88.832031 232.253906 89.816406 232.546875 90.5625 C 233.113281 92.027344 233.800781 93.398438 234.613281 94.746094 C 235.953125 96.960938 238.417969 99.160156 238.992188 101.742188 C 238.769531 101.742188 238.855469 102.152344 238.75 102.347656 C 238.4375 102.953125 238.078125 103.527344 237.695312 104.097656 C 236.292969 106.203125 234.4375 107.898438 232.375 109.394531 C 229.808594 111.257812 227.082031 112.882812 224.3125 114.453125 C 217.9375 118.070312 210.570312 121.847656 203.003906 119.765625 C 197.011719 118.121094 195.601562 111.4375 196.363281 106.125 C 196.636719 104.199219 197.089844 102.296875 197.675781 100.4375 C 197.914062 99.671875 198.191406 98.910156 198.40625 98.136719 C 198.433594 98.042969 198.625 97.484375 198.367188 97.523438 C 197.765625 97.613281 197.191406 98.902344 196.949219 99.324219 C 195.644531 101.585938 194.949219 104.097656 194.578125 106.648438 C 193.460938 114.339844 195.109375 125.972656 204.800781 127.328125 C 216.140625 128.914062 226.449219 120.988281 234.25 114.070312 C 237.390625 111.285156 241.558594 107.59375 242.316406 103.292969 C 243.066406 99.023438 241.378906 94.832031 238.96875 91.328125 C 238.144531 90.128906 236.390625 88.804688 235.902344 87.457031 C 235.671875 86.8125 237.457031 86.257812 237.875 86.050781 C 238.0625 85.957031 238.582031 85.773438 238.417969 85.492188 C 238.046875 84.851562 237.164062 84.453125 236.582031 84.039062 C 235.15625 83.035156 232.566406 81.527344 231.214844 80.429688 Z M 231.214844 80.429688 " fill-opacity="1" fill-rule="evenodd"/><path fill="#000000" d="M 212.007812 61.859375 C 212.367188 62.144531 214.929688 62.050781 214.625 61.253906 C 214.429688 60.726562 213.671875 60.242188 213.25 59.898438 C 211.863281 58.757812 210.355469 57.691406 208.839844 56.71875 C 208.589844 56.558594 207.140625 55.414062 206.839844 55.777344 C 206.234375 56.507812 206.503906 58.554688 206.449219 59.433594 C 206.417969 60.019531 206.027344 61.363281 206.394531 61.878906 C 206.804688 62.457031 207.664062 62.246094 207.960938 62.984375 C 208.332031 63.902344 208.507812 64.839844 208.980469 65.734375 C 210.132812 67.90625 211.914062 69.761719 213.753906 71.40625 C 213.640625 71.367188 212.960938 72.441406 212.902344 72.523438 C 212.007812 73.785156 211.140625 75.058594 210.320312 76.367188 C 207.886719 80.238281 207.488281 84.503906 208.164062 88.945312 C 208.652344 92.148438 210.398438 94.46875 214.023438 93.941406 C 216.457031 93.585938 218.265625 92.03125 219.929688 90.386719 C 224.003906 86.347656 226.523438 80.511719 224.210938 74.90625 C 223.578125 73.375 221.886719 72.316406 220.542969 71.414062 C 220.085938 71.113281 219.007812 70.664062 219.183594 70.003906 C 219.507812 68.824219 220.792969 67.652344 221.535156 66.710938 C 223.253906 64.519531 224.988281 62.332031 226.53125 60.019531 C 227.046875 59.253906 228.917969 57.164062 228.144531 56.140625 C 227.070312 54.71875 225.15625 57.300781 224.566406 57.949219 C 224.285156 58.253906 224.011719 58.566406 223.738281 58.878906 C 223.441406 59.222656 223.144531 59.570312 222.847656 59.917969 C 222.535156 60.285156 222.230469 60.652344 221.921875 61.019531 C 221.226562 61.851562 220.535156 62.6875 219.855469 63.53125 C 219.171875 64.371094 218.496094 65.226562 217.835938 66.085938 C 217.625 66.359375 217.320312 66.980469 216.960938 67.109375 C 216.585938 67.246094 215.863281 66.460938 215.632812 66.257812 C 214.484375 65.238281 213.042969 62.984375 212.007812 61.859375 Z M 215.875 74.160156 C 214.230469 76.101562 212.570312 78.066406 211.230469 80.222656 C 210.347656 81.644531 209.617188 83.359375 210.046875 85.046875 C 210.40625 86.429688 212.550781 86.507812 213.71875 86.546875 C 217.257812 86.664062 220.84375 83.8125 222.726562 81.117188 C 222.621094 80.992188 222.589844 80.546875 222.527344 80.382812 C 222.285156 79.800781 221.992188 79.253906 221.640625 78.726562 C 220.441406 76.945312 217.691406 75.292969 215.875 74.160156 Z M 215.875 74.160156 " fill-opacity="1" fill-rule="evenodd"/><path fill="#000000" d="M 204.433594 40.453125 L 209.144531 35.15625 L 216.207031 40.785156 L 211.695312 45.929688 Z M 204.433594 40.453125 " fill-opacity="1" fill-rule="evenodd"/><path fill="#000000" d="M 215.703125 40.453125 L 220.414062 35.15625 L 227.476562 40.785156 L 222.964844 45.929688 Z M 215.703125 40.453125 " fill-opacity="1" fill-rule="evenodd"/><path fill="#000000" d="M 157.332031 44.816406 L 161.9375 39.519531 L 168.835938 45.148438 L 164.429688 50.292969 Z M 157.332031 44.816406 " fill-opacity="1" fill-rule="evenodd"/><path fill="#000000" d="M 147.175781 119.195312 L 151.78125 113.898438 L 158.679688 119.527344 L 154.273438 124.671875 Z M 147.175781 119.195312 " fill-opacity="1" fill-rule="evenodd"/><path fill="#000000" d="M 302.898438 57.816406 C 302.898438 57.816406 289.371094 71.164062 281.835938 74.792969 C 281.835938 74.792969 282.160156 75.875 291.9375 69.308594 C 291.9375 69.308594 299.53125 64.421875 303.882812 58.523438 C 303.882812 58.523438 305.300781 59.679688 305.667969 59.988281 C 305.667969 59.988281 307.390625 58.125 306.605469 57.253906 L 305.359375 56.125 C 305.359375 56.125 307.859375 50.703125 305.648438 49.414062 C 305.648438 49.414062 303.003906 47.5625 300.203125 52.585938 C 300.203125 52.585938 299.0625 54.664062 300.738281 56.050781 Z M 301.730469 52.851562 C 301.730469 52.851562 301.953125 51.015625 303.523438 51.375 C 303.523438 51.375 305.3125 51.929688 304.542969 55.371094 C 304.542969 55.371094 302.640625 54.347656 301.730469 52.851562 Z M 301.730469 52.851562 " fill-opacity="1" fill-rule="evenodd"/><path fill="#000000" d="M 269.714844 55.371094 C 269.714844 55.371094 274.351562 46.289062 276.265625 45.304688 C 276.265625 45.304688 293.972656 45.085938 295.394531 47.816406 C 295.394531 47.816406 296.859375 52.3125 283.125 63.839844 L 268.574219 66.058594 C 268.574219 66.058594 265.730469 66.988281 276.378906 61.5 L 286.800781 56.058594 C 286.800781 56.058594 280.40625 53.417969 269.714844 55.371094 Z M 269.714844 55.371094 " fill-opacity="1" fill-rule="evenodd"/><path fill="#000000" d="M 114.320312 67.933594 C 114.320312 67.933594 117.222656 61.609375 118.417969 60.921875 C 118.417969 60.921875 129.488281 60.769531 130.378906 62.671875 C 130.378906 62.671875 131.292969 65.800781 122.707031 73.832031 L 113.609375 75.375 C 113.609375 75.375 111.828125 76.027344 118.488281 72.199219 L 125.003906 68.414062 C 125.003906 68.414062 121.003906 66.574219 114.320312 67.933594 Z M 114.320312 67.933594 " fill-opacity="1" fill-rule="evenodd"/><path fill="#000000" d="M 169.214844 80.253906 C 169.320312 80.339844 169.585938 80.699219 169.691406 80.882812 C 169.972656 81.371094 170.289062 81.824219 170.621094 82.277344 C 171.660156 83.703125 172.824219 84.796875 174.59375 85.21875 C 177.921875 86.015625 181.683594 84.171875 183.859375 81.726562 C 184.511719 80.992188 185.257812 80.148438 185.472656 79.160156 C 185.632812 78.410156 185.503906 77.410156 185.441406 76.617188 C 185.285156 74.546875 185.0625 72.476562 184.8125 70.417969 C 183.835938 62.476562 179.726562 35.863281 179.050781 34.253906 C 178.371094 32.648438 177.40625 31.351562 177.054688 30.941406 C 177.222656 30.699219 177.160156 29.960938 177.207031 29.675781 C 177.398438 28.496094 177.570312 27.3125 177.8125 26.140625 C 177.886719 25.78125 177.980469 24.828125 178.421875 24.691406 C 178.742188 24.585938 179.011719 25.015625 179.15625 25.226562 C 179.710938 26.027344 180.160156 26.894531 180.585938 27.765625 C 181.984375 30.640625 183.417969 33.496094 184.796875 36.378906 C 185.167969 37.15625 186.359375 38.925781 186.136719 39.84375 C 186.054688 40.175781 185.539062 39.621094 185.457031 39.539062 C 184.875 38.980469 184.347656 38.308594 183.878906 37.65625 C 183.824219 37.578125 183.265625 36.628906 183.183594 36.917969 C 182.90625 37.90625 189.300781 69.839844 187.929688 79.691406 C 187.375 83.664062 184.925781 86.242188 181.253906 88.324219 C 175.085938 91.828125 166.464844 88.191406 165.046875 81.171875 C 165.042969 81.152344 163.703125 82.035156 163.632812 82.082031 C 162.746094 82.671875 161.859375 83.261719 160.957031 83.835938 C 158.210938 85.585938 155.453125 87.125 152.449219 88.382812 C 152.183594 88.496094 153.519531 88.636719 153.675781 88.671875 C 154.460938 88.851562 155.25 89.019531 156.039062 89.1875 C 158.761719 89.761719 161.488281 90.3125 164.222656 90.820312 C 170.644531 92.011719 177.09375 92.925781 183.585938 93.625 C 185.15625 93.792969 186.746094 93.992188 188.328125 93.984375 C 188.449219 93.984375 189.609375 93.882812 189.65625 93.972656 C 189.800781 94.277344 188.820312 95.242188 188.65625 95.429688 C 187.753906 96.472656 186.824219 97.503906 185.996094 98.605469 C 185.832031 98.824219 185.394531 99.726562 185.097656 99.8125 C 184.167969 100.085938 182.765625 99.753906 181.820312 99.71875 C 179.457031 99.628906 177.09375 99.617188 174.726562 99.726562 C 169.617188 99.964844 164.910156 101.460938 160.007812 102.761719 C 160.222656 102.828125 159.582031 102.890625 159.367188 102.945312 C 158.957031 103.046875 158.554688 103.164062 158.148438 103.277344 C 156.925781 103.628906 155.679688 103.90625 154.453125 104.242188 C 150.671875 105.273438 146.894531 106.265625 143.082031 107.175781 C 134.550781 109.210938 125.058594 110.144531 116.453125 108.027344 C 113.390625 107.273438 109.816406 106.152344 107.257812 104.214844 C 107.246094 104.207031 107.316406 105.128906 107.320312 105.226562 C 107.351562 106.015625 107.359375 106.804688 107.339844 107.597656 C 107.285156 110.148438 107.449219 112.472656 105.539062 114.398438 C 100.859375 119.128906 94.660156 122.734375 88.769531 125.730469 C 85.066406 127.617188 80.800781 129.457031 76.539062 129.210938 C 71.375 128.910156 67.945312 125.320312 66.335938 120.640625 C 64.101562 114.128906 65.105469 104.910156 70.558594 100.097656 C 70.566406 100.007812 70.585938 99.964844 70.640625 100.027344 C 70.613281 100.050781 70.585938 100.074219 70.558594 100.097656 C 70.546875 100.257812 70.570312 100.558594 70.523438 100.695312 C 70.359375 101.1875 70.183594 101.679688 70.027344 102.171875 C 69.539062 103.699219 69.160156 105.289062 68.878906 106.863281 C 68.015625 111.765625 68.933594 119.234375 73.820312 121.933594 C 77.023438 123.703125 80.78125 122.996094 84.113281 122.050781 C 91.050781 120.082031 99.0625 116.371094 103.171875 110.171875 C 103.046875 110.363281 103.296875 109.738281 103.339844 109.515625 C 103.429688 109.070312 103.488281 108.625 103.523438 108.171875 C 103.617188 106.914062 103.65625 105.527344 103.34375 104.300781 C 102.917969 102.621094 101.425781 101.082031 101.148438 99.4375 C 100.816406 97.445312 102.429688 94.933594 102.78125 92.933594 C 102.730469 92.824219 102.71875 92.761719 102.796875 92.832031 C 102.792969 92.867188 102.789062 92.898438 102.78125 92.933594 C 102.863281 93.109375 103.039062 93.40625 103.0625 93.449219 C 103.300781 93.871094 103.574219 94.273438 103.859375 94.660156 C 104.765625 95.882812 105.695312 97.09375 106.871094 98.078125 C 110.496094 101.121094 114.644531 102.265625 119.265625 102.929688 C 123.949219 103.605469 128.75 104.046875 133.484375 103.710938 C 138.292969 103.371094 143.046875 102.210938 147.710938 101.058594 C 151.945312 100.015625 156.433594 98.875 160.390625 96.988281 C 158.972656 96.296875 156.734375 96.332031 155.207031 96.109375 C 151.648438 95.585938 148.089844 95.042969 144.566406 94.332031 C 143.257812 94.066406 141.96875 93.761719 140.703125 93.328125 C 140.519531 93.265625 139.683594 93.117188 139.65625 92.863281 C 139.601562 92.375 140.984375 91.238281 141.265625 90.914062 C 142.789062 89.167969 144.292969 87.292969 145.984375 85.703125 C 145.960938 85.644531 147.183594 85.210938 147.261719 85.183594 C 148.753906 84.648438 150.226562 84.078125 151.703125 83.5 C 155.667969 81.953125 163.476562 77.914062 163.472656 77.882812 C 163.441406 77.4375 163.402344 76.992188 163.359375 76.546875 C 163.226562 75.203125 162.898438 73.441406 162.875 72.089844 C 162.820312 68.859375 163.230469 65.867188 164.613281 62.878906 C 165.191406 61.628906 166.207031 60.152344 167.644531 59.8125 C 170.46875 59.144531 172.554688 63.085938 173.546875 65.082031 C 174.414062 66.832031 175.347656 68.972656 175.359375 70.960938 C 175.371094 73.335938 173.65625 75.375 172.207031 77.167969 C 171.433594 78.121094 170.453125 79.183594 169.214844 80.253906 Z M 167.078125 76.90625 C 167.042969 76.921875 166.679688 75.65625 166.671875 75.625 C 166.460938 74.792969 166.320312 73.945312 166.230469 73.09375 C 166.0625 71.476562 166.015625 69.753906 166.378906 68.15625 C 166.519531 67.550781 166.765625 66.726562 167.3125 66.355469 C 168.007812 65.882812 168.925781 66.386719 169.46875 66.863281 C 170.585938 67.839844 171.632812 69.375 171.730469 70.925781 C 171.773438 71.5625 171.6875 72.347656 171.300781 72.816406 C 170.304688 74.019531 169.269531 75.582031 167.078125 76.90625 Z M 167.078125 76.90625 " fill-opacity="1" fill-rule="evenodd"/><path fill="#000000" d="M 233.921875 62.773438 L 232.660156 66.113281 L 259.503906 54.875 L 261.21875 51.140625 Z M 233.921875 62.773438 " fill-opacity="1" fill-rule="evenodd"/><path fill="#000000" d="M 134.152344 43.664062 L 132.890625 47.003906 L 159.734375 35.765625 L 161.449219 32.03125 Z M 134.152344 43.664062 " fill-opacity="1" fill-rule="evenodd"/><path fill="#000000" d="M 242.789062 72.21875 L 242.109375 73.285156 L 239.546875 70.910156 C 239.546875 70.910156 238.765625 66.300781 241.511719 67.390625 C 241.511719 67.390625 245.605469 69.21875 246.9375 76.199219 C 246.9375 76.199219 248.945312 65.402344 251.855469 66.15625 C 251.855469 66.15625 254.011719 66.558594 254.449219 68.730469 L 253.003906 71.351562 C 253.003906 71.351562 250.871094 66.417969 249.261719 71.839844 C 249.261719 71.839844 247.476562 80.53125 246.410156 81.039062 C 246.410156 81.039062 246.328125 82.210938 244.96875 76.175781 C 244.96875 76.175781 243.289062 72.199219 242.789062 72.21875 Z M 242.789062 72.21875 " fill-opacity="1" fill-rule="evenodd"/><path fill="#000000" d="M 242.789062 43.894531 L 242.109375 44.960938 L 239.546875 42.585938 C 239.546875 42.585938 238.765625 37.980469 241.511719 39.070312 C 241.511719 39.070312 245.605469 40.898438 246.9375 47.878906 C 246.9375 47.878906 248.945312 37.082031 251.855469 37.832031 C 251.855469 37.832031 254.011719 38.234375 254.449219 40.410156 L 253.003906 43.03125 C 253.003906 43.03125 250.871094 38.09375 249.261719 43.519531 C 249.261719 43.519531 247.476562 52.210938 246.410156 52.714844 C 246.410156 52.714844 246.328125 53.886719 244.96875 47.855469 C 244.96875 47.855469 243.289062 43.878906 242.789062 43.894531 Z M 242.789062 43.894531 " fill-opacity="1" fill-rule="evenodd"/><path fill="#000000" d="M 145.675781 62.109375 L 144.996094 63.175781 L 142.429688 60.800781 C 142.429688 60.800781 141.652344 56.191406 144.398438 57.28125 C 144.398438 57.28125 148.488281 59.113281 149.820312 66.09375 C 149.820312 66.09375 151.828125 55.296875 154.742188 56.046875 C 154.742188 56.046875 156.898438 56.449219 157.335938 58.625 L 155.890625 61.246094 C 155.890625 61.246094 153.757812 56.308594 152.148438 61.734375 C 152.148438 61.734375 150.363281 70.425781 149.296875 70.929688 C 149.296875 70.929688 149.214844 72.101562 147.855469 66.070312 C 147.855469 66.070312 146.171875 62.089844 145.675781 62.109375 Z M 145.675781 62.109375 " fill-opacity="1" fill-rule="evenodd"/><path fill="#000000" d="M 214.566406 95.023438 C 214.46875 94.984375 213.914062 96.003906 213.871094 96.078125 C 213.082031 97.445312 212.289062 98.808594 211.546875 100.199219 C 209.660156 103.734375 207.660156 107.304688 207.058594 111.238281 C 206.804688 112.917969 206.714844 114.816406 207.519531 116.394531 C 208.414062 118.144531 210.734375 118.988281 212.445312 117.632812 C 214 116.398438 214.929688 114.40625 215.359375 112.605469 C 215.503906 112 215.730469 111.273438 215.617188 110.652344 C 215.585938 110.496094 215.492188 110.085938 215.230469 110.257812 C 214.070312 111.007812 213.753906 114.40625 211.601562 113.097656 C 211.367188 112.953125 211.148438 112.773438 210.960938 112.578125 C 210.671875 112.277344 210.460938 111.925781 210.292969 111.558594 C 209.628906 110.109375 209.789062 108.480469 210.246094 107 C 211.023438 104.476562 212.46875 102.09375 213.664062 99.71875 C 214.335938 98.378906 215.984375 95.570312 214.566406 95.023438 Z M 214.566406 95.023438 " fill-opacity="1" fill-rule="evenodd"/><path fill="#000000" d="M 181.125 125.539062 C 181.21875 125.574219 181.777344 124.558594 181.816406 124.484375 C 182.609375 123.117188 183.402344 121.75 184.140625 120.363281 C 186.027344 116.824219 188.027344 113.253906 188.628906 109.324219 C 188.886719 107.640625 188.976562 105.746094 188.167969 104.164062 C 187.277344 102.417969 184.957031 101.574219 183.246094 102.929688 C 181.6875 104.164062 180.757812 106.15625 180.328125 107.957031 C 180.183594 108.558594 179.957031 109.289062 180.074219 109.910156 C 180.101562 110.066406 180.195312 110.472656 180.457031 110.300781 C 181.617188 109.550781 181.933594 106.152344 184.085938 107.464844 C 184.320312 107.609375 184.539062 107.785156 184.726562 107.980469 C 185.015625 108.285156 185.226562 108.632812 185.394531 109 C 186.058594 110.453125 185.898438 112.078125 185.441406 113.558594 C 184.664062 116.082031 183.222656 118.464844 182.023438 120.84375 C 181.351562 122.179688 179.703125 124.992188 181.125 125.539062 Z M 181.125 125.539062 " fill-opacity="1" fill-rule="evenodd"/><path fill="#000000" d="M 299.285156 97.34375 C 299.339844 97.34375 299.238281 97.441406 299.214844 97.484375 C 299.152344 97.597656 299.082031 97.703125 299.015625 97.8125 C 298.839844 98.113281 298.53125 98.476562 298.457031 98.820312 C 298.386719 99.160156 298.972656 99.433594 298.820312 99.863281 C 298.722656 100.136719 298.414062 100.253906 298.167969 100.324219 C 297.527344 100.507812 296.691406 100.316406 296.351562 99.6875 C 296.089844 99.207031 296.332031 98.679688 296.550781 98.238281 C 296.597656 98.144531 296.824219 97.789062 296.660156 97.703125 C 296.363281 97.554688 295.875 98.402344 295.761719 98.558594 C 295.164062 99.390625 294.46875 100.757812 293.429688 101.089844 C 292.613281 101.355469 291.691406 100.871094 290.90625 100.703125 C 290.054688 100.523438 289.144531 100.621094 288.332031 100.921875 C 286.289062 101.671875 284.46875 103.105469 282.769531 104.449219 C 280.488281 106.25 277.808594 108.085938 275.402344 109.707031 C 275.480469 109.726562 275.253906 109.785156 275.183594 109.828125 C 275.03125 109.917969 274.878906 110.003906 274.722656 110.09375 C 274.246094 110.371094 273.761719 110.644531 273.28125 110.925781 C 271.722656 111.847656 270.109375 112.691406 268.492188 113.496094 C 267.839844 113.820312 267.183594 114.132812 266.535156 114.453125 C 266.488281 114.476562 265.886719 114.757812 266.050781 114.902344 C 266.15625 114.996094 266.523438 114.902344 266.648438 114.890625 C 267.269531 114.8125 267.875 114.613281 268.480469 114.453125 C 271.207031 113.738281 273.585938 112.960938 275.957031 111.34375 C 278.757812 109.429688 281.394531 107.28125 284.128906 105.273438 C 285.609375 104.183594 287.21875 102.847656 288.988281 102.289062 C 290.535156 101.796875 291.710938 103.558594 293.269531 103.078125 C 294.039062 102.839844 294.609375 102.078125 295.054688 101.433594 C 295.109375 101.355469 295.445312 100.679688 295.554688 100.699219 C 295.621094 100.707031 295.695312 100.957031 295.710938 101.007812 C 295.808594 101.292969 295.898438 101.59375 296.089844 101.832031 C 296.574219 102.4375 297.558594 102.53125 298.25 102.351562 C 299.984375 101.902344 300.042969 98.535156 299.285156 97.34375 Z M 299.285156 97.34375 " fill-opacity="1" fill-rule="evenodd"/></svg>