<svg xmlns="http://www.w3.org/2000/svg" xmlns:xlink="http://www.w3.org/1999/xlink" width="500" zoomAndPan="magnify" viewBox="0 0 375 149.999998" height="200" preserveAspectRatio="xMidYMid meet" version="1.0"><defs><clipPath id="0c8547522f"><path d="M 302 80 L 342 80 L 342 128.859375 L 302 128.859375 Z M 302 80 " clip-rule="nonzero"/></clipPath><clipPath id="38faff988c"><path d="M 33 80 L 73 80 L 73 128.859375 L 33 128.859375 Z M 33 80 " clip-rule="nonzero"/></clipPath><clipPath id="aa7c100fad"><path d="M 112 99 L 165 99 L 165 128.859375 L 112 128.859375 Z M 112 99 " clip-rule="nonzero"/></clipPath><clipPath id="4b17f69427"><path d="M 194 20.859375 L 214 20.859375 L 214 97 L 194 97 Z M 194 20.859375 " clip-rule="nonzero"/></clipPath></defs><path fill="#000000" d="M 302.371094 21.597656 C 302.121094 21.535156 302.886719 21.640625 303.140625 21.6875 C 303.628906 21.78125 304.113281 21.886719 304.601562 21.980469 C 306.007812 22.246094 307.378906 22.582031 308.738281 23.046875 C 312.835938 24.457031 316.769531 26.566406 320.371094 29.042969 C 329.09375 35.023438 335.621094 44.007812 339.226562 54.25 C 340.105469 56.742188 340.863281 59.285156 341.476562 61.863281 C 341.695312 62.789062 342.226562 64.109375 341.816406 65.050781 C 341.09375 66.695312 339.195312 67.730469 337.859375 68.746094 C 338.035156 68.957031 337.332031 68.8125 337.070312 68.859375 C 336.53125 68.957031 335.953125 68.734375 335.453125 68.535156 C 334.054688 67.980469 332.65625 66.769531 331.332031 65.976562 C 330.265625 65.332031 330.210938 63.738281 329.890625 62.589844 C 329.203125 60.128906 328.328125 57.726562 327.386719 55.359375 C 322.550781 43.175781 312.289062 29.742188 302.371094 21.597656 Z M 302.371094 21.597656 " fill-opacity="1" fill-rule="evenodd"/><g clip-path="url(#0c8547522f)"><path fill="#000000" d="M 302.371094 128.214844 C 302.121094 128.273438 302.886719 128.171875 303.140625 128.121094 C 303.628906 128.03125 304.113281 127.925781 304.601562 127.832031 C 306.007812 127.566406 307.378906 127.230469 308.738281 126.761719 C 312.835938 125.351562 316.769531 123.242188 320.371094 120.769531 C 329.09375 114.785156 335.621094 105.804688 339.226562 95.5625 C 340.105469 93.070312 340.863281 90.527344 341.476562 87.945312 C 341.695312 87.019531 342.226562 85.699219 341.816406 84.761719 C 341.09375 83.117188 339.195312 82.078125 337.859375 81.066406 C 338.035156 80.855469 337.332031 81 337.070312 80.953125 C 336.53125 80.851562 335.953125 81.078125 335.453125 81.273438 C 334.054688 81.832031 332.65625 83.042969 331.332031 83.835938 C 330.265625 84.480469 330.210938 86.070312 329.890625 87.21875 C 329.203125 89.679688 328.328125 92.085938 327.386719 94.453125 C 322.550781 106.636719 312.289062 120.070312 302.371094 128.214844 Z M 302.371094 128.214844 " fill-opacity="1" fill-rule="evenodd"/></g><path fill="#000000" d="M 351.121094 68.320312 C 350.96875 68.234375 350.824219 68.160156 350.742188 68.101562 C 349.917969 67.527344 349.207031 66.867188 348.632812 66.015625 C 346.636719 63.058594 345.953125 59.371094 343.960938 56.394531 C 343.296875 55.402344 342.476562 54.546875 341.5625 53.804688 C 341.152344 53.472656 340.710938 53.1875 340.300781 52.855469 C 340.207031 52.777344 339.972656 52.582031 339.886719 52.425781 C 339.753906 52.183594 339.765625 51.941406 339.859375 51.738281 C 339.921875 51.601562 340.046875 51.421875 340.34375 51.339844 C 341.582031 51 343.3125 51.519531 344.46875 51.894531 C 347.71875 52.945312 350.933594 54.914062 352.929688 57.871094 C 353.46875 58.667969 353.851562 59.578125 354.246094 60.472656 C 354.601562 61.285156 354.964844 62.085938 355.5 62.757812 C 355.871094 63.21875 356.347656 63.535156 356.839844 63.828125 C 357.414062 64.164062 358.015625 64.464844 358.554688 64.839844 C 360.109375 65.925781 361.117188 67.636719 361.84375 69.402344 C 362.074219 69.972656 362.292969 70.554688 362.464844 71.148438 C 362.535156 71.382812 362.589844 71.625 362.632812 71.867188 C 362.644531 71.9375 362.644531 72.109375 362.644531 72.214844 C 362.648438 72.265625 362.648438 72.316406 362.640625 72.371094 C 362.582031 72.75 362.351562 72.875 362.15625 72.910156 C 360.679688 73.472656 359.210938 74.050781 357.75 74.652344 L 357.660156 74.6875 C 358.597656 75.175781 359.53125 75.671875 360.464844 76.164062 C 360.667969 76.269531 361.210938 76.433594 361.566406 76.636719 C 361.863281 76.804688 362.058594 77.019531 362.140625 77.210938 C 362.214844 77.386719 362.242188 77.625 362.203125 77.894531 C 362.152344 78.21875 361.996094 78.617188 361.9375 78.808594 C 361.574219 80.019531 361.03125 81.207031 360.378906 82.273438 C 359.773438 83.269531 359.050781 84.175781 358.175781 84.917969 C 357.027344 85.886719 355.675781 86.601562 354.75 87.835938 C 354.105469 88.695312 353.726562 89.699219 353.328125 90.699219 C 352.878906 91.816406 352.414062 92.921875 351.640625 93.871094 C 349.652344 96.3125 346.769531 97.90625 343.714844 98.164062 C 343.015625 98.222656 342.300781 98.265625 341.605469 98.210938 C 341.507812 98.207031 341.074219 98.179688 340.878906 98.082031 C 340.648438 97.96875 340.53125 97.785156 340.488281 97.601562 C 340.4375 97.402344 340.457031 97.121094 340.714844 96.890625 C 340.835938 96.78125 341.222656 96.609375 341.289062 96.582031 C 341.71875 96.363281 342.125 96.105469 342.523438 95.828125 C 343.570312 95.101562 344.476562 94.179688 345.21875 93.113281 C 345.851562 92.199219 346.410156 91.183594 346.84375 90.148438 C 346.980469 89.832031 347.113281 89.503906 347.203125 89.167969 C 347.210938 89.117188 347.234375 88.933594 347.265625 88.820312 C 347.207031 87.773438 347.039062 86.722656 347.09375 85.734375 C 347.15625 84.554688 347.515625 83.460938 348.605469 82.542969 C 349.710938 81.613281 351.019531 81.097656 352.269531 80.4375 C 352.34375 80.394531 352.511719 80.304688 352.644531 80.230469 C 352.203125 79.714844 351.460938 79.335938 350.9375 79.015625 C 349.269531 78.003906 347.453125 77.246094 345.664062 76.496094 C 344.871094 76.164062 344.070312 75.847656 343.257812 75.574219 C 342.9375 75.464844 342.617188 75.359375 342.292969 75.273438 L 342.222656 75.253906 C 340.929688 76.671875 339.414062 77.898438 338.023438 79.199219 C 337.640625 79.554688 337.253906 79.902344 336.871094 80.261719 C 336.835938 80.304688 336.671875 80.488281 336.585938 80.5625 C 336.507812 80.632812 336.429688 80.675781 336.378906 80.699219 C 336.136719 80.800781 335.945312 80.738281 335.820312 80.65625 C 334.042969 79.53125 332.292969 78.375 330.550781 77.199219 C 329.964844 76.804688 329.390625 76.402344 328.800781 76.015625 C 328.613281 75.894531 328.421875 75.769531 328.230469 75.652344 C 328.160156 75.613281 328.09375 75.570312 328.027344 75.523438 C 327.910156 75.480469 327.808594 75.398438 327.738281 75.289062 C 327.570312 75.035156 327.625 74.832031 327.648438 74.738281 C 327.695312 74.566406 327.792969 74.414062 327.964844 74.332031 C 330.609375 72.0625 333.511719 70.234375 336.386719 68.320312 C 336.613281 68.171875 336.90625 68.195312 337.109375 68.378906 C 337.726562 68.9375 339.960938 70.9375 340.582031 71.492188 C 341.160156 72.007812 341.734375 72.527344 342.316406 73.039062 C 342.449219 73.15625 342.597656 73.3125 342.757812 73.449219 C 342.84375 73.523438 342.933594 73.601562 343.023438 73.636719 C 343.074219 73.625 343.285156 73.5625 343.414062 73.503906 C 343.695312 73.371094 343.96875 73.203125 344.125 73.121094 C 345.609375 72.367188 346.855469 71.191406 348.203125 70.214844 C 349.0625 69.589844 349.953125 69.003906 350.863281 68.464844 C 350.925781 68.429688 351.019531 68.378906 351.121094 68.320312 Z M 341.976562 52.539062 C 342.730469 52.648438 343.511719 52.917969 344.113281 53.113281 C 347.113281 54.085938 350.097656 55.882812 351.941406 58.613281 C 352.980469 60.152344 353.421875 62.136719 354.570312 63.578125 C 355.4375 64.667969 356.785156 65.136719 357.882812 65.902344 C 359.238281 66.851562 360.09375 68.363281 360.726562 69.910156 C 360.941406 70.4375 361.144531 70.976562 361.308594 71.523438 C 361.335938 71.628906 361.363281 71.734375 361.386719 71.84375 C 360.019531 72.367188 358.660156 72.90625 357.304688 73.464844 C 357.179688 73.515625 356.351562 73.777344 356.03125 73.992188 C 355.703125 74.214844 355.628906 74.519531 355.636719 74.707031 C 355.652344 74.9375 355.78125 75.144531 355.980469 75.246094 C 357.300781 75.914062 358.609375 76.613281 359.921875 77.304688 C 360.058594 77.378906 360.347656 77.476562 360.636719 77.59375 C 360.738281 77.636719 360.878906 77.710938 360.972656 77.761719 C 360.917969 77.949219 360.8125 78.304688 360.78125 78.421875 C 360.449219 79.527344 359.949219 80.609375 359.355469 81.585938 C 358.820312 82.464844 358.1875 83.265625 357.414062 83.921875 C 356.195312 84.953125 354.78125 85.734375 353.796875 87.046875 C 353.085938 87.992188 352.648438 89.097656 352.207031 90.207031 C 351.808594 91.199219 351.410156 92.195312 350.71875 93.039062 C 348.9375 95.226562 346.355469 96.660156 343.617188 96.890625 C 343.460938 96.902344 343.304688 96.914062 343.148438 96.925781 L 343.191406 96.894531 C 344.363281 96.085938 345.375 95.054688 346.199219 93.863281 C 346.882812 92.878906 347.484375 91.785156 347.953125 90.667969 C 348.117188 90.28125 348.277344 89.886719 348.378906 89.480469 C 348.390625 89.441406 348.414062 89.292969 348.421875 89.222656 C 348.46875 89.125 348.488281 89.019531 348.484375 88.90625 C 348.449219 88.054688 348.320312 87.195312 348.300781 86.371094 C 348.269531 85.320312 348.421875 84.332031 349.363281 83.539062 C 350.402344 82.667969 351.640625 82.199219 352.8125 81.578125 C 353.035156 81.460938 353.453125 81.277344 353.683594 81.035156 C 353.839844 80.875 353.9375 80.683594 353.972656 80.484375 C 354.015625 80.265625 353.988281 80.019531 353.824219 79.757812 C 353.339844 78.976562 352.285156 78.359375 351.546875 77.910156 C 349.824219 76.867188 347.957031 76.085938 346.117188 75.3125 C 345.464844 75.039062 344.816406 74.78125 344.15625 74.542969 C 344.355469 74.4375 344.535156 74.332031 344.65625 74.269531 C 346.195312 73.488281 347.496094 72.277344 348.894531 71.265625 C 349.722656 70.660156 350.582031 70.097656 351.460938 69.578125 C 351.640625 69.46875 352.03125 69.265625 352.253906 69.027344 C 352.453125 68.8125 352.554688 68.558594 352.554688 68.308594 C 352.558594 68.046875 352.445312 67.78125 352.210938 67.558594 C 351.976562 67.335938 351.574219 67.152344 351.414062 67.039062 C 350.714844 66.550781 350.109375 65.996094 349.621094 65.277344 C 347.628906 62.324219 346.945312 58.632812 344.957031 55.660156 C 344.222656 54.5625 343.316406 53.613281 342.304688 52.792969 C 342.195312 52.707031 342.085938 52.621094 341.976562 52.539062 Z M 336.65625 69.652344 C 337.523438 70.433594 339.257812 71.984375 339.796875 72.464844 C 340.375 72.984375 340.949219 73.5 341.53125 74.015625 L 341.597656 74.074219 C 341.566406 74.105469 341.542969 74.140625 341.523438 74.171875 C 340.21875 75.648438 338.648438 76.90625 337.21875 78.242188 C 336.832031 78.601562 336.441406 78.953125 336.054688 79.316406 C 334.425781 78.273438 332.8125 77.207031 331.203125 76.125 C 330.617188 75.726562 330.035156 75.320312 329.445312 74.933594 L 329.304688 74.839844 C 331.636719 72.917969 334.152344 71.3125 336.65625 69.652344 Z M 336.65625 69.652344 " fill-opacity="1" fill-rule="evenodd"/><path fill="#000000" d="M 374.992188 75.335938 L 362.640625 72.371094 L 356.992188 74.734375 L 361.679688 77.085938 Z M 374.992188 75.335938 " fill-opacity="1" fill-rule="evenodd"/><path fill="#000000" d="M 72.597656 21.597656 C 72.847656 21.535156 72.082031 21.640625 71.828125 21.6875 C 71.339844 21.78125 70.851562 21.886719 70.363281 21.980469 C 68.957031 22.246094 67.585938 22.582031 66.230469 23.046875 C 62.128906 24.457031 58.199219 26.566406 54.59375 29.042969 C 45.875 35.023438 39.34375 44.007812 35.738281 54.25 C 34.863281 56.742188 34.105469 59.285156 33.492188 61.863281 C 33.269531 62.789062 32.738281 64.109375 33.152344 65.050781 C 33.871094 66.695312 35.773438 67.730469 37.105469 68.746094 C 36.933594 68.957031 37.632812 68.8125 37.898438 68.859375 C 38.433594 68.957031 39.015625 68.734375 39.511719 68.535156 C 40.910156 67.980469 42.308594 66.769531 43.632812 65.976562 C 44.703125 65.332031 44.753906 63.738281 45.074219 62.589844 C 45.765625 60.128906 46.640625 57.726562 47.582031 55.359375 C 52.414062 43.175781 62.679688 29.742188 72.597656 21.597656 Z M 72.597656 21.597656 " fill-opacity="1" fill-rule="evenodd"/><g clip-path="url(#38faff988c)"><path fill="#000000" d="M 72.597656 128.214844 C 72.847656 128.273438 72.082031 128.171875 71.828125 128.121094 C 71.339844 128.03125 70.851562 127.925781 70.363281 127.832031 C 68.957031 127.566406 67.585938 127.230469 66.230469 126.761719 C 62.128906 125.351562 58.199219 123.242188 54.59375 120.769531 C 45.875 114.785156 39.34375 105.804688 35.738281 95.5625 C 34.863281 93.070312 34.105469 90.527344 33.492188 87.945312 C 33.269531 87.019531 32.738281 85.699219 33.152344 84.761719 C 33.871094 83.117188 35.773438 82.078125 37.105469 81.066406 C 36.933594 80.855469 37.632812 81 37.898438 80.953125 C 38.433594 80.851562 39.015625 81.078125 39.511719 81.273438 C 40.910156 81.832031 42.308594 83.042969 43.632812 83.835938 C 44.703125 84.480469 44.753906 86.070312 45.074219 87.21875 C 45.765625 89.679688 46.640625 92.085938 47.582031 94.453125 C 52.414062 106.636719 62.679688 120.070312 72.597656 128.214844 Z M 72.597656 128.214844 " fill-opacity="1" fill-rule="evenodd"/></g><path fill="#000000" d="M 23.847656 68.320312 C 24 68.234375 24.144531 68.160156 24.226562 68.101562 C 25.050781 67.527344 25.761719 66.867188 26.335938 66.015625 C 28.332031 63.058594 29.011719 59.371094 31.003906 56.394531 C 31.667969 55.402344 32.492188 54.546875 33.40625 53.804688 C 33.816406 53.472656 34.257812 53.1875 34.664062 52.855469 C 34.761719 52.777344 34.992188 52.582031 35.078125 52.425781 C 35.214844 52.183594 35.203125 51.941406 35.109375 51.738281 C 35.042969 51.601562 34.921875 51.421875 34.621094 51.339844 C 33.382812 51 31.65625 51.519531 30.496094 51.894531 C 27.246094 52.945312 24.03125 54.914062 22.035156 57.871094 C 21.5 58.667969 21.117188 59.578125 20.722656 60.472656 C 20.367188 61.285156 20 62.085938 19.464844 62.757812 C 19.097656 63.21875 18.621094 63.535156 18.125 63.828125 C 17.550781 64.164062 16.949219 64.464844 16.410156 64.839844 C 14.859375 65.925781 13.847656 67.636719 13.125 69.402344 C 12.890625 69.972656 12.675781 70.554688 12.5 71.148438 C 12.429688 71.382812 12.375 71.625 12.332031 71.867188 C 12.320312 71.9375 12.320312 72.109375 12.324219 72.214844 C 12.316406 72.265625 12.320312 72.316406 12.328125 72.371094 C 12.382812 72.75 12.617188 72.875 12.8125 72.910156 C 14.289062 73.472656 15.757812 74.050781 17.21875 74.652344 L 17.304688 74.6875 C 16.367188 75.175781 15.433594 75.671875 14.5 76.164062 C 14.300781 76.269531 13.757812 76.433594 13.402344 76.636719 C 13.105469 76.804688 12.90625 77.019531 12.824219 77.210938 C 12.75 77.386719 12.722656 77.625 12.765625 77.894531 C 12.8125 78.21875 12.972656 78.617188 13.03125 78.808594 C 13.394531 80.019531 13.9375 81.207031 14.589844 82.273438 C 15.191406 83.269531 15.914062 84.175781 16.792969 84.917969 C 17.941406 85.886719 19.289062 86.601562 20.21875 87.835938 C 20.859375 88.695312 21.238281 89.699219 21.640625 90.699219 C 22.085938 91.816406 22.554688 92.921875 23.324219 93.871094 C 25.3125 96.3125 28.195312 97.90625 31.253906 98.164062 C 31.949219 98.222656 32.664062 98.265625 33.363281 98.210938 C 33.460938 98.207031 33.894531 98.179688 34.089844 98.082031 C 34.316406 97.96875 34.433594 97.785156 34.480469 97.601562 C 34.53125 97.402344 34.511719 97.121094 34.25 96.890625 C 34.132812 96.78125 33.746094 96.609375 33.679688 96.582031 C 33.25 96.363281 32.84375 96.105469 32.441406 95.828125 C 31.394531 95.101562 30.488281 94.179688 29.75 93.113281 C 29.113281 92.199219 28.558594 91.183594 28.121094 90.148438 C 27.988281 89.832031 27.851562 89.503906 27.765625 89.167969 C 27.757812 89.117188 27.730469 88.933594 27.703125 88.820312 C 27.757812 87.773438 27.929688 86.722656 27.875 85.734375 C 27.808594 84.554688 27.453125 83.460938 26.363281 82.542969 C 25.253906 81.613281 23.945312 81.097656 22.699219 80.4375 C 22.621094 80.394531 22.457031 80.304688 22.324219 80.230469 C 22.761719 79.714844 23.503906 79.335938 24.03125 79.015625 C 25.699219 78.003906 27.515625 77.246094 29.300781 76.496094 C 30.097656 76.164062 30.894531 75.847656 31.710938 75.574219 C 32.03125 75.464844 32.351562 75.359375 32.675781 75.273438 L 32.742188 75.253906 C 34.035156 76.671875 35.550781 77.898438 36.941406 79.199219 C 37.324219 79.554688 37.714844 79.902344 38.097656 80.261719 C 38.132812 80.304688 38.296875 80.488281 38.378906 80.5625 C 38.460938 80.632812 38.535156 80.675781 38.589844 80.699219 C 38.828125 80.800781 39.019531 80.738281 39.148438 80.65625 C 40.921875 79.53125 42.671875 78.375 44.417969 77.199219 C 45 76.804688 45.578125 76.402344 46.164062 76.015625 C 46.351562 75.894531 46.542969 75.769531 46.738281 75.652344 C 46.804688 75.613281 46.871094 75.570312 46.9375 75.523438 C 47.054688 75.480469 47.160156 75.398438 47.230469 75.289062 C 47.398438 75.035156 47.34375 74.832031 47.316406 74.738281 C 47.269531 74.566406 47.175781 74.414062 47.003906 74.332031 C 44.359375 72.0625 41.457031 70.234375 38.582031 68.320312 C 38.351562 68.171875 38.0625 68.195312 37.859375 68.378906 C 37.238281 68.9375 35.007812 70.9375 34.382812 71.492188 C 33.808594 72.007812 33.230469 72.527344 32.652344 73.039062 C 32.515625 73.15625 32.367188 73.3125 32.210938 73.449219 C 32.121094 73.523438 32.035156 73.601562 31.941406 73.636719 C 31.894531 73.625 31.679688 73.5625 31.554688 73.503906 C 31.273438 73.371094 31 73.203125 30.839844 73.121094 C 29.359375 72.367188 28.109375 71.191406 26.761719 70.214844 C 25.902344 69.589844 25.011719 69.003906 24.101562 68.464844 C 24.039062 68.429688 23.949219 68.378906 23.847656 68.320312 Z M 32.992188 52.539062 C 32.238281 52.648438 31.457031 52.917969 30.851562 53.113281 C 27.851562 54.085938 24.871094 55.882812 23.027344 58.613281 C 21.988281 60.152344 21.546875 62.136719 20.394531 63.578125 C 19.527344 64.667969 18.183594 65.136719 17.085938 65.902344 C 15.726562 66.851562 14.875 68.363281 14.242188 69.910156 C 14.023438 70.4375 13.824219 70.976562 13.660156 71.523438 C 13.628906 71.628906 13.601562 71.734375 13.578125 71.84375 C 14.945312 72.367188 16.308594 72.90625 17.660156 73.464844 C 17.789062 73.515625 18.613281 73.777344 18.933594 73.992188 C 19.265625 74.214844 19.339844 74.519531 19.328125 74.707031 C 19.316406 74.9375 19.183594 75.144531 18.988281 75.246094 C 17.664062 75.914062 16.359375 76.613281 15.042969 77.304688 C 14.90625 77.378906 14.621094 77.476562 14.332031 77.59375 C 14.226562 77.636719 14.089844 77.710938 13.992188 77.761719 C 14.046875 77.949219 14.152344 78.304688 14.1875 78.421875 C 14.519531 79.527344 15.015625 80.609375 15.609375 81.585938 C 16.144531 82.464844 16.777344 83.265625 17.554688 83.921875 C 18.769531 84.953125 20.183594 85.734375 21.171875 87.046875 C 21.878906 87.992188 22.316406 89.097656 22.757812 90.207031 C 23.15625 91.199219 23.558594 92.195312 24.246094 93.039062 C 26.03125 95.226562 28.613281 96.660156 31.351562 96.890625 C 31.507812 96.902344 31.664062 96.914062 31.820312 96.925781 L 31.773438 96.894531 C 30.605469 96.085938 29.59375 95.054688 28.769531 93.863281 C 28.085938 92.878906 27.480469 91.785156 27.011719 90.667969 C 26.851562 90.28125 26.6875 89.886719 26.585938 89.480469 C 26.574219 89.441406 26.554688 89.292969 26.542969 89.222656 C 26.5 89.125 26.476562 89.019531 26.480469 88.90625 C 26.519531 88.054688 26.648438 87.195312 26.667969 86.371094 C 26.695312 85.320312 26.542969 84.332031 25.601562 83.539062 C 24.5625 82.667969 23.324219 82.199219 22.152344 81.578125 C 21.933594 81.460938 21.515625 81.277344 21.285156 81.035156 C 21.125 80.875 21.027344 80.683594 20.992188 80.484375 C 20.953125 80.265625 20.976562 80.019531 21.140625 79.757812 C 21.628906 78.976562 22.679688 78.359375 23.421875 77.910156 C 25.140625 76.867188 27.011719 76.085938 28.851562 75.3125 C 29.5 75.039062 30.148438 74.78125 30.808594 74.542969 C 30.609375 74.4375 30.429688 74.332031 30.3125 74.269531 C 28.773438 73.488281 27.46875 72.277344 26.070312 71.265625 C 25.242188 70.660156 24.386719 70.097656 23.507812 69.578125 C 23.324219 69.46875 22.933594 69.265625 22.710938 69.027344 C 22.511719 68.8125 22.410156 68.558594 22.410156 68.308594 C 22.410156 68.046875 22.523438 67.78125 22.757812 67.558594 C 22.988281 67.335938 23.390625 67.152344 23.554688 67.039062 C 24.253906 66.550781 24.859375 65.996094 25.347656 65.277344 C 27.339844 62.324219 28.019531 58.632812 30.011719 55.660156 C 30.746094 54.5625 31.652344 53.613281 32.664062 52.792969 C 32.769531 52.707031 32.878906 52.621094 32.992188 52.539062 Z M 38.308594 69.652344 C 37.441406 70.433594 35.710938 71.984375 35.171875 72.464844 C 34.59375 72.984375 34.015625 73.5 33.433594 74.015625 L 33.367188 74.074219 C 33.398438 74.105469 33.421875 74.140625 33.445312 74.171875 C 34.75 75.648438 36.316406 76.90625 37.75 78.242188 C 38.136719 78.601562 38.527344 78.953125 38.910156 79.316406 C 40.542969 78.273438 42.15625 77.207031 43.761719 76.125 C 44.347656 75.726562 44.929688 75.320312 45.523438 74.933594 L 45.664062 74.839844 C 43.332031 72.917969 40.8125 71.3125 38.308594 69.652344 Z M 38.308594 69.652344 " fill-opacity="1" fill-rule="evenodd"/><path fill="#000000" d="M -0.0273438 75.335938 L 12.328125 72.371094 L 17.972656 74.734375 L 13.289062 77.085938 Z M -0.0273438 75.335938 " fill-opacity="1" fill-rule="evenodd"/><path fill="#000000" d="M 301.269531 76.066406 C 301.210938 76.046875 301.046875 76.320312 301.023438 76.351562 C 300.789062 76.65625 300.585938 76.980469 300.371094 77.300781 C 300.152344 77.617188 299.777344 78.066406 299.832031 78.484375 C 299.953125 79.414062 301.199219 80.851562 299.574219 81.226562 C 298.179688 81.554688 296.542969 80.203125 296.644531 78.785156 C 296.683594 78.261719 296.875 77.777344 297.023438 77.285156 C 297.046875 77.199219 297.15625 76.859375 296.988281 76.835938 C 296.570312 76.78125 295.910156 77.890625 295.71875 78.144531 C 294.742188 79.449219 293.945312 81.171875 292.425781 81.953125 C 291 82.683594 289.28125 82.019531 287.832031 81.683594 C 286.691406 81.421875 285.597656 81.460938 284.480469 81.808594 C 282.949219 82.28125 281.242188 83.765625 279.988281 84.667969 C 276.605469 87.113281 273.417969 89.816406 270.121094 92.378906 C 267.382812 94.507812 264.535156 96.535156 261.613281 98.394531 C 258.695312 100.25 255.820312 102.140625 252.734375 103.707031 C 252.019531 104.066406 251.296875 104.40625 250.585938 104.78125 C 250.4375 104.855469 249.875 105.007812 249.839844 105.210938 C 249.796875 105.441406 250.417969 105.433594 250.527344 105.441406 C 251.351562 105.488281 252.199219 105.226562 252.992188 105.023438 C 256.042969 104.25 259.597656 103.148438 262.375 101.636719 C 264.433594 100.515625 266.167969 98.761719 267.964844 97.28125 C 270.683594 95.046875 273.445312 92.871094 276.1875 90.667969 C 278.398438 88.886719 280.609375 87.007812 283.152344 85.703125 C 284.078125 85.226562 285.140625 84.773438 286.203125 84.863281 C 286.972656 84.933594 287.699219 85.410156 288.398438 85.703125 C 289.972656 86.359375 291.714844 86.523438 293.160156 85.449219 C 293.621094 85.109375 294.019531 84.683594 294.367188 84.226562 C 294.785156 83.679688 295.15625 83.078125 295.398438 82.429688 C 295 82.613281 296.285156 83.613281 296.382812 83.675781 C 297.472656 84.335938 299.015625 85.082031 300.078125 84.195312 C 303.414062 81.402344 301.671875 78.199219 301.269531 76.066406 Z M 301.269531 76.066406 " fill-opacity="1" fill-rule="evenodd"/><path fill="#000000" d="M 250.804688 32.476562 C 250.507812 32.570312 250.546875 33.199219 250.101562 33.183594 C 249.664062 33.167969 249.09375 32.542969 248.808594 32.324219 C 247.886719 31.605469 247.242188 31.132812 247.269531 30.042969 C 247.285156 29.398438 247.476562 28.160156 248.457031 27.953125 C 248.78125 27.886719 249.117188 27.980469 249.433594 28.042969 C 249.675781 28.09375 249.917969 28.15625 250.128906 28.269531 C 250.429688 28.429688 250.703125 28.648438 250.941406 28.863281 C 251.351562 29.234375 251.679688 29.65625 251.984375 30.082031 C 252.503906 30.816406 252.96875 31.554688 253.34375 32.339844 C 253.90625 33.507812 254.359375 34.707031 254.796875 35.90625 C 255.457031 33.871094 255.976562 31.800781 256.894531 29.820312 C 257.3125 28.921875 257.769531 27.859375 258.6875 27.191406 C 259.65625 26.484375 260.648438 27.09375 261.273438 27.800781 C 261.632812 28.207031 262.117188 28.789062 262.15625 29.296875 C 262.199219 29.851562 261.78125 30.496094 261.480469 30.980469 C 261.402344 31.105469 261.230469 31.457031 261.015625 31.484375 C 260.835938 31.507812 260.476562 31.074219 260.382812 30.980469 C 259.785156 30.410156 258.8125 29.332031 257.980469 30.316406 C 257.832031 30.492188 257.71875 30.691406 257.621094 30.886719 C 257.453125 31.203125 257.308594 31.53125 257.1875 31.863281 C 256.390625 34.054688 256.035156 36.324219 255.269531 38.515625 C 255.082031 39.050781 254.863281 39.605469 254.515625 40.089844 C 254.445312 40.1875 254.277344 40.484375 254.089844 40.464844 C 253.886719 40.449219 253.816406 40.136719 253.773438 40.023438 C 253.582031 39.503906 253.472656 38.964844 253.367188 38.429688 C 252.96875 36.433594 252.265625 34.183594 250.804688 32.476562 Z M 250.804688 32.476562 " fill-opacity="1" fill-rule="evenodd"/><path fill="#000000" d="M 251.238281 55.664062 C 250.976562 55.742188 251.007812 56.265625 250.613281 56.253906 C 250.222656 56.238281 249.71875 55.71875 249.464844 55.535156 C 248.648438 54.941406 248.074219 54.542969 248.097656 53.636719 C 248.109375 53.101562 248.28125 52.070312 249.152344 51.898438 C 249.441406 51.84375 249.742188 51.921875 250.019531 51.976562 C 250.234375 52.015625 250.449219 52.066406 250.636719 52.160156 C 250.90625 52.292969 251.148438 52.476562 251.359375 52.65625 C 251.726562 52.964844 252.015625 53.316406 252.289062 53.671875 C 252.75 54.28125 253.160156 54.894531 253.496094 55.546875 C 253.996094 56.519531 254.398438 57.519531 254.785156 58.519531 C 255.375 56.824219 255.835938 55.101562 256.652344 53.453125 C 257.023438 52.703125 257.429688 51.820312 258.246094 51.261719 C 259.109375 50.675781 259.988281 51.183594 260.542969 51.769531 C 260.863281 52.109375 261.292969 52.59375 261.328125 53.019531 C 261.367188 53.480469 260.996094 54.015625 260.730469 54.417969 C 260.660156 54.523438 260.507812 54.816406 260.316406 54.835938 C 260.15625 54.855469 259.835938 54.496094 259.753906 54.417969 C 259.222656 53.945312 258.359375 53.046875 257.617188 53.867188 C 257.484375 54.011719 257.386719 54.175781 257.296875 54.339844 C 257.148438 54.605469 257.019531 54.875 256.914062 55.152344 C 256.207031 56.976562 255.886719 58.863281 255.207031 60.691406 C 255.039062 61.136719 254.847656 61.59375 254.539062 62 C 254.476562 62.082031 254.328125 62.328125 254.160156 62.3125 C 253.980469 62.296875 253.917969 62.039062 253.878906 61.945312 C 253.707031 61.511719 253.609375 61.0625 253.515625 60.617188 C 253.164062 58.957031 252.539062 57.085938 251.238281 55.664062 Z M 251.238281 55.664062 " fill-opacity="1" fill-rule="evenodd"/><path fill="#000000" d="M 116.0625 56.070312 C 115.785156 56.164062 115.816406 56.808594 115.398438 56.792969 C 114.984375 56.777344 114.445312 56.140625 114.175781 55.910156 C 113.304688 55.179688 112.691406 54.695312 112.71875 53.578125 C 112.734375 52.917969 112.917969 51.648438 113.84375 51.4375 C 114.148438 51.371094 114.46875 51.46875 114.765625 51.535156 C 114.996094 51.582031 115.222656 51.648438 115.421875 51.761719 C 115.707031 51.925781 115.96875 52.152344 116.191406 52.371094 C 116.582031 52.75 116.890625 53.183594 117.179688 53.621094 C 117.667969 54.367188 118.109375 55.125 118.464844 55.929688 C 118.996094 57.125 119.425781 58.351562 119.839844 59.582031 C 120.464844 57.496094 120.957031 55.378906 121.824219 53.351562 C 122.21875 52.429688 122.648438 51.34375 123.519531 50.65625 C 124.4375 49.9375 125.371094 50.558594 125.964844 51.28125 C 126.304688 51.699219 126.761719 52.292969 126.800781 52.816406 C 126.84375 53.382812 126.445312 54.042969 126.164062 54.535156 C 126.089844 54.667969 125.925781 55.027344 125.722656 55.054688 C 125.550781 55.078125 125.214844 54.632812 125.125 54.539062 C 124.558594 53.957031 123.640625 52.851562 122.847656 53.859375 C 122.707031 54.039062 122.605469 54.242188 122.507812 54.441406 C 122.351562 54.765625 122.214844 55.101562 122.101562 55.441406 C 121.347656 57.683594 121.007812 60.007812 120.285156 62.25 C 120.109375 62.796875 119.902344 63.363281 119.574219 63.859375 C 119.507812 63.960938 119.347656 64.265625 119.171875 64.246094 C 118.980469 64.226562 118.914062 63.910156 118.871094 63.792969 C 118.691406 63.261719 118.585938 62.710938 118.484375 62.164062 C 118.109375 60.117188 117.445312 57.816406 116.0625 56.070312 Z M 116.0625 56.070312 " fill-opacity="1" fill-rule="evenodd"/><path fill="#000000" d="M 218.101562 32.449219 L 221.53125 28.28125 L 226.207031 32.519531 L 222.851562 36.707031 Z M 218.101562 32.449219 " fill-opacity="1" fill-rule="evenodd"/><path fill="#000000" d="M 226.207031 31.820312 L 229.636719 27.648438 L 234.3125 31.886719 L 230.957031 36.078125 Z M 226.207031 31.820312 " fill-opacity="1" fill-rule="evenodd"/><path fill="#000000" d="M 241.617188 49.75 L 240.847656 52.609375 L 266.554688 44.039062 L 268.59375 40.46875 C 268.59375 40.46875 241.851562 49.605469 241.617188 49.75 Z M 241.617188 49.75 " fill-opacity="1" fill-rule="evenodd"/><path fill="#000000" d="M 225.285156 80.460938 C 225.203125 80.308594 225.101562 80.625 225.03125 80.742188 C 224.820312 81.101562 224.613281 81.472656 224.425781 81.84375 C 223.882812 82.910156 223.320312 83.964844 222.84375 85.054688 C 221.507812 88.109375 219.808594 91.269531 220.304688 94.660156 C 220.464844 95.75 220.8125 97.492188 222.25 97.730469 C 224.09375 98.039062 225.105469 95.84375 225.640625 94.601562 C 225.765625 94.308594 225.886719 94.015625 225.976562 93.710938 C 226.128906 93.210938 226.316406 92.550781 226.140625 92.035156 C 225.960938 91.503906 225.417969 92.289062 225.296875 92.472656 C 224.882812 93.082031 224.265625 94.285156 223.339844 93.628906 C 223.222656 93.546875 223.121094 93.453125 223.03125 93.347656 C 222.898438 93.195312 222.792969 93.027344 222.707031 92.851562 C 222.230469 91.890625 222.320312 90.683594 222.535156 89.675781 C 222.992188 87.550781 224.109375 85.597656 224.929688 83.585938 C 225.328125 82.617188 226.15625 80.976562 225.285156 80.460938 C 225.207031 80.414062 225.578125 80.347656 225.523438 80.277344 " fill-opacity="1" fill-rule="evenodd"/><path fill="#000000" d="M 242.25 71.074219 C 242.347656 71.101562 242.980469 71.019531 243.058594 71.074219 C 243.039062 70.925781 243.367188 71.085938 243.523438 71.089844 C 243.789062 71.089844 245.113281 71.226562 245.035156 70.746094 C 244.960938 70.289062 244.378906 69.792969 244.09375 69.457031 C 243.136719 68.332031 242.0625 67.285156 240.964844 66.296875 C 240.777344 66.128906 239.734375 64.972656 239.449219 65.140625 C 238.871094 65.480469 238.945312 66.972656 238.871094 67.519531 C 238.816406 67.953125 238.757812 68.386719 238.6875 68.816406 C 238.652344 69.054688 238.609375 69.292969 238.554688 69.53125 C 238.335938 70.511719 238.191406 70.566406 238.753906 71.402344 C 238.855469 71.558594 238.960938 71.714844 239.066406 71.871094 C 239.246094 72.136719 239.421875 72.398438 239.613281 72.652344 C 239.617188 72.648438 239.859375 73.058594 239.867188 73.082031 C 240.027344 73.378906 240.179688 73.683594 240.328125 73.988281 C 240.78125 74.90625 241.253906 75.804688 241.753906 76.695312 C 242.367188 77.792969 242.964844 78.894531 243.652344 79.949219 C 244.507812 81.265625 245.601562 82.753906 245.722656 84.371094 C 245.796875 84.292969 245.660156 84.578125 245.640625 84.683594 C 245.582031 84.925781 245.492188 85.152344 245.378906 85.378906 C 245.078125 86.015625 244.703125 86.621094 244.292969 87.195312 C 243.007812 89.015625 241.367188 90.488281 239.585938 91.820312 C 234.453125 95.671875 228.113281 99.691406 221.589844 100.558594 C 216.789062 101.203125 211.878906 99.980469 210.714844 94.738281 C 210.210938 92.457031 210.109375 90.132812 210.355469 87.816406 C 210.445312 86.910156 210.5625 86 210.722656 85.101562 C 210.738281 85.011719 210.972656 84.207031 210.773438 84.230469 C 210.40625 84.277344 210.054688 84.894531 209.875 85.15625 C 209.136719 86.257812 208.800781 87.609375 208.652344 88.910156 C 208.140625 93.320312 208.261719 98.824219 211.136719 102.476562 C 214.644531 106.925781 220.296875 106.785156 225.195312 105.03125 C 229.816406 103.375 233.953125 100.636719 237.894531 97.78125 C 241.972656 94.824219 246.257812 91.253906 247.972656 86.355469 C 249.945312 80.707031 244.503906 75.742188 242.25 71.074219 Z M 242.25 71.074219 " fill-opacity="1" fill-rule="evenodd"/><path fill="#000000" d="M 278.25 65.074219 C 278.261719 65.140625 278.339844 65.300781 278.351562 65.34375 C 278.417969 65.597656 278.484375 65.851562 278.546875 66.105469 C 278.734375 66.863281 278.9375 67.609375 279.164062 68.359375 C 279.929688 70.914062 281.957031 73.058594 284.824219 72.828125 C 288.078125 72.5625 290.542969 69.976562 291.964844 67.242188 C 292.476562 66.25 292.863281 65.21875 293.230469 64.164062 C 293.304688 63.953125 293.496094 63.171875 293.761719 63.105469 C 293.914062 63.066406 293.984375 63.566406 294 63.648438 C 294.148438 64.238281 294.203125 64.851562 294.28125 65.457031 C 294.503906 67.113281 294.914062 68.957031 296.511719 69.832031 C 297.683594 70.472656 299.207031 70.617188 300.496094 70.316406 C 300.9375 70.210938 301.667969 70.039062 301.824219 69.539062 C 301.929688 69.203125 302.167969 68.621094 302.113281 68.289062 C 301.960938 67.375 300.960938 66.167969 300.761719 65.261719 C 300.753906 65.257812 302.007812 63.835938 302.132812 63.699219 C 302.695312 63.078125 303.261719 62.457031 303.847656 61.855469 C 303.972656 61.726562 304.320312 61.238281 304.550781 61.285156 C 304.730469 61.324219 304.714844 61.765625 304.722656 61.890625 C 304.765625 62.636719 304.722656 63.394531 304.730469 64.144531 C 304.777344 66.960938 304.703125 70.105469 303.230469 72.605469 C 302.871094 73.214844 302.410156 73.753906 301.898438 74.238281 C 298.339844 77.613281 294.410156 74.128906 292.121094 71.15625 C 292.105469 71.136719 291.972656 71.441406 291.964844 71.460938 C 291.875 71.640625 291.792969 71.824219 291.699219 72.003906 C 291.429688 72.558594 291.121094 73.097656 290.792969 73.625 C 289.742188 75.34375 288.523438 76.769531 286.515625 77.375 C 283.605469 78.253906 280.007812 77.621094 278.210938 75 C 277.398438 73.816406 277.222656 72.515625 276.78125 71.199219 C 276.585938 71.140625 275.734375 71.886719 275.566406 71.984375 C 274.332031 72.742188 273.128906 73.511719 271.847656 74.191406 C 271.691406 74.0625 271.90625 74.585938 271.941406 74.785156 C 272 75.195312 272.054688 75.609375 272.105469 76.027344 C 272.246094 77.214844 272.386719 78.402344 272.300781 79.597656 C 272.324219 79.605469 272.089844 80.101562 272.082031 80.113281 C 271.738281 80.777344 271.363281 81.433594 270.976562 82.070312 C 269.230469 84.914062 267.113281 87.535156 264.730469 89.878906 C 263.300781 91.289062 261.808594 92.640625 260.1875 93.835938 C 259.089844 94.644531 257.917969 95.382812 256.710938 96.027344 C 250.867188 99.160156 239.898438 101.601562 236.464844 93.796875 C 234.566406 89.472656 234.953125 84.207031 236.066406 79.726562 C 236.335938 78.613281 236.621094 77.480469 237.113281 76.441406 C 237.183594 76.289062 237.398438 75.613281 237.625 75.597656 C 237.859375 75.578125 237.59375 76.917969 237.585938 76.984375 C 237.261719 78.652344 236.886719 80.320312 236.734375 82.015625 C 236.355469 86.199219 237.574219 91.113281 241.84375 92.875 C 250.089844 96.277344 259.34375 89.917969 265.132812 84.605469 C 266.527344 83.324219 267.816406 81.980469 269.054688 80.554688 C 269.609375 79.925781 270.480469 78.949219 270.605469 78.066406 C 270.71875 77.273438 270.375 76.515625 270.144531 75.78125 C 269.890625 75.777344 269.519531 76.046875 269.285156 76.140625 C 268.636719 76.40625 267.976562 76.667969 267.3125 76.921875 C 265.117188 77.761719 262.425781 78.421875 260.136719 77.589844 C 259.542969 77.375 258.988281 77.085938 258.511719 76.671875 C 254.9375 73.570312 257.917969 68.746094 260.339844 65.996094 C 261.605469 64.558594 263.234375 62.992188 265.332031 63.503906 C 266.722656 63.847656 267.78125 65.015625 268.601562 66.125 C 269.53125 67.378906 270.109375 68.6875 270.664062 70.128906 C 270.648438 70.140625 270.648438 70.148438 270.667969 70.148438 L 270.664062 70.128906 C 270.707031 70.089844 270.9375 69.988281 270.953125 69.980469 C 271.15625 69.886719 271.355469 69.789062 271.546875 69.6875 C 272.121094 69.390625 272.671875 69.070312 273.230469 68.75 C 275.046875 67.703125 276.777344 66.570312 278.25 65.074219 C 278.246094 65.046875 278.25 65.035156 278.273438 65.050781 Z M 266.597656 71.605469 C 266.578125 71.585938 265.640625 71.921875 265.617188 71.925781 C 265.253906 72.054688 264.859375 72.132812 264.476562 72.1875 C 263.375 72.335938 261.726562 72.542969 260.914062 71.589844 C 259.96875 70.484375 261.175781 68.957031 262.367188 68.765625 C 263.835938 68.53125 265.921875 70.152344 266.597656 71.605469 Z M 266.597656 71.605469 " fill-opacity="1" fill-rule="evenodd"/><path fill="#000000" d="M 276.371094 64.90625 C 276.449219 64.875 276.675781 64.589844 276.71875 64.550781 C 277.066406 64.234375 277.445312 63.953125 277.832031 63.679688 C 279.300781 62.652344 280.945312 61.863281 282.402344 60.816406 C 287.074219 57.453125 291.742188 53.984375 295.980469 50.160156 C 297.015625 49.226562 298.019531 48.265625 299.050781 47.320312 C 299.507812 46.902344 300.300781 46.378906 300.570312 45.816406 C 300.6875 45.582031 299.925781 45.214844 299.789062 45.113281 C 298.972656 44.519531 298.203125 43.851562 297.636719 43.046875 C 296.703125 41.71875 297.183594 40.496094 297.996094 39.214844 C 298.777344 37.976562 299.757812 36.835938 301.21875 36.238281 C 302.457031 35.730469 303.730469 36.492188 304.21875 37.5625 C 304.867188 38.992188 304.496094 40.730469 304.011719 42.152344 C 303.867188 42.570312 303.699219 42.996094 303.457031 43.375 C 303.378906 43.5 303.046875 43.785156 303.03125 43.921875 C 303.023438 44.015625 303.429688 44.265625 303.5 44.316406 C 303.910156 44.636719 304.460938 44.949219 304.65625 45.433594 C 304.933594 46.132812 304.542969 47.070312 304.167969 47.675781 C 304.078125 47.820312 303.828125 48.296875 303.589844 48.269531 C 303.328125 48.234375 303.089844 47.984375 302.902344 47.835938 C 302.4375 47.480469 301.996094 47.097656 301.546875 46.726562 C 300.933594 47.328125 300.453125 48.117188 299.882812 48.757812 C 298.339844 50.492188 296.726562 52.234375 294.980469 53.800781 C 292.101562 56.378906 288.519531 58.34375 285.230469 60.441406 C 282.789062 61.996094 279.3125 64.207031 276.371094 64.90625 C 276.367188 64.90625 276.363281 64.90625 276.359375 64.90625 Z M 302.269531 43.183594 C 302.359375 42.75 302.527344 42.339844 302.585938 41.894531 C 302.710938 41.011719 302.46875 40.066406 301.84375 39.375 C 301.515625 39.015625 301.066406 38.710938 300.546875 38.640625 C 299.835938 38.550781 299.0625 39.125 299.039062 39.792969 C 299.023438 40.195312 299.332031 40.5625 299.609375 40.847656 C 300.234375 41.503906 301.53125 42.632812 302.269531 43.183594 Z M 302.269531 43.183594 " fill-opacity="1" fill-rule="evenodd"/><path fill="#000000" d="M 270.746094 43.527344 C 270.804688 43.625 271.363281 43.453125 271.492188 43.425781 C 271.789062 43.359375 272.089844 43.308594 272.390625 43.257812 C 273.320312 43.105469 274.25 42.992188 275.199219 42.941406 C 278.109375 42.789062 281.511719 42.84375 284.234375 43.808594 C 284.328125 43.691406 283.96875 43.984375 283.835938 44.070312 C 283.535156 44.273438 283.21875 44.457031 282.898438 44.636719 C 282.011719 45.140625 281.121094 45.644531 280.1875 46.089844 C 277.5625 47.351562 274.8125 48.453125 272.246094 49.792969 C 271.632812 50.113281 270.992188 50.40625 270.40625 50.761719 C 270.34375 50.800781 269.871094 51.070312 269.953125 51.167969 C 270.160156 51.410156 271.238281 51.191406 271.488281 51.164062 C 273.113281 50.96875 274.703125 50.636719 276.296875 50.332031 C 277.933594 50.019531 280.0625 49.996094 281.5625 49.339844 C 282.324219 49.007812 282.949219 48.222656 283.488281 47.699219 C 284.816406 46.421875 286.085938 45.101562 287.375 43.792969 C 288.773438 42.371094 290.996094 40.351562 291.027344 38.410156 C 291.0625 36.421875 286.996094 36.539062 285.375 36.421875 C 284.824219 36.382812 284.277344 36.328125 283.730469 36.28125 C 281.78125 36.117188 279.785156 36.03125 277.828125 36.089844 C 277.128906 36.113281 276.175781 36.015625 275.527344 36.269531 C 274.613281 36.617188 274.125 37.464844 273.625 38.125 C 272.449219 39.675781 271.527344 41.820312 270.746094 43.527344 Z M 270.746094 43.527344 " fill-opacity="1" fill-rule="evenodd"/><path fill="#000000" d="M 226.859375 57.1875 C 226.859375 57.109375 227.722656 55.992188 227.742188 55.960938 C 227.914062 55.726562 228.101562 55.5 228.289062 55.273438 C 228.886719 54.546875 229.476562 53.8125 230.058594 53.070312 C 231.511719 51.210938 233.070312 49.4375 234.589844 47.632812 C 234.941406 47.21875 235.300781 46.804688 235.695312 46.433594 C 235.742188 46.390625 236.050781 46.058594 236.140625 46.152344 C 236.273438 46.296875 236.101562 46.804688 236.066406 46.960938 C 235.894531 47.742188 235.621094 48.515625 235.304688 49.25 C 233.945312 52.363281 231.367188 54.917969 229.332031 57.601562 C 228.851562 57.640625 229.027344 58.269531 229.207031 58.46875 C 229.917969 59.261719 230.675781 59.976562 231.332031 60.832031 C 232.992188 63.015625 233.949219 65.070312 234.027344 67.859375 C 234.058594 68.949219 234.007812 70.035156 233.746094 71.097656 C 232.976562 74.210938 230.421875 76.242188 227.777344 77.824219 C 226.261719 78.730469 224.316406 79.742188 222.492188 79.582031 C 220.105469 79.375 219.144531 77.285156 218.824219 75.183594 C 218.183594 70.933594 219.835938 67.011719 222.058594 63.453125 C 222.621094 62.550781 223.21875 61.667969 223.835938 60.800781 C 224.082031 60.457031 224.558594 60.035156 224.679688 59.621094 C 224.722656 59.46875 224.417969 59.433594 224.316406 59.3125 C 223.925781 58.84375 223.542969 58.367188 223.144531 57.898438 C 221.804688 56.320312 220.445312 54.757812 219.078125 53.195312 C 218.738281 52.808594 217.96875 52.839844 217.757812 52.371094 C 217.160156 51.0625 217.808594 49.101562 218.03125 47.765625 C 218.089844 47.429688 218.117188 46.300781 218.671875 46.332031 C 219.132812 46.359375 219.777344 46.921875 220.15625 47.144531 C 221.496094 47.9375 222.777344 48.859375 224.03125 49.777344 C 224.355469 50.019531 225.328125 50.660156 225.296875 51.15625 C 225.285156 51.382812 224.886719 51.421875 224.722656 51.441406 C 224.316406 51.488281 223.289062 51.359375 222.980469 51.65625 C 222.699219 51.933594 223.144531 52.632812 223.277344 52.878906 C 223.863281 53.976562 225.929688 56.359375 226.859375 57.1875 C 226.863281 57.191406 226.863281 57.195312 226.863281 57.191406 Z M 226.546875 62.386719 C 226.300781 62.449219 226.0625 62.792969 225.902344 62.953125 C 225.457031 63.390625 225.03125 63.835938 224.617188 64.300781 C 224.222656 64.738281 223.851562 65.195312 223.503906 65.664062 C 223.1875 66.09375 222.894531 66.535156 222.621094 66.988281 C 221.550781 68.746094 220.046875 72.6875 222.894531 73.753906 C 225.632812 74.78125 228.484375 72.320312 230.332031 70.660156 C 230.957031 70.09375 232.160156 69.175781 232.121094 68.230469 C 232.09375 67.554688 231.539062 66.890625 231.132812 66.375 C 230.046875 64.988281 228.027344 63.367188 226.546875 62.386719 Z M 226.546875 62.386719 " fill-opacity="1" fill-rule="evenodd"/><g clip-path="url(#aa7c100fad)"><path fill="#000000" d="M 163.445312 99.75 C 163.386719 99.734375 163.226562 100.007812 163.199219 100.039062 C 162.964844 100.339844 162.761719 100.667969 162.546875 100.984375 C 162.328125 101.304688 161.953125 101.753906 162.007812 102.167969 C 162.128906 103.101562 163.375 104.539062 161.75 104.914062 C 160.355469 105.242188 158.722656 103.886719 158.824219 102.46875 C 158.859375 101.949219 159.054688 101.464844 159.199219 100.96875 C 159.222656 100.882812 159.332031 100.546875 159.167969 100.523438 C 158.746094 100.464844 158.085938 101.578125 157.894531 101.832031 C 156.917969 103.136719 156.121094 104.859375 154.601562 105.636719 C 153.175781 106.367188 151.457031 105.703125 150.007812 105.371094 C 148.867188 105.109375 147.773438 105.148438 146.65625 105.492188 C 145.125 105.96875 143.417969 107.453125 142.164062 108.355469 C 138.78125 110.800781 135.59375 113.503906 132.296875 116.066406 C 129.558594 118.191406 126.710938 120.222656 123.789062 122.082031 C 120.875 123.9375 117.996094 125.828125 114.910156 127.390625 C 114.195312 127.753906 113.472656 128.09375 112.761719 128.464844 C 112.617188 128.542969 112.050781 128.695312 112.015625 128.898438 C 111.972656 129.128906 112.59375 129.121094 112.703125 129.125 C 113.527344 129.175781 114.375 128.910156 115.167969 128.710938 C 118.21875 127.9375 121.773438 126.832031 124.550781 125.320312 C 126.609375 124.199219 128.34375 122.449219 130.144531 120.964844 C 132.859375 118.730469 135.621094 116.558594 138.363281 114.351562 C 140.578125 112.574219 142.785156 110.695312 145.328125 109.386719 C 146.253906 108.914062 147.316406 108.457031 148.378906 108.550781 C 149.148438 108.621094 149.875 109.097656 150.574219 109.390625 C 152.148438 110.046875 153.890625 110.210938 155.335938 109.136719 C 155.800781 108.796875 156.195312 108.371094 156.542969 107.914062 C 156.960938 107.367188 157.332031 106.765625 157.574219 106.117188 C 157.175781 106.300781 158.460938 107.300781 158.5625 107.363281 C 159.648438 108.023438 161.191406 108.769531 162.253906 107.878906 C 165.589844 105.089844 163.847656 101.886719 163.445312 99.75 Z M 163.445312 99.75 " fill-opacity="1" fill-rule="evenodd"/></g><path fill="#000000" d="M 137.613281 44.054688 C 137.589844 44.03125 138.449219 43.976562 138.492188 43.972656 C 138.839844 43.9375 139.191406 43.914062 139.542969 43.898438 C 140.605469 43.855469 141.675781 43.871094 142.742188 43.890625 C 143.472656 43.90625 144.203125 43.953125 144.929688 44 C 145.5625 44.039062 146.195312 44.085938 146.824219 44.164062 C 148.132812 44.324219 149.445312 44.457031 150.738281 44.726562 C 151.917969 44.96875 153.015625 45.207031 153.019531 46.519531 C 153.023438 46.769531 153.003906 47.015625 152.945312 47.261719 C 152.597656 48.65625 151.683594 49.945312 150.804688 51.089844 C 149.589844 52.675781 148.296875 54.207031 147.046875 55.769531 C 146.101562 56.953125 145.175781 58.445312 143.769531 59.207031 C 142.195312 60.058594 140.113281 60.210938 138.375 60.5625 C 136.929688 60.855469 135.464844 61.070312 133.996094 61.226562 C 133.621094 61.265625 132.683594 61.488281 132.371094 61.175781 C 132.121094 60.929688 132.714844 60.605469 132.871094 60.5 C 133.574219 60.027344 134.320312 59.605469 135.0625 59.191406 C 137.894531 57.628906 140.832031 56.226562 143.65625 54.644531 C 144.335938 54.265625 145.03125 53.894531 145.675781 53.46875 C 145.808594 53.378906 146.199219 53.167969 146.128906 52.96875 C 146.050781 52.75 145.570312 52.65625 145.375 52.601562 C 144.648438 52.386719 143.914062 52.214844 143.164062 52.109375 C 140.15625 51.6875 137.15625 51.796875 134.175781 52.304688 C 133.910156 52.351562 133.191406 52.390625 133.003906 52.203125 C 132.855469 52.054688 133.003906 51.78125 133.066406 51.628906 C 133.304688 51.082031 133.640625 50.558594 133.949219 50.039062 C 134.957031 48.347656 136.53125 45.707031 137.613281 44.054688 Z M 137.613281 44.054688 " fill-opacity="1" fill-rule="evenodd"/><path fill="#000000" d="M 171.09375 28.28125 C 170.960938 28.253906 170.328125 29.027344 170.269531 29.097656 C 169.726562 29.730469 169.230469 30.425781 169.003906 31.171875 C 168.777344 31.921875 169.039062 32.695312 169.347656 33.402344 C 169.894531 34.644531 170.730469 35.804688 171.234375 37.058594 C 171.457031 37.617188 172.113281 38.886719 171.058594 39.179688 C 169.066406 39.730469 167.164062 38.027344 166.742188 36.699219 C 166.527344 36.015625 166.597656 35.304688 166.515625 34.609375 C 166.464844 34.148438 166.371094 33.695312 166.238281 33.246094 C 166.046875 32.574219 165.792969 31.910156 165.511719 31.257812 C 165.242188 30.628906 164.949219 30.007812 164.617188 29.398438 C 164.566406 29.304688 164.394531 28.902344 164.242188 28.878906 C 164.066406 28.847656 163.753906 29.449219 163.707031 29.53125 C 163.25 30.292969 162.558594 31.203125 162.363281 32.035156 C 162.308594 32.257812 162.558594 32.53125 162.691406 32.714844 C 163.011719 33.167969 163.324219 33.636719 163.566406 34.117188 C 164.382812 35.738281 164.140625 37.640625 163.316406 39.230469 C 162.867188 40.089844 161.597656 40.78125 160.332031 40.367188 C 159.1875 39.996094 158.875 39.019531 158.847656 38.152344 C 158.792969 36.355469 159.300781 34.601562 159.097656 32.792969 C 159.027344 32.152344 158.828125 31.515625 158.574219 30.902344 C 158.542969 30.828125 158.355469 30.316406 158.160156 30.378906 C 157.917969 30.453125 157.753906 30.859375 157.652344 31.019531 C 157.257812 31.636719 156.949219 32.28125 156.628906 32.925781 C 156.429688 33.324219 156.03125 33.84375 156.058594 34.289062 C 156.074219 34.5625 156.425781 34.503906 156.539062 34.730469 C 156.761719 35.160156 156.765625 35.65625 156.773438 36.109375 C 156.800781 37.675781 156.65625 39.253906 156.976562 40.808594 C 157.175781 41.78125 157.621094 42.761719 158.644531 43.402344 C 159.734375 44.082031 161.398438 43.976562 162.53125 43.429688 C 164.167969 42.644531 165.433594 40.867188 165.167969 39.367188 C 165.089844 39.4375 165.347656 39.804688 165.382812 39.863281 C 165.6875 40.378906 166.054688 40.867188 166.554688 41.285156 C 168.039062 42.53125 171.261719 43.308594 172.65625 41.578125 C 173.523438 40.503906 173.660156 39.113281 173.660156 37.878906 C 173.660156 36.402344 173.367188 34.925781 172.894531 33.496094 C 172.378906 31.945312 171.359375 29.878906 171.09375 28.28125 Z M 171.09375 28.28125 " fill-opacity="1" fill-rule="evenodd"/><path fill="#000000" d="M 166.570312 51.542969 L 170 47.375 L 174.671875 51.613281 L 171.316406 55.800781 Z M 166.570312 51.542969 " fill-opacity="1" fill-rule="evenodd"/><path fill="#000000" d="M 164.257812 59.972656 L 167.6875 55.800781 L 172.363281 60.042969 L 169.007812 64.230469 Z M 164.257812 59.972656 " fill-opacity="1" fill-rule="evenodd"/><path fill="#000000" d="M 172.363281 59.351562 L 175.792969 55.183594 L 180.46875 59.421875 L 177.113281 63.609375 Z M 172.363281 59.351562 " fill-opacity="1" fill-rule="evenodd"/><path fill="#000000" d="M 186.261719 83.074219 C 186.105469 82.78125 185.90625 83.394531 185.773438 83.621094 C 185.359375 84.324219 184.960938 85.046875 184.589844 85.773438 C 183.539062 87.84375 182.445312 89.90625 181.519531 92.03125 C 178.921875 97.984375 175.609375 104.140625 176.578125 110.75 C 176.890625 112.875 177.566406 116.269531 180.359375 116.738281 C 183.949219 117.339844 185.914062 113.058594 186.953125 110.636719 C 187.195312 110.066406 187.4375 109.496094 187.613281 108.902344 C 187.902344 107.921875 188.269531 106.640625 187.929688 105.632812 C 187.582031 104.601562 186.523438 106.132812 186.285156 106.488281 C 185.480469 107.675781 184.28125 110.015625 182.476562 108.742188 C 182.25 108.582031 182.054688 108.398438 181.878906 108.191406 C 181.625 107.898438 181.417969 107.570312 181.25 107.226562 C 180.320312 105.355469 180.496094 103.003906 180.914062 101.035156 C 181.800781 96.898438 183.972656 93.085938 185.578125 89.167969 C 186.347656 87.277344 187.960938 84.082031 186.261719 83.074219 C 186.109375 82.984375 186.835938 82.851562 186.726562 82.71875 " fill-opacity="1" fill-rule="evenodd"/><g clip-path="url(#4b17f69427)"><path fill="#000000" d="M 206.257812 31.550781 C 205.949219 31.5625 206.644531 32.023438 206.859375 32.246094 C 207.09375 32.488281 208.96875 34.207031 209.132812 33.53125 C 209.355469 32.640625 208.753906 31.460938 208.457031 30.652344 C 207.582031 28.265625 206.449219 25.941406 205.292969 23.679688 C 205.066406 23.246094 204.339844 21.109375 203.796875 20.96875 C 203.402344 20.867188 202.703125 22.433594 202.546875 22.691406 C 202.179688 23.300781 201.105469 24.433594 201.089844 25.164062 C 201.078125 26 202.421875 27.09375 202.917969 27.6875 C 202.800781 27.800781 202.929688 28.402344 202.941406 28.535156 C 203 29.40625 203.089844 30.269531 203.1875 31.136719 C 203.601562 34.824219 204.320312 38.445312 205.082031 42.070312 C 206.863281 50.613281 208.546875 59.289062 209.476562 67.972656 C 209.96875 72.558594 210.65625 77.234375 209.625 81.796875 C 209.355469 81.636719 209.320312 82.355469 209.132812 82.609375 C 208.773438 83.097656 208.378906 83.558594 207.992188 84.019531 C 206.789062 85.4375 205.496094 86.785156 204.160156 88.070312 C 201.941406 90.203125 199.535156 92.167969 197.125 94.078125 C 196.46875 94.59375 195.800781 95.097656 195.160156 95.628906 C 195.050781 95.722656 194.519531 96.0625 194.5 96.21875 C 194.488281 96.25 196.328125 95.9375 196.425781 95.914062 C 198.460938 95.433594 200.523438 94.828125 202.421875 93.941406 C 204.828125 92.816406 207.566406 91.402344 209.410156 89.4375 C 211.316406 87.402344 212.589844 83.910156 212.96875 81.175781 C 213.207031 79.464844 213.097656 77.484375 213.085938 75.757812 C 213.078125 72.253906 212.953125 68.746094 212.605469 65.261719 C 211.5 54.1875 208.722656 42.386719 206.257812 31.550781 Z M 206.257812 31.550781 " fill-opacity="1" fill-rule="evenodd"/></g><path fill="#000000" d="M 132.40625 90.054688 C 132.3125 90.210938 132.070312 90.539062 131.984375 90.695312 C 131.714844 91.207031 131.433594 91.710938 131.144531 92.207031 C 130.304688 93.640625 129.410156 95.214844 127.8125 95.894531 C 124.40625 97.351562 121.746094 94.238281 121.464844 91.042969 C 121.464844 91.039062 121.160156 91.445312 121.085938 91.546875 C 120.777344 91.953125 120.441406 92.339844 120.082031 92.703125 C 118.964844 93.835938 117.746094 95.046875 116.296875 95.742188 C 115 96.371094 113.367188 96.527344 111.953125 96.257812 C 111.480469 96.171875 111.015625 96.046875 110.574219 95.847656 C 110.53125 95.828125 110.007812 95.535156 110 95.546875 C 109.8125 95.832031 110.175781 96.957031 110.210938 97.273438 C 110.359375 98.769531 110.472656 100.285156 110.132812 101.761719 C 109.878906 101.503906 109.746094 102.367188 109.546875 102.660156 C 109.078125 103.332031 108.5625 103.96875 108.019531 104.582031 C 106.34375 106.464844 104.402344 108.148438 102.449219 109.742188 C 97.019531 114.171875 90.070312 117.859375 83.054688 118.765625 C 73.742188 119.96875 65.199219 115.3125 63.132812 105.859375 C 62.261719 101.863281 63.035156 97.808594 64.558594 94.0625 C 64.855469 93.339844 65.660156 90.742188 66.613281 90.515625 C 67.03125 90.414062 66.667969 92.183594 66.644531 92.292969 C 66.179688 94.480469 65.691406 96.652344 65.421875 98.871094 C 64.769531 104.359375 66.382812 109.328125 71.351562 112.121094 C 76 114.738281 80.621094 114.558594 85.6875 113.304688 C 93.863281 111.285156 101.574219 106.117188 107.34375 100.082031 C 107.335938 100.078125 107.328125 99.160156 107.308594 99.074219 C 107.113281 98.058594 106.894531 97.042969 106.675781 96.03125 C 106.257812 94.144531 105.589844 92.390625 104.84375 90.617188 C 104.667969 90.214844 103.867188 89.171875 103.960938 88.71875 C 104.132812 87.894531 105.085938 86.964844 105.546875 86.28125 C 105.78125 85.941406 106.660156 84.203125 107.132812 84.21875 C 107.304688 84.222656 107.335938 84.875 107.351562 84.972656 C 107.480469 85.929688 107.714844 86.875 108.179688 87.734375 C 109.226562 89.683594 111.425781 90.535156 113.550781 90.640625 C 117.109375 90.824219 119.074219 88.734375 120.800781 85.933594 C 121.230469 85.238281 122.03125 82.890625 122.871094 82.617188 C 123.375 82.457031 123.28125 85.683594 123.300781 85.992188 C 123.421875 87.890625 124.449219 89.476562 126.453125 89.835938 C 129.273438 90.347656 130.667969 88.222656 131.699219 85.945312 C 131.941406 85.414062 132.515625 83.152344 133.273438 83.105469 C 133.769531 83.074219 133.957031 84.164062 134.050781 84.484375 C 134.441406 85.847656 134.574219 87.441406 135.851562 88.3125 C 139.488281 90.789062 147.140625 88.261719 150.050781 85.398438 C 149.820312 85.171875 149.773438 84.59375 149.703125 84.296875 C 149.445312 83.207031 149.417969 82.03125 149.539062 80.921875 C 149.964844 77.117188 152.566406 73.914062 155.191406 71.3125 C 156.023438 70.488281 157.375 68.945312 158.640625 68.847656 C 159.882812 68.75 160.566406 71.214844 160.984375 72.074219 C 162.21875 74.597656 163.828125 77.921875 166.933594 78.433594 C 169.855469 78.914062 172.621094 77.179688 174.347656 74.933594 C 175.050781 74.019531 175.550781 72.960938 176.277344 72.0625 C 176.433594 71.867188 176.789062 71.324219 177.09375 71.34375 C 177.523438 71.375 177.480469 73.171875 177.492188 73.4375 C 177.554688 75.054688 177.882812 76.472656 179.765625 76.730469 C 182.417969 77.089844 184.242188 75.242188 185.449219 73.140625 C 185.824219 72.480469 186.335938 70.605469 187.203125 70.417969 C 187.777344 70.296875 187.746094 71.40625 187.738281 71.714844 C 187.726562 73.148438 187.460938 74.695312 188.9375 75.488281 C 191.679688 76.953125 196.082031 75.15625 197.605469 72.59375 C 198.882812 70.445312 197.773438 67.640625 197.546875 65.113281 C 196.84375 57.375 194.886719 49.722656 193.636719 42.0625 C 193.277344 39.875 192.925781 37.679688 192.714844 35.472656 C 192.46875 32.910156 192.394531 30.171875 190.890625 28.011719 C 191.585938 26.953125 192.273438 25.851562 193 24.796875 C 193.15625 24.574219 193.53125 23.808594 193.847656 23.761719 C 194.03125 23.738281 194.265625 24.363281 194.324219 24.476562 C 194.753906 25.289062 195.144531 26.121094 195.558594 26.9375 C 197.1875 30.101562 198.960938 33.183594 200.238281 36.511719 C 200.386719 36.902344 199.453125 36.640625 199.34375 36.578125 C 198.667969 36.175781 198.140625 35.570312 197.476562 35.148438 C 197.3125 35.046875 196.917969 34.75 196.769531 35.007812 C 196.542969 34.835938 196.363281 35.78125 196.355469 35.84375 C 196.21875 36.875 196.359375 37.976562 196.476562 39 C 196.792969 41.804688 197.363281 44.589844 197.796875 47.378906 C 198.59375 52.445312 199.4375 57.511719 199.914062 62.621094 C 200.214844 65.789062 200.484375 69.214844 199.777344 72.359375 C 199.714844 72.65625 199.382812 73.199219 199.253906 73.464844 C 198.886719 74.234375 198.460938 74.980469 198.011719 75.707031 C 196.261719 78.515625 192.828125 81.671875 189.246094 81.332031 C 187.800781 81.195312 186.445312 80.351562 185.734375 79.078125 C 185.484375 78.628906 185.292969 78.128906 185.171875 77.625 C 185.15625 77.558594 185.027344 76.78125 184.992188 76.789062 C 184.84375 76.808594 184.636719 77.214844 184.5625 77.320312 C 184.203125 77.84375 183.84375 78.367188 183.460938 78.875 C 182.285156 80.425781 180.757812 82.460938 178.589844 82.382812 C 177.136719 82.332031 175.847656 81.257812 175.265625 79.964844 C 175.058594 79.496094 174.941406 79.003906 174.90625 78.492188 C 174.886719 78.230469 175.109375 77.621094 174.855469 77.703125 C 174.472656 77.824219 173.84375 79.191406 173.605469 79.5 C 172.554688 80.882812 171.371094 82.382812 169.84375 83.269531 C 168.914062 83.804688 167.929688 83.847656 166.886719 83.726562 C 165.882812 83.613281 164.820312 83.394531 163.914062 82.929688 C 161.449219 81.671875 160.398438 78.851562 159.15625 76.550781 C 158.703125 75.707031 158.050781 74.859375 157.707031 73.960938 C 157.6875 74.046875 157.523438 73.933594 157.445312 73.972656 C 157.234375 74.066406 157.023438 74.175781 156.828125 74.296875 C 156.039062 74.765625 155.273438 75.304688 154.5625 75.882812 C 153.804688 76.5 152.996094 77.179688 152.464844 78.011719 C 151.125 80.113281 152.359375 82.570312 153.652344 84.34375 C 153.636719 84.324219 154.117188 84.167969 154.148438 84.160156 C 154.777344 83.972656 155.449219 83.871094 156.09375 83.769531 C 157.640625 83.523438 159.90625 83.121094 161.308594 84.039062 C 164.464844 86.109375 164.359375 91.191406 162.988281 94.234375 C 161.617188 97.289062 157.941406 97.46875 155.4375 95.457031 C 153.589844 93.972656 152.902344 92.007812 151.867188 89.988281 C 151.890625 90.089844 150.910156 90.671875 150.820312 90.726562 C 149.535156 91.574219 148.203125 92.363281 146.839844 93.074219 C 142.667969 95.238281 134.0625 95.933594 132.40625 90.054688 C 132.453125 89.96875 132.460938 89.929688 132.386719 89.984375 C 132.390625 90.007812 132.394531 90.03125 132.40625 90.054688 Z M 155.730469 89.113281 C 155.757812 89.148438 155.824219 89.265625 155.832031 89.28125 C 155.921875 89.417969 156.03125 89.542969 156.136719 89.667969 C 156.425781 90.011719 156.738281 90.335938 157.066406 90.640625 C 157.992188 91.519531 160.109375 92.808594 161.042969 91.214844 C 161.640625 90.195312 161.070312 89.109375 160.042969 88.710938 C 158.886719 88.269531 156.855469 88.699219 155.730469 89.113281 Z M 155.730469 89.113281 C 155.722656 89.097656 155.714844 89.097656 155.722656 89.117188 Z M 155.730469 89.113281 " fill-opacity="1" fill-rule="evenodd"/></svg>