<svg xmlns="http://www.w3.org/2000/svg" xmlns:xlink="http://www.w3.org/1999/xlink" width="500" zoomAndPan="magnify" viewBox="0 0 375 149.999998" height="200" preserveAspectRatio="xMidYMid meet" version="1.0"><defs><clipPath id="c82bcd1448"><path d="M 302 22.5 L 342 22.5 L 342 68 L 302 68 Z M 302 22.5 " clip-rule="nonzero"/></clipPath><clipPath id="997a4ffec1"><path d="M 33 22.5 L 73 22.5 L 73 68 L 33 68 Z M 33 22.5 " clip-rule="nonzero"/></clipPath></defs><g clip-path="url(#c82bcd1448)"><path fill="#000000" d="M 302.320312 22.535156 C 302.070312 22.476562 302.835938 22.574219 303.089844 22.621094 C 303.578125 22.707031 304.0625 22.808594 304.550781 22.898438 C 305.957031 23.152344 307.328125 23.46875 308.6875 23.914062 C 312.785156 25.253906 316.714844 27.261719 320.316406 29.613281 C 329.03125 35.300781 335.558594 43.84375 339.164062 53.582031 C 340.039062 55.953125 340.796875 58.371094 341.410156 60.824219 C 341.632812 61.707031 342.164062 62.960938 341.75 63.855469 C 341.03125 65.417969 339.128906 66.402344 337.796875 67.367188 C 337.972656 67.570312 337.269531 67.429688 337.007812 67.476562 C 336.46875 67.570312 335.890625 67.355469 335.390625 67.167969 C 333.992188 66.640625 332.597656 65.488281 331.273438 64.734375 C 330.203125 64.121094 330.152344 62.609375 329.832031 61.515625 C 329.140625 59.175781 328.265625 56.890625 327.328125 54.636719 C 322.496094 43.050781 312.234375 30.28125 302.320312 22.535156 Z M 302.320312 22.535156 " fill-opacity="1" fill-rule="evenodd"/></g><path fill="#000000" d="M 302.320312 123.917969 C 302.070312 123.976562 302.835938 123.875 303.089844 123.832031 C 303.578125 123.742188 304.0625 123.644531 304.550781 123.554688 C 305.957031 123.300781 307.328125 122.984375 308.6875 122.539062 C 312.785156 121.199219 316.714844 119.191406 320.316406 116.839844 C 329.03125 111.148438 335.558594 102.609375 339.164062 92.871094 C 340.039062 90.5 340.796875 88.082031 341.410156 85.628906 C 341.632812 84.746094 342.164062 83.492188 341.75 82.597656 C 341.03125 81.035156 339.128906 80.046875 337.796875 79.085938 C 337.972656 78.882812 337.269531 79.019531 337.007812 78.976562 C 336.46875 78.882812 335.890625 79.097656 335.390625 79.285156 C 333.992188 79.8125 332.597656 80.964844 331.273438 81.71875 C 330.203125 82.332031 330.152344 83.84375 329.832031 84.9375 C 329.140625 87.277344 328.265625 89.5625 327.328125 91.8125 C 322.496094 103.402344 312.234375 116.171875 302.320312 123.917969 Z M 302.320312 123.917969 " fill-opacity="1" fill-rule="evenodd"/><path fill="#000000" d="M 351.050781 66.964844 C 350.898438 66.882812 350.753906 66.8125 350.671875 66.757812 C 349.847656 66.210938 349.136719 65.582031 348.5625 64.773438 C 346.570312 61.960938 345.886719 58.453125 343.894531 55.625 C 343.230469 54.683594 342.410156 53.863281 341.496094 53.160156 C 341.089844 52.847656 340.648438 52.574219 340.238281 52.257812 C 340.140625 52.183594 339.910156 51.996094 339.824219 51.851562 C 339.6875 51.617188 339.699219 51.390625 339.792969 51.199219 C 339.859375 51.066406 339.984375 50.898438 340.28125 50.816406 C 341.519531 50.492188 343.246094 50.988281 344.402344 51.34375 C 347.652344 52.34375 350.867188 54.21875 352.859375 57.027344 C 353.398438 57.785156 353.78125 58.648438 354.175781 59.503906 C 354.53125 60.273438 354.894531 61.035156 355.429688 61.675781 C 355.800781 62.113281 356.273438 62.414062 356.769531 62.691406 C 357.34375 63.011719 357.945312 63.296875 358.484375 63.652344 C 360.035156 64.6875 361.046875 66.3125 361.769531 67.992188 C 362.003906 68.535156 362.21875 69.089844 362.394531 69.652344 C 362.464844 69.875 362.515625 70.105469 362.558594 70.339844 C 362.574219 70.402344 362.574219 70.570312 362.570312 70.667969 C 362.578125 70.714844 362.574219 70.765625 362.566406 70.8125 C 362.511719 71.175781 362.277344 71.296875 362.082031 71.328125 C 360.605469 71.863281 359.140625 72.414062 357.679688 72.984375 L 357.589844 73.019531 C 358.527344 73.480469 359.460938 73.953125 360.394531 74.421875 C 360.597656 74.523438 361.136719 74.679688 361.492188 74.871094 C 361.789062 75.03125 361.984375 75.238281 362.070312 75.417969 C 362.140625 75.585938 362.171875 75.8125 362.128906 76.070312 C 362.082031 76.375 361.921875 76.757812 361.863281 76.9375 C 361.5 78.085938 360.957031 79.21875 360.308594 80.234375 C 359.703125 81.179688 358.980469 82.039062 358.105469 82.746094 C 356.957031 83.667969 355.605469 84.347656 354.679688 85.523438 C 354.035156 86.335938 353.65625 87.292969 353.257812 88.246094 C 352.8125 89.304688 352.34375 90.359375 351.574219 91.257812 C 349.585938 93.582031 346.703125 95.097656 343.648438 95.34375 C 342.953125 95.398438 342.234375 95.4375 341.539062 95.390625 C 341.441406 95.382812 341.007812 95.355469 340.8125 95.265625 C 340.585938 95.15625 340.46875 94.980469 340.425781 94.808594 C 340.371094 94.617188 340.390625 94.351562 340.652344 94.128906 C 340.769531 94.03125 341.15625 93.867188 341.222656 93.839844 C 341.652344 93.632812 342.058594 93.386719 342.457031 93.121094 C 343.507812 92.433594 344.414062 91.550781 345.152344 90.539062 C 345.785156 89.671875 346.34375 88.707031 346.777344 87.722656 C 346.914062 87.417969 347.046875 87.109375 347.136719 86.789062 C 347.144531 86.742188 347.167969 86.566406 347.195312 86.457031 C 347.140625 85.460938 346.972656 84.460938 347.027344 83.523438 C 347.089844 82.402344 347.449219 81.359375 348.539062 80.488281 C 349.644531 79.605469 350.953125 79.113281 352.199219 78.484375 C 352.277344 78.445312 352.441406 78.359375 352.574219 78.289062 C 352.132812 77.800781 351.394531 77.4375 350.867188 77.136719 C 349.199219 76.171875 347.386719 75.453125 345.597656 74.738281 C 344.804688 74.421875 344.003906 74.125 343.191406 73.859375 C 342.871094 73.757812 342.550781 73.660156 342.226562 73.574219 L 342.160156 73.554688 C 340.867188 74.90625 339.351562 76.074219 337.960938 77.308594 C 337.578125 77.648438 337.1875 77.976562 336.808594 78.320312 C 336.773438 78.359375 336.609375 78.535156 336.523438 78.605469 C 336.445312 78.671875 336.367188 78.714844 336.316406 78.734375 C 336.074219 78.832031 335.882812 78.773438 335.757812 78.695312 C 333.984375 77.625 332.234375 76.523438 330.488281 75.40625 C 329.90625 75.035156 329.328125 74.648438 328.742188 74.28125 C 328.554688 74.164062 328.363281 74.050781 328.171875 73.9375 C 328.101562 73.898438 328.035156 73.859375 327.96875 73.816406 C 327.851562 73.773438 327.75 73.695312 327.679688 73.589844 C 327.511719 73.347656 327.566406 73.15625 327.589844 73.066406 C 327.636719 72.90625 327.730469 72.757812 327.90625 72.683594 C 330.546875 70.519531 333.449219 68.785156 336.324219 66.964844 C 336.550781 66.824219 336.84375 66.84375 337.046875 67.019531 C 337.664062 67.550781 339.898438 69.453125 340.519531 69.980469 C 341.09375 70.472656 341.671875 70.964844 342.25 71.449219 C 342.386719 71.5625 342.535156 71.710938 342.691406 71.84375 C 342.78125 71.914062 342.867188 71.984375 342.960938 72.019531 C 343.007812 72.007812 343.222656 71.949219 343.347656 71.894531 C 343.628906 71.765625 343.902344 71.605469 344.0625 71.53125 C 345.542969 70.8125 346.789062 69.695312 348.136719 68.765625 C 348.996094 68.171875 349.886719 67.617188 350.796875 67.101562 C 350.859375 67.066406 350.949219 67.019531 351.050781 66.964844 Z M 341.910156 51.957031 C 342.664062 52.0625 343.445312 52.320312 344.046875 52.503906 C 347.046875 53.425781 350.027344 55.136719 351.871094 57.730469 C 352.910156 59.199219 353.351562 61.082031 354.5 62.453125 C 355.371094 63.488281 356.714844 63.9375 357.8125 64.664062 C 359.167969 65.566406 360.023438 67.007812 360.652344 68.472656 C 360.871094 68.976562 361.070312 69.488281 361.234375 70.011719 C 361.265625 70.109375 361.292969 70.210938 361.316406 70.3125 C 359.949219 70.8125 358.589844 71.324219 357.234375 71.855469 C 357.109375 71.90625 356.28125 72.152344 355.960938 72.359375 C 355.632812 72.570312 355.558594 72.859375 355.570312 73.039062 C 355.582031 73.257812 355.710938 73.453125 355.910156 73.546875 C 357.230469 74.1875 358.539062 74.851562 359.851562 75.507812 C 359.988281 75.578125 360.273438 75.671875 360.5625 75.785156 C 360.667969 75.824219 360.804688 75.890625 360.902344 75.941406 C 360.847656 76.121094 360.742188 76.457031 360.707031 76.570312 C 360.375 77.621094 359.878906 78.652344 359.285156 79.578125 C 358.75 80.414062 358.117188 81.175781 357.34375 81.800781 C 356.125 82.78125 354.710938 83.523438 353.726562 84.769531 C 353.015625 85.671875 352.582031 86.722656 352.140625 87.773438 C 351.742188 88.71875 351.339844 89.667969 350.652344 90.46875 C 348.871094 92.550781 346.289062 93.914062 343.550781 94.132812 C 343.394531 94.144531 343.238281 94.15625 343.082031 94.164062 L 343.128906 94.136719 C 344.296875 93.367188 345.308594 92.386719 346.132812 91.253906 C 346.816406 90.316406 347.417969 89.273438 347.886719 88.214844 C 348.050781 87.847656 348.210938 87.46875 348.3125 87.085938 C 348.324219 87.050781 348.34375 86.90625 348.355469 86.839844 C 348.402344 86.75 348.421875 86.644531 348.417969 86.542969 C 348.382812 85.730469 348.253906 84.910156 348.230469 84.128906 C 348.203125 83.132812 348.355469 82.191406 349.296875 81.4375 C 350.335938 80.605469 351.574219 80.160156 352.746094 79.570312 C 352.964844 79.460938 353.382812 79.285156 353.613281 79.054688 C 353.769531 78.902344 353.871094 78.722656 353.902344 78.53125 C 353.945312 78.324219 353.917969 78.089844 353.757812 77.839844 C 353.269531 77.09375 352.21875 76.511719 351.476562 76.082031 C 349.757812 75.089844 347.890625 74.347656 346.050781 73.613281 C 345.398438 73.351562 344.75 73.105469 344.089844 72.882812 C 344.289062 72.78125 344.46875 72.679688 344.589844 72.621094 C 346.128906 71.878906 347.429688 70.726562 348.828125 69.761719 C 349.65625 69.191406 350.511719 68.65625 351.390625 68.160156 C 351.574219 68.054688 351.964844 67.863281 352.1875 67.636719 C 352.386719 67.429688 352.484375 67.191406 352.484375 66.953125 C 352.488281 66.703125 352.375 66.453125 352.140625 66.238281 C 351.910156 66.027344 351.507812 65.851562 351.34375 65.742188 C 350.644531 65.28125 350.039062 64.753906 349.554688 64.070312 C 347.5625 61.261719 346.878906 57.753906 344.890625 54.925781 C 344.15625 53.882812 343.25 52.976562 342.238281 52.199219 C 342.132812 52.117188 342.023438 52.039062 341.910156 51.957031 Z M 336.59375 68.230469 C 337.460938 68.972656 339.195312 70.449219 339.730469 70.90625 C 340.308594 71.398438 340.886719 71.890625 341.46875 72.378906 L 341.535156 72.4375 C 341.503906 72.46875 341.480469 72.5 341.457031 72.527344 C 340.152344 73.933594 338.585938 75.128906 337.15625 76.398438 C 336.769531 76.742188 336.378906 77.074219 335.992188 77.417969 C 334.363281 76.429688 332.75 75.414062 331.144531 74.382812 C 330.558594 74.007812 329.976562 73.621094 329.386719 73.253906 L 329.246094 73.164062 C 331.574219 71.335938 334.09375 69.808594 336.59375 68.230469 Z M 336.59375 68.230469 " fill-opacity="1" fill-rule="evenodd"/><path fill="#000000" d="M 374.914062 73.636719 L 362.566406 70.8125 L 356.921875 73.0625 L 361.605469 75.300781 Z M 374.914062 73.636719 " fill-opacity="1" fill-rule="evenodd"/><g clip-path="url(#997a4ffec1)"><path fill="#000000" d="M 72.636719 22.535156 C 72.886719 22.476562 72.121094 22.574219 71.867188 22.621094 C 71.378906 22.707031 70.894531 22.808594 70.40625 22.898438 C 69 23.152344 67.628906 23.46875 66.269531 23.914062 C 62.171875 25.253906 58.242188 27.261719 54.640625 29.613281 C 45.925781 35.300781 39.398438 43.84375 35.792969 53.582031 C 34.917969 55.953125 34.160156 58.371094 33.546875 60.824219 C 33.324219 61.707031 32.792969 62.960938 33.207031 63.855469 C 33.925781 65.417969 35.828125 66.402344 37.160156 67.367188 C 36.984375 67.570312 37.6875 67.429688 37.949219 67.476562 C 38.488281 67.570312 39.066406 67.355469 39.566406 67.167969 C 40.964844 66.640625 42.359375 65.488281 43.683594 64.734375 C 44.753906 64.121094 44.804688 62.609375 45.125 61.515625 C 45.816406 59.175781 46.691406 56.890625 47.628906 54.636719 C 52.460938 43.050781 62.722656 30.28125 72.636719 22.535156 Z M 72.636719 22.535156 " fill-opacity="1" fill-rule="evenodd"/></g><path fill="#000000" d="M 72.636719 123.917969 C 72.886719 123.976562 72.121094 123.875 71.867188 123.832031 C 71.378906 123.742188 70.894531 123.644531 70.40625 123.554688 C 69 123.300781 67.628906 122.984375 66.269531 122.539062 C 62.171875 121.199219 58.242188 119.191406 54.640625 116.839844 C 45.925781 111.148438 39.398438 102.609375 35.792969 92.871094 C 34.917969 90.5 34.160156 88.082031 33.546875 85.628906 C 33.324219 84.746094 32.792969 83.492188 33.207031 82.597656 C 33.925781 81.035156 35.828125 80.046875 37.160156 79.085938 C 36.984375 78.882812 37.6875 79.019531 37.949219 78.976562 C 38.488281 78.882812 39.066406 79.097656 39.566406 79.285156 C 40.964844 79.8125 42.359375 80.964844 43.683594 81.71875 C 44.753906 82.332031 44.804688 83.84375 45.125 84.9375 C 45.816406 87.277344 46.691406 89.5625 47.628906 91.8125 C 52.460938 103.402344 62.722656 116.171875 72.636719 123.917969 Z M 72.636719 123.917969 " fill-opacity="1" fill-rule="evenodd"/><path fill="#000000" d="M 23.90625 66.964844 C 24.058594 66.882812 24.203125 66.8125 24.285156 66.757812 C 25.109375 66.210938 25.820312 65.582031 26.394531 64.773438 C 28.386719 61.960938 29.070312 58.453125 31.0625 55.625 C 31.726562 54.683594 32.546875 53.863281 33.460938 53.160156 C 33.867188 52.847656 34.308594 52.574219 34.71875 52.257812 C 34.816406 52.183594 35.046875 51.996094 35.132812 51.851562 C 35.269531 51.617188 35.257812 51.390625 35.164062 51.199219 C 35.097656 51.066406 34.972656 50.898438 34.675781 50.816406 C 33.4375 50.492188 31.710938 50.988281 30.554688 51.34375 C 27.304688 52.34375 24.089844 54.21875 22.097656 57.027344 C 21.558594 57.785156 21.175781 58.648438 20.78125 59.503906 C 20.425781 60.273438 20.0625 61.035156 19.527344 61.675781 C 19.15625 62.113281 18.683594 62.414062 18.1875 62.691406 C 17.613281 63.011719 17.011719 63.296875 16.472656 63.652344 C 14.921875 64.6875 13.910156 66.3125 13.1875 67.992188 C 12.953125 68.535156 12.738281 69.089844 12.5625 69.652344 C 12.492188 69.875 12.441406 70.105469 12.398438 70.339844 C 12.382812 70.402344 12.382812 70.570312 12.386719 70.667969 C 12.378906 70.714844 12.382812 70.765625 12.390625 70.8125 C 12.445312 71.175781 12.679688 71.296875 12.875 71.328125 C 14.351562 71.863281 15.816406 72.414062 17.277344 72.984375 L 17.367188 73.019531 C 16.429688 73.480469 15.496094 73.953125 14.5625 74.421875 C 14.359375 74.523438 13.820312 74.679688 13.464844 74.871094 C 13.167969 75.03125 12.972656 75.238281 12.886719 75.417969 C 12.816406 75.585938 12.785156 75.8125 12.828125 76.070312 C 12.875 76.375 13.035156 76.757812 13.09375 76.9375 C 13.457031 78.085938 14 79.21875 14.648438 80.234375 C 15.253906 81.179688 15.976562 82.039062 16.851562 82.746094 C 18 83.667969 19.351562 84.347656 20.277344 85.523438 C 20.921875 86.335938 21.300781 87.292969 21.699219 88.246094 C 22.144531 89.304688 22.613281 90.359375 23.382812 91.257812 C 25.371094 93.582031 28.253906 95.097656 31.308594 95.34375 C 32.003906 95.398438 32.722656 95.4375 33.417969 95.390625 C 33.515625 95.382812 33.949219 95.355469 34.144531 95.265625 C 34.371094 95.15625 34.488281 94.980469 34.53125 94.808594 C 34.585938 94.617188 34.566406 94.351562 34.304688 94.128906 C 34.1875 94.03125 33.800781 93.867188 33.734375 93.839844 C 33.304688 93.632812 32.898438 93.386719 32.5 93.121094 C 31.449219 92.433594 30.542969 91.550781 29.804688 90.539062 C 29.171875 89.671875 28.613281 88.707031 28.179688 87.722656 C 28.042969 87.417969 27.910156 87.109375 27.820312 86.789062 C 27.8125 86.742188 27.789062 86.566406 27.761719 86.457031 C 27.816406 85.460938 27.984375 84.460938 27.929688 83.523438 C 27.867188 82.402344 27.507812 81.359375 26.417969 80.488281 C 25.3125 79.605469 24.003906 79.113281 22.757812 78.484375 C 22.679688 78.445312 22.515625 78.359375 22.382812 78.289062 C 22.824219 77.800781 23.5625 77.4375 24.089844 77.136719 C 25.757812 76.171875 27.570312 75.453125 29.359375 74.738281 C 30.152344 74.421875 30.953125 74.125 31.765625 73.859375 C 32.085938 73.757812 32.40625 73.660156 32.730469 73.574219 L 32.796875 73.554688 C 34.089844 74.90625 35.605469 76.074219 36.996094 77.308594 C 37.378906 77.648438 37.769531 77.976562 38.148438 78.320312 C 38.183594 78.359375 38.347656 78.535156 38.433594 78.605469 C 38.511719 78.671875 38.589844 78.714844 38.640625 78.734375 C 38.882812 78.832031 39.070312 78.773438 39.199219 78.695312 C 40.972656 77.625 42.722656 76.523438 44.46875 75.40625 C 45.050781 75.035156 45.628906 74.648438 46.214844 74.28125 C 46.402344 74.164062 46.59375 74.050781 46.785156 73.9375 C 46.855469 73.898438 46.921875 73.859375 46.988281 73.816406 C 47.105469 73.773438 47.207031 73.695312 47.277344 73.589844 C 47.445312 73.347656 47.390625 73.15625 47.367188 73.066406 C 47.320312 72.90625 47.226562 72.757812 47.050781 72.683594 C 44.40625 70.519531 41.507812 68.785156 38.632812 66.964844 C 38.40625 66.824219 38.113281 66.84375 37.910156 67.019531 C 37.292969 67.550781 35.058594 69.453125 34.4375 69.980469 C 33.863281 70.472656 33.285156 70.964844 32.707031 71.449219 C 32.570312 71.5625 32.421875 71.710938 32.265625 71.84375 C 32.175781 71.914062 32.089844 71.984375 31.996094 72.019531 C 31.949219 72.007812 31.734375 71.949219 31.609375 71.894531 C 31.328125 71.765625 31.054688 71.605469 30.894531 71.53125 C 29.414062 70.8125 28.167969 69.695312 26.820312 68.765625 C 25.960938 68.171875 25.070312 67.617188 24.160156 67.101562 C 24.097656 67.066406 24.007812 67.019531 23.90625 66.964844 Z M 33.046875 51.957031 C 32.292969 52.0625 31.511719 52.320312 30.910156 52.503906 C 27.910156 53.425781 24.929688 55.136719 23.085938 57.730469 C 22.046875 59.199219 21.605469 61.082031 20.457031 62.453125 C 19.585938 63.488281 18.242188 63.9375 17.144531 64.664062 C 15.789062 65.566406 14.933594 67.007812 14.304688 68.472656 C 14.085938 68.976562 13.886719 69.488281 13.722656 70.011719 C 13.691406 70.109375 13.664062 70.210938 13.640625 70.3125 C 15.007812 70.8125 16.367188 71.324219 17.722656 71.855469 C 17.847656 71.90625 18.675781 72.152344 18.996094 72.359375 C 19.324219 72.570312 19.398438 72.859375 19.386719 73.039062 C 19.375 73.257812 19.246094 73.453125 19.046875 73.546875 C 17.726562 74.1875 16.417969 74.851562 15.105469 75.507812 C 14.96875 75.578125 14.683594 75.671875 14.394531 75.785156 C 14.289062 75.824219 14.152344 75.890625 14.054688 75.941406 C 14.109375 76.121094 14.214844 76.457031 14.25 76.570312 C 14.582031 77.621094 15.078125 78.652344 15.671875 79.578125 C 16.207031 80.414062 16.839844 81.175781 17.613281 81.800781 C 18.832031 82.78125 20.246094 83.523438 21.230469 84.769531 C 21.941406 85.671875 22.375 86.722656 22.816406 87.773438 C 23.214844 88.71875 23.617188 89.667969 24.304688 90.46875 C 26.085938 92.550781 28.667969 93.914062 31.40625 94.132812 C 31.5625 94.144531 31.71875 94.15625 31.875 94.164062 L 31.828125 94.136719 C 30.660156 93.367188 29.648438 92.386719 28.824219 91.253906 C 28.140625 90.316406 27.539062 89.273438 27.070312 88.214844 C 26.90625 87.847656 26.746094 87.46875 26.644531 87.085938 C 26.632812 87.050781 26.613281 86.90625 26.601562 86.839844 C 26.554688 86.75 26.535156 86.644531 26.539062 86.542969 C 26.574219 85.730469 26.703125 84.910156 26.726562 84.128906 C 26.753906 83.132812 26.601562 82.191406 25.660156 81.4375 C 24.621094 80.605469 23.382812 80.160156 22.210938 79.570312 C 21.992188 79.460938 21.574219 79.285156 21.34375 79.054688 C 21.1875 78.902344 21.085938 78.722656 21.054688 78.53125 C 21.011719 78.324219 21.039062 78.089844 21.199219 77.839844 C 21.6875 77.09375 22.738281 76.511719 23.480469 76.082031 C 25.199219 75.089844 27.066406 74.347656 28.90625 73.613281 C 29.558594 73.351562 30.207031 73.105469 30.867188 72.882812 C 30.667969 72.78125 30.488281 72.679688 30.367188 72.621094 C 28.828125 71.878906 27.527344 70.726562 26.128906 69.761719 C 25.300781 69.191406 24.445312 68.65625 23.566406 68.160156 C 23.382812 68.054688 22.992188 67.863281 22.769531 67.636719 C 22.570312 67.429688 22.472656 67.191406 22.472656 66.953125 C 22.46875 66.703125 22.582031 66.453125 22.816406 66.238281 C 23.046875 66.027344 23.449219 65.851562 23.613281 65.742188 C 24.3125 65.28125 24.917969 64.753906 25.402344 64.070312 C 27.394531 61.261719 28.078125 57.753906 30.066406 54.925781 C 30.800781 53.882812 31.707031 52.976562 32.71875 52.199219 C 32.824219 52.117188 32.933594 52.039062 33.046875 51.957031 Z M 38.363281 68.230469 C 37.496094 68.972656 35.761719 70.449219 35.226562 70.90625 C 34.648438 71.398438 34.070312 71.890625 33.488281 72.378906 L 33.421875 72.4375 C 33.453125 72.46875 33.476562 72.5 33.5 72.527344 C 34.804688 73.933594 36.371094 75.128906 37.800781 76.398438 C 38.1875 76.742188 38.578125 77.074219 38.964844 77.417969 C 40.59375 76.429688 42.207031 75.414062 43.8125 74.382812 C 44.398438 74.007812 44.980469 73.621094 45.570312 73.253906 L 45.710938 73.164062 C 43.382812 71.335938 40.863281 69.808594 38.363281 68.230469 Z M 38.363281 68.230469 " fill-opacity="1" fill-rule="evenodd"/><path fill="#000000" d="M 0.0429688 73.636719 L 12.390625 70.8125 L 18.035156 73.0625 L 13.351562 75.300781 Z M 0.0429688 73.636719 " fill-opacity="1" fill-rule="evenodd"/><path fill="#000000" d="M 196.46875 102.847656 C 195.980469 103.503906 196.453125 99.671875 196.433594 98.839844 C 196.335938 95.113281 195.972656 91.40625 195.628906 87.691406 C 194.371094 74.152344 192.03125 59.546875 190.714844 46.015625 C 190.527344 45.929688 190.550781 45.085938 190.53125 44.9375 C 190.390625 43.738281 190.238281 42.539062 190.132812 41.339844 C 189.90625 38.773438 189.824219 36.191406 189.472656 33.636719 C 189.421875 33.261719 189.359375 32.804688 189.09375 32.484375 C 188.878906 32.226562 188.347656 32.042969 188.382812 31.691406 C 188.449219 31.0625 188.828125 30.386719 189.085938 29.792969 C 189.257812 29.390625 189.433594 28.988281 189.628906 28.59375 C 189.730469 28.390625 189.832031 28.191406 189.957031 28.003906 C 190.042969 27.875 190.140625 27.75 190.242188 27.628906 C 190.96875 26.78125 191.257812 27.882812 191.511719 28.441406 C 191.925781 29.371094 192.328125 30.304688 192.722656 31.238281 C 193.222656 32.425781 193.78125 33.59375 194.332031 34.761719 C 195.019531 36.199219 195.6875 37.640625 196.203125 39.128906 C 196.390625 39.671875 196.765625 40.429688 196.628906 41.015625 C 196.539062 41.382812 195.699219 40.71875 195.59375 40.636719 C 195.015625 40.1875 194.511719 39.675781 194.007812 39.175781 C 193.972656 39.140625 193.625 38.738281 193.515625 38.792969 C 193.394531 38.851562 193.550781 39.660156 193.558594 39.753906 C 193.59375 40.054688 193.625 40.351562 193.660156 40.652344 C 193.71875 41.101562 193.773438 41.550781 193.828125 42.003906 C 193.847656 42.210938 193.925781 42.722656 193.945312 42.902344 C 194.058594 43.898438 194.179688 44.894531 194.277344 45.890625 C 194.652344 49.699219 195.046875 53.503906 195.503906 57.304688 C 196.449219 65.117188 197.472656 72.925781 198.371094 80.742188 C 198.910156 85.417969 199.878906 90.167969 199.359375 94.890625 C 199.109375 97.171875 196.957031 102.1875 196.46875 102.847656 Z M 196.46875 102.847656 " fill-opacity="1" fill-rule="evenodd"/><path fill="#000000" d="M 159.492188 41.695312 C 159.359375 41.667969 158.71875 42.445312 158.660156 42.515625 C 158.113281 43.152344 157.613281 43.855469 157.386719 44.605469 C 157.15625 45.359375 157.417969 46.140625 157.734375 46.851562 C 158.28125 48.105469 159.125 49.273438 159.632812 50.535156 C 159.855469 51.097656 160.519531 52.378906 159.453125 52.671875 C 157.449219 53.230469 155.53125 51.511719 155.105469 50.175781 C 154.886719 49.484375 154.960938 48.769531 154.878906 48.066406 C 154.828125 47.605469 154.730469 47.144531 154.601562 46.695312 C 154.40625 46.015625 154.148438 45.351562 153.867188 44.691406 C 153.59375 44.058594 153.300781 43.433594 152.964844 42.816406 C 152.914062 42.726562 152.742188 42.320312 152.585938 42.292969 C 152.410156 42.261719 152.097656 42.871094 152.046875 42.953125 C 151.589844 43.722656 150.890625 44.640625 150.695312 45.472656 C 150.640625 45.699219 150.890625 45.976562 151.023438 46.160156 C 151.347656 46.617188 151.664062 47.089844 151.90625 47.574219 C 152.730469 49.207031 152.488281 51.121094 151.652344 52.726562 C 151.203125 53.589844 149.925781 54.285156 148.648438 53.871094 C 147.492188 53.496094 147.179688 52.515625 147.152344 51.640625 C 147.097656 49.828125 147.609375 48.0625 147.40625 46.238281 C 147.332031 45.589844 147.132812 44.953125 146.878906 44.335938 C 146.847656 44.257812 146.65625 43.746094 146.460938 43.804688 C 146.21875 43.882812 146.050781 44.292969 145.949219 44.453125 C 145.550781 45.074219 145.242188 45.726562 144.917969 46.371094 C 144.714844 46.773438 144.3125 47.296875 144.339844 47.746094 C 144.359375 48.023438 144.710938 47.960938 144.828125 48.191406 C 145.050781 48.621094 145.054688 49.125 145.0625 49.582031 C 145.085938 51.15625 144.941406 52.75 145.265625 54.3125 C 145.46875 55.292969 145.914062 56.28125 146.945312 56.925781 C 148.042969 57.613281 149.71875 57.507812 150.863281 56.957031 C 152.515625 56.164062 153.789062 54.375 153.519531 52.863281 C 153.441406 52.933594 153.703125 53.300781 153.738281 53.363281 C 154.046875 53.882812 154.414062 54.375 154.917969 54.796875 C 156.414062 56.050781 159.660156 56.832031 161.066406 55.089844 C 161.9375 54.007812 162.074219 52.605469 162.074219 51.363281 C 162.074219 49.875 161.78125 48.390625 161.304688 46.949219 C 160.785156 45.382812 159.757812 43.300781 159.492188 41.695312 Z M 159.492188 41.695312 " fill-opacity="1" fill-rule="evenodd"/><path fill="#000000" d="M 297.257812 93.71875 C 297.199219 93.699219 297.019531 94 296.992188 94.035156 C 296.738281 94.367188 296.515625 94.722656 296.285156 95.070312 C 296.046875 95.421875 295.640625 95.910156 295.699219 96.367188 C 295.828125 97.386719 297.183594 98.957031 295.417969 99.371094 C 293.902344 99.726562 292.128906 98.246094 292.238281 96.695312 C 292.28125 96.125 292.488281 95.597656 292.644531 95.054688 C 292.671875 94.960938 292.789062 94.589844 292.609375 94.5625 C 292.15625 94.5 291.4375 95.71875 291.230469 95.996094 C 290.167969 97.425781 289.300781 99.308594 287.652344 100.164062 C 286.101562 100.964844 284.238281 100.234375 282.660156 99.871094 C 281.421875 99.585938 280.230469 99.625 279.019531 100.003906 C 277.355469 100.523438 275.503906 102.148438 274.140625 103.136719 C 270.464844 105.8125 267 108.773438 263.417969 111.578125 C 260.445312 113.90625 257.351562 116.125 254.175781 118.160156 C 251.007812 120.191406 247.882812 122.265625 244.527344 123.976562 C 243.753906 124.371094 242.96875 124.742188 242.195312 125.152344 C 242.039062 125.234375 241.421875 125.402344 241.382812 125.625 C 241.335938 125.875 242.011719 125.867188 242.132812 125.875 C 243.027344 125.925781 243.949219 125.636719 244.808594 125.417969 C 248.125 124.570312 251.988281 123.363281 255.003906 121.710938 C 257.242188 120.480469 259.125 118.566406 261.078125 116.941406 C 264.03125 114.496094 267.03125 112.117188 270.007812 109.703125 C 272.414062 107.753906 274.816406 105.695312 277.578125 104.269531 C 278.582031 103.75 279.738281 103.25 280.890625 103.351562 C 281.726562 103.425781 282.515625 103.949219 283.277344 104.269531 C 284.988281 104.988281 286.878906 105.167969 288.449219 103.992188 C 288.953125 103.621094 289.386719 103.152344 289.761719 102.652344 C 290.21875 102.054688 290.617188 101.394531 290.878906 100.6875 C 290.449219 100.886719 291.84375 101.984375 291.953125 102.050781 C 293.136719 102.773438 294.8125 103.589844 295.964844 102.617188 C 299.589844 99.5625 297.695312 96.054688 297.257812 93.71875 Z M 297.257812 93.71875 " fill-opacity="1" fill-rule="evenodd"/><path fill="#000000" d="M 242.421875 45.996094 C 242.101562 46.097656 242.140625 46.785156 241.65625 46.769531 C 241.183594 46.753906 240.566406 46.070312 240.253906 45.828125 C 239.253906 45.042969 238.550781 44.523438 238.582031 43.328125 C 238.601562 42.625 238.808594 41.269531 239.875 41.042969 C 240.226562 40.96875 240.59375 41.074219 240.933594 41.144531 C 241.195312 41.199219 241.457031 41.265625 241.6875 41.390625 C 242.015625 41.5625 242.3125 41.804688 242.570312 42.042969 C 243.019531 42.449219 243.375 42.90625 243.703125 43.375 C 244.269531 44.175781 244.773438 44.984375 245.183594 45.84375 C 245.792969 47.125 246.285156 48.4375 246.757812 49.75 C 247.476562 47.523438 248.042969 45.257812 249.039062 43.089844 C 249.496094 42.105469 249.988281 40.941406 250.988281 40.207031 C 252.039062 39.4375 253.117188 40.101562 253.796875 40.875 C 254.1875 41.320312 254.710938 41.957031 254.757812 42.515625 C 254.804688 43.121094 254.347656 43.828125 254.023438 44.355469 C 253.9375 44.496094 253.75 44.878906 253.515625 44.910156 C 253.320312 44.933594 252.933594 44.457031 252.828125 44.359375 C 252.179688 43.734375 251.125 42.554688 250.21875 43.632812 C 250.054688 43.824219 249.9375 44.039062 249.828125 44.253906 C 249.648438 44.601562 249.492188 44.960938 249.359375 45.324219 C 248.492188 47.71875 248.105469 50.207031 247.273438 52.605469 C 247.070312 53.191406 246.835938 53.796875 246.457031 54.328125 C 246.378906 54.4375 246.195312 54.761719 245.992188 54.742188 C 245.773438 54.71875 245.695312 54.382812 245.648438 54.253906 C 245.441406 53.6875 245.324219 53.097656 245.207031 52.511719 C 244.773438 50.324219 244.011719 47.863281 242.421875 45.996094 Z M 242.421875 45.996094 " fill-opacity="1" fill-rule="evenodd"/><path fill="#000000" d="M 99.851562 48.65625 C 99.53125 48.757812 99.570312 49.449219 99.085938 49.429688 C 98.609375 49.414062 97.996094 48.730469 97.683594 48.488281 C 96.683594 47.703125 95.980469 47.183594 96.011719 45.992188 C 96.027344 45.289062 96.238281 43.929688 97.304688 43.703125 C 97.652344 43.628906 98.019531 43.738281 98.359375 43.804688 C 98.625 43.859375 98.886719 43.925781 99.117188 44.050781 C 99.441406 44.226562 99.742188 44.46875 100 44.703125 C 100.445312 45.109375 100.800781 45.570312 101.132812 46.035156 C 101.695312 46.835938 102.203125 47.644531 102.609375 48.503906 C 103.21875 49.785156 103.714844 51.097656 104.1875 52.410156 C 104.90625 50.183594 105.472656 47.917969 106.46875 45.75 C 106.921875 44.765625 107.417969 43.601562 108.417969 42.867188 C 109.46875 42.097656 110.542969 42.765625 111.222656 43.539062 C 111.617188 43.980469 112.140625 44.617188 112.183594 45.175781 C 112.230469 45.78125 111.773438 46.488281 111.449219 47.015625 C 111.367188 47.15625 111.179688 47.539062 110.945312 47.570312 C 110.75 47.59375 110.359375 47.121094 110.257812 47.019531 C 109.609375 46.394531 108.554688 45.214844 107.644531 46.292969 C 107.484375 46.484375 107.363281 46.699219 107.253906 46.914062 C 107.074219 47.261719 106.917969 47.621094 106.785156 47.984375 C 105.921875 50.382812 105.53125 52.867188 104.699219 55.269531 C 104.496094 55.851562 104.261719 56.457031 103.886719 56.988281 C 103.808594 57.097656 103.625 57.421875 103.421875 57.402344 C 103.203125 57.382812 103.125 57.042969 103.078125 56.917969 C 102.871094 56.347656 102.75 55.757812 102.632812 55.171875 C 102.203125 52.988281 101.4375 50.523438 99.851562 48.65625 Z M 99.851562 48.65625 " fill-opacity="1" fill-rule="evenodd"/><path fill="#000000" d="M 242.898438 71.371094 C 242.617188 71.453125 242.652344 72.027344 242.21875 72.015625 C 241.796875 72 241.25 71.429688 240.972656 71.230469 C 240.085938 70.578125 239.460938 70.144531 239.484375 69.152344 C 239.503906 68.566406 239.6875 67.4375 240.636719 67.25 C 240.949219 67.1875 241.273438 67.277344 241.574219 67.332031 C 241.8125 67.375 242.042969 67.433594 242.246094 67.535156 C 242.539062 67.679688 242.804688 67.882812 243.03125 68.078125 C 243.429688 68.417969 243.746094 68.800781 244.039062 69.191406 C 244.539062 69.855469 244.988281 70.527344 245.351562 71.242188 C 245.894531 72.308594 246.335938 73.402344 246.753906 74.496094 C 247.394531 72.640625 247.898438 70.753906 248.78125 68.949219 C 249.1875 68.132812 249.625 67.164062 250.515625 66.554688 C 251.449219 65.910156 252.40625 66.464844 253.007812 67.109375 C 253.359375 67.480469 253.824219 68.007812 253.863281 68.472656 C 253.90625 68.976562 253.5 69.566406 253.210938 70.003906 C 253.136719 70.121094 252.96875 70.441406 252.761719 70.464844 C 252.585938 70.484375 252.242188 70.089844 252.152344 70.007812 C 251.574219 69.488281 250.636719 68.507812 249.828125 69.402344 C 249.683594 69.5625 249.578125 69.742188 249.480469 69.917969 C 249.320312 70.210938 249.183594 70.507812 249.066406 70.808594 C 248.296875 72.804688 247.949219 74.875 247.210938 76.871094 C 247.03125 77.359375 246.820312 77.863281 246.484375 78.304688 C 246.417969 78.394531 246.253906 78.664062 246.074219 78.648438 C 245.878906 78.628906 245.808594 78.347656 245.769531 78.242188 C 245.582031 77.769531 245.476562 77.28125 245.375 76.792969 C 244.992188 74.972656 244.3125 72.925781 242.898438 71.371094 Z M 242.898438 71.371094 " fill-opacity="1" fill-rule="evenodd"/><path fill="#000000" d="M 206.90625 45.964844 L 210.632812 41.398438 L 215.707031 46.039062 L 212.0625 50.625 Z M 206.90625 45.964844 " fill-opacity="1" fill-rule="evenodd"/><path fill="#000000" d="M 215.710938 45.273438 L 219.4375 40.710938 L 224.515625 45.351562 L 220.867188 49.9375 Z M 215.710938 45.273438 " fill-opacity="1" fill-rule="evenodd"/><path fill="#000000" d="M 155.140625 68.21875 L 158.867188 63.652344 L 163.945312 68.296875 L 160.300781 72.878906 Z M 155.140625 68.21875 " fill-opacity="1" fill-rule="evenodd"/><path fill="#000000" d="M 163.945312 68.21875 L 167.671875 63.652344 L 172.75 68.296875 L 169.105469 72.878906 Z M 163.945312 68.21875 " fill-opacity="1" fill-rule="evenodd"/><path fill="#000000" d="M 104.105469 73.683594 L 107.832031 69.117188 L 112.910156 73.761719 L 109.265625 78.34375 Z M 104.105469 73.683594 " fill-opacity="1" fill-rule="evenodd"/><path fill="#000000" d="M 132.710938 115.71875 L 136.4375 111.152344 L 141.515625 115.792969 L 137.871094 120.378906 Z M 132.710938 115.71875 " fill-opacity="1" fill-rule="evenodd"/><path fill="#000000" d="M 141.519531 115.71875 L 145.246094 111.152344 L 150.324219 115.792969 L 146.675781 120.378906 Z M 141.519531 115.71875 " fill-opacity="1" fill-rule="evenodd"/><path fill="#000000" d="M 232.445312 64.902344 L 231.609375 68.03125 L 259.539062 58.648438 L 261.753906 54.738281 C 261.753906 54.738281 232.703125 64.746094 232.445312 64.902344 Z M 232.445312 64.902344 " fill-opacity="1" fill-rule="evenodd"/><path fill="#000000" d="M 159.839844 117.246094 L 159.003906 120.375 L 186.929688 110.996094 L 189.148438 107.085938 C 189.148438 107.085938 160.09375 117.089844 159.839844 117.246094 Z M 159.839844 117.246094 " fill-opacity="1" fill-rule="evenodd"/><path fill="#000000" d="M 170.128906 33.625 C 170.335938 32.738281 170.929688 31.546875 171.28125 30.660156 C 171.671875 29.660156 172.074219 28.65625 172.535156 27.6875 C 172.628906 27.484375 172.839844 26.808594 173.117188 26.773438 C 173.464844 26.722656 174.1875 28.796875 174.285156 29.023438 C 175.40625 31.5625 176.59375 34.070312 177.695312 36.613281 C 178.273438 37.941406 178.859375 39.269531 179.339844 40.636719 C 179.46875 41 179.835938 41.761719 179.609375 42.152344 C 179.425781 42.472656 178.828125 42.054688 178.65625 41.921875 C 177.863281 41.296875 177.082031 40.484375 176.609375 39.578125 C 176.460938 39.664062 177.039062 41.953125 177.085938 42.160156 C 177.722656 45.109375 178.425781 48.046875 179.042969 51.003906 C 181.445312 62.511719 184.222656 74.738281 184.375 86.542969 C 184.445312 92.121094 183.03125 98.386719 177.921875 101.472656 C 174.207031 103.714844 165.886719 103.539062 165.285156 97.832031 C 164.632812 98.332031 164.09375 99.554688 163.5625 100.214844 C 162.316406 101.773438 160.855469 103.273438 159.234375 104.441406 C 154.257812 108.019531 148.011719 105.664062 145.421875 100.394531 C 143.667969 96.824219 143.628906 92.59375 143.167969 88.710938 C 142.953125 86.851562 142.738281 85.003906 142.484375 83.152344 C 142.445312 82.855469 142.484375 81.691406 142.226562 81.488281 C 142.066406 81.363281 141.699219 82.167969 141.660156 82.242188 C 141.164062 83.253906 140.761719 84.308594 140.277344 85.324219 C 138.996094 88.015625 137.609375 90.75 134.277344 90.480469 C 134.191406 90.363281 134.183594 91.179688 134.179688 91.261719 C 134.152344 91.726562 134.132812 92.191406 134.101562 92.652344 C 134.007812 94.070312 133.917969 95.480469 133.742188 96.890625 C 133.1875 101.375 131.417969 104.230469 127.953125 107.179688 C 120.507812 113.523438 110.546875 118.007812 100.882812 119.410156 C 96.855469 119.996094 92.296875 120.179688 88.402344 118.796875 C 78.988281 115.457031 79.507812 103.894531 81.09375 95.878906 C 81.527344 93.695312 82.503906 88.195312 84.875 86.972656 C 85.1875 86.8125 85.066406 87.824219 85.0625 87.910156 C 84.925781 89.160156 84.644531 90.402344 84.414062 91.640625 C 83.808594 94.894531 83.21875 98.214844 83.160156 101.535156 C 83.023438 109.714844 89.03125 114.136719 96.871094 114 C 106.355469 113.839844 116.160156 109.863281 123.933594 104.625 C 126.1875 103.109375 130.367188 100.550781 130.957031 97.574219 C 131.492188 94.871094 130.773438 91.867188 129.820312 89.335938 C 129.03125 87.242188 128.011719 86.378906 128.195312 84.015625 C 128.257812 83.128906 128.144531 80.699219 128.808594 80.03125 C 128.964844 79.878906 129.570312 81.121094 129.636719 81.238281 C 130.066406 81.996094 130.558594 82.726562 131.214844 83.316406 C 132.804688 84.746094 134.914062 84.589844 136.585938 83.378906 C 138.570312 81.9375 139.828125 79.582031 140.582031 77.296875 C 140.792969 76.65625 141.121094 74.265625 141.90625 74.011719 C 143.378906 73.546875 144.152344 78.265625 144.238281 78.9375 C 145.015625 85.019531 145.140625 92.347656 149.347656 97.25 C 154.796875 103.609375 163.59375 96.234375 165.460938 90.367188 C 165.371094 90.199219 166.09375 90.425781 166.191406 90.554688 C 166.574219 91.046875 166.855469 91.6875 167.089844 92.25 C 167.835938 94.042969 168.171875 96.019531 169.820312 97.269531 C 172.808594 99.542969 177.871094 97.097656 179.339844 94.078125 C 179.503906 94.058594 179.484375 92.597656 179.484375 92.472656 C 179.523438 90.882812 179.488281 89.300781 179.402344 87.714844 C 179.046875 80.804688 177.945312 73.976562 176.691406 67.183594 C 175.140625 58.824219 173.609375 50.4375 172.671875 41.984375 C 172.5 40.386719 172.394531 38.773438 172.292969 37.171875 C 172.207031 35.789062 171.578125 34.15625 170.128906 33.625 Z M 170.128906 33.625 " fill-opacity="1" fill-rule="evenodd"/><path fill="#000000" d="M 214.699219 98.511719 C 214.609375 98.347656 214.5 98.691406 214.425781 98.820312 C 214.195312 99.214844 213.972656 99.621094 213.765625 100.027344 C 213.175781 101.191406 212.566406 102.347656 212.050781 103.542969 C 210.597656 106.886719 208.75 110.34375 209.289062 114.054688 C 209.464844 115.25 209.839844 117.152344 211.402344 117.417969 C 213.40625 117.753906 214.503906 115.351562 215.085938 113.992188 C 215.21875 113.671875 215.355469 113.347656 215.453125 113.015625 C 215.613281 112.46875 215.820312 111.746094 215.628906 111.179688 C 215.4375 110.601562 214.84375 111.460938 214.710938 111.660156 C 214.261719 112.328125 213.59375 113.644531 212.585938 112.925781 C 212.457031 112.835938 212.347656 112.734375 212.25 112.617188 C 212.109375 112.453125 211.992188 112.269531 211.898438 112.078125 C 211.378906 111.023438 211.476562 109.703125 211.710938 108.597656 C 212.207031 106.277344 213.421875 104.136719 214.316406 101.933594 C 214.746094 100.875 215.644531 99.078125 214.699219 98.511719 C 214.613281 98.460938 215.019531 98.386719 214.957031 98.3125 " fill-opacity="1" fill-rule="evenodd"/><path fill="#000000" d="M 94.125 59.007812 C 93.960938 58.75 93.757812 59.292969 93.617188 59.492188 C 93.183594 60.113281 92.765625 60.75 92.378906 61.390625 C 91.28125 63.21875 90.140625 65.035156 89.171875 66.914062 C 86.453125 72.167969 82.996094 77.601562 84.007812 83.433594 C 84.332031 85.308594 85.039062 88.300781 87.957031 88.714844 C 91.710938 89.246094 93.765625 85.46875 94.847656 83.332031 C 95.101562 82.828125 95.351562 82.324219 95.539062 81.800781 C 95.839844 80.9375 96.226562 79.808594 95.867188 78.914062 C 95.503906 78.007812 94.398438 79.355469 94.152344 79.671875 C 93.308594 80.71875 92.058594 82.785156 90.171875 81.660156 C 89.933594 81.519531 89.726562 81.355469 89.546875 81.175781 C 89.28125 80.914062 89.066406 80.625 88.886719 80.324219 C 87.917969 78.671875 88.101562 76.59375 88.539062 74.859375 C 89.464844 71.207031 91.734375 67.84375 93.410156 64.386719 C 94.21875 62.71875 95.898438 59.898438 94.125 59.007812 C 93.96875 58.929688 94.726562 58.816406 94.613281 58.695312 " fill-opacity="1" fill-rule="evenodd"/><path fill="#000000" d="M 233.140625 88.242188 C 233.246094 88.269531 233.933594 88.179688 234.015625 88.242188 C 233.996094 88.078125 234.351562 88.253906 234.523438 88.257812 C 234.8125 88.257812 236.25 88.40625 236.164062 87.882812 C 236.085938 87.382812 235.453125 86.839844 235.144531 86.472656 C 234.101562 85.242188 232.9375 84.09375 231.742188 83.011719 C 231.539062 82.828125 230.40625 81.5625 230.097656 81.746094 C 229.46875 82.121094 229.550781 83.75 229.46875 84.351562 C 229.410156 84.824219 229.34375 85.296875 229.269531 85.769531 C 229.230469 86.03125 229.183594 86.292969 229.125 86.550781 C 228.890625 87.625 228.730469 87.683594 229.339844 88.601562 C 229.449219 88.773438 229.566406 88.941406 229.679688 89.113281 C 229.875 89.402344 230.066406 89.6875 230.277344 89.96875 C 230.28125 89.964844 230.542969 90.414062 230.550781 90.4375 C 230.726562 90.765625 230.890625 91.097656 231.054688 91.433594 C 231.542969 92.4375 232.058594 93.417969 232.601562 94.394531 C 233.265625 95.59375 233.917969 96.800781 234.664062 97.953125 C 235.59375 99.394531 236.78125 101.023438 236.910156 102.796875 C 236.992188 102.710938 236.847656 103.023438 236.820312 103.136719 C 236.761719 103.402344 236.660156 103.652344 236.542969 103.898438 C 236.210938 104.597656 235.804688 105.257812 235.359375 105.886719 C 233.960938 107.878906 232.179688 109.488281 230.246094 110.949219 C 224.667969 115.164062 217.78125 119.5625 210.695312 120.515625 C 205.476562 121.21875 200.144531 119.882812 198.878906 114.144531 C 198.332031 111.644531 198.222656 109.105469 198.488281 106.566406 C 198.585938 105.574219 198.710938 104.578125 198.886719 103.597656 C 198.902344 103.496094 199.15625 102.617188 198.941406 102.644531 C 198.542969 102.691406 198.160156 103.367188 197.964844 103.65625 C 197.164062 104.863281 196.800781 106.339844 196.640625 107.765625 C 196.082031 112.59375 196.214844 118.617188 199.339844 122.613281 C 203.148438 127.484375 209.289062 127.332031 214.613281 125.410156 C 219.628906 123.597656 224.128906 120.597656 228.410156 117.472656 C 232.839844 114.234375 237.492188 110.328125 239.355469 104.96875 C 241.5 98.785156 235.589844 93.347656 233.140625 88.242188 Z M 233.140625 88.242188 " fill-opacity="1" fill-rule="evenodd"/><path fill="#000000" d="M 272.253906 81.671875 C 272.261719 81.746094 272.347656 81.921875 272.363281 81.96875 C 272.433594 82.246094 272.507812 82.523438 272.574219 82.800781 C 272.777344 83.632812 273 84.449219 273.242188 85.265625 C 274.074219 88.066406 276.277344 90.414062 279.394531 90.160156 C 282.929688 89.871094 285.609375 87.039062 287.152344 84.046875 C 287.707031 82.957031 288.128906 81.832031 288.527344 80.675781 C 288.609375 80.445312 288.8125 79.59375 289.105469 79.519531 C 289.269531 79.476562 289.34375 80.023438 289.363281 80.113281 C 289.523438 80.761719 289.585938 81.433594 289.667969 82.09375 C 289.910156 83.90625 290.355469 85.925781 292.09375 86.882812 C 293.363281 87.582031 295.019531 87.742188 296.421875 87.410156 C 296.902344 87.296875 297.691406 87.105469 297.863281 86.558594 C 297.976562 86.195312 298.238281 85.554688 298.175781 85.195312 C 298.011719 84.191406 296.925781 82.871094 296.710938 81.878906 C 296.699219 81.875 298.0625 80.320312 298.199219 80.171875 C 298.808594 79.492188 299.425781 78.808594 300.0625 78.152344 C 300.195312 78.011719 300.578125 77.476562 300.828125 77.527344 C 301.023438 77.566406 301.003906 78.054688 301.011719 78.1875 C 301.058594 79.003906 301.011719 79.835938 301.023438 80.65625 C 301.070312 83.738281 300.992188 87.179688 299.390625 89.917969 C 299 90.582031 298.5 91.171875 297.941406 91.703125 C 294.078125 95.398438 289.808594 91.582031 287.320312 88.332031 C 287.304688 88.308594 287.160156 88.640625 287.152344 88.664062 C 287.054688 88.863281 286.964844 89.058594 286.863281 89.257812 C 286.570312 89.867188 286.234375 90.457031 285.878906 91.035156 C 284.738281 92.917969 283.414062 94.472656 281.230469 95.136719 C 278.070312 96.101562 274.160156 95.410156 272.207031 92.539062 C 271.324219 91.242188 271.136719 89.820312 270.65625 88.378906 C 270.445312 88.3125 269.519531 89.128906 269.335938 89.238281 C 267.996094 90.066406 266.6875 90.910156 265.296875 91.652344 C 265.125 91.515625 265.363281 92.085938 265.394531 92.300781 C 265.460938 92.753906 265.523438 93.207031 265.578125 93.660156 C 265.726562 94.960938 265.882812 96.261719 265.785156 97.570312 C 265.8125 97.578125 265.558594 98.121094 265.550781 98.136719 C 265.175781 98.863281 264.769531 99.578125 264.351562 100.277344 C 262.453125 103.390625 260.152344 106.257812 257.5625 108.824219 C 256.011719 110.367188 254.390625 111.847656 252.625 113.15625 C 251.433594 114.042969 250.164062 114.847656 248.851562 115.554688 C 242.5 118.980469 230.585938 121.65625 226.855469 113.113281 C 224.792969 108.382812 225.214844 102.617188 226.421875 97.710938 C 226.714844 96.496094 227.027344 95.253906 227.558594 94.117188 C 227.636719 93.949219 227.867188 93.210938 228.113281 93.191406 C 228.367188 93.171875 228.082031 94.636719 228.074219 94.710938 C 227.722656 96.535156 227.3125 98.363281 227.148438 100.214844 C 226.734375 104.796875 228.058594 110.171875 232.699219 112.105469 C 241.660156 115.828125 251.710938 108.867188 258 103.054688 C 259.515625 101.648438 260.914062 100.179688 262.261719 98.617188 C 262.863281 97.929688 263.808594 96.859375 263.945312 95.894531 C 264.070312 95.027344 263.695312 94.195312 263.445312 93.394531 C 263.167969 93.386719 262.765625 93.683594 262.511719 93.789062 C 261.804688 94.078125 261.089844 94.363281 260.367188 94.640625 C 257.984375 95.5625 255.058594 96.285156 252.570312 95.375 C 251.925781 95.136719 251.324219 94.820312 250.808594 94.367188 C 246.921875 90.972656 250.164062 85.691406 252.792969 82.683594 C 254.167969 81.109375 255.9375 79.394531 258.214844 79.957031 C 259.726562 80.332031 260.878906 81.609375 261.769531 82.820312 C 262.777344 84.199219 263.410156 85.628906 264.007812 87.207031 C 263.996094 87.21875 263.996094 87.226562 264.015625 87.226562 L 264.007812 87.207031 C 264.054688 87.160156 264.304688 87.050781 264.324219 87.042969 C 264.546875 86.941406 264.761719 86.832031 264.972656 86.722656 C 265.59375 86.398438 266.191406 86.046875 266.796875 85.695312 C 268.773438 84.550781 270.648438 83.3125 272.253906 81.671875 C 272.246094 81.644531 272.253906 81.632812 272.277344 81.648438 Z M 259.59375 88.824219 C 259.574219 88.800781 258.550781 89.167969 258.527344 89.175781 C 258.128906 89.316406 257.703125 89.402344 257.289062 89.460938 C 256.09375 89.625 254.300781 89.847656 253.417969 88.804688 C 252.390625 87.59375 253.703125 85.921875 254.996094 85.714844 C 256.59375 85.457031 258.855469 87.230469 259.59375 88.824219 Z M 259.59375 88.824219 " fill-opacity="1" fill-rule="evenodd"/><path fill="#000000" d="M 270.203125 81.492188 C 270.289062 81.460938 270.535156 81.144531 270.582031 81.101562 C 270.960938 80.757812 271.371094 80.449219 271.792969 80.152344 C 273.386719 79.027344 275.175781 78.164062 276.757812 77.019531 C 281.835938 73.335938 286.90625 69.535156 291.507812 65.355469 C 292.636719 64.332031 293.726562 63.277344 294.84375 62.246094 C 295.339844 61.785156 296.203125 61.210938 296.496094 60.597656 C 296.621094 60.339844 295.796875 59.9375 295.644531 59.828125 C 294.757812 59.179688 293.925781 58.449219 293.308594 57.566406 C 292.292969 56.113281 292.816406 54.773438 293.695312 53.371094 C 294.546875 52.015625 295.613281 50.769531 297.199219 50.113281 C 298.546875 49.558594 299.929688 50.390625 300.457031 51.5625 C 301.164062 53.128906 300.761719 55.027344 300.234375 56.585938 C 300.078125 57.046875 299.894531 57.507812 299.628906 57.925781 C 299.546875 58.0625 299.1875 58.375 299.171875 58.527344 C 299.160156 58.628906 299.601562 58.898438 299.679688 58.957031 C 300.125 59.304688 300.722656 59.648438 300.933594 60.179688 C 301.234375 60.945312 300.8125 61.96875 300.402344 62.632812 C 300.308594 62.789062 300.035156 63.3125 299.777344 63.28125 C 299.492188 63.246094 299.234375 62.96875 299.027344 62.808594 C 298.523438 62.417969 298.042969 62.003906 297.554688 61.597656 C 296.890625 62.25 296.367188 63.117188 295.75 63.816406 C 294.074219 65.71875 292.320312 67.621094 290.421875 69.335938 C 287.296875 72.160156 283.402344 74.308594 279.832031 76.605469 C 277.179688 78.308594 273.402344 80.726562 270.203125 81.492188 C 270.199219 81.492188 270.195312 81.496094 270.195312 81.496094 Z M 298.34375 57.714844 C 298.441406 57.242188 298.621094 56.789062 298.6875 56.304688 C 298.820312 55.339844 298.558594 54.304688 297.878906 53.546875 C 297.523438 53.152344 297.035156 52.816406 296.472656 52.746094 C 295.699219 52.644531 294.855469 53.273438 294.832031 54.003906 C 294.816406 54.445312 295.152344 54.84375 295.449219 55.160156 C 296.132812 55.878906 297.539062 57.109375 298.34375 57.714844 Z M 298.34375 57.714844 " fill-opacity="1" fill-rule="evenodd"/><path fill="#000000" d="M 264.09375 58.097656 C 264.15625 58.203125 264.761719 58.015625 264.902344 57.984375 C 265.226562 57.914062 265.550781 57.859375 265.878906 57.804688 C 266.886719 57.636719 267.898438 57.511719 268.929688 57.457031 C 272.09375 57.289062 275.789062 57.351562 278.746094 58.40625 C 278.847656 58.277344 278.457031 58.597656 278.3125 58.695312 C 277.988281 58.914062 277.640625 59.117188 277.296875 59.3125 C 276.332031 59.863281 275.363281 60.414062 274.351562 60.90625 C 271.496094 62.285156 268.511719 63.488281 265.722656 64.957031 C 265.058594 65.304688 264.359375 65.628906 263.726562 66.015625 C 263.652344 66.058594 263.140625 66.355469 263.230469 66.460938 C 263.457031 66.726562 264.625 66.488281 264.898438 66.457031 C 266.664062 66.242188 268.390625 65.878906 270.121094 65.546875 C 271.902344 65.203125 274.210938 65.179688 275.84375 64.460938 C 276.671875 64.097656 277.347656 63.238281 277.9375 62.667969 C 279.378906 61.265625 280.757812 59.820312 282.15625 58.390625 C 283.679688 56.835938 286.089844 54.621094 286.125 52.496094 C 286.164062 50.320312 281.746094 50.449219 279.988281 50.320312 C 279.390625 50.277344 278.792969 50.214844 278.195312 50.164062 C 276.078125 49.988281 273.914062 49.890625 271.785156 49.957031 C 271.027344 49.980469 269.992188 49.875 269.285156 50.152344 C 268.292969 50.535156 267.761719 51.464844 267.21875 52.1875 C 265.941406 53.882812 264.9375 56.226562 264.09375 58.097656 Z M 264.09375 58.097656 " fill-opacity="1" fill-rule="evenodd"/><path fill="#000000" d="M 118.890625 56.460938 C 118.945312 56.550781 119.445312 56.390625 119.5625 56.363281 C 119.828125 56.304688 120.097656 56.253906 120.367188 56.210938 C 121.203125 56.070312 122.039062 55.960938 122.894531 55.917969 C 125.507812 55.773438 128.5625 55.828125 131.011719 56.722656 C 131.09375 56.613281 130.769531 56.882812 130.652344 56.964844 C 130.382812 57.152344 130.097656 57.320312 129.8125 57.488281 C 129.011719 57.957031 128.214844 58.421875 127.375 58.835938 C 125.015625 60.003906 122.546875 61.027344 120.238281 62.269531 C 119.6875 62.566406 119.113281 62.839844 118.585938 63.167969 C 118.527344 63.203125 118.105469 63.453125 118.179688 63.546875 C 118.363281 63.769531 119.332031 63.566406 119.558594 63.539062 C 121.015625 63.359375 122.445312 63.050781 123.878906 62.769531 C 125.351562 62.480469 127.261719 62.457031 128.609375 61.851562 C 129.292969 61.542969 129.855469 60.8125 130.339844 60.328125 C 131.535156 59.144531 132.675781 57.917969 133.832031 56.707031 C 135.089844 55.390625 137.085938 53.515625 137.113281 51.714844 C 137.144531 49.871094 133.492188 49.980469 132.035156 49.871094 C 131.542969 49.835938 131.050781 49.78125 130.554688 49.738281 C 128.804688 49.589844 127.011719 49.507812 125.253906 49.5625 C 124.628906 49.582031 123.769531 49.492188 123.1875 49.726562 C 122.367188 50.050781 121.925781 50.839844 121.476562 51.449219 C 120.421875 52.886719 119.59375 54.875 118.890625 56.460938 Z M 118.890625 56.460938 " fill-opacity="1" fill-rule="evenodd"/><path fill="#000000" d="M 216.417969 73.042969 C 216.417969 72.953125 217.355469 71.730469 217.375 71.699219 C 217.566406 71.441406 217.765625 71.195312 217.972656 70.945312 C 218.625 70.148438 219.265625 69.34375 219.894531 68.53125 C 221.472656 66.5 223.164062 64.558594 224.816406 62.585938 C 225.199219 62.128906 225.589844 61.675781 226.019531 61.269531 C 226.070312 61.222656 226.40625 60.859375 226.5 60.960938 C 226.644531 61.121094 226.460938 61.679688 226.421875 61.847656 C 226.234375 62.703125 225.941406 63.550781 225.59375 64.351562 C 224.117188 67.761719 221.316406 70.554688 219.105469 73.492188 C 218.582031 73.535156 218.773438 74.222656 218.96875 74.441406 C 219.738281 75.3125 220.566406 76.09375 221.277344 77.03125 C 223.082031 79.421875 224.121094 81.667969 224.207031 84.722656 C 224.242188 85.914062 224.1875 87.101562 223.902344 88.265625 C 223.066406 91.671875 220.289062 93.898438 217.417969 95.628906 C 215.769531 96.621094 213.65625 97.726562 211.671875 97.550781 C 209.082031 97.324219 208.035156 95.042969 207.691406 92.738281 C 206.996094 88.085938 208.789062 83.792969 211.203125 79.898438 C 211.8125 78.910156 212.464844 77.945312 213.136719 76.996094 C 213.398438 76.621094 213.921875 76.160156 214.050781 75.707031 C 214.097656 75.539062 213.765625 75.5 213.65625 75.367188 C 213.230469 74.851562 212.8125 74.332031 212.382812 73.820312 C 210.925781 72.089844 209.449219 70.382812 207.964844 68.671875 C 207.597656 68.246094 206.761719 68.28125 206.53125 67.769531 C 205.882812 66.339844 206.585938 64.1875 206.828125 62.730469 C 206.890625 62.363281 206.921875 61.125 207.527344 61.160156 C 208.027344 61.1875 208.722656 61.804688 209.136719 62.050781 C 210.589844 62.917969 211.984375 63.925781 213.34375 64.929688 C 213.699219 65.195312 214.757812 65.898438 214.722656 66.441406 C 214.707031 66.691406 214.277344 66.730469 214.097656 66.75 C 213.65625 66.800781 212.539062 66.660156 212.203125 66.988281 C 211.898438 67.289062 212.382812 68.058594 212.527344 68.324219 C 213.164062 69.523438 215.410156 72.132812 216.417969 73.042969 C 216.425781 73.046875 216.425781 73.046875 216.425781 73.046875 Z M 216.078125 78.730469 C 215.8125 78.800781 215.554688 79.175781 215.378906 79.351562 C 214.898438 79.828125 214.433594 80.316406 213.980469 80.824219 C 213.554688 81.304688 213.148438 81.804688 212.773438 82.320312 C 212.429688 82.789062 212.113281 83.273438 211.8125 83.769531 C 210.652344 85.691406 209.019531 90.007812 212.113281 91.175781 C 215.085938 92.300781 218.183594 89.605469 220.191406 87.789062 C 220.871094 87.167969 222.179688 86.160156 222.132812 85.128906 C 222.105469 84.386719 221.503906 83.660156 221.0625 83.097656 C 219.878906 81.578125 217.6875 79.804688 216.078125 78.730469 Z M 216.078125 78.730469 " fill-opacity="1" fill-rule="evenodd"/></svg>