<svg xmlns="http://www.w3.org/2000/svg" xmlns:xlink="http://www.w3.org/1999/xlink" width="500" zoomAndPan="magnify" viewBox="0 0 375 149.999998" height="200" preserveAspectRatio="xMidYMid meet" version="1.0"><defs><clipPath id="aa5569d40b"><path d="M 305 13.59375 L 344 13.59375 L 344 57 L 305 57 Z M 305 13.59375 " clip-rule="nonzero"/></clipPath><clipPath id="00a30ef605"><path d="M 172 110 L 182 110 L 182 136.59375 L 172 136.59375 Z M 172 110 " clip-rule="nonzero"/></clipPath></defs><g clip-path="url(#aa5569d40b)"><path fill="#000000" d="M 305.535156 13.765625 C 305.339844 13.675781 305.96875 13.742188 306.1875 13.761719 C 306.667969 13.800781 307.144531 13.863281 307.617188 13.933594 C 309.019531 14.148438 310.386719 14.515625 311.730469 14.945312 C 315.664062 16.199219 319.488281 18.101562 322.945312 20.347656 C 330.976562 25.574219 336.910156 33.664062 340.660156 42.414062 C 342.074219 45.714844 343.585938 49.269531 343.585938 52.925781 C 343.605469 52.9375 343.414062 53.183594 343.40625 53.191406 C 343.171875 53.492188 342.914062 53.765625 342.640625 54.027344 C 341.515625 55.113281 340.242188 55.988281 338.800781 56.601562 C 338.683594 56.652344 338.46875 56.570312 338.363281 56.539062 C 337.949219 56.417969 337.550781 56.25 337.152344 56.082031 C 335.449219 55.34375 333.890625 54.289062 332.425781 53.160156 C 332.015625 52.84375 332.128906 52.085938 331.984375 51.582031 C 331.613281 50.304688 331.234375 49.023438 330.847656 47.75 C 330.027344 45.050781 328.894531 42.4375 327.609375 39.929688 C 327.441406 39.90625 327.496094 39.601562 327.417969 39.445312 C 327.1875 38.972656 326.945312 38.507812 326.699219 38.046875 C 325.632812 36.03125 324.464844 34.070312 323.226562 32.160156 C 319.214844 25.964844 311.558594 18.144531 305.535156 13.765625 Z M 305.535156 13.765625 " fill-opacity="1" fill-rule="evenodd"/></g><path fill="#000000" d="M 305.535156 109.425781 C 305.339844 109.515625 305.96875 109.449219 306.1875 109.429688 C 306.667969 109.390625 307.144531 109.328125 307.617188 109.257812 C 309.019531 109.042969 310.386719 108.675781 311.730469 108.246094 C 315.664062 106.992188 319.488281 105.09375 322.945312 102.84375 C 330.976562 97.617188 336.910156 89.53125 340.660156 80.78125 C 342.074219 77.476562 343.585938 73.921875 343.585938 70.265625 C 343.605469 70.253906 343.414062 70.007812 343.40625 70 C 343.171875 69.703125 342.914062 69.425781 342.640625 69.164062 C 341.515625 68.078125 340.242188 67.203125 338.800781 66.589844 C 338.683594 66.539062 338.46875 66.621094 338.363281 66.652344 C 337.949219 66.773438 337.550781 66.941406 337.152344 67.113281 C 335.449219 67.847656 333.890625 68.902344 332.425781 70.03125 C 332.015625 70.347656 332.128906 71.105469 331.984375 71.609375 C 331.613281 72.890625 331.234375 74.167969 330.847656 75.445312 C 330.027344 78.140625 328.894531 80.753906 327.609375 83.261719 C 327.441406 83.289062 327.496094 83.589844 327.417969 83.746094 C 327.1875 84.21875 326.945312 84.683594 326.699219 85.144531 C 325.632812 87.160156 324.464844 89.121094 323.226562 91.035156 C 319.214844 97.226562 311.558594 105.046875 305.535156 109.425781 Z M 305.535156 109.425781 " fill-opacity="1" fill-rule="evenodd"/><path fill="#000000" d="M 351.851562 55.710938 C 351.789062 55.675781 351.722656 55.640625 351.667969 55.617188 C 351.371094 55.476562 351.09375 55.355469 351.007812 55.300781 C 350.132812 54.734375 349.417969 53.914062 348.871094 53.03125 C 348.039062 51.6875 347.554688 50.1875 347.066406 48.691406 C 346.609375 47.292969 346.152344 45.898438 345.335938 44.660156 C 344.738281 43.753906 343.859375 43.023438 342.960938 42.425781 C 342.792969 42.316406 342.496094 42.21875 342.242188 42.105469 C 341.960938 41.976562 341.71875 41.828125 341.582031 41.675781 C 341.394531 41.46875 341.394531 41.277344 341.410156 41.15625 C 341.4375 40.96875 341.527344 40.800781 341.730469 40.6875 C 341.785156 40.65625 341.863281 40.621094 341.960938 40.609375 C 342.03125 40.597656 342.308594 40.625 342.347656 40.628906 C 342.550781 40.625 342.75 40.632812 342.949219 40.640625 C 343.574219 40.65625 344.203125 40.675781 344.824219 40.765625 C 346.703125 41.035156 348.535156 41.675781 350.183594 42.625 C 352.199219 43.785156 354.015625 45.507812 355.054688 47.605469 C 355.339844 48.171875 355.515625 48.84375 355.714844 49.5 C 355.882812 50.046875 356.066406 50.582031 356.394531 50.996094 C 356.578125 51.226562 356.835938 51.308594 357.097656 51.382812 C 357.359375 51.457031 357.632812 51.511719 357.894531 51.59375 C 358.671875 51.828125 359.40625 52.203125 360.039062 52.703125 C 361.238281 53.648438 362.039062 54.988281 362.761719 56.308594 C 363.007812 56.757812 363.222656 57.214844 363.441406 57.675781 C 363.511719 57.832031 363.585938 57.984375 363.648438 58.144531 C 363.695312 58.261719 363.765625 58.574219 363.769531 58.621094 C 363.789062 59.066406 363.453125 59.203125 363.351562 59.242188 C 363.347656 59.242188 363.328125 59.25 363.304688 59.253906 C 361.820312 60.046875 360.109375 60.507812 358.527344 61.027344 C 358.347656 61.085938 358.167969 61.144531 357.988281 61.207031 L 358 61.210938 C 359.207031 61.695312 360.46875 62.066406 361.722656 62.40625 C 361.828125 62.433594 362.582031 62.554688 362.902344 62.675781 C 363.234375 62.800781 363.371094 63.03125 363.410156 63.152344 C 363.449219 63.269531 363.464844 63.449219 363.414062 63.65625 C 363.339844 63.980469 363.0625 64.511719 363.003906 64.660156 C 362.476562 65.953125 361.753906 67.136719 360.875 68.214844 C 360.085938 69.1875 359.109375 69.9375 358.132812 70.6875 C 357.238281 71.375 356.339844 72.054688 355.625 72.949219 C 354.742188 74.050781 354.25 75.386719 353.566406 76.605469 C 352.621094 78.300781 351.347656 79.796875 349.628906 80.746094 C 348.265625 81.5 346.769531 81.835938 345.230469 81.980469 C 344.675781 82.03125 344.121094 82.078125 343.566406 82.121094 C 343.492188 82.125 343.09375 82.113281 343.023438 82.113281 C 342.75 82.152344 342.480469 82.007812 342.367188 81.753906 C 342.238281 81.46875 342.339844 81.132812 342.609375 80.96875 C 342.640625 80.953125 342.6875 80.925781 342.757812 80.902344 C 343.507812 80.667969 344.191406 80.199219 344.804688 79.722656 C 346.484375 78.421875 348.023438 76.496094 348.394531 74.359375 C 348.527344 73.597656 348.464844 72.800781 348.453125 72.015625 C 348.441406 71.097656 348.5 70.191406 348.882812 69.34375 C 349.535156 67.90625 351.199219 67.054688 352.550781 66.421875 C 352.8125 66.300781 353.070312 66.183594 353.335938 66.078125 C 351.558594 64.90625 349.597656 63.980469 347.675781 63.109375 C 346.902344 62.757812 346.121094 62.417969 345.347656 62.066406 C 345.078125 61.941406 344.808594 61.820312 344.539062 61.699219 C 343.355469 62.917969 342.046875 64.035156 340.816406 65.203125 C 340.449219 65.554688 340.082031 65.90625 339.71875 66.265625 C 339.65625 66.324219 339.535156 66.488281 339.425781 66.59375 C 339.285156 66.726562 339.136719 66.800781 339.027344 66.828125 C 338.863281 66.867188 338.691406 66.84375 338.550781 66.757812 C 336.648438 65.597656 334.703125 64.492188 332.753906 63.402344 C 332.097656 63.035156 331.433594 62.660156 330.769531 62.296875 C 330.566406 62.183594 330.359375 62.066406 330.152344 61.960938 L 329.992188 61.878906 C 329.921875 61.863281 329.859375 61.832031 329.796875 61.789062 C 329.605469 61.648438 329.507812 61.414062 329.546875 61.179688 C 329.582031 60.984375 329.683594 60.828125 329.878906 60.730469 L 329.886719 60.726562 C 330.53125 60.378906 331.125 59.894531 331.742188 59.488281 C 332.863281 58.757812 333.996094 58.039062 335.136719 57.332031 C 335.609375 57.039062 336.085938 56.753906 336.558594 56.460938 L 337.664062 55.773438 C 337.71875 55.703125 337.796875 55.648438 337.878906 55.609375 C 338.066406 55.527344 338.277344 55.539062 338.453125 55.644531 C 340.171875 56.679688 341.808594 57.714844 343.496094 58.804688 C 343.9375 59.089844 344.382812 59.363281 344.832031 59.648438 L 344.894531 59.679688 C 344.917969 59.691406 344.941406 59.707031 344.96875 59.71875 L 345.046875 59.761719 C 346.765625 58.726562 348.933594 57.742188 350.503906 56.578125 C 350.746094 56.398438 351.152344 56.179688 351.527344 55.929688 C 351.640625 55.855469 351.753906 55.785156 351.851562 55.710938 Z M 344.441406 41.964844 C 344.507812 41.972656 344.578125 41.980469 344.644531 41.992188 C 346.371094 42.238281 348.054688 42.828125 349.566406 43.699219 C 351.375 44.738281 353.011719 46.277344 353.945312 48.15625 C 354.199219 48.664062 354.351562 49.273438 354.53125 49.863281 C 354.746094 50.5625 355.003906 51.238281 355.425781 51.769531 C 355.730469 52.152344 356.117188 52.367188 356.542969 52.507812 C 356.859375 52.617188 357.203125 52.679688 357.53125 52.777344 C 358.160156 52.96875 358.757812 53.273438 359.273438 53.679688 C 360.34375 54.519531 361.03125 55.730469 361.671875 56.90625 C 361.90625 57.328125 362.113281 57.761719 362.316406 58.199219 C 362.335938 58.246094 362.359375 58.289062 362.378906 58.335938 C 361.042969 58.988281 359.539062 59.390625 358.140625 59.851562 C 357.652344 60.011719 357.160156 60.164062 356.707031 60.398438 C 356.609375 60.445312 356.398438 60.554688 356.28125 60.679688 C 356.109375 60.851562 356.042969 61.0625 356.0625 61.269531 C 356.078125 61.449219 356.175781 61.667969 356.402344 61.847656 C 356.6875 62.070312 357.378906 62.292969 357.539062 62.359375 C 358.789062 62.863281 360.097656 63.25 361.398438 63.601562 C 361.449219 63.617188 361.769531 63.6875 362.046875 63.746094 C 361.964844 63.933594 361.878906 64.136719 361.855469 64.195312 C 361.378906 65.375 360.714844 66.449219 359.914062 67.433594 C 359.183594 68.328125 358.28125 69.015625 357.378906 69.703125 C 356.40625 70.449219 355.433594 71.203125 354.65625 72.175781 C 353.730469 73.328125 353.199219 74.722656 352.484375 76 C 351.652344 77.492188 350.546875 78.824219 349.03125 79.660156 C 347.953125 80.257812 346.78125 80.546875 345.574219 80.695312 C 347.484375 79.214844 349.191406 77 349.617188 74.574219 C 349.765625 73.738281 349.703125 72.863281 349.695312 72 C 349.683594 71.261719 349.703125 70.535156 350.011719 69.859375 C 350.546875 68.679688 351.96875 68.0625 353.078125 67.542969 C 353.476562 67.355469 353.875 67.179688 354.296875 67.042969 C 354.320312 67.035156 354.8125 66.90625 354.910156 66.867188 C 355.34375 66.707031 355.332031 66.308594 355.324219 66.246094 C 355.316406 66.0625 355.226562 65.894531 355.078125 65.785156 C 352.988281 64.21875 350.558594 63.054688 348.1875 61.980469 C 347.414062 61.628906 346.636719 61.289062 345.863281 60.9375 L 345.65625 60.84375 C 347.402344 59.78125 349.636719 58.765625 351.242188 57.570312 C 351.523438 57.363281 352.035156 57.101562 352.449219 56.800781 C 352.832031 56.523438 353.132812 56.199219 353.261719 55.875 C 353.359375 55.625 353.335938 55.304688 353.042969 55.015625 C 352.898438 54.875 352.644531 54.714844 352.367188 54.574219 C 352.078125 54.433594 351.765625 54.316406 351.683594 54.261719 C 350.960938 53.792969 350.375 53.105469 349.925781 52.378906 C 349.144531 51.121094 348.703125 49.710938 348.242188 48.308594 C 347.757812 46.804688 347.25 45.308594 346.371094 43.976562 C 345.863281 43.203125 345.179688 42.539062 344.441406 41.964844 Z M 338.171875 56.921875 C 339.75 57.878906 341.265625 58.839844 342.824219 59.847656 C 343.191406 60.082031 343.5625 60.3125 343.929688 60.542969 C 342.6875 61.867188 341.28125 63.054688 339.964844 64.304688 C 339.589844 64.660156 339.214844 65.019531 338.847656 65.382812 C 338.835938 65.398438 338.8125 65.421875 338.789062 65.449219 C 337 64.375 335.179688 63.34375 333.363281 62.324219 C 332.710938 61.957031 332.058594 61.589844 331.40625 61.230469 C 331.746094 60.996094 332.082031 60.75 332.417969 60.527344 C 333.53125 59.800781 334.65625 59.085938 335.789062 58.386719 C 336.261719 58.09375 336.742188 57.808594 337.214844 57.511719 C 337.265625 57.480469 337.796875 57.167969 338.171875 56.921875 Z M 330.53125 61.785156 L 330.453125 61.832031 C 330.425781 61.84375 330.40625 61.851562 330.382812 61.863281 C 330.4375 61.839844 330.488281 61.816406 330.53125 61.785156 Z M 344.996094 61.132812 C 344.980469 61.179688 344.957031 61.230469 344.929688 61.273438 C 344.957031 61.230469 344.976562 61.183594 344.996094 61.132812 Z M 363.707031 58.386719 C 363.710938 58.394531 363.714844 58.402344 363.714844 58.414062 Z M 363.699219 58.367188 L 363.699219 58.371094 Z M 363.699219 58.367188 " fill-opacity="1" fill-rule="evenodd"/><path fill="#000000" d="M 375 61.84375 L 363.414062 63.65625 L 357.09375 61.363281 L 363.140625 58.863281 Z M 375 61.84375 " fill-opacity="1" fill-rule="evenodd"/><path fill="#000000" d="M 69.4375 15.828125 C 69.632812 15.738281 69.003906 15.804688 68.785156 15.824219 C 68.308594 15.863281 67.828125 15.925781 67.355469 15.996094 C 65.953125 16.210938 64.589844 16.578125 63.242188 17.007812 C 59.308594 18.261719 55.484375 20.164062 52.027344 22.410156 C 43.996094 27.636719 38.0625 35.722656 34.3125 44.472656 C 32.898438 47.777344 31.386719 51.332031 31.386719 54.988281 C 31.367188 55 31.558594 55.246094 31.566406 55.253906 C 31.800781 55.550781 32.058594 55.828125 32.332031 56.089844 C 33.460938 57.175781 34.734375 58.050781 36.171875 58.664062 C 36.292969 58.714844 36.503906 58.632812 36.609375 58.601562 C 37.027344 58.480469 37.425781 58.3125 37.820312 58.144531 C 39.523438 57.40625 41.082031 56.351562 42.550781 55.222656 C 42.957031 54.90625 42.84375 54.148438 42.992188 53.644531 C 43.363281 52.363281 43.738281 51.085938 44.125 49.808594 C 44.949219 47.113281 46.082031 44.5 47.363281 41.992188 C 47.53125 41.96875 47.480469 41.664062 47.554688 41.507812 C 47.785156 41.035156 48.027344 40.570312 48.273438 40.109375 C 49.339844 38.09375 50.507812 36.132812 51.746094 34.21875 C 55.757812 28.027344 63.414062 20.207031 69.4375 15.828125 Z M 69.4375 15.828125 " fill-opacity="1" fill-rule="evenodd"/><path fill="#000000" d="M 69.4375 111.488281 C 69.632812 111.578125 69.003906 111.511719 68.785156 111.492188 C 68.308594 111.453125 67.828125 111.390625 67.355469 111.316406 C 65.953125 111.105469 64.589844 110.738281 63.242188 110.308594 C 59.308594 109.054688 55.484375 107.152344 52.027344 104.90625 C 43.996094 99.679688 38.0625 91.589844 34.3125 82.839844 C 32.898438 79.539062 31.386719 75.984375 31.386719 72.324219 C 31.367188 72.316406 31.558594 72.070312 31.566406 72.058594 C 31.800781 71.761719 32.058594 71.488281 32.332031 71.226562 C 33.460938 70.140625 34.734375 69.265625 36.171875 68.652344 C 36.292969 68.601562 36.503906 68.683594 36.609375 68.714844 C 37.027344 68.835938 37.425781 69.003906 37.820312 69.171875 C 39.523438 69.910156 41.082031 70.964844 42.550781 72.09375 C 42.957031 72.410156 42.84375 73.167969 42.992188 73.667969 C 43.363281 74.949219 43.738281 76.230469 44.125 77.503906 C 44.949219 80.199219 46.082031 82.816406 47.363281 85.324219 C 47.53125 85.347656 47.480469 85.648438 47.554688 85.808594 C 47.785156 86.277344 48.027344 86.742188 48.273438 87.207031 C 49.339844 89.222656 50.507812 91.183594 51.746094 93.09375 C 55.757812 99.289062 63.414062 107.105469 69.4375 111.488281 Z M 69.4375 111.488281 " fill-opacity="1" fill-rule="evenodd"/><path fill="#000000" d="M 23.121094 57.773438 C 23.183594 57.738281 23.25 57.703125 23.304688 57.679688 C 23.601562 57.539062 23.882812 57.417969 23.964844 57.363281 C 24.839844 56.796875 25.554688 55.972656 26.105469 55.09375 C 26.933594 53.75 27.421875 52.25 27.910156 50.753906 C 28.363281 49.355469 28.820312 47.960938 29.636719 46.722656 C 30.234375 45.816406 31.113281 45.085938 32.015625 44.488281 C 32.183594 44.375 32.476562 44.28125 32.734375 44.164062 C 33.011719 44.039062 33.253906 43.890625 33.390625 43.738281 C 33.582031 43.53125 33.578125 43.339844 33.5625 43.21875 C 33.539062 43.03125 33.445312 42.863281 33.246094 42.75 C 33.1875 42.714844 33.113281 42.683594 33.015625 42.671875 C 32.941406 42.660156 32.664062 42.683594 32.625 42.6875 C 32.421875 42.6875 32.222656 42.695312 32.023438 42.703125 C 31.398438 42.71875 30.769531 42.738281 30.148438 42.824219 C 28.273438 43.097656 26.4375 43.738281 24.789062 44.6875 C 22.773438 45.847656 20.960938 47.570312 19.917969 49.664062 C 19.632812 50.230469 19.457031 50.90625 19.257812 51.5625 C 19.089844 52.105469 18.90625 52.644531 18.578125 53.058594 C 18.394531 53.289062 18.136719 53.371094 17.875 53.445312 C 17.613281 53.519531 17.339844 53.574219 17.078125 53.65625 C 16.304688 53.890625 15.570312 54.265625 14.933594 54.765625 C 13.734375 55.710938 12.933594 57.050781 12.214844 58.371094 C 11.96875 58.816406 11.75 59.277344 11.535156 59.738281 C 11.460938 59.890625 11.386719 60.046875 11.324219 60.207031 C 11.277344 60.324219 11.207031 60.636719 11.207031 60.683594 C 11.183594 61.128906 11.519531 61.265625 11.621094 61.300781 C 11.625 61.304688 11.644531 61.3125 11.667969 61.316406 C 13.152344 62.109375 14.863281 62.570312 16.445312 63.089844 C 16.625 63.148438 16.808594 63.207031 16.984375 63.265625 L 16.972656 63.269531 C 15.765625 63.757812 14.507812 64.128906 13.25 64.46875 C 13.144531 64.496094 12.394531 64.617188 12.074219 64.738281 C 11.738281 64.863281 11.601562 65.09375 11.5625 65.214844 C 11.523438 65.332031 11.507812 65.511719 11.558594 65.71875 C 11.632812 66.042969 11.910156 66.574219 11.96875 66.722656 C 12.496094 68.015625 13.21875 69.199219 14.097656 70.277344 C 14.890625 71.25 15.863281 72 16.839844 72.75 C 17.738281 73.433594 18.632812 74.117188 19.351562 75.011719 C 20.230469 76.113281 20.722656 77.449219 21.40625 78.667969 C 22.351562 80.359375 23.625 81.859375 25.34375 82.808594 C 26.707031 83.5625 28.203125 83.898438 29.742188 84.042969 C 30.296875 84.09375 30.851562 84.136719 31.40625 84.179688 C 31.484375 84.1875 31.878906 84.175781 31.953125 84.171875 C 32.222656 84.214844 32.492188 84.070312 32.609375 83.816406 C 32.734375 83.53125 32.632812 83.195312 32.363281 83.03125 C 32.335938 83.011719 32.285156 82.984375 32.214844 82.964844 C 31.46875 82.730469 30.785156 82.261719 30.167969 81.785156 C 28.488281 80.484375 26.953125 78.558594 26.578125 76.421875 C 26.445312 75.660156 26.511719 74.863281 26.519531 74.078125 C 26.53125 73.160156 26.476562 72.253906 26.089844 71.40625 C 25.4375 69.96875 23.777344 69.117188 22.421875 68.484375 C 22.164062 68.363281 21.902344 68.246094 21.636719 68.136719 C 23.414062 66.96875 25.378906 66.042969 27.296875 65.171875 C 28.070312 64.820312 28.851562 64.480469 29.625 64.125 C 29.894531 64.003906 30.164062 63.882812 30.433594 63.761719 C 31.617188 64.980469 32.925781 66.097656 34.15625 67.265625 C 34.523438 67.617188 34.890625 67.96875 35.253906 68.328125 C 35.316406 68.386719 35.4375 68.550781 35.546875 68.65625 C 35.691406 68.785156 35.835938 68.863281 35.945312 68.890625 C 36.109375 68.929688 36.28125 68.902344 36.421875 68.816406 C 38.328125 67.660156 40.273438 66.554688 42.21875 65.464844 C 42.875 65.09375 43.539062 64.722656 44.203125 64.359375 C 44.40625 64.246094 44.613281 64.128906 44.824219 64.023438 L 44.984375 63.941406 C 45.050781 63.921875 45.117188 63.890625 45.179688 63.847656 C 45.367188 63.710938 45.464844 63.476562 45.425781 63.242188 C 45.390625 63.046875 45.289062 62.890625 45.09375 62.792969 L 45.089844 62.789062 C 44.441406 62.4375 43.851562 61.953125 43.230469 61.550781 C 42.109375 60.816406 40.976562 60.101562 39.839844 59.394531 C 39.363281 59.101562 38.886719 58.816406 38.414062 58.523438 L 37.308594 57.835938 C 37.253906 57.765625 37.175781 57.710938 37.09375 57.671875 C 36.90625 57.589844 36.695312 57.601562 36.523438 57.707031 C 34.804688 58.742188 33.164062 59.777344 31.476562 60.867188 C 31.035156 61.152344 30.589844 61.425781 30.140625 61.707031 L 30.078125 61.742188 C 30.054688 61.753906 30.03125 61.765625 30.007812 61.78125 L 29.925781 61.824219 C 28.210938 60.789062 26.039062 59.804688 24.46875 58.640625 C 24.226562 58.457031 23.820312 58.238281 23.445312 57.992188 C 23.332031 57.917969 23.21875 57.847656 23.121094 57.773438 Z M 30.53125 44.027344 C 30.464844 44.035156 30.394531 44.042969 30.328125 44.050781 C 28.601562 44.300781 26.917969 44.890625 25.40625 45.761719 C 23.597656 46.800781 21.960938 48.335938 21.027344 50.21875 C 20.773438 50.726562 20.625 51.335938 20.441406 51.925781 C 20.226562 52.625 19.96875 53.300781 19.546875 53.832031 C 19.242188 54.214844 18.855469 54.429688 18.429688 54.570312 C 18.113281 54.679688 17.769531 54.738281 17.441406 54.839844 C 16.8125 55.03125 16.214844 55.335938 15.699219 55.742188 C 14.632812 56.582031 13.941406 57.792969 13.300781 58.964844 C 13.066406 59.390625 12.863281 59.824219 12.65625 60.261719 C 12.636719 60.304688 12.613281 60.351562 12.59375 60.398438 C 13.933594 61.050781 15.4375 61.453125 16.835938 61.914062 C 17.320312 62.074219 17.8125 62.222656 18.269531 62.457031 C 18.363281 62.507812 18.574219 62.617188 18.695312 62.738281 C 18.863281 62.914062 18.929688 63.125 18.910156 63.332031 C 18.894531 63.511719 18.800781 63.726562 18.570312 63.90625 C 18.285156 64.132812 17.597656 64.355469 17.4375 64.421875 C 16.183594 64.925781 14.878906 65.3125 13.578125 65.664062 C 13.523438 65.679688 13.203125 65.75 12.925781 65.808594 C 13.007812 65.996094 13.09375 66.195312 13.117188 66.257812 C 13.597656 67.4375 14.261719 68.511719 15.058594 69.496094 C 15.789062 70.390625 16.695312 71.074219 17.59375 71.765625 C 18.570312 72.511719 19.539062 73.265625 20.316406 74.238281 C 21.242188 75.390625 21.773438 76.785156 22.488281 78.0625 C 23.324219 79.554688 24.429688 80.886719 25.945312 81.722656 C 27.019531 82.320312 28.191406 82.609375 29.398438 82.757812 C 27.492188 81.277344 25.785156 79.0625 25.355469 76.636719 C 25.210938 75.800781 25.269531 74.925781 25.28125 74.058594 C 25.289062 73.324219 25.269531 72.597656 24.960938 71.921875 C 24.425781 70.742188 23.003906 70.125 21.898438 69.605469 C 21.5 69.417969 21.097656 69.242188 20.675781 69.105469 C 20.652344 69.097656 20.164062 68.96875 20.0625 68.929688 C 19.632812 68.769531 19.640625 68.367188 19.648438 68.308594 C 19.65625 68.125 19.75 67.957031 19.894531 67.847656 C 21.988281 66.28125 24.414062 65.117188 26.785156 64.042969 C 27.558594 63.691406 28.335938 63.351562 29.109375 63 L 29.316406 62.90625 C 27.570312 61.839844 25.335938 60.828125 23.730469 59.632812 C 23.449219 59.425781 22.9375 59.164062 22.527344 58.863281 C 22.140625 58.585938 21.839844 58.261719 21.714844 57.9375 C 21.613281 57.683594 21.636719 57.367188 21.929688 57.078125 C 22.074219 56.9375 22.332031 56.777344 22.605469 56.636719 C 22.898438 56.496094 23.210938 56.375 23.289062 56.324219 C 24.015625 55.855469 24.597656 55.167969 25.050781 54.4375 C 25.828125 53.183594 26.273438 51.773438 26.730469 50.371094 C 27.21875 48.867188 27.722656 47.371094 28.601562 46.039062 C 29.113281 45.265625 29.792969 44.597656 30.53125 44.027344 Z M 36.800781 58.984375 C 35.222656 59.941406 33.707031 60.902344 32.148438 61.90625 C 31.785156 62.144531 31.414062 62.375 31.042969 62.605469 C 32.285156 63.929688 33.691406 65.117188 35.007812 66.367188 C 35.382812 66.722656 35.757812 67.082031 36.125 67.445312 C 36.140625 67.460938 36.160156 67.484375 36.183594 67.511719 C 37.972656 66.4375 39.792969 65.402344 41.609375 64.382812 C 42.265625 64.019531 42.914062 63.652344 43.566406 63.292969 C 43.230469 63.054688 42.894531 62.8125 42.554688 62.589844 C 41.441406 61.859375 40.316406 61.148438 39.1875 60.449219 C 38.710938 60.15625 38.230469 59.871094 37.761719 59.574219 C 37.707031 59.542969 37.175781 59.230469 36.800781 58.984375 Z M 44.441406 63.847656 L 44.523438 63.890625 C 44.546875 63.90625 44.566406 63.914062 44.59375 63.925781 C 44.535156 63.902344 44.484375 63.878906 44.441406 63.847656 Z M 29.980469 63.195312 C 29.992188 63.242188 30.015625 63.289062 30.042969 63.335938 C 30.015625 63.292969 29.996094 63.242188 29.980469 63.195312 Z M 11.269531 60.449219 C 11.261719 60.457031 11.261719 60.464844 11.257812 60.476562 Z M 11.277344 60.429688 L 11.277344 60.433594 Z M 11.277344 60.429688 " fill-opacity="1" fill-rule="evenodd"/><path fill="#000000" d="M -0.0273438 63.90625 L 11.558594 65.71875 L 17.878906 63.425781 L 11.832031 60.925781 Z M -0.0273438 63.90625 " fill-opacity="1" fill-rule="evenodd"/><path fill="#000000" d="M 267.132812 84.320312 C 267.023438 84.390625 266.6875 84.542969 266.542969 84.613281 C 266.105469 84.835938 265.65625 85.03125 265.203125 85.222656 C 263.871094 85.796875 262.542969 86.335938 261.113281 86.621094 C 256.847656 87.46875 249.9375 87.101562 249.738281 81.382812 C 249.605469 77.515625 252.320312 73.226562 255.152344 70.78125 C 256.328125 69.765625 257.703125 68.835938 259.304688 68.800781 C 260.613281 68.773438 261.894531 69.34375 262.996094 70 C 265.375 71.417969 267.546875 74.648438 268.777344 77.199219 C 268.769531 77.183594 268.988281 77.132812 269.027344 77.121094 C 269.164062 77.078125 269.304688 77.035156 269.441406 76.992188 C 269.847656 76.867188 270.238281 76.714844 270.628906 76.5625 C 271.847656 76.082031 273.039062 75.539062 274.171875 74.878906 C 275.847656 73.890625 277.410156 72.703125 278.785156 71.320312 C 279.175781 70.929688 279.550781 70.519531 279.929688 70.117188 C 279.992188 70.046875 280.1875 69.769531 280.308594 69.800781 C 280.476562 69.839844 280.441406 70.292969 280.453125 70.40625 C 280.484375 71.070312 280.488281 71.738281 280.546875 72.402344 C 280.679688 73.972656 281.125 75.382812 281.828125 76.785156 C 281.726562 76.867188 282.160156 77.441406 282.203125 77.5 C 282.722656 78.230469 283.46875 78.816406 284.183594 79.347656 C 286.253906 80.875 289.160156 81.457031 291.378906 79.859375 C 294.222656 77.820312 295.308594 74.042969 296.445312 70.917969 C 296.761719 70.039062 297.089844 69.113281 297.613281 68.332031 C 297.796875 68.058594 298.066406 67.667969 298.433594 67.65625 C 298.71875 67.644531 298.910156 67.925781 299.03125 68.144531 C 299.378906 68.761719 299.5625 69.480469 299.71875 70.160156 C 300.28125 72.535156 300.058594 75.820312 302.402344 77.277344 C 304.070312 78.3125 305.96875 78.398438 307.574219 77.234375 C 307.785156 77.078125 308.539062 76.609375 308.613281 76.3125 C 308.71875 75.871094 308.546875 75.296875 308.429688 74.878906 C 308.1875 74.015625 307.316406 72.078125 306.917969 71.273438 C 307.945312 70.527344 308.894531 69.382812 309.394531 68.769531 C 310.054688 67.960938 310.738281 67.171875 311.394531 66.363281 C 311.488281 66.246094 311.832031 65.65625 312.003906 65.648438 C 312.40625 65.625 312.5625 67.558594 312.601562 67.785156 C 312.953125 70.128906 312.902344 72.4375 312.59375 74.785156 C 312.183594 77.957031 311.289062 81.511719 308.605469 83.53125 C 304.121094 86.898438 298.296875 82.980469 297.210938 78.15625 C 297.195312 78.105469 297.019531 78.601562 297.011719 78.625 C 296.882812 78.941406 296.761719 79.261719 296.621094 79.574219 C 296.183594 80.53125 295.628906 81.429688 295.066406 82.316406 C 293.410156 84.949219 291.265625 87.136719 288.164062 87.960938 C 286.417969 88.425781 284.34375 88.542969 282.609375 87.945312 C 278.660156 86.585938 277.519531 81.496094 278.378906 77.84375 C 276.804688 79.164062 274.894531 80.199219 273.144531 81.285156 C 271.777344 82.128906 270.324219 83.171875 268.769531 83.636719 C 268.6875 83.507812 268.84375 83.929688 268.875 84.074219 C 268.925781 84.332031 268.96875 84.589844 269.015625 84.847656 C 269.160156 85.6875 269.265625 86.53125 269.378906 87.375 C 269.726562 90.003906 268.699219 91.359375 267.203125 93.496094 C 262.851562 99.714844 257.015625 105.273438 250.738281 109.515625 C 250.84375 109.1875 250.199219 109.941406 249.921875 110.136719 C 249.394531 110.503906 248.851562 110.839844 248.296875 111.160156 C 246.550781 112.160156 244.695312 113.03125 242.804688 113.714844 C 237.34375 115.691406 231.378906 114.035156 227.261719 110.046875 C 222.507812 105.441406 221.996094 96.929688 223.097656 90.835938 C 223.550781 88.308594 224.429688 85.933594 225.664062 83.691406 C 225.726562 83.566406 226.835938 81.644531 226.980469 81.863281 C 227.488281 82.625 226.210938 85.792969 226.042969 86.578125 C 225.230469 90.410156 224.453125 94.613281 225.53125 98.46875 C 226.085938 100.445312 227.246094 102.136719 228.757812 103.5 C 238.136719 111.953125 250.546875 103.003906 258.789062 97.175781 C 261.070312 95.5625 263.257812 93.839844 265.257812 91.878906 C 265.996094 91.15625 267.144531 90.253906 267.515625 89.238281 C 268.074219 87.699219 267.636719 85.820312 267.132812 84.320312 C 267.179688 84.292969 267.191406 84.277344 267.128906 84.292969 Z M 262.148438 77.9375 C 261.234375 78.429688 259.910156 78.917969 258.929688 79.292969 C 258.328125 79.519531 257.722656 79.679688 257.089844 79.765625 C 256.667969 79.824219 256.210938 79.847656 255.789062 79.742188 C 254.066406 79.308594 254.195312 77.363281 255.050781 76.183594 C 256.226562 74.558594 258.441406 74.378906 260.042969 75.4375 C 260.671875 75.847656 261.824219 77.265625 262.148438 77.9375 Z M 262.148438 77.9375 " fill-opacity="1" fill-rule="evenodd"/><path fill="#000000" d="M 229.71875 71.539062 C 229.839844 71.917969 229.542969 72.703125 229.480469 73.074219 C 229.25 74.425781 228.996094 75.773438 228.726562 77.117188 C 228.617188 77.691406 228.261719 78.488281 228.496094 79.070312 C 228.789062 79.824219 229.851562 79.425781 230.203125 80.015625 C 230.65625 80.769531 230.824219 81.851562 231.136719 82.675781 C 231.738281 84.28125 232.46875 85.789062 233.335938 87.269531 C 234.765625 89.703125 237.390625 92.121094 238 94.957031 C 237.761719 94.960938 237.851562 95.410156 237.742188 95.621094 C 237.410156 96.285156 237.027344 96.921875 236.621094 97.546875 C 235.128906 99.859375 233.152344 101.722656 230.953125 103.367188 C 228.222656 105.414062 225.316406 107.199219 222.371094 108.925781 C 215.578125 112.898438 207.734375 117.050781 199.671875 114.765625 C 193.292969 112.957031 191.792969 105.613281 192.601562 99.773438 C 192.894531 97.65625 193.378906 95.566406 194 93.527344 C 194.253906 92.683594 194.546875 91.847656 194.78125 90.996094 C 194.808594 90.890625 195.011719 90.28125 194.738281 90.320312 C 194.09375 90.417969 193.484375 91.839844 193.226562 92.300781 C 191.839844 94.785156 191.09375 97.546875 190.699219 100.351562 C 189.515625 108.800781 191.269531 121.585938 201.585938 123.074219 C 213.664062 124.816406 224.640625 116.109375 232.949219 108.507812 C 236.292969 105.445312 240.730469 101.386719 241.539062 96.664062 C 242.339844 91.96875 240.542969 87.363281 237.972656 83.511719 C 237.097656 82.199219 235.226562 80.738281 234.710938 79.257812 C 234.464844 78.554688 236.367188 77.945312 236.808594 77.714844 C 237.007812 77.609375 237.5625 77.410156 237.390625 77.101562 C 236.992188 76.398438 236.054688 75.960938 235.433594 75.503906 C 233.914062 74.402344 231.15625 72.742188 229.71875 71.539062 Z M 229.71875 71.539062 " fill-opacity="1" fill-rule="evenodd"/><path fill="#000000" d="M 95.996094 54.738281 C 96.117188 55.113281 95.824219 55.902344 95.761719 56.269531 C 95.527344 57.621094 95.273438 58.96875 95.007812 60.3125 C 94.894531 60.886719 94.542969 61.683594 94.773438 62.269531 C 95.070312 63.023438 96.128906 62.625 96.480469 63.214844 C 96.933594 63.96875 97.105469 65.046875 97.414062 65.871094 C 98.015625 67.480469 98.75 68.984375 99.613281 70.464844 C 101.042969 72.898438 103.667969 75.316406 104.28125 78.15625 C 104.042969 78.15625 104.132812 78.605469 104.019531 78.816406 C 103.6875 79.484375 103.304688 80.117188 102.898438 80.742188 C 101.40625 83.058594 99.429688 84.917969 97.230469 86.5625 C 94.5 88.609375 91.59375 90.394531 88.648438 92.121094 C 81.855469 96.097656 74.011719 100.246094 65.953125 97.960938 C 59.574219 96.152344 58.070312 88.8125 58.882812 82.96875 C 59.171875 80.855469 59.65625 78.765625 60.277344 76.722656 C 60.53125 75.878906 60.828125 75.042969 61.058594 74.191406 C 61.085938 74.089844 61.292969 73.476562 61.015625 73.519531 C 60.375 73.617188 59.761719 75.035156 59.503906 75.496094 C 58.117188 77.980469 57.375 80.742188 56.980469 83.546875 C 55.792969 91.996094 57.546875 104.78125 67.867188 106.269531 C 79.945312 108.015625 90.921875 99.304688 99.230469 91.703125 C 102.570312 88.640625 107.011719 84.582031 107.816406 79.859375 C 108.617188 75.167969 106.820312 70.5625 104.253906 66.707031 C 103.378906 65.394531 101.507812 63.9375 100.988281 62.457031 C 100.742188 61.75 102.644531 61.140625 103.089844 60.910156 C 103.289062 60.804688 103.84375 60.605469 103.667969 60.296875 C 103.273438 59.59375 102.335938 59.15625 101.710938 58.703125 C 100.195312 57.601562 97.4375 55.941406 95.996094 54.738281 Z M 95.996094 54.738281 " fill-opacity="1" fill-rule="evenodd"/><path fill="#000000" d="M 209.261719 51.132812 C 209.648438 51.445312 212.375 51.339844 212.050781 50.464844 C 211.839844 49.886719 211.035156 49.355469 210.585938 48.976562 C 209.109375 47.722656 207.503906 46.550781 205.890625 45.480469 C 205.625 45.308594 204.082031 44.050781 203.757812 44.449219 C 203.117188 45.25 203.402344 47.5 203.34375 48.464844 C 203.3125 49.109375 202.894531 50.585938 203.285156 51.15625 C 203.722656 51.789062 204.640625 51.554688 204.957031 52.371094 C 205.351562 53.378906 205.535156 54.40625 206.042969 55.390625 C 207.265625 57.777344 209.164062 59.816406 211.125 61.621094 C 211.003906 61.582031 210.28125 62.757812 210.21875 62.851562 C 209.261719 64.238281 208.339844 65.636719 207.464844 67.074219 C 204.875 71.324219 204.449219 76.015625 205.171875 80.898438 C 205.6875 84.417969 207.550781 86.964844 211.410156 86.386719 C 214.003906 85.996094 215.925781 84.285156 217.699219 82.476562 C 222.039062 78.042969 224.71875 71.628906 222.257812 65.46875 C 221.582031 63.785156 219.785156 62.621094 218.351562 61.632812 C 217.867188 61.300781 216.71875 60.808594 216.90625 60.082031 C 217.25 58.785156 218.621094 57.496094 219.410156 56.460938 C 221.242188 54.054688 223.085938 51.652344 224.730469 49.109375 C 225.28125 48.269531 227.273438 45.972656 226.449219 44.847656 C 225.304688 43.285156 223.265625 46.125 222.636719 46.832031 C 222.335938 47.171875 222.046875 47.511719 221.757812 47.855469 C 221.441406 48.234375 221.125 48.617188 220.808594 48.996094 C 220.476562 49.398438 220.148438 49.804688 219.824219 50.207031 C 219.078125 51.121094 218.347656 52.042969 217.621094 52.96875 C 216.890625 53.894531 216.175781 54.832031 215.46875 55.777344 C 215.246094 56.078125 214.917969 56.761719 214.539062 56.902344 C 214.140625 57.050781 213.371094 56.191406 213.121094 55.964844 C 211.898438 54.84375 210.363281 52.367188 209.261719 51.132812 Z M 213.378906 64.652344 C 211.628906 66.78125 209.863281 68.941406 208.433594 71.308594 C 207.496094 72.871094 206.714844 74.757812 207.175781 76.609375 C 207.558594 78.132812 209.84375 78.214844 211.085938 78.257812 C 214.855469 78.390625 218.671875 75.253906 220.675781 72.292969 C 220.566406 72.15625 220.535156 71.667969 220.464844 71.488281 C 220.207031 70.84375 219.898438 70.25 219.523438 69.667969 C 218.246094 67.710938 215.316406 65.894531 213.378906 64.652344 Z M 213.378906 64.652344 " fill-opacity="1" fill-rule="evenodd"/><path fill="#000000" d="M 201.195312 27.609375 L 206.214844 21.789062 L 213.734375 27.972656 L 208.929688 33.625 Z M 201.195312 27.609375 " fill-opacity="1" fill-rule="evenodd"/><path fill="#000000" d="M 143.84375 62.71875 L 148.863281 56.894531 L 156.378906 63.082031 L 151.578125 68.734375 Z M 143.84375 62.71875 " fill-opacity="1" fill-rule="evenodd"/><path fill="#000000" d="M 156.375 62.71875 L 161.394531 56.894531 L 168.914062 63.082031 L 164.109375 68.734375 Z M 156.375 62.71875 " fill-opacity="1" fill-rule="evenodd"/><path fill="#000000" d="M 213.199219 27.609375 L 218.214844 21.789062 L 225.734375 27.972656 L 220.929688 33.625 Z M 213.199219 27.609375 " fill-opacity="1" fill-rule="evenodd"/><path fill="#000000" d="M 306.0625 46.691406 C 306.0625 46.691406 291.65625 61.363281 283.628906 65.347656 C 283.628906 65.347656 283.972656 66.535156 294.390625 59.320312 C 294.390625 59.320312 302.476562 53.953125 307.109375 47.46875 C 307.109375 47.46875 308.617188 48.742188 309.011719 49.078125 C 309.011719 49.078125 310.84375 47.03125 310.011719 46.074219 L 308.683594 44.835938 C 308.683594 44.835938 311.34375 38.878906 308.992188 37.457031 C 308.992188 37.457031 306.175781 35.421875 303.191406 40.945312 C 303.191406 40.945312 301.976562 43.230469 303.761719 44.75 Z M 304.816406 41.234375 C 304.816406 41.234375 305.050781 39.21875 306.726562 39.613281 C 306.726562 39.613281 308.632812 40.222656 307.8125 44.003906 C 307.8125 44.003906 305.789062 42.878906 304.816406 41.234375 Z M 304.816406 41.234375 " fill-opacity="1" fill-rule="evenodd"/><path fill="#000000" d="M 270.71875 44 C 270.71875 44 275.660156 34.019531 277.695312 32.9375 C 277.695312 32.9375 296.550781 32.695312 298.070312 35.695312 C 298.070312 35.695312 299.625 40.636719 285.003906 53.304688 L 269.507812 55.742188 C 269.507812 55.742188 266.476562 56.765625 277.816406 50.730469 L 288.917969 44.753906 C 288.917969 44.753906 282.105469 41.851562 270.71875 44 Z M 270.71875 44 " fill-opacity="1" fill-rule="evenodd"/><path fill="#000000" d="M 93.832031 33.460938 C 93.832031 33.460938 98.074219 26.320312 99.820312 25.546875 C 99.820312 25.546875 116.003906 25.375 117.304688 27.519531 C 117.304688 27.519531 118.640625 31.054688 106.09375 40.117188 L 92.792969 41.859375 C 92.792969 41.859375 90.191406 42.59375 99.925781 38.277344 L 109.453125 34 C 109.453125 34 103.605469 31.925781 93.832031 33.460938 Z M 93.832031 33.460938 " fill-opacity="1" fill-rule="evenodd"/><path fill="#000000" d="M 172.335938 30.40625 L 177.007812 33.71875 L 170.207031 16.082031 L 165.574219 20.820312 L 167.222656 24.042969 C 167.222656 24.042969 178.917969 88.058594 177.007812 97.851562 C 177.007812 97.851562 170.851562 102.707031 161.960938 97.851562 C 161.960938 97.851562 164.8125 95.273438 165.148438 92.636719 C 165.480469 90 165.09375 76.921875 159.828125 77.714844 C 159.828125 77.714844 151.660156 81.449219 149.023438 91.234375 C 149.023438 91.234375 147.230469 95.121094 151.945312 99.375 C 151.945312 99.375 136.371094 107.8125 132.386719 92.894531 C 132.386719 92.894531 127.972656 61.535156 117.351562 52.992188 L 114.183594 59.699219 C 114.183594 59.699219 125 73.242188 127.371094 91.445312 C 127.371094 91.445312 120.777344 100.269531 113.542969 106.496094 C 106.472656 112.585938 94.996094 116.273438 90.84375 115.289062 C 85.933594 114.125 86.097656 102.824219 86.976562 98.46875 C 86.976562 98.46875 82.554688 110.300781 84.480469 114.570312 C 86.304688 118.613281 90.742188 130.136719 110.085938 115.789062 C 110.085938 115.789062 126.75 103.203125 129.066406 95.804688 C 129.066406 95.804688 137.109375 117.984375 154.84375 103.640625 C 154.84375 103.640625 170.113281 114.035156 178.722656 100.921875 C 178.722656 100.921875 181.585938 95.832031 181.679688 94.074219 C 181.769531 92.316406 181.605469 67.140625 172.335938 30.40625 Z M 152.640625 92.558594 C 152.46875 91.25 153.664062 89.582031 154.445312 88.527344 C 155.007812 87.757812 155.613281 87.015625 156.347656 86.398438 C 156.765625 86.046875 157.25 85.699219 157.796875 85.605469 C 159.601562 85.296875 160.949219 87.828125 161.425781 89.222656 C 161.75 90.1875 162.21875 91.332031 162.078125 92.375 C 161.894531 93.757812 160.511719 95.046875 159.542969 95.933594 C 158.972656 96.453125 157.949219 97.566406 157.066406 97.414062 C 156.484375 97.316406 155.90625 96.773438 155.5 96.382812 C 154.78125 95.699219 152.820312 93.871094 152.640625 92.558594 Z M 152.640625 92.558594 " fill-opacity="1" fill-rule="evenodd"/><path fill="#000000" d="M 232.605469 52.136719 L 231.261719 55.808594 L 259.851562 43.457031 L 261.675781 39.355469 Z M 232.605469 52.136719 " fill-opacity="1" fill-rule="evenodd"/><path fill="#000000" d="M 128.144531 51.066406 L 126.621094 54.738281 L 159.003906 42.386719 L 161.070312 38.285156 Z M 128.144531 51.066406 " fill-opacity="1" fill-rule="evenodd"/><path fill="#000000" d="M 242.046875 62.511719 L 241.324219 63.683594 L 238.59375 61.074219 C 238.59375 61.074219 237.761719 56.011719 240.6875 57.207031 C 240.6875 57.207031 245.042969 59.21875 246.460938 66.886719 C 246.460938 66.886719 248.601562 55.023438 251.703125 55.851562 C 251.703125 55.851562 254 56.292969 254.464844 58.679688 L 252.925781 61.5625 C 252.925781 61.5625 250.652344 56.136719 248.941406 62.097656 C 248.941406 62.097656 247.039062 71.648438 245.902344 72.207031 C 245.902344 72.207031 245.816406 73.492188 244.367188 66.863281 C 244.367188 66.863281 242.578125 62.492188 242.046875 62.511719 Z M 242.046875 62.511719 " fill-opacity="1" fill-rule="evenodd"/><path fill="#000000" d="M 242.046875 31.390625 L 241.324219 32.5625 L 238.59375 29.953125 C 238.59375 29.953125 237.761719 24.886719 240.6875 26.085938 C 240.6875 26.085938 245.042969 28.09375 246.460938 35.765625 C 246.460938 35.765625 248.601562 23.902344 251.703125 24.726562 C 251.703125 24.726562 254 25.167969 254.464844 27.558594 L 252.925781 30.441406 C 252.925781 30.441406 250.652344 25.015625 248.941406 30.976562 C 248.941406 30.976562 247.039062 40.527344 245.902344 41.082031 C 245.902344 41.082031 245.816406 42.371094 244.367188 35.742188 C 244.367188 35.742188 242.578125 31.371094 242.046875 31.390625 Z M 242.046875 31.390625 " fill-opacity="1" fill-rule="evenodd"/><path fill="#000000" d="M 125.039062 28.488281 L 124.316406 29.660156 L 121.585938 27.054688 C 121.585938 27.054688 120.753906 21.988281 123.679688 23.1875 C 123.679688 23.1875 128.035156 25.195312 129.457031 32.867188 C 129.457031 32.867188 131.59375 21.003906 134.695312 21.828125 C 134.695312 21.828125 136.992188 22.269531 137.457031 24.660156 L 135.917969 27.539062 C 135.917969 27.539062 133.644531 22.117188 131.933594 28.074219 C 131.933594 28.074219 130.03125 37.625 128.894531 38.183594 C 128.894531 38.183594 128.808594 39.46875 127.359375 32.839844 C 127.359375 32.839844 125.570312 28.46875 125.039062 28.488281 Z M 125.039062 28.488281 " fill-opacity="1" fill-rule="evenodd"/><path fill="#000000" d="M 211.996094 87.574219 C 211.894531 87.53125 211.300781 88.652344 211.253906 88.734375 C 210.414062 90.234375 209.570312 91.734375 208.78125 93.261719 C 206.773438 97.148438 204.640625 101.070312 204.003906 105.390625 C 203.730469 107.242188 203.632812 109.324219 204.492188 111.058594 C 205.445312 112.980469 207.914062 113.910156 209.734375 112.417969 C 211.394531 111.0625 212.382812 108.875 212.84375 106.894531 C 212.996094 106.230469 213.238281 105.429688 213.113281 104.746094 C 213.082031 104.574219 212.984375 104.128906 212.703125 104.316406 C 211.46875 105.140625 211.132812 108.875 208.839844 107.433594 C 208.589844 107.277344 208.359375 107.082031 208.15625 106.867188 C 207.851562 106.535156 207.625 106.152344 207.445312 105.746094 C 206.738281 104.152344 206.910156 102.363281 207.394531 100.738281 C 208.226562 97.964844 209.761719 95.34375 211.035156 92.734375 C 211.753906 91.261719 213.507812 88.175781 211.996094 87.574219 Z M 211.996094 87.574219 " fill-opacity="1" fill-rule="evenodd"/><path fill="#000000" d="M 70.1875 33.71875 C 70.019531 33.660156 69.039062 35.34375 68.964844 35.46875 C 67.574219 37.730469 66.175781 39.992188 64.875 42.292969 C 61.558594 48.148438 58.035156 54.058594 56.980469 60.570312 C 56.527344 63.355469 56.367188 66.492188 57.789062 69.113281 C 59.359375 72.003906 63.441406 73.402344 66.453125 71.15625 C 69.191406 69.113281 70.824219 65.816406 71.585938 62.832031 C 71.839844 61.832031 72.238281 60.628906 72.035156 59.601562 C 71.984375 59.339844 71.820312 58.667969 71.359375 58.949219 C 69.316406 60.191406 68.757812 65.816406 64.972656 63.648438 C 64.558594 63.410156 64.175781 63.113281 63.84375 62.792969 C 63.335938 62.289062 62.960938 61.714844 62.667969 61.101562 C 61.5 58.703125 61.78125 56.003906 62.585938 53.554688 C 63.957031 49.375 66.496094 45.433594 68.597656 41.496094 C 69.785156 39.28125 72.683594 34.628906 70.1875 33.71875 Z M 70.1875 33.71875 " fill-opacity="1" fill-rule="evenodd"/><path fill="#000000" d="M 116.203125 72.269531 C 116.101562 72.230469 115.507812 73.347656 115.460938 73.429688 C 114.621094 74.929688 113.777344 76.433594 112.988281 77.957031 C 110.980469 81.84375 108.847656 85.765625 108.210938 90.089844 C 107.9375 91.9375 107.839844 94.019531 108.699219 95.757812 C 109.652344 97.679688 112.121094 98.605469 113.941406 97.113281 C 115.601562 95.757812 116.589844 93.570312 117.050781 91.589844 C 117.203125 90.925781 117.445312 90.125 117.320312 89.445312 C 117.289062 89.273438 117.191406 88.824219 116.910156 89.011719 C 115.675781 89.835938 115.339844 93.570312 113.046875 92.132812 C 112.796875 91.972656 112.566406 91.777344 112.363281 91.5625 C 112.058594 91.230469 111.832031 90.847656 111.652344 90.441406 C 110.945312 88.847656 111.117188 87.058594 111.601562 85.433594 C 112.433594 82.660156 113.96875 80.042969 115.242188 77.429688 C 115.960938 75.960938 117.714844 72.871094 116.203125 72.269531 Z M 116.203125 72.269531 " fill-opacity="1" fill-rule="evenodd"/><g clip-path="url(#00a30ef605)"><path fill="#000000" d="M 173.484375 136.238281 C 173.585938 136.277344 174.179688 135.160156 174.226562 135.078125 C 175.066406 133.578125 175.910156 132.078125 176.699219 130.550781 C 178.707031 126.664062 180.839844 122.742188 181.476562 118.421875 C 181.753906 116.570312 181.847656 114.488281 180.988281 112.75 C 180.039062 110.832031 177.566406 109.902344 175.746094 111.394531 C 174.085938 112.75 173.097656 114.9375 172.636719 116.917969 C 172.484375 117.582031 172.242188 118.382812 172.367188 119.0625 C 172.398438 119.234375 172.496094 119.683594 172.777344 119.496094 C 174.011719 118.671875 174.351562 114.9375 176.640625 116.375 C 176.890625 116.535156 177.125 116.730469 177.324219 116.945312 C 177.632812 117.277344 177.859375 117.660156 178.035156 118.066406 C 178.742188 119.660156 178.570312 121.449219 178.085938 123.074219 C 177.257812 125.847656 175.71875 128.464844 174.445312 131.078125 C 173.730469 132.546875 171.976562 135.636719 173.484375 136.238281 Z M 173.484375 136.238281 " fill-opacity="1" fill-rule="evenodd"/></g><path fill="#000000" d="M 302.214844 90.125 C 302.269531 90.125 302.164062 90.230469 302.136719 90.28125 C 302.074219 90.40625 301.996094 90.519531 301.925781 90.640625 C 301.742188 90.96875 301.410156 91.371094 301.332031 91.746094 C 301.253906 92.121094 301.878906 92.421875 301.71875 92.894531 C 301.613281 93.195312 301.285156 93.324219 301.019531 93.402344 C 300.34375 93.601562 299.449219 93.390625 299.085938 92.703125 C 298.808594 92.175781 299.066406 91.59375 299.300781 91.109375 C 299.351562 91.007812 299.59375 90.617188 299.414062 90.523438 C 299.101562 90.355469 298.582031 91.289062 298.460938 91.460938 C 297.824219 92.375 297.085938 93.878906 295.976562 94.242188 C 295.105469 94.535156 294.128906 94.003906 293.289062 93.816406 C 292.382812 93.617188 291.414062 93.726562 290.546875 94.058594 C 288.375 94.882812 286.4375 96.457031 284.625 97.933594 C 282.195312 99.914062 279.34375 101.929688 276.777344 103.710938 C 276.863281 103.734375 276.621094 103.796875 276.546875 103.84375 C 276.382812 103.941406 276.222656 104.039062 276.058594 104.136719 C 275.546875 104.441406 275.03125 104.742188 274.519531 105.054688 C 272.859375 106.0625 271.144531 106.992188 269.421875 107.878906 C 268.726562 108.234375 268.027344 108.574219 267.335938 108.929688 C 267.285156 108.953125 266.648438 109.261719 266.820312 109.417969 C 266.933594 109.523438 267.324219 109.421875 267.457031 109.40625 C 268.117188 109.324219 268.765625 109.101562 269.40625 108.925781 C 272.3125 108.144531 274.84375 107.285156 277.371094 105.507812 C 280.351562 103.40625 283.160156 101.046875 286.070312 98.839844 C 287.652344 97.640625 289.363281 96.175781 291.246094 95.558594 C 292.894531 95.019531 294.148438 96.953125 295.808594 96.425781 C 296.625 96.164062 297.234375 95.328125 297.707031 94.621094 C 297.765625 94.535156 298.125 93.792969 298.238281 93.8125 C 298.3125 93.824219 298.390625 94.09375 298.410156 94.152344 C 298.507812 94.46875 298.609375 94.792969 298.808594 95.054688 C 299.324219 95.722656 300.371094 95.828125 301.113281 95.628906 C 302.957031 95.136719 303.019531 91.4375 302.214844 90.125 Z M 302.214844 90.125 " fill-opacity="1" fill-rule="evenodd"/><path fill="#000000" d="M 184.128906 20.523438 L 187.113281 15.136719 C 187.113281 15.136719 196.117188 30.335938 194.433594 32.53125 C 194.433594 32.53125 192.648438 31.515625 190.804688 29.351562 C 190.804688 29.351562 191.558594 38.570312 193.105469 50.175781 C 195.761719 70.085938 198.984375 97.261719 191.90625 98.65625 C 191.90625 98.65625 193.097656 88.558594 190.625 74.0625 C 190.625 74.0625 186.027344 24.535156 184.128906 20.523438 Z M 184.128906 20.523438 " fill-opacity="1" fill-rule="evenodd"/></svg>