<svg xmlns="http://www.w3.org/2000/svg" xmlns:xlink="http://www.w3.org/1999/xlink" width="500" zoomAndPan="magnify" viewBox="0 0 375 149.999998" height="200" preserveAspectRatio="xMidYMid meet" version="1.0"><defs><clipPath id="5e0f85846b"><path d="M 184 17.34375 L 197 17.34375 L 197 108 L 184 108 Z M 184 17.34375 " clip-rule="nonzero"/></clipPath></defs><path fill="#000000" d="M 305.546875 25.339844 C 305.351562 25.253906 305.980469 25.320312 306.199219 25.335938 C 306.675781 25.375 307.15625 25.433594 307.628906 25.503906 C 309.03125 25.710938 310.394531 26.0625 311.742188 26.480469 C 315.675781 27.691406 319.5 29.527344 322.953125 31.695312 C 330.988281 36.746094 336.917969 44.558594 340.667969 53.011719 C 342.085938 56.199219 343.59375 59.632812 343.59375 63.167969 C 343.617188 63.179688 343.421875 63.414062 343.414062 63.421875 C 343.183594 63.710938 342.921875 63.976562 342.652344 64.230469 C 341.523438 65.28125 340.25 66.125 338.8125 66.714844 C 338.691406 66.765625 338.476562 66.6875 338.371094 66.65625 C 337.957031 66.539062 337.558594 66.378906 337.164062 66.210938 C 335.457031 65.5 333.898438 64.480469 332.433594 63.390625 C 332.023438 63.085938 332.136719 62.355469 331.992188 61.867188 C 331.621094 60.632812 331.246094 59.394531 330.855469 58.164062 C 330.035156 55.558594 328.902344 53.035156 327.621094 50.613281 C 327.449219 50.589844 327.503906 50.296875 327.429688 50.144531 C 327.199219 49.691406 326.953125 49.242188 326.710938 48.792969 C 325.644531 46.847656 324.472656 44.953125 323.234375 43.105469 C 319.226562 37.125 311.570312 29.570312 305.546875 25.339844 Z M 305.546875 25.339844 " fill-opacity="1" fill-rule="evenodd"/><path fill="#000000" d="M 305.546875 117.738281 C 305.351562 117.824219 305.980469 117.761719 306.199219 117.746094 C 306.675781 117.707031 307.15625 117.644531 307.628906 117.578125 C 309.03125 117.371094 310.394531 117.015625 311.742188 116.601562 C 315.675781 115.386719 319.5 113.554688 322.953125 111.382812 C 330.988281 106.332031 336.917969 98.523438 340.667969 90.070312 C 342.085938 86.878906 343.59375 83.445312 343.59375 79.914062 C 343.617188 79.902344 343.421875 79.664062 343.414062 79.65625 C 343.183594 79.371094 342.921875 79.101562 342.652344 78.847656 C 341.523438 77.800781 340.25 76.957031 338.8125 76.363281 C 338.691406 76.316406 338.476562 76.394531 338.371094 76.421875 C 337.957031 76.539062 337.558594 76.703125 337.164062 76.867188 C 335.457031 77.578125 333.898438 78.597656 332.433594 79.6875 C 332.023438 79.992188 332.136719 80.726562 331.992188 81.210938 C 331.621094 82.449219 331.246094 83.683594 330.855469 84.914062 C 330.035156 87.519531 328.902344 90.046875 327.621094 92.464844 C 327.449219 92.492188 327.503906 92.78125 327.429688 92.933594 C 327.199219 93.390625 326.953125 93.839844 326.710938 94.289062 C 325.644531 96.234375 324.472656 98.125 323.234375 99.972656 C 319.226562 105.957031 311.570312 113.507812 305.546875 117.738281 Z M 305.546875 117.738281 " fill-opacity="1" fill-rule="evenodd"/><path fill="#000000" d="M 351.859375 65.855469 C 351.796875 65.820312 351.730469 65.789062 351.679688 65.761719 C 351.378906 65.628906 351.101562 65.511719 351.015625 65.460938 C 350.140625 64.910156 349.425781 64.117188 348.878906 63.265625 C 348.046875 61.96875 347.5625 60.523438 347.074219 59.074219 C 346.617188 57.726562 346.160156 56.375 345.34375 55.179688 C 344.75 54.304688 343.867188 53.601562 342.96875 53.023438 C 342.800781 52.914062 342.503906 52.824219 342.25 52.710938 C 341.96875 52.589844 341.730469 52.445312 341.589844 52.296875 C 341.402344 52.097656 341.402344 51.914062 341.421875 51.796875 C 341.445312 51.613281 341.535156 51.453125 341.738281 51.34375 C 341.792969 51.3125 341.871094 51.28125 341.96875 51.269531 C 342.042969 51.257812 342.316406 51.28125 342.359375 51.285156 C 342.558594 51.285156 342.757812 51.292969 342.957031 51.296875 C 343.582031 51.316406 344.210938 51.332031 344.832031 51.417969 C 346.710938 51.679688 348.546875 52.300781 350.191406 53.214844 C 352.210938 54.335938 354.023438 56 355.0625 58.023438 C 355.347656 58.570312 355.523438 59.222656 355.722656 59.855469 C 355.890625 60.382812 356.074219 60.902344 356.402344 61.300781 C 356.585938 61.523438 356.84375 61.605469 357.105469 61.675781 C 357.367188 61.746094 357.640625 61.800781 357.902344 61.878906 C 358.679688 62.105469 359.414062 62.46875 360.046875 62.949219 C 361.246094 63.863281 362.046875 65.160156 362.765625 66.433594 C 363.015625 66.863281 363.230469 67.308594 363.449219 67.753906 C 363.519531 67.902344 363.59375 68.050781 363.65625 68.207031 C 363.703125 68.320312 363.773438 68.621094 363.777344 68.667969 C 363.796875 69.097656 363.460938 69.230469 363.359375 69.265625 C 363.355469 69.265625 363.335938 69.273438 363.3125 69.277344 C 361.828125 70.042969 360.117188 70.488281 358.535156 70.992188 C 358.355469 71.046875 358.175781 71.101562 357.996094 71.164062 L 358.007812 71.167969 C 359.214844 71.636719 360.476562 71.992188 361.730469 72.324219 C 361.835938 72.351562 362.589844 72.464844 362.910156 72.582031 C 363.242188 72.703125 363.378906 72.925781 363.417969 73.042969 C 363.457031 73.160156 363.472656 73.328125 363.421875 73.53125 C 363.347656 73.84375 363.070312 74.359375 363.011719 74.5 C 362.484375 75.75 361.761719 76.890625 360.882812 77.933594 C 360.09375 78.875 359.117188 79.597656 358.140625 80.320312 C 357.246094 80.984375 356.347656 81.644531 355.632812 82.507812 C 354.75 83.570312 354.257812 84.859375 353.574219 86.039062 C 352.628906 87.671875 351.355469 89.121094 349.636719 90.039062 C 348.273438 90.765625 346.777344 91.089844 345.238281 91.230469 C 344.6875 91.28125 344.128906 91.324219 343.574219 91.363281 C 343.5 91.367188 343.101562 91.359375 343.03125 91.355469 C 342.757812 91.394531 342.492188 91.257812 342.375 91.011719 C 342.246094 90.734375 342.351562 90.410156 342.617188 90.253906 C 342.648438 90.234375 342.695312 90.210938 342.765625 90.1875 C 343.515625 89.964844 344.199219 89.507812 344.8125 89.050781 C 346.492188 87.792969 348.03125 85.929688 348.402344 83.867188 C 348.535156 83.132812 348.472656 82.363281 348.460938 81.605469 C 348.449219 80.71875 348.507812 79.839844 348.890625 79.023438 C 349.546875 77.636719 351.207031 76.8125 352.558594 76.203125 C 352.820312 76.082031 353.078125 75.96875 353.34375 75.867188 C 351.566406 74.738281 349.605469 73.84375 347.6875 73 C 346.910156 72.664062 346.128906 72.335938 345.359375 71.992188 C 345.085938 71.875 344.820312 71.753906 344.546875 71.640625 C 343.363281 72.816406 342.058594 73.898438 340.828125 75.023438 C 340.457031 75.363281 340.09375 75.703125 339.730469 76.050781 C 339.667969 76.109375 339.546875 76.265625 339.433594 76.367188 C 339.292969 76.492188 339.148438 76.566406 339.035156 76.59375 C 338.871094 76.632812 338.703125 76.605469 338.5625 76.523438 C 336.65625 75.40625 334.710938 74.339844 332.765625 73.285156 C 332.105469 72.929688 331.445312 72.570312 330.78125 72.214844 C 330.574219 72.105469 330.367188 71.996094 330.160156 71.890625 L 330 71.816406 C 329.933594 71.796875 329.867188 71.765625 329.804688 71.726562 C 329.617188 71.589844 329.519531 71.363281 329.554688 71.136719 C 329.589844 70.949219 329.695312 70.796875 329.890625 70.703125 L 329.894531 70.703125 C 330.542969 70.363281 331.132812 69.894531 331.75 69.503906 C 332.871094 68.796875 334.003906 68.101562 335.144531 67.421875 C 335.617188 67.140625 336.09375 66.863281 336.566406 66.578125 L 337.671875 65.914062 C 337.730469 65.847656 337.804688 65.792969 337.890625 65.757812 C 338.078125 65.675781 338.289062 65.691406 338.460938 65.792969 C 340.179688 66.789062 341.820312 67.792969 343.503906 68.84375 C 343.945312 69.121094 344.394531 69.386719 344.839844 69.65625 L 344.902344 69.6875 C 344.925781 69.699219 344.953125 69.714844 344.976562 69.726562 L 345.058594 69.769531 C 346.773438 68.769531 348.945312 67.816406 350.511719 66.691406 C 350.753906 66.519531 351.160156 66.304688 351.535156 66.066406 C 351.648438 65.996094 351.761719 65.925781 351.859375 65.855469 Z M 344.449219 52.578125 C 344.519531 52.585938 344.585938 52.59375 344.652344 52.601562 C 346.378906 52.84375 348.0625 53.414062 349.574219 54.253906 C 351.382812 55.257812 353.019531 56.742188 353.953125 58.558594 C 354.210938 59.050781 354.359375 59.636719 354.539062 60.207031 C 354.753906 60.882812 355.011719 61.535156 355.433594 62.046875 C 355.742188 62.417969 356.125 62.625 356.550781 62.761719 C 356.867188 62.867188 357.210938 62.925781 357.539062 63.023438 C 358.167969 63.207031 358.765625 63.5 359.28125 63.890625 C 360.351562 64.703125 361.039062 65.875 361.679688 67.007812 C 361.914062 67.417969 362.121094 67.835938 362.324219 68.257812 C 362.34375 68.300781 362.367188 68.347656 362.386719 68.390625 C 361.050781 69.023438 359.546875 69.410156 358.148438 69.855469 C 357.660156 70.007812 357.167969 70.15625 356.714844 70.382812 C 356.617188 70.429688 356.40625 70.535156 356.289062 70.652344 C 356.117188 70.820312 356.050781 71.023438 356.070312 71.226562 C 356.085938 71.398438 356.183594 71.609375 356.410156 71.78125 C 356.695312 71.996094 357.386719 72.214844 357.546875 72.277344 C 358.796875 72.761719 360.101562 73.136719 361.40625 73.476562 C 361.457031 73.492188 361.777344 73.558594 362.054688 73.617188 C 361.972656 73.796875 361.886719 73.992188 361.863281 74.050781 C 361.386719 75.1875 360.722656 76.226562 359.921875 77.179688 C 359.191406 78.042969 358.289062 78.707031 357.386719 79.371094 C 356.414062 80.09375 355.441406 80.820312 354.664062 81.757812 C 353.742188 82.875 353.210938 84.21875 352.492188 85.453125 C 351.660156 86.894531 350.554688 88.179688 349.039062 88.988281 C 347.960938 89.566406 346.789062 89.847656 345.582031 89.988281 C 347.492188 88.558594 349.199219 86.421875 349.625 84.074219 C 349.773438 83.269531 349.714844 82.421875 349.703125 81.585938 C 349.691406 80.878906 349.714844 80.175781 350.019531 79.519531 C 350.554688 78.382812 351.976562 77.785156 353.085938 77.285156 C 353.484375 77.105469 353.882812 76.933594 354.304688 76.800781 C 354.328125 76.792969 354.820312 76.667969 354.917969 76.632812 C 355.351562 76.476562 355.339844 76.089844 355.332031 76.03125 C 355.324219 75.855469 355.234375 75.691406 355.085938 75.585938 C 352.996094 74.074219 350.566406 72.949219 348.195312 71.910156 C 347.421875 71.574219 346.644531 71.246094 345.875 70.902344 L 345.664062 70.8125 C 347.414062 69.785156 349.644531 68.804688 351.25 67.652344 C 351.53125 67.449219 352.042969 67.199219 352.457031 66.910156 C 352.839844 66.640625 353.140625 66.328125 353.269531 66.011719 C 353.367188 65.769531 353.34375 65.464844 353.050781 65.183594 C 352.910156 65.046875 352.652344 64.890625 352.375 64.757812 C 352.085938 64.621094 351.773438 64.507812 351.691406 64.457031 C 350.96875 64.003906 350.382812 63.339844 349.933594 62.636719 C 349.152344 61.421875 348.710938 60.058594 348.253906 58.703125 C 347.765625 57.253906 347.257812 55.808594 346.378906 54.523438 C 345.871094 53.777344 345.191406 53.132812 344.449219 52.578125 Z M 338.183594 67.027344 C 339.757812 67.949219 341.273438 68.878906 342.832031 69.847656 C 343.199219 70.078125 343.570312 70.300781 343.9375 70.523438 C 342.695312 71.800781 341.289062 72.949219 339.972656 74.15625 C 339.597656 74.5 339.226562 74.847656 338.855469 75.199219 C 338.84375 75.210938 338.820312 75.234375 338.796875 75.261719 C 337.007812 74.222656 335.191406 73.226562 333.371094 72.242188 C 332.71875 71.890625 332.066406 71.535156 331.414062 71.1875 C 331.753906 70.960938 332.089844 70.722656 332.429688 70.507812 C 333.542969 69.804688 334.667969 69.117188 335.796875 68.441406 C 336.269531 68.15625 336.75 67.878906 337.222656 67.59375 C 337.273438 67.5625 337.804688 67.265625 338.183594 67.027344 Z M 330.542969 71.722656 L 330.460938 71.765625 C 330.4375 71.777344 330.414062 71.789062 330.390625 71.796875 C 330.449219 71.777344 330.5 71.753906 330.542969 71.722656 Z M 345.003906 71.09375 C 344.988281 71.140625 344.964844 71.183594 344.9375 71.230469 C 344.964844 71.1875 344.988281 71.140625 345.003906 71.09375 Z M 363.714844 68.441406 C 363.71875 68.449219 363.722656 68.457031 363.722656 68.464844 Z M 363.707031 68.421875 L 363.707031 68.425781 Z M 363.707031 68.421875 " fill-opacity="1" fill-rule="evenodd"/><path fill="#000000" d="M 375.007812 71.78125 L 363.421875 73.53125 L 357.101562 71.316406 L 363.148438 68.898438 Z M 375.007812 71.78125 " fill-opacity="1" fill-rule="evenodd"/><path fill="#000000" d="M 69.460938 27.332031 C 69.660156 27.246094 69.027344 27.308594 68.8125 27.328125 C 68.332031 27.367188 67.855469 27.425781 67.378906 27.496094 C 65.980469 27.703125 64.613281 28.054688 63.265625 28.472656 C 59.335938 29.683594 55.511719 31.519531 52.054688 33.6875 C 44.023438 38.738281 38.089844 46.550781 34.339844 55.003906 C 32.925781 58.191406 31.414062 61.625 31.414062 65.160156 C 31.394531 65.167969 31.585938 65.40625 31.59375 65.414062 C 31.828125 65.703125 32.085938 65.96875 32.359375 66.222656 C 33.484375 67.269531 34.761719 68.113281 36.199219 68.707031 C 36.316406 68.757812 36.53125 68.679688 36.636719 68.648438 C 37.050781 68.53125 37.449219 68.367188 37.847656 68.203125 C 39.550781 67.492188 41.109375 66.472656 42.574219 65.382812 C 42.984375 65.078125 42.871094 64.347656 43.015625 63.859375 C 43.386719 62.625 43.765625 61.386719 44.152344 60.15625 C 44.972656 57.550781 46.105469 55.027344 47.390625 52.605469 C 47.558594 52.578125 47.503906 52.289062 47.582031 52.136719 C 47.8125 51.679688 48.054688 51.230469 48.300781 50.785156 C 49.367188 48.835938 50.535156 46.945312 51.773438 45.097656 C 55.785156 39.117188 63.441406 31.5625 69.460938 27.332031 Z M 69.460938 27.332031 " fill-opacity="1" fill-rule="evenodd"/><path fill="#000000" d="M 69.460938 119.730469 C 69.660156 119.816406 69.027344 119.753906 68.8125 119.734375 C 68.332031 119.695312 67.855469 119.636719 67.378906 119.566406 C 65.980469 119.359375 64.613281 119.007812 63.265625 118.589844 C 59.335938 117.378906 55.511719 115.542969 52.054688 113.375 C 44.023438 108.324219 38.089844 100.511719 34.339844 92.0625 C 32.925781 88.871094 31.414062 85.4375 31.414062 81.902344 C 31.394531 81.894531 31.585938 81.65625 31.59375 81.648438 C 31.828125 81.359375 32.085938 81.09375 32.359375 80.839844 C 33.484375 79.792969 34.761719 78.949219 36.199219 78.355469 C 36.316406 78.304688 36.53125 78.382812 36.636719 78.414062 C 37.050781 78.53125 37.449219 78.695312 37.847656 78.859375 C 39.550781 79.570312 41.109375 80.589844 42.574219 81.679688 C 42.984375 81.984375 42.871094 82.714844 43.015625 83.203125 C 43.386719 84.4375 43.765625 85.675781 44.152344 86.90625 C 44.972656 89.511719 46.105469 92.035156 47.390625 94.457031 C 47.558594 94.484375 47.503906 94.773438 47.582031 94.925781 C 47.8125 95.382812 48.054688 95.832031 48.300781 96.277344 C 49.367188 98.226562 50.535156 100.117188 51.773438 101.964844 C 55.785156 107.945312 63.441406 115.5 69.460938 119.730469 Z M 69.460938 119.730469 " fill-opacity="1" fill-rule="evenodd"/><path fill="#000000" d="M 23.148438 67.847656 C 23.210938 67.8125 23.277344 67.78125 23.332031 67.753906 C 23.628906 67.621094 23.910156 67.503906 23.992188 67.453125 C 24.867188 66.902344 25.582031 66.109375 26.132812 65.257812 C 26.964844 63.960938 27.449219 62.511719 27.9375 61.066406 C 28.390625 59.71875 28.847656 58.367188 29.664062 57.171875 C 30.261719 56.296875 31.140625 55.589844 32.042969 55.015625 C 32.210938 54.90625 32.503906 54.816406 32.761719 54.703125 C 33.039062 54.582031 33.28125 54.4375 33.417969 54.289062 C 33.609375 54.089844 33.605469 53.90625 33.589844 53.789062 C 33.566406 53.605469 33.472656 53.445312 33.273438 53.335938 C 33.214844 53.304688 33.140625 53.273438 33.042969 53.257812 C 32.96875 53.25 32.691406 53.273438 32.652344 53.277344 C 32.449219 53.273438 32.25 53.285156 32.050781 53.289062 C 31.425781 53.304688 30.796875 53.324219 30.175781 53.410156 C 28.300781 53.671875 26.464844 54.292969 24.816406 55.207031 C 22.800781 56.328125 20.988281 57.992188 19.945312 60.015625 C 19.664062 60.5625 19.484375 61.210938 19.285156 61.847656 C 19.117188 62.375 18.9375 62.894531 18.605469 63.292969 C 18.421875 63.515625 18.167969 63.597656 17.902344 63.667969 C 17.640625 63.738281 17.371094 63.792969 17.105469 63.871094 C 16.332031 64.097656 15.597656 64.460938 14.964844 64.941406 C 13.761719 65.855469 12.964844 67.148438 12.242188 68.425781 C 11.996094 68.855469 11.777344 69.296875 11.5625 69.742188 C 11.488281 69.894531 11.414062 70.042969 11.351562 70.199219 C 11.308594 70.308594 11.238281 70.613281 11.234375 70.65625 C 11.210938 71.089844 11.546875 71.222656 11.648438 71.257812 C 11.652344 71.257812 11.671875 71.265625 11.699219 71.269531 C 13.179688 72.035156 14.890625 72.480469 16.476562 72.984375 C 16.652344 73.039062 16.835938 73.09375 17.011719 73.152344 L 17 73.160156 C 15.796875 73.628906 14.535156 73.984375 13.28125 74.3125 C 13.175781 74.339844 12.421875 74.457031 12.101562 74.574219 C 11.769531 74.695312 11.628906 74.917969 11.589844 75.035156 C 11.554688 75.148438 11.539062 75.320312 11.585938 75.523438 C 11.664062 75.832031 11.9375 76.347656 12 76.492188 C 12.523438 77.742188 13.246094 78.882812 14.125 79.925781 C 14.917969 80.863281 15.894531 81.589844 16.867188 82.3125 C 17.765625 82.976562 18.664062 83.636719 19.378906 84.5 C 20.257812 85.5625 20.75 86.851562 21.433594 88.03125 C 22.378906 89.664062 23.652344 91.109375 25.371094 92.027344 C 26.734375 92.757812 28.230469 93.082031 29.769531 93.21875 C 30.324219 93.269531 30.878906 93.3125 31.433594 93.355469 C 31.511719 93.359375 31.90625 93.351562 31.980469 93.347656 C 32.25 93.386719 32.519531 93.25 32.636719 93 C 32.761719 92.726562 32.660156 92.402344 32.390625 92.246094 C 32.363281 92.226562 32.3125 92.199219 32.242188 92.179688 C 31.496094 91.953125 30.8125 91.5 30.195312 91.042969 C 28.515625 89.785156 26.980469 87.921875 26.605469 85.859375 C 26.472656 85.125 26.539062 84.355469 26.546875 83.59375 C 26.558594 82.707031 26.503906 81.832031 26.117188 81.015625 C 25.464844 79.628906 23.804688 78.804688 22.449219 78.191406 C 22.191406 78.074219 21.929688 77.960938 21.664062 77.859375 C 23.441406 76.730469 25.40625 75.832031 27.324219 74.992188 C 28.097656 74.652344 28.878906 74.324219 29.652344 73.984375 C 29.921875 73.867188 30.191406 73.746094 30.460938 73.632812 C 31.644531 74.808594 32.953125 75.890625 34.183594 77.015625 C 34.550781 77.355469 34.917969 77.695312 35.28125 78.042969 C 35.34375 78.101562 35.464844 78.257812 35.574219 78.359375 C 35.714844 78.484375 35.863281 78.558594 35.972656 78.585938 C 36.136719 78.625 36.308594 78.597656 36.449219 78.515625 C 38.351562 77.398438 40.300781 76.332031 42.246094 75.277344 C 42.902344 74.921875 43.566406 74.5625 44.230469 74.207031 C 44.433594 74.097656 44.640625 73.988281 44.847656 73.882812 L 45.007812 73.808594 C 45.078125 73.789062 45.140625 73.757812 45.203125 73.714844 C 45.394531 73.582031 45.492188 73.355469 45.453125 73.128906 C 45.417969 72.941406 45.316406 72.789062 45.121094 72.695312 L 45.113281 72.691406 C 44.46875 72.355469 43.875 71.886719 43.257812 71.496094 C 42.136719 70.789062 41.003906 70.09375 39.867188 69.414062 C 39.390625 69.132812 38.914062 68.855469 38.441406 68.570312 L 37.335938 67.90625 C 37.28125 67.839844 37.203125 67.785156 37.121094 67.75 C 36.933594 67.667969 36.722656 67.683594 36.546875 67.78125 C 34.832031 68.78125 33.191406 69.785156 31.503906 70.835938 C 31.0625 71.109375 30.617188 71.375 30.167969 71.648438 L 30.105469 71.679688 C 30.082031 71.691406 30.058594 71.703125 30.035156 71.71875 L 29.953125 71.761719 C 28.238281 70.761719 26.066406 69.808594 24.496094 68.683594 C 24.253906 68.507812 23.847656 68.296875 23.472656 68.058594 C 23.363281 67.988281 23.246094 67.917969 23.148438 67.847656 Z M 30.558594 54.570312 C 30.492188 54.578125 30.421875 54.585938 30.355469 54.59375 C 28.628906 54.835938 26.945312 55.402344 25.433594 56.246094 C 23.628906 57.25 21.988281 58.734375 21.054688 60.550781 C 20.800781 61.042969 20.652344 61.628906 20.46875 62.199219 C 20.253906 62.875 20 63.527344 19.574219 64.039062 C 19.269531 64.410156 18.882812 64.617188 18.457031 64.753906 C 18.140625 64.859375 17.796875 64.917969 17.46875 65.015625 C 16.839844 65.199219 16.246094 65.492188 15.726562 65.882812 C 14.660156 66.695312 13.972656 67.863281 13.328125 69 C 13.097656 69.410156 12.890625 69.828125 12.683594 70.25 C 12.664062 70.292969 12.644531 70.339844 12.621094 70.382812 C 13.960938 71.015625 15.464844 71.402344 16.863281 71.847656 C 17.347656 72 17.839844 72.148438 18.296875 72.375 C 18.390625 72.421875 18.601562 72.527344 18.722656 72.644531 C 18.894531 72.8125 18.957031 73.015625 18.9375 73.21875 C 18.921875 73.390625 18.828125 73.597656 18.601562 73.773438 C 18.3125 73.988281 17.625 74.207031 17.464844 74.269531 C 16.210938 74.753906 14.90625 75.128906 13.605469 75.46875 C 13.550781 75.484375 13.230469 75.550781 12.953125 75.609375 C 13.035156 75.789062 13.121094 75.984375 13.148438 76.042969 C 13.625 77.179688 14.289062 78.21875 15.085938 79.171875 C 15.816406 80.035156 16.722656 80.695312 17.621094 81.363281 C 18.597656 82.085938 19.566406 82.8125 20.34375 83.75 C 21.269531 84.863281 21.800781 86.210938 22.515625 87.445312 C 23.351562 88.886719 24.457031 90.171875 25.972656 90.980469 C 27.046875 91.554688 28.21875 91.835938 29.425781 91.980469 C 27.519531 90.550781 25.8125 88.410156 25.382812 86.066406 C 25.238281 85.261719 25.296875 84.414062 25.308594 83.578125 C 25.316406 82.871094 25.296875 82.164062 24.988281 81.511719 C 24.453125 80.375 23.035156 79.777344 21.925781 79.277344 C 21.527344 79.097656 21.125 78.925781 20.707031 78.792969 C 20.679688 78.785156 20.191406 78.660156 20.089844 78.625 C 19.660156 78.46875 19.671875 78.082031 19.675781 78.023438 C 19.683594 77.847656 19.777344 77.683594 19.921875 77.578125 C 22.015625 76.066406 24.441406 74.941406 26.8125 73.902344 C 27.585938 73.5625 28.363281 73.238281 29.136719 72.894531 L 29.34375 72.804688 C 27.597656 71.777344 25.363281 70.796875 23.761719 69.644531 C 23.476562 69.441406 22.964844 69.191406 22.554688 68.902344 C 22.167969 68.632812 21.867188 68.320312 21.742188 68.003906 C 21.640625 67.761719 21.664062 67.457031 21.957031 67.175781 C 22.101562 67.039062 22.359375 66.882812 22.636719 66.75 C 22.925781 66.613281 23.238281 66.5 23.316406 66.449219 C 24.042969 65.992188 24.628906 65.332031 25.078125 64.628906 C 25.855469 63.414062 26.300781 62.050781 26.757812 60.695312 C 27.246094 59.246094 27.75 57.800781 28.628906 56.511719 C 29.140625 55.765625 29.820312 55.121094 30.558594 54.570312 Z M 36.828125 69.019531 C 35.25 69.941406 33.734375 70.871094 32.175781 71.839844 C 31.8125 72.070312 31.441406 72.292969 31.070312 72.515625 C 32.3125 73.792969 33.71875 74.941406 35.035156 76.148438 C 35.410156 76.492188 35.785156 76.839844 36.152344 77.191406 C 36.167969 77.203125 36.1875 77.226562 36.210938 77.253906 C 38 76.214844 39.820312 75.21875 41.636719 74.234375 C 42.292969 73.878906 42.941406 73.527344 43.59375 73.179688 C 43.257812 72.949219 42.917969 72.714844 42.582031 72.5 C 41.46875 71.796875 40.34375 71.109375 39.210938 70.433594 C 38.738281 70.148438 38.257812 69.871094 37.785156 69.585938 C 37.734375 69.554688 37.203125 69.253906 36.828125 69.019531 Z M 44.46875 73.714844 L 44.546875 73.757812 C 44.574219 73.769531 44.59375 73.78125 44.617188 73.789062 C 44.5625 73.769531 44.511719 73.742188 44.46875 73.714844 Z M 30.007812 73.085938 C 30.019531 73.132812 30.042969 73.175781 30.070312 73.222656 C 30.042969 73.175781 30.023438 73.132812 30.007812 73.085938 Z M 11.296875 70.433594 C 11.289062 70.441406 11.289062 70.449219 11.285156 70.457031 Z M 11.304688 70.414062 L 11.304688 70.417969 Z M 11.304688 70.414062 " fill-opacity="1" fill-rule="evenodd"/><path fill="#000000" d="M 0.00390625 73.773438 L 11.585938 75.523438 L 17.910156 73.308594 L 11.859375 70.890625 Z M 0.00390625 73.773438 " fill-opacity="1" fill-rule="evenodd"/><path fill="#000000" d="M 267.148438 93.492188 C 267.035156 93.554688 266.699219 93.703125 266.558594 93.773438 C 266.121094 93.988281 265.671875 94.175781 265.21875 94.363281 C 263.882812 94.917969 262.554688 95.4375 261.128906 95.710938 C 256.863281 96.53125 249.953125 96.175781 249.75 90.652344 C 249.621094 86.917969 252.335938 82.773438 255.164062 80.410156 C 256.339844 79.429688 257.714844 78.535156 259.320312 78.5 C 260.625 78.472656 261.90625 79.023438 263.007812 79.65625 C 265.386719 81.027344 267.558594 84.144531 268.792969 86.613281 C 268.78125 86.597656 269.003906 86.546875 269.039062 86.535156 C 269.175781 86.492188 269.320312 86.453125 269.457031 86.410156 C 269.863281 86.289062 270.253906 86.140625 270.644531 85.996094 C 271.859375 85.535156 273.050781 85.007812 274.1875 84.367188 C 275.863281 83.417969 277.421875 82.265625 278.796875 80.933594 C 279.1875 80.554688 279.5625 80.160156 279.941406 79.769531 C 280.003906 79.703125 280.199219 79.433594 280.320312 79.464844 C 280.492188 79.503906 280.453125 79.941406 280.464844 80.050781 C 280.496094 80.691406 280.5 81.335938 280.558594 81.980469 C 280.691406 83.496094 281.140625 84.855469 281.839844 86.210938 C 281.738281 86.292969 282.171875 86.84375 282.214844 86.902344 C 282.738281 87.605469 283.480469 88.171875 284.195312 88.683594 C 286.269531 90.164062 289.171875 90.722656 291.390625 89.183594 C 294.234375 87.210938 295.320312 83.5625 296.457031 80.542969 C 296.773438 79.695312 297.101562 78.800781 297.625 78.046875 C 297.808594 77.78125 298.078125 77.40625 298.445312 77.390625 C 298.730469 77.382812 298.921875 77.65625 299.042969 77.867188 C 299.390625 78.460938 299.574219 79.15625 299.734375 79.8125 C 300.292969 82.105469 300.070312 85.28125 302.414062 86.6875 C 304.082031 87.6875 305.980469 87.769531 307.585938 86.644531 C 307.796875 86.496094 308.550781 86.042969 308.625 85.757812 C 308.730469 85.328125 308.558594 84.773438 308.441406 84.371094 C 308.199219 83.535156 307.328125 81.664062 306.929688 80.886719 C 307.957031 80.164062 308.90625 79.0625 309.40625 78.46875 C 310.066406 77.6875 310.75 76.925781 311.402344 76.144531 C 311.5 76.03125 311.839844 75.460938 312.015625 75.453125 C 312.417969 75.433594 312.574219 77.296875 312.609375 77.515625 C 312.964844 79.78125 312.910156 82.011719 312.605469 84.28125 C 312.195312 87.34375 311.296875 90.777344 308.617188 92.726562 C 304.132812 95.980469 298.308594 92.199219 297.222656 87.539062 C 297.207031 87.484375 297.035156 87.964844 297.023438 87.988281 C 296.894531 88.296875 296.773438 88.605469 296.632812 88.90625 C 296.195312 89.832031 295.640625 90.695312 295.078125 91.554688 C 293.421875 94.097656 291.277344 96.210938 288.175781 97.003906 C 286.433594 97.457031 284.355469 97.566406 282.621094 96.992188 C 278.671875 95.675781 277.53125 90.761719 278.390625 87.234375 C 276.816406 88.507812 274.90625 89.511719 273.15625 90.558594 C 271.792969 91.375 270.335938 92.378906 268.78125 92.828125 C 268.703125 92.703125 268.855469 93.113281 268.886719 93.253906 C 268.941406 93.5 268.980469 93.75 269.03125 94 C 269.171875 94.808594 269.277344 95.628906 269.394531 96.441406 C 269.742188 98.980469 268.714844 100.285156 267.214844 102.351562 C 262.867188 108.359375 257.03125 113.726562 250.753906 117.828125 C 250.859375 117.511719 250.214844 118.238281 249.9375 118.425781 C 249.410156 118.78125 248.867188 119.105469 248.3125 119.414062 C 246.566406 120.378906 244.710938 121.222656 242.820312 121.882812 C 237.355469 123.792969 231.394531 122.191406 227.277344 118.339844 C 222.523438 113.890625 222.011719 105.667969 223.113281 99.78125 C 223.566406 97.34375 224.445312 95.050781 225.679688 92.878906 C 225.742188 92.761719 226.851562 90.90625 227 91.117188 C 227.503906 91.851562 226.230469 94.914062 226.058594 95.671875 C 225.246094 99.371094 224.46875 103.429688 225.546875 107.15625 C 226.101562 109.0625 227.261719 110.699219 228.773438 112.015625 C 238.152344 120.179688 250.5625 111.535156 258.800781 105.90625 C 261.085938 104.347656 263.273438 102.683594 265.269531 100.789062 C 266.007812 100.09375 267.160156 99.21875 267.527344 98.242188 C 268.085938 96.753906 267.648438 94.9375 267.148438 93.492188 C 267.195312 93.460938 267.207031 93.449219 267.140625 93.460938 Z M 262.160156 87.324219 C 261.25 87.800781 259.925781 88.269531 258.945312 88.632812 C 258.34375 88.851562 257.738281 89.007812 257.105469 89.089844 C 256.683594 89.148438 256.226562 89.171875 255.804688 89.070312 C 254.078125 88.648438 254.210938 86.769531 255.066406 85.632812 C 256.242188 84.0625 258.453125 83.890625 260.058594 84.910156 C 260.683594 85.304688 261.839844 86.675781 262.160156 87.324219 Z M 262.160156 87.324219 " fill-opacity="1" fill-rule="evenodd"/><path fill="#000000" d="M 229.734375 81.144531 C 229.855469 81.507812 229.558594 82.269531 229.496094 82.628906 C 229.265625 83.933594 229.011719 85.234375 228.742188 86.53125 C 228.632812 87.085938 228.277344 87.855469 228.511719 88.421875 C 228.804688 89.148438 229.867188 88.761719 230.21875 89.332031 C 230.671875 90.0625 230.839844 91.105469 231.152344 91.898438 C 231.753906 93.453125 232.484375 94.90625 233.351562 96.335938 C 234.777344 98.691406 237.40625 101.023438 238.015625 103.765625 C 237.777344 103.765625 237.867188 104.203125 237.757812 104.40625 C 237.425781 105.046875 237.039062 105.660156 236.636719 106.265625 C 235.144531 108.5 233.167969 110.296875 230.96875 111.886719 C 228.238281 113.863281 225.332031 115.589844 222.386719 117.253906 C 215.59375 121.09375 207.75 125.105469 199.691406 122.898438 C 193.3125 121.152344 191.808594 114.058594 192.621094 108.414062 C 192.910156 106.371094 193.394531 104.355469 194.019531 102.382812 C 194.269531 101.566406 194.566406 100.757812 194.796875 99.9375 C 194.824219 99.835938 195.03125 99.246094 194.757812 99.285156 C 194.113281 99.382812 193.5 100.75 193.242188 101.195312 C 191.855469 103.597656 191.113281 106.265625 190.71875 108.972656 C 189.53125 117.136719 191.289062 129.484375 201.605469 130.921875 C 213.683594 132.605469 224.65625 124.195312 232.964844 116.851562 C 236.308594 113.894531 240.746094 109.976562 241.554688 105.410156 C 242.355469 100.878906 240.558594 96.429688 237.988281 92.710938 C 237.113281 91.441406 235.242188 90.03125 234.726562 88.601562 C 234.480469 87.917969 236.382812 87.332031 236.824219 87.109375 C 237.023438 87.007812 237.578125 86.816406 237.40625 86.515625 C 237.007812 85.839844 236.070312 85.414062 235.449219 84.976562 C 233.929688 83.910156 231.171875 82.308594 229.734375 81.144531 Z M 229.734375 81.144531 " fill-opacity="1" fill-rule="evenodd"/><path fill="#000000" d="M 209.28125 61.433594 C 209.664062 61.734375 212.390625 61.632812 212.070312 60.789062 C 211.859375 60.230469 211.050781 59.71875 210.601562 59.351562 C 209.128906 58.140625 207.519531 57.007812 205.90625 55.976562 C 205.640625 55.804688 204.097656 54.59375 203.777344 54.976562 C 203.132812 55.75 203.417969 57.921875 203.359375 58.855469 C 203.328125 59.476562 202.910156 60.90625 203.300781 61.453125 C 203.738281 62.066406 204.65625 61.839844 204.972656 62.628906 C 205.367188 63.601562 205.554688 64.59375 206.058594 65.546875 C 207.28125 67.851562 209.179688 69.820312 211.140625 71.566406 C 211.019531 71.527344 210.296875 72.664062 210.234375 72.753906 C 209.28125 74.089844 208.355469 75.441406 207.480469 76.832031 C 204.894531 80.9375 204.464844 85.46875 205.1875 90.183594 C 205.707031 93.582031 207.566406 96.046875 211.425781 95.484375 C 214.019531 95.105469 215.941406 93.457031 217.714844 91.710938 C 222.054688 87.425781 224.738281 81.230469 222.273438 75.28125 C 221.601562 73.652344 219.800781 72.53125 218.367188 71.574219 C 217.882812 71.253906 216.734375 70.777344 216.925781 70.078125 C 217.265625 68.824219 218.636719 67.582031 219.429688 66.582031 C 221.257812 64.253906 223.101562 61.933594 224.746094 59.480469 C 225.296875 58.667969 227.289062 56.449219 226.464844 55.363281 C 225.320312 53.851562 223.28125 56.59375 222.652344 57.28125 C 222.355469 57.605469 222.0625 57.9375 221.773438 58.269531 C 221.457031 58.632812 221.140625 59 220.824219 59.371094 C 220.492188 59.757812 220.167969 60.152344 219.839844 60.539062 C 219.097656 61.421875 218.363281 62.3125 217.636719 63.207031 C 216.90625 64.101562 216.191406 65.003906 215.484375 65.921875 C 215.261719 66.210938 214.9375 66.867188 214.558594 67.003906 C 214.15625 67.148438 213.386719 66.320312 213.140625 66.097656 C 211.914062 65.019531 210.382812 62.625 209.28125 61.433594 Z M 213.398438 74.492188 C 211.648438 76.550781 209.878906 78.632812 208.453125 80.921875 C 207.515625 82.429688 206.734375 84.253906 207.191406 86.042969 C 207.578125 87.511719 209.859375 87.59375 211.105469 87.636719 C 214.875 87.761719 218.691406 84.734375 220.691406 81.871094 C 220.582031 81.742188 220.550781 81.269531 220.480469 81.09375 C 220.222656 80.472656 219.914062 79.898438 219.539062 79.335938 C 218.261719 77.445312 215.332031 75.691406 213.398438 74.492188 Z M 213.398438 74.492188 " fill-opacity="1" fill-rule="evenodd"/><path fill="#000000" d="M 201.214844 38.710938 L 206.234375 33.089844 L 213.75 39.0625 L 208.949219 44.523438 Z M 201.214844 38.710938 " fill-opacity="1" fill-rule="evenodd"/><path fill="#000000" d="M 97.554688 124.808594 L 102.34375 119.527344 L 109.523438 125.140625 L 104.9375 130.269531 Z M 97.554688 124.808594 " fill-opacity="1" fill-rule="evenodd"/><path fill="#000000" d="M 109.519531 124.808594 L 114.3125 119.527344 L 121.488281 125.140625 L 116.902344 130.269531 Z M 109.519531 124.808594 " fill-opacity="1" fill-rule="evenodd"/><path fill="#000000" d="M 213.214844 38.710938 L 218.234375 33.089844 L 225.75 39.0625 L 220.949219 44.523438 Z M 213.214844 38.710938 " fill-opacity="1" fill-rule="evenodd"/><path fill="#000000" d="M 95.496094 57.472656 L 99.5 52.605469 L 105.496094 57.777344 L 101.664062 62.503906 Z M 95.496094 57.472656 " fill-opacity="1" fill-rule="evenodd"/><path fill="#000000" d="M 105.492188 57.472656 L 109.5 52.605469 L 115.496094 57.777344 L 111.664062 62.503906 Z M 105.492188 57.472656 " fill-opacity="1" fill-rule="evenodd"/><path fill="#000000" d="M 306.074219 57.148438 C 306.074219 57.148438 291.667969 71.316406 283.644531 75.167969 C 283.644531 75.167969 283.988281 76.316406 294.402344 69.34375 C 294.402344 69.34375 302.488281 64.160156 307.121094 57.898438 C 307.121094 57.898438 308.628906 59.128906 309.019531 59.453125 C 309.019531 59.453125 310.855469 57.476562 310.019531 56.550781 L 308.695312 55.355469 C 308.695312 55.355469 311.355469 49.597656 309 48.230469 C 309 48.230469 306.1875 46.261719 303.203125 51.597656 C 303.203125 51.597656 301.988281 53.804688 303.773438 55.273438 Z M 304.828125 51.875 C 304.828125 51.875 305.0625 49.929688 306.738281 50.308594 C 306.738281 50.308594 308.644531 50.898438 307.824219 54.550781 C 307.824219 54.550781 305.800781 53.464844 304.828125 51.875 Z M 304.828125 51.875 " fill-opacity="1" fill-rule="evenodd"/><path fill="#000000" d="M 270.734375 54.546875 C 270.734375 54.546875 275.671875 44.902344 277.710938 43.859375 C 277.710938 43.859375 296.566406 43.628906 298.082031 46.523438 C 298.082031 46.523438 299.640625 51.296875 285.015625 63.53125 L 269.519531 65.886719 C 269.519531 65.886719 266.492188 66.875 277.832031 61.046875 L 288.929688 55.273438 C 288.929688 55.273438 282.117188 52.472656 270.734375 54.546875 Z M 270.734375 54.546875 " fill-opacity="1" fill-rule="evenodd"/><path fill="#000000" d="M 154.3125 31.175781 C 154.3125 31.175781 158.058594 23.972656 159.601562 23.195312 C 159.601562 23.195312 173.890625 23.019531 175.039062 25.183594 C 175.039062 25.183594 176.21875 28.746094 165.136719 37.886719 L 153.394531 39.644531 C 153.394531 39.644531 151.097656 40.382812 159.691406 36.03125 L 168.105469 31.71875 C 168.105469 31.71875 162.941406 29.625 154.3125 31.175781 Z M 154.3125 31.175781 " fill-opacity="1" fill-rule="evenodd"/><path fill="#000000" d="M 232.625 62.40625 L 231.28125 65.953125 L 259.867188 54.023438 L 261.691406 50.0625 Z M 232.625 62.40625 " fill-opacity="1" fill-rule="evenodd"/><path fill="#000000" d="M 135.003906 76.574219 L 133.660156 80.121094 L 162.246094 68.191406 L 164.070312 64.230469 Z M 135.003906 76.574219 " fill-opacity="1" fill-rule="evenodd"/><path fill="#000000" d="M 133.363281 48.839844 C 133.601562 48.65625 133.261719 49.429688 133.199219 49.726562 C 133.097656 50.246094 132.992188 50.765625 132.878906 51.285156 C 132.523438 52.933594 131.617188 54.921875 131.589844 56.605469 C 131.585938 57.042969 132.976562 58.074219 133.257812 58.367188 C 134.417969 59.609375 136.585938 61.464844 136.78125 63.304688 C 136.890625 64.386719 134.636719 65.070312 133.753906 65.621094 C 130.542969 67.625 126.957031 68.890625 123.3125 69.847656 C 114.75 72.097656 105.550781 72.773438 96.703125 72.910156 C 90.535156 73.003906 83.894531 72.679688 78.121094 70.285156 C 74.316406 68.707031 69.980469 66.242188 69.511719 61.703125 C 69.316406 59.820312 69.5 57.875 70.136719 56.085938 C 70.238281 55.800781 71.558594 53.195312 71.003906 53.09375 C 70.167969 52.929688 69.148438 54.609375 68.792969 55.140625 C 67.101562 57.613281 66.378906 60.515625 66.53125 63.496094 C 66.964844 71.863281 74.214844 76.5625 81.554688 78.265625 C 88.3125 79.832031 95.027344 79.613281 101.898438 79.023438 C 108.980469 78.410156 116.023438 77.351562 122.929688 75.667969 C 125.476562 75.046875 127.996094 74.273438 130.378906 73.171875 C 131.925781 72.457031 133.363281 71.566406 134.734375 70.558594 C 136.015625 69.613281 137.25 68.496094 138.128906 67.152344 C 141.382812 62.164062 137.109375 53.773438 133.363281 48.839844 Z M 133.363281 48.839844 " fill-opacity="1" fill-rule="evenodd"/><path fill="#000000" d="M 148.226562 41.957031 C 147.984375 41.84375 148.746094 42.046875 149.011719 42.097656 C 149.214844 42.140625 151.253906 42.550781 151.222656 42.25 C 151.1875 41.839844 149.964844 41.269531 149.667969 41.085938 C 148.238281 40.203125 146.808594 39.332031 145.359375 38.488281 C 145.066406 38.316406 144.332031 37.667969 143.964844 37.769531 C 143.167969 37.988281 143.101562 40.144531 143.035156 40.765625 C 142.917969 41.855469 142.835938 42.949219 142.710938 44.039062 C 142.648438 44.625 142.449219 45.347656 143.050781 45.707031 C 143.488281 45.96875 144.132812 45.773438 144.617188 45.746094 C 144.601562 45.746094 144.78125 46.039062 144.789062 46.054688 C 144.941406 46.292969 145.105469 46.523438 145.273438 46.753906 C 145.761719 47.441406 146.308594 48.097656 146.867188 48.730469 C 148.457031 50.53125 150.222656 52.078125 152.183594 53.46875 C 156.484375 56.523438 161.351562 58.496094 166.097656 60.714844 C 169.265625 62.203125 172.390625 63.25 171.898438 67.257812 C 171.816406 67.925781 170.375 68.578125 169.894531 68.929688 C 167.664062 70.550781 165.398438 72.109375 163.078125 73.59375 C 156.554688 77.761719 149.871094 81.847656 142.9375 85.296875 C 139.925781 86.789062 135.960938 88.730469 132.503906 87.851562 C 128.175781 86.761719 128.667969 81.742188 129.507812 78.335938 C 129.84375 76.960938 130.261719 75.601562 130.707031 74.261719 C 130.746094 74.144531 131.234375 72.992188 131.027344 72.957031 C 130.742188 72.910156 130.316406 73.714844 130.210938 73.882812 C 129.453125 75.046875 128.835938 76.292969 128.269531 77.554688 C 126.351562 81.839844 124.796875 87.925781 127.789062 92.128906 C 132.015625 98.082031 139.847656 94.351562 144.917969 91.726562 C 147.671875 90.308594 150.339844 88.734375 153.003906 87.15625 C 155.109375 85.90625 157.183594 84.609375 159.253906 83.304688 C 162.371094 81.339844 165.476562 79.324219 168.484375 77.191406 C 170.289062 75.917969 172.503906 74.394531 173.585938 72.398438 C 174.703125 70.339844 174.808594 67.597656 175.003906 65.308594 C 175.195312 63.058594 175.167969 60.5625 173.984375 58.550781 C 173.777344 58.195312 172.738281 57.5625 172.453125 57.378906 C 170.59375 56.183594 168.597656 55.179688 166.617188 54.214844 C 162.648438 52.273438 158.597656 50.480469 154.796875 48.222656 C 152.332031 46.769531 149.695312 44.523438 148.226562 41.957031 Z M 148.226562 41.957031 " fill-opacity="1" fill-rule="evenodd"/><path fill="#000000" d="M 105.035156 100.503906 C 105.105469 100.710938 105.097656 100.074219 105.132812 99.859375 C 105.1875 99.46875 105.253906 99.082031 105.320312 98.695312 C 105.527344 97.46875 105.757812 96.25 105.988281 95.027344 C 106.039062 94.773438 106.046875 93.929688 106.441406 93.898438 C 107.183594 93.835938 108.066406 95.097656 108.476562 95.5625 C 110.257812 97.558594 111.59375 100.660156 111.875 103.320312 C 112.605469 110.269531 103.292969 119.457031 97.152344 113.171875 C 96.933594 113.160156 96.550781 112.496094 96.445312 112.347656 C 95.792969 111.441406 95.304688 110.386719 94.839844 109.375 C 92.808594 104.914062 92.039062 99.875 91.214844 95.078125 C 89.640625 85.949219 88.914062 73.320312 87.679688 64.136719 C 86.625 56.261719 83.363281 39.542969 82.394531 37.613281 C 82.007812 36.832031 81.546875 36.097656 81.03125 35.402344 C 80.882812 35.199219 80.4375 34.863281 80.429688 34.597656 C 80.394531 33.65625 81.738281 32.320312 82.222656 31.601562 C 82.578125 31.074219 83.457031 29.066406 84.207031 28.949219 C 84.855469 28.851562 85.464844 31.410156 85.570312 31.734375 C 86.6875 35.1875 87.347656 38.785156 88.082031 42.328125 C 91.230469 57.523438 92.972656 73.144531 94.28125 88.589844 C 94.542969 91.753906 94.8125 94.925781 95.339844 98.0625 C 95.691406 100.171875 96.210938 102.257812 97.121094 104.203125 C 97.792969 105.644531 98.734375 107.019531 100.019531 107.988281 C 101.871094 109.394531 104.800781 109.597656 106.667969 108.070312 C 109.363281 105.863281 108.019531 101.945312 105.035156 100.503906 Z M 105.035156 100.503906 " fill-opacity="1" fill-rule="evenodd"/><path fill="#000000" d="M 180.367188 47.480469 C 180.460938 47.664062 180.886719 47.875 181.054688 47.996094 C 181.710938 48.484375 182.363281 48.972656 183.039062 49.421875 C 183.121094 49.472656 183.808594 49.988281 183.882812 49.773438 C 183.980469 49.496094 183.695312 49 183.597656 48.753906 C 183.261719 47.882812 182.867188 47.039062 182.472656 46.191406 C 181.277344 43.621094 179.984375 41.101562 178.785156 38.535156 C 178.347656 37.589844 177.894531 35.878906 177.089844 35.152344 C 177 35.070312 176.21875 36.046875 176.148438 36.136719 C 175.488281 36.917969 174.910156 37.773438 174.273438 38.578125 C 173.976562 38.957031 173.507812 39.332031 173.328125 39.792969 C 173.183594 40.148438 173.523438 40.472656 173.742188 40.707031 C 174.28125 41.277344 174.839844 41.832031 175.410156 42.378906 C 175.453125 42.140625 175.472656 42.851562 175.511719 43.085938 C 175.609375 43.675781 175.6875 44.269531 175.773438 44.859375 C 176.011719 46.523438 176.234375 48.1875 176.453125 49.859375 C 177.101562 54.910156 177.558594 59.976562 178.226562 65.027344 C 178.1875 65.023438 178.308594 65.570312 178.3125 65.597656 C 178.382812 65.960938 178.4375 66.328125 178.492188 66.695312 C 178.65625 67.785156 178.8125 68.878906 178.976562 69.96875 C 179.46875 73.21875 179.890625 76.476562 180.300781 79.734375 C 181.023438 85.476562 181.84375 91.199219 182.675781 96.921875 C 183.324219 101.375 184.113281 106.011719 183.921875 110.535156 C 183.890625 111.238281 183.644531 111.824219 183.289062 112.460938 C 180.640625 117.230469 173.925781 115.484375 169.960938 113.8125 C 168.695312 113.277344 167.457031 112.714844 166.261719 112.035156 C 166.035156 111.914062 165.222656 111.605469 165.175781 111.308594 C 165.097656 110.804688 166.75 109.90625 167.050781 109.699219 C 168.449219 108.761719 170.046875 108.128906 171.707031 107.855469 C 172.519531 107.722656 173.796875 107.925781 174.539062 107.574219 C 175.109375 107.3125 175.328125 106.160156 175.523438 105.640625 C 176.164062 103.875 176.746094 102.070312 177.199219 100.246094 C 177.242188 100.058594 175.179688 99.757812 175.078125 99.738281 C 172.519531 99.265625 169.941406 98.886719 167.359375 98.558594 C 165.835938 98.367188 164.316406 98.199219 162.785156 98.046875 C 155.554688 97.335938 146.011719 96.597656 141.644531 103.894531 C 141.445312 104.21875 140.476562 105.929688 140.964844 106.3125 C 141.3125 106.578125 141.988281 106.433594 142.386719 106.429688 C 143.515625 106.40625 144.648438 106.375 145.777344 106.417969 C 149.191406 106.5625 152.566406 107.570312 154.539062 110.527344 C 154.734375 110.390625 154.140625 110.808594 153.945312 110.953125 C 153.554688 111.226562 153.148438 111.472656 152.734375 111.707031 C 151.394531 112.46875 150.027344 113.234375 148.578125 113.773438 C 144.773438 115.1875 138.660156 116.207031 134.878906 114.160156 C 133.351562 113.328125 132.019531 112.292969 130.894531 110.886719 C 125.703125 104.398438 125.285156 94.761719 124.941406 86.859375 C 124.453125 75.671875 123.972656 64.601562 121.574219 53.632812 C 120.476562 48.589844 119.171875 43.308594 116.746094 38.722656 C 116.152344 37.597656 115.386719 36.644531 114.546875 35.703125 C 114.390625 35.523438 114.003906 34.914062 113.707031 35.035156 C 112.617188 35.46875 112.152344 38.183594 111.78125 39.164062 C 111.632812 39.546875 111.222656 40.171875 111.292969 40.605469 C 111.355469 40.988281 112.316406 41.675781 112.578125 41.976562 C 113.503906 43.050781 114.292969 44.242188 114.902344 45.519531 C 116.707031 49.308594 117.460938 53.714844 118.15625 57.8125 C 119.296875 64.449219 120.007812 71.1875 120.269531 77.917969 C 120.539062 84.878906 120.351562 91.894531 121.175781 98.832031 C 122.324219 108.492188 125.566406 117.382812 134.976562 121.511719 C 134.839844 121.484375 135.726562 121.675781 135.867188 121.695312 C 136.480469 121.757812 137.097656 121.796875 137.710938 121.804688 C 139.773438 121.828125 141.886719 121.742188 143.914062 121.335938 C 149.570312 120.1875 155.203125 117.585938 159.839844 114.15625 C 159.941406 114.078125 159.996094 114.355469 160.082031 114.445312 C 160.28125 114.644531 160.480469 114.835938 160.6875 115.027344 C 161.257812 115.539062 161.859375 116.019531 162.460938 116.492188 C 164.265625 117.90625 166.332031 119.273438 168.480469 120.085938 C 174.238281 122.28125 180.503906 120.066406 184.8125 116 C 184.953125 115.867188 185.242188 115.28125 185.304688 115.148438 C 185.710938 114.289062 186.046875 113.390625 186.355469 112.488281 C 187.703125 108.527344 187.867188 104.601562 187.582031 100.46875 C 187.5 99.320312 187.277344 97.203125 187.148438 96.097656 C 186.734375 92.554688 186.269531 89.015625 185.777344 85.476562 C 184.097656 73.378906 182.597656 59.484375 180.367188 47.480469 Z M 156.339844 104.1875 C 156.390625 104.078125 156.652344 104.007812 156.746094 103.964844 C 157.210938 103.777344 157.710938 103.675781 158.199219 103.582031 C 160.3125 103.207031 162.527344 103.324219 164.621094 103.765625 C 165.199219 103.890625 165.78125 104.027344 166.332031 104.246094 C 166.480469 104.300781 166.753906 104.378906 166.792969 104.554688 C 166.859375 104.832031 166.488281 105.109375 166.320312 105.253906 C 165.714844 105.769531 165.046875 106.222656 164.40625 106.695312 C 163.71875 107.203125 163.019531 107.707031 162.320312 108.191406 C 162.070312 108.359375 161.683594 108.742188 161.359375 108.738281 C 160.871094 108.730469 160.378906 108.058594 160.066406 107.75 C 159.15625 106.84375 157.199219 105.148438 156.339844 104.1875 Z M 156.339844 104.1875 " fill-opacity="1" fill-rule="evenodd"/><path fill="#000000" d="M 98.425781 90.171875 L 97.515625 93.058594 L 116.890625 83.347656 L 118.128906 80.121094 Z M 98.425781 90.171875 " fill-opacity="1" fill-rule="evenodd"/><path fill="#000000" d="M 242.054688 72.429688 L 241.332031 73.558594 L 238.601562 71.039062 C 238.601562 71.039062 237.773438 66.148438 240.695312 67.304688 C 240.695312 67.304688 245.054688 69.246094 246.472656 76.65625 C 246.472656 76.65625 248.609375 65.195312 251.710938 65.992188 C 251.710938 65.992188 254.007812 66.421875 254.472656 68.726562 L 252.933594 71.511719 C 252.933594 71.511719 250.660156 66.269531 248.949219 72.027344 C 248.949219 72.027344 247.046875 81.253906 245.910156 81.789062 C 245.910156 81.789062 245.824219 83.035156 244.378906 76.632812 C 244.378906 76.632812 242.585938 72.410156 242.054688 72.429688 Z M 242.054688 72.429688 " fill-opacity="1" fill-rule="evenodd"/><path fill="#000000" d="M 241.03125 42.917969 L 240.308594 44.050781 L 237.578125 41.53125 C 237.578125 41.53125 236.75 36.636719 239.671875 37.796875 C 239.671875 37.796875 244.03125 39.734375 245.449219 47.144531 C 245.449219 47.144531 247.585938 35.6875 250.6875 36.484375 C 250.6875 36.484375 252.984375 36.910156 253.449219 39.21875 L 251.910156 42 C 251.910156 42 249.636719 36.761719 247.925781 42.519531 C 247.925781 42.519531 246.023438 51.742188 244.886719 52.28125 C 244.886719 52.28125 244.800781 53.523438 243.355469 47.121094 C 243.355469 47.121094 241.5625 42.898438 241.03125 42.917969 Z M 241.03125 42.917969 " fill-opacity="1" fill-rule="evenodd"/><path fill="#000000" d="M 125.894531 33.734375 L 125.171875 34.867188 L 122.441406 32.347656 C 122.441406 32.347656 121.609375 27.457031 124.535156 28.613281 C 124.535156 28.613281 128.890625 30.554688 130.308594 37.964844 C 130.308594 37.964844 132.449219 26.503906 135.546875 27.300781 C 135.546875 27.300781 137.847656 27.730469 138.3125 30.035156 L 136.773438 32.820312 C 136.773438 32.820312 134.5 27.578125 132.789062 33.335938 C 132.789062 33.335938 130.886719 42.5625 129.75 43.097656 C 129.75 43.097656 129.664062 44.34375 128.214844 37.9375 C 128.214844 37.9375 126.425781 33.71875 125.894531 33.734375 Z M 125.894531 33.734375 " fill-opacity="1" fill-rule="evenodd"/><path fill="#000000" d="M 143.921875 60.796875 L 143.339844 61.667969 L 141.136719 59.730469 C 141.136719 59.730469 140.46875 55.964844 142.824219 56.855469 C 142.824219 56.855469 146.335938 58.347656 147.480469 64.050781 C 147.480469 64.050781 149.203125 55.230469 151.703125 55.84375 C 151.703125 55.84375 153.554688 56.175781 153.929688 57.949219 L 152.6875 60.09375 C 152.6875 60.09375 150.859375 56.058594 149.476562 60.492188 C 149.476562 60.492188 147.945312 67.589844 147.03125 68.003906 C 147.03125 68.003906 146.960938 68.960938 145.792969 64.035156 C 145.792969 64.035156 144.351562 60.785156 143.921875 60.796875 Z M 143.921875 60.796875 " fill-opacity="1" fill-rule="evenodd"/><path fill="#000000" d="M 212.003906 96.628906 C 211.902344 96.589844 211.308594 97.671875 211.261719 97.75 C 210.421875 99.203125 209.578125 100.652344 208.789062 102.125 C 206.78125 105.878906 204.648438 109.667969 204.011719 113.839844 C 203.738281 115.628906 203.640625 117.640625 204.5 119.316406 C 205.449219 121.171875 207.921875 122.066406 209.742188 120.628906 C 211.402344 119.316406 212.390625 117.203125 212.851562 115.292969 C 213.003906 114.652344 213.246094 113.878906 213.121094 113.21875 C 213.089844 113.054688 212.992188 112.621094 212.710938 112.800781 C 211.476562 113.597656 211.136719 117.207031 208.847656 115.816406 C 208.597656 115.664062 208.367188 115.472656 208.164062 115.265625 C 207.855469 114.945312 207.632812 114.574219 207.453125 114.183594 C 206.746094 112.644531 206.917969 110.917969 207.402344 109.34375 C 208.234375 106.667969 209.769531 104.136719 211.042969 101.617188 C 211.761719 100.195312 213.511719 97.210938 212.003906 96.628906 Z M 212.003906 96.628906 " fill-opacity="1" fill-rule="evenodd"/><path fill="#000000" d="M 174.269531 77.070312 C 174.195312 77.042969 173.773438 77.839844 173.738281 77.898438 C 173.136719 78.96875 172.535156 80.039062 171.96875 81.128906 C 170.535156 83.898438 169.007812 86.695312 168.550781 89.777344 C 168.355469 91.097656 168.289062 92.582031 168.902344 93.820312 C 169.582031 95.191406 171.351562 95.851562 172.652344 94.789062 C 173.839844 93.820312 174.546875 92.261719 174.875 90.847656 C 174.984375 90.375 175.15625 89.804688 175.070312 89.320312 C 175.046875 89.195312 174.976562 88.878906 174.777344 89.011719 C 173.894531 89.597656 173.652344 92.261719 172.011719 91.234375 C 171.832031 91.121094 171.667969 90.984375 171.523438 90.828125 C 171.304688 90.59375 171.140625 90.320312 171.015625 90.03125 C 170.511719 88.894531 170.632812 87.617188 170.980469 86.457031 C 171.574219 84.480469 172.671875 82.613281 173.582031 80.753906 C 174.09375 79.703125 175.347656 77.5 174.269531 77.070312 Z M 174.269531 77.070312 " fill-opacity="1" fill-rule="evenodd"/><path fill="#000000" d="M 302.21875 99.097656 C 302.273438 99.097656 302.167969 99.199219 302.140625 99.25 C 302.078125 99.367188 302 99.480469 301.929688 99.597656 C 301.746094 99.914062 301.414062 100.300781 301.335938 100.664062 C 301.261719 101.023438 301.886719 101.316406 301.722656 101.773438 C 301.617188 102.0625 301.289062 102.1875 301.027344 102.261719 C 300.347656 102.457031 299.453125 102.253906 299.09375 101.585938 C 298.8125 101.078125 299.070312 100.515625 299.308594 100.050781 C 299.359375 99.949219 299.597656 99.574219 299.421875 99.480469 C 299.109375 99.320312 298.589844 100.222656 298.46875 100.390625 C 297.828125 101.269531 297.089844 102.722656 295.984375 103.078125 C 295.113281 103.355469 294.132812 102.84375 293.296875 102.664062 C 292.386719 102.472656 291.421875 102.578125 290.550781 102.894531 C 288.378906 103.691406 286.441406 105.214844 284.628906 106.640625 C 282.203125 108.554688 279.351562 110.5 276.785156 112.222656 C 276.871094 112.242188 276.628906 112.304688 276.550781 112.347656 C 276.390625 112.445312 276.226562 112.539062 276.0625 112.628906 C 275.550781 112.925781 275.039062 113.21875 274.527344 113.515625 C 272.867188 114.492188 271.152344 115.390625 269.429688 116.246094 C 268.734375 116.589844 268.035156 116.917969 267.34375 117.261719 C 267.292969 117.285156 266.65625 117.582031 266.828125 117.734375 C 266.941406 117.835938 267.332031 117.738281 267.464844 117.722656 C 268.125 117.640625 268.769531 117.429688 269.414062 117.257812 C 272.320312 116.5 274.851562 115.675781 277.375 113.957031 C 280.359375 111.929688 283.167969 109.644531 286.078125 107.515625 C 287.65625 106.355469 289.367188 104.941406 291.253906 104.347656 C 292.902344 103.824219 294.152344 105.695312 295.8125 105.183594 C 296.632812 104.929688 297.238281 104.125 297.714844 103.441406 C 297.769531 103.359375 298.128906 102.640625 298.242188 102.660156 C 298.316406 102.671875 298.394531 102.933594 298.414062 102.988281 C 298.515625 103.292969 298.613281 103.609375 298.816406 103.859375 C 299.328125 104.503906 300.378906 104.605469 301.117188 104.414062 C 302.964844 103.9375 303.023438 100.363281 302.21875 99.097656 Z M 302.21875 99.097656 " fill-opacity="1" fill-rule="evenodd"/><g clip-path="url(#5e0f85846b)"><path fill="#000000" d="M 184.710938 23.25 L 187.671875 17.429688 C 187.671875 17.429688 196.597656 33.839844 194.925781 36.207031 C 194.925781 36.207031 193.160156 35.113281 191.328125 32.773438 C 191.328125 32.773438 192.078125 42.726562 193.609375 55.25 C 196.242188 76.746094 199.433594 106.078125 192.421875 107.582031 C 192.421875 107.582031 193.027344 94.761719 191.828125 79.546875 C 189.964844 55.957031 185.855469 25.878906 184.710938 23.25 Z M 184.710938 23.25 " fill-opacity="1" fill-rule="evenodd"/></g><path fill="#000000" d="M 103.550781 27.261719 C 103.191406 27.363281 102.761719 28.238281 102.570312 28.523438 C 101.699219 29.8125 100.890625 31.160156 100.164062 32.542969 C 99.300781 34.195312 98.53125 35.898438 98 37.703125 C 97.730469 38.632812 97.5 39.632812 97.523438 40.613281 C 97.535156 41.121094 97.628906 41.625 97.78125 42.105469 C 98.730469 45.152344 102.410156 45.378906 104.886719 44.277344 C 108.003906 42.890625 108.835938 38.117188 107.207031 35.289062 C 106.480469 34.03125 105.441406 33.023438 104.335938 32.132812 C 103.972656 31.835938 103.601562 31.554688 103.214844 31.292969 C 103.089844 31.203125 102.773438 31.070312 102.71875 30.90625 C 102.628906 30.628906 102.953125 30.183594 103.0625 29.957031 C 103.375 29.292969 103.746094 28.042969 103.550781 27.261719 Z M 101.394531 34.679688 C 101.34375 34.667969 100.914062 35.257812 100.902344 35.289062 C 100.714844 35.703125 100.550781 36.128906 100.414062 36.566406 C 100.265625 37.066406 100.085938 37.636719 100.09375 38.164062 C 100.105469 39.070312 100.78125 39.816406 101.503906 40.230469 C 102.511719 40.8125 103.878906 40.839844 104.960938 40.476562 C 105.355469 40.347656 106.019531 40.0625 105.941406 39.519531 C 105.871094 38.992188 105.464844 38.460938 105.167969 38.046875 C 104.253906 36.785156 102.726562 35.429688 101.394531 34.679688 Z M 101.394531 34.679688 " fill-opacity="1" fill-rule="evenodd"/></svg>