<svg xmlns="http://www.w3.org/2000/svg" xmlns:xlink="http://www.w3.org/1999/xlink" width="500" zoomAndPan="magnify" viewBox="0 0 375 149.999998" height="200" preserveAspectRatio="xMidYMid meet" version="1.0"><path fill="#000000" d="M 302.382812 20.0625 C 302.136719 20 302.902344 20.105469 303.152344 20.15625 C 303.640625 20.25 304.128906 20.359375 304.617188 20.457031 C 306.023438 20.730469 307.394531 21.078125 308.753906 21.558594 C 312.851562 23.011719 316.78125 25.1875 320.386719 27.738281 C 329.105469 33.90625 335.632812 43.164062 339.238281 53.722656 C 340.117188 56.292969 340.875 58.914062 341.488281 61.574219 C 341.707031 62.527344 342.238281 63.890625 341.824219 64.859375 C 341.105469 66.550781 339.207031 67.621094 337.871094 68.667969 C 338.046875 68.886719 337.34375 68.734375 337.082031 68.785156 C 336.542969 68.886719 335.964844 68.65625 335.464844 68.453125 C 334.066406 67.878906 332.671875 66.628906 331.347656 65.8125 C 330.277344 65.148438 330.226562 63.507812 329.902344 62.324219 C 329.214844 59.785156 328.339844 57.304688 327.398438 54.867188 C 322.566406 42.304688 312.304688 28.460938 302.382812 20.0625 Z M 302.382812 20.0625 " fill-opacity="1" fill-rule="evenodd"/><path fill="#000000" d="M 302.382812 129.972656 C 302.136719 130.035156 302.902344 129.929688 303.152344 129.878906 C 303.640625 129.785156 304.128906 129.675781 304.617188 129.582031 C 306.023438 129.304688 307.394531 128.960938 308.753906 128.476562 C 312.851562 127.023438 316.78125 124.847656 320.386719 122.300781 C 329.105469 116.132812 335.632812 106.871094 339.238281 96.3125 C 340.117188 93.742188 340.875 91.121094 341.488281 88.464844 C 341.707031 87.507812 342.238281 86.148438 341.824219 85.179688 C 341.105469 83.484375 339.207031 82.414062 337.871094 81.371094 C 338.046875 81.152344 337.34375 81.300781 337.082031 81.25 C 336.542969 81.148438 335.964844 81.382812 335.464844 81.585938 C 334.066406 82.160156 332.671875 83.40625 331.347656 84.226562 C 330.277344 84.886719 330.226562 86.53125 329.902344 87.714844 C 329.214844 90.25 328.339844 92.730469 327.398438 95.167969 C 322.566406 107.730469 312.304688 121.578125 302.382812 129.972656 Z M 302.382812 129.972656 " fill-opacity="1" fill-rule="evenodd"/><path fill="#000000" d="M 351.128906 68.230469 C 350.976562 68.140625 350.835938 68.0625 350.753906 68.003906 C 349.925781 67.414062 349.214844 66.730469 348.640625 65.855469 C 346.648438 62.808594 345.964844 59.003906 343.972656 55.9375 C 343.308594 54.914062 342.488281 54.027344 341.574219 53.265625 C 341.164062 52.925781 340.722656 52.628906 340.3125 52.289062 C 340.214844 52.207031 339.984375 52.003906 339.898438 51.84375 C 339.765625 51.59375 339.773438 51.34375 339.871094 51.136719 C 339.933594 50.992188 340.058594 50.808594 340.355469 50.726562 C 341.59375 50.371094 343.324219 50.90625 344.480469 51.292969 C 347.730469 52.378906 350.945312 54.410156 352.941406 57.457031 C 353.476562 58.277344 353.863281 59.214844 354.257812 60.140625 C 354.613281 60.976562 354.976562 61.800781 355.511719 62.492188 C 355.878906 62.96875 356.355469 63.296875 356.851562 63.597656 C 357.425781 63.945312 358.027344 64.253906 358.566406 64.640625 C 360.117188 65.757812 361.128906 67.523438 361.851562 69.34375 C 362.085938 69.929688 362.300781 70.53125 362.476562 71.144531 C 362.546875 71.386719 362.601562 71.636719 362.644531 71.886719 C 362.65625 71.957031 362.65625 72.136719 362.652344 72.246094 C 362.660156 72.296875 362.65625 72.351562 362.648438 72.402344 C 362.59375 72.796875 362.359375 72.925781 362.164062 72.960938 C 360.6875 73.539062 359.21875 74.136719 357.757812 74.757812 L 357.671875 74.792969 C 358.609375 75.296875 359.542969 75.804688 360.476562 76.3125 C 360.679688 76.421875 361.21875 76.59375 361.574219 76.800781 C 361.871094 76.972656 362.070312 77.199219 362.152344 77.394531 C 362.226562 77.574219 362.253906 77.824219 362.210938 78.101562 C 362.164062 78.433594 362.003906 78.84375 361.945312 79.039062 C 361.582031 80.289062 361.039062 81.511719 360.386719 82.613281 C 359.785156 83.640625 359.0625 84.574219 358.1875 85.339844 C 357.039062 86.339844 355.6875 87.074219 354.757812 88.347656 C 354.117188 89.230469 353.738281 90.269531 353.335938 91.300781 C 352.890625 92.449219 352.425781 93.59375 351.652344 94.566406 C 349.664062 97.085938 346.78125 98.730469 343.722656 98.996094 C 343.027344 99.054688 342.3125 99.097656 341.617188 99.046875 C 341.515625 99.039062 341.085938 99.011719 340.890625 98.910156 C 340.660156 98.792969 340.542969 98.601562 340.5 98.417969 C 340.449219 98.210938 340.46875 97.921875 340.726562 97.679688 C 340.847656 97.570312 341.230469 97.394531 341.300781 97.363281 C 341.730469 97.140625 342.132812 96.871094 342.535156 96.585938 C 343.582031 95.839844 344.488281 94.886719 345.230469 93.785156 C 345.863281 92.84375 346.421875 91.800781 346.855469 90.734375 C 346.988281 90.40625 347.125 90.066406 347.210938 89.71875 C 347.222656 89.667969 347.246094 89.480469 347.273438 89.363281 C 347.21875 88.285156 347.050781 87.199219 347.101562 86.183594 C 347.167969 84.964844 347.527344 83.835938 348.617188 82.890625 C 349.722656 81.933594 351.03125 81.402344 352.277344 80.71875 C 352.355469 80.675781 352.519531 80.582031 352.652344 80.507812 C 352.214844 79.976562 351.472656 79.582031 350.949219 79.257812 C 349.277344 78.210938 347.464844 77.433594 345.675781 76.660156 C 344.882812 76.316406 344.082031 75.992188 343.269531 75.707031 C 342.949219 75.59375 342.628906 75.488281 342.304688 75.394531 L 342.234375 75.375 C 340.941406 76.835938 339.425781 78.105469 338.035156 79.441406 C 337.652344 79.8125 337.265625 80.167969 336.882812 80.539062 C 336.847656 80.582031 336.683594 80.773438 336.601562 80.851562 C 336.519531 80.921875 336.445312 80.96875 336.390625 80.992188 C 336.148438 81.09375 335.960938 81.03125 335.832031 80.945312 C 334.054688 79.789062 332.304688 78.59375 330.5625 77.382812 C 329.980469 76.976562 329.402344 76.5625 328.816406 76.164062 C 328.625 76.035156 328.4375 75.910156 328.242188 75.789062 C 328.175781 75.746094 328.109375 75.703125 328.042969 75.65625 C 327.925781 75.609375 327.820312 75.527344 327.75 75.414062 C 327.582031 75.152344 327.636719 74.945312 327.664062 74.847656 C 327.710938 74.667969 327.804688 74.511719 327.976562 74.429688 C 330.621094 72.085938 333.523438 70.203125 336.398438 68.230469 C 336.625 68.078125 336.917969 68.097656 337.121094 68.289062 C 337.738281 68.863281 339.972656 70.925781 340.59375 71.5 C 341.171875 72.03125 341.746094 72.566406 342.328125 73.09375 C 342.460938 73.214844 342.609375 73.375 342.769531 73.515625 C 342.855469 73.59375 342.945312 73.671875 343.035156 73.710938 C 343.082031 73.699219 343.296875 73.632812 343.425781 73.574219 C 343.707031 73.4375 343.980469 73.261719 344.136719 73.179688 C 345.617188 72.398438 346.867188 71.1875 348.214844 70.179688 C 349.074219 69.535156 349.964844 68.933594 350.875 68.378906 C 350.9375 68.339844 351.027344 68.289062 351.128906 68.230469 Z M 341.988281 51.960938 C 342.742188 52.074219 343.523438 52.351562 344.125 52.550781 C 347.125 53.554688 350.109375 55.40625 351.949219 58.222656 C 352.988281 59.808594 353.429688 61.855469 354.582031 63.339844 C 355.449219 64.460938 356.796875 64.945312 357.890625 65.738281 C 359.25 66.714844 360.101562 68.273438 360.734375 69.867188 C 360.953125 70.410156 361.152344 70.96875 361.316406 71.53125 C 361.347656 71.640625 361.375 71.75 361.398438 71.859375 C 360.03125 72.402344 358.671875 72.957031 357.316406 73.53125 C 357.1875 73.585938 356.363281 73.855469 356.042969 74.078125 C 355.714844 74.304688 355.636719 74.621094 355.648438 74.8125 C 355.660156 75.050781 355.792969 75.261719 355.988281 75.367188 C 357.3125 76.058594 358.617188 76.777344 359.933594 77.492188 C 360.070312 77.566406 360.355469 77.667969 360.644531 77.789062 C 360.75 77.835938 360.886719 77.910156 360.984375 77.960938 C 360.929688 78.15625 360.824219 78.523438 360.789062 78.644531 C 360.457031 79.78125 359.960938 80.898438 359.367188 81.902344 C 358.832031 82.808594 358.199219 83.636719 357.421875 84.3125 C 356.207031 85.375 354.792969 86.179688 353.804688 87.535156 C 353.097656 88.511719 352.660156 89.648438 352.21875 90.789062 C 351.820312 91.816406 351.417969 92.839844 350.730469 93.710938 C 348.949219 95.964844 346.367188 97.445312 343.628906 97.683594 C 343.472656 97.695312 343.316406 97.707031 343.160156 97.71875 L 343.203125 97.6875 C 344.375 96.851562 345.386719 95.789062 346.210938 94.5625 C 346.894531 93.546875 347.496094 92.417969 347.964844 91.265625 C 348.128906 90.871094 348.289062 90.460938 348.390625 90.042969 C 348.402344 90.003906 348.421875 89.851562 348.433594 89.777344 C 348.480469 89.675781 348.5 89.566406 348.496094 89.453125 C 348.460938 88.574219 348.332031 87.6875 348.308594 86.835938 C 348.28125 85.757812 348.433594 84.734375 349.375 83.917969 C 350.414062 83.019531 351.652344 82.535156 352.824219 81.894531 C 353.046875 81.773438 353.464844 81.585938 353.691406 81.339844 C 353.851562 81.167969 353.949219 80.976562 353.984375 80.769531 C 354.023438 80.542969 354 80.292969 353.835938 80.019531 C 353.347656 79.210938 352.296875 78.582031 351.554688 78.117188 C 349.835938 77.039062 347.96875 76.234375 346.125 75.4375 C 345.476562 75.15625 344.828125 74.886719 344.167969 74.644531 C 344.367188 74.535156 344.546875 74.425781 344.667969 74.363281 C 346.207031 73.554688 347.507812 72.308594 348.90625 71.261719 C 349.734375 70.640625 350.59375 70.0625 351.46875 69.523438 C 351.652344 69.414062 352.042969 69.207031 352.265625 68.957031 C 352.464844 68.734375 352.566406 68.476562 352.566406 68.214844 C 352.566406 67.949219 352.453125 67.671875 352.21875 67.441406 C 351.988281 67.214844 351.585938 67.023438 351.421875 66.90625 C 350.726562 66.40625 350.117188 65.835938 349.632812 65.09375 C 347.640625 62.046875 346.957031 58.246094 344.96875 55.179688 C 344.230469 54.046875 343.324219 53.066406 342.316406 52.222656 C 342.207031 52.132812 342.097656 52.046875 341.988281 51.960938 Z M 336.667969 69.601562 C 337.535156 70.40625 339.269531 72.007812 339.808594 72.503906 C 340.386719 73.035156 340.960938 73.570312 341.542969 74.101562 L 341.609375 74.160156 C 341.578125 74.195312 341.554688 74.230469 341.535156 74.261719 C 340.230469 75.785156 338.660156 77.082031 337.230469 78.457031 C 336.84375 78.828125 336.453125 79.191406 336.070312 79.5625 C 334.4375 78.492188 332.824219 77.390625 331.21875 76.273438 C 330.628906 75.867188 330.050781 75.449219 329.457031 75.046875 L 329.316406 74.953125 C 331.648438 72.96875 334.164062 71.3125 336.667969 69.601562 Z M 336.667969 69.601562 " fill-opacity="1" fill-rule="evenodd"/><path fill="#000000" d="M 375 75.460938 L 362.648438 72.402344 L 357.003906 74.839844 L 361.6875 77.265625 Z M 375 75.460938 " fill-opacity="1" fill-rule="evenodd"/><path fill="#000000" d="M 72.628906 20.0625 C 72.875 20 72.113281 20.105469 71.859375 20.15625 C 71.371094 20.25 70.882812 20.359375 70.394531 20.457031 C 68.988281 20.730469 67.617188 21.078125 66.257812 21.558594 C 62.160156 23.011719 58.230469 25.1875 54.625 27.738281 C 45.90625 33.90625 39.378906 43.164062 35.773438 53.722656 C 34.894531 56.292969 34.136719 58.914062 33.523438 61.574219 C 33.304688 62.527344 32.773438 63.890625 33.1875 64.859375 C 33.90625 66.550781 35.808594 67.621094 37.140625 68.667969 C 36.964844 68.886719 37.667969 68.734375 37.929688 68.785156 C 38.46875 68.886719 39.050781 68.65625 39.546875 68.453125 C 40.945312 67.878906 42.34375 66.628906 43.667969 65.8125 C 44.734375 65.148438 44.789062 63.507812 45.109375 62.324219 C 45.796875 59.785156 46.671875 57.304688 47.613281 54.867188 C 52.449219 42.304688 62.710938 28.460938 72.628906 20.0625 Z M 72.628906 20.0625 " fill-opacity="1" fill-rule="evenodd"/><path fill="#000000" d="M 72.628906 129.972656 C 72.875 130.035156 72.113281 129.929688 71.859375 129.878906 C 71.371094 129.785156 70.882812 129.675781 70.394531 129.582031 C 68.988281 129.304688 67.617188 128.960938 66.257812 128.476562 C 62.160156 127.023438 58.230469 124.847656 54.625 122.300781 C 45.90625 116.132812 39.378906 106.871094 35.773438 96.3125 C 34.894531 93.742188 34.136719 91.121094 33.523438 88.464844 C 33.304688 87.507812 32.773438 86.148438 33.1875 85.179688 C 33.90625 83.484375 35.808594 82.414062 37.140625 81.371094 C 36.964844 81.152344 37.667969 81.300781 37.929688 81.25 C 38.46875 81.148438 39.050781 81.382812 39.546875 81.585938 C 40.945312 82.160156 42.34375 83.40625 43.667969 84.226562 C 44.734375 84.886719 44.789062 86.53125 45.109375 87.714844 C 45.796875 90.25 46.671875 92.730469 47.613281 95.167969 C 52.449219 107.730469 62.710938 121.578125 72.628906 129.972656 Z M 72.628906 129.972656 " fill-opacity="1" fill-rule="evenodd"/><path fill="#000000" d="M 23.882812 68.230469 C 24.035156 68.140625 24.179688 68.0625 24.261719 68.003906 C 25.085938 67.414062 25.796875 66.730469 26.371094 65.855469 C 28.367188 62.808594 29.046875 59.003906 31.039062 55.9375 C 31.703125 54.914062 32.523438 54.027344 33.4375 53.265625 C 33.847656 52.925781 34.289062 52.628906 34.699219 52.289062 C 34.796875 52.207031 35.027344 52.003906 35.113281 51.84375 C 35.246094 51.59375 35.238281 51.34375 35.144531 51.136719 C 35.078125 50.992188 34.953125 50.808594 34.65625 50.726562 C 33.417969 50.371094 31.6875 50.90625 30.53125 51.292969 C 27.28125 52.378906 24.066406 54.410156 22.070312 57.457031 C 21.535156 58.277344 21.152344 59.214844 20.757812 60.140625 C 20.402344 60.976562 20.035156 61.800781 19.5 62.492188 C 19.132812 62.96875 18.65625 63.296875 18.160156 63.597656 C 17.585938 63.945312 16.984375 64.253906 16.449219 64.640625 C 14.894531 65.757812 13.886719 67.523438 13.160156 69.34375 C 12.925781 69.929688 12.710938 70.53125 12.535156 71.144531 C 12.464844 71.386719 12.414062 71.636719 12.371094 71.886719 C 12.355469 71.957031 12.355469 72.136719 12.359375 72.246094 C 12.351562 72.296875 12.355469 72.351562 12.363281 72.402344 C 12.417969 72.796875 12.652344 72.925781 12.847656 72.960938 C 14.324219 73.539062 15.792969 74.136719 17.253906 74.757812 L 17.339844 74.792969 C 16.40625 75.296875 15.46875 75.804688 14.535156 76.3125 C 14.335938 76.421875 13.792969 76.59375 13.4375 76.800781 C 13.140625 76.972656 12.945312 77.199219 12.859375 77.394531 C 12.789062 77.574219 12.761719 77.824219 12.800781 78.101562 C 12.851562 78.433594 13.007812 78.84375 13.066406 79.039062 C 13.429688 80.289062 13.972656 81.511719 14.625 82.613281 C 15.226562 83.640625 15.949219 84.574219 16.828125 85.339844 C 17.976562 86.339844 19.324219 87.074219 20.253906 88.347656 C 20.894531 89.230469 21.273438 90.269531 21.675781 91.300781 C 22.121094 92.449219 22.589844 93.59375 23.359375 94.566406 C 25.347656 97.085938 28.230469 98.730469 31.289062 98.996094 C 31.984375 99.054688 32.699219 99.097656 33.398438 99.046875 C 33.496094 99.039062 33.929688 99.011719 34.121094 98.910156 C 34.351562 98.792969 34.46875 98.601562 34.511719 98.417969 C 34.5625 98.210938 34.546875 97.921875 34.285156 97.679688 C 34.164062 97.570312 33.78125 97.394531 33.714844 97.363281 C 33.28125 97.140625 32.878906 96.871094 32.476562 96.585938 C 31.429688 95.839844 30.523438 94.886719 29.785156 93.785156 C 29.148438 92.84375 28.59375 91.800781 28.15625 90.734375 C 28.023438 90.40625 27.886719 90.066406 27.800781 89.71875 C 27.792969 89.667969 27.765625 89.480469 27.738281 89.363281 C 27.792969 88.285156 27.960938 87.199219 27.910156 86.183594 C 27.84375 84.964844 27.488281 83.835938 26.394531 82.890625 C 25.289062 81.933594 23.980469 81.402344 22.734375 80.71875 C 22.65625 80.675781 22.492188 80.582031 22.359375 80.507812 C 22.796875 79.976562 23.539062 79.582031 24.066406 79.257812 C 25.734375 78.210938 27.550781 77.433594 29.335938 76.660156 C 30.132812 76.316406 30.929688 75.992188 31.746094 75.707031 C 32.0625 75.59375 32.386719 75.488281 32.707031 75.394531 L 32.777344 75.375 C 34.070312 76.835938 35.585938 78.105469 36.976562 79.441406 C 37.359375 79.8125 37.75 80.167969 38.128906 80.539062 C 38.167969 80.582031 38.328125 80.773438 38.414062 80.851562 C 38.492188 80.921875 38.570312 80.96875 38.621094 80.992188 C 38.863281 81.09375 39.054688 81.03125 39.183594 80.945312 C 40.957031 79.789062 42.707031 78.59375 44.449219 77.382812 C 45.035156 76.976562 45.609375 76.5625 46.195312 76.164062 C 46.386719 76.035156 46.578125 75.910156 46.769531 75.789062 C 46.839844 75.746094 46.90625 75.703125 46.972656 75.65625 C 47.089844 75.609375 47.191406 75.527344 47.261719 75.414062 C 47.429688 75.152344 47.375 74.945312 47.351562 74.847656 C 47.304688 74.667969 47.207031 74.511719 47.035156 74.429688 C 44.390625 72.085938 41.488281 70.203125 38.613281 68.230469 C 38.386719 68.078125 38.09375 68.097656 37.890625 68.289062 C 37.273438 68.863281 35.039062 70.925781 34.417969 71.5 C 33.84375 72.03125 33.265625 72.566406 32.683594 73.09375 C 32.550781 73.214844 32.402344 73.375 32.242188 73.515625 C 32.15625 73.59375 32.066406 73.671875 31.976562 73.710938 C 31.929688 73.699219 31.714844 73.632812 31.589844 73.574219 C 31.308594 73.4375 31.03125 73.261719 30.875 73.179688 C 29.394531 72.398438 28.144531 71.1875 26.796875 70.179688 C 25.9375 69.535156 25.046875 68.933594 24.136719 68.378906 C 24.074219 68.339844 23.984375 68.289062 23.882812 68.230469 Z M 33.027344 51.960938 C 32.273438 52.074219 31.488281 52.351562 30.886719 52.550781 C 27.886719 53.554688 24.90625 55.40625 23.0625 58.222656 C 22.023438 59.808594 21.582031 61.855469 20.429688 63.339844 C 19.5625 64.460938 18.21875 64.945312 17.121094 65.738281 C 15.765625 66.714844 14.910156 68.273438 14.277344 69.867188 C 14.058594 70.410156 13.859375 70.96875 13.695312 71.53125 C 13.667969 71.640625 13.636719 71.75 13.613281 71.859375 C 14.980469 72.402344 16.34375 72.957031 17.695312 73.53125 C 17.824219 73.585938 18.648438 73.855469 18.96875 74.078125 C 19.300781 74.304688 19.375 74.621094 19.363281 74.8125 C 19.351562 75.050781 19.21875 75.261719 19.023438 75.367188 C 17.699219 76.058594 16.394531 76.777344 15.082031 77.492188 C 14.941406 77.566406 14.65625 77.667969 14.367188 77.789062 C 14.265625 77.835938 14.125 77.910156 14.027344 77.960938 C 14.085938 78.15625 14.1875 78.523438 14.222656 78.644531 C 14.554688 79.78125 15.050781 80.898438 15.644531 81.902344 C 16.183594 82.808594 16.8125 83.636719 17.589844 84.3125 C 18.808594 85.375 20.222656 86.179688 21.207031 87.535156 C 21.914062 88.511719 22.351562 89.648438 22.792969 90.789062 C 23.191406 91.816406 23.59375 92.839844 24.28125 93.710938 C 26.0625 95.964844 28.644531 97.445312 31.382812 97.683594 C 31.539062 97.695312 31.699219 97.707031 31.855469 97.71875 L 31.808594 97.6875 C 30.640625 96.851562 29.628906 95.789062 28.800781 94.5625 C 28.117188 93.546875 27.515625 92.417969 27.046875 91.265625 C 26.882812 90.871094 26.722656 90.460938 26.621094 90.042969 C 26.609375 90.003906 26.589844 89.851562 26.578125 89.777344 C 26.535156 89.675781 26.511719 89.566406 26.515625 89.453125 C 26.550781 88.574219 26.679688 87.6875 26.703125 86.835938 C 26.730469 85.757812 26.578125 84.734375 25.636719 83.917969 C 24.597656 83.019531 23.359375 82.535156 22.1875 81.894531 C 21.96875 81.773438 21.550781 81.585938 21.320312 81.339844 C 21.160156 81.167969 21.0625 80.976562 21.027344 80.769531 C 20.988281 80.542969 21.015625 80.292969 21.175781 80.019531 C 21.664062 79.210938 22.714844 78.582031 23.457031 78.117188 C 25.175781 77.039062 27.046875 76.234375 28.886719 75.4375 C 29.535156 75.15625 30.183594 74.886719 30.84375 74.644531 C 30.644531 74.535156 30.464844 74.425781 30.34375 74.363281 C 28.808594 73.554688 27.503906 72.308594 26.105469 71.261719 C 25.277344 70.640625 24.421875 70.0625 23.542969 69.523438 C 23.359375 69.414062 22.96875 69.207031 22.746094 68.957031 C 22.546875 68.734375 22.445312 68.476562 22.445312 68.214844 C 22.445312 67.949219 22.558594 67.671875 22.792969 67.441406 C 23.023438 67.214844 23.425781 67.023438 23.589844 66.90625 C 24.289062 66.40625 24.894531 65.835938 25.378906 65.09375 C 27.375 62.046875 28.054688 58.246094 30.046875 55.179688 C 30.78125 54.046875 31.6875 53.066406 32.699219 52.222656 C 32.804688 52.132812 32.914062 52.046875 33.027344 51.960938 Z M 38.34375 69.601562 C 37.476562 70.40625 35.742188 72.007812 35.203125 72.503906 C 34.625 73.035156 34.050781 73.570312 33.46875 74.101562 L 33.402344 74.160156 C 33.433594 74.195312 33.457031 74.230469 33.476562 74.261719 C 34.78125 75.785156 36.351562 77.082031 37.78125 78.457031 C 38.167969 78.828125 38.5625 79.191406 38.945312 79.5625 C 40.574219 78.492188 42.1875 77.390625 43.796875 76.273438 C 44.382812 75.867188 44.964844 75.449219 45.554688 75.046875 L 45.695312 74.953125 C 43.363281 72.96875 40.847656 71.3125 38.34375 69.601562 Z M 38.34375 69.601562 " fill-opacity="1" fill-rule="evenodd"/><path fill="#000000" d="M 0.0117188 75.460938 L 12.363281 72.402344 L 18.007812 74.839844 L 13.324219 77.265625 Z M 0.0117188 75.460938 " fill-opacity="1" fill-rule="evenodd"/><path fill="#000000" d="M 304.097656 89.351562 C 304.027344 89.328125 303.8125 89.683594 303.78125 89.726562 C 303.476562 90.121094 303.210938 90.546875 302.933594 90.964844 C 302.652344 91.378906 302.164062 91.964844 302.234375 92.507812 C 302.390625 93.722656 304.011719 95.597656 301.898438 96.089844 C 300.085938 96.515625 297.960938 94.75 298.09375 92.898438 C 298.140625 92.21875 298.390625 91.589844 298.582031 90.941406 C 298.613281 90.828125 298.753906 90.386719 298.539062 90.359375 C 297.992188 90.285156 297.136719 91.734375 296.886719 92.066406 C 295.617188 93.769531 294.578125 96.015625 292.605469 97.035156 C 290.753906 97.988281 288.519531 97.121094 286.632812 96.6875 C 285.15625 96.34375 283.730469 96.394531 282.277344 96.847656 C 280.289062 97.46875 278.074219 99.402344 276.441406 100.582031 C 272.042969 103.773438 267.902344 107.304688 263.617188 110.648438 C 260.058594 113.425781 256.359375 116.074219 252.558594 118.5 C 248.769531 120.921875 245.03125 123.394531 241.015625 125.433594 C 240.089844 125.90625 239.148438 126.347656 238.226562 126.835938 C 238.035156 126.9375 237.300781 127.132812 237.253906 127.398438 C 237.199219 127.699219 238.007812 127.6875 238.152344 127.699219 C 239.222656 127.757812 240.324219 127.417969 241.351562 127.152344 C 245.316406 126.144531 249.941406 124.703125 253.546875 122.730469 C 256.226562 121.265625 258.480469 118.980469 260.816406 117.046875 C 264.347656 114.128906 267.9375 111.289062 271.5 108.410156 C 274.378906 106.089844 277.25 103.636719 280.554688 101.929688 C 281.757812 101.3125 283.140625 100.71875 284.519531 100.839844 C 285.519531 100.925781 286.460938 101.550781 287.371094 101.933594 C 289.417969 102.789062 291.679688 103.007812 293.5625 101.605469 C 294.164062 101.15625 294.679688 100.601562 295.132812 100.007812 C 295.675781 99.292969 296.152344 98.507812 296.46875 97.660156 C 295.953125 97.898438 297.621094 99.207031 297.75 99.285156 C 299.167969 100.148438 301.171875 101.121094 302.550781 99.960938 C 306.886719 96.320312 304.621094 92.136719 304.097656 89.351562 Z M 304.097656 89.351562 " fill-opacity="1" fill-rule="evenodd"/><path fill="#000000" d="M 238.511719 32.441406 C 238.128906 32.5625 238.175781 33.386719 237.59375 33.363281 C 237.027344 33.347656 236.289062 32.53125 235.917969 32.242188 C 234.722656 31.304688 233.878906 30.6875 233.914062 29.261719 C 233.9375 28.421875 234.1875 26.804688 235.460938 26.535156 C 235.882812 26.449219 236.320312 26.574219 236.726562 26.65625 C 237.042969 26.71875 237.355469 26.800781 237.628906 26.949219 C 238.023438 27.15625 238.378906 27.445312 238.6875 27.726562 C 239.222656 28.210938 239.648438 28.757812 240.042969 29.316406 C 240.71875 30.273438 241.324219 31.238281 241.8125 32.261719 C 242.539062 33.785156 243.132812 35.351562 243.699219 36.921875 C 244.558594 34.261719 245.234375 31.558594 246.429688 28.976562 C 246.972656 27.800781 247.5625 26.414062 248.757812 25.539062 C 250.015625 24.621094 251.304688 25.414062 252.117188 26.335938 C 252.585938 26.867188 253.214844 27.625 253.265625 28.292969 C 253.324219 29.015625 252.777344 29.855469 252.386719 30.488281 C 252.285156 30.652344 252.0625 31.109375 251.78125 31.144531 C 251.546875 31.175781 251.085938 30.609375 250.960938 30.488281 C 250.183594 29.746094 248.921875 28.339844 247.835938 29.625 C 247.640625 29.851562 247.5 30.109375 247.367188 30.363281 C 247.152344 30.78125 246.964844 31.207031 246.808594 31.640625 C 245.773438 34.5 245.308594 37.464844 244.3125 40.328125 C 244.070312 41.023438 243.789062 41.746094 243.335938 42.378906 C 243.246094 42.507812 243.027344 42.894531 242.78125 42.871094 C 242.519531 42.847656 242.425781 42.445312 242.371094 42.292969 C 242.121094 41.613281 241.980469 40.910156 241.839844 40.214844 C 241.324219 37.605469 240.410156 34.671875 238.511719 32.441406 Z M 238.511719 32.441406 " fill-opacity="1" fill-rule="evenodd"/><path fill="#000000" d="M 168.394531 54.757812 C 168.113281 54.847656 168.148438 55.449219 167.726562 55.433594 C 167.3125 55.421875 166.777344 54.824219 166.507812 54.609375 C 165.636719 53.925781 165.023438 53.472656 165.050781 52.429688 C 165.066406 51.816406 165.246094 50.628906 166.175781 50.433594 C 166.480469 50.367188 166.800781 50.460938 167.09375 50.519531 C 167.328125 50.566406 167.554688 50.625 167.753906 50.734375 C 168.039062 50.886719 168.296875 51.097656 168.523438 51.304688 C 168.910156 51.660156 169.222656 52.058594 169.507812 52.46875 C 170 53.167969 170.441406 53.875 170.796875 54.625 C 171.328125 55.742188 171.757812 56.890625 172.167969 58.039062 C 172.796875 56.089844 173.289062 54.113281 174.15625 52.21875 C 174.550781 51.359375 174.980469 50.34375 175.851562 49.703125 C 176.769531 49.027344 177.703125 49.609375 178.296875 50.285156 C 178.640625 50.675781 179.09375 51.230469 179.132812 51.71875 C 179.175781 52.246094 178.777344 52.863281 178.496094 53.324219 C 178.421875 53.445312 178.257812 53.785156 178.054688 53.808594 C 177.882812 53.832031 177.546875 53.414062 177.457031 53.328125 C 176.890625 52.785156 175.972656 51.753906 175.179688 52.695312 C 175.039062 52.863281 174.9375 53.050781 174.839844 53.234375 C 174.683594 53.542969 174.546875 53.855469 174.433594 54.171875 C 173.679688 56.265625 173.339844 58.4375 172.617188 60.535156 C 172.441406 61.042969 172.234375 61.574219 171.90625 62.039062 C 171.839844 62.132812 171.679688 62.414062 171.503906 62.398438 C 171.3125 62.378906 171.246094 62.085938 171.203125 61.972656 C 171.023438 61.476562 170.917969 60.960938 170.816406 60.449219 C 170.441406 58.539062 169.777344 56.390625 168.394531 54.757812 Z M 168.394531 54.757812 " fill-opacity="1" fill-rule="evenodd"/><path fill="#000000" d="M 239.074219 62.707031 C 238.734375 62.808594 238.777344 63.492188 238.261719 63.476562 C 237.753906 63.460938 237.101562 62.78125 236.769531 62.539062 C 235.707031 61.761719 234.957031 61.246094 234.992188 60.0625 C 235.007812 59.363281 235.230469 58.015625 236.363281 57.792969 C 236.738281 57.71875 237.128906 57.824219 237.488281 57.894531 C 237.769531 57.945312 238.050781 58.015625 238.292969 58.136719 C 238.640625 58.308594 238.957031 58.550781 239.234375 58.78125 C 239.707031 59.1875 240.085938 59.644531 240.4375 60.109375 C 241.035156 60.902344 241.574219 61.703125 242.007812 62.558594 C 242.65625 63.828125 243.183594 65.128906 243.6875 66.433594 C 244.449219 64.222656 245.050781 61.972656 246.113281 59.824219 C 246.59375 58.84375 247.121094 57.691406 248.183594 56.964844 C 249.300781 56.199219 250.445312 56.859375 251.167969 57.625 C 251.585938 58.066406 252.144531 58.699219 252.191406 59.253906 C 252.242188 59.855469 251.753906 60.554688 251.410156 61.082031 C 251.320312 61.21875 251.121094 61.601562 250.871094 61.628906 C 250.664062 61.652344 250.25 61.183594 250.140625 61.082031 C 249.449219 60.464844 248.328125 59.292969 247.363281 60.363281 C 247.191406 60.554688 247.066406 60.765625 246.949219 60.976562 C 246.757812 61.324219 246.589844 61.679688 246.449219 62.039062 C 245.53125 64.417969 245.117188 66.886719 244.230469 69.269531 C 244.015625 69.851562 243.765625 70.449219 243.363281 70.976562 C 243.28125 71.085938 243.085938 71.40625 242.871094 71.386719 C 242.636719 71.367188 242.554688 71.03125 242.503906 70.90625 C 242.285156 70.339844 242.15625 69.757812 242.035156 69.175781 C 241.574219 67.003906 240.761719 64.5625 239.074219 62.707031 Z M 239.074219 62.707031 " fill-opacity="1" fill-rule="evenodd"/><path fill="#000000" d="M 196.011719 32.40625 L 200.46875 26.960938 L 206.546875 32.496094 L 202.183594 37.964844 Z M 196.011719 32.40625 " fill-opacity="1" fill-rule="evenodd"/><path fill="#000000" d="M 173.871094 43.84375 L 178.328125 38.402344 L 184.402344 43.9375 L 180.042969 49.402344 Z M 173.871094 43.84375 " fill-opacity="1" fill-rule="evenodd"/><path fill="#000000" d="M 184.40625 43.84375 L 188.863281 38.402344 L 194.9375 43.9375 L 190.578125 49.402344 Z M 184.40625 43.84375 " fill-opacity="1" fill-rule="evenodd"/><path fill="#000000" d="M 143.066406 99.492188 L 147.523438 94.046875 L 153.597656 99.582031 L 149.238281 105.050781 Z M 143.066406 99.492188 " fill-opacity="1" fill-rule="evenodd"/><path fill="#000000" d="M 153.601562 99.492188 L 158.058594 94.046875 L 164.132812 99.582031 L 159.773438 105.050781 Z M 153.601562 99.492188 " fill-opacity="1" fill-rule="evenodd"/><path fill="#000000" d="M 126.035156 61.347656 L 130.492188 55.902344 L 136.566406 61.4375 L 132.203125 66.90625 Z M 126.035156 61.347656 " fill-opacity="1" fill-rule="evenodd"/><path fill="#000000" d="M 136.570312 61.347656 L 141.027344 55.902344 L 147.101562 61.4375 L 142.738281 66.90625 Z M 136.570312 61.347656 " fill-opacity="1" fill-rule="evenodd"/><path fill="#000000" d="M 131.300781 50.34375 L 135.757812 44.898438 L 141.832031 50.433594 L 137.472656 55.902344 Z M 131.300781 50.34375 " fill-opacity="1" fill-rule="evenodd"/><path fill="#000000" d="M 206.546875 31.582031 L 211.003906 26.136719 L 217.082031 31.671875 L 212.71875 37.140625 Z M 206.546875 31.582031 " fill-opacity="1" fill-rule="evenodd"/><path fill="#000000" d="M 226.570312 54.992188 L 225.570312 58.722656 L 258.980469 47.535156 L 261.632812 42.871094 C 261.632812 42.871094 226.875 54.804688 226.570312 54.992188 Z M 226.570312 54.992188 " fill-opacity="1" fill-rule="evenodd"/><path fill="#000000" d="M 146.964844 38.988281 L 146.265625 41.625 L 169.617188 33.722656 L 171.46875 30.429688 C 171.46875 30.429688 147.175781 38.855469 146.964844 38.988281 Z M 146.964844 38.988281 " fill-opacity="1" fill-rule="evenodd"/><path fill="#000000" d="M 192.199219 80.65625 C 192.066406 80.671875 191.351562 79.507812 191.234375 79.382812 C 190.582031 78.703125 189.707031 78.300781 188.835938 77.972656 C 186.265625 77.011719 183.53125 77.101562 180.839844 77.222656 C 179.160156 77.300781 177.121094 77.464844 176.199219 75.765625 C 173.601562 70.921875 179.242188 63.269531 184.582031 64.078125 C 188.066406 64.597656 190.554688 68.8125 191.953125 71.667969 C 193.445312 74.730469 194.820312 79.289062 193.921875 82.710938 C 193.519531 84.25 192.425781 85.476562 191.324219 86.566406 C 188.621094 89.25 185.246094 91.089844 181.382812 91 C 179.6875 90.957031 180.019531 91.777344 180.277344 93.429688 C 180.527344 95.03125 181 96.984375 180.789062 98.609375 C 180.398438 101.605469 176.46875 104.429688 174.449219 106.222656 C 164.476562 115.097656 152.8125 121.609375 139.675781 123.984375 C 136.703125 124.523438 133.710938 125.003906 130.695312 125.226562 C 129.957031 125.285156 128.375 125.640625 127.699219 125.167969 C 127.210938 124.820312 130.050781 123.613281 130.207031 123.546875 C 133.082031 122.316406 135.988281 121.160156 138.890625 119.988281 C 146.75 116.824219 154.648438 113.484375 162.132812 109.5 C 166.292969 107.285156 170.382812 104.832031 174.21875 102.097656 C 175.984375 100.835938 178.269531 99.5 178.378906 97.109375 C 178.484375 94.863281 177.769531 92.398438 176.660156 90.460938 C 176.070312 89.433594 174.773438 88.664062 174.300781 87.65625 C 173.8125 86.617188 174.230469 84.972656 174.429688 83.90625 C 174.535156 83.355469 174.550781 82.476562 174.898438 82.003906 C 175.273438 81.503906 176.296875 82.453125 176.582031 82.675781 C 178.125 83.886719 179.726562 85.070312 181.578125 85.761719 C 185.007812 87.039062 189.78125 83.121094 192.199219 80.65625 Z M 186.589844 73.035156 C 186.21875 72.839844 185.710938 72.921875 185.304688 72.953125 C 184.332031 73.027344 183.367188 73.160156 182.398438 73.269531 C 181.792969 73.332031 181.015625 73.398438 180.515625 72.96875 C 179.300781 71.9375 180.976562 70.28125 182.046875 70.078125 C 183.523438 69.804688 185.867188 71.589844 186.589844 73.035156 Z M 186.589844 73.035156 " fill-opacity="1" fill-rule="evenodd"/><path fill="#000000" d="M 157.988281 57.746094 C 157.960938 57.824219 158.15625 57.714844 158.242188 57.714844 C 158.414062 57.714844 158.582031 57.710938 158.753906 57.699219 C 159.3125 57.667969 160.699219 57.566406 160.378906 56.664062 C 160.144531 56.007812 159.539062 55.488281 159.058594 55.011719 C 157.980469 53.941406 156.820312 52.902344 155.519531 52.101562 C 155.070312 51.828125 154.234375 51.132812 153.675781 51.148438 C 153.019531 51.171875 152.832031 52.414062 152.707031 52.867188 C 152.539062 53.46875 152.101562 54.382812 152.300781 55.015625 C 152.507812 55.660156 153.554688 56.050781 154.078125 56.394531 C 154.085938 56.359375 154.066406 56.597656 154.070312 56.652344 C 154.082031 56.832031 154.117188 57.003906 154.148438 57.179688 C 154.253906 57.710938 154.402344 58.234375 154.558594 58.753906 C 155.035156 60.367188 155.691406 61.871094 156.453125 63.371094 C 157.820312 66.046875 159.316406 68.65625 160.835938 71.25 C 161.710938 72.742188 162.886719 74.320312 163.277344 76.027344 C 163.121094 76.105469 162.941406 76.667969 162.847656 76.808594 C 162.53125 77.3125 162.125 77.757812 161.683594 78.152344 C 159.492188 80.117188 156.449219 80.429688 153.921875 78.847656 C 152.578125 78.003906 151.707031 76.75 151.394531 75.203125 C 151.253906 74.503906 151.265625 73.835938 151.308594 73.136719 C 151.320312 72.964844 151.34375 72.585938 151.082031 72.597656 C 150.382812 72.621094 149.515625 74.019531 149.128906 74.480469 C 147.699219 76.195312 146.117188 79.304688 143.664062 79.621094 C 140.003906 80.105469 138.964844 75.308594 140.484375 72.800781 C 140.351562 72.550781 139.75 73.113281 139.65625 73.195312 C 138.9375 73.839844 138.339844 74.628906 137.71875 75.371094 C 135.921875 77.519531 134.296875 79.574219 131.4375 80.261719 C 128.558594 80.960938 125.5625 80.207031 123.898438 77.652344 C 123.511719 77.058594 123.179688 76.421875 122.945312 75.757812 C 122.835938 75.449219 122.777344 74.808594 122.492188 74.601562 C 122.160156 74.347656 121.660156 74.832031 121.433594 75.023438 C 120.707031 75.628906 120.027344 76.285156 119.335938 76.929688 C 119.109375 77.136719 118.703125 77.371094 118.738281 77.722656 C 118.855469 78.839844 119.796875 80.058594 120.296875 81.019531 C 121.550781 83.445312 122.867188 85.972656 123.3125 88.6875 C 123.488281 89.75 123.605469 90.964844 123.246094 92.007812 C 122.398438 92.433594 121.566406 93.488281 120.804688 94.074219 C 118.90625 95.53125 116.910156 96.886719 114.875 98.140625 C 108.859375 101.855469 101.867188 104.542969 94.832031 105.398438 C 92.179688 105.726562 89.414062 105.722656 86.8125 105.050781 C 85.367188 104.683594 83.976562 104.066406 82.746094 103.226562 C 75.714844 98.398438 75.816406 89.09375 78.996094 81.945312 C 78.125 81.585938 76.875 83.117188 76.433594 83.652344 C 74.511719 86.007812 73.773438 88.992188 73.445312 91.960938 C 72.5625 99.976562 74.914062 108.460938 83.007812 111.746094 C 86.976562 113.359375 91.660156 113.144531 95.785156 112.375 C 101.976562 111.214844 107.90625 108.695312 113.34375 105.546875 C 117.027344 103.414062 120.726562 100.742188 123.273438 97.269531 C 124.984375 94.941406 125.523438 92.171875 125.464844 89.339844 C 125.449219 88.457031 125.359375 87.582031 125.285156 86.707031 C 125.273438 86.574219 125.140625 85.984375 125.289062 85.886719 C 125.46875 85.773438 127.261719 86.820312 127.542969 86.878906 C 129.199219 87.25 130.875 87.046875 132.355469 86.203125 C 133.757812 85.402344 134.875 84.257812 135.820312 82.960938 C 135.960938 82.769531 137.113281 80.746094 137.347656 80.828125 C 137.644531 80.9375 137.726562 82.148438 137.796875 82.394531 C 138.113281 83.539062 138.609375 84.753906 139.453125 85.613281 C 139.90625 86.074219 140.472656 86.417969 141.050781 86.6875 C 145.472656 88.773438 148.078125 82.828125 149.011719 79.550781 C 148.933594 79.472656 149.078125 80.117188 149.097656 80.171875 C 149.261719 80.625 149.503906 81.039062 149.777344 81.4375 C 150.546875 82.550781 151.585938 83.503906 152.730469 84.222656 C 155.820312 86.175781 160.902344 86.25 163.519531 83.414062 C 164.792969 82.042969 165.339844 80.082031 165.527344 78.261719 C 166.25 71.136719 160.957031 63.609375 157.988281 57.746094 Z M 157.988281 57.746094 " fill-opacity="1" fill-rule="evenodd"/><path fill="#000000" d="M 205.339844 95.074219 C 205.238281 94.878906 205.105469 95.289062 205.015625 95.441406 C 204.738281 95.914062 204.472656 96.394531 204.222656 96.882812 C 203.519531 98.269531 202.792969 99.648438 202.171875 101.074219 C 200.4375 105.0625 198.222656 109.183594 198.871094 113.613281 C 199.078125 115.035156 199.53125 117.308594 201.398438 117.621094 C 203.796875 118.023438 205.109375 115.15625 205.804688 113.535156 C 205.964844 113.152344 206.125 112.769531 206.242188 112.371094 C 206.4375 111.71875 206.683594 110.859375 206.453125 110.183594 C 206.222656 109.492188 205.515625 110.515625 205.355469 110.757812 C 204.816406 111.550781 204.019531 113.121094 202.8125 112.265625 C 202.660156 112.160156 202.527344 112.035156 202.414062 111.898438 C 202.242188 111.699219 202.105469 111.480469 201.992188 111.25 C 201.371094 109.996094 201.488281 108.421875 201.769531 107.105469 C 202.359375 104.332031 203.8125 101.78125 204.882812 99.15625 C 205.398438 97.890625 206.476562 95.75 205.339844 95.074219 C 205.238281 95.015625 205.722656 94.925781 205.652344 94.835938 " fill-opacity="1" fill-rule="evenodd"/><path fill="#000000" d="M 83.648438 51.46875 C 83.511719 51.203125 83.339844 51.761719 83.222656 51.96875 C 82.863281 52.605469 82.515625 53.257812 82.195312 53.917969 C 81.28125 55.796875 80.332031 57.664062 79.527344 59.59375 C 77.269531 64.996094 74.394531 70.578125 75.238281 76.574219 C 75.507812 78.5 76.09375 81.578125 78.519531 82 C 81.640625 82.546875 83.347656 78.664062 84.25 76.46875 C 84.460938 75.953125 84.667969 75.433594 84.820312 74.894531 C 85.074219 74.007812 85.394531 72.847656 85.097656 71.929688 C 84.792969 70.996094 83.875 72.382812 83.667969 72.707031 C 82.96875 73.78125 81.929688 75.90625 80.359375 74.75 C 80.164062 74.605469 79.992188 74.4375 79.839844 74.253906 C 79.621094 73.984375 79.441406 73.6875 79.292969 73.378906 C 78.488281 71.679688 78.636719 69.542969 79.003906 67.761719 C 79.773438 64.007812 81.660156 60.550781 83.054688 56.996094 C 83.722656 55.285156 85.121094 52.382812 83.648438 51.46875 C 83.515625 51.386719 84.144531 51.269531 84.050781 51.148438 " fill-opacity="1" fill-rule="evenodd"/><path fill="#000000" d="M 227.398438 82.824219 C 227.527344 82.859375 228.347656 82.753906 228.449219 82.824219 C 228.425781 82.628906 228.851562 82.839844 229.054688 82.84375 C 229.402344 82.847656 231.121094 83.023438 231.019531 82.394531 C 230.921875 81.800781 230.167969 81.152344 229.796875 80.714844 C 228.550781 79.246094 227.15625 77.878906 225.730469 76.585938 C 225.484375 76.367188 224.128906 74.859375 223.757812 75.078125 C 223.007812 75.523438 223.105469 77.46875 223.007812 78.183594 C 222.9375 78.75 222.859375 79.3125 222.769531 79.875 C 222.722656 80.1875 222.667969 80.5 222.59375 80.808594 C 222.3125 82.089844 222.121094 82.160156 222.851562 83.253906 C 222.984375 83.457031 223.121094 83.660156 223.261719 83.863281 C 223.496094 84.207031 223.722656 84.550781 223.972656 84.882812 C 223.980469 84.878906 224.289062 85.414062 224.304688 85.445312 C 224.511719 85.835938 224.710938 86.230469 224.902344 86.628906 C 225.488281 87.824219 226.105469 88.996094 226.753906 90.160156 C 227.550781 91.59375 228.328125 93.03125 229.222656 94.40625 C 230.335938 96.125 231.757812 98.070312 231.910156 100.179688 C 232.007812 100.078125 231.832031 100.453125 231.804688 100.589844 C 231.730469 100.90625 231.613281 101.203125 231.46875 101.496094 C 231.074219 102.328125 230.585938 103.117188 230.054688 103.871094 C 228.382812 106.242188 226.25 108.164062 223.9375 109.90625 C 217.261719 114.933594 209.027344 120.179688 200.546875 121.3125 C 194.304688 122.152344 187.925781 120.558594 186.410156 113.714844 C 185.757812 110.734375 185.625 107.703125 185.941406 104.679688 C 186.0625 103.496094 186.210938 102.308594 186.421875 101.136719 C 186.441406 101.019531 186.746094 99.96875 186.488281 100 C 186.007812 100.058594 185.554688 100.863281 185.320312 101.207031 C 184.359375 102.644531 183.921875 104.410156 183.730469 106.109375 C 183.066406 111.863281 183.222656 119.046875 186.960938 123.8125 C 191.519531 129.625 198.863281 129.441406 205.234375 127.148438 C 211.238281 124.988281 216.617188 121.414062 221.738281 117.683594 C 227.039062 113.824219 232.605469 109.164062 234.835938 102.769531 C 237.398438 95.398438 230.328125 88.914062 227.398438 82.824219 Z M 227.398438 82.824219 " fill-opacity="1" fill-rule="evenodd"/><path fill="#000000" d="M 274.191406 74.992188 C 274.203125 75.078125 274.304688 75.285156 274.320312 75.34375 C 274.40625 75.675781 274.496094 76.003906 274.574219 76.335938 C 274.820312 77.328125 275.082031 78.300781 275.375 79.277344 C 276.371094 82.617188 279.007812 85.417969 282.734375 85.113281 C 286.964844 84.765625 290.167969 81.390625 292.015625 77.824219 C 292.679688 76.523438 293.183594 75.179688 293.660156 73.800781 C 293.757812 73.527344 294.003906 72.511719 294.351562 72.421875 C 294.546875 72.371094 294.636719 73.023438 294.660156 73.128906 C 294.851562 73.902344 294.925781 74.703125 295.027344 75.492188 C 295.316406 77.652344 295.847656 80.0625 297.925781 81.203125 C 299.449219 82.039062 301.425781 82.230469 303.101562 81.832031 C 303.679688 81.695312 304.625 81.472656 304.828125 80.816406 C 304.964844 80.382812 305.277344 79.621094 305.207031 79.1875 C 305.007812 77.992188 303.707031 76.417969 303.449219 75.238281 C 303.4375 75.230469 305.066406 73.375 305.230469 73.199219 C 305.960938 72.386719 306.699219 71.574219 307.457031 70.792969 C 307.621094 70.625 308.074219 69.984375 308.375 70.046875 C 308.609375 70.09375 308.585938 70.671875 308.597656 70.832031 C 308.652344 71.808594 308.597656 72.796875 308.609375 73.777344 C 308.667969 77.453125 308.574219 81.558594 306.65625 84.824219 C 306.1875 85.617188 305.589844 86.320312 304.925781 86.953125 C 300.300781 91.359375 295.195312 86.808594 292.21875 82.929688 C 292.199219 82.90625 292.027344 83.300781 292.015625 83.328125 C 291.898438 83.566406 291.792969 83.800781 291.671875 84.035156 C 291.320312 84.761719 290.917969 85.464844 290.492188 86.15625 C 289.125 88.398438 287.542969 90.257812 284.933594 91.046875 C 281.152344 92.195312 276.472656 91.371094 274.136719 87.949219 C 273.082031 86.40625 272.855469 84.703125 272.277344 82.988281 C 272.027344 82.910156 270.917969 83.882812 270.703125 84.015625 C 269.097656 85 267.535156 86.007812 265.867188 86.894531 C 265.664062 86.726562 265.945312 87.410156 265.988281 87.667969 C 266.066406 88.207031 266.136719 88.746094 266.203125 89.289062 C 266.382812 90.835938 266.570312 92.386719 266.457031 93.949219 C 266.484375 93.960938 266.179688 94.605469 266.175781 94.625 C 265.726562 95.492188 265.238281 96.34375 264.738281 97.179688 C 262.464844 100.890625 259.714844 104.308594 256.617188 107.371094 C 254.761719 109.210938 252.820312 110.976562 250.710938 112.535156 C 249.285156 113.59375 247.765625 114.554688 246.195312 115.398438 C 238.597656 119.484375 224.34375 122.675781 219.882812 112.484375 C 217.414062 106.84375 217.917969 99.964844 219.359375 94.117188 C 219.714844 92.667969 220.085938 91.1875 220.71875 89.828125 C 220.816406 89.632812 221.09375 88.75 221.386719 88.726562 C 221.691406 88.703125 221.347656 90.453125 221.335938 90.539062 C 220.917969 92.714844 220.425781 94.894531 220.230469 97.105469 C 219.738281 102.570312 221.320312 108.980469 226.875 111.28125 C 237.589844 115.726562 249.613281 107.421875 257.140625 100.488281 C 258.957031 98.816406 260.625 97.0625 262.238281 95.199219 C 262.957031 94.375 264.089844 93.101562 264.25 91.949219 C 264.402344 90.917969 263.953125 89.925781 263.652344 88.96875 C 263.324219 88.960938 262.84375 89.316406 262.539062 89.4375 C 261.691406 89.785156 260.835938 90.125 259.972656 90.457031 C 257.121094 91.554688 253.625 92.417969 250.644531 91.328125 C 249.871094 91.046875 249.152344 90.671875 248.535156 90.128906 C 243.886719 86.078125 247.765625 79.785156 250.910156 76.195312 C 252.558594 74.316406 254.671875 72.269531 257.398438 72.941406 C 259.207031 73.390625 260.585938 74.917969 261.652344 76.359375 C 262.855469 78.003906 263.609375 79.710938 264.328125 81.589844 C 264.3125 81.605469 264.3125 81.613281 264.335938 81.617188 L 264.328125 81.589844 C 264.382812 81.535156 264.683594 81.40625 264.707031 81.394531 C 264.96875 81.273438 265.226562 81.144531 265.480469 81.011719 C 266.222656 80.628906 266.941406 80.207031 267.667969 79.789062 C 270.027344 78.421875 272.273438 76.945312 274.191406 74.992188 C 274.183594 74.957031 274.191406 74.941406 274.21875 74.960938 Z M 259.046875 83.515625 C 259.019531 83.492188 257.800781 83.929688 257.769531 83.9375 C 257.296875 84.105469 256.785156 84.207031 256.289062 84.277344 C 254.855469 84.472656 252.710938 84.738281 251.65625 83.496094 C 250.429688 82.050781 252 80.058594 253.546875 79.808594 C 255.457031 79.503906 258.164062 81.617188 259.046875 83.515625 Z M 259.046875 83.515625 " fill-opacity="1" fill-rule="evenodd"/><path fill="#000000" d="M 271.742188 74.773438 C 271.84375 74.738281 272.140625 74.359375 272.195312 74.308594 C 272.648438 73.902344 273.136719 73.527344 273.640625 73.175781 C 275.550781 71.835938 277.6875 70.804688 279.582031 69.4375 C 285.65625 65.050781 291.722656 60.515625 297.230469 55.527344 C 298.578125 54.308594 299.882812 53.050781 301.21875 51.820312 C 301.8125 51.273438 302.84375 50.589844 303.199219 49.855469 C 303.347656 49.546875 302.359375 49.070312 302.175781 48.9375 C 301.117188 48.164062 300.121094 47.292969 299.382812 46.242188 C 298.167969 44.507812 298.796875 42.910156 299.847656 41.238281 C 300.863281 39.621094 302.140625 38.132812 304.035156 37.355469 C 305.648438 36.6875 307.304688 37.683594 307.933594 39.082031 C 308.78125 40.949219 308.300781 43.214844 307.667969 45.070312 C 307.480469 45.621094 307.261719 46.171875 306.945312 46.671875 C 306.84375 46.832031 306.414062 47.203125 306.394531 47.386719 C 306.386719 47.507812 306.910156 47.828125 307.003906 47.898438 C 307.539062 48.3125 308.253906 48.726562 308.503906 49.359375 C 308.867188 50.269531 308.359375 51.492188 307.867188 52.285156 C 307.753906 52.46875 307.425781 53.09375 307.121094 53.058594 C 306.78125 53.015625 306.46875 52.683594 306.226562 52.492188 C 305.625 52.027344 305.046875 51.53125 304.464844 51.046875 C 303.667969 51.828125 303.042969 52.859375 302.304688 53.695312 C 300.296875 55.960938 298.203125 58.234375 295.929688 60.28125 C 292.191406 63.644531 287.53125 66.207031 283.257812 68.945312 C 280.085938 70.976562 275.566406 73.863281 271.742188 74.773438 C 271.738281 74.777344 271.734375 74.777344 271.730469 74.777344 Z M 305.40625 46.417969 C 305.523438 45.855469 305.738281 45.316406 305.816406 44.734375 C 305.976562 43.585938 305.664062 42.351562 304.851562 41.449219 C 304.425781 40.976562 303.839844 40.578125 303.164062 40.488281 C 302.242188 40.367188 301.234375 41.125 301.203125 41.992188 C 301.1875 42.519531 301.585938 42.996094 301.945312 43.371094 C 302.761719 44.226562 304.445312 45.699219 305.40625 46.417969 Z M 305.40625 46.417969 " fill-opacity="1" fill-rule="evenodd"/><path fill="#000000" d="M 157.664062 49.402344 C 157.722656 49.378906 157.894531 49.144531 157.925781 49.117188 C 158.191406 48.863281 158.476562 48.636719 158.769531 48.417969 C 159.882812 47.597656 161.125 46.960938 162.226562 46.125 C 165.765625 43.425781 169.296875 40.644531 172.503906 37.578125 C 173.289062 36.828125 174.046875 36.058594 174.824219 35.300781 C 175.171875 34.964844 175.773438 34.542969 175.976562 34.09375 C 176.066406 33.90625 175.488281 33.613281 175.382812 33.53125 C 174.765625 33.054688 174.1875 32.519531 173.757812 31.875 C 173.046875 30.808594 173.414062 29.828125 174.027344 28.800781 C 174.617188 27.808594 175.363281 26.894531 176.464844 26.414062 C 177.40625 26.007812 178.367188 26.617188 178.734375 27.476562 C 179.226562 28.621094 178.949219 30.015625 178.578125 31.15625 C 178.46875 31.492188 178.34375 31.832031 178.160156 32.136719 C 178.101562 32.238281 177.851562 32.464844 177.839844 32.578125 C 177.832031 32.652344 178.140625 32.851562 178.195312 32.894531 C 178.503906 33.148438 178.921875 33.398438 179.066406 33.789062 C 179.277344 34.347656 178.984375 35.101562 178.699219 35.585938 C 178.632812 35.699219 178.441406 36.085938 178.261719 36.0625 C 178.066406 36.035156 177.882812 35.832031 177.738281 35.714844 C 177.390625 35.429688 177.054688 35.125 176.714844 34.824219 C 176.25 35.304688 175.886719 35.941406 175.457031 36.453125 C 174.289062 37.84375 173.070312 39.242188 171.746094 40.496094 C 169.570312 42.566406 166.855469 44.136719 164.367188 45.820312 C 162.519531 47.070312 159.890625 48.839844 157.664062 49.402344 C 157.660156 49.402344 157.65625 49.402344 157.65625 49.402344 Z M 177.261719 31.984375 C 177.332031 31.636719 177.457031 31.304688 177.503906 30.949219 C 177.59375 30.242188 177.414062 29.484375 176.941406 28.929688 C 176.691406 28.640625 176.351562 28.394531 175.960938 28.339844 C 175.421875 28.265625 174.835938 28.730469 174.816406 29.261719 C 174.808594 29.585938 175.039062 29.878906 175.25 30.113281 C 175.722656 30.636719 176.703125 31.539062 177.261719 31.984375 Z M 177.261719 31.984375 " fill-opacity="1" fill-rule="evenodd"/><path fill="#000000" d="M 264.429688 46.875 C 264.507812 47 265.234375 46.777344 265.402344 46.742188 C 265.785156 46.65625 266.175781 46.589844 266.566406 46.523438 C 267.777344 46.324219 268.988281 46.175781 270.21875 46.109375 C 274 45.910156 278.421875 45.984375 281.960938 47.242188 C 282.082031 47.089844 281.617188 47.472656 281.445312 47.585938 C 281.054688 47.847656 280.640625 48.085938 280.226562 48.324219 C 279.070312 48.980469 277.917969 49.636719 276.703125 50.222656 C 273.289062 51.867188 269.71875 53.304688 266.378906 55.054688 C 265.585938 55.46875 264.75 55.855469 263.992188 56.316406 C 263.90625 56.367188 263.292969 56.71875 263.402344 56.847656 C 263.667969 57.164062 265.070312 56.878906 265.398438 56.84375 C 267.503906 56.589844 269.574219 56.15625 271.644531 55.757812 C 273.773438 55.347656 276.539062 55.320312 278.492188 54.460938 C 279.480469 54.03125 280.289062 53.003906 280.992188 52.324219 C 282.71875 50.652344 284.371094 48.929688 286.042969 47.222656 C 287.863281 45.367188 290.746094 42.730469 290.792969 40.195312 C 290.835938 37.597656 285.550781 37.753906 283.445312 37.601562 C 282.730469 37.550781 282.019531 37.472656 281.304688 37.414062 C 278.769531 37.203125 276.179688 37.089844 273.632812 37.167969 C 272.726562 37.195312 271.488281 37.070312 270.644531 37.398438 C 269.457031 37.855469 268.824219 38.960938 268.171875 39.824219 C 266.644531 41.847656 265.445312 44.644531 264.429688 46.875 Z M 264.429688 46.875 " fill-opacity="1" fill-rule="evenodd"/><path fill="#000000" d="M 130.234375 38.378906 C 130.273438 38.441406 130.636719 38.332031 130.71875 38.316406 C 130.914062 38.277344 131.109375 38.242188 131.304688 38.210938 C 131.90625 38.117188 132.511719 38.042969 133.128906 38.011719 C 135.019531 37.917969 137.230469 37.953125 139 38.558594 C 139.058594 38.484375 138.828125 38.664062 138.742188 38.722656 C 138.546875 38.847656 138.339844 38.960938 138.132812 39.074219 C 137.554688 39.390625 136.976562 39.707031 136.371094 39.988281 C 134.664062 40.777344 132.878906 41.46875 131.210938 42.308594 C 130.8125 42.507812 130.394531 42.691406 130.015625 42.914062 C 129.972656 42.9375 129.667969 43.109375 129.71875 43.167969 C 129.855469 43.320312 130.554688 43.183594 130.71875 43.164062 C 131.773438 43.042969 132.804688 42.835938 133.84375 42.644531 C 134.90625 42.449219 136.289062 42.433594 137.265625 42.023438 C 137.757812 41.816406 138.164062 41.324219 138.515625 40.996094 C 139.378906 40.195312 140.203125 39.367188 141.039062 38.546875 C 141.949219 37.65625 143.394531 36.390625 143.414062 35.171875 C 143.4375 33.925781 140.792969 34 139.742188 33.925781 C 139.382812 33.902344 139.027344 33.867188 138.671875 33.835938 C 137.40625 33.734375 136.109375 33.679688 134.835938 33.71875 C 134.382812 33.730469 133.761719 33.671875 133.339844 33.828125 C 132.746094 34.050781 132.429688 34.578125 132.105469 34.992188 C 131.339844 35.964844 130.742188 37.308594 130.234375 38.378906 Z M 130.234375 38.378906 " fill-opacity="1" fill-rule="evenodd"/><path fill="#000000" d="M 207.394531 64.699219 C 207.394531 64.59375 208.515625 63.132812 208.539062 63.09375 C 208.769531 62.789062 209.007812 62.492188 209.253906 62.199219 C 210.03125 61.25 210.800781 60.289062 211.554688 59.320312 C 213.441406 56.894531 215.464844 54.578125 217.441406 52.226562 C 217.898438 51.683594 218.367188 51.140625 218.882812 50.65625 C 218.941406 50.601562 219.34375 50.167969 219.457031 50.289062 C 219.628906 50.480469 219.410156 51.144531 219.359375 51.347656 C 219.140625 52.367188 218.785156 53.375 218.371094 54.332031 C 216.605469 58.398438 213.253906 61.734375 210.609375 65.238281 C 209.984375 65.285156 210.210938 66.105469 210.445312 66.367188 C 211.367188 67.40625 212.355469 68.339844 213.207031 69.453125 C 215.363281 72.304688 216.609375 74.988281 216.710938 78.625 C 216.753906 80.046875 216.6875 81.464844 216.347656 82.851562 C 215.347656 86.917969 212.027344 89.570312 208.589844 91.636719 C 206.617188 92.816406 204.089844 94.136719 201.714844 93.929688 C 198.621094 93.65625 197.367188 90.933594 196.953125 88.1875 C 196.121094 82.640625 198.265625 77.519531 201.152344 72.871094 C 201.882812 71.695312 202.664062 70.546875 203.464844 69.414062 C 203.785156 68.964844 204.40625 68.414062 204.5625 67.875 C 204.617188 67.675781 204.222656 67.628906 204.089844 67.46875 C 203.578125 66.855469 203.082031 66.234375 202.566406 65.625 C 200.824219 63.5625 199.058594 61.527344 197.285156 59.488281 C 196.839844 58.980469 195.839844 59.023438 195.5625 58.40625 C 194.792969 56.703125 195.628906 54.140625 195.921875 52.398438 C 195.996094 51.960938 196.03125 50.484375 196.757812 50.527344 C 197.355469 50.558594 198.1875 51.292969 198.683594 51.589844 C 200.421875 52.621094 202.089844 53.824219 203.71875 55.023438 C 204.144531 55.339844 205.40625 56.175781 205.367188 56.824219 C 205.347656 57.121094 204.832031 57.171875 204.617188 57.195312 C 204.089844 57.253906 202.753906 57.089844 202.351562 57.476562 C 201.988281 57.835938 202.566406 58.753906 202.742188 59.070312 C 203.503906 60.503906 206.1875 63.613281 207.394531 64.699219 C 207.402344 64.703125 207.402344 64.703125 207.402344 64.703125 Z M 206.988281 71.484375 C 206.671875 71.5625 206.359375 72.015625 206.148438 72.21875 C 205.574219 72.792969 205.019531 73.375 204.480469 73.980469 C 203.96875 74.554688 203.484375 75.148438 203.035156 75.761719 C 202.621094 76.320312 202.242188 76.898438 201.882812 77.488281 C 200.496094 79.785156 198.542969 84.933594 202.242188 86.324219 C 205.800781 87.664062 209.503906 84.453125 211.90625 82.28125 C 212.722656 81.546875 214.285156 80.34375 214.230469 79.113281 C 214.195312 78.226562 213.476562 77.363281 212.949219 76.691406 C 211.535156 74.878906 208.910156 72.765625 206.988281 71.484375 Z M 206.988281 71.484375 " fill-opacity="1" fill-rule="evenodd"/></svg>