<svg xmlns="http://www.w3.org/2000/svg" xmlns:xlink="http://www.w3.org/1999/xlink" width="500" zoomAndPan="magnify" viewBox="0 0 375 149.999998" height="200" preserveAspectRatio="xMidYMid meet" version="1.0"><defs><clipPath id="6f8ec64556"><path d="M 182 18.28125 L 195 18.28125 L 195 99 L 182 99 Z M 182 18.28125 " clip-rule="nonzero"/></clipPath></defs><path fill="#000000" d="M 305.53125 20.25 C 305.335938 20.164062 305.964844 20.226562 306.183594 20.246094 C 306.664062 20.285156 307.140625 20.34375 307.613281 20.414062 C 309.015625 20.621094 310.378906 20.972656 311.726562 21.390625 C 315.65625 22.601562 319.480469 24.4375 322.9375 26.605469 C 330.96875 31.65625 336.898438 39.464844 340.648438 47.914062 C 342.0625 51.105469 343.570312 54.539062 343.570312 58.070312 C 343.59375 58.082031 343.402344 58.320312 343.394531 58.328125 C 343.160156 58.613281 342.898438 58.882812 342.628906 59.132812 C 341.503906 60.183594 340.230469 61.027344 338.789062 61.621094 C 338.671875 61.667969 338.457031 61.589844 338.351562 61.558594 C 337.9375 61.441406 337.539062 61.28125 337.140625 61.117188 C 335.4375 60.40625 333.878906 59.386719 332.414062 58.292969 C 332.003906 57.988281 332.117188 57.257812 331.972656 56.773438 C 331.601562 55.535156 331.226562 54.300781 330.835938 53.070312 C 330.015625 50.464844 328.882812 47.941406 327.601562 45.519531 C 327.429688 45.492188 327.484375 45.203125 327.410156 45.050781 C 327.179688 44.59375 326.933594 44.144531 326.691406 43.699219 C 325.625 41.753906 324.457031 39.859375 323.21875 38.011719 C 319.207031 32.03125 311.554688 24.480469 305.53125 20.25 Z M 305.53125 20.25 " fill-opacity="1" fill-rule="evenodd"/><path fill="#000000" d="M 305.53125 112.632812 C 305.335938 112.71875 305.964844 112.65625 306.183594 112.636719 C 306.664062 112.597656 307.140625 112.539062 307.613281 112.46875 C 309.015625 112.261719 310.378906 111.910156 311.726562 111.496094 C 315.65625 110.28125 319.480469 108.449219 322.9375 106.277344 C 330.96875 101.226562 336.898438 93.417969 340.648438 84.96875 C 342.0625 81.777344 343.570312 78.34375 343.570312 74.8125 C 343.59375 74.800781 343.402344 74.566406 343.394531 74.558594 C 343.160156 74.269531 342.898438 74.003906 342.628906 73.75 C 341.503906 72.699219 340.230469 71.859375 338.789062 71.265625 C 338.671875 71.214844 338.457031 71.292969 338.351562 71.324219 C 337.9375 71.441406 337.539062 71.601562 337.140625 71.769531 C 335.4375 72.480469 333.878906 73.5 332.414062 74.589844 C 332.003906 74.894531 332.117188 75.625 331.972656 76.109375 C 331.601562 77.347656 331.226562 78.582031 330.835938 79.816406 C 330.015625 82.417969 328.882812 84.945312 327.601562 87.363281 C 327.429688 87.390625 327.484375 87.679688 327.410156 87.832031 C 327.179688 88.289062 326.933594 88.738281 326.691406 89.183594 C 325.625 91.132812 324.457031 93.023438 323.21875 94.871094 C 319.207031 100.851562 311.554688 108.402344 305.53125 112.632812 Z M 305.53125 112.632812 " fill-opacity="1" fill-rule="evenodd"/><path fill="#000000" d="M 351.835938 60.757812 C 351.773438 60.722656 351.707031 60.691406 351.65625 60.667969 C 351.355469 60.53125 351.078125 60.417969 350.992188 60.363281 C 350.117188 59.816406 349.402344 59.023438 348.855469 58.171875 C 348.023438 56.875 347.539062 55.425781 347.050781 53.980469 C 346.597656 52.628906 346.136719 51.28125 345.324219 50.085938 C 344.726562 49.210938 343.847656 48.503906 342.945312 47.929688 C 342.777344 47.820312 342.484375 47.726562 342.226562 47.617188 C 341.949219 47.496094 341.707031 47.351562 341.570312 47.203125 C 341.378906 47.003906 341.382812 46.820312 341.398438 46.703125 C 341.421875 46.519531 341.515625 46.359375 341.714844 46.25 C 341.773438 46.21875 341.847656 46.1875 341.945312 46.171875 C 342.019531 46.164062 342.296875 46.1875 342.335938 46.191406 C 342.535156 46.1875 342.738281 46.199219 342.933594 46.203125 C 343.5625 46.21875 344.191406 46.238281 344.808594 46.324219 C 346.6875 46.585938 348.523438 47.203125 350.171875 48.121094 C 352.1875 49.242188 354 50.90625 355.039062 52.929688 C 355.324219 53.476562 355.5 54.125 355.699219 54.757812 C 355.867188 55.285156 356.050781 55.804688 356.378906 56.203125 C 356.5625 56.425781 356.820312 56.507812 357.082031 56.578125 C 357.34375 56.652344 357.617188 56.703125 357.878906 56.78125 C 358.652344 57.011719 359.386719 57.371094 360.023438 57.855469 C 361.222656 58.765625 362.023438 60.0625 362.742188 61.335938 C 362.988281 61.769531 363.207031 62.210938 363.421875 62.65625 C 363.496094 62.804688 363.570312 62.957031 363.632812 63.109375 C 363.675781 63.222656 363.746094 63.523438 363.75 63.570312 C 363.773438 64 363.4375 64.132812 363.335938 64.167969 C 363.332031 64.167969 363.3125 64.175781 363.285156 64.179688 C 361.804688 64.945312 360.09375 65.390625 358.511719 65.894531 C 358.332031 65.949219 358.148438 66.003906 357.972656 66.066406 L 357.984375 66.070312 C 359.191406 66.539062 360.449219 66.894531 361.703125 67.222656 C 361.808594 67.25 362.5625 67.367188 362.882812 67.484375 C 363.214844 67.605469 363.355469 67.828125 363.394531 67.945312 C 363.429688 68.058594 363.445312 68.230469 363.398438 68.433594 C 363.320312 68.742188 363.046875 69.257812 362.984375 69.402344 C 362.460938 70.652344 361.738281 71.792969 360.859375 72.835938 C 360.066406 73.773438 359.09375 74.5 358.117188 75.222656 C 357.21875 75.882812 356.324219 76.542969 355.609375 77.40625 C 354.726562 78.46875 354.234375 79.761719 353.550781 80.9375 C 352.605469 82.574219 351.332031 84.019531 349.613281 84.9375 C 348.25 85.664062 346.757812 85.988281 345.21875 86.128906 C 344.664062 86.179688 344.109375 86.222656 343.554688 86.261719 C 343.476562 86.269531 343.082031 86.257812 343.007812 86.253906 C 342.738281 86.292969 342.46875 86.15625 342.351562 85.910156 C 342.226562 85.632812 342.328125 85.308594 342.597656 85.152344 C 342.625 85.132812 342.675781 85.109375 342.746094 85.089844 C 343.492188 84.863281 344.175781 84.410156 344.792969 83.949219 C 346.472656 82.691406 348.007812 80.832031 348.382812 78.765625 C 348.515625 78.035156 348.449219 77.265625 348.4375 76.503906 C 348.425781 75.617188 348.484375 74.742188 348.871094 73.925781 C 349.523438 72.539062 351.183594 71.714844 352.535156 71.101562 C 352.796875 70.984375 353.054688 70.871094 353.320312 70.769531 C 351.542969 69.640625 349.582031 68.742188 347.664062 67.902344 C 346.886719 67.5625 346.109375 67.234375 345.335938 66.894531 C 345.066406 66.777344 344.796875 66.65625 344.527344 66.542969 C 343.34375 67.71875 342.035156 68.800781 340.804688 69.925781 C 340.4375 70.265625 340.070312 70.605469 339.707031 70.949219 C 339.644531 71.011719 339.523438 71.167969 339.414062 71.269531 C 339.273438 71.394531 339.125 71.46875 339.015625 71.496094 C 338.851562 71.535156 338.679688 71.507812 338.539062 71.425781 C 336.636719 70.308594 334.691406 69.242188 332.746094 68.1875 C 332.085938 67.832031 331.425781 67.472656 330.761719 67.117188 C 330.554688 67.007812 330.347656 66.898438 330.140625 66.792969 L 329.980469 66.71875 C 329.914062 66.699219 329.847656 66.667969 329.785156 66.625 C 329.597656 66.492188 329.5 66.265625 329.535156 66.039062 C 329.570312 65.851562 329.675781 65.699219 329.871094 65.605469 L 329.875 65.605469 C 330.523438 65.265625 331.113281 64.796875 331.730469 64.40625 C 332.851562 63.699219 333.984375 63.003906 335.125 62.324219 C 335.597656 62.042969 336.074219 61.765625 336.546875 61.484375 L 337.652344 60.816406 C 337.707031 60.75 337.785156 60.695312 337.867188 60.660156 C 338.054688 60.582031 338.265625 60.59375 338.441406 60.695312 C 340.15625 61.691406 341.796875 62.695312 343.484375 63.746094 C 343.925781 64.023438 344.371094 64.289062 344.820312 64.558594 L 344.882812 64.589844 C 344.90625 64.601562 344.929688 64.617188 344.953125 64.628906 L 345.035156 64.671875 C 346.75 63.671875 348.921875 62.71875 350.488281 61.59375 C 350.730469 61.421875 351.136719 61.210938 351.515625 60.96875 C 351.625 60.898438 351.738281 60.832031 351.835938 60.757812 Z M 344.429688 47.484375 C 344.496094 47.488281 344.5625 47.5 344.632812 47.507812 C 346.359375 47.746094 348.039062 48.316406 349.550781 49.15625 C 351.359375 50.164062 352.996094 51.648438 353.929688 53.460938 C 354.183594 53.953125 354.335938 54.539062 354.515625 55.109375 C 354.730469 55.785156 354.988281 56.441406 355.410156 56.953125 C 355.714844 57.320312 356.101562 57.527344 356.527344 57.667969 C 356.84375 57.769531 357.1875 57.828125 357.515625 57.925781 C 358.144531 58.113281 358.742188 58.402344 359.257812 58.796875 C 360.324219 59.609375 361.011719 60.777344 361.65625 61.910156 C 361.890625 62.320312 362.09375 62.738281 362.300781 63.160156 C 362.320312 63.203125 362.339844 63.25 362.363281 63.292969 C 361.023438 63.925781 359.519531 64.3125 358.121094 64.757812 C 357.636719 64.910156 357.144531 65.058594 356.6875 65.285156 C 356.59375 65.332031 356.382812 65.4375 356.265625 65.554688 C 356.09375 65.722656 356.027344 65.925781 356.046875 66.128906 C 356.0625 66.300781 356.15625 66.511719 356.386719 66.683594 C 356.671875 66.898438 357.359375 67.117188 357.519531 67.179688 C 358.773438 67.664062 360.078125 68.039062 361.378906 68.378906 C 361.433594 68.394531 361.753906 68.460938 362.03125 68.519531 C 361.949219 68.699219 361.863281 68.894531 361.835938 68.953125 C 361.359375 70.089844 360.695312 71.128906 359.898438 72.078125 C 359.167969 72.945312 358.261719 73.605469 357.363281 74.269531 C 356.386719 74.992188 355.417969 75.71875 354.640625 76.660156 C 353.714844 77.773438 353.1875 79.117188 352.46875 80.355469 C 351.636719 81.792969 350.53125 83.082031 349.015625 83.890625 C 347.941406 84.464844 346.765625 84.746094 345.5625 84.886719 C 347.46875 83.457031 349.175781 81.320312 349.605469 78.976562 C 349.75 78.167969 349.691406 77.324219 349.679688 76.488281 C 349.667969 75.777344 349.691406 75.074219 349.996094 74.421875 C 350.53125 73.285156 351.953125 72.6875 353.0625 72.1875 C 353.460938 72.007812 353.859375 71.835938 354.28125 71.703125 C 354.304688 71.695312 354.796875 71.570312 354.894531 71.535156 C 355.328125 71.378906 355.316406 70.992188 355.308594 70.933594 C 355.300781 70.757812 355.210938 70.59375 355.0625 70.488281 C 352.972656 68.976562 350.542969 67.851562 348.171875 66.8125 C 347.402344 66.476562 346.625 66.148438 345.851562 65.804688 L 345.640625 65.714844 C 347.390625 64.6875 349.621094 63.707031 351.226562 62.554688 C 351.507812 62.355469 352.019531 62.101562 352.433594 61.8125 C 352.816406 61.542969 353.117188 61.230469 353.246094 60.917969 C 353.34375 60.675781 353.320312 60.367188 353.027344 60.085938 C 352.886719 59.949219 352.628906 59.796875 352.351562 59.664062 C 352.0625 59.523438 351.75 59.410156 351.667969 59.359375 C 350.945312 58.90625 350.359375 58.242188 349.910156 57.539062 C 349.128906 56.324219 348.6875 54.964844 348.230469 53.609375 C 347.742188 52.15625 347.234375 50.710938 346.359375 49.425781 C 345.847656 48.679688 345.167969 48.035156 344.429688 47.484375 Z M 338.160156 61.929688 C 339.738281 62.851562 341.253906 63.78125 342.8125 64.75 C 343.175781 64.980469 343.546875 65.203125 343.917969 65.425781 C 342.675781 66.703125 341.269531 67.851562 339.953125 69.058594 C 339.578125 69.402344 339.203125 69.75 338.835938 70.101562 C 338.824219 70.113281 338.800781 70.136719 338.777344 70.164062 C 336.988281 69.125 335.167969 68.128906 333.351562 67.144531 C 332.699219 66.792969 332.046875 66.4375 331.394531 66.089844 C 331.734375 65.859375 332.070312 65.625 332.410156 65.410156 C 333.523438 64.707031 334.648438 64.019531 335.777344 63.34375 C 336.25 63.058594 336.730469 62.785156 337.203125 62.496094 C 337.253906 62.464844 337.785156 62.167969 338.160156 61.929688 Z M 330.523438 66.625 L 330.441406 66.667969 C 330.417969 66.679688 330.394531 66.691406 330.371094 66.699219 C 330.429688 66.679688 330.480469 66.65625 330.523438 66.625 Z M 344.980469 65.996094 C 344.96875 66.042969 344.941406 66.085938 344.917969 66.132812 C 344.941406 66.085938 344.964844 66.042969 344.980469 65.996094 Z M 363.6875 63.34375 C 363.695312 63.351562 363.695312 63.359375 363.699219 63.367188 Z M 363.679688 63.324219 L 363.679688 63.328125 Z M 363.679688 63.324219 " fill-opacity="1" fill-rule="evenodd"/><path fill="#000000" d="M 374.980469 66.683594 L 363.398438 68.433594 L 357.078125 66.21875 L 363.125 63.800781 Z M 374.980469 66.683594 " fill-opacity="1" fill-rule="evenodd"/><path fill="#000000" d="M 69.488281 22.242188 C 69.6875 22.15625 69.054688 22.21875 68.839844 22.238281 C 68.359375 22.273438 67.882812 22.335938 67.40625 22.40625 C 66.007812 22.613281 64.640625 22.964844 63.292969 23.378906 C 59.363281 24.59375 55.539062 26.425781 52.085938 28.597656 C 44.054688 33.644531 38.121094 41.457031 34.371094 49.90625 C 32.957031 53.097656 31.449219 56.53125 31.449219 60.0625 C 31.425781 60.074219 31.621094 60.308594 31.628906 60.316406 C 31.859375 60.605469 32.121094 60.871094 32.390625 61.125 C 33.519531 62.175781 34.792969 63.015625 36.230469 63.609375 C 36.351562 63.660156 36.5625 63.582031 36.671875 63.550781 C 37.085938 63.433594 37.484375 63.273438 37.878906 63.105469 C 39.582031 62.394531 41.140625 61.375 42.605469 60.285156 C 43.015625 59.980469 42.902344 59.25 43.046875 58.765625 C 43.417969 57.527344 43.796875 56.292969 44.183594 55.058594 C 45.003906 52.457031 46.136719 49.929688 47.417969 47.511719 C 47.589844 47.484375 47.535156 47.195312 47.609375 47.042969 C 47.839844 46.585938 48.085938 46.136719 48.328125 45.691406 C 49.398438 43.742188 50.566406 41.851562 51.804688 40.003906 C 55.8125 34.023438 63.46875 26.472656 69.488281 22.242188 Z M 69.488281 22.242188 " fill-opacity="1" fill-rule="evenodd"/><path fill="#000000" d="M 69.488281 114.625 C 69.6875 114.710938 69.054688 114.644531 68.839844 114.628906 C 68.359375 114.589844 67.882812 114.53125 67.40625 114.460938 C 66.007812 114.253906 64.640625 113.902344 63.292969 113.484375 C 59.363281 112.273438 55.539062 110.4375 52.085938 108.269531 C 44.054688 103.21875 38.121094 95.410156 34.371094 86.960938 C 32.957031 83.769531 31.449219 80.335938 31.449219 76.804688 C 31.425781 76.792969 31.621094 76.554688 31.628906 76.546875 C 31.859375 76.261719 32.121094 75.992188 32.390625 75.742188 C 33.519531 74.691406 34.792969 73.847656 36.230469 73.253906 C 36.351562 73.207031 36.5625 73.285156 36.671875 73.316406 C 37.085938 73.433594 37.484375 73.59375 37.878906 73.757812 C 39.582031 74.46875 41.140625 75.488281 42.605469 76.582031 C 43.015625 76.882812 42.902344 77.617188 43.046875 78.101562 C 43.417969 79.339844 43.796875 80.574219 44.183594 81.804688 C 45.003906 84.410156 46.136719 86.933594 47.417969 89.355469 C 47.589844 89.382812 47.535156 89.671875 47.609375 89.824219 C 47.839844 90.28125 48.085938 90.730469 48.328125 91.175781 C 49.398438 93.121094 50.566406 95.015625 51.804688 96.863281 C 55.8125 102.84375 63.46875 110.394531 69.488281 114.625 Z M 69.488281 114.625 " fill-opacity="1" fill-rule="evenodd"/><path fill="#000000" d="M 23.183594 62.75 C 23.246094 62.714844 23.3125 62.683594 23.367188 62.65625 C 23.664062 62.523438 23.941406 62.40625 24.027344 62.355469 C 24.902344 61.804688 25.617188 61.011719 26.164062 60.160156 C 26.996094 58.863281 27.480469 57.417969 27.96875 55.972656 C 28.425781 54.621094 28.882812 53.273438 29.699219 52.078125 C 30.292969 51.199219 31.175781 50.496094 32.074219 49.917969 C 32.242188 49.8125 32.539062 49.71875 32.792969 49.609375 C 33.070312 49.488281 33.3125 49.34375 33.449219 49.195312 C 33.640625 48.996094 33.636719 48.808594 33.621094 48.691406 C 33.597656 48.511719 33.503906 48.347656 33.304688 48.238281 C 33.246094 48.210938 33.171875 48.179688 33.074219 48.164062 C 33 48.15625 32.726562 48.179688 32.683594 48.183594 C 32.484375 48.179688 32.285156 48.1875 32.085938 48.195312 C 31.460938 48.210938 30.832031 48.226562 30.210938 48.316406 C 28.332031 48.574219 26.5 49.195312 24.851562 50.113281 C 22.835938 51.234375 21.023438 52.894531 19.980469 54.921875 C 19.699219 55.46875 19.519531 56.117188 19.320312 56.75 C 19.152344 57.277344 18.972656 57.796875 18.640625 58.195312 C 18.460938 58.417969 18.203125 58.5 17.9375 58.570312 C 17.675781 58.640625 17.40625 58.695312 17.140625 58.773438 C 16.367188 59 15.632812 59.363281 15 59.847656 C 13.796875 60.757812 13 62.054688 12.277344 63.328125 C 12.03125 63.757812 11.816406 64.199219 11.597656 64.644531 C 11.523438 64.796875 11.453125 64.945312 11.390625 65.101562 C 11.34375 65.210938 11.273438 65.515625 11.269531 65.558594 C 11.25 65.992188 11.585938 66.125 11.683594 66.15625 C 11.691406 66.160156 11.710938 66.167969 11.734375 66.171875 C 13.214844 66.9375 14.929688 67.382812 16.511719 67.886719 C 16.691406 67.941406 16.871094 67.996094 17.046875 68.054688 L 17.035156 68.058594 C 15.832031 68.527344 14.570312 68.886719 13.316406 69.214844 C 13.210938 69.242188 12.457031 69.359375 12.136719 69.476562 C 11.804688 69.597656 11.667969 69.820312 11.628906 69.9375 C 11.589844 70.050781 11.574219 70.222656 11.621094 70.425781 C 11.699219 70.734375 11.976562 71.25 12.035156 71.394531 C 12.558594 72.640625 13.285156 73.78125 14.160156 74.828125 C 14.953125 75.765625 15.929688 76.492188 16.902344 77.210938 C 17.800781 77.875 18.699219 78.535156 19.414062 79.398438 C 20.292969 80.460938 20.785156 81.75 21.46875 82.929688 C 22.414062 84.5625 23.6875 86.011719 25.40625 86.925781 C 26.769531 87.65625 28.265625 87.980469 29.804688 88.117188 C 30.355469 88.167969 30.914062 88.210938 31.46875 88.253906 C 31.542969 88.257812 31.9375 88.25 32.011719 88.246094 C 32.285156 88.285156 32.550781 88.148438 32.667969 87.898438 C 32.796875 87.625 32.691406 87.300781 32.425781 87.144531 C 32.394531 87.125 32.34375 87.097656 32.273438 87.078125 C 31.527344 86.851562 30.84375 86.398438 30.230469 85.941406 C 28.550781 84.683594 27.011719 82.820312 26.640625 80.757812 C 26.507812 80.023438 26.570312 79.257812 26.582031 78.496094 C 26.59375 77.609375 26.535156 76.734375 26.152344 75.917969 C 25.5 74.527344 23.835938 73.707031 22.484375 73.09375 C 22.226562 72.976562 21.964844 72.863281 21.699219 72.761719 C 23.476562 71.632812 25.4375 70.734375 27.355469 69.894531 C 28.132812 69.554688 28.914062 69.226562 29.683594 68.886719 C 29.957031 68.765625 30.222656 68.648438 30.496094 68.535156 C 31.679688 69.710938 32.984375 70.789062 34.214844 71.917969 C 34.582031 72.253906 34.949219 72.597656 35.3125 72.941406 C 35.375 73 35.496094 73.160156 35.609375 73.261719 C 35.75 73.386719 35.894531 73.457031 36.007812 73.484375 C 36.167969 73.523438 36.339844 73.5 36.480469 73.417969 C 38.386719 72.300781 40.332031 71.230469 42.277344 70.179688 C 42.933594 69.820312 43.59375 69.460938 44.257812 69.109375 C 44.464844 69 44.671875 68.886719 44.878906 68.785156 L 45.039062 68.707031 C 45.109375 68.691406 45.171875 68.660156 45.234375 68.617188 C 45.425781 68.484375 45.523438 68.257812 45.484375 68.03125 C 45.449219 67.84375 45.347656 67.691406 45.152344 67.597656 L 45.144531 67.59375 C 44.496094 67.257812 43.90625 66.789062 43.289062 66.398438 C 42.167969 65.691406 41.035156 64.996094 39.898438 64.316406 C 39.421875 64.035156 38.945312 63.757812 38.472656 63.472656 L 37.367188 62.808594 C 37.3125 62.742188 37.234375 62.6875 37.152344 62.652344 C 36.964844 62.570312 36.753906 62.585938 36.582031 62.683594 C 34.863281 63.683594 33.222656 64.6875 31.539062 65.738281 C 31.097656 66.011719 30.648438 66.277344 30.203125 66.550781 L 30.140625 66.582031 C 30.117188 66.59375 30.089844 66.605469 30.066406 66.621094 L 29.984375 66.664062 C 28.269531 65.664062 26.101562 64.710938 24.53125 63.585938 C 24.289062 63.410156 23.882812 63.199219 23.507812 62.960938 C 23.394531 62.890625 23.28125 62.820312 23.183594 62.75 Z M 30.59375 49.472656 C 30.523438 49.480469 30.457031 49.488281 30.390625 49.5 C 28.664062 49.738281 26.980469 50.308594 25.46875 51.148438 C 23.660156 52.15625 22.023438 53.636719 21.089844 55.453125 C 20.835938 55.945312 20.6875 56.53125 20.503906 57.101562 C 20.289062 57.777344 20.035156 58.429688 19.609375 58.945312 C 19.304688 59.3125 18.917969 59.519531 18.496094 59.65625 C 18.175781 59.761719 17.832031 59.820312 17.503906 59.917969 C 16.875 60.101562 16.28125 60.394531 15.761719 60.785156 C 14.695312 61.597656 14.007812 62.765625 13.363281 63.902344 C 13.132812 64.3125 12.925781 64.730469 12.71875 65.152344 C 12.699219 65.195312 12.679688 65.242188 12.65625 65.285156 C 13.996094 65.917969 15.5 66.304688 16.898438 66.75 C 17.382812 66.902344 17.875 67.046875 18.332031 67.273438 C 18.425781 67.324219 18.636719 67.429688 18.757812 67.546875 C 18.929688 67.714844 18.992188 67.917969 18.972656 68.117188 C 18.957031 68.292969 18.863281 68.5 18.636719 68.675781 C 18.347656 68.890625 17.660156 69.109375 17.5 69.171875 C 16.246094 69.65625 14.941406 70.03125 13.640625 70.371094 C 13.585938 70.382812 13.265625 70.453125 12.992188 70.507812 C 13.074219 70.691406 13.160156 70.886719 13.183594 70.945312 C 13.660156 72.082031 14.324219 73.121094 15.125 74.070312 C 15.851562 74.9375 16.757812 75.597656 17.65625 76.261719 C 18.632812 76.984375 19.601562 77.710938 20.378906 78.648438 C 21.304688 79.765625 21.835938 81.109375 22.550781 82.34375 C 23.386719 83.785156 24.492188 85.070312 26.003906 85.878906 C 27.082031 86.453125 28.253906 86.734375 29.460938 86.878906 C 27.550781 85.449219 25.84375 83.3125 25.417969 80.964844 C 25.269531 80.160156 25.332031 79.316406 25.339844 78.480469 C 25.351562 77.769531 25.332031 77.066406 25.023438 76.414062 C 24.488281 75.277344 23.066406 74.679688 21.960938 74.179688 C 21.5625 73.996094 21.160156 73.828125 20.742188 73.695312 C 20.714844 73.6875 20.226562 73.5625 20.125 73.527344 C 19.695312 73.367188 19.707031 72.984375 19.710938 72.925781 C 19.71875 72.746094 19.8125 72.585938 19.957031 72.476562 C 22.050781 70.96875 24.476562 69.839844 26.847656 68.804688 C 27.621094 68.464844 28.398438 68.136719 29.171875 67.796875 L 29.378906 67.707031 C 27.632812 66.679688 25.398438 65.699219 23.792969 64.546875 C 23.511719 64.34375 23 64.09375 22.589844 63.804688 C 22.203125 63.535156 21.902344 63.222656 21.777344 62.90625 C 21.675781 62.664062 21.699219 62.359375 21.992188 62.078125 C 22.136719 61.941406 22.394531 61.785156 22.667969 61.652344 C 22.960938 61.515625 23.269531 61.402344 23.351562 61.351562 C 24.074219 60.898438 24.660156 60.234375 25.109375 59.53125 C 25.890625 58.316406 26.332031 56.957031 26.789062 55.601562 C 27.277344 54.148438 27.785156 52.703125 28.664062 51.417969 C 29.171875 50.671875 29.851562 50.027344 30.59375 49.472656 Z M 36.859375 63.921875 C 35.28125 64.84375 33.769531 65.773438 32.210938 66.742188 C 31.84375 66.972656 31.472656 67.191406 31.105469 67.417969 C 32.34375 68.695312 33.75 69.84375 35.070312 71.046875 C 35.441406 71.394531 35.816406 71.738281 36.183594 72.089844 C 36.199219 72.105469 36.21875 72.128906 36.246094 72.15625 C 38.03125 71.117188 39.851562 70.121094 41.667969 69.136719 C 42.320312 68.78125 42.972656 68.429688 43.625 68.082031 C 43.285156 67.851562 42.949219 67.617188 42.613281 67.402344 C 41.5 66.699219 40.375 66.007812 39.242188 65.332031 C 38.769531 65.050781 38.289062 64.773438 37.820312 64.488281 C 37.765625 64.457031 37.234375 64.15625 36.859375 63.921875 Z M 44.496094 68.617188 L 44.578125 68.660156 C 44.605469 68.671875 44.625 68.679688 44.648438 68.691406 C 44.59375 68.671875 44.542969 68.644531 44.496094 68.617188 Z M 30.039062 67.984375 C 30.054688 68.03125 30.078125 68.078125 30.105469 68.121094 C 30.078125 68.078125 30.054688 68.035156 30.039062 67.984375 Z M 11.332031 65.335938 C 11.328125 65.34375 11.324219 65.351562 11.320312 65.359375 Z M 11.339844 65.316406 L 11.339844 65.320312 Z M 11.339844 65.316406 " fill-opacity="1" fill-rule="evenodd"/><path fill="#000000" d="M 0.0429688 68.671875 L 11.621094 70.425781 L 17.945312 68.207031 L 11.894531 65.792969 Z M 0.0429688 68.671875 " fill-opacity="1" fill-rule="evenodd"/><path fill="#000000" d="M 267.140625 88.386719 C 267.027344 88.453125 266.691406 88.601562 266.550781 88.671875 C 266.113281 88.886719 265.664062 89.074219 265.210938 89.261719 C 263.875 89.8125 262.546875 90.335938 261.121094 90.609375 C 256.855469 91.429688 249.945312 91.074219 249.746094 85.550781 C 249.613281 81.816406 252.328125 77.675781 255.160156 75.3125 C 256.335938 74.332031 257.710938 73.433594 259.3125 73.402344 C 260.621094 73.375 261.898438 73.921875 263 74.558594 C 265.378906 75.929688 267.550781 79.046875 268.785156 81.511719 C 268.773438 81.496094 268.996094 81.445312 269.03125 81.433594 C 269.167969 81.394531 269.3125 81.351562 269.449219 81.308594 C 269.855469 81.191406 270.242188 81.042969 270.632812 80.894531 C 271.851562 80.433594 273.042969 79.90625 274.175781 79.269531 C 275.851562 78.316406 277.414062 77.167969 278.789062 75.832031 C 279.179688 75.457031 279.550781 75.0625 279.933594 74.671875 C 279.996094 74.601562 280.191406 74.335938 280.3125 74.367188 C 280.480469 74.40625 280.441406 74.84375 280.453125 74.949219 C 280.484375 75.59375 280.492188 76.234375 280.546875 76.878906 C 280.679688 78.394531 281.128906 79.753906 281.828125 81.109375 C 281.730469 81.191406 282.160156 81.742188 282.203125 81.800781 C 282.726562 82.503906 283.46875 83.070312 284.183594 83.582031 C 286.257812 85.0625 289.160156 85.621094 291.378906 84.082031 C 294.222656 82.109375 295.308594 78.464844 296.445312 75.445312 C 296.761719 74.597656 297.089844 73.703125 297.609375 72.945312 C 297.792969 72.679688 298.0625 72.304688 298.433594 72.292969 C 298.71875 72.28125 298.90625 72.554688 299.027344 72.769531 C 299.375 73.363281 299.558594 74.054688 299.71875 74.714844 C 300.277344 77.007812 300.054688 80.179688 302.402344 81.585938 C 304.066406 82.585938 305.964844 82.667969 307.570312 81.542969 C 307.78125 81.394531 308.535156 80.941406 308.609375 80.65625 C 308.714844 80.226562 308.542969 79.675781 308.425781 79.269531 C 308.183594 78.4375 307.3125 76.566406 306.914062 75.789062 C 307.941406 75.066406 308.890625 73.964844 309.390625 73.371094 C 310.050781 72.589844 310.734375 71.828125 311.386719 71.046875 C 311.484375 70.933594 311.824219 70.363281 312 70.355469 C 312.398438 70.335938 312.558594 72.199219 312.59375 72.417969 C 312.949219 74.683594 312.894531 76.914062 312.589844 79.179688 C 312.179688 82.242188 311.28125 85.675781 308.601562 87.625 C 304.121094 90.875 298.296875 87.097656 297.210938 82.4375 C 297.195312 82.382812 297.019531 82.863281 297.007812 82.886719 C 296.882812 83.195312 296.761719 83.503906 296.617188 83.804688 C 296.179688 84.730469 295.628906 85.59375 295.0625 86.453125 C 293.410156 88.996094 291.265625 91.105469 288.164062 91.902344 C 286.421875 92.351562 284.34375 92.464844 282.609375 91.886719 C 278.660156 90.574219 277.523438 85.660156 278.382812 82.132812 C 276.804688 83.40625 274.898438 84.410156 273.148438 85.457031 C 271.78125 86.273438 270.328125 87.277344 268.773438 87.726562 C 268.695312 87.601562 268.847656 88.007812 268.878906 88.152344 C 268.929688 88.398438 268.972656 88.648438 269.019531 88.898438 C 269.164062 89.707031 269.269531 90.523438 269.382812 91.339844 C 269.734375 93.875 268.703125 95.183594 267.207031 97.25 C 262.859375 103.253906 257.023438 108.621094 250.746094 112.71875 C 250.851562 112.40625 250.210938 113.132812 249.929688 113.320312 C 249.402344 113.671875 248.859375 114 248.308594 114.308594 C 246.5625 115.273438 244.707031 116.117188 242.816406 116.777344 C 237.355469 118.6875 231.394531 117.085938 227.277344 113.234375 C 222.523438 108.785156 222.011719 100.566406 223.113281 94.679688 C 223.566406 92.238281 224.445312 89.945312 225.679688 87.777344 C 225.742188 87.660156 226.847656 85.804688 226.996094 86.015625 C 227.503906 86.75 226.226562 89.8125 226.058594 90.566406 C 225.246094 94.269531 224.464844 98.328125 225.546875 102.054688 C 226.101562 103.960938 227.261719 105.59375 228.773438 106.910156 C 238.148438 115.074219 250.558594 106.429688 258.796875 100.804688 C 261.078125 99.242188 263.265625 97.582031 265.261719 95.6875 C 266 94.988281 267.148438 94.117188 267.519531 93.140625 C 268.078125 91.648438 267.640625 89.835938 267.140625 88.386719 C 267.1875 88.359375 267.199219 88.347656 267.132812 88.359375 Z M 262.152344 82.222656 C 261.242188 82.699219 259.917969 83.167969 258.9375 83.53125 C 258.335938 83.75 257.730469 83.90625 257.097656 83.992188 C 256.675781 84.046875 256.21875 84.070312 255.796875 83.96875 C 254.074219 83.550781 254.203125 81.667969 255.058594 80.53125 C 256.234375 78.960938 258.449219 78.789062 260.050781 79.808594 C 260.675781 80.203125 261.832031 81.578125 262.152344 82.222656 Z M 262.152344 82.222656 " fill-opacity="1" fill-rule="evenodd"/><path fill="#000000" d="M 229.730469 76.046875 C 229.855469 76.410156 229.558594 77.167969 229.496094 77.527344 C 229.261719 78.832031 229.011719 80.132812 228.742188 81.433594 C 228.628906 81.984375 228.277344 82.753906 228.507812 83.320312 C 228.804688 84.046875 229.863281 83.664062 230.21875 84.230469 C 230.671875 84.960938 230.839844 86.003906 231.148438 86.796875 C 231.75 88.351562 232.484375 89.804688 233.347656 91.234375 C 234.777344 93.585938 237.402344 95.921875 238.011719 98.660156 C 237.777344 98.664062 237.863281 99.097656 237.753906 99.300781 C 237.421875 99.945312 237.039062 100.554688 236.632812 101.160156 C 235.140625 103.394531 233.164062 105.191406 230.964844 106.78125 C 228.234375 108.757812 225.332031 110.484375 222.386719 112.148438 C 215.597656 115.988281 207.753906 119.996094 199.695312 117.789062 C 193.316406 116.042969 191.8125 108.953125 192.625 103.3125 C 192.914062 101.269531 193.402344 99.25 194.023438 97.277344 C 194.277344 96.464844 194.570312 95.65625 194.800781 94.832031 C 194.828125 94.734375 195.035156 94.144531 194.761719 94.183594 C 194.117188 94.277344 193.507812 95.648438 193.246094 96.09375 C 191.863281 98.496094 191.117188 101.160156 190.722656 103.871094 C 189.535156 112.03125 191.292969 124.375 201.605469 125.816406 C 213.683594 127.5 224.65625 119.085938 232.964844 111.746094 C 236.304688 108.789062 240.742188 104.871094 241.550781 100.308594 C 242.351562 95.777344 240.554688 91.328125 237.988281 87.609375 C 237.113281 86.339844 235.242188 84.929688 234.722656 83.5 C 234.476562 82.816406 236.378906 82.230469 236.820312 82.007812 C 237.023438 81.90625 237.574219 81.714844 237.402344 81.414062 C 237.007812 80.738281 236.066406 80.3125 235.445312 79.875 C 233.929688 78.808594 231.171875 77.207031 229.730469 76.046875 Z M 229.730469 76.046875 " fill-opacity="1" fill-rule="evenodd"/><path fill="#000000" d="M 209.28125 56.335938 C 209.667969 56.640625 212.390625 56.539062 212.070312 55.691406 C 211.859375 55.136719 211.050781 54.621094 210.605469 54.253906 C 209.128906 53.042969 207.519531 51.914062 205.910156 50.878906 C 205.644531 50.710938 204.101562 49.496094 203.777344 49.882812 C 203.136719 50.65625 203.421875 52.828125 203.363281 53.761719 C 203.332031 54.382812 202.914062 55.808594 203.304688 56.359375 C 203.742188 56.972656 204.660156 56.746094 204.976562 57.53125 C 205.371094 58.503906 205.554688 59.5 206.0625 60.449219 C 207.285156 62.753906 209.179688 64.722656 211.140625 66.46875 C 211.019531 66.429688 210.300781 67.566406 210.234375 67.65625 C 209.28125 68.992188 208.359375 70.34375 207.484375 71.730469 C 204.894531 75.839844 204.46875 80.367188 205.191406 85.082031 C 205.707031 88.480469 207.570312 90.941406 211.425781 90.382812 C 214.019531 90.003906 215.945312 88.355469 217.714844 86.609375 C 222.054688 82.324219 224.734375 76.128906 222.273438 70.183594 C 221.597656 68.554688 219.800781 67.433594 218.367188 66.476562 C 217.882812 66.15625 216.734375 65.679688 216.925781 64.980469 C 217.265625 63.726562 218.636719 62.484375 219.429688 61.484375 C 221.257812 59.15625 223.101562 56.839844 224.746094 54.382812 C 225.292969 53.570312 227.285156 51.355469 226.464844 50.269531 C 225.320312 48.757812 223.28125 51.5 222.652344 52.183594 C 222.351562 52.511719 222.0625 52.839844 221.773438 53.171875 C 221.457031 53.539062 221.140625 53.90625 220.824219 54.273438 C 220.492188 54.664062 220.164062 55.054688 219.839844 55.445312 C 219.097656 56.324219 218.363281 57.214844 217.636719 58.109375 C 216.910156 59.003906 216.191406 59.910156 215.484375 60.824219 C 215.265625 61.113281 214.9375 61.773438 214.558594 61.90625 C 214.15625 62.050781 213.386719 61.222656 213.140625 61.003906 C 211.917969 59.921875 210.382812 57.53125 209.28125 56.335938 Z M 213.398438 69.390625 C 211.648438 71.449219 209.882812 73.535156 208.453125 75.824219 C 207.515625 77.332031 206.734375 79.152344 207.195312 80.941406 C 207.578125 82.410156 209.863281 82.492188 211.105469 82.535156 C 214.875 82.660156 218.691406 79.632812 220.691406 76.773438 C 220.582031 76.640625 220.550781 76.167969 220.480469 75.996094 C 220.222656 75.375 219.914062 74.796875 219.539062 74.238281 C 218.261719 72.347656 215.332031 70.59375 213.398438 69.390625 Z M 213.398438 69.390625 " fill-opacity="1" fill-rule="evenodd"/><path fill="#000000" d="M 201.21875 33.621094 L 206.234375 27.996094 L 213.75 33.972656 L 208.949219 39.429688 Z M 201.21875 33.621094 " fill-opacity="1" fill-rule="evenodd"/><path fill="#000000" d="M 213.214844 33.621094 L 218.234375 27.996094 L 225.75 33.972656 L 220.949219 39.429688 Z M 213.214844 33.621094 " fill-opacity="1" fill-rule="evenodd"/><path fill="#000000" d="M 96.875 55.609375 L 101.328125 50.460938 L 108 55.933594 L 103.738281 60.933594 Z M 96.875 55.609375 " fill-opacity="1" fill-rule="evenodd"/><path fill="#000000" d="M 106.335938 55.609375 L 110.792969 50.460938 L 117.460938 55.933594 L 113.199219 60.933594 Z M 106.335938 55.609375 " fill-opacity="1" fill-rule="evenodd"/><path fill="#000000" d="M 100.777344 45.558594 L 105.230469 40.40625 L 111.902344 45.878906 L 107.640625 50.878906 Z M 100.777344 45.558594 " fill-opacity="1" fill-rule="evenodd"/><path fill="#000000" d="M 306.058594 52.050781 C 306.058594 52.050781 291.65625 66.214844 283.632812 70.066406 C 283.632812 70.066406 283.976562 71.214844 294.390625 64.242188 C 294.390625 64.242188 302.472656 59.058594 307.105469 52.796875 C 307.105469 52.796875 308.613281 54.027344 309.003906 54.351562 C 309.003906 54.351562 310.839844 52.375 310.003906 51.449219 L 308.679688 50.253906 C 308.679688 50.253906 311.339844 44.5 308.984375 43.132812 C 308.984375 43.132812 306.171875 41.164062 303.1875 46.5 C 303.1875 46.5 301.976562 48.703125 303.757812 50.171875 Z M 304.8125 46.777344 C 304.8125 46.777344 305.050781 44.832031 306.722656 45.210938 C 306.722656 45.210938 308.628906 45.800781 307.808594 49.453125 C 307.808594 49.453125 305.785156 48.367188 304.8125 46.777344 Z M 304.8125 46.777344 " fill-opacity="1" fill-rule="evenodd"/><path fill="#000000" d="M 270.726562 49.449219 C 270.726562 49.449219 275.664062 39.808594 277.699219 38.765625 C 277.699219 38.765625 296.550781 38.53125 298.066406 41.429688 C 298.066406 41.429688 299.625 46.199219 285.003906 58.433594 L 269.511719 60.785156 C 269.511719 60.785156 266.484375 61.777344 277.820312 55.949219 L 288.917969 50.175781 C 288.917969 50.175781 282.105469 47.375 270.726562 49.449219 Z M 270.726562 49.449219 " fill-opacity="1" fill-rule="evenodd"/><path fill="#000000" d="M 149.027344 51.921875 C 149.027344 51.921875 151.617188 46.265625 152.683594 45.652344 C 152.683594 45.652344 162.566406 45.515625 163.363281 47.214844 C 163.363281 47.214844 164.175781 50.015625 156.511719 57.195312 L 148.390625 58.578125 C 148.390625 58.578125 146.804688 59.15625 152.746094 55.738281 L 158.566406 52.347656 C 158.566406 52.347656 154.992188 50.703125 149.027344 51.921875 Z M 149.027344 51.921875 " fill-opacity="1" fill-rule="evenodd"/><path fill="#000000" d="M 71.738281 55.492188 C 71.738281 55.492188 75.234375 49.835938 76.675781 49.222656 C 76.675781 49.222656 90.03125 49.085938 91.105469 50.785156 C 91.105469 50.785156 92.207031 53.585938 81.851562 60.765625 L 70.878906 62.148438 C 70.878906 62.148438 68.734375 62.726562 76.765625 59.308594 L 84.625 55.917969 C 84.625 55.917969 79.800781 54.273438 71.738281 55.492188 Z M 71.738281 55.492188 " fill-opacity="1" fill-rule="evenodd"/><path fill="#000000" d="M 232.621094 57.308594 L 231.277344 60.851562 L 259.859375 48.925781 L 261.683594 44.964844 Z M 232.621094 57.308594 " fill-opacity="1" fill-rule="evenodd"/><path fill="#000000" d="M 118.804688 36.859375 L 117.460938 40.40625 L 146.042969 28.476562 L 147.867188 24.519531 Z M 118.804688 36.859375 " fill-opacity="1" fill-rule="evenodd"/><path fill="#000000" d="M 92.480469 39.269531 L 91.136719 42.816406 L 119.71875 30.886719 L 121.542969 26.925781 Z M 92.480469 39.269531 " fill-opacity="1" fill-rule="evenodd"/><path fill="#000000" d="M 242.050781 67.328125 L 241.328125 68.457031 L 238.597656 65.9375 C 238.597656 65.9375 237.769531 61.046875 240.691406 62.203125 C 240.691406 62.203125 245.046875 64.144531 246.464844 71.554688 C 246.464844 71.554688 248.601562 60.097656 251.703125 60.894531 C 251.703125 60.894531 254 61.320312 254.464844 63.628906 L 252.925781 66.410156 C 252.925781 66.410156 250.65625 61.171875 248.945312 66.925781 C 248.945312 66.925781 247.042969 76.148438 245.90625 76.6875 C 245.90625 76.6875 245.820312 77.929688 244.371094 71.527344 C 244.371094 71.527344 242.582031 67.308594 242.050781 67.328125 Z M 242.050781 67.328125 " fill-opacity="1" fill-rule="evenodd"/><path fill="#000000" d="M 78.722656 73.289062 L 78 74.421875 L 75.269531 71.902344 C 75.269531 71.902344 74.4375 67.011719 77.363281 68.167969 C 77.363281 68.167969 81.71875 70.109375 83.136719 77.515625 C 83.136719 77.515625 85.273438 66.058594 88.375 66.855469 C 88.375 66.855469 90.671875 67.285156 91.136719 69.589844 L 89.597656 72.375 C 89.597656 72.375 87.328125 67.136719 85.613281 72.890625 C 85.613281 72.890625 83.710938 82.113281 82.578125 82.652344 C 82.578125 82.652344 82.492188 83.894531 81.042969 77.492188 C 81.042969 77.492188 79.253906 73.273438 78.722656 73.289062 Z M 78.722656 73.289062 " fill-opacity="1" fill-rule="evenodd"/><path fill="#000000" d="M 242.050781 37.269531 L 241.328125 38.402344 L 238.597656 35.882812 C 238.597656 35.882812 237.769531 30.992188 240.691406 32.148438 C 240.691406 32.148438 245.046875 34.089844 246.464844 41.496094 C 246.464844 41.496094 248.601562 30.039062 251.703125 30.835938 C 251.703125 30.835938 254 31.261719 254.464844 33.570312 L 252.925781 36.351562 C 252.925781 36.351562 250.65625 31.113281 248.945312 36.871094 C 248.945312 36.871094 247.042969 46.09375 245.90625 46.632812 C 245.90625 46.632812 245.820312 47.875 244.371094 41.472656 C 244.371094 41.472656 242.582031 37.25 242.050781 37.269531 Z M 242.050781 37.269531 " fill-opacity="1" fill-rule="evenodd"/><path fill="#000000" d="M 212.003906 91.527344 C 211.902344 91.488281 211.308594 92.570312 211.265625 92.648438 C 210.421875 94.097656 209.578125 95.546875 208.789062 97.023438 C 206.785156 100.773438 204.652344 104.5625 204.011719 108.738281 C 203.738281 110.523438 203.644531 112.535156 204.503906 114.210938 C 205.453125 116.066406 207.925781 116.960938 209.746094 115.523438 C 211.402344 114.210938 212.390625 112.097656 212.851562 110.1875 C 213.003906 109.546875 213.246094 108.773438 213.121094 108.117188 C 213.089844 107.949219 212.992188 107.515625 212.710938 107.699219 C 211.480469 108.492188 211.140625 112.101562 208.851562 110.710938 C 208.597656 110.558594 208.367188 110.367188 208.167969 110.160156 C 207.859375 109.839844 207.632812 109.46875 207.457031 109.078125 C 206.75 107.539062 206.917969 105.8125 207.40625 104.242188 C 208.234375 101.5625 209.769531 99.035156 211.042969 96.511719 C 211.761719 95.09375 213.515625 92.109375 212.003906 91.527344 Z M 212.003906 91.527344 " fill-opacity="1" fill-rule="evenodd"/><path fill="#000000" d="M 171.566406 58.609375 C 171.464844 58.570312 170.875 59.652344 170.828125 59.730469 C 169.988281 61.179688 169.144531 62.628906 168.355469 64.105469 C 166.347656 67.855469 164.214844 71.644531 163.578125 75.820312 C 163.304688 77.605469 163.207031 79.617188 164.066406 81.292969 C 165.019531 83.148438 167.488281 84.042969 169.308594 82.605469 C 170.96875 81.292969 171.953125 79.179688 172.414062 77.269531 C 172.566406 76.628906 172.8125 75.855469 172.6875 75.195312 C 172.65625 75.03125 172.554688 74.597656 172.277344 74.78125 C 171.042969 75.574219 170.703125 79.183594 168.414062 77.792969 C 168.164062 77.640625 167.929688 77.449219 167.730469 77.242188 C 167.421875 76.921875 167.199219 76.550781 167.019531 76.160156 C 166.3125 74.621094 166.484375 72.894531 166.96875 71.324219 C 167.800781 68.644531 169.335938 66.117188 170.609375 63.59375 C 171.324219 62.175781 173.078125 59.191406 171.566406 58.609375 Z M 171.566406 58.609375 " fill-opacity="1" fill-rule="evenodd"/><path fill="#000000" d="M 65.296875 66.820312 C 65.195312 66.78125 64.601562 67.859375 64.558594 67.9375 C 63.714844 69.390625 62.871094 70.839844 62.082031 72.3125 C 60.074219 76.066406 57.945312 79.855469 57.304688 84.027344 C 57.03125 85.8125 56.9375 87.824219 57.792969 89.5 C 58.746094 91.355469 61.214844 92.253906 63.039062 90.8125 C 64.695312 89.503906 65.683594 87.390625 66.144531 85.476562 C 66.296875 84.835938 66.539062 84.0625 66.414062 83.40625 C 66.382812 83.238281 66.285156 82.808594 66.003906 82.988281 C 64.769531 83.785156 64.433594 87.390625 62.144531 86 C 61.890625 85.847656 61.660156 85.660156 61.460938 85.453125 C 61.152344 85.128906 60.925781 84.761719 60.746094 84.367188 C 60.042969 82.828125 60.210938 81.101562 60.695312 79.53125 C 61.527344 76.851562 63.0625 74.324219 64.335938 71.804688 C 65.054688 70.382812 66.808594 67.398438 65.296875 66.820312 Z M 65.296875 66.820312 " fill-opacity="1" fill-rule="evenodd"/><path fill="#000000" d="M 107.195312 71.894531 C 107.375 71.914062 107.132812 72.25 107.109375 72.425781 C 107.066406 72.734375 107.027344 73.039062 106.980469 73.347656 C 106.761719 74.816406 106.386719 76.261719 106.164062 77.726562 C 106.105469 78.117188 106.726562 78.390625 106.964844 78.609375 C 107.898438 79.46875 108.910156 80.640625 107.496094 81.566406 C 107.1875 81.765625 106.859375 81.9375 106.519531 82.078125 C 103.988281 83.128906 100.792969 82.878906 98.613281 81.195312 C 97.992188 80.710938 97.484375 80.132812 97.117188 79.433594 C 97.03125 79.265625 96.84375 78.597656 96.621094 78.570312 C 96.238281 78.515625 95.816406 79.175781 95.628906 79.421875 C 94.894531 80.378906 94.070312 81.359375 93.527344 82.445312 C 93.578125 82.261719 93.71875 82.777344 93.820312 82.9375 C 93.996094 83.214844 94.183594 83.484375 94.371094 83.753906 C 95 84.652344 95.601562 85.574219 96.175781 86.507812 C 97.941406 89.382812 99.039062 92.226562 98.703125 95.644531 C 98.648438 96.230469 97.554688 96.84375 97.140625 97.226562 C 95.523438 98.722656 93.820312 100.136719 92.050781 101.449219 C 90.519531 102.589844 88.898438 103.570312 87.238281 104.507812 C 86.015625 105.199219 84.761719 105.84375 83.496094 106.453125 C 77.996094 109.101562 68.742188 112.675781 64.085938 106.664062 C 61.574219 103.425781 61.339844 99.191406 61.648438 95.25 C 61.746094 94.039062 61.941406 92.835938 62.070312 91.628906 C 62.089844 91.445312 62.238281 90.773438 62.007812 90.65625 C 61.699219 90.5 61.410156 91.734375 61.375 91.867188 C 60.925781 93.503906 60.679688 95.1875 60.511719 96.875 C 59.988281 102.042969 60.894531 107.503906 64.480469 111.484375 C 71.429688 119.195312 82.28125 113.683594 89.164062 109.023438 C 90.546875 108.085938 91.914062 107.128906 93.230469 106.097656 C 95.859375 104.046875 98.730469 101.628906 100.167969 98.539062 C 101.285156 96.136719 101.035156 93.332031 100.6875 90.792969 C 100.601562 90.152344 99.808594 87.738281 100.183594 87.140625 C 100.296875 86.960938 101.5625 87.394531 101.742188 87.421875 C 103.238281 87.65625 104.902344 87.75 106.328125 87.164062 C 112.40625 84.671875 109.585938 76.363281 107.195312 71.894531 Z M 107.195312 71.894531 " fill-opacity="1" fill-rule="evenodd"/><path fill="#000000" d="M 175.40625 48.449219 C 175.394531 48.4375 175.390625 48.433594 175.402344 48.445312 L 175.40625 48.449219 C 175.480469 48.535156 176.007812 49.089844 176.070312 49.171875 C 176.210938 49.355469 176.359375 49.523438 176.519531 49.6875 C 176.785156 49.960938 178.832031 51.960938 178.964844 51.0625 C 179.109375 50.097656 178.316406 48.734375 177.929688 47.902344 C 176.757812 45.386719 175.328125 42.953125 173.855469 40.601562 C 173.550781 40.113281 172.546875 37.945312 171.886719 37.84375 C 171.328125 37.757812 170.761719 39.128906 170.585938 39.488281 C 170.300781 40.070312 169.8125 40.757812 169.757812 41.417969 C 169.671875 42.496094 171.167969 43.882812 171.761719 44.675781 C 171.59375 44.84375 172.082031 46.761719 172.117188 47 C 172.507812 49.667969 172.945312 52.328125 173.335938 54.992188 C 174.152344 60.550781 174.785156 66.136719 175.46875 71.707031 C 176.007812 76.109375 176.679688 80.503906 176.789062 84.945312 C 176.8125 85.871094 175.457031 87.863281 174.960938 88.484375 C 171.960938 92.253906 166.570312 91.808594 162.835938 89.421875 C 159.722656 87.433594 157.484375 84.136719 155.039062 81.449219 C 149.652344 75.527344 144.285156 69.476562 137.917969 64.585938 C 134.449219 61.917969 130.777344 59.570312 127.183594 57.082031 C 125.320312 55.792969 123 54.398438 122.105469 52.195312 C 121.722656 51.25 124.207031 50.46875 125.019531 49.972656 C 127.765625 48.289062 130.628906 46.816406 133.542969 45.453125 C 142.066406 41.476562 150.675781 38.015625 159.757812 35.515625 C 163.96875 34.355469 168.472656 32.921875 172.882812 32.90625 C 174.585938 32.898438 176.25 33.398438 176.488281 35.289062 C 176.578125 36.015625 176.28125 36.597656 176.070312 37.292969 C 175.953125 37.6875 174.367188 39.863281 174.765625 39.777344 C 175.3125 39.664062 177.25 36.992188 177.488281 36.582031 C 178.589844 34.691406 180.132812 31.550781 178.929688 29.320312 C 178.152344 27.875 176.027344 27.527344 174.570312 27.394531 C 170.695312 27.042969 166.722656 27.957031 163.015625 28.992188 C 150.8125 32.386719 138.335938 37.648438 127.273438 43.816406 C 122.273438 46.605469 116.476562 50.417969 119.300781 56.886719 C 119.5625 57.488281 120.378906 58.542969 120.757812 58.980469 C 122.394531 60.890625 124.128906 62.695312 125.894531 64.488281 C 127.519531 66.136719 129.132812 67.804688 130.777344 69.4375 C 132.167969 70.820312 133.558594 72.195312 134.894531 73.632812 C 135.847656 74.652344 136.789062 75.679688 137.695312 76.742188 C 138.394531 77.566406 139.070312 78.40625 139.734375 79.253906 C 142.761719 83.105469 148.882812 91.175781 142.414062 94.890625 C 141.648438 95.328125 140.804688 95.652344 139.945312 95.84375 C 138.601562 96.144531 137.164062 96.285156 135.785156 96.28125 C 135.960938 96.269531 135.660156 95.667969 135.632812 95.597656 C 135.355469 94.863281 135.019531 94.191406 134.59375 93.527344 C 133.425781 91.707031 131.757812 89.867188 129.425781 89.839844 C 124.851562 89.78125 121.761719 95.253906 120.898438 99.136719 C 120.273438 101.9375 121.96875 103.921875 124.601562 104.671875 C 127.898438 105.613281 131.679688 105.191406 134.832031 103.902344 C 134.925781 103.863281 134.867188 104.09375 134.886719 104.191406 C 134.929688 104.40625 134.960938 104.621094 134.996094 104.835938 C 135.125 105.675781 135.554688 106.964844 135.226562 107.78125 C 134.945312 108.480469 134.320312 109.070312 133.832031 109.621094 C 132.71875 110.878906 131.527344 112.058594 130.277344 113.179688 C 127.613281 115.578125 124.6875 117.75 121.679688 119.699219 C 118.542969 121.734375 115 123.652344 111.1875 123.914062 C 107.519531 124.164062 102.1875 122.890625 100.441406 119.253906 C 99.449219 117.179688 99.640625 114.648438 99.667969 112.417969 C 99.691406 110.488281 99.839844 108.558594 99.875 106.628906 C 99.882812 106.179688 100.023438 105.054688 99.65625 104.691406 C 99.332031 104.367188 98.746094 105.605469 98.671875 105.75 C 97.929688 107.183594 97.53125 108.78125 97.21875 110.359375 C 96.253906 115.265625 96.6875 120.574219 99.386719 124.890625 C 100.050781 125.953125 100.878906 126.898438 101.816406 127.730469 C 102.988281 128.773438 104.363281 129.707031 105.847656 130.246094 C 109.878906 131.699219 114.328125 130.171875 117.925781 128.261719 C 120.605469 126.835938 123.070312 125.066406 125.453125 123.199219 C 131.398438 118.542969 138.195312 112.816406 137.433594 104.566406 C 137.351562 103.691406 137.308594 102.710938 137.074219 101.855469 C 137.058594 101.789062 137.734375 101.613281 137.796875 101.59375 C 138.601562 101.332031 139.371094 101.023438 140.144531 100.691406 C 142.109375 99.847656 143.960938 98.859375 145.5625 97.425781 C 147.382812 95.796875 148.089844 93.523438 148.421875 91.167969 C 148.917969 87.640625 148.683594 83.789062 147.054688 80.5625 C 146.976562 80.410156 147.285156 80.8125 147.398438 80.9375 C 147.691406 81.265625 147.984375 81.59375 148.269531 81.921875 C 148.992188 82.753906 149.707031 83.585938 150.429688 84.414062 C 152.773438 87.101562 155.121094 89.84375 157.695312 92.308594 C 159.46875 94.007812 161.367188 95.847656 163.675781 96.796875 C 167.347656 98.308594 172.527344 97.089844 175.472656 94.566406 C 177.046875 93.21875 178.03125 91.414062 179.171875 89.71875 C 181.898438 85.671875 179.703125 79.574219 179.195312 74.777344 C 178.320312 66.527344 176.730469 56.636719 175.40625 48.449219 Z M 131.304688 98.152344 C 130.988281 98.386719 130.1875 98.648438 129.820312 98.734375 C 128.695312 99.007812 127.355469 99.164062 126.199219 98.914062 C 124.421875 98.53125 125.355469 96.457031 126.285156 95.683594 C 128.285156 94.007812 130.484375 96.371094 131.304688 98.152344 Z M 131.304688 98.152344 " fill-opacity="1" fill-rule="evenodd"/><path fill="#000000" d="M 169.210938 127.3125 C 169.3125 127.351562 169.902344 126.269531 169.949219 126.191406 C 170.789062 124.742188 171.636719 123.292969 172.421875 121.816406 C 174.429688 118.066406 176.5625 114.277344 177.199219 110.101562 C 177.472656 108.316406 177.570312 106.304688 176.710938 104.628906 C 175.761719 102.773438 173.289062 101.878906 171.46875 103.316406 C 169.8125 104.628906 168.824219 106.742188 168.363281 108.652344 C 168.210938 109.292969 167.96875 110.066406 168.089844 110.726562 C 168.121094 110.890625 168.222656 111.324219 168.5 111.140625 C 169.734375 110.347656 170.074219 106.738281 172.363281 108.128906 C 172.613281 108.28125 172.847656 108.472656 173.046875 108.679688 C 173.355469 109 173.582031 109.371094 173.757812 109.761719 C 174.464844 111.300781 174.292969 113.027344 173.808594 114.597656 C 172.980469 117.277344 171.441406 119.804688 170.167969 122.328125 C 169.453125 123.746094 167.699219 126.730469 169.210938 127.3125 Z M 169.210938 127.3125 " fill-opacity="1" fill-rule="evenodd"/><path fill="#000000" d="M 302.203125 93.996094 C 302.257812 93.996094 302.152344 94.097656 302.128906 94.144531 C 302.0625 94.265625 301.984375 94.375 301.917969 94.492188 C 301.730469 94.808594 301.398438 95.195312 301.324219 95.5625 C 301.246094 95.921875 301.871094 96.214844 301.707031 96.667969 C 301.601562 96.957031 301.277344 97.082031 301.011719 97.15625 C 300.332031 97.351562 299.441406 97.148438 299.078125 96.484375 C 298.800781 95.972656 299.058594 95.414062 299.292969 94.945312 C 299.34375 94.84375 299.582031 94.46875 299.40625 94.375 C 299.09375 94.21875 298.574219 95.117188 298.453125 95.285156 C 297.816406 96.164062 297.078125 97.617188 295.96875 97.972656 C 295.097656 98.25 294.121094 97.738281 293.28125 97.558594 C 292.375 97.367188 291.410156 97.472656 290.539062 97.789062 C 288.367188 98.585938 286.429688 100.109375 284.617188 101.535156 C 282.191406 103.449219 279.339844 105.394531 276.773438 107.113281 C 276.859375 107.136719 276.617188 107.195312 276.542969 107.242188 C 276.382812 107.335938 276.21875 107.429688 276.054688 107.523438 C 275.542969 107.820312 275.027344 108.109375 274.519531 108.410156 C 272.859375 109.386719 271.140625 110.285156 269.421875 111.136719 C 268.726562 111.480469 268.027344 111.808594 267.335938 112.152344 C 267.285156 112.175781 266.644531 112.472656 266.820312 112.625 C 266.933594 112.726562 267.324219 112.628906 267.453125 112.613281 C 268.117188 112.535156 268.761719 112.320312 269.40625 112.152344 C 272.308594 111.394531 274.84375 110.566406 277.367188 108.851562 C 280.347656 106.820312 283.15625 104.539062 286.066406 102.410156 C 287.644531 101.25 289.355469 99.835938 291.238281 99.242188 C 292.886719 98.71875 294.140625 100.589844 295.800781 100.078125 C 296.617188 99.824219 297.222656 99.019531 297.699219 98.335938 C 297.757812 98.253906 298.117188 97.535156 298.230469 97.554688 C 298.304688 97.566406 298.378906 97.828125 298.398438 97.882812 C 298.5 98.1875 298.597656 98.503906 298.800781 98.757812 C 299.316406 99.402344 300.363281 99.5 301.101562 99.308594 C 302.949219 98.832031 303.011719 95.261719 302.203125 93.996094 Z M 302.203125 93.996094 " fill-opacity="1" fill-rule="evenodd"/><g clip-path="url(#6f8ec64556)"><path fill="#000000" d="M 182.484375 23.484375 L 185.367188 18.28125 C 185.367188 18.28125 194.0625 32.960938 192.4375 35.078125 C 192.4375 35.078125 190.714844 34.097656 188.933594 32.007812 C 188.933594 32.007812 189.660156 40.910156 191.152344 52.117188 C 193.71875 71.351562 196.828125 97.59375 189.996094 98.9375 C 189.996094 98.9375 191.144531 89.1875 188.757812 75.1875 C 188.757812 75.1875 184.316406 27.359375 182.484375 23.484375 Z M 182.484375 23.484375 " fill-opacity="1" fill-rule="evenodd"/></g><path fill="#000000" d="M 123.492188 65.703125 C 123.132812 65.800781 122.703125 66.675781 122.511719 66.960938 C 121.640625 68.25 120.832031 69.597656 120.105469 70.980469 C 119.242188 72.632812 118.472656 74.335938 117.945312 76.140625 C 117.671875 77.070312 117.441406 78.066406 117.464844 79.050781 C 117.476562 79.558594 117.570312 80.058594 117.722656 80.542969 C 118.671875 83.585938 122.351562 83.8125 124.828125 82.710938 C 127.945312 81.324219 128.777344 76.554688 127.148438 73.722656 C 126.421875 72.46875 125.382812 71.464844 124.277344 70.570312 C 123.914062 70.273438 123.542969 69.996094 123.15625 69.730469 C 123.03125 69.640625 122.714844 69.507812 122.660156 69.34375 C 122.570312 69.066406 122.898438 68.621094 123.003906 68.394531 C 123.316406 67.730469 123.6875 66.480469 123.492188 65.703125 Z M 121.335938 73.117188 C 121.285156 73.105469 120.855469 73.691406 120.84375 73.726562 C 120.65625 74.140625 120.492188 74.566406 120.359375 75.003906 C 120.207031 75.503906 120.03125 76.074219 120.035156 76.601562 C 120.050781 77.507812 120.722656 78.253906 121.445312 78.667969 C 122.453125 79.246094 123.820312 79.277344 124.902344 78.914062 C 125.296875 78.78125 125.960938 78.5 125.882812 77.957031 C 125.8125 77.425781 125.40625 76.898438 125.109375 76.484375 C 124.195312 75.21875 122.667969 73.867188 121.335938 73.117188 Z M 121.335938 73.117188 " fill-opacity="1" fill-rule="evenodd"/></svg>