<svg xmlns="http://www.w3.org/2000/svg" xmlns:xlink="http://www.w3.org/1999/xlink" width="500" zoomAndPan="magnify" viewBox="0 0 375 149.999998" height="200" preserveAspectRatio="xMidYMid meet" version="1.0"><defs><clipPath id="c969422c8a"><path d="M 305 21.328125 L 344 21.328125 L 344 63 L 305 63 Z M 305 21.328125 " clip-rule="nonzero"/></clipPath></defs><g clip-path="url(#c969422c8a)"><path fill="#000000" d="M 305.550781 21.394531 C 305.351562 21.308594 305.984375 21.375 306.199219 21.390625 C 306.679688 21.429688 307.15625 21.488281 307.632812 21.558594 C 309.03125 21.765625 310.398438 22.117188 311.746094 22.535156 C 315.675781 23.746094 319.5 25.582031 322.957031 27.75 C 330.988281 32.800781 336.921875 40.613281 340.671875 49.066406 C 342.085938 52.253906 343.59375 55.6875 343.59375 59.222656 C 343.617188 59.230469 343.425781 59.46875 343.417969 59.476562 C 343.183594 59.765625 342.921875 60.03125 342.652344 60.285156 C 341.523438 61.332031 340.25 62.175781 338.8125 62.769531 C 338.691406 62.820312 338.476562 62.742188 338.371094 62.710938 C 337.957031 62.59375 337.558594 62.429688 337.164062 62.265625 C 335.460938 61.554688 333.902344 60.535156 332.433594 59.445312 C 332.027344 59.140625 332.140625 58.410156 331.992188 57.921875 C 331.621094 56.6875 331.246094 55.449219 330.859375 54.21875 C 330.035156 51.613281 328.902344 49.089844 327.621094 46.667969 C 327.453125 46.640625 327.503906 46.351562 327.429688 46.199219 C 327.199219 45.742188 326.957031 45.292969 326.710938 44.847656 C 325.644531 42.898438 324.476562 41.007812 323.238281 39.160156 C 319.226562 33.179688 311.570312 25.625 305.550781 21.394531 Z M 305.550781 21.394531 " fill-opacity="1" fill-rule="evenodd"/></g><path fill="#000000" d="M 305.550781 113.792969 C 305.351562 113.878906 305.984375 113.8125 306.199219 113.796875 C 306.679688 113.757812 307.15625 113.699219 307.632812 113.628906 C 309.03125 113.421875 310.398438 113.070312 311.746094 112.652344 C 315.675781 111.441406 319.5 109.605469 322.957031 107.433594 C 330.988281 102.386719 336.921875 94.574219 340.671875 86.121094 C 342.085938 82.933594 343.59375 79.5 343.59375 75.964844 C 343.617188 75.957031 343.425781 75.71875 343.417969 75.710938 C 343.183594 75.421875 342.921875 75.15625 342.652344 74.902344 C 341.523438 73.855469 340.25 73.011719 338.8125 72.417969 C 338.691406 72.367188 338.476562 72.445312 338.371094 72.476562 C 337.957031 72.59375 337.558594 72.757812 337.164062 72.921875 C 335.460938 73.632812 333.902344 74.652344 332.433594 75.742188 C 332.027344 76.046875 332.140625 76.777344 331.992188 77.265625 C 331.621094 78.5 331.246094 79.738281 330.859375 80.96875 C 330.035156 83.574219 328.902344 86.097656 327.621094 88.519531 C 327.453125 88.542969 327.503906 88.835938 327.429688 88.988281 C 327.199219 89.445312 326.957031 89.894531 326.710938 90.339844 C 325.644531 92.285156 324.476562 94.179688 323.238281 96.027344 C 319.226562 102.007812 311.570312 109.5625 305.550781 113.792969 Z M 305.550781 113.792969 " fill-opacity="1" fill-rule="evenodd"/><path fill="#000000" d="M 351.859375 61.910156 C 351.796875 61.875 351.734375 61.84375 351.679688 61.816406 C 351.378906 61.683594 351.101562 61.566406 351.015625 61.515625 C 350.140625 60.964844 349.425781 60.171875 348.878906 59.320312 C 348.046875 58.023438 347.5625 56.574219 347.074219 55.128906 C 346.621094 53.78125 346.160156 52.429688 345.34375 51.234375 C 344.75 50.359375 343.867188 49.652344 342.96875 49.078125 C 342.800781 48.96875 342.503906 48.878906 342.25 48.765625 C 341.972656 48.644531 341.730469 48.5 341.59375 48.351562 C 341.402344 48.152344 341.40625 47.96875 341.421875 47.851562 C 341.445312 47.667969 341.539062 47.507812 341.738281 47.398438 C 341.796875 47.367188 341.871094 47.335938 341.96875 47.320312 C 342.042969 47.3125 342.320312 47.335938 342.359375 47.339844 C 342.558594 47.335938 342.761719 47.347656 342.957031 47.351562 C 343.585938 47.367188 344.210938 47.386719 344.832031 47.472656 C 346.710938 47.734375 348.546875 48.355469 350.195312 49.269531 C 352.210938 50.390625 354.023438 52.054688 355.0625 54.078125 C 355.347656 54.625 355.523438 55.273438 355.726562 55.910156 C 355.894531 56.4375 356.074219 56.957031 356.40625 57.355469 C 356.585938 57.578125 356.84375 57.660156 357.105469 57.730469 C 357.371094 57.800781 357.640625 57.855469 357.902344 57.933594 C 358.679688 58.160156 359.414062 58.523438 360.046875 59.003906 C 361.246094 59.917969 362.046875 61.210938 362.769531 62.488281 C 363.015625 62.917969 363.230469 63.359375 363.449219 63.804688 C 363.519531 63.957031 363.59375 64.105469 363.65625 64.261719 C 363.703125 64.371094 363.773438 64.675781 363.777344 64.71875 C 363.796875 65.152344 363.460938 65.285156 363.363281 65.316406 C 363.355469 65.320312 363.335938 65.328125 363.3125 65.332031 C 361.832031 66.097656 360.117188 66.542969 358.535156 67.046875 C 358.355469 67.101562 358.175781 67.15625 358 67.214844 L 358.007812 67.21875 C 359.214844 67.6875 360.476562 68.046875 361.730469 68.375 C 361.835938 68.402344 362.589844 68.519531 362.910156 68.636719 C 363.242188 68.757812 363.378906 68.980469 363.417969 69.097656 C 363.457031 69.210938 363.472656 69.382812 363.421875 69.585938 C 363.347656 69.894531 363.070312 70.410156 363.011719 70.554688 C 362.484375 71.804688 361.761719 72.945312 360.882812 73.988281 C 360.09375 74.925781 359.117188 75.652344 358.140625 76.375 C 357.246094 77.039062 356.347656 77.695312 355.632812 78.558594 C 354.75 79.625 354.257812 80.914062 353.574219 82.09375 C 352.628906 83.726562 351.355469 85.171875 349.636719 86.089844 C 348.273438 86.820312 346.777344 87.140625 345.238281 87.28125 C 344.6875 87.332031 344.132812 87.375 343.574219 87.417969 C 343.5 87.421875 343.105469 87.410156 343.03125 87.410156 C 342.761719 87.449219 342.492188 87.308594 342.375 87.0625 C 342.246094 86.789062 342.351562 86.460938 342.621094 86.304688 C 342.648438 86.289062 342.699219 86.261719 342.769531 86.242188 C 343.515625 86.015625 344.199219 85.5625 344.8125 85.101562 C 346.496094 83.84375 348.03125 81.984375 348.40625 79.921875 C 348.539062 79.1875 348.472656 78.417969 348.460938 77.65625 C 348.453125 76.769531 348.507812 75.894531 348.894531 75.078125 C 349.546875 73.691406 351.207031 72.867188 352.558594 72.253906 C 352.820312 72.136719 353.078125 72.023438 353.34375 71.921875 C 351.566406 70.792969 349.605469 69.894531 347.6875 69.054688 C 346.910156 68.714844 346.132812 68.386719 345.359375 68.046875 C 345.089844 67.925781 344.820312 67.808594 344.546875 67.695312 C 343.363281 68.871094 342.058594 69.949219 340.828125 71.078125 C 340.460938 71.417969 340.09375 71.757812 339.730469 72.101562 C 339.667969 72.164062 339.546875 72.320312 339.433594 72.421875 C 339.292969 72.546875 339.148438 72.621094 339.035156 72.648438 C 338.875 72.6875 338.703125 72.660156 338.5625 72.578125 C 336.65625 71.460938 334.710938 70.394531 332.765625 69.339844 C 332.105469 68.980469 331.445312 68.621094 330.78125 68.269531 C 330.578125 68.160156 330.371094 68.050781 330.160156 67.945312 L 330 67.867188 C 329.933594 67.851562 329.867188 67.820312 329.804688 67.777344 C 329.617188 67.644531 329.519531 67.417969 329.558594 67.191406 C 329.59375 67.003906 329.695312 66.851562 329.890625 66.757812 L 329.894531 66.753906 C 330.542969 66.417969 331.132812 65.949219 331.753906 65.558594 C 332.875 64.851562 334.007812 64.15625 335.144531 63.476562 C 335.621094 63.191406 336.097656 62.917969 336.566406 62.632812 L 337.671875 61.96875 C 337.730469 61.902344 337.804688 61.847656 337.890625 61.8125 C 338.078125 61.730469 338.289062 61.746094 338.460938 61.84375 C 340.179688 62.84375 341.820312 63.847656 343.503906 64.898438 C 343.945312 65.171875 344.394531 65.4375 344.839844 65.710938 L 344.902344 65.742188 C 344.929688 65.753906 344.953125 65.765625 344.976562 65.78125 L 345.058594 65.824219 C 346.773438 64.824219 348.945312 63.871094 350.511719 62.746094 C 350.753906 62.570312 351.160156 62.359375 351.539062 62.121094 C 351.648438 62.050781 351.761719 61.980469 351.859375 61.910156 Z M 344.453125 48.632812 C 344.519531 48.640625 344.585938 48.648438 344.65625 48.65625 C 346.378906 48.898438 348.0625 49.464844 349.574219 50.308594 C 351.382812 51.3125 353.019531 52.796875 353.957031 54.613281 C 354.210938 55.105469 354.359375 55.691406 354.539062 56.261719 C 354.753906 56.9375 355.011719 57.589844 355.433594 58.101562 C 355.742188 58.472656 356.125 58.679688 356.550781 58.816406 C 356.867188 58.921875 357.210938 58.980469 357.539062 59.078125 C 358.167969 59.261719 358.765625 59.554688 359.28125 59.945312 C 360.351562 60.757812 361.039062 61.925781 361.679688 63.0625 C 361.914062 63.472656 362.121094 63.890625 362.328125 64.3125 C 362.34375 64.355469 362.367188 64.398438 362.386719 64.445312 C 361.050781 65.078125 359.546875 65.464844 358.148438 65.910156 C 357.664062 66.0625 357.167969 66.207031 356.714844 66.433594 C 356.617188 66.484375 356.40625 66.589844 356.289062 66.707031 C 356.117188 66.875 356.050781 67.078125 356.070312 67.277344 C 356.085938 67.453125 356.183594 67.660156 356.410156 67.835938 C 356.699219 68.050781 357.386719 68.269531 357.546875 68.332031 C 358.796875 68.816406 360.105469 69.191406 361.40625 69.53125 C 361.460938 69.546875 361.777344 69.613281 362.054688 69.671875 C 361.972656 69.851562 361.886719 70.046875 361.863281 70.105469 C 361.386719 71.242188 360.722656 72.28125 359.921875 73.230469 C 359.195312 74.097656 358.289062 74.757812 357.386719 75.421875 C 356.414062 76.144531 355.441406 76.871094 354.664062 77.8125 C 353.742188 78.925781 353.210938 80.273438 352.496094 81.507812 C 351.660156 82.949219 350.554688 84.234375 349.039062 85.042969 C 347.964844 85.617188 346.789062 85.898438 345.585938 86.042969 C 347.492188 84.609375 349.199219 82.472656 349.628906 80.128906 C 349.773438 79.320312 349.714844 78.476562 349.703125 77.640625 C 349.691406 76.929688 349.714844 76.226562 350.019531 75.574219 C 350.558594 74.4375 351.976562 73.839844 353.085938 73.339844 C 353.484375 73.160156 353.882812 72.988281 354.304688 72.855469 C 354.328125 72.847656 354.820312 72.722656 354.917969 72.6875 C 355.351562 72.53125 355.339844 72.144531 355.335938 72.085938 C 355.328125 71.910156 355.234375 71.746094 355.089844 71.640625 C 352.996094 70.128906 350.566406 69 348.195312 67.964844 C 347.425781 67.625 346.644531 67.296875 345.875 66.957031 L 345.664062 66.867188 C 347.414062 65.839844 349.644531 64.859375 351.25 63.707031 C 351.53125 63.503906 352.042969 63.253906 352.457031 62.964844 C 352.839844 62.691406 353.140625 62.378906 353.269531 62.066406 C 353.371094 61.824219 353.34375 61.519531 353.050781 61.238281 C 352.910156 61.101562 352.652344 60.945312 352.375 60.8125 C 352.085938 60.675781 351.773438 60.5625 351.691406 60.507812 C 350.96875 60.054688 350.382812 59.394531 349.933594 58.6875 C 349.152344 57.476562 348.710938 56.113281 348.253906 54.757812 C 347.765625 53.308594 347.257812 51.863281 346.378906 50.574219 C 345.871094 49.828125 345.191406 49.183594 344.453125 48.632812 Z M 338.183594 63.078125 C 339.761719 64.003906 341.273438 64.933594 342.832031 65.902344 C 343.199219 66.132812 343.570312 66.351562 343.9375 66.578125 C 342.699219 67.855469 341.292969 69.003906 339.972656 70.207031 C 339.601562 70.554688 339.226562 70.902344 338.859375 71.253906 C 338.84375 71.265625 338.824219 71.289062 338.796875 71.316406 C 337.007812 70.277344 335.191406 69.28125 333.371094 68.296875 C 332.71875 67.941406 332.070312 67.589844 331.417969 67.242188 C 331.753906 67.011719 332.089844 66.777344 332.429688 66.5625 C 333.542969 65.859375 334.667969 65.167969 335.796875 64.492188 C 336.273438 64.210938 336.753906 63.933594 337.222656 63.648438 C 337.273438 63.617188 337.804688 63.316406 338.183594 63.078125 Z M 330.542969 67.777344 L 330.460938 67.820312 C 330.4375 67.832031 330.417969 67.84375 330.390625 67.851562 C 330.449219 67.832031 330.5 67.804688 330.542969 67.777344 Z M 345.003906 67.144531 C 344.992188 67.191406 344.964844 67.238281 344.9375 67.28125 C 344.964844 67.238281 344.988281 67.195312 345.003906 67.144531 Z M 363.714844 64.492188 C 363.71875 64.503906 363.722656 64.511719 363.722656 64.519531 Z M 363.707031 64.476562 L 363.707031 64.480469 Z M 363.707031 64.476562 " fill-opacity="1" fill-rule="evenodd"/><path fill="#000000" d="M 375.007812 67.835938 L 363.421875 69.585938 L 357.101562 67.367188 L 363.148438 64.953125 Z M 375.007812 67.835938 " fill-opacity="1" fill-rule="evenodd"/><path fill="#000000" d="M 69.46875 23.386719 C 69.667969 23.300781 69.035156 23.363281 68.820312 23.382812 C 68.339844 23.421875 67.863281 23.480469 67.390625 23.550781 C 65.988281 23.757812 64.621094 24.109375 63.273438 24.527344 C 59.34375 25.738281 55.519531 27.574219 52.0625 29.742188 C 44.03125 34.792969 38.097656 42.605469 34.347656 51.054688 C 32.933594 54.246094 31.425781 57.679688 31.425781 61.210938 C 31.402344 61.222656 31.59375 61.460938 31.605469 61.46875 C 31.835938 61.757812 32.097656 62.023438 32.367188 62.277344 C 33.496094 63.324219 34.769531 64.167969 36.207031 64.761719 C 36.328125 64.808594 36.542969 64.730469 36.648438 64.703125 C 37.0625 64.585938 37.460938 64.421875 37.855469 64.257812 C 39.558594 63.546875 41.117188 62.527344 42.585938 61.4375 C 42.992188 61.132812 42.878906 60.402344 43.027344 59.914062 C 43.398438 58.675781 43.773438 57.441406 44.160156 56.210938 C 44.984375 53.605469 46.117188 51.082031 47.398438 48.660156 C 47.566406 48.632812 47.515625 48.34375 47.589844 48.191406 C 47.820312 47.734375 48.0625 47.285156 48.308594 46.839844 C 49.375 44.890625 50.542969 43 51.78125 41.152344 C 55.792969 35.171875 63.449219 27.617188 69.46875 23.386719 Z M 69.46875 23.386719 " fill-opacity="1" fill-rule="evenodd"/><path fill="#000000" d="M 69.46875 115.78125 C 69.667969 115.867188 69.035156 115.804688 68.820312 115.789062 C 68.339844 115.75 67.863281 115.691406 67.390625 115.621094 C 65.988281 115.414062 64.621094 115.058594 63.273438 114.644531 C 59.34375 113.433594 55.519531 111.597656 52.0625 109.425781 C 44.03125 104.375 38.097656 96.566406 34.347656 88.113281 C 32.933594 84.925781 31.425781 81.492188 31.425781 77.957031 C 31.402344 77.945312 31.59375 77.710938 31.605469 77.699219 C 31.835938 77.414062 32.097656 77.148438 32.367188 76.894531 C 33.496094 75.84375 34.769531 75 36.207031 74.410156 C 36.328125 74.359375 36.542969 74.4375 36.648438 74.46875 C 37.0625 74.585938 37.460938 74.746094 37.855469 74.910156 C 39.558594 75.625 41.117188 76.640625 42.585938 77.734375 C 42.992188 78.039062 42.878906 78.769531 43.027344 79.253906 C 43.398438 80.492188 43.773438 81.726562 44.160156 82.960938 C 44.984375 85.5625 46.117188 88.089844 47.398438 90.511719 C 47.566406 90.535156 47.515625 90.828125 47.589844 90.980469 C 47.820312 91.433594 48.0625 91.882812 48.308594 92.332031 C 49.375 94.277344 50.542969 96.171875 51.78125 98.019531 C 55.792969 104 63.449219 111.550781 69.46875 115.78125 Z M 69.46875 115.78125 " fill-opacity="1" fill-rule="evenodd"/><path fill="#000000" d="M 23.160156 63.902344 C 23.222656 63.867188 23.285156 63.832031 23.339844 63.808594 C 23.640625 63.675781 23.917969 63.558594 24.003906 63.507812 C 24.878906 62.957031 25.59375 62.164062 26.140625 61.3125 C 26.972656 60.015625 27.457031 58.566406 27.945312 57.121094 C 28.402344 55.769531 28.859375 54.421875 29.675781 53.226562 C 30.269531 52.351562 31.152344 51.644531 32.050781 51.070312 C 32.21875 50.960938 32.515625 50.867188 32.769531 50.757812 C 33.046875 50.636719 33.289062 50.492188 33.425781 50.34375 C 33.617188 50.144531 33.613281 49.957031 33.597656 49.84375 C 33.574219 49.660156 33.480469 49.5 33.28125 49.386719 C 33.222656 49.359375 33.148438 49.328125 33.050781 49.3125 C 32.976562 49.304688 32.703125 49.328125 32.660156 49.332031 C 32.460938 49.328125 32.257812 49.339844 32.0625 49.34375 C 31.4375 49.359375 30.808594 49.378906 30.1875 49.464844 C 28.308594 49.726562 26.472656 50.34375 24.824219 51.261719 C 22.808594 52.382812 20.996094 54.046875 19.957031 56.070312 C 19.671875 56.617188 19.496094 57.265625 19.296875 57.902344 C 19.128906 58.429688 18.945312 58.945312 18.613281 59.347656 C 18.433594 59.570312 18.175781 59.648438 17.914062 59.722656 C 17.648438 59.792969 17.378906 59.847656 17.117188 59.921875 C 16.339844 60.152344 15.605469 60.511719 14.972656 60.996094 C 13.773438 61.910156 12.972656 63.203125 12.25 64.480469 C 12.003906 64.910156 11.789062 65.351562 11.570312 65.796875 C 11.5 65.949219 11.425781 66.097656 11.363281 66.253906 C 11.316406 66.363281 11.246094 66.667969 11.242188 66.710938 C 11.222656 67.144531 11.558594 67.277344 11.660156 67.308594 C 11.664062 67.3125 11.683594 67.316406 11.707031 67.324219 C 13.191406 68.089844 14.902344 68.535156 16.484375 69.039062 C 16.664062 69.09375 16.84375 69.148438 17.019531 69.207031 L 17.011719 69.210938 C 15.804688 69.679688 14.542969 70.039062 13.289062 70.367188 C 13.183594 70.394531 12.429688 70.511719 12.109375 70.628906 C 11.777344 70.75 11.640625 70.972656 11.601562 71.089844 C 11.5625 71.203125 11.546875 71.375 11.597656 71.578125 C 11.671875 71.886719 11.949219 72.402344 12.007812 72.546875 C 12.535156 73.796875 13.257812 74.9375 14.136719 75.980469 C 14.925781 76.917969 15.902344 77.644531 16.878906 78.367188 C 17.773438 79.027344 18.671875 79.6875 19.386719 80.550781 C 20.269531 81.613281 20.761719 82.90625 21.445312 84.082031 C 22.390625 85.71875 23.664062 87.164062 25.382812 88.082031 C 26.746094 88.8125 28.242188 89.132812 29.78125 89.273438 C 30.332031 89.324219 30.886719 89.367188 31.445312 89.410156 C 31.519531 89.414062 31.914062 89.402344 31.988281 89.402344 C 32.257812 89.4375 32.527344 89.300781 32.644531 89.054688 C 32.773438 88.777344 32.667969 88.453125 32.402344 88.296875 C 32.371094 88.28125 32.320312 88.253906 32.25 88.234375 C 31.503906 88.007812 30.820312 87.554688 30.207031 87.09375 C 28.523438 85.835938 26.988281 83.976562 26.613281 81.914062 C 26.480469 81.179688 26.546875 80.410156 26.558594 79.648438 C 26.570312 78.761719 26.511719 77.886719 26.125 77.070312 C 25.472656 75.683594 23.8125 74.859375 22.460938 74.246094 C 22.199219 74.128906 21.941406 74.015625 21.675781 73.914062 C 23.453125 72.785156 25.414062 71.886719 27.332031 71.046875 C 28.109375 70.707031 28.886719 70.378906 29.660156 70.039062 C 29.933594 69.917969 30.199219 69.800781 30.472656 69.6875 C 31.65625 70.863281 32.960938 71.941406 34.191406 73.070312 C 34.558594 73.40625 34.925781 73.75 35.289062 74.09375 C 35.351562 74.152344 35.472656 74.3125 35.585938 74.414062 C 35.726562 74.539062 35.871094 74.609375 35.984375 74.636719 C 36.144531 74.675781 36.316406 74.652344 36.457031 74.570312 C 38.363281 73.453125 40.308594 72.382812 42.253906 71.332031 C 42.914062 70.972656 43.574219 70.613281 44.238281 70.261719 C 44.445312 70.152344 44.648438 70.039062 44.859375 69.9375 L 45.019531 69.859375 C 45.085938 69.839844 45.152344 69.8125 45.214844 69.769531 C 45.402344 69.636719 45.5 69.410156 45.460938 69.183594 C 45.425781 68.992188 45.324219 68.84375 45.128906 68.75 L 45.125 68.746094 C 44.476562 68.40625 43.886719 67.941406 43.265625 67.550781 C 42.144531 66.84375 41.011719 66.148438 39.875 65.46875 C 39.398438 65.183594 38.921875 64.910156 38.453125 64.625 L 37.347656 63.960938 C 37.289062 63.894531 37.214844 63.839844 37.128906 63.800781 C 36.941406 63.722656 36.730469 63.734375 36.558594 63.835938 C 34.839844 64.835938 33.199219 65.835938 31.515625 66.890625 C 31.074219 67.164062 30.625 67.429688 30.179688 67.703125 L 30.117188 67.734375 C 30.089844 67.746094 30.066406 67.757812 30.042969 67.769531 L 29.960938 67.816406 C 28.246094 66.8125 26.074219 65.863281 24.507812 64.738281 C 24.265625 64.5625 23.859375 64.351562 23.480469 64.113281 C 23.371094 64.042969 23.257812 63.972656 23.160156 63.902344 Z M 30.570312 50.621094 C 30.5 50.628906 30.433594 50.640625 30.367188 50.648438 C 28.640625 50.886719 26.957031 51.457031 25.445312 52.296875 C 23.636719 53.304688 22 54.789062 21.066406 56.601562 C 20.808594 57.09375 20.660156 57.683594 20.480469 58.25 C 20.265625 58.929688 20.007812 59.582031 19.585938 60.09375 C 19.277344 60.464844 18.894531 60.671875 18.46875 60.808594 C 18.152344 60.910156 17.808594 60.972656 17.480469 61.070312 C 16.851562 61.253906 16.253906 61.546875 15.738281 61.9375 C 14.667969 62.75 13.980469 63.917969 13.339844 65.054688 C 13.105469 65.460938 12.898438 65.882812 12.695312 66.304688 C 12.675781 66.347656 12.652344 66.390625 12.632812 66.4375 C 13.96875 67.066406 15.472656 67.457031 16.871094 67.898438 C 17.359375 68.054688 17.851562 68.199219 18.304688 68.425781 C 18.402344 68.476562 18.613281 68.578125 18.730469 68.699219 C 18.902344 68.867188 18.96875 69.070312 18.949219 69.269531 C 18.933594 69.445312 18.835938 69.652344 18.609375 69.828125 C 18.320312 70.042969 17.632812 70.261719 17.472656 70.324219 C 16.222656 70.808594 14.914062 71.183594 13.613281 71.523438 C 13.5625 71.535156 13.242188 71.605469 12.964844 71.660156 C 13.046875 71.84375 13.132812 72.039062 13.15625 72.097656 C 13.632812 73.234375 14.296875 74.273438 15.097656 75.222656 C 15.828125 76.089844 16.730469 76.75 17.632812 77.414062 C 18.605469 78.136719 19.578125 78.863281 20.355469 79.804688 C 21.277344 80.917969 21.808594 82.261719 22.523438 83.5 C 23.359375 84.9375 24.464844 86.226562 25.980469 87.035156 C 27.054688 87.609375 28.230469 87.890625 29.4375 88.035156 C 27.527344 86.601562 25.820312 84.464844 25.390625 82.121094 C 25.246094 81.3125 25.304688 80.46875 25.316406 79.632812 C 25.328125 78.921875 25.304688 78.21875 25 77.566406 C 24.464844 76.429688 23.042969 75.832031 21.933594 75.332031 C 21.535156 75.148438 21.136719 74.980469 20.714844 74.847656 C 20.691406 74.839844 20.199219 74.714844 20.101562 74.679688 C 19.667969 74.519531 19.679688 74.136719 19.683594 74.078125 C 19.695312 73.898438 19.785156 73.738281 19.933594 73.628906 C 22.023438 72.121094 24.453125 70.992188 26.824219 69.957031 C 27.597656 69.617188 28.375 69.289062 29.144531 68.949219 L 29.355469 68.859375 C 27.605469 67.832031 25.375 66.851562 23.769531 65.699219 C 23.488281 65.496094 22.976562 65.246094 22.5625 64.953125 C 22.179688 64.683594 21.878906 64.371094 21.75 64.058594 C 21.648438 63.816406 21.675781 63.511719 21.96875 63.230469 C 22.109375 63.09375 22.367188 62.9375 22.644531 62.804688 C 22.933594 62.667969 23.246094 62.550781 23.328125 62.5 C 24.050781 62.046875 24.636719 61.382812 25.085938 60.679688 C 25.867188 59.464844 26.308594 58.105469 26.765625 56.75 C 27.253906 55.296875 27.761719 53.851562 28.640625 52.566406 C 29.148438 51.820312 29.828125 51.175781 30.570312 50.621094 Z M 36.835938 65.070312 C 35.257812 65.996094 33.746094 66.921875 32.1875 67.894531 C 31.820312 68.125 31.449219 68.34375 31.082031 68.570312 C 32.320312 69.847656 33.726562 70.996094 35.046875 72.199219 C 35.417969 72.546875 35.792969 72.890625 36.160156 73.246094 C 36.175781 73.257812 36.195312 73.28125 36.222656 73.308594 C 38.011719 72.269531 39.828125 71.273438 41.648438 70.289062 C 42.300781 69.933594 42.949219 69.578125 43.605469 69.230469 C 43.265625 69.003906 42.929688 68.765625 42.589844 68.550781 C 41.476562 67.847656 40.351562 67.160156 39.222656 66.484375 C 38.746094 66.203125 38.269531 65.925781 37.796875 65.640625 C 37.746094 65.609375 37.214844 65.308594 36.835938 65.070312 Z M 44.476562 69.769531 L 44.558594 69.8125 C 44.582031 69.824219 44.605469 69.832031 44.628906 69.84375 C 44.570312 69.820312 44.519531 69.796875 44.476562 69.769531 Z M 30.015625 69.136719 C 30.03125 69.183594 30.054688 69.230469 30.082031 69.273438 C 30.054688 69.230469 30.03125 69.183594 30.015625 69.136719 Z M 11.304688 66.484375 C 11.300781 66.492188 11.296875 66.503906 11.296875 66.511719 Z M 11.3125 66.46875 L 11.3125 66.472656 Z M 11.3125 66.46875 " fill-opacity="1" fill-rule="evenodd"/><path fill="#000000" d="M 0.0117188 69.824219 L 11.597656 71.578125 L 17.917969 69.359375 L 11.871094 66.945312 Z M 0.0117188 69.824219 " fill-opacity="1" fill-rule="evenodd"/><path fill="#000000" d="M 267.152344 89.542969 C 267.039062 89.609375 266.703125 89.757812 266.558594 89.824219 C 266.121094 90.042969 265.675781 90.230469 265.222656 90.414062 C 263.886719 90.96875 262.558594 91.492188 261.128906 91.765625 C 256.867188 92.582031 249.953125 92.230469 249.753906 86.703125 C 249.621094 82.96875 252.335938 78.828125 255.167969 76.464844 C 256.34375 75.484375 257.71875 74.585938 259.324219 74.554688 C 260.628906 74.527344 261.910156 75.078125 263.011719 75.710938 C 265.390625 77.082031 267.5625 80.199219 268.796875 82.664062 C 268.785156 82.648438 269.007812 82.597656 269.042969 82.589844 C 269.179688 82.546875 269.324219 82.507812 269.460938 82.464844 C 269.867188 82.34375 270.253906 82.195312 270.644531 82.046875 C 271.863281 81.585938 273.054688 81.0625 274.1875 80.421875 C 275.863281 79.46875 277.425781 78.320312 278.800781 76.988281 C 279.191406 76.609375 279.566406 76.214844 279.945312 75.824219 C 280.007812 75.753906 280.203125 75.488281 280.324219 75.519531 C 280.492188 75.558594 280.457031 75.996094 280.46875 76.101562 C 280.5 76.746094 280.503906 77.390625 280.5625 78.03125 C 280.695312 79.550781 281.140625 80.910156 281.84375 82.265625 C 281.742188 82.34375 282.175781 82.898438 282.21875 82.953125 C 282.738281 83.660156 283.480469 84.226562 284.199219 84.738281 C 286.269531 86.214844 289.175781 86.777344 291.394531 85.234375 C 294.234375 83.261719 295.324219 79.617188 296.460938 76.597656 C 296.777344 75.75 297.105469 74.855469 297.625 74.097656 C 297.808594 73.832031 298.078125 73.457031 298.449219 73.445312 C 298.734375 73.4375 298.921875 73.707031 299.042969 73.921875 C 299.390625 74.515625 299.578125 75.207031 299.734375 75.867188 C 300.292969 78.160156 300.070312 81.332031 302.417969 82.742188 C 304.082031 83.742188 305.980469 83.824219 307.589844 82.695312 C 307.800781 82.546875 308.554688 82.097656 308.628906 81.808594 C 308.734375 81.382812 308.558594 80.828125 308.441406 80.425781 C 308.199219 79.589844 307.332031 77.71875 306.929688 76.941406 C 307.957031 76.21875 308.90625 75.117188 309.40625 74.523438 C 310.066406 73.742188 310.753906 72.980469 311.40625 72.199219 C 311.5 72.085938 311.84375 71.515625 312.015625 71.507812 C 312.417969 71.488281 312.578125 73.351562 312.613281 73.570312 C 312.964844 75.835938 312.914062 78.066406 312.609375 80.335938 C 312.195312 83.398438 311.300781 86.832031 308.617188 88.78125 C 304.136719 92.03125 298.3125 88.25 297.226562 83.589844 C 297.210938 83.539062 297.035156 84.019531 297.023438 84.039062 C 296.898438 84.347656 296.777344 84.660156 296.636719 84.960938 C 296.199219 85.882812 295.644531 86.75 295.078125 87.605469 C 293.425781 90.148438 291.277344 92.261719 288.179688 93.058594 C 286.433594 93.507812 284.355469 93.621094 282.621094 93.042969 C 278.675781 91.730469 277.535156 86.816406 278.394531 83.289062 C 276.820312 84.5625 274.910156 85.5625 273.160156 86.609375 C 271.796875 87.425781 270.339844 88.433594 268.785156 88.882812 C 268.707031 88.757812 268.859375 89.164062 268.890625 89.304688 C 268.941406 89.554688 268.984375 89.804688 269.03125 90.054688 C 269.175781 90.863281 269.28125 91.679688 269.398438 92.496094 C 269.746094 95.03125 268.714844 96.339844 267.21875 98.40625 C 262.871094 104.410156 257.035156 109.777344 250.757812 113.878906 C 250.863281 113.5625 250.21875 114.289062 249.9375 114.480469 C 249.410156 114.832031 248.867188 115.160156 248.316406 115.464844 C 246.570312 116.433594 244.714844 117.273438 242.824219 117.9375 C 237.359375 119.84375 231.398438 118.242188 227.28125 114.390625 C 222.527344 109.941406 222.015625 101.722656 223.117188 95.835938 C 223.570312 93.394531 224.449219 91.101562 225.683594 88.933594 C 225.746094 88.816406 226.855469 86.957031 227.003906 87.167969 C 227.507812 87.90625 226.234375 90.964844 226.0625 91.722656 C 225.253906 95.425781 224.472656 99.484375 225.550781 103.210938 C 226.105469 105.117188 227.265625 106.753906 228.777344 108.070312 C 238.15625 116.234375 250.566406 107.589844 258.804688 101.960938 C 261.089844 100.398438 263.277344 98.738281 265.273438 96.84375 C 266.011719 96.144531 267.160156 95.273438 267.53125 94.292969 C 268.089844 92.804688 267.652344 90.992188 267.152344 89.542969 C 267.199219 89.515625 267.207031 89.503906 267.144531 89.515625 Z M 262.164062 83.375 C 261.25 83.855469 259.929688 84.324219 258.949219 84.6875 C 258.347656 84.90625 257.742188 85.0625 257.109375 85.144531 C 256.6875 85.203125 256.226562 85.222656 255.804688 85.121094 C 254.082031 84.703125 254.214844 82.824219 255.066406 81.683594 C 256.242188 80.113281 258.457031 79.941406 260.058594 80.960938 C 260.6875 81.359375 261.84375 82.730469 262.164062 83.375 Z M 262.164062 83.375 " fill-opacity="1" fill-rule="evenodd"/><path fill="#000000" d="M 229.738281 77.199219 C 229.859375 77.5625 229.5625 78.324219 229.5 78.679688 C 229.269531 79.984375 229.015625 81.289062 228.746094 82.585938 C 228.636719 83.140625 228.285156 83.910156 228.515625 84.472656 C 228.808594 85.203125 229.871094 84.816406 230.222656 85.386719 C 230.675781 86.113281 230.84375 87.15625 231.15625 87.953125 C 231.757812 89.507812 232.488281 90.960938 233.355469 92.390625 C 234.78125 94.742188 237.410156 97.078125 238.019531 99.816406 C 237.78125 99.820312 237.871094 100.253906 237.761719 100.457031 C 237.429688 101.101562 237.042969 101.714844 236.640625 102.316406 C 235.148438 104.554688 233.171875 106.351562 230.972656 107.9375 C 228.242188 109.914062 225.335938 111.640625 222.390625 113.308594 C 215.601562 117.148438 207.753906 121.15625 199.695312 118.949219 C 193.316406 117.203125 191.8125 110.109375 192.625 104.46875 C 192.917969 102.425781 193.402344 100.40625 194.023438 98.433594 C 194.277344 97.621094 194.570312 96.8125 194.804688 95.988281 C 194.828125 95.890625 195.035156 95.300781 194.761719 95.339844 C 194.117188 95.433594 193.507812 96.804688 193.25 97.25 C 191.863281 99.652344 191.117188 102.316406 190.722656 105.027344 C 189.535156 113.1875 191.292969 125.535156 201.609375 126.976562 C 213.6875 128.660156 224.660156 120.246094 232.96875 112.90625 C 236.3125 109.949219 240.75 106.027344 241.558594 101.464844 C 242.359375 96.929688 240.5625 92.484375 237.992188 88.761719 C 237.117188 87.492188 235.246094 86.085938 234.730469 84.652344 C 234.484375 83.972656 236.386719 83.382812 236.828125 83.164062 C 237.027344 83.0625 237.582031 82.867188 237.410156 82.570312 C 237.011719 81.890625 236.074219 81.46875 235.453125 81.027344 C 233.933594 79.964844 231.175781 78.363281 229.738281 77.199219 Z M 229.738281 77.199219 " fill-opacity="1" fill-rule="evenodd"/><path fill="#000000" d="M 209.285156 57.488281 C 209.667969 57.789062 212.394531 57.6875 212.074219 56.84375 C 211.863281 56.285156 211.054688 55.773438 210.609375 55.402344 C 209.132812 54.191406 207.523438 53.0625 205.910156 52.027344 C 205.648438 51.859375 204.101562 50.648438 203.78125 51.03125 C 203.136719 51.804688 203.421875 53.976562 203.363281 54.910156 C 203.332031 55.53125 202.917969 56.960938 203.304688 57.507812 C 203.742188 58.121094 204.660156 57.894531 204.976562 58.679688 C 205.371094 59.65625 205.558594 60.648438 206.0625 61.601562 C 207.285156 63.90625 209.183594 65.875 211.144531 67.617188 C 211.023438 67.578125 210.300781 68.714844 210.238281 68.808594 C 209.285156 70.144531 208.363281 71.496094 207.488281 72.882812 C 204.898438 76.992188 204.472656 81.523438 205.195312 86.238281 C 205.710938 89.636719 207.570312 92.097656 211.429688 91.535156 C 214.023438 91.160156 215.949219 89.507812 217.71875 87.761719 C 222.058594 83.480469 224.742188 77.28125 222.277344 71.335938 C 221.605469 69.707031 219.804688 68.582031 218.371094 67.628906 C 217.886719 67.308594 216.738281 66.832031 216.929688 66.132812 C 217.269531 64.878906 218.640625 63.636719 219.433594 62.632812 C 221.261719 60.308594 223.105469 57.988281 224.75 55.535156 C 225.300781 54.71875 227.292969 52.503906 226.46875 51.417969 C 225.324219 49.90625 223.285156 52.648438 222.660156 53.335938 C 222.359375 53.660156 222.066406 53.988281 221.777344 54.324219 C 221.460938 54.6875 221.144531 55.054688 220.828125 55.425781 C 220.496094 55.8125 220.171875 56.203125 219.84375 56.59375 C 219.101562 57.476562 218.367188 58.367188 217.640625 59.257812 C 216.914062 60.152344 216.195312 61.058594 215.488281 61.972656 C 215.269531 62.265625 214.941406 62.921875 214.5625 63.058594 C 214.160156 63.203125 213.390625 62.371094 213.144531 62.152344 C 211.921875 61.074219 210.386719 58.679688 209.285156 57.488281 Z M 213.402344 70.542969 C 211.652344 72.601562 209.886719 74.6875 208.457031 76.976562 C 207.519531 78.484375 206.738281 80.308594 207.195312 82.097656 C 207.582031 83.566406 209.863281 83.648438 211.109375 83.6875 C 214.878906 83.816406 218.695312 80.785156 220.699219 77.925781 C 220.585938 77.792969 220.554688 77.320312 220.488281 77.148438 C 220.226562 76.527344 219.917969 75.949219 219.542969 75.390625 C 218.265625 73.5 215.335938 71.746094 213.402344 70.542969 Z M 213.402344 70.542969 " fill-opacity="1" fill-rule="evenodd"/><path fill="#000000" d="M 201.21875 34.765625 L 206.238281 29.144531 L 213.753906 35.117188 L 208.953125 40.578125 Z M 201.21875 34.765625 " fill-opacity="1" fill-rule="evenodd"/><path fill="#000000" d="M 213.21875 34.765625 L 218.238281 29.144531 L 225.753906 35.117188 L 220.953125 40.578125 Z M 213.21875 34.765625 " fill-opacity="1" fill-rule="evenodd"/><path fill="#000000" d="M 155.480469 60.855469 L 160.496094 55.234375 L 168.015625 61.210938 L 163.210938 66.667969 Z M 155.480469 60.855469 " fill-opacity="1" fill-rule="evenodd"/><path fill="#000000" d="M 306.074219 53.199219 C 306.074219 53.199219 291.667969 67.367188 283.644531 71.21875 C 283.644531 71.21875 283.988281 72.367188 294.402344 65.394531 C 294.402344 65.394531 302.488281 60.210938 307.121094 53.949219 C 307.121094 53.949219 308.628906 55.175781 309.023438 55.503906 C 309.023438 55.503906 310.855469 53.523438 310.023438 52.601562 L 308.695312 51.40625 C 308.695312 51.40625 311.355469 45.648438 309 44.277344 C 309 44.277344 306.1875 42.3125 303.203125 47.648438 C 303.203125 47.648438 301.988281 49.855469 303.773438 51.324219 Z M 304.828125 47.925781 C 304.828125 47.925781 305.066406 45.980469 306.738281 46.359375 C 306.738281 46.359375 308.644531 46.949219 307.824219 50.601562 C 307.824219 50.601562 305.800781 49.515625 304.828125 47.925781 Z M 304.828125 47.925781 " fill-opacity="1" fill-rule="evenodd"/><path fill="#000000" d="M 270.738281 50.597656 C 270.738281 50.597656 275.675781 40.957031 277.710938 39.914062 C 277.710938 39.914062 296.566406 39.679688 298.085938 42.578125 C 298.085938 42.578125 299.640625 47.347656 285.019531 59.582031 L 269.523438 61.9375 C 269.523438 61.9375 266.496094 62.925781 277.835938 57.097656 L 288.933594 51.324219 C 288.933594 51.324219 282.121094 48.523438 270.738281 50.597656 Z M 270.738281 50.597656 " fill-opacity="1" fill-rule="evenodd"/><path fill="#000000" d="M 89.875 52.453125 C 89.875 52.453125 94.8125 42.8125 96.847656 41.765625 C 96.847656 41.765625 115.703125 41.535156 117.222656 44.429688 C 117.222656 44.429688 118.777344 49.203125 104.15625 61.4375 L 88.660156 63.792969 C 88.660156 63.792969 85.628906 64.78125 96.96875 58.953125 L 108.070312 53.179688 C 108.070312 53.179688 101.257812 50.378906 89.875 52.453125 Z M 89.875 52.453125 " fill-opacity="1" fill-rule="evenodd"/><path fill="#000000" d="M 232.628906 58.457031 L 231.28125 62.003906 L 259.867188 50.074219 L 261.691406 46.113281 Z M 232.628906 58.457031 " fill-opacity="1" fill-rule="evenodd"/><path fill="#000000" d="M 129.863281 38.21875 L 128.519531 41.765625 L 157.105469 29.832031 L 158.929688 25.871094 Z M 129.863281 38.21875 " fill-opacity="1" fill-rule="evenodd"/><path fill="#000000" d="M 242.0625 68.476562 L 241.335938 69.609375 L 238.605469 67.089844 C 238.605469 67.089844 237.777344 62.199219 240.699219 63.355469 C 240.699219 63.355469 245.058594 65.296875 246.476562 72.707031 C 246.476562 72.707031 248.613281 61.246094 251.714844 62.042969 C 251.714844 62.042969 254.011719 62.472656 254.476562 64.777344 L 252.9375 67.5625 C 252.9375 67.5625 250.667969 62.320312 248.953125 68.078125 C 248.953125 68.078125 247.050781 77.304688 245.914062 77.839844 C 245.914062 77.839844 245.828125 79.085938 244.382812 72.679688 C 244.382812 72.679688 242.59375 68.460938 242.0625 68.476562 Z M 242.0625 68.476562 " fill-opacity="1" fill-rule="evenodd"/><path fill="#000000" d="M 242.0625 38.417969 L 241.335938 39.546875 L 238.605469 37.027344 C 238.605469 37.027344 237.777344 32.136719 240.699219 33.292969 C 240.699219 33.292969 245.058594 35.234375 246.476562 42.644531 C 246.476562 42.644531 248.613281 31.183594 251.714844 31.980469 C 251.714844 31.980469 254.011719 32.410156 254.476562 34.71875 L 252.9375 37.5 C 252.9375 37.5 250.667969 32.261719 248.953125 38.015625 C 248.953125 38.015625 247.050781 47.242188 245.914062 47.78125 C 245.914062 47.78125 245.828125 49.023438 244.382812 42.621094 C 244.382812 42.621094 242.59375 38.398438 242.0625 38.417969 Z M 242.0625 38.417969 " fill-opacity="1" fill-rule="evenodd"/><path fill="#000000" d="M 212.007812 92.683594 C 211.90625 92.644531 211.3125 93.726562 211.265625 93.804688 C 210.425781 95.253906 209.582031 96.703125 208.792969 98.179688 C 206.785156 101.933594 204.652344 105.722656 204.015625 109.894531 C 203.742188 111.679688 203.644531 113.691406 204.503906 115.371094 C 205.457031 117.226562 207.925781 118.121094 209.746094 116.683594 C 211.40625 115.371094 212.394531 113.257812 212.855469 111.347656 C 213.007812 110.707031 213.25 109.933594 213.125 109.273438 C 213.09375 109.109375 212.996094 108.675781 212.714844 108.855469 C 211.480469 109.652344 211.140625 113.257812 208.851562 111.871094 C 208.601562 111.714844 208.371094 111.527344 208.167969 111.320312 C 207.859375 111 207.636719 110.628906 207.457031 110.238281 C 206.75 108.699219 206.921875 106.96875 207.40625 105.398438 C 208.238281 102.71875 209.773438 100.191406 211.046875 97.667969 C 211.765625 96.25 213.515625 93.265625 212.007812 92.683594 Z M 212.007812 92.683594 " fill-opacity="1" fill-rule="evenodd"/><path fill="#000000" d="M 69.1875 49.167969 C 69.050781 49.113281 68.253906 50.644531 68.191406 50.753906 C 67.058594 52.808594 65.921875 54.863281 64.859375 56.949219 C 62.15625 62.269531 59.28125 67.636719 58.421875 73.546875 C 58.054688 76.078125 57.925781 78.925781 59.082031 81.304688 C 60.363281 83.933594 63.691406 85.199219 66.144531 83.160156 C 68.378906 81.304688 69.710938 78.3125 70.328125 75.601562 C 70.535156 74.695312 70.863281 73.601562 70.695312 72.667969 C 70.652344 72.433594 70.519531 71.820312 70.144531 72.074219 C 68.480469 73.203125 68.023438 78.3125 64.9375 76.34375 C 64.601562 76.128906 64.289062 75.859375 64.019531 75.566406 C 63.605469 75.109375 63.300781 74.585938 63.058594 74.03125 C 62.109375 71.851562 62.335938 69.402344 62.992188 67.179688 C 64.109375 63.382812 66.179688 59.800781 67.894531 56.230469 C 68.863281 54.214844 71.222656 49.992188 69.1875 49.167969 Z M 69.1875 49.167969 " fill-opacity="1" fill-rule="evenodd"/><path fill="#000000" d="M 180.746094 43.09375 C 180.824219 43.082031 181.832031 44.257812 181.902344 44.328125 C 182.257812 44.691406 183.714844 46.367188 184.363281 45.921875 C 184.617188 45.75 184.375 45.074219 184.316406 44.863281 C 184.039062 43.882812 183.636719 42.925781 183.210938 42.003906 C 181.800781 38.960938 180.144531 36.035156 178.421875 33.164062 C 178.007812 32.46875 177.347656 30.738281 176.523438 30.429688 C 175.730469 30.128906 175.117188 31.929688 174.929688 32.394531 C 173.992188 34.683594 173.300781 35.566406 175.101562 37.410156 C 174.710938 38.039062 175.1875 40.027344 175.246094 40.695312 C 175.515625 43.796875 175.960938 46.894531 176.390625 49.980469 C 177.496094 57.890625 179.5 65.644531 180.429688 73.574219 C 180.808594 76.816406 181.210938 80.234375 180.832031 83.492188 C 180.828125 83.484375 180.675781 83.777344 180.632812 83.84375 C 180.5 84.054688 180.351562 84.257812 180.195312 84.457031 C 179.667969 85.117188 179.050781 85.714844 178.414062 86.269531 C 176.289062 88.105469 174.058594 89.425781 171.160156 89.253906 C 168.210938 89.074219 166.28125 86.996094 165.566406 84.242188 C 165.3125 83.273438 165.195312 82.285156 165.144531 81.289062 C 165.128906 81.023438 165.199219 80.417969 164.851562 80.316406 C 164.367188 80.179688 163.636719 80.722656 163.261719 80.953125 C 161.976562 81.742188 160.6875 82.519531 159.382812 83.273438 C 155.191406 85.683594 151.375 87.5 146.582031 88.03125 C 146.28125 88.066406 146.898438 87.515625 147.019531 87.242188 C 147.28125 86.660156 147.519531 86.066406 147.75 85.476562 C 148.445312 83.703125 148.492188 81.957031 148.074219 80.101562 C 146.882812 74.828125 142.71875 70.046875 137.46875 68.578125 C 133.53125 67.484375 129.558594 68.894531 126.226562 71.003906 C 119.972656 74.949219 114.710938 82.160156 111.875 88.976562 C 111.582031 88.015625 109.054688 86.859375 108.3125 86.390625 C 104.019531 83.6875 98.917969 82.191406 93.996094 84.058594 C 86.152344 87.039062 79.851562 94.921875 74.867188 101.34375 C 71.410156 105.796875 67.136719 111.582031 61.027344 112.269531 C 56.882812 112.738281 53.753906 109.808594 53.539062 105.714844 C 53.269531 100.675781 55.371094 95.414062 57.703125 91.050781 C 58.585938 89.402344 59.644531 87.859375 60.5625 86.234375 C 60.6875 86.007812 61.390625 84.839844 60.933594 84.625 C 60.492188 84.414062 59.785156 85.347656 59.5625 85.585938 C 58.226562 87.007812 57.140625 88.601562 56.097656 90.246094 C 52.539062 95.847656 48.203125 103.261719 50.15625 110.199219 C 52.386719 118.109375 62.804688 120.234375 68.660156 115.273438 C 76.261719 108.832031 81.050781 99.625 89.402344 93.933594 C 93.265625 91.300781 98.90625 88.832031 103.628906 90.597656 C 105.800781 91.40625 107.457031 92.929688 109.089844 94.507812 C 108.851562 94.523438 108.714844 95.195312 108.671875 95.367188 C 108.472656 96.234375 108.238281 99.011719 109.671875 97.4375 C 109.863281 97.226562 110.046875 97.015625 110.21875 96.785156 C 110.460938 96.46875 110.664062 96.121094 110.847656 95.765625 C 110.871094 95.726562 111.6875 95.910156 111.886719 95.945312 C 113.121094 96.152344 114.351562 96.328125 115.59375 96.480469 C 120.738281 97.109375 125.773438 97.253906 130.941406 96.765625 C 138.199219 96.082031 145.46875 94.339844 152.300781 91.820312 C 154.296875 91.085938 156.285156 90.300781 158.140625 89.257812 C 159.039062 88.753906 160.273438 87.613281 161.328125 87.492188 C 162.070312 87.40625 162.230469 89.410156 162.371094 89.859375 C 163.058594 92.003906 164.132812 93.957031 166.257812 94.9375 C 175.109375 99 183.046875 89.253906 184.402344 81.445312 C 184.539062 81.425781 184.542969 79.460938 184.542969 79.328125 C 184.558594 77.015625 184.464844 74.703125 184.308594 72.398438 C 183.683594 63.074219 181.054688 51.042969 180.089844 41.761719 Z M 114.058594 90.25 C 114.144531 89.589844 115.164062 87.777344 115.507812 87.207031 C 116.472656 85.628906 117.507812 84.09375 118.652344 82.636719 C 122.386719 77.890625 127.710938 74.566406 133.898438 75.003906 C 137.746094 75.273438 141.617188 77.050781 143.652344 80.453125 C 144.089844 81.183594 145.386719 83.273438 144.9375 84.171875 C 144.496094 85.046875 143.46875 85.980469 142.664062 86.453125 C 140.535156 87.707031 138.539062 88.707031 136.160156 89.386719 C 133.503906 90.148438 130.160156 90.746094 127.40625 90.929688 C 123.273438 91.199219 118.136719 91.128906 114.058594 90.25 Z M 114.058594 90.25 " fill-opacity="1" fill-rule="evenodd"/><path fill="#000000" d="M 302.222656 95.152344 C 302.277344 95.152344 302.171875 95.253906 302.144531 95.300781 C 302.082031 95.417969 302.003906 95.53125 301.933594 95.648438 C 301.75 95.964844 301.417969 96.351562 301.339844 96.71875 C 301.261719 97.078125 301.886719 97.371094 301.726562 97.824219 C 301.621094 98.113281 301.292969 98.238281 301.027344 98.3125 C 300.351562 98.507812 299.457031 98.304688 299.09375 97.640625 C 298.816406 97.128906 299.074219 96.570312 299.3125 96.101562 C 299.359375 96 299.601562 95.625 299.425781 95.53125 C 299.109375 95.375 298.589844 96.273438 298.46875 96.441406 C 297.832031 97.320312 297.09375 98.773438 295.988281 99.128906 C 295.113281 99.40625 294.136719 98.894531 293.300781 98.714844 C 292.390625 98.523438 291.425781 98.628906 290.554688 98.945312 C 288.382812 99.742188 286.445312 101.265625 284.632812 102.691406 C 282.207031 104.605469 279.355469 106.550781 276.789062 108.273438 C 276.875 108.296875 276.632812 108.355469 276.554688 108.398438 C 276.394531 108.496094 276.230469 108.589844 276.066406 108.683594 C 275.554688 108.976562 275.042969 109.269531 274.53125 109.566406 C 272.871094 110.542969 271.15625 111.441406 269.433594 112.296875 C 268.738281 112.640625 268.039062 112.96875 267.347656 113.3125 C 267.296875 113.335938 266.660156 113.632812 266.832031 113.785156 C 266.945312 113.886719 267.335938 113.789062 267.46875 113.773438 C 268.128906 113.695312 268.773438 113.480469 269.417969 113.308594 C 272.324219 112.550781 274.855469 111.726562 277.378906 110.007812 C 280.359375 107.980469 283.171875 105.699219 286.082031 103.566406 C 287.660156 102.410156 289.371094 100.992188 291.257812 100.398438 C 292.902344 99.878906 294.15625 101.746094 295.816406 101.234375 C 296.636719 100.984375 297.242188 100.175781 297.714844 99.492188 C 297.773438 99.410156 298.132812 98.691406 298.246094 98.710938 C 298.320312 98.722656 298.398438 98.984375 298.417969 99.039062 C 298.515625 99.34375 298.617188 99.660156 298.816406 99.914062 C 299.332031 100.558594 300.378906 100.65625 301.121094 100.464844 C 302.964844 99.988281 303.027344 96.414062 302.222656 95.152344 Z M 302.222656 95.152344 " fill-opacity="1" fill-rule="evenodd"/><path fill="#000000" d="M 137.835938 107.980469 C 137.84375 108.019531 137.871094 107.902344 137.894531 107.863281 C 137.949219 107.769531 138 107.671875 138.046875 107.574219 C 138.195312 107.292969 138.371094 107.023438 138.558594 106.761719 C 139.121094 105.988281 139.777344 105.253906 140.488281 104.582031 C 140.902344 104.191406 141.335938 103.816406 141.777344 103.445312 C 143.550781 101.945312 145.695312 100.371094 148.304688 100.808594 C 148.742188 100.878906 149.222656 100.9375 149.613281 101.148438 C 150.898438 101.839844 150.589844 103.558594 150.140625 104.59375 C 148.984375 107.273438 146.300781 109.03125 143.417969 110.132812 C 143.414062 110.128906 143.410156 110.128906 143.40625 110.128906 C 142.878906 110.058594 141.808594 110.589844 141.289062 110.722656 C 139.847656 111.089844 138.511719 111.304688 137.007812 111.222656 C 134.277344 111.082031 132.625 109.902344 129.640625 110.273438 C 127.132812 110.589844 124.902344 111.804688 122.792969 112.984375 C 120.726562 114.136719 118.652344 115.328125 116.730469 116.671875 C 115.171875 117.761719 113.730469 118.96875 112.171875 120.050781 C 110.132812 121.464844 107.742188 122.476562 105.21875 122.96875 C 104.898438 123.03125 103.035156 123.414062 102.800781 123.132812 C 102.679688 122.988281 103.316406 122.726562 103.390625 122.695312 C 104.148438 122.347656 104.957031 122.09375 105.71875 121.75 C 107.667969 120.875 109.503906 119.796875 111.222656 118.59375 C 115.714844 115.445312 119.605469 111.800781 124.625 109.273438 C 126.703125 108.226562 129.148438 107.136719 131.550781 106.886719 C 133.511719 106.683594 134.457031 108.34375 137.835938 107.980469 Z M 139.332031 107.925781 C 139.425781 107.90625 139.625 107.617188 139.691406 107.554688 C 140.0625 107.1875 140.441406 106.835938 140.832031 106.488281 C 141.609375 105.792969 142.425781 105.128906 143.3125 104.546875 C 143.875 104.183594 144.488281 103.828125 145.167969 103.671875 C 145.960938 103.488281 146.941406 103.515625 147.640625 103.941406 C 147.785156 104.027344 148.230469 104.316406 148.183594 104.507812 C 148.152344 104.632812 148 104.742188 147.898438 104.820312 C 147.597656 105.054688 147.246094 105.25 146.90625 105.433594 C 144.679688 106.652344 140.347656 107.957031 139.332031 107.925781 Z M 139.332031 107.925781 " fill-opacity="1" fill-rule="evenodd"/><path fill="#000000" d="M 186.101562 30.402344 L 188.390625 25.875 C 188.390625 25.875 195.289062 38.640625 194 40.488281 C 194 40.488281 192.632812 39.632812 191.21875 37.816406 C 191.21875 37.816406 191.796875 45.558594 192.980469 55.304688 C 195.015625 72.035156 197.484375 94.859375 192.0625 96.03125 C 192.0625 96.03125 192.976562 87.550781 191.082031 75.371094 C 191.082031 75.371094 187.558594 33.769531 186.101562 30.402344 Z M 186.101562 30.402344 " fill-opacity="1" fill-rule="evenodd"/><path fill="#000000" d="M 164.8125 33.910156 C 164.785156 33.890625 164.320312 34.664062 164.292969 34.707031 C 163.761719 35.59375 163.191406 36.539062 163.070312 37.578125 C 162.78125 40.015625 164.765625 42.148438 165.496094 44.347656 C 165.800781 45.277344 166.199219 46.632812 164.910156 47.011719 C 163.171875 47.523438 161.320312 46.105469 160.722656 44.609375 C 160.34375 43.648438 160.300781 42.53125 160.199219 41.519531 C 160.144531 40.988281 160.085938 40.460938 160.015625 39.933594 C 159.921875 39.226562 159.777344 38.539062 159.59375 37.847656 C 159.34375 36.914062 159.089844 35.964844 158.644531 35.097656 C 158.597656 35.003906 158.339844 34.375 158.191406 34.386719 C 157.941406 34.40625 157.695312 35.070312 157.605469 35.246094 C 157.160156 36.140625 156.5625 37.132812 156.398438 38.128906 C 156.277344 38.882812 157.070312 39.949219 157.328125 40.632812 C 158.109375 42.6875 158.625 46.0625 156.621094 47.648438 C 155.222656 48.75 153.203125 48.460938 152.597656 46.710938 C 152.246094 45.699219 152.371094 44.550781 152.464844 43.507812 C 152.574219 42.253906 152.683594 40.976562 152.542969 39.71875 C 152.445312 38.867188 152.207031 38.039062 151.871094 37.25 C 151.816406 37.125 151.652344 36.546875 151.433594 36.601562 C 151.128906 36.683594 150.957031 37.230469 150.855469 37.46875 C 150.523438 38.253906 150.132812 39.054688 149.898438 39.875 C 149.761719 40.34375 149.953125 40.820312 150.058594 41.277344 C 150.210938 41.925781 150.3125 42.578125 150.34375 43.246094 C 150.453125 45.816406 149.339844 49.699219 151.65625 51.671875 C 151.945312 51.921875 152.277344 52.117188 152.636719 52.257812 C 155.179688 53.25 157.261719 50.914062 158.25 48.925781 C 158.546875 48.332031 158.78125 47.699219 158.925781 47.054688 C 158.9375 47.003906 159.003906 46.464844 159.046875 46.457031 C 159.058594 46.457031 159.183594 47.179688 159.191406 47.21875 C 159.324219 47.792969 159.503906 48.359375 159.746094 48.898438 C 160.421875 50.417969 161.65625 51.269531 163.320312 51.566406 C 163.847656 51.660156 164.417969 51.714844 164.949219 51.601562 C 166.671875 51.242188 167.261719 48.949219 167.664062 47.554688 C 168.984375 42.988281 166.203125 38.222656 164.8125 33.910156 Z M 164.8125 33.910156 " fill-opacity="1" fill-rule="evenodd"/></svg>