<svg xmlns="http://www.w3.org/2000/svg" xmlns:xlink="http://www.w3.org/1999/xlink" width="500" zoomAndPan="magnify" viewBox="0 0 375 149.999998" height="200" preserveAspectRatio="xMidYMid meet" version="1.0"><defs><clipPath id="f9d7d3ed48"><path d="M 302 19.6875 L 342 19.6875 L 342 69 L 302 69 Z M 302 19.6875 " clip-rule="nonzero"/></clipPath><clipPath id="8c39dd95d1"><path d="M 33 19.6875 L 73 19.6875 L 73 69 L 33 69 Z M 33 19.6875 " clip-rule="nonzero"/></clipPath></defs><g clip-path="url(#f9d7d3ed48)"><path fill="#000000" d="M 302.238281 19.753906 C 301.988281 19.691406 302.753906 19.796875 303.003906 19.847656 C 303.492188 19.941406 303.980469 20.054688 304.46875 20.148438 C 305.871094 20.421875 307.242188 20.769531 308.597656 21.253906 C 312.691406 22.707031 316.617188 24.890625 320.214844 27.445312 C 328.921875 33.625 335.445312 42.90625 339.046875 53.484375 C 339.921875 56.0625 340.679688 58.6875 341.292969 61.355469 C 341.511719 62.3125 342.042969 63.675781 341.628906 64.644531 C 340.910156 66.34375 339.011719 67.414062 337.679688 68.460938 C 337.855469 68.679688 337.15625 68.53125 336.890625 68.582031 C 336.355469 68.683594 335.773438 68.449219 335.277344 68.246094 C 333.878906 67.671875 332.484375 66.421875 331.164062 65.601562 C 330.09375 64.9375 330.042969 63.292969 329.722656 62.105469 C 329.03125 59.5625 328.160156 57.078125 327.21875 54.632812 C 322.390625 42.046875 312.144531 28.167969 302.238281 19.753906 Z M 302.238281 19.753906 " fill-opacity="1" fill-rule="evenodd"/></g><path fill="#000000" d="M 302.238281 129.898438 C 301.988281 129.960938 302.753906 129.851562 303.003906 129.804688 C 303.492188 129.707031 303.980469 129.597656 304.46875 129.503906 C 305.871094 129.226562 307.242188 128.882812 308.597656 128.398438 C 312.691406 126.941406 316.617188 124.761719 320.214844 122.207031 C 328.921875 116.027344 335.445312 106.746094 339.046875 96.164062 C 339.921875 93.589844 340.679688 90.960938 341.292969 88.296875 C 341.511719 87.339844 342.042969 85.976562 341.628906 85.003906 C 340.910156 83.308594 339.011719 82.234375 337.679688 81.191406 C 337.855469 80.96875 337.15625 81.121094 336.890625 81.070312 C 336.355469 80.96875 335.773438 81.199219 335.277344 81.40625 C 333.878906 81.980469 332.484375 83.230469 331.164062 84.050781 C 330.09375 84.714844 330.042969 86.359375 329.722656 87.546875 C 329.03125 90.089844 328.160156 92.574219 327.21875 95.019531 C 322.390625 107.605469 312.144531 121.484375 302.238281 129.898438 Z M 302.238281 129.898438 " fill-opacity="1" fill-rule="evenodd"/><path fill="#000000" d="M 350.921875 68.023438 C 350.769531 67.933594 350.625 67.859375 350.542969 67.796875 C 349.722656 67.207031 349.011719 66.523438 348.4375 65.644531 C 346.445312 62.589844 345.765625 58.777344 343.773438 55.703125 C 343.109375 54.679688 342.289062 53.792969 341.375 53.027344 C 340.96875 52.6875 340.527344 52.390625 340.117188 52.046875 C 340.023438 51.96875 339.789062 51.765625 339.707031 51.601562 C 339.570312 51.351562 339.582031 51.105469 339.675781 50.894531 C 339.738281 50.75 339.863281 50.566406 340.160156 50.480469 C 341.398438 50.128906 343.125 50.664062 344.28125 51.050781 C 347.527344 52.136719 350.738281 54.175781 352.730469 57.230469 C 353.265625 58.050781 353.648438 58.988281 354.042969 59.917969 C 354.398438 60.753906 354.761719 61.582031 355.296875 62.277344 C 355.664062 62.753906 356.140625 63.082031 356.636719 63.382812 C 357.207031 63.730469 357.808594 64.039062 358.347656 64.425781 C 359.898438 65.546875 360.90625 67.316406 361.628906 69.140625 C 361.863281 69.730469 362.078125 70.332031 362.253906 70.945312 C 362.324219 71.1875 362.378906 71.4375 362.421875 71.6875 C 362.433594 71.757812 362.433594 71.941406 362.429688 72.046875 C 362.4375 72.101562 362.433594 72.152344 362.425781 72.207031 C 362.371094 72.601562 362.136719 72.730469 361.941406 72.761719 C 360.46875 73.34375 359.003906 73.941406 357.542969 74.566406 L 357.453125 74.601562 C 358.390625 75.105469 359.324219 75.617188 360.257812 76.125 C 360.457031 76.234375 361 76.40625 361.355469 76.613281 C 361.648438 76.785156 361.847656 77.011719 361.929688 77.210938 C 362.003906 77.390625 362.03125 77.636719 361.988281 77.914062 C 361.941406 78.25 361.78125 78.664062 361.722656 78.859375 C 361.359375 80.109375 360.820312 81.335938 360.167969 82.4375 C 359.566406 83.46875 358.84375 84.402344 357.96875 85.167969 C 356.820312 86.171875 355.472656 86.910156 354.546875 88.1875 C 353.90625 89.070312 353.527344 90.109375 353.125 91.144531 C 352.679688 92.296875 352.214844 93.441406 351.445312 94.417969 C 349.457031 96.941406 346.578125 98.589844 343.523438 98.855469 C 342.828125 98.914062 342.113281 98.957031 341.417969 98.90625 C 341.320312 98.898438 340.890625 98.871094 340.695312 98.769531 C 340.464844 98.652344 340.347656 98.460938 340.304688 98.277344 C 340.253906 98.066406 340.273438 97.777344 340.53125 97.539062 C 340.652344 97.429688 341.035156 97.25 341.101562 97.222656 C 341.53125 96.996094 341.9375 96.726562 342.335938 96.441406 C 343.382812 95.691406 344.289062 94.738281 345.027344 93.636719 C 345.660156 92.691406 346.21875 91.644531 346.652344 90.574219 C 346.785156 90.246094 346.921875 89.910156 347.007812 89.5625 C 347.019531 89.507812 347.042969 89.320312 347.070312 89.199219 C 347.015625 88.121094 346.847656 87.035156 346.898438 86.015625 C 346.964844 84.792969 347.320312 83.664062 348.410156 82.71875 C 349.515625 81.757812 350.824219 81.222656 352.070312 80.539062 C 352.144531 80.5 352.308594 80.402344 352.441406 80.328125 C 352.003906 79.796875 351.265625 79.402344 350.738281 79.074219 C 349.074219 78.027344 347.261719 77.246094 345.476562 76.472656 C 344.679688 76.125 343.882812 75.800781 343.070312 75.515625 C 342.75 75.40625 342.429688 75.296875 342.105469 75.207031 L 342.039062 75.183594 C 340.746094 76.648438 339.234375 77.917969 337.84375 79.261719 C 337.460938 79.628906 337.074219 79.988281 336.691406 80.359375 C 336.65625 80.40625 336.492188 80.597656 336.410156 80.671875 C 336.328125 80.746094 336.253906 80.789062 336.199219 80.8125 C 335.960938 80.917969 335.769531 80.851562 335.640625 80.765625 C 333.871094 79.605469 332.121094 78.410156 330.378906 77.195312 C 329.796875 76.789062 329.222656 76.375 328.636719 75.976562 C 328.445312 75.847656 328.257812 75.722656 328.0625 75.597656 C 327.996094 75.554688 327.929688 75.511719 327.863281 75.46875 C 327.746094 75.421875 327.640625 75.335938 327.570312 75.222656 C 327.40625 74.960938 327.457031 74.753906 327.484375 74.65625 C 327.53125 74.476562 327.625 74.316406 327.796875 74.234375 C 330.4375 71.886719 333.335938 70.003906 336.207031 68.027344 C 336.433594 67.871094 336.726562 67.894531 336.929688 68.082031 C 337.546875 68.660156 339.777344 70.726562 340.398438 71.300781 C 340.972656 71.835938 341.550781 72.367188 342.128906 72.898438 C 342.265625 73.019531 342.414062 73.179688 342.570312 73.324219 C 342.660156 73.402344 342.746094 73.476562 342.839844 73.515625 C 342.886719 73.503906 343.097656 73.441406 343.226562 73.378906 C 343.507812 73.242188 343.78125 73.066406 343.9375 72.984375 C 345.417969 72.203125 346.664062 70.988281 348.011719 69.980469 C 348.867188 69.332031 349.757812 68.730469 350.667969 68.171875 C 350.730469 68.132812 350.820312 68.085938 350.921875 68.023438 Z M 341.789062 51.722656 C 342.542969 51.835938 343.324219 52.113281 343.925781 52.3125 C 346.921875 53.316406 349.902344 55.171875 351.742188 57.992188 C 352.777344 59.585938 353.21875 61.632812 354.367188 63.125 C 355.234375 64.25 356.578125 64.734375 357.675781 65.527344 C 359.03125 66.503906 359.882812 68.070312 360.515625 69.664062 C 360.730469 70.207031 360.933594 70.765625 361.09375 71.332031 C 361.125 71.441406 361.152344 71.550781 361.175781 71.664062 C 359.8125 72.203125 358.453125 72.757812 357.101562 73.335938 C 356.972656 73.390625 356.148438 73.660156 355.828125 73.882812 C 355.5 74.113281 355.425781 74.429688 355.433594 74.621094 C 355.449219 74.859375 355.578125 75.074219 355.773438 75.175781 C 357.09375 75.871094 358.402344 76.589844 359.710938 77.304688 C 359.851562 77.378906 360.136719 77.484375 360.425781 77.605469 C 360.527344 77.648438 360.667969 77.722656 360.761719 77.777344 C 360.707031 77.96875 360.601562 78.339844 360.570312 78.460938 C 360.238281 79.601562 359.742188 80.722656 359.148438 81.726562 C 358.613281 82.636719 357.980469 83.464844 357.207031 84.140625 C 355.992188 85.207031 354.578125 86.015625 353.59375 87.371094 C 352.886719 88.347656 352.449219 89.488281 352.007812 90.632812 C 351.609375 91.660156 351.210938 92.6875 350.523438 93.558594 C 348.742188 95.820312 346.164062 97.300781 343.429688 97.539062 C 343.273438 97.550781 343.117188 97.566406 342.960938 97.578125 L 343.003906 97.542969 C 344.171875 96.707031 345.183594 95.640625 346.007812 94.414062 C 346.691406 93.394531 347.292969 92.261719 347.761719 91.109375 C 347.921875 90.710938 348.082031 90.300781 348.1875 89.882812 C 348.195312 89.84375 348.21875 89.691406 348.230469 89.617188 C 348.273438 89.515625 348.296875 89.40625 348.292969 89.292969 C 348.253906 88.410156 348.125 87.523438 348.105469 86.671875 C 348.078125 85.589844 348.230469 84.566406 349.167969 83.746094 C 350.207031 82.84375 351.445312 82.359375 352.613281 81.71875 C 352.835938 81.597656 353.25 81.40625 353.480469 81.160156 C 353.640625 80.992188 353.738281 80.796875 353.773438 80.589844 C 353.8125 80.363281 353.785156 80.113281 353.625 79.839844 C 353.136719 79.03125 352.085938 78.398438 351.347656 77.929688 C 349.628906 76.851562 347.761719 76.042969 345.925781 75.246094 C 345.277344 74.964844 344.628906 74.695312 343.96875 74.453125 C 344.167969 74.34375 344.347656 74.234375 344.46875 74.171875 C 346.003906 73.363281 347.304688 72.113281 348.699219 71.0625 C 349.527344 70.441406 350.382812 69.859375 351.261719 69.320312 C 351.445312 69.210938 351.832031 69 352.054688 68.753906 C 352.253906 68.53125 352.355469 68.269531 352.355469 68.011719 C 352.355469 67.742188 352.242188 67.464844 352.011719 67.234375 C 351.78125 67.007812 351.378906 66.816406 351.214844 66.699219 C 350.515625 66.195312 349.910156 65.625 349.425781 64.878906 C 347.433594 61.828125 346.753906 58.015625 344.765625 54.945312 C 344.03125 53.8125 343.128906 52.828125 342.117188 51.984375 C 342.011719 51.894531 341.902344 51.804688 341.789062 51.722656 Z M 336.476562 69.402344 C 337.34375 70.203125 339.078125 71.808594 339.613281 72.304688 C 340.191406 72.839844 340.765625 73.375 341.347656 73.90625 L 341.414062 73.96875 C 341.382812 74 341.359375 74.035156 341.339844 74.066406 C 340.035156 75.597656 338.46875 76.894531 337.039062 78.273438 C 336.652344 78.644531 336.261719 79.007812 335.878906 79.382812 C 334.25 78.308594 332.640625 77.203125 331.035156 76.085938 C 330.449219 75.675781 329.867188 75.257812 329.277344 74.855469 L 329.136719 74.761719 C 331.464844 72.773438 333.980469 71.113281 336.476562 69.402344 Z M 336.476562 69.402344 " fill-opacity="1" fill-rule="evenodd"/><path fill="#000000" d="M 374.765625 75.273438 L 362.425781 72.207031 L 356.789062 74.648438 L 361.46875 77.082031 Z M 374.765625 75.273438 " fill-opacity="1" fill-rule="evenodd"/><g clip-path="url(#8c39dd95d1)"><path fill="#000000" d="M 72.765625 19.753906 C 73.015625 19.691406 72.25 19.796875 71.996094 19.847656 C 71.511719 19.941406 71.023438 20.054688 70.535156 20.148438 C 69.132812 20.421875 67.761719 20.769531 66.40625 21.253906 C 62.3125 22.707031 58.386719 24.890625 54.789062 27.445312 C 46.078125 33.625 39.558594 42.90625 35.957031 53.484375 C 35.082031 56.0625 34.324219 58.6875 33.710938 61.355469 C 33.492188 62.3125 32.960938 63.675781 33.375 64.644531 C 34.09375 66.34375 35.992188 67.414062 37.324219 68.460938 C 37.148438 68.679688 37.847656 68.53125 38.113281 68.582031 C 38.648438 68.683594 39.230469 68.449219 39.726562 68.246094 C 41.125 67.671875 42.519531 66.421875 43.839844 65.601562 C 44.910156 64.9375 44.960938 63.292969 45.28125 62.105469 C 45.96875 59.5625 46.84375 57.078125 47.78125 54.632812 C 52.609375 42.046875 62.859375 28.167969 72.765625 19.753906 Z M 72.765625 19.753906 " fill-opacity="1" fill-rule="evenodd"/></g><path fill="#000000" d="M 72.765625 129.898438 C 73.015625 129.960938 72.25 129.851562 71.996094 129.804688 C 71.511719 129.707031 71.023438 129.597656 70.535156 129.503906 C 69.132812 129.226562 67.761719 128.882812 66.40625 128.398438 C 62.3125 126.941406 58.386719 124.761719 54.789062 122.207031 C 46.078125 116.027344 39.558594 106.746094 35.957031 96.164062 C 35.082031 93.589844 34.324219 90.960938 33.710938 88.296875 C 33.492188 87.339844 32.960938 85.976562 33.375 85.003906 C 34.09375 83.308594 35.992188 82.234375 37.324219 81.191406 C 37.148438 80.96875 37.847656 81.121094 38.113281 81.070312 C 38.648438 80.96875 39.230469 81.199219 39.726562 81.40625 C 41.125 81.980469 42.519531 83.230469 43.839844 84.050781 C 44.910156 84.714844 44.960938 86.359375 45.28125 87.546875 C 45.96875 90.089844 46.84375 92.574219 47.78125 95.019531 C 52.609375 107.605469 62.859375 121.484375 72.765625 129.898438 Z M 72.765625 129.898438 " fill-opacity="1" fill-rule="evenodd"/><path fill="#000000" d="M 24.082031 68.023438 C 24.234375 67.933594 24.378906 67.859375 24.457031 67.796875 C 25.28125 67.207031 25.992188 66.523438 26.566406 65.644531 C 28.558594 62.589844 29.238281 58.777344 31.230469 55.703125 C 31.894531 54.679688 32.710938 53.792969 33.625 53.027344 C 34.035156 52.6875 34.476562 52.390625 34.886719 52.046875 C 34.980469 51.96875 35.210938 51.765625 35.296875 51.601562 C 35.433594 51.351562 35.421875 51.105469 35.328125 50.894531 C 35.265625 50.75 35.140625 50.566406 34.84375 50.480469 C 33.605469 50.128906 31.878906 50.664062 30.722656 51.050781 C 27.476562 52.136719 24.265625 54.175781 22.273438 57.230469 C 21.738281 58.050781 21.351562 58.988281 20.960938 59.917969 C 20.605469 60.753906 20.242188 61.582031 19.707031 62.277344 C 19.335938 62.753906 18.863281 63.082031 18.367188 63.382812 C 17.792969 63.730469 17.191406 64.039062 16.65625 64.425781 C 15.105469 65.546875 14.097656 67.316406 13.375 69.140625 C 13.140625 69.730469 12.921875 70.332031 12.75 70.945312 C 12.679688 71.1875 12.625 71.4375 12.582031 71.6875 C 12.570312 71.757812 12.570312 71.941406 12.574219 72.046875 C 12.566406 72.101562 12.570312 72.152344 12.578125 72.207031 C 12.632812 72.601562 12.867188 72.730469 13.0625 72.761719 C 14.535156 73.34375 16 73.941406 17.460938 74.566406 L 17.546875 74.601562 C 16.613281 75.105469 15.679688 75.617188 14.746094 76.125 C 14.546875 76.234375 14.003906 76.40625 13.648438 76.613281 C 13.355469 76.785156 13.15625 77.011719 13.074219 77.210938 C 13 77.390625 12.972656 77.636719 13.011719 77.914062 C 13.0625 78.25 13.222656 78.664062 13.277344 78.859375 C 13.644531 80.109375 14.183594 81.335938 14.835938 82.4375 C 15.4375 83.46875 16.160156 84.402344 17.035156 85.167969 C 18.183594 86.171875 19.53125 86.910156 20.457031 88.1875 C 21.097656 89.070312 21.476562 90.109375 21.878906 91.144531 C 22.324219 92.296875 22.789062 93.441406 23.558594 94.417969 C 25.546875 96.941406 28.425781 98.589844 31.476562 98.855469 C 32.171875 98.914062 32.886719 98.957031 33.582031 98.90625 C 33.683594 98.898438 34.113281 98.871094 34.308594 98.769531 C 34.539062 98.652344 34.652344 98.460938 34.699219 98.277344 C 34.75 98.066406 34.730469 97.777344 34.472656 97.539062 C 34.351562 97.429688 33.96875 97.25 33.902344 97.222656 C 33.46875 96.996094 33.066406 96.726562 32.664062 96.441406 C 31.621094 95.691406 30.714844 94.738281 29.976562 93.636719 C 29.34375 92.691406 28.785156 91.644531 28.351562 90.574219 C 28.214844 90.246094 28.082031 89.910156 27.992188 89.5625 C 27.984375 89.507812 27.960938 89.320312 27.933594 89.199219 C 27.988281 88.121094 28.15625 87.035156 28.101562 86.015625 C 28.039062 84.792969 27.679688 83.664062 26.59375 82.71875 C 25.488281 81.757812 24.179688 81.222656 22.933594 80.539062 C 22.859375 80.5 22.691406 80.402344 22.558594 80.328125 C 23 79.796875 23.738281 79.402344 24.265625 79.074219 C 25.929688 78.027344 27.742188 77.246094 29.527344 76.472656 C 30.324219 76.125 31.121094 75.800781 31.933594 75.515625 C 32.253906 75.40625 32.574219 75.296875 32.898438 75.207031 L 32.964844 75.183594 C 34.253906 76.648438 35.769531 77.917969 37.160156 79.261719 C 37.539062 79.628906 37.929688 79.988281 38.3125 80.359375 C 38.347656 80.40625 38.511719 80.597656 38.59375 80.671875 C 38.675781 80.746094 38.75 80.789062 38.804688 80.8125 C 39.042969 80.917969 39.234375 80.851562 39.363281 80.765625 C 41.132812 79.605469 42.882812 78.410156 44.625 77.195312 C 45.207031 76.789062 45.78125 76.375 46.367188 75.976562 C 46.558594 75.847656 46.746094 75.722656 46.941406 75.597656 C 47.007812 75.554688 47.074219 75.511719 47.140625 75.46875 C 47.257812 75.421875 47.363281 75.335938 47.433594 75.222656 C 47.597656 74.960938 47.546875 74.753906 47.519531 74.65625 C 47.472656 74.476562 47.378906 74.316406 47.207031 74.234375 C 44.5625 71.886719 41.667969 70.003906 38.792969 68.027344 C 38.566406 67.871094 38.277344 67.894531 38.074219 68.082031 C 37.457031 68.660156 35.226562 70.726562 34.605469 71.300781 C 34.027344 71.835938 33.453125 72.367188 32.875 72.898438 C 32.738281 73.019531 32.589844 73.179688 32.433594 73.324219 C 32.34375 73.402344 32.257812 73.476562 32.164062 73.515625 C 32.117188 73.503906 31.902344 73.441406 31.777344 73.378906 C 31.496094 73.242188 31.222656 73.066406 31.066406 72.984375 C 29.585938 72.203125 28.339844 70.988281 26.992188 69.980469 C 26.132812 69.332031 25.246094 68.730469 24.335938 68.171875 C 24.273438 68.132812 24.183594 68.085938 24.082031 68.023438 Z M 33.214844 51.722656 C 32.460938 51.835938 31.679688 52.113281 31.078125 52.3125 C 28.082031 53.316406 25.101562 55.171875 23.261719 57.992188 C 22.222656 59.585938 21.785156 61.632812 20.632812 63.125 C 19.765625 64.25 18.421875 64.734375 17.328125 65.527344 C 15.972656 66.503906 15.121094 68.070312 14.488281 69.664062 C 14.273438 70.207031 14.070312 70.765625 13.90625 71.332031 C 13.878906 71.441406 13.851562 71.550781 13.828125 71.664062 C 15.191406 72.203125 16.550781 72.757812 17.902344 73.335938 C 18.03125 73.390625 18.855469 73.660156 19.175781 73.882812 C 19.503906 74.113281 19.578125 74.429688 19.570312 74.621094 C 19.554688 74.859375 19.425781 75.074219 19.226562 75.175781 C 17.90625 75.871094 16.601562 76.589844 15.289062 77.304688 C 15.152344 77.378906 14.867188 77.484375 14.578125 77.605469 C 14.476562 77.648438 14.335938 77.722656 14.238281 77.777344 C 14.296875 77.96875 14.398438 78.339844 14.433594 78.460938 C 14.765625 79.601562 15.261719 80.722656 15.855469 81.726562 C 16.390625 82.636719 17.023438 83.464844 17.796875 84.140625 C 19.011719 85.207031 20.425781 86.015625 21.410156 87.371094 C 22.117188 88.347656 22.554688 89.488281 22.996094 90.632812 C 23.394531 91.660156 23.792969 92.6875 24.480469 93.558594 C 26.261719 95.820312 28.839844 97.300781 31.574219 97.539062 C 31.730469 97.550781 31.886719 97.566406 32.042969 97.578125 L 31.996094 97.542969 C 30.828125 96.707031 29.820312 95.640625 28.996094 94.414062 C 28.3125 93.394531 27.710938 92.261719 27.242188 91.109375 C 27.082031 90.710938 26.917969 90.300781 26.816406 89.882812 C 26.804688 89.84375 26.785156 89.691406 26.773438 89.617188 C 26.730469 89.515625 26.707031 89.40625 26.710938 89.292969 C 26.75 88.410156 26.875 87.523438 26.898438 86.671875 C 26.925781 85.589844 26.773438 84.566406 25.835938 83.746094 C 24.796875 82.84375 23.558594 82.359375 22.390625 81.71875 C 22.167969 81.597656 21.75 81.40625 21.523438 81.160156 C 21.363281 80.992188 21.265625 80.796875 21.230469 80.589844 C 21.191406 80.363281 21.214844 80.113281 21.378906 79.839844 C 21.863281 79.03125 22.914062 78.398438 23.65625 77.929688 C 25.375 76.851562 27.242188 76.042969 29.078125 75.246094 C 29.726562 74.964844 30.375 74.695312 31.035156 74.453125 C 30.835938 74.34375 30.65625 74.234375 30.535156 74.171875 C 29 73.363281 27.699219 72.113281 26.304688 71.0625 C 25.476562 70.441406 24.617188 69.859375 23.742188 69.320312 C 23.558594 69.210938 23.171875 69 22.949219 68.753906 C 22.75 68.53125 22.648438 68.269531 22.648438 68.011719 C 22.644531 67.742188 22.757812 67.464844 22.992188 67.234375 C 23.222656 67.007812 23.625 66.816406 23.789062 66.699219 C 24.488281 66.195312 25.09375 65.625 25.578125 64.878906 C 27.566406 61.828125 28.25 58.015625 30.238281 54.945312 C 30.972656 53.8125 31.875 52.828125 32.886719 51.984375 C 32.992188 51.894531 33.101562 51.804688 33.214844 51.722656 Z M 38.523438 69.402344 C 37.660156 70.203125 35.925781 71.808594 35.390625 72.304688 C 34.8125 72.839844 34.238281 73.375 33.65625 73.90625 L 33.589844 73.96875 C 33.621094 74 33.644531 74.035156 33.664062 74.066406 C 34.96875 75.597656 36.535156 76.894531 37.964844 78.273438 C 38.351562 78.644531 38.742188 79.007812 39.125 79.382812 C 40.753906 78.308594 42.363281 77.203125 43.96875 76.085938 C 44.554688 75.675781 45.136719 75.257812 45.726562 74.855469 L 45.867188 74.761719 C 43.539062 72.773438 41.023438 71.113281 38.523438 69.402344 Z M 38.523438 69.402344 " fill-opacity="1" fill-rule="evenodd"/><path fill="#000000" d="M 0.238281 75.273438 L 12.578125 72.207031 L 18.214844 74.648438 L 13.535156 77.082031 Z M 0.238281 75.273438 " fill-opacity="1" fill-rule="evenodd"/><path fill="#000000" d="M 295.753906 95.832031 C 295.691406 95.8125 295.511719 96.121094 295.484375 96.15625 C 295.222656 96.492188 295 96.859375 294.761719 97.214844 C 294.519531 97.570312 294.101562 98.070312 294.164062 98.535156 C 294.296875 99.578125 295.679688 101.183594 293.878906 101.605469 C 292.328125 101.972656 290.515625 100.457031 290.628906 98.875 C 290.671875 98.292969 290.882812 97.75 291.042969 97.195312 C 291.070312 97.101562 291.191406 96.722656 291.007812 96.695312 C 290.542969 96.632812 289.8125 97.875 289.601562 98.160156 C 288.515625 99.621094 287.628906 101.542969 285.945312 102.417969 C 284.363281 103.234375 282.457031 102.488281 280.847656 102.117188 C 279.582031 101.824219 278.367188 101.867188 277.128906 102.253906 C 275.429688 102.785156 273.539062 104.445312 272.148438 105.453125 C 268.390625 108.1875 264.855469 111.210938 261.195312 114.078125 C 258.160156 116.453125 255 118.722656 251.757812 120.800781 C 248.523438 122.875 245.332031 124.992188 241.90625 126.738281 C 241.113281 127.144531 240.3125 127.523438 239.523438 127.941406 C 239.359375 128.027344 238.734375 128.195312 238.695312 128.421875 C 238.644531 128.679688 239.335938 128.671875 239.457031 128.679688 C 240.375 128.730469 241.3125 128.4375 242.191406 128.214844 C 245.578125 127.347656 249.523438 126.113281 252.601562 124.425781 C 254.886719 123.171875 256.8125 121.214844 258.808594 119.554688 C 261.820312 117.054688 264.886719 114.625 267.925781 112.160156 C 270.382812 110.167969 272.835938 108.066406 275.65625 106.609375 C 276.683594 106.078125 277.863281 105.570312 279.042969 105.671875 C 279.894531 105.75 280.699219 106.28125 281.476562 106.613281 C 283.222656 107.34375 285.15625 107.53125 286.757812 106.328125 C 287.273438 105.945312 287.714844 105.472656 288.101562 104.960938 C 288.566406 104.347656 288.972656 103.675781 289.242188 102.953125 C 288.800781 103.15625 290.226562 104.273438 290.335938 104.34375 C 291.546875 105.082031 293.253906 105.917969 294.433594 104.921875 C 298.136719 101.800781 296.203125 98.222656 295.753906 95.832031 Z M 295.753906 95.832031 " fill-opacity="1" fill-rule="evenodd"/><path fill="#000000" d="M 239.761719 47.089844 C 239.433594 47.191406 239.472656 47.894531 238.980469 47.878906 C 238.492188 47.863281 237.863281 47.164062 237.546875 46.914062 C 236.523438 46.117188 235.808594 45.585938 235.835938 44.363281 C 235.855469 43.644531 236.070312 42.261719 237.15625 42.03125 C 237.515625 41.953125 237.890625 42.0625 238.238281 42.132812 C 238.507812 42.1875 238.773438 42.257812 239.007812 42.382812 C 239.34375 42.5625 239.648438 42.808594 239.910156 43.046875 C 240.367188 43.464844 240.730469 43.933594 241.070312 44.410156 C 241.644531 45.230469 242.160156 46.054688 242.578125 46.933594 C 243.199219 48.238281 243.707031 49.582031 244.1875 50.921875 C 244.921875 48.648438 245.5 46.332031 246.519531 44.117188 C 246.984375 43.113281 247.488281 41.925781 248.507812 41.175781 C 249.582031 40.390625 250.679688 41.070312 251.375 41.859375 C 251.773438 42.3125 252.3125 42.960938 252.355469 43.535156 C 252.40625 44.152344 251.9375 44.875 251.605469 45.414062 C 251.519531 45.554688 251.328125 45.949219 251.089844 45.976562 C 250.890625 46.003906 250.492188 45.519531 250.386719 45.414062 C 249.726562 44.777344 248.648438 43.574219 247.71875 44.675781 C 247.554688 44.871094 247.433594 45.089844 247.320312 45.308594 C 247.136719 45.664062 246.976562 46.03125 246.84375 46.402344 C 245.960938 48.851562 245.5625 51.386719 244.710938 53.839844 C 244.503906 54.4375 244.265625 55.058594 243.878906 55.597656 C 243.800781 55.710938 243.613281 56.042969 243.40625 56.019531 C 243.183594 56 243.105469 55.652344 243.054688 55.523438 C 242.84375 54.941406 242.722656 54.34375 242.601562 53.746094 C 242.160156 51.511719 241.382812 48.996094 239.761719 47.089844 Z M 239.761719 47.089844 " fill-opacity="1" fill-rule="evenodd"/><path fill="#000000" d="M 161.097656 45.050781 C 160.835938 45.140625 160.867188 45.734375 160.476562 45.71875 C 160.09375 45.707031 159.59375 45.117188 159.34375 44.90625 C 158.535156 44.230469 157.96875 43.78125 157.992188 42.75 C 158.003906 42.144531 158.175781 40.972656 159.035156 40.777344 C 159.320312 40.710938 159.617188 40.804688 159.890625 40.863281 C 160.105469 40.910156 160.316406 40.96875 160.5 41.074219 C 160.765625 41.226562 161.007812 41.433594 161.214844 41.636719 C 161.578125 41.988281 161.867188 42.386719 162.132812 42.789062 C 162.589844 43.480469 162.996094 44.179688 163.328125 44.921875 C 163.820312 46.027344 164.21875 47.160156 164.601562 48.292969 C 165.183594 46.371094 165.640625 44.414062 166.445312 42.542969 C 166.8125 41.691406 167.214844 40.6875 168.023438 40.054688 C 168.871094 39.390625 169.742188 39.964844 170.292969 40.632812 C 170.609375 41.015625 171.03125 41.566406 171.066406 42.046875 C 171.105469 42.570312 170.738281 43.179688 170.476562 43.636719 C 170.40625 43.757812 170.253906 44.089844 170.066406 44.113281 C 169.90625 44.136719 169.59375 43.726562 169.511719 43.640625 C 168.984375 43.101562 168.132812 42.082031 167.398438 43.011719 C 167.265625 43.179688 167.171875 43.363281 167.082031 43.546875 C 166.9375 43.847656 166.808594 44.160156 166.703125 44.472656 C 166.003906 46.542969 165.691406 48.6875 165.015625 50.761719 C 164.851562 51.265625 164.664062 51.789062 164.359375 52.246094 C 164.296875 52.339844 164.148438 52.621094 163.980469 52.601562 C 163.804688 52.582031 163.742188 52.292969 163.703125 52.183594 C 163.535156 51.691406 163.441406 51.183594 163.347656 50.679688 C 162.996094 48.789062 162.378906 46.664062 161.097656 45.050781 Z M 161.097656 45.050781 " fill-opacity="1" fill-rule="evenodd"/><path fill="#000000" d="M 117.871094 77.453125 C 117.613281 77.542969 117.644531 78.136719 117.253906 78.121094 C 116.871094 78.109375 116.371094 77.519531 116.121094 77.308594 C 115.3125 76.632812 114.742188 76.183594 114.765625 75.152344 C 114.78125 74.546875 114.949219 73.375 115.8125 73.179688 C 116.097656 73.113281 116.390625 73.207031 116.667969 73.265625 C 116.882812 73.3125 117.09375 73.371094 117.277344 73.476562 C 117.542969 73.628906 117.785156 73.835938 117.992188 74.039062 C 118.351562 74.390625 118.640625 74.789062 118.910156 75.191406 C 119.363281 75.882812 119.773438 76.582031 120.101562 77.324219 C 120.597656 78.429688 120.996094 79.5625 121.378906 80.695312 C 121.960938 78.773438 122.417969 76.816406 123.222656 74.945312 C 123.589844 74.09375 123.988281 73.089844 124.796875 72.457031 C 125.648438 71.792969 126.515625 72.367188 127.066406 73.035156 C 127.382812 73.417969 127.808594 73.96875 127.84375 74.449219 C 127.882812 74.972656 127.511719 75.582031 127.25 76.039062 C 127.183594 76.160156 127.03125 76.492188 126.839844 76.515625 C 126.683594 76.539062 126.371094 76.128906 126.285156 76.042969 C 125.761719 75.503906 124.90625 74.484375 124.175781 75.414062 C 124.042969 75.582031 123.945312 75.765625 123.859375 75.949219 C 123.714844 76.25 123.585938 76.5625 123.480469 76.875 C 122.78125 78.941406 122.464844 81.089844 121.792969 83.160156 C 121.628906 83.667969 121.4375 84.1875 121.132812 84.648438 C 121.070312 84.742188 120.921875 85.023438 120.757812 85.003906 C 120.582031 84.984375 120.519531 84.695312 120.480469 84.585938 C 120.3125 84.09375 120.214844 83.585938 120.121094 83.078125 C 119.773438 81.191406 119.15625 79.066406 117.871094 77.453125 Z M 117.871094 77.453125 " fill-opacity="1" fill-rule="evenodd"/><path fill="#000000" d="M 240.238281 73.019531 C 239.949219 73.105469 239.984375 73.691406 239.546875 73.675781 C 239.113281 73.664062 238.554688 73.082031 238.273438 72.875 C 237.363281 72.207031 236.726562 71.765625 236.753906 70.75 C 236.769531 70.152344 236.960938 69 237.925781 68.808594 C 238.246094 68.746094 238.578125 68.835938 238.886719 68.894531 C 239.125 68.941406 239.363281 68.996094 239.570312 69.101562 C 239.867188 69.25 240.140625 69.457031 240.375 69.65625 C 240.78125 70 241.101562 70.394531 241.402344 70.792969 C 241.914062 71.472656 242.371094 72.160156 242.742188 72.890625 C 243.296875 73.976562 243.746094 75.09375 244.175781 76.210938 C 244.828125 74.316406 245.339844 72.390625 246.246094 70.546875 C 246.660156 69.710938 247.105469 68.722656 248.015625 68.097656 C 248.96875 67.441406 249.945312 68.007812 250.5625 68.667969 C 250.917969 69.042969 251.394531 69.585938 251.433594 70.0625 C 251.476562 70.574219 251.0625 71.175781 250.769531 71.625 C 250.691406 71.742188 250.523438 72.070312 250.308594 72.09375 C 250.132812 72.117188 249.78125 71.710938 249.6875 71.625 C 249.097656 71.097656 248.136719 70.09375 247.316406 71.007812 C 247.167969 71.171875 247.058594 71.355469 246.960938 71.535156 C 246.796875 71.832031 246.65625 72.136719 246.535156 72.445312 C 245.75 74.484375 245.398438 76.597656 244.640625 78.640625 C 244.457031 79.136719 244.242188 79.652344 243.902344 80.101562 C 243.832031 80.195312 243.664062 80.46875 243.480469 80.453125 C 243.28125 80.433594 243.210938 80.148438 243.167969 80.039062 C 242.980469 79.554688 242.871094 79.054688 242.765625 78.558594 C 242.375 76.699219 241.679688 74.605469 240.238281 73.019531 Z M 240.238281 73.019531 " fill-opacity="1" fill-rule="evenodd"/><path fill="#000000" d="M 203.484375 47.0625 L 207.289062 42.398438 L 212.476562 47.140625 L 208.753906 51.824219 Z M 203.484375 47.0625 " fill-opacity="1" fill-rule="evenodd"/><path fill="#000000" d="M 89.726562 121.070312 L 93.53125 116.40625 L 98.714844 121.148438 L 94.992188 125.832031 Z M 89.726562 121.070312 " fill-opacity="1" fill-rule="evenodd"/><path fill="#000000" d="M 134.96875 107.976562 C 134.953125 107.992188 134.902344 108.640625 134.902344 108.699219 C 134.921875 109.160156 134.996094 109.621094 135.097656 110.074219 C 135.414062 111.460938 135.84375 112.859375 136.453125 114.148438 C 138.21875 117.894531 144.058594 121.488281 148.167969 119.566406 C 151.21875 118.140625 152.296875 114.59375 151.148438 111.542969 C 150.535156 109.90625 149.359375 108.558594 148.132812 107.347656 C 147.230469 106.453125 146.277344 105.613281 145.285156 104.824219 C 145.136719 104.707031 144.449219 104.308594 144.507812 104.058594 C 144.570312 103.785156 145.65625 103.695312 145.855469 103.644531 C 147.335938 103.28125 148.789062 102.75 150.152344 102.066406 C 153.910156 100.191406 157.851562 96.753906 158.957031 92.535156 C 159.011719 92.332031 159.019531 92.949219 159.074219 93.152344 C 159.183594 93.523438 159.308594 93.886719 159.445312 94.25 C 159.910156 95.503906 160.496094 96.726562 161.132812 97.90625 C 163.097656 101.542969 166.222656 104.253906 170.347656 105.003906 C 170.316406 104.984375 170.511719 105.054688 170.53125 105.058594 C 170.691406 105.113281 170.863281 105.144531 171.03125 105.171875 C 171.476562 105.242188 171.933594 105.261719 172.382812 105.257812 C 173.855469 105.253906 175.367188 105.113281 176.792969 104.746094 C 180.703125 103.738281 183.539062 100.578125 183.914062 96.519531 C 183.9375 96.300781 183.957031 95.824219 183.964844 95.628906 C 183.984375 94.890625 183.980469 94.152344 183.964844 93.417969 C 183.910156 90.359375 183.742188 87.304688 183.496094 84.257812 C 183.054688 78.804688 182.023438 73.445312 181.269531 68.03125 C 180.335938 61.324219 178.839844 49.980469 177.292969 43.375 C 177.070312 43.171875 177.792969 43.707031 178.042969 43.871094 C 178.328125 44.058594 180.195312 45.292969 180.292969 44.578125 C 180.433594 43.570312 179.644531 42.253906 179.238281 41.390625 C 178.195312 39.152344 177.074219 36.953125 175.953125 34.753906 C 175.6875 34.234375 174.875 31.894531 174.210938 31.757812 C 173.65625 31.644531 172.921875 32.96875 172.664062 33.324219 C 172.203125 33.964844 171.1875 34.925781 171.09375 35.742188 C 170.988281 36.675781 172.402344 37.839844 172.921875 38.496094 C 174.070312 39.949219 173.234375 42.425781 173.445312 44.265625 C 173.925781 48.421875 174.574219 52.554688 175.296875 56.675781 C 176.773438 65.054688 177.867188 73.5 179.085938 81.921875 C 179.195312 81.777344 179.109375 82.28125 179.144531 82.457031 C 179.222656 82.847656 179.289062 83.238281 179.34375 83.632812 C 179.5 84.761719 179.605469 85.894531 179.722656 87.027344 C 179.980469 89.519531 180.078125 92.011719 179.925781 94.515625 C 179.871094 95.410156 179.945312 96.742188 179.316406 97.488281 C 178.660156 98.269531 177.671875 98.753906 176.761719 99.164062 C 171.648438 101.464844 166.308594 98.855469 163.277344 94.535156 C 162.617188 93.59375 162.101562 91.746094 161.773438 90.714844 C 160.625 87.160156 159.804688 83.507812 159.160156 79.832031 C 157.007812 67.605469 155.890625 55.195312 153.835938 42.945312 C 153.339844 39.980469 152.871094 37.011719 152.34375 34.054688 C 152.273438 33.671875 152.132812 31.503906 151.722656 31.316406 C 151.488281 31.210938 151.128906 32.644531 151.097656 32.757812 C 150.582031 34.644531 150.070312 36.535156 149.605469 38.433594 C 149.417969 39.199219 148.929688 40.3125 149.015625 41.117188 C 149.179688 42.75 150.117188 44.519531 150.492188 46.132812 C 151.046875 48.554688 151.351562 51.019531 151.664062 53.476562 C 152.289062 58.453125 152.898438 63.425781 153.707031 68.375 C 155.003906 76.339844 156.839844 84.304688 157.113281 92.398438 C 155.453125 93.667969 153.789062 94.996094 152.011719 96.160156 C 150.808594 96.949219 149.582031 97.652344 148.269531 98.242188 C 147.566406 98.558594 146.851562 98.839844 146.117188 99.078125 C 145.261719 99.359375 144.390625 99.5625 143.5 99.699219 C 143.375 99.71875 142.871094 99.863281 142.78125 99.710938 C 142.613281 99.421875 143.421875 98.496094 143.558594 98.285156 C 144.394531 97 145.113281 95.640625 145.566406 94.171875 C 146.375 91.566406 146.042969 88.652344 145.808594 85.980469 C 145.703125 84.785156 145.558594 83.589844 145.402344 82.402344 C 145.386719 82.300781 145.34375 81.453125 145.230469 81.414062 C 145.03125 81.351562 144.519531 82.078125 144.425781 82.1875 C 143.605469 83.191406 142.789062 84.203125 142.011719 85.242188 C 139.601562 88.46875 137.410156 91.953125 136.007812 95.746094 C 135.566406 96.941406 135.25 98.167969 135.050781 99.425781 C 135.011719 99.679688 135.085938 100.726562 134.890625 100.902344 C 134.742188 101.035156 134.226562 100.921875 134.0625 100.898438 C 133.152344 100.757812 132.257812 100.398438 131.445312 99.976562 C 128.234375 98.308594 127.761719 94.695312 128.851562 91.546875 C 128.730469 91.289062 127.796875 91.792969 127.636719 91.859375 C 126.351562 92.371094 125.085938 92.933594 123.808594 93.46875 C 118.59375 95.65625 113.445312 98.046875 108.082031 99.863281 C 107.753906 99.675781 106.660156 100.089844 106.335938 100.144531 C 104.890625 100.402344 103.4375 100.636719 101.988281 100.855469 C 96.550781 101.6875 91.101562 102.492188 85.585938 102.105469 C 80.8125 101.769531 74.121094 100.714844 71.59375 96.007812 C 70.511719 93.988281 70.347656 91.5625 70.601562 89.324219 C 70.710938 88.359375 70.898438 87.417969 71.058594 86.464844 C 71.078125 86.351562 71.226562 85.75 70.976562 85.753906 C 70.449219 85.765625 69.957031 87.050781 69.808594 87.410156 C 68.976562 89.417969 68.644531 91.777344 68.5 93.929688 C 68.007812 101.167969 72.195312 105.207031 78.695312 107.3125 C 94.21875 112.335938 111.433594 105.398438 124.6875 97.398438 C 124.675781 97.527344 124.898438 97.25 125.011719 97.183594 C 125.179688 97.082031 125.738281 96.605469 125.882812 96.875 C 126.105469 97.289062 126.007812 97.917969 126.070312 98.371094 C 126.191406 99.25 126.421875 100.117188 126.691406 100.960938 C 127.566406 103.722656 129.386719 106.144531 132.078125 107.34375 C 132.953125 107.738281 133.988281 108.105469 134.96875 107.976562 Z M 139.625 108.203125 C 139.472656 108.210938 139.609375 108.785156 139.625 108.847656 C 139.769531 109.488281 140.078125 110.097656 140.410156 110.664062 C 141.546875 112.601562 143.183594 114.371094 145.371094 115.085938 C 146.355469 115.410156 148.550781 115.605469 148.363281 113.972656 C 148.34375 113.773438 148.285156 113.578125 148.210938 113.390625 C 148.085938 113.074219 147.917969 112.777344 147.722656 112.5 C 146.179688 110.273438 142.238281 107.570312 139.625 108.203125 Z M 138.148438 99.925781 C 137.929688 99.527344 138.582031 97.574219 138.707031 97.214844 C 139.246094 95.675781 140.050781 94.175781 141.039062 92.875 C 141.292969 92.542969 141.570312 92.226562 141.871094 91.933594 C 141.953125 91.851562 142.128906 91.632812 142.265625 91.664062 C 142.492188 91.714844 142.46875 92.296875 142.476562 92.453125 C 142.484375 92.683594 142.480469 92.910156 142.464844 93.136719 C 142.445312 93.417969 142.417969 93.699219 142.375 93.976562 C 142.304688 94.484375 142.210938 94.988281 142.070312 95.484375 C 141.855469 96.257812 141.511719 96.980469 141.039062 97.628906 C 140.398438 98.503906 139.078125 99.371094 138.148438 99.925781 Z M 138.148438 99.925781 " fill-opacity="1" fill-rule="evenodd"/><path fill="#000000" d="M 212.476562 46.355469 L 216.28125 41.691406 L 221.46875 46.433594 L 217.746094 51.117188 Z M 212.476562 46.355469 " fill-opacity="1" fill-rule="evenodd"/><path fill="#000000" d="M 229.558594 66.40625 L 228.703125 69.601562 L 257.222656 60.019531 L 259.488281 56.023438 C 259.488281 56.023438 229.816406 66.246094 229.558594 66.40625 Z M 229.558594 66.40625 " fill-opacity="1" fill-rule="evenodd"/><path fill="#000000" d="M 106.765625 42.988281 L 105.910156 46.183594 L 134.429688 36.601562 L 136.695312 32.605469 C 136.695312 32.605469 107.023438 42.824219 106.765625 42.988281 Z M 106.765625 42.988281 " fill-opacity="1" fill-rule="evenodd"/><path fill="#000000" d="M 211.441406 100.742188 C 211.351562 100.574219 211.238281 100.925781 211.160156 101.058594 C 210.925781 101.460938 210.695312 101.875 210.484375 102.289062 C 209.886719 103.480469 209.261719 104.660156 208.734375 105.882812 C 207.253906 109.296875 205.363281 112.828125 205.917969 116.621094 C 206.09375 117.839844 206.480469 119.785156 208.074219 120.054688 C 210.121094 120.398438 211.242188 117.945312 211.832031 116.554688 C 211.972656 116.226562 212.109375 115.898438 212.210938 115.558594 C 212.375 115 212.585938 114.261719 212.390625 113.683594 C 212.191406 113.09375 211.589844 113.96875 211.453125 114.175781 C 210.992188 114.855469 210.308594 116.199219 209.28125 115.46875 C 209.152344 115.375 209.039062 115.269531 208.941406 115.152344 C 208.792969 114.984375 208.675781 114.796875 208.582031 114.597656 C 208.050781 113.523438 208.148438 112.175781 208.390625 111.046875 C 208.894531 108.671875 210.136719 106.488281 211.046875 104.238281 C 211.488281 103.15625 212.40625 101.320312 211.441406 100.742188 C 211.351562 100.691406 211.765625 100.617188 211.703125 100.539062 " fill-opacity="1" fill-rule="evenodd"/><path fill="#000000" d="M 167.070312 110.535156 C 166.980469 110.367188 166.867188 110.71875 166.792969 110.847656 C 166.554688 111.253906 166.328125 111.664062 166.117188 112.082031 C 165.515625 113.269531 164.894531 114.453125 164.367188 115.671875 C 162.882812 119.089844 160.996094 122.621094 161.546875 126.410156 C 161.722656 127.628906 162.109375 129.578125 163.703125 129.84375 C 165.753906 130.191406 166.871094 127.734375 167.464844 126.347656 C 167.605469 126.019531 167.738281 125.691406 167.839844 125.351562 C 168.007812 124.789062 168.214844 124.054688 168.019531 123.476562 C 167.824219 122.882812 167.21875 123.761719 167.082031 123.964844 C 166.625 124.648438 165.941406 125.992188 164.910156 125.257812 C 164.78125 125.167969 164.671875 125.0625 164.570312 124.945312 C 164.425781 124.773438 164.308594 124.585938 164.210938 124.390625 C 163.679688 123.316406 163.78125 121.964844 164.019531 120.839844 C 164.527344 118.464844 165.765625 116.277344 166.679688 114.027344 C 167.121094 112.945312 168.039062 111.113281 167.070312 110.535156 C 166.984375 110.480469 167.398438 110.40625 167.335938 110.332031 " fill-opacity="1" fill-rule="evenodd"/><path fill="#000000" d="M 170.039062 58.582031 C 169.949219 58.414062 169.835938 58.769531 169.757812 58.898438 C 169.523438 59.300781 169.292969 59.714844 169.082031 60.132812 C 168.484375 61.320312 167.859375 62.503906 167.332031 63.722656 C 165.851562 67.140625 163.960938 70.671875 164.515625 74.460938 C 164.691406 75.679688 165.078125 77.628906 166.671875 77.894531 C 168.71875 78.242188 169.839844 75.785156 170.429688 74.398438 C 170.570312 74.070312 170.707031 73.742188 170.808594 73.402344 C 170.972656 72.839844 171.183594 72.105469 170.988281 71.523438 C 170.789062 70.933594 170.1875 71.8125 170.050781 72.015625 C 169.589844 72.695312 168.90625 74.039062 167.878906 73.308594 C 167.75 73.21875 167.636719 73.109375 167.539062 72.992188 C 167.390625 72.824219 167.273438 72.636719 167.179688 72.441406 C 166.648438 71.367188 166.746094 70.015625 166.988281 68.886719 C 167.492188 66.515625 168.730469 64.328125 169.644531 62.078125 C 170.085938 60.996094 171.003906 59.164062 170.039062 58.582031 C 169.949219 58.53125 170.363281 58.457031 170.300781 58.378906 " fill-opacity="1" fill-rule="evenodd"/><path fill="#000000" d="M 230.277344 90.246094 C 230.386719 90.277344 231.085938 90.183594 231.171875 90.25 C 231.152344 90.078125 231.515625 90.261719 231.691406 90.261719 C 231.988281 90.265625 233.453125 90.417969 233.367188 89.878906 C 233.285156 89.367188 232.640625 88.8125 232.324219 88.441406 C 231.261719 87.179688 230.070312 86.011719 228.851562 84.90625 C 228.640625 84.714844 227.484375 83.425781 227.167969 83.613281 C 226.53125 83.992188 226.613281 85.660156 226.53125 86.273438 C 226.46875 86.757812 226.402344 87.238281 226.324219 87.722656 C 226.285156 87.988281 226.238281 88.257812 226.175781 88.519531 C 225.9375 89.617188 225.773438 89.679688 226.398438 90.613281 C 226.507812 90.789062 226.628906 90.960938 226.746094 91.136719 C 226.945312 91.433594 227.136719 91.726562 227.351562 92.011719 C 227.359375 92.007812 227.625 92.464844 227.632812 92.492188 C 227.8125 92.824219 227.980469 93.164062 228.144531 93.507812 C 228.648438 94.53125 229.175781 95.535156 229.726562 96.53125 C 230.40625 97.757812 231.070312 98.988281 231.832031 100.167969 C 232.785156 101.640625 233.996094 103.304688 234.128906 105.113281 C 234.210938 105.027344 234.0625 105.347656 234.039062 105.464844 C 233.976562 105.734375 233.875 105.988281 233.75 106.238281 C 233.414062 106.953125 233 107.628906 232.542969 108.273438 C 231.117188 110.304688 229.296875 111.953125 227.324219 113.441406 C 221.625 117.75 214.59375 122.242188 207.355469 123.214844 C 202.027344 123.933594 196.582031 122.566406 195.289062 116.703125 C 194.730469 114.152344 194.617188 111.558594 194.886719 108.964844 C 194.992188 107.953125 195.117188 106.933594 195.296875 105.933594 C 195.3125 105.832031 195.574219 104.929688 195.355469 104.957031 C 194.945312 105.007812 194.554688 105.695312 194.355469 105.992188 C 193.539062 107.226562 193.164062 108.734375 193 110.191406 C 192.433594 115.121094 192.566406 121.273438 195.757812 125.355469 C 199.648438 130.332031 205.917969 130.175781 211.355469 128.210938 C 216.480469 126.363281 221.074219 123.300781 225.445312 120.105469 C 229.972656 116.800781 234.722656 112.808594 236.625 107.332031 C 238.8125 101.015625 232.78125 95.464844 230.277344 90.246094 Z M 230.277344 90.246094 " fill-opacity="1" fill-rule="evenodd"/><path fill="#000000" d="M 270.21875 83.539062 C 270.230469 83.613281 270.316406 83.789062 270.332031 83.839844 C 270.40625 84.125 270.480469 84.40625 270.546875 84.691406 C 270.757812 85.539062 270.984375 86.371094 271.234375 87.207031 C 272.082031 90.070312 274.332031 92.46875 277.511719 92.207031 C 281.125 91.910156 283.859375 89.019531 285.433594 85.960938 C 286.003906 84.851562 286.433594 83.699219 286.839844 82.519531 C 286.921875 82.285156 287.132812 81.414062 287.429688 81.335938 C 287.597656 81.292969 287.675781 81.851562 287.695312 81.941406 C 287.859375 82.605469 287.921875 83.289062 288.007812 83.964844 C 288.253906 85.816406 288.707031 87.878906 290.484375 88.859375 C 291.78125 89.574219 293.46875 89.738281 294.902344 89.398438 C 295.390625 89.28125 296.199219 89.085938 296.375 88.527344 C 296.492188 88.15625 296.757812 87.503906 296.695312 87.132812 C 296.527344 86.109375 295.417969 84.757812 295.199219 83.746094 C 295.1875 83.742188 296.578125 82.15625 296.71875 82 C 297.339844 81.308594 297.96875 80.613281 298.621094 79.941406 C 298.757812 79.796875 299.144531 79.25 299.402344 79.300781 C 299.601562 79.34375 299.582031 79.839844 299.589844 79.976562 C 299.636719 80.8125 299.589844 81.660156 299.601562 82.5 C 299.652344 85.648438 299.570312 89.164062 297.933594 91.960938 C 297.535156 92.640625 297.023438 93.242188 296.457031 93.785156 C 292.507812 97.558594 288.152344 93.660156 285.609375 90.339844 C 285.59375 90.316406 285.445312 90.65625 285.433594 90.675781 C 285.339844 90.882812 285.246094 91.082031 285.144531 91.285156 C 284.84375 91.90625 284.5 92.507812 284.136719 93.101562 C 282.96875 95.023438 281.621094 96.613281 279.390625 97.292969 C 276.164062 98.273438 272.167969 97.566406 270.175781 94.636719 C 269.273438 93.3125 269.078125 91.859375 268.589844 90.386719 C 268.375 90.320312 267.429688 91.152344 267.242188 91.265625 C 265.875 92.113281 264.539062 92.972656 263.117188 93.730469 C 262.941406 93.589844 263.183594 94.171875 263.21875 94.394531 C 263.285156 94.855469 263.347656 95.320312 263.402344 95.78125 C 263.558594 97.109375 263.714844 98.4375 263.617188 99.773438 C 263.644531 99.785156 263.382812 100.339844 263.378906 100.355469 C 262.992188 101.097656 262.578125 101.828125 262.148438 102.542969 C 260.210938 105.722656 257.863281 108.648438 255.21875 111.269531 C 253.636719 112.847656 251.976562 114.359375 250.179688 115.695312 C 248.960938 116.601562 247.660156 117.425781 246.320312 118.148438 C 239.835938 121.648438 227.671875 124.382812 223.859375 115.652344 C 221.753906 110.820312 222.183594 104.929688 223.414062 99.917969 C 223.71875 98.675781 224.035156 97.410156 224.578125 96.246094 C 224.65625 96.078125 224.894531 95.324219 225.144531 95.304688 C 225.40625 95.28125 225.113281 96.78125 225.101562 96.855469 C 224.746094 98.71875 224.324219 100.585938 224.15625 102.480469 C 223.738281 107.160156 225.085938 112.648438 229.828125 114.621094 C 238.976562 118.425781 249.242188 111.316406 255.664062 105.375 C 257.214844 103.945312 258.640625 102.441406 260.019531 100.847656 C 260.632812 100.140625 261.597656 99.050781 261.734375 98.0625 C 261.863281 97.179688 261.480469 96.328125 261.222656 95.511719 C 260.941406 95.503906 260.535156 95.808594 260.273438 95.910156 C 259.550781 96.207031 258.820312 96.5 258.085938 96.785156 C 255.648438 97.726562 252.664062 98.464844 250.121094 97.53125 C 249.460938 97.289062 248.847656 96.96875 248.320312 96.503906 C 244.351562 93.035156 247.660156 87.640625 250.347656 84.570312 C 251.753906 82.960938 253.558594 81.207031 255.886719 81.785156 C 257.429688 82.164062 258.605469 83.472656 259.515625 84.710938 C 260.542969 86.117188 261.1875 87.578125 261.800781 89.191406 C 261.789062 89.203125 261.789062 89.210938 261.808594 89.210938 L 261.800781 89.191406 C 261.847656 89.144531 262.105469 89.03125 262.125 89.023438 C 262.351562 88.917969 262.570312 88.808594 262.785156 88.695312 C 263.417969 88.367188 264.03125 88.007812 264.652344 87.648438 C 266.667969 86.476562 268.582031 85.210938 270.21875 83.539062 C 270.214844 83.507812 270.21875 83.496094 270.246094 83.511719 Z M 257.292969 90.839844 C 257.269531 90.820312 256.226562 91.191406 256.203125 91.199219 C 255.796875 91.34375 255.363281 91.433594 254.9375 91.492188 C 253.71875 91.660156 251.886719 91.886719 250.984375 90.824219 C 249.9375 89.585938 251.277344 87.878906 252.597656 87.664062 C 254.226562 87.402344 256.539062 89.214844 257.292969 90.839844 Z M 257.292969 90.839844 " fill-opacity="1" fill-rule="evenodd"/><path fill="#000000" d="M 268.121094 83.347656 C 268.207031 83.316406 268.460938 82.992188 268.507812 82.949219 C 268.894531 82.597656 269.3125 82.28125 269.742188 81.976562 C 271.371094 80.832031 273.195312 79.949219 274.8125 78.777344 C 279.996094 75.015625 285.175781 71.136719 289.878906 66.863281 C 291.027344 65.820312 292.140625 64.742188 293.28125 63.6875 C 293.789062 63.21875 294.667969 62.632812 294.972656 62.003906 C 295.097656 61.742188 294.253906 61.332031 294.101562 61.21875 C 293.195312 60.554688 292.34375 59.808594 291.714844 58.910156 C 290.675781 57.425781 291.214844 56.054688 292.113281 54.621094 C 292.976562 53.238281 294.066406 51.964844 295.6875 51.296875 C 297.066406 50.726562 298.476562 51.578125 299.015625 52.777344 C 299.738281 54.375 299.328125 56.316406 298.785156 57.90625 C 298.625 58.375 298.441406 58.847656 298.171875 59.277344 C 298.085938 59.414062 297.714844 59.734375 297.703125 59.886719 C 297.691406 59.992188 298.140625 60.269531 298.222656 60.328125 C 298.675781 60.683594 299.289062 61.035156 299.5 61.578125 C 299.808594 62.359375 299.378906 63.40625 298.960938 64.082031 C 298.863281 64.242188 298.582031 64.777344 298.320312 64.746094 C 298.03125 64.710938 297.765625 64.425781 297.554688 64.261719 C 297.042969 63.863281 296.550781 63.4375 296.050781 63.023438 C 295.371094 63.691406 294.839844 64.578125 294.207031 65.292969 C 292.496094 67.234375 290.707031 69.179688 288.765625 70.933594 C 285.574219 73.816406 281.601562 76.007812 277.953125 78.355469 C 275.242188 80.097656 271.386719 82.566406 268.121094 83.347656 C 268.117188 83.347656 268.113281 83.351562 268.109375 83.351562 Z M 296.855469 59.058594 C 296.957031 58.578125 297.140625 58.113281 297.207031 57.617188 C 297.34375 56.632812 297.078125 55.574219 296.382812 54.804688 C 296.019531 54.398438 295.519531 54.058594 294.945312 53.984375 C 294.15625 53.878906 293.296875 54.523438 293.269531 55.265625 C 293.253906 55.71875 293.597656 56.128906 293.902344 56.449219 C 294.597656 57.183594 296.035156 58.441406 296.855469 59.058594 Z M 296.855469 59.058594 " fill-opacity="1" fill-rule="evenodd"/><path fill="#000000" d="M 261.886719 59.453125 C 261.953125 59.558594 262.570312 59.367188 262.714844 59.335938 C 263.042969 59.265625 263.375 59.207031 263.707031 59.148438 C 264.742188 58.980469 265.773438 58.851562 266.828125 58.796875 C 270.054688 58.625 273.828125 58.6875 276.851562 59.765625 C 276.953125 59.636719 276.554688 59.960938 276.410156 60.058594 C 276.074219 60.285156 275.722656 60.488281 275.371094 60.691406 C 274.382812 61.253906 273.398438 61.816406 272.363281 62.316406 C 269.445312 63.726562 266.398438 64.957031 263.550781 66.457031 C 262.871094 66.8125 262.15625 67.144531 261.511719 67.539062 C 261.4375 67.582031 260.914062 67.882812 261.007812 67.992188 C 261.234375 68.265625 262.429688 68.019531 262.710938 67.988281 C 264.511719 67.769531 266.273438 67.398438 268.042969 67.058594 C 269.863281 66.710938 272.222656 66.683594 273.886719 65.949219 C 274.730469 65.578125 275.425781 64.699219 276.023438 64.117188 C 277.496094 62.6875 278.90625 61.210938 280.335938 59.75 C 281.886719 58.160156 284.351562 55.902344 284.386719 53.730469 C 284.425781 51.507812 279.914062 51.640625 278.117188 51.507812 C 277.507812 51.464844 276.898438 51.398438 276.289062 51.347656 C 274.128906 51.167969 271.914062 51.070312 269.742188 51.136719 C 268.96875 51.160156 267.910156 51.050781 267.191406 51.332031 C 266.175781 51.726562 265.632812 52.671875 265.078125 53.410156 C 263.773438 55.144531 262.75 57.542969 261.886719 59.453125 Z M 261.886719 59.453125 " fill-opacity="1" fill-rule="evenodd"/><path fill="#000000" d="M 83.410156 58.210938 C 83.476562 58.316406 84.097656 58.125 84.238281 58.09375 C 84.570312 58.023438 84.902344 57.964844 85.234375 57.910156 C 86.265625 57.738281 87.300781 57.609375 88.351562 57.554688 C 91.582031 57.382812 95.355469 57.445312 98.378906 58.523438 C 98.476562 58.394531 98.082031 58.71875 97.933594 58.816406 C 97.601562 59.042969 97.25 59.25 96.894531 59.449219 C 95.910156 60.011719 94.921875 60.578125 93.886719 61.078125 C 90.972656 62.484375 87.925781 63.714844 85.074219 65.214844 C 84.398438 65.570312 83.683594 65.902344 83.035156 66.296875 C 82.964844 66.339844 82.441406 66.640625 82.535156 66.753906 C 82.761719 67.023438 83.957031 66.777344 84.234375 66.746094 C 86.035156 66.527344 87.800781 66.160156 89.570312 65.816406 C 91.386719 65.46875 93.746094 65.441406 95.414062 64.707031 C 96.257812 64.335938 96.949219 63.457031 97.550781 62.875 C 99.023438 61.445312 100.433594 59.96875 101.859375 58.507812 C 103.414062 56.917969 105.875 54.660156 105.914062 52.488281 C 105.953125 50.265625 101.4375 50.398438 99.644531 50.265625 C 99.03125 50.222656 98.425781 50.15625 97.816406 50.105469 C 95.652344 49.925781 93.441406 49.828125 91.265625 49.894531 C 90.492188 49.917969 89.4375 49.8125 88.714844 50.09375 C 87.703125 50.484375 87.160156 51.433594 86.605469 52.171875 C 85.300781 53.902344 84.277344 56.300781 83.410156 58.210938 Z M 83.410156 58.210938 " fill-opacity="1" fill-rule="evenodd"/><path fill="#000000" d="M 213.203125 74.722656 C 213.203125 74.632812 214.160156 73.382812 214.179688 73.347656 C 214.375 73.085938 214.578125 72.832031 214.789062 72.578125 C 215.453125 71.765625 216.105469 70.945312 216.75 70.113281 C 218.363281 68.035156 220.089844 66.054688 221.777344 64.039062 C 222.167969 63.574219 222.566406 63.109375 223.007812 62.695312 C 223.058594 62.648438 223.398438 62.277344 223.496094 62.378906 C 223.644531 62.542969 223.457031 63.113281 223.414062 63.289062 C 223.226562 64.160156 222.925781 65.023438 222.570312 65.84375 C 221.0625 69.328125 218.203125 72.179688 215.945312 75.183594 C 215.410156 75.226562 215.605469 75.925781 215.804688 76.152344 C 216.59375 77.039062 217.4375 77.839844 218.164062 78.796875 C 220.003906 81.238281 221.066406 83.535156 221.15625 86.652344 C 221.191406 87.867188 221.132812 89.082031 220.84375 90.273438 C 219.988281 93.753906 217.15625 96.023438 214.21875 97.792969 C 212.539062 98.808594 210.378906 99.9375 208.355469 99.757812 C 205.710938 99.527344 204.640625 97.191406 204.289062 94.84375 C 203.578125 90.089844 205.40625 85.703125 207.875 81.722656 C 208.496094 80.714844 209.160156 79.730469 209.847656 78.761719 C 210.117188 78.378906 210.648438 77.90625 210.785156 77.441406 C 210.828125 77.273438 210.492188 77.230469 210.378906 77.09375 C 209.945312 76.570312 209.519531 76.039062 209.082031 75.515625 C 207.59375 73.75 206.082031 72.003906 204.570312 70.257812 C 204.191406 69.824219 203.335938 69.859375 203.101562 69.332031 C 202.441406 67.871094 203.15625 65.675781 203.410156 64.1875 C 203.46875 63.8125 203.5 62.546875 204.121094 62.582031 C 204.628906 62.613281 205.339844 63.242188 205.765625 63.492188 C 207.25 64.378906 208.671875 65.40625 210.0625 66.4375 C 210.425781 66.707031 211.503906 67.421875 211.46875 67.976562 C 211.453125 68.230469 211.011719 68.273438 210.828125 68.292969 C 210.378906 68.347656 209.238281 68.203125 208.894531 68.535156 C 208.585938 68.84375 209.082031 69.628906 209.226562 69.902344 C 209.878906 71.128906 212.167969 73.792969 213.203125 74.722656 C 213.207031 74.726562 213.207031 74.726562 213.207031 74.726562 Z M 212.855469 80.535156 C 212.582031 80.601562 212.316406 80.988281 212.136719 81.164062 C 211.648438 81.652344 211.171875 82.152344 210.710938 82.671875 C 210.277344 83.164062 209.863281 83.671875 209.480469 84.199219 C 209.125 84.675781 208.804688 85.171875 208.496094 85.675781 C 207.3125 87.644531 205.644531 92.050781 208.804688 93.246094 C 211.84375 94.390625 215.003906 91.640625 217.054688 89.78125 C 217.75 89.152344 219.082031 88.121094 219.039062 87.066406 C 219.007812 86.308594 218.394531 85.570312 217.941406 84.992188 C 216.734375 83.441406 214.496094 81.628906 212.855469 80.535156 Z M 212.855469 80.535156 " fill-opacity="1" fill-rule="evenodd"/><path fill="#000000" d="M 71.492188 80.527344 L 69.972656 85.003906 L 144.476562 58.042969 L 149.601562 51.828125 C 149.601562 51.828125 72.15625 80.191406 71.492188 80.527344 Z M 71.492188 80.527344 " fill-opacity="1" fill-rule="evenodd"/><path fill="#000000" d="M 195.171875 110.835938 C 194.621094 111.582031 195.15625 107.242188 195.128906 106.304688 C 195.023438 102.085938 194.609375 97.894531 194.222656 93.691406 C 192.800781 78.375 190.152344 61.847656 188.660156 46.542969 C 188.453125 46.445312 188.480469 45.488281 188.457031 45.324219 C 188.296875 43.96875 188.125 42.613281 188.003906 41.253906 C 187.746094 38.351562 187.65625 35.429688 187.257812 32.539062 C 187.203125 32.113281 187.132812 31.597656 186.828125 31.234375 C 186.589844 30.945312 185.984375 30.734375 186.023438 30.339844 C 186.097656 29.625 186.527344 28.863281 186.820312 28.1875 C 187.015625 27.734375 187.214844 27.28125 187.4375 26.832031 C 187.546875 26.605469 187.664062 26.378906 187.808594 26.164062 C 187.902344 26.019531 188.011719 25.878906 188.128906 25.742188 C 188.953125 24.785156 189.277344 26.03125 189.5625 26.660156 C 190.035156 27.710938 190.488281 28.769531 190.9375 29.828125 C 191.503906 31.167969 192.132812 32.488281 192.757812 33.808594 C 193.53125 35.4375 194.289062 37.066406 194.871094 38.75 C 195.085938 39.367188 195.507812 40.222656 195.351562 40.882812 C 195.253906 41.300781 194.300781 40.550781 194.183594 40.457031 C 193.53125 39.949219 192.957031 39.371094 192.386719 38.804688 C 192.347656 38.765625 191.957031 38.3125 191.832031 38.371094 C 191.695312 38.4375 191.871094 39.351562 191.882812 39.457031 C 191.917969 39.796875 191.953125 40.136719 191.996094 40.472656 C 192.0625 40.984375 192.125 41.492188 192.183594 42.003906 C 192.210938 42.238281 192.296875 42.816406 192.316406 43.019531 C 192.445312 44.148438 192.582031 45.273438 192.691406 46.402344 C 193.121094 50.710938 193.5625 55.015625 194.082031 59.3125 C 195.152344 68.152344 196.308594 76.984375 197.324219 85.832031 C 197.933594 91.117188 199.03125 96.492188 198.445312 101.835938 C 198.160156 104.414062 195.722656 110.089844 195.171875 110.835938 Z M 195.171875 110.835938 " fill-opacity="1" fill-rule="evenodd"/><path fill="#000000" d="M 141.796875 39.765625 C 141.6875 39.742188 141.167969 40.375 141.121094 40.433594 C 140.675781 40.957031 140.273438 41.53125 140.085938 42.144531 C 139.898438 42.761719 140.113281 43.398438 140.367188 43.980469 C 140.8125 45.003906 141.496094 45.957031 141.910156 46.992188 C 142.09375 47.449219 142.628906 48.496094 141.765625 48.738281 C 140.136719 49.191406 138.578125 47.789062 138.234375 46.695312 C 138.058594 46.132812 138.117188 45.546875 138.050781 44.972656 C 138.007812 44.597656 137.929688 44.21875 137.824219 43.851562 C 137.664062 43.296875 137.457031 42.753906 137.226562 42.214844 C 137.007812 41.699219 136.769531 41.183594 136.496094 40.683594 C 136.453125 40.605469 136.3125 40.273438 136.1875 40.253906 C 136.046875 40.230469 135.789062 40.726562 135.75 40.792969 C 135.378906 41.421875 134.8125 42.171875 134.652344 42.855469 C 134.609375 43.039062 134.8125 43.265625 134.917969 43.414062 C 135.183594 43.785156 135.4375 44.175781 135.636719 44.570312 C 136.304688 45.90625 136.109375 47.46875 135.429688 48.78125 C 135.066406 49.488281 134.027344 50.058594 132.992188 49.71875 C 132.050781 49.410156 131.796875 48.609375 131.777344 47.894531 C 131.730469 46.414062 132.144531 44.96875 131.980469 43.480469 C 131.921875 42.949219 131.761719 42.429688 131.550781 41.921875 C 131.527344 41.859375 131.371094 41.441406 131.214844 41.488281 C 131.015625 41.550781 130.882812 41.886719 130.796875 42.019531 C 130.476562 42.527344 130.222656 43.058594 129.960938 43.585938 C 129.796875 43.917969 129.46875 44.34375 129.492188 44.710938 C 129.503906 44.9375 129.792969 44.886719 129.886719 45.074219 C 130.070312 45.425781 130.070312 45.835938 130.078125 46.210938 C 130.097656 47.5 129.980469 48.800781 130.242188 50.078125 C 130.410156 50.878906 130.769531 51.6875 131.609375 52.214844 C 132.5 52.777344 133.859375 52.6875 134.789062 52.242188 C 136.128906 51.59375 137.164062 50.128906 136.949219 48.894531 C 136.882812 48.949219 137.09375 49.25 137.121094 49.300781 C 137.371094 49.726562 137.671875 50.128906 138.082031 50.472656 C 139.296875 51.496094 141.933594 52.140625 143.074219 50.714844 C 143.78125 49.828125 143.894531 48.683594 143.894531 47.667969 C 143.894531 46.449219 143.65625 45.238281 143.269531 44.058594 C 142.847656 42.78125 142.011719 41.078125 141.796875 39.765625 Z M 141.796875 39.765625 " fill-opacity="1" fill-rule="evenodd"/></svg>