<svg xmlns="http://www.w3.org/2000/svg" xmlns:xlink="http://www.w3.org/1999/xlink" width="500" zoomAndPan="magnify" viewBox="0 0 375 149.999998" height="200" preserveAspectRatio="xMidYMid meet" version="1.0"><defs><clipPath id="235681d156"><path d="M 302 19.6875 L 342 19.6875 L 342 69 L 302 69 Z M 302 19.6875 " clip-rule="nonzero"/></clipPath><clipPath id="445ccbeae4"><path d="M 302 81 L 342 81 L 342 130.6875 L 302 130.6875 Z M 302 81 " clip-rule="nonzero"/></clipPath><clipPath id="b72835ae83"><path d="M 33 19.6875 L 73 19.6875 L 73 69 L 33 69 Z M 33 19.6875 " clip-rule="nonzero"/></clipPath><clipPath id="b0afdd9d8c"><path d="M 33 81 L 73 81 L 73 130.6875 L 33 130.6875 Z M 33 81 " clip-rule="nonzero"/></clipPath></defs><g clip-path="url(#235681d156)"><path fill="#000000" d="M 302.394531 19.808594 C 302.144531 19.746094 302.910156 19.855469 303.164062 19.902344 C 303.652344 20 304.140625 20.109375 304.628906 20.203125 C 306.035156 20.480469 307.40625 20.824219 308.765625 21.308594 C 312.863281 22.769531 316.792969 24.949219 320.398438 27.507812 C 329.117188 33.699219 335.648438 42.992188 339.253906 53.585938 C 340.128906 56.164062 340.886719 58.796875 341.5 61.464844 C 341.722656 62.421875 342.253906 63.789062 341.839844 64.761719 C 341.121094 66.460938 339.21875 67.535156 337.886719 68.582031 C 338.058594 68.800781 337.359375 68.652344 337.09375 68.703125 C 336.558594 68.804688 335.976562 68.570312 335.480469 68.367188 C 334.082031 67.792969 332.683594 66.539062 331.359375 65.71875 C 330.289062 65.050781 330.238281 63.40625 329.917969 62.21875 C 329.226562 59.671875 328.351562 57.183594 327.410156 54.734375 C 322.578125 42.128906 312.316406 28.234375 302.394531 19.808594 Z M 302.394531 19.808594 " fill-opacity="1" fill-rule="evenodd"/></g><g clip-path="url(#445ccbeae4)"><path fill="#000000" d="M 302.394531 130.101562 C 302.144531 130.164062 302.910156 130.058594 303.164062 130.007812 C 303.652344 129.914062 304.140625 129.800781 304.628906 129.707031 C 306.035156 129.433594 307.40625 129.085938 308.765625 128.601562 C 312.863281 127.144531 316.792969 124.960938 320.398438 122.402344 C 329.117188 116.210938 335.648438 106.917969 339.253906 96.324219 C 340.128906 93.746094 340.886719 91.113281 341.5 88.445312 C 341.722656 87.488281 342.253906 86.121094 341.839844 85.148438 C 341.121094 83.449219 339.21875 82.375 337.886719 81.328125 C 338.058594 81.109375 337.359375 81.257812 337.09375 81.207031 C 336.558594 81.105469 335.976562 81.339844 335.480469 81.542969 C 334.082031 82.121094 332.683594 83.371094 331.359375 84.191406 C 330.289062 84.859375 330.238281 86.503906 329.917969 87.695312 C 329.226562 90.238281 328.351562 92.726562 327.410156 95.175781 C 322.578125 107.78125 312.316406 121.675781 302.394531 130.101562 Z M 302.394531 130.101562 " fill-opacity="1" fill-rule="evenodd"/></g><path fill="#000000" d="M 351.144531 68.144531 C 350.992188 68.054688 350.847656 67.976562 350.765625 67.917969 C 349.941406 67.324219 349.230469 66.640625 348.65625 65.761719 C 346.660156 62.703125 345.980469 58.886719 343.988281 55.808594 C 343.324219 54.78125 342.503906 53.894531 341.585938 53.128906 C 341.179688 52.785156 340.738281 52.488281 340.328125 52.144531 C 340.230469 52.066406 340 51.863281 339.914062 51.699219 C 339.777344 51.449219 339.789062 51.199219 339.882812 50.992188 C 339.949219 50.847656 340.070312 50.664062 340.371094 50.578125 C 341.609375 50.222656 343.339844 50.761719 344.496094 51.148438 C 347.746094 52.238281 350.960938 54.277344 352.957031 57.335938 C 353.492188 58.160156 353.875 59.097656 354.269531 60.027344 C 354.625 60.863281 354.992188 61.695312 355.527344 62.386719 C 355.894531 62.863281 356.371094 63.195312 356.867188 63.496094 C 357.441406 63.84375 358.042969 64.152344 358.582031 64.542969 C 360.132812 65.664062 361.144531 67.433594 361.867188 69.265625 C 362.101562 69.851562 362.316406 70.457031 362.492188 71.066406 C 362.5625 71.3125 362.617188 71.5625 362.660156 71.8125 C 362.671875 71.882812 362.671875 72.066406 362.667969 72.171875 C 362.675781 72.226562 362.671875 72.277344 362.664062 72.332031 C 362.609375 72.726562 362.375 72.855469 362.179688 72.890625 C 360.703125 73.472656 359.238281 74.070312 357.773438 74.695312 L 357.6875 74.730469 C 358.625 75.234375 359.558594 75.746094 360.492188 76.257812 C 360.695312 76.367188 361.234375 76.535156 361.589844 76.746094 C 361.886719 76.917969 362.085938 77.144531 362.167969 77.34375 C 362.242188 77.519531 362.269531 77.769531 362.226562 78.050781 C 362.179688 78.382812 362.019531 78.796875 361.960938 78.992188 C 361.597656 80.246094 361.054688 81.472656 360.40625 82.578125 C 359.800781 83.609375 359.078125 84.542969 358.203125 85.3125 C 357.054688 86.316406 355.703125 87.054688 354.773438 88.335938 C 354.132812 89.21875 353.753906 90.261719 353.351562 91.296875 C 352.90625 92.449219 352.4375 93.59375 351.667969 94.574219 C 349.679688 97.101562 346.796875 98.75 343.738281 99.015625 C 343.042969 99.074219 342.328125 99.121094 341.628906 99.066406 C 341.53125 99.058594 341.097656 99.03125 340.902344 98.933594 C 340.675781 98.8125 340.558594 98.625 340.511719 98.4375 C 340.460938 98.230469 340.480469 97.9375 340.742188 97.699219 C 340.859375 97.589844 341.246094 97.410156 341.3125 97.378906 C 341.742188 97.15625 342.148438 96.886719 342.550781 96.601562 C 343.597656 95.851562 344.503906 94.894531 345.242188 93.789062 C 345.878906 92.84375 346.433594 91.796875 346.871094 90.726562 C 347.003906 90.398438 347.140625 90.058594 347.226562 89.710938 C 347.234375 89.660156 347.261719 89.46875 347.289062 89.347656 C 347.234375 88.269531 347.066406 87.179688 347.117188 86.160156 C 347.183594 84.9375 347.539062 83.804688 348.632812 82.855469 C 349.738281 81.894531 351.046875 81.363281 352.292969 80.675781 C 352.371094 80.636719 352.535156 80.539062 352.667969 80.464844 C 352.230469 79.933594 351.488281 79.539062 350.960938 79.210938 C 349.292969 78.160156 347.476562 77.378906 345.691406 76.601562 C 344.894531 76.257812 344.097656 75.933594 343.28125 75.648438 C 342.964844 75.535156 342.640625 75.425781 342.316406 75.335938 L 342.25 75.316406 C 340.957031 76.78125 339.441406 78.054688 338.050781 79.394531 C 337.667969 79.765625 337.277344 80.125 336.894531 80.496094 C 336.859375 80.542969 336.695312 80.734375 336.613281 80.808594 C 336.53125 80.882812 336.457031 80.925781 336.402344 80.949219 C 336.164062 81.054688 335.972656 80.988281 335.84375 80.90625 C 334.070312 79.742188 332.320312 78.542969 330.574219 77.328125 C 329.992188 76.921875 329.414062 76.503906 328.828125 76.105469 C 328.640625 75.976562 328.449219 75.851562 328.257812 75.730469 C 328.1875 75.6875 328.121094 75.644531 328.054688 75.597656 C 327.9375 75.550781 327.832031 75.464844 327.761719 75.351562 C 327.597656 75.089844 327.648438 74.882812 327.675781 74.785156 C 327.722656 74.605469 327.816406 74.445312 327.988281 74.363281 C 330.632812 72.011719 333.535156 70.125 336.410156 68.144531 C 336.640625 67.992188 336.929688 68.011719 337.132812 68.203125 C 337.753906 68.78125 339.988281 70.851562 340.609375 71.425781 C 341.183594 71.960938 341.761719 72.492188 342.339844 73.023438 C 342.476562 73.148438 342.625 73.308594 342.78125 73.449219 C 342.871094 73.527344 342.957031 73.605469 343.050781 73.644531 C 343.097656 73.632812 343.3125 73.566406 343.4375 73.507812 C 343.71875 73.367188 343.992188 73.195312 344.152344 73.109375 C 345.632812 72.328125 346.882812 71.113281 348.230469 70.101562 C 349.089844 69.457031 349.980469 68.851562 350.890625 68.292969 C 350.953125 68.253906 351.042969 68.203125 351.144531 68.144531 Z M 342 51.820312 C 342.753906 51.933594 343.539062 52.210938 344.140625 52.410156 C 347.140625 53.417969 350.121094 55.273438 351.964844 58.101562 C 353.003906 59.695312 353.445312 61.746094 354.597656 63.238281 C 355.464844 64.363281 356.8125 64.847656 357.90625 65.640625 C 359.265625 66.621094 360.121094 68.191406 360.75 69.785156 C 360.96875 70.332031 361.167969 70.890625 361.332031 71.457031 C 361.363281 71.566406 361.390625 71.675781 361.414062 71.789062 C 360.046875 72.328125 358.6875 72.886719 357.332031 73.464844 C 357.203125 73.519531 356.378906 73.789062 356.058594 74.011719 C 355.726562 74.242188 355.652344 74.554688 355.664062 74.75 C 355.675781 74.988281 355.808594 75.203125 356.003906 75.304688 C 357.328125 76 358.632812 76.722656 359.949219 77.4375 C 360.085938 77.511719 360.371094 77.617188 360.660156 77.738281 C 360.765625 77.78125 360.902344 77.855469 361 77.910156 C 360.945312 78.105469 360.839844 78.472656 360.804688 78.59375 C 360.472656 79.738281 359.976562 80.859375 359.382812 81.867188 C 358.847656 82.773438 358.214844 83.605469 357.4375 84.285156 C 356.222656 85.351562 354.808594 86.160156 353.820312 87.515625 C 353.113281 88.496094 352.675781 89.636719 352.234375 90.785156 C 351.835938 91.8125 351.433594 92.839844 350.746094 93.714844 C 348.964844 95.976562 346.382812 97.460938 343.640625 97.699219 C 343.484375 97.710938 343.328125 97.726562 343.171875 97.734375 L 343.21875 97.703125 C 344.386719 96.867188 345.398438 95.800781 346.222656 94.570312 C 346.90625 93.546875 347.511719 92.414062 347.980469 91.261719 C 348.140625 90.863281 348.304688 90.453125 348.40625 90.03125 C 348.417969 89.996094 348.4375 89.839844 348.449219 89.765625 C 348.492188 89.667969 348.515625 89.554688 348.511719 89.441406 C 348.472656 88.558594 348.347656 87.667969 348.324219 86.816406 C 348.296875 85.730469 348.449219 84.707031 349.390625 83.890625 C 350.429688 82.984375 351.667969 82.5 352.839844 81.855469 C 353.058594 81.738281 353.476562 81.546875 353.707031 81.296875 C 353.867188 81.128906 353.964844 80.933594 354 80.730469 C 354.039062 80.5 354.015625 80.246094 353.851562 79.976562 C 353.363281 79.164062 352.3125 78.53125 351.570312 78.066406 C 349.851562 76.984375 347.980469 76.175781 346.140625 75.375 C 345.492188 75.09375 344.84375 74.824219 344.183594 74.582031 C 344.382812 74.46875 344.5625 74.363281 344.679688 74.300781 C 346.21875 73.488281 347.523438 72.238281 348.921875 71.1875 C 349.75 70.566406 350.605469 69.984375 351.484375 69.445312 C 351.667969 69.332031 352.058594 69.121094 352.28125 68.875 C 352.480469 68.652344 352.582031 68.390625 352.582031 68.128906 C 352.582031 67.863281 352.46875 67.585938 352.234375 67.355469 C 352.003906 67.125 351.601562 66.933594 351.4375 66.816406 C 350.738281 66.3125 350.132812 65.742188 349.648438 64.996094 C 347.652344 61.9375 346.972656 58.125 344.980469 55.046875 C 344.246094 53.910156 343.339844 52.925781 342.328125 52.082031 C 342.222656 51.992188 342.113281 51.90625 342 51.820312 Z M 336.683594 69.523438 C 337.550781 70.328125 339.285156 71.933594 339.820312 72.433594 C 340.398438 72.96875 340.976562 73.503906 341.558594 74.035156 L 341.625 74.097656 C 341.59375 74.128906 341.570312 74.164062 341.546875 74.195312 C 340.242188 75.726562 338.675781 77.027344 337.242188 78.410156 C 336.859375 78.78125 336.464844 79.144531 336.082031 79.515625 C 334.449219 78.441406 332.835938 77.335938 331.230469 76.214844 C 330.644531 75.808594 330.0625 75.386719 329.472656 74.984375 L 329.328125 74.890625 C 331.660156 72.898438 334.179688 71.238281 336.683594 69.523438 Z M 336.683594 69.523438 " fill-opacity="1" fill-rule="evenodd"/><path fill="#000000" d="M 375.019531 75.402344 L 362.664062 72.332031 L 357.019531 74.777344 L 361.707031 77.214844 Z M 375.019531 75.402344 " fill-opacity="1" fill-rule="evenodd"/><g clip-path="url(#b72835ae83)"><path fill="#000000" d="M 72.613281 19.808594 C 72.863281 19.746094 72.097656 19.855469 71.84375 19.902344 C 71.355469 20 70.871094 20.109375 70.378906 20.203125 C 68.976562 20.480469 67.605469 20.824219 66.246094 21.308594 C 62.144531 22.769531 58.214844 24.949219 54.609375 27.507812 C 45.890625 33.699219 39.363281 42.992188 35.753906 53.585938 C 34.878906 56.164062 34.121094 58.796875 33.507812 61.464844 C 33.285156 62.421875 32.753906 63.789062 33.167969 64.761719 C 33.886719 66.460938 35.789062 67.535156 37.121094 68.582031 C 36.949219 68.800781 37.648438 68.652344 37.914062 68.703125 C 38.449219 68.804688 39.03125 68.570312 39.527344 68.367188 C 40.929688 67.792969 42.324219 66.539062 43.648438 65.71875 C 44.71875 65.050781 44.769531 63.40625 45.09375 62.21875 C 45.78125 59.671875 46.65625 57.183594 47.597656 54.734375 C 52.429688 42.128906 62.695312 28.234375 72.613281 19.808594 Z M 72.613281 19.808594 " fill-opacity="1" fill-rule="evenodd"/></g><g clip-path="url(#b0afdd9d8c)"><path fill="#000000" d="M 72.613281 130.101562 C 72.863281 130.164062 72.097656 130.058594 71.84375 130.007812 C 71.355469 129.914062 70.871094 129.800781 70.378906 129.707031 C 68.976562 129.433594 67.605469 129.085938 66.246094 128.601562 C 62.144531 127.144531 58.214844 124.960938 54.609375 122.402344 C 45.890625 116.210938 39.363281 106.917969 35.753906 96.324219 C 34.878906 93.746094 34.121094 91.113281 33.507812 88.445312 C 33.285156 87.488281 32.753906 86.121094 33.167969 85.148438 C 33.886719 83.449219 35.789062 82.375 37.121094 81.328125 C 36.949219 81.109375 37.648438 81.257812 37.914062 81.207031 C 38.449219 81.105469 39.03125 81.339844 39.527344 81.542969 C 40.929688 82.121094 42.324219 83.371094 43.648438 84.191406 C 44.71875 84.859375 44.769531 86.503906 45.09375 87.695312 C 45.78125 90.238281 46.65625 92.726562 47.597656 95.175781 C 52.429688 107.78125 62.695312 121.675781 72.613281 130.101562 Z M 72.613281 130.101562 " fill-opacity="1" fill-rule="evenodd"/></g><path fill="#000000" d="M 23.863281 68.144531 C 24.015625 68.054688 24.160156 67.976562 24.242188 67.917969 C 25.066406 67.324219 25.777344 66.640625 26.351562 65.761719 C 28.347656 62.703125 29.027344 58.886719 31.019531 55.808594 C 31.6875 54.78125 32.507812 53.894531 33.421875 53.128906 C 33.832031 52.785156 34.273438 52.488281 34.679688 52.144531 C 34.777344 52.066406 35.007812 51.863281 35.09375 51.699219 C 35.230469 51.449219 35.21875 51.199219 35.125 50.992188 C 35.0625 50.847656 34.9375 50.664062 34.636719 50.578125 C 33.398438 50.222656 31.671875 50.761719 30.511719 51.148438 C 27.261719 52.238281 24.046875 54.277344 22.054688 57.335938 C 21.515625 58.160156 21.132812 59.097656 20.738281 60.027344 C 20.382812 60.863281 20.015625 61.695312 19.480469 62.386719 C 19.113281 62.863281 18.636719 63.195312 18.140625 63.496094 C 17.566406 63.84375 16.964844 64.152344 16.429688 64.542969 C 14.875 65.664062 13.863281 67.433594 13.140625 69.265625 C 12.90625 69.851562 12.691406 70.457031 12.515625 71.066406 C 12.445312 71.3125 12.394531 71.5625 12.351562 71.8125 C 12.335938 71.882812 12.335938 72.066406 12.339844 72.171875 C 12.332031 72.226562 12.335938 72.277344 12.34375 72.332031 C 12.398438 72.726562 12.632812 72.855469 12.828125 72.890625 C 14.304688 73.472656 15.773438 74.070312 17.234375 74.695312 L 17.320312 74.730469 C 16.386719 75.234375 15.449219 75.746094 14.515625 76.257812 C 14.316406 76.367188 13.773438 76.535156 13.417969 76.746094 C 13.121094 76.917969 12.925781 77.144531 12.839844 77.34375 C 12.769531 77.519531 12.738281 77.769531 12.78125 78.050781 C 12.828125 78.382812 12.988281 78.796875 13.046875 78.992188 C 13.410156 80.246094 13.953125 81.472656 14.605469 82.578125 C 15.207031 83.609375 15.929688 84.542969 16.808594 85.3125 C 17.957031 86.316406 19.304688 87.054688 20.234375 88.335938 C 20.875 89.21875 21.257812 90.261719 21.65625 91.296875 C 22.101562 92.449219 22.570312 93.59375 23.339844 94.574219 C 25.328125 97.101562 28.210938 98.75 31.269531 99.015625 C 31.964844 99.074219 32.683594 99.121094 33.378906 99.066406 C 33.476562 99.058594 33.910156 99.03125 34.105469 98.933594 C 34.335938 98.8125 34.449219 98.625 34.496094 98.4375 C 34.546875 98.230469 34.527344 97.9375 34.269531 97.699219 C 34.148438 97.589844 33.761719 97.410156 33.695312 97.378906 C 33.265625 97.15625 32.859375 96.886719 32.460938 96.601562 C 31.410156 95.851562 30.503906 94.894531 29.765625 93.789062 C 29.132812 92.84375 28.574219 91.796875 28.140625 90.726562 C 28.003906 90.398438 27.867188 90.058594 27.78125 89.710938 C 27.773438 89.660156 27.746094 89.46875 27.71875 89.347656 C 27.773438 88.269531 27.945312 87.179688 27.890625 86.160156 C 27.828125 84.9375 27.46875 83.804688 26.378906 82.855469 C 25.273438 81.894531 23.960938 81.363281 22.714844 80.675781 C 22.636719 80.636719 22.472656 80.539062 22.339844 80.464844 C 22.78125 79.933594 23.519531 79.539062 24.046875 79.210938 C 25.714844 78.160156 27.53125 77.378906 29.316406 76.601562 C 30.113281 76.257812 30.910156 75.933594 31.726562 75.648438 C 32.046875 75.535156 32.367188 75.425781 32.691406 75.335938 L 32.757812 75.316406 C 34.050781 76.78125 35.570312 78.054688 36.960938 79.394531 C 37.339844 79.765625 37.730469 80.125 38.113281 80.496094 C 38.148438 80.542969 38.3125 80.734375 38.394531 80.808594 C 38.476562 80.882812 38.550781 80.925781 38.605469 80.949219 C 38.84375 81.054688 39.035156 80.988281 39.164062 80.90625 C 40.9375 79.742188 42.691406 78.542969 44.433594 77.328125 C 45.015625 76.921875 45.59375 76.503906 46.179688 76.105469 C 46.367188 75.976562 46.558594 75.851562 46.753906 75.730469 C 46.820312 75.6875 46.886719 75.644531 46.953125 75.597656 C 47.070312 75.550781 47.175781 75.464844 47.246094 75.351562 C 47.414062 75.089844 47.359375 74.882812 47.332031 74.785156 C 47.285156 74.605469 47.191406 74.445312 47.019531 74.363281 C 44.375 72.011719 41.472656 70.125 38.597656 68.144531 C 38.371094 67.992188 38.078125 68.011719 37.875 68.203125 C 37.253906 68.78125 35.023438 70.851562 34.402344 71.425781 C 33.824219 71.960938 33.246094 72.492188 32.667969 73.023438 C 32.53125 73.148438 32.382812 73.308594 32.226562 73.449219 C 32.136719 73.527344 32.050781 73.605469 31.957031 73.644531 C 31.910156 73.632812 31.695312 73.566406 31.570312 73.507812 C 31.289062 73.367188 31.015625 73.195312 30.855469 73.109375 C 29.375 72.328125 28.125 71.113281 26.777344 70.101562 C 25.917969 69.457031 25.03125 68.851562 24.117188 68.292969 C 24.058594 68.253906 23.964844 68.203125 23.863281 68.144531 Z M 33.007812 51.820312 C 32.253906 51.933594 31.472656 52.210938 30.871094 52.410156 C 27.867188 53.417969 24.886719 55.273438 23.042969 58.101562 C 22.003906 59.695312 21.5625 61.746094 20.410156 63.238281 C 19.542969 64.363281 18.199219 64.847656 17.101562 65.640625 C 15.746094 66.621094 14.890625 68.191406 14.257812 69.785156 C 14.039062 70.332031 13.839844 70.890625 13.675781 71.457031 C 13.644531 71.566406 13.617188 71.675781 13.59375 71.789062 C 14.960938 72.328125 16.324219 72.886719 17.675781 73.464844 C 17.804688 73.519531 18.632812 73.789062 18.949219 74.011719 C 19.28125 74.242188 19.355469 74.554688 19.34375 74.75 C 19.332031 74.988281 19.199219 75.203125 19.003906 75.304688 C 17.679688 76 16.375 76.722656 15.0625 77.4375 C 14.921875 77.511719 14.636719 77.617188 14.347656 77.738281 C 14.246094 77.78125 14.105469 77.855469 14.007812 77.910156 C 14.0625 78.105469 14.167969 78.472656 14.203125 78.59375 C 14.535156 79.738281 15.03125 80.859375 15.625 81.867188 C 16.164062 82.773438 16.792969 83.605469 17.570312 84.285156 C 18.789062 85.351562 20.203125 86.160156 21.1875 87.515625 C 21.898438 88.496094 22.332031 89.636719 22.773438 90.785156 C 23.175781 91.8125 23.574219 92.839844 24.261719 93.714844 C 26.046875 95.976562 28.628906 97.460938 31.367188 97.699219 C 31.523438 97.710938 31.679688 97.726562 31.835938 97.734375 L 31.789062 97.703125 C 30.621094 96.867188 29.609375 95.800781 28.785156 94.570312 C 28.101562 93.546875 27.5 92.414062 27.027344 91.261719 C 26.867188 90.863281 26.707031 90.453125 26.601562 90.03125 C 26.59375 89.996094 26.570312 89.839844 26.558594 89.765625 C 26.515625 89.667969 26.492188 89.554688 26.496094 89.441406 C 26.535156 88.558594 26.664062 87.667969 26.683594 86.816406 C 26.710938 85.730469 26.558594 84.707031 25.617188 83.890625 C 24.578125 82.984375 23.339844 82.5 22.167969 81.855469 C 21.949219 81.738281 21.53125 81.546875 21.300781 81.296875 C 21.140625 81.128906 21.042969 80.933594 21.007812 80.730469 C 20.96875 80.5 20.996094 80.246094 21.15625 79.976562 C 21.644531 79.164062 22.695312 78.53125 23.4375 78.066406 C 25.160156 76.984375 27.027344 76.175781 28.867188 75.375 C 29.515625 75.09375 30.167969 74.824219 30.828125 74.582031 C 30.628906 74.46875 30.445312 74.363281 30.328125 74.300781 C 28.789062 73.488281 27.484375 72.238281 26.089844 71.1875 C 25.257812 70.566406 24.402344 69.984375 23.523438 69.445312 C 23.339844 69.332031 22.949219 69.121094 22.726562 68.875 C 22.527344 68.652344 22.429688 68.390625 22.429688 68.128906 C 22.425781 67.863281 22.539062 67.585938 22.773438 67.355469 C 23.003906 67.125 23.40625 66.933594 23.570312 66.816406 C 24.269531 66.3125 24.875 65.742188 25.363281 64.996094 C 27.355469 61.9375 28.035156 58.125 30.027344 55.046875 C 30.761719 53.910156 31.667969 52.925781 32.679688 52.082031 C 32.789062 51.992188 32.894531 51.90625 33.007812 51.820312 Z M 38.328125 69.523438 C 37.457031 70.328125 35.726562 71.933594 35.1875 72.433594 C 34.609375 72.96875 34.03125 73.503906 33.453125 74.035156 L 33.386719 74.097656 C 33.414062 74.128906 33.4375 74.164062 33.460938 74.195312 C 34.765625 75.726562 36.332031 77.027344 37.765625 78.410156 C 38.152344 78.78125 38.542969 79.144531 38.925781 79.515625 C 40.558594 78.441406 42.171875 77.335938 43.777344 76.214844 C 44.367188 75.808594 44.945312 75.386719 45.539062 74.984375 L 45.679688 74.890625 C 43.347656 72.898438 40.828125 71.238281 38.328125 69.523438 Z M 38.328125 69.523438 " fill-opacity="1" fill-rule="evenodd"/><path fill="#000000" d="M -0.0117188 75.402344 L 12.34375 72.332031 L 17.988281 74.777344 L 13.304688 77.214844 Z M -0.0117188 75.402344 " fill-opacity="1" fill-rule="evenodd"/><path fill="#000000" d="M 288.371094 87.871094 C 288.308594 87.847656 288.121094 88.167969 288.089844 88.203125 C 287.820312 88.554688 287.585938 88.933594 287.335938 89.304688 C 287.085938 89.675781 286.652344 90.195312 286.714844 90.679688 C 286.855469 91.765625 288.292969 93.433594 286.417969 93.871094 C 284.808594 94.25 282.921875 92.679688 283.039062 91.03125 C 283.085938 90.425781 283.308594 89.863281 283.472656 89.289062 C 283.503906 89.1875 283.628906 88.792969 283.4375 88.765625 C 282.953125 88.699219 282.191406 89.992188 281.972656 90.289062 C 280.84375 91.804688 279.921875 93.808594 278.171875 94.714844 C 276.527344 95.5625 274.542969 94.789062 272.871094 94.402344 C 271.558594 94.097656 270.292969 94.144531 269.003906 94.546875 C 267.238281 95.097656 265.269531 96.824219 263.824219 97.871094 C 259.917969 100.714844 256.242188 103.859375 252.441406 106.839844 C 249.28125 109.308594 245.996094 111.667969 242.625 113.832031 C 239.261719 115.988281 235.941406 118.1875 232.382812 120.003906 C 231.558594 120.425781 230.722656 120.820312 229.90625 121.253906 C 229.734375 121.34375 229.082031 121.519531 229.042969 121.753906 C 228.992188 122.023438 229.710938 122.011719 229.835938 122.019531 C 230.789062 122.078125 231.765625 121.773438 232.679688 121.539062 C 236.199219 120.636719 240.300781 119.355469 243.503906 117.597656 C 245.878906 116.292969 247.878906 114.257812 249.957031 112.535156 C 253.089844 109.9375 256.273438 107.410156 259.4375 104.84375 C 261.992188 102.777344 264.542969 100.589844 267.472656 99.074219 C 268.539062 98.523438 269.769531 97.992188 270.992188 98.101562 C 271.878906 98.179688 272.71875 98.734375 273.523438 99.078125 C 275.34375 99.839844 277.351562 100.03125 279.019531 98.78125 C 279.550781 98.386719 280.011719 97.890625 280.414062 97.359375 C 280.894531 96.722656 281.320312 96.023438 281.597656 95.273438 C 281.144531 95.480469 282.625 96.648438 282.738281 96.71875 C 283.996094 97.484375 285.773438 98.355469 287 97.320312 C 290.847656 94.074219 288.835938 90.351562 288.371094 87.871094 Z M 288.371094 87.871094 " fill-opacity="1" fill-rule="evenodd"/><path fill="#000000" d="M 230.152344 37.183594 C 229.808594 37.289062 229.851562 38.023438 229.339844 38.003906 C 228.832031 37.988281 228.179688 37.261719 227.847656 37.003906 C 226.785156 36.171875 226.039062 35.621094 226.070312 34.351562 C 226.089844 33.605469 226.3125 32.164062 227.445312 31.921875 C 227.816406 31.84375 228.207031 31.957031 228.566406 32.03125 C 228.847656 32.085938 229.125 32.160156 229.371094 32.289062 C 229.714844 32.476562 230.035156 32.734375 230.308594 32.984375 C 230.78125 33.414062 231.160156 33.902344 231.511719 34.402344 C 232.109375 35.25 232.644531 36.109375 233.082031 37.023438 C 233.726562 38.378906 234.253906 39.777344 234.753906 41.171875 C 235.519531 38.804688 236.121094 36.398438 237.179688 34.09375 C 237.660156 33.050781 238.183594 31.816406 239.246094 31.035156 C 240.363281 30.21875 241.503906 30.925781 242.226562 31.746094 C 242.644531 32.21875 243.199219 32.894531 243.246094 33.488281 C 243.296875 34.128906 242.8125 34.878906 242.46875 35.441406 C 242.378906 35.589844 242.179688 35.996094 241.929688 36.027344 C 241.722656 36.054688 241.3125 35.550781 241.203125 35.445312 C 240.511719 34.78125 239.390625 33.527344 238.425781 34.671875 C 238.257812 34.878906 238.128906 35.105469 238.011719 35.332031 C 237.820312 35.703125 237.65625 36.082031 237.515625 36.46875 C 236.597656 39.015625 236.183594 41.65625 235.300781 44.203125 C 235.085938 44.824219 234.835938 45.46875 234.433594 46.03125 C 234.351562 46.148438 234.15625 46.492188 233.941406 46.472656 C 233.707031 46.449219 233.628906 46.089844 233.578125 45.957031 C 233.355469 45.351562 233.230469 44.726562 233.105469 44.105469 C 232.648438 41.78125 231.835938 39.167969 230.152344 37.183594 Z M 230.152344 37.183594 " fill-opacity="1" fill-rule="evenodd"/><path fill="#000000" d="M 139.929688 38.742188 C 139.589844 38.851562 139.632812 39.582031 139.117188 39.566406 C 138.613281 39.546875 137.957031 38.820312 137.628906 38.5625 C 136.566406 37.730469 135.820312 37.179688 135.851562 35.910156 C 135.871094 35.164062 136.09375 33.722656 137.222656 33.484375 C 137.597656 33.40625 137.984375 33.519531 138.347656 33.589844 C 138.628906 33.648438 138.90625 33.71875 139.148438 33.851562 C 139.496094 34.035156 139.8125 34.292969 140.085938 34.542969 C 140.5625 34.972656 140.941406 35.464844 141.289062 35.960938 C 141.890625 36.8125 142.425781 37.667969 142.859375 38.582031 C 143.507812 39.941406 144.03125 41.335938 144.535156 42.730469 C 145.296875 40.363281 145.898438 37.957031 146.957031 35.65625 C 147.441406 34.609375 147.964844 33.375 149.027344 32.597656 C 150.140625 31.777344 151.285156 32.484375 152.007812 33.304688 C 152.421875 33.777344 152.980469 34.453125 153.027344 35.046875 C 153.078125 35.691406 152.589844 36.441406 152.246094 37.003906 C 152.15625 37.148438 151.960938 37.558594 151.710938 37.589844 C 151.5 37.613281 151.089844 37.109375 150.980469 37.003906 C 150.292969 36.34375 149.171875 35.089844 148.207031 36.234375 C 148.035156 36.4375 147.90625 36.664062 147.792969 36.894531 C 147.601562 37.261719 147.433594 37.644531 147.292969 38.027344 C 146.375 40.574219 145.960938 43.214844 145.078125 45.765625 C 144.863281 46.386719 144.613281 47.027344 144.214844 47.59375 C 144.132812 47.707031 143.9375 48.054688 143.71875 48.03125 C 143.488281 48.007812 143.40625 47.648438 143.355469 47.515625 C 143.136719 46.910156 143.007812 46.285156 142.886719 45.664062 C 142.425781 43.34375 141.613281 40.726562 139.929688 38.742188 Z M 139.929688 38.742188 " fill-opacity="1" fill-rule="evenodd"/><path fill="#000000" d="M 230.652344 64.140625 C 230.351562 64.230469 230.386719 64.839844 229.929688 64.824219 C 229.480469 64.8125 228.898438 64.207031 228.605469 63.992188 C 227.664062 63.300781 227 62.839844 227.027344 61.785156 C 227.042969 61.164062 227.242188 59.964844 228.246094 59.765625 C 228.578125 59.699219 228.925781 59.792969 229.246094 59.855469 C 229.496094 59.902344 229.742188 59.960938 229.957031 60.070312 C 230.265625 60.222656 230.550781 60.4375 230.792969 60.644531 C 231.214844 61.003906 231.550781 61.414062 231.863281 61.828125 C 232.394531 62.535156 232.871094 63.25 233.257812 64.007812 C 233.832031 65.140625 234.300781 66.300781 234.746094 67.460938 C 235.425781 65.492188 235.957031 63.488281 236.898438 61.574219 C 237.328125 60.703125 237.792969 59.675781 238.738281 59.027344 C 239.730469 58.34375 240.746094 58.933594 241.386719 59.617188 C 241.757812 60.007812 242.253906 60.570312 242.292969 61.066406 C 242.339844 61.601562 241.90625 62.226562 241.601562 62.691406 C 241.519531 62.816406 241.34375 63.15625 241.121094 63.179688 C 240.9375 63.203125 240.570312 62.78125 240.476562 62.695312 C 239.863281 62.144531 238.867188 61.101562 238.007812 62.054688 C 237.855469 62.222656 237.746094 62.414062 237.640625 62.601562 C 237.472656 62.910156 237.324219 63.226562 237.199219 63.546875 C 236.382812 65.667969 236.015625 67.863281 235.230469 69.984375 C 235.039062 70.503906 234.816406 71.039062 234.460938 71.507812 C 234.386719 71.601562 234.214844 71.890625 234.023438 71.871094 C 233.816406 71.851562 233.742188 71.554688 233.699219 71.441406 C 233.503906 70.9375 233.390625 70.417969 233.28125 69.902344 C 232.871094 67.96875 232.152344 65.792969 230.652344 64.140625 Z M 230.652344 64.140625 " fill-opacity="1" fill-rule="evenodd"/><path fill="#000000" d="M 192.425781 37.15625 L 196.382812 32.304688 L 201.773438 37.234375 L 197.902344 42.105469 Z M 192.425781 37.15625 " fill-opacity="1" fill-rule="evenodd"/><path fill="#000000" d="M 201.777344 36.417969 L 205.734375 31.570312 L 211.125 36.5 L 207.253906 41.371094 Z M 201.777344 36.417969 " fill-opacity="1" fill-rule="evenodd"/><path fill="#000000" d="M 106.210938 76.714844 L 110.167969 71.867188 L 115.558594 76.796875 L 111.6875 81.667969 Z M 106.210938 76.714844 " fill-opacity="1" fill-rule="evenodd"/><path fill="#000000" d="M 115.5625 76.714844 L 119.515625 71.867188 L 124.910156 76.796875 L 121.039062 81.667969 Z M 115.5625 76.714844 " fill-opacity="1" fill-rule="evenodd"/><path fill="#000000" d="M 167.121094 40.386719 C 167.101562 40.402344 167.882812 40.925781 167.9375 40.960938 C 168.253906 41.175781 170.300781 42.664062 170.300781 41.492188 C 170.300781 40.730469 169.742188 39.8125 169.460938 39.125 C 168.59375 36.992188 167.5 34.96875 166.324219 32.988281 C 165.914062 32.300781 165.429688 30.882812 164.707031 30.4375 C 164.476562 30.296875 163.765625 30.914062 163.605469 31.039062 C 162.78125 31.679688 161.148438 32.640625 160.925781 33.742188 C 160.726562 34.734375 162.324219 35.703125 162.914062 36.296875 C 162.960938 36.34375 163.09375 36.964844 163.109375 37.027344 C 163.292969 37.808594 163.515625 38.582031 163.671875 39.371094 C 164.300781 42.546875 164.941406 45.71875 165.574219 48.894531 C 167.640625 59.257812 168.847656 69.78125 170.039062 80.28125 C 170.363281 83.132812 170.40625 85.957031 170.210938 88.820312 C 170.148438 89.789062 170.191406 91.382812 169.523438 92.175781 C 167.484375 94.609375 163.21875 95.609375 160.242188 95.082031 C 159.699219 94.988281 157.476562 94.667969 157.3125 93.894531 C 157.242188 93.554688 157.878906 92.863281 158.039062 92.589844 C 158.691406 91.460938 159.421875 90.351562 159.992188 89.175781 C 161.21875 86.644531 160.222656 82.785156 159.234375 80.324219 C 158.796875 79.242188 158.074219 78.152344 156.976562 77.652344 C 154.554688 76.542969 152.234375 79.117188 150.914062 80.8125 C 149.382812 82.785156 147.410156 85.523438 147.355469 88.148438 C 147.3125 90.28125 148.394531 92.269531 149.480469 94.03125 C 149.246094 93.699219 148.738281 94.355469 148.347656 94.464844 C 147.578125 94.675781 146.78125 94.828125 145.976562 94.792969 C 143.84375 94.707031 141.734375 93.417969 140.382812 91.816406 C 137.648438 88.582031 137.988281 84.015625 137.511719 80.054688 C 136.652344 72.902344 135.230469 65.847656 134.585938 58.660156 C 133.910156 51.148438 133.535156 43.3125 131.273438 36.066406 C 130.730469 34.332031 130.082031 32.632812 129.234375 31.023438 C 129.105469 30.777344 128.625 29.546875 128.261719 29.554688 C 127.609375 29.5625 127.132812 32.054688 126.984375 32.507812 C 126.625 33.59375 125.753906 35.082031 125.738281 36.226562 C 125.730469 36.914062 126.222656 37.726562 126.4375 38.359375 C 126.96875 39.898438 127.46875 41.453125 127.882812 43.027344 C 130.136719 51.566406 131.71875 60.441406 133.054688 69.164062 C 134.109375 76.0625 135.089844 83.167969 134.789062 90.167969 C 134.753906 89.949219 134.441406 90.445312 134.257812 90.574219 C 133.851562 90.851562 133.433594 91.121094 133.015625 91.378906 C 131.804688 92.117188 130.542969 92.800781 129.285156 93.453125 C 128.953125 93.625 128.152344 94.140625 127.738281 94.007812 C 127.191406 93.832031 126.460938 91.824219 126.171875 91.363281 C 124.917969 89.332031 123.066406 86.949219 120.476562 86.75 C 115.265625 86.359375 110.925781 94.058594 113.742188 98.410156 C 116.304688 102.371094 122.390625 100.9375 125.929688 99.347656 C 126.175781 99.234375 125.964844 99.882812 125.992188 100.152344 C 126.058594 100.796875 126.496094 102.433594 126.039062 102.945312 C 124.441406 104.722656 122.390625 106.191406 120.507812 107.632812 C 114.015625 112.613281 105.125 117.292969 96.703125 117.082031 C 89.417969 116.898438 82.789062 113.285156 82.65625 105.34375 C 82.621094 103.210938 83.046875 101.089844 83.628906 99.046875 C 83.761719 98.578125 84.425781 97.269531 83.964844 96.832031 C 83.539062 96.429688 82.757812 97.289062 82.539062 97.550781 C 81.507812 98.773438 80.703125 100.300781 80.339844 101.859375 C 79.238281 106.5625 79.980469 111.8125 82.21875 116.070312 C 87.148438 125.445312 99.835938 124.625 108.238281 121.113281 C 114.886719 118.332031 122.308594 113.910156 126.328125 107.707031 C 127.421875 106.015625 128.0625 104.117188 128.175781 102.105469 C 128.214844 101.367188 127.820312 99.15625 128.269531 98.554688 C 128.570312 98.152344 129.824219 98.097656 130.273438 97.949219 C 131.558594 97.519531 132.832031 96.855469 133.875 95.980469 C 134.617188 95.355469 135.238281 94.597656 135.695312 93.738281 C 135.789062 93.5625 136.070312 92.734375 136.28125 92.675781 C 136.300781 92.671875 137.125 95.738281 137.195312 95.941406 C 137.917969 98.101562 139.121094 99.8125 141.339844 100.609375 C 143.78125 101.488281 146.640625 100.929688 148.882812 99.769531 C 149.523438 99.433594 151.089844 97.992188 151.800781 98.007812 C 152.238281 98.019531 153.019531 99.082031 153.394531 99.328125 C 154.507812 100.050781 155.820312 100.566406 157.140625 100.699219 C 165.148438 101.5 171.480469 97.207031 173.085938 89.625 C 173.128906 89.425781 173.15625 88.21875 173.164062 88.039062 C 173.203125 87.261719 173.210938 86.484375 173.210938 85.710938 C 173.199219 82.898438 173.074219 80.085938 172.882812 77.28125 C 172.105469 65.824219 168.511719 50.859375 166.238281 39.632812 Z M 123.0625 94.9375 C 123.066406 94.949219 122.789062 95.058594 122.773438 95.0625 C 122.421875 95.199219 122.058594 95.304688 121.691406 95.402344 C 120.480469 95.722656 118.605469 96.273438 117.605469 95.191406 C 116.710938 94.226562 117.796875 92.769531 118.820312 92.503906 C 120.109375 92.171875 122.574219 93.011719 123.0625 94.9375 Z M 150.234375 87.085938 C 150.105469 88.484375 150.828125 89.460938 151.140625 89.976562 C 151.917969 91.257812 153.386719 93.289062 155.03125 92.058594 C 155.367188 91.804688 156.40625 91.042969 156.671875 90.714844 C 158.289062 88.738281 158.035156 87.089844 157.011719 84.832031 C 156.730469 84.207031 155.671875 82.640625 154.828125 82.613281 C 154.371094 82.601562 153.949219 82.929688 153.605469 83.195312 C 152.714844 83.882812 151.265625 84.945312 150.234375 87.085938 Z M 150.234375 87.085938 " fill-opacity="1" fill-rule="evenodd"/><path fill="#000000" d="M 148.355469 67.730469 L 152.3125 62.882812 L 157.703125 67.8125 L 153.832031 72.679688 Z M 148.355469 67.730469 " fill-opacity="1" fill-rule="evenodd"/><path fill="#000000" d="M 219.550781 57.269531 L 218.660156 60.589844 L 248.316406 50.628906 L 250.667969 46.476562 C 250.667969 46.476562 219.820312 57.101562 219.550781 57.269531 Z M 219.550781 57.269531 " fill-opacity="1" fill-rule="evenodd"/><path fill="#000000" d="M 136.601562 58.042969 L 135.855469 61.121094 L 160.851562 51.882812 L 162.835938 48.035156 C 162.835938 48.035156 136.832031 57.886719 136.601562 58.042969 Z M 136.601562 58.042969 " fill-opacity="1" fill-rule="evenodd"/><path fill="#000000" d="M 94.6875 69.601562 L 93.941406 72.679688 L 118.9375 63.445312 L 120.921875 59.59375 C 120.921875 59.59375 94.917969 69.445312 94.6875 69.601562 Z M 94.6875 69.601562 " fill-opacity="1" fill-rule="evenodd"/><path fill="#000000" d="M 200.707031 92.96875 C 200.617188 92.792969 200.5 93.160156 200.417969 93.296875 C 200.171875 93.714844 199.9375 94.144531 199.71875 94.578125 C 199.09375 95.816406 198.445312 97.042969 197.894531 98.3125 C 196.355469 101.863281 194.390625 105.535156 194.964844 109.480469 C 195.148438 110.746094 195.550781 112.769531 197.207031 113.046875 C 199.335938 113.40625 200.503906 110.855469 201.117188 109.410156 C 201.261719 109.070312 201.402344 108.730469 201.507812 108.375 C 201.679688 107.792969 201.898438 107.027344 201.695312 106.425781 C 201.492188 105.808594 200.863281 106.722656 200.722656 106.933594 C 200.242188 107.644531 199.535156 109.039062 198.464844 108.28125 C 198.328125 108.183594 198.210938 108.074219 198.109375 107.953125 C 197.957031 107.777344 197.835938 107.582031 197.734375 107.375 C 197.183594 106.261719 197.289062 104.855469 197.539062 103.683594 C 198.0625 101.214844 199.351562 98.941406 200.300781 96.605469 C 200.761719 95.476562 201.714844 93.570312 200.707031 92.96875 C 200.617188 92.914062 201.046875 92.839844 200.984375 92.757812 " fill-opacity="1" fill-rule="evenodd"/><path fill="#000000" d="M 170.695312 118.738281 C 170.789062 118.914062 170.90625 118.546875 170.988281 118.410156 C 171.234375 117.992188 171.46875 117.5625 171.6875 117.128906 C 172.3125 115.890625 172.960938 114.664062 173.511719 113.394531 C 175.050781 109.84375 177.015625 106.171875 176.441406 102.226562 C 176.253906 100.960938 175.855469 98.9375 174.199219 98.660156 C 172.066406 98.300781 170.902344 100.851562 170.289062 102.296875 C 170.144531 102.636719 170 102.976562 169.894531 103.332031 C 169.722656 103.914062 169.507812 104.679688 169.707031 105.28125 C 169.914062 105.898438 170.542969 104.984375 170.683594 104.773438 C 171.160156 104.0625 171.871094 102.667969 172.941406 103.425781 C 173.074219 103.523438 173.191406 103.632812 173.296875 103.753906 C 173.449219 103.929688 173.570312 104.125 173.667969 104.332031 C 174.222656 105.445312 174.117188 106.851562 173.867188 108.023438 C 173.34375 110.492188 172.054688 112.765625 171.105469 115.101562 C 170.644531 116.230469 169.691406 118.136719 170.695312 118.738281 C 170.785156 118.792969 170.359375 118.867188 170.421875 118.949219 " fill-opacity="1" fill-rule="evenodd"/><path fill="#000000" d="M 220.285156 82.054688 C 220.394531 82.085938 221.125 81.992188 221.214844 82.058594 C 221.195312 81.882812 221.570312 82.070312 221.75 82.074219 C 222.058594 82.074219 223.585938 82.234375 223.496094 81.671875 C 223.410156 81.144531 222.742188 80.566406 222.410156 80.175781 C 221.304688 78.867188 220.066406 77.652344 218.800781 76.5 C 218.582031 76.304688 217.382812 74.964844 217.050781 75.160156 C 216.386719 75.554688 216.472656 77.285156 216.386719 77.925781 C 216.324219 78.425781 216.253906 78.929688 216.175781 79.429688 C 216.132812 79.710938 216.082031 79.988281 216.019531 80.261719 C 215.769531 81.402344 215.597656 81.464844 216.25 82.4375 C 216.367188 82.621094 216.488281 82.800781 216.609375 82.980469 C 216.816406 83.289062 217.019531 83.59375 217.242188 83.890625 C 217.246094 83.886719 217.523438 84.363281 217.535156 84.390625 C 217.722656 84.738281 217.898438 85.089844 218.066406 85.445312 C 218.589844 86.511719 219.136719 87.554688 219.710938 88.589844 C 220.417969 89.867188 221.109375 91.144531 221.902344 92.371094 C 222.890625 93.902344 224.148438 95.632812 224.289062 97.515625 C 224.375 97.421875 224.21875 97.757812 224.191406 97.878906 C 224.128906 98.160156 224.023438 98.425781 223.894531 98.683594 C 223.542969 99.425781 223.113281 100.128906 222.640625 100.800781 C 221.15625 102.914062 219.261719 104.625 217.210938 106.175781 C 211.285156 110.652344 203.976562 115.324219 196.453125 116.335938 C 190.910156 117.082031 185.246094 115.664062 183.902344 109.566406 C 183.324219 106.914062 183.207031 104.214844 183.488281 101.519531 C 183.59375 100.464844 183.726562 99.40625 183.914062 98.367188 C 183.929688 98.257812 184.199219 97.324219 183.972656 97.351562 C 183.546875 97.40625 183.140625 98.121094 182.933594 98.425781 C 182.082031 99.710938 181.695312 101.28125 181.523438 102.792969 C 180.933594 107.921875 181.074219 114.316406 184.390625 118.5625 C 188.4375 123.734375 194.957031 123.574219 200.609375 121.53125 C 205.9375 119.605469 210.710938 116.425781 215.257812 113.101562 C 219.964844 109.664062 224.90625 105.515625 226.882812 99.820312 C 229.160156 93.253906 222.882812 87.480469 220.285156 82.054688 Z M 220.285156 82.054688 " fill-opacity="1" fill-rule="evenodd"/><path fill="#000000" d="M 261.8125 75.082031 C 261.824219 75.15625 261.914062 75.34375 261.929688 75.394531 C 262.003906 75.6875 262.085938 75.984375 262.152344 76.28125 C 262.371094 77.160156 262.605469 78.027344 262.867188 78.898438 C 263.75 81.871094 266.089844 84.363281 269.398438 84.09375 C 273.152344 83.785156 275.996094 80.777344 277.632812 77.601562 C 278.222656 76.445312 278.671875 75.25 279.097656 74.023438 C 279.179688 73.777344 279.398438 72.871094 279.707031 72.792969 C 279.882812 72.746094 279.960938 73.328125 279.984375 73.421875 C 280.152344 74.109375 280.21875 74.824219 280.308594 75.523438 C 280.5625 77.453125 281.035156 79.597656 282.882812 80.613281 C 284.234375 81.355469 285.988281 81.527344 287.476562 81.171875 C 287.988281 81.050781 288.828125 80.851562 289.007812 80.269531 C 289.128906 79.882812 289.40625 79.203125 289.34375 78.820312 C 289.167969 77.753906 288.011719 76.351562 287.785156 75.296875 C 287.773438 75.292969 289.21875 73.640625 289.363281 73.484375 C 290.011719 72.761719 290.667969 72.039062 291.34375 71.339844 C 291.484375 71.191406 291.890625 70.621094 292.15625 70.675781 C 292.363281 70.71875 292.339844 71.234375 292.351562 71.378906 C 292.398438 72.246094 292.351562 73.128906 292.363281 74 C 292.417969 77.273438 292.332031 80.929688 290.628906 83.835938 C 290.214844 84.542969 289.683594 85.167969 289.09375 85.734375 C 284.988281 89.660156 280.457031 85.605469 277.8125 82.152344 C 277.796875 82.128906 277.644531 82.480469 277.632812 82.503906 C 277.53125 82.714844 277.4375 82.925781 277.332031 83.136719 C 277.015625 83.78125 276.660156 84.40625 276.28125 85.023438 C 275.070312 87.023438 273.667969 88.675781 271.347656 89.382812 C 267.992188 90.402344 263.839844 89.667969 261.765625 86.621094 C 260.832031 85.246094 260.628906 83.730469 260.117188 82.203125 C 259.894531 82.132812 258.910156 83 258.71875 83.117188 C 257.292969 83.996094 255.90625 84.890625 254.429688 85.679688 C 254.246094 85.53125 254.496094 86.140625 254.535156 86.367188 C 254.601562 86.847656 254.667969 87.332031 254.726562 87.8125 C 254.886719 89.191406 255.050781 90.574219 254.949219 91.964844 C 254.976562 91.972656 254.703125 92.550781 254.699219 92.566406 C 254.300781 93.335938 253.871094 94.097656 253.421875 94.839844 C 251.40625 98.144531 248.96875 101.191406 246.21875 103.917969 C 244.570312 105.554688 242.847656 107.128906 240.976562 108.515625 C 239.710938 109.457031 238.359375 110.316406 236.964844 111.066406 C 230.222656 114.707031 217.574219 117.546875 213.609375 108.472656 C 211.421875 103.445312 211.867188 97.324219 213.148438 92.113281 C 213.460938 90.820312 213.792969 89.503906 214.355469 88.296875 C 214.441406 88.117188 214.683594 87.335938 214.945312 87.3125 C 215.214844 87.292969 214.914062 88.851562 214.902344 88.925781 C 214.53125 90.867188 214.09375 92.804688 213.917969 94.773438 C 213.484375 99.640625 214.886719 105.351562 219.816406 107.402344 C 229.328125 111.359375 240 103.960938 246.679688 97.789062 C 248.292969 96.296875 249.773438 94.738281 251.207031 93.078125 C 251.84375 92.34375 252.847656 91.210938 252.992188 90.183594 C 253.125 89.265625 252.726562 88.378906 252.460938 87.53125 C 252.167969 87.523438 251.742188 87.835938 251.472656 87.945312 C 250.722656 88.253906 249.960938 88.558594 249.195312 88.851562 C 246.664062 89.832031 243.558594 90.597656 240.917969 89.632812 C 240.230469 89.378906 239.59375 89.042969 239.042969 88.5625 C 234.917969 84.957031 238.359375 79.347656 241.148438 76.152344 C 242.613281 74.480469 244.488281 72.65625 246.910156 73.257812 C 248.515625 73.652344 249.738281 75.015625 250.683594 76.300781 C 251.753906 77.761719 252.421875 79.28125 253.0625 80.957031 C 253.046875 80.972656 253.046875 80.980469 253.066406 80.980469 L 253.0625 80.957031 C 253.109375 80.910156 253.375 80.792969 253.394531 80.78125 C 253.628906 80.675781 253.859375 80.558594 254.082031 80.441406 C 254.742188 80.101562 255.378906 79.726562 256.023438 79.351562 C 258.117188 78.136719 260.113281 76.820312 261.8125 75.082031 C 261.808594 75.050781 261.8125 75.035156 261.839844 75.050781 Z M 248.371094 82.671875 C 248.351562 82.652344 247.265625 83.039062 247.238281 83.046875 C 246.820312 83.195312 246.367188 83.289062 245.925781 83.347656 C 244.65625 83.523438 242.75 83.761719 241.816406 82.65625 C 240.726562 81.367188 242.117188 79.59375 243.488281 79.371094 C 245.1875 79.097656 247.589844 80.980469 248.371094 82.671875 Z M 248.371094 82.671875 " fill-opacity="1" fill-rule="evenodd"/><path fill="#000000" d="M 259.644531 74.882812 C 259.734375 74.847656 259.996094 74.511719 260.046875 74.46875 C 260.449219 74.105469 260.882812 73.773438 261.328125 73.457031 C 263.023438 72.265625 264.921875 71.347656 266.601562 70.128906 C 271.992188 66.222656 277.378906 62.183594 282.265625 57.742188 C 283.460938 56.65625 284.621094 55.535156 285.804688 54.441406 C 286.335938 53.953125 287.25 53.34375 287.5625 52.691406 C 287.695312 52.417969 286.820312 51.992188 286.65625 51.871094 C 285.714844 51.183594 284.832031 50.40625 284.175781 49.472656 C 283.097656 47.929688 283.65625 46.507812 284.589844 45.015625 C 285.492188 43.574219 286.625 42.25 288.308594 41.554688 C 289.738281 40.964844 291.207031 41.851562 291.769531 43.097656 C 292.519531 44.757812 292.089844 46.777344 291.53125 48.429688 C 291.363281 48.917969 291.167969 49.410156 290.890625 49.855469 C 290.800781 50 290.417969 50.328125 290.402344 50.488281 C 290.390625 50.597656 290.859375 50.886719 290.941406 50.949219 C 291.414062 51.316406 292.050781 51.683594 292.273438 52.246094 C 292.59375 53.058594 292.144531 54.148438 291.710938 54.851562 C 291.609375 55.019531 291.316406 55.574219 291.046875 55.542969 C 290.746094 55.503906 290.46875 55.210938 290.25 55.039062 C 289.714844 54.625 289.203125 54.183594 288.6875 53.75 C 287.980469 54.445312 287.425781 55.367188 286.769531 56.109375 C 284.988281 58.128906 283.128906 60.152344 281.109375 61.972656 C 277.792969 64.972656 273.660156 67.253906 269.867188 69.691406 C 267.050781 71.5 263.039062 74.070312 259.644531 74.882812 C 259.640625 74.882812 259.636719 74.886719 259.632812 74.886719 Z M 289.523438 49.628906 C 289.625 49.128906 289.816406 48.648438 289.886719 48.128906 C 290.027344 47.105469 289.753906 46.007812 289.03125 45.203125 C 288.652344 44.78125 288.132812 44.429688 287.535156 44.347656 C 286.714844 44.242188 285.820312 44.914062 285.792969 45.6875 C 285.777344 46.15625 286.132812 46.582031 286.453125 46.914062 C 287.175781 47.675781 288.667969 48.988281 289.523438 49.628906 Z M 289.523438 49.628906 " fill-opacity="1" fill-rule="evenodd"/><path fill="#000000" d="M 253.15625 50.039062 C 253.226562 50.152344 253.871094 49.953125 254.019531 49.921875 C 254.359375 49.847656 254.707031 49.785156 255.050781 49.726562 C 256.125 49.550781 257.199219 49.414062 258.292969 49.359375 C 261.652344 49.179688 265.574219 49.246094 268.71875 50.367188 C 268.824219 50.230469 268.410156 50.570312 268.257812 50.671875 C 267.910156 50.90625 267.542969 51.121094 267.175781 51.332031 C 266.152344 51.914062 265.125 52.5 264.050781 53.019531 C 261.019531 54.484375 257.851562 55.765625 254.886719 57.324219 C 254.179688 57.695312 253.4375 58.039062 252.765625 58.449219 C 252.691406 58.496094 252.148438 58.808594 252.242188 58.921875 C 252.480469 59.203125 253.722656 58.949219 254.015625 58.914062 C 255.886719 58.691406 257.71875 58.304688 259.558594 57.949219 C 261.449219 57.585938 263.902344 57.558594 265.636719 56.796875 C 266.515625 56.410156 267.234375 55.496094 267.855469 54.890625 C 269.386719 53.402344 270.855469 51.867188 272.339844 50.351562 C 273.953125 48.699219 276.515625 46.347656 276.554688 44.089844 C 276.59375 41.777344 271.902344 41.917969 270.035156 41.78125 C 269.398438 41.734375 268.765625 41.667969 268.132812 41.613281 C 265.886719 41.425781 263.585938 41.324219 261.324219 41.394531 C 260.519531 41.417969 259.421875 41.308594 258.671875 41.597656 C 257.617188 42.007812 257.054688 42.992188 256.476562 43.761719 C 255.121094 45.5625 254.054688 48.054688 253.15625 50.039062 Z M 253.15625 50.039062 " fill-opacity="1" fill-rule="evenodd"/><path fill="#000000" d="M 96.027344 46.78125 C 96.085938 46.875 96.613281 46.703125 96.738281 46.675781 C 97.019531 46.613281 97.304688 46.558594 97.589844 46.507812 C 98.472656 46.355469 99.359375 46.238281 100.261719 46.191406 C 103.027344 46.035156 106.261719 46.09375 108.851562 47.0625 C 108.9375 46.945312 108.597656 47.238281 108.46875 47.328125 C 108.183594 47.527344 107.882812 47.714844 107.578125 47.894531 C 106.734375 48.402344 105.890625 48.90625 105.003906 49.359375 C 102.503906 50.625 99.894531 51.730469 97.453125 53.082031 C 96.871094 53.402344 96.261719 53.699219 95.707031 54.054688 C 95.644531 54.09375 95.195312 54.363281 95.273438 54.464844 C 95.46875 54.707031 96.496094 54.488281 96.734375 54.457031 C 98.277344 54.261719 99.789062 53.929688 101.304688 53.621094 C 102.863281 53.308594 104.882812 53.285156 106.3125 52.625 C 107.035156 52.292969 107.625 51.5 108.140625 50.976562 C 109.402344 49.691406 110.609375 48.363281 111.832031 47.046875 C 113.164062 45.617188 115.273438 43.585938 115.308594 41.632812 C 115.339844 39.632812 111.472656 39.753906 109.933594 39.632812 C 109.410156 39.59375 108.890625 39.535156 108.367188 39.488281 C 106.515625 39.328125 104.621094 39.238281 102.757812 39.300781 C 102.097656 39.320312 101.1875 39.226562 100.574219 39.476562 C 99.703125 39.832031 99.238281 40.683594 98.765625 41.347656 C 97.648438 42.90625 96.769531 45.0625 96.027344 46.78125 Z M 96.027344 46.78125 " fill-opacity="1" fill-rule="evenodd"/><path fill="#000000" d="M 202.527344 65.914062 C 202.527344 65.820312 203.523438 64.519531 203.542969 64.484375 C 203.746094 64.210938 203.960938 63.949219 204.175781 63.6875 C 204.867188 62.839844 205.550781 61.988281 206.21875 61.121094 C 207.894531 58.960938 209.691406 56.898438 211.445312 54.804688 C 211.851562 54.320312 212.265625 53.839844 212.722656 53.40625 C 212.777344 53.359375 213.132812 52.972656 213.234375 53.082031 C 213.386719 53.25 213.191406 53.84375 213.148438 54.023438 C 212.953125 54.933594 212.636719 55.828125 212.269531 56.683594 C 210.703125 60.304688 207.730469 63.273438 205.378906 66.394531 C 204.828125 66.4375 205.027344 67.167969 205.234375 67.402344 C 206.054688 68.324219 206.933594 69.15625 207.6875 70.148438 C 209.601562 72.6875 210.707031 75.078125 210.796875 78.316406 C 210.835938 79.582031 210.777344 80.847656 210.472656 82.082031 C 209.585938 85.703125 206.640625 88.0625 203.585938 89.90625 C 201.835938 90.957031 199.59375 92.132812 197.488281 91.945312 C 194.738281 91.703125 193.628906 89.277344 193.261719 86.835938 C 192.523438 81.894531 194.425781 77.332031 196.988281 73.195312 C 197.636719 72.144531 198.328125 71.121094 199.039062 70.113281 C 199.324219 69.714844 199.875 69.222656 200.015625 68.742188 C 200.0625 68.566406 199.710938 68.523438 199.59375 68.378906 C 199.140625 67.835938 198.699219 67.28125 198.242188 66.738281 C 196.695312 64.902344 195.128906 63.089844 193.554688 61.273438 C 193.160156 60.820312 192.273438 60.859375 192.027344 60.3125 C 191.339844 58.792969 192.085938 56.511719 192.347656 54.957031 C 192.410156 54.570312 192.441406 53.253906 193.085938 53.292969 C 193.617188 53.320312 194.355469 53.976562 194.796875 54.238281 C 196.339844 55.160156 197.816406 56.230469 199.265625 57.296875 C 199.640625 57.578125 200.765625 58.324219 200.726562 58.902344 C 200.710938 59.164062 200.253906 59.210938 200.0625 59.230469 C 199.59375 59.285156 198.40625 59.136719 198.050781 59.480469 C 197.726562 59.800781 198.242188 60.617188 198.398438 60.902344 C 199.074219 62.175781 201.453125 64.945312 202.527344 65.914062 C 202.535156 65.917969 202.535156 65.917969 202.535156 65.917969 Z M 202.167969 71.957031 C 201.886719 72.027344 201.609375 72.429688 201.421875 72.613281 C 200.914062 73.121094 200.417969 73.640625 199.941406 74.179688 C 199.488281 74.691406 199.058594 75.21875 198.65625 75.769531 C 198.292969 76.265625 197.957031 76.78125 197.636719 77.304688 C 196.402344 79.351562 194.667969 83.933594 197.957031 85.171875 C 201.113281 86.367188 204.402344 83.507812 206.535156 81.574219 C 207.257812 80.917969 208.644531 79.847656 208.597656 78.75 C 208.566406 77.960938 207.925781 77.191406 207.457031 76.59375 C 206.203125 74.980469 203.875 73.097656 202.167969 71.957031 Z M 202.167969 71.957031 " fill-opacity="1" fill-rule="evenodd"/><path fill="#000000" d="M 182.585938 107.585938 C 182.003906 108.308594 182.582031 104.09375 182.558594 103.179688 C 182.460938 99.085938 182.042969 95.011719 181.648438 90.933594 C 180.21875 76.058594 177.503906 60.011719 175.996094 45.148438 C 175.777344 45.050781 175.808594 44.125 175.789062 43.960938 C 175.621094 42.648438 175.449219 41.328125 175.328125 40.011719 C 175.070312 37.191406 174.984375 34.355469 174.578125 31.550781 C 174.519531 31.132812 174.449219 30.632812 174.132812 30.28125 C 173.882812 30 173.25 29.800781 173.292969 29.414062 C 173.371094 28.71875 173.828125 27.976562 174.132812 27.324219 C 174.339844 26.878906 174.550781 26.4375 174.785156 26.003906 C 174.902344 25.78125 175.023438 25.5625 175.175781 25.351562 C 175.273438 25.210938 175.390625 25.074219 175.515625 24.941406 C 176.375 24.007812 176.714844 25.21875 177.011719 25.828125 C 177.5 26.847656 177.96875 27.871094 178.4375 28.898438 C 179.023438 30.199219 179.679688 31.480469 180.328125 32.761719 C 181.132812 34.339844 181.921875 35.921875 182.523438 37.554688 C 182.746094 38.152344 183.1875 38.984375 183.019531 39.625 C 182.914062 40.03125 181.921875 39.308594 181.796875 39.214844 C 181.117188 38.722656 180.519531 38.164062 179.925781 37.617188 C 179.882812 37.578125 179.476562 37.136719 179.34375 37.199219 C 179.203125 37.261719 179.382812 38.152344 179.394531 38.253906 C 179.429688 38.582031 179.46875 38.910156 179.507812 39.238281 C 179.574219 39.734375 179.640625 40.226562 179.699219 40.722656 C 179.726562 40.953125 179.816406 41.511719 179.835938 41.710938 C 179.964844 42.808594 180.105469 43.902344 180.21875 44.996094 C 180.648438 49.179688 181.097656 53.359375 181.625 57.535156 C 182.714844 66.121094 183.894531 74.695312 184.925781 83.285156 C 185.546875 88.417969 186.675781 93.636719 186.042969 98.828125 C 185.734375 101.335938 183.164062 106.859375 182.585938 107.585938 Z M 182.585938 107.585938 " fill-opacity="1" fill-rule="evenodd"/></svg>