<svg xmlns="http://www.w3.org/2000/svg" xmlns:xlink="http://www.w3.org/1999/xlink" width="500" zoomAndPan="magnify" viewBox="0 0 375 149.999998" height="200" preserveAspectRatio="xMidYMid meet" version="1.0"><defs><clipPath id="7c2ae6ba79"><path d="M 302 20.859375 L 342 20.859375 L 342 69 L 302 69 Z M 302 20.859375 " clip-rule="nonzero"/></clipPath><clipPath id="e608dde910"><path d="M 302 81 L 342 81 L 342 128.859375 L 302 128.859375 Z M 302 81 " clip-rule="nonzero"/></clipPath><clipPath id="a1976acaf3"><path d="M 33 20.859375 L 73 20.859375 L 73 69 L 33 69 Z M 33 20.859375 " clip-rule="nonzero"/></clipPath><clipPath id="61b2dff5a1"><path d="M 33 81 L 73 81 L 73 128.859375 L 33 128.859375 Z M 33 81 " clip-rule="nonzero"/></clipPath></defs><path fill="#000000" d="M 167.214844 36.929688 C 167.058594 36.894531 166.316406 37.800781 166.246094 37.882812 C 165.609375 38.628906 165.027344 39.445312 164.761719 40.320312 C 164.496094 41.199219 164.800781 42.105469 165.164062 42.933594 C 165.804688 44.390625 166.785156 45.75 167.375 47.222656 C 167.640625 47.878906 168.410156 49.367188 167.171875 49.710938 C 164.835938 50.359375 162.601562 48.359375 162.109375 46.800781 C 161.855469 46 161.9375 45.164062 161.84375 44.347656 C 161.78125 43.8125 161.671875 43.277344 161.519531 42.75 C 161.292969 41.960938 160.996094 41.1875 160.664062 40.421875 C 160.347656 39.683594 160.003906 38.953125 159.613281 38.234375 C 159.554688 38.128906 159.355469 37.65625 159.175781 37.625 C 158.96875 37.589844 158.605469 38.296875 158.546875 38.390625 C 158.011719 39.289062 157.199219 40.355469 156.972656 41.328125 C 156.910156 41.59375 157.199219 41.914062 157.355469 42.128906 C 157.734375 42.65625 158.097656 43.210938 158.382812 43.773438 C 159.34375 45.675781 159.058594 47.90625 158.085938 49.773438 C 157.566406 50.78125 156.074219 51.589844 154.589844 51.105469 C 153.246094 50.671875 152.878906 49.527344 152.847656 48.507812 C 152.785156 46.398438 153.378906 44.339844 153.140625 42.21875 C 153.054688 41.464844 152.828125 40.722656 152.527344 40.003906 C 152.492188 39.914062 152.269531 39.316406 152.042969 39.386719 C 151.757812 39.476562 151.566406 39.953125 151.445312 40.140625 C 150.984375 40.863281 150.621094 41.621094 150.246094 42.375 C 150.011719 42.84375 149.542969 43.453125 149.574219 43.972656 C 149.59375 44.296875 150.003906 44.226562 150.140625 44.492188 C 150.402344 44.996094 150.40625 45.578125 150.414062 46.113281 C 150.445312 47.945312 150.273438 49.800781 150.652344 51.621094 C 150.886719 52.761719 151.40625 53.914062 152.609375 54.664062 C 153.886719 55.460938 155.835938 55.339844 157.167969 54.699219 C 159.089844 53.777344 160.574219 51.695312 160.261719 49.933594 C 160.167969 50.015625 160.472656 50.441406 160.515625 50.511719 C 160.871094 51.121094 161.300781 51.691406 161.886719 52.183594 C 163.632812 53.640625 167.410156 54.554688 169.046875 52.527344 C 170.0625 51.265625 170.222656 49.632812 170.222656 48.1875 C 170.222656 46.453125 169.878906 44.722656 169.324219 43.046875 C 168.71875 41.222656 167.523438 38.800781 167.214844 36.929688 Z M 167.214844 36.929688 " fill-opacity="1" fill-rule="evenodd"/><g clip-path="url(#7c2ae6ba79)"><path fill="#000000" d="M 302.382812 20.980469 C 302.132812 20.917969 302.898438 21.023438 303.152344 21.070312 C 303.640625 21.164062 304.125 21.273438 304.613281 21.367188 C 306.019531 21.636719 307.390625 21.976562 308.75 22.449219 C 312.851562 23.875 316.78125 26.015625 320.382812 28.519531 C 329.101562 34.578125 335.632812 43.675781 339.238281 54.046875 C 340.117188 56.574219 340.875 59.148438 341.488281 61.761719 C 341.707031 62.699219 342.238281 64.035156 341.824219 64.988281 C 341.105469 66.652344 339.203125 67.703125 337.871094 68.730469 C 338.046875 68.945312 337.34375 68.796875 337.082031 68.847656 C 336.542969 68.945312 335.960938 68.71875 335.464844 68.519531 C 334.066406 67.957031 332.667969 66.730469 331.34375 65.925781 C 330.277344 65.273438 330.222656 63.660156 329.902344 62.5 C 329.210938 60.003906 328.339844 57.570312 327.398438 55.171875 C 322.5625 42.832031 312.300781 29.230469 302.382812 20.980469 Z M 302.382812 20.980469 " fill-opacity="1" fill-rule="evenodd"/></g><g clip-path="url(#e608dde910)"><path fill="#000000" d="M 302.382812 128.957031 C 302.132812 129.019531 302.898438 128.914062 303.152344 128.867188 C 303.640625 128.773438 304.125 128.667969 304.613281 128.574219 C 306.019531 128.304688 307.390625 127.964844 308.75 127.488281 C 312.851562 126.0625 316.78125 123.925781 320.382812 121.421875 C 329.101562 115.359375 335.632812 106.261719 339.238281 95.890625 C 340.117188 93.363281 340.875 90.789062 341.488281 88.175781 C 341.707031 87.238281 342.238281 85.902344 341.824219 84.949219 C 341.105469 83.285156 339.203125 82.234375 337.871094 81.207031 C 338.046875 80.992188 337.34375 81.140625 337.082031 81.089844 C 336.542969 80.992188 335.960938 81.21875 335.464844 81.417969 C 334.066406 81.984375 332.667969 83.207031 331.34375 84.011719 C 330.277344 84.664062 330.222656 86.277344 329.902344 87.441406 C 329.210938 89.933594 328.339844 92.367188 327.398438 94.765625 C 322.5625 107.105469 312.300781 120.710938 302.382812 128.957031 Z M 302.382812 128.957031 " fill-opacity="1" fill-rule="evenodd"/></g><path fill="#000000" d="M 351.128906 68.300781 C 350.976562 68.214844 350.835938 68.136719 350.753906 68.082031 C 349.925781 67.5 349.214844 66.828125 348.640625 65.96875 C 346.648438 62.972656 345.964844 59.238281 343.972656 56.222656 C 343.308594 55.21875 342.488281 54.347656 341.574219 53.601562 C 341.164062 53.265625 340.722656 52.972656 340.3125 52.640625 C 340.214844 52.558594 339.984375 52.359375 339.898438 52.203125 C 339.765625 51.957031 339.773438 51.714844 339.867188 51.507812 C 339.933594 51.367188 340.058594 51.1875 340.355469 51.105469 C 341.59375 50.757812 343.324219 51.285156 344.480469 51.664062 C 347.730469 52.726562 350.945312 54.722656 352.941406 57.71875 C 353.476562 58.523438 353.863281 59.445312 354.257812 60.355469 C 354.613281 61.175781 354.976562 61.984375 355.511719 62.667969 C 355.878906 63.132812 356.355469 63.457031 356.851562 63.75 C 357.425781 64.089844 358.027344 64.394531 358.566406 64.773438 C 360.117188 65.875 361.128906 67.605469 361.851562 69.398438 C 362.085938 69.972656 362.300781 70.5625 362.476562 71.164062 C 362.546875 71.402344 362.601562 71.648438 362.644531 71.894531 C 362.65625 71.964844 362.65625 72.140625 362.652344 72.246094 C 362.660156 72.296875 362.660156 72.351562 362.648438 72.402344 C 362.59375 72.789062 362.359375 72.914062 362.164062 72.949219 C 360.6875 73.519531 359.222656 74.105469 357.757812 74.714844 L 357.671875 74.75 C 358.609375 75.242188 359.542969 75.746094 360.476562 76.246094 C 360.679688 76.351562 361.21875 76.519531 361.574219 76.722656 C 361.871094 76.890625 362.070312 77.113281 362.152344 77.308594 C 362.226562 77.480469 362.253906 77.726562 362.210938 78 C 362.164062 78.328125 362.003906 78.730469 361.945312 78.921875 C 361.582031 80.148438 361.039062 81.351562 360.390625 82.433594 C 359.785156 83.441406 359.0625 84.359375 358.1875 85.109375 C 357.039062 86.09375 355.6875 86.816406 354.757812 88.066406 C 354.117188 88.933594 353.738281 89.953125 353.335938 90.96875 C 352.890625 92.097656 352.425781 93.21875 351.652344 94.179688 C 349.664062 96.648438 346.78125 98.265625 343.722656 98.527344 C 343.027344 98.585938 342.3125 98.628906 341.617188 98.578125 C 341.515625 98.570312 341.085938 98.542969 340.890625 98.445312 C 340.660156 98.328125 340.542969 98.140625 340.5 97.957031 C 340.449219 97.753906 340.46875 97.472656 340.726562 97.234375 C 340.847656 97.128906 341.230469 96.953125 341.296875 96.925781 C 341.730469 96.703125 342.132812 96.441406 342.535156 96.160156 C 343.582031 95.425781 344.488281 94.488281 345.226562 93.410156 C 345.863281 92.484375 346.417969 91.457031 346.855469 90.410156 C 346.988281 90.089844 347.125 89.753906 347.210938 89.414062 C 347.222656 89.363281 347.246094 89.179688 347.273438 89.0625 C 347.21875 88.003906 347.050781 86.9375 347.101562 85.941406 C 347.167969 84.742188 347.527344 83.632812 348.617188 82.707031 C 349.722656 81.765625 351.03125 81.242188 352.277344 80.570312 C 352.355469 80.53125 352.519531 80.4375 352.652344 80.363281 C 352.214844 79.84375 351.472656 79.457031 350.949219 79.132812 C 349.277344 78.109375 347.464844 77.34375 345.675781 76.582031 C 344.882812 76.246094 344.082031 75.925781 343.269531 75.648438 C 342.949219 75.539062 342.625 75.429688 342.304688 75.339844 L 342.234375 75.320312 C 340.941406 76.757812 339.425781 78.003906 338.035156 79.316406 C 337.652344 79.679688 337.261719 80.03125 336.882812 80.394531 C 336.84375 80.4375 336.683594 80.625 336.597656 80.699219 C 336.519531 80.773438 336.441406 80.816406 336.390625 80.839844 C 336.148438 80.941406 335.957031 80.878906 335.828125 80.792969 C 334.054688 79.65625 332.304688 78.484375 330.558594 77.292969 C 329.976562 76.894531 329.402344 76.488281 328.8125 76.097656 C 328.625 75.96875 328.433594 75.847656 328.242188 75.726562 C 328.171875 75.6875 328.105469 75.644531 328.039062 75.597656 C 327.921875 75.550781 327.820312 75.46875 327.75 75.359375 C 327.582031 75.101562 327.636719 74.898438 327.660156 74.800781 C 327.707031 74.628906 327.800781 74.472656 327.976562 74.390625 C 330.621094 72.089844 333.523438 70.242188 336.398438 68.304688 C 336.625 68.152344 336.917969 68.171875 337.121094 68.359375 C 337.738281 68.925781 339.972656 70.949219 340.59375 71.515625 C 341.167969 72.035156 341.746094 72.558594 342.328125 73.078125 C 342.460938 73.199219 342.609375 73.355469 342.769531 73.496094 C 342.855469 73.574219 342.945312 73.648438 343.035156 73.6875 C 343.082031 73.671875 343.296875 73.609375 343.425781 73.550781 C 343.703125 73.417969 343.980469 73.246094 344.136719 73.164062 C 345.617188 72.398438 346.867188 71.207031 348.214844 70.21875 C 349.074219 69.585938 349.964844 68.996094 350.875 68.449219 C 350.9375 68.410156 351.027344 68.359375 351.128906 68.300781 Z M 341.984375 52.320312 C 342.742188 52.429688 343.523438 52.703125 344.125 52.898438 C 347.125 53.882812 350.109375 55.703125 351.949219 58.46875 C 352.988281 60.027344 353.429688 62.039062 354.582031 63.496094 C 355.449219 64.601562 356.796875 65.074219 357.890625 65.851562 C 359.25 66.8125 360.105469 68.347656 360.734375 69.910156 C 360.953125 70.445312 361.152344 70.992188 361.316406 71.546875 C 361.347656 71.652344 361.375 71.761719 361.398438 71.867188 C 360.03125 72.398438 358.671875 72.945312 357.316406 73.511719 C 357.191406 73.5625 356.363281 73.828125 356.042969 74.046875 C 355.714844 74.269531 355.636719 74.578125 355.648438 74.769531 C 355.660156 75.003906 355.792969 75.210938 355.988281 75.3125 C 357.3125 75.992188 358.617188 76.699219 359.933594 77.402344 C 360.070312 77.472656 360.355469 77.574219 360.644531 77.695312 C 360.75 77.738281 360.886719 77.808594 360.984375 77.863281 C 360.929688 78.050781 360.824219 78.414062 360.789062 78.53125 C 360.457031 79.652344 359.960938 80.75 359.367188 81.734375 C 358.832031 82.625 358.199219 83.4375 357.421875 84.101562 C 356.207031 85.144531 354.792969 85.9375 353.804688 87.265625 C 353.097656 88.226562 352.660156 89.34375 352.21875 90.464844 C 351.820312 91.472656 351.417969 92.480469 350.730469 93.335938 C 348.949219 95.550781 346.367188 97.003906 343.628906 97.238281 C 343.472656 97.25 343.316406 97.261719 343.160156 97.273438 L 343.203125 97.242188 C 344.375 96.421875 345.382812 95.378906 346.210938 94.171875 C 346.894531 93.171875 347.496094 92.0625 347.964844 90.933594 C 348.128906 90.542969 348.289062 90.140625 348.390625 89.730469 C 348.402344 89.695312 348.421875 89.542969 348.433594 89.46875 C 348.480469 89.371094 348.5 89.261719 348.496094 89.152344 C 348.460938 88.289062 348.332031 87.417969 348.308594 86.582031 C 348.28125 85.519531 348.433594 84.519531 349.375 83.714844 C 350.414062 82.832031 351.652344 82.355469 352.824219 81.726562 C 353.046875 81.609375 353.464844 81.421875 353.691406 81.179688 C 353.851562 81.015625 353.949219 80.824219 353.984375 80.621094 C 354.023438 80.398438 354 80.152344 353.835938 79.886719 C 353.351562 79.089844 352.296875 78.46875 351.554688 78.015625 C 349.835938 76.957031 347.96875 76.164062 346.125 75.382812 C 345.476562 75.105469 344.828125 74.84375 344.167969 74.601562 C 344.367188 74.496094 344.546875 74.390625 344.667969 74.328125 C 346.207031 73.535156 347.507812 72.308594 348.90625 71.28125 C 349.734375 70.671875 350.59375 70.101562 351.46875 69.574219 C 351.652344 69.464844 352.042969 69.261719 352.265625 69.015625 C 352.464844 68.796875 352.566406 68.542969 352.566406 68.289062 C 352.566406 68.023438 352.453125 67.753906 352.21875 67.527344 C 351.988281 67.304688 351.585938 67.117188 351.421875 67 C 350.726562 66.511719 350.117188 65.949219 349.632812 65.21875 C 347.640625 62.226562 346.957031 58.492188 344.96875 55.480469 C 344.230469 54.367188 343.324219 53.402344 342.3125 52.574219 C 342.207031 52.488281 342.097656 52.402344 341.984375 52.320312 Z M 336.667969 69.652344 C 337.535156 70.4375 339.269531 72.011719 339.808594 72.5 C 340.386719 73.023438 340.960938 73.546875 341.542969 74.070312 L 341.609375 74.128906 C 341.578125 74.160156 341.554688 74.195312 341.535156 74.226562 C 340.230469 75.726562 338.660156 76.996094 337.230469 78.351562 C 336.84375 78.714844 336.453125 79.070312 336.066406 79.4375 C 334.4375 78.382812 332.824219 77.300781 331.214844 76.203125 C 330.628906 75.804688 330.046875 75.390625 329.457031 75 L 329.316406 74.90625 C 331.648438 72.957031 334.164062 71.332031 336.667969 69.652344 Z M 336.667969 69.652344 " fill-opacity="1" fill-rule="evenodd"/><path fill="#000000" d="M 375.003906 75.40625 L 362.648438 72.402344 L 357.003906 74.796875 L 361.691406 77.179688 Z M 375.003906 75.40625 " fill-opacity="1" fill-rule="evenodd"/><g clip-path="url(#a1976acaf3)"><path fill="#000000" d="M 72.617188 20.980469 C 72.867188 20.917969 72.101562 21.023438 71.847656 21.070312 C 71.359375 21.164062 70.875 21.273438 70.386719 21.367188 C 68.980469 21.636719 67.609375 21.976562 66.25 22.449219 C 62.148438 23.875 58.21875 26.015625 54.617188 28.519531 C 45.898438 34.578125 39.367188 43.675781 35.761719 54.046875 C 34.882812 56.574219 34.125 59.148438 33.511719 61.761719 C 33.292969 62.699219 32.761719 64.035156 33.175781 64.988281 C 33.894531 66.652344 35.796875 67.703125 37.128906 68.730469 C 36.953125 68.945312 37.65625 68.796875 37.917969 68.847656 C 38.457031 68.945312 39.039062 68.71875 39.535156 68.519531 C 40.933594 67.957031 42.332031 66.730469 43.65625 65.925781 C 44.722656 65.273438 44.777344 63.660156 45.097656 62.5 C 45.789062 60.003906 46.660156 57.570312 47.601562 55.171875 C 52.4375 42.832031 62.699219 29.230469 72.617188 20.980469 Z M 72.617188 20.980469 " fill-opacity="1" fill-rule="evenodd"/></g><g clip-path="url(#61b2dff5a1)"><path fill="#000000" d="M 72.617188 128.957031 C 72.867188 129.019531 72.101562 128.914062 71.847656 128.867188 C 71.359375 128.773438 70.875 128.667969 70.386719 128.574219 C 68.980469 128.304688 67.609375 127.964844 66.25 127.488281 C 62.148438 126.0625 58.21875 123.925781 54.617188 121.421875 C 45.898438 115.359375 39.367188 106.261719 35.761719 95.890625 C 34.882812 93.363281 34.125 90.789062 33.511719 88.175781 C 33.292969 87.238281 32.761719 85.902344 33.175781 84.949219 C 33.894531 83.285156 35.796875 82.234375 37.128906 81.207031 C 36.953125 80.992188 37.65625 81.140625 37.917969 81.089844 C 38.457031 80.992188 39.039062 81.21875 39.535156 81.417969 C 40.933594 81.984375 42.332031 83.207031 43.65625 84.011719 C 44.722656 84.664062 44.777344 86.277344 45.097656 87.441406 C 45.789062 89.933594 46.660156 92.367188 47.601562 94.765625 C 52.4375 107.105469 62.699219 120.710938 72.617188 128.957031 Z M 72.617188 128.957031 " fill-opacity="1" fill-rule="evenodd"/></g><path fill="#000000" d="M 23.871094 68.300781 C 24.023438 68.214844 24.164062 68.136719 24.246094 68.082031 C 25.074219 67.5 25.785156 66.828125 26.359375 65.96875 C 28.351562 62.972656 29.035156 59.238281 31.027344 56.222656 C 31.691406 55.21875 32.511719 54.347656 33.425781 53.601562 C 33.835938 53.265625 34.277344 52.972656 34.6875 52.640625 C 34.785156 52.558594 35.015625 52.359375 35.101562 52.203125 C 35.234375 51.957031 35.226562 51.714844 35.132812 51.507812 C 35.066406 51.367188 34.941406 51.1875 34.644531 51.105469 C 33.40625 50.757812 31.675781 51.285156 30.519531 51.664062 C 27.269531 52.726562 24.054688 54.722656 22.058594 57.71875 C 21.523438 58.523438 21.136719 59.445312 20.742188 60.355469 C 20.386719 61.175781 20.023438 61.984375 19.488281 62.667969 C 19.121094 63.132812 18.644531 63.457031 18.148438 63.75 C 17.574219 64.089844 16.972656 64.394531 16.433594 64.773438 C 14.882812 65.875 13.871094 67.605469 13.148438 69.398438 C 12.914062 69.972656 12.699219 70.5625 12.523438 71.164062 C 12.453125 71.402344 12.398438 71.648438 12.355469 71.894531 C 12.34375 71.964844 12.34375 72.140625 12.347656 72.246094 C 12.339844 72.296875 12.339844 72.351562 12.351562 72.402344 C 12.40625 72.789062 12.640625 72.914062 12.835938 72.949219 C 14.3125 73.519531 15.777344 74.105469 17.242188 74.714844 L 17.328125 74.75 C 16.390625 75.242188 15.457031 75.746094 14.523438 76.246094 C 14.320312 76.351562 13.78125 76.519531 13.425781 76.722656 C 13.128906 76.890625 12.929688 77.113281 12.847656 77.308594 C 12.773438 77.480469 12.746094 77.726562 12.789062 78 C 12.835938 78.328125 12.996094 78.730469 13.054688 78.921875 C 13.417969 80.148438 13.960938 81.351562 14.609375 82.433594 C 15.214844 83.441406 15.9375 84.359375 16.8125 85.109375 C 17.960938 86.09375 19.3125 86.816406 20.242188 88.066406 C 20.882812 88.933594 21.261719 89.953125 21.664062 90.96875 C 22.109375 92.097656 22.574219 93.21875 23.347656 94.179688 C 25.335938 96.648438 28.21875 98.265625 31.277344 98.527344 C 31.972656 98.585938 32.6875 98.628906 33.382812 98.578125 C 33.484375 98.570312 33.914062 98.542969 34.109375 98.445312 C 34.339844 98.328125 34.457031 98.140625 34.5 97.957031 C 34.550781 97.753906 34.53125 97.472656 34.273438 97.234375 C 34.152344 97.128906 33.769531 96.953125 33.703125 96.925781 C 33.269531 96.703125 32.867188 96.441406 32.464844 96.160156 C 31.417969 95.425781 30.511719 94.488281 29.773438 93.410156 C 29.136719 92.484375 28.582031 91.457031 28.144531 90.410156 C 28.011719 90.089844 27.875 89.753906 27.789062 89.414062 C 27.777344 89.363281 27.753906 89.179688 27.726562 89.0625 C 27.78125 88.003906 27.949219 86.9375 27.898438 85.941406 C 27.832031 84.742188 27.472656 83.632812 26.382812 82.707031 C 25.277344 81.765625 23.96875 81.242188 22.722656 80.570312 C 22.644531 80.53125 22.480469 80.4375 22.347656 80.363281 C 22.785156 79.84375 23.527344 79.457031 24.050781 79.132812 C 25.722656 78.109375 27.535156 77.34375 29.324219 76.582031 C 30.117188 76.246094 30.917969 75.925781 31.730469 75.648438 C 32.050781 75.539062 32.375 75.429688 32.695312 75.339844 L 32.765625 75.320312 C 34.058594 76.757812 35.574219 78.003906 36.964844 79.316406 C 37.347656 79.679688 37.738281 80.03125 38.117188 80.394531 C 38.15625 80.4375 38.316406 80.625 38.402344 80.699219 C 38.480469 80.773438 38.558594 80.816406 38.609375 80.839844 C 38.851562 80.941406 39.042969 80.878906 39.171875 80.792969 C 40.945312 79.65625 42.695312 78.484375 44.441406 77.292969 C 45.023438 76.894531 45.597656 76.488281 46.1875 76.097656 C 46.375 75.96875 46.566406 75.847656 46.757812 75.726562 C 46.828125 75.6875 46.894531 75.644531 46.960938 75.597656 C 47.078125 75.550781 47.179688 75.46875 47.25 75.359375 C 47.417969 75.101562 47.363281 74.898438 47.339844 74.800781 C 47.292969 74.628906 47.199219 74.472656 47.023438 74.390625 C 44.378906 72.089844 41.476562 70.242188 38.601562 68.304688 C 38.375 68.152344 38.082031 68.171875 37.878906 68.359375 C 37.261719 68.925781 35.027344 70.949219 34.40625 71.515625 C 33.832031 72.035156 33.253906 72.558594 32.671875 73.078125 C 32.539062 73.199219 32.390625 73.355469 32.230469 73.496094 C 32.144531 73.574219 32.054688 73.648438 31.964844 73.6875 C 31.917969 73.671875 31.703125 73.609375 31.574219 73.550781 C 31.296875 73.417969 31.019531 73.246094 30.863281 73.164062 C 29.382812 72.398438 28.132812 71.207031 26.785156 70.21875 C 25.925781 69.585938 25.035156 68.996094 24.125 68.449219 C 24.0625 68.410156 23.972656 68.359375 23.871094 68.300781 Z M 33.015625 52.320312 C 32.257812 52.429688 31.476562 52.703125 30.875 52.898438 C 27.875 53.882812 24.890625 55.703125 23.050781 58.46875 C 22.011719 60.027344 21.570312 62.039062 20.417969 63.496094 C 19.550781 64.601562 18.203125 65.074219 17.109375 65.851562 C 15.75 66.8125 14.894531 68.347656 14.265625 69.910156 C 14.046875 70.445312 13.847656 70.992188 13.683594 71.546875 C 13.652344 71.652344 13.625 71.761719 13.601562 71.867188 C 14.96875 72.398438 16.328125 72.945312 17.683594 73.511719 C 17.808594 73.5625 18.636719 73.828125 18.957031 74.046875 C 19.285156 74.269531 19.363281 74.578125 19.351562 74.769531 C 19.339844 75.003906 19.207031 75.210938 19.011719 75.3125 C 17.6875 75.992188 16.382812 76.699219 15.066406 77.402344 C 14.929688 77.472656 14.644531 77.574219 14.355469 77.695312 C 14.25 77.738281 14.113281 77.808594 14.015625 77.863281 C 14.070312 78.050781 14.175781 78.414062 14.210938 78.53125 C 14.542969 79.652344 15.039062 80.75 15.632812 81.734375 C 16.167969 82.625 16.800781 83.4375 17.578125 84.101562 C 18.792969 85.144531 20.207031 85.9375 21.195312 87.265625 C 21.902344 88.226562 22.339844 89.34375 22.78125 90.464844 C 23.179688 91.472656 23.582031 92.480469 24.269531 93.335938 C 26.050781 95.550781 28.632812 97.003906 31.371094 97.238281 C 31.527344 97.25 31.683594 97.261719 31.839844 97.273438 L 31.796875 97.242188 C 30.625 96.421875 29.617188 95.378906 28.789062 94.171875 C 28.105469 93.171875 27.503906 92.0625 27.035156 90.933594 C 26.871094 90.542969 26.710938 90.140625 26.609375 89.730469 C 26.597656 89.695312 26.578125 89.542969 26.566406 89.46875 C 26.519531 89.371094 26.5 89.261719 26.503906 89.152344 C 26.539062 88.289062 26.667969 87.417969 26.691406 86.582031 C 26.71875 85.519531 26.566406 84.519531 25.625 83.714844 C 24.585938 82.832031 23.347656 82.355469 22.175781 81.726562 C 21.953125 81.609375 21.535156 81.421875 21.308594 81.179688 C 21.148438 81.015625 21.050781 80.824219 21.015625 80.621094 C 20.976562 80.398438 21 80.152344 21.164062 79.886719 C 21.648438 79.089844 22.703125 78.46875 23.445312 78.015625 C 25.164062 76.957031 27.03125 76.164062 28.875 75.382812 C 29.523438 75.105469 30.171875 74.84375 30.832031 74.601562 C 30.632812 74.496094 30.453125 74.390625 30.332031 74.328125 C 28.792969 73.535156 27.492188 72.308594 26.09375 71.28125 C 25.265625 70.671875 24.40625 70.101562 23.53125 69.574219 C 23.347656 69.464844 22.957031 69.261719 22.734375 69.015625 C 22.535156 68.796875 22.433594 68.542969 22.433594 68.289062 C 22.433594 68.023438 22.546875 67.753906 22.78125 67.527344 C 23.011719 67.304688 23.414062 67.117188 23.578125 67 C 24.273438 66.511719 24.882812 65.949219 25.367188 65.21875 C 27.359375 62.226562 28.042969 58.492188 30.03125 55.480469 C 30.769531 54.367188 31.675781 53.402344 32.6875 52.574219 C 32.792969 52.488281 32.902344 52.402344 33.015625 52.320312 Z M 38.332031 69.652344 C 37.464844 70.4375 35.730469 72.011719 35.191406 72.5 C 34.613281 73.023438 34.039062 73.546875 33.457031 74.070312 L 33.390625 74.128906 C 33.421875 74.160156 33.445312 74.195312 33.464844 74.226562 C 34.769531 75.726562 36.339844 76.996094 37.769531 78.351562 C 38.15625 78.714844 38.546875 79.070312 38.933594 79.4375 C 40.5625 78.382812 42.175781 77.300781 43.785156 76.203125 C 44.371094 75.804688 44.953125 75.390625 45.542969 75 L 45.683594 74.90625 C 43.351562 72.957031 40.835938 71.332031 38.332031 69.652344 Z M 38.332031 69.652344 " fill-opacity="1" fill-rule="evenodd"/><path fill="#000000" d="M -0.00390625 75.40625 L 12.351562 72.402344 L 17.996094 74.796875 L 13.308594 77.179688 Z M -0.00390625 75.40625 " fill-opacity="1" fill-rule="evenodd"/><path fill="#000000" d="M 300.753906 88.476562 C 300.6875 88.453125 300.496094 88.769531 300.46875 88.804688 C 300.195312 89.152344 299.957031 89.527344 299.707031 89.894531 C 299.453125 90.261719 299.015625 90.777344 299.078125 91.257812 C 299.21875 92.328125 300.671875 93.980469 298.777344 94.417969 C 297.148438 94.792969 295.246094 93.234375 295.363281 91.601562 C 295.40625 91.003906 295.632812 90.449219 295.800781 89.878906 C 295.828125 89.777344 295.957031 89.386719 295.761719 89.363281 C 295.273438 89.296875 294.503906 90.574219 294.28125 90.871094 C 293.140625 92.371094 292.210938 94.351562 290.4375 95.25 C 288.777344 96.089844 286.773438 95.324219 285.082031 94.941406 C 283.753906 94.640625 282.472656 94.683594 281.171875 95.082031 C 279.386719 95.628906 277.398438 97.335938 275.933594 98.375 C 271.988281 101.1875 268.269531 104.300781 264.425781 107.25 C 261.234375 109.695312 257.914062 112.03125 254.503906 114.171875 C 251.101562 116.304688 247.746094 118.484375 244.148438 120.28125 C 243.3125 120.699219 242.46875 121.089844 241.644531 121.519531 C 241.472656 121.605469 240.8125 121.78125 240.769531 122.015625 C 240.71875 122.28125 241.445312 122.269531 241.574219 122.277344 C 242.535156 122.332031 243.523438 122.03125 244.445312 121.800781 C 248.003906 120.910156 252.152344 119.640625 255.390625 117.902344 C 257.792969 116.609375 259.816406 114.59375 261.914062 112.886719 C 265.082031 110.316406 268.300781 107.816406 271.5 105.277344 C 274.082031 103.230469 276.660156 101.066406 279.625 99.566406 C 280.703125 99.019531 281.945312 98.496094 283.183594 98.601562 C 284.078125 98.679688 284.925781 99.230469 285.742188 99.566406 C 287.578125 100.320312 289.609375 100.511719 291.296875 99.277344 C 291.835938 98.882812 292.300781 98.394531 292.707031 97.867188 C 293.195312 97.238281 293.625 96.546875 293.90625 95.800781 C 293.445312 96.007812 294.941406 97.164062 295.058594 97.234375 C 296.328125 97.992188 298.125 98.851562 299.363281 97.828125 C 303.253906 94.617188 301.222656 90.933594 300.753906 88.476562 Z M 300.753906 88.476562 " fill-opacity="1" fill-rule="evenodd"/><path fill="#000000" d="M 135.503906 97.824219 C 135.457031 97.808594 135.328125 98.046875 135.308594 98.074219 C 135.117188 98.335938 134.953125 98.617188 134.78125 98.894531 C 134.605469 99.171875 134.304688 99.558594 134.347656 99.917969 C 134.441406 100.726562 135.449219 101.96875 134.140625 102.296875 C 133.011719 102.578125 131.695312 101.40625 131.777344 100.179688 C 131.808594 99.730469 131.960938 99.308594 132.078125 98.882812 C 132.097656 98.808594 132.1875 98.511719 132.054688 98.492188 C 131.714844 98.445312 131.183594 99.40625 131.03125 99.628906 C 130.238281 100.757812 129.597656 102.25 128.371094 102.925781 C 127.222656 103.558594 125.835938 102.980469 124.667969 102.691406 C 123.746094 102.464844 122.863281 102.5 121.964844 102.800781 C 120.730469 103.210938 119.351562 104.496094 118.339844 105.277344 C 115.609375 107.394531 113.042969 109.738281 110.382812 111.957031 C 108.175781 113.796875 105.878906 115.554688 103.519531 117.164062 C 101.167969 118.769531 98.847656 120.410156 96.359375 121.765625 C 95.78125 122.078125 95.199219 122.371094 94.625 122.695312 C 94.507812 122.761719 94.050781 122.890625 94.023438 123.070312 C 93.988281 123.269531 94.488281 123.261719 94.578125 123.265625 C 95.246094 123.308594 95.929688 123.082031 96.566406 122.90625 C 99.027344 122.234375 101.894531 121.28125 104.132812 119.972656 C 105.796875 119 107.195312 117.484375 108.644531 116.199219 C 110.835938 114.265625 113.0625 112.382812 115.273438 110.472656 C 117.058594 108.929688 118.84375 107.300781 120.894531 106.171875 C 121.640625 105.761719 122.496094 105.367188 123.355469 105.445312 C 123.972656 105.507812 124.558594 105.917969 125.125 106.175781 C 126.394531 106.742188 127.796875 106.886719 128.964844 105.953125 C 129.339844 105.660156 129.660156 105.289062 129.9375 104.894531 C 130.277344 104.421875 130.574219 103.898438 130.769531 103.339844 C 130.449219 103.496094 131.484375 104.363281 131.566406 104.417969 C 132.445312 104.988281 133.6875 105.636719 134.542969 104.867188 C 137.234375 102.449219 135.828125 99.675781 135.503906 97.824219 Z M 135.503906 97.824219 " fill-opacity="1" fill-rule="evenodd"/><path fill="#000000" d="M 241.898438 38.3125 C 241.554688 38.417969 241.59375 39.144531 241.074219 39.125 C 240.566406 39.109375 239.902344 38.390625 239.570312 38.132812 C 238.496094 37.308594 237.742188 36.765625 237.773438 35.507812 C 237.792969 34.769531 238.019531 33.34375 239.160156 33.105469 C 239.539062 33.027344 239.933594 33.140625 240.296875 33.210938 C 240.582031 33.265625 240.863281 33.339844 241.109375 33.46875 C 241.457031 33.652344 241.78125 33.90625 242.058594 34.152344 C 242.535156 34.582031 242.917969 35.066406 243.273438 35.558594 C 243.878906 36.398438 244.421875 37.25 244.859375 38.152344 C 245.515625 39.496094 246.046875 40.878906 246.550781 42.257812 C 247.324219 39.914062 247.933594 37.535156 249.003906 35.253906 C 249.488281 34.21875 250.019531 32.996094 251.09375 32.226562 C 252.222656 31.417969 253.375 32.117188 254.105469 32.929688 C 254.527344 33.394531 255.089844 34.066406 255.136719 34.652344 C 255.1875 35.289062 254.699219 36.03125 254.351562 36.585938 C 254.257812 36.734375 254.058594 37.136719 253.808594 37.167969 C 253.597656 37.195312 253.179688 36.695312 253.070312 36.589844 C 252.375 35.933594 251.238281 34.695312 250.265625 35.828125 C 250.09375 36.03125 249.964844 36.253906 249.847656 36.480469 C 249.652344 36.847656 249.484375 37.222656 249.34375 37.605469 C 248.414062 40.125 247.996094 42.738281 247.105469 45.261719 C 246.886719 45.875 246.632812 46.511719 246.226562 47.070312 C 246.144531 47.183594 245.949219 47.527344 245.730469 47.503906 C 245.496094 47.484375 245.410156 47.128906 245.359375 46.996094 C 245.136719 46.394531 245.011719 45.777344 244.886719 45.164062 C 244.421875 42.863281 243.601562 40.277344 241.898438 38.3125 Z M 241.898438 38.3125 " fill-opacity="1" fill-rule="evenodd"/><path fill="#000000" d="M 242.40625 64.992188 C 242.097656 65.082031 242.136719 65.683594 241.675781 65.667969 C 241.222656 65.65625 240.632812 65.058594 240.335938 64.84375 C 239.382812 64.160156 238.710938 63.703125 238.738281 62.660156 C 238.757812 62.042969 238.957031 60.855469 239.972656 60.660156 C 240.308594 60.59375 240.65625 60.6875 240.980469 60.746094 C 241.234375 60.792969 241.484375 60.855469 241.703125 60.960938 C 242.015625 61.113281 242.300781 61.328125 242.546875 61.53125 C 242.972656 61.886719 243.3125 62.289062 243.628906 62.699219 C 244.164062 63.402344 244.648438 64.109375 245.039062 64.859375 C 245.621094 65.980469 246.089844 67.128906 246.542969 68.277344 C 247.230469 66.328125 247.769531 64.347656 248.71875 62.449219 C 249.152344 61.585938 249.625 60.570312 250.578125 59.929688 C 251.582031 59.253906 252.609375 59.835938 253.257812 60.511719 C 253.632812 60.902344 254.132812 61.460938 254.175781 61.949219 C 254.21875 62.476562 253.78125 63.097656 253.472656 63.558594 C 253.390625 63.679688 253.214844 64.015625 252.988281 64.042969 C 252.804688 64.0625 252.433594 63.648438 252.335938 63.558594 C 251.714844 63.015625 250.707031 61.980469 249.84375 62.925781 C 249.6875 63.09375 249.574219 63.28125 249.46875 63.46875 C 249.296875 63.773438 249.148438 64.085938 249.023438 64.402344 C 248.195312 66.5 247.824219 68.675781 247.03125 70.777344 C 246.839844 71.289062 246.613281 71.816406 246.253906 72.28125 C 246.179688 72.378906 246.007812 72.660156 245.8125 72.644531 C 245.601562 72.625 245.527344 72.328125 245.484375 72.21875 C 245.285156 71.71875 245.171875 71.207031 245.0625 70.695312 C 244.648438 68.78125 243.917969 66.628906 242.40625 64.992188 Z M 242.40625 64.992188 " fill-opacity="1" fill-rule="evenodd"/><path fill="#000000" d="M 203.761719 38.28125 L 207.761719 33.480469 L 213.210938 38.359375 L 209.296875 43.179688 Z M 203.761719 38.28125 " fill-opacity="1" fill-rule="evenodd"/><path fill="#000000" d="M 213.214844 37.550781 L 217.210938 32.753906 L 222.664062 37.632812 L 218.75 42.453125 Z M 213.214844 37.550781 " fill-opacity="1" fill-rule="evenodd"/><path fill="#000000" d="M 159.898438 80.796875 L 163.898438 76 L 169.351562 80.878906 L 165.4375 85.699219 Z M 159.898438 80.796875 " fill-opacity="1" fill-rule="evenodd"/><path fill="#000000" d="M 179.355469 41.191406 C 180.4375 41.191406 181.894531 43.238281 183.113281 42.160156 C 183.867188 41.492188 182.320312 38.964844 182.015625 38.320312 C 180.605469 35.382812 178.925781 32.507812 177.199219 29.746094 C 176.855469 29.199219 176.105469 27.414062 175.40625 27.203125 C 174.75 27.011719 173.878906 28.484375 173.558594 28.894531 C 173.007812 29.601562 171.992188 30.554688 171.957031 31.511719 C 171.921875 32.613281 173.421875 33.9375 173.992188 34.789062 C 173.875 34.964844 174.09375 35.574219 174.121094 35.757812 C 174.292969 36.78125 174.484375 37.804688 174.660156 38.824219 C 175.390625 43.066406 176.105469 47.3125 176.800781 51.5625 C 178.773438 63.679688 180.714844 75.679688 181.761719 87.921875 C 182.066406 91.46875 182.875 95.089844 182.839844 98.65625 C 182.8125 102.0625 178.394531 103.410156 175.660156 103.570312 C 170.785156 103.875 167.546875 100.292969 167.828125 95.484375 C 167.039062 95.375 166.484375 96.398438 166.074219 96.953125 C 164.800781 98.691406 163.871094 100.695312 162.4375 102.3125 C 157.585938 107.78125 147.882812 105.296875 144.855469 99.308594 C 144.289062 99.363281 143.738281 96.535156 143.667969 96.25 C 142.835938 92.808594 142.34375 89.28125 141.894531 85.769531 C 140.058594 71.359375 139.96875 56.496094 136.136719 42.402344 C 135.011719 38.265625 133.804688 34.03125 131.371094 30.4375 C 131.167969 30.136719 129.46875 27.425781 128.921875 27.648438 C 128.660156 27.746094 128.601562 28.585938 128.554688 28.808594 C 128.296875 30.054688 128.046875 31.308594 127.804688 32.554688 C 127.625 33.488281 126.984375 35.050781 127.285156 35.988281 C 127.445312 36.484375 128.457031 36.980469 128.847656 37.285156 C 129.753906 37.988281 130.476562 38.882812 131.046875 39.878906 C 132.503906 42.402344 133.03125 45.429688 133.546875 48.257812 C 135.382812 58.308594 136.015625 68.335938 136.816406 78.511719 C 137.464844 86.828125 138.164062 95.6875 141.511719 103.433594 C 144.300781 109.878906 151.804688 115.085938 158.734375 110.917969 C 161.332031 109.355469 163.042969 106.644531 164.472656 104.050781 C 164.382812 104.597656 165.449219 105.664062 165.761719 105.992188 C 167.542969 107.875 170.378906 109.328125 172.941406 109.648438 C 179.019531 110.410156 182.050781 105.601562 184.578125 100.929688 C 184.246094 100.820312 184.683594 100.230469 184.714844 99.882812 C 184.773438 99.144531 184.785156 98.410156 184.796875 97.671875 C 184.84375 94.113281 185.253906 89.246094 184.945312 85.699219 C 183.726562 71.578125 181.511719 55.203125 179.355469 41.191406 Z M 179.355469 41.191406 " fill-opacity="1" fill-rule="evenodd"/><path fill="#000000" d="M 156.449219 60.0625 C 156.492188 59.867188 156.171875 60.363281 156.046875 60.519531 C 155.832031 60.792969 155.59375 61.054688 155.363281 61.324219 C 154.824219 61.960938 153.617188 62.96875 153.453125 63.8125 C 153.382812 64.179688 154.238281 64.863281 154.445312 65.144531 C 155.585938 66.671875 155.632812 67.988281 153.839844 68.703125 C 153.417969 68.875 152.972656 68.992188 152.523438 69.085938 C 151.894531 69.210938 151.257812 69.234375 150.625 69.101562 C 148.535156 68.664062 147.238281 66.863281 146.953125 64.816406 C 146.894531 64.394531 147.335938 62.085938 146.808594 61.941406 C 146.441406 61.835938 146.09375 62.476562 145.945312 62.710938 C 145.300781 63.71875 144.726562 64.773438 144.074219 65.785156 C 142.152344 68.746094 139.597656 70.664062 135.996094 70.886719 C 132.578125 71.101562 129.992188 69.171875 127.882812 66.695312 C 127.390625 66.109375 126.410156 64.453125 125.800781 65.753906 C 125.289062 66.84375 125.078125 68.128906 124.78125 69.28125 C 124.664062 69.730469 124.351562 70.472656 124.445312 70.949219 C 124.691406 72.167969 125.566406 73.328125 126.128906 74.414062 C 127.757812 77.5625 129.773438 81.140625 128.933594 84.820312 C 124.863281 87.378906 121.121094 90.511719 116.925781 92.972656 C 109.519531 97.304688 100.746094 100.582031 92.101562 100.777344 C 86.34375 100.90625 79.773438 99.898438 76.113281 94.949219 C 73.164062 90.953125 73.585938 85.632812 74.761719 81.082031 C 75.246094 79.222656 75.9375 77.445312 76.539062 75.621094 C 76.636719 75.3125 77.078125 74.074219 76.503906 73.910156 C 76.046875 73.785156 75.457031 74.664062 75.253906 74.9375 C 74.175781 76.367188 73.511719 78.027344 73.050781 79.75 C 71.316406 86.179688 71.484375 93.824219 75.039062 99.636719 C 82.039062 111.085938 97.671875 108.589844 108.175781 104.300781 C 110.164062 103.488281 112.121094 102.597656 114.03125 101.613281 C 116.484375 100.359375 118.828125 98.902344 121.082031 97.316406 C 124.078125 95.203125 127.070312 92.859375 129.332031 89.953125 C 131.617188 87.007812 131.882812 84.230469 131.707031 80.570312 C 131.648438 79.339844 131.542969 78.105469 131.304688 76.890625 C 131.253906 76.632812 130.972656 75.941406 131.242188 75.726562 C 131.605469 75.433594 133.355469 76.109375 133.804688 76.144531 C 135.449219 76.273438 137.257812 76.058594 138.746094 75.316406 C 140.378906 74.507812 141.851562 73.113281 142.90625 71.644531 C 143.140625 71.316406 143.777344 69.898438 144.296875 69.945312 C 144.796875 69.980469 145.285156 71.515625 145.492188 71.863281 C 146.304688 73.230469 147.535156 74.535156 149.0625 75.066406 C 152.890625 76.382812 156.753906 73.433594 157.957031 69.878906 C 158.839844 67.257812 157.300781 62.636719 156.449219 60.0625 Z M 156.449219 60.0625 " fill-opacity="1" fill-rule="evenodd"/><path fill="#000000" d="M 231.179688 58.191406 L 230.28125 61.476562 L 260.261719 51.617188 L 262.640625 47.507812 C 262.640625 47.507812 231.453125 58.023438 231.179688 58.191406 Z M 231.179688 58.191406 " fill-opacity="1" fill-rule="evenodd"/><path fill="#000000" d="M 142.765625 33.769531 L 141.980469 36.925781 L 168.144531 27.460938 L 170.222656 23.511719 C 170.222656 23.511719 143.003906 33.609375 142.765625 33.769531 Z M 142.765625 33.769531 " fill-opacity="1" fill-rule="evenodd"/><path fill="#000000" d="M 212.128906 93.523438 C 212.035156 93.351562 211.917969 93.714844 211.835938 93.847656 C 211.589844 94.261719 211.351562 94.6875 211.128906 95.117188 C 210.496094 96.339844 209.84375 97.554688 209.285156 98.8125 C 207.726562 102.328125 205.742188 105.960938 206.324219 109.863281 C 206.511719 111.117188 206.914062 113.121094 208.589844 113.398438 C 210.746094 113.753906 211.921875 111.226562 212.542969 109.796875 C 212.691406 109.460938 212.832031 109.121094 212.941406 108.773438 C 213.113281 108.195312 213.335938 107.4375 213.128906 106.839844 C 212.921875 106.234375 212.289062 107.136719 212.144531 107.347656 C 211.660156 108.046875 210.941406 109.429688 209.859375 108.675781 C 209.726562 108.582031 209.605469 108.472656 209.503906 108.351562 C 209.351562 108.179688 209.226562 107.984375 209.125 107.785156 C 208.566406 106.679688 208.671875 105.289062 208.925781 104.128906 C 209.457031 101.683594 210.757812 99.433594 211.71875 97.121094 C 212.183594 96.007812 213.148438 94.117188 212.128906 93.523438 C 212.039062 93.46875 212.472656 93.394531 212.410156 93.3125 " fill-opacity="1" fill-rule="evenodd"/><path fill="#000000" d="M 231.925781 82.722656 C 232.039062 82.753906 232.773438 82.660156 232.867188 82.726562 C 232.84375 82.550781 233.226562 82.738281 233.410156 82.738281 C 233.71875 82.742188 235.261719 82.898438 235.171875 82.34375 C 235.085938 81.820312 234.410156 81.25 234.074219 80.863281 C 232.957031 79.570312 231.703125 78.363281 230.425781 77.226562 C 230.203125 77.03125 228.988281 75.703125 228.65625 75.898438 C 227.984375 76.289062 228.070312 78.003906 227.984375 78.632812 C 227.917969 79.132812 227.851562 79.628906 227.769531 80.125 C 227.726562 80.402344 227.679688 80.675781 227.613281 80.949219 C 227.359375 82.078125 227.1875 82.140625 227.84375 83.101562 C 227.960938 83.28125 228.085938 83.460938 228.210938 83.640625 C 228.417969 83.945312 228.625 84.246094 228.851562 84.539062 C 228.855469 84.535156 229.132812 85.007812 229.144531 85.035156 C 229.332031 85.378906 229.511719 85.726562 229.683594 86.078125 C 230.210938 87.132812 230.761719 88.167969 231.34375 89.191406 C 232.058594 90.453125 232.757812 91.722656 233.558594 92.933594 C 234.558594 94.449219 235.832031 96.164062 235.972656 98.023438 C 236.058594 97.933594 235.902344 98.265625 235.875 98.382812 C 235.8125 98.664062 235.703125 98.925781 235.574219 99.183594 C 235.21875 99.917969 234.785156 100.613281 234.304688 101.277344 C 232.804688 103.367188 230.894531 105.0625 228.816406 106.597656 C 222.828125 111.027344 215.4375 115.652344 207.828125 116.652344 C 202.226562 117.390625 196.503906 115.988281 195.140625 109.953125 C 194.554688 107.328125 194.4375 104.65625 194.722656 101.988281 C 194.832031 100.945312 194.964844 99.898438 195.152344 98.867188 C 195.167969 98.761719 195.441406 97.835938 195.210938 97.863281 C 194.78125 97.917969 194.375 98.625 194.164062 98.929688 C 193.304688 100.199219 192.910156 101.75 192.738281 103.25 C 192.140625 108.324219 192.28125 114.65625 195.636719 118.855469 C 199.726562 123.976562 206.320312 123.820312 212.035156 121.796875 C 217.421875 119.890625 222.246094 116.742188 226.84375 113.453125 C 231.601562 110.050781 236.597656 105.945312 238.597656 100.308594 C 240.898438 93.808594 234.554688 88.09375 231.925781 82.722656 Z M 231.925781 82.722656 " fill-opacity="1" fill-rule="evenodd"/><path fill="#000000" d="M 273.910156 75.820312 C 273.921875 75.894531 274.011719 76.078125 274.03125 76.128906 C 274.105469 76.421875 274.183594 76.714844 274.253906 77.007812 C 274.476562 77.878906 274.710938 78.734375 274.976562 79.597656 C 275.867188 82.542969 278.234375 85.007812 281.578125 84.742188 C 285.371094 84.4375 288.25 81.460938 289.90625 78.316406 C 290.5 77.171875 290.953125 75.984375 291.382812 74.769531 C 291.46875 74.527344 291.691406 73.632812 292 73.554688 C 292.179688 73.511719 292.257812 74.085938 292.28125 74.175781 C 292.453125 74.859375 292.519531 75.566406 292.609375 76.261719 C 292.867188 78.167969 293.34375 80.289062 295.210938 81.296875 C 296.578125 82.03125 298.351562 82.199219 299.855469 81.851562 C 300.371094 81.730469 301.222656 81.53125 301.402344 80.957031 C 301.527344 80.570312 301.808594 79.902344 301.742188 79.519531 C 301.566406 78.464844 300.398438 77.078125 300.167969 76.035156 C 300.15625 76.027344 301.621094 74.394531 301.765625 74.238281 C 302.421875 73.523438 303.082031 72.808594 303.765625 72.117188 C 303.910156 71.96875 304.316406 71.40625 304.585938 71.460938 C 304.796875 71.503906 304.773438 72.011719 304.785156 72.152344 C 304.835938 73.015625 304.785156 73.886719 304.796875 74.75 C 304.851562 77.988281 304.765625 81.609375 303.042969 84.488281 C 302.625 85.1875 302.085938 85.804688 301.488281 86.363281 C 297.339844 90.25 292.757812 86.238281 290.085938 82.820312 C 290.070312 82.792969 289.914062 83.144531 289.90625 83.167969 C 289.804688 83.378906 289.707031 83.585938 289.597656 83.792969 C 289.28125 84.433594 288.921875 85.050781 288.539062 85.660156 C 287.3125 87.640625 285.894531 89.277344 283.550781 89.972656 C 280.160156 90.984375 275.960938 90.257812 273.863281 87.242188 C 272.917969 85.878906 272.710938 84.382812 272.195312 82.867188 C 271.96875 82.800781 270.976562 83.65625 270.78125 83.773438 C 269.339844 84.644531 267.9375 85.53125 266.445312 86.3125 C 266.261719 86.164062 266.515625 86.765625 266.550781 86.992188 C 266.621094 87.46875 266.6875 87.945312 266.746094 88.421875 C 266.90625 89.789062 267.074219 91.152344 266.972656 92.53125 C 266.996094 92.539062 266.722656 93.109375 266.71875 93.125 C 266.316406 93.890625 265.878906 94.640625 265.429688 95.378906 C 263.390625 98.648438 260.921875 101.664062 258.144531 104.363281 C 256.476562 105.984375 254.734375 107.539062 252.84375 108.914062 C 251.5625 109.847656 250.199219 110.695312 248.789062 111.4375 C 241.972656 115.042969 229.183594 117.855469 225.179688 108.871094 C 222.964844 103.898438 223.414062 97.835938 224.710938 92.679688 C 225.027344 91.402344 225.359375 90.097656 225.929688 88.898438 C 226.015625 88.722656 226.265625 87.949219 226.527344 87.929688 C 226.800781 87.90625 226.496094 89.449219 226.484375 89.523438 C 226.109375 91.445312 225.667969 93.363281 225.488281 95.3125 C 225.050781 100.128906 226.46875 105.78125 231.453125 107.8125 C 241.070312 111.726562 251.859375 104.40625 258.609375 98.296875 C 260.242188 96.820312 261.738281 95.273438 263.1875 93.632812 C 263.832031 92.90625 264.847656 91.785156 264.992188 90.769531 C 265.128906 89.859375 264.722656 88.984375 264.453125 88.140625 C 264.160156 88.136719 263.730469 88.445312 263.453125 88.554688 C 262.695312 88.859375 261.929688 89.160156 261.152344 89.453125 C 258.59375 90.421875 255.457031 91.179688 252.785156 90.222656 C 252.089844 89.972656 251.445312 89.640625 250.890625 89.164062 C 246.71875 85.59375 250.199219 80.042969 253.019531 76.882812 C 254.5 75.222656 256.394531 73.421875 258.84375 74.015625 C 260.464844 74.40625 261.703125 75.753906 262.660156 77.027344 C 263.738281 78.472656 264.417969 79.976562 265.0625 81.636719 C 265.046875 81.648438 265.046875 81.65625 265.066406 81.660156 L 265.0625 81.636719 C 265.109375 81.589844 265.378906 81.472656 265.402344 81.464844 C 265.636719 81.355469 265.867188 81.242188 266.09375 81.128906 C 266.761719 80.789062 267.40625 80.417969 268.058594 80.046875 C 270.175781 78.84375 272.191406 77.539062 273.910156 75.820312 C 273.90625 75.789062 273.910156 75.777344 273.9375 75.792969 Z M 260.320312 83.335938 C 260.300781 83.3125 259.203125 83.699219 259.175781 83.707031 C 258.75 83.851562 258.292969 83.945312 257.847656 84.003906 C 256.5625 84.175781 254.636719 84.414062 253.691406 83.316406 C 252.589844 82.042969 254 80.285156 255.386719 80.066406 C 257.101562 79.796875 259.53125 81.660156 260.320312 83.335938 Z M 260.320312 83.335938 " fill-opacity="1" fill-rule="evenodd"/><path fill="#000000" d="M 271.714844 75.625 C 271.804688 75.59375 272.074219 75.261719 272.121094 75.214844 C 272.527344 74.855469 272.96875 74.527344 273.421875 74.214844 C 275.132812 73.035156 277.050781 72.125 278.75 70.921875 C 284.203125 67.050781 289.644531 63.058594 294.585938 58.660156 C 295.796875 57.585938 296.964844 56.476562 298.167969 55.390625 C 298.699219 54.910156 299.625 54.304688 299.941406 53.660156 C 300.078125 53.386719 299.1875 52.964844 299.027344 52.851562 C 298.074219 52.167969 297.179688 51.398438 296.519531 50.472656 C 295.429688 48.945312 295.992188 47.539062 296.9375 46.0625 C 297.847656 44.636719 298.992188 43.328125 300.695312 42.636719 C 302.144531 42.050781 303.625 42.929688 304.191406 44.164062 C 304.953125 45.808594 304.519531 47.804688 303.953125 49.441406 C 303.785156 49.925781 303.589844 50.414062 303.304688 50.851562 C 303.214844 50.996094 302.828125 51.324219 302.8125 51.480469 C 302.800781 51.585938 303.273438 51.875 303.359375 51.933594 C 303.835938 52.300781 304.480469 52.664062 304.703125 53.21875 C 305.027344 54.023438 304.574219 55.101562 304.132812 55.800781 C 304.03125 55.964844 303.738281 56.515625 303.464844 56.480469 C 303.160156 56.445312 302.878906 56.152344 302.660156 55.984375 C 302.117188 55.574219 301.601562 55.136719 301.078125 54.707031 C 300.363281 55.398438 299.804688 56.308594 299.140625 57.042969 C 297.339844 59.042969 295.460938 61.042969 293.417969 62.847656 C 290.0625 65.816406 285.886719 68.074219 282.050781 70.488281 C 279.203125 72.277344 275.148438 74.820312 271.714844 75.625 C 271.710938 75.625 271.707031 75.628906 271.703125 75.628906 Z M 301.921875 50.628906 C 302.027344 50.132812 302.222656 49.65625 302.292969 49.144531 C 302.433594 48.132812 302.15625 47.042969 301.425781 46.25 C 301.042969 45.832031 300.519531 45.480469 299.914062 45.402344 C 299.085938 45.296875 298.179688 45.960938 298.152344 46.726562 C 298.136719 47.191406 298.496094 47.609375 298.816406 47.941406 C 299.550781 48.699219 301.058594 49.992188 301.921875 50.628906 Z M 301.921875 50.628906 " fill-opacity="1" fill-rule="evenodd"/><path fill="#000000" d="M 265.152344 51.035156 C 265.222656 51.144531 265.871094 50.949219 266.023438 50.917969 C 266.367188 50.84375 266.71875 50.78125 267.066406 50.726562 C 268.152344 50.550781 269.238281 50.417969 270.34375 50.359375 C 273.738281 50.183594 277.707031 50.25 280.882812 51.359375 C 280.988281 51.222656 280.570312 51.558594 280.417969 51.660156 C 280.066406 51.890625 279.699219 52.105469 279.324219 52.3125 C 278.289062 52.890625 277.253906 53.46875 276.164062 53.984375 C 273.097656 55.433594 269.894531 56.703125 266.902344 58.246094 C 266.1875 58.613281 265.4375 58.953125 264.757812 59.359375 C 264.679688 59.402344 264.132812 59.714844 264.230469 59.828125 C 264.46875 60.105469 265.722656 59.855469 266.019531 59.820312 C 267.910156 59.597656 269.765625 59.214844 271.625 58.863281 C 273.535156 58.503906 276.015625 58.480469 277.769531 57.722656 C 278.65625 57.34375 279.382812 56.4375 280.011719 55.835938 C 281.5625 54.363281 283.042969 52.84375 284.542969 51.34375 C 286.175781 49.707031 288.765625 47.378906 288.804688 45.144531 C 288.84375 42.859375 284.101562 42.996094 282.214844 42.859375 C 281.574219 42.8125 280.933594 42.746094 280.292969 42.695312 C 278.019531 42.507812 275.695312 42.40625 273.410156 42.476562 C 272.597656 42.5 271.484375 42.390625 270.726562 42.679688 C 269.660156 43.085938 269.09375 44.058594 268.507812 44.820312 C 267.136719 46.601562 266.0625 49.070312 265.152344 51.035156 Z M 265.152344 51.035156 " fill-opacity="1" fill-rule="evenodd"/><path fill="#000000" d="M 213.972656 66.746094 C 213.972656 66.652344 214.980469 65.367188 215 65.332031 C 215.207031 65.0625 215.421875 64.800781 215.640625 64.542969 C 216.339844 63.703125 217.027344 62.859375 217.707031 62.003906 C 219.398438 59.867188 221.214844 57.824219 222.988281 55.75 C 223.398438 55.273438 223.816406 54.792969 224.28125 54.367188 C 224.332031 54.320312 224.695312 53.9375 224.796875 54.042969 C 224.953125 54.210938 224.753906 54.796875 224.710938 54.976562 C 224.511719 55.878906 224.195312 56.765625 223.824219 57.609375 C 222.238281 61.195312 219.230469 64.132812 216.855469 67.21875 C 216.296875 67.265625 216.5 67.988281 216.710938 68.21875 C 217.539062 69.132812 218.425781 69.953125 219.1875 70.9375 C 221.125 73.449219 222.242188 75.816406 222.335938 79.023438 C 222.371094 80.277344 222.3125 81.527344 222.007812 82.75 C 221.109375 86.332031 218.128906 88.671875 215.042969 90.492188 C 213.277344 91.535156 211.007812 92.695312 208.878906 92.511719 C 206.097656 92.273438 204.976562 89.871094 204.605469 87.453125 C 203.855469 82.5625 205.78125 78.046875 208.371094 73.953125 C 209.027344 72.914062 209.726562 71.898438 210.449219 70.902344 C 210.734375 70.507812 211.292969 70.023438 211.429688 69.546875 C 211.480469 69.371094 211.125 69.328125 211.007812 69.1875 C 210.550781 68.648438 210.105469 68.101562 209.640625 67.5625 C 208.078125 65.746094 206.492188 63.949219 204.898438 62.152344 C 204.5 61.703125 203.605469 61.742188 203.355469 61.199219 C 202.664062 59.699219 203.414062 57.4375 203.679688 55.902344 C 203.742188 55.515625 203.777344 54.21875 204.425781 54.253906 C 204.964844 54.28125 205.710938 54.929688 206.15625 55.1875 C 207.714844 56.101562 209.210938 57.160156 210.671875 58.21875 C 211.054688 58.496094 212.191406 59.234375 212.152344 59.804688 C 212.136719 60.066406 211.671875 60.109375 211.480469 60.132812 C 211.007812 60.183594 209.808594 60.039062 209.449219 60.378906 C 209.121094 60.695312 209.640625 61.503906 209.796875 61.785156 C 210.480469 63.046875 212.886719 65.789062 213.972656 66.746094 C 213.980469 66.75 213.980469 66.75 213.980469 66.75 Z M 213.609375 72.726562 C 213.324219 72.796875 213.042969 73.195312 212.855469 73.375 C 212.339844 73.878906 211.839844 74.394531 211.355469 74.929688 C 210.898438 75.433594 210.464844 75.957031 210.0625 76.5 C 209.691406 76.992188 209.351562 77.5 209.027344 78.019531 C 207.78125 80.046875 206.027344 84.582031 209.351562 85.808594 C 212.542969 86.988281 215.867188 84.160156 218.023438 82.246094 C 218.753906 81.597656 220.15625 80.539062 220.109375 79.453125 C 220.074219 78.671875 219.429688 77.910156 218.957031 77.316406 C 217.6875 75.71875 215.335938 73.855469 213.609375 72.726562 Z M 213.609375 72.726562 " fill-opacity="1" fill-rule="evenodd"/><path fill="#000000" d="M 196.269531 96.066406 C 195.6875 96.671875 196.289062 93.164062 196.273438 92.402344 C 196.207031 88.996094 195.824219 85.613281 195.464844 82.222656 C 194.15625 69.863281 191.589844 56.535156 190.207031 44.183594 C 189.992188 44.109375 190.03125 43.335938 190.007812 43.203125 C 189.855469 42.109375 189.691406 41.015625 189.582031 39.917969 C 189.347656 37.578125 189.285156 35.21875 188.902344 32.886719 C 188.847656 32.542969 188.78125 32.125 188.46875 31.835938 C 188.226562 31.605469 187.601562 31.441406 187.648438 31.121094 C 187.730469 30.542969 188.1875 29.921875 188.492188 29.375 C 188.703125 29.003906 188.914062 28.636719 189.148438 28.273438 C 189.265625 28.089844 189.390625 27.90625 189.539062 27.730469 C 189.640625 27.609375 189.753906 27.496094 189.878906 27.382812 C 190.738281 26.601562 191.066406 27.605469 191.351562 28.109375 C 191.828125 28.953125 192.285156 29.804688 192.742188 30.65625 C 193.3125 31.730469 193.949219 32.792969 194.585938 33.855469 C 195.371094 35.160156 196.140625 36.46875 196.722656 37.824219 C 196.9375 38.320312 197.367188 39.007812 197.199219 39.542969 C 197.089844 39.882812 196.113281 39.285156 195.992188 39.210938 C 195.320312 38.804688 194.734375 38.34375 194.148438 37.894531 C 194.109375 37.863281 193.707031 37.5 193.578125 37.550781 C 193.4375 37.601562 193.609375 38.34375 193.617188 38.425781 C 193.652344 38.699219 193.6875 38.972656 193.726562 39.246094 C 193.789062 39.65625 193.847656 40.066406 193.902344 40.480469 C 193.925781 40.667969 194.011719 41.136719 194.03125 41.300781 C 194.152344 42.210938 194.28125 43.117188 194.382812 44.03125 C 194.78125 47.503906 195.195312 50.980469 195.6875 54.445312 C 196.699219 61.578125 197.804688 68.703125 198.761719 75.835938 C 199.335938 80.105469 200.417969 84.433594 199.75 88.757812 C 199.429688 90.84375 196.847656 95.457031 196.269531 96.066406 Z M 196.269531 96.066406 " fill-opacity="1" fill-rule="evenodd"/></svg>